<svg xmlns="http://www.w3.org/2000/svg" xmlns:xlink="http://www.w3.org/1999/xlink" version="1.1" id="mapSvgView" width="720" height="300"> <rect id="mainfill" class="grass" x="0" y="0" width="100%" height="100%"></rect> <g id="paths"><path d="M432,12L432,12L444,12L444,24L432,24L432,12M444,24L444,24L456,24L456,36L444,36L444,24M432,24L432,24L432,36L420,36L420,24L432,24M432,36L432,36L444,36L444,48L432,48L432,36M420,36L420,36L420,48L408,48L408,36L420,36M456,36L456,36L468,36L468,48L456,48L456,36M420,48L420,48L432,48L432,60L420,60L420,48M408,48L408,48L408,60L396,60L396,48L408,48M444,48L444,48L456,48L456,60L444,60L444,48M468,48L468,48L480,48L480,60L468,60L468,48M408,60L408,60L420,60L420,72L408,72L408,60M396,60L396,60L396,72L384,72L384,60L396,60M432,60L432,60L444,60L444,72L432,72L432,60M456,60L456,60L468,60L468,72L456,72L456,60M480,60L480,60L492,60L492,72L480,72Z" class="cp1"></path><path d="M612,120L612,120L624,120L624,132L636,132L636,120L648,120L648,132L660,132L660,120L672,120L672,132L684,132L684,120L696,120L696,144L612,144Z" class="cp2"></path><path d="M552,120L552,120L576,120L576,144L564,144L564,156L528,156L528,132L552,132Z" class="cp3"></path><path d="M360,156L360,156L432,156L432,168L360,168Z" class="cp4"></path><path d="M312,228L312,228L348,228L348,276L312,276Z" class="cp5"></path><path d="M120,180L120,180L156,180L156,192L132,192L132,204L120,204L120,228L108,228L108,192L120,192Z" class="cp6"></path><path d="M12,108L12,108L72,108L72,120L12,120Z" class="cp7"></path><path d="M0,0L0,0L12,0L12,60L0,60Z" class="parc"></path><path d="M60,12L60,12L144,12L144,72L120,72L120,84L96,84L96,96L84,96L84,108L12,108L12,84L24,84L24,72L12,72L12,60L24,60L24,36L36,36L36,24L60,24L60,12M168,12L168,12L432,12L432,24L420,24L420,36L408,36L408,48L396,48L396,60L384,60L384,72L168,72L168,12M432,24L432,24L444,24L444,12L624,12L624,24L660,24L660,36L684,36L684,48L708,48L708,96L696,96L696,120L684,120L684,132L672,132L672,120L660,120L660,132L648,132L648,120L636,120L636,132L624,132L624,120L600,120L600,108L612,108L612,84L588,84L588,72L492,72L492,60L480,60L480,48L468,48L468,36L456,36L456,24L444,24L444,36L432,36L432,24M420,36L420,36L432,36L432,48L420,48L420,36M444,36L444,36L456,36L456,48L444,48L444,36M408,48L408,48L420,48L420,60L408,60L408,48M432,48L432,48L444,48L444,60L432,60L432,48M456,48L456,48L468,48L468,60L456,60L456,48M396,60L396,60L408,60L408,72L396,72L396,60M420,60L420,60L432,60L432,72L420,72L420,60M444,60L444,60L456,60L456,72L444,72L444,60M468,60L468,60L480,60L480,72L468,72L468,60M408,84L408,84L528,84L528,96L540,96L540,108L564,108L564,120L552,120L552,132L528,132L528,144L504,144L504,132L468,132L468,120L444,120L444,144L432,144L432,156L348,156L348,144L336,144L336,132L348,132L348,120L372,120L372,108L384,108L384,96L408,96L408,84M12,120L12,120L72,120L72,132L84,132L84,144L108,144L108,168L132,168L132,180L120,180L120,192L108,192L108,216L36,216L36,180L24,180L24,168L12,168L12,120M576,132L576,132L588,132L588,144L684,144L684,168L672,168L672,180L660,180L660,192L564,192L564,180L540,180L540,156L564,156L564,144L576,144L576,132M372,168L372,168L444,168L444,180L468,180L468,192L480,192L480,228L468,228L468,240L444,240L444,252L420,252L420,264L384,264L384,276L348,276L348,216L384,216L384,204L396,204L396,192L384,192L384,180L372,180L372,168M132,192L132,192L252,192L252,204L288,204L288,216L312,216L312,276L300,276L300,264L252,264L252,252L228,252L228,240L192,240L192,228L120,228L120,204L132,204Z" class="road"></path><path d="M144,12L144,12L156,12L156,72L144,72Z" class="finish"></path><path d="M156,12L156,12L168,12L168,72L156,72Z" class="start"></path></g></svg>