<svg xmlns="http://www.w3.org/2000/svg" xmlns:xlink="http://www.w3.org/1999/xlink" version="1.1" id="mapSvgView" width="756" height="372"> <rect id="mainfill" class="night" x="0" y="0" width="100%" height="100%"></rect> <g id="paths"><path d="M696,120L696,120L744,120L744,132L696,132Z" class="cp1"></path><path d="M444,264L444,264L492,264L492,276L444,276Z" class="cp2"></path><path d="M180,324L180,324L192,324L192,360L180,360Z" class="cp3"></path><path d="M0,0L0,0L12,0L12,48L0,48Z" class="parc"></path><path d="M24,180L24,180L72,180L72,192L24,192Z" class="start"></path><path d="M24,192L24,192L72,192L72,204L24,204Z" class="finish"></path></g></svg>