<svg xmlns="http://www.w3.org/2000/svg" xmlns:xlink="http://www.w3.org/1999/xlink" version="1.1" id="mapSvgView" width="1152" height="264"> <rect id="mainfill" class="night" x="0" y="0" width="100%" height="100%"></rect> <g id="paths"><path d="M828,216L828,216L840,216L840,252L828,252Z" class="cp1"></path><path d="M24,180L24,180L108,180L108,192L24,192Z" class="cp2"></path><path d="M0,0L0,0L12,0L12,48L0,48Z" class="parc"></path><path d="M24,12L24,12L36,12L36,48L24,48L24,12M48,24L48,24L60,24L60,36L48,36Z" class="start"></path><path d="M600,180L600,180L684,180L684,192L600,192Z" class="finish"></path></g></svg>