<svg xmlns="http://www.w3.org/2000/svg" xmlns:xlink="http://www.w3.org/1999/xlink" version="1.1" id="mapSvgView" width="996" height="288"> <rect id="mainfill" class="night" x="0" y="0" width="100%" height="100%"></rect> <g id="paths"><path d="M0,0L0,0L12,0L12,72L0,72Z" class="parc"></path><path d="M36,12L36,12L72,12L72,24L36,24L36,12M36,24L36,24L36,60L24,60L24,24Z" class="start"></path><path d="M960,228L960,228L972,228L972,252L960,252L960,264L936,264L936,252L948,252L948,240L960,240Z" class="finish"></path></g></svg>