<svg xmlns="http://www.w3.org/2000/svg" xmlns:xlink="http://www.w3.org/1999/xlink" version="1.1" id="mapSvgView" width="972" height="444"> <rect id="mainfill" class="night" x="0" y="0" width="100%" height="100%"></rect> <g id="paths"><path d="M0,0L0,0L12,0L12,168L0,168Z" class="parc"></path><path d="M60,36L60,36L72,36L72,48L60,48L60,36M72,48L72,48L84,48L84,36L96,36L96,48L84,48L84,60L72,60L72,48M96,48L96,48L108,48L108,36L120,36L120,48L108,48L108,60L96,60L96,48M120,48L120,48L132,48L132,36L144,36L144,48L132,48L132,60L120,60L120,48M84,60L84,60L96,60L96,72L84,72L84,60M72,60L72,60L72,72L60,72L60,60L72,60M108,60L108,60L120,60L120,72L108,72L108,60M132,60L132,60L144,60L144,72L132,72L132,60M72,72L72,72L84,72L84,84L72,84L72,72M96,72L96,72L108,72L108,84L96,84L96,72M120,72L120,72L132,72L132,84L120,84Z" class="start"></path><path d="M900,372L900,372L960,372L960,432L900,432Z" class="finish"></path></g></svg>