<svg xmlns="http://www.w3.org/2000/svg" xmlns:xlink="http://www.w3.org/1999/xlink" version="1.1" id="mapSvgView" width="624" height="1380"> <rect id="mainfill" class="night" x="0" y="0" width="100%" height="100%"></rect> <g id="paths"><path d="M192,96L192,96L204,96L204,108L192,108L192,96M192,108L192,108L192,120L180,120L180,108L192,108M180,120L180,120L180,132L168,132L168,120L180,120M132,204L132,204L156,204L156,228L168,228L168,240L144,240L144,216L132,216L132,204M264,348L264,348L276,348L276,384L264,384L264,348M348,528L348,528L372,528L372,552L384,552L384,564L360,564L360,540L348,540L348,528M360,672L360,672L384,672L384,684L372,684L372,708L348,708L348,696L360,696L360,672M336,804L336,804L360,804L360,828L372,828L372,840L348,840L348,816L336,816L336,804M396,936L396,936L408,936L408,972L396,972L396,936M396,1080L396,1080L408,1080L408,1116L396,1116L396,1080M360,1236L360,1236L372,1236L372,1272L360,1272Z" class="cp1"></path><path d="M0,0L0,0L624,0L624,1380L0,1380L0,0M24,12L24,12L12,12L12,1368L612,1368L612,12Z" class="parc"></path><path d="M132,36L132,36L144,36L144,48L132,48L132,36M144,48L144,48L156,48L156,36L168,36L168,48L156,48L156,60L144,60L144,48M132,48L132,48L132,60L120,60L120,48L132,48M168,48L168,48L180,48L180,60L168,60L168,48M132,60L132,60L144,60L144,72L132,72L132,60M156,60L156,60L168,60L168,72L156,72Z" class="start"></path><path d="M372,1320L372,1320L432,1320L432,1332L372,1332Z" class="finish"></path></g></svg>