<svg xmlns:xlink="http://www.w3.org/1999/xlink" xmlns="http://www.w3.org/2000/svg" height="1356" width="1080" id="mapSvgView" version="1.1" style="width: 1080px; height: 1356px;" viewBox="0 0 1080 1356">
 <defs>
 <pattern y="0" x="0" height="24" width="24" patternUnits="userSpaceOnUse" id="grassPattern">
 <rect class="grasscolor" height="24" width="24" y="0" x="0"></rect>
 <rect class="grassspeclecolor" height="1" width="1" x="1" y="5"></rect>
 <rect class="grassspeclecolor" height="1" width="1" x="1" y="5"></rect>
 <rect class="grassspeclecolor" height="1" width="1" x="3" y="5"></rect>
 <rect class="grassspeclecolor" height="1" width="1" x="6" y="7"></rect>
 <rect class="grassspeclecolor" height="1" width="1" x="6" y="17"></rect>
 <rect class="grassspeclecolor" height="1" width="1" x="8" y="21"></rect>
 <rect class="grassspeclecolor" height="1" width="1" x="9" y="2"></rect>
 <rect class="grassspeclecolor" height="1" width="1" x="12" y="4"></rect>
 <rect class="grassspeclecolor" height="1" width="1" x="13" y="15"></rect>
 <rect class="grassspeclecolor" height="1" width="1" x="14" y="4"></rect>
 <rect class="grassspeclecolor" height="1" width="1" x="14" y="19"></rect>
 <rect class="grassspeclecolor" height="1" width="1" x="17" y="7"></rect>
 <rect class="grassspeclecolor" height="1" width="1" x="17" y="12"></rect>
 <rect class="grassspeclecolor" height="1" width="1" x="18" y="23"></rect>
 <rect class="grassspeclecolor" height="1" width="1" x="21" y="16"></rect>
 <rect class="grassspeclecolor" height="1" width="1" x="23" y="12"></rect>
 </pattern>
 <pattern y="0" x="0" height="24" width="24" patternUnits="userSpaceOnUse" id="roadPattern">
 <rect class="roadcolor" height="24" width="24" y="0" x="0"></rect>
 <rect class="roadspeclecolor" height="1" width="1" x="1" y="5"></rect>
 <rect class="roadspeclecolor" height="1" width="1" x="1" y="5"></rect>
 <rect class="roadspeclecolor" height="1" width="1" x="3" y="5"></rect>
 <rect class="roadspeclecolor" height="1" width="1" x="6" y="7"></rect>
 <rect class="roadspeclecolor" height="1" width="1" x="6" y="17"></rect>
 <rect class="roadspeclecolor" height="1" width="1" x="8" y="21"></rect>
 <rect class="roadspeclecolor" height="1" width="1" x="9" y="2"></rect>
 <rect class="roadspeclecolor" height="1" width="1" x="12" y="4"></rect>
 <rect class="roadspeclecolor" height="1" width="1" x="13" y="15"></rect>
 <rect class="roadspeclecolor" height="1" width="1" x="14" y="4"></rect>
 <rect class="roadspeclecolor" height="1" width="1" x="14" y="19"></rect>
 <rect class="roadspeclecolor" height="1" width="1" x="17" y="7"></rect>
 <rect class="roadspeclecolor" height="1" width="1" x="17" y="12"></rect>
 <rect class="roadspeclecolor" height="1" width="1" x="18" y="23"></rect>
 <rect class="roadspeclecolor" height="1" width="1" x="21" y="16"></rect>
 <rect class="roadspeclecolor" height="1" width="1" x="23" y="12"></rect>
 </pattern>
 <pattern y="0" x="0" height="12" width="12" patternUnits="userSpaceOnUse" id="grid">
 <line stroke-width="1" stroke="black" y2="12" x2="12" y1="0" x1="12"></line>
 <line stroke-width="1" stroke="black" y2="12" x2="12" y1="12" x1="0"></line>
 </pattern>
 <pattern y="0" x="0" height="12" width="12" patternUnits="userSpaceOnUse" id="finishPattern">
 <rect fill="black" height="12" width="12" y="0" x="0"></rect>
 <path fill="white" d="M0,0L3,0L3,3L0,3L0,0M6,0L9,0L9,3L6,3L6,0M3,3L6,3L6,6L3,6L3,3M9,3L12,3L12,6L9,6L9,3"></path>
 <path fill="white" d="M0,6L3,6L3,9L0,9L0,6M6,6L9,6L9,9L6,9L6,6M3,9L6,9L6,12L3,12L3,9M9,9L12,9L12,12L9,12L9,9"></path>
 </pattern>
 <pattern y="0" x="0" height="12" width="12" patternUnits="userSpaceOnUse" id="startPattern">
 <rect fill="rgb(100,100,100)" height="12" width="12" y="0" x="0"></rect>
 <rect stroke-width="1" stroke="rgb(200,200,200)" fill="none" height="5" width="5" y="3.5" x="3.5"></rect>
 </pattern>
 <pattern y="0" x="0" height="12" width="12" patternUnits="userSpaceOnUse" id="cp1pattern">
 <rect class="cp1color" height="12" width="12" y="0" x="0"></rect>
 <path fill="black" d="M0,0L3,0L3,3L0,3L0,0M6,0L9,0L9,3L6,3L6,0M3,3L6,3L6,6L3,6L3,3M9,3L12,3L12,6L9,6L9,3"></path>
 <path fill="black" d="M0,6L3,6L3,9L0,9L0,6M6,6L9,6L9,9L6,9L6,6M3,9L6,9L6,12L3,12L3,9M9,9L12,9L12,12L9,12L9,9"></path>
 </pattern>
 <pattern y="0" x="0" height="12" width="12" patternUnits="userSpaceOnUse" id="cp2pattern">
 <rect class="cp2color" height="12" width="12" y="0" x="0"></rect>
 <path fill="white" d="M0,0L3,0L3,3L0,3L0,0M6,0L9,0L9,3L6,3L6,0M3,3L6,3L6,6L3,6L3,3M9,3L12,3L12,6L9,6L9,3"></path>
 <path fill="white" d="M0,6L3,6L3,9L0,9L0,6M6,6L9,6L9,9L6,9L6,6M3,9L6,9L6,12L3,12L3,9M9,9L12,9L12,12L9,12L9,9"></path>
 </pattern>
 <pattern y="0" x="0" height="12" width="12" patternUnits="userSpaceOnUse" id="cp3pattern">
 <rect class="cp3color" height="12" width="12" y="0" x="0"></rect>
 <path fill="black" d="M0,0L3,0L3,3L0,3L0,0M6,0L9,0L9,3L6,3L6,0M3,3L6,3L6,6L3,6L3,3M9,3L12,3L12,6L9,6L9,3"></path>
 <path fill="black" d="M0,6L3,6L3,9L0,9L0,6M6,6L9,6L9,9L6,9L6,6M3,9L6,9L6,12L3,12L3,9M9,9L12,9L12,12L9,12L9,9"></path>
 </pattern>
 <pattern y="0" x="0" height="12" width="12" patternUnits="userSpaceOnUse" id="cp4pattern">
 <rect class="cp4color" height="12" width="12" y="0" x="0"></rect>
 <path fill="white" d="M0,0L3,0L3,3L0,3L0,0M6,0L9,0L9,3L6,3L6,0M3,3L6,3L6,6L3,6L3,3M9,3L12,3L12,6L9,6L9,3"></path>
 <path fill="white" d="M0,6L3,6L3,9L0,9L0,6M6,6L9,6L9,9L6,9L6,6M3,9L6,9L6,12L3,12L3,9M9,9L12,9L12,12L9,12L9,9"></path>
 </pattern>
 <pattern y="0" x="0" height="12" width="12" patternUnits="userSpaceOnUse" id="cp5pattern">
 <rect class="cp5color" height="12" width="12" y="0" x="0"></rect>
 <path fill="black" d="M0,0L3,0L3,3L0,3L0,0M6,0L9,0L9,3L6,3L6,0M3,3L6,3L6,6L3,6L3,3M9,3L12,3L12,6L9,6L9,3"></path>
 <path fill="black" d="M0,6L3,6L3,9L0,9L0,6M6,6L9,6L9,9L6,9L6,6M3,9L6,9L6,12L3,12L3,9M9,9L12,9L12,12L9,12L9,9"></path>
 </pattern>
 <pattern y="0" x="0" height="12" width="12" patternUnits="userSpaceOnUse" id="cp6pattern">
 <rect class="cp6color" height="12" width="12" y="0" x="0"></rect>
 <path fill="white" d="M0,0L3,0L3,3L0,3L0,0M6,0L9,0L9,3L6,3L6,0M3,3L6,3L6,6L3,6L3,3M9,3L12,3L12,6L9,6L9,3"></path>
 <path fill="white" d="M0,6L3,6L3,9L0,9L0,6M6,6L9,6L9,9L6,9L6,6M3,9L6,9L6,12L3,12L3,9M9,9L12,9L12,12L9,12L9,9"></path>
 </pattern>
 <pattern y="0" x="0" height="12" width="12" patternUnits="userSpaceOnUse" id="cp7pattern">
 <rect class="cp7color" height="12" width="12" y="0" x="0"></rect>
 <path fill="black" d="M0,0L3,0L3,3L0,3L0,0M6,0L9,0L9,3L6,3L6,0M3,3L6,3L6,6L3,6L3,3M9,3L12,3L12,6L9,6L9,3"></path>
 <path fill="black" d="M0,6L3,6L3,9L0,9L0,6M6,6L9,6L9,9L6,9L6,6M3,9L6,9L6,12L3,12L3,9M9,9L12,9L12,12L9,12L9,9"></path>
 </pattern>
 <pattern y="0" x="0" height="12" width="12" patternUnits="userSpaceOnUse" id="cp8pattern">
 <rect class="cp8color" height="12" width="12" y="0" x="0"></rect>
 <path fill="white" d="M0,0L3,0L3,3L0,3L0,0M6,0L9,0L9,3L6,3L6,0M3,3L6,3L6,6L3,6L3,3M9,3L12,3L12,6L9,6L9,3"></path>
 <path fill="white" d="M0,6L3,6L3,9L0,9L0,6M6,6L9,6L9,9L6,9L6,6M3,9L6,9L6,12L3,12L3,9M9,9L12,9L12,12L9,12L9,9"></path>
 </pattern>
 <pattern y="0" x="0" height="12" width="12" patternUnits="userSpaceOnUse" id="cp9pattern">
 <rect class="cp9color" height="12" width="12" y="0" x="0"></rect>
 <path fill="black" d="M0,0L3,0L3,3L0,3L0,0M6,0L9,0L9,3L6,3L6,0M3,3L6,3L6,6L3,6L3,3M9,3L12,3L12,6L9,6L9,3"></path>
 <path fill="black" d="M0,6L3,6L3,9L0,9L0,6M6,6L9,6L9,9L6,9L6,6M3,9L6,9L6,12L3,12L3,9M9,9L12,9L12,12L9,12L9,9"></path>
 </pattern>
 </defs>
 <rect height="100%" width="100%" y="0" x="0" class="grass" id="mainfill"></rect>
 <g id="paths"><path d="M480,12L480,12L576,12L576,24L588,24L588,36L600,36L600,48L612,48L612,60L624,60L624,84L636,84L636,108L648,108L648,192L660,192L660,372L672,372L672,348L684,348L684,324L696,324L696,312L708,312L708,300L720,300L720,276L732,276L732,264L744,264L744,252L756,252L756,228L768,228L768,204L780,204L780,180L792,180L792,168L804,168L804,156L816,156L816,144L840,144L840,132L852,132L852,120L876,120L876,108L972,108L972,120L996,120L996,132L1008,132L1008,156L1020,156L1020,180L1032,180L1032,204L1044,204L1044,336L1032,336L1032,348L1020,348L1020,372L1008,372L1008,384L996,384L996,396L984,396L984,408L972,408L972,420L960,420L960,432L936,432L936,444L912,444L912,456L888,456L888,468L864,468L864,480L828,480L828,492L756,492L756,504L744,504L744,540L876,540L876,528L996,528L996,540L1020,540L1020,552L1032,552L1032,564L1044,564L1044,576L1056,576L1056,612L1068,612L1068,720L1056,720L1056,744L1044,744L1044,756L1032,756L1032,768L1020,768L1020,780L996,780L996,792L948,792L948,804L924,804L924,816L864,816L864,804L816,804L816,792L792,792L792,780L780,780L780,768L768,768L768,756L756,756L756,744L744,744L744,732L720,732L720,720L708,720L708,708L696,708L696,696L684,696L684,684L672,684L672,672L660,672L660,876L648,876L648,900L636,900L636,912L624,912L624,936L612,936L612,948L600,948L600,960L588,960L588,972L456,972L456,960L444,960L444,948L432,948L432,936L420,936L420,924L408,924L408,912L396,912L396,780L408,780L408,756L420,756L420,732L432,732L432,708L444,708L444,696L456,696L456,672L444,672L444,684L420,684L420,696L396,696L396,708L384,708L384,720L360,720L360,732L336,732L336,744L312,744L312,756L300,756L300,768L288,768L288,780L276,780L276,792L264,792L264,804L252,804L252,828L240,828L240,840L228,840L228,852L216,852L216,900L204,900L204,936L192,936L192,972L180,972L180,1020L168,1020L168,1068L156,1068L156,1152L144,1152L144,1272L132,1272L132,1344L60,1344L60,1212L72,1212L72,1164L84,1164L84,1116L72,1116L72,1092L60,1092L60,1056L48,1056L48,1032L36,1032L36,1020L24,1020L24,996L12,996L12,708L24,708L24,672L36,672L36,660L108,660L108,672L120,672L120,684L132,684L132,696L144,696L144,744L156,744L156,792L168,792L168,828L180,828L180,816L192,816L192,804L204,804L204,780L216,780L216,768L228,768L228,756L240,756L240,744L252,744L252,732L264,732L264,720L276,720L276,708L288,708L288,696L312,696L312,684L336,684L336,672L360,672L360,660L372,660L372,648L396,648L396,636L420,636L420,624L252,624L252,612L240,612L240,600L228,600L228,588L216,588L216,576L204,576L204,396L216,396L216,384L252,384L252,372L276,372L276,360L288,360L288,348L360,348L360,360L408,360L408,372L420,372L420,384L444,384L444,396L468,396L468,408L492,408L492,420L504,420L504,432L528,432L528,408L516,408L516,396L504,396L504,384L492,384L492,372L480,372L480,360L468,360L468,336L456,336L456,324L444,324L444,288L432,288L432,252L420,252L420,108L432,108L432,60L444,60L444,48L456,48L456,36L468,36L468,24L480,24L480,12M516,60L516,60L504,60L504,72L492,72L492,84L480,84L480,132L468,132L468,216L480,216L480,264L492,264L492,300L504,300L504,312L516,312L516,336L528,336L528,348L540,348L540,360L564,360L564,372L576,372L576,348L564,348L564,336L552,336L552,300L540,300L540,264L528,264L528,204L516,204L516,96L528,96L528,192L540,192L540,264L552,264L552,288L564,288L564,324L576,324L576,348L588,348L588,384L600,384L600,360L612,360L612,240L600,240L600,132L588,132L588,108L576,108L576,84L564,84L564,72L552,72L552,60L516,60M912,156L912,156L900,156L900,168L876,168L876,180L864,180L864,192L852,192L852,204L840,204L840,216L828,216L828,228L816,228L816,252L804,252L804,276L792,276L792,288L780,288L780,300L768,300L768,324L756,324L756,348L744,348L744,360L732,360L732,372L720,372L720,396L708,396L708,420L720,420L720,432L732,432L732,408L756,408L756,396L780,396L780,384L804,384L804,372L816,372L816,360L828,360L828,348L840,348L840,336L852,336L852,324L864,324L864,312L876,312L876,300L888,300L888,288L900,288L900,276L912,276L912,252L924,252L924,240L936,240L936,216L948,216L948,240L936,240L936,264L924,264L924,276L912,276L912,288L900,288L900,300L888,300L888,312L876,312L876,324L864,324L864,336L852,336L852,348L840,348L840,360L828,360L828,372L816,372L816,384L804,384L804,396L780,396L780,408L768,408L768,420L744,420L744,432L732,432L732,456L780,456L780,444L816,444L816,432L852,432L852,420L876,420L876,408L888,408L888,396L912,396L912,384L936,384L936,372L948,372L948,360L960,360L960,348L972,348L972,324L984,324L984,312L996,312L996,228L984,228L984,204L972,204L972,180L960,180L960,156L912,156M324,396L324,396L312,396L312,408L300,408L300,420L276,420L276,432L252,432L252,552L264,552L264,564L276,564L276,576L408,576L408,564L432,564L432,552L480,552L480,540L492,540L492,528L504,528L504,516L432,516L432,504L336,504L336,492L288,492L288,480L348,480L348,492L444,492L444,504L504,504L504,480L468,480L468,468L456,468L456,456L444,456L444,444L420,444L420,432L396,432L396,420L384,420L384,408L348,408L348,396L324,396M648,396L648,396L636,396L636,408L648,408L648,396M612,408L612,408L600,408L600,420L612,420L612,408M684,408L684,408L672,408L672,420L684,420L684,408M576,420L576,420L564,420L564,432L576,432L576,420M660,432L660,432L648,432L648,444L660,444L660,432M552,444L552,444L540,444L540,456L552,456L552,444M624,444L624,444L612,444L612,456L624,456L624,444M708,444L708,444L696,444L696,456L708,456L708,444M588,456L588,456L576,456L576,468L588,468L588,456M528,468L528,468L516,468L516,480L528,480L528,468M684,468L684,468L672,468L672,480L684,480L684,468M552,480L552,480L540,480L540,492L552,492L552,480M648,480L648,480L636,480L636,492L648,492L648,480M720,480L720,480L708,480L708,492L720,492L720,480M600,492L600,492L588,492L588,504L600,504L600,492M528,504L528,504L516,504L516,516L528,516L528,504M684,504L684,504L672,504L672,516L684,516L684,504M564,516L564,516L552,516L552,528L564,528L564,516M636,516L636,516L624,516L624,528L636,528L636,516M720,516L720,516L708,516L708,528L720,528L720,516M600,528L600,528L588,528L588,540L600,540L600,528M528,540L528,540L516,540L516,552L528,552L528,540M672,540L672,540L660,540L660,552L672,552L672,540M564,552L564,552L552,552L552,564L564,564L564,552M624,552L624,552L612,552L612,564L624,564L624,552M720,564L720,564L708,564L708,576L720,576L720,564M540,576L540,576L528,576L528,588L540,588L540,576M588,576L588,576L576,576L576,588L588,588L588,576M660,576L660,576L648,576L648,588L660,588L660,576M900,576L900,576L888,576L888,588L732,588L732,624L696,624L696,636L708,636L708,648L720,648L720,660L732,660L732,672L744,672L744,684L768,684L768,696L780,696L780,708L792,708L792,720L804,720L804,732L816,732L816,744L840,744L840,756L888,756L888,768L900,768L900,756L936,756L936,744L972,744L972,732L996,732L996,720L1008,720L1008,696L1020,696L1020,636L1008,636L1008,600L996,600L996,588L972,588L972,576L900,576M624,588L624,588L612,588L612,600L624,600L624,588M696,588L696,588L684,588L684,600L696,600L696,588M564,600L564,600L552,600L552,612L564,612L564,600M600,612L600,612L588,612L588,624L600,624L600,612M672,612L672,612L660,612L660,624L672,624L672,612M636,624L636,624L624,624L624,636L636,636L636,624M732,624L732,624L768,624L768,636L780,636L780,648L756,648L756,636L732,636L732,624M600,648L600,648L588,648L588,696L576,696L576,744L564,744L564,768L552,768L552,732L564,732L564,684L576,684L576,660L564,660L564,672L540,672L540,684L516,684L516,696L504,696L504,720L492,720L492,732L480,732L480,756L468,756L468,780L456,780L456,804L444,804L444,888L456,888L456,900L468,900L468,912L492,912L492,924L564,924L564,912L576,912L576,888L588,888L588,876L600,876L600,852L612,852L612,660L600,660L600,648M780,648L780,648L816,648L816,660L780,660L780,648M816,660L816,660L864,660L864,672L984,672L984,684L852,684L852,672L816,672L816,660M84,720L84,720L72,720L72,732L60,732L60,972L72,972L72,996L84,996L84,1008L96,1008L96,1032L108,1032L108,972L120,972L120,816L108,816L108,768L96,768L96,732L84,732L84,720M552,768L552,768L552,804L540,804L540,840L528,840L528,876L516,876L516,828L528,828L528,792L540,792L540,768L552,768M924,1308L924,1308L936,1308L936,1332L948,1332L948,1308L960,1308L960,1344L924,1344L924,1308M972,1308L972,1308L984,1308L984,1332L996,1332L996,1344L972,1344L972,1308M1008,1308L1008,1308L1020,1308L1020,1332L1032,1332L1032,1344L1008,1344L1008,1308M1044,1308L1044,1308L1056,1308L1056,1344L1044,1344Z" class="road"></path><path d="M516,12L516,12L528,12L528,60L516,60Z" class="cp1"></path><path d="M960,168L960,168L1020,168L1020,180L960,180Z" class="cp2"></path><path d="M1020,660L1020,660L1068,660L1068,672L1020,672Z" class="cp3"></path><path d="M0,0L0,0L12,0L12,108L0,108Z" class="parc"></path><path d="M204,480L204,480L252,480L252,492L204,492L204,480M504,924L504,924L516,924L516,972L504,972Z" class="finish"></path><path d="M60,1308L60,1308L72,1308L72,1320L60,1320L60,1308M72,1320L72,1320L84,1320L84,1308L96,1308L96,1320L84,1320L84,1332L72,1332L72,1320M96,1320L96,1320L108,1320L108,1308L120,1308L120,1320L108,1320L108,1332L96,1332L96,1320M120,1320L120,1320L132,1320L132,1332L120,1332L120,1320M84,1332L84,1332L96,1332L96,1344L84,1344L84,1332M72,1332L72,1332L72,1344L60,1344L60,1332L72,1332M108,1332L108,1332L120,1332L120,1344L108,1344Z" class="start"></path></g>
 <rect opacity=".3" fill="url(#grid)" height="100%" width="100%" y="0" x="0"></rect>
</svg>