<svg xmlns="http://www.w3.org/2000/svg" xmlns:xlink="http://www.w3.org/1999/xlink" version="1.1" id="mapSvgView" width="84" height="36"> <rect id="mainfill" class="grass" x="0" y="0" width="100%" height="100%"></rect> <g id="paths"><path d="M12,12L12,12L24,12L24,24L12,24L12,12M36,12L36,12L48,12L48,24L36,24L36,12M60,12L60,12L72,12L72,24L60,24Z" class="road"></path><path d="M24,12L24,12L36,12L36,24L24,24Z" class="start"></path><path d="M48,12L48,12L60,12L60,24L48,24Z" class="finish"></path></g></svg>