<svg xmlns:xlink="http://www.w3.org/1999/xlink" xmlns="http://www.w3.org/2000/svg" height="996" width="792" id="mapSvgView" version="1.1" style="width: 792px; height: 996px;" viewBox="0 0 792 996">
 <defs>
 <pattern y="0" x="0" height="24" width="24" patternUnits="userSpaceOnUse" id="grassPattern">
 <rect class="grasscolor" height="24" width="24" y="0" x="0"></rect>
 <rect class="grassspeclecolor" height="1" width="1" x="1" y="5"></rect>
 <rect class="grassspeclecolor" height="1" width="1" x="1" y="5"></rect>
 <rect class="grassspeclecolor" height="1" width="1" x="3" y="5"></rect>
 <rect class="grassspeclecolor" height="1" width="1" x="6" y="7"></rect>
 <rect class="grassspeclecolor" height="1" width="1" x="6" y="17"></rect>
 <rect class="grassspeclecolor" height="1" width="1" x="8" y="21"></rect>
 <rect class="grassspeclecolor" height="1" width="1" x="9" y="2"></rect>
 <rect class="grassspeclecolor" height="1" width="1" x="12" y="4"></rect>
 <rect class="grassspeclecolor" height="1" width="1" x="13" y="15"></rect>
 <rect class="grassspeclecolor" height="1" width="1" x="14" y="4"></rect>
 <rect class="grassspeclecolor" height="1" width="1" x="14" y="19"></rect>
 <rect class="grassspeclecolor" height="1" width="1" x="17" y="7"></rect>
 <rect class="grassspeclecolor" height="1" width="1" x="17" y="12"></rect>
 <rect class="grassspeclecolor" height="1" width="1" x="18" y="23"></rect>
 <rect class="grassspeclecolor" height="1" width="1" x="21" y="16"></rect>
 <rect class="grassspeclecolor" height="1" width="1" x="23" y="12"></rect>
 </pattern>
 <pattern y="0" x="0" height="24" width="24" patternUnits="userSpaceOnUse" id="roadPattern">
 <rect class="roadcolor" height="24" width="24" y="0" x="0"></rect>
 <rect class="roadspeclecolor" height="1" width="1" x="1" y="5"></rect>
 <rect class="roadspeclecolor" height="1" width="1" x="1" y="5"></rect>
 <rect class="roadspeclecolor" height="1" width="1" x="3" y="5"></rect>
 <rect class="roadspeclecolor" height="1" width="1" x="6" y="7"></rect>
 <rect class="roadspeclecolor" height="1" width="1" x="6" y="17"></rect>
 <rect class="roadspeclecolor" height="1" width="1" x="8" y="21"></rect>
 <rect class="roadspeclecolor" height="1" width="1" x="9" y="2"></rect>
 <rect class="roadspeclecolor" height="1" width="1" x="12" y="4"></rect>
 <rect class="roadspeclecolor" height="1" width="1" x="13" y="15"></rect>
 <rect class="roadspeclecolor" height="1" width="1" x="14" y="4"></rect>
 <rect class="roadspeclecolor" height="1" width="1" x="14" y="19"></rect>
 <rect class="roadspeclecolor" height="1" width="1" x="17" y="7"></rect>
 <rect class="roadspeclecolor" height="1" width="1" x="17" y="12"></rect>
 <rect class="roadspeclecolor" height="1" width="1" x="18" y="23"></rect>
 <rect class="roadspeclecolor" height="1" width="1" x="21" y="16"></rect>
 <rect class="roadspeclecolor" height="1" width="1" x="23" y="12"></rect>
 </pattern>
 <pattern y="0" x="0" height="12" width="12" patternUnits="userSpaceOnUse" id="grid">
 <line stroke-width="1" stroke="black" y2="12" x2="12" y1="0" x1="12"></line>
 <line stroke-width="1" stroke="black" y2="12" x2="12" y1="12" x1="0"></line>
 </pattern>
 <pattern y="0" x="0" height="12" width="12" patternUnits="userSpaceOnUse" id="finishPattern">
 <rect fill="black" height="12" width="12" y="0" x="0"></rect>
 <path fill="white" d="M0,0L3,0L3,3L0,3L0,0M6,0L9,0L9,3L6,3L6,0M3,3L6,3L6,6L3,6L3,3M9,3L12,3L12,6L9,6L9,3"></path>
 <path fill="white" d="M0,6L3,6L3,9L0,9L0,6M6,6L9,6L9,9L6,9L6,6M3,9L6,9L6,12L3,12L3,9M9,9L12,9L12,12L9,12L9,9"></path>
 </pattern>
 <pattern y="0" x="0" height="12" width="12" patternUnits="userSpaceOnUse" id="startPattern">
 <rect fill="rgb(100,100,100)" height="12" width="12" y="0" x="0"></rect>
 <rect stroke-width="1" stroke="rgb(200,200,200)" fill="none" height="5" width="5" y="3.5" x="3.5"></rect>
 </pattern>
 <pattern y="0" x="0" height="12" width="12" patternUnits="userSpaceOnUse" id="cp1pattern">
 <rect class="cp1color" height="12" width="12" y="0" x="0"></rect>
 <path fill="black" d="M0,0L3,0L3,3L0,3L0,0M6,0L9,0L9,3L6,3L6,0M3,3L6,3L6,6L3,6L3,3M9,3L12,3L12,6L9,6L9,3"></path>
 <path fill="black" d="M0,6L3,6L3,9L0,9L0,6M6,6L9,6L9,9L6,9L6,6M3,9L6,9L6,12L3,12L3,9M9,9L12,9L12,12L9,12L9,9"></path>
 </pattern>
 <pattern y="0" x="0" height="12" width="12" patternUnits="userSpaceOnUse" id="cp2pattern">
 <rect class="cp2color" height="12" width="12" y="0" x="0"></rect>
 <path fill="white" d="M0,0L3,0L3,3L0,3L0,0M6,0L9,0L9,3L6,3L6,0M3,3L6,3L6,6L3,6L3,3M9,3L12,3L12,6L9,6L9,3"></path>
 <path fill="white" d="M0,6L3,6L3,9L0,9L0,6M6,6L9,6L9,9L6,9L6,6M3,9L6,9L6,12L3,12L3,9M9,9L12,9L12,12L9,12L9,9"></path>
 </pattern>
 <pattern y="0" x="0" height="12" width="12" patternUnits="userSpaceOnUse" id="cp3pattern">
 <rect class="cp3color" height="12" width="12" y="0" x="0"></rect>
 <path fill="black" d="M0,0L3,0L3,3L0,3L0,0M6,0L9,0L9,3L6,3L6,0M3,3L6,3L6,6L3,6L3,3M9,3L12,3L12,6L9,6L9,3"></path>
 <path fill="black" d="M0,6L3,6L3,9L0,9L0,6M6,6L9,6L9,9L6,9L6,6M3,9L6,9L6,12L3,12L3,9M9,9L12,9L12,12L9,12L9,9"></path>
 </pattern>
 <pattern y="0" x="0" height="12" width="12" patternUnits="userSpaceOnUse" id="cp4pattern">
 <rect class="cp4color" height="12" width="12" y="0" x="0"></rect>
 <path fill="white" d="M0,0L3,0L3,3L0,3L0,0M6,0L9,0L9,3L6,3L6,0M3,3L6,3L6,6L3,6L3,3M9,3L12,3L12,6L9,6L9,3"></path>
 <path fill="white" d="M0,6L3,6L3,9L0,9L0,6M6,6L9,6L9,9L6,9L6,6M3,9L6,9L6,12L3,12L3,9M9,9L12,9L12,12L9,12L9,9"></path>
 </pattern>
 <pattern y="0" x="0" height="12" width="12" patternUnits="userSpaceOnUse" id="cp5pattern">
 <rect class="cp5color" height="12" width="12" y="0" x="0"></rect>
 <path fill="black" d="M0,0L3,0L3,3L0,3L0,0M6,0L9,0L9,3L6,3L6,0M3,3L6,3L6,6L3,6L3,3M9,3L12,3L12,6L9,6L9,3"></path>
 <path fill="black" d="M0,6L3,6L3,9L0,9L0,6M6,6L9,6L9,9L6,9L6,6M3,9L6,9L6,12L3,12L3,9M9,9L12,9L12,12L9,12L9,9"></path>
 </pattern>
 <pattern y="0" x="0" height="12" width="12" patternUnits="userSpaceOnUse" id="cp6pattern">
 <rect class="cp6color" height="12" width="12" y="0" x="0"></rect>
 <path fill="white" d="M0,0L3,0L3,3L0,3L0,0M6,0L9,0L9,3L6,3L6,0M3,3L6,3L6,6L3,6L3,3M9,3L12,3L12,6L9,6L9,3"></path>
 <path fill="white" d="M0,6L3,6L3,9L0,9L0,6M6,6L9,6L9,9L6,9L6,6M3,9L6,9L6,12L3,12L3,9M9,9L12,9L12,12L9,12L9,9"></path>
 </pattern>
 <pattern y="0" x="0" height="12" width="12" patternUnits="userSpaceOnUse" id="cp7pattern">
 <rect class="cp7color" height="12" width="12" y="0" x="0"></rect>
 <path fill="black" d="M0,0L3,0L3,3L0,3L0,0M6,0L9,0L9,3L6,3L6,0M3,3L6,3L6,6L3,6L3,3M9,3L12,3L12,6L9,6L9,3"></path>
 <path fill="black" d="M0,6L3,6L3,9L0,9L0,6M6,6L9,6L9,9L6,9L6,6M3,9L6,9L6,12L3,12L3,9M9,9L12,9L12,12L9,12L9,9"></path>
 </pattern>
 <pattern y="0" x="0" height="12" width="12" patternUnits="userSpaceOnUse" id="cp8pattern">
 <rect class="cp8color" height="12" width="12" y="0" x="0"></rect>
 <path fill="white" d="M0,0L3,0L3,3L0,3L0,0M6,0L9,0L9,3L6,3L6,0M3,3L6,3L6,6L3,6L3,3M9,3L12,3L12,6L9,6L9,3"></path>
 <path fill="white" d="M0,6L3,6L3,9L0,9L0,6M6,6L9,6L9,9L6,9L6,6M3,9L6,9L6,12L3,12L3,9M9,9L12,9L12,12L9,12L9,9"></path>
 </pattern>
 <pattern y="0" x="0" height="12" width="12" patternUnits="userSpaceOnUse" id="cp9pattern">
 <rect class="cp9color" height="12" width="12" y="0" x="0"></rect>
 <path fill="black" d="M0,0L3,0L3,3L0,3L0,0M6,0L9,0L9,3L6,3L6,0M3,3L6,3L6,6L3,6L3,3M9,3L12,3L12,6L9,6L9,3"></path>
 <path fill="black" d="M0,6L3,6L3,9L0,9L0,6M6,6L9,6L9,9L6,9L6,6M3,9L6,9L6,12L3,12L3,9M9,9L12,9L12,12L9,12L9,9"></path>
 </pattern>
 </defs>
 <rect height="100%" width="100%" y="0" x="0" class="grass" id="mainfill"></rect>
 <g id="paths"><path d="M648,12L648,12L696,12L696,24L708,24L708,36L720,36L720,48L732,48L732,60L744,60L744,72L756,72L756,84L768,84L768,96L780,96L780,144L768,144L768,156L756,156L756,168L744,168L744,180L732,180L732,192L720,192L720,204L708,204L708,216L696,216L696,264L684,264L684,276L672,276L672,288L660,288L660,300L648,300L648,312L636,312L636,324L624,324L624,516L612,516L612,540L600,540L600,564L588,564L588,588L576,588L576,600L564,600L564,612L552,612L552,624L540,624L540,636L528,636L528,648L516,648L516,660L504,660L504,672L492,672L492,684L480,684L480,792L492,792L492,804L516,804L516,816L528,816L528,828L540,828L540,840L552,840L552,852L564,852L564,864L576,864L576,876L588,876L588,948L576,948L576,960L564,960L564,972L552,972L552,984L444,984L444,972L432,972L432,960L420,960L420,948L408,948L408,708L396,708L396,696L384,696L384,708L360,708L360,696L348,696L348,708L336,708L336,948L324,948L324,960L312,960L312,972L300,972L300,984L192,984L192,972L180,972L180,960L168,960L168,948L156,948L156,876L168,876L168,864L180,864L180,852L192,852L192,840L204,840L204,828L216,828L216,816L228,816L228,804L252,804L252,792L264,792L264,684L252,684L252,672L240,672L240,660L228,660L228,648L216,648L216,636L204,636L204,624L192,624L192,660L180,660L180,672L168,672L168,684L156,684L156,696L144,696L144,708L132,708L132,720L120,720L120,732L108,732L108,744L96,744L96,756L84,756L84,768L48,768L48,756L36,756L36,744L24,744L24,732L12,732L12,588L24,588L24,576L36,576L36,564L48,564L48,552L60,552L60,540L72,540L72,528L84,528L84,480L96,480L96,468L108,468L108,456L120,456L120,336L132,336L132,312L144,312L144,288L156,288L156,264L168,264L168,252L180,252L180,240L192,240L192,228L204,228L204,216L216,216L216,204L228,204L228,192L252,192L252,180L276,180L276,168L300,168L300,156L444,156L444,168L480,168L480,180L504,180L504,192L516,192L516,204L528,204L528,216L540,216L540,228L552,228L552,240L564,240L564,252L588,252L588,180L576,180L576,168L564,168L564,156L552,156L552,144L540,144L540,132L528,132L528,120L516,120L516,108L504,108L504,84L516,84L516,72L528,72L528,60L540,60L540,48L552,48L552,36L564,36L564,24L588,24L588,36L600,36L600,48L624,48L624,36L636,36L636,24L648,24L648,12M672,60L672,60L660,60L660,72L648,72L648,84L636,84L636,96L624,96L624,108L600,108L600,96L588,96L588,84L564,84L564,108L576,108L576,120L588,120L588,132L600,132L600,144L612,144L612,156L624,156L624,168L636,168L636,180L648,180L648,192L672,192L672,180L684,180L684,168L696,168L696,156L708,156L708,144L720,144L720,132L732,132L732,108L720,108L720,96L708,96L708,84L696,84L696,72L684,72L684,60L672,60M336,192L336,192L324,192L324,204L300,204L300,216L276,216L276,228L252,228L252,240L240,240L240,252L228,252L228,264L216,264L216,276L204,276L204,288L192,288L192,312L180,312L180,336L168,336L168,360L156,360L156,504L168,504L168,516L180,516L180,528L192,528L192,564L204,564L204,576L216,576L216,588L228,588L228,600L240,600L240,612L252,612L252,624L264,624L264,636L276,636L276,648L288,648L288,660L360,660L360,648L384,648L384,660L456,660L456,648L468,648L468,636L480,636L480,624L492,624L492,612L504,612L504,600L516,600L516,588L528,588L528,576L540,576L540,564L552,564L552,540L564,540L564,516L576,516L576,492L588,492L588,360L576,360L576,348L564,348L564,324L552,324L552,300L540,300L540,276L528,276L528,264L516,264L516,252L504,252L504,240L492,240L492,228L480,228L480,216L456,216L456,204L432,204L432,192L336,192M372,264L372,264L444,264L444,336L372,336L372,264M480,372L480,372L516,372L516,480L480,480L480,372M228,408L228,408L300,408L300,480L228,480L228,408M480,480L480,480L480,516L444,516L444,480L480,480M444,516L444,516L444,552L408,552L408,516L444,516M408,552L408,552L408,588L300,588L300,552L408,552M84,588L84,588L72,588L72,600L60,600L60,612L48,612L48,720L60,720L60,732L72,732L72,720L84,720L84,624L120,624L120,660L144,660L144,648L156,648L156,588L84,588M264,840L264,840L252,840L252,852L240,852L240,864L228,864L228,876L216,876L216,888L204,888L204,900L192,900L192,936L204,936L204,948L288,948L288,936L300,936L300,840L264,840M456,840L456,840L444,840L444,936L456,936L456,948L540,948L540,936L552,936L552,900L540,900L540,888L528,888L528,876L516,876L516,864L504,864L504,852L492,852L492,840L456,840M600,840L600,840L672,840L672,984L624,984L624,972L648,972L648,960L660,960L660,852L624,852L624,864L612,864L612,876L600,876L600,840M696,840L696,840L768,840L768,876L756,876L756,864L744,864L744,852L708,852L708,960L720,960L720,972L744,972L744,984L696,984Z" class="road"></path><path d="M180,936L180,936L204,936L204,960L192,960L192,972L180,972L180,960L168,960L168,948L180,948Z" class="cp1"></path><path d="M36,720L36,720L60,720L60,744L48,744L48,756L36,756L36,744L24,744L24,732L36,732Z" class="cp2"></path><path d="M660,12L660,12L684,12L684,60L660,60Z" class="cp3"></path><path d="M540,48L540,48L552,48L552,60L564,60L564,72L576,72L576,84L564,84L564,96L552,96L552,84L540,84L540,72L528,72L528,60L540,60Z" class="cp4"></path><path d="M540,936L540,936L564,936L564,948L576,948L576,960L564,960L564,972L552,972L552,960L540,960Z" class="cp5"></path><path d="M0,0L0,0L12,0L12,120L0,120Z" class="parc"></path><path d="M348,660L348,660L396,660L396,696L348,696L348,660M372,672L372,672L360,672L360,684L384,684L384,672Z" class="start"></path><path d="M360,672L360,672L384,672L384,684L360,684Z" class="finish"></path></g>
 <rect opacity=".3" fill="url(#grid)" height="100%" width="100%" y="0" x="0"></rect>
</svg>