<svg xmlns:xlink="http://www.w3.org/1999/xlink" xmlns="http://www.w3.org/2000/svg" height="600" width="432" id="mapSvgView" version="1.1" style="width: 432px; height: 600px;" viewBox="0 0 432 600">
 <defs>
 <pattern y="0" x="0" height="24" width="24" patternUnits="userSpaceOnUse" id="grassPattern">
 <rect class="grasscolor" height="24" width="24" y="0" x="0"></rect>
 <rect class="grassspeclecolor" height="1" width="1" x="1" y="5"></rect>
 <rect class="grassspeclecolor" height="1" width="1" x="1" y="5"></rect>
 <rect class="grassspeclecolor" height="1" width="1" x="3" y="5"></rect>
 <rect class="grassspeclecolor" height="1" width="1" x="6" y="7"></rect>
 <rect class="grassspeclecolor" height="1" width="1" x="6" y="17"></rect>
 <rect class="grassspeclecolor" height="1" width="1" x="8" y="21"></rect>
 <rect class="grassspeclecolor" height="1" width="1" x="9" y="2"></rect>
 <rect class="grassspeclecolor" height="1" width="1" x="12" y="4"></rect>
 <rect class="grassspeclecolor" height="1" width="1" x="13" y="15"></rect>
 <rect class="grassspeclecolor" height="1" width="1" x="14" y="4"></rect>
 <rect class="grassspeclecolor" height="1" width="1" x="14" y="19"></rect>
 <rect class="grassspeclecolor" height="1" width="1" x="17" y="7"></rect>
 <rect class="grassspeclecolor" height="1" width="1" x="17" y="12"></rect>
 <rect class="grassspeclecolor" height="1" width="1" x="18" y="23"></rect>
 <rect class="grassspeclecolor" height="1" width="1" x="21" y="16"></rect>
 <rect class="grassspeclecolor" height="1" width="1" x="23" y="12"></rect>
 </pattern>
 <pattern y="0" x="0" height="24" width="24" patternUnits="userSpaceOnUse" id="roadPattern">
 <rect class="roadcolor" height="24" width="24" y="0" x="0"></rect>
 <rect class="roadspeclecolor" height="1" width="1" x="1" y="5"></rect>
 <rect class="roadspeclecolor" height="1" width="1" x="1" y="5"></rect>
 <rect class="roadspeclecolor" height="1" width="1" x="3" y="5"></rect>
 <rect class="roadspeclecolor" height="1" width="1" x="6" y="7"></rect>
 <rect class="roadspeclecolor" height="1" width="1" x="6" y="17"></rect>
 <rect class="roadspeclecolor" height="1" width="1" x="8" y="21"></rect>
 <rect class="roadspeclecolor" height="1" width="1" x="9" y="2"></rect>
 <rect class="roadspeclecolor" height="1" width="1" x="12" y="4"></rect>
 <rect class="roadspeclecolor" height="1" width="1" x="13" y="15"></rect>
 <rect class="roadspeclecolor" height="1" width="1" x="14" y="4"></rect>
 <rect class="roadspeclecolor" height="1" width="1" x="14" y="19"></rect>
 <rect class="roadspeclecolor" height="1" width="1" x="17" y="7"></rect>
 <rect class="roadspeclecolor" height="1" width="1" x="17" y="12"></rect>
 <rect class="roadspeclecolor" height="1" width="1" x="18" y="23"></rect>
 <rect class="roadspeclecolor" height="1" width="1" x="21" y="16"></rect>
 <rect class="roadspeclecolor" height="1" width="1" x="23" y="12"></rect>
 </pattern>
 <pattern y="0" x="0" height="12" width="12" patternUnits="userSpaceOnUse" id="grid">
 <line stroke-width="1" stroke="black" y2="12" x2="12" y1="0" x1="12"></line>
 <line stroke-width="1" stroke="black" y2="12" x2="12" y1="12" x1="0"></line>
 </pattern>
 <pattern y="0" x="0" height="12" width="12" patternUnits="userSpaceOnUse" id="finishPattern">
 <rect fill="black" height="12" width="12" y="0" x="0"></rect>
 <path fill="white" d="M0,0L3,0L3,3L0,3L0,0M6,0L9,0L9,3L6,3L6,0M3,3L6,3L6,6L3,6L3,3M9,3L12,3L12,6L9,6L9,3"></path>
 <path fill="white" d="M0,6L3,6L3,9L0,9L0,6M6,6L9,6L9,9L6,9L6,6M3,9L6,9L6,12L3,12L3,9M9,9L12,9L12,12L9,12L9,9"></path>
 </pattern>
 <pattern y="0" x="0" height="12" width="12" patternUnits="userSpaceOnUse" id="startPattern">
 <rect fill="rgb(100,100,100)" height="12" width="12" y="0" x="0"></rect>
 <rect stroke-width="1" stroke="rgb(200,200,200)" fill="none" height="5" width="5" y="3.5" x="3.5"></rect>
 </pattern>
 <pattern y="0" x="0" height="12" width="12" patternUnits="userSpaceOnUse" id="cp1pattern">
 <rect class="cp1color" height="12" width="12" y="0" x="0"></rect>
 <path fill="black" d="M0,0L3,0L3,3L0,3L0,0M6,0L9,0L9,3L6,3L6,0M3,3L6,3L6,6L3,6L3,3M9,3L12,3L12,6L9,6L9,3"></path>
 <path fill="black" d="M0,6L3,6L3,9L0,9L0,6M6,6L9,6L9,9L6,9L6,6M3,9L6,9L6,12L3,12L3,9M9,9L12,9L12,12L9,12L9,9"></path>
 </pattern>
 <pattern y="0" x="0" height="12" width="12" patternUnits="userSpaceOnUse" id="cp2pattern">
 <rect class="cp2color" height="12" width="12" y="0" x="0"></rect>
 <path fill="white" d="M0,0L3,0L3,3L0,3L0,0M6,0L9,0L9,3L6,3L6,0M3,3L6,3L6,6L3,6L3,3M9,3L12,3L12,6L9,6L9,3"></path>
 <path fill="white" d="M0,6L3,6L3,9L0,9L0,6M6,6L9,6L9,9L6,9L6,6M3,9L6,9L6,12L3,12L3,9M9,9L12,9L12,12L9,12L9,9"></path>
 </pattern>
 <pattern y="0" x="0" height="12" width="12" patternUnits="userSpaceOnUse" id="cp3pattern">
 <rect class="cp3color" height="12" width="12" y="0" x="0"></rect>
 <path fill="black" d="M0,0L3,0L3,3L0,3L0,0M6,0L9,0L9,3L6,3L6,0M3,3L6,3L6,6L3,6L3,3M9,3L12,3L12,6L9,6L9,3"></path>
 <path fill="black" d="M0,6L3,6L3,9L0,9L0,6M6,6L9,6L9,9L6,9L6,6M3,9L6,9L6,12L3,12L3,9M9,9L12,9L12,12L9,12L9,9"></path>
 </pattern>
 <pattern y="0" x="0" height="12" width="12" patternUnits="userSpaceOnUse" id="cp4pattern">
 <rect class="cp4color" height="12" width="12" y="0" x="0"></rect>
 <path fill="white" d="M0,0L3,0L3,3L0,3L0,0M6,0L9,0L9,3L6,3L6,0M3,3L6,3L6,6L3,6L3,3M9,3L12,3L12,6L9,6L9,3"></path>
 <path fill="white" d="M0,6L3,6L3,9L0,9L0,6M6,6L9,6L9,9L6,9L6,6M3,9L6,9L6,12L3,12L3,9M9,9L12,9L12,12L9,12L9,9"></path>
 </pattern>
 <pattern y="0" x="0" height="12" width="12" patternUnits="userSpaceOnUse" id="cp5pattern">
 <rect class="cp5color" height="12" width="12" y="0" x="0"></rect>
 <path fill="black" d="M0,0L3,0L3,3L0,3L0,0M6,0L9,0L9,3L6,3L6,0M3,3L6,3L6,6L3,6L3,3M9,3L12,3L12,6L9,6L9,3"></path>
 <path fill="black" d="M0,6L3,6L3,9L0,9L0,6M6,6L9,6L9,9L6,9L6,6M3,9L6,9L6,12L3,12L3,9M9,9L12,9L12,12L9,12L9,9"></path>
 </pattern>
 <pattern y="0" x="0" height="12" width="12" patternUnits="userSpaceOnUse" id="cp6pattern">
 <rect class="cp6color" height="12" width="12" y="0" x="0"></rect>
 <path fill="white" d="M0,0L3,0L3,3L0,3L0,0M6,0L9,0L9,3L6,3L6,0M3,3L6,3L6,6L3,6L3,3M9,3L12,3L12,6L9,6L9,3"></path>
 <path fill="white" d="M0,6L3,6L3,9L0,9L0,6M6,6L9,6L9,9L6,9L6,6M3,9L6,9L6,12L3,12L3,9M9,9L12,9L12,12L9,12L9,9"></path>
 </pattern>
 <pattern y="0" x="0" height="12" width="12" patternUnits="userSpaceOnUse" id="cp7pattern">
 <rect class="cp7color" height="12" width="12" y="0" x="0"></rect>
 <path fill="black" d="M0,0L3,0L3,3L0,3L0,0M6,0L9,0L9,3L6,3L6,0M3,3L6,3L6,6L3,6L3,3M9,3L12,3L12,6L9,6L9,3"></path>
 <path fill="black" d="M0,6L3,6L3,9L0,9L0,6M6,6L9,6L9,9L6,9L6,6M3,9L6,9L6,12L3,12L3,9M9,9L12,9L12,12L9,12L9,9"></path>
 </pattern>
 <pattern y="0" x="0" height="12" width="12" patternUnits="userSpaceOnUse" id="cp8pattern">
 <rect class="cp8color" height="12" width="12" y="0" x="0"></rect>
 <path fill="white" d="M0,0L3,0L3,3L0,3L0,0M6,0L9,0L9,3L6,3L6,0M3,3L6,3L6,6L3,6L3,3M9,3L12,3L12,6L9,6L9,3"></path>
 <path fill="white" d="M0,6L3,6L3,9L0,9L0,6M6,6L9,6L9,9L6,9L6,6M3,9L6,9L6,12L3,12L3,9M9,9L12,9L12,12L9,12L9,9"></path>
 </pattern>
 <pattern y="0" x="0" height="12" width="12" patternUnits="userSpaceOnUse" id="cp9pattern">
 <rect class="cp9color" height="12" width="12" y="0" x="0"></rect>
 <path fill="black" d="M0,0L3,0L3,3L0,3L0,0M6,0L9,0L9,3L6,3L6,0M3,3L6,3L6,6L3,6L3,3M9,3L12,3L12,6L9,6L9,3"></path>
 <path fill="black" d="M0,6L3,6L3,9L0,9L0,6M6,6L9,6L9,9L6,9L6,6M3,9L6,9L6,12L3,12L3,9M9,9L12,9L12,12L9,12L9,9"></path>
 </pattern>
 </defs>
 <rect height="100%" width="100%" y="0" x="0" class="road" id="mainfill"></rect>
 <g id="paths"><path d="M204,12L204,12L228,12L228,24L240,24L240,36L252,36L252,48L264,48L264,60L276,60L276,72L288,72L288,84L300,84L300,96L312,96L312,108L324,108L324,120L336,120L336,132L348,132L348,144L360,144L360,156L336,156L336,168L360,168L360,156L372,156L372,168L384,168L384,180L396,180L396,192L408,192L408,336L396,336L396,324L372,324L372,336L384,336L384,348L408,348L408,504L300,504L300,492L288,492L288,480L276,480L276,468L264,468L264,456L252,456L252,444L240,444L240,432L228,432L228,420L216,420L216,408L204,408L204,396L192,396L192,384L180,384L180,372L168,372L168,360L156,360L156,348L144,348L144,336L132,336L132,324L120,324L120,312L108,312L108,300L96,300L96,588L24,588L24,192L36,192L36,180L48,180L48,168L60,168L60,156L72,156L72,144L84,144L84,132L96,132L96,120L108,120L108,108L120,108L120,96L132,96L132,84L144,84L144,72L156,72L156,60L168,60L168,48L180,48L180,36L192,36L192,24L204,24L204,12M360,12L360,12L372,12L372,24L360,24L360,12M372,24L372,24L384,24L384,36L396,36L396,48L384,48L384,60L396,60L396,48L408,48L408,60L396,60L396,72L384,72L384,84L396,84L396,72L408,72L408,84L396,84L396,96L372,96L372,48L360,48L360,72L348,72L348,24L360,24L360,36L372,36L372,24M216,96L216,96L204,96L204,108L192,108L192,120L180,120L180,132L168,132L168,144L156,144L156,156L144,156L144,168L132,168L132,180L120,180L120,192L108,192L108,204L84,204L84,216L72,216L72,228L84,228L84,240L72,240L72,252L96,252L96,240L108,240L108,228L96,228L96,216L108,216L108,204L324,204L324,192L312,192L312,180L300,180L300,168L288,168L288,156L276,156L276,144L264,144L264,132L252,132L252,120L240,120L240,108L228,108L228,96L216,96M264,108L264,108L252,108L252,120L276,120L276,108L264,108M120,120L120,120L108,120L108,132L132,132L132,120L120,120M324,228L324,228L312,228L312,240L300,240L300,252L336,252L336,264L360,264L360,252L348,252L348,240L336,240L336,228L324,228M156,276L156,276L144,276L144,288L156,288L156,300L168,300L168,312L180,312L180,324L192,324L192,336L204,336L204,348L216,348L216,360L204,360L204,372L192,372L192,384L204,384L204,372L216,372L216,360L228,360L228,348L240,348L240,336L252,336L252,324L264,324L264,312L276,312L276,300L288,300L288,288L300,288L300,276L156,276M336,312L336,312L324,312L324,324L312,324L312,336L300,336L300,348L288,348L288,360L276,360L276,372L264,372L264,384L252,384L252,372L240,372L240,360L228,360L228,372L216,372L216,384L204,384L204,396L216,396L216,384L228,384L228,372L240,372L240,384L228,384L228,396L216,396L216,408L228,408L228,396L240,396L240,384L252,384L252,396L240,396L240,408L228,408L228,420L240,420L240,408L252,408L252,396L264,396L264,408L276,408L276,420L288,420L288,432L300,432L300,444L312,444L312,456L324,456L324,468L336,468L336,312M72,360L72,360L60,360L60,372L48,372L48,384L72,384L72,372L84,372L84,360L72,360M192,396L192,396L192,408L204,408L204,420L216,420L216,432L204,432L204,444L192,444L192,456L180,456L180,468L168,468L168,480L156,480L156,492L144,492L144,516L408,516L408,588L108,588L108,456L120,456L120,444L132,444L132,432L144,432L144,420L156,420L156,408L168,408L168,396Z" class="road"></path><path d="M204,12L204,12L228,12L228,24L240,24L240,48L228,48L228,60L204,60L204,48L192,48L192,24L204,24Z" class="cp1"></path><path d="M312,468L312,468L336,468L336,504L312,504Z" class="cp2"></path><path d="M0,0L0,0L12,0L12,72L0,72Z" class="parc"></path><path d="M12,0L12,0L432,0L432,600L0,600L0,72L12,72L12,0M216,12L216,12L204,12L204,24L192,24L192,36L180,36L180,48L168,48L168,60L156,60L156,72L144,72L144,84L132,84L132,96L120,96L120,108L108,108L108,120L96,120L96,132L84,132L84,144L72,144L72,156L60,156L60,168L48,168L48,180L36,180L36,192L24,192L24,588L96,588L96,300L108,300L108,312L120,312L120,324L132,324L132,336L144,336L144,348L156,348L156,360L168,360L168,372L180,372L180,384L192,384L192,372L204,372L204,360L216,360L216,348L204,348L204,336L192,336L192,324L180,324L180,312L168,312L168,300L156,300L156,288L144,288L144,276L300,276L300,288L288,288L288,300L276,300L276,312L264,312L264,324L252,324L252,336L240,336L240,348L228,348L228,360L216,360L216,372L204,372L204,384L192,384L192,396L168,396L168,408L156,408L156,420L144,420L144,432L132,432L132,444L120,444L120,456L108,456L108,588L408,588L408,516L144,516L144,492L156,492L156,480L168,480L168,468L180,468L180,456L192,456L192,444L204,444L204,432L216,432L216,420L204,420L204,408L192,408L192,396L204,396L204,384L216,384L216,372L228,372L228,360L240,360L240,372L228,372L228,384L216,384L216,396L204,396L204,408L216,408L216,396L228,396L228,384L240,384L240,372L252,372L252,384L240,384L240,396L228,396L228,408L216,408L216,420L228,420L228,408L240,408L240,396L252,396L252,384L264,384L264,372L276,372L276,360L288,360L288,348L300,348L300,336L312,336L312,324L324,324L324,312L336,312L336,468L324,468L324,456L312,456L312,444L300,444L300,432L288,432L288,420L276,420L276,408L264,408L264,396L252,396L252,408L240,408L240,420L228,420L228,432L240,432L240,444L252,444L252,456L264,456L264,468L276,468L276,480L288,480L288,492L300,492L300,504L408,504L408,348L384,348L384,336L372,336L372,324L396,324L396,336L408,336L408,192L396,192L396,180L384,180L384,168L372,168L372,156L360,156L360,144L348,144L348,132L336,132L336,120L324,120L324,108L312,108L312,96L300,96L300,84L288,84L288,72L276,72L276,60L264,60L264,48L252,48L252,36L240,36L240,24L228,24L228,12L216,12M372,12L372,12L360,12L360,24L348,24L348,72L360,72L360,48L372,48L372,96L396,96L396,84L384,84L384,72L396,72L396,60L384,60L384,48L396,48L396,36L384,36L384,24L372,24L372,12M360,24L360,24L372,24L372,36L360,36L360,24M408,48L408,48L396,48L396,60L408,60L408,48M408,72L408,72L396,72L396,84L408,84L408,72M204,96L204,96L228,96L228,108L240,108L240,120L252,120L252,108L276,108L276,120L252,120L252,132L264,132L264,144L276,144L276,156L288,156L288,168L300,168L300,180L312,180L312,192L324,192L324,204L108,204L108,192L120,192L120,180L132,180L132,168L144,168L144,156L156,156L156,144L168,144L168,132L180,132L180,120L192,120L192,108L204,108L204,96M108,120L108,120L132,120L132,132L108,132L108,120M360,156L360,156L360,168L336,168L336,156L360,156M108,204L108,204L108,216L96,216L96,228L108,228L108,240L96,240L96,252L72,252L72,240L84,240L84,228L72,228L72,216L84,216L84,204L108,204M312,228L312,228L336,228L336,240L348,240L348,252L360,252L360,264L336,264L336,252L300,252L300,240L312,240L312,228M60,360L60,360L84,360L84,372L72,372L72,384L48,384L48,372L60,372Z" class="grass"></path><path d="M396,516L396,516L408,516L408,588L396,588Z" class="finish"></path><path d="M24,576L24,576L96,576L96,588L24,588Z" class="start"></path></g>
 <rect opacity=".3" fill="url(#grid)" height="100%" width="100%" y="0" x="0"></rect>
</svg>