<svg xmlns="http://www.w3.org/2000/svg" xmlns:xlink="http://www.w3.org/1999/xlink" version="1.1" id="mapSvgView" width="432" height="600"> <rect id="mainfill" class="road" x="0" y="0" width="100%" height="100%"></rect> <g id="paths"><path d="M204,12L204,12L228,12L228,24L240,24L240,48L228,48L228,60L204,60L204,48L192,48L192,24L204,24Z" class="cp1"></path><path d="M312,468L312,468L336,468L336,504L312,504Z" class="cp2"></path><path d="M0,0L0,0L12,0L12,72L0,72Z" class="parc"></path><path d="M12,0L12,0L432,0L432,600L0,600L0,72L12,72L12,0M216,12L216,12L204,12L204,24L192,24L192,36L180,36L180,48L168,48L168,60L156,60L156,72L144,72L144,84L132,84L132,96L120,96L120,108L108,108L108,120L96,120L96,132L84,132L84,144L72,144L72,156L60,156L60,168L48,168L48,180L36,180L36,192L24,192L24,588L96,588L96,300L108,300L108,312L120,312L120,324L132,324L132,336L144,336L144,348L156,348L156,360L168,360L168,372L180,372L180,384L192,384L192,372L204,372L204,360L216,360L216,348L204,348L204,336L192,336L192,324L180,324L180,312L168,312L168,300L156,300L156,288L144,288L144,276L300,276L300,288L288,288L288,300L276,300L276,312L264,312L264,324L252,324L252,336L240,336L240,348L228,348L228,360L216,360L216,372L204,372L204,384L192,384L192,396L168,396L168,408L156,408L156,420L144,420L144,432L132,432L132,444L120,444L120,456L108,456L108,588L408,588L408,516L144,516L144,492L156,492L156,480L168,480L168,468L180,468L180,456L192,456L192,444L204,444L204,432L216,432L216,420L204,420L204,408L192,408L192,396L204,396L204,384L216,384L216,372L228,372L228,360L240,360L240,372L228,372L228,384L216,384L216,396L204,396L204,408L216,408L216,396L228,396L228,384L240,384L240,372L252,372L252,384L240,384L240,396L228,396L228,408L216,408L216,420L228,420L228,408L240,408L240,396L252,396L252,384L264,384L264,372L276,372L276,360L288,360L288,348L300,348L300,336L312,336L312,324L324,324L324,312L336,312L336,468L324,468L324,456L312,456L312,444L300,444L300,432L288,432L288,420L276,420L276,408L264,408L264,396L252,396L252,408L240,408L240,420L228,420L228,432L240,432L240,444L252,444L252,456L264,456L264,468L276,468L276,480L288,480L288,492L300,492L300,504L408,504L408,348L384,348L384,336L372,336L372,324L396,324L396,336L408,336L408,192L396,192L396,180L384,180L384,168L372,168L372,156L360,156L360,144L348,144L348,132L336,132L336,120L324,120L324,108L312,108L312,96L300,96L300,84L288,84L288,72L276,72L276,60L264,60L264,48L252,48L252,36L240,36L240,24L228,24L228,12L216,12M372,12L372,12L360,12L360,24L348,24L348,72L360,72L360,48L372,48L372,96L396,96L396,84L384,84L384,72L396,72L396,60L384,60L384,48L396,48L396,36L384,36L384,24L372,24L372,12M360,24L360,24L372,24L372,36L360,36L360,24M408,48L408,48L396,48L396,60L408,60L408,48M408,72L408,72L396,72L396,84L408,84L408,72M204,96L204,96L228,96L228,108L240,108L240,120L252,120L252,108L276,108L276,120L252,120L252,132L264,132L264,144L276,144L276,156L288,156L288,168L300,168L300,180L312,180L312,192L324,192L324,204L108,204L108,192L120,192L120,180L132,180L132,168L144,168L144,156L156,156L156,144L168,144L168,132L180,132L180,120L192,120L192,108L204,108L204,96M108,120L108,120L132,120L132,132L108,132L108,120M360,156L360,156L360,168L336,168L336,156L360,156M108,204L108,204L108,216L96,216L96,228L108,228L108,240L96,240L96,252L72,252L72,240L84,240L84,228L72,228L72,216L84,216L84,204L108,204M312,228L312,228L336,228L336,240L348,240L348,252L360,252L360,264L336,264L336,252L300,252L300,240L312,240L312,228M60,360L60,360L84,360L84,372L72,372L72,384L48,384L48,372L60,372Z" class="grass"></path><path d="M396,516L396,516L408,516L408,588L396,588Z" class="finish"></path><path d="M24,576L24,576L96,576L96,588L24,588Z" class="start"></path></g></svg>