<svg xmlns="http://www.w3.org/2000/svg" xmlns:xlink="http://www.w3.org/1999/xlink" version="1.1" id="mapSvgView" width="720" height="300"> <rect id="mainfill" class="grass" x="0" y="0" width="100%" height="100%"></rect> <g id="paths"><path d="M612,96L612,96L648,96L648,108L612,108L612,96M660,96L660,96L696,96L696,108L660,108Z" class="cp1"></path><path d="M336,228L336,228L348,228L348,240L336,240L336,228M336,264L336,264L348,264L348,276L336,276Z" class="cp2"></path><path d="M60,12L60,12L144,12L144,48L120,48L120,60L96,60L96,48L84,48L84,60L72,60L72,72L84,72L84,60L96,60L96,72L84,72L84,84L72,84L72,96L60,96L60,108L72,108L72,132L84,132L84,144L108,144L108,168L132,168L132,180L144,180L144,192L252,192L252,204L288,204L288,216L312,216L312,228L336,228L336,276L300,276L300,264L252,264L252,252L228,252L228,240L192,240L192,228L108,228L108,216L36,216L36,180L24,180L24,168L12,168L12,36L36,36L36,24L60,24L60,12M168,12L168,12L624,12L624,24L636,24L636,36L672,36L672,48L684,48L684,60L696,60L696,84L708,84L708,96L660,96L660,72L648,72L648,96L612,96L612,84L588,84L588,60L576,60L576,48L384,48L384,60L312,60L312,48L168,48L168,12M408,84L408,84L528,84L528,96L540,96L540,108L564,108L564,120L576,120L576,132L588,132L588,144L612,144L612,120L600,120L600,108L696,108L696,132L684,132L684,168L672,168L672,180L660,180L660,192L504,192L504,204L480,204L480,228L468,228L468,240L444,240L444,252L420,252L420,264L384,264L384,276L348,276L348,216L384,216L384,204L396,204L396,192L384,192L384,180L372,180L372,168L360,168L360,156L348,156L348,144L336,144L336,132L348,132L348,120L372,120L372,108L384,108L384,96L408,96L408,84M456,120L456,120L444,120L444,144L432,144L432,168L444,168L444,180L468,180L468,168L480,168L480,156L492,156L492,144L504,144L504,132L468,132L468,120L456,120M516,144L516,144L504,144L504,156L492,156L492,168L480,168L480,180L528,180L528,168L540,168L540,156L528,156L528,144Z" class="road"></path><path d="M144,12L144,12L156,12L156,48L144,48Z" class="finish"></path><path d="M156,12L156,12L168,12L168,48L156,48Z" class="start"></path></g></svg>