<svg xmlns:xlink="http://www.w3.org/1999/xlink" xmlns="http://www.w3.org/2000/svg" height="1716" width="612" id="mapSvgView" version="1.1" style="width: 612px; height: 1716px;" viewBox="0 0 612 1716">
 <defs>
 <pattern y="0" x="0" height="24" width="24" patternUnits="userSpaceOnUse" id="grassPattern">
 <rect class="grasscolor" height="24" width="24" y="0" x="0"></rect>
 <rect class="grassspeclecolor" height="1" width="1" x="1" y="5"></rect>
 <rect class="grassspeclecolor" height="1" width="1" x="1" y="5"></rect>
 <rect class="grassspeclecolor" height="1" width="1" x="3" y="5"></rect>
 <rect class="grassspeclecolor" height="1" width="1" x="6" y="7"></rect>
 <rect class="grassspeclecolor" height="1" width="1" x="6" y="17"></rect>
 <rect class="grassspeclecolor" height="1" width="1" x="8" y="21"></rect>
 <rect class="grassspeclecolor" height="1" width="1" x="9" y="2"></rect>
 <rect class="grassspeclecolor" height="1" width="1" x="12" y="4"></rect>
 <rect class="grassspeclecolor" height="1" width="1" x="13" y="15"></rect>
 <rect class="grassspeclecolor" height="1" width="1" x="14" y="4"></rect>
 <rect class="grassspeclecolor" height="1" width="1" x="14" y="19"></rect>
 <rect class="grassspeclecolor" height="1" width="1" x="17" y="7"></rect>
 <rect class="grassspeclecolor" height="1" width="1" x="17" y="12"></rect>
 <rect class="grassspeclecolor" height="1" width="1" x="18" y="23"></rect>
 <rect class="grassspeclecolor" height="1" width="1" x="21" y="16"></rect>
 <rect class="grassspeclecolor" height="1" width="1" x="23" y="12"></rect>
 </pattern>
 <pattern y="0" x="0" height="24" width="24" patternUnits="userSpaceOnUse" id="roadPattern">
 <rect class="roadcolor" height="24" width="24" y="0" x="0"></rect>
 <rect class="roadspeclecolor" height="1" width="1" x="1" y="5"></rect>
 <rect class="roadspeclecolor" height="1" width="1" x="1" y="5"></rect>
 <rect class="roadspeclecolor" height="1" width="1" x="3" y="5"></rect>
 <rect class="roadspeclecolor" height="1" width="1" x="6" y="7"></rect>
 <rect class="roadspeclecolor" height="1" width="1" x="6" y="17"></rect>
 <rect class="roadspeclecolor" height="1" width="1" x="8" y="21"></rect>
 <rect class="roadspeclecolor" height="1" width="1" x="9" y="2"></rect>
 <rect class="roadspeclecolor" height="1" width="1" x="12" y="4"></rect>
 <rect class="roadspeclecolor" height="1" width="1" x="13" y="15"></rect>
 <rect class="roadspeclecolor" height="1" width="1" x="14" y="4"></rect>
 <rect class="roadspeclecolor" height="1" width="1" x="14" y="19"></rect>
 <rect class="roadspeclecolor" height="1" width="1" x="17" y="7"></rect>
 <rect class="roadspeclecolor" height="1" width="1" x="17" y="12"></rect>
 <rect class="roadspeclecolor" height="1" width="1" x="18" y="23"></rect>
 <rect class="roadspeclecolor" height="1" width="1" x="21" y="16"></rect>
 <rect class="roadspeclecolor" height="1" width="1" x="23" y="12"></rect>
 </pattern>
 <pattern y="0" x="0" height="12" width="12" patternUnits="userSpaceOnUse" id="grid">
 <line stroke-width="1" stroke="black" y2="12" x2="12" y1="0" x1="12"></line>
 <line stroke-width="1" stroke="black" y2="12" x2="12" y1="12" x1="0"></line>
 </pattern>
 <pattern y="0" x="0" height="12" width="12" patternUnits="userSpaceOnUse" id="finishPattern">
 <rect fill="black" height="12" width="12" y="0" x="0"></rect>
 <path fill="white" d="M0,0L3,0L3,3L0,3L0,0M6,0L9,0L9,3L6,3L6,0M3,3L6,3L6,6L3,6L3,3M9,3L12,3L12,6L9,6L9,3"></path>
 <path fill="white" d="M0,6L3,6L3,9L0,9L0,6M6,6L9,6L9,9L6,9L6,6M3,9L6,9L6,12L3,12L3,9M9,9L12,9L12,12L9,12L9,9"></path>
 </pattern>
 <pattern y="0" x="0" height="12" width="12" patternUnits="userSpaceOnUse" id="startPattern">
 <rect fill="rgb(100,100,100)" height="12" width="12" y="0" x="0"></rect>
 <rect stroke-width="1" stroke="rgb(200,200,200)" fill="none" height="5" width="5" y="3.5" x="3.5"></rect>
 </pattern>
 <pattern y="0" x="0" height="12" width="12" patternUnits="userSpaceOnUse" id="cp1pattern">
 <rect class="cp1color" height="12" width="12" y="0" x="0"></rect>
 <path fill="black" d="M0,0L3,0L3,3L0,3L0,0M6,0L9,0L9,3L6,3L6,0M3,3L6,3L6,6L3,6L3,3M9,3L12,3L12,6L9,6L9,3"></path>
 <path fill="black" d="M0,6L3,6L3,9L0,9L0,6M6,6L9,6L9,9L6,9L6,6M3,9L6,9L6,12L3,12L3,9M9,9L12,9L12,12L9,12L9,9"></path>
 </pattern>
 <pattern y="0" x="0" height="12" width="12" patternUnits="userSpaceOnUse" id="cp2pattern">
 <rect class="cp2color" height="12" width="12" y="0" x="0"></rect>
 <path fill="white" d="M0,0L3,0L3,3L0,3L0,0M6,0L9,0L9,3L6,3L6,0M3,3L6,3L6,6L3,6L3,3M9,3L12,3L12,6L9,6L9,3"></path>
 <path fill="white" d="M0,6L3,6L3,9L0,9L0,6M6,6L9,6L9,9L6,9L6,6M3,9L6,9L6,12L3,12L3,9M9,9L12,9L12,12L9,12L9,9"></path>
 </pattern>
 <pattern y="0" x="0" height="12" width="12" patternUnits="userSpaceOnUse" id="cp3pattern">
 <rect class="cp3color" height="12" width="12" y="0" x="0"></rect>
 <path fill="black" d="M0,0L3,0L3,3L0,3L0,0M6,0L9,0L9,3L6,3L6,0M3,3L6,3L6,6L3,6L3,3M9,3L12,3L12,6L9,6L9,3"></path>
 <path fill="black" d="M0,6L3,6L3,9L0,9L0,6M6,6L9,6L9,9L6,9L6,6M3,9L6,9L6,12L3,12L3,9M9,9L12,9L12,12L9,12L9,9"></path>
 </pattern>
 <pattern y="0" x="0" height="12" width="12" patternUnits="userSpaceOnUse" id="cp4pattern">
 <rect class="cp4color" height="12" width="12" y="0" x="0"></rect>
 <path fill="white" d="M0,0L3,0L3,3L0,3L0,0M6,0L9,0L9,3L6,3L6,0M3,3L6,3L6,6L3,6L3,3M9,3L12,3L12,6L9,6L9,3"></path>
 <path fill="white" d="M0,6L3,6L3,9L0,9L0,6M6,6L9,6L9,9L6,9L6,6M3,9L6,9L6,12L3,12L3,9M9,9L12,9L12,12L9,12L9,9"></path>
 </pattern>
 <pattern y="0" x="0" height="12" width="12" patternUnits="userSpaceOnUse" id="cp5pattern">
 <rect class="cp5color" height="12" width="12" y="0" x="0"></rect>
 <path fill="black" d="M0,0L3,0L3,3L0,3L0,0M6,0L9,0L9,3L6,3L6,0M3,3L6,3L6,6L3,6L3,3M9,3L12,3L12,6L9,6L9,3"></path>
 <path fill="black" d="M0,6L3,6L3,9L0,9L0,6M6,6L9,6L9,9L6,9L6,6M3,9L6,9L6,12L3,12L3,9M9,9L12,9L12,12L9,12L9,9"></path>
 </pattern>
 <pattern y="0" x="0" height="12" width="12" patternUnits="userSpaceOnUse" id="cp6pattern">
 <rect class="cp6color" height="12" width="12" y="0" x="0"></rect>
 <path fill="white" d="M0,0L3,0L3,3L0,3L0,0M6,0L9,0L9,3L6,3L6,0M3,3L6,3L6,6L3,6L3,3M9,3L12,3L12,6L9,6L9,3"></path>
 <path fill="white" d="M0,6L3,6L3,9L0,9L0,6M6,6L9,6L9,9L6,9L6,6M3,9L6,9L6,12L3,12L3,9M9,9L12,9L12,12L9,12L9,9"></path>
 </pattern>
 <pattern y="0" x="0" height="12" width="12" patternUnits="userSpaceOnUse" id="cp7pattern">
 <rect class="cp7color" height="12" width="12" y="0" x="0"></rect>
 <path fill="black" d="M0,0L3,0L3,3L0,3L0,0M6,0L9,0L9,3L6,3L6,0M3,3L6,3L6,6L3,6L3,3M9,3L12,3L12,6L9,6L9,3"></path>
 <path fill="black" d="M0,6L3,6L3,9L0,9L0,6M6,6L9,6L9,9L6,9L6,6M3,9L6,9L6,12L3,12L3,9M9,9L12,9L12,12L9,12L9,9"></path>
 </pattern>
 <pattern y="0" x="0" height="12" width="12" patternUnits="userSpaceOnUse" id="cp8pattern">
 <rect class="cp8color" height="12" width="12" y="0" x="0"></rect>
 <path fill="white" d="M0,0L3,0L3,3L0,3L0,0M6,0L9,0L9,3L6,3L6,0M3,3L6,3L6,6L3,6L3,3M9,3L12,3L12,6L9,6L9,3"></path>
 <path fill="white" d="M0,6L3,6L3,9L0,9L0,6M6,6L9,6L9,9L6,9L6,6M3,9L6,9L6,12L3,12L3,9M9,9L12,9L12,12L9,12L9,9"></path>
 </pattern>
 <pattern y="0" x="0" height="12" width="12" patternUnits="userSpaceOnUse" id="cp9pattern">
 <rect class="cp9color" height="12" width="12" y="0" x="0"></rect>
 <path fill="black" d="M0,0L3,0L3,3L0,3L0,0M6,0L9,0L9,3L6,3L6,0M3,3L6,3L6,6L3,6L3,3M9,3L12,3L12,6L9,6L9,3"></path>
 <path fill="black" d="M0,6L3,6L3,9L0,9L0,6M6,6L9,6L9,9L6,9L6,6M3,9L6,9L6,12L3,12L3,9M9,9L12,9L12,12L9,12L9,9"></path>
 </pattern>
 </defs>
 <rect height="100%" width="100%" y="0" x="0" class="sand" id="mainfill"></rect>
 <g id="paths"><path d="M264,12L264,12L348,12L348,24L360,24L360,48L372,48L372,132L360,132L360,156L348,156L348,168L372,168L372,156L384,156L384,192L372,192L372,180L348,180L348,192L336,192L336,180L324,180L324,204L348,204L348,228L336,228L336,216L324,216L324,240L372,240L372,228L384,228L384,264L372,264L372,252L348,252L348,312L360,312L360,336L348,336L348,1344L336,1344L336,336L324,336L324,1344L312,1344L312,336L300,336L300,1344L288,1344L288,336L276,336L276,1344L264,1344L264,336L252,336L252,312L264,312L264,288L240,288L240,300L228,300L228,264L240,264L240,276L288,276L288,252L276,252L276,264L264,264L264,240L288,240L288,216L276,216L276,228L264,228L264,216L240,216L240,228L228,228L228,192L240,192L240,204L312,204L312,180L276,180L276,192L264,192L264,156L252,156L252,132L240,132L240,48L252,48L252,24L264,24L264,12M276,36L276,36L264,36L264,144L276,144L276,168L336,168L336,144L348,144L348,36L336,36L336,72L324,72L324,132L288,132L288,72L276,72L276,36M312,216L312,216L300,216L300,240L312,240L312,216M312,252L312,252L300,252L300,276L336,276L336,252L324,252L324,264L312,264L312,252M288,288L288,288L276,288L276,312L288,312L288,288M312,288L312,288L300,288L300,312L312,312L312,288M336,288L336,288L324,288L324,312L336,312L336,288M240,708L240,708L252,708L252,792L228,792L228,804L216,804L216,816L192,816L192,828L168,828L168,840L144,840L144,852L132,852L132,864L120,864L120,888L108,888L108,912L96,912L96,972L108,972L108,1008L120,1008L120,1020L132,1020L132,1032L156,1032L156,1044L168,1044L168,1056L180,1056L180,1068L192,1068L192,1080L204,1080L204,1104L216,1104L216,1116L228,1116L228,1128L240,1128L240,1332L228,1332L228,1344L192,1344L192,1332L180,1332L180,1308L168,1308L168,1296L156,1296L156,1308L144,1308L144,1320L132,1320L132,1332L120,1332L120,1344L96,1344L96,1332L84,1332L84,1320L72,1320L72,1332L60,1332L60,1428L72,1428L72,1452L84,1452L84,1488L96,1488L96,1500L108,1500L108,1512L120,1512L120,1524L132,1524L132,1536L144,1536L144,1548L168,1548L168,1560L192,1560L192,1572L204,1572L204,1584L240,1584L240,1596L288,1596L288,1524L276,1524L276,1452L264,1452L264,1392L252,1392L252,1344L264,1344L264,1356L276,1356L276,1344L288,1344L288,1356L300,1356L300,1344L312,1344L312,1356L324,1356L324,1344L336,1344L336,1356L348,1356L348,1344L360,1344L360,1392L348,1392L348,1452L336,1452L336,1524L324,1524L324,1596L372,1596L372,1584L408,1584L408,1572L420,1572L420,1560L444,1560L444,1548L468,1548L468,1536L480,1536L480,1524L492,1524L492,1512L504,1512L504,1500L516,1500L516,1488L528,1488L528,1452L540,1452L540,1428L552,1428L552,1332L540,1332L540,1320L528,1320L528,1332L516,1332L516,1344L492,1344L492,1332L480,1332L480,1320L468,1320L468,1308L456,1308L456,1296L444,1296L444,1308L432,1308L432,1332L420,1332L420,1344L384,1344L384,1332L372,1332L372,1128L384,1128L384,1116L396,1116L396,1104L408,1104L408,1080L420,1080L420,1068L432,1068L432,1056L444,1056L444,1044L456,1044L456,1032L480,1032L480,1020L492,1020L492,1008L504,1008L504,972L516,972L516,912L504,912L504,888L492,888L492,864L480,864L480,852L468,852L468,840L444,840L444,828L420,828L420,816L396,816L396,804L384,804L384,792L360,792L360,708L372,708L372,720L384,720L384,744L396,744L396,756L420,756L420,768L432,768L432,780L468,780L468,792L492,792L492,804L504,804L504,816L516,816L516,828L528,828L528,840L540,840L540,864L552,864L552,900L564,900L564,924L576,924L576,960L564,960L564,1008L552,1008L552,1044L540,1044L540,1068L528,1068L528,1092L516,1092L516,1080L480,1080L480,1092L468,1092L468,1116L456,1116L456,1236L468,1236L468,1260L480,1260L480,1272L492,1272L492,1284L504,1284L504,1272L516,1272L516,1260L528,1260L528,1248L540,1248L540,1260L552,1260L552,1272L564,1272L564,1284L576,1284L576,1296L588,1296L588,1320L600,1320L600,1452L588,1452L588,1488L576,1488L576,1512L564,1512L564,1524L552,1524L552,1536L540,1536L540,1548L528,1548L528,1560L516,1560L516,1572L504,1572L504,1584L492,1584L492,1596L468,1596L468,1608L444,1608L444,1620L420,1620L420,1632L384,1632L384,1644L312,1644L312,1704L300,1704L300,1644L228,1644L228,1632L192,1632L192,1620L168,1620L168,1608L144,1608L144,1596L120,1596L120,1584L108,1584L108,1572L96,1572L96,1560L84,1560L84,1548L72,1548L72,1536L60,1536L60,1524L48,1524L48,1512L36,1512L36,1488L24,1488L24,1452L12,1452L12,1320L24,1320L24,1296L36,1296L36,1284L48,1284L48,1272L60,1272L60,1260L72,1260L72,1248L84,1248L84,1260L96,1260L96,1272L108,1272L108,1284L120,1284L120,1272L132,1272L132,1260L144,1260L144,1236L156,1236L156,1116L144,1116L144,1092L132,1092L132,1080L96,1080L96,1092L84,1092L84,1068L72,1068L72,1044L60,1044L60,1008L48,1008L48,960L36,960L36,924L48,924L48,900L60,900L60,864L72,864L72,840L84,840L84,828L96,828L96,816L108,816L108,804L120,804L120,792L144,792L144,780L180,780L180,768L192,768L192,756L216,756L216,744L228,744L228,720L240,720L240,708M216,1128L216,1128L204,1128L204,1140L192,1140L192,1164L204,1164L204,1140L216,1140L216,1128M408,1128L408,1128L396,1128L396,1140L384,1140L384,1152L396,1152L396,1140L408,1140L408,1128M228,1140L228,1140L216,1140L216,1152L228,1152L228,1140M420,1140L420,1140L408,1140L408,1164L396,1164L396,1224L384,1224L384,1236L396,1236L396,1296L384,1296L384,1320L396,1320L396,1296L408,1296L408,1236L420,1236L420,1224L408,1224L408,1164L420,1164L420,1140M216,1164L216,1164L204,1164L204,1224L192,1224L192,1236L204,1236L204,1296L216,1296L216,1236L228,1236L228,1224L216,1224L216,1164M228,1296L228,1296L216,1296L216,1320L204,1320L204,1308L192,1308L192,1320L204,1320L204,1332L216,1332L216,1320L228,1320L228,1296M420,1308L420,1308L408,1308L408,1320L396,1320L396,1332L408,1332L408,1320L420,1320L420,1308M552,1620L552,1620L564,1620L564,1632L552,1632L552,1620M564,1632L564,1632L576,1632L576,1644L588,1644L588,1656L576,1656L576,1668L588,1668L588,1656L600,1656L600,1668L588,1668L588,1680L576,1680L576,1692L588,1692L588,1680L600,1680L600,1692L588,1692L588,1704L564,1704L564,1656L552,1656L552,1680L540,1680L540,1632L552,1632L552,1644L564,1644Z" class="road"></path><path d="M0,0L0,0L12,0L12,120L0,120Z" class="parc"></path><path d="M264,36L264,36L276,36L276,72L288,72L288,132L324,132L324,72L336,72L336,36L348,36L348,144L336,144L336,168L276,168L276,144L264,144L264,36M276,180L276,180L312,180L312,204L264,204L264,192L276,192L276,180M324,180L324,180L336,180L336,192L348,192L348,204L324,204L324,180M276,216L276,216L288,216L288,240L264,240L264,228L276,228L276,216M300,216L300,216L312,216L312,240L300,240L300,216M324,216L324,216L336,216L336,228L348,228L348,240L324,240L324,216M276,252L276,252L288,252L288,276L264,276L264,264L276,264L276,252M300,252L300,252L312,252L312,264L324,264L324,252L336,252L336,276L300,276L300,252M276,288L276,288L288,288L288,312L276,312L276,288M300,288L300,288L312,288L312,312L300,312L300,288M324,288L324,288L336,288L336,312L324,312L324,288M276,336L276,336L288,336L288,1344L276,1344L276,336M300,336L300,336L312,336L312,1344L300,1344L300,336M324,336L324,336L336,336L336,1344L324,1344L324,336M252,708L252,708L264,708L264,1344L252,1344L252,1392L264,1392L264,1452L276,1452L276,1524L288,1524L288,1596L240,1596L240,1584L204,1584L204,1572L192,1572L192,1560L168,1560L168,1548L144,1548L144,1536L132,1536L132,1524L120,1524L120,1512L108,1512L108,1500L96,1500L96,1488L84,1488L84,1452L72,1452L72,1428L60,1428L60,1332L72,1332L72,1320L84,1320L84,1332L96,1332L96,1344L120,1344L120,1332L132,1332L132,1320L144,1320L144,1308L156,1308L156,1296L168,1296L168,1308L180,1308L180,1332L192,1332L192,1344L228,1344L228,1332L240,1332L240,1128L228,1128L228,1116L216,1116L216,1104L204,1104L204,1080L192,1080L192,1068L180,1068L180,1056L168,1056L168,1044L156,1044L156,1032L132,1032L132,1020L120,1020L120,1008L108,1008L108,972L96,972L96,912L108,912L108,888L120,888L120,864L132,864L132,852L144,852L144,840L168,840L168,828L192,828L192,816L216,816L216,804L228,804L228,792L252,792L252,708M348,708L348,708L360,708L360,792L384,792L384,804L396,804L396,816L420,816L420,828L444,828L444,840L468,840L468,852L480,852L480,864L492,864L492,888L504,888L504,912L516,912L516,972L504,972L504,1008L492,1008L492,1020L480,1020L480,1032L456,1032L456,1044L444,1044L444,1056L432,1056L432,1068L420,1068L420,1080L408,1080L408,1104L396,1104L396,1116L384,1116L384,1128L372,1128L372,1332L384,1332L384,1344L420,1344L420,1332L432,1332L432,1308L444,1308L444,1296L456,1296L456,1308L468,1308L468,1320L480,1320L480,1332L492,1332L492,1344L516,1344L516,1332L528,1332L528,1320L540,1320L540,1332L552,1332L552,1428L540,1428L540,1452L528,1452L528,1488L516,1488L516,1500L504,1500L504,1512L492,1512L492,1524L480,1524L480,1536L468,1536L468,1548L444,1548L444,1560L420,1560L420,1572L408,1572L408,1584L372,1584L372,1596L324,1596L324,1524L336,1524L336,1452L348,1452L348,1392L360,1392L360,1344L348,1344L348,708M204,1128L204,1128L216,1128L216,1140L204,1140L204,1128M216,1140L216,1140L228,1140L228,1152L216,1152L216,1140M204,1140L204,1140L204,1164L192,1164L192,1140L204,1140M396,1128L396,1128L408,1128L408,1140L396,1140L396,1128M408,1140L408,1140L420,1140L420,1164L408,1164L408,1140M396,1140L396,1140L396,1152L384,1152L384,1140L396,1140M204,1164L204,1164L216,1164L216,1224L228,1224L228,1236L216,1236L216,1296L204,1296L204,1236L192,1236L192,1224L204,1224L204,1164M408,1164L408,1164L408,1224L420,1224L420,1236L408,1236L408,1296L396,1296L396,1236L384,1236L384,1224L396,1224L396,1164L408,1164M216,1296L216,1296L228,1296L228,1320L216,1320L216,1296M396,1296L396,1296L396,1320L384,1320L384,1296L396,1296M192,1308L192,1308L204,1308L204,1320L192,1320L192,1308M204,1320L204,1320L216,1320L216,1332L204,1332L204,1320M396,1320L396,1320L408,1320L408,1308L420,1308L420,1320L408,1320L408,1332L396,1332L396,1320M264,1344L264,1344L276,1344L276,1356L264,1356L264,1344M288,1344L288,1344L300,1344L300,1356L288,1356L288,1344M312,1344L312,1344L324,1344L324,1356L312,1356L312,1344M336,1344L336,1344L348,1344L348,1356L336,1356Z" class="mud"></path><path d="M288,120L288,120L324,120L324,132L288,132Z" class="finish"></path><path d="M228,732L228,732L240,732L240,744L228,744L228,732M240,744L240,744L252,744L252,756L240,756L240,744M372,732L372,732L384,732L384,744L372,744L372,732M372,744L372,744L372,756L360,756L360,744L372,744M240,756L240,756L240,768L228,768L228,756L240,756M372,756L372,756L384,756L384,768L372,768L372,756M240,768L240,768L252,768L252,780L240,780L240,768M372,768L372,768L372,780L360,780L360,768L372,768M240,780L240,780L240,792L228,792L228,780L240,780M372,780L372,780L384,780L384,792L372,792Z" class="start"></path></g>
 <rect opacity=".3" fill="url(#grid)" height="100%" width="100%" y="0" x="0"></rect>
</svg>