<svg xmlns:xlink="http://www.w3.org/1999/xlink" xmlns="http://www.w3.org/2000/svg" height="792" width="792" id="mapSvgView" version="1.1" style="width: 792px; height: 792px;" viewBox="0 0 792 792">
 <defs>
 <pattern y="0" x="0" height="24" width="24" patternUnits="userSpaceOnUse" id="grassPattern">
 <rect class="grasscolor" height="24" width="24" y="0" x="0"></rect>
 <rect class="grassspeclecolor" height="1" width="1" x="1" y="5"></rect>
 <rect class="grassspeclecolor" height="1" width="1" x="1" y="5"></rect>
 <rect class="grassspeclecolor" height="1" width="1" x="3" y="5"></rect>
 <rect class="grassspeclecolor" height="1" width="1" x="6" y="7"></rect>
 <rect class="grassspeclecolor" height="1" width="1" x="6" y="17"></rect>
 <rect class="grassspeclecolor" height="1" width="1" x="8" y="21"></rect>
 <rect class="grassspeclecolor" height="1" width="1" x="9" y="2"></rect>
 <rect class="grassspeclecolor" height="1" width="1" x="12" y="4"></rect>
 <rect class="grassspeclecolor" height="1" width="1" x="13" y="15"></rect>
 <rect class="grassspeclecolor" height="1" width="1" x="14" y="4"></rect>
 <rect class="grassspeclecolor" height="1" width="1" x="14" y="19"></rect>
 <rect class="grassspeclecolor" height="1" width="1" x="17" y="7"></rect>
 <rect class="grassspeclecolor" height="1" width="1" x="17" y="12"></rect>
 <rect class="grassspeclecolor" height="1" width="1" x="18" y="23"></rect>
 <rect class="grassspeclecolor" height="1" width="1" x="21" y="16"></rect>
 <rect class="grassspeclecolor" height="1" width="1" x="23" y="12"></rect>
 </pattern>
 <pattern y="0" x="0" height="24" width="24" patternUnits="userSpaceOnUse" id="roadPattern">
 <rect class="roadcolor" height="24" width="24" y="0" x="0"></rect>
 <rect class="roadspeclecolor" height="1" width="1" x="1" y="5"></rect>
 <rect class="roadspeclecolor" height="1" width="1" x="1" y="5"></rect>
 <rect class="roadspeclecolor" height="1" width="1" x="3" y="5"></rect>
 <rect class="roadspeclecolor" height="1" width="1" x="6" y="7"></rect>
 <rect class="roadspeclecolor" height="1" width="1" x="6" y="17"></rect>
 <rect class="roadspeclecolor" height="1" width="1" x="8" y="21"></rect>
 <rect class="roadspeclecolor" height="1" width="1" x="9" y="2"></rect>
 <rect class="roadspeclecolor" height="1" width="1" x="12" y="4"></rect>
 <rect class="roadspeclecolor" height="1" width="1" x="13" y="15"></rect>
 <rect class="roadspeclecolor" height="1" width="1" x="14" y="4"></rect>
 <rect class="roadspeclecolor" height="1" width="1" x="14" y="19"></rect>
 <rect class="roadspeclecolor" height="1" width="1" x="17" y="7"></rect>
 <rect class="roadspeclecolor" height="1" width="1" x="17" y="12"></rect>
 <rect class="roadspeclecolor" height="1" width="1" x="18" y="23"></rect>
 <rect class="roadspeclecolor" height="1" width="1" x="21" y="16"></rect>
 <rect class="roadspeclecolor" height="1" width="1" x="23" y="12"></rect>
 </pattern>
 <pattern y="0" x="0" height="12" width="12" patternUnits="userSpaceOnUse" id="grid">
 <line stroke-width="1" stroke="black" y2="12" x2="12" y1="0" x1="12"></line>
 <line stroke-width="1" stroke="black" y2="12" x2="12" y1="12" x1="0"></line>
 </pattern>
 <pattern y="0" x="0" height="12" width="12" patternUnits="userSpaceOnUse" id="finishPattern">
 <rect fill="black" height="12" width="12" y="0" x="0"></rect>
 <path fill="white" d="M0,0L3,0L3,3L0,3L0,0M6,0L9,0L9,3L6,3L6,0M3,3L6,3L6,6L3,6L3,3M9,3L12,3L12,6L9,6L9,3"></path>
 <path fill="white" d="M0,6L3,6L3,9L0,9L0,6M6,6L9,6L9,9L6,9L6,6M3,9L6,9L6,12L3,12L3,9M9,9L12,9L12,12L9,12L9,9"></path>
 </pattern>
 <pattern y="0" x="0" height="12" width="12" patternUnits="userSpaceOnUse" id="startPattern">
 <rect fill="rgb(100,100,100)" height="12" width="12" y="0" x="0"></rect>
 <rect stroke-width="1" stroke="rgb(200,200,200)" fill="none" height="5" width="5" y="3.5" x="3.5"></rect>
 </pattern>
 <pattern y="0" x="0" height="12" width="12" patternUnits="userSpaceOnUse" id="cp1pattern">
 <rect class="cp1color" height="12" width="12" y="0" x="0"></rect>
 <path fill="black" d="M0,0L3,0L3,3L0,3L0,0M6,0L9,0L9,3L6,3L6,0M3,3L6,3L6,6L3,6L3,3M9,3L12,3L12,6L9,6L9,3"></path>
 <path fill="black" d="M0,6L3,6L3,9L0,9L0,6M6,6L9,6L9,9L6,9L6,6M3,9L6,9L6,12L3,12L3,9M9,9L12,9L12,12L9,12L9,9"></path>
 </pattern>
 <pattern y="0" x="0" height="12" width="12" patternUnits="userSpaceOnUse" id="cp2pattern">
 <rect class="cp2color" height="12" width="12" y="0" x="0"></rect>
 <path fill="white" d="M0,0L3,0L3,3L0,3L0,0M6,0L9,0L9,3L6,3L6,0M3,3L6,3L6,6L3,6L3,3M9,3L12,3L12,6L9,6L9,3"></path>
 <path fill="white" d="M0,6L3,6L3,9L0,9L0,6M6,6L9,6L9,9L6,9L6,6M3,9L6,9L6,12L3,12L3,9M9,9L12,9L12,12L9,12L9,9"></path>
 </pattern>
 <pattern y="0" x="0" height="12" width="12" patternUnits="userSpaceOnUse" id="cp3pattern">
 <rect class="cp3color" height="12" width="12" y="0" x="0"></rect>
 <path fill="black" d="M0,0L3,0L3,3L0,3L0,0M6,0L9,0L9,3L6,3L6,0M3,3L6,3L6,6L3,6L3,3M9,3L12,3L12,6L9,6L9,3"></path>
 <path fill="black" d="M0,6L3,6L3,9L0,9L0,6M6,6L9,6L9,9L6,9L6,6M3,9L6,9L6,12L3,12L3,9M9,9L12,9L12,12L9,12L9,9"></path>
 </pattern>
 <pattern y="0" x="0" height="12" width="12" patternUnits="userSpaceOnUse" id="cp4pattern">
 <rect class="cp4color" height="12" width="12" y="0" x="0"></rect>
 <path fill="white" d="M0,0L3,0L3,3L0,3L0,0M6,0L9,0L9,3L6,3L6,0M3,3L6,3L6,6L3,6L3,3M9,3L12,3L12,6L9,6L9,3"></path>
 <path fill="white" d="M0,6L3,6L3,9L0,9L0,6M6,6L9,6L9,9L6,9L6,6M3,9L6,9L6,12L3,12L3,9M9,9L12,9L12,12L9,12L9,9"></path>
 </pattern>
 <pattern y="0" x="0" height="12" width="12" patternUnits="userSpaceOnUse" id="cp5pattern">
 <rect class="cp5color" height="12" width="12" y="0" x="0"></rect>
 <path fill="black" d="M0,0L3,0L3,3L0,3L0,0M6,0L9,0L9,3L6,3L6,0M3,3L6,3L6,6L3,6L3,3M9,3L12,3L12,6L9,6L9,3"></path>
 <path fill="black" d="M0,6L3,6L3,9L0,9L0,6M6,6L9,6L9,9L6,9L6,6M3,9L6,9L6,12L3,12L3,9M9,9L12,9L12,12L9,12L9,9"></path>
 </pattern>
 <pattern y="0" x="0" height="12" width="12" patternUnits="userSpaceOnUse" id="cp6pattern">
 <rect class="cp6color" height="12" width="12" y="0" x="0"></rect>
 <path fill="white" d="M0,0L3,0L3,3L0,3L0,0M6,0L9,0L9,3L6,3L6,0M3,3L6,3L6,6L3,6L3,3M9,3L12,3L12,6L9,6L9,3"></path>
 <path fill="white" d="M0,6L3,6L3,9L0,9L0,6M6,6L9,6L9,9L6,9L6,6M3,9L6,9L6,12L3,12L3,9M9,9L12,9L12,12L9,12L9,9"></path>
 </pattern>
 <pattern y="0" x="0" height="12" width="12" patternUnits="userSpaceOnUse" id="cp7pattern">
 <rect class="cp7color" height="12" width="12" y="0" x="0"></rect>
 <path fill="black" d="M0,0L3,0L3,3L0,3L0,0M6,0L9,0L9,3L6,3L6,0M3,3L6,3L6,6L3,6L3,3M9,3L12,3L12,6L9,6L9,3"></path>
 <path fill="black" d="M0,6L3,6L3,9L0,9L0,6M6,6L9,6L9,9L6,9L6,6M3,9L6,9L6,12L3,12L3,9M9,9L12,9L12,12L9,12L9,9"></path>
 </pattern>
 <pattern y="0" x="0" height="12" width="12" patternUnits="userSpaceOnUse" id="cp8pattern">
 <rect class="cp8color" height="12" width="12" y="0" x="0"></rect>
 <path fill="white" d="M0,0L3,0L3,3L0,3L0,0M6,0L9,0L9,3L6,3L6,0M3,3L6,3L6,6L3,6L3,3M9,3L12,3L12,6L9,6L9,3"></path>
 <path fill="white" d="M0,6L3,6L3,9L0,9L0,6M6,6L9,6L9,9L6,9L6,6M3,9L6,9L6,12L3,12L3,9M9,9L12,9L12,12L9,12L9,9"></path>
 </pattern>
 <pattern y="0" x="0" height="12" width="12" patternUnits="userSpaceOnUse" id="cp9pattern">
 <rect class="cp9color" height="12" width="12" y="0" x="0"></rect>
 <path fill="black" d="M0,0L3,0L3,3L0,3L0,0M6,0L9,0L9,3L6,3L6,0M3,3L6,3L6,6L3,6L3,3M9,3L12,3L12,6L9,6L9,3"></path>
 <path fill="black" d="M0,6L3,6L3,9L0,9L0,6M6,6L9,6L9,9L6,9L6,6M3,9L6,9L6,12L3,12L3,9M9,9L12,9L12,12L9,12L9,9"></path>
 </pattern>
 </defs>
 <rect height="100%" width="100%" y="0" x="0" class="road" id="mainfill"></rect>
 <g id="paths"><path d="M144,12L144,12L216,12L216,24L252,24L252,36L276,36L276,48L288,48L288,60L300,60L300,72L312,72L312,84L324,84L324,108L336,108L336,156L348,156L348,252L444,252L444,144L456,144L456,108L468,108L468,84L480,84L480,72L492,72L492,60L504,60L504,48L516,48L516,36L540,36L540,24L576,24L576,12L648,12L648,24L684,24L684,36L708,36L708,48L720,48L720,60L732,60L732,72L744,72L744,84L756,84L756,108L768,108L768,144L780,144L780,216L768,216L768,252L756,252L756,276L744,276L744,288L732,288L732,300L720,300L720,312L708,312L708,324L684,324L684,336L636,336L636,348L540,348L540,444L648,444L648,456L684,456L684,468L708,468L708,480L720,480L720,492L732,492L732,504L744,504L744,516L756,516L756,540L768,540L768,576L780,576L780,648L768,648L768,684L756,684L756,708L744,708L744,720L732,720L732,732L720,732L720,744L708,744L708,756L684,756L684,768L648,768L648,780L576,780L576,768L540,768L540,756L516,756L516,744L504,744L504,732L492,732L492,720L480,720L480,708L468,708L468,684L456,684L456,636L444,636L444,540L348,540L348,648L336,648L336,684L324,684L324,708L312,708L312,720L300,720L300,732L288,732L288,744L276,744L276,756L252,756L252,768L216,768L216,780L144,780L144,768L108,768L108,756L84,756L84,744L72,744L72,732L60,732L60,720L48,720L48,708L36,708L36,684L24,684L24,648L12,648L12,576L24,576L24,540L36,540L36,516L48,516L48,504L60,504L60,492L72,492L72,480L84,480L84,468L108,468L108,456L156,456L156,444L252,444L252,348L144,348L144,336L108,336L108,324L84,324L84,312L72,312L72,300L60,300L60,288L48,288L48,276L36,276L36,252L24,252L24,216L12,216L12,144L24,144L24,108L36,108L36,84L48,84L48,72L60,72L60,60L72,60L72,48L84,48L84,36L108,36L108,24L144,24L144,12M168,108L168,108L156,108L156,120L132,120L132,132L120,132L120,156L108,156L108,204L120,204L120,228L132,228L132,240L156,240L156,252L252,252L252,156L240,156L240,132L228,132L228,120L204,120L204,108L168,108M600,108L600,108L588,108L588,120L564,120L564,132L552,132L552,156L540,156L540,252L636,252L636,240L660,240L660,228L672,228L672,204L684,204L684,156L672,156L672,132L660,132L660,120L636,120L636,108L600,108M360,348L360,348L348,348L348,444L444,444L444,348L360,348M168,540L168,540L156,540L156,552L132,552L132,564L120,564L120,588L108,588L108,636L120,636L120,660L132,660L132,672L156,672L156,684L204,684L204,672L228,672L228,660L240,660L240,636L252,636L252,540L168,540M552,540L552,540L540,540L540,636L552,636L552,660L564,660L564,672L588,672L588,684L636,684L636,672L660,672L660,660L672,660L672,636L684,636L684,588L672,588L672,564L660,564L660,552L636,552L636,540Z" class="road"></path><path d="M708,60L708,60L732,60L732,84L720,84L720,96L708,96L708,108L696,108L696,120L684,120L684,132L660,132L660,108L672,108L672,96L684,96L684,84L696,84L696,72L708,72Z" class="cp1"></path><path d="M444,384L444,384L540,384L540,408L444,408Z" class="cp2"></path><path d="M660,660L660,660L684,660L684,672L696,672L696,684L708,684L708,696L720,696L720,708L732,708L732,732L708,732L708,720L696,720L696,708L684,708L684,696L672,696L672,684L660,684Z" class="cp3"></path><path d="M384,444L384,444L408,444L408,540L384,540Z" class="cp4"></path><path d="M108,660L108,660L132,660L132,684L120,684L120,696L108,696L108,708L96,708L96,720L84,720L84,732L60,732L60,708L72,708L72,696L84,696L84,684L96,684L96,672L108,672Z" class="cp5"></path><path d="M252,384L252,384L348,384L348,408L252,408Z" class="cp6"></path><path d="M60,60L60,60L84,60L84,72L96,72L96,84L108,84L108,96L120,96L120,108L132,108L132,132L108,132L108,120L96,120L96,108L84,108L84,96L72,96L72,84L60,84Z" class="cp7"></path><path d="M0,0L0,0L12,0L12,96L0,96Z" class="parc"></path><path d="M12,0L12,0L792,0L792,792L0,792L0,96L12,96L12,0M156,12L156,12L144,12L144,24L108,24L108,36L84,36L84,48L72,48L72,60L60,60L60,72L48,72L48,84L36,84L36,108L24,108L24,144L12,144L12,216L24,216L24,252L36,252L36,276L48,276L48,288L60,288L60,300L72,300L72,312L84,312L84,324L108,324L108,336L144,336L144,348L252,348L252,444L156,444L156,456L108,456L108,468L84,468L84,480L72,480L72,492L60,492L60,504L48,504L48,516L36,516L36,540L24,540L24,576L12,576L12,648L24,648L24,684L36,684L36,708L48,708L48,720L60,720L60,732L72,732L72,744L84,744L84,756L108,756L108,768L144,768L144,780L216,780L216,768L252,768L252,756L276,756L276,744L288,744L288,732L300,732L300,720L312,720L312,708L324,708L324,684L336,684L336,648L348,648L348,540L444,540L444,636L456,636L456,684L468,684L468,708L480,708L480,720L492,720L492,732L504,732L504,744L516,744L516,756L540,756L540,768L576,768L576,780L648,780L648,768L684,768L684,756L708,756L708,744L720,744L720,732L732,732L732,720L744,720L744,708L756,708L756,684L768,684L768,648L780,648L780,576L768,576L768,540L756,540L756,516L744,516L744,504L732,504L732,492L720,492L720,480L708,480L708,468L684,468L684,456L648,456L648,444L540,444L540,348L636,348L636,336L684,336L684,324L708,324L708,312L720,312L720,300L732,300L732,288L744,288L744,276L756,276L756,252L768,252L768,216L780,216L780,144L768,144L768,108L756,108L756,84L744,84L744,72L732,72L732,60L720,60L720,48L708,48L708,36L684,36L684,24L648,24L648,12L576,12L576,24L540,24L540,36L516,36L516,48L504,48L504,60L492,60L492,72L480,72L480,84L468,84L468,108L456,108L456,144L444,144L444,252L348,252L348,156L336,156L336,108L324,108L324,84L312,84L312,72L300,72L300,60L288,60L288,48L276,48L276,36L252,36L252,24L216,24L216,12L156,12M156,108L156,108L204,108L204,120L228,120L228,132L240,132L240,156L252,156L252,252L156,252L156,240L132,240L132,228L120,228L120,204L108,204L108,156L120,156L120,132L132,132L132,120L156,120L156,108M588,108L588,108L636,108L636,120L660,120L660,132L672,132L672,156L684,156L684,204L672,204L672,228L660,228L660,240L636,240L636,252L540,252L540,156L552,156L552,132L564,132L564,120L588,120L588,108M348,348L348,348L444,348L444,444L348,444L348,348M156,540L156,540L252,540L252,636L240,636L240,660L228,660L228,672L204,672L204,684L156,684L156,672L132,672L132,660L120,660L120,636L108,636L108,588L120,588L120,564L132,564L132,552L156,552L156,540M540,540L540,540L636,540L636,552L660,552L660,564L672,564L672,588L684,588L684,636L672,636L672,660L660,660L660,672L636,672L636,684L588,684L588,672L564,672L564,660L552,660L552,636L540,636Z" class="grass"></path><path d="M384,252L384,252L396,252L396,348L384,348Z" class="finish"></path><path d="M396,252L396,252L408,252L408,348L396,348Z" class="start"></path></g>
 <rect opacity=".3" fill="url(#grid)" height="100%" width="100%" y="0" x="0"></rect>
</svg>