<svg xmlns="http://www.w3.org/2000/svg" xmlns:xlink="http://www.w3.org/1999/xlink" version="1.1" id="mapSvgView" width="960" height="324"> <rect id="mainfill" class="grass" x="0" y="0" width="100%" height="100%"></rect> <g id="paths"><path d="M24,168L24,168L36,168L36,180L24,180L24,168M48,180L48,180L60,180L60,192L48,192L48,180M72,192L72,192L84,192L84,204L72,204L72,192M96,204L96,204L108,204L108,216L96,216L96,204M120,216L120,216L132,216L132,228L120,228L120,216M144,228L144,228L156,228L156,240L144,240Z" class="cp1"></path><path d="M540,132L540,132L552,132L552,144L564,144L564,132L576,132L576,192L564,192L564,180L552,180L552,192L540,192Z" class="cp2"></path><path d="M696,48L696,48L720,48L720,60L696,60Z" class="cp3"></path><path d="M864,60L864,60L876,60L876,84L864,84Z" class="cp4"></path><path d="M900,72L900,72L936,72L936,84L900,84Z" class="cp5"></path><path d="M792,240L792,240L816,240L816,300L792,300Z" class="cp6"></path><path d="M624,204L624,204L648,204L648,228L624,228Z" class="cp7"></path><path d="M0,0L0,0L12,0L12,72L0,72Z" class="parc"></path><path d="M828,12L828,12L888,12L888,24L912,24L912,36L924,36L924,48L936,48L936,72L912,72L912,48L888,48L888,60L876,60L876,36L816,36L816,48L792,48L792,60L768,60L768,72L720,72L720,60L756,60L756,48L768,48L768,36L792,36L792,24L828,24L828,12M636,24L636,24L672,24L672,36L696,36L696,48L636,48L636,60L660,60L660,72L672,72L672,84L684,84L684,132L696,132L696,192L660,192L660,204L612,204L612,192L576,192L576,132L648,132L648,120L660,120L660,96L648,96L648,84L624,84L624,72L600,72L600,48L612,48L612,36L636,36L636,24M852,72L852,72L864,72L864,108L888,108L888,96L900,96L900,84L948,84L948,240L936,240L936,264L924,264L924,288L912,288L912,300L888,300L888,312L816,312L816,228L840,228L840,216L852,216L852,204L864,204L864,192L876,192L876,120L852,120L852,72M36,96L36,96L72,96L72,108L156,108L156,96L192,96L192,108L204,108L204,120L216,120L216,204L204,204L204,216L192,216L192,228L156,228L156,216L132,216L132,204L108,204L108,192L84,192L84,180L60,180L60,168L36,168L36,156L24,156L24,108L36,108L36,96M60,144L60,144L48,144L48,156L60,156L60,144M240,132L240,132L540,132L540,192L240,192L240,132M84,156L84,156L72,156L72,168L84,168L84,156M324,156L324,156L312,156L312,168L324,168L324,156M384,156L384,156L372,156L372,168L384,168L384,156M444,156L444,156L432,156L432,168L444,168L444,156M492,156L492,156L480,156L480,168L492,168L492,156M600,156L600,156L588,156L588,168L600,168L600,156M636,156L636,156L624,156L624,168L636,168L636,156M660,156L660,156L648,156L648,168L660,168L660,156M684,156L684,156L672,156L672,168L684,168L684,156M108,168L108,168L96,168L96,180L108,180L108,168M132,180L132,180L120,180L120,192L132,192L132,180M156,192L156,192L144,192L144,204L156,204L156,192M180,204L180,204L168,204L168,216L180,216L180,204M684,216L684,216L744,216L744,228L780,228L780,240L792,240L792,300L780,300L780,288L756,288L756,276L720,276L720,288L696,288L696,300L660,300L660,312L576,312L576,300L552,300L552,288L540,288L540,264L564,264L564,252L600,252L600,240L612,240L612,228L684,228Z" class="road"></path><path d="M12,120L12,120L24,120L24,156L12,156Z" class="finish"></path><path d="M216,132L216,132L240,132L240,192L216,192Z" class="start"></path></g></svg>