<svg xmlns="http://www.w3.org/2000/svg" xmlns:xlink="http://www.w3.org/1999/xlink" version="1.1" id="mapSvgView" width="972" height="384"> <rect id="mainfill" class="grass" x="0" y="0" width="100%" height="100%"></rect> <g id="paths"><path d="M252,12L252,12L264,12L264,24L252,24L252,12M48,84L48,84L60,84L60,96L48,96L48,84M600,132L600,132L612,132L612,144L600,144L600,132M24,168L24,168L96,168L96,192L24,192L24,168M324,252L324,252L336,252L336,264L324,264L324,252M72,336L72,336L84,336L84,348L72,348Z" class="cp1"></path><path d="M456,12L456,12L492,12L492,84L456,84Z" class="cp2"></path><path d="M564,168L564,168L660,168L660,192L564,192Z" class="cp3"></path><path d="M456,324L456,324L492,324L492,372L456,372Z" class="cp4"></path><path d="M276,168L276,168L372,168L372,192L276,192Z" class="cp5"></path><path d="M732,24L732,24L744,24L744,36L732,36Z" class="cp6"></path><path d="M696,168L696,168L780,168L780,192L696,192Z" class="cp7"></path><path d="M708,300L708,300L720,300L720,312L708,312Z" class="cp8"></path><path d="M864,336L864,336L876,336L876,348L864,348Z" class="cp9"></path><path d="M0,0L0,0L12,0L12,120L0,120Z" class="parc"></path><path d="M24,12L24,12L252,12L252,24L264,24L264,12L456,12L456,84L420,84L420,96L396,96L396,108L384,108L384,132L372,132L372,168L276,168L276,156L288,156L288,120L300,120L300,96L312,96L312,72L324,72L324,60L336,60L336,48L348,48L348,36L96,36L96,168L24,168L24,12M492,12L492,12L780,12L780,168L696,168L696,36L588,36L588,48L600,48L600,60L612,60L612,72L624,72L624,84L636,84L636,108L648,108L648,132L660,132L660,168L564,168L564,132L552,132L552,108L540,108L540,96L516,96L516,84L492,84L492,12M744,24L744,24L732,24L732,36L744,36L744,24M60,84L60,84L48,84L48,96L60,96L60,84M612,132L612,132L600,132L600,144L612,144L612,132M24,192L24,192L96,192L96,312L240,312L240,324L252,324L252,312L264,312L264,324L252,324L252,336L240,336L240,348L252,348L252,336L264,336L264,324L276,324L276,336L264,336L264,348L252,348L252,360L240,360L240,372L24,372L24,192M276,192L276,192L372,192L372,264L384,264L384,288L396,288L396,300L408,300L408,312L420,312L420,324L456,324L456,372L384,372L384,360L360,360L360,348L348,348L348,336L336,336L336,312L312,312L312,288L300,288L300,276L288,276L288,240L276,240L276,192M564,192L564,192L660,192L660,252L648,252L648,276L636,276L636,300L624,300L624,312L612,312L612,336L588,336L588,348L576,348L576,360L552,360L552,372L492,372L492,324L516,324L516,312L528,312L528,300L540,300L540,288L552,288L552,276L564,276L564,192M696,192L696,192L780,192L780,312L948,312L948,372L696,372L696,192M336,252L336,252L324,252L324,264L336,264L336,252M720,300L720,300L708,300L708,312L720,312L720,300M84,336L84,336L72,336L72,348L84,348L84,336M876,336L876,336L864,336L864,348L876,348L876,336M264,348L264,348L276,348L276,360L264,360L264,348M252,360L252,360L264,360L264,372L252,372Z" class="road"></path><path d="M240,312L240,312L252,312L252,324L240,324L240,312M252,324L252,324L264,324L264,312L276,312L276,324L264,324L264,336L252,336L252,324M264,336L264,336L276,336L276,348L264,348L264,336M252,336L252,336L252,348L240,348L240,336L252,336M252,348L252,348L264,348L264,360L252,360L252,348M264,360L264,360L276,360L276,372L264,372L264,360M252,360L252,360L252,372L240,372L240,360Z" class="start"></path><path d="M948,312L948,312L960,312L960,372L948,372Z" class="finish"></path></g></svg>