<svg xmlns:xlink="http://www.w3.org/1999/xlink" xmlns="http://www.w3.org/2000/svg" height="624" width="1416" id="mapSvgView" version="1.1" style="width: 1416px; height: 624px;" viewBox="0 0 1416 624">
 <defs>
 <pattern y="0" x="0" height="24" width="24" patternUnits="userSpaceOnUse" id="grassPattern">
 <rect class="grasscolor" height="24" width="24" y="0" x="0"></rect>
 <rect class="grassspeclecolor" height="1" width="1" x="1" y="5"></rect>
 <rect class="grassspeclecolor" height="1" width="1" x="1" y="5"></rect>
 <rect class="grassspeclecolor" height="1" width="1" x="3" y="5"></rect>
 <rect class="grassspeclecolor" height="1" width="1" x="6" y="7"></rect>
 <rect class="grassspeclecolor" height="1" width="1" x="6" y="17"></rect>
 <rect class="grassspeclecolor" height="1" width="1" x="8" y="21"></rect>
 <rect class="grassspeclecolor" height="1" width="1" x="9" y="2"></rect>
 <rect class="grassspeclecolor" height="1" width="1" x="12" y="4"></rect>
 <rect class="grassspeclecolor" height="1" width="1" x="13" y="15"></rect>
 <rect class="grassspeclecolor" height="1" width="1" x="14" y="4"></rect>
 <rect class="grassspeclecolor" height="1" width="1" x="14" y="19"></rect>
 <rect class="grassspeclecolor" height="1" width="1" x="17" y="7"></rect>
 <rect class="grassspeclecolor" height="1" width="1" x="17" y="12"></rect>
 <rect class="grassspeclecolor" height="1" width="1" x="18" y="23"></rect>
 <rect class="grassspeclecolor" height="1" width="1" x="21" y="16"></rect>
 <rect class="grassspeclecolor" height="1" width="1" x="23" y="12"></rect>
 </pattern>
 <pattern y="0" x="0" height="24" width="24" patternUnits="userSpaceOnUse" id="roadPattern">
 <rect class="roadcolor" height="24" width="24" y="0" x="0"></rect>
 <rect class="roadspeclecolor" height="1" width="1" x="1" y="5"></rect>
 <rect class="roadspeclecolor" height="1" width="1" x="1" y="5"></rect>
 <rect class="roadspeclecolor" height="1" width="1" x="3" y="5"></rect>
 <rect class="roadspeclecolor" height="1" width="1" x="6" y="7"></rect>
 <rect class="roadspeclecolor" height="1" width="1" x="6" y="17"></rect>
 <rect class="roadspeclecolor" height="1" width="1" x="8" y="21"></rect>
 <rect class="roadspeclecolor" height="1" width="1" x="9" y="2"></rect>
 <rect class="roadspeclecolor" height="1" width="1" x="12" y="4"></rect>
 <rect class="roadspeclecolor" height="1" width="1" x="13" y="15"></rect>
 <rect class="roadspeclecolor" height="1" width="1" x="14" y="4"></rect>
 <rect class="roadspeclecolor" height="1" width="1" x="14" y="19"></rect>
 <rect class="roadspeclecolor" height="1" width="1" x="17" y="7"></rect>
 <rect class="roadspeclecolor" height="1" width="1" x="17" y="12"></rect>
 <rect class="roadspeclecolor" height="1" width="1" x="18" y="23"></rect>
 <rect class="roadspeclecolor" height="1" width="1" x="21" y="16"></rect>
 <rect class="roadspeclecolor" height="1" width="1" x="23" y="12"></rect>
 </pattern>
 <pattern y="0" x="0" height="12" width="12" patternUnits="userSpaceOnUse" id="grid">
 <line stroke-width="1" stroke="black" y2="12" x2="12" y1="0" x1="12"></line>
 <line stroke-width="1" stroke="black" y2="12" x2="12" y1="12" x1="0"></line>
 </pattern>
 <pattern y="0" x="0" height="12" width="12" patternUnits="userSpaceOnUse" id="finishPattern">
 <rect fill="black" height="12" width="12" y="0" x="0"></rect>
 <path fill="white" d="M0,0L3,0L3,3L0,3L0,0M6,0L9,0L9,3L6,3L6,0M3,3L6,3L6,6L3,6L3,3M9,3L12,3L12,6L9,6L9,3"></path>
 <path fill="white" d="M0,6L3,6L3,9L0,9L0,6M6,6L9,6L9,9L6,9L6,6M3,9L6,9L6,12L3,12L3,9M9,9L12,9L12,12L9,12L9,9"></path>
 </pattern>
 <pattern y="0" x="0" height="12" width="12" patternUnits="userSpaceOnUse" id="startPattern">
 <rect fill="rgb(100,100,100)" height="12" width="12" y="0" x="0"></rect>
 <rect stroke-width="1" stroke="rgb(200,200,200)" fill="none" height="5" width="5" y="3.5" x="3.5"></rect>
 </pattern>
 <pattern y="0" x="0" height="12" width="12" patternUnits="userSpaceOnUse" id="cp1pattern">
 <rect class="cp1color" height="12" width="12" y="0" x="0"></rect>
 <path fill="black" d="M0,0L3,0L3,3L0,3L0,0M6,0L9,0L9,3L6,3L6,0M3,3L6,3L6,6L3,6L3,3M9,3L12,3L12,6L9,6L9,3"></path>
 <path fill="black" d="M0,6L3,6L3,9L0,9L0,6M6,6L9,6L9,9L6,9L6,6M3,9L6,9L6,12L3,12L3,9M9,9L12,9L12,12L9,12L9,9"></path>
 </pattern>
 <pattern y="0" x="0" height="12" width="12" patternUnits="userSpaceOnUse" id="cp2pattern">
 <rect class="cp2color" height="12" width="12" y="0" x="0"></rect>
 <path fill="white" d="M0,0L3,0L3,3L0,3L0,0M6,0L9,0L9,3L6,3L6,0M3,3L6,3L6,6L3,6L3,3M9,3L12,3L12,6L9,6L9,3"></path>
 <path fill="white" d="M0,6L3,6L3,9L0,9L0,6M6,6L9,6L9,9L6,9L6,6M3,9L6,9L6,12L3,12L3,9M9,9L12,9L12,12L9,12L9,9"></path>
 </pattern>
 <pattern y="0" x="0" height="12" width="12" patternUnits="userSpaceOnUse" id="cp3pattern">
 <rect class="cp3color" height="12" width="12" y="0" x="0"></rect>
 <path fill="black" d="M0,0L3,0L3,3L0,3L0,0M6,0L9,0L9,3L6,3L6,0M3,3L6,3L6,6L3,6L3,3M9,3L12,3L12,6L9,6L9,3"></path>
 <path fill="black" d="M0,6L3,6L3,9L0,9L0,6M6,6L9,6L9,9L6,9L6,6M3,9L6,9L6,12L3,12L3,9M9,9L12,9L12,12L9,12L9,9"></path>
 </pattern>
 <pattern y="0" x="0" height="12" width="12" patternUnits="userSpaceOnUse" id="cp4pattern">
 <rect class="cp4color" height="12" width="12" y="0" x="0"></rect>
 <path fill="white" d="M0,0L3,0L3,3L0,3L0,0M6,0L9,0L9,3L6,3L6,0M3,3L6,3L6,6L3,6L3,3M9,3L12,3L12,6L9,6L9,3"></path>
 <path fill="white" d="M0,6L3,6L3,9L0,9L0,6M6,6L9,6L9,9L6,9L6,6M3,9L6,9L6,12L3,12L3,9M9,9L12,9L12,12L9,12L9,9"></path>
 </pattern>
 <pattern y="0" x="0" height="12" width="12" patternUnits="userSpaceOnUse" id="cp5pattern">
 <rect class="cp5color" height="12" width="12" y="0" x="0"></rect>
 <path fill="black" d="M0,0L3,0L3,3L0,3L0,0M6,0L9,0L9,3L6,3L6,0M3,3L6,3L6,6L3,6L3,3M9,3L12,3L12,6L9,6L9,3"></path>
 <path fill="black" d="M0,6L3,6L3,9L0,9L0,6M6,6L9,6L9,9L6,9L6,6M3,9L6,9L6,12L3,12L3,9M9,9L12,9L12,12L9,12L9,9"></path>
 </pattern>
 <pattern y="0" x="0" height="12" width="12" patternUnits="userSpaceOnUse" id="cp6pattern">
 <rect class="cp6color" height="12" width="12" y="0" x="0"></rect>
 <path fill="white" d="M0,0L3,0L3,3L0,3L0,0M6,0L9,0L9,3L6,3L6,0M3,3L6,3L6,6L3,6L3,3M9,3L12,3L12,6L9,6L9,3"></path>
 <path fill="white" d="M0,6L3,6L3,9L0,9L0,6M6,6L9,6L9,9L6,9L6,6M3,9L6,9L6,12L3,12L3,9M9,9L12,9L12,12L9,12L9,9"></path>
 </pattern>
 <pattern y="0" x="0" height="12" width="12" patternUnits="userSpaceOnUse" id="cp7pattern">
 <rect class="cp7color" height="12" width="12" y="0" x="0"></rect>
 <path fill="black" d="M0,0L3,0L3,3L0,3L0,0M6,0L9,0L9,3L6,3L6,0M3,3L6,3L6,6L3,6L3,3M9,3L12,3L12,6L9,6L9,3"></path>
 <path fill="black" d="M0,6L3,6L3,9L0,9L0,6M6,6L9,6L9,9L6,9L6,6M3,9L6,9L6,12L3,12L3,9M9,9L12,9L12,12L9,12L9,9"></path>
 </pattern>
 <pattern y="0" x="0" height="12" width="12" patternUnits="userSpaceOnUse" id="cp8pattern">
 <rect class="cp8color" height="12" width="12" y="0" x="0"></rect>
 <path fill="white" d="M0,0L3,0L3,3L0,3L0,0M6,0L9,0L9,3L6,3L6,0M3,3L6,3L6,6L3,6L3,3M9,3L12,3L12,6L9,6L9,3"></path>
 <path fill="white" d="M0,6L3,6L3,9L0,9L0,6M6,6L9,6L9,9L6,9L6,6M3,9L6,9L6,12L3,12L3,9M9,9L12,9L12,12L9,12L9,9"></path>
 </pattern>
 <pattern y="0" x="0" height="12" width="12" patternUnits="userSpaceOnUse" id="cp9pattern">
 <rect class="cp9color" height="12" width="12" y="0" x="0"></rect>
 <path fill="black" d="M0,0L3,0L3,3L0,3L0,0M6,0L9,0L9,3L6,3L6,0M3,3L6,3L6,6L3,6L3,3M9,3L12,3L12,6L9,6L9,3"></path>
 <path fill="black" d="M0,6L3,6L3,9L0,9L0,6M6,6L9,6L9,9L6,9L6,6M3,9L6,9L6,12L3,12L3,9M9,9L12,9L12,12L9,12L9,9"></path>
 </pattern>
 </defs>
 <rect height="100%" width="100%" y="0" x="0" class="grass" id="mainfill"></rect>
 <g id="paths"><path d="M1104,12L1104,12L1272,12L1272,24L1260,24L1260,36L1248,36L1248,48L1236,48L1236,60L1224,60L1224,96L1212,96L1212,108L1236,108L1236,84L1248,84L1248,60L1260,60L1260,48L1284,48L1284,36L1320,36L1320,48L1344,48L1344,72L1356,72L1356,84L1380,84L1380,96L1404,96L1404,132L1392,132L1392,144L1380,144L1380,156L1368,156L1368,168L1356,168L1356,180L1344,180L1344,192L1332,192L1332,204L1320,204L1320,216L1296,216L1296,228L1272,228L1272,240L1248,240L1248,252L1212,252L1212,264L1164,264L1164,276L1116,276L1116,288L1008,288L1008,300L840,300L840,288L756,288L756,276L720,276L720,264L672,264L672,276L660,276L660,288L612,288L612,300L600,300L600,312L528,312L528,300L504,300L504,288L456,288L456,276L252,276L252,288L216,288L216,300L204,300L204,312L192,312L192,324L180,324L180,336L168,336L168,360L228,360L228,444L216,444L216,456L168,456L168,564L180,564L180,600L168,600L168,612L72,612L72,600L48,600L48,588L36,588L36,576L24,576L24,564L12,564L12,552L24,552L24,540L36,540L36,528L48,528L48,396L36,396L36,312L48,312L48,252L60,252L60,204L72,204L72,168L84,168L84,144L96,144L96,120L108,120L108,108L120,108L120,84L132,84L132,72L144,72L144,60L192,60L192,72L216,72L216,84L276,84L276,96L324,96L324,108L444,108L444,120L756,120L756,132L840,132L840,144L1068,144L1068,132L1080,132L1080,120L1092,120L1092,108L1080,108L1080,96L1068,96L1068,84L1056,84L1056,72L1044,72L1044,60L1032,60L1032,48L1044,48L1044,36L1068,36L1068,24L1104,24L1104,12M1128,36L1128,36L1116,36L1116,48L1068,48L1068,60L1080,60L1080,72L1092,72L1092,84L1104,84L1104,96L1116,96L1116,108L1128,108L1128,132L1116,132L1116,144L1104,144L1104,156L1068,156L1068,168L1020,168L1020,180L816,180L816,168L756,168L756,156L492,156L492,144L372,144L372,132L312,132L312,120L264,120L264,108L216,108L216,96L168,96L168,108L144,108L144,120L132,120L132,144L120,144L120,168L108,168L108,204L96,204L96,252L84,252L84,312L72,312L72,360L84,360L84,372L96,372L96,564L108,564L108,576L120,576L120,588L144,588L144,564L132,564L132,432L192,432L192,384L144,384L144,372L132,372L132,336L144,336L144,324L156,324L156,312L168,312L168,300L180,300L180,288L204,288L204,276L240,276L240,264L276,264L276,252L312,252L312,240L432,240L432,252L468,252L468,264L492,264L492,276L624,276L624,264L540,264L540,228L684,228L684,240L720,240L720,252L780,252L780,264L1116,264L1116,252L1152,252L1152,240L1200,240L1200,228L1236,228L1236,216L1260,216L1260,204L1284,204L1284,192L1296,192L1296,180L1320,180L1320,168L1332,168L1332,156L1344,156L1344,144L1356,144L1356,132L1368,132L1368,108L1356,108L1356,96L1332,96L1332,84L1320,84L1320,72L1308,72L1308,60L1272,60L1272,72L1260,72L1260,96L1248,96L1248,120L1200,120L1200,84L1212,84L1212,48L1224,48L1224,36L1128,36M156,84L156,84L144,84L144,96L156,96L156,84M312,336L312,336L336,336L336,348L348,348L348,360L336,360L336,432L312,432L312,336M396,336L396,336L420,336L420,432L396,432L396,360L384,360L384,348L396,348L396,336M456,336L456,336L504,336L504,348L516,348L516,420L504,420L504,432L456,432L456,420L444,420L444,348L456,348L456,336M480,348L480,348L468,348L468,420L492,420L492,348L480,348M540,336L540,336L564,336L564,348L576,348L576,360L588,360L588,372L600,372L600,384L612,384L612,396L624,396L624,336L648,336L648,432L624,432L624,420L612,420L612,408L600,408L600,396L588,396L588,384L576,384L576,372L564,372L564,432L540,432L540,336M684,336L684,336L732,336L732,348L744,348L744,432L720,432L720,384L696,384L696,432L672,432L672,348L684,348L684,336M708,348L708,348L696,348L696,372L720,372L720,348L708,348M780,336L780,336L828,336L828,348L792,348L792,420L828,420L828,432L780,432L780,420L768,420L768,348L780,348L780,336M864,336L864,336L912,336L912,348L924,348L924,420L912,420L912,432L864,432L864,420L852,420L852,348L864,348L864,336M888,348L888,348L876,348L876,420L900,420L900,348L888,348M1008,336L1008,336L1068,336L1068,348L1032,348L1032,372L1068,372L1068,384L1032,384L1032,432L1008,432L1008,336M1116,336L1116,336L1152,336L1152,432L1128,432L1128,348L1116,348L1116,336M1116,348L1116,348L1116,372L1092,372L1092,360L1104,360L1104,348L1116,348M348,360L348,360L384,360L384,372L372,372L372,384L360,384L360,372L348,372L348,360M84,384L84,384L72,384L72,528L60,528L60,540L48,540L48,552L36,552L36,564L48,564L48,576L60,576L60,588L96,588L96,576L84,576L84,384M324,504L324,504L336,504L336,540L348,540L348,528L360,528L360,516L372,516L372,504L384,504L384,516L372,516L372,528L360,528L360,540L348,540L348,552L336,552L336,588L324,588L324,504M432,504L432,504L444,504L444,576L432,576L432,504M456,504L456,504L468,504L468,576L456,576L456,504M492,504L492,504L504,504L504,576L492,576L492,504M516,504L516,504L564,504L564,516L528,516L528,540L564,540L564,552L528,552L528,576L564,576L564,588L516,588L516,504M576,504L576,504L612,504L612,516L588,516L588,540L612,540L612,516L624,516L624,540L612,540L612,552L588,552L588,588L576,588L576,504M648,504L648,504L684,504L684,516L648,516L648,504M648,516L648,516L648,576L636,576L636,516L648,516M708,504L708,504L756,504L756,516L720,516L720,540L756,540L756,552L720,552L720,576L756,576L756,588L708,588L708,504M780,504L780,504L816,504L816,516L780,516L780,504M780,516L780,516L780,540L768,540L768,516L780,516M780,540L780,540L804,540L804,552L780,552L780,540M348,552L348,552L360,552L360,564L348,564L348,552M612,552L612,552L624,552L624,588L612,588L612,552M672,540L672,540L696,540L696,576L684,576L684,552L672,552L672,540M804,552L804,552L816,552L816,576L804,576L804,552M360,564L360,564L372,564L372,576L360,576L360,564M372,576L372,576L384,576L384,588L372,588L372,576M396,564L396,564L408,564L408,576L396,576L396,564M408,576L408,576L432,576L432,588L408,588L408,576M468,576L468,576L492,576L492,588L468,588L468,576M648,576L648,576L684,576L684,588L648,588L648,576M804,576L804,576L804,588L768,588L768,576Z" class="road"></path><path d="M528,120L528,120L552,120L552,156L528,156Z" class="cp1"></path><path d="M1176,12L1176,12L1200,12L1200,36L1176,36Z" class="cp2"></path><path d="M1212,108L1212,108L1236,108L1236,120L1212,120Z" class="cp3"></path><path d="M1356,132L1356,132L1392,132L1392,144L1380,144L1380,156L1368,156L1368,168L1356,168L1356,180L1344,180L1344,192L1332,192L1332,204L1320,204L1320,216L1296,216L1296,228L1272,228L1272,240L1248,240L1248,252L1152,252L1152,240L1200,240L1200,228L1236,228L1236,216L1260,216L1260,204L1284,204L1284,192L1296,192L1296,180L1320,180L1320,168L1332,168L1332,156L1344,156L1344,144L1356,144Z" class="cp4"></path><path d="M360,240L360,240L384,240L384,276L360,276Z" class="cp5"></path><path d="M192,396L192,396L228,396L228,408L192,408Z" class="cp6"></path><path d="M312,336L312,336L336,336L336,348L348,348L348,360L336,360L336,432L312,432L312,336M396,336L396,336L420,336L420,432L396,432L396,360L384,360L384,348L396,348L396,336M456,336L456,336L504,336L504,348L516,348L516,420L504,420L504,432L456,432L456,420L444,420L444,348L456,348L456,336M480,348L480,348L468,348L468,420L492,420L492,348L480,348M540,336L540,336L564,336L564,348L576,348L576,360L588,360L588,372L600,372L600,384L612,384L612,396L624,396L624,336L648,336L648,432L624,432L624,420L612,420L612,408L600,408L600,396L588,396L588,384L576,384L576,372L564,372L564,432L540,432L540,336M684,336L684,336L732,336L732,348L744,348L744,432L720,432L720,384L696,384L696,432L672,432L672,348L684,348L684,336M708,348L708,348L696,348L696,372L720,372L720,348L708,348M780,336L780,336L828,336L828,348L792,348L792,420L828,420L828,432L780,432L780,420L768,420L768,348L780,348L780,336M864,336L864,336L912,336L912,348L924,348L924,420L912,420L912,432L864,432L864,420L852,420L852,348L864,348L864,336M888,348L888,348L876,348L876,420L900,420L900,348L888,348M1008,336L1008,336L1068,336L1068,348L1032,348L1032,372L1068,372L1068,384L1032,384L1032,432L1008,432L1008,336M1116,336L1116,336L1152,336L1152,432L1128,432L1128,348L1116,348L1116,336M1116,348L1116,348L1116,372L1092,372L1092,360L1104,360L1104,348L1116,348M348,360L348,360L384,360L384,372L372,372L372,384L360,384L360,372L348,372L348,360M132,480L132,480L168,480L168,492L132,492Z" class="cp7"></path><path d="M324,504L324,504L336,504L336,540L348,540L348,528L360,528L360,516L372,516L372,504L384,504L384,516L372,516L372,528L360,528L360,540L348,540L348,552L336,552L336,588L324,588L324,504M432,504L432,504L444,504L444,576L432,576L432,504M456,504L456,504L468,504L468,576L456,576L456,504M492,504L492,504L504,504L504,576L492,576L492,504M516,504L516,504L564,504L564,516L528,516L528,540L564,540L564,552L528,552L528,576L564,576L564,588L516,588L516,504M576,504L576,504L612,504L612,516L588,516L588,540L612,540L612,516L624,516L624,540L612,540L612,552L588,552L588,588L576,588L576,504M648,504L648,504L684,504L684,516L648,516L648,504M648,516L648,516L648,576L636,576L636,516L648,516M708,504L708,504L756,504L756,516L720,516L720,540L756,540L756,552L720,552L720,576L756,576L756,588L708,588L708,504M780,504L780,504L816,504L816,516L780,516L780,504M780,516L780,516L780,540L768,540L768,516L780,516M780,540L780,540L804,540L804,552L780,552L780,540M348,552L348,552L360,552L360,564L348,564L348,552M612,552L612,552L624,552L624,588L612,588L612,552M672,540L672,540L696,540L696,576L684,576L684,552L672,552L672,540M804,552L804,552L816,552L816,576L804,576L804,552M360,564L360,564L372,564L372,576L360,576L360,564M372,576L372,576L384,576L384,588L372,588L372,576M396,564L396,564L408,564L408,576L396,576L396,564M408,576L408,576L432,576L432,588L408,588L408,576M468,576L468,576L492,576L492,588L468,588L468,576M648,576L648,576L684,576L684,588L648,588L648,576M804,576L804,576L804,588L768,588L768,576L804,576M120,588L120,588L144,588L144,612L120,612Z" class="cp8"></path><path d="M12,12L12,12L24,12L24,84L12,84Z" class="parc"></path><path d="M36,312L36,312L48,312L48,324L36,324L36,312M48,324L48,324L60,324L60,312L72,312L72,324L60,324L60,336L48,336L48,324M60,336L60,336L72,336L72,348L60,348L60,336M48,336L48,336L48,348L36,348L36,336Z" class="start"></path><path d="M36,348L36,348L72,348L72,360L84,360L84,372L36,372Z" class="finish"></path></g>
 <rect opacity=".3" fill="url(#grid)" height="100%" width="100%" y="0" x="0"></rect>
</svg>