<svg xmlns:xlink="http://www.w3.org/1999/xlink" xmlns="http://www.w3.org/2000/svg" height="876" width="432" id="mapSvgView" version="1.1" style="width: 432px; height: 876px;" viewBox="0 0 432 876">
 <defs>
 <pattern y="0" x="0" height="24" width="24" patternUnits="userSpaceOnUse" id="grassPattern">
 <rect class="grasscolor" height="24" width="24" y="0" x="0"></rect>
 <rect class="grassspeclecolor" height="1" width="1" x="1" y="5"></rect>
 <rect class="grassspeclecolor" height="1" width="1" x="1" y="5"></rect>
 <rect class="grassspeclecolor" height="1" width="1" x="3" y="5"></rect>
 <rect class="grassspeclecolor" height="1" width="1" x="6" y="7"></rect>
 <rect class="grassspeclecolor" height="1" width="1" x="6" y="17"></rect>
 <rect class="grassspeclecolor" height="1" width="1" x="8" y="21"></rect>
 <rect class="grassspeclecolor" height="1" width="1" x="9" y="2"></rect>
 <rect class="grassspeclecolor" height="1" width="1" x="12" y="4"></rect>
 <rect class="grassspeclecolor" height="1" width="1" x="13" y="15"></rect>
 <rect class="grassspeclecolor" height="1" width="1" x="14" y="4"></rect>
 <rect class="grassspeclecolor" height="1" width="1" x="14" y="19"></rect>
 <rect class="grassspeclecolor" height="1" width="1" x="17" y="7"></rect>
 <rect class="grassspeclecolor" height="1" width="1" x="17" y="12"></rect>
 <rect class="grassspeclecolor" height="1" width="1" x="18" y="23"></rect>
 <rect class="grassspeclecolor" height="1" width="1" x="21" y="16"></rect>
 <rect class="grassspeclecolor" height="1" width="1" x="23" y="12"></rect>
 </pattern>
 <pattern y="0" x="0" height="24" width="24" patternUnits="userSpaceOnUse" id="roadPattern">
 <rect class="roadcolor" height="24" width="24" y="0" x="0"></rect>
 <rect class="roadspeclecolor" height="1" width="1" x="1" y="5"></rect>
 <rect class="roadspeclecolor" height="1" width="1" x="1" y="5"></rect>
 <rect class="roadspeclecolor" height="1" width="1" x="3" y="5"></rect>
 <rect class="roadspeclecolor" height="1" width="1" x="6" y="7"></rect>
 <rect class="roadspeclecolor" height="1" width="1" x="6" y="17"></rect>
 <rect class="roadspeclecolor" height="1" width="1" x="8" y="21"></rect>
 <rect class="roadspeclecolor" height="1" width="1" x="9" y="2"></rect>
 <rect class="roadspeclecolor" height="1" width="1" x="12" y="4"></rect>
 <rect class="roadspeclecolor" height="1" width="1" x="13" y="15"></rect>
 <rect class="roadspeclecolor" height="1" width="1" x="14" y="4"></rect>
 <rect class="roadspeclecolor" height="1" width="1" x="14" y="19"></rect>
 <rect class="roadspeclecolor" height="1" width="1" x="17" y="7"></rect>
 <rect class="roadspeclecolor" height="1" width="1" x="17" y="12"></rect>
 <rect class="roadspeclecolor" height="1" width="1" x="18" y="23"></rect>
 <rect class="roadspeclecolor" height="1" width="1" x="21" y="16"></rect>
 <rect class="roadspeclecolor" height="1" width="1" x="23" y="12"></rect>
 </pattern>
 <pattern y="0" x="0" height="12" width="12" patternUnits="userSpaceOnUse" id="grid">
 <line stroke-width="1" stroke="black" y2="12" x2="12" y1="0" x1="12"></line>
 <line stroke-width="1" stroke="black" y2="12" x2="12" y1="12" x1="0"></line>
 </pattern>
 <pattern y="0" x="0" height="12" width="12" patternUnits="userSpaceOnUse" id="finishPattern">
 <rect fill="black" height="12" width="12" y="0" x="0"></rect>
 <path fill="white" d="M0,0L3,0L3,3L0,3L0,0M6,0L9,0L9,3L6,3L6,0M3,3L6,3L6,6L3,6L3,3M9,3L12,3L12,6L9,6L9,3"></path>
 <path fill="white" d="M0,6L3,6L3,9L0,9L0,6M6,6L9,6L9,9L6,9L6,6M3,9L6,9L6,12L3,12L3,9M9,9L12,9L12,12L9,12L9,9"></path>
 </pattern>
 <pattern y="0" x="0" height="12" width="12" patternUnits="userSpaceOnUse" id="startPattern">
 <rect fill="rgb(100,100,100)" height="12" width="12" y="0" x="0"></rect>
 <rect stroke-width="1" stroke="rgb(200,200,200)" fill="none" height="5" width="5" y="3.5" x="3.5"></rect>
 </pattern>
 <pattern y="0" x="0" height="12" width="12" patternUnits="userSpaceOnUse" id="cp1pattern">
 <rect class="cp1color" height="12" width="12" y="0" x="0"></rect>
 <path fill="black" d="M0,0L3,0L3,3L0,3L0,0M6,0L9,0L9,3L6,3L6,0M3,3L6,3L6,6L3,6L3,3M9,3L12,3L12,6L9,6L9,3"></path>
 <path fill="black" d="M0,6L3,6L3,9L0,9L0,6M6,6L9,6L9,9L6,9L6,6M3,9L6,9L6,12L3,12L3,9M9,9L12,9L12,12L9,12L9,9"></path>
 </pattern>
 <pattern y="0" x="0" height="12" width="12" patternUnits="userSpaceOnUse" id="cp2pattern">
 <rect class="cp2color" height="12" width="12" y="0" x="0"></rect>
 <path fill="white" d="M0,0L3,0L3,3L0,3L0,0M6,0L9,0L9,3L6,3L6,0M3,3L6,3L6,6L3,6L3,3M9,3L12,3L12,6L9,6L9,3"></path>
 <path fill="white" d="M0,6L3,6L3,9L0,9L0,6M6,6L9,6L9,9L6,9L6,6M3,9L6,9L6,12L3,12L3,9M9,9L12,9L12,12L9,12L9,9"></path>
 </pattern>
 <pattern y="0" x="0" height="12" width="12" patternUnits="userSpaceOnUse" id="cp3pattern">
 <rect class="cp3color" height="12" width="12" y="0" x="0"></rect>
 <path fill="black" d="M0,0L3,0L3,3L0,3L0,0M6,0L9,0L9,3L6,3L6,0M3,3L6,3L6,6L3,6L3,3M9,3L12,3L12,6L9,6L9,3"></path>
 <path fill="black" d="M0,6L3,6L3,9L0,9L0,6M6,6L9,6L9,9L6,9L6,6M3,9L6,9L6,12L3,12L3,9M9,9L12,9L12,12L9,12L9,9"></path>
 </pattern>
 <pattern y="0" x="0" height="12" width="12" patternUnits="userSpaceOnUse" id="cp4pattern">
 <rect class="cp4color" height="12" width="12" y="0" x="0"></rect>
 <path fill="white" d="M0,0L3,0L3,3L0,3L0,0M6,0L9,0L9,3L6,3L6,0M3,3L6,3L6,6L3,6L3,3M9,3L12,3L12,6L9,6L9,3"></path>
 <path fill="white" d="M0,6L3,6L3,9L0,9L0,6M6,6L9,6L9,9L6,9L6,6M3,9L6,9L6,12L3,12L3,9M9,9L12,9L12,12L9,12L9,9"></path>
 </pattern>
 <pattern y="0" x="0" height="12" width="12" patternUnits="userSpaceOnUse" id="cp5pattern">
 <rect class="cp5color" height="12" width="12" y="0" x="0"></rect>
 <path fill="black" d="M0,0L3,0L3,3L0,3L0,0M6,0L9,0L9,3L6,3L6,0M3,3L6,3L6,6L3,6L3,3M9,3L12,3L12,6L9,6L9,3"></path>
 <path fill="black" d="M0,6L3,6L3,9L0,9L0,6M6,6L9,6L9,9L6,9L6,6M3,9L6,9L6,12L3,12L3,9M9,9L12,9L12,12L9,12L9,9"></path>
 </pattern>
 <pattern y="0" x="0" height="12" width="12" patternUnits="userSpaceOnUse" id="cp6pattern">
 <rect class="cp6color" height="12" width="12" y="0" x="0"></rect>
 <path fill="white" d="M0,0L3,0L3,3L0,3L0,0M6,0L9,0L9,3L6,3L6,0M3,3L6,3L6,6L3,6L3,3M9,3L12,3L12,6L9,6L9,3"></path>
 <path fill="white" d="M0,6L3,6L3,9L0,9L0,6M6,6L9,6L9,9L6,9L6,6M3,9L6,9L6,12L3,12L3,9M9,9L12,9L12,12L9,12L9,9"></path>
 </pattern>
 <pattern y="0" x="0" height="12" width="12" patternUnits="userSpaceOnUse" id="cp7pattern">
 <rect class="cp7color" height="12" width="12" y="0" x="0"></rect>
 <path fill="black" d="M0,0L3,0L3,3L0,3L0,0M6,0L9,0L9,3L6,3L6,0M3,3L6,3L6,6L3,6L3,3M9,3L12,3L12,6L9,6L9,3"></path>
 <path fill="black" d="M0,6L3,6L3,9L0,9L0,6M6,6L9,6L9,9L6,9L6,6M3,9L6,9L6,12L3,12L3,9M9,9L12,9L12,12L9,12L9,9"></path>
 </pattern>
 <pattern y="0" x="0" height="12" width="12" patternUnits="userSpaceOnUse" id="cp8pattern">
 <rect class="cp8color" height="12" width="12" y="0" x="0"></rect>
 <path fill="white" d="M0,0L3,0L3,3L0,3L0,0M6,0L9,0L9,3L6,3L6,0M3,3L6,3L6,6L3,6L3,3M9,3L12,3L12,6L9,6L9,3"></path>
 <path fill="white" d="M0,6L3,6L3,9L0,9L0,6M6,6L9,6L9,9L6,9L6,6M3,9L6,9L6,12L3,12L3,9M9,9L12,9L12,12L9,12L9,9"></path>
 </pattern>
 <pattern y="0" x="0" height="12" width="12" patternUnits="userSpaceOnUse" id="cp9pattern">
 <rect class="cp9color" height="12" width="12" y="0" x="0"></rect>
 <path fill="black" d="M0,0L3,0L3,3L0,3L0,0M6,0L9,0L9,3L6,3L6,0M3,3L6,3L6,6L3,6L3,3M9,3L12,3L12,6L9,6L9,3"></path>
 <path fill="black" d="M0,6L3,6L3,9L0,9L0,6M6,6L9,6L9,9L6,9L6,6M3,9L6,9L6,12L3,12L3,9M9,9L12,9L12,12L9,12L9,9"></path>
 </pattern>
 </defs>
 <rect height="100%" width="100%" y="0" x="0" class="grass" id="mainfill"></rect>
 <g id="paths"><path d="M84,12L84,12L156,12L156,24L180,24L180,36L192,36L192,72L204,72L204,60L216,60L216,48L228,48L228,36L240,36L240,24L252,24L252,12L372,12L372,24L384,24L384,48L396,48L396,60L408,60L408,72L420,72L420,168L408,168L408,180L396,180L396,192L384,192L384,204L372,204L372,216L312,216L312,204L288,204L288,192L252,192L252,216L204,216L204,204L156,204L156,216L72,216L72,204L36,204L36,192L24,192L24,180L12,180L12,144L24,144L24,132L36,132L36,120L72,120L72,108L84,108L84,96L72,96L72,84L60,84L60,60L48,60L48,36L60,36L60,24L84,24L84,12M132,36L132,36L120,36L120,48L96,48L96,72L108,72L108,84L132,84L132,108L120,108L120,120L96,120L96,132L84,132L84,144L72,144L72,156L48,156L48,168L60,168L60,180L132,180L132,132L156,132L156,180L240,180L240,168L264,168L264,156L276,156L276,144L288,144L288,132L324,132L324,144L348,144L348,156L384,156L384,108L372,108L372,96L360,96L360,72L348,72L348,60L324,60L324,48L264,48L264,72L252,72L252,84L228,84L228,96L180,96L180,84L156,84L156,72L144,72L144,48L132,48L132,36M336,36L336,36L324,36L324,48L348,48L348,36L336,36M360,48L360,48L348,48L348,60L360,60L360,48M372,60L372,60L360,60L360,72L372,72L372,60M240,108L240,108L252,108L252,156L240,156L240,108M216,120L216,120L228,120L228,156L216,156L216,120M192,132L192,132L204,132L204,156L192,156L192,132M168,144L168,144L180,144L180,156L168,156L168,144M300,168L300,168L288,168L288,180L300,180L300,192L336,192L336,204L348,204L348,180L360,180L360,168L300,168M60,228L60,228L180,228L180,240L192,240L192,252L204,252L204,264L216,264L216,276L228,276L228,288L240,288L240,252L252,252L252,240L276,240L276,228L348,228L348,240L372,240L372,252L384,252L384,276L372,276L372,300L360,300L360,312L348,312L348,324L360,324L360,336L396,336L396,348L408,348L408,360L420,360L420,396L408,396L408,408L396,408L396,420L360,420L360,432L276,432L276,420L228,420L228,432L180,432L180,408L144,408L144,420L120,420L120,432L60,432L60,420L48,420L48,408L36,408L36,396L24,396L24,384L12,384L12,288L24,288L24,276L36,276L36,264L48,264L48,240L60,240L60,228M96,252L96,252L84,252L84,264L72,264L72,276L60,276L60,288L72,288L72,276L84,276L84,264L108,264L108,252L96,252M312,252L312,252L300,252L300,264L288,264L288,288L276,288L276,300L252,300L252,312L204,312L204,300L180,300L180,288L168,288L168,264L108,264L108,276L84,276L84,288L72,288L72,312L60,312L60,324L48,324L48,372L84,372L84,360L108,360L108,348L144,348L144,360L156,360L156,372L168,372L168,384L192,384L192,396L276,396L276,348L300,348L300,396L372,396L372,384L384,384L384,372L360,372L360,360L348,360L348,348L336,348L336,336L312,336L312,324L300,324L300,300L324,300L324,288L336,288L336,264L312,264L312,252M204,324L204,324L216,324L216,372L204,372L204,324M180,336L180,336L192,336L192,372L180,372L180,336M228,348L228,348L240,348L240,372L228,372L228,348M252,360L252,360L264,360L264,372L252,372L252,360M84,384L84,384L72,384L72,396L84,396L84,420L96,420L96,408L132,408L132,396L144,396L144,384L84,384M72,444L72,444L156,444L156,456L204,456L204,444L252,444L252,468L288,468L288,456L312,456L312,444L372,444L372,456L384,456L384,468L396,468L396,480L408,480L408,492L420,492L420,588L408,588L408,600L396,600L396,612L384,612L384,636L372,636L372,648L252,648L252,636L240,636L240,624L228,624L228,612L216,612L216,600L204,600L204,588L192,588L192,624L180,624L180,636L156,636L156,648L84,648L84,636L60,636L60,624L48,624L48,600L60,600L60,576L72,576L72,564L84,564L84,552L72,552L72,540L36,540L36,528L24,528L24,516L12,516L12,480L24,480L24,468L36,468L36,456L72,456L72,444M348,456L348,456L336,456L336,468L300,468L300,480L288,480L288,492L360,492L360,480L348,480L348,456M72,480L72,480L60,480L60,492L48,492L48,504L72,504L72,516L84,516L84,528L96,528L96,540L120,540L120,552L132,552L132,576L108,576L108,588L96,588L96,612L120,612L120,624L132,624L132,612L144,612L144,588L156,588L156,576L180,576L180,564L228,564L228,576L252,576L252,588L264,588L264,612L324,612L324,600L348,600L348,588L360,588L360,564L372,564L372,552L384,552L384,504L348,504L348,516L324,516L324,528L288,528L288,516L276,516L276,504L264,504L264,492L240,492L240,480L156,480L156,528L132,528L132,480L72,480M168,504L168,504L180,504L180,516L168,516L168,504M192,504L192,504L204,504L204,552L192,552L192,504M216,504L216,504L228,504L228,540L216,540L216,504M240,504L240,504L252,504L252,528L240,528L240,504M372,588L372,588L360,588L360,600L348,600L348,612L324,612L324,624L348,624L348,612L360,612L360,600L372,600L372,588M60,660L60,660L144,660L144,684L180,684L180,660L228,660L228,672L276,672L276,660L384,660L384,684L408,684L408,696L420,696L420,732L408,732L408,744L396,744L396,756L360,756L360,768L348,768L348,780L360,780L360,792L372,792L372,816L384,816L384,840L372,840L372,852L360,852L360,864L252,864L252,840L240,840L240,804L228,804L228,816L216,816L216,828L204,828L204,840L192,840L192,864L60,864L60,852L48,852L48,828L36,828L36,816L24,816L24,804L12,804L12,708L24,708L24,696L36,696L36,684L48,684L48,672L60,672L60,660M96,672L96,672L84,672L84,696L72,696L72,708L144,708L144,696L132,696L132,684L96,684L96,672M204,696L204,696L192,696L192,708L168,708L168,720L156,720L156,732L144,732L144,744L108,744L108,732L84,732L84,720L48,720L48,768L60,768L60,780L72,780L72,804L60,804L60,816L72,816L72,804L84,804L84,816L72,816L72,828L84,828L84,816L108,816L108,828L84,828L84,840L108,840L108,828L168,828L168,804L180,804L180,792L204,792L204,780L252,780L252,792L276,792L276,804L288,804L288,828L300,828L300,840L312,840L312,828L336,828L336,804L324,804L324,792L300,792L300,768L312,768L312,756L336,756L336,744L348,744L348,732L360,732L360,720L384,720L384,708L372,708L372,696L300,696L300,744L276,744L276,696L204,696M180,720L180,720L192,720L192,732L180,732L180,720M204,720L204,720L216,720L216,744L204,744L204,720M228,720L228,720L240,720L240,756L228,756L228,720M252,720L252,720L264,720L264,768L252,768Z" class="road"></path><path d="M384,144L384,144L420,144L420,156L384,156L384,144M12,360L12,360L48,360L48,372L12,372L12,360M384,504L384,504L420,504L420,516L384,516L384,504M12,720L12,720L48,720L48,732L12,732Z" class="cp1"></path><path d="M120,12L120,12L132,12L132,36L120,36L120,12M300,228L300,228L312,228L312,252L300,252L300,228M120,624L120,624L132,624L132,648L120,648L120,624M300,840L300,840L312,840L312,864L300,864Z" class="cp2"></path><path d="M0,0L0,0L12,0L12,48L0,48Z" class="parc"></path><path d="M132,132L132,132L156,132L156,144L132,144L132,132M276,348L276,348L300,348L300,360L276,360L276,348M132,516L132,516L156,516L156,528L132,528L132,516M276,732L276,732L300,732L300,744L276,744Z" class="finish"></path><path d="M132,192L132,192L144,192L144,204L132,204L132,192M288,408L288,408L300,408L300,420L288,420L288,408M132,456L132,456L144,456L144,468L132,468L132,456M288,672L288,672L300,672L300,684L288,684Z" class="start"></path></g>
 <rect opacity=".3" fill="url(#grid)" height="100%" width="100%" y="0" x="0"></rect>
</svg>