<svg xmlns="http://www.w3.org/2000/svg" xmlns:xlink="http://www.w3.org/1999/xlink" version="1.1" id="mapSvgView" width="360" height="360"> <rect id="mainfill" class="grass" x="0" y="0" width="100%" height="100%"></rect> <g id="paths"><path d="M156,180L156,180L192,180L192,204L180,204L180,216L156,216Z" class="cp1"></path><path d="M132,240L132,240L144,240L144,252L156,252L156,264L132,264L132,276L120,276L120,264L108,264L108,252L132,252Z" class="cp2"></path><path d="M60,288L60,288L84,288L84,300L96,300L96,324L84,324L84,312L72,312L72,300L60,300Z" class="cp3"></path><path d="M288,48L288,48L300,48L300,72L288,72Z" class="cp4"></path><path d="M24,12L24,12L72,12L72,36L48,36L48,48L60,48L60,72L72,72L72,84L84,84L84,96L96,96L96,108L108,108L108,120L120,120L120,132L132,132L132,144L144,144L144,156L156,156L156,168L144,168L144,180L132,180L132,192L120,192L120,204L108,204L108,216L120,216L120,228L132,228L132,252L96,252L96,240L84,240L84,276L96,276L96,288L108,288L108,300L120,300L120,312L156,312L156,300L144,300L144,288L132,288L132,264L168,264L168,276L180,276L180,288L192,288L192,300L216,300L216,288L240,288L240,276L216,276L216,264L204,264L204,252L192,252L192,240L180,240L180,228L168,228L168,216L180,216L180,204L192,204L192,192L204,192L204,204L216,204L216,216L228,216L228,228L240,228L240,240L252,240L252,264L264,264L264,240L276,240L276,228L288,228L288,216L300,216L300,204L312,204L312,84L300,84L300,48L336,48L336,60L348,60L348,228L336,228L336,240L324,240L324,252L312,252L312,264L300,264L300,276L288,276L288,288L276,288L276,300L264,300L264,312L252,312L252,324L240,324L240,336L96,336L96,300L84,300L84,288L48,288L48,204L60,204L60,192L72,192L72,180L84,180L84,168L96,168L96,144L84,144L84,132L72,132L72,120L60,120L60,108L48,108L48,96L36,96L36,84L24,84L24,12M84,12L84,12L300,12L300,36L156,36L156,48L168,48L168,60L180,60L180,72L192,72L192,84L204,84L204,96L216,96L216,108L228,108L228,144L240,144L240,60L252,60L252,48L288,48L288,84L276,84L276,132L264,132L264,156L252,156L252,168L216,168L216,156L204,156L204,132L192,132L192,120L180,120L180,108L168,108L168,96L156,96L156,84L144,84L144,72L132,72L132,60L84,60L84,12M336,300L336,300L348,300L348,348L336,348L336,300M312,312L312,312L324,312L324,348L312,348L312,312M288,324L288,324L300,324L300,348L288,348L288,324M264,336L264,336L276,336L276,348L264,348Z" class="road"></path><path d="M72,12L72,12L84,12L84,60L72,60Z" class="start"></path><path d="M300,12L300,12L312,12L312,36L300,36Z" class="finish"></path></g></svg>