<svg xmlns:xlink="http://www.w3.org/1999/xlink" xmlns="http://www.w3.org/2000/svg" height="372" width="372" id="mapSvgView" version="1.1" style="width: 372px; height: 372px;" viewBox="0 0 372 372">
 <defs>
 <pattern y="0" x="0" height="24" width="24" patternUnits="userSpaceOnUse" id="grassPattern">
 <rect class="grasscolor" height="24" width="24" y="0" x="0"></rect>
 <rect class="grassspeclecolor" height="1" width="1" x="1" y="5"></rect>
 <rect class="grassspeclecolor" height="1" width="1" x="1" y="5"></rect>
 <rect class="grassspeclecolor" height="1" width="1" x="3" y="5"></rect>
 <rect class="grassspeclecolor" height="1" width="1" x="6" y="7"></rect>
 <rect class="grassspeclecolor" height="1" width="1" x="6" y="17"></rect>
 <rect class="grassspeclecolor" height="1" width="1" x="8" y="21"></rect>
 <rect class="grassspeclecolor" height="1" width="1" x="9" y="2"></rect>
 <rect class="grassspeclecolor" height="1" width="1" x="12" y="4"></rect>
 <rect class="grassspeclecolor" height="1" width="1" x="13" y="15"></rect>
 <rect class="grassspeclecolor" height="1" width="1" x="14" y="4"></rect>
 <rect class="grassspeclecolor" height="1" width="1" x="14" y="19"></rect>
 <rect class="grassspeclecolor" height="1" width="1" x="17" y="7"></rect>
 <rect class="grassspeclecolor" height="1" width="1" x="17" y="12"></rect>
 <rect class="grassspeclecolor" height="1" width="1" x="18" y="23"></rect>
 <rect class="grassspeclecolor" height="1" width="1" x="21" y="16"></rect>
 <rect class="grassspeclecolor" height="1" width="1" x="23" y="12"></rect>
 </pattern>
 <pattern y="0" x="0" height="24" width="24" patternUnits="userSpaceOnUse" id="roadPattern">
 <rect class="roadcolor" height="24" width="24" y="0" x="0"></rect>
 <rect class="roadspeclecolor" height="1" width="1" x="1" y="5"></rect>
 <rect class="roadspeclecolor" height="1" width="1" x="1" y="5"></rect>
 <rect class="roadspeclecolor" height="1" width="1" x="3" y="5"></rect>
 <rect class="roadspeclecolor" height="1" width="1" x="6" y="7"></rect>
 <rect class="roadspeclecolor" height="1" width="1" x="6" y="17"></rect>
 <rect class="roadspeclecolor" height="1" width="1" x="8" y="21"></rect>
 <rect class="roadspeclecolor" height="1" width="1" x="9" y="2"></rect>
 <rect class="roadspeclecolor" height="1" width="1" x="12" y="4"></rect>
 <rect class="roadspeclecolor" height="1" width="1" x="13" y="15"></rect>
 <rect class="roadspeclecolor" height="1" width="1" x="14" y="4"></rect>
 <rect class="roadspeclecolor" height="1" width="1" x="14" y="19"></rect>
 <rect class="roadspeclecolor" height="1" width="1" x="17" y="7"></rect>
 <rect class="roadspeclecolor" height="1" width="1" x="17" y="12"></rect>
 <rect class="roadspeclecolor" height="1" width="1" x="18" y="23"></rect>
 <rect class="roadspeclecolor" height="1" width="1" x="21" y="16"></rect>
 <rect class="roadspeclecolor" height="1" width="1" x="23" y="12"></rect>
 </pattern>
 <pattern y="0" x="0" height="12" width="12" patternUnits="userSpaceOnUse" id="grid">
 <line stroke-width="1" stroke="black" y2="12" x2="12" y1="0" x1="12"></line>
 <line stroke-width="1" stroke="black" y2="12" x2="12" y1="12" x1="0"></line>
 </pattern>
 <pattern y="0" x="0" height="12" width="12" patternUnits="userSpaceOnUse" id="finishPattern">
 <rect fill="black" height="12" width="12" y="0" x="0"></rect>
 <path fill="white" d="M0,0L3,0L3,3L0,3L0,0M6,0L9,0L9,3L6,3L6,0M3,3L6,3L6,6L3,6L3,3M9,3L12,3L12,6L9,6L9,3"></path>
 <path fill="white" d="M0,6L3,6L3,9L0,9L0,6M6,6L9,6L9,9L6,9L6,6M3,9L6,9L6,12L3,12L3,9M9,9L12,9L12,12L9,12L9,9"></path>
 </pattern>
 <pattern y="0" x="0" height="12" width="12" patternUnits="userSpaceOnUse" id="startPattern">
 <rect fill="rgb(100,100,100)" height="12" width="12" y="0" x="0"></rect>
 <rect stroke-width="1" stroke="rgb(200,200,200)" fill="none" height="5" width="5" y="3.5" x="3.5"></rect>
 </pattern>
 <pattern y="0" x="0" height="12" width="12" patternUnits="userSpaceOnUse" id="cp1pattern">
 <rect class="cp1color" height="12" width="12" y="0" x="0"></rect>
 <path fill="black" d="M0,0L3,0L3,3L0,3L0,0M6,0L9,0L9,3L6,3L6,0M3,3L6,3L6,6L3,6L3,3M9,3L12,3L12,6L9,6L9,3"></path>
 <path fill="black" d="M0,6L3,6L3,9L0,9L0,6M6,6L9,6L9,9L6,9L6,6M3,9L6,9L6,12L3,12L3,9M9,9L12,9L12,12L9,12L9,9"></path>
 </pattern>
 <pattern y="0" x="0" height="12" width="12" patternUnits="userSpaceOnUse" id="cp2pattern">
 <rect class="cp2color" height="12" width="12" y="0" x="0"></rect>
 <path fill="white" d="M0,0L3,0L3,3L0,3L0,0M6,0L9,0L9,3L6,3L6,0M3,3L6,3L6,6L3,6L3,3M9,3L12,3L12,6L9,6L9,3"></path>
 <path fill="white" d="M0,6L3,6L3,9L0,9L0,6M6,6L9,6L9,9L6,9L6,6M3,9L6,9L6,12L3,12L3,9M9,9L12,9L12,12L9,12L9,9"></path>
 </pattern>
 <pattern y="0" x="0" height="12" width="12" patternUnits="userSpaceOnUse" id="cp3pattern">
 <rect class="cp3color" height="12" width="12" y="0" x="0"></rect>
 <path fill="black" d="M0,0L3,0L3,3L0,3L0,0M6,0L9,0L9,3L6,3L6,0M3,3L6,3L6,6L3,6L3,3M9,3L12,3L12,6L9,6L9,3"></path>
 <path fill="black" d="M0,6L3,6L3,9L0,9L0,6M6,6L9,6L9,9L6,9L6,6M3,9L6,9L6,12L3,12L3,9M9,9L12,9L12,12L9,12L9,9"></path>
 </pattern>
 <pattern y="0" x="0" height="12" width="12" patternUnits="userSpaceOnUse" id="cp4pattern">
 <rect class="cp4color" height="12" width="12" y="0" x="0"></rect>
 <path fill="white" d="M0,0L3,0L3,3L0,3L0,0M6,0L9,0L9,3L6,3L6,0M3,3L6,3L6,6L3,6L3,3M9,3L12,3L12,6L9,6L9,3"></path>
 <path fill="white" d="M0,6L3,6L3,9L0,9L0,6M6,6L9,6L9,9L6,9L6,6M3,9L6,9L6,12L3,12L3,9M9,9L12,9L12,12L9,12L9,9"></path>
 </pattern>
 <pattern y="0" x="0" height="12" width="12" patternUnits="userSpaceOnUse" id="cp5pattern">
 <rect class="cp5color" height="12" width="12" y="0" x="0"></rect>
 <path fill="black" d="M0,0L3,0L3,3L0,3L0,0M6,0L9,0L9,3L6,3L6,0M3,3L6,3L6,6L3,6L3,3M9,3L12,3L12,6L9,6L9,3"></path>
 <path fill="black" d="M0,6L3,6L3,9L0,9L0,6M6,6L9,6L9,9L6,9L6,6M3,9L6,9L6,12L3,12L3,9M9,9L12,9L12,12L9,12L9,9"></path>
 </pattern>
 <pattern y="0" x="0" height="12" width="12" patternUnits="userSpaceOnUse" id="cp6pattern">
 <rect class="cp6color" height="12" width="12" y="0" x="0"></rect>
 <path fill="white" d="M0,0L3,0L3,3L0,3L0,0M6,0L9,0L9,3L6,3L6,0M3,3L6,3L6,6L3,6L3,3M9,3L12,3L12,6L9,6L9,3"></path>
 <path fill="white" d="M0,6L3,6L3,9L0,9L0,6M6,6L9,6L9,9L6,9L6,6M3,9L6,9L6,12L3,12L3,9M9,9L12,9L12,12L9,12L9,9"></path>
 </pattern>
 <pattern y="0" x="0" height="12" width="12" patternUnits="userSpaceOnUse" id="cp7pattern">
 <rect class="cp7color" height="12" width="12" y="0" x="0"></rect>
 <path fill="black" d="M0,0L3,0L3,3L0,3L0,0M6,0L9,0L9,3L6,3L6,0M3,3L6,3L6,6L3,6L3,3M9,3L12,3L12,6L9,6L9,3"></path>
 <path fill="black" d="M0,6L3,6L3,9L0,9L0,6M6,6L9,6L9,9L6,9L6,6M3,9L6,9L6,12L3,12L3,9M9,9L12,9L12,12L9,12L9,9"></path>
 </pattern>
 <pattern y="0" x="0" height="12" width="12" patternUnits="userSpaceOnUse" id="cp8pattern">
 <rect class="cp8color" height="12" width="12" y="0" x="0"></rect>
 <path fill="white" d="M0,0L3,0L3,3L0,3L0,0M6,0L9,0L9,3L6,3L6,0M3,3L6,3L6,6L3,6L3,3M9,3L12,3L12,6L9,6L9,3"></path>
 <path fill="white" d="M0,6L3,6L3,9L0,9L0,6M6,6L9,6L9,9L6,9L6,6M3,9L6,9L6,12L3,12L3,9M9,9L12,9L12,12L9,12L9,9"></path>
 </pattern>
 <pattern y="0" x="0" height="12" width="12" patternUnits="userSpaceOnUse" id="cp9pattern">
 <rect class="cp9color" height="12" width="12" y="0" x="0"></rect>
 <path fill="black" d="M0,0L3,0L3,3L0,3L0,0M6,0L9,0L9,3L6,3L6,0M3,3L6,3L6,6L3,6L3,3M9,3L12,3L12,6L9,6L9,3"></path>
 <path fill="black" d="M0,6L3,6L3,9L0,9L0,6M6,6L9,6L9,9L6,9L6,6M3,9L6,9L6,12L3,12L3,9M9,9L12,9L12,12L9,12L9,9"></path>
 </pattern>
 </defs>
 <rect height="100%" width="100%" y="0" x="0" class="road" id="mainfill"></rect>
 <g id="paths"><path d="M12,12L12,12L360,12L360,360L12,360L12,12M48,48L48,48L36,48L36,156L48,156L48,48M336,48L336,48L324,48L324,156L336,156L336,48M72,60L72,60L60,60L60,72L312,72L312,60L72,60M84,84L84,84L72,84L72,288L84,288L84,84M300,84L300,84L288,84L288,288L300,288L300,84M108,96L108,96L96,96L96,108L276,108L276,96L108,96M120,120L120,120L108,120L108,252L120,252L120,120M264,120L264,120L252,120L252,252L264,252L264,120M144,132L144,132L132,132L132,144L240,144L240,132L144,132M156,156L156,156L144,156L144,216L156,216L156,156M228,156L228,156L216,156L216,216L228,216L228,156M180,168L180,168L168,168L168,180L204,180L204,168L180,168M36,180L36,180L24,180L24,192L60,192L60,180L36,180M324,180L324,180L312,180L312,192L348,192L348,180L324,180M180,192L180,192L168,192L168,204L204,204L204,192L180,192M48,216L48,216L36,216L36,324L48,324L48,216M336,216L336,216L324,216L324,324L336,324L336,216M144,228L144,228L132,228L132,240L240,240L240,228L144,228M108,264L108,264L96,264L96,276L276,276L276,264L108,264M72,300L72,300L60,300L60,312L312,312L312,300Z" class="road"></path><path d="M12,96L12,96L36,96L36,108L12,108L12,96M336,264L336,264L360,264L360,276L336,276Z" class="cp1"></path><path d="M48,96L48,96L72,96L72,108L48,108L48,96M300,264L300,264L324,264L324,276L300,276Z" class="cp2"></path><path d="M300,96L300,96L324,96L324,108L300,108L300,96M48,264L48,264L72,264L72,276L48,276Z" class="cp3"></path><path d="M336,96L336,96L360,96L360,108L336,108L336,96M12,264L12,264L36,264L36,276L12,276Z" class="cp4"></path><path d="M84,180L84,180L108,180L108,192L84,192L84,180M264,180L264,180L288,180L288,192L264,192Z" class="cp5"></path><path d="M120,180L120,180L144,180L144,192L120,192L120,180M228,180L228,180L252,180L252,192L228,192Z" class="cp6"></path><path d="M180,72L180,72L192,72L192,96L180,96L180,72M180,276L180,276L192,276L192,300L180,300Z" class="cp7"></path><path d="M180,108L180,108L192,108L192,132L180,132L180,108M180,240L180,240L192,240L192,264L180,264Z" class="cp8"></path><path d="M180,144L180,144L192,144L192,168L180,168L180,144M180,204L180,204L192,204L192,228L180,228Z" class="cp9"></path><path d="M0,0L0,0L372,0L372,372L0,372L0,0M24,12L24,12L12,12L12,360L360,360L360,12L24,12M144,156L144,156L156,156L156,216L144,216L144,156M216,156L216,156L228,156L228,216L216,216L216,156M24,180L24,180L60,180L60,192L24,192L24,180M312,180L312,180L348,180L348,192L312,192Z" class="grass"></path><path d="M180,12L180,12L192,12L192,24L180,24L180,12M192,24L192,24L204,24L204,36L192,36L192,24M180,24L180,24L180,36L168,36L168,24L180,24M180,36L180,36L192,36L192,48L180,48L180,36M192,48L192,48L204,48L204,60L192,60L192,48M180,48L180,48L180,60L168,60L168,48L180,48M168,312L168,312L180,312L180,324L168,324L168,312M180,324L180,324L192,324L192,312L204,312L204,324L192,324L192,336L180,336L180,324M192,336L192,336L204,336L204,348L192,348L192,336M180,336L180,336L180,348L168,348L168,336L180,336M180,348L180,348L192,348L192,360L180,360Z" class="start"></path><path d="M36,48L36,48L48,48L48,156L36,156L36,48M324,48L324,48L336,48L336,156L324,156L324,48M60,60L60,60L312,60L312,72L60,72L60,60M108,120L108,120L120,120L120,252L108,252L108,120M252,120L252,120L264,120L264,252L252,252L252,120M132,132L132,132L240,132L240,144L132,144L132,132M36,216L36,216L48,216L48,324L36,324L36,216M324,216L324,216L336,216L336,324L324,324L324,216M132,228L132,228L240,228L240,240L132,240L132,228M60,300L60,300L312,300L312,312L60,312Z" class="sand"></path><path d="M72,84L72,84L84,84L84,288L72,288L72,84M288,84L288,84L300,84L300,288L288,288L288,84M96,96L96,96L276,96L276,108L96,108L96,96M168,168L168,168L204,168L204,180L168,180L168,168M168,192L168,192L204,192L204,204L168,204L168,192M96,264L96,264L276,264L276,276L96,276Z" class="mud"></path><path d="M180,180L180,180L192,180L192,192L180,192Z" class="finish"></path></g>
 <rect opacity=".3" fill="url(#grid)" height="100%" width="100%" y="0" x="0"></rect>
</svg>