<svg xmlns="http://www.w3.org/2000/svg" xmlns:xlink="http://www.w3.org/1999/xlink" version="1.1" id="mapSvgView" width="372" height="372"> <rect id="mainfill" class="road" x="0" y="0" width="100%" height="100%"></rect> <g id="paths"><path d="M12,96L12,96L36,96L36,108L12,108L12,96M336,264L336,264L360,264L360,276L336,276Z" class="cp1"></path><path d="M48,96L48,96L72,96L72,108L48,108L48,96M300,264L300,264L324,264L324,276L300,276Z" class="cp2"></path><path d="M300,96L300,96L324,96L324,108L300,108L300,96M48,264L48,264L72,264L72,276L48,276Z" class="cp3"></path><path d="M336,96L336,96L360,96L360,108L336,108L336,96M12,264L12,264L36,264L36,276L12,276Z" class="cp4"></path><path d="M84,180L84,180L108,180L108,192L84,192L84,180M264,180L264,180L288,180L288,192L264,192Z" class="cp5"></path><path d="M120,180L120,180L144,180L144,192L120,192L120,180M228,180L228,180L252,180L252,192L228,192Z" class="cp6"></path><path d="M180,72L180,72L192,72L192,96L180,96L180,72M180,276L180,276L192,276L192,300L180,300Z" class="cp7"></path><path d="M180,108L180,108L192,108L192,132L180,132L180,108M180,240L180,240L192,240L192,264L180,264Z" class="cp8"></path><path d="M180,144L180,144L192,144L192,168L180,168L180,144M180,204L180,204L192,204L192,228L180,228Z" class="cp9"></path><path d="M0,0L0,0L372,0L372,372L0,372L0,0M24,12L24,12L12,12L12,360L360,360L360,12L24,12M144,156L144,156L156,156L156,216L144,216L144,156M216,156L216,156L228,156L228,216L216,216L216,156M24,180L24,180L60,180L60,192L24,192L24,180M312,180L312,180L348,180L348,192L312,192Z" class="grass"></path><path d="M180,12L180,12L192,12L192,24L180,24L180,12M192,24L192,24L204,24L204,36L192,36L192,24M180,24L180,24L180,36L168,36L168,24L180,24M180,36L180,36L192,36L192,48L180,48L180,36M192,48L192,48L204,48L204,60L192,60L192,48M180,48L180,48L180,60L168,60L168,48L180,48M168,312L168,312L180,312L180,324L168,324L168,312M180,324L180,324L192,324L192,312L204,312L204,324L192,324L192,336L180,336L180,324M192,336L192,336L204,336L204,348L192,348L192,336M180,336L180,336L180,348L168,348L168,336L180,336M180,348L180,348L192,348L192,360L180,360Z" class="start"></path><path d="M36,48L36,48L48,48L48,156L36,156L36,48M324,48L324,48L336,48L336,156L324,156L324,48M60,60L60,60L312,60L312,72L60,72L60,60M108,120L108,120L120,120L120,252L108,252L108,120M252,120L252,120L264,120L264,252L252,252L252,120M132,132L132,132L240,132L240,144L132,144L132,132M36,216L36,216L48,216L48,324L36,324L36,216M324,216L324,216L336,216L336,324L324,324L324,216M132,228L132,228L240,228L240,240L132,240L132,228M60,300L60,300L312,300L312,312L60,312Z" class="sand"></path><path d="M72,84L72,84L84,84L84,288L72,288L72,84M288,84L288,84L300,84L300,288L288,288L288,84M96,96L96,96L276,96L276,108L96,108L96,96M168,168L168,168L204,168L204,180L168,180L168,168M168,192L168,192L204,192L204,204L168,204L168,192M96,264L96,264L276,264L276,276L96,276Z" class="mud"></path><path d="M180,180L180,180L192,180L192,192L180,192Z" class="finish"></path></g></svg>