<svg xmlns:xlink="http://www.w3.org/1999/xlink" xmlns="http://www.w3.org/2000/svg" height="504" width="516" id="mapSvgView" version="1.1" style="width: 516px; height: 504px;" viewBox="0 0 516 504">
 <defs>
 <pattern y="0" x="0" height="24" width="24" patternUnits="userSpaceOnUse" id="grassPattern">
 <rect class="grasscolor" height="24" width="24" y="0" x="0"></rect>
 <rect class="grassspeclecolor" height="1" width="1" x="1" y="5"></rect>
 <rect class="grassspeclecolor" height="1" width="1" x="1" y="5"></rect>
 <rect class="grassspeclecolor" height="1" width="1" x="3" y="5"></rect>
 <rect class="grassspeclecolor" height="1" width="1" x="6" y="7"></rect>
 <rect class="grassspeclecolor" height="1" width="1" x="6" y="17"></rect>
 <rect class="grassspeclecolor" height="1" width="1" x="8" y="21"></rect>
 <rect class="grassspeclecolor" height="1" width="1" x="9" y="2"></rect>
 <rect class="grassspeclecolor" height="1" width="1" x="12" y="4"></rect>
 <rect class="grassspeclecolor" height="1" width="1" x="13" y="15"></rect>
 <rect class="grassspeclecolor" height="1" width="1" x="14" y="4"></rect>
 <rect class="grassspeclecolor" height="1" width="1" x="14" y="19"></rect>
 <rect class="grassspeclecolor" height="1" width="1" x="17" y="7"></rect>
 <rect class="grassspeclecolor" height="1" width="1" x="17" y="12"></rect>
 <rect class="grassspeclecolor" height="1" width="1" x="18" y="23"></rect>
 <rect class="grassspeclecolor" height="1" width="1" x="21" y="16"></rect>
 <rect class="grassspeclecolor" height="1" width="1" x="23" y="12"></rect>
 </pattern>
 <pattern y="0" x="0" height="24" width="24" patternUnits="userSpaceOnUse" id="roadPattern">
 <rect class="roadcolor" height="24" width="24" y="0" x="0"></rect>
 <rect class="roadspeclecolor" height="1" width="1" x="1" y="5"></rect>
 <rect class="roadspeclecolor" height="1" width="1" x="1" y="5"></rect>
 <rect class="roadspeclecolor" height="1" width="1" x="3" y="5"></rect>
 <rect class="roadspeclecolor" height="1" width="1" x="6" y="7"></rect>
 <rect class="roadspeclecolor" height="1" width="1" x="6" y="17"></rect>
 <rect class="roadspeclecolor" height="1" width="1" x="8" y="21"></rect>
 <rect class="roadspeclecolor" height="1" width="1" x="9" y="2"></rect>
 <rect class="roadspeclecolor" height="1" width="1" x="12" y="4"></rect>
 <rect class="roadspeclecolor" height="1" width="1" x="13" y="15"></rect>
 <rect class="roadspeclecolor" height="1" width="1" x="14" y="4"></rect>
 <rect class="roadspeclecolor" height="1" width="1" x="14" y="19"></rect>
 <rect class="roadspeclecolor" height="1" width="1" x="17" y="7"></rect>
 <rect class="roadspeclecolor" height="1" width="1" x="17" y="12"></rect>
 <rect class="roadspeclecolor" height="1" width="1" x="18" y="23"></rect>
 <rect class="roadspeclecolor" height="1" width="1" x="21" y="16"></rect>
 <rect class="roadspeclecolor" height="1" width="1" x="23" y="12"></rect>
 </pattern>
 <pattern y="0" x="0" height="12" width="12" patternUnits="userSpaceOnUse" id="grid">
 <line stroke-width="1" stroke="black" y2="12" x2="12" y1="0" x1="12"></line>
 <line stroke-width="1" stroke="black" y2="12" x2="12" y1="12" x1="0"></line>
 </pattern>
 <pattern y="0" x="0" height="12" width="12" patternUnits="userSpaceOnUse" id="finishPattern">
 <rect fill="black" height="12" width="12" y="0" x="0"></rect>
 <path fill="white" d="M0,0L3,0L3,3L0,3L0,0M6,0L9,0L9,3L6,3L6,0M3,3L6,3L6,6L3,6L3,3M9,3L12,3L12,6L9,6L9,3"></path>
 <path fill="white" d="M0,6L3,6L3,9L0,9L0,6M6,6L9,6L9,9L6,9L6,6M3,9L6,9L6,12L3,12L3,9M9,9L12,9L12,12L9,12L9,9"></path>
 </pattern>
 <pattern y="0" x="0" height="12" width="12" patternUnits="userSpaceOnUse" id="startPattern">
 <rect fill="rgb(100,100,100)" height="12" width="12" y="0" x="0"></rect>
 <rect stroke-width="1" stroke="rgb(200,200,200)" fill="none" height="5" width="5" y="3.5" x="3.5"></rect>
 </pattern>
 <pattern y="0" x="0" height="12" width="12" patternUnits="userSpaceOnUse" id="cp1pattern">
 <rect class="cp1color" height="12" width="12" y="0" x="0"></rect>
 <path fill="black" d="M0,0L3,0L3,3L0,3L0,0M6,0L9,0L9,3L6,3L6,0M3,3L6,3L6,6L3,6L3,3M9,3L12,3L12,6L9,6L9,3"></path>
 <path fill="black" d="M0,6L3,6L3,9L0,9L0,6M6,6L9,6L9,9L6,9L6,6M3,9L6,9L6,12L3,12L3,9M9,9L12,9L12,12L9,12L9,9"></path>
 </pattern>
 <pattern y="0" x="0" height="12" width="12" patternUnits="userSpaceOnUse" id="cp2pattern">
 <rect class="cp2color" height="12" width="12" y="0" x="0"></rect>
 <path fill="white" d="M0,0L3,0L3,3L0,3L0,0M6,0L9,0L9,3L6,3L6,0M3,3L6,3L6,6L3,6L3,3M9,3L12,3L12,6L9,6L9,3"></path>
 <path fill="white" d="M0,6L3,6L3,9L0,9L0,6M6,6L9,6L9,9L6,9L6,6M3,9L6,9L6,12L3,12L3,9M9,9L12,9L12,12L9,12L9,9"></path>
 </pattern>
 <pattern y="0" x="0" height="12" width="12" patternUnits="userSpaceOnUse" id="cp3pattern">
 <rect class="cp3color" height="12" width="12" y="0" x="0"></rect>
 <path fill="black" d="M0,0L3,0L3,3L0,3L0,0M6,0L9,0L9,3L6,3L6,0M3,3L6,3L6,6L3,6L3,3M9,3L12,3L12,6L9,6L9,3"></path>
 <path fill="black" d="M0,6L3,6L3,9L0,9L0,6M6,6L9,6L9,9L6,9L6,6M3,9L6,9L6,12L3,12L3,9M9,9L12,9L12,12L9,12L9,9"></path>
 </pattern>
 <pattern y="0" x="0" height="12" width="12" patternUnits="userSpaceOnUse" id="cp4pattern">
 <rect class="cp4color" height="12" width="12" y="0" x="0"></rect>
 <path fill="white" d="M0,0L3,0L3,3L0,3L0,0M6,0L9,0L9,3L6,3L6,0M3,3L6,3L6,6L3,6L3,3M9,3L12,3L12,6L9,6L9,3"></path>
 <path fill="white" d="M0,6L3,6L3,9L0,9L0,6M6,6L9,6L9,9L6,9L6,6M3,9L6,9L6,12L3,12L3,9M9,9L12,9L12,12L9,12L9,9"></path>
 </pattern>
 <pattern y="0" x="0" height="12" width="12" patternUnits="userSpaceOnUse" id="cp5pattern">
 <rect class="cp5color" height="12" width="12" y="0" x="0"></rect>
 <path fill="black" d="M0,0L3,0L3,3L0,3L0,0M6,0L9,0L9,3L6,3L6,0M3,3L6,3L6,6L3,6L3,3M9,3L12,3L12,6L9,6L9,3"></path>
 <path fill="black" d="M0,6L3,6L3,9L0,9L0,6M6,6L9,6L9,9L6,9L6,6M3,9L6,9L6,12L3,12L3,9M9,9L12,9L12,12L9,12L9,9"></path>
 </pattern>
 <pattern y="0" x="0" height="12" width="12" patternUnits="userSpaceOnUse" id="cp6pattern">
 <rect class="cp6color" height="12" width="12" y="0" x="0"></rect>
 <path fill="white" d="M0,0L3,0L3,3L0,3L0,0M6,0L9,0L9,3L6,3L6,0M3,3L6,3L6,6L3,6L3,3M9,3L12,3L12,6L9,6L9,3"></path>
 <path fill="white" d="M0,6L3,6L3,9L0,9L0,6M6,6L9,6L9,9L6,9L6,6M3,9L6,9L6,12L3,12L3,9M9,9L12,9L12,12L9,12L9,9"></path>
 </pattern>
 <pattern y="0" x="0" height="12" width="12" patternUnits="userSpaceOnUse" id="cp7pattern">
 <rect class="cp7color" height="12" width="12" y="0" x="0"></rect>
 <path fill="black" d="M0,0L3,0L3,3L0,3L0,0M6,0L9,0L9,3L6,3L6,0M3,3L6,3L6,6L3,6L3,3M9,3L12,3L12,6L9,6L9,3"></path>
 <path fill="black" d="M0,6L3,6L3,9L0,9L0,6M6,6L9,6L9,9L6,9L6,6M3,9L6,9L6,12L3,12L3,9M9,9L12,9L12,12L9,12L9,9"></path>
 </pattern>
 <pattern y="0" x="0" height="12" width="12" patternUnits="userSpaceOnUse" id="cp8pattern">
 <rect class="cp8color" height="12" width="12" y="0" x="0"></rect>
 <path fill="white" d="M0,0L3,0L3,3L0,3L0,0M6,0L9,0L9,3L6,3L6,0M3,3L6,3L6,6L3,6L3,3M9,3L12,3L12,6L9,6L9,3"></path>
 <path fill="white" d="M0,6L3,6L3,9L0,9L0,6M6,6L9,6L9,9L6,9L6,6M3,9L6,9L6,12L3,12L3,9M9,9L12,9L12,12L9,12L9,9"></path>
 </pattern>
 <pattern y="0" x="0" height="12" width="12" patternUnits="userSpaceOnUse" id="cp9pattern">
 <rect class="cp9color" height="12" width="12" y="0" x="0"></rect>
 <path fill="black" d="M0,0L3,0L3,3L0,3L0,0M6,0L9,0L9,3L6,3L6,0M3,3L6,3L6,6L3,6L3,3M9,3L12,3L12,6L9,6L9,3"></path>
 <path fill="black" d="M0,6L3,6L3,9L0,9L0,6M6,6L9,6L9,9L6,9L6,6M3,9L6,9L6,12L3,12L3,9M9,9L12,9L12,12L9,12L9,9"></path>
 </pattern>
 </defs>
 <rect height="100%" width="100%" y="0" x="0" class="road" id="mainfill"></rect>
 <g id="paths"><path d="M36,12L36,12L96,12L96,36L108,36L108,12L180,12L180,24L192,24L192,12L204,12L204,24L192,24L192,48L204,48L204,24L216,24L216,12L264,12L264,36L288,36L288,72L300,72L300,120L288,120L288,144L324,144L324,180L312,180L312,204L324,204L324,192L336,192L336,156L348,156L348,132L312,132L312,108L324,108L324,84L312,84L312,48L324,48L324,24L336,24L336,12L372,12L372,36L360,36L360,60L348,60L348,72L360,72L360,60L372,60L372,36L384,36L384,12L420,12L420,36L408,36L408,48L396,48L396,60L408,60L408,48L420,48L420,36L432,36L432,12L504,12L504,84L492,84L492,72L468,72L468,60L456,60L456,36L444,36L444,60L456,60L456,72L468,72L468,84L492,84L492,96L504,96L504,144L492,144L492,132L468,132L468,96L456,96L456,84L444,84L444,72L420,72L420,84L432,84L432,108L444,108L444,96L456,96L456,132L468,132L468,144L456,144L456,156L468,156L468,144L492,144L492,156L504,156L504,204L492,204L492,192L468,192L468,180L456,180L456,168L444,168L444,156L420,156L420,168L432,168L432,180L444,180L444,192L456,192L456,204L492,204L492,228L480,228L480,240L444,240L444,228L432,228L432,240L444,240L444,252L408,252L408,264L360,264L360,252L336,252L336,240L312,240L312,228L300,228L300,216L288,216L288,228L300,228L300,240L312,240L312,252L300,252L300,264L312,264L312,252L324,252L324,264L348,264L348,288L360,288L360,276L396,276L396,288L420,288L420,312L432,312L432,288L456,288L456,276L480,276L480,264L492,264L492,252L504,252L504,300L492,300L492,288L480,288L480,300L492,300L492,312L468,312L468,324L456,324L456,348L444,348L444,360L420,360L420,348L408,348L408,324L396,324L396,312L384,312L384,300L372,300L372,288L360,288L360,300L372,300L372,324L384,324L384,336L396,336L396,372L372,372L372,384L336,384L336,372L324,372L324,360L312,360L312,348L300,348L300,336L276,336L276,348L264,348L264,324L252,324L252,300L240,300L240,288L228,288L228,312L240,312L240,336L252,336L252,372L264,372L264,384L276,384L276,420L288,420L288,468L276,468L276,456L252,456L252,468L276,468L276,492L204,492L204,480L192,480L192,492L132,492L132,480L120,480L120,492L72,492L72,480L60,480L60,492L24,492L24,396L72,396L72,384L108,384L108,372L132,372L132,348L120,348L120,360L96,360L96,372L60,372L60,384L36,384L36,372L24,372L24,228L36,228L36,240L72,240L72,252L132,252L132,240L156,240L156,264L192,264L192,252L204,252L204,240L180,240L180,204L192,204L192,192L168,192L168,180L156,180L156,192L168,192L168,216L144,216L144,228L96,228L96,204L84,204L84,168L72,168L72,204L84,204L84,216L60,216L60,204L36,204L36,192L24,192L24,108L60,108L60,96L24,96L24,24L36,24L36,12M156,24L156,24L144,24L144,36L156,36L156,24M240,24L240,24L228,24L228,36L240,36L240,24M480,24L480,24L468,24L468,36L480,36L480,24M120,36L120,36L108,36L108,48L120,48L120,36M492,36L492,36L480,36L480,48L492,48L492,36M72,48L72,48L60,48L60,60L72,60L72,48M132,48L132,48L120,48L120,60L132,60L132,48M168,48L168,48L156,48L156,60L144,60L144,84L132,84L132,96L156,96L156,60L168,60L168,48M216,48L216,48L204,48L204,84L216,84L216,48M276,48L276,48L264,48L264,60L276,60L276,48M336,48L336,48L324,48L324,60L336,60L336,48M84,60L84,60L72,60L72,72L84,72L84,60M240,60L240,60L228,60L228,72L240,72L240,60M384,60L384,60L372,60L372,72L360,72L360,84L384,84L384,108L396,108L396,120L408,120L408,96L396,96L396,72L384,72L384,60M264,72L264,72L252,72L252,96L264,96L264,72M108,84L108,84L96,84L96,96L84,96L84,120L96,120L96,108L108,108L108,84M192,84L192,84L180,84L180,96L168,96L168,120L156,120L156,132L144,132L144,156L132,156L132,168L120,168L120,156L108,156L108,144L60,144L60,132L48,132L48,144L60,144L60,156L108,156L108,168L120,168L120,180L96,180L96,192L120,192L120,180L144,180L144,168L156,168L156,144L168,144L168,132L180,132L180,108L192,108L192,84M228,84L228,84L216,84L216,96L228,96L228,84M348,84L348,84L336,84L336,96L348,96L348,84M288,96L288,96L276,96L276,108L288,108L288,96M228,108L228,108L216,108L216,120L228,120L228,108M252,108L252,108L240,108L240,132L228,132L228,144L216,144L216,132L204,132L204,144L192,144L192,156L204,156L204,144L216,144L216,156L228,156L228,144L240,144L240,132L252,132L252,108M360,108L360,108L348,108L348,120L372,120L372,108L360,108M132,120L132,120L120,120L120,132L132,132L132,120M384,120L384,120L372,120L372,156L384,156L384,180L396,180L396,204L384,204L384,216L396,216L396,204L408,204L408,168L396,168L396,144L384,144L384,120M420,120L420,120L408,120L408,132L420,132L420,120M264,132L264,132L252,132L252,156L228,156L228,180L240,180L240,216L252,216L252,264L264,264L264,276L276,276L276,288L288,288L288,300L300,300L300,312L324,312L324,324L336,324L336,336L348,336L348,312L336,312L336,300L312,300L312,288L300,288L300,276L288,276L288,264L276,264L276,240L264,240L264,204L276,204L276,180L288,180L288,156L276,156L276,168L252,168L252,156L264,156L264,132M432,132L432,132L420,132L420,144L432,144L432,132M60,168L60,168L48,168L48,180L60,180L60,168M192,168L192,168L180,168L180,180L192,180L192,168M492,168L492,168L480,168L480,180L492,180L492,168M132,192L132,192L120,192L120,204L132,204L132,192M216,192L216,192L204,192L204,204L216,204L216,192M372,192L372,192L360,192L360,216L348,216L348,228L360,228L360,240L372,240L372,192M420,204L420,204L408,204L408,216L432,216L432,204L420,204M456,216L456,216L444,216L444,228L456,228L456,216M228,228L228,228L216,228L216,240L228,240L228,228M408,228L408,228L396,228L396,240L384,240L384,252L396,252L396,240L420,240L420,228L408,228M60,264L60,264L48,264L48,276L72,276L72,264L60,264M144,264L144,264L132,264L132,276L144,276L144,264M228,264L228,264L216,264L216,276L228,276L228,264M84,276L84,276L72,276L72,300L84,300L84,288L96,288L96,276L84,276M120,276L120,276L108,276L108,300L84,300L84,312L60,312L60,324L84,324L84,312L108,312L108,324L96,324L96,336L84,336L84,348L96,348L96,336L108,336L108,324L120,324L120,312L144,312L144,324L156,324L156,348L168,348L168,396L156,396L156,408L144,408L144,396L132,396L132,384L120,384L120,396L132,396L132,420L144,420L144,444L156,444L156,456L192,456L192,444L168,444L168,432L156,432L156,408L168,408L168,396L180,396L180,384L192,384L192,408L180,408L180,432L192,432L192,408L204,408L204,372L180,372L180,336L168,336L168,312L192,312L192,300L144,300L144,288L120,288L120,276M324,276L324,276L312,276L312,288L324,288L324,276M60,288L60,288L48,288L48,300L60,300L60,288M204,288L204,288L192,288L192,300L204,300L204,288M468,288L468,288L456,288L456,300L444,300L444,312L432,312L432,336L444,336L444,312L456,312L456,300L468,300L468,288M288,312L288,312L276,312L276,324L288,324L288,312M492,312L492,312L504,312L504,384L480,384L480,372L456,372L456,360L480,360L480,348L468,348L468,324L492,324L492,312M216,324L216,324L204,324L204,336L216,336L216,324M60,336L60,336L48,336L48,348L36,348L36,360L48,360L48,348L60,348L60,336M144,336L144,336L132,336L132,348L144,348L144,336M228,336L228,336L216,336L216,348L228,348L228,336M360,336L360,336L348,336L348,348L360,348L360,336M276,348L276,348L300,348L300,360L312,360L312,372L324,372L324,384L336,384L336,420L348,420L348,396L384,396L384,384L408,384L408,372L456,372L456,408L444,408L444,396L420,396L420,384L408,384L408,396L384,396L384,408L372,408L372,420L360,420L360,432L348,432L348,444L360,444L360,432L372,432L372,420L384,420L384,408L408,408L408,396L420,396L420,408L408,408L408,420L420,420L420,408L444,408L444,432L456,432L456,408L468,408L468,384L480,384L480,396L504,396L504,444L492,444L492,432L480,432L480,408L468,408L468,432L480,432L480,444L456,444L456,468L468,468L468,456L480,456L480,444L492,444L492,456L504,456L504,492L432,492L432,480L444,480L444,444L432,444L432,420L420,420L420,444L432,444L432,468L420,468L420,492L384,492L384,468L372,468L372,444L360,444L360,468L372,468L372,492L324,492L324,480L312,480L312,432L300,432L300,408L288,408L288,372L276,372L276,348M216,360L216,360L204,360L204,372L216,372L216,360M240,384L240,384L228,384L228,396L240,396L240,384M312,384L312,384L300,384L300,396L312,396L312,384M84,396L84,396L72,396L72,408L84,408L84,396M108,396L108,396L96,396L96,420L108,420L108,396M264,408L264,408L252,408L252,420L228,420L228,432L192,432L192,444L204,444L204,480L216,480L216,444L240,444L240,432L252,432L252,420L264,420L264,408M324,408L324,408L312,408L312,420L324,420L324,408M48,420L48,420L36,420L36,432L48,432L48,420M84,420L84,420L72,420L72,432L84,432L84,420M396,420L396,420L384,420L384,456L396,456L396,420M96,432L96,432L84,432L84,444L96,444L96,432M336,432L336,432L324,432L324,444L336,444L336,432M60,444L60,444L48,444L48,456L72,456L72,444L60,444M132,444L132,444L120,444L120,456L132,456L132,444M108,456L108,456L96,456L96,480L108,480L108,456M348,456L348,456L336,456L336,468L348,468L348,456M408,456L408,456L396,456L396,480L408,480L408,456M156,468L156,468L144,468L144,480L156,480L156,468M480,468L480,468L468,468L468,480L480,480Z" class="road"></path><path d="M24,456L24,456L36,456L36,468L48,468L48,480L60,480L60,492L24,492Z" class="cp1"></path><path d="M468,12L468,12L504,12L504,48L492,48L492,36L480,36L480,24L468,24Z" class="cp2"></path><path d="M0,0L0,0L12,0L12,96L0,96Z" class="parc"></path><path d="M12,0L12,0L516,0L516,504L0,504L0,96L12,96L12,0M48,12L48,12L36,12L36,24L24,24L24,96L60,96L60,108L24,108L24,192L36,192L36,204L60,204L60,216L84,216L84,204L72,204L72,168L84,168L84,204L96,204L96,228L144,228L144,216L168,216L168,192L156,192L156,180L168,180L168,192L192,192L192,204L180,204L180,240L204,240L204,252L192,252L192,264L156,264L156,240L132,240L132,252L72,252L72,240L36,240L36,228L24,228L24,372L36,372L36,384L60,384L60,372L96,372L96,360L120,360L120,348L132,348L132,336L144,336L144,348L132,348L132,372L108,372L108,384L72,384L72,396L24,396L24,492L60,492L60,480L72,480L72,492L120,492L120,480L132,480L132,492L192,492L192,480L204,480L204,444L192,444L192,432L180,432L180,408L192,408L192,384L180,384L180,396L168,396L168,348L156,348L156,324L144,324L144,312L120,312L120,324L108,324L108,312L84,312L84,300L72,300L72,276L48,276L48,264L72,264L72,276L96,276L96,288L84,288L84,300L108,300L108,276L120,276L120,288L144,288L144,300L192,300L192,288L204,288L204,300L192,300L192,312L168,312L168,336L180,336L180,372L204,372L204,360L216,360L216,372L204,372L204,408L192,408L192,432L228,432L228,420L252,420L252,408L264,408L264,420L252,420L252,432L240,432L240,444L216,444L216,480L204,480L204,492L276,492L276,468L252,468L252,456L276,456L276,468L288,468L288,420L276,420L276,384L264,384L264,372L252,372L252,336L240,336L240,312L228,312L228,288L240,288L240,300L252,300L252,324L264,324L264,348L276,348L276,336L300,336L300,348L276,348L276,372L288,372L288,408L300,408L300,432L312,432L312,480L324,480L324,492L372,492L372,468L360,468L360,444L348,444L348,432L360,432L360,420L372,420L372,408L384,408L384,396L348,396L348,420L336,420L336,384L324,384L324,372L312,372L312,360L300,360L300,348L312,348L312,360L324,360L324,372L336,372L336,384L372,384L372,372L396,372L396,336L384,336L384,324L372,324L372,300L360,300L360,288L348,288L348,264L324,264L324,252L312,252L312,240L300,240L300,228L288,228L288,216L300,216L300,228L312,228L312,240L336,240L336,252L360,252L360,264L408,264L408,252L444,252L444,240L432,240L432,228L444,228L444,216L456,216L456,228L444,228L444,240L480,240L480,228L492,228L492,204L456,204L456,192L444,192L444,180L432,180L432,168L420,168L420,156L444,156L444,168L456,168L456,180L468,180L468,192L492,192L492,204L504,204L504,156L492,156L492,144L468,144L468,132L456,132L456,96L444,96L444,108L432,108L432,84L420,84L420,72L444,72L444,84L456,84L456,96L468,96L468,132L492,132L492,144L504,144L504,96L492,96L492,84L468,84L468,72L456,72L456,60L444,60L444,36L456,36L456,60L468,60L468,72L492,72L492,84L504,84L504,12L432,12L432,36L420,36L420,12L384,12L384,36L372,36L372,12L336,12L336,24L324,24L324,48L312,48L312,84L324,84L324,108L312,108L312,132L348,132L348,156L336,156L336,192L324,192L324,204L312,204L312,180L324,180L324,144L288,144L288,120L300,120L300,72L288,72L288,36L264,36L264,12L216,12L216,24L204,24L204,12L192,12L192,24L180,24L180,12L108,12L108,36L96,36L96,12L48,12M192,24L192,24L204,24L204,48L192,48L192,24M108,36L108,36L120,36L120,48L108,48L108,36M144,24L144,24L156,24L156,36L144,36L144,24M228,24L228,24L240,24L240,36L228,36L228,24M372,36L372,36L372,60L360,60L360,36L372,36M420,36L420,36L420,48L408,48L408,36L420,36M468,24L468,24L480,24L480,36L468,36L468,24M480,36L480,36L492,36L492,48L480,48L480,36M120,48L120,48L132,48L132,60L120,60L120,48M204,48L204,48L216,48L216,84L204,84L204,48M324,48L324,48L336,48L336,60L324,60L324,48M408,48L408,48L408,60L396,60L396,48L408,48M60,48L60,48L72,48L72,60L60,60L60,48M72,60L72,60L84,60L84,72L72,72L72,60M156,48L156,48L168,48L168,60L156,60L156,48M156,60L156,60L156,96L132,96L132,84L144,84L144,60L156,60M264,48L264,48L276,48L276,60L264,60L264,48M372,60L372,60L384,60L384,72L396,72L396,96L408,96L408,120L396,120L396,108L384,108L384,84L360,84L360,72L348,72L348,60L360,60L360,72L372,72L372,60M228,60L228,60L240,60L240,72L228,72L228,60M216,84L216,84L228,84L228,96L216,96L216,84M252,72L252,72L264,72L264,96L252,96L252,72M96,84L96,84L108,84L108,108L96,108L96,120L84,120L84,96L96,96L96,84M180,84L180,84L192,84L192,108L180,108L180,132L168,132L168,144L156,144L156,168L144,168L144,180L120,180L120,168L108,168L108,156L60,156L60,144L48,144L48,132L60,132L60,144L108,144L108,156L120,156L120,168L132,168L132,156L144,156L144,132L156,132L156,120L168,120L168,96L180,96L180,84M336,84L336,84L348,84L348,96L336,96L336,84M276,96L276,96L288,96L288,108L276,108L276,96M216,108L216,108L228,108L228,120L216,120L216,108M240,108L240,108L252,108L252,132L240,132L240,108M348,108L348,108L372,108L372,120L348,120L348,108M372,120L372,120L384,120L384,144L396,144L396,168L408,168L408,204L396,204L396,180L384,180L384,156L372,156L372,120M408,120L408,120L420,120L420,132L408,132L408,120M120,120L120,120L132,120L132,132L120,132L120,120M252,132L252,132L264,132L264,156L252,156L252,132M240,132L240,132L240,144L228,144L228,132L240,132M420,132L420,132L432,132L432,144L420,144L420,132M204,132L204,132L216,132L216,144L204,144L204,132M216,144L216,144L228,144L228,156L216,156L216,144M204,144L204,144L204,156L192,156L192,144L204,144M468,144L468,144L468,156L456,156L456,144L468,144M228,156L228,156L252,156L252,168L276,168L276,156L288,156L288,180L276,180L276,204L264,204L264,240L276,240L276,264L288,264L288,276L300,276L300,288L312,288L312,276L324,276L324,288L312,288L312,300L336,300L336,312L348,312L348,336L336,336L336,324L324,324L324,312L300,312L300,300L288,300L288,288L276,288L276,276L264,276L264,264L252,264L252,216L240,216L240,180L228,180L228,156M48,168L48,168L60,168L60,180L48,180L48,168M120,180L120,180L120,192L96,192L96,180L120,180M180,168L180,168L192,168L192,180L180,180L180,168M480,168L480,168L492,168L492,180L480,180L480,168M120,192L120,192L132,192L132,204L120,204L120,192M204,192L204,192L216,192L216,204L204,204L204,192M360,192L360,192L372,192L372,240L360,240L360,228L348,228L348,216L360,216L360,192M408,204L408,204L432,204L432,216L408,216L408,204M396,204L396,204L396,216L384,216L384,204L396,204M216,228L216,228L228,228L228,240L216,240L216,228M396,228L396,228L420,228L420,240L396,240L396,228M396,240L396,240L396,252L384,252L384,240L396,240M312,252L312,252L312,264L300,264L300,252L312,252M504,252L504,252L492,252L492,264L480,264L480,276L456,276L456,288L432,288L432,312L420,312L420,288L396,288L396,276L360,276L360,288L372,288L372,300L384,300L384,312L396,312L396,324L408,324L408,348L420,348L420,360L444,360L444,348L456,348L456,324L468,324L468,312L492,312L492,300L480,300L480,288L492,288L492,300L504,300L504,252M132,264L132,264L144,264L144,276L132,276L132,264M216,264L216,264L228,264L228,276L216,276L216,264M456,288L456,288L468,288L468,300L456,300L456,288M48,288L48,288L60,288L60,300L48,300L48,288M456,300L456,300L456,312L444,312L444,300L456,300M84,312L84,312L84,324L60,324L60,312L84,312M432,312L432,312L444,312L444,336L432,336L432,312M504,312L504,312L492,312L492,324L468,324L468,348L480,348L480,360L456,360L456,372L408,372L408,384L384,384L384,396L408,396L408,384L420,384L420,396L408,396L408,408L384,408L384,420L372,420L372,432L360,432L360,444L372,444L372,468L384,468L384,492L420,492L420,468L432,468L432,444L420,444L420,420L408,420L408,408L420,408L420,396L444,396L444,408L420,408L420,420L432,420L432,444L444,444L444,480L432,480L432,492L504,492L504,456L492,456L492,444L480,444L480,432L468,432L468,408L456,408L456,372L480,372L480,384L468,384L468,408L480,408L480,432L492,432L492,444L504,444L504,396L480,396L480,384L504,384L504,312M108,324L108,324L108,336L96,336L96,324L108,324M276,312L276,312L288,312L288,324L276,324L276,312M96,336L96,336L96,348L84,348L84,336L96,336M204,324L204,324L216,324L216,336L204,336L204,324M216,336L216,336L228,336L228,348L216,348L216,336M348,336L348,336L360,336L360,348L348,348L348,336M48,336L48,336L60,336L60,348L48,348L48,336M48,348L48,348L48,360L36,360L36,348L48,348M72,396L72,396L84,396L84,408L72,408L72,396M120,384L120,384L132,384L132,396L120,396L120,384M132,396L132,396L144,396L144,408L156,408L156,396L168,396L168,408L156,408L156,432L168,432L168,444L192,444L192,456L156,456L156,444L144,444L144,420L132,420L132,396M228,384L228,384L240,384L240,396L228,396L228,384M300,384L300,384L312,384L312,396L300,396L300,384M96,396L96,396L108,396L108,420L96,420L96,396M444,408L444,408L456,408L456,432L444,432L444,408M312,408L312,408L324,408L324,420L312,420L312,408M384,420L384,420L396,420L396,456L384,456L384,420M36,420L36,420L48,420L48,432L36,432L36,420M72,420L72,420L84,420L84,432L72,432L72,420M84,432L84,432L96,432L96,444L84,444L84,432M324,432L324,432L336,432L336,444L324,444L324,432M480,444L480,444L480,456L468,456L468,468L456,468L456,444L480,444M48,444L48,444L72,444L72,456L48,456L48,444M120,444L120,444L132,444L132,456L120,456L120,444M396,456L396,456L408,456L408,480L396,480L396,456M96,456L96,456L108,456L108,480L96,480L96,456M336,456L336,456L348,456L348,468L336,468L336,456M468,468L468,468L480,468L480,480L468,480L468,468M144,468L144,468L156,468L156,480L144,480Z" class="grass"></path><path d="M48,12L48,12L60,12L60,24L48,24L48,12M60,24L60,24L72,24L72,12L84,12L84,24L72,24L72,36L60,36L60,24M48,24L48,24L48,36L36,36L36,24L48,24M48,36L48,36L60,36L60,48L48,48L48,36M36,36L36,36L36,48L24,48L24,36L36,36M36,48L36,48L48,48L48,60L36,60L36,48M36,60L36,60L36,72L24,72L24,60Z" class="start"></path><path d="M492,456L492,456L504,456L504,492L468,492L468,480L480,480L480,468L492,468Z" class="finish"></path></g>
 <rect opacity=".3" fill="url(#grid)" height="100%" width="100%" y="0" x="0"></rect>
</svg>