<svg xmlns:xlink="http://www.w3.org/1999/xlink" xmlns="http://www.w3.org/2000/svg" height="1020" width="1500" id="mapSvgView" version="1.1" style="width: 1500px; height: 1020px;" viewBox="0 0 1500 1020">
 <defs>
 <pattern y="0" x="0" height="24" width="24" patternUnits="userSpaceOnUse" id="grassPattern">
 <rect class="grasscolor" height="24" width="24" y="0" x="0"></rect>
 <rect class="grassspeclecolor" height="1" width="1" x="1" y="5"></rect>
 <rect class="grassspeclecolor" height="1" width="1" x="1" y="5"></rect>
 <rect class="grassspeclecolor" height="1" width="1" x="3" y="5"></rect>
 <rect class="grassspeclecolor" height="1" width="1" x="6" y="7"></rect>
 <rect class="grassspeclecolor" height="1" width="1" x="6" y="17"></rect>
 <rect class="grassspeclecolor" height="1" width="1" x="8" y="21"></rect>
 <rect class="grassspeclecolor" height="1" width="1" x="9" y="2"></rect>
 <rect class="grassspeclecolor" height="1" width="1" x="12" y="4"></rect>
 <rect class="grassspeclecolor" height="1" width="1" x="13" y="15"></rect>
 <rect class="grassspeclecolor" height="1" width="1" x="14" y="4"></rect>
 <rect class="grassspeclecolor" height="1" width="1" x="14" y="19"></rect>
 <rect class="grassspeclecolor" height="1" width="1" x="17" y="7"></rect>
 <rect class="grassspeclecolor" height="1" width="1" x="17" y="12"></rect>
 <rect class="grassspeclecolor" height="1" width="1" x="18" y="23"></rect>
 <rect class="grassspeclecolor" height="1" width="1" x="21" y="16"></rect>
 <rect class="grassspeclecolor" height="1" width="1" x="23" y="12"></rect>
 </pattern>
 <pattern y="0" x="0" height="24" width="24" patternUnits="userSpaceOnUse" id="roadPattern">
 <rect class="roadcolor" height="24" width="24" y="0" x="0"></rect>
 <rect class="roadspeclecolor" height="1" width="1" x="1" y="5"></rect>
 <rect class="roadspeclecolor" height="1" width="1" x="1" y="5"></rect>
 <rect class="roadspeclecolor" height="1" width="1" x="3" y="5"></rect>
 <rect class="roadspeclecolor" height="1" width="1" x="6" y="7"></rect>
 <rect class="roadspeclecolor" height="1" width="1" x="6" y="17"></rect>
 <rect class="roadspeclecolor" height="1" width="1" x="8" y="21"></rect>
 <rect class="roadspeclecolor" height="1" width="1" x="9" y="2"></rect>
 <rect class="roadspeclecolor" height="1" width="1" x="12" y="4"></rect>
 <rect class="roadspeclecolor" height="1" width="1" x="13" y="15"></rect>
 <rect class="roadspeclecolor" height="1" width="1" x="14" y="4"></rect>
 <rect class="roadspeclecolor" height="1" width="1" x="14" y="19"></rect>
 <rect class="roadspeclecolor" height="1" width="1" x="17" y="7"></rect>
 <rect class="roadspeclecolor" height="1" width="1" x="17" y="12"></rect>
 <rect class="roadspeclecolor" height="1" width="1" x="18" y="23"></rect>
 <rect class="roadspeclecolor" height="1" width="1" x="21" y="16"></rect>
 <rect class="roadspeclecolor" height="1" width="1" x="23" y="12"></rect>
 </pattern>
 <pattern y="0" x="0" height="12" width="12" patternUnits="userSpaceOnUse" id="grid">
 <line stroke-width="1" stroke="black" y2="12" x2="12" y1="0" x1="12"></line>
 <line stroke-width="1" stroke="black" y2="12" x2="12" y1="12" x1="0"></line>
 </pattern>
 <pattern y="0" x="0" height="12" width="12" patternUnits="userSpaceOnUse" id="finishPattern">
 <rect fill="black" height="12" width="12" y="0" x="0"></rect>
 <path fill="white" d="M0,0L3,0L3,3L0,3L0,0M6,0L9,0L9,3L6,3L6,0M3,3L6,3L6,6L3,6L3,3M9,3L12,3L12,6L9,6L9,3"></path>
 <path fill="white" d="M0,6L3,6L3,9L0,9L0,6M6,6L9,6L9,9L6,9L6,6M3,9L6,9L6,12L3,12L3,9M9,9L12,9L12,12L9,12L9,9"></path>
 </pattern>
 <pattern y="0" x="0" height="12" width="12" patternUnits="userSpaceOnUse" id="startPattern">
 <rect fill="rgb(100,100,100)" height="12" width="12" y="0" x="0"></rect>
 <rect stroke-width="1" stroke="rgb(200,200,200)" fill="none" height="5" width="5" y="3.5" x="3.5"></rect>
 </pattern>
 <pattern y="0" x="0" height="12" width="12" patternUnits="userSpaceOnUse" id="cp1pattern">
 <rect class="cp1color" height="12" width="12" y="0" x="0"></rect>
 <path fill="black" d="M0,0L3,0L3,3L0,3L0,0M6,0L9,0L9,3L6,3L6,0M3,3L6,3L6,6L3,6L3,3M9,3L12,3L12,6L9,6L9,3"></path>
 <path fill="black" d="M0,6L3,6L3,9L0,9L0,6M6,6L9,6L9,9L6,9L6,6M3,9L6,9L6,12L3,12L3,9M9,9L12,9L12,12L9,12L9,9"></path>
 </pattern>
 <pattern y="0" x="0" height="12" width="12" patternUnits="userSpaceOnUse" id="cp2pattern">
 <rect class="cp2color" height="12" width="12" y="0" x="0"></rect>
 <path fill="white" d="M0,0L3,0L3,3L0,3L0,0M6,0L9,0L9,3L6,3L6,0M3,3L6,3L6,6L3,6L3,3M9,3L12,3L12,6L9,6L9,3"></path>
 <path fill="white" d="M0,6L3,6L3,9L0,9L0,6M6,6L9,6L9,9L6,9L6,6M3,9L6,9L6,12L3,12L3,9M9,9L12,9L12,12L9,12L9,9"></path>
 </pattern>
 <pattern y="0" x="0" height="12" width="12" patternUnits="userSpaceOnUse" id="cp3pattern">
 <rect class="cp3color" height="12" width="12" y="0" x="0"></rect>
 <path fill="black" d="M0,0L3,0L3,3L0,3L0,0M6,0L9,0L9,3L6,3L6,0M3,3L6,3L6,6L3,6L3,3M9,3L12,3L12,6L9,6L9,3"></path>
 <path fill="black" d="M0,6L3,6L3,9L0,9L0,6M6,6L9,6L9,9L6,9L6,6M3,9L6,9L6,12L3,12L3,9M9,9L12,9L12,12L9,12L9,9"></path>
 </pattern>
 <pattern y="0" x="0" height="12" width="12" patternUnits="userSpaceOnUse" id="cp4pattern">
 <rect class="cp4color" height="12" width="12" y="0" x="0"></rect>
 <path fill="white" d="M0,0L3,0L3,3L0,3L0,0M6,0L9,0L9,3L6,3L6,0M3,3L6,3L6,6L3,6L3,3M9,3L12,3L12,6L9,6L9,3"></path>
 <path fill="white" d="M0,6L3,6L3,9L0,9L0,6M6,6L9,6L9,9L6,9L6,6M3,9L6,9L6,12L3,12L3,9M9,9L12,9L12,12L9,12L9,9"></path>
 </pattern>
 <pattern y="0" x="0" height="12" width="12" patternUnits="userSpaceOnUse" id="cp5pattern">
 <rect class="cp5color" height="12" width="12" y="0" x="0"></rect>
 <path fill="black" d="M0,0L3,0L3,3L0,3L0,0M6,0L9,0L9,3L6,3L6,0M3,3L6,3L6,6L3,6L3,3M9,3L12,3L12,6L9,6L9,3"></path>
 <path fill="black" d="M0,6L3,6L3,9L0,9L0,6M6,6L9,6L9,9L6,9L6,6M3,9L6,9L6,12L3,12L3,9M9,9L12,9L12,12L9,12L9,9"></path>
 </pattern>
 <pattern y="0" x="0" height="12" width="12" patternUnits="userSpaceOnUse" id="cp6pattern">
 <rect class="cp6color" height="12" width="12" y="0" x="0"></rect>
 <path fill="white" d="M0,0L3,0L3,3L0,3L0,0M6,0L9,0L9,3L6,3L6,0M3,3L6,3L6,6L3,6L3,3M9,3L12,3L12,6L9,6L9,3"></path>
 <path fill="white" d="M0,6L3,6L3,9L0,9L0,6M6,6L9,6L9,9L6,9L6,6M3,9L6,9L6,12L3,12L3,9M9,9L12,9L12,12L9,12L9,9"></path>
 </pattern>
 <pattern y="0" x="0" height="12" width="12" patternUnits="userSpaceOnUse" id="cp7pattern">
 <rect class="cp7color" height="12" width="12" y="0" x="0"></rect>
 <path fill="black" d="M0,0L3,0L3,3L0,3L0,0M6,0L9,0L9,3L6,3L6,0M3,3L6,3L6,6L3,6L3,3M9,3L12,3L12,6L9,6L9,3"></path>
 <path fill="black" d="M0,6L3,6L3,9L0,9L0,6M6,6L9,6L9,9L6,9L6,6M3,9L6,9L6,12L3,12L3,9M9,9L12,9L12,12L9,12L9,9"></path>
 </pattern>
 <pattern y="0" x="0" height="12" width="12" patternUnits="userSpaceOnUse" id="cp8pattern">
 <rect class="cp8color" height="12" width="12" y="0" x="0"></rect>
 <path fill="white" d="M0,0L3,0L3,3L0,3L0,0M6,0L9,0L9,3L6,3L6,0M3,3L6,3L6,6L3,6L3,3M9,3L12,3L12,6L9,6L9,3"></path>
 <path fill="white" d="M0,6L3,6L3,9L0,9L0,6M6,6L9,6L9,9L6,9L6,6M3,9L6,9L6,12L3,12L3,9M9,9L12,9L12,12L9,12L9,9"></path>
 </pattern>
 <pattern y="0" x="0" height="12" width="12" patternUnits="userSpaceOnUse" id="cp9pattern">
 <rect class="cp9color" height="12" width="12" y="0" x="0"></rect>
 <path fill="black" d="M0,0L3,0L3,3L0,3L0,0M6,0L9,0L9,3L6,3L6,0M3,3L6,3L6,6L3,6L3,3M9,3L12,3L12,6L9,6L9,3"></path>
 <path fill="black" d="M0,6L3,6L3,9L0,9L0,6M6,6L9,6L9,9L6,9L6,6M3,9L6,9L6,12L3,12L3,9M9,9L12,9L12,12L9,12L9,9"></path>
 </pattern>
 </defs>
 <rect height="100%" width="100%" y="0" x="0" class="grass" id="mainfill"></rect>
 <g id="paths"><path d="M444,12L444,12L948,12L948,24L960,24L960,60L1032,60L1032,36L1044,36L1044,24L1224,24L1224,36L1236,36L1236,48L1248,48L1248,96L1260,96L1260,108L1272,108L1272,120L1296,120L1296,132L1308,132L1308,144L1332,144L1332,156L1368,156L1368,144L1440,144L1440,156L1464,156L1464,168L1476,168L1476,204L1488,204L1488,312L1476,312L1476,324L1464,324L1464,336L1452,336L1452,348L1440,348L1440,360L1428,360L1428,372L1344,372L1344,444L1332,444L1332,456L1320,456L1320,480L1308,480L1308,492L1296,492L1296,516L1272,516L1272,528L1224,528L1224,540L1212,540L1212,600L1200,600L1200,660L1188,660L1188,708L1176,708L1176,732L1116,732L1116,744L1104,744L1104,756L1092,756L1092,780L1080,780L1080,792L1092,792L1092,852L1080,852L1080,876L1068,876L1068,888L1056,888L1056,900L1044,900L1044,912L1020,912L1020,924L972,924L972,936L936,936L936,948L900,948L900,960L840,960L840,948L828,948L828,924L804,924L804,936L756,936L756,960L744,960L744,984L720,984L720,996L552,996L552,1008L372,1008L372,996L360,996L360,972L348,972L348,936L336,936L336,708L348,708L348,696L360,696L360,684L372,684L372,672L396,672L396,432L348,432L348,444L336,444L336,456L324,456L324,468L312,468L312,480L288,480L288,492L264,492L264,504L132,504L132,492L108,492L108,480L84,480L84,468L72,468L72,456L60,456L60,444L48,444L48,432L36,432L36,420L24,420L24,384L12,384L12,228L24,228L24,204L36,204L36,192L48,192L48,180L60,180L60,168L72,168L72,156L84,156L84,144L108,144L108,132L144,132L144,120L252,120L252,132L288,132L288,144L312,144L312,156L324,156L324,168L336,168L336,180L348,180L348,192L360,192L360,204L396,204L396,60L408,60L408,36L420,36L420,24L444,24L444,12M504,84L504,84L492,84L492,96L480,96L480,240L468,240L468,276L456,276L456,288L300,288L300,264L288,264L288,252L276,252L276,240L264,240L264,228L252,228L252,216L228,216L228,204L168,204L168,216L144,216L144,228L132,228L132,240L120,240L120,252L108,252L108,264L96,264L96,360L108,360L108,372L120,372L120,384L132,384L132,396L144,396L144,408L168,408L168,420L228,420L228,408L252,408L252,396L264,396L264,384L276,384L276,372L288,372L288,360L300,360L300,348L456,348L456,360L468,360L468,372L480,372L480,720L468,720L468,744L444,744L444,756L432,756L432,768L420,768L420,780L408,780L408,852L420,852L420,900L432,900L432,924L444,924L444,936L456,936L456,924L540,924L540,912L672,912L672,864L708,864L708,852L768,852L768,840L828,840L828,828L876,828L876,840L900,840L900,852L936,852L936,840L972,840L972,828L984,828L984,816L972,816L972,756L984,756L984,744L996,744L996,720L1008,720L1008,708L1020,708L1020,696L1032,696L1032,672L1044,672L1044,660L1068,660L1068,648L1104,648L1104,624L1116,624L1116,564L1128,564L1128,504L1140,504L1140,444L1152,444L1152,432L1224,432L1224,420L1212,420L1212,348L1224,348L1224,336L1236,336L1236,324L1248,324L1248,312L1260,312L1260,300L1272,300L1272,288L1284,288L1284,276L1380,276L1380,264L1392,264L1392,240L1284,240L1284,228L1260,228L1260,216L1248,216L1248,204L1224,204L1224,192L1200,192L1200,180L1188,180L1188,168L1176,168L1176,156L1164,156L1164,108L1104,108L1104,132L1092,132L1092,144L900,144L900,132L888,132L888,108L876,108L876,84L504,84M1320,864L1320,864L1392,864L1392,1008L1344,1008L1344,996L1368,996L1368,984L1380,984L1380,876L1344,876L1344,888L1332,888L1332,900L1320,900L1320,864M1416,864L1416,864L1488,864L1488,900L1476,900L1476,888L1464,888L1464,876L1428,876L1428,984L1440,984L1440,996L1464,996L1464,1008L1416,1008Z" class="road"></path><path d="M1128,540L1128,540L1212,540L1212,552L1128,552Z" class="cp1"></path><path d="M12,312L12,312L96,312L96,324L12,324Z" class="cp2"></path><path d="M0,0L0,0L12,0L12,72L0,72Z" class="parc"></path><path d="M756,12L756,12L768,12L768,84L756,84Z" class="finish"></path><path d="M768,12L768,12L780,12L780,84L768,84Z" class="start"></path></g>
 <rect opacity=".3" fill="url(#grid)" height="100%" width="100%" y="0" x="0"></rect>
</svg>