<svg xmlns:xlink="http://www.w3.org/1999/xlink" xmlns="http://www.w3.org/2000/svg" height="1080" width="1440" id="mapSvgView" version="1.1" style="width: 1440px; height: 1080px;" viewBox="0 0 1440 1080">
 <defs>
 <pattern y="0" x="0" height="24" width="24" patternUnits="userSpaceOnUse" id="grassPattern">
 <rect class="grasscolor" height="24" width="24" y="0" x="0"></rect>
 <rect class="grassspeclecolor" height="1" width="1" x="1" y="5"></rect>
 <rect class="grassspeclecolor" height="1" width="1" x="1" y="5"></rect>
 <rect class="grassspeclecolor" height="1" width="1" x="3" y="5"></rect>
 <rect class="grassspeclecolor" height="1" width="1" x="6" y="7"></rect>
 <rect class="grassspeclecolor" height="1" width="1" x="6" y="17"></rect>
 <rect class="grassspeclecolor" height="1" width="1" x="8" y="21"></rect>
 <rect class="grassspeclecolor" height="1" width="1" x="9" y="2"></rect>
 <rect class="grassspeclecolor" height="1" width="1" x="12" y="4"></rect>
 <rect class="grassspeclecolor" height="1" width="1" x="13" y="15"></rect>
 <rect class="grassspeclecolor" height="1" width="1" x="14" y="4"></rect>
 <rect class="grassspeclecolor" height="1" width="1" x="14" y="19"></rect>
 <rect class="grassspeclecolor" height="1" width="1" x="17" y="7"></rect>
 <rect class="grassspeclecolor" height="1" width="1" x="17" y="12"></rect>
 <rect class="grassspeclecolor" height="1" width="1" x="18" y="23"></rect>
 <rect class="grassspeclecolor" height="1" width="1" x="21" y="16"></rect>
 <rect class="grassspeclecolor" height="1" width="1" x="23" y="12"></rect>
 </pattern>
 <pattern y="0" x="0" height="24" width="24" patternUnits="userSpaceOnUse" id="roadPattern">
 <rect class="roadcolor" height="24" width="24" y="0" x="0"></rect>
 <rect class="roadspeclecolor" height="1" width="1" x="1" y="5"></rect>
 <rect class="roadspeclecolor" height="1" width="1" x="1" y="5"></rect>
 <rect class="roadspeclecolor" height="1" width="1" x="3" y="5"></rect>
 <rect class="roadspeclecolor" height="1" width="1" x="6" y="7"></rect>
 <rect class="roadspeclecolor" height="1" width="1" x="6" y="17"></rect>
 <rect class="roadspeclecolor" height="1" width="1" x="8" y="21"></rect>
 <rect class="roadspeclecolor" height="1" width="1" x="9" y="2"></rect>
 <rect class="roadspeclecolor" height="1" width="1" x="12" y="4"></rect>
 <rect class="roadspeclecolor" height="1" width="1" x="13" y="15"></rect>
 <rect class="roadspeclecolor" height="1" width="1" x="14" y="4"></rect>
 <rect class="roadspeclecolor" height="1" width="1" x="14" y="19"></rect>
 <rect class="roadspeclecolor" height="1" width="1" x="17" y="7"></rect>
 <rect class="roadspeclecolor" height="1" width="1" x="17" y="12"></rect>
 <rect class="roadspeclecolor" height="1" width="1" x="18" y="23"></rect>
 <rect class="roadspeclecolor" height="1" width="1" x="21" y="16"></rect>
 <rect class="roadspeclecolor" height="1" width="1" x="23" y="12"></rect>
 </pattern>
 <pattern y="0" x="0" height="12" width="12" patternUnits="userSpaceOnUse" id="grid">
 <line stroke-width="1" stroke="black" y2="12" x2="12" y1="0" x1="12"></line>
 <line stroke-width="1" stroke="black" y2="12" x2="12" y1="12" x1="0"></line>
 </pattern>
 <pattern y="0" x="0" height="12" width="12" patternUnits="userSpaceOnUse" id="finishPattern">
 <rect fill="black" height="12" width="12" y="0" x="0"></rect>
 <path fill="white" d="M0,0L3,0L3,3L0,3L0,0M6,0L9,0L9,3L6,3L6,0M3,3L6,3L6,6L3,6L3,3M9,3L12,3L12,6L9,6L9,3"></path>
 <path fill="white" d="M0,6L3,6L3,9L0,9L0,6M6,6L9,6L9,9L6,9L6,6M3,9L6,9L6,12L3,12L3,9M9,9L12,9L12,12L9,12L9,9"></path>
 </pattern>
 <pattern y="0" x="0" height="12" width="12" patternUnits="userSpaceOnUse" id="startPattern">
 <rect fill="rgb(100,100,100)" height="12" width="12" y="0" x="0"></rect>
 <rect stroke-width="1" stroke="rgb(200,200,200)" fill="none" height="5" width="5" y="3.5" x="3.5"></rect>
 </pattern>
 <pattern y="0" x="0" height="12" width="12" patternUnits="userSpaceOnUse" id="cp1pattern">
 <rect class="cp1color" height="12" width="12" y="0" x="0"></rect>
 <path fill="black" d="M0,0L3,0L3,3L0,3L0,0M6,0L9,0L9,3L6,3L6,0M3,3L6,3L6,6L3,6L3,3M9,3L12,3L12,6L9,6L9,3"></path>
 <path fill="black" d="M0,6L3,6L3,9L0,9L0,6M6,6L9,6L9,9L6,9L6,6M3,9L6,9L6,12L3,12L3,9M9,9L12,9L12,12L9,12L9,9"></path>
 </pattern>
 <pattern y="0" x="0" height="12" width="12" patternUnits="userSpaceOnUse" id="cp2pattern">
 <rect class="cp2color" height="12" width="12" y="0" x="0"></rect>
 <path fill="white" d="M0,0L3,0L3,3L0,3L0,0M6,0L9,0L9,3L6,3L6,0M3,3L6,3L6,6L3,6L3,3M9,3L12,3L12,6L9,6L9,3"></path>
 <path fill="white" d="M0,6L3,6L3,9L0,9L0,6M6,6L9,6L9,9L6,9L6,6M3,9L6,9L6,12L3,12L3,9M9,9L12,9L12,12L9,12L9,9"></path>
 </pattern>
 <pattern y="0" x="0" height="12" width="12" patternUnits="userSpaceOnUse" id="cp3pattern">
 <rect class="cp3color" height="12" width="12" y="0" x="0"></rect>
 <path fill="black" d="M0,0L3,0L3,3L0,3L0,0M6,0L9,0L9,3L6,3L6,0M3,3L6,3L6,6L3,6L3,3M9,3L12,3L12,6L9,6L9,3"></path>
 <path fill="black" d="M0,6L3,6L3,9L0,9L0,6M6,6L9,6L9,9L6,9L6,6M3,9L6,9L6,12L3,12L3,9M9,9L12,9L12,12L9,12L9,9"></path>
 </pattern>
 <pattern y="0" x="0" height="12" width="12" patternUnits="userSpaceOnUse" id="cp4pattern">
 <rect class="cp4color" height="12" width="12" y="0" x="0"></rect>
 <path fill="white" d="M0,0L3,0L3,3L0,3L0,0M6,0L9,0L9,3L6,3L6,0M3,3L6,3L6,6L3,6L3,3M9,3L12,3L12,6L9,6L9,3"></path>
 <path fill="white" d="M0,6L3,6L3,9L0,9L0,6M6,6L9,6L9,9L6,9L6,6M3,9L6,9L6,12L3,12L3,9M9,9L12,9L12,12L9,12L9,9"></path>
 </pattern>
 <pattern y="0" x="0" height="12" width="12" patternUnits="userSpaceOnUse" id="cp5pattern">
 <rect class="cp5color" height="12" width="12" y="0" x="0"></rect>
 <path fill="black" d="M0,0L3,0L3,3L0,3L0,0M6,0L9,0L9,3L6,3L6,0M3,3L6,3L6,6L3,6L3,3M9,3L12,3L12,6L9,6L9,3"></path>
 <path fill="black" d="M0,6L3,6L3,9L0,9L0,6M6,6L9,6L9,9L6,9L6,6M3,9L6,9L6,12L3,12L3,9M9,9L12,9L12,12L9,12L9,9"></path>
 </pattern>
 <pattern y="0" x="0" height="12" width="12" patternUnits="userSpaceOnUse" id="cp6pattern">
 <rect class="cp6color" height="12" width="12" y="0" x="0"></rect>
 <path fill="white" d="M0,0L3,0L3,3L0,3L0,0M6,0L9,0L9,3L6,3L6,0M3,3L6,3L6,6L3,6L3,3M9,3L12,3L12,6L9,6L9,3"></path>
 <path fill="white" d="M0,6L3,6L3,9L0,9L0,6M6,6L9,6L9,9L6,9L6,6M3,9L6,9L6,12L3,12L3,9M9,9L12,9L12,12L9,12L9,9"></path>
 </pattern>
 <pattern y="0" x="0" height="12" width="12" patternUnits="userSpaceOnUse" id="cp7pattern">
 <rect class="cp7color" height="12" width="12" y="0" x="0"></rect>
 <path fill="black" d="M0,0L3,0L3,3L0,3L0,0M6,0L9,0L9,3L6,3L6,0M3,3L6,3L6,6L3,6L3,3M9,3L12,3L12,6L9,6L9,3"></path>
 <path fill="black" d="M0,6L3,6L3,9L0,9L0,6M6,6L9,6L9,9L6,9L6,6M3,9L6,9L6,12L3,12L3,9M9,9L12,9L12,12L9,12L9,9"></path>
 </pattern>
 <pattern y="0" x="0" height="12" width="12" patternUnits="userSpaceOnUse" id="cp8pattern">
 <rect class="cp8color" height="12" width="12" y="0" x="0"></rect>
 <path fill="white" d="M0,0L3,0L3,3L0,3L0,0M6,0L9,0L9,3L6,3L6,0M3,3L6,3L6,6L3,6L3,3M9,3L12,3L12,6L9,6L9,3"></path>
 <path fill="white" d="M0,6L3,6L3,9L0,9L0,6M6,6L9,6L9,9L6,9L6,6M3,9L6,9L6,12L3,12L3,9M9,9L12,9L12,12L9,12L9,9"></path>
 </pattern>
 <pattern y="0" x="0" height="12" width="12" patternUnits="userSpaceOnUse" id="cp9pattern">
 <rect class="cp9color" height="12" width="12" y="0" x="0"></rect>
 <path fill="black" d="M0,0L3,0L3,3L0,3L0,0M6,0L9,0L9,3L6,3L6,0M3,3L6,3L6,6L3,6L3,3M9,3L12,3L12,6L9,6L9,3"></path>
 <path fill="black" d="M0,6L3,6L3,9L0,9L0,6M6,6L9,6L9,9L6,9L6,6M3,9L6,9L6,12L3,12L3,9M9,9L12,9L12,12L9,12L9,9"></path>
 </pattern>
 </defs>
 <rect height="100%" width="100%" y="0" x="0" class="grass" id="mainfill"></rect>
 <g id="paths"><path d="M204,12L204,12L228,12L228,24L240,24L240,36L264,36L264,24L300,24L300,36L312,36L312,48L324,48L324,60L336,60L336,72L348,72L348,96L336,96L336,108L300,108L300,120L288,120L288,132L276,132L276,144L264,144L264,192L348,192L348,180L360,180L360,168L372,168L372,156L396,156L396,144L420,144L420,168L444,168L444,180L492,180L492,168L600,168L600,180L624,180L624,192L612,192L612,204L600,204L600,252L588,252L588,264L576,264L576,288L600,288L600,276L636,276L636,264L648,264L648,288L660,288L660,300L672,300L672,324L660,324L660,348L708,348L708,336L720,336L720,312L732,312L732,288L720,288L720,264L708,264L708,252L720,252L720,240L732,240L732,228L744,228L744,216L756,216L756,204L768,204L768,192L876,192L876,180L1152,180L1152,168L1224,168L1224,180L1212,180L1212,192L1200,192L1200,228L1212,228L1212,240L1248,240L1248,252L1236,252L1236,264L1212,264L1212,276L1200,276L1200,288L1188,288L1188,324L1176,324L1176,348L1224,348L1224,336L1236,336L1236,312L1248,312L1248,300L1320,300L1320,288L1344,288L1344,276L1356,276L1356,264L1368,264L1368,240L1356,240L1356,228L1344,228L1344,216L1332,216L1332,180L1344,180L1344,192L1368,192L1368,204L1380,204L1380,216L1392,216L1392,228L1404,228L1404,252L1416,252L1416,276L1428,276L1428,504L1416,504L1416,648L1428,648L1428,840L1416,840L1416,876L1404,876L1404,888L1368,888L1368,852L1356,852L1356,720L1368,720L1368,660L1380,660L1380,456L1368,456L1368,420L1356,420L1356,384L1368,384L1368,360L1332,360L1332,372L1308,372L1308,384L1296,384L1296,396L1284,396L1284,408L1236,408L1236,420L1224,420L1224,432L1212,432L1212,456L1224,456L1224,468L1236,468L1236,480L1272,480L1272,468L1284,468L1284,492L1320,492L1320,504L1344,504L1344,516L1332,516L1332,600L1344,600L1344,672L1320,672L1320,660L1308,660L1308,648L1260,648L1260,660L1248,660L1248,672L1200,672L1200,684L1188,684L1188,696L1176,696L1176,708L1164,708L1164,732L1224,732L1224,720L1248,720L1248,732L1308,732L1308,720L1332,720L1332,708L1344,708L1344,792L1332,792L1332,816L1320,816L1320,864L1308,864L1308,972L1320,972L1320,996L1308,996L1308,1008L1296,1008L1296,1068L1200,1068L1200,1044L1212,1044L1212,1020L1224,1020L1224,996L1236,996L1236,876L1224,876L1224,864L1212,864L1212,852L1236,852L1236,840L1248,840L1248,804L1260,804L1260,780L1224,780L1224,792L1200,792L1200,804L1188,804L1188,780L1152,780L1152,756L1140,756L1140,744L1116,744L1116,756L1104,756L1104,768L1092,768L1092,804L1104,804L1104,816L1140,816L1140,828L1212,828L1212,840L1200,840L1200,852L1188,852L1188,864L1176,864L1176,888L1164,888L1164,900L1140,900L1140,852L1128,852L1128,876L1116,876L1116,888L1092,888L1092,852L1068,852L1068,864L1056,864L1056,876L1032,876L1032,792L1020,792L1020,780L1008,780L1008,756L996,756L996,744L960,744L960,720L948,720L948,708L924,708L924,672L912,672L912,684L900,684L900,696L888,696L888,720L876,720L876,756L804,756L804,744L816,744L816,732L804,732L804,720L792,720L792,708L780,708L780,696L768,696L768,672L780,672L780,648L768,648L768,660L756,660L756,672L744,672L744,684L732,684L732,720L708,720L708,732L696,732L696,744L672,744L672,732L648,732L648,756L636,756L636,732L624,732L624,720L612,720L612,696L588,696L588,684L564,684L564,672L516,672L516,684L504,684L504,732L528,732L528,744L540,744L540,756L552,756L552,780L564,780L564,804L552,804L552,816L576,816L576,864L564,864L564,912L552,912L552,936L564,936L564,972L576,972L576,1020L552,1020L552,1068L444,1068L444,1044L456,1044L456,1020L468,1020L468,1008L480,1008L480,984L492,984L492,888L480,888L480,864L468,864L468,828L480,828L480,864L492,864L492,804L480,804L480,780L468,780L468,732L456,732L456,708L444,708L444,696L432,696L432,660L420,660L420,648L408,648L408,624L396,624L396,612L384,612L384,600L372,600L372,576L360,576L360,564L348,564L348,552L336,552L336,540L348,540L348,528L360,528L360,516L384,516L384,504L396,504L396,492L408,492L408,480L432,480L432,468L456,468L456,456L468,456L468,468L492,468L492,456L504,456L504,384L516,384L516,372L528,372L528,360L540,360L540,348L552,348L552,312L540,312L540,300L528,300L528,276L504,276L504,288L492,288L492,300L480,300L480,360L468,360L468,372L456,372L456,384L444,384L444,420L432,420L432,432L408,432L408,444L396,444L396,456L384,456L384,468L372,468L372,480L360,480L360,492L348,492L348,504L312,504L312,444L300,444L300,432L288,432L288,396L276,396L276,384L264,384L264,372L252,372L252,360L204,360L204,348L216,348L216,324L228,324L228,312L240,312L240,288L252,288L252,276L264,276L264,264L276,264L276,252L324,252L324,240L336,240L336,228L312,228L312,216L276,216L276,228L264,228L264,240L252,240L252,252L240,252L240,276L228,276L228,252L192,252L192,240L168,240L168,216L156,216L156,204L144,204L144,216L132,216L132,228L120,228L120,240L132,240L132,264L156,264L156,276L192,276L192,312L180,312L180,324L168,324L168,360L96,360L96,372L60,372L60,360L48,360L48,348L36,348L36,336L24,336L24,312L12,312L12,252L24,252L24,240L36,240L36,228L48,228L48,216L60,216L60,204L72,204L72,192L84,192L84,180L96,180L96,168L108,168L108,156L120,156L120,144L132,144L132,156L144,156L144,168L180,168L180,180L192,180L192,204L216,204L216,192L228,192L228,156L240,156L240,120L252,120L252,108L264,108L264,96L276,96L276,60L252,60L252,72L240,72L240,84L228,84L228,96L216,96L216,108L204,108L204,132L180,132L180,120L168,120L168,108L180,108L180,96L192,96L192,84L204,84L204,12M360,96L360,96L372,96L372,108L384,108L384,120L396,120L396,132L372,132L372,144L360,144L360,132L336,132L336,120L348,120L348,108L360,108L360,96M1272,168L1272,168L1296,168L1296,180L1320,180L1320,192L1308,192L1308,204L1296,204L1296,216L1272,216L1272,204L1260,204L1260,192L1272,192L1272,168M516,192L516,192L504,192L504,204L492,204L492,216L420,216L420,228L408,228L408,216L396,216L396,228L384,228L384,240L372,240L372,252L384,252L384,264L396,264L396,276L408,276L408,300L420,300L420,324L444,324L444,312L456,312L456,276L480,276L480,264L492,264L492,240L516,240L516,228L528,228L528,216L540,216L540,192L516,192M708,192L708,192L744,192L744,204L732,204L732,216L720,216L720,228L708,228L708,240L684,240L684,228L672,228L672,216L696,216L696,204L708,204L708,192M1104,216L1104,216L1092,216L1092,228L1056,228L1056,240L1044,240L1044,252L996,252L996,240L984,240L984,252L972,252L972,264L960,264L960,288L948,288L948,312L960,312L960,324L972,324L972,336L984,336L984,348L1008,348L1008,336L1020,336L1020,312L1032,312L1032,300L1044,300L1044,288L1104,288L1104,276L1116,276L1116,264L1128,264L1128,252L1140,252L1140,228L1104,228L1104,216M864,228L864,228L852,228L852,240L840,240L840,252L828,252L828,264L816,264L816,276L780,276L780,288L768,288L768,300L756,300L756,312L768,312L768,324L780,324L780,348L768,348L768,372L756,372L756,384L768,384L768,408L804,408L804,396L816,396L816,384L828,384L828,372L840,372L840,360L852,360L852,336L876,336L876,324L888,324L888,312L900,312L900,264L876,264L876,240L864,240L864,228M84,252L84,252L72,252L72,264L60,264L60,276L48,276L48,288L36,288L36,324L60,324L60,336L96,336L96,324L108,324L108,312L120,312L120,288L96,288L96,276L84,276L84,264L96,264L96,252L84,252M456,240L456,240L468,240L468,252L456,252L456,240M312,288L312,288L300,288L300,300L288,300L288,312L276,312L276,336L288,336L288,348L312,348L312,360L324,360L324,372L336,372L336,384L324,384L324,408L384,408L384,396L396,396L396,384L408,384L408,372L420,372L420,336L396,336L396,324L372,324L372,312L360,312L360,300L348,300L348,288L312,288M636,300L636,300L624,300L624,312L612,312L612,324L600,324L600,348L588,348L588,372L576,372L576,384L564,384L564,420L552,420L552,444L540,444L540,456L576,456L576,444L588,444L588,456L600,456L600,480L624,480L624,468L636,468L636,456L684,456L684,444L696,444L696,408L708,408L708,384L696,384L696,396L648,396L648,384L636,384L636,360L624,360L624,336L636,336L636,300M1080,324L1080,324L1068,324L1068,336L1056,336L1056,348L1044,348L1044,396L1020,396L1020,408L1008,408L1008,420L996,420L996,456L1008,456L1008,468L1032,468L1032,480L1044,480L1044,492L1056,492L1056,504L1104,504L1104,492L1116,492L1116,480L1128,480L1128,468L1140,468L1140,456L1152,456L1152,420L1164,420L1164,408L1176,408L1176,384L1140,384L1140,360L1128,360L1128,336L1116,336L1116,324L1080,324M936,360L936,360L924,360L924,372L912,372L912,384L900,384L900,396L888,396L888,408L876,408L876,420L864,420L864,432L852,432L852,468L840,468L840,504L828,504L828,516L840,516L840,540L852,540L852,552L876,552L876,540L912,540L912,528L924,528L924,504L948,504L948,492L960,492L960,420L972,420L972,408L984,408L984,372L960,372L960,360L936,360M768,444L768,444L756,444L756,456L732,456L732,468L720,468L720,480L708,480L708,504L696,504L696,516L684,516L684,540L672,540L672,552L660,552L660,564L708,564L708,552L732,552L732,564L744,564L744,576L756,576L756,600L768,600L768,624L804,624L804,636L816,636L816,648L828,648L828,672L840,672L840,684L864,684L864,672L876,672L876,624L888,624L888,600L876,600L876,588L852,588L852,600L828,600L828,588L816,588L816,576L804,576L804,564L792,564L792,552L780,552L780,528L792,528L792,516L804,516L804,480L816,480L816,456L804,456L804,444L768,444M492,492L492,492L480,492L480,504L468,504L468,516L420,516L420,528L408,528L408,540L396,540L396,576L408,576L408,588L420,588L420,612L432,612L432,624L444,624L444,636L456,636L456,648L504,648L504,636L516,636L516,612L504,612L504,576L492,576L492,540L504,540L504,492L492,492M1176,492L1176,492L1164,492L1164,504L1140,504L1140,516L1128,516L1128,528L1116,528L1116,540L1104,540L1104,576L1128,576L1128,588L1140,588L1140,612L1128,612L1128,624L1140,624L1140,636L1188,636L1188,624L1212,624L1212,612L1224,612L1224,588L1212,588L1212,576L1236,576L1236,564L1248,564L1248,516L1212,516L1212,504L1188,504L1188,492L1176,492M624,504L624,504L612,504L612,516L600,516L600,528L552,528L552,540L540,540L540,552L528,552L528,588L540,588L540,600L552,600L552,612L564,612L564,624L588,624L588,636L612,636L612,648L636,648L636,660L660,660L660,672L684,672L684,684L720,684L720,672L732,672L732,660L720,660L720,648L696,648L696,624L684,624L684,612L648,612L648,600L636,600L636,576L624,576L624,588L612,588L612,576L600,576L600,564L624,564L624,552L636,552L636,540L612,540L612,528L636,528L636,516L648,516L648,504L624,504M996,516L996,516L984,516L984,528L972,528L972,540L960,540L960,552L948,552L948,576L936,576L936,588L924,588L924,600L936,600L936,612L948,612L948,624L960,624L960,672L996,672L996,720L1008,720L1008,732L1020,732L1020,756L1068,756L1068,744L1080,744L1080,732L1092,732L1092,708L1104,708L1104,696L1116,696L1116,648L1104,648L1104,636L1092,636L1092,624L1080,624L1080,600L1092,600L1092,564L1056,564L1056,552L1044,552L1044,528L1020,528L1020,516L996,516M504,612L504,612L504,624L492,624L492,612L504,612M12,924L12,924L84,924L84,1068L36,1068L36,1056L60,1056L60,1044L72,1044L72,936L36,936L36,948L24,948L24,960L12,960L12,924M108,924L108,924L180,924L180,960L168,960L168,948L156,948L156,936L120,936L120,1044L132,1044L132,1056L156,1056L156,1068L108,1068Z" class="road"></path><path d="M480,996L480,996L576,996L576,1008L480,1008Z" class="cp1"></path><path d="M1224,996L1224,996L1308,996L1308,1008L1224,1008Z" class="cp2"></path><path d="M24,324L24,324L48,324L48,336L60,336L60,348L72,348L72,372L60,372L60,360L48,360L48,348L36,348L36,336L24,336Z" class="cp3"></path><path d="M504,168L504,168L540,168L540,192L504,192Z" class="cp4"></path><path d="M1080,180L1080,180L1116,180L1116,228L1104,228L1104,216L1092,216L1092,228L1080,228Z" class="cp5"></path><path d="M780,624L780,624L804,624L804,648L792,648L792,660L780,660L780,648L768,648L768,636L780,636L780,624M768,648L768,648L768,660L756,660L756,648Z" class="cp6"></path><path d="M0,0L0,0L12,0L12,192L0,192Z" class="parc"></path><path d="M1368,864L1368,864L1416,864L1416,876L1404,876L1404,888L1368,888Z" class="finish"></path><path d="M456,1056L456,1056L552,1056L552,1068L456,1068L456,1056M1200,1056L1200,1056L1296,1056L1296,1068L1200,1068Z" class="start"></path></g>
 <rect opacity=".3" fill="url(#grid)" height="100%" width="100%" y="0" x="0"></rect>
</svg>