<svg xmlns:xlink="http://www.w3.org/1999/xlink" xmlns="http://www.w3.org/2000/svg" height="780" width="780" id="mapSvgView" version="1.1" style="width: 780px; height: 780px;" viewBox="0 0 780 780">
 <defs>
 <pattern y="0" x="0" height="24" width="24" patternUnits="userSpaceOnUse" id="grassPattern">
 <rect class="grasscolor" height="24" width="24" y="0" x="0"></rect>
 <rect class="grassspeclecolor" height="1" width="1" x="1" y="5"></rect>
 <rect class="grassspeclecolor" height="1" width="1" x="1" y="5"></rect>
 <rect class="grassspeclecolor" height="1" width="1" x="3" y="5"></rect>
 <rect class="grassspeclecolor" height="1" width="1" x="6" y="7"></rect>
 <rect class="grassspeclecolor" height="1" width="1" x="6" y="17"></rect>
 <rect class="grassspeclecolor" height="1" width="1" x="8" y="21"></rect>
 <rect class="grassspeclecolor" height="1" width="1" x="9" y="2"></rect>
 <rect class="grassspeclecolor" height="1" width="1" x="12" y="4"></rect>
 <rect class="grassspeclecolor" height="1" width="1" x="13" y="15"></rect>
 <rect class="grassspeclecolor" height="1" width="1" x="14" y="4"></rect>
 <rect class="grassspeclecolor" height="1" width="1" x="14" y="19"></rect>
 <rect class="grassspeclecolor" height="1" width="1" x="17" y="7"></rect>
 <rect class="grassspeclecolor" height="1" width="1" x="17" y="12"></rect>
 <rect class="grassspeclecolor" height="1" width="1" x="18" y="23"></rect>
 <rect class="grassspeclecolor" height="1" width="1" x="21" y="16"></rect>
 <rect class="grassspeclecolor" height="1" width="1" x="23" y="12"></rect>
 </pattern>
 <pattern y="0" x="0" height="24" width="24" patternUnits="userSpaceOnUse" id="roadPattern">
 <rect class="roadcolor" height="24" width="24" y="0" x="0"></rect>
 <rect class="roadspeclecolor" height="1" width="1" x="1" y="5"></rect>
 <rect class="roadspeclecolor" height="1" width="1" x="1" y="5"></rect>
 <rect class="roadspeclecolor" height="1" width="1" x="3" y="5"></rect>
 <rect class="roadspeclecolor" height="1" width="1" x="6" y="7"></rect>
 <rect class="roadspeclecolor" height="1" width="1" x="6" y="17"></rect>
 <rect class="roadspeclecolor" height="1" width="1" x="8" y="21"></rect>
 <rect class="roadspeclecolor" height="1" width="1" x="9" y="2"></rect>
 <rect class="roadspeclecolor" height="1" width="1" x="12" y="4"></rect>
 <rect class="roadspeclecolor" height="1" width="1" x="13" y="15"></rect>
 <rect class="roadspeclecolor" height="1" width="1" x="14" y="4"></rect>
 <rect class="roadspeclecolor" height="1" width="1" x="14" y="19"></rect>
 <rect class="roadspeclecolor" height="1" width="1" x="17" y="7"></rect>
 <rect class="roadspeclecolor" height="1" width="1" x="17" y="12"></rect>
 <rect class="roadspeclecolor" height="1" width="1" x="18" y="23"></rect>
 <rect class="roadspeclecolor" height="1" width="1" x="21" y="16"></rect>
 <rect class="roadspeclecolor" height="1" width="1" x="23" y="12"></rect>
 </pattern>
 <pattern y="0" x="0" height="12" width="12" patternUnits="userSpaceOnUse" id="grid">
 <line stroke-width="1" stroke="black" y2="12" x2="12" y1="0" x1="12"></line>
 <line stroke-width="1" stroke="black" y2="12" x2="12" y1="12" x1="0"></line>
 </pattern>
 <pattern y="0" x="0" height="12" width="12" patternUnits="userSpaceOnUse" id="finishPattern">
 <rect fill="black" height="12" width="12" y="0" x="0"></rect>
 <path fill="white" d="M0,0L3,0L3,3L0,3L0,0M6,0L9,0L9,3L6,3L6,0M3,3L6,3L6,6L3,6L3,3M9,3L12,3L12,6L9,6L9,3"></path>
 <path fill="white" d="M0,6L3,6L3,9L0,9L0,6M6,6L9,6L9,9L6,9L6,6M3,9L6,9L6,12L3,12L3,9M9,9L12,9L12,12L9,12L9,9"></path>
 </pattern>
 <pattern y="0" x="0" height="12" width="12" patternUnits="userSpaceOnUse" id="startPattern">
 <rect fill="rgb(100,100,100)" height="12" width="12" y="0" x="0"></rect>
 <rect stroke-width="1" stroke="rgb(200,200,200)" fill="none" height="5" width="5" y="3.5" x="3.5"></rect>
 </pattern>
 <pattern y="0" x="0" height="12" width="12" patternUnits="userSpaceOnUse" id="cp1pattern">
 <rect class="cp1color" height="12" width="12" y="0" x="0"></rect>
 <path fill="black" d="M0,0L3,0L3,3L0,3L0,0M6,0L9,0L9,3L6,3L6,0M3,3L6,3L6,6L3,6L3,3M9,3L12,3L12,6L9,6L9,3"></path>
 <path fill="black" d="M0,6L3,6L3,9L0,9L0,6M6,6L9,6L9,9L6,9L6,6M3,9L6,9L6,12L3,12L3,9M9,9L12,9L12,12L9,12L9,9"></path>
 </pattern>
 <pattern y="0" x="0" height="12" width="12" patternUnits="userSpaceOnUse" id="cp2pattern">
 <rect class="cp2color" height="12" width="12" y="0" x="0"></rect>
 <path fill="white" d="M0,0L3,0L3,3L0,3L0,0M6,0L9,0L9,3L6,3L6,0M3,3L6,3L6,6L3,6L3,3M9,3L12,3L12,6L9,6L9,3"></path>
 <path fill="white" d="M0,6L3,6L3,9L0,9L0,6M6,6L9,6L9,9L6,9L6,6M3,9L6,9L6,12L3,12L3,9M9,9L12,9L12,12L9,12L9,9"></path>
 </pattern>
 <pattern y="0" x="0" height="12" width="12" patternUnits="userSpaceOnUse" id="cp3pattern">
 <rect class="cp3color" height="12" width="12" y="0" x="0"></rect>
 <path fill="black" d="M0,0L3,0L3,3L0,3L0,0M6,0L9,0L9,3L6,3L6,0M3,3L6,3L6,6L3,6L3,3M9,3L12,3L12,6L9,6L9,3"></path>
 <path fill="black" d="M0,6L3,6L3,9L0,9L0,6M6,6L9,6L9,9L6,9L6,6M3,9L6,9L6,12L3,12L3,9M9,9L12,9L12,12L9,12L9,9"></path>
 </pattern>
 <pattern y="0" x="0" height="12" width="12" patternUnits="userSpaceOnUse" id="cp4pattern">
 <rect class="cp4color" height="12" width="12" y="0" x="0"></rect>
 <path fill="white" d="M0,0L3,0L3,3L0,3L0,0M6,0L9,0L9,3L6,3L6,0M3,3L6,3L6,6L3,6L3,3M9,3L12,3L12,6L9,6L9,3"></path>
 <path fill="white" d="M0,6L3,6L3,9L0,9L0,6M6,6L9,6L9,9L6,9L6,6M3,9L6,9L6,12L3,12L3,9M9,9L12,9L12,12L9,12L9,9"></path>
 </pattern>
 <pattern y="0" x="0" height="12" width="12" patternUnits="userSpaceOnUse" id="cp5pattern">
 <rect class="cp5color" height="12" width="12" y="0" x="0"></rect>
 <path fill="black" d="M0,0L3,0L3,3L0,3L0,0M6,0L9,0L9,3L6,3L6,0M3,3L6,3L6,6L3,6L3,3M9,3L12,3L12,6L9,6L9,3"></path>
 <path fill="black" d="M0,6L3,6L3,9L0,9L0,6M6,6L9,6L9,9L6,9L6,6M3,9L6,9L6,12L3,12L3,9M9,9L12,9L12,12L9,12L9,9"></path>
 </pattern>
 <pattern y="0" x="0" height="12" width="12" patternUnits="userSpaceOnUse" id="cp6pattern">
 <rect class="cp6color" height="12" width="12" y="0" x="0"></rect>
 <path fill="white" d="M0,0L3,0L3,3L0,3L0,0M6,0L9,0L9,3L6,3L6,0M3,3L6,3L6,6L3,6L3,3M9,3L12,3L12,6L9,6L9,3"></path>
 <path fill="white" d="M0,6L3,6L3,9L0,9L0,6M6,6L9,6L9,9L6,9L6,6M3,9L6,9L6,12L3,12L3,9M9,9L12,9L12,12L9,12L9,9"></path>
 </pattern>
 <pattern y="0" x="0" height="12" width="12" patternUnits="userSpaceOnUse" id="cp7pattern">
 <rect class="cp7color" height="12" width="12" y="0" x="0"></rect>
 <path fill="black" d="M0,0L3,0L3,3L0,3L0,0M6,0L9,0L9,3L6,3L6,0M3,3L6,3L6,6L3,6L3,3M9,3L12,3L12,6L9,6L9,3"></path>
 <path fill="black" d="M0,6L3,6L3,9L0,9L0,6M6,6L9,6L9,9L6,9L6,6M3,9L6,9L6,12L3,12L3,9M9,9L12,9L12,12L9,12L9,9"></path>
 </pattern>
 <pattern y="0" x="0" height="12" width="12" patternUnits="userSpaceOnUse" id="cp8pattern">
 <rect class="cp8color" height="12" width="12" y="0" x="0"></rect>
 <path fill="white" d="M0,0L3,0L3,3L0,3L0,0M6,0L9,0L9,3L6,3L6,0M3,3L6,3L6,6L3,6L3,3M9,3L12,3L12,6L9,6L9,3"></path>
 <path fill="white" d="M0,6L3,6L3,9L0,9L0,6M6,6L9,6L9,9L6,9L6,6M3,9L6,9L6,12L3,12L3,9M9,9L12,9L12,12L9,12L9,9"></path>
 </pattern>
 <pattern y="0" x="0" height="12" width="12" patternUnits="userSpaceOnUse" id="cp9pattern">
 <rect class="cp9color" height="12" width="12" y="0" x="0"></rect>
 <path fill="black" d="M0,0L3,0L3,3L0,3L0,0M6,0L9,0L9,3L6,3L6,0M3,3L6,3L6,6L3,6L3,3M9,3L12,3L12,6L9,6L9,3"></path>
 <path fill="black" d="M0,6L3,6L3,9L0,9L0,6M6,6L9,6L9,9L6,9L6,6M3,9L6,9L6,12L3,12L3,9M9,9L12,9L12,12L9,12L9,9"></path>
 </pattern>
 </defs>
 <rect height="100%" width="100%" y="0" x="0" class="grass" id="mainfill"></rect>
 <g id="paths"><path d="M360,12L360,12L420,12L420,24L444,24L444,36L456,36L456,48L468,48L468,60L480,60L480,96L492,96L492,204L480,204L480,288L468,288L468,300L492,300L492,288L516,288L516,276L528,276L528,264L552,264L552,252L564,252L564,240L576,240L576,228L660,228L660,240L684,240L684,252L696,252L696,264L708,264L708,276L720,276L720,288L732,288L732,300L744,300L744,324L756,324L756,336L768,336L768,444L756,444L756,468L744,468L744,516L732,516L732,540L720,540L720,552L708,552L708,576L696,576L696,588L684,588L684,600L672,600L672,612L660,612L660,624L648,624L648,636L636,636L636,684L624,684L624,696L612,696L612,708L600,708L600,720L588,720L588,732L576,732L576,744L564,744L564,756L516,756L516,768L264,768L264,756L216,756L216,744L204,744L204,732L192,732L192,720L180,720L180,708L168,708L168,696L156,696L156,684L144,684L144,636L132,636L132,624L120,624L120,612L108,612L108,600L96,600L96,588L84,588L84,576L72,576L72,552L60,552L60,540L48,540L48,516L36,516L36,468L24,468L24,444L12,444L12,336L24,336L24,324L36,324L36,300L48,300L48,288L60,288L60,276L72,276L72,264L84,264L84,252L96,252L96,240L120,240L120,228L204,228L204,240L216,240L216,252L228,252L228,264L252,264L252,276L264,276L264,288L288,288L288,300L312,300L312,288L300,288L300,204L288,204L288,96L300,96L300,60L312,60L312,48L324,48L324,36L336,36L336,24L360,24L360,12M384,36L384,36L372,36L372,48L360,48L360,60L336,60L336,96L324,96L324,180L336,180L336,252L348,252L348,264L360,264L360,300L348,300L348,312L360,312L360,324L420,324L420,312L432,312L432,300L420,300L420,264L432,264L432,252L444,252L444,180L456,180L456,96L444,96L444,60L420,60L420,48L408,48L408,36L384,36M132,264L132,264L120,264L120,276L108,276L108,288L84,288L84,300L72,300L72,324L60,324L60,348L48,348L48,420L60,420L60,444L72,444L72,504L84,504L84,540L96,540L96,552L108,552L108,564L120,564L120,576L132,576L132,588L144,588L144,516L156,516L156,504L168,504L168,492L180,492L180,480L216,480L216,468L228,468L228,444L240,444L240,432L252,432L252,420L264,420L264,408L276,408L276,396L288,396L288,384L300,384L300,372L336,372L336,360L444,360L444,372L480,372L480,384L492,384L492,396L504,396L504,408L516,408L516,420L528,420L528,432L540,432L540,444L552,444L552,468L564,468L564,480L600,480L600,492L612,492L612,504L624,504L624,516L636,516L636,588L648,588L648,576L660,576L660,564L672,564L672,552L684,552L684,540L696,540L696,504L708,504L708,444L720,444L720,420L732,420L732,348L720,348L720,324L708,324L708,300L696,300L696,288L672,288L672,276L660,276L660,264L576,264L576,276L564,276L564,288L552,288L552,300L540,300L540,312L528,312L528,324L492,324L492,336L444,336L444,348L336,348L336,336L288,336L288,324L252,324L252,312L240,312L240,300L228,300L228,288L216,288L216,276L204,276L204,264L132,264M348,420L348,420L336,420L336,432L312,432L312,444L300,444L300,456L288,456L288,468L276,468L276,540L288,540L288,552L300,552L300,564L312,564L312,576L336,576L336,588L444,588L444,576L468,576L468,564L480,564L480,552L492,552L492,540L504,540L504,468L492,468L492,456L480,456L480,444L468,444L468,432L444,432L444,420L348,420M204,516L204,516L192,516L192,528L180,528L180,612L192,612L192,624L216,624L216,636L228,636L228,648L252,648L252,660L312,660L312,672L336,672L336,684L444,684L444,672L468,672L468,660L528,660L528,648L552,648L552,636L564,636L564,624L588,624L588,612L600,612L600,528L588,528L588,516L564,516L564,540L552,540L552,564L540,564L540,576L528,576L528,588L516,588L516,600L504,600L504,612L492,612L492,624L468,624L468,636L444,636L444,648L336,648L336,636L312,636L312,624L288,624L288,612L276,612L276,600L264,600L264,588L252,588L252,576L240,576L240,564L228,564L228,540L216,540L216,516L204,516M192,660L192,660L180,660L180,672L192,672L192,696L204,696L204,708L216,708L216,720L288,720L288,732L492,732L492,720L564,720L564,708L576,708L576,696L588,696L588,672L600,672L600,660L576,660L576,672L552,672L552,684L528,684L528,696L468,696L468,708L444,708L444,720L336,720L336,708L312,708L312,696L252,696L252,684L228,684L228,672L204,672L204,660Z" class="road"></path><path d="M372,12L372,12L384,12L384,24L372,24L372,12M384,24L384,24L396,24L396,12L408,12L408,24L396,24L396,36L384,36Z" class="cp1"></path><path d="M372,684L372,684L384,684L384,696L372,696L372,684M384,696L384,696L396,696L396,684L408,684L408,696L396,696L396,708L384,708L384,696M396,708L396,708L408,708L408,720L396,720L396,708M384,708L384,708L384,720L372,720L372,708Z" class="cp2"></path><path d="M372,732L372,732L384,732L384,744L372,744L372,732M384,744L384,744L396,744L396,732L408,732L408,744L396,744L396,756L384,756L384,744M396,756L396,756L408,756L408,768L396,768L396,756M384,756L384,756L384,768L372,768L372,756Z" class="cp3"></path><path d="M0,0L0,0L12,0L12,96L0,96Z" class="parc"></path><path d="M372,36L372,36L408,36L408,48L420,48L420,60L444,60L444,96L456,96L456,180L444,180L444,252L432,252L432,264L420,264L420,300L432,300L432,312L420,312L420,324L360,324L360,312L348,312L348,300L360,300L360,264L348,264L348,252L336,252L336,180L324,180L324,96L336,96L336,60L360,60L360,48L372,48L372,36M336,420L336,420L444,420L444,432L468,432L468,444L480,444L480,456L492,456L492,468L504,468L504,540L492,540L492,552L480,552L480,564L468,564L468,576L444,576L444,588L336,588L336,576L312,576L312,564L300,564L300,552L288,552L288,540L276,540L276,468L288,468L288,456L300,456L300,444L312,444L312,432L336,432Z" class="sand"></path><path d="M120,264L120,264L204,264L204,276L216,276L216,288L228,288L228,300L240,300L240,312L252,312L252,324L288,324L288,336L336,336L336,348L444,348L444,336L492,336L492,324L528,324L528,312L540,312L540,300L552,300L552,288L564,288L564,276L576,276L576,264L660,264L660,276L672,276L672,288L696,288L696,300L708,300L708,324L720,324L720,348L732,348L732,420L720,420L720,444L708,444L708,504L696,504L696,540L684,540L684,552L672,552L672,564L660,564L660,576L648,576L648,588L636,588L636,516L624,516L624,504L612,504L612,492L600,492L600,480L564,480L564,468L552,468L552,444L540,444L540,432L528,432L528,420L516,420L516,408L504,408L504,396L492,396L492,384L480,384L480,372L444,372L444,360L336,360L336,372L300,372L300,384L288,384L288,396L276,396L276,408L264,408L264,420L252,420L252,432L240,432L240,444L228,444L228,468L216,468L216,480L180,480L180,492L168,492L168,504L156,504L156,516L144,516L144,588L132,588L132,576L120,576L120,564L108,564L108,552L96,552L96,540L84,540L84,504L72,504L72,444L60,444L60,420L48,420L48,348L60,348L60,324L72,324L72,300L84,300L84,288L108,288L108,276L120,276L120,264M192,516L192,516L216,516L216,540L228,540L228,564L240,564L240,576L252,576L252,588L264,588L264,600L276,600L276,612L288,612L288,624L312,624L312,636L336,636L336,648L444,648L444,636L468,636L468,624L492,624L492,612L504,612L504,600L516,600L516,588L528,588L528,576L540,576L540,564L552,564L552,540L564,540L564,516L588,516L588,528L600,528L600,612L588,612L588,624L564,624L564,636L552,636L552,648L528,648L528,660L468,660L468,672L444,672L444,684L336,684L336,672L312,672L312,660L252,660L252,648L228,648L228,636L216,636L216,624L192,624L192,612L180,612L180,528L192,528Z" class="mud"></path><path d="M372,360L372,360L384,360L384,372L372,372L372,360M384,372L384,372L396,372L396,360L408,360L408,372L396,372L396,384L384,384L384,372M396,384L396,384L408,384L408,396L396,396L396,384M384,384L384,384L384,396L372,396L372,384L384,384M384,396L384,396L396,396L396,408L384,408L384,396M396,408L396,408L408,408L408,420L396,420L396,408M384,408L384,408L384,420L372,420L372,408Z" class="start"></path><path d="M372,588L372,588L384,588L384,600L372,600L372,588M384,600L384,600L396,600L396,588L408,588L408,600L396,600L396,612L384,612L384,600M396,612L396,612L408,612L408,624L396,624L396,612M384,612L384,612L384,624L372,624L372,612L384,612M384,624L384,624L396,624L396,636L384,636L384,624M396,636L396,636L408,636L408,648L396,648L396,636M384,636L384,636L384,648L372,648L372,636Z" class="finish"></path></g>
 <rect opacity=".3" fill="url(#grid)" height="100%" width="100%" y="0" x="0"></rect>
</svg>