<svg xmlns:xlink="http://www.w3.org/1999/xlink" xmlns="http://www.w3.org/2000/svg" height="780" width="780" id="mapSvgView" version="1.1" style="width: 780px; height: 780px;" viewBox="0 0 780 780">
 <defs>
 <pattern y="0" x="0" height="24" width="24" patternUnits="userSpaceOnUse" id="grassPattern">
 <rect class="grasscolor" height="24" width="24" y="0" x="0"></rect>
 <rect class="grassspeclecolor" height="1" width="1" x="1" y="5"></rect>
 <rect class="grassspeclecolor" height="1" width="1" x="1" y="5"></rect>
 <rect class="grassspeclecolor" height="1" width="1" x="3" y="5"></rect>
 <rect class="grassspeclecolor" height="1" width="1" x="6" y="7"></rect>
 <rect class="grassspeclecolor" height="1" width="1" x="6" y="17"></rect>
 <rect class="grassspeclecolor" height="1" width="1" x="8" y="21"></rect>
 <rect class="grassspeclecolor" height="1" width="1" x="9" y="2"></rect>
 <rect class="grassspeclecolor" height="1" width="1" x="12" y="4"></rect>
 <rect class="grassspeclecolor" height="1" width="1" x="13" y="15"></rect>
 <rect class="grassspeclecolor" height="1" width="1" x="14" y="4"></rect>
 <rect class="grassspeclecolor" height="1" width="1" x="14" y="19"></rect>
 <rect class="grassspeclecolor" height="1" width="1" x="17" y="7"></rect>
 <rect class="grassspeclecolor" height="1" width="1" x="17" y="12"></rect>
 <rect class="grassspeclecolor" height="1" width="1" x="18" y="23"></rect>
 <rect class="grassspeclecolor" height="1" width="1" x="21" y="16"></rect>
 <rect class="grassspeclecolor" height="1" width="1" x="23" y="12"></rect>
 </pattern>
 <pattern y="0" x="0" height="24" width="24" patternUnits="userSpaceOnUse" id="roadPattern">
 <rect class="roadcolor" height="24" width="24" y="0" x="0"></rect>
 <rect class="roadspeclecolor" height="1" width="1" x="1" y="5"></rect>
 <rect class="roadspeclecolor" height="1" width="1" x="1" y="5"></rect>
 <rect class="roadspeclecolor" height="1" width="1" x="3" y="5"></rect>
 <rect class="roadspeclecolor" height="1" width="1" x="6" y="7"></rect>
 <rect class="roadspeclecolor" height="1" width="1" x="6" y="17"></rect>
 <rect class="roadspeclecolor" height="1" width="1" x="8" y="21"></rect>
 <rect class="roadspeclecolor" height="1" width="1" x="9" y="2"></rect>
 <rect class="roadspeclecolor" height="1" width="1" x="12" y="4"></rect>
 <rect class="roadspeclecolor" height="1" width="1" x="13" y="15"></rect>
 <rect class="roadspeclecolor" height="1" width="1" x="14" y="4"></rect>
 <rect class="roadspeclecolor" height="1" width="1" x="14" y="19"></rect>
 <rect class="roadspeclecolor" height="1" width="1" x="17" y="7"></rect>
 <rect class="roadspeclecolor" height="1" width="1" x="17" y="12"></rect>
 <rect class="roadspeclecolor" height="1" width="1" x="18" y="23"></rect>
 <rect class="roadspeclecolor" height="1" width="1" x="21" y="16"></rect>
 <rect class="roadspeclecolor" height="1" width="1" x="23" y="12"></rect>
 </pattern>
 <pattern y="0" x="0" height="12" width="12" patternUnits="userSpaceOnUse" id="grid">
 <line stroke-width="1" stroke="black" y2="12" x2="12" y1="0" x1="12"></line>
 <line stroke-width="1" stroke="black" y2="12" x2="12" y1="12" x1="0"></line>
 </pattern>
 <pattern y="0" x="0" height="12" width="12" patternUnits="userSpaceOnUse" id="finishPattern">
 <rect fill="black" height="12" width="12" y="0" x="0"></rect>
 <path fill="white" d="M0,0L3,0L3,3L0,3L0,0M6,0L9,0L9,3L6,3L6,0M3,3L6,3L6,6L3,6L3,3M9,3L12,3L12,6L9,6L9,3"></path>
 <path fill="white" d="M0,6L3,6L3,9L0,9L0,6M6,6L9,6L9,9L6,9L6,6M3,9L6,9L6,12L3,12L3,9M9,9L12,9L12,12L9,12L9,9"></path>
 </pattern>
 <pattern y="0" x="0" height="12" width="12" patternUnits="userSpaceOnUse" id="startPattern">
 <rect fill="rgb(100,100,100)" height="12" width="12" y="0" x="0"></rect>
 <rect stroke-width="1" stroke="rgb(200,200,200)" fill="none" height="5" width="5" y="3.5" x="3.5"></rect>
 </pattern>
 <pattern y="0" x="0" height="12" width="12" patternUnits="userSpaceOnUse" id="cp1pattern">
 <rect class="cp1color" height="12" width="12" y="0" x="0"></rect>
 <path fill="black" d="M0,0L3,0L3,3L0,3L0,0M6,0L9,0L9,3L6,3L6,0M3,3L6,3L6,6L3,6L3,3M9,3L12,3L12,6L9,6L9,3"></path>
 <path fill="black" d="M0,6L3,6L3,9L0,9L0,6M6,6L9,6L9,9L6,9L6,6M3,9L6,9L6,12L3,12L3,9M9,9L12,9L12,12L9,12L9,9"></path>
 </pattern>
 <pattern y="0" x="0" height="12" width="12" patternUnits="userSpaceOnUse" id="cp2pattern">
 <rect class="cp2color" height="12" width="12" y="0" x="0"></rect>
 <path fill="white" d="M0,0L3,0L3,3L0,3L0,0M6,0L9,0L9,3L6,3L6,0M3,3L6,3L6,6L3,6L3,3M9,3L12,3L12,6L9,6L9,3"></path>
 <path fill="white" d="M0,6L3,6L3,9L0,9L0,6M6,6L9,6L9,9L6,9L6,6M3,9L6,9L6,12L3,12L3,9M9,9L12,9L12,12L9,12L9,9"></path>
 </pattern>
 <pattern y="0" x="0" height="12" width="12" patternUnits="userSpaceOnUse" id="cp3pattern">
 <rect class="cp3color" height="12" width="12" y="0" x="0"></rect>
 <path fill="black" d="M0,0L3,0L3,3L0,3L0,0M6,0L9,0L9,3L6,3L6,0M3,3L6,3L6,6L3,6L3,3M9,3L12,3L12,6L9,6L9,3"></path>
 <path fill="black" d="M0,6L3,6L3,9L0,9L0,6M6,6L9,6L9,9L6,9L6,6M3,9L6,9L6,12L3,12L3,9M9,9L12,9L12,12L9,12L9,9"></path>
 </pattern>
 <pattern y="0" x="0" height="12" width="12" patternUnits="userSpaceOnUse" id="cp4pattern">
 <rect class="cp4color" height="12" width="12" y="0" x="0"></rect>
 <path fill="white" d="M0,0L3,0L3,3L0,3L0,0M6,0L9,0L9,3L6,3L6,0M3,3L6,3L6,6L3,6L3,3M9,3L12,3L12,6L9,6L9,3"></path>
 <path fill="white" d="M0,6L3,6L3,9L0,9L0,6M6,6L9,6L9,9L6,9L6,6M3,9L6,9L6,12L3,12L3,9M9,9L12,9L12,12L9,12L9,9"></path>
 </pattern>
 <pattern y="0" x="0" height="12" width="12" patternUnits="userSpaceOnUse" id="cp5pattern">
 <rect class="cp5color" height="12" width="12" y="0" x="0"></rect>
 <path fill="black" d="M0,0L3,0L3,3L0,3L0,0M6,0L9,0L9,3L6,3L6,0M3,3L6,3L6,6L3,6L3,3M9,3L12,3L12,6L9,6L9,3"></path>
 <path fill="black" d="M0,6L3,6L3,9L0,9L0,6M6,6L9,6L9,9L6,9L6,6M3,9L6,9L6,12L3,12L3,9M9,9L12,9L12,12L9,12L9,9"></path>
 </pattern>
 <pattern y="0" x="0" height="12" width="12" patternUnits="userSpaceOnUse" id="cp6pattern">
 <rect class="cp6color" height="12" width="12" y="0" x="0"></rect>
 <path fill="white" d="M0,0L3,0L3,3L0,3L0,0M6,0L9,0L9,3L6,3L6,0M3,3L6,3L6,6L3,6L3,3M9,3L12,3L12,6L9,6L9,3"></path>
 <path fill="white" d="M0,6L3,6L3,9L0,9L0,6M6,6L9,6L9,9L6,9L6,6M3,9L6,9L6,12L3,12L3,9M9,9L12,9L12,12L9,12L9,9"></path>
 </pattern>
 <pattern y="0" x="0" height="12" width="12" patternUnits="userSpaceOnUse" id="cp7pattern">
 <rect class="cp7color" height="12" width="12" y="0" x="0"></rect>
 <path fill="black" d="M0,0L3,0L3,3L0,3L0,0M6,0L9,0L9,3L6,3L6,0M3,3L6,3L6,6L3,6L3,3M9,3L12,3L12,6L9,6L9,3"></path>
 <path fill="black" d="M0,6L3,6L3,9L0,9L0,6M6,6L9,6L9,9L6,9L6,6M3,9L6,9L6,12L3,12L3,9M9,9L12,9L12,12L9,12L9,9"></path>
 </pattern>
 <pattern y="0" x="0" height="12" width="12" patternUnits="userSpaceOnUse" id="cp8pattern">
 <rect class="cp8color" height="12" width="12" y="0" x="0"></rect>
 <path fill="white" d="M0,0L3,0L3,3L0,3L0,0M6,0L9,0L9,3L6,3L6,0M3,3L6,3L6,6L3,6L3,3M9,3L12,3L12,6L9,6L9,3"></path>
 <path fill="white" d="M0,6L3,6L3,9L0,9L0,6M6,6L9,6L9,9L6,9L6,6M3,9L6,9L6,12L3,12L3,9M9,9L12,9L12,12L9,12L9,9"></path>
 </pattern>
 <pattern y="0" x="0" height="12" width="12" patternUnits="userSpaceOnUse" id="cp9pattern">
 <rect class="cp9color" height="12" width="12" y="0" x="0"></rect>
 <path fill="black" d="M0,0L3,0L3,3L0,3L0,0M6,0L9,0L9,3L6,3L6,0M3,3L6,3L6,6L3,6L3,3M9,3L12,3L12,6L9,6L9,3"></path>
 <path fill="black" d="M0,6L3,6L3,9L0,9L0,6M6,6L9,6L9,9L6,9L6,6M3,9L6,9L6,12L3,12L3,9M9,9L12,9L12,12L9,12L9,9"></path>
 </pattern>
 </defs>
 <rect height="100%" width="100%" y="0" x="0" class="road" id="mainfill"></rect>
 <g id="paths"><path d="M324,12L324,12L456,12L456,24L504,24L504,36L540,36L540,48L564,48L564,60L588,60L588,72L600,72L600,84L624,84L624,96L636,96L636,108L648,108L648,120L660,120L660,132L672,132L672,144L684,144L684,156L696,156L696,180L708,180L708,192L720,192L720,216L732,216L732,240L744,240L744,276L756,276L756,324L768,324L768,456L756,456L756,504L744,504L744,540L732,540L732,564L720,564L720,588L708,588L708,600L696,600L696,624L684,624L684,636L672,636L672,648L660,648L660,660L648,660L648,672L636,672L636,684L624,684L624,696L600,696L600,708L588,708L588,720L564,720L564,732L540,732L540,744L504,744L504,756L456,756L456,768L324,768L324,756L276,756L276,744L240,744L240,732L216,732L216,720L192,720L192,708L180,708L180,696L156,696L156,684L144,684L144,672L132,672L132,660L120,660L120,648L108,648L108,636L96,636L96,624L84,624L84,600L72,600L72,588L60,588L60,564L48,564L48,540L36,540L36,504L24,504L24,456L12,456L12,324L24,324L24,276L36,276L36,240L48,240L48,216L60,216L60,192L72,192L72,180L84,180L84,156L96,156L96,144L108,144L108,132L120,132L120,120L132,120L132,108L144,108L144,96L156,96L156,84L180,84L180,72L192,72L192,60L216,60L216,48L240,48L240,36L276,36L276,24L324,24L324,12M324,48L324,48L312,48L312,60L300,60L300,72L288,72L288,108L300,108L300,120L312,120L312,132L348,132L348,120L360,120L360,108L372,108L372,72L360,72L360,60L348,60L348,48L324,48M444,48L444,48L432,48L432,60L420,60L420,72L408,72L408,108L420,108L420,120L432,120L432,132L468,132L468,120L480,120L480,108L492,108L492,72L480,72L480,60L468,60L468,48L444,48M228,108L228,108L216,108L216,120L204,120L204,132L192,132L192,168L204,168L204,180L216,180L216,192L252,192L252,180L264,180L264,168L276,168L276,132L264,132L264,120L252,120L252,108L228,108M540,108L540,108L528,108L528,120L516,120L516,132L504,132L504,168L516,168L516,180L528,180L528,192L564,192L564,180L576,180L576,168L588,168L588,132L576,132L576,120L564,120L564,108L540,108M144,192L144,192L132,192L132,204L120,204L120,216L108,216L108,252L120,252L120,264L132,264L132,276L168,276L168,264L180,264L180,252L192,252L192,216L180,216L180,204L168,204L168,192L144,192M624,192L624,192L612,192L612,204L600,204L600,216L588,216L588,252L600,252L600,264L612,264L612,276L648,276L648,264L660,264L660,252L672,252L672,216L660,216L660,204L648,204L648,192L624,192M264,228L264,228L252,228L252,240L240,240L240,252L228,252L228,288L240,288L240,300L252,300L252,312L288,312L288,300L300,300L300,288L312,288L312,252L300,252L300,240L288,240L288,228L264,228M504,228L504,228L492,228L492,240L480,240L480,252L468,252L468,288L480,288L480,300L492,300L492,312L528,312L528,300L540,300L540,288L552,288L552,252L540,252L540,240L528,240L528,228L504,228M384,264L384,264L372,264L372,276L360,276L360,288L348,288L348,324L360,324L360,336L372,336L372,348L408,348L408,336L420,336L420,324L432,324L432,288L420,288L420,276L408,276L408,264L384,264M84,288L84,288L72,288L72,300L60,300L60,312L48,312L48,348L60,348L60,360L72,360L72,372L108,372L108,360L120,360L120,348L132,348L132,312L120,312L120,300L108,300L108,288L84,288M684,288L684,288L672,288L672,300L660,300L660,312L648,312L648,348L660,348L660,360L672,360L672,372L708,372L708,360L720,360L720,348L732,348L732,312L720,312L720,300L708,300L708,288L684,288M300,348L300,348L288,348L288,360L276,360L276,372L264,372L264,408L276,408L276,420L288,420L288,432L324,432L324,420L336,420L336,408L348,408L348,372L336,372L336,360L324,360L324,348L300,348M468,348L468,348L456,348L456,360L444,360L444,372L432,372L432,408L444,408L444,420L456,420L456,432L492,432L492,420L504,420L504,408L516,408L516,372L504,372L504,360L492,360L492,348L468,348M84,408L84,408L72,408L72,420L60,420L60,432L48,432L48,468L60,468L60,480L72,480L72,492L108,492L108,480L120,480L120,468L132,468L132,432L120,432L120,420L108,420L108,408L84,408M684,408L684,408L672,408L672,420L660,420L660,432L648,432L648,468L660,468L660,480L672,480L672,492L708,492L708,480L720,480L720,468L732,468L732,432L720,432L720,420L708,420L708,408L684,408M384,432L384,432L372,432L372,444L360,444L360,456L348,456L348,492L360,492L360,504L372,504L372,516L408,516L408,504L420,504L420,492L432,492L432,456L420,456L420,444L408,444L408,432L384,432M264,468L264,468L252,468L252,480L240,480L240,492L228,492L228,528L240,528L240,540L252,540L252,552L288,552L288,540L300,540L300,528L312,528L312,492L300,492L300,480L288,480L288,468L264,468M504,468L504,468L492,468L492,480L480,480L480,492L468,492L468,528L480,528L480,540L492,540L492,552L528,552L528,540L540,540L540,528L552,528L552,492L540,492L540,480L528,480L528,468L504,468M144,504L144,504L132,504L132,516L120,516L120,528L108,528L108,564L120,564L120,576L132,576L132,588L168,588L168,576L180,576L180,564L192,564L192,528L180,528L180,516L168,516L168,504L144,504M624,504L624,504L612,504L612,516L600,516L600,528L588,528L588,564L600,564L600,576L612,576L612,588L648,588L648,576L660,576L660,564L672,564L672,528L660,528L660,516L648,516L648,504L624,504M228,588L228,588L216,588L216,600L204,600L204,612L192,612L192,648L204,648L204,660L216,660L216,672L252,672L252,660L264,660L264,648L276,648L276,612L264,612L264,600L252,600L252,588L228,588M540,588L540,588L528,588L528,600L516,600L516,612L504,612L504,648L516,648L516,660L528,660L528,672L564,672L564,660L576,660L576,648L588,648L588,612L576,612L576,600L564,600L564,588L540,588M324,648L324,648L312,648L312,660L300,660L300,672L288,672L288,708L300,708L300,720L312,720L312,732L348,732L348,720L360,720L360,708L372,708L372,672L360,672L360,660L348,660L348,648L324,648M444,648L444,648L432,648L432,660L420,660L420,672L408,672L408,708L420,708L420,720L432,720L432,732L468,732L468,720L480,720L480,708L492,708L492,672L480,672L480,660L468,660L468,648Z" class="road"></path><path d="M384,372L384,372L396,372L396,384L384,384L384,372M396,384L396,384L408,384L408,396L396,396L396,384M384,384L384,384L384,396L372,396L372,384L384,384M384,396L384,396L396,396L396,408L384,408Z" class="cp1"></path><path d="M168,384L168,384L180,384L180,396L168,396Z" class="cp2"></path><path d="M384,168L384,168L396,168L396,180L384,180Z" class="cp3"></path><path d="M600,384L600,384L612,384L612,396L600,396Z" class="cp4"></path><path d="M384,600L384,600L396,600L396,612L384,612Z" class="cp5"></path><path d="M0,0L0,0L12,0L12,96L0,96Z" class="parc"></path><path d="M12,0L12,0L780,0L780,780L0,780L0,96L12,96L12,0M336,12L336,12L324,12L324,24L276,24L276,36L240,36L240,48L216,48L216,60L192,60L192,72L180,72L180,84L156,84L156,96L144,96L144,108L132,108L132,120L120,120L120,132L108,132L108,144L96,144L96,156L84,156L84,180L72,180L72,192L60,192L60,216L48,216L48,240L36,240L36,276L24,276L24,324L12,324L12,456L24,456L24,504L36,504L36,540L48,540L48,564L60,564L60,588L72,588L72,600L84,600L84,624L96,624L96,636L108,636L108,648L120,648L120,660L132,660L132,672L144,672L144,684L156,684L156,696L180,696L180,708L192,708L192,720L216,720L216,732L240,732L240,744L276,744L276,756L324,756L324,768L456,768L456,756L504,756L504,744L540,744L540,732L564,732L564,720L588,720L588,708L600,708L600,696L624,696L624,684L636,684L636,672L648,672L648,660L660,660L660,648L672,648L672,636L684,636L684,624L696,624L696,600L708,600L708,588L720,588L720,564L732,564L732,540L744,540L744,504L756,504L756,456L768,456L768,324L756,324L756,276L744,276L744,240L732,240L732,216L720,216L720,192L708,192L708,180L696,180L696,156L684,156L684,144L672,144L672,132L660,132L660,120L648,120L648,108L636,108L636,96L624,96L624,84L600,84L600,72L588,72L588,60L564,60L564,48L540,48L540,36L504,36L504,24L456,24L456,12Z" class="grass"></path><path d="M372,24L372,24L384,24L384,36L372,36L372,24M396,24L396,24L408,24L408,36L396,36L396,24M24,372L24,372L36,372L36,384L24,384L24,372M744,372L744,372L756,372L756,384L744,384L744,372M24,396L24,396L36,396L36,408L24,408L24,396M744,396L744,396L756,396L756,408L744,408L744,396M372,744L372,744L384,744L384,756L372,756L372,744M396,744L396,744L408,744L408,756L396,756Z" class="start"></path><path d="M312,48L312,48L348,48L348,60L360,60L360,72L372,72L372,108L360,108L360,120L348,120L348,132L312,132L312,120L300,120L300,108L288,108L288,72L300,72L300,60L312,60L312,48M432,48L432,48L468,48L468,60L480,60L480,72L492,72L492,108L480,108L480,120L468,120L468,132L432,132L432,120L420,120L420,108L408,108L408,72L420,72L420,60L432,60L432,48M216,108L216,108L252,108L252,120L264,120L264,132L276,132L276,168L264,168L264,180L252,180L252,192L216,192L216,180L204,180L204,168L192,168L192,132L204,132L204,120L216,120L216,108M528,108L528,108L564,108L564,120L576,120L576,132L588,132L588,168L576,168L576,180L564,180L564,192L528,192L528,180L516,180L516,168L504,168L504,132L516,132L516,120L528,120L528,108M132,192L132,192L168,192L168,204L180,204L180,216L192,216L192,252L180,252L180,264L168,264L168,276L132,276L132,264L120,264L120,252L108,252L108,216L120,216L120,204L132,204L132,192M612,192L612,192L648,192L648,204L660,204L660,216L672,216L672,252L660,252L660,264L648,264L648,276L612,276L612,264L600,264L600,252L588,252L588,216L600,216L600,204L612,204L612,192M72,288L72,288L108,288L108,300L120,300L120,312L132,312L132,348L120,348L120,360L108,360L108,372L72,372L72,360L60,360L60,348L48,348L48,312L60,312L60,300L72,300L72,288M672,288L672,288L708,288L708,300L720,300L720,312L732,312L732,348L720,348L720,360L708,360L708,372L672,372L672,360L660,360L660,348L648,348L648,312L660,312L660,300L672,300L672,288M72,408L72,408L108,408L108,420L120,420L120,432L132,432L132,468L120,468L120,480L108,480L108,492L72,492L72,480L60,480L60,468L48,468L48,432L60,432L60,420L72,420L72,408M672,408L672,408L708,408L708,420L720,420L720,432L732,432L732,468L720,468L720,480L708,480L708,492L672,492L672,480L660,480L660,468L648,468L648,432L660,432L660,420L672,420L672,408M132,504L132,504L168,504L168,516L180,516L180,528L192,528L192,564L180,564L180,576L168,576L168,588L132,588L132,576L120,576L120,564L108,564L108,528L120,528L120,516L132,516L132,504M612,504L612,504L648,504L648,516L660,516L660,528L672,528L672,564L660,564L660,576L648,576L648,588L612,588L612,576L600,576L600,564L588,564L588,528L600,528L600,516L612,516L612,504M216,588L216,588L252,588L252,600L264,600L264,612L276,612L276,648L264,648L264,660L252,660L252,672L216,672L216,660L204,660L204,648L192,648L192,612L204,612L204,600L216,600L216,588M528,588L528,588L564,588L564,600L576,600L576,612L588,612L588,648L576,648L576,660L564,660L564,672L528,672L528,660L516,660L516,648L504,648L504,612L516,612L516,600L528,600L528,588M312,648L312,648L348,648L348,660L360,660L360,672L372,672L372,708L360,708L360,720L348,720L348,732L312,732L312,720L300,720L300,708L288,708L288,672L300,672L300,660L312,660L312,648M432,648L432,648L468,648L468,660L480,660L480,672L492,672L492,708L480,708L480,720L468,720L468,732L432,732L432,720L420,720L420,708L408,708L408,672L420,672L420,660L432,660Z" class="mud"></path><path d="M132,132L132,132L144,132L144,144L132,144L132,132M636,132L636,132L648,132L648,144L636,144L636,132M132,636L132,636L144,636L144,648L132,648L132,636M636,636L636,636L648,636L648,648L636,648Z" class="finish"></path><path d="M252,228L252,228L288,228L288,240L300,240L300,252L312,252L312,288L300,288L300,300L288,300L288,312L252,312L252,300L240,300L240,288L228,288L228,252L240,252L240,240L252,240L252,228M492,228L492,228L528,228L528,240L540,240L540,252L552,252L552,288L540,288L540,300L528,300L528,312L492,312L492,300L480,300L480,288L468,288L468,252L480,252L480,240L492,240L492,228M372,264L372,264L408,264L408,276L420,276L420,288L432,288L432,324L420,324L420,336L408,336L408,348L372,348L372,336L360,336L360,324L348,324L348,288L360,288L360,276L372,276L372,264M288,348L288,348L324,348L324,360L336,360L336,372L348,372L348,408L336,408L336,420L324,420L324,432L288,432L288,420L276,420L276,408L264,408L264,372L276,372L276,360L288,360L288,348M456,348L456,348L492,348L492,360L504,360L504,372L516,372L516,408L504,408L504,420L492,420L492,432L456,432L456,420L444,420L444,408L432,408L432,372L444,372L444,360L456,360L456,348M372,432L372,432L408,432L408,444L420,444L420,456L432,456L432,492L420,492L420,504L408,504L408,516L372,516L372,504L360,504L360,492L348,492L348,456L360,456L360,444L372,444L372,432M252,468L252,468L288,468L288,480L300,480L300,492L312,492L312,528L300,528L300,540L288,540L288,552L252,552L252,540L240,540L240,528L228,528L228,492L240,492L240,480L252,480L252,468M492,468L492,468L528,468L528,480L540,480L540,492L552,492L552,528L540,528L540,540L528,540L528,552L492,552L492,540L480,540L480,528L468,528L468,492L480,492L480,480L492,480Z" class="sand"></path></g>
 <rect opacity=".3" fill="url(#grid)" height="100%" width="100%" y="0" x="0"></rect>
</svg>