<svg xmlns:xlink="http://www.w3.org/1999/xlink" xmlns="http://www.w3.org/2000/svg" height="780" width="552" id="mapSvgView" version="1.1" style="width: 552px; height: 780px;" viewBox="0 0 552 780">
 <defs>
 <pattern y="0" x="0" height="24" width="24" patternUnits="userSpaceOnUse" id="grassPattern">
 <rect class="grasscolor" height="24" width="24" y="0" x="0"></rect>
 <rect class="grassspeclecolor" height="1" width="1" x="1" y="5"></rect>
 <rect class="grassspeclecolor" height="1" width="1" x="1" y="5"></rect>
 <rect class="grassspeclecolor" height="1" width="1" x="3" y="5"></rect>
 <rect class="grassspeclecolor" height="1" width="1" x="6" y="7"></rect>
 <rect class="grassspeclecolor" height="1" width="1" x="6" y="17"></rect>
 <rect class="grassspeclecolor" height="1" width="1" x="8" y="21"></rect>
 <rect class="grassspeclecolor" height="1" width="1" x="9" y="2"></rect>
 <rect class="grassspeclecolor" height="1" width="1" x="12" y="4"></rect>
 <rect class="grassspeclecolor" height="1" width="1" x="13" y="15"></rect>
 <rect class="grassspeclecolor" height="1" width="1" x="14" y="4"></rect>
 <rect class="grassspeclecolor" height="1" width="1" x="14" y="19"></rect>
 <rect class="grassspeclecolor" height="1" width="1" x="17" y="7"></rect>
 <rect class="grassspeclecolor" height="1" width="1" x="17" y="12"></rect>
 <rect class="grassspeclecolor" height="1" width="1" x="18" y="23"></rect>
 <rect class="grassspeclecolor" height="1" width="1" x="21" y="16"></rect>
 <rect class="grassspeclecolor" height="1" width="1" x="23" y="12"></rect>
 </pattern>
 <pattern y="0" x="0" height="24" width="24" patternUnits="userSpaceOnUse" id="roadPattern">
 <rect class="roadcolor" height="24" width="24" y="0" x="0"></rect>
 <rect class="roadspeclecolor" height="1" width="1" x="1" y="5"></rect>
 <rect class="roadspeclecolor" height="1" width="1" x="1" y="5"></rect>
 <rect class="roadspeclecolor" height="1" width="1" x="3" y="5"></rect>
 <rect class="roadspeclecolor" height="1" width="1" x="6" y="7"></rect>
 <rect class="roadspeclecolor" height="1" width="1" x="6" y="17"></rect>
 <rect class="roadspeclecolor" height="1" width="1" x="8" y="21"></rect>
 <rect class="roadspeclecolor" height="1" width="1" x="9" y="2"></rect>
 <rect class="roadspeclecolor" height="1" width="1" x="12" y="4"></rect>
 <rect class="roadspeclecolor" height="1" width="1" x="13" y="15"></rect>
 <rect class="roadspeclecolor" height="1" width="1" x="14" y="4"></rect>
 <rect class="roadspeclecolor" height="1" width="1" x="14" y="19"></rect>
 <rect class="roadspeclecolor" height="1" width="1" x="17" y="7"></rect>
 <rect class="roadspeclecolor" height="1" width="1" x="17" y="12"></rect>
 <rect class="roadspeclecolor" height="1" width="1" x="18" y="23"></rect>
 <rect class="roadspeclecolor" height="1" width="1" x="21" y="16"></rect>
 <rect class="roadspeclecolor" height="1" width="1" x="23" y="12"></rect>
 </pattern>
 <pattern y="0" x="0" height="12" width="12" patternUnits="userSpaceOnUse" id="grid">
 <line stroke-width="1" stroke="black" y2="12" x2="12" y1="0" x1="12"></line>
 <line stroke-width="1" stroke="black" y2="12" x2="12" y1="12" x1="0"></line>
 </pattern>
 <pattern y="0" x="0" height="12" width="12" patternUnits="userSpaceOnUse" id="finishPattern">
 <rect fill="black" height="12" width="12" y="0" x="0"></rect>
 <path fill="white" d="M0,0L3,0L3,3L0,3L0,0M6,0L9,0L9,3L6,3L6,0M3,3L6,3L6,6L3,6L3,3M9,3L12,3L12,6L9,6L9,3"></path>
 <path fill="white" d="M0,6L3,6L3,9L0,9L0,6M6,6L9,6L9,9L6,9L6,6M3,9L6,9L6,12L3,12L3,9M9,9L12,9L12,12L9,12L9,9"></path>
 </pattern>
 <pattern y="0" x="0" height="12" width="12" patternUnits="userSpaceOnUse" id="startPattern">
 <rect fill="rgb(100,100,100)" height="12" width="12" y="0" x="0"></rect>
 <rect stroke-width="1" stroke="rgb(200,200,200)" fill="none" height="5" width="5" y="3.5" x="3.5"></rect>
 </pattern>
 <pattern y="0" x="0" height="12" width="12" patternUnits="userSpaceOnUse" id="cp1pattern">
 <rect class="cp1color" height="12" width="12" y="0" x="0"></rect>
 <path fill="black" d="M0,0L3,0L3,3L0,3L0,0M6,0L9,0L9,3L6,3L6,0M3,3L6,3L6,6L3,6L3,3M9,3L12,3L12,6L9,6L9,3"></path>
 <path fill="black" d="M0,6L3,6L3,9L0,9L0,6M6,6L9,6L9,9L6,9L6,6M3,9L6,9L6,12L3,12L3,9M9,9L12,9L12,12L9,12L9,9"></path>
 </pattern>
 <pattern y="0" x="0" height="12" width="12" patternUnits="userSpaceOnUse" id="cp2pattern">
 <rect class="cp2color" height="12" width="12" y="0" x="0"></rect>
 <path fill="white" d="M0,0L3,0L3,3L0,3L0,0M6,0L9,0L9,3L6,3L6,0M3,3L6,3L6,6L3,6L3,3M9,3L12,3L12,6L9,6L9,3"></path>
 <path fill="white" d="M0,6L3,6L3,9L0,9L0,6M6,6L9,6L9,9L6,9L6,6M3,9L6,9L6,12L3,12L3,9M9,9L12,9L12,12L9,12L9,9"></path>
 </pattern>
 <pattern y="0" x="0" height="12" width="12" patternUnits="userSpaceOnUse" id="cp3pattern">
 <rect class="cp3color" height="12" width="12" y="0" x="0"></rect>
 <path fill="black" d="M0,0L3,0L3,3L0,3L0,0M6,0L9,0L9,3L6,3L6,0M3,3L6,3L6,6L3,6L3,3M9,3L12,3L12,6L9,6L9,3"></path>
 <path fill="black" d="M0,6L3,6L3,9L0,9L0,6M6,6L9,6L9,9L6,9L6,6M3,9L6,9L6,12L3,12L3,9M9,9L12,9L12,12L9,12L9,9"></path>
 </pattern>
 <pattern y="0" x="0" height="12" width="12" patternUnits="userSpaceOnUse" id="cp4pattern">
 <rect class="cp4color" height="12" width="12" y="0" x="0"></rect>
 <path fill="white" d="M0,0L3,0L3,3L0,3L0,0M6,0L9,0L9,3L6,3L6,0M3,3L6,3L6,6L3,6L3,3M9,3L12,3L12,6L9,6L9,3"></path>
 <path fill="white" d="M0,6L3,6L3,9L0,9L0,6M6,6L9,6L9,9L6,9L6,6M3,9L6,9L6,12L3,12L3,9M9,9L12,9L12,12L9,12L9,9"></path>
 </pattern>
 <pattern y="0" x="0" height="12" width="12" patternUnits="userSpaceOnUse" id="cp5pattern">
 <rect class="cp5color" height="12" width="12" y="0" x="0"></rect>
 <path fill="black" d="M0,0L3,0L3,3L0,3L0,0M6,0L9,0L9,3L6,3L6,0M3,3L6,3L6,6L3,6L3,3M9,3L12,3L12,6L9,6L9,3"></path>
 <path fill="black" d="M0,6L3,6L3,9L0,9L0,6M6,6L9,6L9,9L6,9L6,6M3,9L6,9L6,12L3,12L3,9M9,9L12,9L12,12L9,12L9,9"></path>
 </pattern>
 <pattern y="0" x="0" height="12" width="12" patternUnits="userSpaceOnUse" id="cp6pattern">
 <rect class="cp6color" height="12" width="12" y="0" x="0"></rect>
 <path fill="white" d="M0,0L3,0L3,3L0,3L0,0M6,0L9,0L9,3L6,3L6,0M3,3L6,3L6,6L3,6L3,3M9,3L12,3L12,6L9,6L9,3"></path>
 <path fill="white" d="M0,6L3,6L3,9L0,9L0,6M6,6L9,6L9,9L6,9L6,6M3,9L6,9L6,12L3,12L3,9M9,9L12,9L12,12L9,12L9,9"></path>
 </pattern>
 <pattern y="0" x="0" height="12" width="12" patternUnits="userSpaceOnUse" id="cp7pattern">
 <rect class="cp7color" height="12" width="12" y="0" x="0"></rect>
 <path fill="black" d="M0,0L3,0L3,3L0,3L0,0M6,0L9,0L9,3L6,3L6,0M3,3L6,3L6,6L3,6L3,3M9,3L12,3L12,6L9,6L9,3"></path>
 <path fill="black" d="M0,6L3,6L3,9L0,9L0,6M6,6L9,6L9,9L6,9L6,6M3,9L6,9L6,12L3,12L3,9M9,9L12,9L12,12L9,12L9,9"></path>
 </pattern>
 <pattern y="0" x="0" height="12" width="12" patternUnits="userSpaceOnUse" id="cp8pattern">
 <rect class="cp8color" height="12" width="12" y="0" x="0"></rect>
 <path fill="white" d="M0,0L3,0L3,3L0,3L0,0M6,0L9,0L9,3L6,3L6,0M3,3L6,3L6,6L3,6L3,3M9,3L12,3L12,6L9,6L9,3"></path>
 <path fill="white" d="M0,6L3,6L3,9L0,9L0,6M6,6L9,6L9,9L6,9L6,6M3,9L6,9L6,12L3,12L3,9M9,9L12,9L12,12L9,12L9,9"></path>
 </pattern>
 <pattern y="0" x="0" height="12" width="12" patternUnits="userSpaceOnUse" id="cp9pattern">
 <rect class="cp9color" height="12" width="12" y="0" x="0"></rect>
 <path fill="black" d="M0,0L3,0L3,3L0,3L0,0M6,0L9,0L9,3L6,3L6,0M3,3L6,3L6,6L3,6L3,3M9,3L12,3L12,6L9,6L9,3"></path>
 <path fill="black" d="M0,6L3,6L3,9L0,9L0,6M6,6L9,6L9,9L6,9L6,6M3,9L6,9L6,12L3,12L3,9M9,9L12,9L12,12L9,12L9,9"></path>
 </pattern>
 </defs>
 <rect height="100%" width="100%" y="0" x="0" class="grass" id="mainfill"></rect>
 <g id="paths"><path d="M120,12L120,12L216,12L216,24L252,24L252,36L312,36L312,24L348,24L348,12L444,12L444,24L480,24L480,36L504,36L504,48L516,48L516,72L528,72L528,108L540,108L540,168L528,168L528,204L516,204L516,228L504,228L504,240L480,240L480,252L456,252L456,264L444,264L444,288L432,288L432,312L420,312L420,324L396,324L396,336L372,336L372,348L348,348L348,360L336,360L336,372L324,372L324,384L312,384L312,372L300,372L300,360L288,360L288,348L300,348L300,336L312,336L312,312L324,312L324,300L348,300L348,288L372,288L372,276L384,276L384,252L396,252L396,228L408,228L408,204L432,204L432,192L456,192L456,180L468,180L468,156L480,156L480,120L468,120L468,96L456,96L456,84L432,84L432,72L408,72L408,84L384,84L384,96L372,96L372,120L360,120L360,156L348,156L348,276L336,276L336,288L312,288L312,300L252,300L252,288L228,288L228,276L216,276L216,156L204,156L204,120L192,120L192,96L180,96L180,84L156,84L156,72L132,72L132,84L108,84L108,96L96,96L96,120L84,120L84,156L96,156L96,180L108,180L108,192L132,192L132,204L156,204L156,228L168,228L168,252L180,252L180,276L192,276L192,288L216,288L216,300L240,300L240,312L252,312L252,336L264,336L264,348L276,348L276,360L264,360L264,372L252,372L252,384L240,384L240,372L228,372L228,360L216,360L216,348L192,348L192,336L168,336L168,324L144,324L144,312L132,312L132,288L120,288L120,264L108,264L108,252L84,252L84,240L60,240L60,228L48,228L48,204L36,204L36,168L24,168L24,108L36,108L36,72L48,72L48,48L60,48L60,36L84,36L84,24L120,24L120,12M240,48L240,48L228,48L228,60L240,60L240,48M336,48L336,48L324,48L324,60L336,60L336,48M216,72L216,72L204,72L204,84L216,84L216,72M360,72L360,72L348,72L348,84L360,84L360,72M276,360L276,360L288,360L288,372L300,372L300,384L312,384L312,396L300,396L300,408L288,408L288,420L276,420L276,408L264,408L264,396L252,396L252,384L264,384L264,372L276,372L276,360M252,396L252,396L252,408L264,408L264,420L276,420L276,432L264,432L264,444L252,444L252,468L240,468L240,480L216,480L216,492L192,492L192,504L180,504L180,528L168,528L168,552L156,552L156,576L132,576L132,588L108,588L108,600L96,600L96,624L84,624L84,660L96,660L96,684L108,684L108,696L132,696L132,708L156,708L156,696L180,696L180,684L192,684L192,660L204,660L204,624L216,624L216,504L228,504L228,492L252,492L252,480L312,480L312,492L336,492L336,504L348,504L348,624L360,624L360,660L372,660L372,684L384,684L384,696L408,696L408,708L432,708L432,696L456,696L456,684L468,684L468,660L480,660L480,624L468,624L468,600L456,600L456,588L432,588L432,576L408,576L408,552L396,552L396,528L384,528L384,504L372,504L372,492L348,492L348,480L324,480L324,468L312,468L312,444L300,444L300,432L288,432L288,420L300,420L300,408L312,408L312,396L324,396L324,408L336,408L336,420L348,420L348,432L372,432L372,444L396,444L396,456L420,456L420,468L432,468L432,492L444,492L444,516L456,516L456,528L480,528L480,540L504,540L504,552L516,552L516,576L528,576L528,612L540,612L540,672L528,672L528,708L516,708L516,732L504,732L504,744L480,744L480,756L444,756L444,768L348,768L348,756L312,756L312,744L252,744L252,756L216,756L216,768L120,768L120,756L84,756L84,744L60,744L60,732L48,732L48,708L36,708L36,672L24,672L24,612L36,612L36,576L48,576L48,552L60,552L60,540L84,540L84,528L108,528L108,516L120,516L120,492L132,492L132,468L144,468L144,456L168,456L168,444L192,444L192,432L216,432L216,420L228,420L228,408L240,408L240,396L252,396M216,696L216,696L204,696L204,708L216,708L216,696M360,696L360,696L348,696L348,708L360,708L360,696M240,720L240,720L228,720L228,732L240,732L240,720M336,720L336,720L324,720L324,732L336,732Z" class="road"></path><path d="M0,0L0,0L12,0L12,180L0,180Z" class="parc"></path><path d="M216,252L216,252L228,252L228,264L216,264L216,252M228,264L228,264L240,264L240,252L252,252L252,264L240,264L240,276L228,276L228,264M252,264L252,264L264,264L264,252L276,252L276,264L264,264L264,276L252,276L252,264M276,264L276,264L288,264L288,252L300,252L300,264L288,264L288,276L276,276L276,264M300,264L300,264L312,264L312,252L324,252L324,264L312,264L312,276L300,276L300,264M324,264L324,264L336,264L336,252L348,252L348,264L336,264L336,276L324,276L324,264M240,276L240,276L252,276L252,288L240,288L240,276M264,276L264,276L276,276L276,288L264,288L264,276M288,276L288,276L300,276L300,288L288,288L288,276M312,276L312,276L324,276L324,288L312,288Z" class="start"></path><path d="M240,492L240,492L252,492L252,504L240,504L240,492M252,504L252,504L264,504L264,492L276,492L276,504L264,504L264,516L252,516L252,504M240,504L240,504L240,516L228,516L228,504L240,504M276,504L276,504L288,504L288,492L300,492L300,504L288,504L288,516L276,516L276,504M300,504L300,504L312,504L312,492L324,492L324,504L312,504L312,516L300,516L300,504M324,504L324,504L336,504L336,516L324,516L324,504M240,516L240,516L252,516L252,528L240,528L240,516M228,516L228,516L228,528L216,528L216,516L228,516M264,516L264,516L276,516L276,528L264,528L264,516M288,516L288,516L300,516L300,528L288,528L288,516M312,516L312,516L324,516L324,528L312,528L312,516M336,516L336,516L348,516L348,528L336,528Z" class="finish"></path></g>
 <rect opacity=".3" fill="url(#grid)" height="100%" width="100%" y="0" x="0"></rect>
</svg>