<svg xmlns="http://www.w3.org/2000/svg" xmlns:xlink="http://www.w3.org/1999/xlink" version="1.1" id="mapSvgView" width="720" height="312"> <rect id="mainfill" class="grass" x="0" y="0" width="100%" height="100%"></rect> <g id="paths"><path d="M552,144L552,144L636,144L636,156L552,156L552,144M660,144L660,144L672,144L672,156L660,156Z" class="cp1"></path><path d="M12,132L12,132L84,132L84,144L12,144Z" class="cp2"></path><path d="M0,0L0,0L12,0L12,60L0,60Z" class="parc"></path><path d="M60,12L60,12L144,12L144,72L96,72L96,84L84,84L84,96L72,96L72,120L84,120L84,132L12,132L12,84L24,84L24,36L36,36L36,24L60,24L60,12M168,12L168,12L300,12L300,24L384,24L384,12L636,12L636,24L660,24L660,36L684,36L684,48L696,48L696,60L708,60L708,96L696,96L696,120L684,120L684,132L672,132L672,144L660,144L660,132L648,132L648,144L564,144L564,132L576,132L576,108L564,108L564,96L552,96L552,84L540,84L540,72L516,72L516,60L432,60L432,72L168,72L168,12M552,60L552,60L540,60L540,72L552,72L552,84L564,84L564,96L576,96L576,108L612,108L612,96L624,96L624,72L612,72L612,60L552,60M264,84L264,84L288,84L288,96L468,96L468,120L456,120L456,144L552,144L552,156L456,156L456,168L432,168L432,180L408,180L408,204L432,204L432,216L492,216L492,228L564,228L564,216L576,216L576,192L564,192L564,180L552,180L552,156L624,156L624,180L636,180L636,192L660,192L660,156L672,156L672,216L660,216L660,240L636,240L636,252L624,252L624,264L600,264L600,276L456,276L456,264L420,264L420,252L384,252L384,240L276,240L276,252L240,252L240,264L96,264L96,252L72,252L72,240L48,240L48,228L36,228L36,204L24,204L24,180L12,180L12,144L84,144L84,132L204,132L204,120L228,120L228,108L240,108L240,96L264,96L264,84M264,108L264,108L252,108L252,120L240,120L240,132L228,132L228,156L240,156L240,168L252,168L252,180L396,180L396,168L420,168L420,156L432,156L432,108L264,108M96,144L96,144L84,144L84,168L96,168L96,180L108,180L108,192L120,192L120,204L144,204L144,216L204,216L204,204L228,204L228,192L240,192L240,180L228,180L228,168L216,168L216,156L192,156L192,144L96,144M288,192L288,192L276,192L276,204L300,204L300,192L288,192M360,192L360,192L348,192L348,204L372,204L372,192L360,192M300,252L300,252L312,252L312,264L300,264L300,252M312,264L312,264L324,264L324,252L360,252L360,264L336,264L336,276L360,276L360,264L372,264L372,276L360,276L360,288L336,288L336,300L324,300L324,288L312,288L312,264M312,288L312,288L312,300L300,300L300,288Z" class="road"></path><path d="M144,12L144,12L156,12L156,72L144,72Z" class="finish"></path><path d="M156,12L156,12L168,12L168,72L156,72Z" class="start"></path></g></svg>