<svg xmlns="http://www.w3.org/2000/svg" xmlns:xlink="http://www.w3.org/1999/xlink" version="1.1" id="mapSvgView" width="384" height="384"> <rect id="mainfill" class="grass" x="0" y="0" width="100%" height="100%"></rect> <g id="paths"><path d="M144,216L144,216L156,216L156,228L168,228L168,240L144,240L144,252L132,252L132,264L120,264L120,252L108,252L108,240L132,240L132,228L144,228Z" class="cp1"></path><path d="M0,0L0,0L12,0L12,48L0,48Z" class="parc"></path><path d="M144,12L144,12L252,12L252,24L288,24L288,36L300,36L300,48L324,48L324,60L336,60L336,72L348,72L348,96L360,96L360,120L372,120L372,204L360,204L360,228L348,228L348,240L336,240L336,252L324,252L324,264L300,264L300,276L240,276L240,264L216,264L216,276L144,276L144,264L132,264L132,252L144,252L144,240L216,240L216,228L228,228L228,216L240,216L240,168L228,168L228,156L216,156L216,144L168,144L168,156L156,156L156,168L144,168L144,228L132,228L132,240L108,240L108,228L96,228L96,156L108,156L108,132L120,132L120,120L144,120L144,108L216,108L216,120L252,120L252,108L288,108L288,144L276,144L276,132L264,132L264,120L252,120L252,132L264,132L264,144L276,144L276,156L288,156L288,228L312,228L312,204L324,204L324,132L312,132L312,108L300,108L300,84L276,84L276,72L264,72L264,60L240,60L240,48L156,48L156,60L132,60L132,72L120,72L120,84L96,84L96,108L84,108L84,120L72,120L72,144L60,144L60,240L72,240L72,264L84,264L84,276L96,276L96,300L120,300L120,312L132,312L132,324L168,324L168,336L228,336L228,324L264,324L264,312L300,312L300,336L288,336L288,348L276,348L276,360L240,360L240,372L144,372L144,360L108,360L108,348L84,348L84,336L72,336L72,324L60,324L60,312L48,312L48,300L36,300L36,276L24,276L24,240L12,240L12,144L24,144L24,108L36,108L36,96L48,96L48,72L60,72L60,60L72,60L72,48L96,48L96,36L108,36L108,24L144,24Z" class="road"></path><path d="M240,108L240,108L252,108L252,120L240,120L240,108M252,120L252,120L264,120L264,132L252,132L252,120M264,132L264,132L276,132L276,144L264,144L264,132M276,144L276,144L288,144L288,156L276,156Z" class="start"></path><path d="M276,300L276,300L300,300L300,312L276,312L276,300M300,312L300,312L312,312L312,336L300,336Z" class="finish"></path></g></svg>