<svg xmlns:xlink="http://www.w3.org/1999/xlink" xmlns="http://www.w3.org/2000/svg" height="732" width="324" id="mapSvgView" version="1.1" style="width: 324px; height: 732px;" viewBox="0 0 324 732">
 <defs>
 <pattern y="0" x="0" height="24" width="24" patternUnits="userSpaceOnUse" id="grassPattern">
 <rect class="grasscolor" height="24" width="24" y="0" x="0"></rect>
 <rect class="grassspeclecolor" height="1" width="1" x="1" y="5"></rect>
 <rect class="grassspeclecolor" height="1" width="1" x="1" y="5"></rect>
 <rect class="grassspeclecolor" height="1" width="1" x="3" y="5"></rect>
 <rect class="grassspeclecolor" height="1" width="1" x="6" y="7"></rect>
 <rect class="grassspeclecolor" height="1" width="1" x="6" y="17"></rect>
 <rect class="grassspeclecolor" height="1" width="1" x="8" y="21"></rect>
 <rect class="grassspeclecolor" height="1" width="1" x="9" y="2"></rect>
 <rect class="grassspeclecolor" height="1" width="1" x="12" y="4"></rect>
 <rect class="grassspeclecolor" height="1" width="1" x="13" y="15"></rect>
 <rect class="grassspeclecolor" height="1" width="1" x="14" y="4"></rect>
 <rect class="grassspeclecolor" height="1" width="1" x="14" y="19"></rect>
 <rect class="grassspeclecolor" height="1" width="1" x="17" y="7"></rect>
 <rect class="grassspeclecolor" height="1" width="1" x="17" y="12"></rect>
 <rect class="grassspeclecolor" height="1" width="1" x="18" y="23"></rect>
 <rect class="grassspeclecolor" height="1" width="1" x="21" y="16"></rect>
 <rect class="grassspeclecolor" height="1" width="1" x="23" y="12"></rect>
 </pattern>
 <pattern y="0" x="0" height="24" width="24" patternUnits="userSpaceOnUse" id="roadPattern">
 <rect class="roadcolor" height="24" width="24" y="0" x="0"></rect>
 <rect class="roadspeclecolor" height="1" width="1" x="1" y="5"></rect>
 <rect class="roadspeclecolor" height="1" width="1" x="1" y="5"></rect>
 <rect class="roadspeclecolor" height="1" width="1" x="3" y="5"></rect>
 <rect class="roadspeclecolor" height="1" width="1" x="6" y="7"></rect>
 <rect class="roadspeclecolor" height="1" width="1" x="6" y="17"></rect>
 <rect class="roadspeclecolor" height="1" width="1" x="8" y="21"></rect>
 <rect class="roadspeclecolor" height="1" width="1" x="9" y="2"></rect>
 <rect class="roadspeclecolor" height="1" width="1" x="12" y="4"></rect>
 <rect class="roadspeclecolor" height="1" width="1" x="13" y="15"></rect>
 <rect class="roadspeclecolor" height="1" width="1" x="14" y="4"></rect>
 <rect class="roadspeclecolor" height="1" width="1" x="14" y="19"></rect>
 <rect class="roadspeclecolor" height="1" width="1" x="17" y="7"></rect>
 <rect class="roadspeclecolor" height="1" width="1" x="17" y="12"></rect>
 <rect class="roadspeclecolor" height="1" width="1" x="18" y="23"></rect>
 <rect class="roadspeclecolor" height="1" width="1" x="21" y="16"></rect>
 <rect class="roadspeclecolor" height="1" width="1" x="23" y="12"></rect>
 </pattern>
 <pattern y="0" x="0" height="12" width="12" patternUnits="userSpaceOnUse" id="grid">
 <line stroke-width="1" stroke="black" y2="12" x2="12" y1="0" x1="12"></line>
 <line stroke-width="1" stroke="black" y2="12" x2="12" y1="12" x1="0"></line>
 </pattern>
 <pattern y="0" x="0" height="12" width="12" patternUnits="userSpaceOnUse" id="finishPattern">
 <rect fill="black" height="12" width="12" y="0" x="0"></rect>
 <path fill="white" d="M0,0L3,0L3,3L0,3L0,0M6,0L9,0L9,3L6,3L6,0M3,3L6,3L6,6L3,6L3,3M9,3L12,3L12,6L9,6L9,3"></path>
 <path fill="white" d="M0,6L3,6L3,9L0,9L0,6M6,6L9,6L9,9L6,9L6,6M3,9L6,9L6,12L3,12L3,9M9,9L12,9L12,12L9,12L9,9"></path>
 </pattern>
 <pattern y="0" x="0" height="12" width="12" patternUnits="userSpaceOnUse" id="startPattern">
 <rect fill="rgb(100,100,100)" height="12" width="12" y="0" x="0"></rect>
 <rect stroke-width="1" stroke="rgb(200,200,200)" fill="none" height="5" width="5" y="3.5" x="3.5"></rect>
 </pattern>
 <pattern y="0" x="0" height="12" width="12" patternUnits="userSpaceOnUse" id="cp1pattern">
 <rect class="cp1color" height="12" width="12" y="0" x="0"></rect>
 <path fill="black" d="M0,0L3,0L3,3L0,3L0,0M6,0L9,0L9,3L6,3L6,0M3,3L6,3L6,6L3,6L3,3M9,3L12,3L12,6L9,6L9,3"></path>
 <path fill="black" d="M0,6L3,6L3,9L0,9L0,6M6,6L9,6L9,9L6,9L6,6M3,9L6,9L6,12L3,12L3,9M9,9L12,9L12,12L9,12L9,9"></path>
 </pattern>
 <pattern y="0" x="0" height="12" width="12" patternUnits="userSpaceOnUse" id="cp2pattern">
 <rect class="cp2color" height="12" width="12" y="0" x="0"></rect>
 <path fill="white" d="M0,0L3,0L3,3L0,3L0,0M6,0L9,0L9,3L6,3L6,0M3,3L6,3L6,6L3,6L3,3M9,3L12,3L12,6L9,6L9,3"></path>
 <path fill="white" d="M0,6L3,6L3,9L0,9L0,6M6,6L9,6L9,9L6,9L6,6M3,9L6,9L6,12L3,12L3,9M9,9L12,9L12,12L9,12L9,9"></path>
 </pattern>
 <pattern y="0" x="0" height="12" width="12" patternUnits="userSpaceOnUse" id="cp3pattern">
 <rect class="cp3color" height="12" width="12" y="0" x="0"></rect>
 <path fill="black" d="M0,0L3,0L3,3L0,3L0,0M6,0L9,0L9,3L6,3L6,0M3,3L6,3L6,6L3,6L3,3M9,3L12,3L12,6L9,6L9,3"></path>
 <path fill="black" d="M0,6L3,6L3,9L0,9L0,6M6,6L9,6L9,9L6,9L6,6M3,9L6,9L6,12L3,12L3,9M9,9L12,9L12,12L9,12L9,9"></path>
 </pattern>
 <pattern y="0" x="0" height="12" width="12" patternUnits="userSpaceOnUse" id="cp4pattern">
 <rect class="cp4color" height="12" width="12" y="0" x="0"></rect>
 <path fill="white" d="M0,0L3,0L3,3L0,3L0,0M6,0L9,0L9,3L6,3L6,0M3,3L6,3L6,6L3,6L3,3M9,3L12,3L12,6L9,6L9,3"></path>
 <path fill="white" d="M0,6L3,6L3,9L0,9L0,6M6,6L9,6L9,9L6,9L6,6M3,9L6,9L6,12L3,12L3,9M9,9L12,9L12,12L9,12L9,9"></path>
 </pattern>
 <pattern y="0" x="0" height="12" width="12" patternUnits="userSpaceOnUse" id="cp5pattern">
 <rect class="cp5color" height="12" width="12" y="0" x="0"></rect>
 <path fill="black" d="M0,0L3,0L3,3L0,3L0,0M6,0L9,0L9,3L6,3L6,0M3,3L6,3L6,6L3,6L3,3M9,3L12,3L12,6L9,6L9,3"></path>
 <path fill="black" d="M0,6L3,6L3,9L0,9L0,6M6,6L9,6L9,9L6,9L6,6M3,9L6,9L6,12L3,12L3,9M9,9L12,9L12,12L9,12L9,9"></path>
 </pattern>
 <pattern y="0" x="0" height="12" width="12" patternUnits="userSpaceOnUse" id="cp6pattern">
 <rect class="cp6color" height="12" width="12" y="0" x="0"></rect>
 <path fill="white" d="M0,0L3,0L3,3L0,3L0,0M6,0L9,0L9,3L6,3L6,0M3,3L6,3L6,6L3,6L3,3M9,3L12,3L12,6L9,6L9,3"></path>
 <path fill="white" d="M0,6L3,6L3,9L0,9L0,6M6,6L9,6L9,9L6,9L6,6M3,9L6,9L6,12L3,12L3,9M9,9L12,9L12,12L9,12L9,9"></path>
 </pattern>
 <pattern y="0" x="0" height="12" width="12" patternUnits="userSpaceOnUse" id="cp7pattern">
 <rect class="cp7color" height="12" width="12" y="0" x="0"></rect>
 <path fill="black" d="M0,0L3,0L3,3L0,3L0,0M6,0L9,0L9,3L6,3L6,0M3,3L6,3L6,6L3,6L3,3M9,3L12,3L12,6L9,6L9,3"></path>
 <path fill="black" d="M0,6L3,6L3,9L0,9L0,6M6,6L9,6L9,9L6,9L6,6M3,9L6,9L6,12L3,12L3,9M9,9L12,9L12,12L9,12L9,9"></path>
 </pattern>
 <pattern y="0" x="0" height="12" width="12" patternUnits="userSpaceOnUse" id="cp8pattern">
 <rect class="cp8color" height="12" width="12" y="0" x="0"></rect>
 <path fill="white" d="M0,0L3,0L3,3L0,3L0,0M6,0L9,0L9,3L6,3L6,0M3,3L6,3L6,6L3,6L3,3M9,3L12,3L12,6L9,6L9,3"></path>
 <path fill="white" d="M0,6L3,6L3,9L0,9L0,6M6,6L9,6L9,9L6,9L6,6M3,9L6,9L6,12L3,12L3,9M9,9L12,9L12,12L9,12L9,9"></path>
 </pattern>
 <pattern y="0" x="0" height="12" width="12" patternUnits="userSpaceOnUse" id="cp9pattern">
 <rect class="cp9color" height="12" width="12" y="0" x="0"></rect>
 <path fill="black" d="M0,0L3,0L3,3L0,3L0,0M6,0L9,0L9,3L6,3L6,0M3,3L6,3L6,6L3,6L3,3M9,3L12,3L12,6L9,6L9,3"></path>
 <path fill="black" d="M0,6L3,6L3,9L0,9L0,6M6,6L9,6L9,9L6,9L6,6M3,9L6,9L6,12L3,12L3,9M9,9L12,9L12,12L9,12L9,9"></path>
 </pattern>
 </defs>
 <rect height="100%" width="100%" y="0" x="0" class="road" id="mainfill"></rect>
 <g id="paths"><path d="M84,48L84,48L240,48L240,264L228,264L228,288L216,288L216,312L204,312L204,324L192,324L192,336L180,336L180,348L168,348L168,360L180,360L180,372L192,372L192,384L204,384L204,396L216,396L216,420L228,420L228,444L240,444L240,660L84,660L84,444L96,444L96,420L108,420L108,396L120,396L120,384L132,384L132,372L144,372L144,360L156,360L156,348L144,348L144,336L132,336L132,324L120,324L120,312L108,312L108,288L96,288L96,264L84,264Z" class="road"></path><path d="M156,348L156,348L168,348L168,360L156,360Z" class="cp1"></path><path d="M0,0L0,0L12,0L12,312L0,312Z" class="parc"></path><path d="M12,0L12,0L24,0L24,24L36,24L36,60L48,60L48,300L36,300L36,324L48,324L48,336L36,336L36,348L24,348L24,360L36,360L36,372L48,372L48,384L36,384L36,408L48,408L48,648L36,648L36,684L24,684L24,708L12,708L12,732L0,732L0,312L12,312L12,0M300,0L300,0L324,0L324,732L312,732L312,708L300,708L300,684L288,684L288,648L276,648L276,408L288,408L288,384L276,384L276,372L288,372L288,360L300,360L300,348L288,348L288,336L276,336L276,324L288,324L288,300L276,300L276,60L288,60L288,24L300,24L300,0M72,276L72,276L84,276L84,300L72,300L72,276M240,276L240,276L252,276L252,300L240,300L240,276M84,300L84,300L96,300L96,324L108,324L108,336L120,336L120,348L132,348L132,360L120,360L120,372L108,372L108,384L96,384L96,408L84,408L84,384L72,384L72,372L84,372L84,360L96,360L96,348L84,348L84,336L72,336L72,324L84,324L84,300M240,300L240,300L240,324L252,324L252,336L240,336L240,348L228,348L228,360L240,360L240,372L252,372L252,384L240,384L240,408L228,408L228,384L216,384L216,372L204,372L204,360L192,360L192,348L204,348L204,336L216,336L216,324L228,324L228,300L240,300M84,408L84,408L84,432L72,432L72,408L84,408M240,408L240,408L252,408L252,432L240,432Z" class="grass"></path><path d="M24,0L24,0L300,0L300,24L288,24L288,36L36,36L36,24L24,24L24,0M36,48L36,48L72,48L72,300L84,300L84,324L36,324L36,300L48,300L48,60L36,60L36,48M252,48L252,48L288,48L288,60L276,60L276,300L288,300L288,324L240,324L240,300L252,300L252,48M36,384L36,384L84,384L84,408L72,408L72,660L36,660L36,648L48,648L48,408L36,408L36,384M240,384L240,384L288,384L288,408L276,408L276,648L288,648L288,660L252,660L252,408L240,408L240,384M36,672L36,672L288,672L288,684L300,684L300,708L312,708L312,732L12,732L12,708L24,708L24,684L36,684Z" class="mud"></path><path d="M36,36L36,36L288,36L288,48L252,48L252,276L240,276L240,300L228,300L228,324L216,324L216,336L204,336L204,348L192,348L192,360L204,360L204,372L216,372L216,384L228,384L228,408L240,408L240,432L252,432L252,660L288,660L288,672L36,672L36,660L72,660L72,432L84,432L84,408L96,408L96,384L108,384L108,372L120,372L120,360L132,360L132,348L120,348L120,336L108,336L108,324L96,324L96,300L84,300L84,276L72,276L72,48L36,48L36,36M96,48L96,48L84,48L84,264L96,264L96,288L108,288L108,312L120,312L120,324L132,324L132,336L144,336L144,348L156,348L156,360L144,360L144,372L132,372L132,384L120,384L120,396L108,396L108,420L96,420L96,444L84,444L84,660L240,660L240,444L228,444L228,420L216,420L216,396L204,396L204,384L192,384L192,372L180,372L180,360L168,360L168,348L180,348L180,336L192,336L192,324L204,324L204,312L216,312L216,288L228,288L228,264L240,264L240,48L96,48M48,324L48,324L72,324L72,336L84,336L84,348L96,348L96,360L84,360L84,372L72,372L72,384L48,384L48,372L36,372L36,360L24,360L24,348L36,348L36,336L48,336L48,324M252,324L252,324L276,324L276,336L288,336L288,348L300,348L300,360L288,360L288,372L276,372L276,384L252,384L252,372L240,372L240,360L228,360L228,348L240,348L240,336L252,336Z" class="sand"></path><path d="M84,48L84,48L240,48L240,60L84,60L84,48M84,648L84,648L240,648L240,660L84,660Z" class="start"></path><path d="M84,72L84,72L240,72L240,84L84,84L84,72M84,624L84,624L240,624L240,636L84,636Z" class="finish"></path></g>
 <rect opacity=".3" fill="url(#grid)" height="100%" width="100%" y="0" x="0"></rect>
</svg>