<svg xmlns="http://www.w3.org/2000/svg" xmlns:xlink="http://www.w3.org/1999/xlink" version="1.1" id="mapSvgView" width="888" height="648"> <rect id="mainfill" class="road" x="0" y="0" width="100%" height="100%"></rect> <g id="paths"><path d="M84,156L84,156L96,156L96,168L84,168L84,156M540,552L540,552L552,552L552,564L540,564Z" class="cp1"></path><path d="M192,84L192,84L204,84L204,96L192,96L192,84M792,444L792,444L804,444L804,456L792,456Z" class="cp2"></path><path d="M84,492L84,492L96,492L96,504L84,504Z" class="cp3"></path><path d="M408,84L408,84L420,84L420,96L408,96L408,84M708,552L708,552L720,552L720,564L708,564Z" class="cp4"></path><path d="M84,240L84,240L96,240L96,252L84,252L84,240M792,288L792,288L804,288L804,300L792,300L792,288M228,552L228,552L240,552L240,564L228,564Z" class="cp5"></path><path d="M516,84L516,84L528,84L528,96L516,96Z" class="cp6"></path><path d="M624,84L624,84L636,84L636,96L624,96L624,84M84,324L84,324L96,324L96,336L84,336Z" class="cp7"></path><path d="M300,84L300,84L312,84L312,96L300,96L300,84M264,552L264,552L276,552L276,564L264,564Z" class="cp8"></path><path d="M792,348L792,348L804,348L804,360L792,360L792,348M84,420L84,420L96,420L96,432L84,432Z" class="cp9"></path><path d="M0,0L0,0L888,0L888,648L0,648L0,0M36,36L36,36L24,36L24,612L36,612L36,624L864,624L864,48L852,48L852,36Z" class="grass"></path><path d="M24,36L24,36L852,36L852,612L24,612L24,36M84,72L84,72L72,72L72,564L804,564L804,72Z" class="sand"></path><path d="M852,48L852,48L864,48L864,624L36,624L36,612L852,612L852,48M72,72L72,72L804,72L804,84L84,84L84,564L72,564Z" class="mud"></path><path d="M84,84L84,84L96,84L96,96L84,96L84,84M792,84L792,84L804,84L804,96L792,96L792,84M84,552L84,552L96,552L96,564L84,564L84,552M792,552L792,552L804,552L804,564L792,564Z" class="finish"></path><path d="M96,84L96,84L192,84L192,96L96,96L96,84M96,96L96,96L96,156L84,156L84,96L96,96M204,84L204,84L300,84L300,96L204,96L204,84M312,84L312,84L408,84L408,96L312,96L312,84M420,84L420,84L516,84L516,96L420,96L420,84M528,84L528,84L624,84L624,96L528,96L528,84M636,84L636,84L792,84L792,96L636,96L636,84M792,96L792,96L804,96L804,288L792,288L792,96M84,168L84,168L96,168L96,240L84,240L84,168M84,252L84,252L96,252L96,324L84,324L84,252M792,300L792,300L804,300L804,348L792,348L792,300M84,336L84,336L96,336L96,420L84,420L84,336M792,360L792,360L804,360L804,444L792,444L792,360M84,432L84,432L96,432L96,492L84,492L84,432M792,456L792,456L804,456L804,552L792,552L792,456M84,504L84,504L96,504L96,552L84,552L84,504M96,552L96,552L228,552L228,564L96,564L96,552M792,552L792,552L792,564L720,564L720,552L792,552M240,552L240,552L264,552L264,564L240,564L240,552M276,552L276,552L540,552L540,564L276,564L276,552M552,552L552,552L708,552L708,564L552,564Z" class="start"></path></g></svg>