<svg xmlns:xlink="http://www.w3.org/1999/xlink" xmlns="http://www.w3.org/2000/svg" height="600" width="636" id="mapSvgView" version="1.1" style="width: 636px; height: 600px;" viewBox="0 0 636 600">
 <defs>
 <pattern y="0" x="0" height="24" width="24" patternUnits="userSpaceOnUse" id="grassPattern">
 <rect class="grasscolor" height="24" width="24" y="0" x="0"></rect>
 <rect class="grassspeclecolor" height="1" width="1" x="1" y="5"></rect>
 <rect class="grassspeclecolor" height="1" width="1" x="1" y="5"></rect>
 <rect class="grassspeclecolor" height="1" width="1" x="3" y="5"></rect>
 <rect class="grassspeclecolor" height="1" width="1" x="6" y="7"></rect>
 <rect class="grassspeclecolor" height="1" width="1" x="6" y="17"></rect>
 <rect class="grassspeclecolor" height="1" width="1" x="8" y="21"></rect>
 <rect class="grassspeclecolor" height="1" width="1" x="9" y="2"></rect>
 <rect class="grassspeclecolor" height="1" width="1" x="12" y="4"></rect>
 <rect class="grassspeclecolor" height="1" width="1" x="13" y="15"></rect>
 <rect class="grassspeclecolor" height="1" width="1" x="14" y="4"></rect>
 <rect class="grassspeclecolor" height="1" width="1" x="14" y="19"></rect>
 <rect class="grassspeclecolor" height="1" width="1" x="17" y="7"></rect>
 <rect class="grassspeclecolor" height="1" width="1" x="17" y="12"></rect>
 <rect class="grassspeclecolor" height="1" width="1" x="18" y="23"></rect>
 <rect class="grassspeclecolor" height="1" width="1" x="21" y="16"></rect>
 <rect class="grassspeclecolor" height="1" width="1" x="23" y="12"></rect>
 </pattern>
 <pattern y="0" x="0" height="24" width="24" patternUnits="userSpaceOnUse" id="roadPattern">
 <rect class="roadcolor" height="24" width="24" y="0" x="0"></rect>
 <rect class="roadspeclecolor" height="1" width="1" x="1" y="5"></rect>
 <rect class="roadspeclecolor" height="1" width="1" x="1" y="5"></rect>
 <rect class="roadspeclecolor" height="1" width="1" x="3" y="5"></rect>
 <rect class="roadspeclecolor" height="1" width="1" x="6" y="7"></rect>
 <rect class="roadspeclecolor" height="1" width="1" x="6" y="17"></rect>
 <rect class="roadspeclecolor" height="1" width="1" x="8" y="21"></rect>
 <rect class="roadspeclecolor" height="1" width="1" x="9" y="2"></rect>
 <rect class="roadspeclecolor" height="1" width="1" x="12" y="4"></rect>
 <rect class="roadspeclecolor" height="1" width="1" x="13" y="15"></rect>
 <rect class="roadspeclecolor" height="1" width="1" x="14" y="4"></rect>
 <rect class="roadspeclecolor" height="1" width="1" x="14" y="19"></rect>
 <rect class="roadspeclecolor" height="1" width="1" x="17" y="7"></rect>
 <rect class="roadspeclecolor" height="1" width="1" x="17" y="12"></rect>
 <rect class="roadspeclecolor" height="1" width="1" x="18" y="23"></rect>
 <rect class="roadspeclecolor" height="1" width="1" x="21" y="16"></rect>
 <rect class="roadspeclecolor" height="1" width="1" x="23" y="12"></rect>
 </pattern>
 <pattern y="0" x="0" height="12" width="12" patternUnits="userSpaceOnUse" id="grid">
 <line stroke-width="1" stroke="black" y2="12" x2="12" y1="0" x1="12"></line>
 <line stroke-width="1" stroke="black" y2="12" x2="12" y1="12" x1="0"></line>
 </pattern>
 <pattern y="0" x="0" height="12" width="12" patternUnits="userSpaceOnUse" id="finishPattern">
 <rect fill="black" height="12" width="12" y="0" x="0"></rect>
 <path fill="white" d="M0,0L3,0L3,3L0,3L0,0M6,0L9,0L9,3L6,3L6,0M3,3L6,3L6,6L3,6L3,3M9,3L12,3L12,6L9,6L9,3"></path>
 <path fill="white" d="M0,6L3,6L3,9L0,9L0,6M6,6L9,6L9,9L6,9L6,6M3,9L6,9L6,12L3,12L3,9M9,9L12,9L12,12L9,12L9,9"></path>
 </pattern>
 <pattern y="0" x="0" height="12" width="12" patternUnits="userSpaceOnUse" id="startPattern">
 <rect fill="rgb(100,100,100)" height="12" width="12" y="0" x="0"></rect>
 <rect stroke-width="1" stroke="rgb(200,200,200)" fill="none" height="5" width="5" y="3.5" x="3.5"></rect>
 </pattern>
 <pattern y="0" x="0" height="12" width="12" patternUnits="userSpaceOnUse" id="cp1pattern">
 <rect class="cp1color" height="12" width="12" y="0" x="0"></rect>
 <path fill="black" d="M0,0L3,0L3,3L0,3L0,0M6,0L9,0L9,3L6,3L6,0M3,3L6,3L6,6L3,6L3,3M9,3L12,3L12,6L9,6L9,3"></path>
 <path fill="black" d="M0,6L3,6L3,9L0,9L0,6M6,6L9,6L9,9L6,9L6,6M3,9L6,9L6,12L3,12L3,9M9,9L12,9L12,12L9,12L9,9"></path>
 </pattern>
 <pattern y="0" x="0" height="12" width="12" patternUnits="userSpaceOnUse" id="cp2pattern">
 <rect class="cp2color" height="12" width="12" y="0" x="0"></rect>
 <path fill="white" d="M0,0L3,0L3,3L0,3L0,0M6,0L9,0L9,3L6,3L6,0M3,3L6,3L6,6L3,6L3,3M9,3L12,3L12,6L9,6L9,3"></path>
 <path fill="white" d="M0,6L3,6L3,9L0,9L0,6M6,6L9,6L9,9L6,9L6,6M3,9L6,9L6,12L3,12L3,9M9,9L12,9L12,12L9,12L9,9"></path>
 </pattern>
 <pattern y="0" x="0" height="12" width="12" patternUnits="userSpaceOnUse" id="cp3pattern">
 <rect class="cp3color" height="12" width="12" y="0" x="0"></rect>
 <path fill="black" d="M0,0L3,0L3,3L0,3L0,0M6,0L9,0L9,3L6,3L6,0M3,3L6,3L6,6L3,6L3,3M9,3L12,3L12,6L9,6L9,3"></path>
 <path fill="black" d="M0,6L3,6L3,9L0,9L0,6M6,6L9,6L9,9L6,9L6,6M3,9L6,9L6,12L3,12L3,9M9,9L12,9L12,12L9,12L9,9"></path>
 </pattern>
 <pattern y="0" x="0" height="12" width="12" patternUnits="userSpaceOnUse" id="cp4pattern">
 <rect class="cp4color" height="12" width="12" y="0" x="0"></rect>
 <path fill="white" d="M0,0L3,0L3,3L0,3L0,0M6,0L9,0L9,3L6,3L6,0M3,3L6,3L6,6L3,6L3,3M9,3L12,3L12,6L9,6L9,3"></path>
 <path fill="white" d="M0,6L3,6L3,9L0,9L0,6M6,6L9,6L9,9L6,9L6,6M3,9L6,9L6,12L3,12L3,9M9,9L12,9L12,12L9,12L9,9"></path>
 </pattern>
 <pattern y="0" x="0" height="12" width="12" patternUnits="userSpaceOnUse" id="cp5pattern">
 <rect class="cp5color" height="12" width="12" y="0" x="0"></rect>
 <path fill="black" d="M0,0L3,0L3,3L0,3L0,0M6,0L9,0L9,3L6,3L6,0M3,3L6,3L6,6L3,6L3,3M9,3L12,3L12,6L9,6L9,3"></path>
 <path fill="black" d="M0,6L3,6L3,9L0,9L0,6M6,6L9,6L9,9L6,9L6,6M3,9L6,9L6,12L3,12L3,9M9,9L12,9L12,12L9,12L9,9"></path>
 </pattern>
 <pattern y="0" x="0" height="12" width="12" patternUnits="userSpaceOnUse" id="cp6pattern">
 <rect class="cp6color" height="12" width="12" y="0" x="0"></rect>
 <path fill="white" d="M0,0L3,0L3,3L0,3L0,0M6,0L9,0L9,3L6,3L6,0M3,3L6,3L6,6L3,6L3,3M9,3L12,3L12,6L9,6L9,3"></path>
 <path fill="white" d="M0,6L3,6L3,9L0,9L0,6M6,6L9,6L9,9L6,9L6,6M3,9L6,9L6,12L3,12L3,9M9,9L12,9L12,12L9,12L9,9"></path>
 </pattern>
 <pattern y="0" x="0" height="12" width="12" patternUnits="userSpaceOnUse" id="cp7pattern">
 <rect class="cp7color" height="12" width="12" y="0" x="0"></rect>
 <path fill="black" d="M0,0L3,0L3,3L0,3L0,0M6,0L9,0L9,3L6,3L6,0M3,3L6,3L6,6L3,6L3,3M9,3L12,3L12,6L9,6L9,3"></path>
 <path fill="black" d="M0,6L3,6L3,9L0,9L0,6M6,6L9,6L9,9L6,9L6,6M3,9L6,9L6,12L3,12L3,9M9,9L12,9L12,12L9,12L9,9"></path>
 </pattern>
 <pattern y="0" x="0" height="12" width="12" patternUnits="userSpaceOnUse" id="cp8pattern">
 <rect class="cp8color" height="12" width="12" y="0" x="0"></rect>
 <path fill="white" d="M0,0L3,0L3,3L0,3L0,0M6,0L9,0L9,3L6,3L6,0M3,3L6,3L6,6L3,6L3,3M9,3L12,3L12,6L9,6L9,3"></path>
 <path fill="white" d="M0,6L3,6L3,9L0,9L0,6M6,6L9,6L9,9L6,9L6,6M3,9L6,9L6,12L3,12L3,9M9,9L12,9L12,12L9,12L9,9"></path>
 </pattern>
 <pattern y="0" x="0" height="12" width="12" patternUnits="userSpaceOnUse" id="cp9pattern">
 <rect class="cp9color" height="12" width="12" y="0" x="0"></rect>
 <path fill="black" d="M0,0L3,0L3,3L0,3L0,0M6,0L9,0L9,3L6,3L6,0M3,3L6,3L6,6L3,6L3,3M9,3L12,3L12,6L9,6L9,3"></path>
 <path fill="black" d="M0,6L3,6L3,9L0,9L0,6M6,6L9,6L9,9L6,9L6,6M3,9L6,9L6,12L3,12L3,9M9,9L12,9L12,12L9,12L9,9"></path>
 </pattern>
 </defs>
 <rect height="100%" width="100%" y="0" x="0" class="road" id="mainfill"></rect>
 <g id="paths"><path d="M288,12L288,12L348,12L348,24L360,24L360,36L372,36L372,48L384,48L384,60L408,60L408,72L420,72L420,84L444,84L444,96L456,96L456,108L480,108L480,120L492,120L492,132L504,132L504,144L528,144L528,156L540,156L540,168L564,168L564,180L576,180L576,192L588,192L588,204L612,204L612,216L624,216L624,264L612,264L612,300L600,300L600,336L588,336L588,360L576,360L576,396L564,396L564,432L552,432L552,468L540,468L540,504L528,504L528,528L516,528L516,564L504,564L504,588L132,588L132,564L120,564L120,528L108,528L108,504L96,504L96,468L84,468L84,432L72,432L72,396L60,396L60,360L48,360L48,336L36,336L36,300L24,300L24,264L12,264L12,216L24,216L24,204L48,204L48,192L60,192L60,180L72,180L72,168L96,168L96,156L108,156L108,144L132,144L132,132L144,132L144,120L156,120L156,108L180,108L180,96L192,96L192,84L216,84L216,72L228,72L228,60L252,60L252,48L264,48L264,36L276,36L276,24L288,24L288,12M300,72L300,72L288,72L288,84L276,84L276,96L252,96L252,108L240,108L240,120L216,120L216,132L204,132L204,144L180,144L180,156L168,156L168,168L156,168L156,180L132,180L132,192L120,192L120,204L96,204L96,216L84,216L84,228L72,228L72,240L60,240L60,276L72,276L72,312L84,312L84,336L96,336L96,372L108,372L108,408L120,408L120,444L132,444L132,480L144,480L144,504L156,504L156,516L168,516L168,504L180,504L180,480L192,480L192,372L180,372L180,360L168,360L168,336L156,336L156,324L144,324L144,312L132,312L132,288L108,288L108,276L84,276L84,264L72,264L72,252L84,252L84,240L120,240L120,252L156,252L156,240L180,240L180,228L216,228L216,216L240,216L240,192L252,192L252,180L264,180L264,168L276,168L276,144L288,144L288,132L300,132L300,84L336,84L336,132L348,132L348,144L360,144L360,168L372,168L372,180L384,180L384,192L396,192L396,216L420,216L420,228L456,228L456,240L480,240L480,252L516,252L516,240L552,240L552,252L564,252L564,264L552,264L552,276L528,276L528,288L504,288L504,312L492,312L492,324L480,324L480,336L468,336L468,360L456,360L456,372L444,372L444,480L456,480L456,504L468,504L468,516L480,516L480,504L492,504L492,480L504,480L504,444L516,444L516,408L528,408L528,372L540,372L540,336L552,336L552,312L564,312L564,276L576,276L576,240L564,240L564,228L552,228L552,216L540,216L540,204L516,204L516,192L504,192L504,180L480,180L480,168L468,168L468,156L456,156L456,144L432,144L432,132L420,132L420,120L396,120L396,108L384,108L384,96L360,96L360,84L348,84L348,72L300,72M324,168L324,168L312,168L312,192L300,192L300,204L288,204L288,216L276,216L276,252L288,252L288,264L348,264L348,252L360,252L360,216L348,216L348,204L336,204L336,192L324,192L324,168M216,264L216,264L204,264L204,276L168,276L168,288L180,288L180,300L192,300L192,312L204,312L204,336L240,336L240,324L252,324L252,276L240,276L240,264L216,264M408,264L408,264L396,264L396,276L384,276L384,324L396,324L396,336L432,336L432,312L444,312L444,300L456,300L456,288L468,288L468,276L432,276L432,264L408,264M252,372L252,372L240,372L240,384L228,384L228,456L252,456L252,444L288,444L288,432L300,432L300,384L288,384L288,372L252,372M360,372L360,372L348,372L348,384L336,384L336,432L348,432L348,444L384,444L384,456L408,456L408,384L396,384L396,372L360,372M324,468L324,468L312,468L312,480L276,480L276,492L240,492L240,504L216,504L216,528L204,528L204,540L192,540L192,552L444,552L444,540L432,540L432,528L420,528L420,504L396,504L396,492L360,492L360,480L324,480Z" class="road"></path><path d="M120,252L120,252L144,252L144,264L132,264L132,288L120,288Z" class="cp1"></path><path d="M492,252L492,252L516,252L516,288L504,288L504,264L492,264Z" class="cp2"></path><path d="M300,120L300,120L336,120L336,132L324,132L324,144L312,144L312,132L300,132Z" class="cp3"></path><path d="M300,420L300,420L336,420L336,432L324,432L324,444L312,444L312,432L300,432Z" class="cp4"></path><path d="M0,0L0,0L12,0L12,120L0,120L0,0M504,12L504,12L516,12L516,24L504,24L504,12M516,24L516,24L528,24L528,36L516,36L516,24M504,24L504,24L504,36L492,36L492,24L504,24M552,12L552,12L564,12L564,24L552,24L552,12M564,24L564,24L576,24L576,36L564,36L564,24M552,24L552,24L552,36L540,36L540,24L552,24M444,36L444,36L480,36L480,48L444,48L444,36M588,36L588,36L624,36L624,48L588,48L588,36M528,48L528,48L540,48L540,60L528,60L528,48M444,60L444,60L480,60L480,72L444,72L444,60M588,60L588,60L624,60L624,72L588,72Z" class="parc"></path><path d="M12,0L12,0L636,0L636,600L0,600L0,120L12,120L12,0M300,12L300,12L288,12L288,24L276,24L276,36L264,36L264,48L252,48L252,60L228,60L228,72L216,72L216,84L192,84L192,96L180,96L180,108L156,108L156,120L144,120L144,132L132,132L132,144L108,144L108,156L96,156L96,168L72,168L72,180L60,180L60,192L48,192L48,204L24,204L24,216L12,216L12,264L24,264L24,300L36,300L36,336L48,336L48,360L60,360L60,396L72,396L72,432L84,432L84,468L96,468L96,504L108,504L108,528L120,528L120,564L132,564L132,588L504,588L504,564L516,564L516,528L528,528L528,504L540,504L540,468L552,468L552,432L564,432L564,396L576,396L576,360L588,360L588,336L600,336L600,300L612,300L612,264L624,264L624,216L612,216L612,204L588,204L588,192L576,192L576,180L564,180L564,168L540,168L540,156L528,156L528,144L504,144L504,132L492,132L492,120L480,120L480,108L456,108L456,96L444,96L444,84L420,84L420,72L408,72L408,60L384,60L384,48L372,48L372,36L360,36L360,24L348,24L348,12L300,12M516,12L516,12L504,12L504,24L492,24L492,36L504,36L504,24L516,24L516,12M564,12L564,12L552,12L552,24L540,24L540,36L552,36L552,24L564,24L564,12M528,24L528,24L516,24L516,36L528,36L528,24M576,24L576,24L564,24L564,36L576,36L576,24M456,36L456,36L444,36L444,48L480,48L480,36L456,36M600,36L600,36L588,36L588,48L624,48L624,36L600,36M540,48L540,48L528,48L528,60L540,60L540,48M456,60L456,60L444,60L444,72L480,72L480,60L456,60M600,60L600,60L588,60L588,72L624,72L624,60Z" class="grass"></path><path d="M300,12L300,12L312,12L312,72L300,72L300,12M324,12L324,12L336,12L336,72L324,72Z" class="start"></path><path d="M288,72L288,72L348,72L348,84L360,84L360,96L384,96L384,108L396,108L396,120L420,120L420,132L432,132L432,144L456,144L456,156L468,156L468,168L480,168L480,180L504,180L504,192L516,192L516,204L540,204L540,216L552,216L552,228L564,228L564,240L576,240L576,276L564,276L564,312L552,312L552,336L540,336L540,372L528,372L528,408L516,408L516,444L504,444L504,480L492,480L492,504L480,504L480,516L468,516L468,504L456,504L456,480L444,480L444,372L456,372L456,360L468,360L468,336L480,336L480,324L492,324L492,312L504,312L504,288L528,288L528,276L552,276L552,264L564,264L564,252L552,252L552,240L516,240L516,252L480,252L480,240L456,240L456,228L420,228L420,216L396,216L396,192L384,192L384,180L372,180L372,168L360,168L360,144L348,144L348,132L336,132L336,84L300,84L300,132L288,132L288,144L276,144L276,168L264,168L264,180L252,180L252,192L240,192L240,216L216,216L216,228L180,228L180,240L156,240L156,252L120,252L120,240L84,240L84,252L72,252L72,264L84,264L84,276L108,276L108,288L132,288L132,312L144,312L144,324L156,324L156,336L168,336L168,360L180,360L180,372L192,372L192,480L180,480L180,504L168,504L168,516L156,516L156,504L144,504L144,480L132,480L132,444L120,444L120,408L108,408L108,372L96,372L96,336L84,336L84,312L72,312L72,276L60,276L60,240L72,240L72,228L84,228L84,216L96,216L96,204L120,204L120,192L132,192L132,180L156,180L156,168L168,168L168,156L180,156L180,144L204,144L204,132L216,132L216,120L240,120L240,108L252,108L252,96L276,96L276,84L288,84L288,72M312,468L312,468L324,468L324,480L360,480L360,492L396,492L396,504L420,504L420,528L432,528L432,540L444,540L444,552L192,552L192,540L204,540L204,528L216,528L216,504L240,504L240,492L276,492L276,480L312,480Z" class="mud"></path><path d="M312,168L312,168L324,168L324,192L336,192L336,204L348,204L348,216L360,216L360,252L348,252L348,264L288,264L288,252L276,252L276,216L288,216L288,204L300,204L300,192L312,192L312,168M204,264L204,264L240,264L240,276L252,276L252,324L240,324L240,336L204,336L204,312L192,312L192,300L180,300L180,288L168,288L168,276L204,276L204,264M396,264L396,264L432,264L432,276L468,276L468,288L456,288L456,300L444,300L444,312L432,312L432,336L396,336L396,324L384,324L384,276L396,276L396,264M240,372L240,372L288,372L288,384L300,384L300,432L288,432L288,444L252,444L252,456L228,456L228,384L240,384L240,372M348,372L348,372L396,372L396,384L408,384L408,456L384,456L384,444L348,444L348,432L336,432L336,384L348,384Z" class="sand"></path><path d="M312,300L312,300L324,300L324,312L336,312L336,324L348,324L348,336L324,336L324,348L312,348L312,336L288,336L288,324L300,324L300,312L312,312Z" class="finish"></path></g>
 <rect opacity=".3" fill="url(#grid)" height="100%" width="100%" y="0" x="0"></rect>
</svg>