<svg xmlns:xlink="http://www.w3.org/1999/xlink" xmlns="http://www.w3.org/2000/svg" height="1212" width="1212" id="mapSvgView" version="1.1" style="width: 1212px; height: 1212px;" viewBox="0 0 1212 1212">
 <defs>
 <pattern y="0" x="0" height="24" width="24" patternUnits="userSpaceOnUse" id="grassPattern">
 <rect class="grasscolor" height="24" width="24" y="0" x="0"></rect>
 <rect class="grassspeclecolor" height="1" width="1" x="1" y="5"></rect>
 <rect class="grassspeclecolor" height="1" width="1" x="1" y="5"></rect>
 <rect class="grassspeclecolor" height="1" width="1" x="3" y="5"></rect>
 <rect class="grassspeclecolor" height="1" width="1" x="6" y="7"></rect>
 <rect class="grassspeclecolor" height="1" width="1" x="6" y="17"></rect>
 <rect class="grassspeclecolor" height="1" width="1" x="8" y="21"></rect>
 <rect class="grassspeclecolor" height="1" width="1" x="9" y="2"></rect>
 <rect class="grassspeclecolor" height="1" width="1" x="12" y="4"></rect>
 <rect class="grassspeclecolor" height="1" width="1" x="13" y="15"></rect>
 <rect class="grassspeclecolor" height="1" width="1" x="14" y="4"></rect>
 <rect class="grassspeclecolor" height="1" width="1" x="14" y="19"></rect>
 <rect class="grassspeclecolor" height="1" width="1" x="17" y="7"></rect>
 <rect class="grassspeclecolor" height="1" width="1" x="17" y="12"></rect>
 <rect class="grassspeclecolor" height="1" width="1" x="18" y="23"></rect>
 <rect class="grassspeclecolor" height="1" width="1" x="21" y="16"></rect>
 <rect class="grassspeclecolor" height="1" width="1" x="23" y="12"></rect>
 </pattern>
 <pattern y="0" x="0" height="24" width="24" patternUnits="userSpaceOnUse" id="roadPattern">
 <rect class="roadcolor" height="24" width="24" y="0" x="0"></rect>
 <rect class="roadspeclecolor" height="1" width="1" x="1" y="5"></rect>
 <rect class="roadspeclecolor" height="1" width="1" x="1" y="5"></rect>
 <rect class="roadspeclecolor" height="1" width="1" x="3" y="5"></rect>
 <rect class="roadspeclecolor" height="1" width="1" x="6" y="7"></rect>
 <rect class="roadspeclecolor" height="1" width="1" x="6" y="17"></rect>
 <rect class="roadspeclecolor" height="1" width="1" x="8" y="21"></rect>
 <rect class="roadspeclecolor" height="1" width="1" x="9" y="2"></rect>
 <rect class="roadspeclecolor" height="1" width="1" x="12" y="4"></rect>
 <rect class="roadspeclecolor" height="1" width="1" x="13" y="15"></rect>
 <rect class="roadspeclecolor" height="1" width="1" x="14" y="4"></rect>
 <rect class="roadspeclecolor" height="1" width="1" x="14" y="19"></rect>
 <rect class="roadspeclecolor" height="1" width="1" x="17" y="7"></rect>
 <rect class="roadspeclecolor" height="1" width="1" x="17" y="12"></rect>
 <rect class="roadspeclecolor" height="1" width="1" x="18" y="23"></rect>
 <rect class="roadspeclecolor" height="1" width="1" x="21" y="16"></rect>
 <rect class="roadspeclecolor" height="1" width="1" x="23" y="12"></rect>
 </pattern>
 <pattern y="0" x="0" height="12" width="12" patternUnits="userSpaceOnUse" id="grid">
 <line stroke-width="1" stroke="black" y2="12" x2="12" y1="0" x1="12"></line>
 <line stroke-width="1" stroke="black" y2="12" x2="12" y1="12" x1="0"></line>
 </pattern>
 <pattern y="0" x="0" height="12" width="12" patternUnits="userSpaceOnUse" id="finishPattern">
 <rect fill="black" height="12" width="12" y="0" x="0"></rect>
 <path fill="white" d="M0,0L3,0L3,3L0,3L0,0M6,0L9,0L9,3L6,3L6,0M3,3L6,3L6,6L3,6L3,3M9,3L12,3L12,6L9,6L9,3"></path>
 <path fill="white" d="M0,6L3,6L3,9L0,9L0,6M6,6L9,6L9,9L6,9L6,6M3,9L6,9L6,12L3,12L3,9M9,9L12,9L12,12L9,12L9,9"></path>
 </pattern>
 <pattern y="0" x="0" height="12" width="12" patternUnits="userSpaceOnUse" id="startPattern">
 <rect fill="rgb(100,100,100)" height="12" width="12" y="0" x="0"></rect>
 <rect stroke-width="1" stroke="rgb(200,200,200)" fill="none" height="5" width="5" y="3.5" x="3.5"></rect>
 </pattern>
 <pattern y="0" x="0" height="12" width="12" patternUnits="userSpaceOnUse" id="cp1pattern">
 <rect class="cp1color" height="12" width="12" y="0" x="0"></rect>
 <path fill="black" d="M0,0L3,0L3,3L0,3L0,0M6,0L9,0L9,3L6,3L6,0M3,3L6,3L6,6L3,6L3,3M9,3L12,3L12,6L9,6L9,3"></path>
 <path fill="black" d="M0,6L3,6L3,9L0,9L0,6M6,6L9,6L9,9L6,9L6,6M3,9L6,9L6,12L3,12L3,9M9,9L12,9L12,12L9,12L9,9"></path>
 </pattern>
 <pattern y="0" x="0" height="12" width="12" patternUnits="userSpaceOnUse" id="cp2pattern">
 <rect class="cp2color" height="12" width="12" y="0" x="0"></rect>
 <path fill="white" d="M0,0L3,0L3,3L0,3L0,0M6,0L9,0L9,3L6,3L6,0M3,3L6,3L6,6L3,6L3,3M9,3L12,3L12,6L9,6L9,3"></path>
 <path fill="white" d="M0,6L3,6L3,9L0,9L0,6M6,6L9,6L9,9L6,9L6,6M3,9L6,9L6,12L3,12L3,9M9,9L12,9L12,12L9,12L9,9"></path>
 </pattern>
 <pattern y="0" x="0" height="12" width="12" patternUnits="userSpaceOnUse" id="cp3pattern">
 <rect class="cp3color" height="12" width="12" y="0" x="0"></rect>
 <path fill="black" d="M0,0L3,0L3,3L0,3L0,0M6,0L9,0L9,3L6,3L6,0M3,3L6,3L6,6L3,6L3,3M9,3L12,3L12,6L9,6L9,3"></path>
 <path fill="black" d="M0,6L3,6L3,9L0,9L0,6M6,6L9,6L9,9L6,9L6,6M3,9L6,9L6,12L3,12L3,9M9,9L12,9L12,12L9,12L9,9"></path>
 </pattern>
 <pattern y="0" x="0" height="12" width="12" patternUnits="userSpaceOnUse" id="cp4pattern">
 <rect class="cp4color" height="12" width="12" y="0" x="0"></rect>
 <path fill="white" d="M0,0L3,0L3,3L0,3L0,0M6,0L9,0L9,3L6,3L6,0M3,3L6,3L6,6L3,6L3,3M9,3L12,3L12,6L9,6L9,3"></path>
 <path fill="white" d="M0,6L3,6L3,9L0,9L0,6M6,6L9,6L9,9L6,9L6,6M3,9L6,9L6,12L3,12L3,9M9,9L12,9L12,12L9,12L9,9"></path>
 </pattern>
 <pattern y="0" x="0" height="12" width="12" patternUnits="userSpaceOnUse" id="cp5pattern">
 <rect class="cp5color" height="12" width="12" y="0" x="0"></rect>
 <path fill="black" d="M0,0L3,0L3,3L0,3L0,0M6,0L9,0L9,3L6,3L6,0M3,3L6,3L6,6L3,6L3,3M9,3L12,3L12,6L9,6L9,3"></path>
 <path fill="black" d="M0,6L3,6L3,9L0,9L0,6M6,6L9,6L9,9L6,9L6,6M3,9L6,9L6,12L3,12L3,9M9,9L12,9L12,12L9,12L9,9"></path>
 </pattern>
 <pattern y="0" x="0" height="12" width="12" patternUnits="userSpaceOnUse" id="cp6pattern">
 <rect class="cp6color" height="12" width="12" y="0" x="0"></rect>
 <path fill="white" d="M0,0L3,0L3,3L0,3L0,0M6,0L9,0L9,3L6,3L6,0M3,3L6,3L6,6L3,6L3,3M9,3L12,3L12,6L9,6L9,3"></path>
 <path fill="white" d="M0,6L3,6L3,9L0,9L0,6M6,6L9,6L9,9L6,9L6,6M3,9L6,9L6,12L3,12L3,9M9,9L12,9L12,12L9,12L9,9"></path>
 </pattern>
 <pattern y="0" x="0" height="12" width="12" patternUnits="userSpaceOnUse" id="cp7pattern">
 <rect class="cp7color" height="12" width="12" y="0" x="0"></rect>
 <path fill="black" d="M0,0L3,0L3,3L0,3L0,0M6,0L9,0L9,3L6,3L6,0M3,3L6,3L6,6L3,6L3,3M9,3L12,3L12,6L9,6L9,3"></path>
 <path fill="black" d="M0,6L3,6L3,9L0,9L0,6M6,6L9,6L9,9L6,9L6,6M3,9L6,9L6,12L3,12L3,9M9,9L12,9L12,12L9,12L9,9"></path>
 </pattern>
 <pattern y="0" x="0" height="12" width="12" patternUnits="userSpaceOnUse" id="cp8pattern">
 <rect class="cp8color" height="12" width="12" y="0" x="0"></rect>
 <path fill="white" d="M0,0L3,0L3,3L0,3L0,0M6,0L9,0L9,3L6,3L6,0M3,3L6,3L6,6L3,6L3,3M9,3L12,3L12,6L9,6L9,3"></path>
 <path fill="white" d="M0,6L3,6L3,9L0,9L0,6M6,6L9,6L9,9L6,9L6,6M3,9L6,9L6,12L3,12L3,9M9,9L12,9L12,12L9,12L9,9"></path>
 </pattern>
 <pattern y="0" x="0" height="12" width="12" patternUnits="userSpaceOnUse" id="cp9pattern">
 <rect class="cp9color" height="12" width="12" y="0" x="0"></rect>
 <path fill="black" d="M0,0L3,0L3,3L0,3L0,0M6,0L9,0L9,3L6,3L6,0M3,3L6,3L6,6L3,6L3,3M9,3L12,3L12,6L9,6L9,3"></path>
 <path fill="black" d="M0,6L3,6L3,9L0,9L0,6M6,6L9,6L9,9L6,9L6,6M3,9L6,9L6,12L3,12L3,9M9,9L12,9L12,12L9,12L9,9"></path>
 </pattern>
 </defs>
 <rect height="100%" width="100%" y="0" x="0" class="grass" id="mainfill"></rect>
 <g id="paths"><path d="M456,180L456,180L648,180L648,192L696,192L696,204L720,204L720,216L744,216L744,228L768,228L768,240L792,240L792,252L804,252L804,264L816,264L816,276L828,276L828,288L840,288L840,300L852,300L852,312L864,312L864,324L876,324L876,336L888,336L888,348L900,348L900,372L912,372L912,384L924,384L924,408L936,408L936,432L948,432L948,468L960,468L960,528L972,528L972,612L960,612L960,672L948,672L948,708L936,708L936,732L924,732L924,756L912,756L912,768L900,768L900,780L888,780L888,792L876,792L876,804L864,804L864,816L852,816L852,828L840,828L840,840L828,840L828,852L804,852L804,864L780,864L780,876L756,876L756,888L720,888L720,900L576,900L576,888L540,888L540,876L516,876L516,864L492,864L492,852L480,852L480,840L456,840L456,828L444,828L444,816L432,816L432,792L420,792L420,780L408,780L408,756L396,756L396,732L384,732L384,684L372,684L372,600L384,600L384,564L396,564L396,540L408,540L408,516L420,516L420,504L432,504L432,492L444,492L444,480L456,480L456,468L468,468L468,456L492,456L492,444L528,444L528,432L600,432L600,444L636,444L636,456L660,456L660,468L672,468L672,480L684,480L684,492L696,492L696,516L708,516L708,552L720,552L720,576L708,576L708,612L696,612L696,636L672,636L672,648L624,648L624,636L612,636L612,612L600,612L600,600L588,600L588,588L564,588L564,600L540,600L540,624L528,624L528,672L540,672L540,696L552,696L552,708L564,708L564,720L576,720L576,732L600,732L600,744L696,744L696,732L720,732L720,720L732,720L732,708L756,708L756,696L768,696L768,672L780,672L780,660L792,660L792,636L804,636L804,504L792,504L792,468L780,468L780,444L768,444L768,432L756,432L756,420L744,420L744,408L732,408L732,396L720,396L720,384L696,384L696,372L684,372L684,360L648,360L648,348L588,348L588,336L552,336L552,348L492,348L492,360L456,360L456,372L432,372L432,384L408,384L408,396L396,396L396,408L384,408L384,420L372,420L372,432L360,432L360,444L348,444L348,456L336,456L336,468L324,468L324,492L312,492L312,516L300,516L300,540L288,540L288,576L276,576L276,720L288,720L288,768L300,768L300,780L312,780L312,804L324,804L324,828L336,828L336,840L348,840L348,864L360,864L360,876L372,876L372,888L384,888L384,900L396,900L396,912L408,912L408,924L420,924L420,936L444,936L444,948L456,948L456,960L480,960L480,972L516,972L516,984L552,984L552,996L744,996L744,984L780,984L780,972L816,972L816,960L840,960L840,948L852,948L852,936L876,936L876,924L888,924L888,912L900,912L900,900L924,900L924,888L936,888L936,876L948,876L948,864L960,864L960,852L972,852L972,828L984,828L984,816L996,816L996,804L1008,804L1008,780L1020,780L1020,756L1032,756L1032,732L1044,732L1044,696L1056,696L1056,660L1068,660L1068,624L1080,624L1080,612L1140,612L1140,624L1128,624L1128,660L1116,660L1116,696L1104,696L1104,732L1092,732L1092,756L1080,756L1080,780L1068,780L1068,816L1056,816L1056,828L1044,828L1044,852L1032,852L1032,864L1020,864L1020,876L1008,876L1008,888L996,888L996,900L984,900L984,912L972,912L972,924L960,924L960,936L948,936L948,948L936,948L936,960L912,960L912,972L888,972L888,984L864,984L864,996L828,996L828,1008L804,1008L804,1020L756,1020L756,1032L564,1032L564,1020L516,1020L516,1008L492,1008L492,996L468,996L468,984L444,984L444,972L420,972L420,960L408,960L408,948L396,948L396,936L384,936L384,924L372,924L372,912L360,912L360,900L348,900L348,888L336,888L336,876L324,876L324,864L312,864L312,840L300,840L300,828L288,828L288,804L276,804L276,780L264,780L264,744L252,744L252,684L240,684L240,600L252,600L252,540L264,540L264,504L276,504L276,480L288,480L288,456L300,456L300,444L312,444L312,432L324,432L324,420L336,420L336,408L348,408L348,396L360,396L360,384L372,384L372,372L384,372L384,360L408,360L408,348L432,348L432,336L456,336L456,324L492,324L492,312L636,312L636,324L672,324L672,336L696,336L696,348L720,348L720,360L732,360L732,372L756,372L756,384L768,384L768,396L780,396L780,420L792,420L792,432L804,432L804,456L816,456L816,480L828,480L828,528L840,528L840,612L828,612L828,648L816,648L816,672L804,672L804,696L792,696L792,708L780,708L780,720L768,720L768,732L756,732L756,744L744,744L744,756L720,756L720,768L684,768L684,780L612,780L612,768L576,768L576,756L552,756L552,744L540,744L540,732L528,732L528,720L516,720L516,696L504,696L504,660L492,660L492,636L504,636L504,600L516,600L516,576L540,576L540,564L588,564L588,576L600,576L600,600L612,600L612,612L624,612L624,624L648,624L648,612L672,612L672,588L684,588L684,540L672,540L672,516L660,516L660,504L648,504L648,492L636,492L636,480L612,480L612,468L516,468L516,480L492,480L492,492L480,492L480,504L456,504L456,516L444,516L444,540L432,540L432,552L420,552L420,576L408,576L408,708L420,708L420,744L432,744L432,768L444,768L444,780L456,780L456,792L468,792L468,804L480,804L480,816L492,816L492,828L516,828L516,840L528,840L528,852L564,852L564,864L624,864L624,876L660,876L660,864L720,864L720,852L756,852L756,840L780,840L780,828L804,828L804,816L816,816L816,804L828,804L828,792L840,792L840,780L852,780L852,768L864,768L864,756L876,756L876,744L888,744L888,720L900,720L900,696L912,696L912,672L924,672L924,636L936,636L936,492L924,492L924,444L912,444L912,432L900,432L900,408L888,408L888,384L876,384L876,372L864,372L864,348L852,348L852,336L840,336L840,324L828,324L828,312L816,312L816,300L804,300L804,288L792,288L792,276L768,276L768,264L756,264L756,252L732,252L732,240L696,240L696,228L660,228L660,216L468,216L468,228L432,228L432,240L396,240L396,252L372,252L372,264L360,264L360,276L336,276L336,288L324,288L324,300L312,300L312,312L288,312L288,324L276,324L276,336L264,336L264,348L252,348L252,360L240,360L240,384L228,384L228,396L216,396L216,408L204,408L204,432L192,432L192,456L180,456L180,480L168,480L168,516L156,516L156,552L144,552L144,588L132,588L132,600L72,600L72,588L84,588L84,552L96,552L96,516L108,516L108,480L120,480L120,456L132,456L132,432L144,432L144,396L156,396L156,384L168,384L168,360L180,360L180,348L192,348L192,336L204,336L204,324L216,324L216,312L228,312L228,300L240,300L240,288L252,288L252,276L264,276L264,264L276,264L276,252L300,252L300,240L324,240L324,228L348,228L348,216L384,216L384,204L408,204L408,192L456,192Z" class="road"></path><path d="M600,600L600,600L612,600L612,612L600,612Z" class="cp1"></path><path d="M0,0L0,0L12,0L12,12L24,12L24,24L36,24L36,36L48,36L48,48L60,48L60,60L72,60L72,72L84,72L84,84L96,84L96,96L108,96L108,108L120,108L120,120L132,120L132,132L144,132L144,144L156,144L156,156L168,156L168,168L180,168L180,180L192,180L192,192L204,192L204,204L216,204L216,216L228,216L228,228L240,228L240,240L252,240L252,252L264,252L264,276L252,276L252,288L240,288L240,300L228,300L228,312L216,312L216,324L204,324L204,336L192,336L192,348L180,348L180,360L168,360L168,384L156,384L156,396L144,396L144,432L132,432L132,456L120,456L120,480L108,480L108,516L96,516L96,552L84,552L84,588L72,588L72,600L0,600L0,0M1140,612L1140,612L1212,612L1212,1212L1200,1212L1200,1200L1188,1200L1188,1188L1176,1188L1176,1176L1164,1176L1164,1164L1152,1164L1152,1152L1140,1152L1140,1140L1128,1140L1128,1128L1116,1128L1116,1116L1104,1116L1104,1104L1092,1104L1092,1092L1080,1092L1080,1080L1068,1080L1068,1068L1056,1068L1056,1056L1044,1056L1044,1044L1032,1044L1032,1032L1020,1032L1020,1020L1008,1020L1008,1008L996,1008L996,996L984,996L984,984L972,984L972,972L960,972L960,960L948,960L948,936L960,936L960,924L972,924L972,912L984,912L984,900L996,900L996,888L1008,888L1008,876L1020,876L1020,864L1032,864L1032,852L1044,852L1044,828L1056,828L1056,816L1068,816L1068,780L1080,780L1080,756L1092,756L1092,732L1104,732L1104,696L1116,696L1116,660L1128,660L1128,624L1140,624Z" class="parc"></path><path d="M12,0L12,0L612,0L612,132L624,132L624,144L660,144L660,156L696,156L696,168L732,168L732,180L756,180L756,192L780,192L780,204L804,204L804,216L816,216L816,228L828,228L828,240L852,240L852,252L864,252L864,264L876,264L876,276L888,276L888,288L900,288L900,312L912,312L912,324L924,324L924,336L936,336L936,360L948,360L948,372L960,372L960,396L972,396L972,432L984,432L984,468L996,468L996,660L984,660L984,696L972,696L972,732L960,732L960,756L948,756L948,768L936,768L936,792L924,792L924,804L912,804L912,816L900,816L900,828L888,828L888,840L876,840L876,852L864,852L864,864L840,864L840,876L828,876L828,888L804,888L804,900L780,900L780,912L768,912L768,924L720,924L720,936L576,936L576,924L540,924L540,912L516,912L516,900L492,900L492,888L468,888L468,876L456,876L456,864L444,864L444,852L432,852L432,840L420,840L420,828L408,828L408,816L396,816L396,804L384,804L384,780L372,780L372,756L360,756L360,720L348,720L348,660L336,660L336,624L348,624L348,564L360,564L360,528L372,528L372,516L384,516L384,492L396,492L396,480L408,480L408,468L420,468L420,456L432,456L432,444L444,444L444,432L468,432L468,420L504,420L504,408L636,408L636,420L660,420L660,432L672,432L672,444L696,444L696,456L708,456L708,480L720,480L720,492L732,492L732,516L744,516L744,612L732,612L732,636L720,636L720,648L708,648L708,660L696,660L696,672L672,672L672,684L624,684L624,672L600,672L600,648L588,648L588,624L600,624L600,612L612,612L612,636L624,636L624,648L672,648L672,636L696,636L696,612L708,612L708,576L720,576L720,552L708,552L708,516L696,516L696,492L684,492L684,480L672,480L672,468L660,468L660,456L636,456L636,444L600,444L600,432L528,432L528,444L492,444L492,456L468,456L468,468L456,468L456,480L444,480L444,492L432,492L432,504L420,504L420,516L408,516L408,540L396,540L396,564L384,564L384,600L372,600L372,684L384,684L384,732L396,732L396,756L408,756L408,780L420,780L420,792L432,792L432,816L444,816L444,828L456,828L456,840L480,840L480,852L492,852L492,864L516,864L516,876L540,876L540,888L576,888L576,900L720,900L720,888L756,888L756,876L780,876L780,864L804,864L804,852L828,852L828,840L840,840L840,828L852,828L852,816L864,816L864,804L876,804L876,792L888,792L888,780L900,780L900,768L912,768L912,756L924,756L924,732L936,732L936,708L948,708L948,672L960,672L960,612L972,612L972,528L960,528L960,468L948,468L948,432L936,432L936,408L924,408L924,384L912,384L912,372L900,372L900,348L888,348L888,336L876,336L876,324L864,324L864,312L852,312L852,300L840,300L840,288L828,288L828,276L816,276L816,264L804,264L804,252L792,252L792,240L768,240L768,228L744,228L744,216L720,216L720,204L696,204L696,192L648,192L648,180L456,180L456,192L408,192L408,204L384,204L384,216L348,216L348,228L324,228L324,240L300,240L300,252L276,252L276,264L264,264L264,252L252,252L252,240L240,240L240,228L228,228L228,216L216,216L216,204L204,204L204,192L192,192L192,180L180,180L180,168L168,168L168,156L156,156L156,144L144,144L144,132L132,132L132,120L120,120L120,108L108,108L108,96L96,96L96,84L84,84L84,72L72,72L72,60L60,60L60,48L48,48L48,36L36,36L36,24L24,24L24,12L12,12L12,0M492,276L492,276L636,276L636,288L672,288L672,300L696,300L696,312L720,312L720,324L744,324L744,336L756,336L756,348L768,348L768,360L780,360L780,372L792,372L792,384L804,384L804,396L816,396L816,408L828,408L828,432L840,432L840,456L852,456L852,492L864,492L864,552L876,552L876,588L864,588L864,648L852,648L852,684L840,684L840,696L828,696L828,720L816,720L816,732L804,732L804,744L792,744L792,756L780,756L780,768L768,768L768,780L744,780L744,792L708,792L708,804L576,804L576,792L552,792L552,780L540,780L540,768L516,768L516,756L504,756L504,732L492,732L492,720L480,720L480,696L468,696L468,600L480,600L480,576L492,576L492,564L504,564L504,552L516,552L516,540L540,540L540,528L588,528L588,540L612,540L612,564L624,564L624,588L612,588L612,600L600,600L600,576L588,576L588,564L540,564L540,576L516,576L516,600L504,600L504,636L492,636L492,660L504,660L504,696L516,696L516,720L528,720L528,732L540,732L540,744L552,744L552,756L576,756L576,768L612,768L612,780L684,780L684,768L720,768L720,756L744,756L744,744L756,744L756,732L768,732L768,720L780,720L780,708L792,708L792,696L804,696L804,672L816,672L816,648L828,648L828,612L840,612L840,528L828,528L828,480L816,480L816,456L804,456L804,432L792,432L792,420L780,420L780,396L768,396L768,384L756,384L756,372L732,372L732,360L720,360L720,348L696,348L696,336L672,336L672,324L636,324L636,312L492,312L492,324L456,324L456,336L432,336L432,348L408,348L408,360L384,360L384,372L372,372L372,384L360,384L360,396L348,396L348,408L336,408L336,420L324,420L324,432L312,432L312,444L300,444L300,456L288,456L288,480L276,480L276,504L264,504L264,540L252,540L252,600L240,600L240,684L252,684L252,744L264,744L264,780L276,780L276,804L288,804L288,828L300,828L300,840L312,840L312,864L324,864L324,876L336,876L336,888L348,888L348,900L360,900L360,912L372,912L372,924L384,924L384,936L396,936L396,948L408,948L408,960L420,960L420,972L444,972L444,984L468,984L468,996L492,996L492,1008L516,1008L516,1020L564,1020L564,1032L756,1032L756,1020L804,1020L804,1008L828,1008L828,996L864,996L864,984L888,984L888,972L912,972L912,960L936,960L936,948L948,948L948,960L960,960L960,972L972,972L972,984L984,984L984,996L996,996L996,1008L1008,1008L1008,1020L1020,1020L1020,1032L1032,1032L1032,1044L1044,1044L1044,1056L1056,1056L1056,1068L1068,1068L1068,1080L1080,1080L1080,1092L1092,1092L1092,1104L1104,1104L1104,1116L1116,1116L1116,1128L1128,1128L1128,1140L1140,1140L1140,1152L1152,1152L1152,1164L1164,1164L1164,1176L1176,1176L1176,1188L1188,1188L1188,1200L1200,1200L1200,1212L600,1212L600,1080L588,1080L588,1068L552,1068L552,1056L516,1056L516,1044L480,1044L480,1032L456,1032L456,1020L432,1020L432,1008L408,1008L408,996L396,996L396,984L384,984L384,972L360,972L360,960L348,960L348,948L336,948L336,936L324,936L324,924L312,924L312,900L300,900L300,888L288,888L288,876L276,876L276,852L264,852L264,840L252,840L252,816L240,816L240,780L228,780L228,744L216,744L216,552L228,552L228,516L240,516L240,480L252,480L252,456L264,456L264,444L276,444L276,420L288,420L288,408L300,408L300,396L312,396L312,384L324,384L324,372L336,372L336,360L348,360L348,348L372,348L372,336L384,336L384,324L408,324L408,312L432,312L432,300L444,300L444,288L492,288Z" class="sand"></path><path d="M1200,12L1200,12L1212,12L1212,612L1080,612L1080,624L1068,624L1068,660L1056,660L1056,696L1044,696L1044,732L1032,732L1032,756L1020,756L1020,780L1008,780L1008,804L996,804L996,816L984,816L984,828L972,828L972,852L960,852L960,864L948,864L948,876L936,876L936,888L924,888L924,900L900,900L900,912L888,912L888,924L876,924L876,936L852,936L852,948L840,948L840,960L816,960L816,972L780,972L780,984L744,984L744,996L552,996L552,984L516,984L516,972L480,972L480,960L456,960L456,948L444,948L444,936L420,936L420,924L408,924L408,912L396,912L396,900L384,900L384,888L372,888L372,876L360,876L360,864L348,864L348,840L336,840L336,828L324,828L324,804L312,804L312,780L300,780L300,768L288,768L288,720L276,720L276,576L288,576L288,540L300,540L300,516L312,516L312,492L324,492L324,468L336,468L336,456L348,456L348,444L360,444L360,432L372,432L372,420L384,420L384,408L396,408L396,396L408,396L408,384L432,384L432,372L456,372L456,360L492,360L492,348L552,348L552,336L588,336L588,348L648,348L648,360L684,360L684,372L696,372L696,384L720,384L720,396L732,396L732,408L744,408L744,420L756,420L756,432L768,432L768,444L780,444L780,468L792,468L792,504L804,504L804,636L792,636L792,660L780,660L780,672L768,672L768,696L756,696L756,708L732,708L732,720L720,720L720,732L696,732L696,744L600,744L600,732L576,732L576,720L564,720L564,708L552,708L552,696L540,696L540,672L528,672L528,624L540,624L540,600L564,600L564,588L588,588L588,600L600,600L600,612L576,612L576,624L564,624L564,672L576,672L576,696L600,696L600,708L636,708L636,720L660,720L660,708L696,708L696,696L720,696L720,684L732,684L732,672L744,672L744,660L756,660L756,636L768,636L768,600L780,600L780,528L768,528L768,492L756,492L756,468L744,468L744,456L732,456L732,444L720,444L720,432L708,432L708,420L696,420L696,408L672,408L672,396L648,396L648,384L612,384L612,372L528,372L528,384L480,384L480,396L456,396L456,408L432,408L432,420L420,420L420,432L396,432L396,444L384,444L384,456L372,456L372,480L360,480L360,492L348,492L348,516L336,516L336,540L324,540L324,576L312,576L312,720L324,720L324,756L336,756L336,780L348,780L348,804L360,804L360,828L372,828L372,840L384,840L384,852L396,852L396,864L408,864L408,876L420,876L420,888L432,888L432,900L444,900L444,912L456,912L456,924L480,924L480,936L504,936L504,948L540,948L540,960L600,960L600,972L684,972L684,960L744,960L744,948L780,948L780,936L804,936L804,924L828,924L828,912L840,912L840,900L864,900L864,888L876,888L876,876L888,876L888,864L900,864L900,852L924,852L924,840L936,840L936,816L948,816L948,804L960,804L960,792L972,792L972,768L984,768L984,744L996,744L996,720L1008,720L1008,696L1020,696L1020,648L1032,648L1032,456L1020,456L1020,408L1008,408L1008,384L996,384L996,348L984,348L984,324L972,324L972,300L960,300L960,276L948,276L948,264L960,264L960,252L972,252L972,240L984,240L984,228L996,228L996,216L1008,216L1008,204L1020,204L1020,192L1032,192L1032,180L1044,180L1044,168L1056,168L1056,156L1068,156L1068,144L1080,144L1080,132L1092,132L1092,120L1104,120L1104,108L1116,108L1116,96L1128,96L1128,84L1140,84L1140,72L1152,72L1152,60L1164,60L1164,48L1176,48L1176,36L1188,36L1188,24L1200,24L1200,12M468,216L468,216L660,216L660,228L696,228L696,240L732,240L732,252L756,252L756,264L768,264L768,276L792,276L792,288L804,288L804,300L816,300L816,312L828,312L828,324L840,324L840,336L852,336L852,348L864,348L864,372L876,372L876,384L888,384L888,408L900,408L900,432L912,432L912,444L924,444L924,492L936,492L936,636L924,636L924,672L912,672L912,696L900,696L900,720L888,720L888,744L876,744L876,756L864,756L864,768L852,768L852,780L840,780L840,792L828,792L828,804L816,804L816,816L804,816L804,828L780,828L780,840L756,840L756,852L720,852L720,864L660,864L660,876L624,876L624,864L564,864L564,852L528,852L528,840L516,840L516,828L492,828L492,816L480,816L480,804L468,804L468,792L456,792L456,780L444,780L444,768L432,768L432,744L420,744L420,708L408,708L408,576L420,576L420,552L432,552L432,540L444,540L444,516L456,516L456,504L480,504L480,492L492,492L492,480L516,480L516,468L612,468L612,480L636,480L636,492L648,492L648,504L660,504L660,516L672,516L672,540L684,540L684,588L672,588L672,612L648,612L648,624L624,624L624,612L612,612L612,600L636,600L636,588L648,588L648,540L636,540L636,516L612,516L612,504L576,504L576,492L552,492L552,504L516,504L516,516L492,516L492,528L480,528L480,540L468,540L468,552L456,552L456,576L444,576L444,612L432,612L432,684L444,684L444,720L456,720L456,744L468,744L468,756L480,756L480,768L492,768L492,780L504,780L504,792L516,792L516,804L540,804L540,816L564,816L564,828L600,828L600,840L684,840L684,828L732,828L732,816L756,816L756,804L780,804L780,792L792,792L792,780L816,780L816,768L828,768L828,756L840,756L840,732L852,732L852,720L864,720L864,696L876,696L876,672L888,672L888,636L900,636L900,492L888,492L888,456L876,456L876,432L864,432L864,408L852,408L852,384L840,384L840,372L828,372L828,360L816,360L816,348L804,348L804,336L792,336L792,324L780,324L780,312L768,312L768,300L756,300L756,288L732,288L732,276L708,276L708,264L672,264L672,252L612,252L612,240L528,240L528,252L468,252L468,264L432,264L432,276L408,276L408,288L384,288L384,300L372,300L372,312L348,312L348,324L336,324L336,336L324,336L324,348L312,348L312,360L288,360L288,372L276,372L276,396L264,396L264,408L252,408L252,420L240,420L240,444L228,444L228,468L216,468L216,492L204,492L204,516L192,516L192,564L180,564L180,756L192,756L192,804L204,804L204,828L216,828L216,864L228,864L228,888L240,888L240,912L252,912L252,936L264,936L264,948L252,948L252,960L240,960L240,972L228,972L228,984L216,984L216,996L204,996L204,1008L192,1008L192,1020L180,1020L180,1032L168,1032L168,1044L156,1044L156,1056L144,1056L144,1068L132,1068L132,1080L120,1080L120,1092L108,1092L108,1104L96,1104L96,1116L84,1116L84,1128L72,1128L72,1140L60,1140L60,1152L48,1152L48,1164L36,1164L36,1176L24,1176L24,1188L12,1188L12,1200L0,1200L0,600L132,600L132,588L144,588L144,552L156,552L156,516L168,516L168,480L180,480L180,456L192,456L192,432L204,432L204,408L216,408L216,396L228,396L228,384L240,384L240,360L252,360L252,348L264,348L264,336L276,336L276,324L288,324L288,312L312,312L312,300L324,300L324,288L336,288L336,276L360,276L360,264L372,264L372,252L396,252L396,240L432,240L432,228L468,228Z" class="mud"></path><path d="M276,264L276,264L288,264L288,276L276,276L276,264M288,276L288,276L300,276L300,288L288,288L288,276M300,288L300,288L312,288L312,300L300,300L300,288M900,912L900,912L912,912L912,924L900,924L900,912M912,924L912,924L924,924L924,936L912,936L912,924M924,936L924,936L936,936L936,948L924,948Z" class="start"></path><path d="M252,276L252,276L276,276L276,288L288,288L288,300L300,300L300,312L288,312L288,324L276,324L276,336L264,336L264,348L252,348L252,360L240,360L240,384L228,384L228,396L216,396L216,408L204,408L204,432L192,432L192,456L180,456L180,480L168,480L168,516L156,516L156,552L144,552L144,588L132,588L132,600L72,600L72,588L84,588L84,552L96,552L96,516L108,516L108,480L120,480L120,456L132,456L132,432L144,432L144,396L156,396L156,384L168,384L168,360L180,360L180,348L192,348L192,336L204,336L204,324L216,324L216,312L228,312L228,300L240,300L240,288L252,288L252,276M1080,612L1080,612L1140,612L1140,624L1128,624L1128,660L1116,660L1116,696L1104,696L1104,732L1092,732L1092,756L1080,756L1080,780L1068,780L1068,816L1056,816L1056,828L1044,828L1044,852L1032,852L1032,864L1020,864L1020,876L1008,876L1008,888L996,888L996,900L984,900L984,912L972,912L972,924L960,924L960,936L936,936L936,924L924,924L924,912L912,912L912,900L924,900L924,888L936,888L936,876L948,876L948,864L960,864L960,852L972,852L972,828L984,828L984,816L996,816L996,804L1008,804L1008,780L1020,780L1020,756L1032,756L1032,732L1044,732L1044,696L1056,696L1056,660L1068,660L1068,624L1080,624Z" class="finish"></path></g>
 <rect opacity=".3" fill="url(#grid)" height="100%" width="100%" y="0" x="0"></rect>
</svg>