<svg xmlns="http://www.w3.org/2000/svg" xmlns:xlink="http://www.w3.org/1999/xlink" version="1.1" id="mapSvgView" width="864" height="720"> <rect id="mainfill" class="grass" x="0" y="0" width="100%" height="100%"></rect> <g id="paths"><path d="M420,168L420,168L444,168L444,252L420,252Z" class="cp1"></path><path d="M420,324L420,324L444,324L444,336L420,336L420,324M420,348L420,348L444,348L444,360L420,360L420,348M420,372L420,372L444,372L444,384L420,384L420,372M420,396L420,396L444,396L444,408L420,408Z" class="cp2"></path><path d="M96,12L96,12L420,12L420,96L108,96L108,108L96,108L96,156L108,156L108,168L420,168L420,252L108,252L108,264L96,264L96,312L108,312L108,324L420,324L420,336L384,336L384,348L420,348L420,360L384,360L384,372L420,372L420,384L384,384L384,396L420,396L420,408L108,408L108,420L96,420L96,468L108,468L108,480L756,480L756,468L768,468L768,420L756,420L756,408L444,408L444,396L480,396L480,384L444,384L444,372L480,372L480,360L444,360L444,348L480,348L480,336L444,336L444,324L756,324L756,312L768,312L768,264L756,264L756,252L444,252L444,168L756,168L756,156L768,156L768,108L756,108L756,96L444,96L444,12L768,12L768,24L792,24L792,36L816,36L816,48L828,48L828,72L840,72L840,96L852,96L852,168L840,168L840,192L828,192L828,228L840,228L840,252L852,252L852,324L840,324L840,348L828,348L828,384L840,384L840,408L852,408L852,480L840,480L840,504L828,504L828,528L816,528L816,540L792,540L792,552L768,552L768,564L456,564L456,696L408,696L408,564L96,564L96,552L72,552L72,540L48,540L48,528L36,528L36,504L24,504L24,480L12,480L12,408L24,408L24,384L36,384L36,348L24,348L24,324L12,324L12,252L24,252L24,228L36,228L36,192L24,192L24,168L12,168L12,96L24,96L24,72L36,72L36,48L48,48L48,36L72,36L72,24L96,24Z" class="road"></path><path d="M420,12L420,12L444,12L444,96L420,96Z" class="start"></path><path d="M408,696L408,696L456,696L456,708L408,708Z" class="finish"></path></g></svg>