<svg xmlns="http://www.w3.org/2000/svg" xmlns:xlink="http://www.w3.org/1999/xlink" version="1.1" id="mapSvgView" width="828" height="144"> <rect id="mainfill" class="grass" x="0" y="0" width="100%" height="100%"></rect> <g id="paths"><path d="M0,0L0,0L12,0L12,60L0,60Z" class="parc"></path><path d="M96,12L96,12L204,12L204,24L288,24L288,36L336,36L336,48L372,48L372,60L420,60L420,72L468,72L468,84L480,84L480,72L492,72L492,60L516,60L516,48L540,48L540,36L576,36L576,24L624,24L624,12L792,12L792,72L672,72L672,84L636,84L636,96L612,96L612,108L588,108L588,120L504,120L504,108L492,108L492,120L420,120L420,108L372,108L372,96L336,96L336,84L300,84L300,72L240,72L240,60L204,60L204,48L192,48L192,60L144,60L144,72L96,72L96,84L60,84L60,96L24,96L24,36L48,36L48,24L96,24L96,12M132,24L132,24L120,24L120,36L132,36L132,24M192,24L192,24L180,24L180,36L192,36L192,24M804,12L804,12L816,12L816,72L804,72L804,12M156,36L156,36L144,36L144,48L156,48L156,36M252,36L252,36L240,36L240,48L252,48L252,36M648,36L648,36L636,36L636,48L648,48L648,36M108,48L108,48L96,48L96,60L108,60L108,48M300,48L300,48L288,48L288,60L300,60L300,48M576,48L576,48L564,48L564,60L576,60L576,48M684,48L684,48L672,48L672,60L684,60L684,48M336,60L336,60L324,60L324,72L336,72L336,60M624,60L624,60L612,60L612,72L624,72L624,60M372,72L372,72L360,72L360,84L372,84L372,72M408,72L408,72L396,72L396,84L408,84L408,72M564,72L564,72L552,72L552,84L564,84L564,72M432,84L432,84L420,84L420,96L432,96L432,84M516,84L516,84L504,84L504,96L516,96L516,84M144,84L144,84L156,84L156,96L144,96L144,84M156,96L156,96L168,96L168,84L204,84L204,96L180,96L180,108L204,108L204,96L216,96L216,108L204,108L204,120L180,120L180,132L168,132L168,120L156,120L156,96M456,96L456,96L444,96L444,108L456,108L456,96M564,96L564,96L552,96L552,108L564,108L564,96M156,120L156,120L156,132L144,132L144,120Z" class="road"></path><path d="M792,12L792,12L804,12L804,72L792,72Z" class="finish"></path><path d="M12,36L12,36L24,36L24,96L12,96Z" class="start"></path></g></svg>