<svg xmlns:xlink="http://www.w3.org/1999/xlink" xmlns="http://www.w3.org/2000/svg" height="1140" width="1140" id="mapSvgView" version="1.1" style="width: 1140px; height: 1140px;" viewBox="0 0 1140 1140">
 <defs>
 <pattern y="0" x="0" height="24" width="24" patternUnits="userSpaceOnUse" id="grassPattern">
 <rect class="grasscolor" height="24" width="24" y="0" x="0"></rect>
 <rect class="grassspeclecolor" height="1" width="1" x="1" y="5"></rect>
 <rect class="grassspeclecolor" height="1" width="1" x="1" y="5"></rect>
 <rect class="grassspeclecolor" height="1" width="1" x="3" y="5"></rect>
 <rect class="grassspeclecolor" height="1" width="1" x="6" y="7"></rect>
 <rect class="grassspeclecolor" height="1" width="1" x="6" y="17"></rect>
 <rect class="grassspeclecolor" height="1" width="1" x="8" y="21"></rect>
 <rect class="grassspeclecolor" height="1" width="1" x="9" y="2"></rect>
 <rect class="grassspeclecolor" height="1" width="1" x="12" y="4"></rect>
 <rect class="grassspeclecolor" height="1" width="1" x="13" y="15"></rect>
 <rect class="grassspeclecolor" height="1" width="1" x="14" y="4"></rect>
 <rect class="grassspeclecolor" height="1" width="1" x="14" y="19"></rect>
 <rect class="grassspeclecolor" height="1" width="1" x="17" y="7"></rect>
 <rect class="grassspeclecolor" height="1" width="1" x="17" y="12"></rect>
 <rect class="grassspeclecolor" height="1" width="1" x="18" y="23"></rect>
 <rect class="grassspeclecolor" height="1" width="1" x="21" y="16"></rect>
 <rect class="grassspeclecolor" height="1" width="1" x="23" y="12"></rect>
 </pattern>
 <pattern y="0" x="0" height="24" width="24" patternUnits="userSpaceOnUse" id="roadPattern">
 <rect class="roadcolor" height="24" width="24" y="0" x="0"></rect>
 <rect class="roadspeclecolor" height="1" width="1" x="1" y="5"></rect>
 <rect class="roadspeclecolor" height="1" width="1" x="1" y="5"></rect>
 <rect class="roadspeclecolor" height="1" width="1" x="3" y="5"></rect>
 <rect class="roadspeclecolor" height="1" width="1" x="6" y="7"></rect>
 <rect class="roadspeclecolor" height="1" width="1" x="6" y="17"></rect>
 <rect class="roadspeclecolor" height="1" width="1" x="8" y="21"></rect>
 <rect class="roadspeclecolor" height="1" width="1" x="9" y="2"></rect>
 <rect class="roadspeclecolor" height="1" width="1" x="12" y="4"></rect>
 <rect class="roadspeclecolor" height="1" width="1" x="13" y="15"></rect>
 <rect class="roadspeclecolor" height="1" width="1" x="14" y="4"></rect>
 <rect class="roadspeclecolor" height="1" width="1" x="14" y="19"></rect>
 <rect class="roadspeclecolor" height="1" width="1" x="17" y="7"></rect>
 <rect class="roadspeclecolor" height="1" width="1" x="17" y="12"></rect>
 <rect class="roadspeclecolor" height="1" width="1" x="18" y="23"></rect>
 <rect class="roadspeclecolor" height="1" width="1" x="21" y="16"></rect>
 <rect class="roadspeclecolor" height="1" width="1" x="23" y="12"></rect>
 </pattern>
 <pattern y="0" x="0" height="12" width="12" patternUnits="userSpaceOnUse" id="grid">
 <line stroke-width="1" stroke="black" y2="12" x2="12" y1="0" x1="12"></line>
 <line stroke-width="1" stroke="black" y2="12" x2="12" y1="12" x1="0"></line>
 </pattern>
 <pattern y="0" x="0" height="12" width="12" patternUnits="userSpaceOnUse" id="finishPattern">
 <rect fill="black" height="12" width="12" y="0" x="0"></rect>
 <path fill="white" d="M0,0L3,0L3,3L0,3L0,0M6,0L9,0L9,3L6,3L6,0M3,3L6,3L6,6L3,6L3,3M9,3L12,3L12,6L9,6L9,3"></path>
 <path fill="white" d="M0,6L3,6L3,9L0,9L0,6M6,6L9,6L9,9L6,9L6,6M3,9L6,9L6,12L3,12L3,9M9,9L12,9L12,12L9,12L9,9"></path>
 </pattern>
 <pattern y="0" x="0" height="12" width="12" patternUnits="userSpaceOnUse" id="startPattern">
 <rect fill="rgb(100,100,100)" height="12" width="12" y="0" x="0"></rect>
 <rect stroke-width="1" stroke="rgb(200,200,200)" fill="none" height="5" width="5" y="3.5" x="3.5"></rect>
 </pattern>
 <pattern y="0" x="0" height="12" width="12" patternUnits="userSpaceOnUse" id="cp1pattern">
 <rect class="cp1color" height="12" width="12" y="0" x="0"></rect>
 <path fill="black" d="M0,0L3,0L3,3L0,3L0,0M6,0L9,0L9,3L6,3L6,0M3,3L6,3L6,6L3,6L3,3M9,3L12,3L12,6L9,6L9,3"></path>
 <path fill="black" d="M0,6L3,6L3,9L0,9L0,6M6,6L9,6L9,9L6,9L6,6M3,9L6,9L6,12L3,12L3,9M9,9L12,9L12,12L9,12L9,9"></path>
 </pattern>
 <pattern y="0" x="0" height="12" width="12" patternUnits="userSpaceOnUse" id="cp2pattern">
 <rect class="cp2color" height="12" width="12" y="0" x="0"></rect>
 <path fill="white" d="M0,0L3,0L3,3L0,3L0,0M6,0L9,0L9,3L6,3L6,0M3,3L6,3L6,6L3,6L3,3M9,3L12,3L12,6L9,6L9,3"></path>
 <path fill="white" d="M0,6L3,6L3,9L0,9L0,6M6,6L9,6L9,9L6,9L6,6M3,9L6,9L6,12L3,12L3,9M9,9L12,9L12,12L9,12L9,9"></path>
 </pattern>
 <pattern y="0" x="0" height="12" width="12" patternUnits="userSpaceOnUse" id="cp3pattern">
 <rect class="cp3color" height="12" width="12" y="0" x="0"></rect>
 <path fill="black" d="M0,0L3,0L3,3L0,3L0,0M6,0L9,0L9,3L6,3L6,0M3,3L6,3L6,6L3,6L3,3M9,3L12,3L12,6L9,6L9,3"></path>
 <path fill="black" d="M0,6L3,6L3,9L0,9L0,6M6,6L9,6L9,9L6,9L6,6M3,9L6,9L6,12L3,12L3,9M9,9L12,9L12,12L9,12L9,9"></path>
 </pattern>
 <pattern y="0" x="0" height="12" width="12" patternUnits="userSpaceOnUse" id="cp4pattern">
 <rect class="cp4color" height="12" width="12" y="0" x="0"></rect>
 <path fill="white" d="M0,0L3,0L3,3L0,3L0,0M6,0L9,0L9,3L6,3L6,0M3,3L6,3L6,6L3,6L3,3M9,3L12,3L12,6L9,6L9,3"></path>
 <path fill="white" d="M0,6L3,6L3,9L0,9L0,6M6,6L9,6L9,9L6,9L6,6M3,9L6,9L6,12L3,12L3,9M9,9L12,9L12,12L9,12L9,9"></path>
 </pattern>
 <pattern y="0" x="0" height="12" width="12" patternUnits="userSpaceOnUse" id="cp5pattern">
 <rect class="cp5color" height="12" width="12" y="0" x="0"></rect>
 <path fill="black" d="M0,0L3,0L3,3L0,3L0,0M6,0L9,0L9,3L6,3L6,0M3,3L6,3L6,6L3,6L3,3M9,3L12,3L12,6L9,6L9,3"></path>
 <path fill="black" d="M0,6L3,6L3,9L0,9L0,6M6,6L9,6L9,9L6,9L6,6M3,9L6,9L6,12L3,12L3,9M9,9L12,9L12,12L9,12L9,9"></path>
 </pattern>
 <pattern y="0" x="0" height="12" width="12" patternUnits="userSpaceOnUse" id="cp6pattern">
 <rect class="cp6color" height="12" width="12" y="0" x="0"></rect>
 <path fill="white" d="M0,0L3,0L3,3L0,3L0,0M6,0L9,0L9,3L6,3L6,0M3,3L6,3L6,6L3,6L3,3M9,3L12,3L12,6L9,6L9,3"></path>
 <path fill="white" d="M0,6L3,6L3,9L0,9L0,6M6,6L9,6L9,9L6,9L6,6M3,9L6,9L6,12L3,12L3,9M9,9L12,9L12,12L9,12L9,9"></path>
 </pattern>
 <pattern y="0" x="0" height="12" width="12" patternUnits="userSpaceOnUse" id="cp7pattern">
 <rect class="cp7color" height="12" width="12" y="0" x="0"></rect>
 <path fill="black" d="M0,0L3,0L3,3L0,3L0,0M6,0L9,0L9,3L6,3L6,0M3,3L6,3L6,6L3,6L3,3M9,3L12,3L12,6L9,6L9,3"></path>
 <path fill="black" d="M0,6L3,6L3,9L0,9L0,6M6,6L9,6L9,9L6,9L6,6M3,9L6,9L6,12L3,12L3,9M9,9L12,9L12,12L9,12L9,9"></path>
 </pattern>
 <pattern y="0" x="0" height="12" width="12" patternUnits="userSpaceOnUse" id="cp8pattern">
 <rect class="cp8color" height="12" width="12" y="0" x="0"></rect>
 <path fill="white" d="M0,0L3,0L3,3L0,3L0,0M6,0L9,0L9,3L6,3L6,0M3,3L6,3L6,6L3,6L3,3M9,3L12,3L12,6L9,6L9,3"></path>
 <path fill="white" d="M0,6L3,6L3,9L0,9L0,6M6,6L9,6L9,9L6,9L6,6M3,9L6,9L6,12L3,12L3,9M9,9L12,9L12,12L9,12L9,9"></path>
 </pattern>
 <pattern y="0" x="0" height="12" width="12" patternUnits="userSpaceOnUse" id="cp9pattern">
 <rect class="cp9color" height="12" width="12" y="0" x="0"></rect>
 <path fill="black" d="M0,0L3,0L3,3L0,3L0,0M6,0L9,0L9,3L6,3L6,0M3,3L6,3L6,6L3,6L3,3M9,3L12,3L12,6L9,6L9,3"></path>
 <path fill="black" d="M0,6L3,6L3,9L0,9L0,6M6,6L9,6L9,9L6,9L6,6M3,9L6,9L6,12L3,12L3,9M9,9L12,9L12,12L9,12L9,9"></path>
 </pattern>
 </defs>
 <rect height="100%" width="100%" y="0" x="0" class="grass" id="mainfill"></rect>
 <g id="paths"><path d="M552,12L552,12L588,12L588,24L600,24L600,36L612,36L612,48L624,48L624,84L612,84L612,96L600,96L600,120L1080,120L1080,300L600,300L600,360L720,360L720,480L840,480L840,600L960,600L960,720L1080,720L1080,900L960,900L960,912L984,912L984,924L996,924L996,936L1008,936L1008,960L1020,960L1020,1020L1008,1020L1008,1044L996,1044L996,1056L984,1056L984,1068L960,1068L960,1080L900,1080L900,1068L876,1068L876,1056L864,1056L864,1044L852,1044L852,1020L840,1020L840,960L852,960L852,936L864,936L864,924L876,924L876,912L900,912L900,900L720,900L720,912L744,912L744,924L756,924L756,936L768,936L768,960L780,960L780,1020L768,1020L768,1044L756,1044L756,1056L744,1056L744,1068L720,1068L720,1080L660,1080L660,1068L636,1068L636,1056L624,1056L624,1044L612,1044L612,1020L600,1020L600,960L612,960L612,936L624,936L624,924L636,924L636,912L660,912L660,900L480,900L480,912L504,912L504,924L516,924L516,936L528,936L528,960L540,960L540,1020L528,1020L528,1044L516,1044L516,1056L504,1056L504,1068L480,1068L480,1080L420,1080L420,1068L396,1068L396,1056L384,1056L384,1044L372,1044L372,1020L360,1020L360,960L372,960L372,936L384,936L384,924L396,924L396,912L420,912L420,900L240,900L240,912L264,912L264,924L276,924L276,936L288,936L288,960L300,960L300,1020L288,1020L288,1044L276,1044L276,1056L264,1056L264,1068L240,1068L240,1080L180,1080L180,1068L156,1068L156,1056L144,1056L144,1044L132,1044L132,1020L120,1020L120,960L132,960L132,936L144,936L144,924L156,924L156,912L180,912L180,900L60,900L60,720L180,720L180,600L300,600L300,480L420,480L420,360L540,360L540,300L60,300L60,120L540,120L540,96L528,96L528,84L516,84L516,48L528,48L528,36L540,36L540,24L552,24L552,12M132,180L132,180L120,180L120,240L1020,240L1020,180L132,180M492,420L492,420L480,420L480,480L660,480L660,420L492,420M372,540L372,540L360,540L360,600L780,600L780,540L372,540M252,660L252,660L240,660L240,720L420,720L420,660L252,660M492,660L492,660L480,660L480,720L660,720L660,660L492,660M732,660L732,660L720,660L720,720L900,720L900,660L732,660M132,780L132,780L120,780L120,840L300,840L300,780L132,780M372,780L372,780L360,780L360,840L540,840L540,780L372,780M612,780L612,780L600,780L600,840L780,840L780,780L612,780M852,780L852,780L840,780L840,840L1020,840L1020,780L852,780M216,972L216,972L204,972L204,984L192,984L192,996L204,996L204,1008L216,1008L216,996L228,996L228,984L216,984L216,972M456,972L456,972L444,972L444,984L432,984L432,996L444,996L444,1008L456,1008L456,996L468,996L468,984L456,984L456,972M696,972L696,972L684,972L684,984L672,984L672,996L684,996L684,1008L696,1008L696,996L708,996L708,984L696,984L696,972M936,972L936,972L924,972L924,984L912,984L912,996L924,996L924,1008L936,1008L936,996L948,996L948,984L936,984L936,972M1056,1080L1056,1080L1068,1080L1068,1104L1080,1104L1080,1116L1068,1116L1068,1128L1092,1128L1092,1104L1128,1104L1128,1116L1104,1116L1104,1140L1056,1140L1056,1116L1044,1116L1044,1104L1056,1104L1056,1080M1128,1116L1128,1116L1140,1116L1140,1128L1128,1128L1128,1116M1128,1128L1128,1128L1128,1140L1116,1140L1116,1128Z" class="road"></path><path d="M72,732L72,732L108,732L108,768L72,768L72,732M312,732L312,732L348,732L348,768L312,768L312,732M552,732L552,732L588,732L588,768L552,768L552,732M792,732L792,732L828,732L828,768L792,768L792,732M1032,732L1032,732L1068,732L1068,768L1032,768Z" class="cp1"></path><path d="M432,492L432,492L468,492L468,528L432,528L432,492M672,492L672,492L708,492L708,528L672,528Z" class="cp2"></path><path d="M552,372L552,372L588,372L588,408L552,408Z" class="cp3"></path><path d="M552,312L552,312L588,312L588,348L552,348Z" class="cp4"></path><path d="M552,252L552,252L588,252L588,288L552,288Z" class="cp5"></path><path d="M552,132L552,132L588,132L588,168L552,168Z" class="cp6"></path><path d="M0,0L0,0L12,0L12,300L0,300Z" class="parc"></path><path d="M564,36L564,36L576,36L576,48L588,48L588,60L600,60L600,72L588,72L588,84L576,84L576,96L564,96L564,84L552,84L552,72L540,72L540,60L552,60L552,48L564,48Z" class="finish"></path><path d="M156,1056L156,1056L168,1056L168,1068L156,1068L156,1056M252,1056L252,1056L264,1056L264,1068L252,1068L252,1056M396,1056L396,1056L408,1056L408,1068L396,1068L396,1056M492,1056L492,1056L504,1056L504,1068L492,1068L492,1056M636,1056L636,1056L648,1056L648,1068L636,1068L636,1056M732,1056L732,1056L744,1056L744,1068L732,1068L732,1056M876,1056L876,1056L888,1056L888,1068L876,1068L876,1056M972,1056L972,1056L984,1056L984,1068L972,1068L972,1056M180,1068L180,1068L192,1068L192,1080L180,1080L180,1068M204,1068L204,1068L216,1068L216,1080L204,1080L204,1068M228,1068L228,1068L240,1068L240,1080L228,1080L228,1068M420,1068L420,1068L432,1068L432,1080L420,1080L420,1068M444,1068L444,1068L456,1068L456,1080L444,1080L444,1068M468,1068L468,1068L480,1068L480,1080L468,1080L468,1068M660,1068L660,1068L672,1068L672,1080L660,1080L660,1068M684,1068L684,1068L696,1068L696,1080L684,1080L684,1068M708,1068L708,1068L720,1068L720,1080L708,1080L708,1068M900,1068L900,1068L912,1068L912,1080L900,1080L900,1068M924,1068L924,1068L936,1068L936,1080L924,1080L924,1068M948,1068L948,1068L960,1068L960,1080L948,1080Z" class="start"></path></g>
 <rect opacity=".3" fill="url(#grid)" height="100%" width="100%" y="0" x="0"></rect>
</svg>