<svg xmlns:xlink="http://www.w3.org/1999/xlink" xmlns="http://www.w3.org/2000/svg" height="1044" width="1908" id="mapSvgView" version="1.1" style="width: 1908px; height: 1044px;" viewBox="0 0 1908 1044">
 <defs>
 <pattern y="0" x="0" height="24" width="24" patternUnits="userSpaceOnUse" id="grassPattern">
 <rect class="grasscolor" height="24" width="24" y="0" x="0"></rect>
 <rect class="grassspeclecolor" height="1" width="1" x="1" y="5"></rect>
 <rect class="grassspeclecolor" height="1" width="1" x="1" y="5"></rect>
 <rect class="grassspeclecolor" height="1" width="1" x="3" y="5"></rect>
 <rect class="grassspeclecolor" height="1" width="1" x="6" y="7"></rect>
 <rect class="grassspeclecolor" height="1" width="1" x="6" y="17"></rect>
 <rect class="grassspeclecolor" height="1" width="1" x="8" y="21"></rect>
 <rect class="grassspeclecolor" height="1" width="1" x="9" y="2"></rect>
 <rect class="grassspeclecolor" height="1" width="1" x="12" y="4"></rect>
 <rect class="grassspeclecolor" height="1" width="1" x="13" y="15"></rect>
 <rect class="grassspeclecolor" height="1" width="1" x="14" y="4"></rect>
 <rect class="grassspeclecolor" height="1" width="1" x="14" y="19"></rect>
 <rect class="grassspeclecolor" height="1" width="1" x="17" y="7"></rect>
 <rect class="grassspeclecolor" height="1" width="1" x="17" y="12"></rect>
 <rect class="grassspeclecolor" height="1" width="1" x="18" y="23"></rect>
 <rect class="grassspeclecolor" height="1" width="1" x="21" y="16"></rect>
 <rect class="grassspeclecolor" height="1" width="1" x="23" y="12"></rect>
 </pattern>
 <pattern y="0" x="0" height="24" width="24" patternUnits="userSpaceOnUse" id="roadPattern">
 <rect class="roadcolor" height="24" width="24" y="0" x="0"></rect>
 <rect class="roadspeclecolor" height="1" width="1" x="1" y="5"></rect>
 <rect class="roadspeclecolor" height="1" width="1" x="1" y="5"></rect>
 <rect class="roadspeclecolor" height="1" width="1" x="3" y="5"></rect>
 <rect class="roadspeclecolor" height="1" width="1" x="6" y="7"></rect>
 <rect class="roadspeclecolor" height="1" width="1" x="6" y="17"></rect>
 <rect class="roadspeclecolor" height="1" width="1" x="8" y="21"></rect>
 <rect class="roadspeclecolor" height="1" width="1" x="9" y="2"></rect>
 <rect class="roadspeclecolor" height="1" width="1" x="12" y="4"></rect>
 <rect class="roadspeclecolor" height="1" width="1" x="13" y="15"></rect>
 <rect class="roadspeclecolor" height="1" width="1" x="14" y="4"></rect>
 <rect class="roadspeclecolor" height="1" width="1" x="14" y="19"></rect>
 <rect class="roadspeclecolor" height="1" width="1" x="17" y="7"></rect>
 <rect class="roadspeclecolor" height="1" width="1" x="17" y="12"></rect>
 <rect class="roadspeclecolor" height="1" width="1" x="18" y="23"></rect>
 <rect class="roadspeclecolor" height="1" width="1" x="21" y="16"></rect>
 <rect class="roadspeclecolor" height="1" width="1" x="23" y="12"></rect>
 </pattern>
 <pattern y="0" x="0" height="12" width="12" patternUnits="userSpaceOnUse" id="grid">
 <line stroke-width="1" stroke="black" y2="12" x2="12" y1="0" x1="12"></line>
 <line stroke-width="1" stroke="black" y2="12" x2="12" y1="12" x1="0"></line>
 </pattern>
 <pattern y="0" x="0" height="12" width="12" patternUnits="userSpaceOnUse" id="finishPattern">
 <rect fill="black" height="12" width="12" y="0" x="0"></rect>
 <path fill="white" d="M0,0L3,0L3,3L0,3L0,0M6,0L9,0L9,3L6,3L6,0M3,3L6,3L6,6L3,6L3,3M9,3L12,3L12,6L9,6L9,3"></path>
 <path fill="white" d="M0,6L3,6L3,9L0,9L0,6M6,6L9,6L9,9L6,9L6,6M3,9L6,9L6,12L3,12L3,9M9,9L12,9L12,12L9,12L9,9"></path>
 </pattern>
 <pattern y="0" x="0" height="12" width="12" patternUnits="userSpaceOnUse" id="startPattern">
 <rect fill="rgb(100,100,100)" height="12" width="12" y="0" x="0"></rect>
 <rect stroke-width="1" stroke="rgb(200,200,200)" fill="none" height="5" width="5" y="3.5" x="3.5"></rect>
 </pattern>
 <pattern y="0" x="0" height="12" width="12" patternUnits="userSpaceOnUse" id="cp1pattern">
 <rect class="cp1color" height="12" width="12" y="0" x="0"></rect>
 <path fill="black" d="M0,0L3,0L3,3L0,3L0,0M6,0L9,0L9,3L6,3L6,0M3,3L6,3L6,6L3,6L3,3M9,3L12,3L12,6L9,6L9,3"></path>
 <path fill="black" d="M0,6L3,6L3,9L0,9L0,6M6,6L9,6L9,9L6,9L6,6M3,9L6,9L6,12L3,12L3,9M9,9L12,9L12,12L9,12L9,9"></path>
 </pattern>
 <pattern y="0" x="0" height="12" width="12" patternUnits="userSpaceOnUse" id="cp2pattern">
 <rect class="cp2color" height="12" width="12" y="0" x="0"></rect>
 <path fill="white" d="M0,0L3,0L3,3L0,3L0,0M6,0L9,0L9,3L6,3L6,0M3,3L6,3L6,6L3,6L3,3M9,3L12,3L12,6L9,6L9,3"></path>
 <path fill="white" d="M0,6L3,6L3,9L0,9L0,6M6,6L9,6L9,9L6,9L6,6M3,9L6,9L6,12L3,12L3,9M9,9L12,9L12,12L9,12L9,9"></path>
 </pattern>
 <pattern y="0" x="0" height="12" width="12" patternUnits="userSpaceOnUse" id="cp3pattern">
 <rect class="cp3color" height="12" width="12" y="0" x="0"></rect>
 <path fill="black" d="M0,0L3,0L3,3L0,3L0,0M6,0L9,0L9,3L6,3L6,0M3,3L6,3L6,6L3,6L3,3M9,3L12,3L12,6L9,6L9,3"></path>
 <path fill="black" d="M0,6L3,6L3,9L0,9L0,6M6,6L9,6L9,9L6,9L6,6M3,9L6,9L6,12L3,12L3,9M9,9L12,9L12,12L9,12L9,9"></path>
 </pattern>
 <pattern y="0" x="0" height="12" width="12" patternUnits="userSpaceOnUse" id="cp4pattern">
 <rect class="cp4color" height="12" width="12" y="0" x="0"></rect>
 <path fill="white" d="M0,0L3,0L3,3L0,3L0,0M6,0L9,0L9,3L6,3L6,0M3,3L6,3L6,6L3,6L3,3M9,3L12,3L12,6L9,6L9,3"></path>
 <path fill="white" d="M0,6L3,6L3,9L0,9L0,6M6,6L9,6L9,9L6,9L6,6M3,9L6,9L6,12L3,12L3,9M9,9L12,9L12,12L9,12L9,9"></path>
 </pattern>
 <pattern y="0" x="0" height="12" width="12" patternUnits="userSpaceOnUse" id="cp5pattern">
 <rect class="cp5color" height="12" width="12" y="0" x="0"></rect>
 <path fill="black" d="M0,0L3,0L3,3L0,3L0,0M6,0L9,0L9,3L6,3L6,0M3,3L6,3L6,6L3,6L3,3M9,3L12,3L12,6L9,6L9,3"></path>
 <path fill="black" d="M0,6L3,6L3,9L0,9L0,6M6,6L9,6L9,9L6,9L6,6M3,9L6,9L6,12L3,12L3,9M9,9L12,9L12,12L9,12L9,9"></path>
 </pattern>
 <pattern y="0" x="0" height="12" width="12" patternUnits="userSpaceOnUse" id="cp6pattern">
 <rect class="cp6color" height="12" width="12" y="0" x="0"></rect>
 <path fill="white" d="M0,0L3,0L3,3L0,3L0,0M6,0L9,0L9,3L6,3L6,0M3,3L6,3L6,6L3,6L3,3M9,3L12,3L12,6L9,6L9,3"></path>
 <path fill="white" d="M0,6L3,6L3,9L0,9L0,6M6,6L9,6L9,9L6,9L6,6M3,9L6,9L6,12L3,12L3,9M9,9L12,9L12,12L9,12L9,9"></path>
 </pattern>
 <pattern y="0" x="0" height="12" width="12" patternUnits="userSpaceOnUse" id="cp7pattern">
 <rect class="cp7color" height="12" width="12" y="0" x="0"></rect>
 <path fill="black" d="M0,0L3,0L3,3L0,3L0,0M6,0L9,0L9,3L6,3L6,0M3,3L6,3L6,6L3,6L3,3M9,3L12,3L12,6L9,6L9,3"></path>
 <path fill="black" d="M0,6L3,6L3,9L0,9L0,6M6,6L9,6L9,9L6,9L6,6M3,9L6,9L6,12L3,12L3,9M9,9L12,9L12,12L9,12L9,9"></path>
 </pattern>
 <pattern y="0" x="0" height="12" width="12" patternUnits="userSpaceOnUse" id="cp8pattern">
 <rect class="cp8color" height="12" width="12" y="0" x="0"></rect>
 <path fill="white" d="M0,0L3,0L3,3L0,3L0,0M6,0L9,0L9,3L6,3L6,0M3,3L6,3L6,6L3,6L3,3M9,3L12,3L12,6L9,6L9,3"></path>
 <path fill="white" d="M0,6L3,6L3,9L0,9L0,6M6,6L9,6L9,9L6,9L6,6M3,9L6,9L6,12L3,12L3,9M9,9L12,9L12,12L9,12L9,9"></path>
 </pattern>
 <pattern y="0" x="0" height="12" width="12" patternUnits="userSpaceOnUse" id="cp9pattern">
 <rect class="cp9color" height="12" width="12" y="0" x="0"></rect>
 <path fill="black" d="M0,0L3,0L3,3L0,3L0,0M6,0L9,0L9,3L6,3L6,0M3,3L6,3L6,6L3,6L3,3M9,3L12,3L12,6L9,6L9,3"></path>
 <path fill="black" d="M0,6L3,6L3,9L0,9L0,6M6,6L9,6L9,9L6,9L6,6M3,9L6,9L6,12L3,12L3,9M9,9L12,9L12,12L9,12L9,9"></path>
 </pattern>
 </defs>
 <rect height="100%" width="100%" y="0" x="0" class="grass" id="mainfill"></rect>
 <g id="paths"><path d="M1068,12L1068,12L1152,12L1152,24L1176,24L1176,36L1188,36L1188,72L1176,72L1176,84L1164,84L1164,108L1176,108L1176,132L1188,132L1188,228L1176,228L1176,240L1152,240L1152,252L1128,252L1128,264L1104,264L1104,276L1080,276L1080,288L1068,288L1068,300L1056,300L1056,324L1068,324L1068,336L1104,336L1104,348L1212,348L1212,360L1260,360L1260,348L1284,348L1284,240L1296,240L1296,228L1308,228L1308,216L1320,216L1320,204L1332,204L1332,192L1380,192L1380,204L1416,204L1416,216L1428,216L1428,228L1452,228L1452,240L1488,240L1488,252L1500,252L1500,264L1512,264L1512,276L1536,276L1536,288L1560,288L1560,300L1572,300L1572,312L1596,312L1596,324L1620,324L1620,336L1632,336L1632,348L1656,348L1656,360L1668,360L1668,372L1692,372L1692,384L1704,384L1704,396L1728,396L1728,408L1752,408L1752,420L1764,420L1764,432L1788,432L1788,444L1800,444L1800,456L1824,456L1824,468L1836,468L1836,480L1848,480L1848,492L1860,492L1860,504L1872,504L1872,516L1884,516L1884,540L1896,540L1896,648L1884,648L1884,660L1872,660L1872,672L1812,672L1812,660L1764,660L1764,648L1632,648L1632,636L1536,636L1536,648L1524,648L1524,684L1512,684L1512,744L1500,744L1500,768L1476,768L1476,780L1380,780L1380,792L1176,792L1176,804L972,804L972,816L912,816L912,828L900,828L900,876L912,876L912,960L900,960L900,984L888,984L888,996L876,996L876,1008L852,1008L852,1020L828,1020L828,1032L120,1032L120,1020L72,1020L72,1008L48,1008L48,996L24,996L24,984L12,984L12,900L24,900L24,864L36,864L36,828L48,828L48,816L60,816L60,804L84,804L84,792L108,792L108,780L144,780L144,768L228,768L228,756L252,756L252,744L300,744L300,732L324,732L324,720L348,720L348,708L372,708L372,696L396,696L396,684L432,684L432,672L456,672L456,660L480,660L480,648L504,648L504,636L528,636L528,624L552,624L552,612L576,612L576,600L612,600L612,588L636,588L636,576L660,576L660,564L684,564L684,552L708,552L708,540L720,540L720,528L732,528L732,492L720,492L720,480L708,480L708,468L696,468L696,456L672,456L672,444L660,444L660,432L648,432L648,408L636,408L636,384L624,384L624,348L636,348L636,312L648,312L648,300L660,300L660,288L684,288L684,276L696,276L696,264L708,264L708,252L732,252L732,240L744,240L744,228L768,228L768,216L780,216L780,204L804,204L804,192L816,192L816,180L828,180L828,168L852,168L852,156L864,156L864,144L888,144L888,132L900,132L900,120L912,120L912,108L936,108L936,96L948,96L948,84L972,84L972,72L984,72L984,60L996,60L996,48L1020,48L1020,36L1032,36L1032,24L1068,24L1068,12M1080,84L1080,84L1068,84L1068,96L1044,96L1044,108L1032,108L1032,120L1008,120L1008,132L984,132L984,144L972,144L972,156L960,156L960,168L936,168L936,180L924,180L924,192L900,192L900,204L888,204L888,216L876,216L876,228L852,228L852,240L840,240L840,252L816,252L816,264L804,264L804,276L780,276L780,288L768,288L768,300L756,300L756,312L732,312L732,324L720,324L720,336L708,336L708,348L696,348L696,384L708,384L708,396L720,396L720,408L732,408L732,420L744,420L744,432L756,432L756,444L768,444L768,456L792,456L792,468L828,468L828,480L852,480L852,492L876,492L876,504L888,504L888,528L876,528L876,540L852,540L852,552L828,552L828,564L804,564L804,576L768,576L768,588L744,588L744,600L720,600L720,612L696,612L696,624L672,624L672,636L648,636L648,648L624,648L624,660L600,660L600,672L564,672L564,684L540,684L540,696L516,696L516,708L492,708L492,720L468,720L468,732L444,732L444,744L420,744L420,756L396,756L396,768L360,768L360,780L336,780L336,792L312,792L312,804L288,804L288,816L240,816L240,828L144,828L144,840L120,840L120,852L108,852L108,876L96,876L96,924L108,924L108,936L132,936L132,948L840,948L840,936L852,936L852,888L840,888L840,864L828,864L828,840L816,840L816,792L828,792L828,780L852,780L852,768L888,768L888,756L960,756L960,744L1164,744L1164,732L1356,732L1356,720L1440,720L1440,708L1452,708L1452,672L1464,672L1464,612L1476,612L1476,588L1500,588L1500,576L1644,576L1644,588L1752,588L1752,600L1812,600L1812,588L1824,588L1824,576L1836,576L1836,552L1824,552L1824,540L1812,540L1812,528L1800,528L1800,516L1776,516L1776,504L1764,504L1764,492L1752,492L1752,480L1728,480L1728,468L1704,468L1704,456L1692,456L1692,444L1668,444L1668,432L1656,432L1656,420L1632,420L1632,408L1620,408L1620,396L1596,396L1596,384L1572,384L1572,372L1560,372L1560,360L1536,360L1536,348L1524,348L1524,336L1500,336L1500,324L1476,324L1476,312L1452,312L1452,300L1428,300L1428,288L1416,288L1416,276L1392,276L1392,264L1356,264L1356,276L1344,276L1344,372L1332,372L1332,396L1320,396L1320,408L1296,408L1296,420L1200,420L1200,408L1116,408L1116,396L1044,396L1044,384L1020,384L1020,372L1008,372L1008,348L996,348L996,276L1008,276L1008,252L1020,252L1020,240L1032,240L1032,228L1056,228L1056,216L1092,216L1092,204L1116,204L1116,192L1128,192L1128,132L1116,132L1116,108L1104,108L1104,96L1092,96L1092,84L1080,84M948,972L948,972L960,972L960,1032L948,1032L948,972M1044,972L1044,972L1056,972L1056,1032L1044,1032L1044,972M1116,972L1116,972L1128,972L1128,984L1116,984L1116,972M1128,984L1128,984L1140,984L1140,996L1128,996L1128,984M1116,984L1116,984L1116,996L1104,996L1104,984L1116,984M1188,972L1188,972L1296,972L1296,984L1188,984L1188,972M1308,972L1308,972L1416,972L1416,984L1308,984L1308,972M1428,972L1428,972L1440,972L1440,996L1428,996L1428,972M1512,972L1512,972L1536,972L1536,984L1512,984L1512,972M1512,984L1512,984L1512,996L1488,996L1488,984L1512,984M1548,972L1548,972L1560,972L1560,1008L1548,1008L1548,972M1668,972L1668,972L1776,972L1776,984L1668,984L1668,972M1788,972L1788,972L1884,972L1884,984L1788,984L1788,972M1884,984L1884,984L1896,984L1896,996L1884,996L1884,984M1104,996L1104,996L1104,1008L1092,1008L1092,996L1104,996M1488,996L1488,996L1488,1008L1464,1008L1464,996L1488,996M1884,996L1884,996L1884,1008L1800,1008L1800,1032L1788,1032L1788,996L1884,996M972,996L972,996L1032,996L1032,1008L972,1008L972,996M1092,1008L1092,1008L1092,1020L1080,1020L1080,1008L1092,1008M1188,996L1188,996L1272,996L1272,1008L1188,1008L1188,996M1308,996L1308,996L1320,996L1320,1008L1308,1008L1308,996M1464,1008L1464,1008L1464,1020L1440,1020L1440,1008L1464,1008M1668,996L1668,996L1752,996L1752,1008L1668,1008L1668,996M1080,1020L1080,1020L1080,1032L1068,1032L1068,1020L1080,1020M1116,1008L1116,1008L1164,1008L1164,1020L1116,1020L1116,1008M1164,1020L1164,1020L1176,1020L1176,1032L1164,1032L1164,1020M1440,1020L1440,1020L1440,1032L1428,1032L1428,1020L1440,1020M1500,1008L1500,1008L1512,1008L1512,1020L1500,1020L1500,1008M1512,1020L1512,1020L1524,1020L1524,1032L1512,1032L1512,1020M1188,1020L1188,1020L1296,1020L1296,1032L1188,1032L1188,1020M1308,1020L1308,1020L1416,1020L1416,1032L1308,1032L1308,1020M1548,1020L1548,1020L1656,1020L1656,1032L1548,1032L1548,1020M1668,1020L1668,1020L1776,1020L1776,1032L1668,1032L1668,1020M1872,1020L1872,1020L1884,1020L1884,1032L1872,1032Z" class="road"></path><path d="M0,0L0,0L12,0L12,120L0,120Z" class="parc"></path><path d="M960,492L960,492L996,492L996,504L972,504L972,528L996,528L996,504L1008,504L1008,528L996,528L996,540L972,540L972,564L996,564L996,540L1008,540L1008,564L996,564L996,576L960,576L960,492M1020,492L1020,492L1056,492L1056,504L1032,504L1032,528L1056,528L1056,504L1068,504L1068,528L1056,528L1056,540L1032,540L1032,576L1020,576L1020,492M1080,492L1080,492L1092,492L1092,516L1104,516L1104,528L1092,528L1092,576L1080,576L1080,492M1128,492L1128,492L1140,492L1140,576L1128,576L1128,552L1116,552L1116,540L1104,540L1104,528L1116,528L1116,540L1128,540L1128,492M1164,492L1164,492L1200,492L1200,504L1164,504L1164,492M1164,504L1164,504L1164,564L1152,564L1152,504L1164,504M1200,504L1200,504L1212,504L1212,564L1200,564L1200,504M1056,540L1056,540L1068,540L1068,576L1056,576L1056,540M1164,564L1164,564L1200,564L1200,576L1164,576L1164,564M972,588L972,588L1008,588L1008,600L972,600L972,588M972,600L972,600L972,660L960,660L960,600L972,600M1008,600L1008,600L1020,600L1020,612L1008,612L1008,600M1032,588L1032,588L1044,588L1044,672L1032,672L1032,588M1056,588L1056,588L1104,588L1104,600L1068,600L1068,624L1104,624L1104,600L1116,600L1116,624L1104,624L1104,636L1068,636L1068,672L1056,672L1056,588M1140,588L1140,588L1176,588L1176,600L1140,600L1140,588M1140,600L1140,600L1140,660L1128,660L1128,600L1140,600M1176,600L1176,600L1188,600L1188,612L1176,612L1176,600M1200,588L1200,588L1212,588L1212,660L1200,660L1200,588M1248,588L1248,588L1260,588L1260,660L1248,660L1248,588M1272,588L1272,588L1284,588L1284,672L1272,672L1272,588M1296,588L1296,588L1356,588L1356,600L1332,600L1332,672L1320,672L1320,600L1296,600L1296,588M1104,636L1104,636L1116,636L1116,672L1104,672L1104,636M972,660L972,660L1008,660L1008,648L1020,648L1020,660L1008,660L1008,672L972,672L972,660M1140,660L1140,660L1176,660L1176,648L1188,648L1188,660L1176,660L1176,672L1140,672L1140,660M1212,660L1212,660L1248,660L1248,672L1212,672Z" class="sand"></path><path d="M600,948L600,948L612,948L612,960L600,960L600,948M612,960L612,960L624,960L624,972L612,972L612,960M600,960L600,960L600,972L588,972L588,960L600,960M600,972L600,972L612,972L612,984L600,984L600,972M612,984L612,984L624,984L624,996L612,996L612,984M600,984L600,984L600,996L588,996L588,984L600,984M600,996L600,996L612,996L612,1008L600,1008L600,996M612,1008L612,1008L624,1008L624,1020L612,1020L612,1008M600,1008L600,1008L600,1020L588,1020L588,1008L600,1008M600,1020L600,1020L612,1020L612,1032L600,1032Z" class="start"></path><path d="M624,948L624,948L648,948L648,1032L624,1032Z" class="finish"></path></g>
 <rect opacity=".3" fill="url(#grid)" height="100%" width="100%" y="0" x="0"></rect>
</svg>