<svg xmlns:xlink="http://www.w3.org/1999/xlink" xmlns="http://www.w3.org/2000/svg" height="360" width="996" id="mapSvgView" version="1.1" style="width: 996px; height: 360px;" viewBox="0 0 996 360">
 <defs>
 <pattern y="0" x="0" height="24" width="24" patternUnits="userSpaceOnUse" id="grassPattern">
 <rect class="grasscolor" height="24" width="24" y="0" x="0"></rect>
 <rect class="grassspeclecolor" height="1" width="1" x="1" y="5"></rect>
 <rect class="grassspeclecolor" height="1" width="1" x="1" y="5"></rect>
 <rect class="grassspeclecolor" height="1" width="1" x="3" y="5"></rect>
 <rect class="grassspeclecolor" height="1" width="1" x="6" y="7"></rect>
 <rect class="grassspeclecolor" height="1" width="1" x="6" y="17"></rect>
 <rect class="grassspeclecolor" height="1" width="1" x="8" y="21"></rect>
 <rect class="grassspeclecolor" height="1" width="1" x="9" y="2"></rect>
 <rect class="grassspeclecolor" height="1" width="1" x="12" y="4"></rect>
 <rect class="grassspeclecolor" height="1" width="1" x="13" y="15"></rect>
 <rect class="grassspeclecolor" height="1" width="1" x="14" y="4"></rect>
 <rect class="grassspeclecolor" height="1" width="1" x="14" y="19"></rect>
 <rect class="grassspeclecolor" height="1" width="1" x="17" y="7"></rect>
 <rect class="grassspeclecolor" height="1" width="1" x="17" y="12"></rect>
 <rect class="grassspeclecolor" height="1" width="1" x="18" y="23"></rect>
 <rect class="grassspeclecolor" height="1" width="1" x="21" y="16"></rect>
 <rect class="grassspeclecolor" height="1" width="1" x="23" y="12"></rect>
 </pattern>
 <pattern y="0" x="0" height="24" width="24" patternUnits="userSpaceOnUse" id="roadPattern">
 <rect class="roadcolor" height="24" width="24" y="0" x="0"></rect>
 <rect class="roadspeclecolor" height="1" width="1" x="1" y="5"></rect>
 <rect class="roadspeclecolor" height="1" width="1" x="1" y="5"></rect>
 <rect class="roadspeclecolor" height="1" width="1" x="3" y="5"></rect>
 <rect class="roadspeclecolor" height="1" width="1" x="6" y="7"></rect>
 <rect class="roadspeclecolor" height="1" width="1" x="6" y="17"></rect>
 <rect class="roadspeclecolor" height="1" width="1" x="8" y="21"></rect>
 <rect class="roadspeclecolor" height="1" width="1" x="9" y="2"></rect>
 <rect class="roadspeclecolor" height="1" width="1" x="12" y="4"></rect>
 <rect class="roadspeclecolor" height="1" width="1" x="13" y="15"></rect>
 <rect class="roadspeclecolor" height="1" width="1" x="14" y="4"></rect>
 <rect class="roadspeclecolor" height="1" width="1" x="14" y="19"></rect>
 <rect class="roadspeclecolor" height="1" width="1" x="17" y="7"></rect>
 <rect class="roadspeclecolor" height="1" width="1" x="17" y="12"></rect>
 <rect class="roadspeclecolor" height="1" width="1" x="18" y="23"></rect>
 <rect class="roadspeclecolor" height="1" width="1" x="21" y="16"></rect>
 <rect class="roadspeclecolor" height="1" width="1" x="23" y="12"></rect>
 </pattern>
 <pattern y="0" x="0" height="12" width="12" patternUnits="userSpaceOnUse" id="grid">
 <line stroke-width="1" stroke="black" y2="12" x2="12" y1="0" x1="12"></line>
 <line stroke-width="1" stroke="black" y2="12" x2="12" y1="12" x1="0"></line>
 </pattern>
 <pattern y="0" x="0" height="12" width="12" patternUnits="userSpaceOnUse" id="finishPattern">
 <rect fill="black" height="12" width="12" y="0" x="0"></rect>
 <path fill="white" d="M0,0L3,0L3,3L0,3L0,0M6,0L9,0L9,3L6,3L6,0M3,3L6,3L6,6L3,6L3,3M9,3L12,3L12,6L9,6L9,3"></path>
 <path fill="white" d="M0,6L3,6L3,9L0,9L0,6M6,6L9,6L9,9L6,9L6,6M3,9L6,9L6,12L3,12L3,9M9,9L12,9L12,12L9,12L9,9"></path>
 </pattern>
 <pattern y="0" x="0" height="12" width="12" patternUnits="userSpaceOnUse" id="startPattern">
 <rect fill="rgb(100,100,100)" height="12" width="12" y="0" x="0"></rect>
 <rect stroke-width="1" stroke="rgb(200,200,200)" fill="none" height="5" width="5" y="3.5" x="3.5"></rect>
 </pattern>
 <pattern y="0" x="0" height="12" width="12" patternUnits="userSpaceOnUse" id="cp1pattern">
 <rect class="cp1color" height="12" width="12" y="0" x="0"></rect>
 <path fill="black" d="M0,0L3,0L3,3L0,3L0,0M6,0L9,0L9,3L6,3L6,0M3,3L6,3L6,6L3,6L3,3M9,3L12,3L12,6L9,6L9,3"></path>
 <path fill="black" d="M0,6L3,6L3,9L0,9L0,6M6,6L9,6L9,9L6,9L6,6M3,9L6,9L6,12L3,12L3,9M9,9L12,9L12,12L9,12L9,9"></path>
 </pattern>
 <pattern y="0" x="0" height="12" width="12" patternUnits="userSpaceOnUse" id="cp2pattern">
 <rect class="cp2color" height="12" width="12" y="0" x="0"></rect>
 <path fill="white" d="M0,0L3,0L3,3L0,3L0,0M6,0L9,0L9,3L6,3L6,0M3,3L6,3L6,6L3,6L3,3M9,3L12,3L12,6L9,6L9,3"></path>
 <path fill="white" d="M0,6L3,6L3,9L0,9L0,6M6,6L9,6L9,9L6,9L6,6M3,9L6,9L6,12L3,12L3,9M9,9L12,9L12,12L9,12L9,9"></path>
 </pattern>
 <pattern y="0" x="0" height="12" width="12" patternUnits="userSpaceOnUse" id="cp3pattern">
 <rect class="cp3color" height="12" width="12" y="0" x="0"></rect>
 <path fill="black" d="M0,0L3,0L3,3L0,3L0,0M6,0L9,0L9,3L6,3L6,0M3,3L6,3L6,6L3,6L3,3M9,3L12,3L12,6L9,6L9,3"></path>
 <path fill="black" d="M0,6L3,6L3,9L0,9L0,6M6,6L9,6L9,9L6,9L6,6M3,9L6,9L6,12L3,12L3,9M9,9L12,9L12,12L9,12L9,9"></path>
 </pattern>
 <pattern y="0" x="0" height="12" width="12" patternUnits="userSpaceOnUse" id="cp4pattern">
 <rect class="cp4color" height="12" width="12" y="0" x="0"></rect>
 <path fill="white" d="M0,0L3,0L3,3L0,3L0,0M6,0L9,0L9,3L6,3L6,0M3,3L6,3L6,6L3,6L3,3M9,3L12,3L12,6L9,6L9,3"></path>
 <path fill="white" d="M0,6L3,6L3,9L0,9L0,6M6,6L9,6L9,9L6,9L6,6M3,9L6,9L6,12L3,12L3,9M9,9L12,9L12,12L9,12L9,9"></path>
 </pattern>
 <pattern y="0" x="0" height="12" width="12" patternUnits="userSpaceOnUse" id="cp5pattern">
 <rect class="cp5color" height="12" width="12" y="0" x="0"></rect>
 <path fill="black" d="M0,0L3,0L3,3L0,3L0,0M6,0L9,0L9,3L6,3L6,0M3,3L6,3L6,6L3,6L3,3M9,3L12,3L12,6L9,6L9,3"></path>
 <path fill="black" d="M0,6L3,6L3,9L0,9L0,6M6,6L9,6L9,9L6,9L6,6M3,9L6,9L6,12L3,12L3,9M9,9L12,9L12,12L9,12L9,9"></path>
 </pattern>
 <pattern y="0" x="0" height="12" width="12" patternUnits="userSpaceOnUse" id="cp6pattern">
 <rect class="cp6color" height="12" width="12" y="0" x="0"></rect>
 <path fill="white" d="M0,0L3,0L3,3L0,3L0,0M6,0L9,0L9,3L6,3L6,0M3,3L6,3L6,6L3,6L3,3M9,3L12,3L12,6L9,6L9,3"></path>
 <path fill="white" d="M0,6L3,6L3,9L0,9L0,6M6,6L9,6L9,9L6,9L6,6M3,9L6,9L6,12L3,12L3,9M9,9L12,9L12,12L9,12L9,9"></path>
 </pattern>
 <pattern y="0" x="0" height="12" width="12" patternUnits="userSpaceOnUse" id="cp7pattern">
 <rect class="cp7color" height="12" width="12" y="0" x="0"></rect>
 <path fill="black" d="M0,0L3,0L3,3L0,3L0,0M6,0L9,0L9,3L6,3L6,0M3,3L6,3L6,6L3,6L3,3M9,3L12,3L12,6L9,6L9,3"></path>
 <path fill="black" d="M0,6L3,6L3,9L0,9L0,6M6,6L9,6L9,9L6,9L6,6M3,9L6,9L6,12L3,12L3,9M9,9L12,9L12,12L9,12L9,9"></path>
 </pattern>
 <pattern y="0" x="0" height="12" width="12" patternUnits="userSpaceOnUse" id="cp8pattern">
 <rect class="cp8color" height="12" width="12" y="0" x="0"></rect>
 <path fill="white" d="M0,0L3,0L3,3L0,3L0,0M6,0L9,0L9,3L6,3L6,0M3,3L6,3L6,6L3,6L3,3M9,3L12,3L12,6L9,6L9,3"></path>
 <path fill="white" d="M0,6L3,6L3,9L0,9L0,6M6,6L9,6L9,9L6,9L6,6M3,9L6,9L6,12L3,12L3,9M9,9L12,9L12,12L9,12L9,9"></path>
 </pattern>
 <pattern y="0" x="0" height="12" width="12" patternUnits="userSpaceOnUse" id="cp9pattern">
 <rect class="cp9color" height="12" width="12" y="0" x="0"></rect>
 <path fill="black" d="M0,0L3,0L3,3L0,3L0,0M6,0L9,0L9,3L6,3L6,0M3,3L6,3L6,6L3,6L3,3M9,3L12,3L12,6L9,6L9,3"></path>
 <path fill="black" d="M0,6L3,6L3,9L0,9L0,6M6,6L9,6L9,9L6,9L6,6M3,9L6,9L6,12L3,12L3,9M9,9L12,9L12,12L9,12L9,9"></path>
 </pattern>
 </defs>
 <rect height="100%" width="100%" y="0" x="0" class="road" id="mainfill"></rect>
 <g id="paths"><path d="M432,12L432,12L732,12L732,24L756,24L756,36L768,36L768,48L780,48L780,60L828,60L828,48L864,48L864,36L888,36L888,24L924,24L924,12L960,12L960,24L972,24L972,36L984,36L984,324L972,324L972,336L960,336L960,348L900,348L900,336L876,336L876,324L828,324L828,312L792,312L792,300L780,300L780,312L768,312L768,324L756,324L756,336L732,336L732,348L720,348L720,336L696,336L696,324L672,324L672,312L660,312L660,180L648,180L648,324L636,324L636,336L624,336L624,348L492,348L492,336L480,336L480,288L468,288L468,276L456,276L456,288L420,288L420,300L408,300L408,312L396,312L396,336L336,336L336,324L300,324L300,336L228,336L228,324L216,324L216,336L192,336L192,348L36,348L36,336L24,336L24,324L12,324L12,180L24,180L24,60L36,60L36,48L48,48L48,36L132,36L132,48L144,48L144,60L156,60L156,84L168,84L168,96L180,96L180,108L216,108L216,48L228,48L228,36L348,36L348,24L432,24L432,12M588,60L588,60L576,60L576,72L444,72L444,84L276,84L276,96L264,96L264,144L252,144L252,156L240,156L240,168L156,168L156,156L144,156L144,144L132,144L132,132L120,132L120,120L108,120L108,108L96,108L96,96L84,96L84,108L72,108L72,156L60,156L60,240L72,240L72,264L84,264L84,276L108,276L108,288L132,288L132,300L144,300L144,288L168,288L168,276L192,276L192,264L264,264L264,252L276,252L276,240L288,240L288,228L300,228L300,204L312,204L312,192L324,192L324,144L336,144L336,132L432,132L432,144L444,144L444,156L456,156L456,168L480,168L480,156L528,156L528,168L540,168L540,192L552,192L552,180L564,180L564,168L576,168L576,156L588,156L588,144L612,144L612,132L720,132L720,144L744,144L744,180L732,180L732,192L744,192L744,204L756,204L756,216L804,216L804,192L792,192L792,180L780,180L780,168L768,168L768,156L756,156L756,132L732,132L732,120L720,120L720,108L708,108L708,96L696,96L696,84L684,84L684,72L648,72L648,60L588,60M924,96L924,96L912,96L912,108L876,108L876,120L828,120L828,132L792,132L792,156L804,156L804,180L816,180L816,192L828,192L828,228L732,228L732,204L720,204L720,168L732,168L732,156L708,156L708,252L720,252L720,264L756,264L756,252L768,252L768,240L828,240L828,252L852,252L852,264L876,264L876,276L912,276L912,264L936,264L936,252L948,252L948,120L936,120L936,108L924,108L924,96M384,144L384,144L372,144L372,156L360,156L360,168L348,168L348,180L336,180L336,216L324,216L324,240L312,240L312,252L300,252L300,264L348,264L348,276L360,276L360,288L372,288L372,276L384,276L384,252L396,252L396,240L408,240L408,228L504,228L504,240L516,240L516,252L528,252L528,264L540,264L540,300L564,300L564,288L576,288L576,276L588,276L588,264L600,264L600,180L588,180L588,192L576,192L576,204L564,204L564,216L528,216L528,204L516,204L516,180L480,180L480,192L444,192L444,180L432,180L432,168L420,168L420,156L408,156L408,144Z" class="road"></path><path d="M648,132L648,132L660,132L660,180L648,180Z" class="cp1"></path><path d="M216,264L216,264L228,264L228,324L216,324Z" class="cp2"></path><path d="M0,0L0,0L12,0L12,120L0,120Z" class="parc"></path><path d="M12,0L12,0L936,0L936,12L924,12L924,24L888,24L888,36L864,36L864,48L828,48L828,60L780,60L780,48L768,48L768,36L756,36L756,24L732,24L732,12L432,12L432,24L348,24L348,36L288,36L288,24L276,24L276,12L228,12L228,24L216,24L216,108L180,108L180,96L168,96L168,84L156,84L156,60L144,60L144,48L132,48L132,36L84,36L84,24L36,24L36,12L12,12L12,0M576,60L576,60L648,60L648,72L684,72L684,84L696,84L696,96L708,96L708,132L696,132L696,120L684,120L684,108L624,108L624,120L600,120L600,144L588,144L588,156L576,156L576,168L564,168L564,180L552,180L552,192L540,192L540,168L528,168L528,156L480,156L480,168L456,168L456,156L444,156L444,144L432,144L432,132L336,132L336,144L324,144L324,192L312,192L312,204L300,204L300,228L288,228L288,240L276,240L276,252L264,252L264,264L192,264L192,276L168,276L168,288L144,288L144,300L132,300L132,288L108,288L108,276L84,276L84,264L72,264L72,240L60,240L60,156L72,156L72,108L84,108L84,96L96,96L96,108L108,108L108,120L120,120L120,132L132,132L132,144L144,144L144,156L156,156L156,168L168,168L168,180L180,180L180,192L240,192L240,180L252,180L252,168L264,168L264,96L276,96L276,84L444,84L444,72L576,72L576,60M912,96L912,96L924,96L924,108L936,108L936,120L948,120L948,252L936,252L936,264L912,264L912,276L876,276L876,264L852,264L852,252L828,252L828,240L816,240L816,228L828,228L828,192L816,192L816,180L804,180L804,156L840,156L840,144L876,144L876,108L912,108L912,96M372,144L372,144L408,144L408,156L420,156L420,168L432,168L432,180L444,180L444,192L480,192L480,180L516,180L516,204L528,204L528,216L564,216L564,204L576,204L576,192L588,192L588,180L600,180L600,264L588,264L588,276L576,276L576,288L564,288L564,276L552,276L552,252L540,252L540,240L528,240L528,228L516,228L516,216L492,216L492,204L408,204L408,216L396,216L396,228L384,228L384,240L372,240L372,252L360,252L360,264L300,264L300,252L312,252L312,240L324,240L324,216L336,216L336,180L348,180L348,168L360,168L360,156L372,156L372,144M744,144L744,144L756,144L756,156L768,156L768,168L780,168L780,180L792,180L792,192L804,192L804,216L756,216L756,204L744,204L744,192L732,192L732,180L744,180L744,144M708,156L708,156L732,156L732,168L720,168L720,204L732,204L732,228L756,228L756,240L744,240L744,264L720,264L720,252L708,252L708,156M648,180L648,180L660,180L660,264L648,264L648,180M984,204L984,204L996,204L996,360L960,360L960,336L972,336L972,324L984,324L984,204M456,276L456,276L468,276L468,288L480,288L480,312L468,312L468,324L456,324L456,348L468,348L468,360L60,360L60,348L192,348L192,336L216,336L216,324L228,324L228,336L300,336L300,324L336,324L336,336L396,336L396,312L408,312L408,300L420,300L420,288L456,288L456,276M780,300L780,300L792,300L792,312L816,312L816,336L864,336L864,348L888,348L888,360L744,360L744,348L756,348L756,324L768,324L768,312L780,312L780,300M660,336L660,336L684,336L684,348L708,348L708,360L648,360L648,348L660,348L660,336M540,348L540,348L588,348L588,360L540,360Z" class="grass"></path><path d="M936,0L936,0L996,0L996,204L984,204L984,36L972,36L972,24L960,24L960,12L936,12L936,0M12,12L12,12L36,12L36,24L84,24L84,36L48,36L48,48L36,48L36,60L24,60L24,180L12,180L12,324L24,324L24,336L36,336L36,348L60,348L60,360L0,360L0,120L12,120L12,12M228,12L228,12L276,12L276,24L288,24L288,36L228,36L228,48L216,48L216,24L228,24L228,12M624,108L624,108L684,108L684,120L696,120L696,132L612,132L612,144L600,144L600,120L624,120L624,108M708,108L708,108L720,108L720,120L732,120L732,132L756,132L756,144L720,144L720,132L708,132L708,108M828,120L828,120L876,120L876,144L840,144L840,156L792,156L792,132L828,132L828,120M252,144L252,144L264,144L264,168L252,168L252,180L240,180L240,192L180,192L180,180L168,180L168,168L240,168L240,156L252,156L252,144M408,204L408,204L492,204L492,216L516,216L516,228L528,228L528,240L540,240L540,252L552,252L552,276L564,276L564,300L540,300L540,264L528,264L528,252L516,252L516,240L504,240L504,228L408,228L408,240L396,240L396,252L384,252L384,276L372,276L372,288L360,288L360,276L348,276L348,264L360,264L360,252L372,252L372,240L384,240L384,228L396,228L396,216L408,216L408,204M756,228L756,228L816,228L816,240L768,240L768,252L756,252L756,264L744,264L744,240L756,240L756,228M648,264L648,264L660,264L660,312L672,312L672,324L696,324L696,336L720,336L720,348L732,348L732,336L756,336L756,348L744,348L744,360L708,360L708,348L684,348L684,336L660,336L660,348L648,348L648,360L588,360L588,348L624,348L624,336L636,336L636,324L648,324L648,264M468,312L468,312L480,312L480,336L492,336L492,348L540,348L540,360L468,360L468,348L456,348L456,324L468,324L468,312M816,312L816,312L828,312L828,324L876,324L876,336L900,336L900,348L960,348L960,360L888,360L888,348L864,348L864,336L816,336Z" class="sand"></path><path d="M348,24L348,24L360,24L360,36L348,36L348,24M360,36L360,36L372,36L372,24L384,24L384,36L372,36L372,48L360,48L360,36M384,36L384,36L396,36L396,48L384,48L384,36M372,48L372,48L384,48L384,60L372,60L372,48M360,48L360,48L360,60L348,60L348,48L360,48M360,60L360,60L372,60L372,72L360,72L360,60M384,60L384,60L396,60L396,72L384,72L384,60M372,72L372,72L384,72L384,84L372,84L372,72M360,72L360,72L360,84L348,84L348,72Z" class="start"></path><path d="M336,36L336,36L348,36L348,84L336,84Z" class="finish"></path></g>
 <rect opacity=".3" fill="url(#grid)" height="100%" width="100%" y="0" x="0"></rect>
</svg>