<svg xmlns="http://www.w3.org/2000/svg" xmlns:xlink="http://www.w3.org/1999/xlink" version="1.1" id="mapSvgView" width="816" height="612"> <rect id="mainfill" class="grass" x="0" y="0" width="100%" height="100%"></rect> <g id="paths"><path d="M624,432L624,432L648,432L648,456L684,456L684,480L624,480Z" class="cp3"></path><path d="M360,204L360,204L384,204L384,264L360,264Z" class="cp6"></path><path d="M312,12L312,12L336,12L336,72L312,72Z" class="cp7"></path><path d="M300,132L300,132L348,132L348,180L324,180L324,156L288,156L288,144L300,144Z" class="cp8"></path><path d="M0,0L0,0L12,0L12,96L0,96Z" class="parc"></path><path d="M276,12L276,12L312,12L312,84L300,84L300,96L288,96L288,108L276,108L276,120L264,120L264,132L252,132L252,144L240,144L240,156L228,156L228,168L216,168L216,216L228,216L228,228L240,228L240,240L264,240L264,168L276,168L276,156L324,156L324,192L312,192L312,204L300,204L300,216L288,216L288,252L300,252L300,276L312,276L312,300L324,300L324,216L348,216L348,204L360,204L360,192L372,192L372,180L396,180L396,168L444,168L444,156L432,156L432,144L384,144L384,156L360,156L360,168L348,168L348,132L312,132L312,120L324,120L324,108L348,108L348,96L372,96L372,84L360,84L360,72L336,72L336,12L456,12L456,24L492,24L492,36L516,36L516,48L540,48L540,60L552,60L552,72L576,72L576,84L600,84L600,108L612,108L612,228L600,228L600,240L588,240L588,252L576,252L576,288L552,288L552,300L528,300L528,312L516,312L516,336L528,336L528,360L552,360L552,372L564,372L564,360L576,360L576,348L588,348L588,324L612,324L612,312L648,312L648,324L672,324L672,336L684,336L684,456L648,456L648,348L636,348L636,360L624,360L624,408L612,408L612,420L588,420L588,444L564,444L564,456L504,456L504,444L480,444L480,420L468,420L468,408L456,408L456,336L468,336L468,324L480,324L480,312L492,312L492,276L504,276L504,240L516,240L516,204L504,204L504,192L492,192L492,180L480,180L480,168L468,168L468,180L456,180L456,192L432,192L432,180L408,180L408,192L432,192L432,204L420,204L420,216L408,216L408,204L396,204L396,192L372,192L372,204L360,204L360,276L348,276L348,312L360,312L360,324L384,324L384,312L396,312L396,276L384,276L384,204L396,204L396,216L408,216L408,252L432,252L432,276L444,276L444,336L432,336L432,384L420,384L420,408L408,408L408,432L384,432L384,444L360,444L360,456L204,456L204,384L324,384L324,360L312,360L312,348L300,348L300,324L276,324L276,300L252,300L252,288L180,288L180,276L156,276L156,264L144,264L144,240L132,240L132,120L144,120L144,108L156,108L156,96L168,96L168,72L180,72L180,60L204,60L204,48L228,48L228,36L252,36L252,24L276,24L276,12M408,60L408,60L396,60L396,72L420,72L420,60L408,60M432,72L432,72L420,72L420,84L432,84L432,108L420,108L420,96L408,96L408,108L420,108L420,120L444,120L444,132L456,132L456,144L468,144L468,156L480,156L480,168L504,168L504,180L516,180L516,192L540,192L540,156L528,156L528,144L504,144L504,132L492,132L492,120L480,120L480,108L468,108L468,84L456,84L456,72L432,72M552,192L552,192L540,192L540,216L552,216L552,192M168,384L168,384L192,384L192,456L168,456L168,480L156,480L156,492L144,492L144,504L168,504L168,492L240,492L240,480L360,480L360,492L480,492L480,504L516,504L516,492L552,492L552,480L588,480L588,468L612,468L612,456L624,456L624,480L672,480L672,492L660,492L660,504L648,504L648,528L636,528L636,540L612,540L612,564L588,564L588,576L108,576L108,564L84,564L84,552L48,552L48,540L36,540L36,528L24,528L24,504L36,504L36,492L60,492L60,456L72,456L72,444L84,444L84,432L96,432L96,420L120,420L120,408L132,408L132,396L168,396L168,384M252,396L252,396L240,396L240,420L228,420L228,444L240,444L240,420L252,420L252,396M276,396L276,396L264,396L264,420L252,420L252,444L264,444L264,420L276,420L276,396M240,516L240,516L228,516L228,528L528,528L528,516Z" class="road"></path><path d="M684,12L684,12L768,12L768,36L756,36L756,24L744,24L744,36L732,36L732,24L720,24L720,36L708,36L708,24L696,24L696,36L684,36L684,12M696,36L696,36L708,36L708,48L696,48L696,36M720,36L720,36L732,36L732,48L720,48L720,36M744,36L744,36L756,36L756,48L744,48L744,36M768,36L768,36L780,36L780,48L768,48L768,36M708,48L708,48L720,48L720,60L732,60L732,48L744,48L744,60L756,60L756,48L768,48L768,72L684,72L684,48L696,48L696,60L708,60Z" class="sand"></path><path d="M696,24L696,24L708,24L708,36L696,36L696,24M708,36L708,36L720,36L720,24L732,24L732,36L720,36L720,48L708,48L708,36M732,36L732,36L744,36L744,24L756,24L756,36L744,36L744,48L732,48L732,36M756,36L756,36L768,36L768,48L756,48L756,36M720,48L720,48L732,48L732,60L720,60L720,48M708,48L708,48L708,60L696,60L696,48L708,48M744,48L744,48L756,48L756,60L744,60L744,48M192,384L192,384L204,384L204,456L192,456Z" class="finish"></path><path d="M240,396L240,396L252,396L252,420L240,420L240,396M264,396L264,396L276,396L276,420L264,420L264,396M252,420L252,420L264,420L264,444L252,444L252,420M240,420L240,420L240,444L228,444L228,420Z" class="start"></path></g></svg>