<svg xmlns:xlink="http://www.w3.org/1999/xlink" xmlns="http://www.w3.org/2000/svg" height="588" width="1020" id="mapSvgView" version="1.1" style="width: 1020px; height: 588px;" viewBox="0 0 1020 588">
 <defs>
 <pattern y="0" x="0" height="24" width="24" patternUnits="userSpaceOnUse" id="grassPattern">
 <rect class="grasscolor" height="24" width="24" y="0" x="0"></rect>
 <rect class="grassspeclecolor" height="1" width="1" x="1" y="5"></rect>
 <rect class="grassspeclecolor" height="1" width="1" x="1" y="5"></rect>
 <rect class="grassspeclecolor" height="1" width="1" x="3" y="5"></rect>
 <rect class="grassspeclecolor" height="1" width="1" x="6" y="7"></rect>
 <rect class="grassspeclecolor" height="1" width="1" x="6" y="17"></rect>
 <rect class="grassspeclecolor" height="1" width="1" x="8" y="21"></rect>
 <rect class="grassspeclecolor" height="1" width="1" x="9" y="2"></rect>
 <rect class="grassspeclecolor" height="1" width="1" x="12" y="4"></rect>
 <rect class="grassspeclecolor" height="1" width="1" x="13" y="15"></rect>
 <rect class="grassspeclecolor" height="1" width="1" x="14" y="4"></rect>
 <rect class="grassspeclecolor" height="1" width="1" x="14" y="19"></rect>
 <rect class="grassspeclecolor" height="1" width="1" x="17" y="7"></rect>
 <rect class="grassspeclecolor" height="1" width="1" x="17" y="12"></rect>
 <rect class="grassspeclecolor" height="1" width="1" x="18" y="23"></rect>
 <rect class="grassspeclecolor" height="1" width="1" x="21" y="16"></rect>
 <rect class="grassspeclecolor" height="1" width="1" x="23" y="12"></rect>
 </pattern>
 <pattern y="0" x="0" height="24" width="24" patternUnits="userSpaceOnUse" id="roadPattern">
 <rect class="roadcolor" height="24" width="24" y="0" x="0"></rect>
 <rect class="roadspeclecolor" height="1" width="1" x="1" y="5"></rect>
 <rect class="roadspeclecolor" height="1" width="1" x="1" y="5"></rect>
 <rect class="roadspeclecolor" height="1" width="1" x="3" y="5"></rect>
 <rect class="roadspeclecolor" height="1" width="1" x="6" y="7"></rect>
 <rect class="roadspeclecolor" height="1" width="1" x="6" y="17"></rect>
 <rect class="roadspeclecolor" height="1" width="1" x="8" y="21"></rect>
 <rect class="roadspeclecolor" height="1" width="1" x="9" y="2"></rect>
 <rect class="roadspeclecolor" height="1" width="1" x="12" y="4"></rect>
 <rect class="roadspeclecolor" height="1" width="1" x="13" y="15"></rect>
 <rect class="roadspeclecolor" height="1" width="1" x="14" y="4"></rect>
 <rect class="roadspeclecolor" height="1" width="1" x="14" y="19"></rect>
 <rect class="roadspeclecolor" height="1" width="1" x="17" y="7"></rect>
 <rect class="roadspeclecolor" height="1" width="1" x="17" y="12"></rect>
 <rect class="roadspeclecolor" height="1" width="1" x="18" y="23"></rect>
 <rect class="roadspeclecolor" height="1" width="1" x="21" y="16"></rect>
 <rect class="roadspeclecolor" height="1" width="1" x="23" y="12"></rect>
 </pattern>
 <pattern y="0" x="0" height="12" width="12" patternUnits="userSpaceOnUse" id="grid">
 <line stroke-width="1" stroke="black" y2="12" x2="12" y1="0" x1="12"></line>
 <line stroke-width="1" stroke="black" y2="12" x2="12" y1="12" x1="0"></line>
 </pattern>
 <pattern y="0" x="0" height="12" width="12" patternUnits="userSpaceOnUse" id="finishPattern">
 <rect fill="black" height="12" width="12" y="0" x="0"></rect>
 <path fill="white" d="M0,0L3,0L3,3L0,3L0,0M6,0L9,0L9,3L6,3L6,0M3,3L6,3L6,6L3,6L3,3M9,3L12,3L12,6L9,6L9,3"></path>
 <path fill="white" d="M0,6L3,6L3,9L0,9L0,6M6,6L9,6L9,9L6,9L6,6M3,9L6,9L6,12L3,12L3,9M9,9L12,9L12,12L9,12L9,9"></path>
 </pattern>
 <pattern y="0" x="0" height="12" width="12" patternUnits="userSpaceOnUse" id="startPattern">
 <rect fill="rgb(100,100,100)" height="12" width="12" y="0" x="0"></rect>
 <rect stroke-width="1" stroke="rgb(200,200,200)" fill="none" height="5" width="5" y="3.5" x="3.5"></rect>
 </pattern>
 <pattern y="0" x="0" height="12" width="12" patternUnits="userSpaceOnUse" id="cp1pattern">
 <rect class="cp1color" height="12" width="12" y="0" x="0"></rect>
 <path fill="black" d="M0,0L3,0L3,3L0,3L0,0M6,0L9,0L9,3L6,3L6,0M3,3L6,3L6,6L3,6L3,3M9,3L12,3L12,6L9,6L9,3"></path>
 <path fill="black" d="M0,6L3,6L3,9L0,9L0,6M6,6L9,6L9,9L6,9L6,6M3,9L6,9L6,12L3,12L3,9M9,9L12,9L12,12L9,12L9,9"></path>
 </pattern>
 <pattern y="0" x="0" height="12" width="12" patternUnits="userSpaceOnUse" id="cp2pattern">
 <rect class="cp2color" height="12" width="12" y="0" x="0"></rect>
 <path fill="white" d="M0,0L3,0L3,3L0,3L0,0M6,0L9,0L9,3L6,3L6,0M3,3L6,3L6,6L3,6L3,3M9,3L12,3L12,6L9,6L9,3"></path>
 <path fill="white" d="M0,6L3,6L3,9L0,9L0,6M6,6L9,6L9,9L6,9L6,6M3,9L6,9L6,12L3,12L3,9M9,9L12,9L12,12L9,12L9,9"></path>
 </pattern>
 <pattern y="0" x="0" height="12" width="12" patternUnits="userSpaceOnUse" id="cp3pattern">
 <rect class="cp3color" height="12" width="12" y="0" x="0"></rect>
 <path fill="black" d="M0,0L3,0L3,3L0,3L0,0M6,0L9,0L9,3L6,3L6,0M3,3L6,3L6,6L3,6L3,3M9,3L12,3L12,6L9,6L9,3"></path>
 <path fill="black" d="M0,6L3,6L3,9L0,9L0,6M6,6L9,6L9,9L6,9L6,6M3,9L6,9L6,12L3,12L3,9M9,9L12,9L12,12L9,12L9,9"></path>
 </pattern>
 <pattern y="0" x="0" height="12" width="12" patternUnits="userSpaceOnUse" id="cp4pattern">
 <rect class="cp4color" height="12" width="12" y="0" x="0"></rect>
 <path fill="white" d="M0,0L3,0L3,3L0,3L0,0M6,0L9,0L9,3L6,3L6,0M3,3L6,3L6,6L3,6L3,3M9,3L12,3L12,6L9,6L9,3"></path>
 <path fill="white" d="M0,6L3,6L3,9L0,9L0,6M6,6L9,6L9,9L6,9L6,6M3,9L6,9L6,12L3,12L3,9M9,9L12,9L12,12L9,12L9,9"></path>
 </pattern>
 <pattern y="0" x="0" height="12" width="12" patternUnits="userSpaceOnUse" id="cp5pattern">
 <rect class="cp5color" height="12" width="12" y="0" x="0"></rect>
 <path fill="black" d="M0,0L3,0L3,3L0,3L0,0M6,0L9,0L9,3L6,3L6,0M3,3L6,3L6,6L3,6L3,3M9,3L12,3L12,6L9,6L9,3"></path>
 <path fill="black" d="M0,6L3,6L3,9L0,9L0,6M6,6L9,6L9,9L6,9L6,6M3,9L6,9L6,12L3,12L3,9M9,9L12,9L12,12L9,12L9,9"></path>
 </pattern>
 <pattern y="0" x="0" height="12" width="12" patternUnits="userSpaceOnUse" id="cp6pattern">
 <rect class="cp6color" height="12" width="12" y="0" x="0"></rect>
 <path fill="white" d="M0,0L3,0L3,3L0,3L0,0M6,0L9,0L9,3L6,3L6,0M3,3L6,3L6,6L3,6L3,3M9,3L12,3L12,6L9,6L9,3"></path>
 <path fill="white" d="M0,6L3,6L3,9L0,9L0,6M6,6L9,6L9,9L6,9L6,6M3,9L6,9L6,12L3,12L3,9M9,9L12,9L12,12L9,12L9,9"></path>
 </pattern>
 <pattern y="0" x="0" height="12" width="12" patternUnits="userSpaceOnUse" id="cp7pattern">
 <rect class="cp7color" height="12" width="12" y="0" x="0"></rect>
 <path fill="black" d="M0,0L3,0L3,3L0,3L0,0M6,0L9,0L9,3L6,3L6,0M3,3L6,3L6,6L3,6L3,3M9,3L12,3L12,6L9,6L9,3"></path>
 <path fill="black" d="M0,6L3,6L3,9L0,9L0,6M6,6L9,6L9,9L6,9L6,6M3,9L6,9L6,12L3,12L3,9M9,9L12,9L12,12L9,12L9,9"></path>
 </pattern>
 <pattern y="0" x="0" height="12" width="12" patternUnits="userSpaceOnUse" id="cp8pattern">
 <rect class="cp8color" height="12" width="12" y="0" x="0"></rect>
 <path fill="white" d="M0,0L3,0L3,3L0,3L0,0M6,0L9,0L9,3L6,3L6,0M3,3L6,3L6,6L3,6L3,3M9,3L12,3L12,6L9,6L9,3"></path>
 <path fill="white" d="M0,6L3,6L3,9L0,9L0,6M6,6L9,6L9,9L6,9L6,6M3,9L6,9L6,12L3,12L3,9M9,9L12,9L12,12L9,12L9,9"></path>
 </pattern>
 <pattern y="0" x="0" height="12" width="12" patternUnits="userSpaceOnUse" id="cp9pattern">
 <rect class="cp9color" height="12" width="12" y="0" x="0"></rect>
 <path fill="black" d="M0,0L3,0L3,3L0,3L0,0M6,0L9,0L9,3L6,3L6,0M3,3L6,3L6,6L3,6L3,3M9,3L12,3L12,6L9,6L9,3"></path>
 <path fill="black" d="M0,6L3,6L3,9L0,9L0,6M6,6L9,6L9,9L6,9L6,6M3,9L6,9L6,12L3,12L3,9M9,9L12,9L12,12L9,12L9,9"></path>
 </pattern>
 </defs>
 <rect height="100%" width="100%" y="0" x="0" class="road" id="mainfill"></rect>
 <g id="paths"><path d="M156,24L156,24L216,24L216,36L240,36L240,48L252,48L252,72L264,72L264,84L276,84L276,96L312,96L312,84L324,84L324,72L336,72L336,48L348,48L348,36L372,36L372,24L432,24L432,36L456,36L456,48L468,48L468,72L480,72L480,84L492,84L492,96L528,96L528,84L540,84L540,72L552,72L552,48L564,48L564,36L588,36L588,24L648,24L648,36L672,36L672,48L684,48L684,72L696,72L696,84L708,84L708,96L744,96L744,84L756,84L756,72L768,72L768,48L780,48L780,36L804,36L804,24L864,24L864,36L888,36L888,48L900,48L900,72L912,72L912,96L924,96L924,108L948,108L948,120L972,120L972,132L984,132L984,156L996,156L996,216L984,216L984,240L972,240L972,252L948,252L948,264L936,264L936,276L924,276L924,312L936,312L936,324L948,324L948,336L972,336L972,348L984,348L984,372L996,372L996,432L984,432L984,456L972,456L972,468L948,468L948,480L924,480L924,492L912,492L912,516L900,516L900,540L888,540L888,552L864,552L864,564L804,564L804,552L780,552L780,540L768,540L768,516L756,516L756,456L768,456L768,276L756,276L756,264L744,264L744,276L732,276L732,288L720,288L720,300L708,300L708,312L696,312L696,456L708,456L708,516L696,516L696,540L684,540L684,552L660,552L660,564L600,564L600,552L576,552L576,540L564,540L564,516L552,516L552,372L540,372L540,360L528,360L528,348L492,348L492,360L480,360L480,372L468,372L468,516L456,516L456,540L444,540L444,552L420,552L420,564L360,564L360,552L336,552L336,540L324,540L324,516L312,516L312,456L324,456L324,312L312,312L312,300L300,300L300,288L288,288L288,276L276,276L276,264L264,264L264,276L252,276L252,456L264,456L264,516L252,516L252,540L240,540L240,552L216,552L216,564L156,564L156,552L132,552L132,540L120,540L120,516L108,516L108,492L96,492L96,480L72,480L72,468L48,468L48,456L36,456L36,432L24,432L24,372L36,372L36,348L48,348L48,336L72,336L72,324L84,324L84,312L96,312L96,276L84,276L84,264L72,264L72,252L48,252L48,240L36,240L36,216L24,216L24,156L36,156L36,132L48,132L48,120L72,120L72,108L96,108L96,96L108,96L108,72L120,72L120,48L132,48L132,36L156,36L156,24M180,84L180,84L168,84L168,96L156,96L156,108L144,108L144,132L132,132L132,144L108,144L108,156L96,156L96,168L84,168L84,204L96,204L96,216L108,216L108,228L132,228L132,240L144,240L144,264L156,264L156,324L144,324L144,348L132,348L132,360L108,360L108,372L96,372L96,384L84,384L84,420L96,420L96,432L108,432L108,444L132,444L132,456L144,456L144,480L156,480L156,492L168,492L168,504L192,504L192,492L204,492L204,480L216,480L216,456L204,456L204,444L192,444L192,432L180,432L180,336L192,336L192,252L180,252L180,204L192,204L192,192L276,192L276,204L288,204L288,216L300,216L300,228L312,228L312,240L324,240L324,252L336,252L336,264L348,264L348,276L360,276L360,300L372,300L372,468L360,468L360,504L372,504L372,516L408,516L408,504L420,504L420,348L432,348L432,336L456,336L456,324L468,324L468,288L456,288L456,264L444,264L444,252L420,252L420,240L384,240L384,228L372,228L372,216L360,216L360,204L348,204L348,168L360,168L360,156L372,156L372,144L384,144L384,132L420,132L420,144L432,144L432,156L444,156L444,168L456,168L456,180L564,180L564,168L576,168L576,156L588,156L588,144L600,144L600,132L636,132L636,144L648,144L648,156L660,156L660,168L672,168L672,204L660,204L660,216L648,216L648,228L636,228L636,240L600,240L600,252L576,252L576,264L564,264L564,288L552,288L552,324L564,324L564,336L588,336L588,348L600,348L600,504L612,504L612,516L648,516L648,504L660,504L660,468L648,468L648,300L660,300L660,276L672,276L672,264L684,264L684,252L696,252L696,240L708,240L708,228L720,228L720,216L732,216L732,204L744,204L744,192L828,192L828,204L840,204L840,252L828,252L828,336L840,336L840,432L828,432L828,444L816,444L816,456L804,456L804,480L816,480L816,492L828,492L828,504L852,504L852,492L864,492L864,480L876,480L876,456L888,456L888,444L912,444L912,432L924,432L924,420L936,420L936,384L924,384L924,372L912,372L912,360L888,360L888,348L876,348L876,324L864,324L864,264L876,264L876,240L888,240L888,228L912,228L912,216L924,216L924,204L936,204L936,168L924,168L924,156L912,156L912,144L888,144L888,132L876,132L876,108L864,108L864,96L852,96L852,84L816,84L816,96L804,96L804,108L792,108L792,132L780,132L780,144L756,144L756,156L696,156L696,144L672,144L672,132L660,132L660,108L648,108L648,96L636,96L636,84L600,84L600,96L588,96L588,108L576,108L576,132L564,132L564,144L540,144L540,156L480,156L480,144L456,144L456,132L444,132L444,108L432,108L432,96L420,96L420,84L384,84L384,96L372,96L372,108L360,108L360,132L348,132L348,144L324,144L324,156L264,156L264,144L240,144L240,132L228,132L228,108L216,108L216,96L204,96L204,84Z" class="road"></path><path d="M504,96L504,96L516,96L516,132L528,132L528,144L516,144L516,156L504,156L504,144L492,144L492,132L504,132L504,96M492,144L492,144L492,156L480,156L480,144L492,144M528,144L528,144L540,144L540,156L528,156Z" class="cp1"></path><path d="M0,0L0,0L12,0L12,132L0,132Z" class="parc"></path><path d="M12,0L12,0L1020,0L1020,588L0,588L0,132L12,132L12,0M168,12L168,12L156,12L156,24L132,24L132,36L120,36L120,48L108,48L108,72L96,72L96,96L72,96L72,108L48,108L48,120L36,120L36,132L24,132L24,156L12,156L12,216L24,216L24,240L36,240L36,252L48,252L48,264L72,264L72,276L84,276L84,312L72,312L72,324L48,324L48,336L36,336L36,348L24,348L24,372L12,372L12,432L24,432L24,456L36,456L36,468L48,468L48,480L72,480L72,492L96,492L96,516L108,516L108,540L120,540L120,552L132,552L132,564L156,564L156,576L216,576L216,564L240,564L240,552L252,552L252,540L264,540L264,516L276,516L276,456L264,456L264,276L276,276L276,288L288,288L288,300L300,300L300,312L312,312L312,456L300,456L300,516L312,516L312,540L324,540L324,552L336,552L336,564L360,564L360,576L420,576L420,564L444,564L444,552L456,552L456,540L468,540L468,516L480,516L480,372L492,372L492,360L528,360L528,372L540,372L540,516L552,516L552,540L564,540L564,552L576,552L576,564L600,564L600,576L660,576L660,564L684,564L684,552L696,552L696,540L708,540L708,516L720,516L720,456L708,456L708,312L720,312L720,300L732,300L732,288L744,288L744,276L756,276L756,456L744,456L744,516L756,516L756,540L768,540L768,552L780,552L780,564L804,564L804,576L864,576L864,564L888,564L888,552L900,552L900,540L912,540L912,516L924,516L924,492L948,492L948,480L972,480L972,468L984,468L984,456L996,456L996,432L1008,432L1008,372L996,372L996,348L984,348L984,336L972,336L972,324L948,324L948,312L936,312L936,276L948,276L948,264L972,264L972,252L984,252L984,240L996,240L996,216L1008,216L1008,156L996,156L996,132L984,132L984,120L972,120L972,108L948,108L948,96L924,96L924,72L912,72L912,48L900,48L900,36L888,36L888,24L864,24L864,12L804,12L804,24L780,24L780,36L768,36L768,48L756,48L756,72L744,72L744,84L708,84L708,72L696,72L696,48L684,48L684,36L672,36L672,24L648,24L648,12L588,12L588,24L564,24L564,36L552,36L552,48L540,48L540,72L528,72L528,84L492,84L492,72L480,72L480,48L468,48L468,36L456,36L456,24L432,24L432,12L372,12L372,24L348,24L348,36L336,36L336,48L324,48L324,72L312,72L312,84L276,84L276,72L264,72L264,48L252,48L252,36L240,36L240,24L216,24L216,12Z" class="sand"></path><path d="M156,12L156,12L216,12L216,24L156,24L156,12M156,24L156,24L156,36L132,36L132,24L156,24M216,24L216,24L240,24L240,36L216,36L216,24M372,12L372,12L432,12L432,24L372,24L372,12M372,24L372,24L372,36L348,36L348,24L372,24M432,24L432,24L456,24L456,36L432,36L432,24M588,12L588,12L648,12L648,24L588,24L588,12M588,24L588,24L588,36L564,36L564,24L588,24M648,24L648,24L672,24L672,36L648,36L648,24M804,12L804,12L864,12L864,24L804,24L804,12M804,24L804,24L804,36L780,36L780,24L804,24M864,24L864,24L888,24L888,36L864,36L864,24M132,36L132,36L132,48L120,48L120,36L132,36M240,36L240,36L252,36L252,48L240,48L240,36M348,36L348,36L348,48L336,48L336,36L348,36M456,36L456,36L468,36L468,48L456,48L456,36M564,36L564,36L564,48L552,48L552,36L564,36M672,36L672,36L684,36L684,48L672,48L672,36M780,36L780,36L780,48L768,48L768,36L780,36M888,36L888,36L900,36L900,48L888,48L888,36M120,48L120,48L120,72L108,72L108,48L120,48M252,48L252,48L264,48L264,72L252,72L252,48M336,48L336,48L336,72L324,72L324,48L336,48M468,48L468,48L480,48L480,72L468,72L468,48M552,48L552,48L552,72L540,72L540,48L552,48M684,48L684,48L696,48L696,72L684,72L684,48M768,48L768,48L768,72L756,72L756,48L768,48M900,48L900,48L912,48L912,72L900,72L900,48M108,72L108,72L108,96L96,96L96,72L108,72M264,72L264,72L276,72L276,84L264,84L264,72M324,72L324,72L324,84L312,84L312,72L324,72M480,72L480,72L492,72L492,84L480,84L480,72M540,72L540,72L540,84L528,84L528,72L540,72M696,72L696,72L708,72L708,84L696,84L696,72M756,72L756,72L756,84L744,84L744,72L756,72M912,72L912,72L924,72L924,96L912,96L912,72M276,84L276,84L312,84L312,96L276,96L276,84M492,84L492,84L528,84L528,96L492,96L492,84M708,84L708,84L744,84L744,96L708,96L708,84M96,96L96,96L96,108L72,108L72,96L96,96M168,84L168,84L204,84L204,96L168,96L168,84M168,96L168,96L168,108L156,108L156,96L168,96M204,96L204,96L216,96L216,108L204,108L204,96M384,84L384,84L420,84L420,96L384,96L384,84M384,96L384,96L384,108L372,108L372,96L384,96M420,96L420,96L432,96L432,108L420,108L420,96M600,84L600,84L636,84L636,96L600,96L600,84M600,96L600,96L600,108L588,108L588,96L600,96M636,96L636,96L648,96L648,108L636,108L636,96M816,84L816,84L852,84L852,96L816,96L816,84M816,96L816,96L816,108L804,108L804,96L816,96M852,96L852,96L864,96L864,108L852,108L852,96M924,96L924,96L948,96L948,108L924,108L924,96M72,108L72,108L72,120L48,120L48,108L72,108M156,108L156,108L156,132L144,132L144,108L156,108M216,108L216,108L228,108L228,132L216,132L216,108M372,108L372,108L372,132L360,132L360,108L372,108M432,108L432,108L444,108L444,132L432,132L432,108M588,108L588,108L588,132L576,132L576,108L588,108M648,108L648,108L660,108L660,132L648,132L648,108M804,108L804,108L804,132L792,132L792,108L804,108M864,108L864,108L876,108L876,132L864,132L864,108M948,108L948,108L972,108L972,120L948,120L948,108M48,120L48,120L48,132L36,132L36,120L48,120M972,120L972,120L984,120L984,132L972,132L972,120M36,132L36,132L36,156L24,156L24,132L36,132M144,132L144,132L144,144L132,144L132,132L144,132M228,132L228,132L240,132L240,144L228,144L228,132M372,132L372,132L384,132L384,120L420,120L420,132L384,132L384,144L372,144L372,132M360,132L360,132L360,144L348,144L348,132L360,132M420,132L420,132L432,132L432,144L420,144L420,132M444,132L444,132L456,132L456,144L444,144L444,132M588,132L588,132L600,132L600,120L636,120L636,132L600,132L600,144L588,144L588,132M576,132L576,132L576,144L564,144L564,132L576,132M636,132L636,132L648,132L648,144L636,144L636,132M660,132L660,132L672,132L672,144L660,144L660,132M792,132L792,132L792,144L780,144L780,132L792,132M876,132L876,132L888,132L888,144L876,144L876,132M984,132L984,132L996,132L996,156L984,156L984,132M132,144L132,144L132,156L108,156L108,144L132,144M240,144L240,144L264,144L264,156L240,156L240,144M360,144L360,144L372,144L372,156L360,156L360,144M348,144L348,144L348,156L324,156L324,144L348,144M432,144L432,144L444,144L444,156L432,156L432,144M456,144L456,144L480,144L480,156L456,156L456,144M576,144L576,144L588,144L588,156L576,156L576,144M564,144L564,144L564,156L540,156L540,144L564,144M648,144L648,144L660,144L660,156L648,156L648,144M672,144L672,144L696,144L696,156L672,156L672,144M780,144L780,144L780,156L756,156L756,144L780,144M888,144L888,144L912,144L912,156L888,156L888,144M24,156L24,156L24,216L12,216L12,156L24,156M108,156L108,156L108,168L96,168L96,156L108,156M264,156L264,156L324,156L324,168L264,168L264,156M348,156L348,156L360,156L360,168L348,168L348,156M444,156L444,156L456,156L456,168L444,168L444,156M480,156L480,156L540,156L540,168L564,168L564,156L576,156L576,168L564,168L564,180L456,180L456,168L480,168L480,156M660,156L660,156L672,156L672,168L660,168L660,156M696,156L696,156L756,156L756,168L696,168L696,156M912,156L912,156L924,156L924,168L912,168L912,156M996,156L996,156L1008,156L1008,216L996,216L996,156M96,168L96,168L96,204L84,204L84,168L96,168M348,168L348,168L348,204L336,204L336,168L348,168M672,168L672,168L684,168L684,204L672,204L672,168M924,168L924,168L936,168L936,204L924,204L924,168M192,180L192,180L276,180L276,192L192,192L192,180M192,192L192,192L192,204L180,204L180,192L192,192M276,192L276,192L288,192L288,204L276,204L276,192M744,180L744,180L828,180L828,192L744,192L744,180M744,192L744,192L744,204L732,204L732,192L744,192M828,192L828,192L840,192L840,204L828,204L828,192M96,204L96,204L108,204L108,216L96,216L96,204M180,204L180,204L180,252L168,252L168,204L180,204M288,204L288,204L300,204L300,216L288,216L288,204M348,204L348,204L360,204L360,216L348,216L348,204M672,204L672,204L672,216L660,216L660,204L672,204M732,204L732,204L732,216L720,216L720,204L732,204M840,204L840,204L852,204L852,252L840,252L840,204M924,204L924,204L924,216L912,216L912,204L924,204M24,216L24,216L36,216L36,240L24,240L24,216M108,216L108,216L132,216L132,228L108,228L108,216M300,216L300,216L312,216L312,228L300,228L300,216M360,216L360,216L372,216L372,228L360,228L360,216M660,216L660,216L660,228L648,228L648,216L660,216M720,216L720,216L720,228L708,228L708,216L720,216M912,216L912,216L912,228L888,228L888,216L912,216M996,216L996,216L996,240L984,240L984,216L996,216M132,228L132,228L144,228L144,240L132,240L132,228M312,228L312,228L324,228L324,240L312,240L312,228M372,228L372,228L384,228L384,240L372,240L372,228M648,228L648,228L648,240L636,240L636,228L648,228M708,228L708,228L708,240L696,240L696,228L708,228M888,228L888,228L888,240L876,240L876,228L888,228M36,240L36,240L48,240L48,252L36,252L36,240M144,240L144,240L156,240L156,264L144,264L144,240M324,240L324,240L336,240L336,252L324,252L324,240M384,240L384,240L420,240L420,252L384,252L384,240M636,240L636,240L636,252L600,252L600,240L636,240M696,240L696,240L696,252L684,252L684,240L696,240M876,240L876,240L876,264L864,264L864,240L876,240M984,240L984,240L984,252L972,252L972,240L984,240M48,252L48,252L72,252L72,264L48,264L48,252M180,252L180,252L192,252L192,336L180,336L180,252M336,252L336,252L348,252L348,264L336,264L336,252M420,252L420,252L444,252L444,264L420,264L420,252M600,252L600,252L600,264L576,264L576,252L600,252M684,252L684,252L684,264L672,264L672,252L684,252M840,252L840,252L840,336L828,336L828,252L840,252M972,252L972,252L972,264L948,264L948,252L972,252M72,264L72,264L84,264L84,276L72,276L72,264M156,264L156,264L168,264L168,324L156,324L156,264M348,264L348,264L360,264L360,276L348,276L348,264M444,264L444,264L456,264L456,288L444,288L444,264M576,264L576,264L576,288L564,288L564,264L576,264M672,264L672,264L672,276L660,276L660,264L672,264M864,264L864,264L864,324L852,324L852,264L864,264M948,264L948,264L948,276L936,276L936,264L948,264M84,276L84,276L96,276L96,312L84,312L84,276M264,264L264,264L276,264L276,276L264,276L264,264M276,276L276,276L288,276L288,288L276,288L276,276M264,276L264,276L264,456L252,456L252,276L264,276M360,276L360,276L372,276L372,300L360,300L360,276M660,276L660,276L660,300L648,300L648,276L660,276M744,264L744,264L756,264L756,276L744,276L744,264M756,276L756,276L768,276L768,456L756,456L756,276M744,276L744,276L744,288L732,288L732,276L744,276M936,276L936,276L936,312L924,312L924,276L936,276M288,288L288,288L300,288L300,300L288,300L288,288M456,288L456,288L468,288L468,324L456,324L456,288M564,288L564,288L564,324L552,324L552,288L564,288M732,288L732,288L732,300L720,300L720,288L732,288M300,300L300,300L312,300L312,312L300,312L300,300M372,300L372,300L384,300L384,468L372,468L372,300M648,300L648,300L648,468L636,468L636,300L648,300M720,300L720,300L720,312L708,312L708,300L720,300M84,312L84,312L84,324L72,324L72,312L84,312M312,312L312,312L324,312L324,456L312,456L312,312M708,312L708,312L708,456L696,456L696,312L708,312M936,312L936,312L948,312L948,324L936,324L936,312M72,324L72,324L72,336L48,336L48,324L72,324M156,324L156,324L156,348L144,348L144,324L156,324M456,324L456,324L456,336L432,336L432,324L456,324M564,324L564,324L588,324L588,336L564,336L564,324M864,324L864,324L876,324L876,348L864,348L864,324M948,324L948,324L972,324L972,336L948,336L948,324M48,336L48,336L48,348L36,348L36,336L48,336M180,336L180,336L180,432L168,432L168,336L180,336M432,336L432,336L432,348L420,348L420,336L432,336M588,336L588,336L600,336L600,348L588,348L588,336M840,336L840,336L852,336L852,432L840,432L840,336M972,336L972,336L984,336L984,348L972,348L972,336M36,348L36,348L36,372L24,372L24,348L36,348M144,348L144,348L144,360L132,360L132,348L144,348M420,348L420,348L420,504L408,504L408,348L420,348M600,348L600,348L612,348L612,504L600,504L600,348M876,348L876,348L888,348L888,360L876,360L876,348M984,348L984,348L996,348L996,372L984,372L984,348M132,360L132,360L132,372L108,372L108,360L132,360M492,348L492,348L528,348L528,360L492,360L492,348M492,360L492,360L492,372L480,372L480,360L492,360M528,360L528,360L540,360L540,372L528,372L528,360M888,360L888,360L912,360L912,372L888,372L888,360M24,372L24,372L24,432L12,432L12,372L24,372M108,372L108,372L108,384L96,384L96,372L108,372M480,372L480,372L480,516L468,516L468,372L480,372M540,372L540,372L552,372L552,516L540,516L540,372M912,372L912,372L924,372L924,384L912,384L912,372M996,372L996,372L1008,372L1008,432L996,432L996,372M96,384L96,384L96,420L84,420L84,384L96,384M924,384L924,384L936,384L936,420L924,420L924,384M96,420L96,420L108,420L108,432L96,432L96,420M924,420L924,420L924,432L912,432L912,420L924,420M24,432L24,432L36,432L36,456L24,456L24,432M108,432L108,432L132,432L132,444L108,444L108,432M180,432L180,432L192,432L192,444L180,444L180,432M840,432L840,432L840,444L828,444L828,432L840,432M912,432L912,432L912,444L888,444L888,432L912,432M996,432L996,432L996,456L984,456L984,432L996,432M132,444L132,444L144,444L144,456L132,456L132,444M192,444L192,444L204,444L204,456L192,456L192,444M828,444L828,444L828,456L816,456L816,444L828,444M888,444L888,444L888,456L876,456L876,444L888,444M36,456L36,456L48,456L48,468L36,468L36,456M144,456L144,456L156,456L156,480L144,480L144,456M204,456L204,456L216,456L216,480L204,480L204,456M264,456L264,456L276,456L276,516L264,516L264,456M312,456L312,456L312,516L300,516L300,456L312,456M708,456L708,456L720,456L720,516L708,516L708,456M756,456L756,456L756,516L744,516L744,456L756,456M816,456L816,456L816,480L804,480L804,456L816,456M876,456L876,456L876,480L864,480L864,456L876,456M984,456L984,456L984,468L972,468L972,456L984,456M48,468L48,468L72,468L72,480L48,480L48,468M372,468L372,468L372,504L360,504L360,468L372,468M648,468L648,468L660,468L660,504L648,504L648,468M972,468L972,468L972,480L948,480L948,468L972,468M72,480L72,480L96,480L96,492L72,492L72,480M156,480L156,480L168,480L168,492L156,492L156,480M204,480L204,480L204,492L192,492L192,480L204,480M816,480L816,480L828,480L828,492L816,492L816,480M864,480L864,480L864,492L852,492L852,480L864,480M948,480L948,480L948,492L924,492L924,480L948,480M96,492L96,492L108,492L108,516L96,516L96,492M168,492L168,492L192,492L192,504L168,504L168,492M828,492L828,492L852,492L852,504L828,504L828,492M924,492L924,492L924,516L912,516L912,492L924,492M372,504L372,504L408,504L408,516L372,516L372,504M612,504L612,504L648,504L648,516L612,516L612,504M108,516L108,516L120,516L120,540L108,540L108,516M264,516L264,516L264,540L252,540L252,516L264,516M312,516L312,516L324,516L324,540L312,540L312,516M468,516L468,516L468,540L456,540L456,516L468,516M552,516L552,516L564,516L564,540L552,540L552,516M708,516L708,516L708,540L696,540L696,516L708,516M756,516L756,516L768,516L768,540L756,540L756,516M912,516L912,516L912,540L900,540L900,516L912,516M120,540L120,540L132,540L132,552L120,552L120,540M252,540L252,540L252,552L240,552L240,540L252,540M324,540L324,540L336,540L336,552L324,552L324,540M456,540L456,540L456,552L444,552L444,540L456,540M564,540L564,540L576,540L576,552L564,552L564,540M696,540L696,540L696,552L684,552L684,540L696,540M768,540L768,540L780,540L780,552L768,552L768,540M900,540L900,540L900,552L888,552L888,540L900,540M132,552L132,552L156,552L156,564L132,564L132,552M240,552L240,552L240,564L216,564L216,552L240,552M336,552L336,552L360,552L360,564L336,564L336,552M444,552L444,552L444,564L420,564L420,552L444,552M576,552L576,552L600,552L600,564L576,564L576,552M684,552L684,552L684,564L660,564L660,552L684,552M780,552L780,552L804,552L804,564L780,564L780,552M888,552L888,552L888,564L864,564L864,552L888,552M156,564L156,564L216,564L216,576L156,576L156,564M360,564L360,564L420,564L420,576L360,576L360,564M600,564L600,564L660,564L660,576L600,576L600,564M804,564L804,564L864,564L864,576L804,576Z" class="mud"></path><path d="M168,96L168,96L204,96L204,108L216,108L216,132L228,132L228,144L240,144L240,156L264,156L264,168L324,168L324,156L348,156L348,144L360,144L360,132L372,132L372,108L384,108L384,96L420,96L420,108L432,108L432,132L420,132L420,120L384,120L384,132L372,132L372,144L360,144L360,156L348,156L348,168L336,168L336,204L348,204L348,216L360,216L360,228L372,228L372,240L384,240L384,252L420,252L420,264L444,264L444,288L456,288L456,324L432,324L432,336L420,336L420,348L408,348L408,504L372,504L372,468L384,468L384,300L372,300L372,276L360,276L360,264L348,264L348,252L336,252L336,240L324,240L324,228L312,228L312,216L300,216L300,204L288,204L288,192L276,192L276,180L192,180L192,192L180,192L180,204L168,204L168,252L180,252L180,336L168,336L168,432L180,432L180,444L192,444L192,456L204,456L204,480L192,480L192,492L168,492L168,480L156,480L156,456L144,456L144,444L132,444L132,432L108,432L108,420L96,420L96,384L108,384L108,372L132,372L132,360L144,360L144,348L156,348L156,324L168,324L168,264L156,264L156,240L144,240L144,228L132,228L132,216L108,216L108,204L96,204L96,168L108,168L108,156L132,156L132,144L144,144L144,132L156,132L156,108L168,108L168,96M600,96L600,96L636,96L636,108L648,108L648,132L636,132L636,120L600,120L600,132L588,132L588,108L600,108L600,96M816,96L816,96L852,96L852,108L864,108L864,132L876,132L876,144L888,144L888,156L912,156L912,168L924,168L924,204L912,204L912,216L888,216L888,228L876,228L876,240L864,240L864,264L852,264L852,324L864,324L864,348L876,348L876,360L888,360L888,372L912,372L912,384L924,384L924,420L912,420L912,432L888,432L888,444L876,444L876,456L864,456L864,480L852,480L852,492L828,492L828,480L816,480L816,456L828,456L828,444L840,444L840,432L852,432L852,336L840,336L840,252L852,252L852,204L840,204L840,192L828,192L828,180L744,180L744,192L732,192L732,204L720,204L720,216L708,216L708,228L696,228L696,240L684,240L684,252L672,252L672,264L660,264L660,276L648,276L648,300L636,300L636,468L648,468L648,504L612,504L612,348L600,348L600,336L588,336L588,324L564,324L564,288L576,288L576,264L600,264L600,252L636,252L636,240L648,240L648,228L660,228L660,216L672,216L672,204L684,204L684,168L672,168L672,156L660,156L660,144L648,144L648,132L660,132L660,144L672,144L672,156L696,156L696,168L756,168L756,156L780,156L780,144L792,144L792,132L804,132L804,108L816,108L816,96M432,132L432,132L444,132L444,144L432,144L432,132M588,132L588,132L588,144L576,144L576,132L588,132M444,144L444,144L456,144L456,156L444,156L444,144M576,144L576,144L576,156L564,156L564,144L576,144M456,156L456,156L480,156L480,168L456,168L456,156M564,156L564,156L564,168L540,168L540,156Z" class="grass"></path><path d="M384,144L384,144L396,144L396,156L384,156L384,144M384,156L384,156L384,168L372,168L372,156L384,156M624,144L624,144L636,144L636,156L624,156L624,144M636,156L636,156L648,156L648,168L636,168L636,156M372,168L372,168L372,180L360,180L360,168L372,168M648,168L648,168L660,168L660,180L648,180Z" class="finish"></path><path d="M456,192L456,192L468,192L468,204L456,204L456,192M468,204L468,204L480,204L480,192L492,192L492,204L480,204L480,216L468,216L468,204M456,204L456,204L456,216L444,216L444,204L456,204M492,204L492,204L504,204L504,192L516,192L516,204L504,204L504,216L492,216L492,204M516,204L516,204L528,204L528,192L540,192L540,204L528,204L528,216L516,216L516,204M540,204L540,204L552,204L552,192L564,192L564,204L552,204L552,216L540,216L540,204M564,204L564,204L576,204L576,216L564,216Z" class="start"></path></g>
 <rect opacity=".3" fill="url(#grid)" height="100%" width="100%" y="0" x="0"></rect>
</svg>