<svg xmlns="http://www.w3.org/2000/svg" xmlns:xlink="http://www.w3.org/1999/xlink" version="1.1" id="mapSvgView" width="456" height="360"> <rect id="mainfill" class="road" x="0" y="0" width="100%" height="100%"></rect> <g id="paths"><path d="M288,264L288,264L336,264L336,276L288,276Z" class="cp1"></path><path d="M324,96L324,96L348,96L348,108L336,108L336,120L324,120L324,132L300,132L300,120L312,120L312,108L324,108Z" class="cp2"></path><path d="M252,204L252,204L288,204L288,216L252,216Z" class="cp3"></path><path d="M108,324L108,324L120,324L120,348L108,348Z" class="cp4"></path><path d="M12,228L12,228L48,228L48,240L12,240Z" class="cp5"></path><path d="M120,276L120,276L132,276L132,312L120,312Z" class="cp6"></path><path d="M156,132L156,132L192,132L192,144L156,144Z" class="cp7"></path><path d="M144,12L144,12L156,12L156,48L144,48Z" class="cp8"></path><path d="M384,72L384,72L408,72L408,84L396,84L396,96L372,96L372,84L384,84Z" class="cp9"></path><path d="M0,0L0,0L12,0L12,48L0,48Z" class="parc"></path><path d="M12,0L12,0L456,0L456,360L0,360L0,48L12,48L12,0M108,12L108,12L96,12L96,24L60,24L60,36L48,36L48,48L36,48L36,60L24,60L24,72L12,72L12,144L24,144L24,156L108,156L108,144L120,144L120,132L132,132L132,120L144,120L144,132L156,132L156,144L144,144L144,156L132,156L132,180L144,180L144,192L156,192L156,216L168,216L168,240L156,240L156,264L132,264L132,276L120,276L120,264L108,264L108,240L120,240L120,228L132,228L132,192L120,192L120,180L108,180L108,168L36,168L36,180L24,180L24,192L12,192L12,324L24,324L24,336L36,336L36,348L204,348L204,336L228,336L228,324L240,324L240,312L252,312L252,288L264,288L264,276L276,276L276,240L288,240L288,180L276,180L276,156L264,156L264,144L252,144L252,132L264,132L264,120L300,120L300,132L324,132L324,156L336,156L336,204L324,204L324,216L312,216L312,228L300,228L300,252L288,252L288,336L300,336L300,348L408,348L408,324L420,324L420,312L432,312L432,288L444,288L444,108L432,108L432,96L420,96L420,84L408,84L408,72L396,72L396,60L384,60L384,48L372,48L372,36L360,36L360,24L348,24L348,12L108,12M108,48L108,48L288,48L288,60L348,60L348,72L360,72L360,84L372,84L372,96L384,96L384,108L396,108L396,144L408,144L408,204L396,204L396,264L384,264L384,300L372,300L372,312L348,312L348,288L336,288L336,252L348,252L348,240L372,240L372,216L384,216L384,144L372,144L372,132L360,132L360,120L348,120L348,96L336,96L336,84L300,84L300,72L240,72L240,84L216,84L216,108L204,108L204,156L216,156L216,168L228,168L228,180L240,180L240,192L252,192L252,216L240,216L240,240L228,240L228,252L216,252L216,276L204,276L204,288L192,288L192,312L168,312L168,324L60,324L60,276L48,276L48,204L60,204L60,192L72,192L72,204L96,204L96,216L84,216L84,228L72,228L72,240L60,240L60,264L72,264L72,288L84,288L84,300L96,300L96,312L144,312L144,300L168,300L168,288L180,288L180,276L192,276L192,264L204,264L204,240L216,240L216,192L204,192L204,180L192,180L192,108L180,108L180,84L156,84L156,72L120,72L120,84L108,84L108,96L96,96L96,120L72,120L72,132L60,132L60,120L48,120L48,96L72,96L72,84L84,84L84,72L96,72L96,60L108,60Z" class="grass"></path><path d="M396,204L396,204L444,204L444,216L396,216Z" class="finish"></path><path d="M408,216L408,216L420,216L420,228L408,228L408,216M420,228L420,228L432,228L432,216L444,216L444,228L432,228L432,240L420,240L420,228M408,228L408,228L408,240L396,240L396,228Z" class="start"></path></g></svg>