<svg xmlns:xlink="http://www.w3.org/1999/xlink" xmlns="http://www.w3.org/2000/svg" height="468" width="1176" id="mapSvgView" version="1.1" style="width: 1176px; height: 468px;" viewBox="0 0 1176 468">
 <defs>
 <pattern y="0" x="0" height="24" width="24" patternUnits="userSpaceOnUse" id="grassPattern">
 <rect class="grasscolor" height="24" width="24" y="0" x="0"></rect>
 <rect class="grassspeclecolor" height="1" width="1" x="1" y="5"></rect>
 <rect class="grassspeclecolor" height="1" width="1" x="1" y="5"></rect>
 <rect class="grassspeclecolor" height="1" width="1" x="3" y="5"></rect>
 <rect class="grassspeclecolor" height="1" width="1" x="6" y="7"></rect>
 <rect class="grassspeclecolor" height="1" width="1" x="6" y="17"></rect>
 <rect class="grassspeclecolor" height="1" width="1" x="8" y="21"></rect>
 <rect class="grassspeclecolor" height="1" width="1" x="9" y="2"></rect>
 <rect class="grassspeclecolor" height="1" width="1" x="12" y="4"></rect>
 <rect class="grassspeclecolor" height="1" width="1" x="13" y="15"></rect>
 <rect class="grassspeclecolor" height="1" width="1" x="14" y="4"></rect>
 <rect class="grassspeclecolor" height="1" width="1" x="14" y="19"></rect>
 <rect class="grassspeclecolor" height="1" width="1" x="17" y="7"></rect>
 <rect class="grassspeclecolor" height="1" width="1" x="17" y="12"></rect>
 <rect class="grassspeclecolor" height="1" width="1" x="18" y="23"></rect>
 <rect class="grassspeclecolor" height="1" width="1" x="21" y="16"></rect>
 <rect class="grassspeclecolor" height="1" width="1" x="23" y="12"></rect>
 </pattern>
 <pattern y="0" x="0" height="24" width="24" patternUnits="userSpaceOnUse" id="roadPattern">
 <rect class="roadcolor" height="24" width="24" y="0" x="0"></rect>
 <rect class="roadspeclecolor" height="1" width="1" x="1" y="5"></rect>
 <rect class="roadspeclecolor" height="1" width="1" x="1" y="5"></rect>
 <rect class="roadspeclecolor" height="1" width="1" x="3" y="5"></rect>
 <rect class="roadspeclecolor" height="1" width="1" x="6" y="7"></rect>
 <rect class="roadspeclecolor" height="1" width="1" x="6" y="17"></rect>
 <rect class="roadspeclecolor" height="1" width="1" x="8" y="21"></rect>
 <rect class="roadspeclecolor" height="1" width="1" x="9" y="2"></rect>
 <rect class="roadspeclecolor" height="1" width="1" x="12" y="4"></rect>
 <rect class="roadspeclecolor" height="1" width="1" x="13" y="15"></rect>
 <rect class="roadspeclecolor" height="1" width="1" x="14" y="4"></rect>
 <rect class="roadspeclecolor" height="1" width="1" x="14" y="19"></rect>
 <rect class="roadspeclecolor" height="1" width="1" x="17" y="7"></rect>
 <rect class="roadspeclecolor" height="1" width="1" x="17" y="12"></rect>
 <rect class="roadspeclecolor" height="1" width="1" x="18" y="23"></rect>
 <rect class="roadspeclecolor" height="1" width="1" x="21" y="16"></rect>
 <rect class="roadspeclecolor" height="1" width="1" x="23" y="12"></rect>
 </pattern>
 <pattern y="0" x="0" height="12" width="12" patternUnits="userSpaceOnUse" id="grid">
 <line stroke-width="1" stroke="black" y2="12" x2="12" y1="0" x1="12"></line>
 <line stroke-width="1" stroke="black" y2="12" x2="12" y1="12" x1="0"></line>
 </pattern>
 <pattern y="0" x="0" height="12" width="12" patternUnits="userSpaceOnUse" id="finishPattern">
 <rect fill="black" height="12" width="12" y="0" x="0"></rect>
 <path fill="white" d="M0,0L3,0L3,3L0,3L0,0M6,0L9,0L9,3L6,3L6,0M3,3L6,3L6,6L3,6L3,3M9,3L12,3L12,6L9,6L9,3"></path>
 <path fill="white" d="M0,6L3,6L3,9L0,9L0,6M6,6L9,6L9,9L6,9L6,6M3,9L6,9L6,12L3,12L3,9M9,9L12,9L12,12L9,12L9,9"></path>
 </pattern>
 <pattern y="0" x="0" height="12" width="12" patternUnits="userSpaceOnUse" id="startPattern">
 <rect fill="rgb(100,100,100)" height="12" width="12" y="0" x="0"></rect>
 <rect stroke-width="1" stroke="rgb(200,200,200)" fill="none" height="5" width="5" y="3.5" x="3.5"></rect>
 </pattern>
 <pattern y="0" x="0" height="12" width="12" patternUnits="userSpaceOnUse" id="cp1pattern">
 <rect class="cp1color" height="12" width="12" y="0" x="0"></rect>
 <path fill="black" d="M0,0L3,0L3,3L0,3L0,0M6,0L9,0L9,3L6,3L6,0M3,3L6,3L6,6L3,6L3,3M9,3L12,3L12,6L9,6L9,3"></path>
 <path fill="black" d="M0,6L3,6L3,9L0,9L0,6M6,6L9,6L9,9L6,9L6,6M3,9L6,9L6,12L3,12L3,9M9,9L12,9L12,12L9,12L9,9"></path>
 </pattern>
 <pattern y="0" x="0" height="12" width="12" patternUnits="userSpaceOnUse" id="cp2pattern">
 <rect class="cp2color" height="12" width="12" y="0" x="0"></rect>
 <path fill="white" d="M0,0L3,0L3,3L0,3L0,0M6,0L9,0L9,3L6,3L6,0M3,3L6,3L6,6L3,6L3,3M9,3L12,3L12,6L9,6L9,3"></path>
 <path fill="white" d="M0,6L3,6L3,9L0,9L0,6M6,6L9,6L9,9L6,9L6,6M3,9L6,9L6,12L3,12L3,9M9,9L12,9L12,12L9,12L9,9"></path>
 </pattern>
 <pattern y="0" x="0" height="12" width="12" patternUnits="userSpaceOnUse" id="cp3pattern">
 <rect class="cp3color" height="12" width="12" y="0" x="0"></rect>
 <path fill="black" d="M0,0L3,0L3,3L0,3L0,0M6,0L9,0L9,3L6,3L6,0M3,3L6,3L6,6L3,6L3,3M9,3L12,3L12,6L9,6L9,3"></path>
 <path fill="black" d="M0,6L3,6L3,9L0,9L0,6M6,6L9,6L9,9L6,9L6,6M3,9L6,9L6,12L3,12L3,9M9,9L12,9L12,12L9,12L9,9"></path>
 </pattern>
 <pattern y="0" x="0" height="12" width="12" patternUnits="userSpaceOnUse" id="cp4pattern">
 <rect class="cp4color" height="12" width="12" y="0" x="0"></rect>
 <path fill="white" d="M0,0L3,0L3,3L0,3L0,0M6,0L9,0L9,3L6,3L6,0M3,3L6,3L6,6L3,6L3,3M9,3L12,3L12,6L9,6L9,3"></path>
 <path fill="white" d="M0,6L3,6L3,9L0,9L0,6M6,6L9,6L9,9L6,9L6,6M3,9L6,9L6,12L3,12L3,9M9,9L12,9L12,12L9,12L9,9"></path>
 </pattern>
 <pattern y="0" x="0" height="12" width="12" patternUnits="userSpaceOnUse" id="cp5pattern">
 <rect class="cp5color" height="12" width="12" y="0" x="0"></rect>
 <path fill="black" d="M0,0L3,0L3,3L0,3L0,0M6,0L9,0L9,3L6,3L6,0M3,3L6,3L6,6L3,6L3,3M9,3L12,3L12,6L9,6L9,3"></path>
 <path fill="black" d="M0,6L3,6L3,9L0,9L0,6M6,6L9,6L9,9L6,9L6,6M3,9L6,9L6,12L3,12L3,9M9,9L12,9L12,12L9,12L9,9"></path>
 </pattern>
 <pattern y="0" x="0" height="12" width="12" patternUnits="userSpaceOnUse" id="cp6pattern">
 <rect class="cp6color" height="12" width="12" y="0" x="0"></rect>
 <path fill="white" d="M0,0L3,0L3,3L0,3L0,0M6,0L9,0L9,3L6,3L6,0M3,3L6,3L6,6L3,6L3,3M9,3L12,3L12,6L9,6L9,3"></path>
 <path fill="white" d="M0,6L3,6L3,9L0,9L0,6M6,6L9,6L9,9L6,9L6,6M3,9L6,9L6,12L3,12L3,9M9,9L12,9L12,12L9,12L9,9"></path>
 </pattern>
 <pattern y="0" x="0" height="12" width="12" patternUnits="userSpaceOnUse" id="cp7pattern">
 <rect class="cp7color" height="12" width="12" y="0" x="0"></rect>
 <path fill="black" d="M0,0L3,0L3,3L0,3L0,0M6,0L9,0L9,3L6,3L6,0M3,3L6,3L6,6L3,6L3,3M9,3L12,3L12,6L9,6L9,3"></path>
 <path fill="black" d="M0,6L3,6L3,9L0,9L0,6M6,6L9,6L9,9L6,9L6,6M3,9L6,9L6,12L3,12L3,9M9,9L12,9L12,12L9,12L9,9"></path>
 </pattern>
 <pattern y="0" x="0" height="12" width="12" patternUnits="userSpaceOnUse" id="cp8pattern">
 <rect class="cp8color" height="12" width="12" y="0" x="0"></rect>
 <path fill="white" d="M0,0L3,0L3,3L0,3L0,0M6,0L9,0L9,3L6,3L6,0M3,3L6,3L6,6L3,6L3,3M9,3L12,3L12,6L9,6L9,3"></path>
 <path fill="white" d="M0,6L3,6L3,9L0,9L0,6M6,6L9,6L9,9L6,9L6,6M3,9L6,9L6,12L3,12L3,9M9,9L12,9L12,12L9,12L9,9"></path>
 </pattern>
 <pattern y="0" x="0" height="12" width="12" patternUnits="userSpaceOnUse" id="cp9pattern">
 <rect class="cp9color" height="12" width="12" y="0" x="0"></rect>
 <path fill="black" d="M0,0L3,0L3,3L0,3L0,0M6,0L9,0L9,3L6,3L6,0M3,3L6,3L6,6L3,6L3,3M9,3L12,3L12,6L9,6L9,3"></path>
 <path fill="black" d="M0,6L3,6L3,9L0,9L0,6M6,6L9,6L9,9L6,9L6,6M3,9L6,9L6,12L3,12L3,9M9,9L12,9L12,12L9,12L9,9"></path>
 </pattern>
 </defs>
 <rect height="100%" width="100%" y="0" x="0" class="grass" id="mainfill"></rect>
 <g id="paths"><path d="M24,12L24,12L108,12L108,24L156,24L156,36L168,36L168,12L228,12L228,24L240,24L240,72L228,72L228,84L216,84L216,96L204,96L204,108L192,108L192,120L180,120L180,132L168,132L168,144L156,144L156,156L144,156L144,168L132,168L132,180L120,180L120,192L108,192L108,216L132,216L132,228L180,228L180,216L276,216L276,228L324,228L324,216L420,216L420,228L468,228L468,216L540,216L540,192L564,192L564,180L288,180L288,168L264,168L264,144L252,144L252,96L264,96L264,84L276,84L276,72L288,72L288,60L852,60L852,48L564,48L564,12L876,12L876,24L888,24L888,36L900,36L900,72L888,72L888,84L876,84L876,96L312,96L312,108L300,108L300,120L312,120L312,132L576,132L576,144L600,144L600,168L612,168L612,192L636,192L636,216L708,216L708,228L756,228L756,216L852,216L852,228L900,228L900,216L996,216L996,228L1044,228L1044,216L1080,216L1080,192L1068,192L1068,180L1056,180L1056,168L1044,168L1044,156L1032,156L1032,144L1020,144L1020,132L1008,132L1008,120L996,120L996,108L984,108L984,96L972,96L972,84L960,84L960,72L948,72L948,24L960,24L960,12L1020,12L1020,36L1032,36L1032,24L1080,24L1080,12L1164,12L1164,72L1116,72L1116,48L1032,48L1032,60L996,60L996,36L984,36L984,72L996,72L996,84L1008,84L1008,96L1020,96L1020,108L1032,108L1032,120L1044,120L1044,132L1056,132L1056,144L1068,144L1068,156L1080,156L1080,168L1092,168L1092,180L1104,180L1104,192L1116,192L1116,204L1128,204L1128,216L1140,216L1140,228L1152,228L1152,240L1140,240L1140,252L1128,252L1128,264L1116,264L1116,276L1104,276L1104,288L1092,288L1092,300L1080,300L1080,312L1068,312L1068,324L1056,324L1056,336L1044,336L1044,348L1032,348L1032,360L1020,360L1020,372L1008,372L1008,384L996,384L996,396L984,396L984,432L996,432L996,408L1032,408L1032,420L1116,420L1116,396L1164,396L1164,456L1080,456L1080,444L1032,444L1032,432L1020,432L1020,456L960,456L960,444L948,444L948,396L960,396L960,384L972,384L972,372L984,372L984,360L996,360L996,348L1008,348L1008,336L1020,336L1020,324L1032,324L1032,312L1044,312L1044,300L1056,300L1056,288L1068,288L1068,276L1080,276L1080,252L972,252L972,240L924,240L924,252L828,252L828,240L780,240L780,252L684,252L684,240L636,240L636,276L612,276L612,288L900,288L900,300L924,300L924,324L936,324L936,372L924,372L924,384L912,384L912,396L900,396L900,408L336,408L336,420L612,420L612,456L312,456L312,444L300,444L300,432L288,432L288,396L300,396L300,384L312,384L312,372L876,372L876,360L888,360L888,348L876,348L876,336L600,336L600,324L576,324L576,300L564,300L564,276L540,276L540,240L492,240L492,252L396,252L396,240L348,240L348,252L252,252L252,240L204,240L204,252L108,252L108,276L120,276L120,288L132,288L132,300L144,300L144,312L156,312L156,324L168,324L168,336L180,336L180,348L192,348L192,360L204,360L204,372L216,372L216,384L228,384L228,396L240,396L240,444L228,444L228,456L168,456L168,432L156,432L156,444L108,444L108,456L24,456L24,396L72,396L72,420L156,420L156,408L192,408L192,432L204,432L204,396L192,396L192,384L180,384L180,372L168,372L168,360L156,360L156,348L144,348L144,336L132,336L132,324L120,324L120,312L108,312L108,300L96,300L96,288L84,288L84,276L72,276L72,264L60,264L60,252L48,252L48,240L36,240L36,228L48,228L48,216L60,216L60,204L72,204L72,192L84,192L84,180L96,180L96,168L108,168L108,156L120,156L120,144L132,144L132,132L144,132L144,120L156,120L156,108L168,108L168,96L180,96L180,84L192,84L192,72L204,72L204,36L192,36L192,60L156,60L156,48L72,48L72,72L24,72L24,12M816,132L816,132L840,132L840,144L816,144L816,132M816,144L816,144L816,156L840,156L840,144L852,144L852,180L840,180L840,168L816,168L816,180L804,180L804,144L816,144M900,132L900,132L912,132L912,144L900,144L900,132M900,144L900,144L900,180L888,180L888,144L900,144M804,180L804,180L804,192L792,192L792,180L804,180M852,180L852,180L864,180L864,168L876,168L876,180L864,180L864,192L852,192L852,180M876,180L876,180L888,180L888,192L876,192L876,180M576,216L576,216L564,216L564,252L612,252L612,216Z" class="road"></path><path d="M0,0L0,0L12,0L12,96L0,96Z" class="parc"></path><path d="M588,12L588,12L600,12L600,48L588,48L588,12M576,420L576,420L588,420L588,456L576,456Z" class="finish"></path><path d="M36,60L36,60L60,60L60,72L36,72L36,60M1128,60L1128,60L1152,60L1152,72L1128,72L1128,60M36,396L36,396L60,396L60,408L36,408L36,396M1128,396L1128,396L1152,396L1152,408L1128,408Z" class="start"></path></g>
 <rect opacity=".3" fill="url(#grid)" height="100%" width="100%" y="0" x="0"></rect>
</svg>