<svg xmlns:xlink="http://www.w3.org/1999/xlink" xmlns="http://www.w3.org/2000/svg" height="456" width="1236" id="mapSvgView" version="1.1" style="width: 1236px; height: 456px;" viewBox="0 0 1236 456">
 <defs>
 <pattern y="0" x="0" height="24" width="24" patternUnits="userSpaceOnUse" id="grassPattern">
 <rect class="grasscolor" height="24" width="24" y="0" x="0"></rect>
 <rect class="grassspeclecolor" height="1" width="1" x="1" y="5"></rect>
 <rect class="grassspeclecolor" height="1" width="1" x="1" y="5"></rect>
 <rect class="grassspeclecolor" height="1" width="1" x="3" y="5"></rect>
 <rect class="grassspeclecolor" height="1" width="1" x="6" y="7"></rect>
 <rect class="grassspeclecolor" height="1" width="1" x="6" y="17"></rect>
 <rect class="grassspeclecolor" height="1" width="1" x="8" y="21"></rect>
 <rect class="grassspeclecolor" height="1" width="1" x="9" y="2"></rect>
 <rect class="grassspeclecolor" height="1" width="1" x="12" y="4"></rect>
 <rect class="grassspeclecolor" height="1" width="1" x="13" y="15"></rect>
 <rect class="grassspeclecolor" height="1" width="1" x="14" y="4"></rect>
 <rect class="grassspeclecolor" height="1" width="1" x="14" y="19"></rect>
 <rect class="grassspeclecolor" height="1" width="1" x="17" y="7"></rect>
 <rect class="grassspeclecolor" height="1" width="1" x="17" y="12"></rect>
 <rect class="grassspeclecolor" height="1" width="1" x="18" y="23"></rect>
 <rect class="grassspeclecolor" height="1" width="1" x="21" y="16"></rect>
 <rect class="grassspeclecolor" height="1" width="1" x="23" y="12"></rect>
 </pattern>
 <pattern y="0" x="0" height="24" width="24" patternUnits="userSpaceOnUse" id="roadPattern">
 <rect class="roadcolor" height="24" width="24" y="0" x="0"></rect>
 <rect class="roadspeclecolor" height="1" width="1" x="1" y="5"></rect>
 <rect class="roadspeclecolor" height="1" width="1" x="1" y="5"></rect>
 <rect class="roadspeclecolor" height="1" width="1" x="3" y="5"></rect>
 <rect class="roadspeclecolor" height="1" width="1" x="6" y="7"></rect>
 <rect class="roadspeclecolor" height="1" width="1" x="6" y="17"></rect>
 <rect class="roadspeclecolor" height="1" width="1" x="8" y="21"></rect>
 <rect class="roadspeclecolor" height="1" width="1" x="9" y="2"></rect>
 <rect class="roadspeclecolor" height="1" width="1" x="12" y="4"></rect>
 <rect class="roadspeclecolor" height="1" width="1" x="13" y="15"></rect>
 <rect class="roadspeclecolor" height="1" width="1" x="14" y="4"></rect>
 <rect class="roadspeclecolor" height="1" width="1" x="14" y="19"></rect>
 <rect class="roadspeclecolor" height="1" width="1" x="17" y="7"></rect>
 <rect class="roadspeclecolor" height="1" width="1" x="17" y="12"></rect>
 <rect class="roadspeclecolor" height="1" width="1" x="18" y="23"></rect>
 <rect class="roadspeclecolor" height="1" width="1" x="21" y="16"></rect>
 <rect class="roadspeclecolor" height="1" width="1" x="23" y="12"></rect>
 </pattern>
 <pattern y="0" x="0" height="12" width="12" patternUnits="userSpaceOnUse" id="grid">
 <line stroke-width="1" stroke="black" y2="12" x2="12" y1="0" x1="12"></line>
 <line stroke-width="1" stroke="black" y2="12" x2="12" y1="12" x1="0"></line>
 </pattern>
 <pattern y="0" x="0" height="12" width="12" patternUnits="userSpaceOnUse" id="finishPattern">
 <rect fill="black" height="12" width="12" y="0" x="0"></rect>
 <path fill="white" d="M0,0L3,0L3,3L0,3L0,0M6,0L9,0L9,3L6,3L6,0M3,3L6,3L6,6L3,6L3,3M9,3L12,3L12,6L9,6L9,3"></path>
 <path fill="white" d="M0,6L3,6L3,9L0,9L0,6M6,6L9,6L9,9L6,9L6,6M3,9L6,9L6,12L3,12L3,9M9,9L12,9L12,12L9,12L9,9"></path>
 </pattern>
 <pattern y="0" x="0" height="12" width="12" patternUnits="userSpaceOnUse" id="startPattern">
 <rect fill="rgb(100,100,100)" height="12" width="12" y="0" x="0"></rect>
 <rect stroke-width="1" stroke="rgb(200,200,200)" fill="none" height="5" width="5" y="3.5" x="3.5"></rect>
 </pattern>
 <pattern y="0" x="0" height="12" width="12" patternUnits="userSpaceOnUse" id="cp1pattern">
 <rect class="cp1color" height="12" width="12" y="0" x="0"></rect>
 <path fill="black" d="M0,0L3,0L3,3L0,3L0,0M6,0L9,0L9,3L6,3L6,0M3,3L6,3L6,6L3,6L3,3M9,3L12,3L12,6L9,6L9,3"></path>
 <path fill="black" d="M0,6L3,6L3,9L0,9L0,6M6,6L9,6L9,9L6,9L6,6M3,9L6,9L6,12L3,12L3,9M9,9L12,9L12,12L9,12L9,9"></path>
 </pattern>
 <pattern y="0" x="0" height="12" width="12" patternUnits="userSpaceOnUse" id="cp2pattern">
 <rect class="cp2color" height="12" width="12" y="0" x="0"></rect>
 <path fill="white" d="M0,0L3,0L3,3L0,3L0,0M6,0L9,0L9,3L6,3L6,0M3,3L6,3L6,6L3,6L3,3M9,3L12,3L12,6L9,6L9,3"></path>
 <path fill="white" d="M0,6L3,6L3,9L0,9L0,6M6,6L9,6L9,9L6,9L6,6M3,9L6,9L6,12L3,12L3,9M9,9L12,9L12,12L9,12L9,9"></path>
 </pattern>
 <pattern y="0" x="0" height="12" width="12" patternUnits="userSpaceOnUse" id="cp3pattern">
 <rect class="cp3color" height="12" width="12" y="0" x="0"></rect>
 <path fill="black" d="M0,0L3,0L3,3L0,3L0,0M6,0L9,0L9,3L6,3L6,0M3,3L6,3L6,6L3,6L3,3M9,3L12,3L12,6L9,6L9,3"></path>
 <path fill="black" d="M0,6L3,6L3,9L0,9L0,6M6,6L9,6L9,9L6,9L6,6M3,9L6,9L6,12L3,12L3,9M9,9L12,9L12,12L9,12L9,9"></path>
 </pattern>
 <pattern y="0" x="0" height="12" width="12" patternUnits="userSpaceOnUse" id="cp4pattern">
 <rect class="cp4color" height="12" width="12" y="0" x="0"></rect>
 <path fill="white" d="M0,0L3,0L3,3L0,3L0,0M6,0L9,0L9,3L6,3L6,0M3,3L6,3L6,6L3,6L3,3M9,3L12,3L12,6L9,6L9,3"></path>
 <path fill="white" d="M0,6L3,6L3,9L0,9L0,6M6,6L9,6L9,9L6,9L6,6M3,9L6,9L6,12L3,12L3,9M9,9L12,9L12,12L9,12L9,9"></path>
 </pattern>
 <pattern y="0" x="0" height="12" width="12" patternUnits="userSpaceOnUse" id="cp5pattern">
 <rect class="cp5color" height="12" width="12" y="0" x="0"></rect>
 <path fill="black" d="M0,0L3,0L3,3L0,3L0,0M6,0L9,0L9,3L6,3L6,0M3,3L6,3L6,6L3,6L3,3M9,3L12,3L12,6L9,6L9,3"></path>
 <path fill="black" d="M0,6L3,6L3,9L0,9L0,6M6,6L9,6L9,9L6,9L6,6M3,9L6,9L6,12L3,12L3,9M9,9L12,9L12,12L9,12L9,9"></path>
 </pattern>
 <pattern y="0" x="0" height="12" width="12" patternUnits="userSpaceOnUse" id="cp6pattern">
 <rect class="cp6color" height="12" width="12" y="0" x="0"></rect>
 <path fill="white" d="M0,0L3,0L3,3L0,3L0,0M6,0L9,0L9,3L6,3L6,0M3,3L6,3L6,6L3,6L3,3M9,3L12,3L12,6L9,6L9,3"></path>
 <path fill="white" d="M0,6L3,6L3,9L0,9L0,6M6,6L9,6L9,9L6,9L6,6M3,9L6,9L6,12L3,12L3,9M9,9L12,9L12,12L9,12L9,9"></path>
 </pattern>
 <pattern y="0" x="0" height="12" width="12" patternUnits="userSpaceOnUse" id="cp7pattern">
 <rect class="cp7color" height="12" width="12" y="0" x="0"></rect>
 <path fill="black" d="M0,0L3,0L3,3L0,3L0,0M6,0L9,0L9,3L6,3L6,0M3,3L6,3L6,6L3,6L3,3M9,3L12,3L12,6L9,6L9,3"></path>
 <path fill="black" d="M0,6L3,6L3,9L0,9L0,6M6,6L9,6L9,9L6,9L6,6M3,9L6,9L6,12L3,12L3,9M9,9L12,9L12,12L9,12L9,9"></path>
 </pattern>
 <pattern y="0" x="0" height="12" width="12" patternUnits="userSpaceOnUse" id="cp8pattern">
 <rect class="cp8color" height="12" width="12" y="0" x="0"></rect>
 <path fill="white" d="M0,0L3,0L3,3L0,3L0,0M6,0L9,0L9,3L6,3L6,0M3,3L6,3L6,6L3,6L3,3M9,3L12,3L12,6L9,6L9,3"></path>
 <path fill="white" d="M0,6L3,6L3,9L0,9L0,6M6,6L9,6L9,9L6,9L6,6M3,9L6,9L6,12L3,12L3,9M9,9L12,9L12,12L9,12L9,9"></path>
 </pattern>
 <pattern y="0" x="0" height="12" width="12" patternUnits="userSpaceOnUse" id="cp9pattern">
 <rect class="cp9color" height="12" width="12" y="0" x="0"></rect>
 <path fill="black" d="M0,0L3,0L3,3L0,3L0,0M6,0L9,0L9,3L6,3L6,0M3,3L6,3L6,6L3,6L3,3M9,3L12,3L12,6L9,6L9,3"></path>
 <path fill="black" d="M0,6L3,6L3,9L0,9L0,6M6,6L9,6L9,9L6,9L6,6M3,9L6,9L6,12L3,12L3,9M9,9L12,9L12,12L9,12L9,9"></path>
 </pattern>
 </defs>
 <rect height="100%" width="100%" y="0" x="0" class="road" id="mainfill"></rect>
 <g id="paths"><path d="M24,36L24,36L660,36L660,48L648,48L648,84L660,84L660,96L648,96L648,132L660,132L660,144L648,144L648,180L660,180L660,192L648,192L648,228L660,228L660,240L648,240L648,276L660,276L660,288L648,288L648,324L660,324L660,336L648,336L648,372L660,372L660,384L48,384L48,396L516,396L516,408L540,408L540,396L588,396L588,408L612,408L612,396L720,396L720,408L744,408L744,396L792,396L792,408L816,408L816,396L1200,396L1200,384L672,384L672,372L684,372L684,336L672,336L672,324L684,324L684,288L672,288L672,276L684,276L684,240L672,240L672,228L684,228L684,192L672,192L672,180L684,180L684,144L672,144L672,132L684,132L684,96L672,96L672,84L684,84L684,48L672,48L672,36L1224,36L1224,120L1176,120L1176,132L1224,132L1224,204L1080,204L1080,216L1224,216L1224,444L744,444L744,432L720,432L720,444L612,444L612,432L588,432L588,444L24,444L24,216L168,216L168,204L24,204L24,132L72,132L72,120L24,120L24,36M240,72L240,72L228,72L228,84L264,84L264,72L240,72M996,72L996,72L984,72L984,84L1020,84L1020,72L996,72M216,120L216,120L204,120L204,132L240,132L240,120L216,120M1020,120L1020,120L1008,120L1008,132L1044,132L1044,120L1020,120M108,144L108,144L96,144L96,156L120,156L120,144L108,144M1140,144L1140,144L1128,144L1128,156L1152,156L1152,144L1140,144M168,156L168,156L156,156L156,168L216,168L216,156L168,156M1044,156L1044,156L1032,156L1032,168L1092,168L1092,156L1044,156M672,408L672,408L660,408L660,432L672,432L672,408M528,420L528,420L516,420L516,432L540,432L540,420L528,420M804,420L804,420L792,420L792,432L816,432L816,420Z" class="road"></path><path d="M24,372L24,372L60,372L60,384L48,384L48,396L60,396L60,408L24,408Z" class="cp1"></path><path d="M1188,372L1188,372L1224,372L1224,408L1188,408L1188,396L1200,396L1200,384L1188,384Z" class="cp2"></path><path d="M0,0L0,0L12,0L12,192L0,192Z" class="parc"></path><path d="M12,0L12,0L1236,0L1236,456L0,456L0,192L12,192L12,0M36,36L36,36L24,36L24,120L72,120L72,132L24,132L24,204L168,204L168,216L24,216L24,444L588,444L588,432L612,432L612,444L720,444L720,432L744,432L744,444L1224,444L1224,216L1080,216L1080,204L1224,204L1224,132L1176,132L1176,120L1224,120L1224,36L672,36L672,48L684,48L684,84L672,84L672,96L684,96L684,132L672,132L672,144L684,144L684,180L672,180L672,192L684,192L684,228L672,228L672,240L684,240L684,276L672,276L672,288L684,288L684,324L672,324L672,336L684,336L684,372L672,372L672,384L1200,384L1200,396L816,396L816,408L792,408L792,396L744,396L744,408L720,408L720,396L612,396L612,408L588,408L588,396L540,396L540,408L516,408L516,396L48,396L48,384L660,384L660,372L648,372L648,336L660,336L660,324L648,324L648,288L660,288L660,276L648,276L648,240L660,240L660,228L648,228L648,192L660,192L660,180L648,180L648,144L660,144L660,132L648,132L648,96L660,96L660,84L648,84L648,48L660,48L660,36L36,36M228,72L228,72L264,72L264,84L228,84L228,72M984,72L984,72L1020,72L1020,84L984,84L984,72M204,120L204,120L240,120L240,132L204,132L204,120M1008,120L1008,120L1044,120L1044,132L1008,132L1008,120M96,144L96,144L120,144L120,156L96,156L96,144M1128,144L1128,144L1152,144L1152,156L1128,156L1128,144M156,156L156,156L216,156L216,168L156,168L156,156M1032,156L1032,156L1092,156L1092,168L1032,168L1032,156M660,408L660,408L672,408L672,432L660,432L660,408M516,420L516,420L540,420L540,432L516,432L516,420M792,420L792,420L816,420L816,432L792,432Z" class="grass"></path><path d="M24,36L24,36L72,36L72,84L24,84L24,36M1176,36L1176,36L1224,36L1224,84L1176,84Z" class="finish"></path><path d="M648,36L648,36L660,36L660,48L648,48L648,36M672,36L672,36L684,36L684,48L672,48L672,36M648,84L648,84L660,84L660,96L648,96L648,84M672,84L672,84L684,84L684,96L672,96L672,84M648,132L648,132L660,132L660,144L648,144L648,132M672,132L672,132L684,132L684,144L672,144L672,132M648,180L648,180L660,180L660,192L648,192L648,180M672,180L672,180L684,180L684,192L672,192L672,180M648,228L648,228L660,228L660,240L648,240L648,228M672,228L672,228L684,228L684,240L672,240L672,228M648,276L648,276L660,276L660,288L648,288L648,276M672,276L672,276L684,276L684,288L672,288L672,276M648,324L648,324L660,324L660,336L648,336L648,324M672,324L672,324L684,324L684,336L672,336L672,324M648,372L648,372L660,372L660,384L648,384L648,372M672,372L672,372L684,372L684,384L672,384Z" class="start"></path></g>
 <rect opacity=".3" fill="url(#grid)" height="100%" width="100%" y="0" x="0"></rect>
</svg>