<svg xmlns="http://www.w3.org/2000/svg" xmlns:xlink="http://www.w3.org/1999/xlink" version="1.1" id="mapSvgView" width="516" height="960"> <rect id="mainfill" class="grass" x="0" y="0" width="100%" height="100%"></rect> <g id="paths"><path d="M180,132L180,132L252,132L252,144L180,144Z" class="cp1"></path><path d="M372,132L372,132L420,132L420,144L372,144Z" class="cp2"></path><path d="M36,588L36,588L132,588L132,600L36,600Z" class="cp3"></path><path d="M408,588L408,588L504,588L504,600L408,600Z" class="cp4"></path><path d="M300,588L300,588L372,588L372,600L300,600Z" class="cp5"></path><path d="M0,0L0,0L12,0L12,120L0,120Z" class="parc"></path><path d="M252,12L252,12L348,12L348,24L360,24L360,48L372,48L372,60L384,60L384,72L396,72L396,96L408,96L408,120L420,120L420,132L372,132L372,120L360,120L360,96L348,96L348,84L336,84L336,72L324,72L324,84L288,84L288,96L276,96L276,108L264,108L264,120L252,120L252,132L180,132L180,120L192,120L192,96L204,96L204,60L216,60L216,36L228,36L228,24L252,24L252,12M180,144L180,144L240,144L240,216L252,216L252,252L264,252L264,264L276,264L276,252L300,252L300,240L312,240L312,216L324,216L324,204L336,204L336,192L348,192L348,180L360,180L360,156L372,156L372,144L420,144L420,216L408,216L408,252L396,252L396,276L384,276L384,300L372,300L372,312L360,312L360,324L348,324L348,336L336,336L336,348L312,348L312,372L300,372L300,396L312,396L312,420L324,420L324,444L360,444L360,456L384,456L384,468L396,468L396,480L408,480L408,492L420,492L420,504L432,504L432,516L444,516L444,528L456,528L456,540L468,540L468,564L480,564L480,576L492,576L492,588L408,588L408,576L396,576L396,552L372,552L372,540L360,540L360,528L348,528L348,540L360,540L360,576L372,576L372,588L300,588L300,576L288,576L288,552L264,552L264,564L252,564L252,588L240,588L240,600L228,600L228,636L252,636L252,660L276,660L276,672L216,672L216,660L192,660L192,648L180,648L180,636L168,636L168,564L180,564L180,540L192,540L192,528L204,528L204,504L216,504L216,492L228,492L228,480L240,480L240,468L252,468L252,456L264,456L264,432L252,432L252,420L228,420L228,432L216,432L216,456L204,456L204,468L192,468L192,480L180,480L180,492L168,492L168,504L156,504L156,528L144,528L144,552L132,552L132,564L120,564L120,576L132,576L132,588L36,588L36,540L48,540L48,516L60,516L60,492L72,492L72,468L84,468L84,444L96,444L96,432L108,432L108,420L120,420L120,408L132,408L132,396L144,396L144,384L156,384L156,372L168,372L168,360L180,360L180,348L192,348L192,336L204,336L204,324L216,324L216,312L228,312L228,300L216,300L216,276L204,276L204,264L192,264L192,240L180,240L180,228L168,228L168,168L180,168L180,144M48,600L48,600L144,600L144,624L156,624L156,636L168,636L168,660L180,660L180,672L204,672L204,684L216,684L216,696L336,696L336,672L324,672L324,636L312,636L312,612L300,612L300,600L372,600L372,636L384,636L384,672L396,672L396,696L408,696L408,672L420,672L420,660L432,660L432,624L420,624L420,612L408,612L408,600L504,600L504,636L492,636L492,648L480,648L480,672L468,672L468,696L456,696L456,708L444,708L444,732L432,732L432,744L408,744L408,876L396,876L396,900L384,900L384,912L372,912L372,924L360,924L360,936L276,936L276,924L240,924L240,912L216,912L216,900L204,900L204,876L192,876L192,864L180,864L180,828L192,828L192,804L204,804L204,792L216,792L216,768L240,768L240,756L300,756L300,780L288,780L288,768L276,768L276,780L264,780L264,768L240,768L240,780L228,780L228,792L252,792L252,780L264,780L264,792L252,792L252,804L264,804L264,792L276,792L276,780L288,780L288,792L276,792L276,804L288,804L288,792L300,792L300,780L312,780L312,792L300,792L300,804L312,804L312,792L324,792L324,804L336,804L336,816L348,816L348,840L336,840L336,852L312,852L312,876L348,876L348,852L372,852L372,768L360,768L360,756L312,756L312,744L204,744L204,732L168,732L168,720L144,720L144,708L132,708L132,696L120,696L120,684L96,684L96,672L84,672L84,660L72,660L72,648L60,648L60,636L48,636L48,600M12,852L12,852L48,852L48,900L72,900L72,852L108,852L108,864L84,864L84,936L108,936L108,948L72,948L72,912L48,912L48,948L12,948L12,936L36,936L36,864L12,864Z" class="road"></path><path d="M276,660L276,660L288,660L288,684L240,684L240,672L276,672Z" class="finish"></path><path d="M252,768L252,768L264,768L264,780L252,780L252,768M264,780L264,780L276,780L276,768L288,768L288,780L276,780L276,792L264,792L264,780M252,780L252,780L252,792L240,792L240,780L252,780M288,780L288,780L300,780L300,768L312,768L312,780L300,780L300,792L288,792L288,780M312,780L312,780L324,780L324,792L312,792L312,780M252,792L252,792L264,792L264,804L252,804L252,792M276,792L276,792L288,792L288,804L276,804L276,792M300,792L300,792L312,792L312,804L300,804Z" class="start"></path></g></svg>