<svg xmlns="http://www.w3.org/2000/svg" xmlns:xlink="http://www.w3.org/1999/xlink" version="1.1" id="mapSvgView" width="444" height="240"> <rect id="mainfill" class="grass" x="0" y="0" width="100%" height="100%"></rect> <g id="paths"><path d="M96,156L96,156L108,156L108,180L96,180L96,156M96,204L96,204L108,204L108,228L96,228Z" class="cp1"></path><path d="M264,156L264,156L276,156L276,180L264,180L264,156M264,204L264,204L276,204L276,228L264,228Z" class="cp2"></path><path d="M0,0L0,0L12,0L12,24L0,24L0,0M204,132L204,132L228,132L228,144L204,144Z" class="parc"></path><path d="M384,12L384,12L396,12L396,24L408,24L408,36L372,36L372,24L384,24L384,12M372,36L372,36L372,48L360,48L360,36L372,36M408,36L408,36L420,36L420,48L408,48L408,36M120,36L120,36L240,36L240,48L252,48L252,60L264,60L264,72L276,72L276,84L288,84L288,96L324,96L324,108L336,108L336,120L348,120L348,132L360,132L360,144L372,144L372,192L360,192L360,204L312,204L312,216L300,216L300,228L276,228L276,204L288,204L288,180L276,180L276,156L300,156L300,168L312,168L312,180L348,180L348,156L336,156L336,144L324,144L324,132L312,132L312,120L192,120L192,60L180,60L180,120L96,120L96,108L84,108L84,120L72,120L72,132L60,132L60,144L48,144L48,156L24,156L24,132L36,132L36,120L48,120L48,108L60,108L60,96L72,96L72,84L84,84L84,72L96,72L96,60L108,60L108,48L120,48L120,36M360,48L360,48L360,84L348,84L348,48L360,48M420,48L420,48L432,48L432,84L420,84L420,48M408,48L408,48L408,60L396,60L396,48L408,48M144,60L144,60L132,60L132,72L120,72L120,84L108,84L108,96L96,96L96,108L168,108L168,60L144,60M216,60L216,60L204,60L204,108L264,108L264,96L252,96L252,84L240,84L240,72L228,72L228,60L216,60M396,60L396,60L396,72L384,72L384,60L396,60M384,72L384,72L384,84L372,84L372,72L384,72M360,84L360,84L372,84L372,96L360,96L360,84M420,84L420,84L420,96L408,96L408,84L420,84M372,96L372,96L408,96L408,108L396,108L396,228L384,228L384,108L372,108L372,96M72,156L72,156L96,156L96,180L84,180L84,204L96,204L96,228L72,228L72,216L60,216L60,204L24,204L24,180L60,180L60,168L72,168L72,156M108,156L108,156L120,156L120,168L132,168L132,180L240,180L240,168L252,168L252,156L264,156L264,228L252,228L252,216L240,216L240,204L132,204L132,216L120,216L120,228L108,228Z" class="road"></path><path d="M12,144L12,144L24,144L24,156L36,156L36,168L12,168Z" class="finish"></path><path d="M12,180L12,180L24,180L24,204L12,204Z" class="start"></path></g></svg>