<svg xmlns:xlink="http://www.w3.org/1999/xlink" xmlns="http://www.w3.org/2000/svg" height="1284" width="1200" id="mapSvgView" version="1.1" style="width: 1200px; height: 1284px;" viewBox="0 0 1200 1284">
 <defs>
 <pattern y="0" x="0" height="24" width="24" patternUnits="userSpaceOnUse" id="grassPattern">
 <rect class="grasscolor" height="24" width="24" y="0" x="0"></rect>
 <rect class="grassspeclecolor" height="1" width="1" x="1" y="5"></rect>
 <rect class="grassspeclecolor" height="1" width="1" x="1" y="5"></rect>
 <rect class="grassspeclecolor" height="1" width="1" x="3" y="5"></rect>
 <rect class="grassspeclecolor" height="1" width="1" x="6" y="7"></rect>
 <rect class="grassspeclecolor" height="1" width="1" x="6" y="17"></rect>
 <rect class="grassspeclecolor" height="1" width="1" x="8" y="21"></rect>
 <rect class="grassspeclecolor" height="1" width="1" x="9" y="2"></rect>
 <rect class="grassspeclecolor" height="1" width="1" x="12" y="4"></rect>
 <rect class="grassspeclecolor" height="1" width="1" x="13" y="15"></rect>
 <rect class="grassspeclecolor" height="1" width="1" x="14" y="4"></rect>
 <rect class="grassspeclecolor" height="1" width="1" x="14" y="19"></rect>
 <rect class="grassspeclecolor" height="1" width="1" x="17" y="7"></rect>
 <rect class="grassspeclecolor" height="1" width="1" x="17" y="12"></rect>
 <rect class="grassspeclecolor" height="1" width="1" x="18" y="23"></rect>
 <rect class="grassspeclecolor" height="1" width="1" x="21" y="16"></rect>
 <rect class="grassspeclecolor" height="1" width="1" x="23" y="12"></rect>
 </pattern>
 <pattern y="0" x="0" height="24" width="24" patternUnits="userSpaceOnUse" id="roadPattern">
 <rect class="roadcolor" height="24" width="24" y="0" x="0"></rect>
 <rect class="roadspeclecolor" height="1" width="1" x="1" y="5"></rect>
 <rect class="roadspeclecolor" height="1" width="1" x="1" y="5"></rect>
 <rect class="roadspeclecolor" height="1" width="1" x="3" y="5"></rect>
 <rect class="roadspeclecolor" height="1" width="1" x="6" y="7"></rect>
 <rect class="roadspeclecolor" height="1" width="1" x="6" y="17"></rect>
 <rect class="roadspeclecolor" height="1" width="1" x="8" y="21"></rect>
 <rect class="roadspeclecolor" height="1" width="1" x="9" y="2"></rect>
 <rect class="roadspeclecolor" height="1" width="1" x="12" y="4"></rect>
 <rect class="roadspeclecolor" height="1" width="1" x="13" y="15"></rect>
 <rect class="roadspeclecolor" height="1" width="1" x="14" y="4"></rect>
 <rect class="roadspeclecolor" height="1" width="1" x="14" y="19"></rect>
 <rect class="roadspeclecolor" height="1" width="1" x="17" y="7"></rect>
 <rect class="roadspeclecolor" height="1" width="1" x="17" y="12"></rect>
 <rect class="roadspeclecolor" height="1" width="1" x="18" y="23"></rect>
 <rect class="roadspeclecolor" height="1" width="1" x="21" y="16"></rect>
 <rect class="roadspeclecolor" height="1" width="1" x="23" y="12"></rect>
 </pattern>
 <pattern y="0" x="0" height="12" width="12" patternUnits="userSpaceOnUse" id="grid">
 <line stroke-width="1" stroke="black" y2="12" x2="12" y1="0" x1="12"></line>
 <line stroke-width="1" stroke="black" y2="12" x2="12" y1="12" x1="0"></line>
 </pattern>
 <pattern y="0" x="0" height="12" width="12" patternUnits="userSpaceOnUse" id="finishPattern">
 <rect fill="black" height="12" width="12" y="0" x="0"></rect>
 <path fill="white" d="M0,0L3,0L3,3L0,3L0,0M6,0L9,0L9,3L6,3L6,0M3,3L6,3L6,6L3,6L3,3M9,3L12,3L12,6L9,6L9,3"></path>
 <path fill="white" d="M0,6L3,6L3,9L0,9L0,6M6,6L9,6L9,9L6,9L6,6M3,9L6,9L6,12L3,12L3,9M9,9L12,9L12,12L9,12L9,9"></path>
 </pattern>
 <pattern y="0" x="0" height="12" width="12" patternUnits="userSpaceOnUse" id="startPattern">
 <rect fill="rgb(100,100,100)" height="12" width="12" y="0" x="0"></rect>
 <rect stroke-width="1" stroke="rgb(200,200,200)" fill="none" height="5" width="5" y="3.5" x="3.5"></rect>
 </pattern>
 <pattern y="0" x="0" height="12" width="12" patternUnits="userSpaceOnUse" id="cp1pattern">
 <rect class="cp1color" height="12" width="12" y="0" x="0"></rect>
 <path fill="black" d="M0,0L3,0L3,3L0,3L0,0M6,0L9,0L9,3L6,3L6,0M3,3L6,3L6,6L3,6L3,3M9,3L12,3L12,6L9,6L9,3"></path>
 <path fill="black" d="M0,6L3,6L3,9L0,9L0,6M6,6L9,6L9,9L6,9L6,6M3,9L6,9L6,12L3,12L3,9M9,9L12,9L12,12L9,12L9,9"></path>
 </pattern>
 <pattern y="0" x="0" height="12" width="12" patternUnits="userSpaceOnUse" id="cp2pattern">
 <rect class="cp2color" height="12" width="12" y="0" x="0"></rect>
 <path fill="white" d="M0,0L3,0L3,3L0,3L0,0M6,0L9,0L9,3L6,3L6,0M3,3L6,3L6,6L3,6L3,3M9,3L12,3L12,6L9,6L9,3"></path>
 <path fill="white" d="M0,6L3,6L3,9L0,9L0,6M6,6L9,6L9,9L6,9L6,6M3,9L6,9L6,12L3,12L3,9M9,9L12,9L12,12L9,12L9,9"></path>
 </pattern>
 <pattern y="0" x="0" height="12" width="12" patternUnits="userSpaceOnUse" id="cp3pattern">
 <rect class="cp3color" height="12" width="12" y="0" x="0"></rect>
 <path fill="black" d="M0,0L3,0L3,3L0,3L0,0M6,0L9,0L9,3L6,3L6,0M3,3L6,3L6,6L3,6L3,3M9,3L12,3L12,6L9,6L9,3"></path>
 <path fill="black" d="M0,6L3,6L3,9L0,9L0,6M6,6L9,6L9,9L6,9L6,6M3,9L6,9L6,12L3,12L3,9M9,9L12,9L12,12L9,12L9,9"></path>
 </pattern>
 <pattern y="0" x="0" height="12" width="12" patternUnits="userSpaceOnUse" id="cp4pattern">
 <rect class="cp4color" height="12" width="12" y="0" x="0"></rect>
 <path fill="white" d="M0,0L3,0L3,3L0,3L0,0M6,0L9,0L9,3L6,3L6,0M3,3L6,3L6,6L3,6L3,3M9,3L12,3L12,6L9,6L9,3"></path>
 <path fill="white" d="M0,6L3,6L3,9L0,9L0,6M6,6L9,6L9,9L6,9L6,6M3,9L6,9L6,12L3,12L3,9M9,9L12,9L12,12L9,12L9,9"></path>
 </pattern>
 <pattern y="0" x="0" height="12" width="12" patternUnits="userSpaceOnUse" id="cp5pattern">
 <rect class="cp5color" height="12" width="12" y="0" x="0"></rect>
 <path fill="black" d="M0,0L3,0L3,3L0,3L0,0M6,0L9,0L9,3L6,3L6,0M3,3L6,3L6,6L3,6L3,3M9,3L12,3L12,6L9,6L9,3"></path>
 <path fill="black" d="M0,6L3,6L3,9L0,9L0,6M6,6L9,6L9,9L6,9L6,6M3,9L6,9L6,12L3,12L3,9M9,9L12,9L12,12L9,12L9,9"></path>
 </pattern>
 <pattern y="0" x="0" height="12" width="12" patternUnits="userSpaceOnUse" id="cp6pattern">
 <rect class="cp6color" height="12" width="12" y="0" x="0"></rect>
 <path fill="white" d="M0,0L3,0L3,3L0,3L0,0M6,0L9,0L9,3L6,3L6,0M3,3L6,3L6,6L3,6L3,3M9,3L12,3L12,6L9,6L9,3"></path>
 <path fill="white" d="M0,6L3,6L3,9L0,9L0,6M6,6L9,6L9,9L6,9L6,6M3,9L6,9L6,12L3,12L3,9M9,9L12,9L12,12L9,12L9,9"></path>
 </pattern>
 <pattern y="0" x="0" height="12" width="12" patternUnits="userSpaceOnUse" id="cp7pattern">
 <rect class="cp7color" height="12" width="12" y="0" x="0"></rect>
 <path fill="black" d="M0,0L3,0L3,3L0,3L0,0M6,0L9,0L9,3L6,3L6,0M3,3L6,3L6,6L3,6L3,3M9,3L12,3L12,6L9,6L9,3"></path>
 <path fill="black" d="M0,6L3,6L3,9L0,9L0,6M6,6L9,6L9,9L6,9L6,6M3,9L6,9L6,12L3,12L3,9M9,9L12,9L12,12L9,12L9,9"></path>
 </pattern>
 <pattern y="0" x="0" height="12" width="12" patternUnits="userSpaceOnUse" id="cp8pattern">
 <rect class="cp8color" height="12" width="12" y="0" x="0"></rect>
 <path fill="white" d="M0,0L3,0L3,3L0,3L0,0M6,0L9,0L9,3L6,3L6,0M3,3L6,3L6,6L3,6L3,3M9,3L12,3L12,6L9,6L9,3"></path>
 <path fill="white" d="M0,6L3,6L3,9L0,9L0,6M6,6L9,6L9,9L6,9L6,6M3,9L6,9L6,12L3,12L3,9M9,9L12,9L12,12L9,12L9,9"></path>
 </pattern>
 <pattern y="0" x="0" height="12" width="12" patternUnits="userSpaceOnUse" id="cp9pattern">
 <rect class="cp9color" height="12" width="12" y="0" x="0"></rect>
 <path fill="black" d="M0,0L3,0L3,3L0,3L0,0M6,0L9,0L9,3L6,3L6,0M3,3L6,3L6,6L3,6L3,3M9,3L12,3L12,6L9,6L9,3"></path>
 <path fill="black" d="M0,6L3,6L3,9L0,9L0,6M6,6L9,6L9,9L6,9L6,6M3,9L6,9L6,12L3,12L3,9M9,9L12,9L12,12L9,12L9,9"></path>
 </pattern>
 </defs>
 <rect height="100%" width="100%" y="0" x="0" class="road" id="mainfill"></rect>
 <g id="paths"><path d="M24,12L24,12L1188,12L1188,1272L12,1272L12,120L24,120L24,12M792,60L792,60L780,60L780,72L756,72L756,84L744,84L744,72L672,72L672,84L660,84L660,96L672,96L672,108L684,108L684,132L720,132L720,156L732,156L732,168L744,168L744,180L780,180L780,132L804,132L804,120L828,120L828,96L840,96L840,72L828,72L828,60L792,60M612,72L612,72L600,72L600,96L588,96L588,84L504,84L504,96L468,96L468,84L456,84L456,96L408,96L408,108L384,108L384,120L408,120L408,132L432,132L432,156L444,156L444,168L456,168L456,180L468,180L468,168L480,168L480,156L504,156L504,168L564,168L564,192L600,192L600,180L612,180L612,144L624,144L624,132L636,132L636,84L624,84L624,72L612,72M348,144L348,144L336,144L336,156L276,156L276,168L240,168L240,180L228,180L228,192L216,192L216,204L192,204L192,228L204,228L204,240L240,240L240,252L252,252L252,264L264,264L264,276L252,276L252,300L240,300L240,324L252,324L252,348L240,348L240,360L252,360L252,384L228,384L228,396L216,396L216,408L180,408L180,420L156,420L156,432L180,432L180,456L264,456L264,468L324,468L324,432L336,432L336,408L348,408L348,396L360,396L360,300L348,300L348,288L372,288L372,276L384,276L384,240L396,240L396,216L420,216L420,204L432,204L432,168L420,168L420,156L372,156L372,144L348,144M492,192L492,192L480,192L480,204L468,204L468,216L444,216L444,240L432,240L432,252L420,252L420,264L408,264L408,300L396,300L396,324L384,324L384,396L372,396L372,420L360,420L360,468L396,468L396,480L432,480L432,492L468,492L468,504L480,504L480,456L468,456L468,420L480,420L480,384L516,384L516,360L492,360L492,348L504,348L504,276L516,276L516,264L528,264L528,252L540,252L540,192L492,192M792,312L792,312L780,312L780,324L696,324L696,372L708,372L708,384L684,384L684,348L672,348L672,336L624,336L624,360L636,360L636,384L648,384L648,396L660,396L660,432L648,432L648,420L636,420L636,396L624,396L624,384L612,384L612,360L588,360L588,384L600,384L600,408L624,408L624,432L636,432L636,444L648,444L648,456L732,456L732,468L768,468L768,480L792,480L792,456L804,456L804,444L828,444L828,432L876,432L876,444L864,444L864,480L888,480L888,468L912,468L912,456L924,456L924,468L936,468L936,456L948,456L948,444L960,444L960,420L936,420L936,408L900,408L900,396L924,396L924,372L900,372L900,360L864,360L864,336L840,336L840,348L828,348L828,312L792,312M1020,372L1020,372L1008,372L1008,408L996,408L996,432L984,432L984,456L972,456L972,468L984,468L984,480L996,480L996,492L1020,492L1020,468L1032,468L1032,456L1044,456L1044,444L1032,444L1032,420L1020,420L1020,396L1032,396L1032,384L1020,384L1020,372M588,396L588,396L576,396L576,408L588,408L588,396M564,408L564,408L552,408L552,456L540,456L540,492L576,492L576,480L636,480L636,468L624,468L624,456L612,456L612,444L600,444L600,432L564,432L564,408M156,468L156,468L144,468L144,540L156,540L156,588L144,588L144,612L168,612L168,600L180,600L180,624L204,624L204,660L228,660L228,696L240,696L240,708L228,708L228,720L216,720L216,696L204,696L204,684L192,684L192,672L180,672L180,660L168,660L168,672L156,672L156,684L168,684L168,720L144,720L144,732L168,732L168,744L300,744L300,756L336,756L336,744L348,744L348,708L336,708L336,696L348,696L348,672L336,672L336,528L324,528L324,492L240,492L240,480L180,480L180,468L156,468M948,480L948,480L936,480L936,492L924,492L924,516L948,516L948,540L876,540L876,552L888,552L888,564L900,564L900,576L912,576L912,588L924,588L924,600L948,600L948,624L960,624L960,504L948,504L948,480M372,492L372,492L360,492L360,660L372,660L372,744L360,744L360,756L372,756L372,768L420,768L420,780L432,780L432,792L444,792L444,804L492,804L492,816L504,816L504,828L528,828L528,852L540,852L540,864L636,864L636,852L612,852L612,840L564,840L564,828L552,828L552,792L540,792L540,780L528,780L528,768L516,768L516,720L504,720L504,684L492,684L492,636L480,636L480,588L492,588L492,564L504,564L504,540L492,540L492,528L456,528L456,516L420,516L420,504L396,504L396,492L372,492M828,552L828,552L816,552L816,564L828,564L828,552M840,564L840,564L828,564L828,588L804,588L804,600L816,600L816,612L828,612L828,624L840,624L840,648L864,648L864,660L912,660L912,672L924,672L924,696L936,696L936,708L912,708L912,696L900,696L900,684L888,684L888,672L840,672L840,660L828,660L828,648L804,648L804,636L792,636L792,624L780,624L780,648L768,648L768,672L780,672L780,696L768,696L768,708L780,708L780,744L792,744L792,768L804,768L804,756L816,756L816,768L828,768L828,780L840,780L840,792L852,792L852,804L888,804L888,828L900,828L900,864L936,864L936,876L948,876L948,864L960,864L960,852L972,852L972,840L996,840L996,828L1020,828L1020,804L1032,804L1032,792L1020,792L1020,780L1008,780L1008,768L996,768L996,756L984,756L984,732L960,732L960,720L948,720L948,684L936,684L936,660L924,660L924,648L900,648L900,636L888,636L888,612L864,612L864,588L840,588L840,564M996,576L996,576L984,576L984,648L996,648L996,612L1020,612L1020,588L996,588L996,576M1020,624L1020,624L1008,624L1008,648L1020,648L1020,684L1032,684L1032,672L1044,672L1044,684L1068,684L1068,696L1080,696L1080,720L1104,720L1104,732L1116,732L1116,744L1152,744L1152,720L1140,720L1140,708L1116,708L1116,696L1128,696L1128,684L1140,684L1140,648L1092,648L1092,636L1080,636L1080,624L1020,624M564,648L564,648L552,648L552,684L564,684L564,696L552,696L552,720L564,720L564,732L552,732L552,756L564,756L564,768L648,768L648,792L660,792L660,816L672,816L672,828L684,828L684,840L720,840L720,852L744,852L744,840L780,840L780,792L768,792L768,780L708,780L708,768L696,768L696,756L684,756L684,744L648,744L648,732L636,732L636,660L624,660L624,648L564,648M144,672L144,672L132,672L132,696L144,696L144,672M156,696L156,696L144,696L144,708L156,708L156,696M180,708L180,708L192,708L192,720L180,720L180,708M1044,732L1044,732L1032,732L1032,768L1044,768L1044,780L1068,780L1068,768L1080,768L1080,756L1068,756L1068,744L1056,744L1056,732L1044,732M456,768L456,768L480,768L480,792L456,792L456,768M372,792L372,792L360,792L360,840L372,840L372,900L384,900L384,936L396,936L396,948L408,948L408,972L444,972L444,984L492,984L492,1032L516,1032L516,1020L540,1020L540,1008L588,1008L588,1020L600,1020L600,1044L624,1044L624,1056L672,1056L672,1044L684,1044L684,1032L696,1032L696,1008L708,1008L708,924L756,924L756,912L732,912L732,900L684,900L684,888L624,888L624,900L540,900L540,888L516,888L516,876L504,876L504,852L492,852L492,840L468,840L468,828L432,828L432,816L420,816L420,804L384,804L384,792L372,792M768,876L768,876L756,876L756,888L768,888L768,876M792,876L792,876L780,876L780,888L792,888L792,876M840,900L840,900L828,900L828,912L816,912L816,924L852,924L852,936L876,936L876,912L852,912L852,900L840,900M912,912L912,912L900,912L900,924L888,924L888,936L900,936L900,948L888,948L888,960L912,960L912,972L924,972L924,984L948,984L948,948L936,948L936,912L912,912M792,948L792,948L780,948L780,960L744,960L744,996L732,996L732,1020L720,1020L720,1044L696,1044L696,1056L708,1056L708,1068L684,1068L684,1080L672,1080L672,1164L684,1164L684,1140L696,1140L696,1164L684,1164L684,1176L756,1176L756,1164L744,1164L744,1152L756,1152L756,1140L768,1140L768,1152L756,1152L756,1164L804,1164L804,1176L840,1176L840,1164L828,1164L828,1140L840,1140L840,1116L852,1116L852,1104L864,1104L864,1092L840,1092L840,1056L828,1056L828,1032L840,1032L840,1008L852,1008L852,984L864,984L864,960L804,960L804,948L792,948M372,972L372,972L360,972L360,996L372,996L372,1008L396,1008L396,1020L384,1020L384,1032L336,1032L336,1044L408,1044L408,1056L420,1056L420,1068L432,1068L432,1092L444,1092L444,1080L456,1080L456,1068L468,1068L468,1008L456,1008L456,996L408,996L408,984L372,984L372,972M960,996L960,996L948,996L948,1032L960,1032L960,1056L972,1056L972,1080L1032,1080L1032,1068L1044,1068L1044,1056L1056,1056L1056,1044L1068,1044L1068,1020L1056,1020L1056,1008L1044,1008L1044,996L960,996M552,1032L552,1032L540,1032L540,1044L516,1044L516,1056L504,1056L504,1068L492,1068L492,1080L480,1080L480,1092L456,1092L456,1104L444,1104L444,1116L408,1116L408,1128L384,1128L384,1140L408,1140L408,1152L444,1152L444,1140L552,1140L552,1152L564,1152L564,1176L612,1176L612,1164L624,1164L624,1176L636,1176L636,1188L660,1188L660,1176L648,1176L648,1080L624,1080L624,1068L600,1068L600,1056L588,1056L588,1044L576,1044L576,1032L552,1032M864,1116L864,1116L852,1116L852,1140L864,1140L864,1116M720,1140L720,1140L732,1140L732,1152L720,1152Z" class="road"></path><path d="M24,12L24,12L1188,12L1188,60L1176,60L1176,48L1152,48L1152,36L1020,36L1020,24L864,24L864,36L780,36L780,48L732,48L732,60L720,60L720,72L672,72L672,84L660,84L660,96L672,96L672,108L684,108L684,132L720,132L720,156L732,156L732,168L744,168L744,180L780,180L780,132L804,132L804,120L816,120L816,132L852,132L852,144L876,144L876,168L888,168L888,180L900,180L900,216L888,216L888,240L876,240L876,276L840,276L840,288L816,288L816,300L828,300L828,312L780,312L780,324L696,324L696,372L708,372L708,384L684,384L684,348L672,348L672,336L624,336L624,360L636,360L636,384L648,384L648,396L660,396L660,432L648,432L648,420L636,420L636,396L624,396L624,384L612,384L612,360L588,360L588,396L564,396L564,348L552,348L552,360L540,360L540,384L552,384L552,456L540,456L540,504L528,504L528,516L504,516L504,504L480,504L480,456L468,456L468,420L480,420L480,384L516,384L516,360L492,360L492,348L504,348L504,276L516,276L516,264L528,264L528,252L540,252L540,192L600,192L600,180L612,180L612,144L624,144L624,132L636,132L636,84L624,84L624,72L600,72L600,96L588,96L588,84L504,84L504,96L468,96L468,84L456,84L456,96L408,96L408,108L384,108L384,120L324,120L324,132L216,132L216,144L204,144L204,156L120,156L120,144L108,144L108,132L72,132L72,120L24,120L24,12M504,540L504,540L552,540L552,564L564,564L564,612L552,612L552,684L564,684L564,696L552,696L552,720L564,720L564,732L552,732L552,756L564,756L564,768L648,768L648,792L660,792L660,816L672,816L672,828L684,828L684,840L720,840L720,852L744,852L744,840L792,840L792,828L804,828L804,840L828,840L828,828L840,828L840,816L852,816L852,828L876,828L876,876L852,876L852,864L840,864L840,876L816,876L816,888L792,888L792,876L756,876L756,888L732,888L732,876L684,876L684,864L648,864L648,852L612,852L612,840L564,840L564,828L552,828L552,792L540,792L540,780L528,780L528,768L516,768L516,720L504,720L504,684L492,684L492,636L480,636L480,588L492,588L492,564L504,564L504,540M876,912L876,912L900,912L900,924L888,924L888,936L900,936L900,948L888,948L888,984L900,984L900,1020L888,1020L888,1032L900,1032L900,1080L912,1080L912,1092L948,1092L948,1116L960,1116L960,1128L984,1128L984,1140L1008,1140L1008,1152L1032,1152L1032,1164L1044,1164L1044,1188L1056,1188L1056,1200L1068,1200L1068,1224L1080,1224L1080,1236L1092,1236L1092,1272L1044,1272L1044,1236L1032,1236L1032,1224L1020,1224L1020,1212L1008,1212L1008,1188L996,1188L996,1176L984,1176L984,1164L948,1164L948,1140L924,1140L924,1104L900,1104L900,1092L888,1092L888,1080L876,1080L876,1008L888,1008L888,996L876,996Z" class="cp1"></path><path d="M840,60L840,60L852,60L852,72L840,72Z" class="cp2"></path><path d="M492,168L492,168L504,168L504,180L492,180Z" class="cp3"></path><path d="M12,144L12,144L24,144L24,156L12,156Z" class="cp4"></path><path d="M612,420L612,420L624,420L624,432L612,432Z" class="cp5"></path><path d="M816,792L816,792L828,792L828,804L816,804Z" class="cp6"></path><path d="M384,780L384,780L396,780L396,792L384,792Z" class="cp7"></path><path d="M1128,1248L1128,1248L1140,1248L1140,1260L1128,1260Z" class="cp8"></path><path d="M552,1020L552,1020L564,1020L564,1032L552,1032Z" class="cp9"></path><path d="M0,0L0,0L12,0L12,108L0,108Z" class="parc"></path><path d="M12,0L12,0L1200,0L1200,1284L0,1284L0,108L12,108L12,0M36,12L36,12L24,12L24,120L12,120L12,1272L1188,1272L1188,12L36,12M780,60L780,60L828,60L828,72L840,72L840,96L828,96L828,120L804,120L804,132L780,132L780,180L744,180L744,168L732,168L732,156L720,156L720,132L684,132L684,108L672,108L672,96L660,96L660,84L672,84L672,72L744,72L744,84L756,84L756,72L780,72L780,60M600,72L600,72L624,72L624,84L636,84L636,132L624,132L624,144L612,144L612,180L600,180L600,192L564,192L564,168L504,168L504,156L480,156L480,168L468,168L468,180L456,180L456,168L444,168L444,156L432,156L432,132L408,132L408,120L384,120L384,108L408,108L408,96L456,96L456,84L468,84L468,96L504,96L504,84L588,84L588,96L600,96L600,72M336,144L336,144L372,144L372,156L420,156L420,168L432,168L432,204L420,204L420,216L396,216L396,240L384,240L384,276L372,276L372,288L348,288L348,300L360,300L360,396L348,396L348,408L336,408L336,432L324,432L324,468L264,468L264,456L180,456L180,432L156,432L156,420L180,420L180,408L216,408L216,396L228,396L228,384L252,384L252,360L240,360L240,348L252,348L252,324L240,324L240,300L252,300L252,276L264,276L264,264L252,264L252,252L240,252L240,240L204,240L204,228L192,228L192,204L216,204L216,192L228,192L228,180L240,180L240,168L276,168L276,156L336,156L336,144M480,192L480,192L540,192L540,252L528,252L528,264L516,264L516,276L504,276L504,348L492,348L492,360L516,360L516,384L480,384L480,420L468,420L468,456L480,456L480,504L468,504L468,492L432,492L432,480L396,480L396,468L360,468L360,420L372,420L372,396L384,396L384,324L396,324L396,300L408,300L408,264L420,264L420,252L432,252L432,240L444,240L444,216L468,216L468,204L480,204L480,192M780,312L780,312L828,312L828,348L840,348L840,336L864,336L864,360L900,360L900,372L924,372L924,396L900,396L900,408L936,408L936,420L960,420L960,444L948,444L948,456L936,456L936,468L924,468L924,456L912,456L912,468L888,468L888,480L864,480L864,444L876,444L876,432L828,432L828,444L804,444L804,456L792,456L792,480L768,480L768,468L732,468L732,456L648,456L648,444L636,444L636,432L624,432L624,408L600,408L600,384L588,384L588,360L612,360L612,384L624,384L624,396L636,396L636,420L648,420L648,432L660,432L660,396L648,396L648,384L636,384L636,360L624,360L624,336L672,336L672,348L684,348L684,384L708,384L708,372L696,372L696,324L780,324L780,312M1008,372L1008,372L1020,372L1020,384L1032,384L1032,396L1020,396L1020,420L1032,420L1032,444L1044,444L1044,456L1032,456L1032,468L1020,468L1020,492L996,492L996,480L984,480L984,468L972,468L972,456L984,456L984,432L996,432L996,408L1008,408L1008,372M576,396L576,396L588,396L588,408L576,408L576,396M552,408L552,408L564,408L564,432L600,432L600,444L612,444L612,456L624,456L624,468L636,468L636,480L576,480L576,492L540,492L540,456L552,456L552,408M144,468L144,468L180,468L180,480L240,480L240,492L324,492L324,528L336,528L336,672L348,672L348,696L336,696L336,708L348,708L348,744L336,744L336,756L300,756L300,744L168,744L168,732L144,732L144,720L168,720L168,684L156,684L156,672L168,672L168,660L180,660L180,672L192,672L192,684L204,684L204,696L216,696L216,720L228,720L228,708L240,708L240,696L228,696L228,660L204,660L204,624L180,624L180,600L168,600L168,612L144,612L144,588L156,588L156,540L144,540L144,468M936,480L936,480L948,480L948,504L960,504L960,624L948,624L948,600L924,600L924,588L912,588L912,576L900,576L900,564L888,564L888,552L876,552L876,540L948,540L948,516L924,516L924,492L936,492L936,480M360,492L360,492L396,492L396,504L420,504L420,516L456,516L456,528L492,528L492,540L504,540L504,564L492,564L492,588L480,588L480,636L492,636L492,684L504,684L504,720L516,720L516,768L528,768L528,780L540,780L540,792L552,792L552,828L564,828L564,840L612,840L612,852L636,852L636,864L540,864L540,852L528,852L528,828L504,828L504,816L492,816L492,804L444,804L444,792L432,792L432,780L420,780L420,768L372,768L372,756L360,756L360,744L372,744L372,660L360,660L360,492M816,552L816,552L828,552L828,564L816,564L816,552M828,564L828,564L840,564L840,588L864,588L864,612L888,612L888,636L900,636L900,648L924,648L924,660L936,660L936,684L948,684L948,720L960,720L960,732L984,732L984,756L996,756L996,768L1008,768L1008,780L1020,780L1020,792L1032,792L1032,804L1020,804L1020,828L996,828L996,840L972,840L972,852L960,852L960,864L948,864L948,876L936,876L936,864L900,864L900,828L888,828L888,804L852,804L852,792L840,792L840,780L828,780L828,768L816,768L816,756L804,756L804,768L792,768L792,744L780,744L780,708L768,708L768,696L780,696L780,672L768,672L768,648L780,648L780,624L792,624L792,636L804,636L804,648L828,648L828,660L840,660L840,672L888,672L888,684L900,684L900,696L912,696L912,708L936,708L936,696L924,696L924,672L912,672L912,660L864,660L864,648L840,648L840,624L828,624L828,612L816,612L816,600L804,600L804,588L828,588L828,564M984,576L984,576L996,576L996,588L1020,588L1020,612L996,612L996,648L984,648L984,576M1008,624L1008,624L1080,624L1080,636L1092,636L1092,648L1140,648L1140,684L1128,684L1128,696L1116,696L1116,708L1140,708L1140,720L1152,720L1152,744L1116,744L1116,732L1104,732L1104,720L1080,720L1080,696L1068,696L1068,684L1044,684L1044,672L1032,672L1032,684L1020,684L1020,648L1008,648L1008,624M552,648L552,648L624,648L624,660L636,660L636,732L648,732L648,744L684,744L684,756L696,756L696,768L708,768L708,780L768,780L768,792L780,792L780,840L744,840L744,852L720,852L720,840L684,840L684,828L672,828L672,816L660,816L660,792L648,792L648,768L564,768L564,756L552,756L552,732L564,732L564,720L552,720L552,696L564,696L564,684L552,684L552,648M132,672L132,672L144,672L144,696L132,696L132,672M144,696L144,696L156,696L156,708L144,708L144,696M192,708L192,708L180,708L180,720L192,720L192,708M1032,732L1032,732L1056,732L1056,744L1068,744L1068,756L1080,756L1080,768L1068,768L1068,780L1044,780L1044,768L1032,768L1032,732M468,768L468,768L456,768L456,792L480,792L480,768L468,768M360,792L360,792L384,792L384,804L420,804L420,816L432,816L432,828L468,828L468,840L492,840L492,852L504,852L504,876L516,876L516,888L540,888L540,900L624,900L624,888L684,888L684,900L732,900L732,912L756,912L756,924L708,924L708,1008L696,1008L696,1032L684,1032L684,1044L672,1044L672,1056L624,1056L624,1044L600,1044L600,1020L588,1020L588,1008L540,1008L540,1020L516,1020L516,1032L492,1032L492,984L444,984L444,972L408,972L408,948L396,948L396,936L384,936L384,900L372,900L372,840L360,840L360,792M756,876L756,876L768,876L768,888L756,888L756,876M780,876L780,876L792,876L792,888L780,888L780,876M828,900L828,900L852,900L852,912L876,912L876,936L852,936L852,924L816,924L816,912L828,912L828,900M900,912L900,912L936,912L936,948L948,948L948,984L924,984L924,972L912,972L912,960L888,960L888,948L900,948L900,936L888,936L888,924L900,924L900,912M780,948L780,948L804,948L804,960L864,960L864,984L852,984L852,1008L840,1008L840,1032L828,1032L828,1056L840,1056L840,1092L864,1092L864,1104L852,1104L852,1116L840,1116L840,1140L828,1140L828,1164L840,1164L840,1176L804,1176L804,1164L756,1164L756,1152L744,1152L744,1164L756,1164L756,1176L684,1176L684,1164L672,1164L672,1080L684,1080L684,1068L708,1068L708,1056L696,1056L696,1044L720,1044L720,1020L732,1020L732,996L744,996L744,960L780,960L780,948M360,972L360,972L372,972L372,984L408,984L408,996L456,996L456,1008L468,1008L468,1068L456,1068L456,1080L444,1080L444,1092L432,1092L432,1068L420,1068L420,1056L408,1056L408,1044L336,1044L336,1032L384,1032L384,1020L396,1020L396,1008L372,1008L372,996L360,996L360,972M948,996L948,996L1044,996L1044,1008L1056,1008L1056,1020L1068,1020L1068,1044L1056,1044L1056,1056L1044,1056L1044,1068L1032,1068L1032,1080L972,1080L972,1056L960,1056L960,1032L948,1032L948,996M540,1032L540,1032L576,1032L576,1044L588,1044L588,1056L600,1056L600,1068L624,1068L624,1080L648,1080L648,1176L660,1176L660,1188L636,1188L636,1176L624,1176L624,1164L612,1164L612,1176L564,1176L564,1152L552,1152L552,1140L444,1140L444,1152L408,1152L408,1140L384,1140L384,1128L408,1128L408,1116L444,1116L444,1104L456,1104L456,1092L480,1092L480,1080L492,1080L492,1068L504,1068L504,1056L516,1056L516,1044L540,1044L540,1032M852,1116L852,1116L864,1116L864,1140L852,1140L852,1116M696,1140L696,1140L684,1140L684,1164L696,1164L696,1140M732,1140L732,1140L720,1140L720,1152L732,1152L732,1140M768,1140L768,1140L756,1140L756,1152L768,1152Z" class="grass"></path><path d="M828,60L828,60L840,60L840,72L828,72L828,60M12,132L12,132L24,132L24,144L12,144L12,132M480,156L480,156L492,156L492,168L480,168L480,156M600,408L600,408L612,408L612,420L600,420L600,408M384,768L384,768L396,768L396,780L384,780L384,768M816,804L816,804L828,804L828,816L816,816L816,804M540,1008L540,1008L552,1008L552,1020L540,1020L540,1008M1128,1260L1128,1260L1140,1260L1140,1272L1128,1272Z" class="finish"></path><path d="M840,72L840,72L852,72L852,84L840,84L840,72M24,132L24,132L36,132L36,144L24,144L24,132M492,156L492,156L504,156L504,168L492,168L492,156M612,408L612,408L624,408L624,420L612,420L612,408M396,768L396,768L408,768L408,780L396,780L396,768M828,804L828,804L840,804L840,816L828,816L828,804M552,1008L552,1008L564,1008L564,1020L552,1020L552,1008M1140,1260L1140,1260L1152,1260L1152,1272L1140,1272Z" class="start"></path></g>
 <rect opacity=".3" fill="url(#grid)" height="100%" width="100%" y="0" x="0"></rect>
</svg>