<svg xmlns="http://www.w3.org/2000/svg" xmlns:xlink="http://www.w3.org/1999/xlink" version="1.1" id="mapSvgView" width="336" height="348"> <rect id="mainfill" class="grass" x="0" y="0" width="100%" height="100%"></rect> <g id="paths"><path d="M84,180L84,180L108,180L108,204L96,204L96,216L72,216L72,192L84,192Z" class="cp1"></path><path d="M288,156L288,156L312,156L312,168L324,168L324,180L312,180L312,192L300,192L300,180L288,180Z" class="cp2"></path><path d="M192,48L192,48L240,48L240,60L252,60L252,84L180,84L180,60L192,60Z" class="cp3"></path><path d="M156,240L156,240L180,240L180,264L156,264Z" class="cp4"></path><path d="M0,0L0,0L12,0L12,36L0,36Z" class="parc"></path><path d="M72,12L72,12L120,12L120,24L132,24L132,84L180,84L180,108L108,108L108,36L84,36L84,108L48,108L48,120L12,120L12,84L60,84L60,24L72,24L72,12M252,84L252,84L312,84L312,96L324,96L324,168L312,168L312,156L300,156L300,120L288,120L288,108L252,108L252,84M12,144L12,144L48,144L48,180L84,180L84,192L72,192L72,204L12,204L12,144M240,168L240,168L288,168L288,180L300,180L300,204L264,204L264,264L180,264L180,240L240,240L240,168M96,204L96,204L108,204L108,312L156,312L156,264L180,264L180,336L84,336L84,216L96,216Z" class="road"></path><path d="M180,84L180,84L252,84L252,108L180,108Z" class="sand"></path><path d="M12,120L12,120L48,120L48,132L12,132Z" class="finish"></path><path d="M12,132L12,132L48,132L48,144L12,144Z" class="start"></path></g></svg>