<svg xmlns:xlink="http://www.w3.org/1999/xlink" xmlns="http://www.w3.org/2000/svg" height="876" width="1956" id="mapSvgView" version="1.1" style="width: 1956px; height: 876px;" viewBox="0 0 1956 876">
 <defs>
 <pattern y="0" x="0" height="24" width="24" patternUnits="userSpaceOnUse" id="grassPattern">
 <rect class="grasscolor" height="24" width="24" y="0" x="0"></rect>
 <rect class="grassspeclecolor" height="1" width="1" x="1" y="5"></rect>
 <rect class="grassspeclecolor" height="1" width="1" x="1" y="5"></rect>
 <rect class="grassspeclecolor" height="1" width="1" x="3" y="5"></rect>
 <rect class="grassspeclecolor" height="1" width="1" x="6" y="7"></rect>
 <rect class="grassspeclecolor" height="1" width="1" x="6" y="17"></rect>
 <rect class="grassspeclecolor" height="1" width="1" x="8" y="21"></rect>
 <rect class="grassspeclecolor" height="1" width="1" x="9" y="2"></rect>
 <rect class="grassspeclecolor" height="1" width="1" x="12" y="4"></rect>
 <rect class="grassspeclecolor" height="1" width="1" x="13" y="15"></rect>
 <rect class="grassspeclecolor" height="1" width="1" x="14" y="4"></rect>
 <rect class="grassspeclecolor" height="1" width="1" x="14" y="19"></rect>
 <rect class="grassspeclecolor" height="1" width="1" x="17" y="7"></rect>
 <rect class="grassspeclecolor" height="1" width="1" x="17" y="12"></rect>
 <rect class="grassspeclecolor" height="1" width="1" x="18" y="23"></rect>
 <rect class="grassspeclecolor" height="1" width="1" x="21" y="16"></rect>
 <rect class="grassspeclecolor" height="1" width="1" x="23" y="12"></rect>
 </pattern>
 <pattern y="0" x="0" height="24" width="24" patternUnits="userSpaceOnUse" id="roadPattern">
 <rect class="roadcolor" height="24" width="24" y="0" x="0"></rect>
 <rect class="roadspeclecolor" height="1" width="1" x="1" y="5"></rect>
 <rect class="roadspeclecolor" height="1" width="1" x="1" y="5"></rect>
 <rect class="roadspeclecolor" height="1" width="1" x="3" y="5"></rect>
 <rect class="roadspeclecolor" height="1" width="1" x="6" y="7"></rect>
 <rect class="roadspeclecolor" height="1" width="1" x="6" y="17"></rect>
 <rect class="roadspeclecolor" height="1" width="1" x="8" y="21"></rect>
 <rect class="roadspeclecolor" height="1" width="1" x="9" y="2"></rect>
 <rect class="roadspeclecolor" height="1" width="1" x="12" y="4"></rect>
 <rect class="roadspeclecolor" height="1" width="1" x="13" y="15"></rect>
 <rect class="roadspeclecolor" height="1" width="1" x="14" y="4"></rect>
 <rect class="roadspeclecolor" height="1" width="1" x="14" y="19"></rect>
 <rect class="roadspeclecolor" height="1" width="1" x="17" y="7"></rect>
 <rect class="roadspeclecolor" height="1" width="1" x="17" y="12"></rect>
 <rect class="roadspeclecolor" height="1" width="1" x="18" y="23"></rect>
 <rect class="roadspeclecolor" height="1" width="1" x="21" y="16"></rect>
 <rect class="roadspeclecolor" height="1" width="1" x="23" y="12"></rect>
 </pattern>
 <pattern y="0" x="0" height="12" width="12" patternUnits="userSpaceOnUse" id="grid">
 <line stroke-width="1" stroke="black" y2="12" x2="12" y1="0" x1="12"></line>
 <line stroke-width="1" stroke="black" y2="12" x2="12" y1="12" x1="0"></line>
 </pattern>
 <pattern y="0" x="0" height="12" width="12" patternUnits="userSpaceOnUse" id="finishPattern">
 <rect fill="black" height="12" width="12" y="0" x="0"></rect>
 <path fill="white" d="M0,0L3,0L3,3L0,3L0,0M6,0L9,0L9,3L6,3L6,0M3,3L6,3L6,6L3,6L3,3M9,3L12,3L12,6L9,6L9,3"></path>
 <path fill="white" d="M0,6L3,6L3,9L0,9L0,6M6,6L9,6L9,9L6,9L6,6M3,9L6,9L6,12L3,12L3,9M9,9L12,9L12,12L9,12L9,9"></path>
 </pattern>
 <pattern y="0" x="0" height="12" width="12" patternUnits="userSpaceOnUse" id="startPattern">
 <rect fill="rgb(100,100,100)" height="12" width="12" y="0" x="0"></rect>
 <rect stroke-width="1" stroke="rgb(200,200,200)" fill="none" height="5" width="5" y="3.5" x="3.5"></rect>
 </pattern>
 <pattern y="0" x="0" height="12" width="12" patternUnits="userSpaceOnUse" id="cp1pattern">
 <rect class="cp1color" height="12" width="12" y="0" x="0"></rect>
 <path fill="black" d="M0,0L3,0L3,3L0,3L0,0M6,0L9,0L9,3L6,3L6,0M3,3L6,3L6,6L3,6L3,3M9,3L12,3L12,6L9,6L9,3"></path>
 <path fill="black" d="M0,6L3,6L3,9L0,9L0,6M6,6L9,6L9,9L6,9L6,6M3,9L6,9L6,12L3,12L3,9M9,9L12,9L12,12L9,12L9,9"></path>
 </pattern>
 <pattern y="0" x="0" height="12" width="12" patternUnits="userSpaceOnUse" id="cp2pattern">
 <rect class="cp2color" height="12" width="12" y="0" x="0"></rect>
 <path fill="white" d="M0,0L3,0L3,3L0,3L0,0M6,0L9,0L9,3L6,3L6,0M3,3L6,3L6,6L3,6L3,3M9,3L12,3L12,6L9,6L9,3"></path>
 <path fill="white" d="M0,6L3,6L3,9L0,9L0,6M6,6L9,6L9,9L6,9L6,6M3,9L6,9L6,12L3,12L3,9M9,9L12,9L12,12L9,12L9,9"></path>
 </pattern>
 <pattern y="0" x="0" height="12" width="12" patternUnits="userSpaceOnUse" id="cp3pattern">
 <rect class="cp3color" height="12" width="12" y="0" x="0"></rect>
 <path fill="black" d="M0,0L3,0L3,3L0,3L0,0M6,0L9,0L9,3L6,3L6,0M3,3L6,3L6,6L3,6L3,3M9,3L12,3L12,6L9,6L9,3"></path>
 <path fill="black" d="M0,6L3,6L3,9L0,9L0,6M6,6L9,6L9,9L6,9L6,6M3,9L6,9L6,12L3,12L3,9M9,9L12,9L12,12L9,12L9,9"></path>
 </pattern>
 <pattern y="0" x="0" height="12" width="12" patternUnits="userSpaceOnUse" id="cp4pattern">
 <rect class="cp4color" height="12" width="12" y="0" x="0"></rect>
 <path fill="white" d="M0,0L3,0L3,3L0,3L0,0M6,0L9,0L9,3L6,3L6,0M3,3L6,3L6,6L3,6L3,3M9,3L12,3L12,6L9,6L9,3"></path>
 <path fill="white" d="M0,6L3,6L3,9L0,9L0,6M6,6L9,6L9,9L6,9L6,6M3,9L6,9L6,12L3,12L3,9M9,9L12,9L12,12L9,12L9,9"></path>
 </pattern>
 <pattern y="0" x="0" height="12" width="12" patternUnits="userSpaceOnUse" id="cp5pattern">
 <rect class="cp5color" height="12" width="12" y="0" x="0"></rect>
 <path fill="black" d="M0,0L3,0L3,3L0,3L0,0M6,0L9,0L9,3L6,3L6,0M3,3L6,3L6,6L3,6L3,3M9,3L12,3L12,6L9,6L9,3"></path>
 <path fill="black" d="M0,6L3,6L3,9L0,9L0,6M6,6L9,6L9,9L6,9L6,6M3,9L6,9L6,12L3,12L3,9M9,9L12,9L12,12L9,12L9,9"></path>
 </pattern>
 <pattern y="0" x="0" height="12" width="12" patternUnits="userSpaceOnUse" id="cp6pattern">
 <rect class="cp6color" height="12" width="12" y="0" x="0"></rect>
 <path fill="white" d="M0,0L3,0L3,3L0,3L0,0M6,0L9,0L9,3L6,3L6,0M3,3L6,3L6,6L3,6L3,3M9,3L12,3L12,6L9,6L9,3"></path>
 <path fill="white" d="M0,6L3,6L3,9L0,9L0,6M6,6L9,6L9,9L6,9L6,6M3,9L6,9L6,12L3,12L3,9M9,9L12,9L12,12L9,12L9,9"></path>
 </pattern>
 <pattern y="0" x="0" height="12" width="12" patternUnits="userSpaceOnUse" id="cp7pattern">
 <rect class="cp7color" height="12" width="12" y="0" x="0"></rect>
 <path fill="black" d="M0,0L3,0L3,3L0,3L0,0M6,0L9,0L9,3L6,3L6,0M3,3L6,3L6,6L3,6L3,3M9,3L12,3L12,6L9,6L9,3"></path>
 <path fill="black" d="M0,6L3,6L3,9L0,9L0,6M6,6L9,6L9,9L6,9L6,6M3,9L6,9L6,12L3,12L3,9M9,9L12,9L12,12L9,12L9,9"></path>
 </pattern>
 <pattern y="0" x="0" height="12" width="12" patternUnits="userSpaceOnUse" id="cp8pattern">
 <rect class="cp8color" height="12" width="12" y="0" x="0"></rect>
 <path fill="white" d="M0,0L3,0L3,3L0,3L0,0M6,0L9,0L9,3L6,3L6,0M3,3L6,3L6,6L3,6L3,3M9,3L12,3L12,6L9,6L9,3"></path>
 <path fill="white" d="M0,6L3,6L3,9L0,9L0,6M6,6L9,6L9,9L6,9L6,6M3,9L6,9L6,12L3,12L3,9M9,9L12,9L12,12L9,12L9,9"></path>
 </pattern>
 <pattern y="0" x="0" height="12" width="12" patternUnits="userSpaceOnUse" id="cp9pattern">
 <rect class="cp9color" height="12" width="12" y="0" x="0"></rect>
 <path fill="black" d="M0,0L3,0L3,3L0,3L0,0M6,0L9,0L9,3L6,3L6,0M3,3L6,3L6,6L3,6L3,3M9,3L12,3L12,6L9,6L9,3"></path>
 <path fill="black" d="M0,6L3,6L3,9L0,9L0,6M6,6L9,6L9,9L6,9L6,6M3,9L6,9L6,12L3,12L3,9M9,9L12,9L12,12L9,12L9,9"></path>
 </pattern>
 </defs>
 <rect height="100%" width="100%" y="0" x="0" class="grass" id="mainfill"></rect>
 <g id="paths"><path d="M540,24L540,24L708,24L708,36L768,36L768,48L816,48L816,60L852,60L852,72L876,72L876,84L900,84L900,96L912,96L912,108L936,108L936,120L948,120L948,132L960,132L960,144L984,144L984,156L996,156L996,168L1020,168L1020,180L1032,180L1032,192L1056,192L1056,204L1080,204L1080,216L1092,216L1092,228L1116,228L1116,240L1128,240L1128,252L1152,252L1152,264L1164,264L1164,276L1188,276L1188,288L1212,288L1212,300L1224,300L1224,312L1248,312L1248,324L1260,324L1260,336L1284,336L1284,348L1296,348L1296,360L1320,360L1320,372L1332,372L1332,384L1356,384L1356,396L1380,396L1380,408L1392,408L1392,420L1416,420L1416,432L1440,432L1440,444L1452,444L1452,456L1536,456L1536,444L1572,444L1572,456L1620,456L1620,468L1668,468L1668,480L1692,480L1692,492L1716,492L1716,504L1740,504L1740,516L1764,516L1764,528L1776,528L1776,540L1800,540L1800,552L1812,552L1812,564L1836,564L1836,576L1848,576L1848,588L1860,588L1860,600L1872,600L1872,612L1884,612L1884,624L1896,624L1896,636L1908,636L1908,648L1920,648L1920,672L1932,672L1932,744L1920,744L1920,768L1908,768L1908,792L1896,792L1896,804L1884,804L1884,816L1860,816L1860,828L1836,828L1836,840L1800,840L1800,852L1572,852L1572,840L852,840L852,828L732,828L732,816L684,816L684,804L660,804L660,792L648,792L648,780L636,780L636,744L648,744L648,720L660,720L660,708L672,708L672,696L684,696L684,684L708,684L708,672L732,672L732,660L768,660L768,648L804,648L804,636L828,636L828,600L816,600L816,588L804,588L804,576L780,576L780,564L768,564L768,552L744,552L744,540L732,540L732,528L708,528L708,516L684,516L684,504L660,504L660,492L624,492L624,480L588,480L588,468L540,468L540,480L528,480L528,504L540,504L540,516L552,516L552,528L576,528L576,540L600,540L600,552L624,552L624,564L636,564L636,576L648,576L648,612L636,612L636,636L612,636L612,648L588,648L588,660L564,660L564,672L552,672L552,684L528,684L528,696L504,696L504,708L492,708L492,720L468,720L468,732L444,732L444,744L420,744L420,756L408,756L408,768L384,768L384,780L360,780L360,792L336,792L336,804L312,804L312,816L288,816L288,828L264,828L264,840L216,840L216,852L108,852L108,840L72,840L72,828L48,828L48,816L36,816L36,792L24,792L24,768L36,768L36,744L48,744L48,732L60,732L60,720L72,720L72,708L96,708L96,696L108,696L108,684L120,684L120,672L144,672L144,660L156,660L156,648L180,648L180,636L204,636L204,624L228,624L228,612L252,612L252,600L276,600L276,576L288,576L288,540L276,540L276,528L264,528L264,504L252,504L252,492L240,492L240,468L228,468L228,456L216,456L216,432L204,432L204,420L192,420L192,396L180,396L180,384L168,384L168,372L156,372L156,348L144,348L144,336L132,336L132,324L120,324L120,300L108,300L108,276L96,276L96,252L84,252L84,204L96,204L96,180L108,180L108,168L120,168L120,156L132,156L132,144L156,144L156,132L180,132L180,120L216,120L216,108L252,108L252,96L288,96L288,84L324,84L324,72L360,72L360,60L408,60L408,48L468,48L468,36L540,36L540,24M1212,60L1212,60L1224,60L1224,72L1236,72L1236,84L1224,84L1224,120L1212,120L1212,60M1260,60L1260,60L1272,60L1272,120L1260,120L1260,108L1248,108L1248,96L1236,96L1236,84L1248,84L1248,96L1260,96L1260,60M1284,60L1284,60L1296,60L1296,72L1284,72L1284,60M1320,60L1320,60L1332,60L1332,72L1320,72L1320,60M1344,60L1344,60L1380,60L1380,72L1356,72L1356,84L1380,84L1380,72L1392,72L1392,84L1380,84L1380,108L1368,108L1368,96L1356,96L1356,120L1344,120L1344,60M1404,60L1404,60L1440,60L1440,72L1416,72L1416,84L1440,84L1440,72L1452,72L1452,84L1440,84L1440,96L1416,96L1416,108L1440,108L1440,96L1452,96L1452,108L1440,108L1440,120L1404,120L1404,60M1464,60L1464,60L1476,60L1476,108L1500,108L1500,60L1512,60L1512,120L1464,120L1464,60M1524,60L1524,60L1560,60L1560,72L1536,72L1536,84L1560,84L1560,72L1572,72L1572,84L1560,84L1560,108L1548,108L1548,96L1536,96L1536,120L1524,120L1524,60M1584,60L1584,60L1632,60L1632,72L1596,72L1596,108L1620,108L1620,96L1608,96L1608,84L1632,84L1632,120L1584,120L1584,60M1644,60L1644,60L1680,60L1680,72L1656,72L1656,84L1680,84L1680,72L1692,72L1692,84L1680,84L1680,108L1668,108L1668,96L1656,96L1656,120L1644,120L1644,60M1704,60L1704,60L1716,60L1716,120L1704,120L1704,60M1728,60L1728,60L1740,60L1740,72L1752,72L1752,84L1740,84L1740,120L1728,120L1728,60M1776,60L1776,60L1788,60L1788,120L1776,120L1776,108L1764,108L1764,96L1752,96L1752,84L1764,84L1764,96L1776,96L1776,60M1800,60L1800,60L1848,60L1848,72L1812,72L1812,108L1836,108L1836,96L1824,96L1824,84L1848,84L1848,120L1800,120L1800,60M564,96L564,96L552,96L552,108L504,108L504,120L456,120L456,132L408,132L408,144L360,144L360,156L324,156L324,168L288,168L288,180L252,180L252,192L216,192L216,204L192,204L192,228L180,228L180,264L192,264L192,276L204,276L204,300L216,300L216,312L228,312L228,336L240,336L240,348L252,348L252,372L264,372L264,384L276,384L276,408L288,408L288,420L300,420L300,432L312,432L312,456L324,456L324,468L336,468L336,480L348,480L348,504L360,504L360,516L372,516L372,540L384,540L384,588L372,588L372,612L360,612L360,624L348,624L348,636L324,636L324,648L312,648L312,660L288,660L288,672L264,672L264,684L240,684L240,696L228,696L228,708L204,708L204,720L180,720L180,732L156,732L156,744L144,744L144,756L132,756L132,768L120,768L120,780L132,780L132,792L192,792L192,780L216,780L216,768L240,768L240,756L264,756L264,744L288,744L288,732L312,732L312,720L336,720L336,708L348,708L348,696L372,696L372,684L396,684L396,672L408,672L408,660L432,660L432,648L456,648L456,636L480,636L480,624L504,624L504,612L516,612L516,576L504,576L504,564L480,564L480,552L468,552L468,540L444,540L444,528L432,528L432,504L420,504L420,468L432,468L432,444L444,444L444,432L456,432L456,420L468,420L468,408L492,408L492,396L600,396L600,408L648,408L648,420L696,420L696,432L732,432L732,444L756,444L756,456L780,456L780,468L804,468L804,480L816,480L816,492L840,492L840,504L852,504L852,516L876,516L876,528L888,528L888,540L900,540L900,552L912,552L912,564L924,564L924,576L936,576L936,600L948,600L948,648L936,648L936,660L924,660L924,672L900,672L900,684L876,684L876,696L852,696L852,708L816,708L816,720L792,720L792,732L780,732L780,756L828,756L828,744L864,744L864,732L912,732L912,720L1692,720L1692,732L1728,732L1728,744L1752,744L1752,756L1776,756L1776,768L1800,768L1800,756L1824,756L1824,732L1836,732L1836,708L1824,708L1824,684L1812,684L1812,660L1800,660L1800,648L1788,648L1788,636L1776,636L1776,624L1752,624L1752,612L1740,612L1740,600L1716,600L1716,588L1692,588L1692,576L1668,576L1668,564L1644,564L1644,552L1632,552L1632,540L1596,540L1596,528L1524,528L1524,540L1476,540L1476,528L1440,528L1440,516L1416,516L1416,504L1392,504L1392,492L1368,492L1368,480L1344,480L1344,468L1332,468L1332,456L1308,456L1308,444L1296,444L1296,432L1272,432L1272,420L1260,420L1260,408L1236,408L1236,396L1224,396L1224,384L1200,384L1200,372L1176,372L1176,360L1164,360L1164,348L1140,348L1140,336L1116,336L1116,324L1104,324L1104,312L1080,312L1080,300L1056,300L1056,288L1044,288L1044,276L1020,276L1020,264L1008,264L1008,252L984,252L984,240L960,240L960,228L948,228L948,216L924,216L924,204L912,204L912,192L888,192L888,180L876,180L876,168L852,168L852,156L840,156L840,144L816,144L816,132L792,132L792,120L768,120L768,108L696,108L696,96L564,96M1284,84L1284,84L1296,84L1296,108L1320,108L1320,84L1332,84L1332,120L1284,120L1284,84M1380,108L1380,108L1392,108L1392,120L1380,120L1380,108M1560,108L1560,108L1572,108L1572,120L1560,120L1560,108M1680,108L1680,108L1692,108L1692,120L1680,120L1680,108M1788,168L1788,168L1848,168L1848,180L1824,180L1824,192L1836,192L1836,204L1824,204L1824,228L1800,228L1800,216L1788,216L1788,204L1800,204L1800,216L1812,216L1812,180L1788,180L1788,168M1476,480L1476,480L1464,480L1464,492L1488,492L1488,504L1536,504L1536,492L1512,492L1512,480L1476,480M1548,480L1548,480L1536,480L1536,492L1560,492L1560,480L1548,480M1572,492L1572,492L1560,492L1560,504L1584,504L1584,492L1572,492M960,744L960,744L948,744L948,756L900,756L900,768L1692,768L1692,756L1644,756L1644,744Z" class="road"></path><path d="M144,792L144,792L156,792L156,852L144,852Z" class="cp1"></path><path d="M84,240L84,240L180,240L180,252L84,252Z" class="cp2"></path><path d="M1488,456L1488,456L1500,456L1500,480L1488,480L1488,456M1524,504L1524,504L1536,504L1536,528L1524,528Z" class="cp3"></path><path d="M0,0L0,0L12,0L12,192L0,192Z" class="parc"></path><path d="M1344,720L1344,720L1356,720L1356,732L1344,732L1344,720M1356,732L1356,732L1368,732L1368,720L1380,720L1380,732L1368,732L1368,744L1356,744L1356,732M1344,768L1344,768L1356,768L1356,780L1344,780L1344,768M1356,780L1356,780L1368,780L1368,768L1380,768L1380,780L1368,780L1368,792L1356,792L1356,780M1368,792L1368,792L1380,792L1380,804L1368,804L1368,792M1356,792L1356,792L1356,804L1344,804L1344,792L1356,792M1356,804L1356,804L1368,804L1368,816L1356,816L1356,804M1368,816L1368,816L1380,816L1380,828L1368,828L1368,816M1356,816L1356,816L1356,828L1344,828L1344,816L1356,816M1356,828L1356,828L1368,828L1368,840L1356,840Z" class="start"></path><path d="M1380,720L1380,720L1392,720L1392,744L1380,744L1380,720M1380,768L1380,768L1392,768L1392,840L1380,840Z" class="finish"></path></g>
 <rect opacity=".3" fill="url(#grid)" height="100%" width="100%" y="0" x="0"></rect>
</svg>