<svg xmlns:xlink="http://www.w3.org/1999/xlink" xmlns="http://www.w3.org/2000/svg" height="996" width="1776" id="mapSvgView" version="1.1" style="width: 1776px; height: 996px;" viewBox="0 0 1776 996">
 <defs>
 <pattern y="0" x="0" height="24" width="24" patternUnits="userSpaceOnUse" id="grassPattern">
 <rect class="grasscolor" height="24" width="24" y="0" x="0"></rect>
 <rect class="grassspeclecolor" height="1" width="1" x="1" y="5"></rect>
 <rect class="grassspeclecolor" height="1" width="1" x="1" y="5"></rect>
 <rect class="grassspeclecolor" height="1" width="1" x="3" y="5"></rect>
 <rect class="grassspeclecolor" height="1" width="1" x="6" y="7"></rect>
 <rect class="grassspeclecolor" height="1" width="1" x="6" y="17"></rect>
 <rect class="grassspeclecolor" height="1" width="1" x="8" y="21"></rect>
 <rect class="grassspeclecolor" height="1" width="1" x="9" y="2"></rect>
 <rect class="grassspeclecolor" height="1" width="1" x="12" y="4"></rect>
 <rect class="grassspeclecolor" height="1" width="1" x="13" y="15"></rect>
 <rect class="grassspeclecolor" height="1" width="1" x="14" y="4"></rect>
 <rect class="grassspeclecolor" height="1" width="1" x="14" y="19"></rect>
 <rect class="grassspeclecolor" height="1" width="1" x="17" y="7"></rect>
 <rect class="grassspeclecolor" height="1" width="1" x="17" y="12"></rect>
 <rect class="grassspeclecolor" height="1" width="1" x="18" y="23"></rect>
 <rect class="grassspeclecolor" height="1" width="1" x="21" y="16"></rect>
 <rect class="grassspeclecolor" height="1" width="1" x="23" y="12"></rect>
 </pattern>
 <pattern y="0" x="0" height="24" width="24" patternUnits="userSpaceOnUse" id="roadPattern">
 <rect class="roadcolor" height="24" width="24" y="0" x="0"></rect>
 <rect class="roadspeclecolor" height="1" width="1" x="1" y="5"></rect>
 <rect class="roadspeclecolor" height="1" width="1" x="1" y="5"></rect>
 <rect class="roadspeclecolor" height="1" width="1" x="3" y="5"></rect>
 <rect class="roadspeclecolor" height="1" width="1" x="6" y="7"></rect>
 <rect class="roadspeclecolor" height="1" width="1" x="6" y="17"></rect>
 <rect class="roadspeclecolor" height="1" width="1" x="8" y="21"></rect>
 <rect class="roadspeclecolor" height="1" width="1" x="9" y="2"></rect>
 <rect class="roadspeclecolor" height="1" width="1" x="12" y="4"></rect>
 <rect class="roadspeclecolor" height="1" width="1" x="13" y="15"></rect>
 <rect class="roadspeclecolor" height="1" width="1" x="14" y="4"></rect>
 <rect class="roadspeclecolor" height="1" width="1" x="14" y="19"></rect>
 <rect class="roadspeclecolor" height="1" width="1" x="17" y="7"></rect>
 <rect class="roadspeclecolor" height="1" width="1" x="17" y="12"></rect>
 <rect class="roadspeclecolor" height="1" width="1" x="18" y="23"></rect>
 <rect class="roadspeclecolor" height="1" width="1" x="21" y="16"></rect>
 <rect class="roadspeclecolor" height="1" width="1" x="23" y="12"></rect>
 </pattern>
 <pattern y="0" x="0" height="12" width="12" patternUnits="userSpaceOnUse" id="grid">
 <line stroke-width="1" stroke="black" y2="12" x2="12" y1="0" x1="12"></line>
 <line stroke-width="1" stroke="black" y2="12" x2="12" y1="12" x1="0"></line>
 </pattern>
 <pattern y="0" x="0" height="12" width="12" patternUnits="userSpaceOnUse" id="finishPattern">
 <rect fill="black" height="12" width="12" y="0" x="0"></rect>
 <path fill="white" d="M0,0L3,0L3,3L0,3L0,0M6,0L9,0L9,3L6,3L6,0M3,3L6,3L6,6L3,6L3,3M9,3L12,3L12,6L9,6L9,3"></path>
 <path fill="white" d="M0,6L3,6L3,9L0,9L0,6M6,6L9,6L9,9L6,9L6,6M3,9L6,9L6,12L3,12L3,9M9,9L12,9L12,12L9,12L9,9"></path>
 </pattern>
 <pattern y="0" x="0" height="12" width="12" patternUnits="userSpaceOnUse" id="startPattern">
 <rect fill="rgb(100,100,100)" height="12" width="12" y="0" x="0"></rect>
 <rect stroke-width="1" stroke="rgb(200,200,200)" fill="none" height="5" width="5" y="3.5" x="3.5"></rect>
 </pattern>
 <pattern y="0" x="0" height="12" width="12" patternUnits="userSpaceOnUse" id="cp1pattern">
 <rect class="cp1color" height="12" width="12" y="0" x="0"></rect>
 <path fill="black" d="M0,0L3,0L3,3L0,3L0,0M6,0L9,0L9,3L6,3L6,0M3,3L6,3L6,6L3,6L3,3M9,3L12,3L12,6L9,6L9,3"></path>
 <path fill="black" d="M0,6L3,6L3,9L0,9L0,6M6,6L9,6L9,9L6,9L6,6M3,9L6,9L6,12L3,12L3,9M9,9L12,9L12,12L9,12L9,9"></path>
 </pattern>
 <pattern y="0" x="0" height="12" width="12" patternUnits="userSpaceOnUse" id="cp2pattern">
 <rect class="cp2color" height="12" width="12" y="0" x="0"></rect>
 <path fill="white" d="M0,0L3,0L3,3L0,3L0,0M6,0L9,0L9,3L6,3L6,0M3,3L6,3L6,6L3,6L3,3M9,3L12,3L12,6L9,6L9,3"></path>
 <path fill="white" d="M0,6L3,6L3,9L0,9L0,6M6,6L9,6L9,9L6,9L6,6M3,9L6,9L6,12L3,12L3,9M9,9L12,9L12,12L9,12L9,9"></path>
 </pattern>
 <pattern y="0" x="0" height="12" width="12" patternUnits="userSpaceOnUse" id="cp3pattern">
 <rect class="cp3color" height="12" width="12" y="0" x="0"></rect>
 <path fill="black" d="M0,0L3,0L3,3L0,3L0,0M6,0L9,0L9,3L6,3L6,0M3,3L6,3L6,6L3,6L3,3M9,3L12,3L12,6L9,6L9,3"></path>
 <path fill="black" d="M0,6L3,6L3,9L0,9L0,6M6,6L9,6L9,9L6,9L6,6M3,9L6,9L6,12L3,12L3,9M9,9L12,9L12,12L9,12L9,9"></path>
 </pattern>
 <pattern y="0" x="0" height="12" width="12" patternUnits="userSpaceOnUse" id="cp4pattern">
 <rect class="cp4color" height="12" width="12" y="0" x="0"></rect>
 <path fill="white" d="M0,0L3,0L3,3L0,3L0,0M6,0L9,0L9,3L6,3L6,0M3,3L6,3L6,6L3,6L3,3M9,3L12,3L12,6L9,6L9,3"></path>
 <path fill="white" d="M0,6L3,6L3,9L0,9L0,6M6,6L9,6L9,9L6,9L6,6M3,9L6,9L6,12L3,12L3,9M9,9L12,9L12,12L9,12L9,9"></path>
 </pattern>
 <pattern y="0" x="0" height="12" width="12" patternUnits="userSpaceOnUse" id="cp5pattern">
 <rect class="cp5color" height="12" width="12" y="0" x="0"></rect>
 <path fill="black" d="M0,0L3,0L3,3L0,3L0,0M6,0L9,0L9,3L6,3L6,0M3,3L6,3L6,6L3,6L3,3M9,3L12,3L12,6L9,6L9,3"></path>
 <path fill="black" d="M0,6L3,6L3,9L0,9L0,6M6,6L9,6L9,9L6,9L6,6M3,9L6,9L6,12L3,12L3,9M9,9L12,9L12,12L9,12L9,9"></path>
 </pattern>
 <pattern y="0" x="0" height="12" width="12" patternUnits="userSpaceOnUse" id="cp6pattern">
 <rect class="cp6color" height="12" width="12" y="0" x="0"></rect>
 <path fill="white" d="M0,0L3,0L3,3L0,3L0,0M6,0L9,0L9,3L6,3L6,0M3,3L6,3L6,6L3,6L3,3M9,3L12,3L12,6L9,6L9,3"></path>
 <path fill="white" d="M0,6L3,6L3,9L0,9L0,6M6,6L9,6L9,9L6,9L6,6M3,9L6,9L6,12L3,12L3,9M9,9L12,9L12,12L9,12L9,9"></path>
 </pattern>
 <pattern y="0" x="0" height="12" width="12" patternUnits="userSpaceOnUse" id="cp7pattern">
 <rect class="cp7color" height="12" width="12" y="0" x="0"></rect>
 <path fill="black" d="M0,0L3,0L3,3L0,3L0,0M6,0L9,0L9,3L6,3L6,0M3,3L6,3L6,6L3,6L3,3M9,3L12,3L12,6L9,6L9,3"></path>
 <path fill="black" d="M0,6L3,6L3,9L0,9L0,6M6,6L9,6L9,9L6,9L6,6M3,9L6,9L6,12L3,12L3,9M9,9L12,9L12,12L9,12L9,9"></path>
 </pattern>
 <pattern y="0" x="0" height="12" width="12" patternUnits="userSpaceOnUse" id="cp8pattern">
 <rect class="cp8color" height="12" width="12" y="0" x="0"></rect>
 <path fill="white" d="M0,0L3,0L3,3L0,3L0,0M6,0L9,0L9,3L6,3L6,0M3,3L6,3L6,6L3,6L3,3M9,3L12,3L12,6L9,6L9,3"></path>
 <path fill="white" d="M0,6L3,6L3,9L0,9L0,6M6,6L9,6L9,9L6,9L6,6M3,9L6,9L6,12L3,12L3,9M9,9L12,9L12,12L9,12L9,9"></path>
 </pattern>
 <pattern y="0" x="0" height="12" width="12" patternUnits="userSpaceOnUse" id="cp9pattern">
 <rect class="cp9color" height="12" width="12" y="0" x="0"></rect>
 <path fill="black" d="M0,0L3,0L3,3L0,3L0,0M6,0L9,0L9,3L6,3L6,0M3,3L6,3L6,6L3,6L3,3M9,3L12,3L12,6L9,6L9,3"></path>
 <path fill="black" d="M0,6L3,6L3,9L0,9L0,6M6,6L9,6L9,9L6,9L6,6M3,9L6,9L6,12L3,12L3,9M9,9L12,9L12,12L9,12L9,9"></path>
 </pattern>
 </defs>
 <rect height="100%" width="100%" y="0" x="0" class="sand" id="mainfill"></rect>
 <g id="paths"><path d="M24,240L24,240L1752,240L1752,264L1740,264L1740,276L1728,276L1728,288L1716,288L1716,300L1704,300L1704,312L1692,312L1692,324L1680,324L1680,336L1668,336L1668,348L1656,348L1656,360L1644,360L1644,372L1632,372L1632,384L1620,384L1620,396L1608,396L1608,408L1596,408L1596,420L1584,420L1584,432L1572,432L1572,444L1560,444L1560,456L1548,456L1548,468L1536,468L1536,480L1524,480L1524,492L1512,492L1512,504L1500,504L1500,516L1488,516L1488,528L1476,528L1476,540L1464,540L1464,552L1452,552L1452,564L1440,564L1440,576L1428,576L1428,588L1416,588L1416,600L1404,600L1404,612L1392,612L1392,624L1380,624L1380,636L1368,636L1368,648L1356,648L1356,660L1344,660L1344,672L1332,672L1332,684L1320,684L1320,696L1308,696L1308,708L1296,708L1296,720L1284,720L1284,732L1272,732L1272,744L1260,744L1260,756L1248,756L1248,768L1236,768L1236,780L1224,780L1224,792L1212,792L1212,804L1200,804L1200,816L1188,816L1188,828L1176,828L1176,840L1164,840L1164,852L1152,852L1152,864L1140,864L1140,876L1128,876L1128,888L1116,888L1116,900L1104,900L1104,912L1092,912L1092,924L1080,924L1080,936L1068,936L1068,948L1056,948L1056,936L1044,936L1044,924L1032,924L1032,912L1020,912L1020,900L1032,900L1032,888L1044,888L1044,876L1056,876L1056,864L1068,864L1068,852L1080,852L1080,840L1092,840L1092,828L1104,828L1104,816L1116,816L1116,804L1128,804L1128,792L1140,792L1140,780L1152,780L1152,768L1164,768L1164,756L1176,756L1176,744L1188,744L1188,732L1200,732L1200,720L1212,720L1212,708L1224,708L1224,696L1236,696L1236,684L1248,684L1248,672L1260,672L1260,660L1272,660L1272,648L1284,648L1284,636L1296,636L1296,624L1308,624L1308,612L1320,612L1320,600L1332,600L1332,588L1344,588L1344,576L1356,576L1356,564L1368,564L1368,552L1380,552L1380,540L1392,540L1392,528L1404,528L1404,516L1416,516L1416,504L1428,504L1428,492L1440,492L1440,480L1452,480L1452,468L1464,468L1464,456L1476,456L1476,444L1488,444L1488,432L1500,432L1500,420L1512,420L1512,408L1524,408L1524,396L1536,396L1536,384L1548,384L1548,372L1560,372L1560,360L1572,360L1572,348L1584,348L1584,336L1596,336L1596,324L1608,324L1608,300L156,300L156,324L168,324L168,336L180,336L180,348L192,348L192,360L204,360L204,372L216,372L216,384L228,384L228,396L240,396L240,408L252,408L252,420L264,420L264,432L276,432L276,444L288,444L288,456L300,456L300,468L312,468L312,480L324,480L324,492L336,492L336,504L348,504L348,516L360,516L360,528L372,528L372,540L384,540L384,552L396,552L396,564L408,564L408,576L420,576L420,588L432,588L432,600L444,600L444,612L456,612L456,624L468,624L468,636L480,636L480,648L492,648L492,660L504,660L504,672L516,672L516,684L528,684L528,696L540,696L540,708L552,708L552,720L564,720L564,732L576,732L576,744L588,744L588,756L600,756L600,768L612,768L612,780L624,780L624,792L636,792L636,804L648,804L648,816L660,816L660,828L672,828L672,840L684,840L684,852L696,852L696,864L708,864L708,876L720,876L720,888L732,888L732,900L756,900L756,888L768,888L768,876L780,876L780,816L768,816L768,780L756,780L756,756L744,756L744,684L732,684L732,612L720,612L720,408L744,408L744,396L828,396L828,408L876,408L876,396L960,396L960,408L984,408L984,612L972,612L972,684L960,684L960,756L948,756L948,780L936,780L936,816L924,816L924,936L912,936L912,948L900,948L900,960L876,960L876,972L732,972L732,960L720,960L720,948L708,948L708,936L696,936L696,924L684,924L684,912L672,912L672,900L660,900L660,888L648,888L648,876L636,876L636,864L624,864L624,852L612,852L612,840L600,840L600,828L588,828L588,816L576,816L576,804L564,804L564,792L552,792L552,780L540,780L540,768L528,768L528,756L516,756L516,744L504,744L504,732L492,732L492,720L480,720L480,708L468,708L468,696L456,696L456,684L444,684L444,672L432,672L432,660L420,660L420,648L408,648L408,636L396,636L396,624L384,624L384,612L372,612L372,600L360,600L360,588L348,588L348,576L336,576L336,564L324,564L324,552L312,552L312,540L300,540L300,528L288,528L288,516L276,516L276,504L264,504L264,492L252,492L252,480L240,480L240,468L228,468L228,456L216,456L216,444L204,444L204,432L192,432L192,420L180,420L180,408L168,408L168,396L156,396L156,384L144,384L144,372L132,372L132,360L120,360L120,348L108,348L108,336L96,336L96,324L84,324L84,312L72,312L72,300L60,300L60,288L48,288L48,276L36,276L36,264L24,264L24,240M780,432L780,432L768,432L768,600L780,600L780,672L792,672L792,708L804,708L804,732L816,732L816,756L828,756L828,768L840,768L840,792L864,792L864,768L876,768L876,756L888,756L888,732L900,732L900,708L912,708L912,672L924,672L924,600L936,600L936,432L900,432L900,564L888,564L888,576L816,576L816,564L804,564L804,432Z" class="road"></path><path d="M0,0L0,0L12,0L12,72L0,72L0,0M204,576L204,576L216,576L216,588L204,588L204,576M204,588L204,588L204,612L192,612L192,588L204,588M48,588L48,588L72,588L72,636L60,636L60,672L48,672L48,624L36,624L36,600L48,600L48,588M60,600L60,600L48,600L48,624L60,624L60,600M192,612L192,612L192,672L144,672L144,648L132,648L132,624L108,624L108,612L144,612L144,636L156,636L156,624L168,624L168,612L192,612M108,624L108,624L108,636L96,636L96,624L108,624M180,624L180,624L168,624L168,636L156,636L156,660L180,660L180,624M228,612L228,612L240,612L240,648L228,648L228,612M264,612L264,612L276,612L276,624L264,624L264,612M264,624L264,624L264,684L252,684L252,672L216,672L216,648L228,648L228,660L252,660L252,624L264,624M300,612L300,612L324,612L324,624L300,624L300,612M300,624L300,624L300,636L312,636L312,660L300,660L300,648L288,648L288,624L300,624M96,636L96,636L96,660L120,660L120,648L132,648L132,660L120,660L120,672L84,672L84,636L96,636M300,660L300,660L300,672L276,672L276,660L300,660M48,672L48,672L48,684L36,684L36,672L48,672M36,684L36,684L36,696L12,696L12,684L36,684M252,684L252,684L252,696L240,696L240,684L252,684M240,696L240,696L240,708L204,708L204,696L240,696M132,708L132,708L144,708L144,720L132,720L132,708M132,720L132,720L132,732L120,732L120,720L132,720M60,720L60,720L72,720L72,732L60,732L60,720M60,732L60,732L60,744L48,744L48,732L60,732M120,732L120,732L120,780L108,780L108,732L120,732M48,744L48,744L48,768L72,768L72,756L84,756L84,768L72,768L72,780L60,780L60,804L48,804L48,780L36,780L36,744L48,744M204,732L204,732L216,732L216,744L204,744L204,732M156,756L156,756L180,756L180,780L168,780L168,768L156,768L156,756M156,768L156,768L156,780L168,780L168,792L144,792L144,768L156,768M192,756L192,756L204,756L204,792L192,792L192,756M228,756L228,756L240,756L240,768L264,768L264,756L276,756L276,768L264,768L264,804L276,804L276,816L252,816L252,780L240,780L240,792L228,792L228,756M312,756L312,756L336,756L336,780L324,780L324,768L312,768L312,756M312,768L312,768L312,780L324,780L324,792L300,792L300,768L312,768M36,780L36,780L36,816L24,816L24,780L36,780M108,780L108,780L108,804L120,804L120,792L144,792L144,804L120,804L120,816L96,816L96,780L108,780M168,792L168,792L192,792L192,804L204,804L204,816L180,816L180,804L168,804L168,792M228,792L228,792L228,816L216,816L216,792L228,792M300,792L300,792L300,804L288,804L288,792L300,792M324,792L324,792L336,792L336,804L324,804L324,792M60,804L60,804L72,804L72,816L84,816L84,828L108,828L108,840L72,840L72,828L60,828L60,804M144,804L144,804L168,804L168,816L144,816L144,804M300,804L300,804L324,804L324,816L300,816L300,804M564,852L564,852L576,852L576,864L564,864L564,852M564,864L564,864L564,876L552,876L552,864L564,864M204,864L204,864L216,864L216,876L204,876L204,864M204,876L204,876L204,888L192,888L192,912L204,912L204,900L228,900L228,912L216,912L216,948L228,948L228,960L204,960L204,924L180,924L180,876L204,876M420,864L420,864L432,864L432,876L420,876L420,864M420,876L420,876L420,888L408,888L408,912L420,912L420,900L444,900L444,912L432,912L432,948L444,948L444,960L420,960L420,924L396,924L396,876L420,876M552,876L552,876L552,924L540,924L540,876L552,876M48,876L48,876L120,876L120,888L84,888L84,912L72,912L72,888L48,888L48,876M48,888L48,888L48,924L36,924L36,888L48,888M72,912L72,912L72,924L84,924L84,936L72,936L72,960L60,960L60,912L72,912M132,900L132,900L168,900L168,912L156,912L156,960L108,960L108,924L120,924L120,912L132,912L132,900M144,912L144,912L132,912L132,924L120,924L120,948L144,948L144,912M252,900L252,900L264,900L264,912L276,912L276,900L288,900L288,912L276,912L276,924L264,924L264,936L252,936L252,900M312,900L312,900L336,900L336,912L312,912L312,900M312,912L312,912L312,924L324,924L324,948L312,948L312,936L300,936L300,912L312,912M336,912L336,912L360,912L360,900L384,900L384,912L360,912L360,924L348,924L348,948L372,948L372,960L336,960L336,912M468,900L468,900L480,900L480,936L468,936L468,900M504,900L504,900L516,900L516,912L504,912L504,900M504,912L504,912L504,960L456,960L456,936L468,936L468,948L492,948L492,912L504,912M588,900L588,900L612,900L612,924L600,924L600,912L588,912L588,900M588,912L588,912L588,924L600,924L600,936L576,936L576,912L588,912M180,924L180,924L180,960L168,960L168,924L180,924M396,924L396,924L396,960L384,960L384,924L396,924M540,924L540,924L540,948L552,948L552,936L576,936L576,948L552,948L552,960L528,960L528,924L540,924M252,936L252,936L252,960L240,960L240,936L252,936M600,936L600,936L612,936L612,948L600,948L600,936M312,948L312,948L312,960L288,960L288,948L312,948M576,948L576,948L600,948L600,960L576,960L576,948M60,960L60,960L60,972L48,972L48,960L60,960M48,972L48,972L48,984L24,984L24,972Z" class="parc"></path><path d="M60,12L60,12L120,12L120,24L144,24L144,48L156,48L156,60L132,60L132,48L120,48L120,36L60,36L60,48L48,48L48,60L36,60L36,120L48,120L48,132L60,132L60,144L120,144L120,132L132,132L132,108L84,108L84,84L156,84L156,144L144,144L144,156L120,156L120,168L60,168L60,156L36,156L36,144L24,144L24,120L12,120L12,60L24,60L24,36L36,36L36,24L60,24L60,12M636,12L636,12L660,12L660,60L672,60L672,48L708,48L708,60L720,60L720,72L732,72L732,144L720,144L720,156L708,156L708,168L672,168L672,156L660,156L660,168L636,168L636,12M192,48L192,48L252,48L252,60L264,60L264,168L240,168L240,156L228,156L228,168L180,168L180,156L168,156L168,108L180,108L180,96L216,96L216,84L240,84L240,72L192,72L192,84L168,84L168,72L180,72L180,60L192,60L192,48M288,48L288,48L348,48L348,60L360,60L360,84L336,84L336,72L300,72L300,84L312,84L312,96L336,96L336,108L348,108L348,120L360,120L360,156L348,156L348,168L288,168L288,156L276,156L276,132L300,132L300,144L336,144L336,132L324,132L324,120L312,120L312,108L288,108L288,96L276,96L276,60L288,60L288,48M444,48L444,48L480,48L480,60L492,60L492,48L516,48L516,192L504,192L504,204L492,204L492,216L432,216L432,204L420,204L420,180L444,180L444,192L480,192L480,180L492,180L492,156L480,156L480,168L444,168L444,156L432,156L432,144L420,144L420,72L432,72L432,60L444,60L444,48M552,48L552,48L600,48L600,60L612,60L612,84L624,84L624,120L552,120L552,132L564,132L564,144L600,144L600,132L624,132L624,144L612,144L612,156L600,156L600,168L552,168L552,156L540,156L540,144L528,144L528,72L540,72L540,60L552,60L552,48M768,48L768,48L816,48L816,60L828,60L828,84L840,84L840,120L768,120L768,132L780,132L780,144L816,144L816,132L840,132L840,144L828,144L828,156L816,156L816,168L768,168L768,156L756,156L756,144L744,144L744,72L756,72L756,60L768,60L768,48M852,48L852,48L876,48L876,60L888,60L888,48L936,48L936,60L948,60L948,168L924,168L924,72L888,72L888,84L876,84L876,168L852,168L852,48M468,72L468,72L456,72L456,84L444,84L444,132L456,132L456,144L480,144L480,132L492,132L492,84L480,84L480,72L468,72M576,72L576,72L564,72L564,84L552,84L552,96L600,96L600,84L588,84L588,72L576,72M684,72L684,72L672,72L672,84L660,84L660,132L672,132L672,144L696,144L696,132L708,132L708,84L696,84L696,72L684,72M792,72L792,72L780,72L780,84L768,84L768,96L816,96L816,84L804,84L804,72L792,72M228,108L228,108L216,108L216,120L192,120L192,144L228,144L228,132L240,132L240,108L228,108M12,228L12,228L948,228L948,240L24,240L24,252L12,252L12,228M1752,252L1752,252L1764,252L1764,264L1752,264L1752,252M1752,264L1752,264L1752,276L1740,276L1740,264L1752,264M1740,276L1740,276L1740,288L1728,288L1728,276L1740,276M1728,288L1728,288L1728,300L1716,300L1716,288L1728,288M1716,300L1716,300L1716,312L1704,312L1704,300L1716,300M156,300L156,300L948,300L948,312L156,312L156,300M1704,312L1704,312L1704,324L1692,324L1692,312L1704,312M1596,312L1596,312L1608,312L1608,324L1596,324L1596,312M1596,324L1596,324L1596,336L1584,336L1584,324L1596,324M1692,324L1692,324L1692,336L1680,336L1680,324L1692,324M1584,336L1584,336L1584,348L1572,348L1572,336L1584,336M1680,336L1680,336L1680,348L1668,348L1668,336L1680,336M1572,348L1572,348L1572,360L1560,360L1560,348L1572,348M1668,348L1668,348L1668,360L1656,360L1656,348L1668,348M1560,360L1560,360L1560,372L1548,372L1548,360L1560,360M1656,360L1656,360L1656,372L1644,372L1644,360L1656,360M1548,372L1548,372L1548,384L1536,384L1536,372L1548,372M1644,372L1644,372L1644,384L1632,384L1632,372L1644,372M1536,384L1536,384L1536,396L1524,396L1524,384L1536,384M1632,384L1632,384L1632,396L1620,396L1620,384L1632,384M1524,396L1524,396L1524,408L1512,408L1512,396L1524,396M1620,396L1620,396L1620,408L1608,408L1608,396L1620,396M1512,408L1512,408L1512,420L1500,420L1500,408L1512,408M1608,408L1608,408L1608,420L1596,420L1596,408L1608,408M1500,420L1500,420L1500,432L1488,432L1488,420L1500,420M1596,420L1596,420L1596,432L1584,432L1584,420L1596,420M1488,432L1488,432L1488,444L1476,444L1476,432L1488,432M1584,432L1584,432L1584,444L1572,444L1572,432L1584,432M708,432L708,432L720,432L720,612L732,612L732,660L720,660L720,624L708,624L708,432M768,432L768,432L780,432L780,600L768,600L768,432M924,432L924,432L936,432L936,600L924,600L924,432M984,432L984,432L996,432L996,624L984,624L984,660L972,660L972,612L984,612L984,432M1476,444L1476,444L1476,456L1464,456L1464,444L1476,444M1572,444L1572,444L1572,456L1560,456L1560,444L1572,444M1464,456L1464,456L1464,468L1452,468L1452,456L1464,456M1560,456L1560,456L1560,468L1548,468L1548,456L1560,456M1452,468L1452,468L1452,480L1440,480L1440,468L1452,468M1548,468L1548,468L1548,480L1536,480L1536,468L1548,468M1440,480L1440,480L1440,492L1428,492L1428,480L1440,480M1536,480L1536,480L1536,492L1524,492L1524,480L1536,480M792,480L792,480L804,480L804,564L816,564L816,576L888,576L888,564L900,564L900,480L912,480L912,576L900,576L900,588L804,588L804,576L792,576L792,480M1428,492L1428,492L1428,504L1416,504L1416,492L1428,492M1524,492L1524,492L1524,504L1512,504L1512,492L1524,492M1416,504L1416,504L1416,516L1404,516L1404,504L1416,504M1512,504L1512,504L1512,516L1500,516L1500,504L1512,504M1404,516L1404,516L1404,528L1392,528L1392,516L1404,516M1500,516L1500,516L1500,528L1488,528L1488,516L1500,516M1392,528L1392,528L1392,540L1380,540L1380,528L1392,528M1488,528L1488,528L1488,540L1476,540L1476,528L1488,528M1380,540L1380,540L1380,552L1368,552L1368,540L1380,540M1476,540L1476,540L1476,552L1464,552L1464,540L1476,540M1368,552L1368,552L1368,564L1356,564L1356,552L1368,552M1464,552L1464,552L1464,564L1452,564L1452,552L1464,552M1356,564L1356,564L1356,576L1344,576L1344,564L1356,564M1452,564L1452,564L1452,576L1440,576L1440,564L1452,564M408,564L408,564L420,564L420,576L408,576L408,564M420,576L420,576L432,576L432,588L420,588L420,576M1344,576L1344,576L1344,588L1332,588L1332,576L1344,576M1440,576L1440,576L1440,588L1428,588L1428,576L1440,576M432,588L432,588L444,588L444,600L432,600L432,588M1332,588L1332,588L1332,600L1320,600L1320,588L1332,588M1428,588L1428,588L1428,600L1416,600L1416,588L1428,588M444,600L444,600L456,600L456,612L444,612L444,600M780,600L780,600L792,600L792,660L780,660L780,600M924,600L924,600L924,660L912,660L912,600L924,600M1320,600L1320,600L1320,612L1308,612L1308,600L1320,600M1416,600L1416,600L1416,612L1404,612L1404,600L1416,600M456,612L456,612L468,612L468,624L456,624L456,612M1308,612L1308,612L1308,624L1296,624L1296,612L1308,612M1404,612L1404,612L1404,624L1392,624L1392,612L1404,612M372,612L372,612L384,612L384,624L372,624L372,612M384,624L384,624L396,624L396,636L384,636L384,624M468,624L468,624L480,624L480,636L468,636L468,624M1296,624L1296,624L1296,636L1284,636L1284,624L1296,624M1392,624L1392,624L1392,636L1380,636L1380,624L1392,624M396,636L396,636L408,636L408,648L396,648L396,636M480,636L480,636L492,636L492,648L480,648L480,636M1284,636L1284,636L1284,648L1272,648L1272,636L1284,636M1380,636L1380,636L1380,648L1368,648L1368,636L1380,636M408,648L408,648L420,648L420,660L408,660L408,648M492,648L492,648L504,648L504,660L492,660L492,648M1272,648L1272,648L1272,660L1260,660L1260,648L1272,648M1368,648L1368,648L1368,660L1356,660L1356,648L1368,648M420,660L420,660L432,660L432,672L420,672L420,660M504,660L504,660L516,660L516,672L504,672L504,660M1260,660L1260,660L1260,672L1248,672L1248,660L1260,660M1356,660L1356,660L1356,672L1344,672L1344,660L1356,660M432,672L432,672L444,672L444,684L432,684L432,672M516,672L516,672L528,672L528,684L516,684L516,672M1248,672L1248,672L1248,684L1236,684L1236,672L1248,672M1344,672L1344,672L1344,684L1332,684L1332,672L1344,672M444,684L444,684L456,684L456,696L444,696L444,684M528,684L528,684L540,684L540,696L528,696L528,684M1236,684L1236,684L1236,696L1224,696L1224,684L1236,684M1332,684L1332,684L1332,696L1320,696L1320,684L1332,684M456,696L456,696L468,696L468,708L456,708L456,696M540,696L540,696L552,696L552,708L540,708L540,696M1224,696L1224,696L1224,708L1212,708L1212,696L1224,696M1320,696L1320,696L1320,708L1308,708L1308,696L1320,696M468,708L468,708L480,708L480,720L468,720L468,708M552,708L552,708L564,708L564,720L552,720L552,708M1212,708L1212,708L1212,720L1200,720L1200,708L1212,708M1308,708L1308,708L1308,720L1296,720L1296,708L1308,708M480,720L480,720L492,720L492,732L480,732L480,720M564,720L564,720L576,720L576,732L564,732L564,720M1200,720L1200,720L1200,732L1188,732L1188,720L1200,720M1296,720L1296,720L1296,732L1284,732L1284,720L1296,720M492,732L492,732L504,732L504,744L492,744L492,732M576,732L576,732L588,732L588,744L576,744L576,732M1188,732L1188,732L1188,744L1176,744L1176,732L1188,732M1284,732L1284,732L1284,744L1272,744L1272,732L1284,732M504,744L504,744L516,744L516,756L504,756L504,744M588,744L588,744L600,744L600,756L588,756L588,744M1176,744L1176,744L1176,756L1164,756L1164,744L1176,744M1272,744L1272,744L1272,756L1260,756L1260,744L1272,744M516,756L516,756L528,756L528,768L516,768L516,756M600,756L600,756L612,756L612,768L600,768L600,756M1164,756L1164,756L1164,768L1152,768L1152,756L1164,756M1260,756L1260,756L1260,768L1248,768L1248,756L1260,756M528,768L528,768L540,768L540,780L528,780L528,768M612,768L612,768L624,768L624,780L612,780L612,768M1152,768L1152,768L1152,780L1140,780L1140,768L1152,768M1248,768L1248,768L1248,780L1236,780L1236,768L1248,768M540,780L540,780L552,780L552,792L540,792L540,780M624,780L624,780L636,780L636,792L624,792L624,780M1140,780L1140,780L1140,792L1128,792L1128,780L1140,780M1236,780L1236,780L1236,792L1224,792L1224,780L1236,780M552,792L552,792L564,792L564,804L552,804L552,792M636,792L636,792L648,792L648,804L636,804L636,792M1128,792L1128,792L1128,804L1116,804L1116,792L1128,792M1224,792L1224,792L1224,804L1212,804L1212,792L1224,792M564,804L564,804L576,804L576,816L564,816L564,804M648,804L648,804L660,804L660,816L648,816L648,804M1116,804L1116,804L1116,816L1104,816L1104,804L1116,804M1212,804L1212,804L1212,816L1200,816L1200,804L1212,804M576,816L576,816L588,816L588,828L576,828L576,816M660,816L660,816L672,816L672,828L660,828L660,816M1104,816L1104,816L1104,828L1092,828L1092,816L1104,816M1200,816L1200,816L1200,828L1188,828L1188,816L1200,816M588,828L588,828L600,828L600,840L588,840L588,828M672,828L672,828L684,828L684,840L672,840L672,828M1092,828L1092,828L1092,840L1080,840L1080,828L1092,828M1188,828L1188,828L1188,840L1176,840L1176,828L1188,828M600,840L600,840L612,840L612,852L600,852L600,840M684,840L684,840L696,840L696,852L684,852L684,840M1080,840L1080,840L1080,852L1068,852L1068,840L1080,840M1176,840L1176,840L1176,852L1164,852L1164,840L1176,840M612,852L612,852L624,852L624,864L612,864L612,852M696,852L696,852L708,852L708,864L696,864L696,852M1068,852L1068,852L1068,864L1056,864L1056,852L1068,852M1164,852L1164,852L1164,864L1152,864L1152,852L1164,852M624,864L624,864L636,864L636,876L624,876L624,864M708,864L708,864L720,864L720,876L708,876L708,864M1056,864L1056,864L1056,876L1044,876L1044,864L1056,864M1152,864L1152,864L1152,876L1140,876L1140,864L1152,864M636,876L636,876L648,876L648,888L636,888L636,876M720,876L720,876L732,876L732,888L720,888L720,876M1044,876L1044,876L1044,888L1032,888L1032,876L1044,876M1140,876L1140,876L1140,888L1128,888L1128,876L1140,876M648,888L648,888L660,888L660,900L648,900L648,888M732,888L732,888L744,888L744,900L732,900L732,888M1032,888L1032,888L1032,900L1020,900L1020,888L1032,888M1128,888L1128,888L1128,900L1116,900L1116,888L1128,888M660,900L660,900L672,900L672,912L660,912L660,900M1020,900L1020,900L1020,912L1008,912L1008,900L1020,900M1116,900L1116,900L1116,912L1104,912L1104,900L1116,900M672,912L672,912L684,912L684,924L672,924L672,912M1020,912L1020,912L1032,912L1032,924L1020,924L1020,912M1104,912L1104,912L1104,924L1092,924L1092,912L1104,912M684,924L684,924L696,924L696,936L684,936L684,924M1032,924L1032,924L1044,924L1044,936L1032,936L1032,924M1092,924L1092,924L1092,936L1080,936L1080,924L1092,924M696,936L696,936L708,936L708,948L696,948L696,936M1044,936L1044,936L1056,936L1056,948L1044,948L1044,936M1080,936L1080,936L1080,948L1068,948L1068,936L1080,936M708,948L708,948L720,948L720,960L708,960L708,948M1056,948L1056,948L1068,948L1068,960L1056,960L1056,948M720,960L720,960L732,960L732,972L720,972L720,960M900,948L900,948L912,948L912,972L888,972L888,984L732,984L732,972L876,972L876,960L900,960Z" class="grass"></path><path d="M996,12L996,12L1020,12L1020,60L1032,60L1032,48L1068,48L1068,60L1080,60L1080,72L1092,72L1092,144L1080,144L1080,156L1068,156L1068,168L1032,168L1032,156L1020,156L1020,168L996,168L996,12M1104,48L1104,48L1128,48L1128,60L1140,60L1140,48L1164,48L1164,72L1140,72L1140,84L1128,84L1128,168L1104,168L1104,48M1188,48L1188,48L1236,48L1236,60L1248,60L1248,84L1260,84L1260,120L1188,120L1188,132L1200,132L1200,144L1236,144L1236,132L1260,132L1260,144L1248,144L1248,156L1236,156L1236,168L1188,168L1188,156L1176,156L1176,144L1164,144L1164,72L1176,72L1176,60L1188,60L1188,48M1272,48L1272,48L1296,48L1296,60L1308,60L1308,48L1344,48L1344,72L1356,72L1356,60L1368,60L1368,48L1404,48L1404,60L1416,60L1416,168L1392,168L1392,72L1368,72L1368,84L1356,84L1356,168L1332,168L1332,72L1308,72L1308,84L1296,84L1296,168L1272,168L1272,48M1440,48L1440,48L1500,48L1500,60L1512,60L1512,84L1488,84L1488,72L1452,72L1452,84L1464,84L1464,96L1488,96L1488,108L1500,108L1500,120L1512,120L1512,156L1500,156L1500,168L1440,168L1440,156L1428,156L1428,132L1452,132L1452,144L1488,144L1488,132L1476,132L1476,120L1464,120L1464,108L1440,108L1440,96L1428,96L1428,60L1440,60L1440,48M1548,48L1548,48L1596,48L1596,60L1608,60L1608,84L1620,84L1620,120L1548,120L1548,132L1560,132L1560,144L1596,144L1596,132L1620,132L1620,144L1608,144L1608,156L1596,156L1596,168L1548,168L1548,156L1536,156L1536,144L1524,144L1524,72L1536,72L1536,60L1548,60L1548,48M1632,48L1632,48L1656,48L1656,60L1668,60L1668,48L1716,48L1716,60L1728,60L1728,168L1704,168L1704,72L1668,72L1668,84L1656,84L1656,168L1632,168L1632,48M1044,72L1044,72L1032,72L1032,84L1020,84L1020,132L1032,132L1032,144L1056,144L1056,132L1068,132L1068,84L1056,84L1056,72L1044,72M1212,72L1212,72L1200,72L1200,84L1188,84L1188,96L1236,96L1236,84L1224,84L1224,72L1212,72M1572,72L1572,72L1560,72L1560,84L1548,84L1548,96L1596,96L1596,84L1584,84L1584,72L1572,72M948,228L948,228L1764,228L1764,252L1752,252L1752,240L948,240L948,228M12,252L12,252L24,252L24,264L12,264L12,252M24,264L24,264L36,264L36,276L24,276L24,264M36,276L36,276L48,276L48,288L36,288L36,276M48,288L48,288L60,288L60,300L48,300L48,288M60,300L60,300L72,300L72,312L60,312L60,300M72,312L72,312L84,312L84,324L72,324L72,312M948,300L948,300L1608,300L1608,312L948,312L948,300M84,324L84,324L96,324L96,336L84,336L84,324M156,312L156,312L168,312L168,324L156,324L156,312M168,324L168,324L180,324L180,336L168,336L168,324M96,336L96,336L108,336L108,348L96,348L96,336M180,336L180,336L192,336L192,348L180,348L180,336M108,348L108,348L120,348L120,360L108,360L108,348M192,348L192,348L204,348L204,360L192,360L192,348M120,360L120,360L132,360L132,372L120,372L120,360M204,360L204,360L216,360L216,372L204,372L204,360M132,372L132,372L144,372L144,384L132,384L132,372M216,372L216,372L228,372L228,384L216,384L216,372M144,384L144,384L156,384L156,396L144,396L144,384M228,384L228,384L240,384L240,396L228,396L228,384M156,396L156,396L168,396L168,408L156,408L156,396M240,396L240,396L252,396L252,408L240,408L240,396M768,384L768,384L840,384L840,396L864,396L864,384L936,384L936,396L876,396L876,408L828,408L828,396L768,396L768,384M168,408L168,408L180,408L180,420L168,420L168,408M252,408L252,408L264,408L264,420L252,420L252,408M180,420L180,420L192,420L192,432L180,432L180,420M264,420L264,420L276,420L276,432L264,432L264,420M192,432L192,432L204,432L204,444L192,444L192,432M276,432L276,432L288,432L288,444L276,444L276,432M204,444L204,444L216,444L216,456L204,456L204,444M288,444L288,444L300,444L300,456L288,456L288,444M792,432L792,432L804,432L804,456L792,456L792,432M900,432L900,432L912,432L912,456L900,456L900,432M216,456L216,456L228,456L228,468L216,468L216,456M300,456L300,456L312,456L312,468L300,468L300,456M228,468L228,468L240,468L240,480L228,480L228,468M312,468L312,468L324,468L324,480L312,480L312,468M240,480L240,480L252,480L252,492L240,492L240,480M324,480L324,480L336,480L336,492L324,492L324,480M252,492L252,492L264,492L264,504L252,504L252,492M336,492L336,492L348,492L348,504L336,504L336,492M264,504L264,504L276,504L276,516L264,516L264,504M276,516L276,516L288,516L288,528L276,528L276,516M288,528L288,528L300,528L300,540L288,540L288,528M300,540L300,540L312,540L312,552L300,552L300,540M732,732L732,732L744,732L744,756L756,756L756,780L768,780L768,816L780,816L780,876L768,876L768,888L756,888L756,900L744,900L744,876L756,876L756,864L768,864L768,828L756,828L756,792L744,792L744,768L732,768L732,732M816,732L816,732L828,732L828,744L840,744L840,756L864,756L864,744L876,744L876,732L888,732L888,756L876,756L876,768L864,768L864,792L840,792L840,768L828,768L828,756L816,756L816,732M960,732L960,732L972,732L972,768L960,768L960,792L948,792L948,828L936,828L936,948L924,948L924,960L912,960L912,936L924,936L924,816L936,816L936,780L948,780L948,756L960,756Z" class="mud"></path><path d="M816,552L816,552L828,552L828,564L816,564L816,552M828,564L828,564L840,564L840,552L864,552L864,564L840,564L840,576L828,576L828,564M864,564L864,564L876,564L876,552L888,552L888,564L876,564L876,576L864,576Z" class="start"></path><path d="M1116,804L1116,804L1128,804L1128,816L1140,816L1140,828L1152,828L1152,840L1164,840L1164,852L1152,852L1152,864L1140,864L1140,876L1128,876L1128,888L1116,888L1116,900L1104,900L1104,912L1092,912L1092,924L1080,924L1080,936L1068,936L1068,948L1056,948L1056,936L1044,936L1044,924L1032,924L1032,912L1020,912L1020,900L1032,900L1032,888L1044,888L1044,876L1056,876L1056,864L1068,864L1068,852L1080,852L1080,840L1092,840L1092,828L1104,828L1104,816L1116,816Z" class="finish"></path></g>
 <rect opacity=".3" fill="url(#grid)" height="100%" width="100%" y="0" x="0"></rect>
</svg>