<svg xmlns:xlink="http://www.w3.org/1999/xlink" xmlns="http://www.w3.org/2000/svg" height="1020" width="492" id="mapSvgView" version="1.1" style="width: 492px; height: 1020px;" viewBox="0 0 492 1020">
 <defs>
 <pattern y="0" x="0" height="24" width="24" patternUnits="userSpaceOnUse" id="grassPattern">
 <rect class="grasscolor" height="24" width="24" y="0" x="0"></rect>
 <rect class="grassspeclecolor" height="1" width="1" x="1" y="5"></rect>
 <rect class="grassspeclecolor" height="1" width="1" x="1" y="5"></rect>
 <rect class="grassspeclecolor" height="1" width="1" x="3" y="5"></rect>
 <rect class="grassspeclecolor" height="1" width="1" x="6" y="7"></rect>
 <rect class="grassspeclecolor" height="1" width="1" x="6" y="17"></rect>
 <rect class="grassspeclecolor" height="1" width="1" x="8" y="21"></rect>
 <rect class="grassspeclecolor" height="1" width="1" x="9" y="2"></rect>
 <rect class="grassspeclecolor" height="1" width="1" x="12" y="4"></rect>
 <rect class="grassspeclecolor" height="1" width="1" x="13" y="15"></rect>
 <rect class="grassspeclecolor" height="1" width="1" x="14" y="4"></rect>
 <rect class="grassspeclecolor" height="1" width="1" x="14" y="19"></rect>
 <rect class="grassspeclecolor" height="1" width="1" x="17" y="7"></rect>
 <rect class="grassspeclecolor" height="1" width="1" x="17" y="12"></rect>
 <rect class="grassspeclecolor" height="1" width="1" x="18" y="23"></rect>
 <rect class="grassspeclecolor" height="1" width="1" x="21" y="16"></rect>
 <rect class="grassspeclecolor" height="1" width="1" x="23" y="12"></rect>
 </pattern>
 <pattern y="0" x="0" height="24" width="24" patternUnits="userSpaceOnUse" id="roadPattern">
 <rect class="roadcolor" height="24" width="24" y="0" x="0"></rect>
 <rect class="roadspeclecolor" height="1" width="1" x="1" y="5"></rect>
 <rect class="roadspeclecolor" height="1" width="1" x="1" y="5"></rect>
 <rect class="roadspeclecolor" height="1" width="1" x="3" y="5"></rect>
 <rect class="roadspeclecolor" height="1" width="1" x="6" y="7"></rect>
 <rect class="roadspeclecolor" height="1" width="1" x="6" y="17"></rect>
 <rect class="roadspeclecolor" height="1" width="1" x="8" y="21"></rect>
 <rect class="roadspeclecolor" height="1" width="1" x="9" y="2"></rect>
 <rect class="roadspeclecolor" height="1" width="1" x="12" y="4"></rect>
 <rect class="roadspeclecolor" height="1" width="1" x="13" y="15"></rect>
 <rect class="roadspeclecolor" height="1" width="1" x="14" y="4"></rect>
 <rect class="roadspeclecolor" height="1" width="1" x="14" y="19"></rect>
 <rect class="roadspeclecolor" height="1" width="1" x="17" y="7"></rect>
 <rect class="roadspeclecolor" height="1" width="1" x="17" y="12"></rect>
 <rect class="roadspeclecolor" height="1" width="1" x="18" y="23"></rect>
 <rect class="roadspeclecolor" height="1" width="1" x="21" y="16"></rect>
 <rect class="roadspeclecolor" height="1" width="1" x="23" y="12"></rect>
 </pattern>
 <pattern y="0" x="0" height="12" width="12" patternUnits="userSpaceOnUse" id="grid">
 <line stroke-width="1" stroke="black" y2="12" x2="12" y1="0" x1="12"></line>
 <line stroke-width="1" stroke="black" y2="12" x2="12" y1="12" x1="0"></line>
 </pattern>
 <pattern y="0" x="0" height="12" width="12" patternUnits="userSpaceOnUse" id="finishPattern">
 <rect fill="black" height="12" width="12" y="0" x="0"></rect>
 <path fill="white" d="M0,0L3,0L3,3L0,3L0,0M6,0L9,0L9,3L6,3L6,0M3,3L6,3L6,6L3,6L3,3M9,3L12,3L12,6L9,6L9,3"></path>
 <path fill="white" d="M0,6L3,6L3,9L0,9L0,6M6,6L9,6L9,9L6,9L6,6M3,9L6,9L6,12L3,12L3,9M9,9L12,9L12,12L9,12L9,9"></path>
 </pattern>
 <pattern y="0" x="0" height="12" width="12" patternUnits="userSpaceOnUse" id="startPattern">
 <rect fill="rgb(100,100,100)" height="12" width="12" y="0" x="0"></rect>
 <rect stroke-width="1" stroke="rgb(200,200,200)" fill="none" height="5" width="5" y="3.5" x="3.5"></rect>
 </pattern>
 <pattern y="0" x="0" height="12" width="12" patternUnits="userSpaceOnUse" id="cp1pattern">
 <rect class="cp1color" height="12" width="12" y="0" x="0"></rect>
 <path fill="black" d="M0,0L3,0L3,3L0,3L0,0M6,0L9,0L9,3L6,3L6,0M3,3L6,3L6,6L3,6L3,3M9,3L12,3L12,6L9,6L9,3"></path>
 <path fill="black" d="M0,6L3,6L3,9L0,9L0,6M6,6L9,6L9,9L6,9L6,6M3,9L6,9L6,12L3,12L3,9M9,9L12,9L12,12L9,12L9,9"></path>
 </pattern>
 <pattern y="0" x="0" height="12" width="12" patternUnits="userSpaceOnUse" id="cp2pattern">
 <rect class="cp2color" height="12" width="12" y="0" x="0"></rect>
 <path fill="white" d="M0,0L3,0L3,3L0,3L0,0M6,0L9,0L9,3L6,3L6,0M3,3L6,3L6,6L3,6L3,3M9,3L12,3L12,6L9,6L9,3"></path>
 <path fill="white" d="M0,6L3,6L3,9L0,9L0,6M6,6L9,6L9,9L6,9L6,6M3,9L6,9L6,12L3,12L3,9M9,9L12,9L12,12L9,12L9,9"></path>
 </pattern>
 <pattern y="0" x="0" height="12" width="12" patternUnits="userSpaceOnUse" id="cp3pattern">
 <rect class="cp3color" height="12" width="12" y="0" x="0"></rect>
 <path fill="black" d="M0,0L3,0L3,3L0,3L0,0M6,0L9,0L9,3L6,3L6,0M3,3L6,3L6,6L3,6L3,3M9,3L12,3L12,6L9,6L9,3"></path>
 <path fill="black" d="M0,6L3,6L3,9L0,9L0,6M6,6L9,6L9,9L6,9L6,6M3,9L6,9L6,12L3,12L3,9M9,9L12,9L12,12L9,12L9,9"></path>
 </pattern>
 <pattern y="0" x="0" height="12" width="12" patternUnits="userSpaceOnUse" id="cp4pattern">
 <rect class="cp4color" height="12" width="12" y="0" x="0"></rect>
 <path fill="white" d="M0,0L3,0L3,3L0,3L0,0M6,0L9,0L9,3L6,3L6,0M3,3L6,3L6,6L3,6L3,3M9,3L12,3L12,6L9,6L9,3"></path>
 <path fill="white" d="M0,6L3,6L3,9L0,9L0,6M6,6L9,6L9,9L6,9L6,6M3,9L6,9L6,12L3,12L3,9M9,9L12,9L12,12L9,12L9,9"></path>
 </pattern>
 <pattern y="0" x="0" height="12" width="12" patternUnits="userSpaceOnUse" id="cp5pattern">
 <rect class="cp5color" height="12" width="12" y="0" x="0"></rect>
 <path fill="black" d="M0,0L3,0L3,3L0,3L0,0M6,0L9,0L9,3L6,3L6,0M3,3L6,3L6,6L3,6L3,3M9,3L12,3L12,6L9,6L9,3"></path>
 <path fill="black" d="M0,6L3,6L3,9L0,9L0,6M6,6L9,6L9,9L6,9L6,6M3,9L6,9L6,12L3,12L3,9M9,9L12,9L12,12L9,12L9,9"></path>
 </pattern>
 <pattern y="0" x="0" height="12" width="12" patternUnits="userSpaceOnUse" id="cp6pattern">
 <rect class="cp6color" height="12" width="12" y="0" x="0"></rect>
 <path fill="white" d="M0,0L3,0L3,3L0,3L0,0M6,0L9,0L9,3L6,3L6,0M3,3L6,3L6,6L3,6L3,3M9,3L12,3L12,6L9,6L9,3"></path>
 <path fill="white" d="M0,6L3,6L3,9L0,9L0,6M6,6L9,6L9,9L6,9L6,6M3,9L6,9L6,12L3,12L3,9M9,9L12,9L12,12L9,12L9,9"></path>
 </pattern>
 <pattern y="0" x="0" height="12" width="12" patternUnits="userSpaceOnUse" id="cp7pattern">
 <rect class="cp7color" height="12" width="12" y="0" x="0"></rect>
 <path fill="black" d="M0,0L3,0L3,3L0,3L0,0M6,0L9,0L9,3L6,3L6,0M3,3L6,3L6,6L3,6L3,3M9,3L12,3L12,6L9,6L9,3"></path>
 <path fill="black" d="M0,6L3,6L3,9L0,9L0,6M6,6L9,6L9,9L6,9L6,6M3,9L6,9L6,12L3,12L3,9M9,9L12,9L12,12L9,12L9,9"></path>
 </pattern>
 <pattern y="0" x="0" height="12" width="12" patternUnits="userSpaceOnUse" id="cp8pattern">
 <rect class="cp8color" height="12" width="12" y="0" x="0"></rect>
 <path fill="white" d="M0,0L3,0L3,3L0,3L0,0M6,0L9,0L9,3L6,3L6,0M3,3L6,3L6,6L3,6L3,3M9,3L12,3L12,6L9,6L9,3"></path>
 <path fill="white" d="M0,6L3,6L3,9L0,9L0,6M6,6L9,6L9,9L6,9L6,6M3,9L6,9L6,12L3,12L3,9M9,9L12,9L12,12L9,12L9,9"></path>
 </pattern>
 <pattern y="0" x="0" height="12" width="12" patternUnits="userSpaceOnUse" id="cp9pattern">
 <rect class="cp9color" height="12" width="12" y="0" x="0"></rect>
 <path fill="black" d="M0,0L3,0L3,3L0,3L0,0M6,0L9,0L9,3L6,3L6,0M3,3L6,3L6,6L3,6L3,3M9,3L12,3L12,6L9,6L9,3"></path>
 <path fill="black" d="M0,6L3,6L3,9L0,9L0,6M6,6L9,6L9,9L6,9L6,6M3,9L6,9L6,12L3,12L3,9M9,9L12,9L12,12L9,12L9,9"></path>
 </pattern>
 </defs>
 <rect height="100%" width="100%" y="0" x="0" class="road" id="mainfill"></rect>
 <g id="paths"><path d="M12,0L12,0L492,0L492,1020L0,1020L0,108L12,108L12,1008L480,1008L480,12L12,12L12,0M24,24L24,24L468,24L468,996L24,996L24,24M216,84L216,84L204,84L204,156L216,156L216,204L228,204L228,192L252,192L252,180L240,180L240,168L252,168L252,180L276,180L276,168L288,168L288,192L312,192L312,204L288,204L288,252L300,252L300,288L312,288L312,300L360,300L360,312L384,312L384,324L348,324L348,360L336,360L336,372L324,372L324,396L336,396L336,384L348,384L348,360L360,360L360,396L336,396L336,408L324,408L324,480L336,480L336,600L324,600L324,612L348,612L348,624L288,624L288,636L372,636L372,660L192,660L192,672L360,672L360,816L372,816L372,888L156,888L156,900L408,900L408,912L420,912L420,924L444,924L444,972L48,972L48,924L72,924L72,912L84,912L84,900L120,900L120,816L324,816L324,804L156,804L156,660L144,660L144,636L228,636L228,624L168,624L168,612L276,612L276,600L168,600L168,588L180,588L180,576L216,576L216,552L228,552L228,540L240,540L240,516L252,516L252,504L264,504L264,492L276,492L276,408L264,408L264,336L252,336L252,408L264,408L264,480L252,480L252,492L240,492L240,504L228,504L228,528L216,528L216,540L204,540L204,504L216,504L216,456L204,456L204,444L192,444L192,408L204,408L204,348L192,348L192,336L204,336L204,276L192,276L192,264L228,264L228,240L216,240L216,252L204,252L204,192L192,192L192,168L180,168L180,132L192,132L192,108L180,108L180,96L168,96L168,180L180,180L180,204L192,204L192,252L180,252L180,288L192,288L192,324L180,324L180,360L192,360L192,396L180,396L180,456L192,456L192,468L204,468L204,492L192,492L192,552L204,552L204,564L168,564L168,576L156,576L156,624L132,624L132,672L144,672L144,804L108,804L108,888L72,888L72,900L60,900L60,912L36,912L36,984L456,984L456,912L432,912L432,900L420,900L420,888L384,888L384,804L372,804L372,672L384,672L384,624L360,624L360,600L348,600L348,468L336,468L336,420L348,420L348,408L372,408L372,396L384,396L384,384L372,384L372,348L384,348L384,336L396,336L396,300L384,300L384,288L324,288L324,276L312,276L312,240L300,240L300,216L324,216L324,180L300,180L300,156L324,156L324,144L336,144L336,132L312,132L312,144L288,144L288,132L300,132L300,108L288,108L288,120L276,120L276,144L264,144L264,108L252,108L252,132L240,132L240,120L228,120L228,108L216,108L216,84M228,120L228,120L228,144L216,144L216,120L228,120M228,144L228,144L240,144L240,156L228,156L228,144M264,192L264,192L252,192L252,204L276,204L276,192L264,192M252,216L252,216L240,216L240,240L252,240L252,252L276,252L276,240L264,240L264,228L252,228L252,216M48,276L48,276L36,276L36,288L48,288L48,324L36,324L36,336L60,336L60,312L84,312L84,336L108,336L108,324L96,324L96,288L108,288L108,276L84,276L84,300L60,300L60,276L48,276M276,276L276,276L264,276L264,312L288,312L288,300L276,300L276,276M240,300L240,300L228,300L228,324L216,324L216,408L228,408L228,336L240,336L240,300M300,312L300,312L288,312L288,360L300,360L300,312M312,360L312,360L300,360L300,444L312,444L312,360M240,408L240,408L228,408L228,432L240,432L240,408M300,480L300,480L288,480L288,492L300,492L300,540L312,540L312,480L300,480M264,516L264,516L252,516L252,564L264,564L264,516M216,696L216,696L204,696L204,744L228,744L228,696L216,696M252,696L252,696L240,696L240,744L264,744L264,696L252,696M288,696L288,696L276,696L276,744L300,744L300,696Z" class="road"></path><path d="M0,0L0,0L12,0L12,108L0,108Z" class="parc"></path><path d="M12,12L12,12L480,12L480,1008L12,1008L12,12M36,24L36,24L24,24L24,996L468,996L468,24L36,24M204,84L204,84L216,84L216,108L228,108L228,120L216,120L216,144L228,144L228,120L240,120L240,132L252,132L252,108L264,108L264,144L276,144L276,120L288,120L288,108L300,108L300,132L288,132L288,144L312,144L312,132L336,132L336,144L324,144L324,156L300,156L300,180L324,180L324,216L300,216L300,240L312,240L312,276L324,276L324,288L384,288L384,300L396,300L396,336L384,336L384,348L372,348L372,384L384,384L384,396L372,396L372,408L348,408L348,420L336,420L336,468L348,468L348,600L360,600L360,624L384,624L384,672L372,672L372,804L384,804L384,888L420,888L420,900L432,900L432,912L456,912L456,984L36,984L36,912L60,912L60,900L72,900L72,888L108,888L108,804L144,804L144,672L132,672L132,624L156,624L156,576L168,576L168,564L204,564L204,552L192,552L192,492L204,492L204,468L192,468L192,456L180,456L180,396L192,396L192,360L180,360L180,324L192,324L192,288L180,288L180,252L192,252L192,204L180,204L180,180L168,180L168,96L180,96L180,108L192,108L192,132L180,132L180,168L192,168L192,192L204,192L204,252L216,252L216,240L228,240L228,264L192,264L192,276L204,276L204,336L192,336L192,348L204,348L204,408L192,408L192,444L204,444L204,456L216,456L216,504L204,504L204,540L216,540L216,528L228,528L228,504L240,504L240,492L252,492L252,480L264,480L264,408L252,408L252,336L264,336L264,408L276,408L276,492L264,492L264,504L252,504L252,516L240,516L240,540L228,540L228,552L216,552L216,576L180,576L180,588L168,588L168,600L276,600L276,612L168,612L168,624L228,624L228,636L144,636L144,660L156,660L156,804L324,804L324,816L120,816L120,900L84,900L84,912L72,912L72,924L48,924L48,972L444,972L444,924L420,924L420,912L408,912L408,900L156,900L156,888L372,888L372,816L360,816L360,672L192,672L192,660L372,660L372,636L288,636L288,624L348,624L348,612L324,612L324,600L336,600L336,480L324,480L324,408L336,408L336,396L324,396L324,372L336,372L336,360L348,360L348,324L384,324L384,312L360,312L360,300L312,300L312,288L300,288L300,252L288,252L288,204L312,204L312,192L288,192L288,168L276,168L276,180L252,180L252,168L240,168L240,180L252,180L252,192L228,192L228,204L216,204L216,156L204,156L204,84M240,144L240,144L228,144L228,156L240,156L240,144M252,192L252,192L276,192L276,204L252,204L252,192M240,216L240,216L252,216L252,228L264,228L264,240L276,240L276,252L252,252L252,240L240,240L240,216M36,276L36,276L60,276L60,300L84,300L84,276L108,276L108,288L96,288L96,324L108,324L108,336L84,336L84,312L60,312L60,336L36,336L36,324L48,324L48,288L36,288L36,276M264,276L264,276L276,276L276,300L288,300L288,312L264,312L264,276M228,300L228,300L240,300L240,336L228,336L228,408L216,408L216,324L228,324L228,300M288,312L288,312L300,312L300,360L288,360L288,312M300,360L300,360L312,360L312,444L300,444L300,360M360,360L360,360L348,360L348,384L336,384L336,396L360,396L360,360M228,408L228,408L240,408L240,432L228,432L228,408M288,480L288,480L312,480L312,540L300,540L300,492L288,492L288,480M252,516L252,516L264,516L264,564L252,564L252,516M204,696L204,696L228,696L228,744L204,744L204,696M240,696L240,696L264,696L264,744L240,744L240,696M276,696L276,696L300,696L300,744L276,744Z" class="grass"></path><path d="M180,36L180,36L204,36L204,48L216,48L216,60L228,60L228,96L216,96L216,84L204,84L204,60L192,60L192,72L180,72L180,96L168,96L168,48L180,48Z" class="finish"></path><path d="M396,912L396,912L408,912L408,924L396,924L396,912M408,924L408,924L420,924L420,936L408,936L408,924M420,936L420,936L432,936L432,924L444,924L444,936L432,936L432,948L420,948L420,936M408,936L408,936L408,948L396,948L396,936L408,936M408,948L408,948L420,948L420,960L408,960L408,948M432,948L432,948L444,948L444,960L432,960L432,948M420,960L420,960L432,960L432,972L420,972L420,960M408,960L408,960L408,972L396,972L396,960Z" class="start"></path></g>
 <rect opacity=".3" fill="url(#grid)" height="100%" width="100%" y="0" x="0"></rect>
</svg>