<svg xmlns:xlink="http://www.w3.org/1999/xlink" xmlns="http://www.w3.org/2000/svg" height="504" width="792" id="mapSvgView" version="1.1" style="width: 792px; height: 504px;" viewBox="0 0 792 504">
 <defs>
 <pattern y="0" x="0" height="24" width="24" patternUnits="userSpaceOnUse" id="grassPattern">
 <rect class="grasscolor" height="24" width="24" y="0" x="0"></rect>
 <rect class="grassspeclecolor" height="1" width="1" x="1" y="5"></rect>
 <rect class="grassspeclecolor" height="1" width="1" x="1" y="5"></rect>
 <rect class="grassspeclecolor" height="1" width="1" x="3" y="5"></rect>
 <rect class="grassspeclecolor" height="1" width="1" x="6" y="7"></rect>
 <rect class="grassspeclecolor" height="1" width="1" x="6" y="17"></rect>
 <rect class="grassspeclecolor" height="1" width="1" x="8" y="21"></rect>
 <rect class="grassspeclecolor" height="1" width="1" x="9" y="2"></rect>
 <rect class="grassspeclecolor" height="1" width="1" x="12" y="4"></rect>
 <rect class="grassspeclecolor" height="1" width="1" x="13" y="15"></rect>
 <rect class="grassspeclecolor" height="1" width="1" x="14" y="4"></rect>
 <rect class="grassspeclecolor" height="1" width="1" x="14" y="19"></rect>
 <rect class="grassspeclecolor" height="1" width="1" x="17" y="7"></rect>
 <rect class="grassspeclecolor" height="1" width="1" x="17" y="12"></rect>
 <rect class="grassspeclecolor" height="1" width="1" x="18" y="23"></rect>
 <rect class="grassspeclecolor" height="1" width="1" x="21" y="16"></rect>
 <rect class="grassspeclecolor" height="1" width="1" x="23" y="12"></rect>
 </pattern>
 <pattern y="0" x="0" height="24" width="24" patternUnits="userSpaceOnUse" id="roadPattern">
 <rect class="roadcolor" height="24" width="24" y="0" x="0"></rect>
 <rect class="roadspeclecolor" height="1" width="1" x="1" y="5"></rect>
 <rect class="roadspeclecolor" height="1" width="1" x="1" y="5"></rect>
 <rect class="roadspeclecolor" height="1" width="1" x="3" y="5"></rect>
 <rect class="roadspeclecolor" height="1" width="1" x="6" y="7"></rect>
 <rect class="roadspeclecolor" height="1" width="1" x="6" y="17"></rect>
 <rect class="roadspeclecolor" height="1" width="1" x="8" y="21"></rect>
 <rect class="roadspeclecolor" height="1" width="1" x="9" y="2"></rect>
 <rect class="roadspeclecolor" height="1" width="1" x="12" y="4"></rect>
 <rect class="roadspeclecolor" height="1" width="1" x="13" y="15"></rect>
 <rect class="roadspeclecolor" height="1" width="1" x="14" y="4"></rect>
 <rect class="roadspeclecolor" height="1" width="1" x="14" y="19"></rect>
 <rect class="roadspeclecolor" height="1" width="1" x="17" y="7"></rect>
 <rect class="roadspeclecolor" height="1" width="1" x="17" y="12"></rect>
 <rect class="roadspeclecolor" height="1" width="1" x="18" y="23"></rect>
 <rect class="roadspeclecolor" height="1" width="1" x="21" y="16"></rect>
 <rect class="roadspeclecolor" height="1" width="1" x="23" y="12"></rect>
 </pattern>
 <pattern y="0" x="0" height="12" width="12" patternUnits="userSpaceOnUse" id="grid">
 <line stroke-width="1" stroke="black" y2="12" x2="12" y1="0" x1="12"></line>
 <line stroke-width="1" stroke="black" y2="12" x2="12" y1="12" x1="0"></line>
 </pattern>
 <pattern y="0" x="0" height="12" width="12" patternUnits="userSpaceOnUse" id="finishPattern">
 <rect fill="black" height="12" width="12" y="0" x="0"></rect>
 <path fill="white" d="M0,0L3,0L3,3L0,3L0,0M6,0L9,0L9,3L6,3L6,0M3,3L6,3L6,6L3,6L3,3M9,3L12,3L12,6L9,6L9,3"></path>
 <path fill="white" d="M0,6L3,6L3,9L0,9L0,6M6,6L9,6L9,9L6,9L6,6M3,9L6,9L6,12L3,12L3,9M9,9L12,9L12,12L9,12L9,9"></path>
 </pattern>
 <pattern y="0" x="0" height="12" width="12" patternUnits="userSpaceOnUse" id="startPattern">
 <rect fill="rgb(100,100,100)" height="12" width="12" y="0" x="0"></rect>
 <rect stroke-width="1" stroke="rgb(200,200,200)" fill="none" height="5" width="5" y="3.5" x="3.5"></rect>
 </pattern>
 <pattern y="0" x="0" height="12" width="12" patternUnits="userSpaceOnUse" id="cp1pattern">
 <rect class="cp1color" height="12" width="12" y="0" x="0"></rect>
 <path fill="black" d="M0,0L3,0L3,3L0,3L0,0M6,0L9,0L9,3L6,3L6,0M3,3L6,3L6,6L3,6L3,3M9,3L12,3L12,6L9,6L9,3"></path>
 <path fill="black" d="M0,6L3,6L3,9L0,9L0,6M6,6L9,6L9,9L6,9L6,6M3,9L6,9L6,12L3,12L3,9M9,9L12,9L12,12L9,12L9,9"></path>
 </pattern>
 <pattern y="0" x="0" height="12" width="12" patternUnits="userSpaceOnUse" id="cp2pattern">
 <rect class="cp2color" height="12" width="12" y="0" x="0"></rect>
 <path fill="white" d="M0,0L3,0L3,3L0,3L0,0M6,0L9,0L9,3L6,3L6,0M3,3L6,3L6,6L3,6L3,3M9,3L12,3L12,6L9,6L9,3"></path>
 <path fill="white" d="M0,6L3,6L3,9L0,9L0,6M6,6L9,6L9,9L6,9L6,6M3,9L6,9L6,12L3,12L3,9M9,9L12,9L12,12L9,12L9,9"></path>
 </pattern>
 <pattern y="0" x="0" height="12" width="12" patternUnits="userSpaceOnUse" id="cp3pattern">
 <rect class="cp3color" height="12" width="12" y="0" x="0"></rect>
 <path fill="black" d="M0,0L3,0L3,3L0,3L0,0M6,0L9,0L9,3L6,3L6,0M3,3L6,3L6,6L3,6L3,3M9,3L12,3L12,6L9,6L9,3"></path>
 <path fill="black" d="M0,6L3,6L3,9L0,9L0,6M6,6L9,6L9,9L6,9L6,6M3,9L6,9L6,12L3,12L3,9M9,9L12,9L12,12L9,12L9,9"></path>
 </pattern>
 <pattern y="0" x="0" height="12" width="12" patternUnits="userSpaceOnUse" id="cp4pattern">
 <rect class="cp4color" height="12" width="12" y="0" x="0"></rect>
 <path fill="white" d="M0,0L3,0L3,3L0,3L0,0M6,0L9,0L9,3L6,3L6,0M3,3L6,3L6,6L3,6L3,3M9,3L12,3L12,6L9,6L9,3"></path>
 <path fill="white" d="M0,6L3,6L3,9L0,9L0,6M6,6L9,6L9,9L6,9L6,6M3,9L6,9L6,12L3,12L3,9M9,9L12,9L12,12L9,12L9,9"></path>
 </pattern>
 <pattern y="0" x="0" height="12" width="12" patternUnits="userSpaceOnUse" id="cp5pattern">
 <rect class="cp5color" height="12" width="12" y="0" x="0"></rect>
 <path fill="black" d="M0,0L3,0L3,3L0,3L0,0M6,0L9,0L9,3L6,3L6,0M3,3L6,3L6,6L3,6L3,3M9,3L12,3L12,6L9,6L9,3"></path>
 <path fill="black" d="M0,6L3,6L3,9L0,9L0,6M6,6L9,6L9,9L6,9L6,6M3,9L6,9L6,12L3,12L3,9M9,9L12,9L12,12L9,12L9,9"></path>
 </pattern>
 <pattern y="0" x="0" height="12" width="12" patternUnits="userSpaceOnUse" id="cp6pattern">
 <rect class="cp6color" height="12" width="12" y="0" x="0"></rect>
 <path fill="white" d="M0,0L3,0L3,3L0,3L0,0M6,0L9,0L9,3L6,3L6,0M3,3L6,3L6,6L3,6L3,3M9,3L12,3L12,6L9,6L9,3"></path>
 <path fill="white" d="M0,6L3,6L3,9L0,9L0,6M6,6L9,6L9,9L6,9L6,6M3,9L6,9L6,12L3,12L3,9M9,9L12,9L12,12L9,12L9,9"></path>
 </pattern>
 <pattern y="0" x="0" height="12" width="12" patternUnits="userSpaceOnUse" id="cp7pattern">
 <rect class="cp7color" height="12" width="12" y="0" x="0"></rect>
 <path fill="black" d="M0,0L3,0L3,3L0,3L0,0M6,0L9,0L9,3L6,3L6,0M3,3L6,3L6,6L3,6L3,3M9,3L12,3L12,6L9,6L9,3"></path>
 <path fill="black" d="M0,6L3,6L3,9L0,9L0,6M6,6L9,6L9,9L6,9L6,6M3,9L6,9L6,12L3,12L3,9M9,9L12,9L12,12L9,12L9,9"></path>
 </pattern>
 <pattern y="0" x="0" height="12" width="12" patternUnits="userSpaceOnUse" id="cp8pattern">
 <rect class="cp8color" height="12" width="12" y="0" x="0"></rect>
 <path fill="white" d="M0,0L3,0L3,3L0,3L0,0M6,0L9,0L9,3L6,3L6,0M3,3L6,3L6,6L3,6L3,3M9,3L12,3L12,6L9,6L9,3"></path>
 <path fill="white" d="M0,6L3,6L3,9L0,9L0,6M6,6L9,6L9,9L6,9L6,6M3,9L6,9L6,12L3,12L3,9M9,9L12,9L12,12L9,12L9,9"></path>
 </pattern>
 <pattern y="0" x="0" height="12" width="12" patternUnits="userSpaceOnUse" id="cp9pattern">
 <rect class="cp9color" height="12" width="12" y="0" x="0"></rect>
 <path fill="black" d="M0,0L3,0L3,3L0,3L0,0M6,0L9,0L9,3L6,3L6,0M3,3L6,3L6,6L3,6L3,3M9,3L12,3L12,6L9,6L9,3"></path>
 <path fill="black" d="M0,6L3,6L3,9L0,9L0,6M6,6L9,6L9,9L6,9L6,6M3,9L6,9L6,12L3,12L3,9M9,9L12,9L12,12L9,12L9,9"></path>
 </pattern>
 </defs>
 <rect height="100%" width="100%" y="0" x="0" class="road" id="mainfill"></rect>
 <g id="paths"><path d="M12,0L12,0L192,0L192,12L12,12L12,0M276,0L276,0L792,0L792,504L0,504L0,432L12,432L12,492L780,492L780,12L276,12L276,0M24,24L24,24L72,24L72,36L240,36L240,48L276,48L276,60L312,60L312,72L300,72L300,84L288,84L288,108L300,108L300,120L324,120L324,108L336,108L336,84L324,84L324,72L336,72L336,84L372,84L372,96L396,96L396,108L432,108L432,120L456,120L456,132L492,132L492,144L528,144L528,156L564,156L564,168L588,168L588,180L624,180L624,192L648,192L648,204L684,204L684,216L708,216L708,204L696,204L696,192L672,192L672,180L648,180L648,168L624,168L624,156L588,156L588,144L564,144L564,132L528,132L528,120L504,120L504,108L468,108L468,96L432,96L432,84L396,84L396,72L372,72L372,60L336,60L336,48L312,48L312,36L372,36L372,24L420,24L420,36L492,36L492,48L480,48L480,72L492,72L492,84L516,84L516,72L528,72L528,48L516,48L516,36L720,36L720,24L768,24L768,72L756,72L756,156L744,156L744,144L720,144L720,156L708,156L708,180L720,180L720,192L744,192L744,180L756,180L756,348L744,348L744,336L720,336L720,348L708,348L708,372L720,372L720,384L744,384L744,372L756,372L756,432L768,432L768,480L720,480L720,468L600,468L600,444L588,444L588,432L576,432L576,420L564,420L564,408L552,408L552,396L540,396L540,384L516,384L516,396L504,396L504,408L492,408L492,420L480,420L480,432L468,432L468,444L456,444L456,468L420,468L420,480L372,480L372,468L336,468L336,456L348,456L348,432L336,432L336,420L312,420L312,432L300,432L300,456L312,456L312,468L72,468L72,480L24,480L24,432L36,432L36,396L48,396L48,372L60,372L60,360L72,360L72,336L84,336L84,324L96,324L96,312L108,312L108,300L120,300L120,288L132,288L132,276L144,276L144,264L156,264L156,252L168,252L168,240L180,240L180,228L192,228L192,216L204,216L204,204L216,204L216,192L228,192L228,180L240,180L240,156L252,156L252,168L264,168L264,132L288,132L288,120L276,120L276,108L264,108L264,96L252,96L252,120L216,120L216,132L228,132L228,144L204,144L204,156L180,156L180,168L156,168L156,180L144,180L144,192L120,192L120,204L96,204L96,216L72,216L72,228L60,228L60,240L36,240L36,72L24,72L24,24M708,72L708,72L696,72L696,84L684,84L684,108L696,108L696,120L720,120L720,108L732,108L732,84L720,84L720,72L708,72M156,96L156,96L144,96L144,108L132,108L132,132L144,132L144,144L168,144L168,132L180,132L180,108L168,108L168,96L156,96M0,96L0,96L12,96L12,264L0,264L0,96M444,156L444,156L432,156L432,168L420,168L420,192L432,192L432,204L456,204L456,192L468,192L468,204L456,204L456,216L444,216L444,240L456,240L456,252L480,252L480,240L492,240L492,216L504,216L504,204L516,204L516,180L504,180L504,168L480,168L480,180L468,180L468,168L456,168L456,156L444,156M204,168L204,168L216,168L216,180L204,180L204,168M204,180L204,180L204,192L192,192L192,204L180,204L180,216L168,216L168,228L156,228L156,240L144,240L144,252L132,252L132,264L120,264L120,276L108,276L108,288L96,288L96,300L84,300L84,312L72,312L72,324L60,324L60,336L48,336L48,348L36,348L36,276L48,276L48,264L60,264L60,252L84,252L84,240L96,240L96,228L120,228L120,216L144,216L144,204L168,204L168,192L180,192L180,180L204,180M288,180L288,180L276,180L276,192L264,192L264,216L276,216L276,228L300,228L300,216L312,216L312,192L300,192L300,180L288,180M528,240L528,240L516,240L516,252L504,252L504,276L516,276L516,288L540,288L540,276L552,276L552,252L540,252L540,240L528,240M696,240L696,240L684,240L684,252L672,252L672,276L684,276L684,288L708,288L708,276L720,276L720,252L708,252L708,240L696,240M324,264L324,264L312,264L312,276L300,276L300,300L312,300L312,312L336,312L336,300L348,300L348,276L336,276L336,264L324,264M432,288L432,288L420,288L420,300L408,300L408,324L420,324L420,336L444,336L444,324L456,324L456,300L444,300L444,288L432,288M0,288L0,288L12,288L12,384L0,384L0,288M168,300L168,300L156,300L156,312L144,312L144,336L156,336L156,348L180,348L180,336L192,336L192,312L180,312L180,300L168,300M336,360L336,360L324,360L324,372L312,372L312,396L324,396L324,408L348,408L348,396L360,396L360,372L348,372L348,360L336,360M624,360L624,360L612,360L612,372L600,372L600,396L612,396L612,408L636,408L636,396L648,396L648,372L636,372L636,360L624,360M192,372L192,372L180,372L180,384L168,384L168,408L180,408L180,420L204,420L204,408L216,408L216,384L204,384L204,372L192,372M96,396L96,396L84,396L84,408L72,408L72,432L84,432L84,444L108,444L108,432L120,432L120,408L108,408L108,396L96,396M384,396L384,396L372,396L372,408L360,408L360,432L372,432L372,444L396,444L396,432L408,432L408,408L396,408L396,396L384,396M516,408L516,408L540,408L540,420L552,420L552,432L564,432L564,444L576,444L576,456L480,456L480,444L492,444L492,432L504,432L504,420L516,420Z" class="road"></path><path d="M24,24L24,24L72,24L72,36L36,36L36,72L24,72Z" class="cp1"></path><path d="M372,24L372,24L420,24L420,36L372,36Z" class="cp2"></path><path d="M720,24L720,24L768,24L768,72L756,72L756,36L720,36Z" class="cp3"></path><path d="M24,432L24,432L36,432L36,468L72,468L72,480L24,480Z" class="cp4"></path><path d="M372,468L372,468L420,468L420,480L372,480Z" class="cp5"></path><path d="M0,0L0,0L12,0L12,96L0,96Z" class="parc"></path><path d="M192,0L192,0L276,0L276,12L780,12L780,492L12,492L12,432L0,432L0,384L12,384L12,288L0,288L0,264L12,264L12,12L192,12L192,0M36,24L36,24L24,24L24,72L36,72L36,240L60,240L60,228L72,228L72,216L96,216L96,204L120,204L120,192L144,192L144,180L156,180L156,168L180,168L180,156L204,156L204,144L228,144L228,132L216,132L216,120L252,120L252,96L264,96L264,108L276,108L276,120L288,120L288,132L264,132L264,168L252,168L252,156L240,156L240,180L228,180L228,192L216,192L216,204L204,204L204,216L192,216L192,228L180,228L180,240L168,240L168,252L156,252L156,264L144,264L144,276L132,276L132,288L120,288L120,300L108,300L108,312L96,312L96,324L84,324L84,336L72,336L72,360L60,360L60,372L48,372L48,396L36,396L36,432L24,432L24,480L72,480L72,468L312,468L312,456L300,456L300,432L312,432L312,420L336,420L336,432L348,432L348,456L336,456L336,468L372,468L372,480L420,480L420,468L456,468L456,444L468,444L468,432L480,432L480,420L492,420L492,408L504,408L504,396L516,396L516,384L540,384L540,396L552,396L552,408L564,408L564,420L576,420L576,432L588,432L588,444L600,444L600,468L720,468L720,480L768,480L768,432L756,432L756,372L744,372L744,384L720,384L720,372L708,372L708,348L720,348L720,336L744,336L744,348L756,348L756,180L744,180L744,192L720,192L720,180L708,180L708,156L720,156L720,144L744,144L744,156L756,156L756,72L768,72L768,24L720,24L720,36L516,36L516,48L528,48L528,72L516,72L516,84L492,84L492,72L480,72L480,48L492,48L492,36L420,36L420,24L372,24L372,36L312,36L312,48L336,48L336,60L372,60L372,72L396,72L396,84L432,84L432,96L468,96L468,108L504,108L504,120L528,120L528,132L564,132L564,144L588,144L588,156L624,156L624,168L648,168L648,180L672,180L672,192L696,192L696,204L708,204L708,216L684,216L684,204L648,204L648,192L624,192L624,180L588,180L588,168L564,168L564,156L528,156L528,144L492,144L492,132L456,132L456,120L432,120L432,108L396,108L396,96L372,96L372,84L336,84L336,72L324,72L324,84L336,84L336,108L324,108L324,120L300,120L300,108L288,108L288,84L300,84L300,72L312,72L312,60L276,60L276,48L240,48L240,36L72,36L72,24L36,24M696,72L696,72L720,72L720,84L732,84L732,108L720,108L720,120L696,120L696,108L684,108L684,84L696,84L696,72M144,96L144,96L168,96L168,108L180,108L180,132L168,132L168,144L144,144L144,132L132,132L132,108L144,108L144,96M216,168L216,168L204,168L204,180L180,180L180,192L168,192L168,204L144,204L144,216L120,216L120,228L96,228L96,240L84,240L84,252L60,252L60,264L48,264L48,276L36,276L36,348L48,348L48,336L60,336L60,324L72,324L72,312L84,312L84,300L96,300L96,288L108,288L108,276L120,276L120,264L132,264L132,252L144,252L144,240L156,240L156,228L168,228L168,216L180,216L180,204L192,204L192,192L204,192L204,180L216,180L216,168M432,156L432,156L456,156L456,168L468,168L468,180L480,180L480,168L504,168L504,180L516,180L516,204L504,204L504,216L492,216L492,240L480,240L480,252L456,252L456,240L444,240L444,216L456,216L456,204L432,204L432,192L420,192L420,168L432,168L432,156M276,180L276,180L300,180L300,192L312,192L312,216L300,216L300,228L276,228L276,216L264,216L264,192L276,192L276,180M468,192L468,192L456,192L456,204L468,204L468,192M516,240L516,240L540,240L540,252L552,252L552,276L540,276L540,288L516,288L516,276L504,276L504,252L516,252L516,240M684,240L684,240L708,240L708,252L720,252L720,276L708,276L708,288L684,288L684,276L672,276L672,252L684,252L684,240M312,264L312,264L336,264L336,276L348,276L348,300L336,300L336,312L312,312L312,300L300,300L300,276L312,276L312,264M420,288L420,288L444,288L444,300L456,300L456,324L444,324L444,336L420,336L420,324L408,324L408,300L420,300L420,288M156,300L156,300L180,300L180,312L192,312L192,336L180,336L180,348L156,348L156,336L144,336L144,312L156,312L156,300M324,360L324,360L348,360L348,372L360,372L360,396L348,396L348,408L324,408L324,396L312,396L312,372L324,372L324,360M612,360L612,360L636,360L636,372L648,372L648,396L636,396L636,408L612,408L612,396L600,396L600,372L612,372L612,360M180,372L180,372L204,372L204,384L216,384L216,408L204,408L204,420L180,420L180,408L168,408L168,384L180,384L180,372M84,396L84,396L108,396L108,408L120,408L120,432L108,432L108,444L84,444L84,432L72,432L72,408L84,408L84,396M372,396L372,396L396,396L396,408L408,408L408,432L396,432L396,444L372,444L372,432L360,432L360,408L372,408L372,396M528,408L528,408L516,408L516,420L504,420L504,432L492,432L492,444L480,444L480,456L576,456L576,444L564,444L564,432L552,432L552,420L540,420L540,408Z" class="grass"></path><path d="M192,252L192,252L216,252L216,264L192,264L192,252M192,264L192,264L192,288L180,288L180,264L192,264M216,264L216,264L228,264L228,288L216,288L216,264M192,288L192,288L216,288L216,300L192,300Z" class="start"></path><path d="M756,432L756,432L768,432L768,480L720,480L720,468L756,468Z" class="finish"></path></g>
 <rect opacity=".3" fill="url(#grid)" height="100%" width="100%" y="0" x="0"></rect>
</svg>