<svg xmlns:xlink="http://www.w3.org/1999/xlink" xmlns="http://www.w3.org/2000/svg" height="1560" width="1344" id="mapSvgView" version="1.1" style="width: 1344px; height: 1560px;" viewBox="0 0 1344 1560">
 <defs>
 <pattern y="0" x="0" height="24" width="24" patternUnits="userSpaceOnUse" id="grassPattern">
 <rect class="grasscolor" height="24" width="24" y="0" x="0"></rect>
 <rect class="grassspeclecolor" height="1" width="1" x="1" y="5"></rect>
 <rect class="grassspeclecolor" height="1" width="1" x="1" y="5"></rect>
 <rect class="grassspeclecolor" height="1" width="1" x="3" y="5"></rect>
 <rect class="grassspeclecolor" height="1" width="1" x="6" y="7"></rect>
 <rect class="grassspeclecolor" height="1" width="1" x="6" y="17"></rect>
 <rect class="grassspeclecolor" height="1" width="1" x="8" y="21"></rect>
 <rect class="grassspeclecolor" height="1" width="1" x="9" y="2"></rect>
 <rect class="grassspeclecolor" height="1" width="1" x="12" y="4"></rect>
 <rect class="grassspeclecolor" height="1" width="1" x="13" y="15"></rect>
 <rect class="grassspeclecolor" height="1" width="1" x="14" y="4"></rect>
 <rect class="grassspeclecolor" height="1" width="1" x="14" y="19"></rect>
 <rect class="grassspeclecolor" height="1" width="1" x="17" y="7"></rect>
 <rect class="grassspeclecolor" height="1" width="1" x="17" y="12"></rect>
 <rect class="grassspeclecolor" height="1" width="1" x="18" y="23"></rect>
 <rect class="grassspeclecolor" height="1" width="1" x="21" y="16"></rect>
 <rect class="grassspeclecolor" height="1" width="1" x="23" y="12"></rect>
 </pattern>
 <pattern y="0" x="0" height="24" width="24" patternUnits="userSpaceOnUse" id="roadPattern">
 <rect class="roadcolor" height="24" width="24" y="0" x="0"></rect>
 <rect class="roadspeclecolor" height="1" width="1" x="1" y="5"></rect>
 <rect class="roadspeclecolor" height="1" width="1" x="1" y="5"></rect>
 <rect class="roadspeclecolor" height="1" width="1" x="3" y="5"></rect>
 <rect class="roadspeclecolor" height="1" width="1" x="6" y="7"></rect>
 <rect class="roadspeclecolor" height="1" width="1" x="6" y="17"></rect>
 <rect class="roadspeclecolor" height="1" width="1" x="8" y="21"></rect>
 <rect class="roadspeclecolor" height="1" width="1" x="9" y="2"></rect>
 <rect class="roadspeclecolor" height="1" width="1" x="12" y="4"></rect>
 <rect class="roadspeclecolor" height="1" width="1" x="13" y="15"></rect>
 <rect class="roadspeclecolor" height="1" width="1" x="14" y="4"></rect>
 <rect class="roadspeclecolor" height="1" width="1" x="14" y="19"></rect>
 <rect class="roadspeclecolor" height="1" width="1" x="17" y="7"></rect>
 <rect class="roadspeclecolor" height="1" width="1" x="17" y="12"></rect>
 <rect class="roadspeclecolor" height="1" width="1" x="18" y="23"></rect>
 <rect class="roadspeclecolor" height="1" width="1" x="21" y="16"></rect>
 <rect class="roadspeclecolor" height="1" width="1" x="23" y="12"></rect>
 </pattern>
 <pattern y="0" x="0" height="12" width="12" patternUnits="userSpaceOnUse" id="grid">
 <line stroke-width="1" stroke="black" y2="12" x2="12" y1="0" x1="12"></line>
 <line stroke-width="1" stroke="black" y2="12" x2="12" y1="12" x1="0"></line>
 </pattern>
 <pattern y="0" x="0" height="12" width="12" patternUnits="userSpaceOnUse" id="finishPattern">
 <rect fill="black" height="12" width="12" y="0" x="0"></rect>
 <path fill="white" d="M0,0L3,0L3,3L0,3L0,0M6,0L9,0L9,3L6,3L6,0M3,3L6,3L6,6L3,6L3,3M9,3L12,3L12,6L9,6L9,3"></path>
 <path fill="white" d="M0,6L3,6L3,9L0,9L0,6M6,6L9,6L9,9L6,9L6,6M3,9L6,9L6,12L3,12L3,9M9,9L12,9L12,12L9,12L9,9"></path>
 </pattern>
 <pattern y="0" x="0" height="12" width="12" patternUnits="userSpaceOnUse" id="startPattern">
 <rect fill="rgb(100,100,100)" height="12" width="12" y="0" x="0"></rect>
 <rect stroke-width="1" stroke="rgb(200,200,200)" fill="none" height="5" width="5" y="3.5" x="3.5"></rect>
 </pattern>
 <pattern y="0" x="0" height="12" width="12" patternUnits="userSpaceOnUse" id="cp1pattern">
 <rect class="cp1color" height="12" width="12" y="0" x="0"></rect>
 <path fill="black" d="M0,0L3,0L3,3L0,3L0,0M6,0L9,0L9,3L6,3L6,0M3,3L6,3L6,6L3,6L3,3M9,3L12,3L12,6L9,6L9,3"></path>
 <path fill="black" d="M0,6L3,6L3,9L0,9L0,6M6,6L9,6L9,9L6,9L6,6M3,9L6,9L6,12L3,12L3,9M9,9L12,9L12,12L9,12L9,9"></path>
 </pattern>
 <pattern y="0" x="0" height="12" width="12" patternUnits="userSpaceOnUse" id="cp2pattern">
 <rect class="cp2color" height="12" width="12" y="0" x="0"></rect>
 <path fill="white" d="M0,0L3,0L3,3L0,3L0,0M6,0L9,0L9,3L6,3L6,0M3,3L6,3L6,6L3,6L3,3M9,3L12,3L12,6L9,6L9,3"></path>
 <path fill="white" d="M0,6L3,6L3,9L0,9L0,6M6,6L9,6L9,9L6,9L6,6M3,9L6,9L6,12L3,12L3,9M9,9L12,9L12,12L9,12L9,9"></path>
 </pattern>
 <pattern y="0" x="0" height="12" width="12" patternUnits="userSpaceOnUse" id="cp3pattern">
 <rect class="cp3color" height="12" width="12" y="0" x="0"></rect>
 <path fill="black" d="M0,0L3,0L3,3L0,3L0,0M6,0L9,0L9,3L6,3L6,0M3,3L6,3L6,6L3,6L3,3M9,3L12,3L12,6L9,6L9,3"></path>
 <path fill="black" d="M0,6L3,6L3,9L0,9L0,6M6,6L9,6L9,9L6,9L6,6M3,9L6,9L6,12L3,12L3,9M9,9L12,9L12,12L9,12L9,9"></path>
 </pattern>
 <pattern y="0" x="0" height="12" width="12" patternUnits="userSpaceOnUse" id="cp4pattern">
 <rect class="cp4color" height="12" width="12" y="0" x="0"></rect>
 <path fill="white" d="M0,0L3,0L3,3L0,3L0,0M6,0L9,0L9,3L6,3L6,0M3,3L6,3L6,6L3,6L3,3M9,3L12,3L12,6L9,6L9,3"></path>
 <path fill="white" d="M0,6L3,6L3,9L0,9L0,6M6,6L9,6L9,9L6,9L6,6M3,9L6,9L6,12L3,12L3,9M9,9L12,9L12,12L9,12L9,9"></path>
 </pattern>
 <pattern y="0" x="0" height="12" width="12" patternUnits="userSpaceOnUse" id="cp5pattern">
 <rect class="cp5color" height="12" width="12" y="0" x="0"></rect>
 <path fill="black" d="M0,0L3,0L3,3L0,3L0,0M6,0L9,0L9,3L6,3L6,0M3,3L6,3L6,6L3,6L3,3M9,3L12,3L12,6L9,6L9,3"></path>
 <path fill="black" d="M0,6L3,6L3,9L0,9L0,6M6,6L9,6L9,9L6,9L6,6M3,9L6,9L6,12L3,12L3,9M9,9L12,9L12,12L9,12L9,9"></path>
 </pattern>
 <pattern y="0" x="0" height="12" width="12" patternUnits="userSpaceOnUse" id="cp6pattern">
 <rect class="cp6color" height="12" width="12" y="0" x="0"></rect>
 <path fill="white" d="M0,0L3,0L3,3L0,3L0,0M6,0L9,0L9,3L6,3L6,0M3,3L6,3L6,6L3,6L3,3M9,3L12,3L12,6L9,6L9,3"></path>
 <path fill="white" d="M0,6L3,6L3,9L0,9L0,6M6,6L9,6L9,9L6,9L6,6M3,9L6,9L6,12L3,12L3,9M9,9L12,9L12,12L9,12L9,9"></path>
 </pattern>
 <pattern y="0" x="0" height="12" width="12" patternUnits="userSpaceOnUse" id="cp7pattern">
 <rect class="cp7color" height="12" width="12" y="0" x="0"></rect>
 <path fill="black" d="M0,0L3,0L3,3L0,3L0,0M6,0L9,0L9,3L6,3L6,0M3,3L6,3L6,6L3,6L3,3M9,3L12,3L12,6L9,6L9,3"></path>
 <path fill="black" d="M0,6L3,6L3,9L0,9L0,6M6,6L9,6L9,9L6,9L6,6M3,9L6,9L6,12L3,12L3,9M9,9L12,9L12,12L9,12L9,9"></path>
 </pattern>
 <pattern y="0" x="0" height="12" width="12" patternUnits="userSpaceOnUse" id="cp8pattern">
 <rect class="cp8color" height="12" width="12" y="0" x="0"></rect>
 <path fill="white" d="M0,0L3,0L3,3L0,3L0,0M6,0L9,0L9,3L6,3L6,0M3,3L6,3L6,6L3,6L3,3M9,3L12,3L12,6L9,6L9,3"></path>
 <path fill="white" d="M0,6L3,6L3,9L0,9L0,6M6,6L9,6L9,9L6,9L6,6M3,9L6,9L6,12L3,12L3,9M9,9L12,9L12,12L9,12L9,9"></path>
 </pattern>
 <pattern y="0" x="0" height="12" width="12" patternUnits="userSpaceOnUse" id="cp9pattern">
 <rect class="cp9color" height="12" width="12" y="0" x="0"></rect>
 <path fill="black" d="M0,0L3,0L3,3L0,3L0,0M6,0L9,0L9,3L6,3L6,0M3,3L6,3L6,6L3,6L3,3M9,3L12,3L12,6L9,6L9,3"></path>
 <path fill="black" d="M0,6L3,6L3,9L0,9L0,6M6,6L9,6L9,9L6,9L6,6M3,9L6,9L6,12L3,12L3,9M9,9L12,9L12,12L9,12L9,9"></path>
 </pattern>
 </defs>
 <rect height="100%" width="100%" y="0" x="0" class="grass" id="mainfill"></rect>
 <g id="paths"><path d="M1224,24L1224,24L1236,24L1236,36L1224,36L1224,24M1236,36L1236,36L1248,36L1248,24L1260,24L1260,36L1248,36L1248,48L1236,48L1236,36M1260,36L1260,36L1272,36L1272,24L1284,24L1284,36L1272,36L1272,48L1260,48L1260,36M1284,36L1284,36L1296,36L1296,48L1284,48L1284,36M1248,48L1248,48L1260,48L1260,60L1248,60L1248,48M1236,48L1236,48L1236,60L1224,60L1224,48L1236,48M1272,48L1272,48L1284,48L1284,60L1272,60L1272,48M636,72L636,72L840,72L840,84L888,84L888,96L900,96L900,108L924,108L924,132L948,132L948,144L960,144L960,156L972,156L972,168L984,168L984,180L996,180L996,192L1008,192L1008,204L1020,204L1020,216L1032,216L1032,228L1044,228L1044,240L1056,240L1056,264L1068,264L1068,288L1080,288L1080,336L1092,336L1092,384L1104,384L1104,396L1116,396L1116,408L1128,408L1128,432L1116,432L1116,444L1104,444L1104,456L1092,456L1092,792L1104,792L1104,852L1116,852L1116,900L1128,900L1128,996L1140,996L1140,1032L1152,1032L1152,1044L1164,1044L1164,1068L1176,1068L1176,1092L1188,1092L1188,1116L1200,1116L1200,1152L1212,1152L1212,1164L1224,1164L1224,1176L1236,1176L1236,1200L1248,1200L1248,1224L1260,1224L1260,1248L1272,1248L1272,1296L1284,1296L1284,1332L1296,1332L1296,1428L1284,1428L1284,1488L1272,1488L1272,1536L1188,1536L1188,1356L1176,1356L1176,1320L1164,1320L1164,1284L1152,1284L1152,1236L1140,1236L1140,1224L1128,1224L1128,1200L1116,1200L1116,1152L1104,1152L1104,1224L1116,1224L1116,1260L1128,1260L1128,1356L1140,1356L1140,1524L1128,1524L1128,1536L1056,1536L1056,1476L1044,1476L1044,1392L1032,1392L1032,1260L1020,1260L1020,1368L1008,1368L1008,1428L996,1428L996,1524L984,1524L984,1536L924,1536L924,1524L900,1524L900,1416L912,1416L912,1404L924,1404L924,1356L912,1356L912,1368L900,1368L900,1380L888,1380L888,1392L876,1392L876,1428L864,1428L864,1512L852,1512L852,1524L840,1524L840,1536L780,1536L780,1524L768,1524L768,1488L756,1488L756,1440L744,1440L744,1392L756,1392L756,1356L780,1356L780,1332L792,1332L792,1308L804,1308L804,1284L816,1284L816,1260L828,1260L828,1248L840,1248L840,1236L852,1236L852,1224L864,1224L864,1200L876,1200L876,1176L888,1176L888,1140L900,1140L900,1116L912,1116L912,1104L936,1104L936,1032L948,1032L948,936L960,936L960,876L972,876L972,840L960,840L960,828L948,828L948,816L924,816L924,804L912,804L912,792L900,792L900,780L876,780L876,768L720,768L720,780L684,780L684,792L648,792L648,804L636,804L636,816L624,816L624,828L612,828L612,840L600,840L600,852L588,852L588,876L600,876L600,900L612,900L612,960L624,960L624,972L636,972L636,984L648,984L648,996L660,996L660,1020L672,1020L672,1032L684,1032L684,1068L696,1068L696,1188L684,1188L684,1212L672,1212L672,1236L660,1236L660,1248L648,1248L648,1260L636,1260L636,1272L624,1272L624,1284L612,1284L612,1296L576,1296L576,1308L552,1308L552,1320L516,1320L516,1332L480,1332L480,1344L468,1344L468,1356L420,1356L420,1344L408,1344L408,1332L348,1332L348,1320L324,1320L324,1308L288,1308L288,1296L276,1296L276,1284L240,1284L240,1272L228,1272L228,1260L192,1260L192,1248L180,1248L180,1236L168,1236L168,1224L156,1224L156,1212L144,1212L144,1200L120,1200L120,1188L108,1188L108,1176L96,1176L96,1152L84,1152L84,1128L72,1128L72,912L84,912L84,900L96,900L96,888L108,888L108,876L120,876L120,864L132,864L132,852L144,852L144,840L156,840L156,828L180,828L180,816L216,816L216,792L264,792L264,780L288,780L288,768L324,768L324,756L408,756L408,744L480,744L480,732L528,732L528,720L624,720L624,708L660,708L660,696L708,696L708,684L744,684L744,672L756,672L756,660L780,660L780,648L816,648L816,612L828,612L828,588L840,588L840,564L828,564L828,552L816,552L816,504L828,504L828,492L840,492L840,444L828,444L828,432L816,432L816,420L804,420L804,408L792,408L792,396L756,396L756,384L708,384L708,372L624,372L624,360L516,360L516,348L480,348L480,336L468,336L468,324L444,324L444,312L432,312L432,300L420,300L420,276L408,276L408,204L420,204L420,180L432,180L432,168L444,168L444,156L468,156L468,144L480,144L480,132L492,132L492,120L504,120L504,108L528,108L528,96L576,96L576,84L636,84L636,72M612,156L612,156L600,156L600,168L588,168L588,240L600,240L600,252L588,252L588,264L600,264L600,276L648,276L648,288L744,288L744,300L780,300L780,312L804,312L804,324L828,324L828,336L840,336L840,348L864,348L864,360L876,360L876,384L888,384L888,396L900,396L900,408L912,408L912,420L924,420L924,624L912,624L912,648L900,648L900,660L888,660L888,684L852,684L852,696L804,696L804,708L744,708L744,720L720,720L720,732L684,732L684,744L636,744L636,756L612,756L612,768L588,768L588,780L564,780L564,792L516,792L516,804L480,804L480,816L432,816L432,828L360,828L360,840L348,840L348,852L300,852L300,864L276,864L276,876L240,876L240,888L216,888L216,900L192,900L192,912L180,912L180,924L168,924L168,936L156,936L156,972L144,972L144,996L156,996L156,1008L168,1008L168,1020L180,1020L180,1032L192,1032L192,1056L156,1056L156,1068L144,1068L144,1092L156,1092L156,1104L168,1104L168,1116L180,1116L180,1128L192,1128L192,1140L204,1140L204,1152L216,1152L216,1176L240,1176L240,1188L264,1188L264,1200L276,1200L276,1212L312,1212L312,1224L324,1224L324,1236L372,1236L372,1248L492,1248L492,1236L540,1236L540,1224L576,1224L576,1212L588,1212L588,1200L600,1200L600,1164L612,1164L612,1080L600,1080L600,1056L588,1056L588,1032L576,1032L576,1020L564,1020L564,1008L540,1008L540,996L528,996L528,1008L504,1008L504,1032L516,1032L516,1044L528,1044L528,1056L540,1056L540,1080L552,1080L552,1152L540,1152L540,1176L528,1176L528,1188L516,1188L516,1200L480,1200L480,1212L432,1212L432,1200L396,1200L396,1188L384,1188L384,1176L372,1176L372,1152L360,1152L360,1068L372,1068L372,1056L384,1056L384,1044L396,1044L396,1032L420,1032L420,948L444,948L444,936L468,936L468,924L492,924L492,912L504,912L504,900L516,900L516,888L528,888L528,864L516,864L516,840L528,840L528,828L540,828L540,816L552,816L552,804L576,804L576,792L612,792L612,780L624,780L624,768L648,768L648,756L696,756L696,744L744,744L744,732L804,732L804,720L852,720L852,708L900,708L900,720L924,720L924,732L972,732L972,744L996,744L996,684L1008,684L1008,612L1020,612L1020,372L1008,372L1008,324L996,324L996,312L984,312L984,300L972,300L972,276L960,276L960,264L948,264L948,252L936,252L936,240L924,240L924,228L912,228L912,216L900,216L900,204L888,204L888,192L864,192L864,180L852,180L852,168L828,168L828,156L612,156M936,1320L936,1320L924,1320L924,1356L936,1356Z" class="road"></path><path d="M1008,612L1008,612L1092,612L1092,636L1008,636Z" class="cp1"></path><path d="M852,168L852,168L876,168L876,180L996,180L996,192L1008,192L1008,204L1020,204L1020,216L996,216L996,204L888,204L888,192L864,192L864,180L852,180Z" class="cp2"></path><path d="M528,96L528,96L540,96L540,108L552,108L552,120L564,120L564,132L576,132L576,144L600,144L600,168L576,168L576,156L564,156L564,144L552,144L552,132L540,132L540,120L504,120L504,108L528,108Z" class="cp3"></path><path d="M624,276L624,276L648,276L648,372L624,372Z" class="cp4"></path><path d="M564,720L564,720L600,720L600,744L612,744L612,768L588,768L588,744L576,744L576,732L564,732Z" class="cp5"></path><path d="M72,912L72,912L108,912L108,924L120,924L120,936L156,936L156,972L144,972L144,960L120,960L120,948L108,948L108,936L72,936Z" class="cp6"></path><path d="M396,1248L396,1248L420,1248L420,1320L432,1320L432,1344L444,1344L444,1356L420,1356L420,1344L408,1344L408,1332L396,1332Z" class="cp7"></path><path d="M588,1032L588,1032L684,1032L684,1056L588,1056Z" class="cp8"></path><path d="M408,228L408,228L432,228L432,252L408,252L408,228M1104,408L1104,408L1128,408L1128,432L1104,432L1104,408M816,516L816,516L840,516L840,540L816,540L816,516M420,948L420,948L444,948L444,972L420,972L420,948M168,1032L168,1032L192,1032L192,1056L168,1056Z" class="cp9"></path><path d="M0,0L0,0L12,0L12,156L0,156Z" class="parc"></path><path d="M1212,12L1212,12L1296,12L1296,36L1284,36L1284,24L1272,24L1272,36L1260,36L1260,24L1248,24L1248,36L1236,36L1236,24L1224,24L1224,36L1212,36L1212,12M1224,36L1224,36L1236,36L1236,48L1224,48L1224,36M1248,36L1248,36L1260,36L1260,48L1248,48L1248,36M1272,36L1272,36L1284,36L1284,48L1272,48L1272,36M1296,36L1296,36L1308,36L1308,48L1296,48L1296,36M1236,48L1236,48L1248,48L1248,60L1260,60L1260,48L1272,48L1272,60L1284,60L1284,48L1296,48L1296,72L1212,72L1212,48L1224,48L1224,60L1236,60Z" class="sand"></path><path d="M1224,24L1224,24L1236,24L1236,36L1224,36L1224,24M1236,36L1236,36L1248,36L1248,24L1260,24L1260,36L1248,36L1248,48L1236,48L1236,36M1260,36L1260,36L1272,36L1272,24L1284,24L1284,36L1272,36L1272,48L1260,48L1260,36M1284,36L1284,36L1296,36L1296,48L1284,48L1284,36M1248,48L1248,48L1260,48L1260,60L1248,60L1248,48M1236,48L1236,48L1236,60L1224,60L1224,48L1236,48M1272,48L1272,48L1284,48L1284,60L1272,60L1272,48M528,1080L528,1080L540,1080L540,1152L528,1152L528,1164L516,1164L516,1176L492,1176L492,1188L432,1188L432,1176L408,1176L408,1164L396,1164L396,1152L384,1152L384,1140L372,1140L372,1116L384,1116L384,1128L396,1128L396,1140L408,1140L408,1152L432,1152L432,1164L480,1164L480,1152L492,1152L492,1140L516,1140L516,1116L528,1116L528,1080M432,1116L432,1116L444,1116L444,1128L432,1128L432,1116M432,1128L432,1128L432,1140L420,1140L420,1128L432,1128M468,1116L468,1116L480,1116L480,1128L468,1128L468,1116M468,1128L468,1128L468,1140L456,1140L456,1128Z" class="finish"></path><path d="M792,1512L792,1512L828,1512L828,1524L792,1524L792,1512M924,1512L924,1512L948,1512L948,1524L924,1524L924,1512M960,1512L960,1512L984,1512L984,1524L960,1524L960,1512M1080,1512L1080,1512L1116,1512L1116,1524L1080,1524L1080,1512M1212,1512L1212,1512L1248,1512L1248,1524L1212,1524Z" class="start"></path></g>
 <rect opacity=".3" fill="url(#grid)" height="100%" width="100%" y="0" x="0"></rect>
</svg>