<svg xmlns:xlink="http://www.w3.org/1999/xlink" xmlns="http://www.w3.org/2000/svg" height="948" width="1596" id="mapSvgView" version="1.1" style="width: 1596px; height: 948px;" viewBox="0 0 1596 948">
 <defs>
 <pattern y="0" x="0" height="24" width="24" patternUnits="userSpaceOnUse" id="grassPattern">
 <rect class="grasscolor" height="24" width="24" y="0" x="0"></rect>
 <rect class="grassspeclecolor" height="1" width="1" x="1" y="5"></rect>
 <rect class="grassspeclecolor" height="1" width="1" x="1" y="5"></rect>
 <rect class="grassspeclecolor" height="1" width="1" x="3" y="5"></rect>
 <rect class="grassspeclecolor" height="1" width="1" x="6" y="7"></rect>
 <rect class="grassspeclecolor" height="1" width="1" x="6" y="17"></rect>
 <rect class="grassspeclecolor" height="1" width="1" x="8" y="21"></rect>
 <rect class="grassspeclecolor" height="1" width="1" x="9" y="2"></rect>
 <rect class="grassspeclecolor" height="1" width="1" x="12" y="4"></rect>
 <rect class="grassspeclecolor" height="1" width="1" x="13" y="15"></rect>
 <rect class="grassspeclecolor" height="1" width="1" x="14" y="4"></rect>
 <rect class="grassspeclecolor" height="1" width="1" x="14" y="19"></rect>
 <rect class="grassspeclecolor" height="1" width="1" x="17" y="7"></rect>
 <rect class="grassspeclecolor" height="1" width="1" x="17" y="12"></rect>
 <rect class="grassspeclecolor" height="1" width="1" x="18" y="23"></rect>
 <rect class="grassspeclecolor" height="1" width="1" x="21" y="16"></rect>
 <rect class="grassspeclecolor" height="1" width="1" x="23" y="12"></rect>
 </pattern>
 <pattern y="0" x="0" height="24" width="24" patternUnits="userSpaceOnUse" id="roadPattern">
 <rect class="roadcolor" height="24" width="24" y="0" x="0"></rect>
 <rect class="roadspeclecolor" height="1" width="1" x="1" y="5"></rect>
 <rect class="roadspeclecolor" height="1" width="1" x="1" y="5"></rect>
 <rect class="roadspeclecolor" height="1" width="1" x="3" y="5"></rect>
 <rect class="roadspeclecolor" height="1" width="1" x="6" y="7"></rect>
 <rect class="roadspeclecolor" height="1" width="1" x="6" y="17"></rect>
 <rect class="roadspeclecolor" height="1" width="1" x="8" y="21"></rect>
 <rect class="roadspeclecolor" height="1" width="1" x="9" y="2"></rect>
 <rect class="roadspeclecolor" height="1" width="1" x="12" y="4"></rect>
 <rect class="roadspeclecolor" height="1" width="1" x="13" y="15"></rect>
 <rect class="roadspeclecolor" height="1" width="1" x="14" y="4"></rect>
 <rect class="roadspeclecolor" height="1" width="1" x="14" y="19"></rect>
 <rect class="roadspeclecolor" height="1" width="1" x="17" y="7"></rect>
 <rect class="roadspeclecolor" height="1" width="1" x="17" y="12"></rect>
 <rect class="roadspeclecolor" height="1" width="1" x="18" y="23"></rect>
 <rect class="roadspeclecolor" height="1" width="1" x="21" y="16"></rect>
 <rect class="roadspeclecolor" height="1" width="1" x="23" y="12"></rect>
 </pattern>
 <pattern y="0" x="0" height="12" width="12" patternUnits="userSpaceOnUse" id="grid">
 <line stroke-width="1" stroke="black" y2="12" x2="12" y1="0" x1="12"></line>
 <line stroke-width="1" stroke="black" y2="12" x2="12" y1="12" x1="0"></line>
 </pattern>
 <pattern y="0" x="0" height="12" width="12" patternUnits="userSpaceOnUse" id="finishPattern">
 <rect fill="black" height="12" width="12" y="0" x="0"></rect>
 <path fill="white" d="M0,0L3,0L3,3L0,3L0,0M6,0L9,0L9,3L6,3L6,0M3,3L6,3L6,6L3,6L3,3M9,3L12,3L12,6L9,6L9,3"></path>
 <path fill="white" d="M0,6L3,6L3,9L0,9L0,6M6,6L9,6L9,9L6,9L6,6M3,9L6,9L6,12L3,12L3,9M9,9L12,9L12,12L9,12L9,9"></path>
 </pattern>
 <pattern y="0" x="0" height="12" width="12" patternUnits="userSpaceOnUse" id="startPattern">
 <rect fill="rgb(100,100,100)" height="12" width="12" y="0" x="0"></rect>
 <rect stroke-width="1" stroke="rgb(200,200,200)" fill="none" height="5" width="5" y="3.5" x="3.5"></rect>
 </pattern>
 <pattern y="0" x="0" height="12" width="12" patternUnits="userSpaceOnUse" id="cp1pattern">
 <rect class="cp1color" height="12" width="12" y="0" x="0"></rect>
 <path fill="black" d="M0,0L3,0L3,3L0,3L0,0M6,0L9,0L9,3L6,3L6,0M3,3L6,3L6,6L3,6L3,3M9,3L12,3L12,6L9,6L9,3"></path>
 <path fill="black" d="M0,6L3,6L3,9L0,9L0,6M6,6L9,6L9,9L6,9L6,6M3,9L6,9L6,12L3,12L3,9M9,9L12,9L12,12L9,12L9,9"></path>
 </pattern>
 <pattern y="0" x="0" height="12" width="12" patternUnits="userSpaceOnUse" id="cp2pattern">
 <rect class="cp2color" height="12" width="12" y="0" x="0"></rect>
 <path fill="white" d="M0,0L3,0L3,3L0,3L0,0M6,0L9,0L9,3L6,3L6,0M3,3L6,3L6,6L3,6L3,3M9,3L12,3L12,6L9,6L9,3"></path>
 <path fill="white" d="M0,6L3,6L3,9L0,9L0,6M6,6L9,6L9,9L6,9L6,6M3,9L6,9L6,12L3,12L3,9M9,9L12,9L12,12L9,12L9,9"></path>
 </pattern>
 <pattern y="0" x="0" height="12" width="12" patternUnits="userSpaceOnUse" id="cp3pattern">
 <rect class="cp3color" height="12" width="12" y="0" x="0"></rect>
 <path fill="black" d="M0,0L3,0L3,3L0,3L0,0M6,0L9,0L9,3L6,3L6,0M3,3L6,3L6,6L3,6L3,3M9,3L12,3L12,6L9,6L9,3"></path>
 <path fill="black" d="M0,6L3,6L3,9L0,9L0,6M6,6L9,6L9,9L6,9L6,6M3,9L6,9L6,12L3,12L3,9M9,9L12,9L12,12L9,12L9,9"></path>
 </pattern>
 <pattern y="0" x="0" height="12" width="12" patternUnits="userSpaceOnUse" id="cp4pattern">
 <rect class="cp4color" height="12" width="12" y="0" x="0"></rect>
 <path fill="white" d="M0,0L3,0L3,3L0,3L0,0M6,0L9,0L9,3L6,3L6,0M3,3L6,3L6,6L3,6L3,3M9,3L12,3L12,6L9,6L9,3"></path>
 <path fill="white" d="M0,6L3,6L3,9L0,9L0,6M6,6L9,6L9,9L6,9L6,6M3,9L6,9L6,12L3,12L3,9M9,9L12,9L12,12L9,12L9,9"></path>
 </pattern>
 <pattern y="0" x="0" height="12" width="12" patternUnits="userSpaceOnUse" id="cp5pattern">
 <rect class="cp5color" height="12" width="12" y="0" x="0"></rect>
 <path fill="black" d="M0,0L3,0L3,3L0,3L0,0M6,0L9,0L9,3L6,3L6,0M3,3L6,3L6,6L3,6L3,3M9,3L12,3L12,6L9,6L9,3"></path>
 <path fill="black" d="M0,6L3,6L3,9L0,9L0,6M6,6L9,6L9,9L6,9L6,6M3,9L6,9L6,12L3,12L3,9M9,9L12,9L12,12L9,12L9,9"></path>
 </pattern>
 <pattern y="0" x="0" height="12" width="12" patternUnits="userSpaceOnUse" id="cp6pattern">
 <rect class="cp6color" height="12" width="12" y="0" x="0"></rect>
 <path fill="white" d="M0,0L3,0L3,3L0,3L0,0M6,0L9,0L9,3L6,3L6,0M3,3L6,3L6,6L3,6L3,3M9,3L12,3L12,6L9,6L9,3"></path>
 <path fill="white" d="M0,6L3,6L3,9L0,9L0,6M6,6L9,6L9,9L6,9L6,6M3,9L6,9L6,12L3,12L3,9M9,9L12,9L12,12L9,12L9,9"></path>
 </pattern>
 <pattern y="0" x="0" height="12" width="12" patternUnits="userSpaceOnUse" id="cp7pattern">
 <rect class="cp7color" height="12" width="12" y="0" x="0"></rect>
 <path fill="black" d="M0,0L3,0L3,3L0,3L0,0M6,0L9,0L9,3L6,3L6,0M3,3L6,3L6,6L3,6L3,3M9,3L12,3L12,6L9,6L9,3"></path>
 <path fill="black" d="M0,6L3,6L3,9L0,9L0,6M6,6L9,6L9,9L6,9L6,6M3,9L6,9L6,12L3,12L3,9M9,9L12,9L12,12L9,12L9,9"></path>
 </pattern>
 <pattern y="0" x="0" height="12" width="12" patternUnits="userSpaceOnUse" id="cp8pattern">
 <rect class="cp8color" height="12" width="12" y="0" x="0"></rect>
 <path fill="white" d="M0,0L3,0L3,3L0,3L0,0M6,0L9,0L9,3L6,3L6,0M3,3L6,3L6,6L3,6L3,3M9,3L12,3L12,6L9,6L9,3"></path>
 <path fill="white" d="M0,6L3,6L3,9L0,9L0,6M6,6L9,6L9,9L6,9L6,6M3,9L6,9L6,12L3,12L3,9M9,9L12,9L12,12L9,12L9,9"></path>
 </pattern>
 <pattern y="0" x="0" height="12" width="12" patternUnits="userSpaceOnUse" id="cp9pattern">
 <rect class="cp9color" height="12" width="12" y="0" x="0"></rect>
 <path fill="black" d="M0,0L3,0L3,3L0,3L0,0M6,0L9,0L9,3L6,3L6,0M3,3L6,3L6,6L3,6L3,3M9,3L12,3L12,6L9,6L9,3"></path>
 <path fill="black" d="M0,6L3,6L3,9L0,9L0,6M6,6L9,6L9,9L6,9L6,6M3,9L6,9L6,12L3,12L3,9M9,9L12,9L12,12L9,12L9,9"></path>
 </pattern>
 </defs>
 <rect height="100%" width="100%" y="0" x="0" class="grass" id="mainfill"></rect>
 <g id="paths"><path d="M240,60L240,60L252,60L252,72L264,72L264,84L276,84L276,96L300,96L300,108L324,108L324,120L348,120L348,132L384,132L384,144L396,144L396,156L420,156L420,168L444,168L444,180L456,180L456,192L468,192L468,216L492,216L492,252L504,252L504,276L516,276L516,336L540,336L540,324L552,324L552,312L564,312L564,300L576,300L576,288L588,288L588,276L600,276L600,264L612,264L612,252L624,252L624,240L636,240L636,228L660,228L660,216L708,216L708,204L756,204L756,192L744,192L744,156L732,156L732,120L744,120L744,96L756,96L756,84L768,84L768,144L780,144L780,204L852,204L852,216L876,216L876,228L888,228L888,240L900,240L900,252L924,252L924,276L936,276L936,312L948,312L948,384L936,384L936,408L924,408L924,420L912,420L912,432L900,432L900,444L888,444L888,456L864,456L864,468L840,468L840,480L804,480L804,492L780,492L780,504L732,504L732,516L720,516L720,528L708,528L708,552L696,552L696,636L708,636L708,660L720,660L720,684L732,684L732,696L756,696L756,708L852,708L852,684L840,684L840,648L852,648L852,636L876,636L876,612L888,612L888,600L900,600L900,564L912,564L912,660L900,660L900,672L888,672L888,684L876,684L876,708L900,708L900,696L924,696L924,684L948,684L948,672L972,672L972,660L984,660L984,648L996,648L996,636L1008,636L1008,624L1020,624L1020,612L1032,612L1032,600L1044,600L1044,576L1056,576L1056,564L1068,564L1068,552L1080,552L1080,564L1092,564L1092,600L1104,600L1104,624L1116,624L1116,648L1128,648L1128,672L1140,672L1140,684L1152,684L1152,696L1164,696L1164,708L1176,708L1176,720L1188,720L1188,732L1200,732L1200,744L1212,744L1212,756L1224,756L1224,768L1248,768L1248,780L1284,780L1284,720L1272,720L1272,672L1260,672L1260,648L1248,648L1248,624L1236,624L1236,600L1224,600L1224,588L1212,588L1212,564L1200,564L1200,552L1380,552L1380,540L1404,540L1404,528L1416,528L1416,504L1404,504L1404,492L1380,492L1380,480L1356,480L1356,468L1320,468L1320,456L1272,456L1272,444L1212,444L1212,432L1236,432L1236,408L1248,408L1248,396L1260,396L1260,384L1272,384L1272,372L1284,372L1284,348L1296,348L1296,336L1308,336L1308,300L1320,300L1320,264L1332,264L1332,240L1344,240L1344,216L1332,216L1332,204L1320,204L1320,216L1308,216L1308,228L1272,228L1272,240L1260,240L1260,252L1236,252L1236,264L1224,264L1224,276L1212,276L1212,288L1188,288L1188,300L1176,300L1176,312L1164,312L1164,324L1152,324L1152,336L1140,336L1140,360L1128,360L1128,372L1116,372L1116,276L1104,276L1104,252L1092,252L1092,216L1080,216L1080,204L1068,204L1068,180L1056,180L1056,168L1032,168L1032,216L1020,216L1020,420L1008,420L1008,408L996,408L996,384L984,384L984,360L972,360L972,204L984,204L984,156L996,156L996,120L1008,120L1008,96L1020,96L1020,84L1032,84L1032,72L1044,72L1044,96L1056,96L1056,120L1068,120L1068,144L1092,144L1092,168L1104,168L1104,192L1116,192L1116,216L1128,216L1128,240L1140,240L1140,288L1152,288L1152,276L1164,276L1164,264L1176,264L1176,240L1188,240L1188,228L1200,228L1200,216L1212,216L1212,204L1236,204L1236,192L1260,192L1260,180L1296,180L1296,168L1332,168L1332,156L1392,156L1392,180L1404,180L1404,204L1392,204L1392,276L1380,276L1380,300L1368,300L1368,336L1356,336L1356,348L1344,348L1344,372L1332,372L1332,384L1320,384L1320,396L1308,396L1308,420L1368,420L1368,432L1416,432L1416,444L1428,444L1428,456L1464,456L1464,468L1476,468L1476,480L1500,480L1500,492L1512,492L1512,504L1536,504L1536,516L1560,516L1560,528L1536,528L1536,540L1512,540L1512,552L1488,552L1488,564L1464,564L1464,576L1452,576L1452,588L1440,588L1440,576L1428,576L1428,588L1380,588L1380,600L1356,600L1356,588L1332,588L1332,600L1272,600L1272,612L1284,612L1284,624L1296,624L1296,648L1308,648L1308,672L1320,672L1320,708L1332,708L1332,768L1344,768L1344,864L1356,864L1356,888L1344,888L1344,876L1332,876L1332,864L1320,864L1320,852L1296,852L1296,840L1272,840L1272,828L1248,828L1248,816L1212,816L1212,804L1200,804L1200,792L1176,792L1176,780L1152,780L1152,768L1140,768L1140,756L1128,756L1128,732L1104,732L1104,696L1092,696L1092,672L1080,672L1080,612L1056,612L1056,624L1044,624L1044,636L1032,636L1032,648L1020,648L1020,660L1008,660L1008,672L996,672L996,684L984,684L984,696L972,696L972,708L960,708L960,720L936,720L936,732L888,732L888,744L840,744L840,756L852,756L852,792L864,792L864,828L852,828L852,852L840,852L840,864L828,864L828,804L816,804L816,744L744,744L744,732L720,732L720,720L708,720L708,708L696,708L696,696L672,696L672,672L660,672L660,636L648,636L648,564L660,564L660,540L672,540L672,528L684,528L684,516L696,516L696,504L708,504L708,492L732,492L732,480L756,480L756,468L792,468L792,456L828,456L828,444L864,444L864,432L876,432L876,420L888,420L888,396L900,396L900,312L888,312L888,288L876,288L876,264L864,264L864,252L840,252L840,240L744,240L744,264L756,264L756,300L744,300L744,312L720,312L720,336L708,336L708,348L696,348L696,384L684,384L684,288L696,288L696,276L708,276L708,264L720,264L720,240L696,240L696,252L672,252L672,264L648,264L648,276L624,276L624,288L612,288L612,300L600,300L600,312L588,312L588,324L576,324L576,336L564,336L564,348L552,348L552,372L540,372L540,384L528,384L528,396L516,396L516,384L504,384L504,348L492,348L492,324L480,324L480,300L468,300L468,276L456,276L456,264L444,264L444,252L432,252L432,240L420,240L420,228L408,228L408,216L396,216L396,204L384,204L384,192L372,192L372,180L348,180L348,168L312,168L312,228L324,228L324,276L336,276L336,300L348,300L348,324L360,324L360,348L372,348L372,360L384,360L384,384L396,384L396,396L216,396L216,408L192,408L192,420L180,420L180,444L192,444L192,456L216,456L216,468L240,468L240,480L276,480L276,492L324,492L324,504L384,504L384,516L360,516L360,540L348,540L348,552L336,552L336,564L324,564L324,576L312,576L312,600L300,600L300,612L288,612L288,648L276,648L276,684L264,684L264,708L252,708L252,732L264,732L264,744L276,744L276,732L288,732L288,720L324,720L324,708L336,708L336,696L360,696L360,684L372,684L372,672L384,672L384,660L408,660L408,648L420,648L420,636L432,636L432,624L444,624L444,612L456,612L456,588L468,588L468,576L480,576L480,672L492,672L492,696L504,696L504,732L516,732L516,744L528,744L528,768L540,768L540,780L564,780L564,732L576,732L576,528L564,528L564,516L576,516L576,528L588,528L588,540L600,540L600,564L612,564L612,588L624,588L624,744L612,744L612,792L600,792L600,828L588,828L588,852L576,852L576,864L564,864L564,876L552,876L552,852L540,852L540,828L528,828L528,804L504,804L504,780L492,780L492,756L480,756L480,732L468,732L468,708L456,708L456,660L444,660L444,672L432,672L432,684L420,684L420,708L408,708L408,720L396,720L396,732L384,732L384,744L360,744L360,756L336,756L336,768L300,768L300,780L264,780L264,792L204,792L204,768L192,768L192,744L204,744L204,672L216,672L216,648L228,648L228,612L240,612L240,600L252,600L252,576L264,576L264,564L276,564L276,552L288,552L288,528L228,528L228,516L180,516L180,504L168,504L168,492L132,492L132,480L120,480L120,468L96,468L96,456L84,456L84,444L60,444L60,432L36,432L36,420L60,420L60,408L84,408L84,396L108,396L108,384L132,384L132,372L144,372L144,360L156,360L156,372L168,372L168,360L216,360L216,348L240,348L240,360L264,360L264,348L324,348L324,336L312,336L312,324L300,324L300,300L288,300L288,276L276,276L276,240L264,240L264,180L252,180L252,84L240,84L240,60M1020,420L1020,420L1032,420L1032,432L1020,432Z" class="road"></path><path d="M0,0L0,0L12,0L12,48L0,48Z" class="parc"></path><path d="M216,12L216,12L240,12L240,24L252,24L252,36L264,36L264,48L276,48L276,60L300,60L300,72L324,72L324,84L336,84L336,96L372,96L372,108L396,108L396,120L420,120L420,132L444,132L444,144L468,144L468,168L480,168L480,180L492,180L492,192L504,192L504,216L516,216L516,240L528,240L528,252L540,252L540,300L552,300L552,288L564,288L564,276L576,276L576,264L588,264L588,252L600,252L600,240L612,240L612,228L624,228L624,216L648,216L648,204L684,204L684,192L708,192L708,108L720,108L720,96L732,96L732,72L756,72L756,60L780,60L780,48L816,48L816,72L804,72L804,84L792,84L792,120L804,120L804,144L816,144L816,168L804,168L804,180L876,180L876,192L900,192L900,204L912,204L912,216L924,216L924,228L936,228L936,252L948,252L948,216L960,216L960,168L972,168L972,120L984,120L984,96L996,96L996,72L1008,72L1008,36L1020,36L1020,24L1032,24L1032,12L1056,12L1056,48L1068,48L1068,84L1080,84L1080,96L1092,96L1092,120L1104,120L1104,132L1116,132L1116,144L1128,144L1128,180L1140,180L1140,216L1152,216L1152,240L1164,240L1164,216L1176,216L1176,204L1200,204L1200,180L1236,180L1236,168L1248,168L1248,156L1284,156L1284,144L1308,144L1308,132L1356,132L1356,120L1404,120L1404,132L1416,132L1416,168L1428,168L1428,228L1416,228L1416,276L1404,276L1404,312L1392,312L1392,348L1380,348L1380,360L1368,360L1368,372L1356,372L1356,384L1344,384L1344,396L1392,396L1392,408L1440,408L1440,420L1452,420L1452,432L1476,432L1476,444L1500,444L1500,456L1512,456L1512,468L1536,468L1536,480L1548,480L1548,492L1572,492L1572,504L1584,504L1584,528L1572,528L1572,552L1560,552L1560,564L1524,564L1524,576L1488,576L1488,588L1476,588L1476,600L1440,600L1440,612L1416,612L1416,624L1320,624L1320,636L1332,636L1332,648L1344,648L1344,684L1356,684L1356,732L1368,732L1368,852L1380,852L1380,936L1356,936L1356,924L1344,924L1344,912L1332,912L1332,900L1320,900L1320,888L1296,888L1296,876L1272,876L1272,864L1260,864L1260,852L1224,852L1224,840L1200,840L1200,828L1176,828L1176,816L1152,816L1152,804L1128,804L1128,780L1116,780L1116,768L1104,768L1104,756L1092,756L1092,732L1080,732L1080,708L1068,708L1068,696L1056,696L1056,648L1044,648L1044,660L1032,660L1032,672L1020,672L1020,684L1008,684L1008,696L996,696L996,708L984,708L984,720L972,720L972,732L948,732L948,744L912,744L912,756L888,756L888,840L876,840L876,852L864,852L864,876L840,876L840,888L816,888L816,900L780,900L780,876L792,876L792,864L804,864L804,828L792,828L792,804L780,804L780,780L792,780L792,768L720,768L720,756L696,756L696,744L684,744L684,732L672,732L672,720L660,720L660,696L648,696L648,732L636,732L636,780L624,780L624,828L612,828L612,852L600,852L600,876L588,876L588,912L576,912L576,924L564,924L564,936L540,936L540,900L528,900L528,864L516,864L516,852L504,852L504,828L492,828L492,816L480,816L480,804L468,804L468,768L456,768L456,732L444,732L444,708L432,708L432,732L420,732L420,744L396,744L396,768L360,768L360,780L348,780L348,792L312,792L312,804L288,804L288,816L240,816L240,828L192,828L192,816L180,816L180,780L168,780L168,720L180,720L180,672L192,672L192,636L204,636L204,600L216,600L216,588L228,588L228,576L240,576L240,564L252,564L252,552L204,552L204,540L156,540L156,528L144,528L144,516L120,516L120,504L96,504L96,492L84,492L84,480L60,480L60,468L48,468L48,456L24,456L24,444L12,444L12,420L24,420L24,396L36,396L36,384L72,384L72,372L108,372L108,360L120,360L120,348L156,348L156,336L180,336L180,324L276,324L276,312L264,312L264,300L252,300L252,264L240,264L240,216L228,216L228,96L216,96L216,12M252,60L252,60L240,60L240,84L252,84L252,180L264,180L264,240L276,240L276,276L288,276L288,300L300,300L300,324L312,324L312,336L324,336L324,348L264,348L264,360L240,360L240,348L216,348L216,360L168,360L168,372L156,372L156,360L144,360L144,372L132,372L132,384L108,384L108,396L84,396L84,408L60,408L60,420L36,420L36,432L60,432L60,444L84,444L84,456L96,456L96,468L120,468L120,480L132,480L132,492L168,492L168,504L180,504L180,516L228,516L228,528L288,528L288,552L276,552L276,564L264,564L264,576L252,576L252,600L240,600L240,612L228,612L228,648L216,648L216,672L204,672L204,744L192,744L192,768L204,768L204,792L264,792L264,780L300,780L300,768L336,768L336,756L360,756L360,744L384,744L384,732L396,732L396,720L408,720L408,708L420,708L420,684L432,684L432,672L444,672L444,660L456,660L456,708L468,708L468,732L480,732L480,756L492,756L492,780L504,780L504,804L528,804L528,828L540,828L540,852L552,852L552,876L564,876L564,864L576,864L576,852L588,852L588,828L600,828L600,792L612,792L612,744L624,744L624,588L612,588L612,564L600,564L600,540L588,540L588,528L576,528L576,516L564,516L564,528L576,528L576,732L564,732L564,780L540,780L540,768L528,768L528,744L516,744L516,732L504,732L504,696L492,696L492,672L480,672L480,576L468,576L468,588L456,588L456,612L444,612L444,624L432,624L432,636L420,636L420,648L408,648L408,660L384,660L384,672L372,672L372,684L360,684L360,696L336,696L336,708L324,708L324,720L288,720L288,732L276,732L276,744L264,744L264,732L252,732L252,708L264,708L264,684L276,684L276,648L288,648L288,612L300,612L300,600L312,600L312,576L324,576L324,564L336,564L336,552L348,552L348,540L360,540L360,516L384,516L384,504L324,504L324,492L276,492L276,480L240,480L240,468L216,468L216,456L192,456L192,444L180,444L180,420L192,420L192,408L216,408L216,396L396,396L396,384L384,384L384,360L372,360L372,348L360,348L360,324L348,324L348,300L336,300L336,276L324,276L324,228L312,228L312,168L348,168L348,180L372,180L372,192L384,192L384,204L396,204L396,216L408,216L408,228L420,228L420,240L432,240L432,252L444,252L444,264L456,264L456,276L468,276L468,300L480,300L480,324L492,324L492,348L504,348L504,384L516,384L516,396L528,396L528,384L540,384L540,372L552,372L552,348L564,348L564,336L576,336L576,324L588,324L588,312L600,312L600,300L612,300L612,288L624,288L624,276L648,276L648,264L672,264L672,252L696,252L696,240L720,240L720,264L708,264L708,276L696,276L696,288L684,288L684,384L696,384L696,348L708,348L708,336L720,336L720,312L744,312L744,300L756,300L756,264L744,264L744,240L840,240L840,252L864,252L864,264L876,264L876,288L888,288L888,312L900,312L900,396L888,396L888,420L876,420L876,432L864,432L864,444L828,444L828,456L792,456L792,468L756,468L756,480L732,480L732,492L708,492L708,504L696,504L696,516L684,516L684,528L672,528L672,540L660,540L660,564L648,564L648,636L660,636L660,672L672,672L672,696L696,696L696,708L708,708L708,720L720,720L720,732L744,732L744,744L816,744L816,804L828,804L828,864L840,864L840,852L852,852L852,828L864,828L864,792L852,792L852,756L840,756L840,744L888,744L888,732L936,732L936,720L960,720L960,708L972,708L972,696L984,696L984,684L996,684L996,672L1008,672L1008,660L1020,660L1020,648L1032,648L1032,636L1044,636L1044,624L1056,624L1056,612L1080,612L1080,672L1092,672L1092,696L1104,696L1104,732L1128,732L1128,756L1140,756L1140,768L1152,768L1152,780L1176,780L1176,792L1200,792L1200,804L1212,804L1212,816L1248,816L1248,828L1272,828L1272,840L1296,840L1296,852L1320,852L1320,864L1332,864L1332,876L1344,876L1344,888L1356,888L1356,864L1344,864L1344,768L1332,768L1332,708L1320,708L1320,672L1308,672L1308,648L1296,648L1296,624L1284,624L1284,612L1272,612L1272,600L1332,600L1332,588L1356,588L1356,600L1380,600L1380,588L1428,588L1428,576L1440,576L1440,588L1452,588L1452,576L1464,576L1464,564L1488,564L1488,552L1512,552L1512,540L1536,540L1536,528L1560,528L1560,516L1536,516L1536,504L1512,504L1512,492L1500,492L1500,480L1476,480L1476,468L1464,468L1464,456L1428,456L1428,444L1416,444L1416,432L1368,432L1368,420L1308,420L1308,396L1320,396L1320,384L1332,384L1332,372L1344,372L1344,348L1356,348L1356,336L1368,336L1368,300L1380,300L1380,276L1392,276L1392,204L1404,204L1404,180L1392,180L1392,156L1332,156L1332,168L1296,168L1296,180L1260,180L1260,192L1236,192L1236,204L1212,204L1212,216L1200,216L1200,228L1188,228L1188,240L1176,240L1176,264L1164,264L1164,276L1152,276L1152,288L1140,288L1140,240L1128,240L1128,216L1116,216L1116,192L1104,192L1104,168L1092,168L1092,144L1068,144L1068,120L1056,120L1056,96L1044,96L1044,72L1032,72L1032,84L1020,84L1020,96L1008,96L1008,120L996,120L996,156L984,156L984,204L972,204L972,360L984,360L984,384L996,384L996,408L1008,408L1008,420L1020,420L1020,216L1032,216L1032,168L1056,168L1056,180L1068,180L1068,204L1080,204L1080,216L1092,216L1092,252L1104,252L1104,276L1116,276L1116,372L1128,372L1128,360L1140,360L1140,336L1152,336L1152,324L1164,324L1164,312L1176,312L1176,300L1188,300L1188,288L1212,288L1212,276L1224,276L1224,264L1236,264L1236,252L1260,252L1260,240L1272,240L1272,228L1308,228L1308,216L1320,216L1320,204L1332,204L1332,216L1344,216L1344,240L1332,240L1332,264L1320,264L1320,300L1308,300L1308,336L1296,336L1296,348L1284,348L1284,372L1272,372L1272,384L1260,384L1260,396L1248,396L1248,408L1236,408L1236,432L1212,432L1212,444L1272,444L1272,456L1320,456L1320,468L1356,468L1356,480L1380,480L1380,492L1404,492L1404,504L1416,504L1416,528L1404,528L1404,540L1380,540L1380,552L1200,552L1200,564L1212,564L1212,588L1224,588L1224,600L1236,600L1236,624L1248,624L1248,648L1260,648L1260,672L1272,672L1272,720L1284,720L1284,780L1248,780L1248,768L1224,768L1224,756L1212,756L1212,744L1200,744L1200,732L1188,732L1188,720L1176,720L1176,708L1164,708L1164,696L1152,696L1152,684L1140,684L1140,672L1128,672L1128,648L1116,648L1116,624L1104,624L1104,600L1092,600L1092,564L1080,564L1080,552L1068,552L1068,564L1056,564L1056,576L1044,576L1044,600L1032,600L1032,612L1020,612L1020,624L1008,624L1008,636L996,636L996,648L984,648L984,660L972,660L972,672L948,672L948,684L924,684L924,696L900,696L900,708L876,708L876,684L888,684L888,672L900,672L900,660L912,660L912,564L900,564L900,600L888,600L888,612L876,612L876,636L852,636L852,648L840,648L840,684L852,684L852,708L756,708L756,696L732,696L732,684L720,684L720,660L708,660L708,636L696,636L696,552L708,552L708,528L720,528L720,516L732,516L732,504L780,504L780,492L804,492L804,480L840,480L840,468L864,468L864,456L888,456L888,444L900,444L900,432L912,432L912,420L924,420L924,408L936,408L936,384L948,384L948,312L936,312L936,276L924,276L924,252L900,252L900,240L888,240L888,228L876,228L876,216L852,216L852,204L780,204L780,144L768,144L768,84L756,84L756,96L744,96L744,120L732,120L732,156L744,156L744,192L756,192L756,204L708,204L708,216L660,216L660,228L636,228L636,240L624,240L624,252L612,252L612,264L600,264L600,276L588,276L588,288L576,288L576,300L564,300L564,312L552,312L552,324L540,324L540,336L516,336L516,276L504,276L504,252L492,252L492,216L468,216L468,192L456,192L456,180L444,180L444,168L420,168L420,156L396,156L396,144L384,144L384,132L348,132L348,120L324,120L324,108L300,108L300,96L276,96L276,84L264,84L264,72L252,72L252,60M348,204L348,204L336,204L336,228L348,228L348,276L360,276L360,288L372,288L372,324L384,324L384,336L396,336L396,348L408,348L408,372L420,372L420,384L432,384L432,396L444,396L444,408L456,408L456,420L480,420L480,408L492,408L492,384L480,384L480,360L468,360L468,324L456,324L456,300L444,300L444,288L432,288L432,276L420,276L420,264L408,264L408,252L396,252L396,240L384,240L384,228L372,228L372,216L348,216L348,204M1056,216L1056,216L1044,216L1044,408L1056,408L1056,456L1080,456L1080,444L1092,444L1092,276L1080,276L1080,252L1068,252L1068,228L1056,228L1056,216M792,252L792,252L780,252L780,300L768,300L768,324L756,324L756,336L732,336L732,360L720,360L720,372L708,372L708,432L696,432L696,420L684,420L684,408L672,408L672,396L660,396L660,288L648,288L648,300L636,300L636,312L612,312L612,324L600,324L600,336L588,336L588,348L576,348L576,372L564,372L564,396L552,396L552,420L528,420L528,432L492,432L492,444L480,444L480,456L492,456L492,468L552,468L552,480L576,480L576,492L588,492L588,504L600,504L600,528L612,528L612,540L624,540L624,576L636,576L636,552L648,552L648,528L660,528L660,516L672,516L672,504L684,504L684,492L696,492L696,480L720,480L720,468L744,468L744,456L780,456L780,444L804,444L804,432L852,432L852,408L864,408L864,396L876,396L876,324L864,324L864,300L852,300L852,288L840,288L840,276L816,276L816,264L804,264L804,252L792,252M1296,252L1296,252L1284,252L1284,264L1260,264L1260,276L1248,276L1248,288L1224,288L1224,300L1212,300L1212,312L1200,312L1200,324L1188,324L1188,336L1176,336L1176,348L1164,348L1164,360L1152,360L1152,384L1140,384L1140,396L1128,396L1128,420L1116,420L1116,444L1104,444L1104,456L1116,456L1116,468L1140,468L1140,456L1152,456L1152,444L1176,444L1176,432L1188,432L1188,420L1200,420L1200,408L1224,408L1224,384L1236,384L1236,372L1248,372L1248,360L1260,360L1260,348L1272,348L1272,324L1284,324L1284,300L1296,300L1296,264L1308,264L1308,252L1296,252M972,372L972,372L960,372L960,396L948,396L948,420L936,420L936,432L924,432L924,444L912,444L912,456L900,456L900,468L876,468L876,480L852,480L852,492L816,492L816,504L792,504L792,516L744,516L744,540L732,540L732,552L720,552L720,624L732,624L732,648L744,648L744,660L756,660L756,672L780,672L780,684L792,684L792,696L816,696L816,648L828,648L828,624L840,624L840,612L864,612L864,588L876,588L876,576L888,576L888,516L900,516L900,528L912,528L912,540L924,540L924,552L936,552L936,660L948,660L948,648L960,648L960,636L984,636L984,624L996,624L996,612L1008,612L1008,600L1020,600L1020,576L1032,576L1032,552L1044,552L1044,528L1068,528L1068,516L1104,516L1104,504L1116,504L1116,492L1104,492L1104,480L1044,480L1044,468L1020,468L1020,456L1008,456L1008,444L996,444L996,420L984,420L984,408L972,408L972,372M240,420L240,420L228,420L228,444L252,444L252,456L288,456L288,468L432,468L432,456L456,456L456,444L420,444L420,432L372,432L372,420L240,420M1032,420L1032,420L1020,420L1020,432L1032,432L1032,420M468,480L468,480L456,480L456,492L444,492L444,504L420,504L420,516L408,516L408,528L396,528L396,540L372,540L372,564L360,564L360,576L348,576L348,588L336,588L336,600L324,600L324,624L312,624L312,648L300,648L300,684L288,684L288,696L312,696L312,684L336,684L336,672L348,672L348,660L372,660L372,648L384,648L384,636L396,636L396,624L408,624L408,612L420,612L420,600L432,600L432,588L444,588L444,564L456,564L456,552L468,552L468,528L480,528L480,504L492,504L492,492L480,492L480,480L468,480M1176,480L1176,480L1164,480L1164,492L1140,492L1140,504L1176,504L1176,516L1224,516L1224,528L1368,528L1368,504L1344,504L1344,492L1308,492L1308,480L1176,480M528,492L528,492L516,492L516,504L504,504L504,672L516,672L516,696L528,696L528,720L540,720L540,732L552,732L552,540L540,540L540,492L528,492M1128,528L1128,528L1116,528L1116,540L1104,540L1104,564L1116,564L1116,588L1128,588L1128,624L1140,624L1140,648L1152,648L1152,660L1164,660L1164,672L1176,672L1176,684L1188,684L1188,696L1200,696L1200,708L1212,708L1212,720L1224,720L1224,732L1248,732L1248,744L1260,744L1260,720L1248,720L1248,672L1236,672L1236,660L1224,660L1224,624L1212,624L1212,612L1200,612L1200,600L1188,600L1188,576L1176,576L1176,564L1164,564L1164,552L1152,552L1152,540L1140,540L1140,528Z" class="sand"></path><path d="M336,204L336,204L348,204L348,216L372,216L372,228L384,228L384,240L396,240L396,252L408,252L408,264L420,264L420,276L432,276L432,288L444,288L444,300L456,300L456,324L468,324L468,360L480,360L480,384L492,384L492,408L480,408L480,420L456,420L456,408L444,408L444,396L432,396L432,384L420,384L420,372L408,372L408,348L396,348L396,336L384,336L384,324L372,324L372,288L360,288L360,276L348,276L348,228L336,228L336,204M1044,216L1044,216L1056,216L1056,228L1068,228L1068,252L1080,252L1080,276L1092,276L1092,444L1080,444L1080,456L1056,456L1056,408L1044,408L1044,216M1284,252L1284,252L1308,252L1308,264L1296,264L1296,300L1284,300L1284,324L1272,324L1272,348L1260,348L1260,360L1248,360L1248,372L1236,372L1236,384L1224,384L1224,408L1200,408L1200,420L1188,420L1188,432L1176,432L1176,444L1152,444L1152,456L1140,456L1140,468L1116,468L1116,456L1104,456L1104,444L1116,444L1116,420L1128,420L1128,396L1140,396L1140,384L1152,384L1152,360L1164,360L1164,348L1176,348L1176,336L1188,336L1188,324L1200,324L1200,312L1212,312L1212,300L1224,300L1224,288L1248,288L1248,276L1260,276L1260,264L1284,264L1284,252M228,420L228,420L372,420L372,432L420,432L420,444L456,444L456,456L432,456L432,468L288,468L288,456L252,456L252,444L228,444L228,420M456,480L456,480L480,480L480,492L492,492L492,504L480,504L480,528L468,528L468,552L456,552L456,564L444,564L444,588L432,588L432,600L420,600L420,612L408,612L408,624L396,624L396,636L384,636L384,648L372,648L372,660L348,660L348,672L336,672L336,684L312,684L312,696L288,696L288,684L300,684L300,648L312,648L312,624L324,624L324,600L336,600L336,588L348,588L348,576L360,576L360,564L372,564L372,540L396,540L396,528L408,528L408,516L420,516L420,504L444,504L444,492L456,492L456,480M1164,480L1164,480L1308,480L1308,492L1344,492L1344,504L1368,504L1368,528L1224,528L1224,516L1176,516L1176,504L1140,504L1140,492L1164,492L1164,480M516,492L516,492L540,492L540,540L552,540L552,732L540,732L540,720L528,720L528,696L516,696L516,672L504,672L504,504L516,504L516,492M1116,528L1116,528L1140,528L1140,540L1152,540L1152,552L1164,552L1164,564L1176,564L1176,576L1188,576L1188,600L1200,600L1200,612L1212,612L1212,624L1224,624L1224,660L1236,660L1236,672L1248,672L1248,720L1260,720L1260,744L1248,744L1248,732L1224,732L1224,720L1212,720L1212,708L1200,708L1200,696L1188,696L1188,684L1176,684L1176,672L1164,672L1164,660L1152,660L1152,648L1140,648L1140,624L1128,624L1128,588L1116,588L1116,564L1104,564L1104,540L1116,540Z" class="mud"></path><path d="M984,336L984,336L996,336L996,348L984,348L984,336M996,348L996,348L1008,348L1008,336L1020,336L1020,348L1008,348L1008,360L996,360L996,348M984,348L984,348L984,360L972,360L972,348Z" class="finish"></path><path d="M588,588L588,588L600,588L600,600L588,600L588,588M600,600L600,600L612,600L612,588L624,588L624,600L612,600L612,612L600,612L600,600M588,600L588,600L588,612L576,612L576,600Z" class="start"></path></g>
 <rect opacity=".3" fill="url(#grid)" height="100%" width="100%" y="0" x="0"></rect>
</svg>