<svg xmlns:xlink="http://www.w3.org/1999/xlink" xmlns="http://www.w3.org/2000/svg" height="1164" width="1524" id="mapSvgView" version="1.1" style="width: 1524px; height: 1164px;" viewBox="0 0 1524 1164">
 <defs>
 <pattern y="0" x="0" height="24" width="24" patternUnits="userSpaceOnUse" id="grassPattern">
 <rect class="grasscolor" height="24" width="24" y="0" x="0"></rect>
 <rect class="grassspeclecolor" height="1" width="1" x="1" y="5"></rect>
 <rect class="grassspeclecolor" height="1" width="1" x="1" y="5"></rect>
 <rect class="grassspeclecolor" height="1" width="1" x="3" y="5"></rect>
 <rect class="grassspeclecolor" height="1" width="1" x="6" y="7"></rect>
 <rect class="grassspeclecolor" height="1" width="1" x="6" y="17"></rect>
 <rect class="grassspeclecolor" height="1" width="1" x="8" y="21"></rect>
 <rect class="grassspeclecolor" height="1" width="1" x="9" y="2"></rect>
 <rect class="grassspeclecolor" height="1" width="1" x="12" y="4"></rect>
 <rect class="grassspeclecolor" height="1" width="1" x="13" y="15"></rect>
 <rect class="grassspeclecolor" height="1" width="1" x="14" y="4"></rect>
 <rect class="grassspeclecolor" height="1" width="1" x="14" y="19"></rect>
 <rect class="grassspeclecolor" height="1" width="1" x="17" y="7"></rect>
 <rect class="grassspeclecolor" height="1" width="1" x="17" y="12"></rect>
 <rect class="grassspeclecolor" height="1" width="1" x="18" y="23"></rect>
 <rect class="grassspeclecolor" height="1" width="1" x="21" y="16"></rect>
 <rect class="grassspeclecolor" height="1" width="1" x="23" y="12"></rect>
 </pattern>
 <pattern y="0" x="0" height="24" width="24" patternUnits="userSpaceOnUse" id="roadPattern">
 <rect class="roadcolor" height="24" width="24" y="0" x="0"></rect>
 <rect class="roadspeclecolor" height="1" width="1" x="1" y="5"></rect>
 <rect class="roadspeclecolor" height="1" width="1" x="1" y="5"></rect>
 <rect class="roadspeclecolor" height="1" width="1" x="3" y="5"></rect>
 <rect class="roadspeclecolor" height="1" width="1" x="6" y="7"></rect>
 <rect class="roadspeclecolor" height="1" width="1" x="6" y="17"></rect>
 <rect class="roadspeclecolor" height="1" width="1" x="8" y="21"></rect>
 <rect class="roadspeclecolor" height="1" width="1" x="9" y="2"></rect>
 <rect class="roadspeclecolor" height="1" width="1" x="12" y="4"></rect>
 <rect class="roadspeclecolor" height="1" width="1" x="13" y="15"></rect>
 <rect class="roadspeclecolor" height="1" width="1" x="14" y="4"></rect>
 <rect class="roadspeclecolor" height="1" width="1" x="14" y="19"></rect>
 <rect class="roadspeclecolor" height="1" width="1" x="17" y="7"></rect>
 <rect class="roadspeclecolor" height="1" width="1" x="17" y="12"></rect>
 <rect class="roadspeclecolor" height="1" width="1" x="18" y="23"></rect>
 <rect class="roadspeclecolor" height="1" width="1" x="21" y="16"></rect>
 <rect class="roadspeclecolor" height="1" width="1" x="23" y="12"></rect>
 </pattern>
 <pattern y="0" x="0" height="12" width="12" patternUnits="userSpaceOnUse" id="grid">
 <line stroke-width="1" stroke="black" y2="12" x2="12" y1="0" x1="12"></line>
 <line stroke-width="1" stroke="black" y2="12" x2="12" y1="12" x1="0"></line>
 </pattern>
 <pattern y="0" x="0" height="12" width="12" patternUnits="userSpaceOnUse" id="finishPattern">
 <rect fill="black" height="12" width="12" y="0" x="0"></rect>
 <path fill="white" d="M0,0L3,0L3,3L0,3L0,0M6,0L9,0L9,3L6,3L6,0M3,3L6,3L6,6L3,6L3,3M9,3L12,3L12,6L9,6L9,3"></path>
 <path fill="white" d="M0,6L3,6L3,9L0,9L0,6M6,6L9,6L9,9L6,9L6,6M3,9L6,9L6,12L3,12L3,9M9,9L12,9L12,12L9,12L9,9"></path>
 </pattern>
 <pattern y="0" x="0" height="12" width="12" patternUnits="userSpaceOnUse" id="startPattern">
 <rect fill="rgb(100,100,100)" height="12" width="12" y="0" x="0"></rect>
 <rect stroke-width="1" stroke="rgb(200,200,200)" fill="none" height="5" width="5" y="3.5" x="3.5"></rect>
 </pattern>
 <pattern y="0" x="0" height="12" width="12" patternUnits="userSpaceOnUse" id="cp1pattern">
 <rect class="cp1color" height="12" width="12" y="0" x="0"></rect>
 <path fill="black" d="M0,0L3,0L3,3L0,3L0,0M6,0L9,0L9,3L6,3L6,0M3,3L6,3L6,6L3,6L3,3M9,3L12,3L12,6L9,6L9,3"></path>
 <path fill="black" d="M0,6L3,6L3,9L0,9L0,6M6,6L9,6L9,9L6,9L6,6M3,9L6,9L6,12L3,12L3,9M9,9L12,9L12,12L9,12L9,9"></path>
 </pattern>
 <pattern y="0" x="0" height="12" width="12" patternUnits="userSpaceOnUse" id="cp2pattern">
 <rect class="cp2color" height="12" width="12" y="0" x="0"></rect>
 <path fill="white" d="M0,0L3,0L3,3L0,3L0,0M6,0L9,0L9,3L6,3L6,0M3,3L6,3L6,6L3,6L3,3M9,3L12,3L12,6L9,6L9,3"></path>
 <path fill="white" d="M0,6L3,6L3,9L0,9L0,6M6,6L9,6L9,9L6,9L6,6M3,9L6,9L6,12L3,12L3,9M9,9L12,9L12,12L9,12L9,9"></path>
 </pattern>
 <pattern y="0" x="0" height="12" width="12" patternUnits="userSpaceOnUse" id="cp3pattern">
 <rect class="cp3color" height="12" width="12" y="0" x="0"></rect>
 <path fill="black" d="M0,0L3,0L3,3L0,3L0,0M6,0L9,0L9,3L6,3L6,0M3,3L6,3L6,6L3,6L3,3M9,3L12,3L12,6L9,6L9,3"></path>
 <path fill="black" d="M0,6L3,6L3,9L0,9L0,6M6,6L9,6L9,9L6,9L6,6M3,9L6,9L6,12L3,12L3,9M9,9L12,9L12,12L9,12L9,9"></path>
 </pattern>
 <pattern y="0" x="0" height="12" width="12" patternUnits="userSpaceOnUse" id="cp4pattern">
 <rect class="cp4color" height="12" width="12" y="0" x="0"></rect>
 <path fill="white" d="M0,0L3,0L3,3L0,3L0,0M6,0L9,0L9,3L6,3L6,0M3,3L6,3L6,6L3,6L3,3M9,3L12,3L12,6L9,6L9,3"></path>
 <path fill="white" d="M0,6L3,6L3,9L0,9L0,6M6,6L9,6L9,9L6,9L6,6M3,9L6,9L6,12L3,12L3,9M9,9L12,9L12,12L9,12L9,9"></path>
 </pattern>
 <pattern y="0" x="0" height="12" width="12" patternUnits="userSpaceOnUse" id="cp5pattern">
 <rect class="cp5color" height="12" width="12" y="0" x="0"></rect>
 <path fill="black" d="M0,0L3,0L3,3L0,3L0,0M6,0L9,0L9,3L6,3L6,0M3,3L6,3L6,6L3,6L3,3M9,3L12,3L12,6L9,6L9,3"></path>
 <path fill="black" d="M0,6L3,6L3,9L0,9L0,6M6,6L9,6L9,9L6,9L6,6M3,9L6,9L6,12L3,12L3,9M9,9L12,9L12,12L9,12L9,9"></path>
 </pattern>
 <pattern y="0" x="0" height="12" width="12" patternUnits="userSpaceOnUse" id="cp6pattern">
 <rect class="cp6color" height="12" width="12" y="0" x="0"></rect>
 <path fill="white" d="M0,0L3,0L3,3L0,3L0,0M6,0L9,0L9,3L6,3L6,0M3,3L6,3L6,6L3,6L3,3M9,3L12,3L12,6L9,6L9,3"></path>
 <path fill="white" d="M0,6L3,6L3,9L0,9L0,6M6,6L9,6L9,9L6,9L6,6M3,9L6,9L6,12L3,12L3,9M9,9L12,9L12,12L9,12L9,9"></path>
 </pattern>
 <pattern y="0" x="0" height="12" width="12" patternUnits="userSpaceOnUse" id="cp7pattern">
 <rect class="cp7color" height="12" width="12" y="0" x="0"></rect>
 <path fill="black" d="M0,0L3,0L3,3L0,3L0,0M6,0L9,0L9,3L6,3L6,0M3,3L6,3L6,6L3,6L3,3M9,3L12,3L12,6L9,6L9,3"></path>
 <path fill="black" d="M0,6L3,6L3,9L0,9L0,6M6,6L9,6L9,9L6,9L6,6M3,9L6,9L6,12L3,12L3,9M9,9L12,9L12,12L9,12L9,9"></path>
 </pattern>
 <pattern y="0" x="0" height="12" width="12" patternUnits="userSpaceOnUse" id="cp8pattern">
 <rect class="cp8color" height="12" width="12" y="0" x="0"></rect>
 <path fill="white" d="M0,0L3,0L3,3L0,3L0,0M6,0L9,0L9,3L6,3L6,0M3,3L6,3L6,6L3,6L3,3M9,3L12,3L12,6L9,6L9,3"></path>
 <path fill="white" d="M0,6L3,6L3,9L0,9L0,6M6,6L9,6L9,9L6,9L6,6M3,9L6,9L6,12L3,12L3,9M9,9L12,9L12,12L9,12L9,9"></path>
 </pattern>
 <pattern y="0" x="0" height="12" width="12" patternUnits="userSpaceOnUse" id="cp9pattern">
 <rect class="cp9color" height="12" width="12" y="0" x="0"></rect>
 <path fill="black" d="M0,0L3,0L3,3L0,3L0,0M6,0L9,0L9,3L6,3L6,0M3,3L6,3L6,6L3,6L3,3M9,3L12,3L12,6L9,6L9,3"></path>
 <path fill="black" d="M0,6L3,6L3,9L0,9L0,6M6,6L9,6L9,9L6,9L6,6M3,9L6,9L6,12L3,12L3,9M9,9L12,9L12,12L9,12L9,9"></path>
 </pattern>
 </defs>
 <rect height="100%" width="100%" y="0" x="0" class="parc" id="mainfill"></rect>
 <g id="paths"><path d="M24,12L24,12L1512,12L1512,240L1332,240L1332,384L1512,384L1512,972L1332,972L1332,1152L1104,1152L1104,972L1044,972L1044,960L1056,960L1056,948L1068,948L1068,924L1104,924L1104,240L972,240L972,612L792,612L792,792L816,792L816,804L852,804L852,816L876,816L876,828L888,828L888,840L900,840L900,864L912,864L912,888L924,888L924,924L1020,924L1020,936L1008,936L1008,948L996,948L996,960L972,960L972,972L924,972L924,1008L912,1008L912,1032L900,1032L900,1056L888,1056L888,1068L876,1068L876,1080L852,1080L852,1092L828,1092L828,1104L780,1104L780,1152L552,1152L552,1080L576,1080L576,1128L756,1128L756,1104L720,1104L720,1092L696,1092L696,1080L672,1080L672,1068L660,1068L660,1056L648,1056L648,1032L636,1032L636,1008L624,1008L624,972L564,972L564,384L744,384L744,240L432,240L432,1152L204,1152L204,612L24,612L24,384L204,384L204,240L24,240L24,12M84,60L84,60L72,60L72,192L252,192L252,432L72,432L72,564L252,564L252,1104L384,1104L384,192L792,192L792,432L612,432L612,924L624,924L624,888L636,888L636,864L648,864L648,840L660,840L660,828L672,828L672,816L696,816L696,804L732,804L732,792L744,792L744,564L924,564L924,192L1152,192L1152,1104L1284,1104L1284,924L1464,924L1464,432L1284,432L1284,192L1464,192L1464,60L84,60M744,840L744,840L732,840L732,852L708,852L708,864L696,864L696,876L684,876L684,900L672,900L672,996L684,996L684,1020L696,1020L696,1032L708,1032L708,1044L732,1044L732,1056L816,1056L816,1044L840,1044L840,1032L852,1032L852,1020L864,1020L864,996L876,996L876,900L864,900L864,876L852,876L852,864L840,864L840,852L816,852L816,840Z" class="road"></path><path d="M348,12L348,12L360,12L360,24L348,24L348,12M360,24L360,24L372,24L372,12L384,12L384,24L372,24L372,36L360,36L360,24M372,36L372,36L384,36L384,48L372,48L372,36M360,36L360,36L360,48L348,48L348,36L360,36M360,48L360,48L372,48L372,60L360,60Z" class="start"></path><path d="M384,12L384,12L396,12L396,60L384,60Z" class="finish"></path><path d="M120,84L120,84L156,84L156,96L120,96L120,84M120,96L120,96L120,156L108,156L108,96L120,96M156,96L156,96L168,96L168,108L156,108L156,96M312,84L312,84L324,84L324,168L312,168L312,84M468,84L468,84L528,84L528,96L504,96L504,168L492,168L492,96L468,96L468,84M648,84L648,84L660,84L660,120L648,120L648,84M696,84L696,84L708,84L708,120L696,120L696,84M828,84L828,84L876,84L876,96L840,96L840,120L876,120L876,96L888,96L888,120L876,120L876,132L864,132L864,144L852,144L852,132L840,132L840,168L828,168L828,84M1032,84L1032,84L1044,84L1044,96L1032,96L1032,84M1044,96L1044,96L1056,96L1056,120L1044,120L1044,96M1032,96L1032,96L1032,120L1020,120L1020,96L1032,96M1200,84L1200,84L1236,84L1236,96L1200,96L1200,84M1200,96L1200,96L1200,156L1188,156L1188,96L1200,96M1236,96L1236,96L1248,96L1248,108L1236,108L1236,96M1368,84L1368,84L1428,84L1428,96L1380,96L1380,120L1404,120L1404,132L1380,132L1380,156L1428,156L1428,168L1368,168L1368,84M660,120L660,120L696,120L696,132L684,132L684,168L672,168L672,132L660,132L660,120M1020,120L1020,120L1020,132L1056,132L1056,120L1068,120L1068,168L1056,168L1056,144L1020,144L1020,168L1008,168L1008,120L1020,120M864,144L864,144L876,144L876,156L864,156L864,144M120,156L120,156L156,156L156,144L168,144L168,156L156,156L156,168L120,168L120,156M876,156L876,156L888,156L888,168L876,168L876,156M1200,156L1200,156L1236,156L1236,144L1248,144L1248,156L1236,156L1236,168L1200,168L1200,156M1020,924L1020,924L1068,924L1068,948L1056,948L1056,960L1044,960L1044,972L972,972L972,960L996,960L996,948L1008,948L1008,936L1020,936Z" class="sand"></path><path d="M732,852L732,852L816,852L816,864L840,864L840,876L852,876L852,900L864,900L864,996L852,996L852,1020L840,1020L840,1032L816,1032L816,1044L732,1044L732,1032L708,1032L708,1020L696,1020L696,996L684,996L684,900L696,900L696,876L708,876L708,864L732,864Z" class="grass"></path></g>
 <rect opacity=".3" fill="url(#grid)" height="100%" width="100%" y="0" x="0"></rect>
</svg>