<svg xmlns="http://www.w3.org/2000/svg" xmlns:xlink="http://www.w3.org/1999/xlink" version="1.1" id="mapSvgView" width="720" height="432"> <rect id="mainfill" class="grass" x="0" y="0" width="100%" height="100%"></rect> <g id="paths"><path d="M588,300L588,300L636,300L636,312L588,312Z" class="cp1"></path><path d="M96,300L96,300L144,300L144,312L96,312Z" class="cp2"></path><path d="M0,0L0,0L12,0L12,48L0,48Z" class="parc"></path><path d="M408,12L408,12L420,12L420,72L408,72L408,84L396,84L396,96L384,96L384,108L372,108L372,120L360,120L360,60L372,60L372,48L384,48L384,36L396,36L396,24L408,24L408,12M120,108L120,108L192,108L192,120L240,120L240,132L276,132L276,144L336,144L336,156L372,156L372,144L408,144L408,132L444,132L444,120L492,120L492,168L444,168L444,180L408,180L408,192L384,192L384,204L336,204L336,192L300,192L300,180L252,180L252,168L204,168L204,156L144,156L144,168L120,168L120,180L96,180L96,192L84,192L84,204L96,204L96,228L108,228L108,252L120,252L120,276L132,276L132,300L84,300L84,276L72,276L72,252L60,252L60,228L48,228L48,204L36,204L36,168L48,168L48,156L60,156L60,144L72,144L72,132L96,132L96,120L120,120L120,108M516,120L516,120L552,120L552,132L576,132L576,144L588,144L588,156L600,156L600,168L612,168L612,180L624,180L624,192L636,192L636,204L648,204L648,216L636,216L636,228L624,228L624,240L612,240L612,276L624,276L624,300L576,300L576,276L564,276L564,228L576,228L576,216L588,216L588,204L576,204L576,192L564,192L564,180L540,180L540,168L516,168L516,120M96,312L96,312L144,312L144,324L156,324L156,348L168,348L168,360L180,360L180,372L276,372L276,360L312,360L312,348L384,348L384,360L408,360L408,372L432,372L432,384L516,384L516,372L540,372L540,360L564,360L564,348L576,348L576,336L588,336L588,312L636,312L636,324L648,324L648,336L636,336L636,348L624,348L624,360L600,360L600,372L588,372L588,384L564,384L564,396L552,396L552,408L528,408L528,420L408,420L408,408L372,408L372,396L312,396L312,408L276,408L276,420L168,420L168,408L144,408L144,396L132,396L132,372L120,372L120,348L108,348L108,324L96,324Z" class="road"></path><path d="M492,120L492,120L504,120L504,168L492,168Z" class="finish"></path><path d="M504,120L504,120L516,120L516,168L504,168Z" class="start"></path></g></svg>