<svg xmlns:xlink="http://www.w3.org/1999/xlink" xmlns="http://www.w3.org/2000/svg" height="684" width="684" id="mapSvgView" version="1.1" style="width: 684px; height: 684px;" viewBox="0 0 684 684">
 <defs>
 <pattern y="0" x="0" height="24" width="24" patternUnits="userSpaceOnUse" id="grassPattern">
 <rect class="grasscolor" height="24" width="24" y="0" x="0"></rect>
 <rect class="grassspeclecolor" height="1" width="1" x="1" y="5"></rect>
 <rect class="grassspeclecolor" height="1" width="1" x="1" y="5"></rect>
 <rect class="grassspeclecolor" height="1" width="1" x="3" y="5"></rect>
 <rect class="grassspeclecolor" height="1" width="1" x="6" y="7"></rect>
 <rect class="grassspeclecolor" height="1" width="1" x="6" y="17"></rect>
 <rect class="grassspeclecolor" height="1" width="1" x="8" y="21"></rect>
 <rect class="grassspeclecolor" height="1" width="1" x="9" y="2"></rect>
 <rect class="grassspeclecolor" height="1" width="1" x="12" y="4"></rect>
 <rect class="grassspeclecolor" height="1" width="1" x="13" y="15"></rect>
 <rect class="grassspeclecolor" height="1" width="1" x="14" y="4"></rect>
 <rect class="grassspeclecolor" height="1" width="1" x="14" y="19"></rect>
 <rect class="grassspeclecolor" height="1" width="1" x="17" y="7"></rect>
 <rect class="grassspeclecolor" height="1" width="1" x="17" y="12"></rect>
 <rect class="grassspeclecolor" height="1" width="1" x="18" y="23"></rect>
 <rect class="grassspeclecolor" height="1" width="1" x="21" y="16"></rect>
 <rect class="grassspeclecolor" height="1" width="1" x="23" y="12"></rect>
 </pattern>
 <pattern y="0" x="0" height="24" width="24" patternUnits="userSpaceOnUse" id="roadPattern">
 <rect class="roadcolor" height="24" width="24" y="0" x="0"></rect>
 <rect class="roadspeclecolor" height="1" width="1" x="1" y="5"></rect>
 <rect class="roadspeclecolor" height="1" width="1" x="1" y="5"></rect>
 <rect class="roadspeclecolor" height="1" width="1" x="3" y="5"></rect>
 <rect class="roadspeclecolor" height="1" width="1" x="6" y="7"></rect>
 <rect class="roadspeclecolor" height="1" width="1" x="6" y="17"></rect>
 <rect class="roadspeclecolor" height="1" width="1" x="8" y="21"></rect>
 <rect class="roadspeclecolor" height="1" width="1" x="9" y="2"></rect>
 <rect class="roadspeclecolor" height="1" width="1" x="12" y="4"></rect>
 <rect class="roadspeclecolor" height="1" width="1" x="13" y="15"></rect>
 <rect class="roadspeclecolor" height="1" width="1" x="14" y="4"></rect>
 <rect class="roadspeclecolor" height="1" width="1" x="14" y="19"></rect>
 <rect class="roadspeclecolor" height="1" width="1" x="17" y="7"></rect>
 <rect class="roadspeclecolor" height="1" width="1" x="17" y="12"></rect>
 <rect class="roadspeclecolor" height="1" width="1" x="18" y="23"></rect>
 <rect class="roadspeclecolor" height="1" width="1" x="21" y="16"></rect>
 <rect class="roadspeclecolor" height="1" width="1" x="23" y="12"></rect>
 </pattern>
 <pattern y="0" x="0" height="12" width="12" patternUnits="userSpaceOnUse" id="grid">
 <line stroke-width="1" stroke="black" y2="12" x2="12" y1="0" x1="12"></line>
 <line stroke-width="1" stroke="black" y2="12" x2="12" y1="12" x1="0"></line>
 </pattern>
 <pattern y="0" x="0" height="12" width="12" patternUnits="userSpaceOnUse" id="finishPattern">
 <rect fill="black" height="12" width="12" y="0" x="0"></rect>
 <path fill="white" d="M0,0L3,0L3,3L0,3L0,0M6,0L9,0L9,3L6,3L6,0M3,3L6,3L6,6L3,6L3,3M9,3L12,3L12,6L9,6L9,3"></path>
 <path fill="white" d="M0,6L3,6L3,9L0,9L0,6M6,6L9,6L9,9L6,9L6,6M3,9L6,9L6,12L3,12L3,9M9,9L12,9L12,12L9,12L9,9"></path>
 </pattern>
 <pattern y="0" x="0" height="12" width="12" patternUnits="userSpaceOnUse" id="startPattern">
 <rect fill="rgb(100,100,100)" height="12" width="12" y="0" x="0"></rect>
 <rect stroke-width="1" stroke="rgb(200,200,200)" fill="none" height="5" width="5" y="3.5" x="3.5"></rect>
 </pattern>
 <pattern y="0" x="0" height="12" width="12" patternUnits="userSpaceOnUse" id="cp1pattern">
 <rect class="cp1color" height="12" width="12" y="0" x="0"></rect>
 <path fill="black" d="M0,0L3,0L3,3L0,3L0,0M6,0L9,0L9,3L6,3L6,0M3,3L6,3L6,6L3,6L3,3M9,3L12,3L12,6L9,6L9,3"></path>
 <path fill="black" d="M0,6L3,6L3,9L0,9L0,6M6,6L9,6L9,9L6,9L6,6M3,9L6,9L6,12L3,12L3,9M9,9L12,9L12,12L9,12L9,9"></path>
 </pattern>
 <pattern y="0" x="0" height="12" width="12" patternUnits="userSpaceOnUse" id="cp2pattern">
 <rect class="cp2color" height="12" width="12" y="0" x="0"></rect>
 <path fill="white" d="M0,0L3,0L3,3L0,3L0,0M6,0L9,0L9,3L6,3L6,0M3,3L6,3L6,6L3,6L3,3M9,3L12,3L12,6L9,6L9,3"></path>
 <path fill="white" d="M0,6L3,6L3,9L0,9L0,6M6,6L9,6L9,9L6,9L6,6M3,9L6,9L6,12L3,12L3,9M9,9L12,9L12,12L9,12L9,9"></path>
 </pattern>
 <pattern y="0" x="0" height="12" width="12" patternUnits="userSpaceOnUse" id="cp3pattern">
 <rect class="cp3color" height="12" width="12" y="0" x="0"></rect>
 <path fill="black" d="M0,0L3,0L3,3L0,3L0,0M6,0L9,0L9,3L6,3L6,0M3,3L6,3L6,6L3,6L3,3M9,3L12,3L12,6L9,6L9,3"></path>
 <path fill="black" d="M0,6L3,6L3,9L0,9L0,6M6,6L9,6L9,9L6,9L6,6M3,9L6,9L6,12L3,12L3,9M9,9L12,9L12,12L9,12L9,9"></path>
 </pattern>
 <pattern y="0" x="0" height="12" width="12" patternUnits="userSpaceOnUse" id="cp4pattern">
 <rect class="cp4color" height="12" width="12" y="0" x="0"></rect>
 <path fill="white" d="M0,0L3,0L3,3L0,3L0,0M6,0L9,0L9,3L6,3L6,0M3,3L6,3L6,6L3,6L3,3M9,3L12,3L12,6L9,6L9,3"></path>
 <path fill="white" d="M0,6L3,6L3,9L0,9L0,6M6,6L9,6L9,9L6,9L6,6M3,9L6,9L6,12L3,12L3,9M9,9L12,9L12,12L9,12L9,9"></path>
 </pattern>
 <pattern y="0" x="0" height="12" width="12" patternUnits="userSpaceOnUse" id="cp5pattern">
 <rect class="cp5color" height="12" width="12" y="0" x="0"></rect>
 <path fill="black" d="M0,0L3,0L3,3L0,3L0,0M6,0L9,0L9,3L6,3L6,0M3,3L6,3L6,6L3,6L3,3M9,3L12,3L12,6L9,6L9,3"></path>
 <path fill="black" d="M0,6L3,6L3,9L0,9L0,6M6,6L9,6L9,9L6,9L6,6M3,9L6,9L6,12L3,12L3,9M9,9L12,9L12,12L9,12L9,9"></path>
 </pattern>
 <pattern y="0" x="0" height="12" width="12" patternUnits="userSpaceOnUse" id="cp6pattern">
 <rect class="cp6color" height="12" width="12" y="0" x="0"></rect>
 <path fill="white" d="M0,0L3,0L3,3L0,3L0,0M6,0L9,0L9,3L6,3L6,0M3,3L6,3L6,6L3,6L3,3M9,3L12,3L12,6L9,6L9,3"></path>
 <path fill="white" d="M0,6L3,6L3,9L0,9L0,6M6,6L9,6L9,9L6,9L6,6M3,9L6,9L6,12L3,12L3,9M9,9L12,9L12,12L9,12L9,9"></path>
 </pattern>
 <pattern y="0" x="0" height="12" width="12" patternUnits="userSpaceOnUse" id="cp7pattern">
 <rect class="cp7color" height="12" width="12" y="0" x="0"></rect>
 <path fill="black" d="M0,0L3,0L3,3L0,3L0,0M6,0L9,0L9,3L6,3L6,0M3,3L6,3L6,6L3,6L3,3M9,3L12,3L12,6L9,6L9,3"></path>
 <path fill="black" d="M0,6L3,6L3,9L0,9L0,6M6,6L9,6L9,9L6,9L6,6M3,9L6,9L6,12L3,12L3,9M9,9L12,9L12,12L9,12L9,9"></path>
 </pattern>
 <pattern y="0" x="0" height="12" width="12" patternUnits="userSpaceOnUse" id="cp8pattern">
 <rect class="cp8color" height="12" width="12" y="0" x="0"></rect>
 <path fill="white" d="M0,0L3,0L3,3L0,3L0,0M6,0L9,0L9,3L6,3L6,0M3,3L6,3L6,6L3,6L3,3M9,3L12,3L12,6L9,6L9,3"></path>
 <path fill="white" d="M0,6L3,6L3,9L0,9L0,6M6,6L9,6L9,9L6,9L6,6M3,9L6,9L6,12L3,12L3,9M9,9L12,9L12,12L9,12L9,9"></path>
 </pattern>
 <pattern y="0" x="0" height="12" width="12" patternUnits="userSpaceOnUse" id="cp9pattern">
 <rect class="cp9color" height="12" width="12" y="0" x="0"></rect>
 <path fill="black" d="M0,0L3,0L3,3L0,3L0,0M6,0L9,0L9,3L6,3L6,0M3,3L6,3L6,6L3,6L3,3M9,3L12,3L12,6L9,6L9,3"></path>
 <path fill="black" d="M0,6L3,6L3,9L0,9L0,6M6,6L9,6L9,9L6,9L6,6M3,9L6,9L6,12L3,12L3,9M9,9L12,9L12,12L9,12L9,9"></path>
 </pattern>
 </defs>
 <rect height="100%" width="100%" y="0" x="0" class="grass" id="mainfill"></rect>
 <g id="paths"><path d="M264,12L264,12L300,12L300,24L324,24L324,12L360,12L360,24L384,24L384,12L420,12L420,24L432,24L432,60L420,60L420,84L432,84L432,120L420,120L420,144L432,144L432,180L420,180L420,204L432,204L432,240L420,240L420,264L444,264L444,252L480,252L480,264L504,264L504,252L540,252L540,264L564,264L564,252L600,252L600,264L624,264L624,252L660,252L660,264L672,264L672,300L660,300L660,324L672,324L672,360L660,360L660,384L672,384L672,420L660,420L660,432L624,432L624,420L600,420L600,432L564,432L564,420L540,420L540,432L504,432L504,420L480,420L480,432L444,432L444,420L420,420L420,444L432,444L432,480L420,480L420,504L432,504L432,540L420,540L420,564L432,564L432,600L420,600L420,624L432,624L432,660L420,660L420,672L384,672L384,660L360,660L360,672L324,672L324,660L300,660L300,672L264,672L264,660L252,660L252,624L264,624L264,600L252,600L252,564L264,564L264,540L252,540L252,504L264,504L264,480L252,480L252,444L264,444L264,420L240,420L240,432L204,432L204,420L180,420L180,432L144,432L144,420L120,420L120,432L84,432L84,420L60,420L60,432L24,432L24,420L12,420L12,384L24,384L24,360L12,360L12,324L24,324L24,300L12,300L12,264L24,264L24,252L60,252L60,264L84,264L84,252L120,252L120,264L144,264L144,252L180,252L180,264L204,264L204,252L240,252L240,264L264,264L264,240L252,240L252,204L264,204L264,180L252,180L252,144L264,144L264,120L252,120L252,84L264,84L264,60L252,60L252,24L264,24L264,12M24,24L24,24L60,24L60,60L24,60L24,24M84,24L84,24L120,24L120,60L84,60L84,24M564,24L564,24L600,24L600,60L564,60L564,24M624,24L624,24L660,24L660,60L624,60L624,24M312,60L312,60L300,60L300,84L312,84L312,120L300,120L300,144L312,144L312,180L300,180L300,204L312,204L312,240L300,240L300,264L312,264L312,300L300,300L300,312L264,312L264,300L240,300L240,312L204,312L204,300L180,300L180,312L144,312L144,300L120,300L120,312L84,312L84,300L60,300L60,324L72,324L72,336L84,336L84,324L120,324L120,336L144,336L144,324L180,324L180,336L204,336L204,324L240,324L240,336L264,336L264,324L300,324L300,360L264,360L264,348L240,348L240,360L204,360L204,348L180,348L180,360L144,360L144,348L120,348L120,360L84,360L84,348L72,348L72,360L60,360L60,384L84,384L84,372L120,372L120,384L144,384L144,372L180,372L180,384L204,384L204,372L240,372L240,384L264,384L264,372L300,372L300,384L312,384L312,420L300,420L300,444L312,444L312,480L300,480L300,504L312,504L312,540L300,540L300,564L312,564L312,600L300,600L300,624L324,624L324,612L336,612L336,600L324,600L324,564L336,564L336,540L324,540L324,504L336,504L336,480L324,480L324,444L336,444L336,420L324,420L324,384L360,384L360,420L348,420L348,444L360,444L360,480L348,480L348,504L360,504L360,540L348,540L348,564L360,564L360,600L348,600L348,612L360,612L360,624L384,624L384,600L372,600L372,564L384,564L384,540L372,540L372,504L384,504L384,480L372,480L372,444L384,444L384,420L372,420L372,384L384,384L384,372L420,372L420,384L444,384L444,372L480,372L480,384L504,384L504,372L540,372L540,384L564,384L564,372L600,372L600,384L624,384L624,360L612,360L612,348L600,348L600,360L564,360L564,348L540,348L540,360L504,360L504,348L480,348L480,360L444,360L444,348L420,348L420,360L384,360L384,324L420,324L420,336L444,336L444,324L480,324L480,336L504,336L504,324L540,324L540,336L564,336L564,324L600,324L600,336L612,336L612,324L624,324L624,300L600,300L600,312L564,312L564,300L540,300L540,312L504,312L504,300L480,300L480,312L444,312L444,300L420,300L420,312L384,312L384,300L372,300L372,264L384,264L384,240L372,240L372,204L384,204L384,180L372,180L372,144L384,144L384,120L372,120L372,84L384,84L384,60L360,60L360,72L348,72L348,84L360,84L360,120L348,120L348,144L360,144L360,180L348,180L348,204L360,204L360,240L348,240L348,264L360,264L360,300L324,300L324,264L336,264L336,240L324,240L324,204L336,204L336,180L324,180L324,144L336,144L336,120L324,120L324,84L336,84L336,72L324,72L324,60L312,60M24,84L24,84L60,84L60,120L24,120L24,84M84,84L84,84L120,84L120,120L84,120L84,84M564,84L564,84L600,84L600,120L564,120L564,84M624,84L624,84L660,84L660,120L624,120L624,84M108,132L108,132L120,132L120,144L108,144L108,132M96,156L96,156L108,156L108,168L96,168L96,156M108,168L108,168L120,168L120,156L132,156L132,168L120,168L120,180L108,180L108,168M96,168L96,168L96,180L84,180L84,168L96,168M132,168L132,168L144,168L144,180L132,180L132,168M84,192L84,192L96,192L96,204L84,204L84,192M96,204L96,204L108,204L108,216L96,216L96,204M84,204L84,204L84,216L72,216L72,204L84,204M132,192L132,192L144,192L144,204L132,204L132,192M144,204L144,204L156,204L156,216L144,216L144,204M132,204L132,204L132,216L120,216L120,204L132,204M72,216L72,216L72,228L60,228L60,216L72,216M108,216L108,216L120,216L120,228L108,228L108,216M156,216L156,216L168,216L168,228L156,228L156,216M24,564L24,564L60,564L60,600L24,600L24,564M84,564L84,564L120,564L120,600L84,600L84,564M564,564L564,564L600,564L600,600L564,600L564,564M624,564L624,564L660,564L660,600L624,600L624,564M24,624L24,624L60,624L60,660L24,660L24,624M84,624L84,624L120,624L120,660L84,660L84,624M564,624L564,624L600,624L600,660L564,660L564,624M624,624L624,624L660,624L660,660L624,660Z" class="road"></path><path d="M24,24L24,24L60,24L60,60L24,60L24,24M84,24L84,24L120,24L120,60L84,60L84,24M24,84L24,84L60,84L60,120L24,120L24,84M84,84L84,84L120,84L120,120L84,120L84,84M240,264L240,264L264,264L264,300L240,300Z" class="cp1"></path><path d="M564,24L564,24L600,24L600,60L564,60L564,24M624,24L624,24L660,24L660,60L624,60L624,24M564,84L564,84L600,84L600,120L564,120L564,84M624,84L624,84L660,84L660,120L624,120L624,84M384,240L384,240L420,240L420,264L384,264Z" class="cp3"></path><path d="M336,240L336,240L348,240L348,264L336,264L336,240M240,336L240,336L264,336L264,348L240,348L240,336M420,336L420,336L444,336L444,348L420,348L420,336M336,420L336,420L348,420L348,444L336,444Z" class="cp4"></path><path d="M420,384L420,384L444,384L444,420L420,420L420,384M564,564L564,564L600,564L600,600L564,600L564,564M624,564L624,564L660,564L660,600L624,600L624,564M564,624L564,624L600,624L600,660L564,660L564,624M624,624L624,624L660,624L660,660L624,660Z" class="cp5"></path><path d="M264,420L264,420L300,420L300,444L264,444L264,420M24,564L24,564L60,564L60,600L24,600L24,564M84,564L84,564L120,564L120,600L84,600L84,564M24,624L24,624L60,624L60,660L24,660L24,624M84,624L84,624L120,624L120,660L84,660Z" class="cp7"></path><path d="M336,120L336,120L348,120L348,144L336,144L336,120M120,336L120,336L144,336L144,348L120,348L120,336M540,336L540,336L564,336L564,348L540,348L540,336M336,540L336,540L348,540L348,564L336,564Z" class="cp8"></path><path d="M336,180L336,180L348,180L348,204L336,204L336,180M180,336L180,336L204,336L204,348L180,348L180,336M480,336L480,336L504,336L504,348L480,348L480,336M336,480L336,480L348,480L348,504L336,504Z" class="cp9"></path><path d="M0,0L0,0L12,0L12,168L0,168Z" class="parc"></path><path d="M384,12L384,12L420,12L420,24L384,24L384,12M12,264L12,264L24,264L24,300L12,300L12,264M660,384L660,384L672,384L672,420L660,420L660,384M264,660L264,660L300,660L300,672L264,672Z" class="start"></path><path d="M108,132L108,132L120,132L120,144L108,144L108,132M96,156L96,156L108,156L108,168L96,168L96,156M108,168L108,168L120,168L120,156L132,156L132,168L120,168L120,180L108,180L108,168M96,168L96,168L96,180L84,180L84,168L96,168M132,168L132,168L144,168L144,180L132,180L132,168M84,192L84,192L96,192L96,204L84,204L84,192M96,204L96,204L108,204L108,216L96,216L96,204M84,204L84,204L84,216L72,216L72,204L84,204M132,192L132,192L144,192L144,204L132,204L132,192M144,204L144,204L156,204L156,216L144,216L144,204M132,204L132,204L132,216L120,216L120,204L132,204M72,216L72,216L72,228L60,228L60,216L72,216M108,216L108,216L120,216L120,228L108,228L108,216M156,216L156,216L168,216L168,228L156,228L156,216M324,288L324,288L360,288L360,300L324,300L324,288M288,324L288,324L300,324L300,360L288,360L288,324M384,324L384,324L396,324L396,360L384,360L384,324M324,384L324,384L360,384L360,396L324,396Z" class="finish"></path></g>
 <rect opacity=".3" fill="url(#grid)" height="100%" width="100%" y="0" x="0"></rect>
</svg>