<svg xmlns:xlink="http://www.w3.org/1999/xlink" xmlns="http://www.w3.org/2000/svg" height="360" width="864" id="mapSvgView" version="1.1" style="width: 864px; height: 360px;" viewBox="0 0 864 360">
 <defs>
 <pattern y="0" x="0" height="24" width="24" patternUnits="userSpaceOnUse" id="grassPattern">
 <rect class="grasscolor" height="24" width="24" y="0" x="0"></rect>
 <rect class="grassspeclecolor" height="1" width="1" x="1" y="5"></rect>
 <rect class="grassspeclecolor" height="1" width="1" x="1" y="5"></rect>
 <rect class="grassspeclecolor" height="1" width="1" x="3" y="5"></rect>
 <rect class="grassspeclecolor" height="1" width="1" x="6" y="7"></rect>
 <rect class="grassspeclecolor" height="1" width="1" x="6" y="17"></rect>
 <rect class="grassspeclecolor" height="1" width="1" x="8" y="21"></rect>
 <rect class="grassspeclecolor" height="1" width="1" x="9" y="2"></rect>
 <rect class="grassspeclecolor" height="1" width="1" x="12" y="4"></rect>
 <rect class="grassspeclecolor" height="1" width="1" x="13" y="15"></rect>
 <rect class="grassspeclecolor" height="1" width="1" x="14" y="4"></rect>
 <rect class="grassspeclecolor" height="1" width="1" x="14" y="19"></rect>
 <rect class="grassspeclecolor" height="1" width="1" x="17" y="7"></rect>
 <rect class="grassspeclecolor" height="1" width="1" x="17" y="12"></rect>
 <rect class="grassspeclecolor" height="1" width="1" x="18" y="23"></rect>
 <rect class="grassspeclecolor" height="1" width="1" x="21" y="16"></rect>
 <rect class="grassspeclecolor" height="1" width="1" x="23" y="12"></rect>
 </pattern>
 <pattern y="0" x="0" height="24" width="24" patternUnits="userSpaceOnUse" id="roadPattern">
 <rect class="roadcolor" height="24" width="24" y="0" x="0"></rect>
 <rect class="roadspeclecolor" height="1" width="1" x="1" y="5"></rect>
 <rect class="roadspeclecolor" height="1" width="1" x="1" y="5"></rect>
 <rect class="roadspeclecolor" height="1" width="1" x="3" y="5"></rect>
 <rect class="roadspeclecolor" height="1" width="1" x="6" y="7"></rect>
 <rect class="roadspeclecolor" height="1" width="1" x="6" y="17"></rect>
 <rect class="roadspeclecolor" height="1" width="1" x="8" y="21"></rect>
 <rect class="roadspeclecolor" height="1" width="1" x="9" y="2"></rect>
 <rect class="roadspeclecolor" height="1" width="1" x="12" y="4"></rect>
 <rect class="roadspeclecolor" height="1" width="1" x="13" y="15"></rect>
 <rect class="roadspeclecolor" height="1" width="1" x="14" y="4"></rect>
 <rect class="roadspeclecolor" height="1" width="1" x="14" y="19"></rect>
 <rect class="roadspeclecolor" height="1" width="1" x="17" y="7"></rect>
 <rect class="roadspeclecolor" height="1" width="1" x="17" y="12"></rect>
 <rect class="roadspeclecolor" height="1" width="1" x="18" y="23"></rect>
 <rect class="roadspeclecolor" height="1" width="1" x="21" y="16"></rect>
 <rect class="roadspeclecolor" height="1" width="1" x="23" y="12"></rect>
 </pattern>
 <pattern y="0" x="0" height="12" width="12" patternUnits="userSpaceOnUse" id="grid">
 <line stroke-width="1" stroke="black" y2="12" x2="12" y1="0" x1="12"></line>
 <line stroke-width="1" stroke="black" y2="12" x2="12" y1="12" x1="0"></line>
 </pattern>
 <pattern y="0" x="0" height="12" width="12" patternUnits="userSpaceOnUse" id="finishPattern">
 <rect fill="black" height="12" width="12" y="0" x="0"></rect>
 <path fill="white" d="M0,0L3,0L3,3L0,3L0,0M6,0L9,0L9,3L6,3L6,0M3,3L6,3L6,6L3,6L3,3M9,3L12,3L12,6L9,6L9,3"></path>
 <path fill="white" d="M0,6L3,6L3,9L0,9L0,6M6,6L9,6L9,9L6,9L6,6M3,9L6,9L6,12L3,12L3,9M9,9L12,9L12,12L9,12L9,9"></path>
 </pattern>
 <pattern y="0" x="0" height="12" width="12" patternUnits="userSpaceOnUse" id="startPattern">
 <rect fill="rgb(100,100,100)" height="12" width="12" y="0" x="0"></rect>
 <rect stroke-width="1" stroke="rgb(200,200,200)" fill="none" height="5" width="5" y="3.5" x="3.5"></rect>
 </pattern>
 <pattern y="0" x="0" height="12" width="12" patternUnits="userSpaceOnUse" id="cp1pattern">
 <rect class="cp1color" height="12" width="12" y="0" x="0"></rect>
 <path fill="black" d="M0,0L3,0L3,3L0,3L0,0M6,0L9,0L9,3L6,3L6,0M3,3L6,3L6,6L3,6L3,3M9,3L12,3L12,6L9,6L9,3"></path>
 <path fill="black" d="M0,6L3,6L3,9L0,9L0,6M6,6L9,6L9,9L6,9L6,6M3,9L6,9L6,12L3,12L3,9M9,9L12,9L12,12L9,12L9,9"></path>
 </pattern>
 <pattern y="0" x="0" height="12" width="12" patternUnits="userSpaceOnUse" id="cp2pattern">
 <rect class="cp2color" height="12" width="12" y="0" x="0"></rect>
 <path fill="white" d="M0,0L3,0L3,3L0,3L0,0M6,0L9,0L9,3L6,3L6,0M3,3L6,3L6,6L3,6L3,3M9,3L12,3L12,6L9,6L9,3"></path>
 <path fill="white" d="M0,6L3,6L3,9L0,9L0,6M6,6L9,6L9,9L6,9L6,6M3,9L6,9L6,12L3,12L3,9M9,9L12,9L12,12L9,12L9,9"></path>
 </pattern>
 <pattern y="0" x="0" height="12" width="12" patternUnits="userSpaceOnUse" id="cp3pattern">
 <rect class="cp3color" height="12" width="12" y="0" x="0"></rect>
 <path fill="black" d="M0,0L3,0L3,3L0,3L0,0M6,0L9,0L9,3L6,3L6,0M3,3L6,3L6,6L3,6L3,3M9,3L12,3L12,6L9,6L9,3"></path>
 <path fill="black" d="M0,6L3,6L3,9L0,9L0,6M6,6L9,6L9,9L6,9L6,6M3,9L6,9L6,12L3,12L3,9M9,9L12,9L12,12L9,12L9,9"></path>
 </pattern>
 <pattern y="0" x="0" height="12" width="12" patternUnits="userSpaceOnUse" id="cp4pattern">
 <rect class="cp4color" height="12" width="12" y="0" x="0"></rect>
 <path fill="white" d="M0,0L3,0L3,3L0,3L0,0M6,0L9,0L9,3L6,3L6,0M3,3L6,3L6,6L3,6L3,3M9,3L12,3L12,6L9,6L9,3"></path>
 <path fill="white" d="M0,6L3,6L3,9L0,9L0,6M6,6L9,6L9,9L6,9L6,6M3,9L6,9L6,12L3,12L3,9M9,9L12,9L12,12L9,12L9,9"></path>
 </pattern>
 <pattern y="0" x="0" height="12" width="12" patternUnits="userSpaceOnUse" id="cp5pattern">
 <rect class="cp5color" height="12" width="12" y="0" x="0"></rect>
 <path fill="black" d="M0,0L3,0L3,3L0,3L0,0M6,0L9,0L9,3L6,3L6,0M3,3L6,3L6,6L3,6L3,3M9,3L12,3L12,6L9,6L9,3"></path>
 <path fill="black" d="M0,6L3,6L3,9L0,9L0,6M6,6L9,6L9,9L6,9L6,6M3,9L6,9L6,12L3,12L3,9M9,9L12,9L12,12L9,12L9,9"></path>
 </pattern>
 <pattern y="0" x="0" height="12" width="12" patternUnits="userSpaceOnUse" id="cp6pattern">
 <rect class="cp6color" height="12" width="12" y="0" x="0"></rect>
 <path fill="white" d="M0,0L3,0L3,3L0,3L0,0M6,0L9,0L9,3L6,3L6,0M3,3L6,3L6,6L3,6L3,3M9,3L12,3L12,6L9,6L9,3"></path>
 <path fill="white" d="M0,6L3,6L3,9L0,9L0,6M6,6L9,6L9,9L6,9L6,6M3,9L6,9L6,12L3,12L3,9M9,9L12,9L12,12L9,12L9,9"></path>
 </pattern>
 <pattern y="0" x="0" height="12" width="12" patternUnits="userSpaceOnUse" id="cp7pattern">
 <rect class="cp7color" height="12" width="12" y="0" x="0"></rect>
 <path fill="black" d="M0,0L3,0L3,3L0,3L0,0M6,0L9,0L9,3L6,3L6,0M3,3L6,3L6,6L3,6L3,3M9,3L12,3L12,6L9,6L9,3"></path>
 <path fill="black" d="M0,6L3,6L3,9L0,9L0,6M6,6L9,6L9,9L6,9L6,6M3,9L6,9L6,12L3,12L3,9M9,9L12,9L12,12L9,12L9,9"></path>
 </pattern>
 <pattern y="0" x="0" height="12" width="12" patternUnits="userSpaceOnUse" id="cp8pattern">
 <rect class="cp8color" height="12" width="12" y="0" x="0"></rect>
 <path fill="white" d="M0,0L3,0L3,3L0,3L0,0M6,0L9,0L9,3L6,3L6,0M3,3L6,3L6,6L3,6L3,3M9,3L12,3L12,6L9,6L9,3"></path>
 <path fill="white" d="M0,6L3,6L3,9L0,9L0,6M6,6L9,6L9,9L6,9L6,6M3,9L6,9L6,12L3,12L3,9M9,9L12,9L12,12L9,12L9,9"></path>
 </pattern>
 <pattern y="0" x="0" height="12" width="12" patternUnits="userSpaceOnUse" id="cp9pattern">
 <rect class="cp9color" height="12" width="12" y="0" x="0"></rect>
 <path fill="black" d="M0,0L3,0L3,3L0,3L0,0M6,0L9,0L9,3L6,3L6,0M3,3L6,3L6,6L3,6L3,3M9,3L12,3L12,6L9,6L9,3"></path>
 <path fill="black" d="M0,6L3,6L3,9L0,9L0,6M6,6L9,6L9,9L6,9L6,6M3,9L6,9L6,12L3,12L3,9M9,9L12,9L12,12L9,12L9,9"></path>
 </pattern>
 </defs>
 <rect height="100%" width="100%" y="0" x="0" class="grass" id="mainfill"></rect>
 <g id="paths"><path d="M180,12L180,12L264,12L264,24L300,24L300,36L324,36L324,48L444,48L444,36L492,36L492,24L516,24L516,12L672,12L672,24L708,24L708,36L732,36L732,48L744,48L744,60L756,60L756,72L768,72L768,96L780,96L780,120L792,120L792,144L804,144L804,168L816,168L816,252L804,252L804,276L792,276L792,288L780,288L780,300L768,300L768,312L744,312L744,324L720,324L720,348L600,348L600,336L564,336L564,324L504,324L504,336L456,336L456,348L300,348L300,336L264,336L264,324L228,324L228,312L180,312L180,300L156,300L156,288L132,288L132,276L108,276L108,264L96,264L96,228L84,228L84,108L96,108L96,84L108,84L108,60L120,60L120,48L132,48L132,36L156,36L156,24L180,24L180,12M228,48L228,48L216,48L216,60L180,60L180,72L156,72L156,84L204,84L204,96L228,96L228,108L240,108L240,120L252,120L252,132L264,132L264,144L276,144L276,156L300,156L300,168L444,168L444,156L468,156L468,144L492,144L492,132L516,132L516,120L528,120L528,108L540,108L540,96L552,96L552,84L576,84L576,60L648,60L648,48L528,48L528,60L492,60L492,72L456,72L456,84L312,84L312,72L288,72L288,60L252,60L252,48L228,48M636,108L636,108L624,108L624,120L612,120L612,132L600,132L600,144L588,144L588,156L564,156L564,168L552,168L552,180L540,180L540,192L528,192L528,204L492,204L492,216L456,216L456,228L300,228L300,216L276,216L276,204L240,204L240,192L216,192L216,180L204,180L204,168L192,168L192,156L156,156L156,168L144,168L144,216L156,216L156,228L168,228L168,240L180,240L180,252L204,252L204,264L252,264L252,276L300,276L300,288L336,288L336,300L456,300L456,288L492,288L492,276L600,276L600,288L624,288L624,216L636,216L636,192L648,192L648,180L672,180L672,168L684,168L684,156L696,156L696,144L708,144L708,108L636,108M744,144L744,144L732,144L732,168L720,168L720,180L708,180L708,192L696,192L696,204L672,204L672,216L660,216L660,300L708,300L708,288L720,288L720,276L744,276L744,264L756,264L756,240L768,240L768,192L756,192L756,168L744,168Z" class="road"></path><path d="M516,120L516,120L528,120L528,204L516,204L516,120M624,216L624,216L660,216L660,228L624,228Z" class="cp1"></path><path d="M444,300L444,300L456,300L456,348L444,348Z" class="cp2"></path><path d="M84,192L84,192L144,192L144,204L84,204Z" class="cp3"></path><path d="M0,0L0,0L12,0L12,120L0,120Z" class="parc"></path><path d="M132,0L132,0L276,0L276,12L312,12L312,24L324,24L324,36L300,36L300,24L264,24L264,12L180,12L180,24L156,24L156,36L132,36L132,48L120,48L120,60L108,60L108,84L96,84L96,108L84,108L84,228L60,228L60,216L48,216L48,108L60,108L60,84L72,84L72,60L84,60L84,48L96,48L96,36L108,36L108,24L120,24L120,12L132,12L132,0M636,0L636,0L708,0L708,12L744,12L744,24L756,24L756,36L768,36L768,48L780,48L780,60L792,60L792,72L804,72L804,108L816,108L816,120L828,120L828,156L840,156L840,264L828,264L828,288L816,288L816,312L804,312L804,324L792,324L792,348L768,348L768,360L696,360L696,348L720,348L720,324L744,324L744,312L768,312L768,300L780,300L780,288L792,288L792,276L804,276L804,252L816,252L816,168L804,168L804,144L792,144L792,120L780,120L780,96L768,96L768,72L756,72L756,60L744,60L744,48L732,48L732,36L708,36L708,24L672,24L672,12L636,12L636,0M564,48L564,48L648,48L648,60L576,60L576,84L552,84L552,60L564,60L564,48M180,60L180,60L228,60L228,72L240,72L240,84L252,84L252,96L264,96L264,108L288,108L288,132L300,132L300,144L324,144L324,156L360,156L360,168L300,168L300,156L276,156L276,144L264,144L264,132L252,132L252,120L240,120L240,108L228,108L228,96L204,96L204,84L156,84L156,72L180,72L180,60M552,84L552,84L552,96L540,96L540,108L528,108L528,120L516,120L516,132L504,132L504,108L516,108L516,96L528,96L528,84L552,84M732,144L732,144L744,144L744,168L756,168L756,192L732,192L732,180L720,180L720,168L732,168L732,144M552,168L552,168L564,168L564,192L552,192L552,216L528,216L528,228L504,228L504,240L468,240L468,252L420,252L420,240L324,240L324,228L456,228L456,216L492,216L492,204L528,204L528,192L540,192L540,180L552,180L552,168M72,252L72,252L84,252L84,264L72,264L72,252M72,264L72,264L72,276L60,276L60,264L72,264M480,252L480,252L576,252L576,264L612,264L612,276L624,276L624,288L600,288L600,276L492,276L492,288L456,288L456,300L408,300L408,288L432,288L432,276L468,276L468,264L480,264L480,252M60,276L60,276L60,336L36,336L36,360L24,360L24,336L0,336L0,276L60,276M24,288L24,288L12,288L12,324L48,324L48,288L24,288M96,276L96,276L132,276L132,288L156,288L156,300L180,300L180,312L228,312L228,324L264,324L264,336L300,336L300,348L336,348L336,360L276,360L276,348L216,348L216,336L156,336L156,324L120,324L120,312L108,312L108,300L96,300L96,276M24,300L24,300L36,300L36,312L24,312Z" class="sand"></path><path d="M396,48L396,48L408,48L408,84L396,84L396,48M324,168L324,168L336,168L336,228L324,228Z" class="finish"></path><path d="M408,48L408,48L420,48L420,60L408,60L408,48M420,60L420,60L432,60L432,72L420,72L420,60M420,72L420,72L420,84L408,84L408,72L420,72M348,168L348,168L360,168L360,180L348,180L348,168M360,180L360,180L372,180L372,192L360,192L360,180M348,180L348,180L348,192L336,192L336,180L348,180M348,192L348,192L360,192L360,204L348,204L348,192M360,204L360,204L372,204L372,216L360,216L360,204M348,204L348,204L348,216L336,216L336,204L348,204M348,216L348,216L360,216L360,228L348,228Z" class="start"></path><path d="M60,228L60,228L96,228L96,264L108,264L108,276L84,276L84,252L72,252L72,240L60,240Z" class="mud"></path></g>
 <rect opacity=".3" fill="url(#grid)" height="100%" width="100%" y="0" x="0"></rect>
</svg>