<svg xmlns:xlink="http://www.w3.org/1999/xlink" xmlns="http://www.w3.org/2000/svg" height="708" width="1092" id="mapSvgView" version="1.1" style="width: 1092px; height: 708px;" viewBox="0 0 1092 708">
 <defs>
 <pattern y="0" x="0" height="24" width="24" patternUnits="userSpaceOnUse" id="grassPattern">
 <rect class="grasscolor" height="24" width="24" y="0" x="0"></rect>
 <rect class="grassspeclecolor" height="1" width="1" x="1" y="5"></rect>
 <rect class="grassspeclecolor" height="1" width="1" x="1" y="5"></rect>
 <rect class="grassspeclecolor" height="1" width="1" x="3" y="5"></rect>
 <rect class="grassspeclecolor" height="1" width="1" x="6" y="7"></rect>
 <rect class="grassspeclecolor" height="1" width="1" x="6" y="17"></rect>
 <rect class="grassspeclecolor" height="1" width="1" x="8" y="21"></rect>
 <rect class="grassspeclecolor" height="1" width="1" x="9" y="2"></rect>
 <rect class="grassspeclecolor" height="1" width="1" x="12" y="4"></rect>
 <rect class="grassspeclecolor" height="1" width="1" x="13" y="15"></rect>
 <rect class="grassspeclecolor" height="1" width="1" x="14" y="4"></rect>
 <rect class="grassspeclecolor" height="1" width="1" x="14" y="19"></rect>
 <rect class="grassspeclecolor" height="1" width="1" x="17" y="7"></rect>
 <rect class="grassspeclecolor" height="1" width="1" x="17" y="12"></rect>
 <rect class="grassspeclecolor" height="1" width="1" x="18" y="23"></rect>
 <rect class="grassspeclecolor" height="1" width="1" x="21" y="16"></rect>
 <rect class="grassspeclecolor" height="1" width="1" x="23" y="12"></rect>
 </pattern>
 <pattern y="0" x="0" height="24" width="24" patternUnits="userSpaceOnUse" id="roadPattern">
 <rect class="roadcolor" height="24" width="24" y="0" x="0"></rect>
 <rect class="roadspeclecolor" height="1" width="1" x="1" y="5"></rect>
 <rect class="roadspeclecolor" height="1" width="1" x="1" y="5"></rect>
 <rect class="roadspeclecolor" height="1" width="1" x="3" y="5"></rect>
 <rect class="roadspeclecolor" height="1" width="1" x="6" y="7"></rect>
 <rect class="roadspeclecolor" height="1" width="1" x="6" y="17"></rect>
 <rect class="roadspeclecolor" height="1" width="1" x="8" y="21"></rect>
 <rect class="roadspeclecolor" height="1" width="1" x="9" y="2"></rect>
 <rect class="roadspeclecolor" height="1" width="1" x="12" y="4"></rect>
 <rect class="roadspeclecolor" height="1" width="1" x="13" y="15"></rect>
 <rect class="roadspeclecolor" height="1" width="1" x="14" y="4"></rect>
 <rect class="roadspeclecolor" height="1" width="1" x="14" y="19"></rect>
 <rect class="roadspeclecolor" height="1" width="1" x="17" y="7"></rect>
 <rect class="roadspeclecolor" height="1" width="1" x="17" y="12"></rect>
 <rect class="roadspeclecolor" height="1" width="1" x="18" y="23"></rect>
 <rect class="roadspeclecolor" height="1" width="1" x="21" y="16"></rect>
 <rect class="roadspeclecolor" height="1" width="1" x="23" y="12"></rect>
 </pattern>
 <pattern y="0" x="0" height="12" width="12" patternUnits="userSpaceOnUse" id="grid">
 <line stroke-width="1" stroke="black" y2="12" x2="12" y1="0" x1="12"></line>
 <line stroke-width="1" stroke="black" y2="12" x2="12" y1="12" x1="0"></line>
 </pattern>
 <pattern y="0" x="0" height="12" width="12" patternUnits="userSpaceOnUse" id="finishPattern">
 <rect fill="black" height="12" width="12" y="0" x="0"></rect>
 <path fill="white" d="M0,0L3,0L3,3L0,3L0,0M6,0L9,0L9,3L6,3L6,0M3,3L6,3L6,6L3,6L3,3M9,3L12,3L12,6L9,6L9,3"></path>
 <path fill="white" d="M0,6L3,6L3,9L0,9L0,6M6,6L9,6L9,9L6,9L6,6M3,9L6,9L6,12L3,12L3,9M9,9L12,9L12,12L9,12L9,9"></path>
 </pattern>
 <pattern y="0" x="0" height="12" width="12" patternUnits="userSpaceOnUse" id="startPattern">
 <rect fill="rgb(100,100,100)" height="12" width="12" y="0" x="0"></rect>
 <rect stroke-width="1" stroke="rgb(200,200,200)" fill="none" height="5" width="5" y="3.5" x="3.5"></rect>
 </pattern>
 <pattern y="0" x="0" height="12" width="12" patternUnits="userSpaceOnUse" id="cp1pattern">
 <rect class="cp1color" height="12" width="12" y="0" x="0"></rect>
 <path fill="black" d="M0,0L3,0L3,3L0,3L0,0M6,0L9,0L9,3L6,3L6,0M3,3L6,3L6,6L3,6L3,3M9,3L12,3L12,6L9,6L9,3"></path>
 <path fill="black" d="M0,6L3,6L3,9L0,9L0,6M6,6L9,6L9,9L6,9L6,6M3,9L6,9L6,12L3,12L3,9M9,9L12,9L12,12L9,12L9,9"></path>
 </pattern>
 <pattern y="0" x="0" height="12" width="12" patternUnits="userSpaceOnUse" id="cp2pattern">
 <rect class="cp2color" height="12" width="12" y="0" x="0"></rect>
 <path fill="white" d="M0,0L3,0L3,3L0,3L0,0M6,0L9,0L9,3L6,3L6,0M3,3L6,3L6,6L3,6L3,3M9,3L12,3L12,6L9,6L9,3"></path>
 <path fill="white" d="M0,6L3,6L3,9L0,9L0,6M6,6L9,6L9,9L6,9L6,6M3,9L6,9L6,12L3,12L3,9M9,9L12,9L12,12L9,12L9,9"></path>
 </pattern>
 <pattern y="0" x="0" height="12" width="12" patternUnits="userSpaceOnUse" id="cp3pattern">
 <rect class="cp3color" height="12" width="12" y="0" x="0"></rect>
 <path fill="black" d="M0,0L3,0L3,3L0,3L0,0M6,0L9,0L9,3L6,3L6,0M3,3L6,3L6,6L3,6L3,3M9,3L12,3L12,6L9,6L9,3"></path>
 <path fill="black" d="M0,6L3,6L3,9L0,9L0,6M6,6L9,6L9,9L6,9L6,6M3,9L6,9L6,12L3,12L3,9M9,9L12,9L12,12L9,12L9,9"></path>
 </pattern>
 <pattern y="0" x="0" height="12" width="12" patternUnits="userSpaceOnUse" id="cp4pattern">
 <rect class="cp4color" height="12" width="12" y="0" x="0"></rect>
 <path fill="white" d="M0,0L3,0L3,3L0,3L0,0M6,0L9,0L9,3L6,3L6,0M3,3L6,3L6,6L3,6L3,3M9,3L12,3L12,6L9,6L9,3"></path>
 <path fill="white" d="M0,6L3,6L3,9L0,9L0,6M6,6L9,6L9,9L6,9L6,6M3,9L6,9L6,12L3,12L3,9M9,9L12,9L12,12L9,12L9,9"></path>
 </pattern>
 <pattern y="0" x="0" height="12" width="12" patternUnits="userSpaceOnUse" id="cp5pattern">
 <rect class="cp5color" height="12" width="12" y="0" x="0"></rect>
 <path fill="black" d="M0,0L3,0L3,3L0,3L0,0M6,0L9,0L9,3L6,3L6,0M3,3L6,3L6,6L3,6L3,3M9,3L12,3L12,6L9,6L9,3"></path>
 <path fill="black" d="M0,6L3,6L3,9L0,9L0,6M6,6L9,6L9,9L6,9L6,6M3,9L6,9L6,12L3,12L3,9M9,9L12,9L12,12L9,12L9,9"></path>
 </pattern>
 <pattern y="0" x="0" height="12" width="12" patternUnits="userSpaceOnUse" id="cp6pattern">
 <rect class="cp6color" height="12" width="12" y="0" x="0"></rect>
 <path fill="white" d="M0,0L3,0L3,3L0,3L0,0M6,0L9,0L9,3L6,3L6,0M3,3L6,3L6,6L3,6L3,3M9,3L12,3L12,6L9,6L9,3"></path>
 <path fill="white" d="M0,6L3,6L3,9L0,9L0,6M6,6L9,6L9,9L6,9L6,6M3,9L6,9L6,12L3,12L3,9M9,9L12,9L12,12L9,12L9,9"></path>
 </pattern>
 <pattern y="0" x="0" height="12" width="12" patternUnits="userSpaceOnUse" id="cp7pattern">
 <rect class="cp7color" height="12" width="12" y="0" x="0"></rect>
 <path fill="black" d="M0,0L3,0L3,3L0,3L0,0M6,0L9,0L9,3L6,3L6,0M3,3L6,3L6,6L3,6L3,3M9,3L12,3L12,6L9,6L9,3"></path>
 <path fill="black" d="M0,6L3,6L3,9L0,9L0,6M6,6L9,6L9,9L6,9L6,6M3,9L6,9L6,12L3,12L3,9M9,9L12,9L12,12L9,12L9,9"></path>
 </pattern>
 <pattern y="0" x="0" height="12" width="12" patternUnits="userSpaceOnUse" id="cp8pattern">
 <rect class="cp8color" height="12" width="12" y="0" x="0"></rect>
 <path fill="white" d="M0,0L3,0L3,3L0,3L0,0M6,0L9,0L9,3L6,3L6,0M3,3L6,3L6,6L3,6L3,3M9,3L12,3L12,6L9,6L9,3"></path>
 <path fill="white" d="M0,6L3,6L3,9L0,9L0,6M6,6L9,6L9,9L6,9L6,6M3,9L6,9L6,12L3,12L3,9M9,9L12,9L12,12L9,12L9,9"></path>
 </pattern>
 <pattern y="0" x="0" height="12" width="12" patternUnits="userSpaceOnUse" id="cp9pattern">
 <rect class="cp9color" height="12" width="12" y="0" x="0"></rect>
 <path fill="black" d="M0,0L3,0L3,3L0,3L0,0M6,0L9,0L9,3L6,3L6,0M3,3L6,3L6,6L3,6L3,3M9,3L12,3L12,6L9,6L9,3"></path>
 <path fill="black" d="M0,6L3,6L3,9L0,9L0,6M6,6L9,6L9,9L6,9L6,6M3,9L6,9L6,12L3,12L3,9M9,9L12,9L12,12L9,12L9,9"></path>
 </pattern>
 </defs>
 <rect height="100%" width="100%" y="0" x="0" class="road" id="mainfill"></rect>
 <g id="paths"><path d="M156,12L156,12L588,12L588,24L660,24L660,36L684,36L684,48L720,48L720,60L768,60L768,72L780,72L780,84L804,84L804,96L828,96L828,108L840,108L840,120L864,120L864,132L876,132L876,144L888,144L888,156L900,156L900,168L912,168L912,180L924,180L924,192L936,192L936,204L948,204L948,216L960,216L960,228L972,228L972,240L984,240L984,264L996,264L996,276L1008,276L1008,312L1020,312L1020,336L1032,336L1032,348L1044,348L1044,384L1056,384L1056,432L1068,432L1068,480L1080,480L1080,564L1068,564L1068,576L1056,576L1056,588L1008,588L1008,576L996,576L996,564L984,564L984,492L972,492L972,408L948,408L948,372L936,372L936,336L912,336L912,300L900,300L900,276L876,276L876,264L864,264L864,240L840,240L840,228L828,228L828,204L804,204L804,192L768,192L768,168L744,168L744,180L756,180L756,204L768,204L768,240L780,240L780,276L792,276L792,384L780,384L780,420L768,420L768,456L756,456L756,480L744,480L744,492L732,492L732,504L720,504L720,516L708,516L708,528L696,528L696,540L672,540L672,552L636,552L636,564L600,564L600,576L492,576L492,564L456,564L456,552L420,552L420,540L396,540L396,528L384,528L384,516L372,516L372,504L360,504L360,492L348,492L348,480L336,480L336,456L324,456L324,420L312,420L312,384L300,384L300,276L312,276L312,240L324,240L324,204L336,204L336,180L348,180L348,168L360,168L360,156L372,156L372,144L384,144L384,132L396,132L396,120L432,120L432,108L456,108L456,96L180,96L180,108L144,108L144,120L120,120L120,132L108,132L108,204L120,204L120,264L132,264L132,300L144,300L144,336L156,336L156,372L168,372L168,384L180,384L180,408L192,408L192,420L204,420L204,432L216,432L216,444L228,444L228,456L240,456L240,468L252,468L252,480L264,480L264,492L288,492L288,504L300,504L300,516L324,516L324,528L360,528L360,540L372,540L372,552L396,552L396,564L420,564L420,576L456,576L456,588L516,588L516,600L1020,600L1020,612L1032,612L1032,624L1044,624L1044,660L1032,660L1032,672L1020,672L1020,684L996,684L996,696L504,696L504,684L432,684L432,672L408,672L408,660L372,660L372,648L348,648L348,636L324,636L324,624L300,624L300,612L288,612L288,600L264,600L264,588L240,588L240,576L228,576L228,564L216,564L216,552L204,552L204,540L192,540L192,528L180,528L180,516L168,516L168,504L156,504L156,492L144,492L144,480L132,480L132,468L120,468L120,444L108,444L108,420L96,420L96,408L84,408L84,384L72,384L72,360L60,360L60,348L48,348L48,312L36,312L36,276L24,276L24,228L12,228L12,132L24,132L24,108L36,108L36,84L48,84L48,60L60,60L60,48L72,48L72,36L96,36L96,24L156,24L156,12M540,264L540,264L528,264L528,276L504,276L504,288L492,288L492,312L480,312L480,348L492,348L492,372L504,372L504,384L528,384L528,396L564,396L564,384L588,384L588,372L600,372L600,348L612,348L612,312L600,312L600,288L588,288L588,276L564,276L564,264Z" class="road"></path><path d="M324,204L324,204L360,204L360,216L384,216L384,228L408,228L408,240L432,240L432,252L456,252L456,264L480,264L480,276L504,276L504,288L468,288L468,276L444,276L444,264L420,264L420,252L396,252L396,240L372,240L372,228L348,228L348,216L324,216Z" class="cp1"></path><path d="M732,204L732,204L768,204L768,216L744,216L744,228L720,228L720,240L696,240L696,252L672,252L672,264L648,264L648,276L624,276L624,288L588,288L588,276L612,276L612,264L636,264L636,252L660,252L660,240L684,240L684,228L708,228L708,216L732,216Z" class="cp2"></path><path d="M540,396L540,396L552,396L552,420L540,420L540,396M552,420L552,420L564,420L564,444L552,444L552,420M540,420L540,420L540,444L528,444L528,420L540,420M540,444L540,444L552,444L552,468L540,468L540,444M552,468L552,468L564,468L564,492L552,492L552,468M540,468L540,468L540,492L528,492L528,468L540,468M540,492L540,492L552,492L552,516L540,516L540,492M552,516L552,516L564,516L564,540L552,540L552,516M540,516L540,516L540,540L528,540L528,516L540,516M540,540L540,540L552,540L552,564L540,564L540,540M552,564L552,564L564,564L564,576L552,576L552,564M540,564L540,564L540,576L528,576L528,564Z" class="cp3"></path><path d="M0,0L0,0L1092,0L1092,708L0,708L0,0M168,12L168,12L156,12L156,24L96,24L96,36L72,36L72,48L60,48L60,60L48,60L48,84L36,84L36,108L24,108L24,132L12,132L12,228L24,228L24,276L36,276L36,312L48,312L48,348L60,348L60,360L72,360L72,384L84,384L84,408L96,408L96,420L108,420L108,444L120,444L120,468L132,468L132,480L144,480L144,492L156,492L156,504L168,504L168,516L180,516L180,528L192,528L192,540L204,540L204,552L216,552L216,564L228,564L228,576L240,576L240,588L264,588L264,600L288,600L288,612L300,612L300,624L324,624L324,636L348,636L348,648L372,648L372,660L408,660L408,672L432,672L432,684L504,684L504,696L996,696L996,684L1020,684L1020,672L1032,672L1032,660L1044,660L1044,624L1032,624L1032,612L1020,612L1020,588L1056,588L1056,576L1068,576L1068,564L1080,564L1080,480L1068,480L1068,432L1056,432L1056,384L1044,384L1044,348L1032,348L1032,336L1020,336L1020,312L1008,312L1008,276L996,276L996,264L984,264L984,240L972,240L972,228L960,228L960,216L948,216L948,204L936,204L936,192L924,192L924,180L912,180L912,168L900,168L900,156L888,156L888,144L876,144L876,132L864,132L864,120L840,120L840,108L828,108L828,96L804,96L804,84L780,84L780,72L768,72L768,60L720,60L720,48L684,48L684,36L660,36L660,24L588,24L588,12Z" class="grass"></path><path d="M180,96L180,96L456,96L456,108L432,108L432,120L396,120L396,132L384,132L384,144L372,144L372,156L360,156L360,168L348,168L348,180L336,180L336,204L324,204L324,240L312,240L312,276L300,276L300,384L312,384L312,420L324,420L324,456L336,456L336,480L348,480L348,492L360,492L360,504L372,504L372,516L384,516L384,528L396,528L396,540L420,540L420,552L456,552L456,564L492,564L492,576L600,576L600,564L636,564L636,552L672,552L672,540L696,540L696,528L708,528L708,516L720,516L720,504L732,504L732,492L744,492L744,480L756,480L756,456L768,456L768,420L780,420L780,384L792,384L792,276L780,276L780,240L768,240L768,204L756,204L756,180L744,180L744,168L768,168L768,192L804,192L804,204L828,204L828,228L840,228L840,240L864,240L864,264L876,264L876,276L900,276L900,300L912,300L912,336L936,336L936,372L948,372L948,408L972,408L972,492L984,492L984,564L996,564L996,576L1008,576L1008,588L1020,588L1020,600L516,600L516,588L456,588L456,576L420,576L420,564L396,564L396,552L372,552L372,540L360,540L360,528L324,528L324,516L300,516L300,504L288,504L288,492L264,492L264,480L252,480L252,468L240,468L240,456L228,456L228,444L216,444L216,432L204,432L204,420L192,420L192,408L180,408L180,384L168,384L168,372L156,372L156,336L144,336L144,300L132,300L132,264L120,264L120,204L108,204L108,132L120,132L120,120L144,120L144,108L180,108Z" class="parc"></path><path d="M528,264L528,264L564,264L564,276L588,276L588,288L600,288L600,312L612,312L612,348L600,348L600,372L588,372L588,384L564,384L564,396L528,396L528,384L504,384L504,372L492,372L492,348L480,348L480,312L492,312L492,288L504,288L504,276L528,276Z" class="mud"></path><path d="M1008,552L1008,552L1056,552L1056,564L1068,564L1068,576L1056,576L1056,588L1008,588L1008,576L996,576L996,564L1008,564Z" class="finish"></path><path d="M972,600L972,600L984,600L984,612L972,612L972,600M984,612L984,612L996,612L996,600L1008,600L1008,612L996,612L996,624L984,624L984,612M996,624L996,624L1008,624L1008,636L996,636L996,624M984,624L984,624L984,636L972,636L972,624L984,624M984,636L984,636L996,636L996,648L984,648L984,636M996,648L996,648L1008,648L1008,660L996,660L996,648M984,648L984,648L984,660L972,660L972,648L984,648M984,660L984,660L996,660L996,672L984,672L984,660M996,672L996,672L1008,672L1008,684L996,684L996,672M984,672L984,672L984,684L972,684L972,672L984,672M984,684L984,684L996,684L996,696L984,696Z" class="start"></path></g>
 <rect opacity=".3" fill="url(#grid)" height="100%" width="100%" y="0" x="0"></rect>
</svg>