<svg xmlns:xlink="http://www.w3.org/1999/xlink" xmlns="http://www.w3.org/2000/svg" height="684" width="1056" id="mapSvgView" version="1.1" style="width: 1056px; height: 684px;" viewBox="0 0 1056 684">
 <defs>
 <pattern y="0" x="0" height="24" width="24" patternUnits="userSpaceOnUse" id="grassPattern">
 <rect class="grasscolor" height="24" width="24" y="0" x="0"></rect>
 <rect class="grassspeclecolor" height="1" width="1" x="1" y="5"></rect>
 <rect class="grassspeclecolor" height="1" width="1" x="1" y="5"></rect>
 <rect class="grassspeclecolor" height="1" width="1" x="3" y="5"></rect>
 <rect class="grassspeclecolor" height="1" width="1" x="6" y="7"></rect>
 <rect class="grassspeclecolor" height="1" width="1" x="6" y="17"></rect>
 <rect class="grassspeclecolor" height="1" width="1" x="8" y="21"></rect>
 <rect class="grassspeclecolor" height="1" width="1" x="9" y="2"></rect>
 <rect class="grassspeclecolor" height="1" width="1" x="12" y="4"></rect>
 <rect class="grassspeclecolor" height="1" width="1" x="13" y="15"></rect>
 <rect class="grassspeclecolor" height="1" width="1" x="14" y="4"></rect>
 <rect class="grassspeclecolor" height="1" width="1" x="14" y="19"></rect>
 <rect class="grassspeclecolor" height="1" width="1" x="17" y="7"></rect>
 <rect class="grassspeclecolor" height="1" width="1" x="17" y="12"></rect>
 <rect class="grassspeclecolor" height="1" width="1" x="18" y="23"></rect>
 <rect class="grassspeclecolor" height="1" width="1" x="21" y="16"></rect>
 <rect class="grassspeclecolor" height="1" width="1" x="23" y="12"></rect>
 </pattern>
 <pattern y="0" x="0" height="24" width="24" patternUnits="userSpaceOnUse" id="roadPattern">
 <rect class="roadcolor" height="24" width="24" y="0" x="0"></rect>
 <rect class="roadspeclecolor" height="1" width="1" x="1" y="5"></rect>
 <rect class="roadspeclecolor" height="1" width="1" x="1" y="5"></rect>
 <rect class="roadspeclecolor" height="1" width="1" x="3" y="5"></rect>
 <rect class="roadspeclecolor" height="1" width="1" x="6" y="7"></rect>
 <rect class="roadspeclecolor" height="1" width="1" x="6" y="17"></rect>
 <rect class="roadspeclecolor" height="1" width="1" x="8" y="21"></rect>
 <rect class="roadspeclecolor" height="1" width="1" x="9" y="2"></rect>
 <rect class="roadspeclecolor" height="1" width="1" x="12" y="4"></rect>
 <rect class="roadspeclecolor" height="1" width="1" x="13" y="15"></rect>
 <rect class="roadspeclecolor" height="1" width="1" x="14" y="4"></rect>
 <rect class="roadspeclecolor" height="1" width="1" x="14" y="19"></rect>
 <rect class="roadspeclecolor" height="1" width="1" x="17" y="7"></rect>
 <rect class="roadspeclecolor" height="1" width="1" x="17" y="12"></rect>
 <rect class="roadspeclecolor" height="1" width="1" x="18" y="23"></rect>
 <rect class="roadspeclecolor" height="1" width="1" x="21" y="16"></rect>
 <rect class="roadspeclecolor" height="1" width="1" x="23" y="12"></rect>
 </pattern>
 <pattern y="0" x="0" height="12" width="12" patternUnits="userSpaceOnUse" id="grid">
 <line stroke-width="1" stroke="black" y2="12" x2="12" y1="0" x1="12"></line>
 <line stroke-width="1" stroke="black" y2="12" x2="12" y1="12" x1="0"></line>
 </pattern>
 <pattern y="0" x="0" height="12" width="12" patternUnits="userSpaceOnUse" id="finishPattern">
 <rect fill="black" height="12" width="12" y="0" x="0"></rect>
 <path fill="white" d="M0,0L3,0L3,3L0,3L0,0M6,0L9,0L9,3L6,3L6,0M3,3L6,3L6,6L3,6L3,3M9,3L12,3L12,6L9,6L9,3"></path>
 <path fill="white" d="M0,6L3,6L3,9L0,9L0,6M6,6L9,6L9,9L6,9L6,6M3,9L6,9L6,12L3,12L3,9M9,9L12,9L12,12L9,12L9,9"></path>
 </pattern>
 <pattern y="0" x="0" height="12" width="12" patternUnits="userSpaceOnUse" id="startPattern">
 <rect fill="rgb(100,100,100)" height="12" width="12" y="0" x="0"></rect>
 <rect stroke-width="1" stroke="rgb(200,200,200)" fill="none" height="5" width="5" y="3.5" x="3.5"></rect>
 </pattern>
 <pattern y="0" x="0" height="12" width="12" patternUnits="userSpaceOnUse" id="cp1pattern">
 <rect class="cp1color" height="12" width="12" y="0" x="0"></rect>
 <path fill="black" d="M0,0L3,0L3,3L0,3L0,0M6,0L9,0L9,3L6,3L6,0M3,3L6,3L6,6L3,6L3,3M9,3L12,3L12,6L9,6L9,3"></path>
 <path fill="black" d="M0,6L3,6L3,9L0,9L0,6M6,6L9,6L9,9L6,9L6,6M3,9L6,9L6,12L3,12L3,9M9,9L12,9L12,12L9,12L9,9"></path>
 </pattern>
 <pattern y="0" x="0" height="12" width="12" patternUnits="userSpaceOnUse" id="cp2pattern">
 <rect class="cp2color" height="12" width="12" y="0" x="0"></rect>
 <path fill="white" d="M0,0L3,0L3,3L0,3L0,0M6,0L9,0L9,3L6,3L6,0M3,3L6,3L6,6L3,6L3,3M9,3L12,3L12,6L9,6L9,3"></path>
 <path fill="white" d="M0,6L3,6L3,9L0,9L0,6M6,6L9,6L9,9L6,9L6,6M3,9L6,9L6,12L3,12L3,9M9,9L12,9L12,12L9,12L9,9"></path>
 </pattern>
 <pattern y="0" x="0" height="12" width="12" patternUnits="userSpaceOnUse" id="cp3pattern">
 <rect class="cp3color" height="12" width="12" y="0" x="0"></rect>
 <path fill="black" d="M0,0L3,0L3,3L0,3L0,0M6,0L9,0L9,3L6,3L6,0M3,3L6,3L6,6L3,6L3,3M9,3L12,3L12,6L9,6L9,3"></path>
 <path fill="black" d="M0,6L3,6L3,9L0,9L0,6M6,6L9,6L9,9L6,9L6,6M3,9L6,9L6,12L3,12L3,9M9,9L12,9L12,12L9,12L9,9"></path>
 </pattern>
 <pattern y="0" x="0" height="12" width="12" patternUnits="userSpaceOnUse" id="cp4pattern">
 <rect class="cp4color" height="12" width="12" y="0" x="0"></rect>
 <path fill="white" d="M0,0L3,0L3,3L0,3L0,0M6,0L9,0L9,3L6,3L6,0M3,3L6,3L6,6L3,6L3,3M9,3L12,3L12,6L9,6L9,3"></path>
 <path fill="white" d="M0,6L3,6L3,9L0,9L0,6M6,6L9,6L9,9L6,9L6,6M3,9L6,9L6,12L3,12L3,9M9,9L12,9L12,12L9,12L9,9"></path>
 </pattern>
 <pattern y="0" x="0" height="12" width="12" patternUnits="userSpaceOnUse" id="cp5pattern">
 <rect class="cp5color" height="12" width="12" y="0" x="0"></rect>
 <path fill="black" d="M0,0L3,0L3,3L0,3L0,0M6,0L9,0L9,3L6,3L6,0M3,3L6,3L6,6L3,6L3,3M9,3L12,3L12,6L9,6L9,3"></path>
 <path fill="black" d="M0,6L3,6L3,9L0,9L0,6M6,6L9,6L9,9L6,9L6,6M3,9L6,9L6,12L3,12L3,9M9,9L12,9L12,12L9,12L9,9"></path>
 </pattern>
 <pattern y="0" x="0" height="12" width="12" patternUnits="userSpaceOnUse" id="cp6pattern">
 <rect class="cp6color" height="12" width="12" y="0" x="0"></rect>
 <path fill="white" d="M0,0L3,0L3,3L0,3L0,0M6,0L9,0L9,3L6,3L6,0M3,3L6,3L6,6L3,6L3,3M9,3L12,3L12,6L9,6L9,3"></path>
 <path fill="white" d="M0,6L3,6L3,9L0,9L0,6M6,6L9,6L9,9L6,9L6,6M3,9L6,9L6,12L3,12L3,9M9,9L12,9L12,12L9,12L9,9"></path>
 </pattern>
 <pattern y="0" x="0" height="12" width="12" patternUnits="userSpaceOnUse" id="cp7pattern">
 <rect class="cp7color" height="12" width="12" y="0" x="0"></rect>
 <path fill="black" d="M0,0L3,0L3,3L0,3L0,0M6,0L9,0L9,3L6,3L6,0M3,3L6,3L6,6L3,6L3,3M9,3L12,3L12,6L9,6L9,3"></path>
 <path fill="black" d="M0,6L3,6L3,9L0,9L0,6M6,6L9,6L9,9L6,9L6,6M3,9L6,9L6,12L3,12L3,9M9,9L12,9L12,12L9,12L9,9"></path>
 </pattern>
 <pattern y="0" x="0" height="12" width="12" patternUnits="userSpaceOnUse" id="cp8pattern">
 <rect class="cp8color" height="12" width="12" y="0" x="0"></rect>
 <path fill="white" d="M0,0L3,0L3,3L0,3L0,0M6,0L9,0L9,3L6,3L6,0M3,3L6,3L6,6L3,6L3,3M9,3L12,3L12,6L9,6L9,3"></path>
 <path fill="white" d="M0,6L3,6L3,9L0,9L0,6M6,6L9,6L9,9L6,9L6,6M3,9L6,9L6,12L3,12L3,9M9,9L12,9L12,12L9,12L9,9"></path>
 </pattern>
 <pattern y="0" x="0" height="12" width="12" patternUnits="userSpaceOnUse" id="cp9pattern">
 <rect class="cp9color" height="12" width="12" y="0" x="0"></rect>
 <path fill="black" d="M0,0L3,0L3,3L0,3L0,0M6,0L9,0L9,3L6,3L6,0M3,3L6,3L6,6L3,6L3,3M9,3L12,3L12,6L9,6L9,3"></path>
 <path fill="black" d="M0,6L3,6L3,9L0,9L0,6M6,6L9,6L9,9L6,9L6,6M3,9L6,9L6,12L3,12L3,9M9,9L12,9L12,12L9,12L9,9"></path>
 </pattern>
 </defs>
 <rect height="100%" width="100%" y="0" x="0" class="grass" id="mainfill"></rect>
 <g id="paths"><path d="M240,12L240,12L420,12L420,24L444,24L444,36L456,36L456,48L468,48L468,72L480,72L480,132L492,132L492,144L504,144L504,156L552,156L552,144L564,144L564,132L576,132L576,72L588,72L588,48L600,48L600,36L612,36L612,24L636,24L636,12L816,12L816,36L828,36L828,48L816,48L816,60L828,60L828,48L852,48L852,60L888,60L888,72L912,72L912,96L924,96L924,108L948,108L948,120L960,120L960,144L972,144L972,156L996,156L996,180L1008,180L1008,216L1020,216L1020,240L1008,240L1008,252L1020,252L1020,240L1032,240L1032,252L1044,252L1044,312L1032,312L1032,324L1020,324L1020,336L936,336L936,324L912,324L912,312L876,312L876,300L852,300L852,288L804,288L804,300L780,300L780,312L744,312L744,324L672,324L672,312L636,312L636,300L612,300L612,288L564,288L564,300L552,300L552,324L540,324L540,336L456,336L456,324L432,324L432,312L396,312L396,324L372,324L372,336L300,336L300,324L276,324L276,312L240,312L240,300L216,300L216,276L204,276L204,228L216,228L216,204L228,204L228,192L240,192L240,180L276,180L276,168L300,168L300,156L360,156L360,168L372,168L372,204L360,204L360,216L324,216L324,228L288,228L288,240L264,240L264,252L288,252L288,264L324,264L324,276L348,276L348,264L384,264L384,252L444,252L444,264L480,264L480,276L504,276L504,264L516,264L516,252L528,252L528,228L540,228L540,216L600,216L600,228L636,228L636,240L660,240L660,252L684,252L684,264L732,264L732,252L756,252L756,240L768,240L768,228L780,228L780,216L840,216L840,228L876,228L876,240L900,240L900,252L924,252L924,264L972,264L972,252L960,252L960,228L948,228L948,216L936,216L936,192L924,192L924,180L912,180L912,168L900,168L900,156L888,156L888,144L876,144L876,132L852,132L852,120L840,120L840,108L816,108L816,96L780,96L780,84L744,84L744,72L672,72L672,60L648,60L648,72L636,72L636,84L624,84L624,144L612,144L612,168L600,168L600,180L588,180L588,192L564,192L564,204L492,204L492,192L468,192L468,180L456,180L456,168L444,168L444,144L432,144L432,84L420,84L420,72L408,72L408,60L384,60L384,72L312,72L312,84L276,84L276,72L264,72L264,84L276,84L276,96L240,96L240,108L216,108L216,120L204,120L204,108L192,108L192,120L204,120L204,132L180,132L180,144L168,144L168,156L156,156L156,144L144,144L144,156L132,156L132,168L144,168L144,156L156,156L156,168L144,168L144,180L132,180L132,192L120,192L120,216L108,216L108,204L96,204L96,216L108,216L108,228L96,228L96,252L84,252L84,288L72,288L72,276L60,276L60,288L72,288L72,324L60,324L60,360L72,360L72,396L60,396L60,408L72,408L72,396L84,396L84,432L96,432L96,456L108,456L108,468L96,468L96,480L108,480L108,468L120,468L120,492L132,492L132,504L144,504L144,516L132,516L132,528L144,528L144,516L156,516L156,528L144,528L144,540L156,540L156,528L168,528L168,540L180,540L180,552L204,552L204,564L192,564L192,576L204,576L204,564L216,564L216,576L240,576L240,588L276,588L276,600L264,600L264,612L276,612L276,600L312,600L312,612L384,612L384,624L408,624L408,612L420,612L420,600L432,600L432,540L444,540L444,516L456,516L456,504L468,504L468,492L492,492L492,480L564,480L564,492L588,492L588,504L600,504L600,516L612,516L612,540L624,540L624,600L636,600L636,612L648,612L648,624L672,624L672,612L744,612L744,600L780,600L780,588L816,588L816,576L840,576L840,564L852,564L852,552L876,552L876,540L888,540L888,528L900,528L900,516L912,516L912,504L924,504L924,492L936,492L936,468L948,468L948,456L960,456L960,432L972,432L972,420L924,420L924,432L900,432L900,444L876,444L876,456L840,456L840,468L780,468L780,456L768,456L768,444L756,444L756,432L732,432L732,420L684,420L684,432L660,432L660,444L636,444L636,456L600,456L600,468L540,468L540,456L528,456L528,432L516,432L516,420L504,420L504,408L480,408L480,420L444,420L444,432L384,432L384,420L348,420L348,408L324,408L324,420L288,420L288,432L264,432L264,444L288,444L288,456L324,456L324,468L360,468L360,480L372,480L372,516L360,516L360,528L300,528L300,516L276,516L276,504L240,504L240,492L228,492L228,480L216,480L216,456L204,456L204,408L216,408L216,384L240,384L240,372L276,372L276,360L300,360L300,348L372,348L372,360L396,360L396,372L432,372L432,360L456,360L456,348L540,348L540,360L552,360L552,384L564,384L564,396L612,396L612,384L636,384L636,372L672,372L672,360L744,360L744,372L780,372L780,384L804,384L804,396L852,396L852,384L876,384L876,372L912,372L912,360L936,360L936,348L1020,348L1020,360L1032,360L1032,372L1044,372L1044,432L1032,432L1032,444L1020,444L1020,432L1008,432L1008,444L1020,444L1020,468L1008,468L1008,504L996,504L996,528L972,528L972,540L960,540L960,564L948,564L948,576L924,576L924,588L912,588L912,612L888,612L888,624L852,624L852,636L828,636L828,624L816,624L816,636L828,636L828,648L816,648L816,672L636,672L636,660L612,660L612,648L600,648L600,636L588,636L588,612L576,612L576,552L564,552L564,540L552,540L552,528L504,528L504,540L492,540L492,552L480,552L480,612L468,612L468,636L456,636L456,648L444,648L444,660L420,660L420,672L240,672L240,648L228,648L228,636L204,636L204,624L168,624L168,612L144,612L144,588L132,588L132,576L108,576L108,564L96,564L96,540L84,540L84,528L60,528L60,504L48,504L48,468L36,468L36,444L24,444L24,432L12,432L12,252L24,252L24,240L36,240L36,216L48,216L48,180L60,180L60,156L84,156L84,144L96,144L96,120L108,120L108,108L132,108L132,96L144,96L144,72L168,72L168,60L204,60L204,48L228,48L228,36L240,36L240,12M240,48L240,48L228,48L228,60L240,60L240,48M792,72L792,72L780,72L780,84L792,84L792,72M864,108L864,108L852,108L852,120L864,120L864,108M168,120L168,120L156,120L156,132L168,132L168,120M900,120L900,120L888,120L888,132L900,132L900,120M912,144L912,144L900,144L900,156L912,156L912,144M924,156L924,156L912,156L912,168L924,168L924,156M120,168L120,168L108,168L108,180L120,180L120,168M948,168L948,168L936,168L936,180L948,180L948,168M960,204L960,204L948,204L948,216L960,216L960,204M48,240L48,240L36,240L36,252L48,252L48,240M996,276L996,276L984,276L984,288L996,288L996,276M996,396L996,396L984,396L984,408L996,408L996,396M48,432L48,432L36,432L36,444L48,444L48,432M960,468L960,468L948,468L948,480L960,480L960,468M120,504L120,504L108,504L108,516L120,516L120,504M948,504L948,504L936,504L936,516L948,516L948,504M924,516L924,516L912,516L912,528L900,528L900,540L912,540L912,528L924,528L924,516M168,552L168,552L156,552L156,564L168,564L168,552M900,552L900,552L888,552L888,564L900,564L900,552M864,564L864,564L852,564L852,576L864,576L864,564M792,600L792,600L780,600L780,612L792,612L792,600M240,624L240,624L228,624L228,636L240,636Z" class="road"></path><path d="M0,0L0,0L12,0L12,60L0,60Z" class="parc"></path><path d="M228,12L228,12L240,12L240,36L228,36L228,12M816,12L816,12L828,12L828,36L816,36L816,12M228,36L228,36L228,48L204,48L204,36L228,36M828,36L828,36L852,36L852,48L828,48L828,36M204,48L204,48L204,60L168,60L168,48L204,48M852,48L852,48L888,48L888,60L852,60L852,48M168,60L168,60L168,72L144,72L144,60L168,60M888,60L888,60L912,60L912,72L888,72L888,60M144,72L144,72L144,96L132,96L132,72L144,72M912,72L912,72L924,72L924,96L912,96L912,72M132,96L132,96L132,108L108,108L108,96L132,96M924,96L924,96L948,96L948,108L924,108L924,96M108,108L108,108L108,120L96,120L96,108L108,108M948,108L948,108L960,108L960,120L948,120L948,108M96,120L96,120L96,144L84,144L84,120L96,120M960,120L960,120L972,120L972,144L960,144L960,120M84,144L84,144L84,156L60,156L60,144L84,144M972,144L972,144L996,144L996,156L972,156L972,144M60,156L60,156L60,180L48,180L48,156L60,156M996,156L996,156L1008,156L1008,180L996,180L996,156M360,156L360,156L372,156L372,168L360,168L360,156M372,168L372,168L384,168L384,204L372,204L372,168M48,180L48,180L48,216L36,216L36,180L48,180M1008,180L1008,180L1020,180L1020,216L1008,216L1008,180M372,204L372,204L372,216L360,216L360,204L372,204M36,216L36,216L36,240L24,240L24,216L36,216M360,216L360,216L360,228L324,228L324,216L360,216M1020,216L1020,216L1032,216L1032,240L1020,240L1020,216M324,228L324,228L324,240L288,240L288,228L324,228M528,216L528,216L540,216L540,228L528,228L528,216M528,228L528,228L528,252L516,252L516,228L528,228M24,240L24,240L24,252L12,252L12,240L24,240M288,240L288,240L288,252L264,252L264,240L288,240M1032,240L1032,240L1044,240L1044,252L1032,252L1032,240M12,252L12,252L12,432L0,432L0,252L12,252M288,252L288,252L324,252L324,264L288,264L288,252M384,240L384,240L444,240L444,252L384,252L384,240M384,252L384,252L384,264L348,264L348,252L384,252M444,252L444,252L480,252L480,264L444,264L444,252M516,252L516,252L516,264L504,264L504,252L516,252M1044,252L1044,252L1056,252L1056,432L1044,432L1044,372L1032,372L1032,360L1020,360L1020,348L996,348L996,336L1020,336L1020,324L1032,324L1032,312L1044,312L1044,252M324,264L324,264L348,264L348,276L324,276L324,264M480,264L480,264L504,264L504,276L480,276L480,264M324,408L324,408L348,408L348,420L324,420L324,408M324,420L324,420L324,432L288,432L288,420L324,420M348,420L348,420L384,420L384,432L348,432L348,420M480,408L480,408L504,408L504,420L480,420L480,408M480,420L480,420L480,432L444,432L444,420L480,420M504,420L504,420L516,420L516,432L504,432L504,420M12,432L12,432L24,432L24,444L12,444L12,432M288,432L288,432L288,444L264,444L264,432L288,432M384,432L384,432L444,432L444,444L384,444L384,432M516,432L516,432L528,432L528,456L516,456L516,432M1044,432L1044,432L1044,444L1032,444L1032,432L1044,432M24,444L24,444L36,444L36,468L24,468L24,444M288,444L288,444L324,444L324,456L288,456L288,444M1032,444L1032,444L1032,468L1020,468L1020,444L1032,444M324,456L324,456L360,456L360,468L324,468L324,456M528,456L528,456L540,456L540,468L528,468L528,456M36,468L36,468L48,468L48,504L36,504L36,468M360,468L360,468L372,468L372,480L360,480L360,468M1020,468L1020,468L1020,504L1008,504L1008,468L1020,468M372,480L372,480L384,480L384,516L372,516L372,480M48,504L48,504L60,504L60,528L48,528L48,504M1008,504L1008,504L1008,528L996,528L996,504L1008,504M372,516L372,516L372,528L360,528L360,516L372,516M60,528L60,528L84,528L84,540L60,540L60,528M996,528L996,528L996,540L972,540L972,528L996,528M84,540L84,540L96,540L96,564L84,564L84,540M972,540L972,540L972,564L960,564L960,540L972,540M96,564L96,564L108,564L108,576L96,576L96,564M960,564L960,564L960,576L948,576L948,564L960,564M108,576L108,576L132,576L132,588L108,588L108,576M948,576L948,576L948,588L924,588L924,576L948,576M132,588L132,588L144,588L144,612L132,612L132,588M924,588L924,588L924,612L912,612L912,588L924,588M144,612L144,612L168,612L168,624L144,624L144,612M912,612L912,612L912,624L888,624L888,612L912,612M168,624L168,624L204,624L204,636L168,636L168,624M888,624L888,624L888,636L852,636L852,624L888,624M204,636L204,636L228,636L228,648L204,648L204,636M852,636L852,636L852,648L828,648L828,636L852,636M228,648L228,648L240,648L240,672L228,672L228,648M828,648L828,648L828,672L816,672L816,648Z" class="mud"></path><path d="M384,60L384,60L408,60L408,72L384,72L384,60M408,72L408,72L420,72L420,84L408,84L408,72M648,60L648,60L672,60L672,72L648,72L648,60M648,72L648,72L648,84L636,84L636,72L648,72M420,84L420,84L432,84L432,144L420,144L420,84M636,84L636,84L636,144L624,144L624,84L636,84M432,144L432,144L444,144L444,168L432,168L432,144M624,144L624,144L624,168L612,168L612,144L624,144M444,168L444,168L456,168L456,180L444,180L444,168M612,168L612,168L612,180L600,180L600,168L612,168M456,180L456,180L468,180L468,192L456,192L456,180M600,180L600,180L600,192L588,192L588,180L600,180M468,192L468,192L492,192L492,204L468,204L468,192M588,192L588,192L588,204L564,204L564,192L588,192M492,204L492,204L564,204L564,216L492,216L492,204M564,288L564,288L612,288L612,300L564,300L564,288M564,300L564,300L564,324L552,324L552,300L564,300M612,300L612,300L636,300L636,312L612,312L612,300M804,288L804,288L852,288L852,300L804,300L804,288M804,300L804,300L804,312L780,312L780,300L804,300M636,312L636,312L672,312L672,324L636,324L636,312M780,312L780,312L780,324L744,324L744,312L780,312M396,312L396,312L432,312L432,324L396,324L396,312M396,324L396,324L396,336L372,336L372,324L396,324M432,324L432,324L456,324L456,336L432,336L432,324M552,324L552,324L552,336L540,336L540,324L552,324M672,324L672,324L744,324L744,336L672,336L672,324M372,336L372,336L372,348L348,348L348,336L372,336M456,336L456,336L540,336L540,348L456,348L456,336M372,348L372,348L396,348L396,360L372,360L372,348M456,348L456,348L456,360L432,360L432,348L456,348M540,348L540,348L552,348L552,360L540,360L540,348M396,360L396,360L432,360L432,372L396,372L396,360M552,360L552,360L564,360L564,384L552,384L552,360M672,348L672,348L744,348L744,360L672,360L672,348M672,360L672,360L672,372L636,372L636,360L672,360M744,360L744,360L780,360L780,372L744,372L744,360M636,372L636,372L636,384L612,384L612,372L636,372M780,372L780,372L804,372L804,384L780,384L780,372M564,384L564,384L612,384L612,396L564,396L564,384M804,384L804,384L852,384L852,396L804,396L804,384M492,468L492,468L564,468L564,480L492,480L492,468M492,480L492,480L492,492L468,492L468,480L492,480M564,480L564,480L588,480L588,492L564,492L564,480M468,492L468,492L468,504L456,504L456,492L468,492M588,492L588,492L600,492L600,504L588,504L588,492M456,504L456,504L456,516L444,516L444,504L456,504M600,504L600,504L612,504L612,516L600,516L600,504M444,516L444,516L444,540L432,540L432,516L444,516M612,516L612,516L624,516L624,540L612,540L612,516M432,540L432,540L432,600L420,600L420,540L432,540M624,540L624,540L636,540L636,600L624,600L624,540M420,600L420,600L420,612L408,612L408,600L420,600M636,600L636,600L648,600L648,612L636,612L636,600M408,612L408,612L408,624L384,624L384,612L408,612M648,612L648,612L672,612L672,624L648,624Z" class="sand"></path><path d="M348,156L348,156L360,156L360,168L348,168L348,156M360,168L360,168L372,168L372,180L360,180L360,168M360,180L360,180L360,192L348,192L348,180L360,180M360,192L360,192L372,192L372,204L360,204L360,192M360,204L360,204L360,216L348,216L348,204Z" class="start"></path><path d="M348,468L348,468L360,468L360,480L348,480L348,468M360,480L360,480L372,480L372,492L360,492L360,480M360,492L360,492L360,504L348,504L348,492L360,492M360,504L360,504L372,504L372,516L360,516L360,504M360,516L360,516L360,528L348,528L348,516Z" class="finish"></path></g>
 <rect opacity=".3" fill="url(#grid)" height="100%" width="100%" y="0" x="0"></rect>
</svg>