<svg xmlns="http://www.w3.org/2000/svg" xmlns:xlink="http://www.w3.org/1999/xlink" version="1.1" id="mapSvgView" width="420" height="420"> <rect id="mainfill" class="road" x="0" y="0" width="100%" height="100%"></rect> <g id="paths"><path d="M204,108L204,108L216,108L216,120L204,120L204,108M312,372L312,372L324,372L324,396L336,396L336,372L348,372L348,408L312,408Z" class="cp1"></path><path d="M276,132L276,132L288,132L288,144L276,144L276,132M348,372L348,372L360,372L360,396L372,396L372,408L348,408Z" class="cp2"></path><path d="M300,204L300,204L312,204L312,216L300,216L300,204M360,372L360,372L396,372L396,384L384,384L384,408L372,408L372,384L360,384Z" class="cp3"></path><path d="M276,276L276,276L288,276L288,288L276,288L276,276M396,372L396,372L408,372L408,408L396,408Z" class="cp4"></path><path d="M204,300L204,300L216,300L216,312L204,312Z" class="cp5"></path><path d="M132,276L132,276L144,276L144,288L132,288Z" class="cp6"></path><path d="M108,204L108,204L120,204L120,216L108,216Z" class="cp7"></path><path d="M132,132L132,132L144,132L144,144L132,144Z" class="cp8"></path><path d="M0,0L0,0L420,0L420,420L0,420L0,0M192,24L192,24L180,24L180,36L132,36L132,48L120,48L120,60L96,60L96,72L84,72L84,84L72,84L72,96L60,96L60,120L48,120L48,132L36,132L36,180L24,180L24,240L36,240L36,288L48,288L48,300L60,300L60,324L72,324L72,336L84,336L84,348L96,348L96,360L120,360L120,372L132,372L132,384L180,384L180,396L240,396L240,384L288,384L288,372L300,372L300,360L324,360L324,348L336,348L336,336L348,336L348,324L360,324L360,300L372,300L372,288L384,288L384,240L396,240L396,180L384,180L384,132L372,132L372,120L360,120L360,96L348,96L348,84L336,84L336,72L324,72L324,60L300,60L300,48L288,48L288,36L240,36L240,24L192,24M324,372L324,372L312,372L312,408L384,408L384,384L396,384L396,408L408,408L408,372L336,372L336,396L324,396L324,372M360,384L360,384L372,384L372,396L360,396Z" class="parc"></path><path d="M180,24L180,24L192,24L192,36L180,36L180,24M228,24L228,24L240,24L240,36L228,36L228,24M132,36L132,36L144,36L144,48L132,48L132,36M276,36L276,36L288,36L288,48L276,48L276,36M96,60L96,60L108,60L108,72L96,72L96,60M312,60L312,60L324,60L324,72L312,72L312,60M60,96L60,96L72,96L72,108L60,108L60,96M348,96L348,96L360,96L360,108L348,108L348,96M36,132L36,132L48,132L48,144L36,144L36,132M372,132L372,132L384,132L384,144L372,144L372,132M24,180L24,180L36,180L36,192L24,192L24,180M384,180L384,180L396,180L396,192L384,192L384,180M24,228L24,228L36,228L36,240L24,240L24,228M384,228L384,228L396,228L396,240L384,240L384,228M36,276L36,276L48,276L48,288L36,288L36,276M372,276L372,276L384,276L384,288L372,288L372,276M60,312L60,312L72,312L72,324L60,324L60,312M348,312L348,312L360,312L360,324L348,324L348,312M96,348L96,348L108,348L108,360L96,360L96,348M312,348L312,348L324,348L324,360L312,360L312,348M132,372L132,372L144,372L144,384L132,384L132,372M276,372L276,372L288,372L288,384L276,384L276,372M180,384L180,384L192,384L192,396L180,396L180,384M228,384L228,384L240,384L240,396L228,396Z" class="start"></path><path d="M204,204L204,204L216,204L216,216L204,216Z" class="finish"></path></g></svg>