<svg xmlns:xlink="http://www.w3.org/1999/xlink" xmlns="http://www.w3.org/2000/svg" height="600" width="480" id="mapSvgView" version="1.1" style="width: 480px; height: 600px;" viewBox="0 0 480 600">
 <defs>
 <pattern y="0" x="0" height="24" width="24" patternUnits="userSpaceOnUse" id="grassPattern">
 <rect class="grasscolor" height="24" width="24" y="0" x="0"></rect>
 <rect class="grassspeclecolor" height="1" width="1" x="1" y="5"></rect>
 <rect class="grassspeclecolor" height="1" width="1" x="1" y="5"></rect>
 <rect class="grassspeclecolor" height="1" width="1" x="3" y="5"></rect>
 <rect class="grassspeclecolor" height="1" width="1" x="6" y="7"></rect>
 <rect class="grassspeclecolor" height="1" width="1" x="6" y="17"></rect>
 <rect class="grassspeclecolor" height="1" width="1" x="8" y="21"></rect>
 <rect class="grassspeclecolor" height="1" width="1" x="9" y="2"></rect>
 <rect class="grassspeclecolor" height="1" width="1" x="12" y="4"></rect>
 <rect class="grassspeclecolor" height="1" width="1" x="13" y="15"></rect>
 <rect class="grassspeclecolor" height="1" width="1" x="14" y="4"></rect>
 <rect class="grassspeclecolor" height="1" width="1" x="14" y="19"></rect>
 <rect class="grassspeclecolor" height="1" width="1" x="17" y="7"></rect>
 <rect class="grassspeclecolor" height="1" width="1" x="17" y="12"></rect>
 <rect class="grassspeclecolor" height="1" width="1" x="18" y="23"></rect>
 <rect class="grassspeclecolor" height="1" width="1" x="21" y="16"></rect>
 <rect class="grassspeclecolor" height="1" width="1" x="23" y="12"></rect>
 </pattern>
 <pattern y="0" x="0" height="24" width="24" patternUnits="userSpaceOnUse" id="roadPattern">
 <rect class="roadcolor" height="24" width="24" y="0" x="0"></rect>
 <rect class="roadspeclecolor" height="1" width="1" x="1" y="5"></rect>
 <rect class="roadspeclecolor" height="1" width="1" x="1" y="5"></rect>
 <rect class="roadspeclecolor" height="1" width="1" x="3" y="5"></rect>
 <rect class="roadspeclecolor" height="1" width="1" x="6" y="7"></rect>
 <rect class="roadspeclecolor" height="1" width="1" x="6" y="17"></rect>
 <rect class="roadspeclecolor" height="1" width="1" x="8" y="21"></rect>
 <rect class="roadspeclecolor" height="1" width="1" x="9" y="2"></rect>
 <rect class="roadspeclecolor" height="1" width="1" x="12" y="4"></rect>
 <rect class="roadspeclecolor" height="1" width="1" x="13" y="15"></rect>
 <rect class="roadspeclecolor" height="1" width="1" x="14" y="4"></rect>
 <rect class="roadspeclecolor" height="1" width="1" x="14" y="19"></rect>
 <rect class="roadspeclecolor" height="1" width="1" x="17" y="7"></rect>
 <rect class="roadspeclecolor" height="1" width="1" x="17" y="12"></rect>
 <rect class="roadspeclecolor" height="1" width="1" x="18" y="23"></rect>
 <rect class="roadspeclecolor" height="1" width="1" x="21" y="16"></rect>
 <rect class="roadspeclecolor" height="1" width="1" x="23" y="12"></rect>
 </pattern>
 <pattern y="0" x="0" height="12" width="12" patternUnits="userSpaceOnUse" id="grid">
 <line stroke-width="1" stroke="black" y2="12" x2="12" y1="0" x1="12"></line>
 <line stroke-width="1" stroke="black" y2="12" x2="12" y1="12" x1="0"></line>
 </pattern>
 <pattern y="0" x="0" height="12" width="12" patternUnits="userSpaceOnUse" id="finishPattern">
 <rect fill="black" height="12" width="12" y="0" x="0"></rect>
 <path fill="white" d="M0,0L3,0L3,3L0,3L0,0M6,0L9,0L9,3L6,3L6,0M3,3L6,3L6,6L3,6L3,3M9,3L12,3L12,6L9,6L9,3"></path>
 <path fill="white" d="M0,6L3,6L3,9L0,9L0,6M6,6L9,6L9,9L6,9L6,6M3,9L6,9L6,12L3,12L3,9M9,9L12,9L12,12L9,12L9,9"></path>
 </pattern>
 <pattern y="0" x="0" height="12" width="12" patternUnits="userSpaceOnUse" id="startPattern">
 <rect fill="rgb(100,100,100)" height="12" width="12" y="0" x="0"></rect>
 <rect stroke-width="1" stroke="rgb(200,200,200)" fill="none" height="5" width="5" y="3.5" x="3.5"></rect>
 </pattern>
 <pattern y="0" x="0" height="12" width="12" patternUnits="userSpaceOnUse" id="cp1pattern">
 <rect class="cp1color" height="12" width="12" y="0" x="0"></rect>
 <path fill="black" d="M0,0L3,0L3,3L0,3L0,0M6,0L9,0L9,3L6,3L6,0M3,3L6,3L6,6L3,6L3,3M9,3L12,3L12,6L9,6L9,3"></path>
 <path fill="black" d="M0,6L3,6L3,9L0,9L0,6M6,6L9,6L9,9L6,9L6,6M3,9L6,9L6,12L3,12L3,9M9,9L12,9L12,12L9,12L9,9"></path>
 </pattern>
 <pattern y="0" x="0" height="12" width="12" patternUnits="userSpaceOnUse" id="cp2pattern">
 <rect class="cp2color" height="12" width="12" y="0" x="0"></rect>
 <path fill="white" d="M0,0L3,0L3,3L0,3L0,0M6,0L9,0L9,3L6,3L6,0M3,3L6,3L6,6L3,6L3,3M9,3L12,3L12,6L9,6L9,3"></path>
 <path fill="white" d="M0,6L3,6L3,9L0,9L0,6M6,6L9,6L9,9L6,9L6,6M3,9L6,9L6,12L3,12L3,9M9,9L12,9L12,12L9,12L9,9"></path>
 </pattern>
 <pattern y="0" x="0" height="12" width="12" patternUnits="userSpaceOnUse" id="cp3pattern">
 <rect class="cp3color" height="12" width="12" y="0" x="0"></rect>
 <path fill="black" d="M0,0L3,0L3,3L0,3L0,0M6,0L9,0L9,3L6,3L6,0M3,3L6,3L6,6L3,6L3,3M9,3L12,3L12,6L9,6L9,3"></path>
 <path fill="black" d="M0,6L3,6L3,9L0,9L0,6M6,6L9,6L9,9L6,9L6,6M3,9L6,9L6,12L3,12L3,9M9,9L12,9L12,12L9,12L9,9"></path>
 </pattern>
 <pattern y="0" x="0" height="12" width="12" patternUnits="userSpaceOnUse" id="cp4pattern">
 <rect class="cp4color" height="12" width="12" y="0" x="0"></rect>
 <path fill="white" d="M0,0L3,0L3,3L0,3L0,0M6,0L9,0L9,3L6,3L6,0M3,3L6,3L6,6L3,6L3,3M9,3L12,3L12,6L9,6L9,3"></path>
 <path fill="white" d="M0,6L3,6L3,9L0,9L0,6M6,6L9,6L9,9L6,9L6,6M3,9L6,9L6,12L3,12L3,9M9,9L12,9L12,12L9,12L9,9"></path>
 </pattern>
 <pattern y="0" x="0" height="12" width="12" patternUnits="userSpaceOnUse" id="cp5pattern">
 <rect class="cp5color" height="12" width="12" y="0" x="0"></rect>
 <path fill="black" d="M0,0L3,0L3,3L0,3L0,0M6,0L9,0L9,3L6,3L6,0M3,3L6,3L6,6L3,6L3,3M9,3L12,3L12,6L9,6L9,3"></path>
 <path fill="black" d="M0,6L3,6L3,9L0,9L0,6M6,6L9,6L9,9L6,9L6,6M3,9L6,9L6,12L3,12L3,9M9,9L12,9L12,12L9,12L9,9"></path>
 </pattern>
 <pattern y="0" x="0" height="12" width="12" patternUnits="userSpaceOnUse" id="cp6pattern">
 <rect class="cp6color" height="12" width="12" y="0" x="0"></rect>
 <path fill="white" d="M0,0L3,0L3,3L0,3L0,0M6,0L9,0L9,3L6,3L6,0M3,3L6,3L6,6L3,6L3,3M9,3L12,3L12,6L9,6L9,3"></path>
 <path fill="white" d="M0,6L3,6L3,9L0,9L0,6M6,6L9,6L9,9L6,9L6,6M3,9L6,9L6,12L3,12L3,9M9,9L12,9L12,12L9,12L9,9"></path>
 </pattern>
 <pattern y="0" x="0" height="12" width="12" patternUnits="userSpaceOnUse" id="cp7pattern">
 <rect class="cp7color" height="12" width="12" y="0" x="0"></rect>
 <path fill="black" d="M0,0L3,0L3,3L0,3L0,0M6,0L9,0L9,3L6,3L6,0M3,3L6,3L6,6L3,6L3,3M9,3L12,3L12,6L9,6L9,3"></path>
 <path fill="black" d="M0,6L3,6L3,9L0,9L0,6M6,6L9,6L9,9L6,9L6,6M3,9L6,9L6,12L3,12L3,9M9,9L12,9L12,12L9,12L9,9"></path>
 </pattern>
 <pattern y="0" x="0" height="12" width="12" patternUnits="userSpaceOnUse" id="cp8pattern">
 <rect class="cp8color" height="12" width="12" y="0" x="0"></rect>
 <path fill="white" d="M0,0L3,0L3,3L0,3L0,0M6,0L9,0L9,3L6,3L6,0M3,3L6,3L6,6L3,6L3,3M9,3L12,3L12,6L9,6L9,3"></path>
 <path fill="white" d="M0,6L3,6L3,9L0,9L0,6M6,6L9,6L9,9L6,9L6,6M3,9L6,9L6,12L3,12L3,9M9,9L12,9L12,12L9,12L9,9"></path>
 </pattern>
 <pattern y="0" x="0" height="12" width="12" patternUnits="userSpaceOnUse" id="cp9pattern">
 <rect class="cp9color" height="12" width="12" y="0" x="0"></rect>
 <path fill="black" d="M0,0L3,0L3,3L0,3L0,0M6,0L9,0L9,3L6,3L6,0M3,3L6,3L6,6L3,6L3,3M9,3L12,3L12,6L9,6L9,3"></path>
 <path fill="black" d="M0,6L3,6L3,9L0,9L0,6M6,6L9,6L9,9L6,9L6,6M3,9L6,9L6,12L3,12L3,9M9,9L12,9L12,12L9,12L9,9"></path>
 </pattern>
 </defs>
 <rect height="100%" width="100%" y="0" x="0" class="grass" id="mainfill"></rect>
 <g id="paths"><path d="M96,36L96,36L384,36L384,48L408,48L408,60L420,60L420,72L432,72L432,96L444,96L444,204L432,204L432,240L420,240L420,264L408,264L408,276L396,276L396,288L384,288L384,276L372,276L372,264L360,264L360,252L372,252L372,240L384,240L384,216L396,216L396,168L408,168L408,120L396,120L396,96L384,96L384,84L360,84L360,72L120,72L120,84L96,84L96,96L84,96L84,120L72,120L72,144L84,144L84,168L96,168L96,180L84,180L84,192L72,192L72,204L60,204L60,192L48,192L48,168L36,168L36,96L48,96L48,72L60,72L60,60L72,60L72,48L96,48L96,36M120,156L120,156L228,156L228,168L252,168L252,180L264,180L264,192L276,192L276,204L288,204L288,216L300,216L300,228L324,228L324,240L336,240L336,252L348,252L348,264L336,264L336,276L324,276L324,288L312,288L312,276L300,276L300,264L288,264L288,252L276,252L276,240L264,240L264,228L252,228L252,216L240,216L240,204L216,204L216,192L156,192L156,204L132,204L132,192L120,192L120,180L108,180L108,168L120,168L120,156M96,180L96,180L108,180L108,192L96,192L96,180M84,192L84,192L96,192L96,204L84,204L84,192M108,192L108,192L120,192L120,204L108,204L108,192M72,204L72,204L84,204L84,216L72,216L72,204M96,204L96,204L108,204L108,216L96,216L96,204M120,204L120,204L132,204L132,216L120,216L120,204M84,216L84,216L96,216L96,228L84,228L84,216M72,216L72,216L72,228L84,228L84,240L96,240L96,228L108,228L108,216L120,216L120,228L108,228L108,240L96,240L96,264L84,264L84,324L96,324L96,348L84,348L84,360L72,360L72,372L60,372L60,360L48,360L48,228L60,228L60,216L72,216M132,216L132,216L144,216L144,228L156,228L156,240L168,240L168,264L180,264L180,324L168,324L168,348L156,348L156,360L144,360L144,372L132,372L132,360L120,360L120,348L108,348L108,336L120,336L120,324L132,324L132,300L144,300L144,288L132,288L132,264L120,264L120,252L108,252L108,240L120,240L120,228L132,228L132,216M348,264L348,264L360,264L360,276L348,276L348,264M336,276L336,276L348,276L348,288L336,288L336,276M360,276L360,276L372,276L372,288L360,288L360,276M324,288L324,288L336,288L336,300L324,300L324,288M348,288L348,288L360,288L360,300L348,300L348,288M372,288L372,288L384,288L384,300L372,300L372,288M336,300L336,300L348,300L348,312L336,312L336,300M324,300L324,300L324,312L336,312L336,324L348,324L348,312L360,312L360,300L372,300L372,312L360,312L360,324L348,324L348,336L336,336L336,348L324,348L324,360L300,360L300,372L288,372L288,384L276,384L276,396L264,396L264,408L252,408L252,420L228,420L228,432L120,432L120,420L108,420L108,408L96,408L96,396L84,396L84,384L72,384L72,372L84,372L84,360L96,360L96,348L108,348L108,360L96,360L96,372L84,372L84,384L96,384L96,372L108,372L108,360L120,360L120,372L108,372L108,384L96,384L96,396L108,396L108,384L120,384L120,372L132,372L132,384L120,384L120,396L108,396L108,408L120,408L120,396L132,396L132,384L156,384L156,396L216,396L216,384L240,384L240,372L252,372L252,360L264,360L264,348L276,348L276,336L288,336L288,324L300,324L300,312L312,312L312,300L324,300M384,300L384,300L396,300L396,312L408,312L408,324L420,324L420,348L432,348L432,384L444,384L444,492L432,492L432,516L420,516L420,528L408,528L408,540L384,540L384,552L96,552L96,540L72,540L72,528L60,528L60,516L48,516L48,492L36,492L36,420L48,420L48,396L60,396L60,384L72,384L72,396L84,396L84,408L96,408L96,420L84,420L84,444L72,444L72,468L84,468L84,492L96,492L96,504L120,504L120,516L360,516L360,504L384,504L384,492L396,492L396,468L408,468L408,420L396,420L396,372L384,372L384,348L372,348L372,336L360,336L360,324L372,324L372,312L384,312Z" class="road"></path><path d="M240,36L240,36L252,36L252,72L240,72Z" class="cp1"></path><path d="M180,396L180,396L192,396L192,432L180,432Z" class="cp2"></path><path d="M180,156L180,156L192,156L192,192L180,192Z" class="cp3"></path><path d="M240,516L240,516L252,516L252,552L240,552Z" class="cp4"></path><path d="M0,0L0,0L12,0L12,72L0,72Z" class="parc"></path><path d="M96,24L96,24L180,24L180,36L96,36L96,24M96,36L96,36L96,48L72,48L72,36L96,36M312,24L312,24L384,24L384,36L312,36L312,24M384,36L384,36L408,36L408,48L384,48L384,36M72,48L72,48L72,60L60,60L60,48L72,48M408,48L408,48L420,48L420,60L408,60L408,48M60,60L60,60L60,72L48,72L48,60L60,60M420,60L420,60L432,60L432,72L420,72L420,60M48,72L48,72L48,96L36,96L36,72L48,72M432,72L432,72L444,72L444,96L432,96L432,72M36,96L36,96L36,168L24,168L24,96L36,96M444,96L444,96L456,96L456,204L444,204L444,96M120,144L120,144L228,144L228,156L120,156L120,144M120,156L120,156L120,168L108,168L108,180L96,180L96,168L84,168L84,156L120,156M228,156L228,156L252,156L252,168L228,168L228,156M36,168L36,168L48,168L48,192L36,192L36,168M252,168L252,168L264,168L264,180L252,180L252,168M108,180L108,180L120,180L120,192L108,192L108,180M96,180L96,180L96,192L84,192L84,180L96,180M264,180L264,180L276,180L276,192L264,192L264,180M48,192L48,192L60,192L60,204L72,204L72,192L84,192L84,204L72,204L72,216L60,216L60,228L48,228L48,192M96,192L96,192L108,192L108,204L96,204L96,192M120,192L120,192L132,192L132,204L120,204L120,192M276,192L276,192L288,192L288,204L276,204L276,192M84,204L84,204L96,204L96,216L84,216L84,204M108,204L108,204L120,204L120,216L108,216L108,204M132,204L132,204L156,204L156,228L144,228L144,216L132,216L132,204M288,204L288,204L300,204L300,216L288,216L288,204M444,204L444,204L444,240L432,240L432,204L444,204M72,216L72,216L84,216L84,228L72,228L72,216M96,216L96,216L108,216L108,228L96,228L96,216M120,216L120,216L132,216L132,228L120,228L120,216M300,216L300,216L324,216L324,228L300,228L300,216M48,228L48,228L48,360L36,360L36,228L48,228M84,228L84,228L96,228L96,240L84,240L84,228M108,228L108,228L120,228L120,240L108,240L108,228M156,228L156,228L168,228L168,240L156,240L156,228M324,228L324,228L336,228L336,240L324,240L324,228M96,240L96,240L108,240L108,252L96,252L96,240M168,240L168,240L180,240L180,264L168,264L168,240M336,240L336,240L348,240L348,252L336,252L336,240M432,240L432,240L432,264L420,264L420,240L432,240M348,252L348,252L360,252L360,264L348,264L348,252M180,264L180,264L192,264L192,324L180,324L180,264M360,264L360,264L372,264L372,276L360,276L360,264M348,264L348,264L348,276L336,276L336,264L348,264M420,264L420,264L420,276L408,276L408,264L420,264M348,276L348,276L360,276L360,288L348,288L348,276M336,276L336,276L336,288L324,288L324,276L336,276M372,276L372,276L384,276L384,288L372,288L372,276M408,276L408,276L408,312L396,312L396,300L384,300L384,288L396,288L396,276L408,276M336,288L336,288L348,288L348,300L336,300L336,288M324,288L324,288L324,300L312,300L312,288L324,288M360,288L360,288L372,288L372,300L360,300L360,288M324,300L324,300L336,300L336,312L324,312L324,300M348,300L348,300L360,300L360,312L348,312L348,300M372,300L372,300L384,300L384,312L372,312L372,300M336,312L336,312L348,312L348,324L336,324L336,312M360,312L360,312L372,312L372,324L360,324L360,312M408,312L408,312L420,312L420,324L408,324L408,312M180,324L180,324L180,348L168,348L168,324L180,324M348,324L348,324L360,324L360,336L348,336L348,324M420,324L420,324L432,324L432,348L420,348L420,324M348,336L348,336L348,348L336,348L336,336L348,336M96,336L96,336L108,336L108,348L96,348L96,336M108,348L108,348L120,348L120,360L108,360L108,348M96,348L96,348L96,360L84,360L84,348L96,348M168,348L168,348L168,360L156,360L156,348L168,348M336,348L336,348L336,360L324,360L324,348L336,348M432,348L432,348L444,348L444,384L432,384L432,348M48,360L48,360L60,360L60,372L72,372L72,360L84,360L84,372L72,372L72,384L60,384L60,396L48,396L48,360M96,360L96,360L108,360L108,372L96,372L96,360M120,360L120,360L132,360L132,372L120,372L120,360M156,360L156,360L156,384L132,384L132,372L144,372L144,360L156,360M324,360L324,360L324,372L300,372L300,360L324,360M84,372L84,372L96,372L96,384L84,384L84,372M108,372L108,372L120,372L120,384L108,384L108,372M300,372L300,372L300,384L288,384L288,372L300,372M72,384L72,384L84,384L84,396L72,396L72,384M96,384L96,384L108,384L108,396L96,396L96,384M120,384L120,384L132,384L132,396L120,396L120,384M288,384L288,384L288,396L276,396L276,384L288,384M444,384L444,384L456,384L456,492L444,492L444,384M48,396L48,396L48,420L36,420L36,396L48,396M84,396L84,396L96,396L96,408L84,408L84,396M108,396L108,396L120,396L120,408L108,408L108,396M276,396L276,396L276,408L264,408L264,396L276,396M96,408L96,408L108,408L108,420L120,420L120,432L84,432L84,420L96,420L96,408M264,408L264,408L264,420L252,420L252,408L264,408M36,420L36,420L36,492L24,492L24,420L36,420M252,420L252,420L252,432L228,432L228,420L252,420M120,432L120,432L228,432L228,444L120,444L120,432M36,492L36,492L48,492L48,516L36,516L36,492M444,492L444,492L444,516L432,516L432,492L444,492M48,516L48,516L60,516L60,528L48,528L48,516M432,516L432,516L432,528L420,528L420,516L432,516M60,528L60,528L72,528L72,540L60,540L60,528M420,528L420,528L420,540L408,540L408,528L420,528M72,540L72,540L96,540L96,552L72,552L72,540M408,540L408,540L408,552L384,552L384,540L408,540M96,552L96,552L180,552L180,564L96,564L96,552M384,552L384,552L384,564L312,564L312,552Z" class="sand"></path><path d="M156,240L156,240L168,240L168,252L156,252L156,240M156,252L156,252L156,264L144,264L144,252L156,252M144,264L144,264L144,276L132,276L132,264L144,264M132,312L132,312L144,312L144,324L132,324L132,312M144,324L144,324L156,324L156,336L144,336L144,324M156,336L156,336L168,336L168,348L156,348Z" class="start"></path><path d="M144,288L144,288L180,288L180,300L144,300Z" class="finish"></path></g>
 <rect opacity=".3" fill="url(#grid)" height="100%" width="100%" y="0" x="0"></rect>
</svg>