<svg xmlns:xlink="http://www.w3.org/1999/xlink" xmlns="http://www.w3.org/2000/svg" height="420" width="420" id="mapSvgView" version="1.1" style="width: 420px; height: 420px;" viewBox="0 0 420 420">
 <defs>
 <pattern y="0" x="0" height="24" width="24" patternUnits="userSpaceOnUse" id="grassPattern">
 <rect class="grasscolor" height="24" width="24" y="0" x="0"></rect>
 <rect class="grassspeclecolor" height="1" width="1" x="1" y="5"></rect>
 <rect class="grassspeclecolor" height="1" width="1" x="1" y="5"></rect>
 <rect class="grassspeclecolor" height="1" width="1" x="3" y="5"></rect>
 <rect class="grassspeclecolor" height="1" width="1" x="6" y="7"></rect>
 <rect class="grassspeclecolor" height="1" width="1" x="6" y="17"></rect>
 <rect class="grassspeclecolor" height="1" width="1" x="8" y="21"></rect>
 <rect class="grassspeclecolor" height="1" width="1" x="9" y="2"></rect>
 <rect class="grassspeclecolor" height="1" width="1" x="12" y="4"></rect>
 <rect class="grassspeclecolor" height="1" width="1" x="13" y="15"></rect>
 <rect class="grassspeclecolor" height="1" width="1" x="14" y="4"></rect>
 <rect class="grassspeclecolor" height="1" width="1" x="14" y="19"></rect>
 <rect class="grassspeclecolor" height="1" width="1" x="17" y="7"></rect>
 <rect class="grassspeclecolor" height="1" width="1" x="17" y="12"></rect>
 <rect class="grassspeclecolor" height="1" width="1" x="18" y="23"></rect>
 <rect class="grassspeclecolor" height="1" width="1" x="21" y="16"></rect>
 <rect class="grassspeclecolor" height="1" width="1" x="23" y="12"></rect>
 </pattern>
 <pattern y="0" x="0" height="24" width="24" patternUnits="userSpaceOnUse" id="roadPattern">
 <rect class="roadcolor" height="24" width="24" y="0" x="0"></rect>
 <rect class="roadspeclecolor" height="1" width="1" x="1" y="5"></rect>
 <rect class="roadspeclecolor" height="1" width="1" x="1" y="5"></rect>
 <rect class="roadspeclecolor" height="1" width="1" x="3" y="5"></rect>
 <rect class="roadspeclecolor" height="1" width="1" x="6" y="7"></rect>
 <rect class="roadspeclecolor" height="1" width="1" x="6" y="17"></rect>
 <rect class="roadspeclecolor" height="1" width="1" x="8" y="21"></rect>
 <rect class="roadspeclecolor" height="1" width="1" x="9" y="2"></rect>
 <rect class="roadspeclecolor" height="1" width="1" x="12" y="4"></rect>
 <rect class="roadspeclecolor" height="1" width="1" x="13" y="15"></rect>
 <rect class="roadspeclecolor" height="1" width="1" x="14" y="4"></rect>
 <rect class="roadspeclecolor" height="1" width="1" x="14" y="19"></rect>
 <rect class="roadspeclecolor" height="1" width="1" x="17" y="7"></rect>
 <rect class="roadspeclecolor" height="1" width="1" x="17" y="12"></rect>
 <rect class="roadspeclecolor" height="1" width="1" x="18" y="23"></rect>
 <rect class="roadspeclecolor" height="1" width="1" x="21" y="16"></rect>
 <rect class="roadspeclecolor" height="1" width="1" x="23" y="12"></rect>
 </pattern>
 <pattern y="0" x="0" height="12" width="12" patternUnits="userSpaceOnUse" id="grid">
 <line stroke-width="1" stroke="black" y2="12" x2="12" y1="0" x1="12"></line>
 <line stroke-width="1" stroke="black" y2="12" x2="12" y1="12" x1="0"></line>
 </pattern>
 <pattern y="0" x="0" height="12" width="12" patternUnits="userSpaceOnUse" id="finishPattern">
 <rect fill="black" height="12" width="12" y="0" x="0"></rect>
 <path fill="white" d="M0,0L3,0L3,3L0,3L0,0M6,0L9,0L9,3L6,3L6,0M3,3L6,3L6,6L3,6L3,3M9,3L12,3L12,6L9,6L9,3"></path>
 <path fill="white" d="M0,6L3,6L3,9L0,9L0,6M6,6L9,6L9,9L6,9L6,6M3,9L6,9L6,12L3,12L3,9M9,9L12,9L12,12L9,12L9,9"></path>
 </pattern>
 <pattern y="0" x="0" height="12" width="12" patternUnits="userSpaceOnUse" id="startPattern">
 <rect fill="rgb(100,100,100)" height="12" width="12" y="0" x="0"></rect>
 <rect stroke-width="1" stroke="rgb(200,200,200)" fill="none" height="5" width="5" y="3.5" x="3.5"></rect>
 </pattern>
 <pattern y="0" x="0" height="12" width="12" patternUnits="userSpaceOnUse" id="cp1pattern">
 <rect class="cp1color" height="12" width="12" y="0" x="0"></rect>
 <path fill="black" d="M0,0L3,0L3,3L0,3L0,0M6,0L9,0L9,3L6,3L6,0M3,3L6,3L6,6L3,6L3,3M9,3L12,3L12,6L9,6L9,3"></path>
 <path fill="black" d="M0,6L3,6L3,9L0,9L0,6M6,6L9,6L9,9L6,9L6,6M3,9L6,9L6,12L3,12L3,9M9,9L12,9L12,12L9,12L9,9"></path>
 </pattern>
 <pattern y="0" x="0" height="12" width="12" patternUnits="userSpaceOnUse" id="cp2pattern">
 <rect class="cp2color" height="12" width="12" y="0" x="0"></rect>
 <path fill="white" d="M0,0L3,0L3,3L0,3L0,0M6,0L9,0L9,3L6,3L6,0M3,3L6,3L6,6L3,6L3,3M9,3L12,3L12,6L9,6L9,3"></path>
 <path fill="white" d="M0,6L3,6L3,9L0,9L0,6M6,6L9,6L9,9L6,9L6,6M3,9L6,9L6,12L3,12L3,9M9,9L12,9L12,12L9,12L9,9"></path>
 </pattern>
 <pattern y="0" x="0" height="12" width="12" patternUnits="userSpaceOnUse" id="cp3pattern">
 <rect class="cp3color" height="12" width="12" y="0" x="0"></rect>
 <path fill="black" d="M0,0L3,0L3,3L0,3L0,0M6,0L9,0L9,3L6,3L6,0M3,3L6,3L6,6L3,6L3,3M9,3L12,3L12,6L9,6L9,3"></path>
 <path fill="black" d="M0,6L3,6L3,9L0,9L0,6M6,6L9,6L9,9L6,9L6,6M3,9L6,9L6,12L3,12L3,9M9,9L12,9L12,12L9,12L9,9"></path>
 </pattern>
 <pattern y="0" x="0" height="12" width="12" patternUnits="userSpaceOnUse" id="cp4pattern">
 <rect class="cp4color" height="12" width="12" y="0" x="0"></rect>
 <path fill="white" d="M0,0L3,0L3,3L0,3L0,0M6,0L9,0L9,3L6,3L6,0M3,3L6,3L6,6L3,6L3,3M9,3L12,3L12,6L9,6L9,3"></path>
 <path fill="white" d="M0,6L3,6L3,9L0,9L0,6M6,6L9,6L9,9L6,9L6,6M3,9L6,9L6,12L3,12L3,9M9,9L12,9L12,12L9,12L9,9"></path>
 </pattern>
 <pattern y="0" x="0" height="12" width="12" patternUnits="userSpaceOnUse" id="cp5pattern">
 <rect class="cp5color" height="12" width="12" y="0" x="0"></rect>
 <path fill="black" d="M0,0L3,0L3,3L0,3L0,0M6,0L9,0L9,3L6,3L6,0M3,3L6,3L6,6L3,6L3,3M9,3L12,3L12,6L9,6L9,3"></path>
 <path fill="black" d="M0,6L3,6L3,9L0,9L0,6M6,6L9,6L9,9L6,9L6,6M3,9L6,9L6,12L3,12L3,9M9,9L12,9L12,12L9,12L9,9"></path>
 </pattern>
 <pattern y="0" x="0" height="12" width="12" patternUnits="userSpaceOnUse" id="cp6pattern">
 <rect class="cp6color" height="12" width="12" y="0" x="0"></rect>
 <path fill="white" d="M0,0L3,0L3,3L0,3L0,0M6,0L9,0L9,3L6,3L6,0M3,3L6,3L6,6L3,6L3,3M9,3L12,3L12,6L9,6L9,3"></path>
 <path fill="white" d="M0,6L3,6L3,9L0,9L0,6M6,6L9,6L9,9L6,9L6,6M3,9L6,9L6,12L3,12L3,9M9,9L12,9L12,12L9,12L9,9"></path>
 </pattern>
 <pattern y="0" x="0" height="12" width="12" patternUnits="userSpaceOnUse" id="cp7pattern">
 <rect class="cp7color" height="12" width="12" y="0" x="0"></rect>
 <path fill="black" d="M0,0L3,0L3,3L0,3L0,0M6,0L9,0L9,3L6,3L6,0M3,3L6,3L6,6L3,6L3,3M9,3L12,3L12,6L9,6L9,3"></path>
 <path fill="black" d="M0,6L3,6L3,9L0,9L0,6M6,6L9,6L9,9L6,9L6,6M3,9L6,9L6,12L3,12L3,9M9,9L12,9L12,12L9,12L9,9"></path>
 </pattern>
 <pattern y="0" x="0" height="12" width="12" patternUnits="userSpaceOnUse" id="cp8pattern">
 <rect class="cp8color" height="12" width="12" y="0" x="0"></rect>
 <path fill="white" d="M0,0L3,0L3,3L0,3L0,0M6,0L9,0L9,3L6,3L6,0M3,3L6,3L6,6L3,6L3,3M9,3L12,3L12,6L9,6L9,3"></path>
 <path fill="white" d="M0,6L3,6L3,9L0,9L0,6M6,6L9,6L9,9L6,9L6,6M3,9L6,9L6,12L3,12L3,9M9,9L12,9L12,12L9,12L9,9"></path>
 </pattern>
 <pattern y="0" x="0" height="12" width="12" patternUnits="userSpaceOnUse" id="cp9pattern">
 <rect class="cp9color" height="12" width="12" y="0" x="0"></rect>
 <path fill="black" d="M0,0L3,0L3,3L0,3L0,0M6,0L9,0L9,3L6,3L6,0M3,3L6,3L6,6L3,6L3,3M9,3L12,3L12,6L9,6L9,3"></path>
 <path fill="black" d="M0,6L3,6L3,9L0,9L0,6M6,6L9,6L9,9L6,9L6,6M3,9L6,9L6,12L3,12L3,9M9,9L12,9L12,12L9,12L9,9"></path>
 </pattern>
 </defs>
 <rect height="100%" width="100%" y="0" x="0" class="parc" id="mainfill"></rect>
 <g id="paths"><path d="M24,24L24,24L132,24L132,72L120,72L120,96L108,96L108,132L120,132L120,156L132,156L132,264L120,264L120,288L108,288L108,360L96,360L96,372L120,372L120,360L144,360L144,336L156,336L156,300L168,300L168,264L180,264L180,240L240,240L240,264L252,264L252,300L264,300L264,336L276,336L276,360L300,360L300,372L324,372L324,360L312,360L312,288L300,288L300,264L288,264L288,156L300,156L300,132L312,132L312,96L300,96L300,72L288,72L288,24L396,24L396,72L384,72L384,96L372,96L372,132L384,132L384,156L396,156L396,264L384,264L384,288L372,288L372,360L360,360L360,396L252,396L252,384L228,384L228,324L216,324L216,288L204,288L204,324L192,324L192,384L168,384L168,396L60,396L60,360L48,360L48,288L36,288L36,264L24,264L24,156L36,156L36,132L48,132L48,96L36,96L36,72L24,72L24,24M84,72L84,72L72,72L72,96L60,96L60,132L72,132L72,156L84,156L84,132L96,132L96,96L84,96L84,72M348,72L348,72L336,72L336,96L324,96L324,132L336,132L336,156L348,156L348,132L360,132L360,96L348,96L348,72M60,168L60,168L48,168L48,192L36,192L36,228L48,228L48,252L60,252L60,228L72,228L72,192L60,192L60,168M108,168L108,168L96,168L96,192L84,192L84,228L96,228L96,252L108,252L108,228L120,228L120,192L108,192L108,168M324,168L324,168L312,168L312,192L300,192L300,228L312,228L312,252L324,252L324,228L336,228L336,192L324,192L324,168M372,168L372,168L360,168L360,192L348,192L348,228L360,228L360,252L372,252L372,228L384,228L384,192L372,192L372,168M84,264L84,264L72,264L72,288L60,288L60,324L72,324L72,348L84,348L84,324L96,324L96,288L84,288L84,264M348,264L348,264L336,264L336,288L324,288L324,324L336,324L336,348L348,348L348,324L360,324L360,288L348,288Z" class="road"></path><path d="M12,12L12,12L144,12L144,84L132,84L132,108L120,108L120,120L132,120L132,144L144,144L144,276L132,276L132,300L120,300L120,348L132,348L132,324L144,324L144,288L156,288L156,252L168,252L168,228L252,228L252,252L264,252L264,288L276,288L276,324L288,324L288,348L300,348L300,300L288,300L288,276L276,276L276,144L288,144L288,120L300,120L300,108L288,108L288,84L276,84L276,12L408,12L408,84L396,84L396,108L384,108L384,120L396,120L396,144L408,144L408,276L396,276L396,300L384,300L384,372L372,372L372,408L228,408L228,396L216,396L216,336L204,336L204,396L192,396L192,408L48,408L48,372L36,372L36,300L24,300L24,276L12,276L12,144L24,144L24,120L36,120L36,108L24,108L24,84L12,84L12,12M36,24L36,24L24,24L24,72L36,72L36,96L48,96L48,132L36,132L36,156L24,156L24,264L36,264L36,288L48,288L48,360L60,360L60,396L168,396L168,384L192,384L192,324L204,324L204,288L216,288L216,324L228,324L228,384L252,384L252,396L360,396L360,360L372,360L372,288L384,288L384,264L396,264L396,156L384,156L384,132L372,132L372,96L384,96L384,72L396,72L396,24L288,24L288,72L300,72L300,96L312,96L312,132L300,132L300,156L288,156L288,264L300,264L300,288L312,288L312,360L324,360L324,372L300,372L300,360L276,360L276,336L264,336L264,300L252,300L252,264L240,264L240,240L180,240L180,264L168,264L168,300L156,300L156,336L144,336L144,360L120,360L120,372L96,372L96,360L108,360L108,288L120,288L120,264L132,264L132,156L120,156L120,132L108,132L108,96L120,96L120,72L132,72L132,24L36,24M72,72L72,72L84,72L84,96L96,96L96,132L84,132L84,156L72,156L72,132L60,132L60,96L72,96L72,72M336,72L336,72L348,72L348,96L360,96L360,132L348,132L348,156L336,156L336,132L324,132L324,96L336,96L336,72M84,108L84,108L72,108L72,120L84,120L84,108M348,108L348,108L336,108L336,120L348,120L348,108M48,168L48,168L60,168L60,192L72,192L72,228L60,228L60,252L48,252L48,228L36,228L36,192L48,192L48,168M96,168L96,168L108,168L108,192L120,192L120,228L108,228L108,252L96,252L96,228L84,228L84,192L96,192L96,168M312,168L312,168L324,168L324,192L336,192L336,228L324,228L324,252L312,252L312,228L300,228L300,192L312,192L312,168M360,168L360,168L372,168L372,192L384,192L384,228L372,228L372,252L360,252L360,228L348,228L348,192L360,192L360,168M60,204L60,204L48,204L48,216L60,216L60,204M108,204L108,204L96,204L96,216L108,216L108,204M324,204L324,204L312,204L312,216L324,216L324,204M372,204L372,204L360,204L360,216L372,216L372,204M72,264L72,264L84,264L84,288L96,288L96,324L84,324L84,348L72,348L72,324L60,324L60,288L72,288L72,264M336,264L336,264L348,264L348,288L360,288L360,324L348,324L348,348L336,348L336,324L324,324L324,288L336,288L336,264M84,300L84,300L72,300L72,312L84,312L84,300M348,300L348,300L336,300L336,312L348,312Z" class="grass"></path><path d="M36,24L36,24L48,24L48,36L36,36L36,24M60,24L60,24L72,24L72,36L60,36L60,24M84,24L84,24L96,24L96,36L84,36L84,24M108,24L108,24L120,24L120,36L108,36Z" class="start"></path><path d="M300,24L300,24L312,24L312,36L300,36L300,24M324,24L324,24L336,24L336,36L324,36L324,24M348,24L348,24L360,24L360,36L348,36L348,24M372,24L372,24L384,24L384,36L372,36Z" class="finish"></path></g>
 <rect opacity=".3" fill="url(#grid)" height="100%" width="100%" y="0" x="0"></rect>
</svg>