<svg xmlns="http://www.w3.org/2000/svg" xmlns:xlink="http://www.w3.org/1999/xlink" version="1.1" id="mapSvgView" width="300" height="240"> <rect id="mainfill" class="road" x="0" y="0" width="100%" height="100%"></rect> <g id="paths"><path d="M132,24L132,24L168,24L168,36L132,36Z" class="cp1"></path><path d="M24,156L24,156L60,156L60,168L24,168Z" class="cp2"></path><path d="M240,156L240,156L276,156L276,168L240,168Z" class="cp3"></path><path d="M0,0L0,0L12,0L12,72L0,72Z" class="parc"></path><path d="M12,0L12,0L300,0L300,240L0,240L0,72L12,72L12,0M132,12L132,12L120,12L120,24L84,24L84,36L60,36L60,48L36,48L36,72L24,72L24,108L12,108L12,156L24,156L24,192L36,192L36,216L60,216L60,228L120,228L120,216L180,216L180,228L240,228L240,216L264,216L264,192L276,192L276,156L288,156L288,108L276,108L276,72L264,72L264,48L240,48L240,36L216,36L216,24L180,24L180,12L132,12M120,48L120,48L144,48L144,72L120,72L120,84L96,84L96,96L84,96L84,108L72,108L72,144L84,144L84,168L132,168L132,180L96,180L96,192L72,192L72,168L60,168L60,144L48,144L48,120L60,120L60,84L72,84L72,72L96,72L96,60L120,60L120,48M156,48L156,48L180,48L180,60L204,60L204,72L228,72L228,84L240,84L240,120L252,120L252,144L240,144L240,168L228,168L228,192L204,192L204,180L168,180L168,168L216,168L216,144L228,144L228,108L216,108L216,96L204,96L204,84L180,84L180,72L156,72L156,48M144,72L144,72L156,72L156,96L144,96L144,72M108,96L108,96L132,96L132,108L108,108L108,96M132,108L132,108L144,108L144,132L132,132L132,108M168,96L168,96L192,96L192,108L168,108L168,96M168,108L168,108L168,132L156,132L156,108L168,108M120,144L120,144L144,144L144,156L120,156L120,144M156,144L156,144L180,144L180,156L156,156Z" class="grass"></path><path d="M72,108L72,108L84,108L84,144L72,144L72,108M216,108L216,108L228,108L228,144L216,144Z" class="finish"></path><path d="M84,108L84,108L96,108L96,120L84,120L84,108M96,120L96,120L108,120L108,132L96,132L96,120M204,108L204,108L216,108L216,120L204,120L204,108M204,120L204,120L204,132L192,132L192,120L204,120M96,132L96,132L96,144L84,144L84,132L96,132M204,132L204,132L216,132L216,144L204,144Z" class="start"></path></g></svg>