<svg xmlns="http://www.w3.org/2000/svg" xmlns:xlink="http://www.w3.org/1999/xlink" version="1.1" id="mapSvgView" width="264" height="408"> <rect id="mainfill" class="grass" x="0" y="0" width="100%" height="100%"></rect> <g id="paths"><path d="M72,336L72,336L108,336L108,348L72,348Z" class="cp1"></path><path d="M180,120L180,120L204,120L204,132L180,132Z" class="cp2"></path><path d="M0,0L0,0L12,0L12,60L0,60Z" class="parc"></path><path d="M24,0L24,0L144,0L144,12L168,12L168,24L192,24L192,36L204,36L204,60L216,60L216,120L228,120L228,156L240,156L240,180L252,180L252,204L264,204L264,252L252,252L252,216L240,216L240,192L228,192L228,168L216,168L216,132L204,132L204,72L192,72L192,48L180,48L180,36L156,36L156,24L132,24L132,12L36,12L36,24L24,24L24,36L12,36L12,12L24,12L24,0M120,84L120,84L132,84L132,96L120,96L120,84M132,96L132,96L144,96L144,108L132,108L132,96M144,108L144,108L156,108L156,144L168,144L168,120L180,120L180,144L168,144L168,180L156,180L156,204L144,204L144,216L96,216L96,228L84,228L84,240L72,240L72,216L60,216L60,204L72,204L72,192L120,192L120,180L132,180L132,168L144,168L144,108M12,120L12,120L108,120L108,132L120,132L120,144L108,144L108,156L48,156L48,168L36,168L36,180L24,180L24,240L12,240L12,120M192,180L192,180L204,180L204,204L192,204L192,228L180,228L180,240L156,240L156,228L168,228L168,216L180,216L180,192L192,192L192,180M252,252L252,252L252,264L240,264L240,252L252,252M240,264L240,264L240,276L228,276L228,264L240,264M132,264L132,264L192,264L192,276L132,276L132,264M132,276L132,276L132,288L120,288L120,276L132,276M228,276L228,276L228,288L216,288L216,276L228,276M120,288L120,288L120,300L108,300L108,288L120,288M216,288L216,288L216,300L204,300L204,288L216,288M108,300L108,300L108,312L96,312L96,300L108,300M240,288L240,288L252,288L252,300L240,300L240,288M240,300L240,300L240,312L228,312L228,300L240,300M228,312L228,312L228,372L204,372L204,396L192,396L192,372L168,372L168,312L228,312M192,324L192,324L180,324L180,360L216,360L216,324L192,324M108,336L108,336L120,336L120,384L108,384L108,396L96,396L96,408L24,408L24,396L12,396L12,372L24,372L24,384L36,384L36,396L84,396L84,384L96,384L96,372L108,372L108,336M192,336L192,336L204,336L204,348L192,348Z" class="sand"></path><path d="M36,12L36,12L132,12L132,24L156,24L156,36L180,36L180,48L192,48L192,72L204,72L204,120L180,120L180,96L168,96L168,72L156,72L156,60L132,60L132,48L60,48L60,60L48,60L48,72L12,72L12,36L24,36L24,24L36,24L36,12M24,84L24,84L36,84L36,96L24,96L24,84M36,96L36,96L48,96L48,84L120,84L120,96L132,96L132,108L144,108L144,168L132,168L132,180L120,180L120,192L72,192L72,204L60,204L60,372L72,372L72,348L108,348L108,372L96,372L96,384L84,384L84,396L36,396L36,384L24,384L24,180L36,180L36,168L48,168L48,156L108,156L108,144L120,144L120,132L108,132L108,120L48,120L48,108L36,108L36,96M24,96L24,96L24,108L12,108L12,96L24,96M24,108L24,108L36,108L36,120L24,120L24,108M180,132L180,132L216,132L216,168L228,168L228,192L240,192L240,216L252,216L252,252L240,252L240,264L228,264L228,276L216,276L216,288L204,288L204,300L144,300L144,312L132,312L132,324L120,324L120,336L72,336L72,240L84,240L84,228L96,228L96,216L144,216L144,204L156,204L156,180L168,180L168,144L180,144L180,132M204,180L204,180L192,180L192,192L180,192L180,216L168,216L168,228L156,228L156,240L108,240L108,252L96,252L96,312L108,312L108,300L120,300L120,288L132,288L132,276L192,276L192,264L204,264L204,252L216,252L216,240L228,240L228,216L216,216L216,204L204,204Z" class="road"></path><path d="M12,72L12,72L48,72L48,84L12,84Z" class="finish"></path><path d="M12,84L12,84L24,84L24,96L12,96L12,84M24,96L24,96L36,96L36,84L48,84L48,96L36,96L36,108L24,108L24,96M36,108L36,108L48,108L48,120L36,120L36,108M24,108L24,108L24,120L12,120L12,108Z" class="start"></path></g></svg>