<svg xmlns:xlink="http://www.w3.org/1999/xlink" xmlns="http://www.w3.org/2000/svg" height="2076" width="1056" id="mapSvgView" version="1.1" style="width: 1056px; height: 2076px;" viewBox="0 0 1056 2076">
 <defs>
 <pattern y="0" x="0" height="24" width="24" patternUnits="userSpaceOnUse" id="grassPattern">
 <rect class="grasscolor" height="24" width="24" y="0" x="0"></rect>
 <rect class="grassspeclecolor" height="1" width="1" x="1" y="5"></rect>
 <rect class="grassspeclecolor" height="1" width="1" x="1" y="5"></rect>
 <rect class="grassspeclecolor" height="1" width="1" x="3" y="5"></rect>
 <rect class="grassspeclecolor" height="1" width="1" x="6" y="7"></rect>
 <rect class="grassspeclecolor" height="1" width="1" x="6" y="17"></rect>
 <rect class="grassspeclecolor" height="1" width="1" x="8" y="21"></rect>
 <rect class="grassspeclecolor" height="1" width="1" x="9" y="2"></rect>
 <rect class="grassspeclecolor" height="1" width="1" x="12" y="4"></rect>
 <rect class="grassspeclecolor" height="1" width="1" x="13" y="15"></rect>
 <rect class="grassspeclecolor" height="1" width="1" x="14" y="4"></rect>
 <rect class="grassspeclecolor" height="1" width="1" x="14" y="19"></rect>
 <rect class="grassspeclecolor" height="1" width="1" x="17" y="7"></rect>
 <rect class="grassspeclecolor" height="1" width="1" x="17" y="12"></rect>
 <rect class="grassspeclecolor" height="1" width="1" x="18" y="23"></rect>
 <rect class="grassspeclecolor" height="1" width="1" x="21" y="16"></rect>
 <rect class="grassspeclecolor" height="1" width="1" x="23" y="12"></rect>
 </pattern>
 <pattern y="0" x="0" height="24" width="24" patternUnits="userSpaceOnUse" id="roadPattern">
 <rect class="roadcolor" height="24" width="24" y="0" x="0"></rect>
 <rect class="roadspeclecolor" height="1" width="1" x="1" y="5"></rect>
 <rect class="roadspeclecolor" height="1" width="1" x="1" y="5"></rect>
 <rect class="roadspeclecolor" height="1" width="1" x="3" y="5"></rect>
 <rect class="roadspeclecolor" height="1" width="1" x="6" y="7"></rect>
 <rect class="roadspeclecolor" height="1" width="1" x="6" y="17"></rect>
 <rect class="roadspeclecolor" height="1" width="1" x="8" y="21"></rect>
 <rect class="roadspeclecolor" height="1" width="1" x="9" y="2"></rect>
 <rect class="roadspeclecolor" height="1" width="1" x="12" y="4"></rect>
 <rect class="roadspeclecolor" height="1" width="1" x="13" y="15"></rect>
 <rect class="roadspeclecolor" height="1" width="1" x="14" y="4"></rect>
 <rect class="roadspeclecolor" height="1" width="1" x="14" y="19"></rect>
 <rect class="roadspeclecolor" height="1" width="1" x="17" y="7"></rect>
 <rect class="roadspeclecolor" height="1" width="1" x="17" y="12"></rect>
 <rect class="roadspeclecolor" height="1" width="1" x="18" y="23"></rect>
 <rect class="roadspeclecolor" height="1" width="1" x="21" y="16"></rect>
 <rect class="roadspeclecolor" height="1" width="1" x="23" y="12"></rect>
 </pattern>
 <pattern y="0" x="0" height="12" width="12" patternUnits="userSpaceOnUse" id="grid">
 <line stroke-width="1" stroke="black" y2="12" x2="12" y1="0" x1="12"></line>
 <line stroke-width="1" stroke="black" y2="12" x2="12" y1="12" x1="0"></line>
 </pattern>
 <pattern y="0" x="0" height="12" width="12" patternUnits="userSpaceOnUse" id="finishPattern">
 <rect fill="black" height="12" width="12" y="0" x="0"></rect>
 <path fill="white" d="M0,0L3,0L3,3L0,3L0,0M6,0L9,0L9,3L6,3L6,0M3,3L6,3L6,6L3,6L3,3M9,3L12,3L12,6L9,6L9,3"></path>
 <path fill="white" d="M0,6L3,6L3,9L0,9L0,6M6,6L9,6L9,9L6,9L6,6M3,9L6,9L6,12L3,12L3,9M9,9L12,9L12,12L9,12L9,9"></path>
 </pattern>
 <pattern y="0" x="0" height="12" width="12" patternUnits="userSpaceOnUse" id="startPattern">
 <rect fill="rgb(100,100,100)" height="12" width="12" y="0" x="0"></rect>
 <rect stroke-width="1" stroke="rgb(200,200,200)" fill="none" height="5" width="5" y="3.5" x="3.5"></rect>
 </pattern>
 <pattern y="0" x="0" height="12" width="12" patternUnits="userSpaceOnUse" id="cp1pattern">
 <rect class="cp1color" height="12" width="12" y="0" x="0"></rect>
 <path fill="black" d="M0,0L3,0L3,3L0,3L0,0M6,0L9,0L9,3L6,3L6,0M3,3L6,3L6,6L3,6L3,3M9,3L12,3L12,6L9,6L9,3"></path>
 <path fill="black" d="M0,6L3,6L3,9L0,9L0,6M6,6L9,6L9,9L6,9L6,6M3,9L6,9L6,12L3,12L3,9M9,9L12,9L12,12L9,12L9,9"></path>
 </pattern>
 <pattern y="0" x="0" height="12" width="12" patternUnits="userSpaceOnUse" id="cp2pattern">
 <rect class="cp2color" height="12" width="12" y="0" x="0"></rect>
 <path fill="white" d="M0,0L3,0L3,3L0,3L0,0M6,0L9,0L9,3L6,3L6,0M3,3L6,3L6,6L3,6L3,3M9,3L12,3L12,6L9,6L9,3"></path>
 <path fill="white" d="M0,6L3,6L3,9L0,9L0,6M6,6L9,6L9,9L6,9L6,6M3,9L6,9L6,12L3,12L3,9M9,9L12,9L12,12L9,12L9,9"></path>
 </pattern>
 <pattern y="0" x="0" height="12" width="12" patternUnits="userSpaceOnUse" id="cp3pattern">
 <rect class="cp3color" height="12" width="12" y="0" x="0"></rect>
 <path fill="black" d="M0,0L3,0L3,3L0,3L0,0M6,0L9,0L9,3L6,3L6,0M3,3L6,3L6,6L3,6L3,3M9,3L12,3L12,6L9,6L9,3"></path>
 <path fill="black" d="M0,6L3,6L3,9L0,9L0,6M6,6L9,6L9,9L6,9L6,6M3,9L6,9L6,12L3,12L3,9M9,9L12,9L12,12L9,12L9,9"></path>
 </pattern>
 <pattern y="0" x="0" height="12" width="12" patternUnits="userSpaceOnUse" id="cp4pattern">
 <rect class="cp4color" height="12" width="12" y="0" x="0"></rect>
 <path fill="white" d="M0,0L3,0L3,3L0,3L0,0M6,0L9,0L9,3L6,3L6,0M3,3L6,3L6,6L3,6L3,3M9,3L12,3L12,6L9,6L9,3"></path>
 <path fill="white" d="M0,6L3,6L3,9L0,9L0,6M6,6L9,6L9,9L6,9L6,6M3,9L6,9L6,12L3,12L3,9M9,9L12,9L12,12L9,12L9,9"></path>
 </pattern>
 <pattern y="0" x="0" height="12" width="12" patternUnits="userSpaceOnUse" id="cp5pattern">
 <rect class="cp5color" height="12" width="12" y="0" x="0"></rect>
 <path fill="black" d="M0,0L3,0L3,3L0,3L0,0M6,0L9,0L9,3L6,3L6,0M3,3L6,3L6,6L3,6L3,3M9,3L12,3L12,6L9,6L9,3"></path>
 <path fill="black" d="M0,6L3,6L3,9L0,9L0,6M6,6L9,6L9,9L6,9L6,6M3,9L6,9L6,12L3,12L3,9M9,9L12,9L12,12L9,12L9,9"></path>
 </pattern>
 <pattern y="0" x="0" height="12" width="12" patternUnits="userSpaceOnUse" id="cp6pattern">
 <rect class="cp6color" height="12" width="12" y="0" x="0"></rect>
 <path fill="white" d="M0,0L3,0L3,3L0,3L0,0M6,0L9,0L9,3L6,3L6,0M3,3L6,3L6,6L3,6L3,3M9,3L12,3L12,6L9,6L9,3"></path>
 <path fill="white" d="M0,6L3,6L3,9L0,9L0,6M6,6L9,6L9,9L6,9L6,6M3,9L6,9L6,12L3,12L3,9M9,9L12,9L12,12L9,12L9,9"></path>
 </pattern>
 <pattern y="0" x="0" height="12" width="12" patternUnits="userSpaceOnUse" id="cp7pattern">
 <rect class="cp7color" height="12" width="12" y="0" x="0"></rect>
 <path fill="black" d="M0,0L3,0L3,3L0,3L0,0M6,0L9,0L9,3L6,3L6,0M3,3L6,3L6,6L3,6L3,3M9,3L12,3L12,6L9,6L9,3"></path>
 <path fill="black" d="M0,6L3,6L3,9L0,9L0,6M6,6L9,6L9,9L6,9L6,6M3,9L6,9L6,12L3,12L3,9M9,9L12,9L12,12L9,12L9,9"></path>
 </pattern>
 <pattern y="0" x="0" height="12" width="12" patternUnits="userSpaceOnUse" id="cp8pattern">
 <rect class="cp8color" height="12" width="12" y="0" x="0"></rect>
 <path fill="white" d="M0,0L3,0L3,3L0,3L0,0M6,0L9,0L9,3L6,3L6,0M3,3L6,3L6,6L3,6L3,3M9,3L12,3L12,6L9,6L9,3"></path>
 <path fill="white" d="M0,6L3,6L3,9L0,9L0,6M6,6L9,6L9,9L6,9L6,6M3,9L6,9L6,12L3,12L3,9M9,9L12,9L12,12L9,12L9,9"></path>
 </pattern>
 <pattern y="0" x="0" height="12" width="12" patternUnits="userSpaceOnUse" id="cp9pattern">
 <rect class="cp9color" height="12" width="12" y="0" x="0"></rect>
 <path fill="black" d="M0,0L3,0L3,3L0,3L0,0M6,0L9,0L9,3L6,3L6,0M3,3L6,3L6,6L3,6L3,3M9,3L12,3L12,6L9,6L9,3"></path>
 <path fill="black" d="M0,6L3,6L3,9L0,9L0,6M6,6L9,6L9,9L6,9L6,6M3,9L6,9L6,12L3,12L3,9M9,9L12,9L12,12L9,12L9,9"></path>
 </pattern>
 </defs>
 <rect height="100%" width="100%" y="0" x="0" class="grass" id="mainfill"></rect>
 <g id="paths"><path d="M372,12L372,12L456,12L456,24L480,24L480,36L492,36L492,48L504,48L504,60L516,60L516,72L528,72L528,84L540,84L540,108L552,108L552,132L564,132L564,156L576,156L576,180L588,180L588,204L600,204L600,240L612,240L612,276L624,276L624,312L636,312L636,348L648,348L648,384L660,384L660,420L672,420L672,468L684,468L684,492L696,492L696,528L708,528L708,564L720,564L720,600L732,600L732,636L744,636L744,672L756,672L756,708L768,708L768,744L780,744L780,780L792,780L792,816L804,816L804,852L816,852L816,888L828,888L828,924L840,924L840,960L852,960L852,996L864,996L864,1032L876,1032L876,1068L888,1068L888,1104L900,1104L900,1140L912,1140L912,1176L924,1176L924,1212L936,1212L936,1248L948,1248L948,1284L960,1284L960,1320L972,1320L972,1356L984,1356L984,1392L996,1392L996,1428L1008,1428L1008,1476L1020,1476L1020,1536L1032,1536L1032,1704L1044,1704L1044,2004L1032,2004L1032,2028L1020,2028L1020,2040L1008,2040L1008,2052L960,2052L960,2040L924,2040L924,2028L888,2028L888,2016L852,2016L852,2004L804,2004L804,1992L768,1992L768,1980L732,1980L732,1968L696,1968L696,1956L660,1956L660,1944L636,1944L636,1932L612,1932L612,1920L588,1920L588,1908L576,1908L576,1896L564,1896L564,1884L552,1884L552,1872L540,1872L540,1860L528,1860L528,1848L516,1848L516,1836L504,1836L504,1824L492,1824L492,1812L480,1812L480,1800L468,1800L468,1788L456,1788L456,1776L444,1776L444,1764L432,1764L432,1752L420,1752L420,1728L408,1728L408,1668L396,1668L396,1656L384,1656L384,1668L360,1668L360,1680L336,1680L336,1692L312,1692L312,1704L276,1704L276,1692L264,1692L264,1632L252,1632L252,1572L240,1572L240,1524L228,1524L228,1488L216,1488L216,1452L204,1452L204,1428L192,1428L192,1404L180,1404L180,1380L168,1380L168,1368L156,1368L156,1356L144,1356L144,1344L132,1344L132,1332L120,1332L120,1320L108,1320L108,1308L96,1308L96,1236L108,1236L108,1212L120,1212L120,1200L132,1200L132,1188L156,1188L156,1176L180,1176L180,1164L192,1164L192,1140L180,1140L180,1128L168,1128L168,1116L156,1116L156,1104L144,1104L144,1092L132,1092L132,1080L120,1080L120,1068L108,1068L108,1032L120,1032L120,1008L132,1008L132,996L144,996L144,984L168,984L168,972L180,972L180,948L168,948L168,888L180,888L180,876L192,876L192,864L204,864L204,816L192,816L192,780L180,780L180,744L168,744L168,708L156,708L156,672L84,672L84,660L72,660L72,648L60,648L60,348L72,348L72,300L84,300L84,264L96,264L96,240L108,240L108,228L132,228L132,216L168,216L168,204L228,204L228,108L240,108L240,96L312,96L312,84L324,84L324,48L336,48L336,36L348,36L348,24L372,24L372,12M408,60L408,60L396,60L396,72L384,72L384,84L372,84L372,132L360,132L360,144L312,144L312,156L288,156L288,228L276,228L276,240L264,240L264,252L204,252L204,264L180,264L180,276L168,276L168,288L156,288L156,372L144,372L144,336L132,336L132,360L120,360L120,408L108,408L108,648L180,648L180,660L192,660L192,696L204,696L204,732L216,732L216,672L204,672L204,648L192,648L192,636L144,636L144,624L132,624L132,612L120,612L120,420L132,420L132,372L144,372L144,420L132,420L132,492L144,492L144,588L132,588L132,600L144,600L144,612L156,612L156,624L204,624L204,636L216,636L216,660L228,660L228,744L216,744L216,768L228,768L228,804L240,804L240,876L228,876L228,900L216,900L216,936L228,936L228,984L216,984L216,996L204,996L204,1008L192,1008L192,1020L168,1020L168,1032L156,1032L156,1056L168,1056L168,1068L180,1068L180,1080L204,1080L204,1092L216,1092L216,1104L228,1104L228,1128L240,1128L240,1164L228,1164L228,1188L216,1188L216,1200L192,1200L192,1212L168,1212L168,1224L156,1224L156,1248L144,1248L144,1284L156,1284L156,1308L168,1308L168,1320L180,1320L180,1332L192,1332L192,1344L204,1344L204,1356L216,1356L216,1368L228,1368L228,1392L240,1392L240,1416L252,1416L252,1440L264,1440L264,1476L276,1476L276,1512L288,1512L288,1548L300,1548L300,1596L312,1596L312,1656L324,1656L324,1644L348,1644L348,1632L372,1632L372,1620L420,1620L420,1632L432,1632L432,1644L444,1644L444,1680L456,1680L456,1716L468,1716L468,1740L480,1740L480,1752L492,1752L492,1764L504,1764L504,1776L516,1776L516,1788L528,1788L528,1800L540,1800L540,1812L552,1812L552,1824L564,1824L564,1836L576,1836L576,1848L588,1848L588,1860L600,1860L600,1872L612,1872L612,1884L636,1884L636,1896L660,1896L660,1908L696,1908L696,1920L732,1920L732,1932L756,1932L756,1944L792,1944L792,1956L828,1956L828,1968L864,1968L864,1980L912,1980L912,1992L948,1992L948,2004L984,2004L984,1980L996,1980L996,1776L984,1776L984,1572L972,1572L972,1500L960,1500L960,1440L948,1440L948,1404L936,1404L936,1368L924,1368L924,1332L912,1332L912,1296L900,1296L900,1260L888,1260L888,1224L876,1224L876,1188L864,1188L864,1152L852,1152L852,1116L840,1116L840,1080L828,1080L828,1044L816,1044L816,1008L804,1008L804,972L792,972L792,936L780,936L780,900L768,900L768,864L756,864L756,828L744,828L744,792L732,792L732,756L720,756L720,720L708,720L708,684L696,684L696,648L684,648L684,612L672,612L672,576L660,576L660,540L648,540L648,504L636,504L636,468L624,468L624,432L612,432L612,396L600,396L600,360L588,360L588,324L576,324L576,288L564,288L564,252L552,252L552,228L540,228L540,204L528,204L528,180L516,180L516,156L504,156L504,132L492,132L492,120L480,120L480,108L468,108L468,96L456,96L456,84L444,84L444,72L432,72L432,60L408,60M216,1968L216,1968L252,1968L252,2004L264,2004L264,1992L300,1992L300,2004L264,2004L264,2016L252,2016L252,2064L216,2064L216,2052L204,2052L204,2064L132,2064L132,2040L156,2040L156,2052L192,2052L192,2040L204,2040L204,2028L144,2028L144,2016L132,2016L132,2004L144,2004L144,1992L216,1992L216,2016L204,2016L204,2028L216,2028L216,2052L228,2052L228,2028L240,2028L240,2016L228,2016L228,2004L240,2004L240,1992L228,1992L228,1980L216,1980L216,1968M480,1968L480,1968L516,1968L516,2052L528,2052L528,2064L504,2064L504,2052L492,2052L492,2064L444,2064L444,2052L432,2052L432,2028L420,2028L420,2016L432,2016L432,2004L456,2004L456,1992L492,1992L492,2004L504,2004L504,1980L480,1980L480,1968M168,2004L168,2004L156,2004L156,2016L192,2016L192,2004L168,2004M300,2004L300,2004L312,2004L312,2052L324,2052L324,2028L336,2028L336,2016L372,2016L372,2004L336,2004L336,1992L384,1992L384,2004L396,2004L396,2016L408,2016L408,2040L396,2040L396,2052L384,2052L384,2064L336,2064L336,2052L324,2052L324,2064L276,2064L276,2052L288,2052L288,2040L300,2040L300,2028L288,2028L288,2016L300,2016L300,2004M468,2004L468,2004L456,2004L456,2016L444,2016L444,2040L456,2040L456,2052L480,2052L480,2040L492,2040L492,2016L480,2016L480,2004L468,2004M552,1992L552,1992L600,1992L600,2004L612,2004L612,1992L660,1992L660,2004L648,2004L648,2028L660,2028L660,2016L672,2016L672,1992L708,1992L708,2004L696,2004L696,2040L684,2040L684,2016L672,2016L672,2040L684,2040L684,2064L672,2064L672,2052L660,2052L660,2064L636,2064L636,2052L648,2052L648,2040L636,2040L636,2016L624,2016L624,2004L612,2004L612,2016L624,2016L624,2040L612,2040L612,2052L600,2052L600,2064L552,2064L552,2052L540,2052L540,2040L528,2040L528,2028L540,2028L540,2004L552,2004L552,1992M576,2004L576,2004L564,2004L564,2016L552,2016L552,2040L564,2040L564,2052L588,2052L588,2040L600,2040L600,2016L588,2016L588,2004L576,2004M360,2028L360,2028L348,2028L348,2052L372,2052L372,2040L384,2040L384,2028L360,2028M396,2052L396,2052L408,2052L408,2064L396,2064Z" class="road"></path><path d="M300,96L300,96L312,96L312,156L300,156Z" class="cp1"></path><path d="M900,1272L900,1272L948,1272L948,1284L900,1284L900,1272M216,1968L216,1968L228,1968L228,1980L216,1980L216,1968M228,1980L228,1980L240,1980L240,1992L228,1992L228,1980M480,1968L480,1968L492,1968L492,1980L480,1980L480,1968M144,1992L144,1992L156,1992L156,2004L144,2004L144,1992M144,2004L144,2004L144,2016L132,2016L132,2004L144,2004M336,1992L336,1992L348,1992L348,2004L336,2004L336,1992M552,1992L552,1992L564,1992L564,2004L552,2004L552,1992M552,2004L552,2004L552,2016L540,2016L540,2004L552,2004M612,1992L612,1992L624,1992L624,2004L612,2004L612,1992M624,2004L624,2004L636,2004L636,2016L624,2016L624,2004M144,2016L144,2016L156,2016L156,2028L144,2028L144,2016M192,2004L192,2004L204,2004L204,2016L192,2016L192,2004M228,2004L228,2004L240,2004L240,2016L228,2016L228,2004M372,2004L372,2004L384,2004L384,2016L372,2016L372,2004M432,2004L432,2004L444,2004L444,2016L432,2016L432,2004M432,2016L432,2016L432,2028L420,2028L420,2016L432,2016M480,2004L480,2004L492,2004L492,2016L480,2016L480,2004M492,2016L492,2016L504,2016L504,2040L492,2040L492,2016M588,2004L588,2004L600,2004L600,2016L588,2016L588,2004M600,2016L600,2016L612,2016L612,2040L600,2040L600,2016M672,2004L672,2004L684,2004L684,2016L672,2016L672,2004M288,2016L288,2016L300,2016L300,2028L288,2028L288,2016M336,2016L336,2016L348,2016L348,2028L336,2028L336,2016M336,2028L336,2028L336,2052L324,2052L324,2028L336,2028M228,2028L228,2028L240,2028L240,2052L228,2052L228,2028M384,2028L384,2028L396,2028L396,2040L384,2040L384,2028M384,2040L384,2040L384,2052L372,2052L372,2040L384,2040M492,2040L492,2040L492,2052L480,2052L480,2040L492,2040M528,2028L528,2028L540,2028L540,2040L528,2040L528,2028M540,2040L540,2040L552,2040L552,2052L540,2052L540,2040M600,2040L600,2040L600,2052L588,2052L588,2040L600,2040M648,2028L648,2028L660,2028L660,2040L648,2040L648,2028M660,2040L660,2040L672,2040L672,2052L660,2052L660,2040M132,2040L132,2040L144,2040L144,2064L132,2064L132,2040M192,2040L192,2040L204,2040L204,2052L192,2052L192,2040M228,2052L228,2052L228,2064L216,2064L216,2052L228,2052M288,2040L288,2040L300,2040L300,2052L288,2052L288,2040M288,2052L288,2052L288,2064L276,2064L276,2052L288,2052M336,2052L336,2052L348,2052L348,2064L336,2064L336,2052M432,2040L432,2040L444,2040L444,2052L432,2052L432,2040M444,2052L444,2052L456,2052L456,2064L444,2064L444,2052M552,2052L552,2052L564,2052L564,2064L552,2064L552,2052M636,2052L636,2052L648,2052L648,2064L636,2064Z" class="cp2"></path><path d="M660,1908L660,1908L672,1908L672,1932L660,1932L660,1944L648,1944L648,1920L660,1920Z" class="cp3"></path><path d="M324,1644L324,1644L336,1644L336,1692L324,1692Z" class="cp4"></path><path d="M240,1524L240,1524L288,1524L288,1536L240,1536Z" class="cp5"></path><path d="M0,0L0,0L12,0L12,96L0,96L0,0M144,492L144,492L156,492L156,588L144,588L144,492M0,1956L0,1956L12,1956L12,1968L0,1968L0,1956M180,1956L180,1956L192,1956L192,1968L180,1968L180,1956M276,1956L276,1956L288,1956L288,1968L276,1968L276,1956M408,1956L408,1956L420,1956L420,1968L408,1968L408,1956M36,1968L36,1968L48,1968L48,1980L36,1980L36,1968M96,1968L96,1968L108,1968L108,1980L96,1980L96,1968M156,1968L156,1968L168,1968L168,1980L156,1980L156,1968M168,1980L168,1980L180,1980L180,1992L168,1992L168,1980M348,1968L348,1968L360,1968L360,1980L348,1980L348,1968M384,1968L384,1968L396,1968L396,1980L384,1980L384,1968M444,1968L444,1968L456,1968L456,1980L444,1980L444,1968M72,1980L72,1980L84,1980L84,1992L72,1992L72,1980M120,1980L120,1980L132,1980L132,1992L120,1992L120,1980M120,1992L120,1992L120,2004L108,2004L108,1992L120,1992M204,1980L204,1980L216,1980L216,1992L204,1992L204,1980M288,1980L288,1980L300,1980L300,1992L288,1992L288,1980M420,1980L420,1980L432,1980L432,1992L420,1992L420,1980M432,1992L432,1992L444,1992L444,2004L432,2004L432,1992M468,1980L468,1980L480,1980L480,1992L468,1992L468,1980M12,1992L12,1992L24,1992L24,2004L12,2004L12,1992M312,1992L312,1992L324,1992L324,2004L312,2004L312,1992M528,1992L528,1992L540,1992L540,2004L528,2004L528,1992M60,2004L60,2004L72,2004L72,2016L60,2016L60,2004M168,2004L168,2004L180,2004L180,2016L168,2016L168,2004M348,2004L348,2004L360,2004L360,2016L348,2016L348,2004M408,2004L408,2004L420,2004L420,2016L408,2016L408,2004M84,2016L84,2016L96,2016L96,2028L84,2028L84,2016M264,2016L264,2016L276,2016L276,2028L264,2028L264,2016M468,2016L468,2016L480,2016L480,2040L468,2040L468,2016M36,2028L36,2028L48,2028L48,2040L36,2040L36,2028M108,2028L108,2028L120,2028L120,2040L108,2040L108,2028M360,2028L360,2028L372,2028L372,2040L360,2040L360,2028M564,2028L564,2028L576,2028L576,2040L564,2040L564,2028M0,2040L0,2040L12,2040L12,2052L0,2052L0,2040M72,2040L72,2040L84,2040L84,2052L72,2052L72,2040M168,2040L168,2040L180,2040L180,2052L168,2052L168,2040M264,2040L264,2040L276,2040L276,2052L264,2052L264,2040M408,2040L408,2040L420,2040L420,2052L408,2052L408,2040M420,2052L420,2052L432,2052L432,2064L420,2064L420,2052M48,2052L48,2052L60,2052L60,2064L48,2064L48,2052M108,2052L108,2052L120,2052L120,2064L108,2064L108,2052M612,2052L612,2052L624,2052L624,2064L612,2064Z" class="parc"></path><path d="M252,72L252,72L300,72L300,96L240,96L240,84L252,84L252,72M372,84L372,84L384,84L384,96L408,96L408,132L396,132L396,144L360,144L360,132L372,132L372,84M216,132L216,132L228,132L228,204L168,204L168,216L132,216L132,204L156,204L156,192L168,192L168,180L180,180L180,168L204,168L204,156L216,156L216,132M288,156L288,156L324,156L324,216L312,216L312,228L300,228L300,240L276,240L276,228L288,228L288,156M132,216L132,216L132,228L120,228L120,216L132,216M48,600L48,600L60,600L60,648L72,648L72,660L84,660L84,672L48,672L48,660L36,660L36,612L48,612L48,600M120,612L120,612L132,612L132,624L144,624L144,636L120,636L120,612M156,612L156,612L228,612L228,624L240,624L240,732L228,732L228,660L216,660L216,636L204,636L204,624L156,624L156,612M216,924L216,924L228,924L228,936L216,936L216,924M228,936L228,936L240,936L240,948L252,948L252,972L240,972L240,984L228,984L228,936M228,984L228,984L228,996L216,996L216,984L228,984M120,984L120,984L144,984L144,996L132,996L132,1008L120,1008L120,1032L108,1032L108,1056L96,1056L96,1008L108,1008L108,996L120,996L120,984M204,1080L204,1080L228,1080L228,1092L240,1092L240,1104L252,1104L252,1152L240,1152L240,1128L228,1128L228,1104L216,1104L216,1092L204,1092L204,1080M108,1188L108,1188L132,1188L132,1200L120,1200L120,1212L108,1212L108,1236L96,1236L96,1296L84,1296L84,1284L72,1284L72,1272L60,1272L60,1224L72,1224L72,1212L84,1212L84,1200L108,1200L108,1188M372,1596L372,1596L420,1596L420,1608L432,1608L432,1632L420,1632L420,1620L372,1620L372,1632L348,1632L348,1620L360,1620L360,1608L372,1608L372,1596M252,1632L252,1632L264,1632L264,1692L276,1692L276,1716L264,1716L264,1704L252,1704L252,1632M396,1668L396,1668L408,1668L408,1740L396,1740L396,1728L372,1728L372,1680L396,1680L396,1668M1032,2004L1032,2004L1044,2004L1044,2052L1032,2052L1032,2064L936,2064L936,2052L912,2052L912,2040L888,2040L888,2028L864,2028L864,2016L888,2016L888,2028L924,2028L924,2040L960,2040L960,2052L1008,2052L1008,2040L1020,2040L1020,2028L1032,2028Z" class="sand"></path><path d="M60,528L60,528L84,528L84,540L60,540L60,528M84,540L84,540L108,540L108,552L84,552L84,540M84,552L84,552L84,564L60,564L60,552L84,552M84,564L84,564L108,564L108,576L84,576Z" class="start"></path><path d="M60,576L60,576L108,576L108,588L60,588Z" class="finish"></path></g>
 <rect opacity=".3" fill="url(#grid)" height="100%" width="100%" y="0" x="0"></rect>
</svg>