<svg xmlns:xlink="http://www.w3.org/1999/xlink" xmlns="http://www.w3.org/2000/svg" height="528" width="444" id="mapSvgView" version="1.1" style="width: 444px; height: 528px;" viewBox="0 0 444 528">
 <defs>
 <pattern y="0" x="0" height="24" width="24" patternUnits="userSpaceOnUse" id="grassPattern">
 <rect class="grasscolor" height="24" width="24" y="0" x="0"></rect>
 <rect class="grassspeclecolor" height="1" width="1" x="1" y="5"></rect>
 <rect class="grassspeclecolor" height="1" width="1" x="1" y="5"></rect>
 <rect class="grassspeclecolor" height="1" width="1" x="3" y="5"></rect>
 <rect class="grassspeclecolor" height="1" width="1" x="6" y="7"></rect>
 <rect class="grassspeclecolor" height="1" width="1" x="6" y="17"></rect>
 <rect class="grassspeclecolor" height="1" width="1" x="8" y="21"></rect>
 <rect class="grassspeclecolor" height="1" width="1" x="9" y="2"></rect>
 <rect class="grassspeclecolor" height="1" width="1" x="12" y="4"></rect>
 <rect class="grassspeclecolor" height="1" width="1" x="13" y="15"></rect>
 <rect class="grassspeclecolor" height="1" width="1" x="14" y="4"></rect>
 <rect class="grassspeclecolor" height="1" width="1" x="14" y="19"></rect>
 <rect class="grassspeclecolor" height="1" width="1" x="17" y="7"></rect>
 <rect class="grassspeclecolor" height="1" width="1" x="17" y="12"></rect>
 <rect class="grassspeclecolor" height="1" width="1" x="18" y="23"></rect>
 <rect class="grassspeclecolor" height="1" width="1" x="21" y="16"></rect>
 <rect class="grassspeclecolor" height="1" width="1" x="23" y="12"></rect>
 </pattern>
 <pattern y="0" x="0" height="24" width="24" patternUnits="userSpaceOnUse" id="roadPattern">
 <rect class="roadcolor" height="24" width="24" y="0" x="0"></rect>
 <rect class="roadspeclecolor" height="1" width="1" x="1" y="5"></rect>
 <rect class="roadspeclecolor" height="1" width="1" x="1" y="5"></rect>
 <rect class="roadspeclecolor" height="1" width="1" x="3" y="5"></rect>
 <rect class="roadspeclecolor" height="1" width="1" x="6" y="7"></rect>
 <rect class="roadspeclecolor" height="1" width="1" x="6" y="17"></rect>
 <rect class="roadspeclecolor" height="1" width="1" x="8" y="21"></rect>
 <rect class="roadspeclecolor" height="1" width="1" x="9" y="2"></rect>
 <rect class="roadspeclecolor" height="1" width="1" x="12" y="4"></rect>
 <rect class="roadspeclecolor" height="1" width="1" x="13" y="15"></rect>
 <rect class="roadspeclecolor" height="1" width="1" x="14" y="4"></rect>
 <rect class="roadspeclecolor" height="1" width="1" x="14" y="19"></rect>
 <rect class="roadspeclecolor" height="1" width="1" x="17" y="7"></rect>
 <rect class="roadspeclecolor" height="1" width="1" x="17" y="12"></rect>
 <rect class="roadspeclecolor" height="1" width="1" x="18" y="23"></rect>
 <rect class="roadspeclecolor" height="1" width="1" x="21" y="16"></rect>
 <rect class="roadspeclecolor" height="1" width="1" x="23" y="12"></rect>
 </pattern>
 <pattern y="0" x="0" height="12" width="12" patternUnits="userSpaceOnUse" id="grid">
 <line stroke-width="1" stroke="black" y2="12" x2="12" y1="0" x1="12"></line>
 <line stroke-width="1" stroke="black" y2="12" x2="12" y1="12" x1="0"></line>
 </pattern>
 <pattern y="0" x="0" height="12" width="12" patternUnits="userSpaceOnUse" id="finishPattern">
 <rect fill="black" height="12" width="12" y="0" x="0"></rect>
 <path fill="white" d="M0,0L3,0L3,3L0,3L0,0M6,0L9,0L9,3L6,3L6,0M3,3L6,3L6,6L3,6L3,3M9,3L12,3L12,6L9,6L9,3"></path>
 <path fill="white" d="M0,6L3,6L3,9L0,9L0,6M6,6L9,6L9,9L6,9L6,6M3,9L6,9L6,12L3,12L3,9M9,9L12,9L12,12L9,12L9,9"></path>
 </pattern>
 <pattern y="0" x="0" height="12" width="12" patternUnits="userSpaceOnUse" id="startPattern">
 <rect fill="rgb(100,100,100)" height="12" width="12" y="0" x="0"></rect>
 <rect stroke-width="1" stroke="rgb(200,200,200)" fill="none" height="5" width="5" y="3.5" x="3.5"></rect>
 </pattern>
 <pattern y="0" x="0" height="12" width="12" patternUnits="userSpaceOnUse" id="cp1pattern">
 <rect class="cp1color" height="12" width="12" y="0" x="0"></rect>
 <path fill="black" d="M0,0L3,0L3,3L0,3L0,0M6,0L9,0L9,3L6,3L6,0M3,3L6,3L6,6L3,6L3,3M9,3L12,3L12,6L9,6L9,3"></path>
 <path fill="black" d="M0,6L3,6L3,9L0,9L0,6M6,6L9,6L9,9L6,9L6,6M3,9L6,9L6,12L3,12L3,9M9,9L12,9L12,12L9,12L9,9"></path>
 </pattern>
 <pattern y="0" x="0" height="12" width="12" patternUnits="userSpaceOnUse" id="cp2pattern">
 <rect class="cp2color" height="12" width="12" y="0" x="0"></rect>
 <path fill="white" d="M0,0L3,0L3,3L0,3L0,0M6,0L9,0L9,3L6,3L6,0M3,3L6,3L6,6L3,6L3,3M9,3L12,3L12,6L9,6L9,3"></path>
 <path fill="white" d="M0,6L3,6L3,9L0,9L0,6M6,6L9,6L9,9L6,9L6,6M3,9L6,9L6,12L3,12L3,9M9,9L12,9L12,12L9,12L9,9"></path>
 </pattern>
 <pattern y="0" x="0" height="12" width="12" patternUnits="userSpaceOnUse" id="cp3pattern">
 <rect class="cp3color" height="12" width="12" y="0" x="0"></rect>
 <path fill="black" d="M0,0L3,0L3,3L0,3L0,0M6,0L9,0L9,3L6,3L6,0M3,3L6,3L6,6L3,6L3,3M9,3L12,3L12,6L9,6L9,3"></path>
 <path fill="black" d="M0,6L3,6L3,9L0,9L0,6M6,6L9,6L9,9L6,9L6,6M3,9L6,9L6,12L3,12L3,9M9,9L12,9L12,12L9,12L9,9"></path>
 </pattern>
 <pattern y="0" x="0" height="12" width="12" patternUnits="userSpaceOnUse" id="cp4pattern">
 <rect class="cp4color" height="12" width="12" y="0" x="0"></rect>
 <path fill="white" d="M0,0L3,0L3,3L0,3L0,0M6,0L9,0L9,3L6,3L6,0M3,3L6,3L6,6L3,6L3,3M9,3L12,3L12,6L9,6L9,3"></path>
 <path fill="white" d="M0,6L3,6L3,9L0,9L0,6M6,6L9,6L9,9L6,9L6,6M3,9L6,9L6,12L3,12L3,9M9,9L12,9L12,12L9,12L9,9"></path>
 </pattern>
 <pattern y="0" x="0" height="12" width="12" patternUnits="userSpaceOnUse" id="cp5pattern">
 <rect class="cp5color" height="12" width="12" y="0" x="0"></rect>
 <path fill="black" d="M0,0L3,0L3,3L0,3L0,0M6,0L9,0L9,3L6,3L6,0M3,3L6,3L6,6L3,6L3,3M9,3L12,3L12,6L9,6L9,3"></path>
 <path fill="black" d="M0,6L3,6L3,9L0,9L0,6M6,6L9,6L9,9L6,9L6,6M3,9L6,9L6,12L3,12L3,9M9,9L12,9L12,12L9,12L9,9"></path>
 </pattern>
 <pattern y="0" x="0" height="12" width="12" patternUnits="userSpaceOnUse" id="cp6pattern">
 <rect class="cp6color" height="12" width="12" y="0" x="0"></rect>
 <path fill="white" d="M0,0L3,0L3,3L0,3L0,0M6,0L9,0L9,3L6,3L6,0M3,3L6,3L6,6L3,6L3,3M9,3L12,3L12,6L9,6L9,3"></path>
 <path fill="white" d="M0,6L3,6L3,9L0,9L0,6M6,6L9,6L9,9L6,9L6,6M3,9L6,9L6,12L3,12L3,9M9,9L12,9L12,12L9,12L9,9"></path>
 </pattern>
 <pattern y="0" x="0" height="12" width="12" patternUnits="userSpaceOnUse" id="cp7pattern">
 <rect class="cp7color" height="12" width="12" y="0" x="0"></rect>
 <path fill="black" d="M0,0L3,0L3,3L0,3L0,0M6,0L9,0L9,3L6,3L6,0M3,3L6,3L6,6L3,6L3,3M9,3L12,3L12,6L9,6L9,3"></path>
 <path fill="black" d="M0,6L3,6L3,9L0,9L0,6M6,6L9,6L9,9L6,9L6,6M3,9L6,9L6,12L3,12L3,9M9,9L12,9L12,12L9,12L9,9"></path>
 </pattern>
 <pattern y="0" x="0" height="12" width="12" patternUnits="userSpaceOnUse" id="cp8pattern">
 <rect class="cp8color" height="12" width="12" y="0" x="0"></rect>
 <path fill="white" d="M0,0L3,0L3,3L0,3L0,0M6,0L9,0L9,3L6,3L6,0M3,3L6,3L6,6L3,6L3,3M9,3L12,3L12,6L9,6L9,3"></path>
 <path fill="white" d="M0,6L3,6L3,9L0,9L0,6M6,6L9,6L9,9L6,9L6,6M3,9L6,9L6,12L3,12L3,9M9,9L12,9L12,12L9,12L9,9"></path>
 </pattern>
 <pattern y="0" x="0" height="12" width="12" patternUnits="userSpaceOnUse" id="cp9pattern">
 <rect class="cp9color" height="12" width="12" y="0" x="0"></rect>
 <path fill="black" d="M0,0L3,0L3,3L0,3L0,0M6,0L9,0L9,3L6,3L6,0M3,3L6,3L6,6L3,6L3,3M9,3L12,3L12,6L9,6L9,3"></path>
 <path fill="black" d="M0,6L3,6L3,9L0,9L0,6M6,6L9,6L9,9L6,9L6,6M3,9L6,9L6,12L3,12L3,9M9,9L12,9L12,12L9,12L9,9"></path>
 </pattern>
 </defs>
 <rect height="100%" width="100%" y="0" x="0" class="grass" id="mainfill"></rect>
 <g id="paths"><path d="M168,24L168,24L276,24L276,36L336,36L336,48L348,48L348,60L372,60L372,72L384,72L384,84L396,84L396,96L408,96L408,108L420,108L420,144L408,144L408,120L396,120L396,108L384,108L384,96L372,96L372,84L348,84L348,72L324,72L324,60L252,60L252,48L192,48L192,60L120,60L120,72L96,72L96,84L72,84L72,96L60,96L60,108L48,108L48,120L36,120L36,144L24,144L24,108L36,108L36,96L48,96L48,84L60,84L60,72L72,72L72,60L96,60L96,48L108,48L108,36L168,36L168,24M180,96L180,96L264,96L264,108L312,108L312,120L336,120L336,132L360,132L360,156L348,156L348,144L312,144L312,132L288,132L288,120L156,120L156,132L132,132L132,144L96,144L96,156L84,156L84,132L108,132L108,120L132,120L132,108L180,108L180,96M156,132L156,132L288,132L288,144L276,144L276,156L264,156L264,144L180,144L180,156L168,156L168,144L156,144L156,132M36,144L36,144L48,144L48,156L36,156L36,144M156,144L156,144L156,156L144,156L144,144L156,144M288,144L288,144L300,144L300,156L288,156L288,144M408,144L408,144L408,156L396,156L396,144L408,144M48,156L48,156L60,156L60,168L48,168L48,156M84,156L84,156L84,168L72,168L72,156L84,156M144,156L144,156L144,168L132,168L132,180L120,180L120,156L144,156M180,156L180,156L192,156L192,180L180,180L180,156M264,156L264,156L264,180L252,180L252,156L264,156M300,156L300,156L324,156L324,180L312,180L312,168L300,168L300,156M360,156L360,156L372,156L372,168L360,168L360,156M396,156L396,156L396,168L384,168L384,156L396,156M60,168L60,168L72,168L72,180L60,180L60,168M372,168L372,168L384,168L384,180L372,180L372,168M72,180L72,180L84,180L84,192L72,192L72,180M60,180L60,180L60,192L48,192L48,180L60,180M132,180L132,180L144,180L144,192L132,192L132,180M180,180L180,180L180,192L168,192L168,180L180,180M264,180L264,180L276,180L276,192L264,192L264,180M312,180L312,180L312,192L300,192L300,180L312,180M384,180L384,180L396,180L396,192L384,192L384,180M372,180L372,180L372,192L360,192L360,180L372,180M48,192L48,192L48,204L36,204L36,192L48,192M84,192L84,192L96,192L96,204L108,204L108,228L120,228L120,252L132,252L132,276L144,276L144,312L156,312L156,336L168,336L168,360L180,360L180,396L192,396L192,432L180,432L180,408L168,408L168,372L156,372L156,348L144,348L144,324L132,324L132,300L120,300L120,276L108,276L108,240L96,240L96,216L84,216L84,192M144,192L144,192L168,192L168,204L144,204L144,192M276,192L276,192L300,192L300,204L276,204L276,192M360,192L360,192L360,216L348,216L348,240L336,240L336,276L324,276L324,300L312,300L312,324L300,324L300,348L288,348L288,372L276,372L276,408L264,408L264,432L252,432L252,396L264,396L264,360L276,360L276,336L288,336L288,312L300,312L300,276L312,276L312,252L324,252L324,228L336,228L336,204L348,204L348,192L360,192M396,192L396,192L408,192L408,204L396,204L396,192M36,204L36,204L36,228L48,228L48,240L60,240L60,276L72,276L72,300L84,300L84,324L96,324L96,348L108,348L108,396L120,396L120,420L132,420L132,444L144,444L144,468L132,468L132,456L120,456L120,432L108,432L108,420L96,420L96,384L84,384L84,360L72,360L72,348L60,348L60,324L48,324L48,276L36,276L36,240L24,240L24,204L36,204M408,204L408,204L420,204L420,240L408,240L408,276L396,276L396,324L384,324L384,348L372,348L372,360L360,360L360,384L348,384L348,420L336,420L336,432L324,432L324,456L312,456L312,468L300,468L300,444L312,444L312,420L324,420L324,396L336,396L336,348L348,348L348,324L360,324L360,300L372,300L372,276L384,276L384,240L396,240L396,228L408,228L408,204M192,432L192,432L204,432L204,444L192,444L192,432M252,432L252,432L252,444L240,444L240,432L252,432M204,444L204,444L216,444L216,456L204,456L204,444M240,444L240,444L240,456L228,456L228,444L240,444M216,456L216,456L228,456L228,468L216,468L216,456M144,468L144,468L156,468L156,480L144,480L144,468M228,468L228,468L240,468L240,480L228,480L228,468M216,468L216,468L216,480L204,480L204,468L216,468M300,468L300,468L300,480L288,480L288,468L300,468M156,480L156,480L168,480L168,492L156,492L156,480M204,480L204,480L204,492L192,492L192,480L204,480M240,480L240,480L252,480L252,492L240,492L240,480M288,480L288,480L288,492L276,492L276,480L288,480M168,492L168,492L192,492L192,504L168,504L168,492M252,492L252,492L276,492L276,504L252,504Z" class="road"></path><path d="M216,108L216,108L228,108L228,120L216,120Z" class="cp3"></path><path d="M132,276L132,276L144,276L144,288L132,288Z" class="cp5"></path><path d="M300,276L300,276L312,276L312,288L300,288Z" class="cp7"></path><path d="M0,0L0,0L12,0L12,72L0,72Z" class="parc"></path><path d="M108,36L108,36L120,36L120,48L108,48L108,36M324,36L324,36L336,36L336,48L324,48L324,36M96,360L96,360L108,360L108,372L96,372L96,360M336,360L336,360L348,360L348,372L336,372Z" class="finish"></path><path d="M180,36L180,36L192,36L192,60L180,60L180,36M252,36L252,36L264,36L264,60L252,60L252,36M96,372L96,372L108,372L108,384L96,384L96,372M336,372L336,372L348,372L348,384L336,384Z" class="start"></path></g>
 <rect opacity=".3" fill="url(#grid)" height="100%" width="100%" y="0" x="0"></rect>
</svg>