<svg xmlns="http://www.w3.org/2000/svg" xmlns:xlink="http://www.w3.org/1999/xlink" version="1.1" id="mapSvgView" width="1440" height="888"> <rect id="mainfill" class="road" x="0" y="0" width="100%" height="100%"></rect> <g id="paths"><path d="M36,816L36,816L72,816L72,852L36,852Z" class="cp1"></path><path d="M1356,636L1356,636L1392,636L1392,672L1356,672Z" class="cp2"></path><path d="M828,384L828,384L864,384L864,420L828,420Z" class="cp3"></path><path d="M588,36L588,36L624,36L624,72L588,72Z" class="cp4"></path><path d="M0,0L0,0L12,0L12,96L0,96Z" class="parc"></path><path d="M12,0L12,0L1440,0L1440,888L0,888L0,96L12,96L12,0M36,24L36,24L24,24L24,120L288,120L288,144L24,144L24,576L216,576L216,360L336,360L336,384L240,384L240,600L24,600L24,720L396,720L396,744L24,744L24,864L192,864L192,780L216,780L216,864L768,864L768,660L660,660L660,504L528,504L528,288L552,288L552,480L684,480L684,636L768,636L768,552L792,552L792,864L1416,864L1416,624L1332,624L1332,792L900,792L900,540L924,540L924,768L1308,768L1308,420L1332,420L1332,600L1416,600L1416,264L1200,264L1200,240L1416,240L1416,24L1236,24L1236,48L1212,48L1212,24L1020,24L1020,48L996,48L996,24L576,24L576,84L828,84L828,108L552,108L552,24L444,24L444,180L900,180L900,60L924,60L924,84L1092,84L1092,48L1116,48L1116,84L1368,84L1368,204L1200,204L1200,180L1344,180L1344,108L1116,108L1116,336L1332,336L1332,360L1116,360L1116,708L996,708L996,540L1020,540L1020,684L1092,684L1092,276L1020,276L1020,456L996,456L996,252L1092,252L1092,204L1008,204L1008,180L1092,180L1092,108L924,108L924,204L792,204L792,432L900,432L900,264L924,264L924,456L768,456L768,324L684,324L684,408L660,408L660,300L768,300L768,204L444,204L444,576L552,576L552,720L648,720L648,744L504,744L504,720L528,720L528,600L312,600L312,456L336,456L336,576L420,576L420,276L132,276L132,456L108,456L108,252L420,252L420,24L36,24M1200,420L1200,420L1224,420L1224,708L1200,708Z" class="mud"></path><path d="M24,24L24,24L36,24L36,120L24,120Z" class="start"></path><path d="M444,24L444,24L552,24L552,36L444,36Z" class="finish"></path></g></svg>