<svg xmlns="http://www.w3.org/2000/svg" xmlns:xlink="http://www.w3.org/1999/xlink" version="1.1" id="mapSvgView" width="720" height="300"> <rect id="mainfill" class="grass" x="0" y="0" width="100%" height="100%"></rect> <g id="paths"><path d="M612,132L612,132L684,132L684,144L612,144Z" class="cp1"></path><path d="M288,192L288,192L336,192L336,204L288,204Z" class="cp2"></path><path d="M60,12L60,12L144,12L144,72L120,72L120,84L96,84L96,96L84,96L84,108L72,108L72,132L84,132L84,144L108,144L108,168L132,168L132,156L156,156L156,144L240,144L240,156L288,156L288,168L312,168L312,180L324,180L324,192L264,192L264,180L228,180L228,168L180,168L180,180L144,180L144,192L108,192L108,204L60,204L60,192L36,192L36,180L24,180L24,168L12,168L12,84L24,84L24,72L12,72L12,60L24,60L24,36L36,36L36,24L60,24L60,12M168,12L168,12L624,12L624,24L660,24L660,36L684,36L684,48L708,48L708,96L696,96L696,132L612,132L612,120L600,120L600,108L612,108L612,84L588,84L588,72L168,72L168,12M408,84L408,84L528,84L528,96L540,96L540,108L564,108L564,120L576,120L576,132L588,132L588,144L684,144L684,168L672,168L672,180L660,180L660,192L564,192L564,180L540,180L540,156L528,156L528,144L504,144L504,132L468,132L468,120L444,120L444,144L432,144L432,168L444,168L444,180L468,180L468,192L480,192L480,228L468,228L468,240L444,240L444,252L420,252L420,264L384,264L384,276L108,276L108,264L84,264L84,240L108,240L108,216L132,216L132,204L156,204L156,192L216,192L216,204L324,204L324,216L312,216L312,228L288,228L288,240L216,240L216,228L156,228L156,240L132,240L132,252L312,252L312,240L348,240L348,216L384,216L384,204L396,204L396,192L384,192L384,180L372,180L372,168L360,168L360,156L348,156L348,120L372,120L372,108L384,108L384,96L408,96Z" class="road"></path><path d="M144,12L144,12L156,12L156,72L144,72Z" class="finish"></path><path d="M156,12L156,12L168,12L168,72L156,72Z" class="start"></path></g></svg>