<svg xmlns="http://www.w3.org/2000/svg" xmlns:xlink="http://www.w3.org/1999/xlink" version="1.1" id="mapSvgView" width="684" height="528"> <rect id="mainfill" class="grass" x="0" y="0" width="100%" height="100%"></rect> <g id="paths"><path d="M0,0L0,0L12,0L12,96L0,96Z" class="parc"></path><path d="M24,12L24,12L36,12L36,96L24,96L24,12M312,12L312,12L360,12L360,84L312,84L312,72L276,72L276,60L168,60L168,72L144,72L144,84L132,84L132,96L156,96L156,108L192,108L192,120L240,120L240,132L528,132L528,120L576,120L576,108L612,108L612,96L636,96L636,84L624,84L624,72L600,72L600,60L492,60L492,72L456,72L456,84L408,84L408,12L456,12L456,24L600,24L600,36L624,36L624,48L648,48L648,60L660,60L660,72L672,72L672,108L660,108L660,120L636,120L636,132L600,132L600,144L504,144L504,156L600,156L600,168L636,168L636,180L660,180L660,192L672,192L672,228L660,228L660,240L636,240L636,252L588,252L588,264L516,264L516,276L468,276L468,288L432,288L432,300L420,300L420,312L408,312L408,360L396,360L396,384L408,384L408,444L396,444L396,456L372,456L372,468L348,468L348,480L312,480L312,492L264,492L264,504L216,504L216,516L84,516L84,504L60,504L60,492L36,492L36,480L24,480L24,468L12,468L12,228L24,228L24,108L36,108L36,312L48,312L48,408L60,408L60,432L72,432L72,468L108,468L108,480L132,480L132,492L180,492L180,480L252,480L252,468L300,468L300,456L324,456L324,444L348,444L348,432L360,432L360,384L372,384L372,360L360,360L360,312L348,312L348,300L336,300L336,288L300,288L300,276L252,276L252,264L180,264L180,252L132,252L132,240L108,240L108,228L96,228L96,192L108,192L108,180L132,180L132,168L168,168L168,156L264,156L264,144L168,144L168,132L132,132L132,120L108,120L108,108L96,108L96,72L108,72L108,60L120,60L120,48L144,48L144,36L168,36L168,24L312,24L312,12M372,144L372,144L360,144L360,156L408,156L408,144L372,144M312,156L312,156L300,156L300,168L240,168L240,180L168,180L168,192L144,192L144,228L168,228L168,240L192,240L192,228L216,228L216,216L240,216L240,204L264,204L264,192L288,192L288,180L336,180L336,168L312,168L312,156M468,156L468,156L456,156L456,168L432,168L432,180L480,180L480,192L504,192L504,204L528,204L528,216L552,216L552,228L576,228L576,240L600,240L600,228L624,228L624,192L600,192L600,180L528,180L528,168L468,168L468,156M384,180L384,180L372,180L372,192L336,192L336,204L300,204L300,216L276,216L276,228L240,228L240,240L216,240L216,252L552,252L552,240L528,240L528,228L492,228L492,216L468,216L468,204L432,204L432,192L396,192L396,180L384,180M372,264L372,264L360,264L360,276L372,276L372,288L396,288L396,276L408,276L408,264Z" class="road"></path><path d="M360,24L360,24L372,24L372,72L360,72L360,24M396,24L396,24L408,24L408,72L396,72Z" class="start"></path><path d="M24,96L24,96L36,96L36,108L24,108Z" class="finish"></path></g></svg>