<svg xmlns:xlink="http://www.w3.org/1999/xlink" xmlns="http://www.w3.org/2000/svg" height="612" width="612" id="mapSvgView" version="1.1" style="width: 612px; height: 612px;" viewBox="0 0 612 612">
 <defs>
 <pattern y="0" x="0" height="24" width="24" patternUnits="userSpaceOnUse" id="grassPattern">
 <rect class="grasscolor" height="24" width="24" y="0" x="0"></rect>
 <rect class="grassspeclecolor" height="1" width="1" x="1" y="5"></rect>
 <rect class="grassspeclecolor" height="1" width="1" x="1" y="5"></rect>
 <rect class="grassspeclecolor" height="1" width="1" x="3" y="5"></rect>
 <rect class="grassspeclecolor" height="1" width="1" x="6" y="7"></rect>
 <rect class="grassspeclecolor" height="1" width="1" x="6" y="17"></rect>
 <rect class="grassspeclecolor" height="1" width="1" x="8" y="21"></rect>
 <rect class="grassspeclecolor" height="1" width="1" x="9" y="2"></rect>
 <rect class="grassspeclecolor" height="1" width="1" x="12" y="4"></rect>
 <rect class="grassspeclecolor" height="1" width="1" x="13" y="15"></rect>
 <rect class="grassspeclecolor" height="1" width="1" x="14" y="4"></rect>
 <rect class="grassspeclecolor" height="1" width="1" x="14" y="19"></rect>
 <rect class="grassspeclecolor" height="1" width="1" x="17" y="7"></rect>
 <rect class="grassspeclecolor" height="1" width="1" x="17" y="12"></rect>
 <rect class="grassspeclecolor" height="1" width="1" x="18" y="23"></rect>
 <rect class="grassspeclecolor" height="1" width="1" x="21" y="16"></rect>
 <rect class="grassspeclecolor" height="1" width="1" x="23" y="12"></rect>
 </pattern>
 <pattern y="0" x="0" height="24" width="24" patternUnits="userSpaceOnUse" id="roadPattern">
 <rect class="roadcolor" height="24" width="24" y="0" x="0"></rect>
 <rect class="roadspeclecolor" height="1" width="1" x="1" y="5"></rect>
 <rect class="roadspeclecolor" height="1" width="1" x="1" y="5"></rect>
 <rect class="roadspeclecolor" height="1" width="1" x="3" y="5"></rect>
 <rect class="roadspeclecolor" height="1" width="1" x="6" y="7"></rect>
 <rect class="roadspeclecolor" height="1" width="1" x="6" y="17"></rect>
 <rect class="roadspeclecolor" height="1" width="1" x="8" y="21"></rect>
 <rect class="roadspeclecolor" height="1" width="1" x="9" y="2"></rect>
 <rect class="roadspeclecolor" height="1" width="1" x="12" y="4"></rect>
 <rect class="roadspeclecolor" height="1" width="1" x="13" y="15"></rect>
 <rect class="roadspeclecolor" height="1" width="1" x="14" y="4"></rect>
 <rect class="roadspeclecolor" height="1" width="1" x="14" y="19"></rect>
 <rect class="roadspeclecolor" height="1" width="1" x="17" y="7"></rect>
 <rect class="roadspeclecolor" height="1" width="1" x="17" y="12"></rect>
 <rect class="roadspeclecolor" height="1" width="1" x="18" y="23"></rect>
 <rect class="roadspeclecolor" height="1" width="1" x="21" y="16"></rect>
 <rect class="roadspeclecolor" height="1" width="1" x="23" y="12"></rect>
 </pattern>
 <pattern y="0" x="0" height="12" width="12" patternUnits="userSpaceOnUse" id="grid">
 <line stroke-width="1" stroke="black" y2="12" x2="12" y1="0" x1="12"></line>
 <line stroke-width="1" stroke="black" y2="12" x2="12" y1="12" x1="0"></line>
 </pattern>
 <pattern y="0" x="0" height="12" width="12" patternUnits="userSpaceOnUse" id="finishPattern">
 <rect fill="black" height="12" width="12" y="0" x="0"></rect>
 <path fill="white" d="M0,0L3,0L3,3L0,3L0,0M6,0L9,0L9,3L6,3L6,0M3,3L6,3L6,6L3,6L3,3M9,3L12,3L12,6L9,6L9,3"></path>
 <path fill="white" d="M0,6L3,6L3,9L0,9L0,6M6,6L9,6L9,9L6,9L6,6M3,9L6,9L6,12L3,12L3,9M9,9L12,9L12,12L9,12L9,9"></path>
 </pattern>
 <pattern y="0" x="0" height="12" width="12" patternUnits="userSpaceOnUse" id="startPattern">
 <rect fill="rgb(100,100,100)" height="12" width="12" y="0" x="0"></rect>
 <rect stroke-width="1" stroke="rgb(200,200,200)" fill="none" height="5" width="5" y="3.5" x="3.5"></rect>
 </pattern>
 <pattern y="0" x="0" height="12" width="12" patternUnits="userSpaceOnUse" id="cp1pattern">
 <rect class="cp1color" height="12" width="12" y="0" x="0"></rect>
 <path fill="black" d="M0,0L3,0L3,3L0,3L0,0M6,0L9,0L9,3L6,3L6,0M3,3L6,3L6,6L3,6L3,3M9,3L12,3L12,6L9,6L9,3"></path>
 <path fill="black" d="M0,6L3,6L3,9L0,9L0,6M6,6L9,6L9,9L6,9L6,6M3,9L6,9L6,12L3,12L3,9M9,9L12,9L12,12L9,12L9,9"></path>
 </pattern>
 <pattern y="0" x="0" height="12" width="12" patternUnits="userSpaceOnUse" id="cp2pattern">
 <rect class="cp2color" height="12" width="12" y="0" x="0"></rect>
 <path fill="white" d="M0,0L3,0L3,3L0,3L0,0M6,0L9,0L9,3L6,3L6,0M3,3L6,3L6,6L3,6L3,3M9,3L12,3L12,6L9,6L9,3"></path>
 <path fill="white" d="M0,6L3,6L3,9L0,9L0,6M6,6L9,6L9,9L6,9L6,6M3,9L6,9L6,12L3,12L3,9M9,9L12,9L12,12L9,12L9,9"></path>
 </pattern>
 <pattern y="0" x="0" height="12" width="12" patternUnits="userSpaceOnUse" id="cp3pattern">
 <rect class="cp3color" height="12" width="12" y="0" x="0"></rect>
 <path fill="black" d="M0,0L3,0L3,3L0,3L0,0M6,0L9,0L9,3L6,3L6,0M3,3L6,3L6,6L3,6L3,3M9,3L12,3L12,6L9,6L9,3"></path>
 <path fill="black" d="M0,6L3,6L3,9L0,9L0,6M6,6L9,6L9,9L6,9L6,6M3,9L6,9L6,12L3,12L3,9M9,9L12,9L12,12L9,12L9,9"></path>
 </pattern>
 <pattern y="0" x="0" height="12" width="12" patternUnits="userSpaceOnUse" id="cp4pattern">
 <rect class="cp4color" height="12" width="12" y="0" x="0"></rect>
 <path fill="white" d="M0,0L3,0L3,3L0,3L0,0M6,0L9,0L9,3L6,3L6,0M3,3L6,3L6,6L3,6L3,3M9,3L12,3L12,6L9,6L9,3"></path>
 <path fill="white" d="M0,6L3,6L3,9L0,9L0,6M6,6L9,6L9,9L6,9L6,6M3,9L6,9L6,12L3,12L3,9M9,9L12,9L12,12L9,12L9,9"></path>
 </pattern>
 <pattern y="0" x="0" height="12" width="12" patternUnits="userSpaceOnUse" id="cp5pattern">
 <rect class="cp5color" height="12" width="12" y="0" x="0"></rect>
 <path fill="black" d="M0,0L3,0L3,3L0,3L0,0M6,0L9,0L9,3L6,3L6,0M3,3L6,3L6,6L3,6L3,3M9,3L12,3L12,6L9,6L9,3"></path>
 <path fill="black" d="M0,6L3,6L3,9L0,9L0,6M6,6L9,6L9,9L6,9L6,6M3,9L6,9L6,12L3,12L3,9M9,9L12,9L12,12L9,12L9,9"></path>
 </pattern>
 <pattern y="0" x="0" height="12" width="12" patternUnits="userSpaceOnUse" id="cp6pattern">
 <rect class="cp6color" height="12" width="12" y="0" x="0"></rect>
 <path fill="white" d="M0,0L3,0L3,3L0,3L0,0M6,0L9,0L9,3L6,3L6,0M3,3L6,3L6,6L3,6L3,3M9,3L12,3L12,6L9,6L9,3"></path>
 <path fill="white" d="M0,6L3,6L3,9L0,9L0,6M6,6L9,6L9,9L6,9L6,6M3,9L6,9L6,12L3,12L3,9M9,9L12,9L12,12L9,12L9,9"></path>
 </pattern>
 <pattern y="0" x="0" height="12" width="12" patternUnits="userSpaceOnUse" id="cp7pattern">
 <rect class="cp7color" height="12" width="12" y="0" x="0"></rect>
 <path fill="black" d="M0,0L3,0L3,3L0,3L0,0M6,0L9,0L9,3L6,3L6,0M3,3L6,3L6,6L3,6L3,3M9,3L12,3L12,6L9,6L9,3"></path>
 <path fill="black" d="M0,6L3,6L3,9L0,9L0,6M6,6L9,6L9,9L6,9L6,6M3,9L6,9L6,12L3,12L3,9M9,9L12,9L12,12L9,12L9,9"></path>
 </pattern>
 <pattern y="0" x="0" height="12" width="12" patternUnits="userSpaceOnUse" id="cp8pattern">
 <rect class="cp8color" height="12" width="12" y="0" x="0"></rect>
 <path fill="white" d="M0,0L3,0L3,3L0,3L0,0M6,0L9,0L9,3L6,3L6,0M3,3L6,3L6,6L3,6L3,3M9,3L12,3L12,6L9,6L9,3"></path>
 <path fill="white" d="M0,6L3,6L3,9L0,9L0,6M6,6L9,6L9,9L6,9L6,6M3,9L6,9L6,12L3,12L3,9M9,9L12,9L12,12L9,12L9,9"></path>
 </pattern>
 <pattern y="0" x="0" height="12" width="12" patternUnits="userSpaceOnUse" id="cp9pattern">
 <rect class="cp9color" height="12" width="12" y="0" x="0"></rect>
 <path fill="black" d="M0,0L3,0L3,3L0,3L0,0M6,0L9,0L9,3L6,3L6,0M3,3L6,3L6,6L3,6L3,3M9,3L12,3L12,6L9,6L9,3"></path>
 <path fill="black" d="M0,6L3,6L3,9L0,9L0,6M6,6L9,6L9,9L6,9L6,6M3,9L6,9L6,12L3,12L3,9M9,9L12,9L12,12L9,12L9,9"></path>
 </pattern>
 </defs>
 <rect height="100%" width="100%" y="0" x="0" class="grass" id="mainfill"></rect>
 <g id="paths"><path d="M120,72L120,72L168,72L168,84L192,84L192,96L204,96L204,120L216,120L216,144L228,144L228,132L264,132L264,120L348,120L348,132L384,132L384,144L396,144L396,120L408,120L408,96L420,96L420,84L444,84L444,72L492,72L492,84L516,84L516,96L528,96L528,120L540,120L540,168L528,168L528,192L516,192L516,204L492,204L492,216L468,216L468,228L480,228L480,264L492,264L492,348L480,348L480,384L468,384L468,396L492,396L492,408L516,408L516,420L528,420L528,444L540,444L540,492L528,492L528,516L516,516L516,528L492,528L492,540L444,540L444,528L420,528L420,516L408,516L408,492L396,492L396,468L384,468L384,480L348,480L348,492L264,492L264,480L228,480L228,468L216,468L216,492L204,492L204,516L192,516L192,528L168,528L168,540L120,540L120,528L96,528L96,516L84,516L84,492L72,492L72,444L84,444L84,420L96,420L96,408L120,408L120,396L144,396L144,384L132,384L132,348L120,348L120,264L132,264L132,228L144,228L144,216L120,216L120,204L96,204L96,192L84,192L84,168L72,168L72,120L84,120L84,96L96,96L96,84L120,84L120,72M132,108L132,108L120,108L120,120L108,120L108,168L120,168L120,180L168,180L168,168L180,168L180,120L168,120L168,108L132,108M456,108L456,108L444,108L444,120L432,120L432,168L444,168L444,180L492,180L492,168L504,168L504,120L492,120L492,108L456,108M132,132L132,132L156,132L156,156L132,156L132,132M456,132L456,132L480,132L480,156L456,156L456,132M276,156L276,156L264,156L264,168L240,168L240,180L216,180L216,192L204,192L204,204L192,204L192,216L180,216L180,240L168,240L168,264L156,264L156,348L168,348L168,372L180,372L180,396L192,396L192,408L204,408L204,420L216,420L216,432L240,432L240,444L264,444L264,456L348,456L348,444L372,444L372,432L396,432L396,420L408,420L408,408L420,408L420,396L432,396L432,372L444,372L444,348L456,348L456,264L444,264L444,240L432,240L432,216L420,216L420,204L408,204L408,192L396,192L396,180L372,180L372,168L348,168L348,156L276,156M132,432L132,432L120,432L120,444L108,444L108,492L120,492L120,504L168,504L168,492L180,492L180,444L168,444L168,432L132,432M456,432L456,432L444,432L444,444L432,444L432,492L444,492L444,504L492,504L492,492L504,492L504,444L492,444L492,432L456,432M132,456L132,456L156,456L156,480L132,480L132,456M456,456L456,456L480,456L480,480L456,480Z" class="road"></path><path d="M96,84L96,84L108,84L108,96L120,96L120,120L96,120L96,108L84,108L84,96L96,96L96,84M132,132L132,132L144,132L144,144L132,144L132,132M144,144L144,144L156,144L156,156L144,156Z" class="cp1"></path><path d="M144,132L144,132L156,132L156,144L144,144L144,132M144,144L144,144L144,156L132,156L132,144L144,144M168,168L168,168L192,168L192,180L204,180L204,204L180,204L180,192L168,192Z" class="cp2"></path><path d="M144,456L144,456L156,456L156,468L144,468L144,456M144,468L144,468L144,480L132,480L132,468L144,468M96,492L96,492L120,492L120,516L108,516L108,528L96,528L96,516L84,516L84,504L96,504Z" class="cp3"></path><path d="M180,408L180,408L204,408L204,432L192,432L192,444L168,444L168,420L180,420L180,408M132,456L132,456L144,456L144,468L132,468L132,456M144,468L144,468L156,468L156,480L144,480Z" class="cp4"></path><path d="M456,456L456,456L468,456L468,468L456,468L456,456M468,468L468,468L480,468L480,480L468,480L468,468M492,492L492,492L516,492L516,504L528,504L528,516L516,516L516,528L504,528L504,516L492,516Z" class="cp5"></path><path d="M408,408L408,408L432,408L432,420L444,420L444,444L420,444L420,432L408,432L408,408M468,456L468,456L480,456L480,468L468,468L468,456M468,468L468,468L468,480L456,480L456,468Z" class="cp6"></path><path d="M504,84L504,84L516,84L516,96L528,96L528,108L516,108L516,120L492,120L492,96L504,96L504,84M468,132L468,132L480,132L480,144L468,144L468,132M468,144L468,144L468,156L456,156L456,144Z" class="cp7"></path><path d="M456,132L456,132L468,132L468,144L456,144L456,132M468,144L468,144L480,144L480,156L468,156L468,144M420,168L420,168L444,168L444,192L432,192L432,204L408,204L408,180L420,180Z" class="cp8"></path><path d="M0,0L0,0L12,0L12,144L0,144Z" class="parc"></path><path d="M108,60L108,60L180,60L180,72L204,72L204,84L228,84L228,96L252,96L252,108L360,108L360,96L384,96L384,84L408,84L408,72L432,72L432,60L504,60L504,72L528,72L528,84L540,84L540,108L552,108L552,180L540,180L540,204L528,204L528,228L516,228L516,252L504,252L504,360L516,360L516,384L528,384L528,408L540,408L540,432L552,432L552,504L540,504L540,528L528,528L528,540L504,540L504,552L432,552L432,540L408,540L408,528L384,528L384,516L360,516L360,504L252,504L252,516L228,516L228,528L204,528L204,540L180,540L180,552L108,552L108,540L84,540L84,528L72,528L72,504L60,504L60,432L72,432L72,408L84,408L84,384L96,384L96,360L108,360L108,228L96,228L96,216L84,216L84,204L72,204L72,180L60,180L60,108L72,108L72,84L84,84L84,72L108,72L108,60M132,72L132,72L120,72L120,84L96,84L96,96L84,96L84,120L72,120L72,168L84,168L84,192L96,192L96,204L120,204L120,216L144,216L144,228L132,228L132,264L120,264L120,348L132,348L132,384L144,384L144,396L120,396L120,408L96,408L96,420L84,420L84,444L72,444L72,492L84,492L84,516L96,516L96,528L120,528L120,540L168,540L168,528L192,528L192,516L204,516L204,492L216,492L216,468L228,468L228,480L264,480L264,492L348,492L348,480L384,480L384,468L396,468L396,492L408,492L408,516L420,516L420,528L444,528L444,540L492,540L492,528L516,528L516,516L528,516L528,492L540,492L540,444L528,444L528,420L516,420L516,408L492,408L492,396L468,396L468,384L480,384L480,348L492,348L492,264L480,264L480,228L468,228L468,216L492,216L492,204L516,204L516,192L528,192L528,168L540,168L540,120L528,120L528,96L516,96L516,84L492,84L492,72L444,72L444,84L420,84L420,96L408,96L408,120L396,120L396,144L384,144L384,132L348,132L348,120L264,120L264,132L228,132L228,144L216,144L216,120L204,120L204,96L192,96L192,84L168,84L168,72L132,72M348,252L348,252L360,252L360,264L348,264L348,252M348,264L348,264L348,276L336,276L336,264L348,264M336,276L336,276L336,336L312,336L312,360L300,360L300,336L276,336L276,276L336,276M300,288L300,288L288,288L288,324L324,324L324,288L300,288M300,300L300,300L312,300L312,312L300,312Z" class="sand"></path><path d="M120,108L120,108L168,108L168,120L180,120L180,168L168,168L168,180L120,180L120,168L108,168L108,120L120,120L120,108M444,108L444,108L492,108L492,120L504,120L504,168L492,168L492,180L444,180L444,168L432,168L432,120L444,120L444,108M144,132L144,132L132,132L132,156L156,156L156,132L144,132M468,132L468,132L456,132L456,156L480,156L480,132L468,132M264,156L264,156L348,156L348,168L372,168L372,180L396,180L396,192L408,192L408,204L420,204L420,216L432,216L432,240L444,240L444,264L456,264L456,348L444,348L444,372L432,372L432,396L420,396L420,408L408,408L408,420L396,420L396,432L372,432L372,444L348,444L348,456L264,456L264,444L240,444L240,432L216,432L216,420L204,420L204,408L192,408L192,396L180,396L180,372L168,372L168,348L156,348L156,264L168,264L168,240L180,240L180,216L192,216L192,204L204,204L204,192L216,192L216,180L240,180L240,168L264,168L264,156M360,252L360,252L348,252L348,264L336,264L336,276L276,276L276,336L300,336L300,360L312,360L312,336L336,336L336,276L348,276L348,264L360,264L360,252M288,288L288,288L324,288L324,324L288,324L288,288M312,300L312,300L300,300L300,312L312,312L312,300M120,432L120,432L168,432L168,444L180,444L180,492L168,492L168,504L120,504L120,492L108,492L108,444L120,444L120,432M444,432L444,432L492,432L492,444L504,444L504,492L492,492L492,504L444,504L444,492L432,492L432,444L444,444L444,432M144,456L144,456L132,456L132,480L156,480L156,456L144,456M468,456L468,456L456,456L456,480L480,480L480,456Z" class="mud"></path><path d="M276,120L276,120L288,120L288,156L276,156L276,120M324,120L324,120L336,120L336,156L324,156L324,120M276,456L276,456L288,456L288,492L276,492L276,456M324,456L324,456L336,456L336,492L324,492Z" class="start"></path><path d="M300,120L300,120L312,120L312,156L300,156L300,120M300,456L300,456L312,456L312,492L300,492Z" class="finish"></path></g>
 <rect opacity=".3" fill="url(#grid)" height="100%" width="100%" y="0" x="0"></rect>
</svg>