<svg xmlns:xlink="http://www.w3.org/1999/xlink" xmlns="http://www.w3.org/2000/svg" height="480" width="480" id="mapSvgView" version="1.1" style="width: 480px; height: 480px;" viewBox="0 0 480 480">
 <defs>
 <pattern y="0" x="0" height="24" width="24" patternUnits="userSpaceOnUse" id="grassPattern">
 <rect class="grasscolor" height="24" width="24" y="0" x="0"></rect>
 <rect class="grassspeclecolor" height="1" width="1" x="1" y="5"></rect>
 <rect class="grassspeclecolor" height="1" width="1" x="1" y="5"></rect>
 <rect class="grassspeclecolor" height="1" width="1" x="3" y="5"></rect>
 <rect class="grassspeclecolor" height="1" width="1" x="6" y="7"></rect>
 <rect class="grassspeclecolor" height="1" width="1" x="6" y="17"></rect>
 <rect class="grassspeclecolor" height="1" width="1" x="8" y="21"></rect>
 <rect class="grassspeclecolor" height="1" width="1" x="9" y="2"></rect>
 <rect class="grassspeclecolor" height="1" width="1" x="12" y="4"></rect>
 <rect class="grassspeclecolor" height="1" width="1" x="13" y="15"></rect>
 <rect class="grassspeclecolor" height="1" width="1" x="14" y="4"></rect>
 <rect class="grassspeclecolor" height="1" width="1" x="14" y="19"></rect>
 <rect class="grassspeclecolor" height="1" width="1" x="17" y="7"></rect>
 <rect class="grassspeclecolor" height="1" width="1" x="17" y="12"></rect>
 <rect class="grassspeclecolor" height="1" width="1" x="18" y="23"></rect>
 <rect class="grassspeclecolor" height="1" width="1" x="21" y="16"></rect>
 <rect class="grassspeclecolor" height="1" width="1" x="23" y="12"></rect>
 </pattern>
 <pattern y="0" x="0" height="24" width="24" patternUnits="userSpaceOnUse" id="roadPattern">
 <rect class="roadcolor" height="24" width="24" y="0" x="0"></rect>
 <rect class="roadspeclecolor" height="1" width="1" x="1" y="5"></rect>
 <rect class="roadspeclecolor" height="1" width="1" x="1" y="5"></rect>
 <rect class="roadspeclecolor" height="1" width="1" x="3" y="5"></rect>
 <rect class="roadspeclecolor" height="1" width="1" x="6" y="7"></rect>
 <rect class="roadspeclecolor" height="1" width="1" x="6" y="17"></rect>
 <rect class="roadspeclecolor" height="1" width="1" x="8" y="21"></rect>
 <rect class="roadspeclecolor" height="1" width="1" x="9" y="2"></rect>
 <rect class="roadspeclecolor" height="1" width="1" x="12" y="4"></rect>
 <rect class="roadspeclecolor" height="1" width="1" x="13" y="15"></rect>
 <rect class="roadspeclecolor" height="1" width="1" x="14" y="4"></rect>
 <rect class="roadspeclecolor" height="1" width="1" x="14" y="19"></rect>
 <rect class="roadspeclecolor" height="1" width="1" x="17" y="7"></rect>
 <rect class="roadspeclecolor" height="1" width="1" x="17" y="12"></rect>
 <rect class="roadspeclecolor" height="1" width="1" x="18" y="23"></rect>
 <rect class="roadspeclecolor" height="1" width="1" x="21" y="16"></rect>
 <rect class="roadspeclecolor" height="1" width="1" x="23" y="12"></rect>
 </pattern>
 <pattern y="0" x="0" height="12" width="12" patternUnits="userSpaceOnUse" id="grid">
 <line stroke-width="1" stroke="black" y2="12" x2="12" y1="0" x1="12"></line>
 <line stroke-width="1" stroke="black" y2="12" x2="12" y1="12" x1="0"></line>
 </pattern>
 <pattern y="0" x="0" height="12" width="12" patternUnits="userSpaceOnUse" id="finishPattern">
 <rect fill="black" height="12" width="12" y="0" x="0"></rect>
 <path fill="white" d="M0,0L3,0L3,3L0,3L0,0M6,0L9,0L9,3L6,3L6,0M3,3L6,3L6,6L3,6L3,3M9,3L12,3L12,6L9,6L9,3"></path>
 <path fill="white" d="M0,6L3,6L3,9L0,9L0,6M6,6L9,6L9,9L6,9L6,6M3,9L6,9L6,12L3,12L3,9M9,9L12,9L12,12L9,12L9,9"></path>
 </pattern>
 <pattern y="0" x="0" height="12" width="12" patternUnits="userSpaceOnUse" id="startPattern">
 <rect fill="rgb(100,100,100)" height="12" width="12" y="0" x="0"></rect>
 <rect stroke-width="1" stroke="rgb(200,200,200)" fill="none" height="5" width="5" y="3.5" x="3.5"></rect>
 </pattern>
 <pattern y="0" x="0" height="12" width="12" patternUnits="userSpaceOnUse" id="cp1pattern">
 <rect class="cp1color" height="12" width="12" y="0" x="0"></rect>
 <path fill="black" d="M0,0L3,0L3,3L0,3L0,0M6,0L9,0L9,3L6,3L6,0M3,3L6,3L6,6L3,6L3,3M9,3L12,3L12,6L9,6L9,3"></path>
 <path fill="black" d="M0,6L3,6L3,9L0,9L0,6M6,6L9,6L9,9L6,9L6,6M3,9L6,9L6,12L3,12L3,9M9,9L12,9L12,12L9,12L9,9"></path>
 </pattern>
 <pattern y="0" x="0" height="12" width="12" patternUnits="userSpaceOnUse" id="cp2pattern">
 <rect class="cp2color" height="12" width="12" y="0" x="0"></rect>
 <path fill="white" d="M0,0L3,0L3,3L0,3L0,0M6,0L9,0L9,3L6,3L6,0M3,3L6,3L6,6L3,6L3,3M9,3L12,3L12,6L9,6L9,3"></path>
 <path fill="white" d="M0,6L3,6L3,9L0,9L0,6M6,6L9,6L9,9L6,9L6,6M3,9L6,9L6,12L3,12L3,9M9,9L12,9L12,12L9,12L9,9"></path>
 </pattern>
 <pattern y="0" x="0" height="12" width="12" patternUnits="userSpaceOnUse" id="cp3pattern">
 <rect class="cp3color" height="12" width="12" y="0" x="0"></rect>
 <path fill="black" d="M0,0L3,0L3,3L0,3L0,0M6,0L9,0L9,3L6,3L6,0M3,3L6,3L6,6L3,6L3,3M9,3L12,3L12,6L9,6L9,3"></path>
 <path fill="black" d="M0,6L3,6L3,9L0,9L0,6M6,6L9,6L9,9L6,9L6,6M3,9L6,9L6,12L3,12L3,9M9,9L12,9L12,12L9,12L9,9"></path>
 </pattern>
 <pattern y="0" x="0" height="12" width="12" patternUnits="userSpaceOnUse" id="cp4pattern">
 <rect class="cp4color" height="12" width="12" y="0" x="0"></rect>
 <path fill="white" d="M0,0L3,0L3,3L0,3L0,0M6,0L9,0L9,3L6,3L6,0M3,3L6,3L6,6L3,6L3,3M9,3L12,3L12,6L9,6L9,3"></path>
 <path fill="white" d="M0,6L3,6L3,9L0,9L0,6M6,6L9,6L9,9L6,9L6,6M3,9L6,9L6,12L3,12L3,9M9,9L12,9L12,12L9,12L9,9"></path>
 </pattern>
 <pattern y="0" x="0" height="12" width="12" patternUnits="userSpaceOnUse" id="cp5pattern">
 <rect class="cp5color" height="12" width="12" y="0" x="0"></rect>
 <path fill="black" d="M0,0L3,0L3,3L0,3L0,0M6,0L9,0L9,3L6,3L6,0M3,3L6,3L6,6L3,6L3,3M9,3L12,3L12,6L9,6L9,3"></path>
 <path fill="black" d="M0,6L3,6L3,9L0,9L0,6M6,6L9,6L9,9L6,9L6,6M3,9L6,9L6,12L3,12L3,9M9,9L12,9L12,12L9,12L9,9"></path>
 </pattern>
 <pattern y="0" x="0" height="12" width="12" patternUnits="userSpaceOnUse" id="cp6pattern">
 <rect class="cp6color" height="12" width="12" y="0" x="0"></rect>
 <path fill="white" d="M0,0L3,0L3,3L0,3L0,0M6,0L9,0L9,3L6,3L6,0M3,3L6,3L6,6L3,6L3,3M9,3L12,3L12,6L9,6L9,3"></path>
 <path fill="white" d="M0,6L3,6L3,9L0,9L0,6M6,6L9,6L9,9L6,9L6,6M3,9L6,9L6,12L3,12L3,9M9,9L12,9L12,12L9,12L9,9"></path>
 </pattern>
 <pattern y="0" x="0" height="12" width="12" patternUnits="userSpaceOnUse" id="cp7pattern">
 <rect class="cp7color" height="12" width="12" y="0" x="0"></rect>
 <path fill="black" d="M0,0L3,0L3,3L0,3L0,0M6,0L9,0L9,3L6,3L6,0M3,3L6,3L6,6L3,6L3,3M9,3L12,3L12,6L9,6L9,3"></path>
 <path fill="black" d="M0,6L3,6L3,9L0,9L0,6M6,6L9,6L9,9L6,9L6,6M3,9L6,9L6,12L3,12L3,9M9,9L12,9L12,12L9,12L9,9"></path>
 </pattern>
 <pattern y="0" x="0" height="12" width="12" patternUnits="userSpaceOnUse" id="cp8pattern">
 <rect class="cp8color" height="12" width="12" y="0" x="0"></rect>
 <path fill="white" d="M0,0L3,0L3,3L0,3L0,0M6,0L9,0L9,3L6,3L6,0M3,3L6,3L6,6L3,6L3,3M9,3L12,3L12,6L9,6L9,3"></path>
 <path fill="white" d="M0,6L3,6L3,9L0,9L0,6M6,6L9,6L9,9L6,9L6,6M3,9L6,9L6,12L3,12L3,9M9,9L12,9L12,12L9,12L9,9"></path>
 </pattern>
 <pattern y="0" x="0" height="12" width="12" patternUnits="userSpaceOnUse" id="cp9pattern">
 <rect class="cp9color" height="12" width="12" y="0" x="0"></rect>
 <path fill="black" d="M0,0L3,0L3,3L0,3L0,0M6,0L9,0L9,3L6,3L6,0M3,3L6,3L6,6L3,6L3,3M9,3L12,3L12,6L9,6L9,3"></path>
 <path fill="black" d="M0,6L3,6L3,9L0,9L0,6M6,6L9,6L9,9L6,9L6,6M3,9L6,9L6,12L3,12L3,9M9,9L12,9L12,12L9,12L9,9"></path>
 </pattern>
 </defs>
 <rect height="100%" width="100%" y="0" x="0" class="mud" id="mainfill"></rect>
 <g id="paths"><path d="M48,36L48,36L84,36L84,204L144,204L144,144L156,144L156,132L168,132L168,120L180,120L180,108L192,108L192,96L324,96L324,108L336,108L336,120L348,120L348,132L360,132L360,144L372,144L372,204L408,204L408,216L432,216L432,228L444,228L444,240L456,240L456,264L468,264L468,372L456,372L456,396L444,396L444,408L432,408L432,420L408,420L408,432L108,432L108,420L84,420L84,408L72,408L72,396L60,396L60,372L48,372L48,240L12,240L12,204L48,204L48,36M228,132L228,132L216,132L216,144L204,144L204,156L192,156L192,168L180,168L180,204L228,204L228,216L240,216L240,228L252,228L252,348L168,348L168,336L156,336L156,312L144,312L144,240L132,240L132,252L108,252L108,264L96,264L96,288L84,288L84,348L96,348L96,372L108,372L108,384L132,384L132,396L384,396L384,384L408,384L408,372L420,372L420,348L432,348L432,288L420,288L420,264L408,264L408,252L384,252L384,240L372,240L372,312L360,312L360,336L348,336L348,348L264,348L264,228L276,228L276,216L288,216L288,204L336,204L336,168L324,168L324,156L312,156L312,144L300,144L300,132L228,132M192,240L192,240L180,240L180,288L192,288L192,312L216,312L216,252L204,252L204,240L192,240M324,240L324,240L312,240L312,252L300,252L300,312L324,312L324,288L336,288L336,240Z" class="road"></path><path d="M48,312L48,312L84,312L84,324L48,324Z" class="cp1"></path><path d="M252,396L252,396L264,396L264,432L252,432Z" class="cp2"></path><path d="M432,312L432,312L468,312L468,324L432,324Z" class="cp3"></path><path d="M264,288L264,288L300,288L300,300L264,300Z" class="cp4"></path><path d="M324,288L324,288L372,288L372,300L324,300Z" class="cp5"></path><path d="M252,96L252,96L264,96L264,132L252,132Z" class="cp6"></path><path d="M144,288L144,288L192,288L192,300L144,300Z" class="cp7"></path><path d="M216,288L216,288L252,288L252,300L216,300Z" class="cp8"></path><path d="M0,0L0,0L12,0L12,72L0,72Z" class="parc"></path><path d="M348,0L348,0L480,0L480,156L456,156L456,144L420,144L420,132L396,132L396,120L384,120L384,108L372,108L372,84L360,84L360,48L348,48L348,0M468,12L468,12L456,12L456,24L444,24L444,36L384,36L384,96L408,96L408,120L420,120L420,96L444,96L444,36L456,36L456,24L468,24L468,12M396,48L396,48L432,48L432,84L396,84L396,48M420,60L420,60L408,60L408,72L420,72Z" class="grass"></path><path d="M456,12L456,12L468,12L468,24L456,24L456,12M456,24L456,24L456,36L444,36L444,24L456,24M444,36L444,36L444,96L420,96L420,120L408,120L408,96L384,96L384,36L444,36M408,48L408,48L396,48L396,84L432,84L432,48L408,48M408,60L408,60L420,60L420,72L408,72L408,60M192,72L192,72L324,72L324,84L336,84L336,96L348,96L348,108L360,108L360,120L372,120L372,132L384,132L384,156L396,156L396,192L420,192L420,204L444,204L444,216L456,216L456,228L468,228L468,252L480,252L480,384L468,384L468,408L456,408L456,420L444,420L444,432L420,432L420,444L300,444L300,432L408,432L408,420L432,420L432,408L444,408L444,396L456,396L456,372L468,372L468,264L456,264L456,240L444,240L444,228L432,228L432,216L408,216L408,204L372,204L372,144L360,144L360,132L348,132L348,120L336,120L336,108L324,108L324,96L192,96L192,108L180,108L180,120L168,120L168,132L156,132L156,144L144,144L144,204L84,204L84,192L120,192L120,156L132,156L132,132L144,132L144,120L156,120L156,108L168,108L168,96L180,96L180,84L192,84L192,72M36,168L36,168L48,168L48,204L12,204L12,240L48,240L48,372L60,372L60,396L72,396L72,408L84,408L84,420L108,420L108,432L216,432L216,444L96,444L96,432L72,432L72,420L60,420L60,408L48,408L48,384L36,384L36,360L24,360L24,252L0,252L0,192L24,192L24,180L36,180L36,168M180,180L180,180L216,180L216,192L252,192L252,204L264,204L264,192L300,192L300,180L336,180L336,204L288,204L288,216L276,216L276,228L264,228L264,348L348,348L348,336L360,336L360,312L372,312L372,240L384,240L384,252L396,252L396,300L384,300L384,324L372,324L372,348L360,348L360,360L336,360L336,372L180,372L180,360L156,360L156,348L144,348L144,324L132,324L132,300L120,300L120,252L132,252L132,240L144,240L144,312L156,312L156,336L168,336L168,348L252,348L252,228L240,228L240,216L228,216L228,204L180,204Z" class="sand"></path><path d="M48,36L48,36L60,36L60,48L48,48L48,36M60,48L60,48L72,48L72,36L84,36L84,48L72,48L72,60L60,60L60,48M72,60L72,60L84,60L84,72L72,72L72,60M60,60L60,60L60,72L48,72L48,60L60,60M60,72L60,72L72,72L72,84L60,84Z" class="start"></path><path d="M24,204L24,204L36,204L36,240L24,240Z" class="finish"></path></g>
 <rect opacity=".3" fill="url(#grid)" height="100%" width="100%" y="0" x="0"></rect>
</svg>