<svg xmlns:xlink="http://www.w3.org/1999/xlink" xmlns="http://www.w3.org/2000/svg" height="972" width="756" id="mapSvgView" version="1.1" style="width: 756px; height: 972px;" viewBox="0 0 756 972">
 <defs>
 <pattern y="0" x="0" height="24" width="24" patternUnits="userSpaceOnUse" id="grassPattern">
 <rect class="grasscolor" height="24" width="24" y="0" x="0"></rect>
 <rect class="grassspeclecolor" height="1" width="1" x="1" y="5"></rect>
 <rect class="grassspeclecolor" height="1" width="1" x="1" y="5"></rect>
 <rect class="grassspeclecolor" height="1" width="1" x="3" y="5"></rect>
 <rect class="grassspeclecolor" height="1" width="1" x="6" y="7"></rect>
 <rect class="grassspeclecolor" height="1" width="1" x="6" y="17"></rect>
 <rect class="grassspeclecolor" height="1" width="1" x="8" y="21"></rect>
 <rect class="grassspeclecolor" height="1" width="1" x="9" y="2"></rect>
 <rect class="grassspeclecolor" height="1" width="1" x="12" y="4"></rect>
 <rect class="grassspeclecolor" height="1" width="1" x="13" y="15"></rect>
 <rect class="grassspeclecolor" height="1" width="1" x="14" y="4"></rect>
 <rect class="grassspeclecolor" height="1" width="1" x="14" y="19"></rect>
 <rect class="grassspeclecolor" height="1" width="1" x="17" y="7"></rect>
 <rect class="grassspeclecolor" height="1" width="1" x="17" y="12"></rect>
 <rect class="grassspeclecolor" height="1" width="1" x="18" y="23"></rect>
 <rect class="grassspeclecolor" height="1" width="1" x="21" y="16"></rect>
 <rect class="grassspeclecolor" height="1" width="1" x="23" y="12"></rect>
 </pattern>
 <pattern y="0" x="0" height="24" width="24" patternUnits="userSpaceOnUse" id="roadPattern">
 <rect class="roadcolor" height="24" width="24" y="0" x="0"></rect>
 <rect class="roadspeclecolor" height="1" width="1" x="1" y="5"></rect>
 <rect class="roadspeclecolor" height="1" width="1" x="1" y="5"></rect>
 <rect class="roadspeclecolor" height="1" width="1" x="3" y="5"></rect>
 <rect class="roadspeclecolor" height="1" width="1" x="6" y="7"></rect>
 <rect class="roadspeclecolor" height="1" width="1" x="6" y="17"></rect>
 <rect class="roadspeclecolor" height="1" width="1" x="8" y="21"></rect>
 <rect class="roadspeclecolor" height="1" width="1" x="9" y="2"></rect>
 <rect class="roadspeclecolor" height="1" width="1" x="12" y="4"></rect>
 <rect class="roadspeclecolor" height="1" width="1" x="13" y="15"></rect>
 <rect class="roadspeclecolor" height="1" width="1" x="14" y="4"></rect>
 <rect class="roadspeclecolor" height="1" width="1" x="14" y="19"></rect>
 <rect class="roadspeclecolor" height="1" width="1" x="17" y="7"></rect>
 <rect class="roadspeclecolor" height="1" width="1" x="17" y="12"></rect>
 <rect class="roadspeclecolor" height="1" width="1" x="18" y="23"></rect>
 <rect class="roadspeclecolor" height="1" width="1" x="21" y="16"></rect>
 <rect class="roadspeclecolor" height="1" width="1" x="23" y="12"></rect>
 </pattern>
 <pattern y="0" x="0" height="12" width="12" patternUnits="userSpaceOnUse" id="grid">
 <line stroke-width="1" stroke="black" y2="12" x2="12" y1="0" x1="12"></line>
 <line stroke-width="1" stroke="black" y2="12" x2="12" y1="12" x1="0"></line>
 </pattern>
 <pattern y="0" x="0" height="12" width="12" patternUnits="userSpaceOnUse" id="finishPattern">
 <rect fill="black" height="12" width="12" y="0" x="0"></rect>
 <path fill="white" d="M0,0L3,0L3,3L0,3L0,0M6,0L9,0L9,3L6,3L6,0M3,3L6,3L6,6L3,6L3,3M9,3L12,3L12,6L9,6L9,3"></path>
 <path fill="white" d="M0,6L3,6L3,9L0,9L0,6M6,6L9,6L9,9L6,9L6,6M3,9L6,9L6,12L3,12L3,9M9,9L12,9L12,12L9,12L9,9"></path>
 </pattern>
 <pattern y="0" x="0" height="12" width="12" patternUnits="userSpaceOnUse" id="startPattern">
 <rect fill="rgb(100,100,100)" height="12" width="12" y="0" x="0"></rect>
 <rect stroke-width="1" stroke="rgb(200,200,200)" fill="none" height="5" width="5" y="3.5" x="3.5"></rect>
 </pattern>
 <pattern y="0" x="0" height="12" width="12" patternUnits="userSpaceOnUse" id="cp1pattern">
 <rect class="cp1color" height="12" width="12" y="0" x="0"></rect>
 <path fill="black" d="M0,0L3,0L3,3L0,3L0,0M6,0L9,0L9,3L6,3L6,0M3,3L6,3L6,6L3,6L3,3M9,3L12,3L12,6L9,6L9,3"></path>
 <path fill="black" d="M0,6L3,6L3,9L0,9L0,6M6,6L9,6L9,9L6,9L6,6M3,9L6,9L6,12L3,12L3,9M9,9L12,9L12,12L9,12L9,9"></path>
 </pattern>
 <pattern y="0" x="0" height="12" width="12" patternUnits="userSpaceOnUse" id="cp2pattern">
 <rect class="cp2color" height="12" width="12" y="0" x="0"></rect>
 <path fill="white" d="M0,0L3,0L3,3L0,3L0,0M6,0L9,0L9,3L6,3L6,0M3,3L6,3L6,6L3,6L3,3M9,3L12,3L12,6L9,6L9,3"></path>
 <path fill="white" d="M0,6L3,6L3,9L0,9L0,6M6,6L9,6L9,9L6,9L6,6M3,9L6,9L6,12L3,12L3,9M9,9L12,9L12,12L9,12L9,9"></path>
 </pattern>
 <pattern y="0" x="0" height="12" width="12" patternUnits="userSpaceOnUse" id="cp3pattern">
 <rect class="cp3color" height="12" width="12" y="0" x="0"></rect>
 <path fill="black" d="M0,0L3,0L3,3L0,3L0,0M6,0L9,0L9,3L6,3L6,0M3,3L6,3L6,6L3,6L3,3M9,3L12,3L12,6L9,6L9,3"></path>
 <path fill="black" d="M0,6L3,6L3,9L0,9L0,6M6,6L9,6L9,9L6,9L6,6M3,9L6,9L6,12L3,12L3,9M9,9L12,9L12,12L9,12L9,9"></path>
 </pattern>
 <pattern y="0" x="0" height="12" width="12" patternUnits="userSpaceOnUse" id="cp4pattern">
 <rect class="cp4color" height="12" width="12" y="0" x="0"></rect>
 <path fill="white" d="M0,0L3,0L3,3L0,3L0,0M6,0L9,0L9,3L6,3L6,0M3,3L6,3L6,6L3,6L3,3M9,3L12,3L12,6L9,6L9,3"></path>
 <path fill="white" d="M0,6L3,6L3,9L0,9L0,6M6,6L9,6L9,9L6,9L6,6M3,9L6,9L6,12L3,12L3,9M9,9L12,9L12,12L9,12L9,9"></path>
 </pattern>
 <pattern y="0" x="0" height="12" width="12" patternUnits="userSpaceOnUse" id="cp5pattern">
 <rect class="cp5color" height="12" width="12" y="0" x="0"></rect>
 <path fill="black" d="M0,0L3,0L3,3L0,3L0,0M6,0L9,0L9,3L6,3L6,0M3,3L6,3L6,6L3,6L3,3M9,3L12,3L12,6L9,6L9,3"></path>
 <path fill="black" d="M0,6L3,6L3,9L0,9L0,6M6,6L9,6L9,9L6,9L6,6M3,9L6,9L6,12L3,12L3,9M9,9L12,9L12,12L9,12L9,9"></path>
 </pattern>
 <pattern y="0" x="0" height="12" width="12" patternUnits="userSpaceOnUse" id="cp6pattern">
 <rect class="cp6color" height="12" width="12" y="0" x="0"></rect>
 <path fill="white" d="M0,0L3,0L3,3L0,3L0,0M6,0L9,0L9,3L6,3L6,0M3,3L6,3L6,6L3,6L3,3M9,3L12,3L12,6L9,6L9,3"></path>
 <path fill="white" d="M0,6L3,6L3,9L0,9L0,6M6,6L9,6L9,9L6,9L6,6M3,9L6,9L6,12L3,12L3,9M9,9L12,9L12,12L9,12L9,9"></path>
 </pattern>
 <pattern y="0" x="0" height="12" width="12" patternUnits="userSpaceOnUse" id="cp7pattern">
 <rect class="cp7color" height="12" width="12" y="0" x="0"></rect>
 <path fill="black" d="M0,0L3,0L3,3L0,3L0,0M6,0L9,0L9,3L6,3L6,0M3,3L6,3L6,6L3,6L3,3M9,3L12,3L12,6L9,6L9,3"></path>
 <path fill="black" d="M0,6L3,6L3,9L0,9L0,6M6,6L9,6L9,9L6,9L6,6M3,9L6,9L6,12L3,12L3,9M9,9L12,9L12,12L9,12L9,9"></path>
 </pattern>
 <pattern y="0" x="0" height="12" width="12" patternUnits="userSpaceOnUse" id="cp8pattern">
 <rect class="cp8color" height="12" width="12" y="0" x="0"></rect>
 <path fill="white" d="M0,0L3,0L3,3L0,3L0,0M6,0L9,0L9,3L6,3L6,0M3,3L6,3L6,6L3,6L3,3M9,3L12,3L12,6L9,6L9,3"></path>
 <path fill="white" d="M0,6L3,6L3,9L0,9L0,6M6,6L9,6L9,9L6,9L6,6M3,9L6,9L6,12L3,12L3,9M9,9L12,9L12,12L9,12L9,9"></path>
 </pattern>
 <pattern y="0" x="0" height="12" width="12" patternUnits="userSpaceOnUse" id="cp9pattern">
 <rect class="cp9color" height="12" width="12" y="0" x="0"></rect>
 <path fill="black" d="M0,0L3,0L3,3L0,3L0,0M6,0L9,0L9,3L6,3L6,0M3,3L6,3L6,6L3,6L3,3M9,3L12,3L12,6L9,6L9,3"></path>
 <path fill="black" d="M0,6L3,6L3,9L0,9L0,6M6,6L9,6L9,9L6,9L6,6M3,9L6,9L6,12L3,12L3,9M9,9L12,9L12,12L9,12L9,9"></path>
 </pattern>
 </defs>
 <rect height="100%" width="100%" y="0" x="0" class="sand" id="mainfill"></rect>
 <g id="paths"><path d="M36,36L36,36L360,36L360,180L396,180L396,36L720,36L720,324L576,324L576,468L720,468L720,504L576,504L576,648L720,648L720,756L648,756L648,828L720,828L720,936L36,936L36,828L108,828L108,756L36,756L36,648L180,648L180,504L36,504L36,468L180,468L180,324L36,324L36,36M84,72L84,72L72,72L72,180L180,180L180,72L84,72M228,72L228,72L216,72L216,180L324,180L324,72L228,72M444,72L444,72L432,72L432,180L540,180L540,72L444,72M588,72L588,72L576,72L576,180L684,180L684,72L588,72M84,216L84,216L72,216L72,288L180,288L180,216L84,216M228,216L228,216L216,216L216,468L252,468L252,360L324,360L324,324L252,324L252,216L228,216M300,216L300,216L288,216L288,288L360,288L360,360L396,360L396,288L468,288L468,216L300,216M516,216L516,216L504,216L504,324L432,324L432,360L504,360L504,468L540,468L540,216L516,216M588,216L588,216L576,216L576,288L684,288L684,216L588,216M300,396L300,396L288,396L288,540L468,540L468,396L396,396L396,432L432,432L432,504L324,504L324,432L360,432L360,396L300,396M228,504L228,504L216,504L216,648L252,648L252,504L228,504M516,504L516,504L504,504L504,648L540,648L540,504L516,504M72,540L72,540L108,540L108,552L120,552L120,612L108,612L108,600L96,600L96,612L84,612L84,600L72,600L72,612L60,612L60,552L72,552L72,540M84,564L84,564L72,564L72,576L84,576L84,564M108,564L108,564L96,564L96,576L108,576L108,564M300,576L300,576L288,576L288,648L360,648L360,720L396,720L396,648L468,648L468,576L300,576M84,684L84,684L72,684L72,720L144,720L144,828L180,828L180,684L84,684M228,684L228,684L216,684L216,720L324,720L324,684L228,684M444,684L444,684L432,684L432,720L540,720L540,684L444,684M588,684L588,684L576,684L576,828L612,828L612,720L684,720L684,684L588,684M228,756L228,756L216,756L216,864L72,864L72,900L324,900L324,864L252,864L252,756L228,756M300,756L300,756L288,756L288,828L360,828L360,900L396,900L396,828L468,828L468,756L300,756M516,756L516,756L504,756L504,864L432,864L432,900L684,900L684,864L540,864L540,756Z" class="road"></path><path d="M36,468L36,468L72,468L72,504L36,504L36,468M684,468L684,468L720,468L720,504L684,504L684,468M72,540L72,540L108,540L108,552L120,552L120,612L108,612L108,600L96,600L96,612L84,612L84,600L72,600L72,612L60,612L60,552L72,552L72,540M84,564L84,564L72,564L72,576L84,576L84,564M108,564L108,564L96,564L96,576L108,576Z" class="cp1"></path><path d="M36,36L36,36L84,36L84,72L72,72L72,84L36,84Z" class="cp2"></path><path d="M672,36L672,36L720,36L720,84L684,84L684,72L672,72Z" class="cp3"></path><path d="M36,888L36,888L72,888L72,900L84,900L84,936L36,936Z" class="cp4"></path><path d="M360,720L360,720L396,720L396,756L360,756Z" class="cp5"></path><path d="M684,888L684,888L720,888L720,936L672,936L672,900L684,900Z" class="cp6"></path><path d="M360,540L360,540L396,540L396,576L360,576Z" class="cp8"></path><path d="M36,648L36,648L84,648L84,684L72,684L72,696L36,696L36,648M672,648L672,648L720,648L720,696L684,696L684,684L672,684Z" class="cp9"></path><path d="M0,0L0,0L12,0L12,108L0,108Z" class="parc"></path><path d="M12,0L12,0L756,0L756,972L0,972L0,108L12,108L12,528L156,528L156,624L12,624L12,780L84,780L84,804L12,804L12,960L744,960L744,804L672,804L672,780L744,780L744,624L708,624L708,612L720,612L720,600L732,600L732,564L720,564L720,552L708,552L708,540L660,540L660,552L648,552L648,564L660,564L660,576L684,576L684,588L660,588L660,600L648,600L648,612L660,612L660,624L600,624L600,528L744,528L744,444L600,444L600,348L744,348L744,12L12,12L12,0M96,96L96,96L156,96L156,156L96,156L96,96M240,96L240,96L300,96L300,156L240,156L240,96M456,96L456,96L516,96L516,156L456,156L456,96M600,96L600,96L660,96L660,156L600,156L600,96M96,240L96,240L156,240L156,264L96,264L96,240M312,240L312,240L444,240L444,264L312,264L312,240M600,240L600,240L660,240L660,264L600,264L600,240M36,324L36,324L180,324L180,468L36,468L36,324M156,336L156,336L144,336L144,348L132,348L132,360L72,360L72,420L96,420L96,444L108,444L108,420L132,420L132,360L144,360L144,348L156,348L156,336M84,372L84,372L120,372L120,408L84,408L84,372M108,384L108,384L96,384L96,396L108,396L108,384M84,540L84,540L72,540L72,552L60,552L60,612L72,612L72,600L84,600L84,612L96,612L96,600L108,600L108,612L120,612L120,552L108,552L108,540L84,540M672,552L672,552L684,552L684,564L672,564L672,552M72,564L72,564L84,564L84,576L72,576L72,564M96,564L96,564L108,564L108,576L96,576L96,564M312,600L312,600L444,600L444,624L312,624L312,600M312,780L312,780L444,780L444,804L312,804Z" class="grass"></path><path d="M360,408L360,408L396,408L396,420L360,420Z" class="finish"></path><path d="M336,480L336,480L348,480L348,492L336,492L336,480M348,492L348,492L360,492L360,480L372,480L372,492L360,492L360,504L348,504L348,492M336,492L336,492L336,504L324,504L324,492L336,492M372,492L372,492L384,492L384,480L396,480L396,492L384,492L384,504L372,504L372,492M396,492L396,492L408,492L408,480L420,480L420,492L408,492L408,504L396,504L396,492M420,492L420,492L432,492L432,504L420,504Z" class="start"></path></g>
 <rect opacity=".3" fill="url(#grid)" height="100%" width="100%" y="0" x="0"></rect>
</svg>