<svg xmlns:xlink="http://www.w3.org/1999/xlink" xmlns="http://www.w3.org/2000/svg" height="360" width="720" id="mapSvgView" version="1.1" style="width: 720px; height: 360px;" viewBox="0 0 720 360">
 <defs>
 <pattern y="0" x="0" height="24" width="24" patternUnits="userSpaceOnUse" id="grassPattern">
 <rect class="grasscolor" height="24" width="24" y="0" x="0"></rect>
 <rect class="grassspeclecolor" height="1" width="1" x="1" y="5"></rect>
 <rect class="grassspeclecolor" height="1" width="1" x="1" y="5"></rect>
 <rect class="grassspeclecolor" height="1" width="1" x="3" y="5"></rect>
 <rect class="grassspeclecolor" height="1" width="1" x="6" y="7"></rect>
 <rect class="grassspeclecolor" height="1" width="1" x="6" y="17"></rect>
 <rect class="grassspeclecolor" height="1" width="1" x="8" y="21"></rect>
 <rect class="grassspeclecolor" height="1" width="1" x="9" y="2"></rect>
 <rect class="grassspeclecolor" height="1" width="1" x="12" y="4"></rect>
 <rect class="grassspeclecolor" height="1" width="1" x="13" y="15"></rect>
 <rect class="grassspeclecolor" height="1" width="1" x="14" y="4"></rect>
 <rect class="grassspeclecolor" height="1" width="1" x="14" y="19"></rect>
 <rect class="grassspeclecolor" height="1" width="1" x="17" y="7"></rect>
 <rect class="grassspeclecolor" height="1" width="1" x="17" y="12"></rect>
 <rect class="grassspeclecolor" height="1" width="1" x="18" y="23"></rect>
 <rect class="grassspeclecolor" height="1" width="1" x="21" y="16"></rect>
 <rect class="grassspeclecolor" height="1" width="1" x="23" y="12"></rect>
 </pattern>
 <pattern y="0" x="0" height="24" width="24" patternUnits="userSpaceOnUse" id="roadPattern">
 <rect class="roadcolor" height="24" width="24" y="0" x="0"></rect>
 <rect class="roadspeclecolor" height="1" width="1" x="1" y="5"></rect>
 <rect class="roadspeclecolor" height="1" width="1" x="1" y="5"></rect>
 <rect class="roadspeclecolor" height="1" width="1" x="3" y="5"></rect>
 <rect class="roadspeclecolor" height="1" width="1" x="6" y="7"></rect>
 <rect class="roadspeclecolor" height="1" width="1" x="6" y="17"></rect>
 <rect class="roadspeclecolor" height="1" width="1" x="8" y="21"></rect>
 <rect class="roadspeclecolor" height="1" width="1" x="9" y="2"></rect>
 <rect class="roadspeclecolor" height="1" width="1" x="12" y="4"></rect>
 <rect class="roadspeclecolor" height="1" width="1" x="13" y="15"></rect>
 <rect class="roadspeclecolor" height="1" width="1" x="14" y="4"></rect>
 <rect class="roadspeclecolor" height="1" width="1" x="14" y="19"></rect>
 <rect class="roadspeclecolor" height="1" width="1" x="17" y="7"></rect>
 <rect class="roadspeclecolor" height="1" width="1" x="17" y="12"></rect>
 <rect class="roadspeclecolor" height="1" width="1" x="18" y="23"></rect>
 <rect class="roadspeclecolor" height="1" width="1" x="21" y="16"></rect>
 <rect class="roadspeclecolor" height="1" width="1" x="23" y="12"></rect>
 </pattern>
 <pattern y="0" x="0" height="12" width="12" patternUnits="userSpaceOnUse" id="grid">
 <line stroke-width="1" stroke="black" y2="12" x2="12" y1="0" x1="12"></line>
 <line stroke-width="1" stroke="black" y2="12" x2="12" y1="12" x1="0"></line>
 </pattern>
 <pattern y="0" x="0" height="12" width="12" patternUnits="userSpaceOnUse" id="finishPattern">
 <rect fill="black" height="12" width="12" y="0" x="0"></rect>
 <path fill="white" d="M0,0L3,0L3,3L0,3L0,0M6,0L9,0L9,3L6,3L6,0M3,3L6,3L6,6L3,6L3,3M9,3L12,3L12,6L9,6L9,3"></path>
 <path fill="white" d="M0,6L3,6L3,9L0,9L0,6M6,6L9,6L9,9L6,9L6,6M3,9L6,9L6,12L3,12L3,9M9,9L12,9L12,12L9,12L9,9"></path>
 </pattern>
 <pattern y="0" x="0" height="12" width="12" patternUnits="userSpaceOnUse" id="startPattern">
 <rect fill="rgb(100,100,100)" height="12" width="12" y="0" x="0"></rect>
 <rect stroke-width="1" stroke="rgb(200,200,200)" fill="none" height="5" width="5" y="3.5" x="3.5"></rect>
 </pattern>
 <pattern y="0" x="0" height="12" width="12" patternUnits="userSpaceOnUse" id="cp1pattern">
 <rect class="cp1color" height="12" width="12" y="0" x="0"></rect>
 <path fill="black" d="M0,0L3,0L3,3L0,3L0,0M6,0L9,0L9,3L6,3L6,0M3,3L6,3L6,6L3,6L3,3M9,3L12,3L12,6L9,6L9,3"></path>
 <path fill="black" d="M0,6L3,6L3,9L0,9L0,6M6,6L9,6L9,9L6,9L6,6M3,9L6,9L6,12L3,12L3,9M9,9L12,9L12,12L9,12L9,9"></path>
 </pattern>
 <pattern y="0" x="0" height="12" width="12" patternUnits="userSpaceOnUse" id="cp2pattern">
 <rect class="cp2color" height="12" width="12" y="0" x="0"></rect>
 <path fill="white" d="M0,0L3,0L3,3L0,3L0,0M6,0L9,0L9,3L6,3L6,0M3,3L6,3L6,6L3,6L3,3M9,3L12,3L12,6L9,6L9,3"></path>
 <path fill="white" d="M0,6L3,6L3,9L0,9L0,6M6,6L9,6L9,9L6,9L6,6M3,9L6,9L6,12L3,12L3,9M9,9L12,9L12,12L9,12L9,9"></path>
 </pattern>
 <pattern y="0" x="0" height="12" width="12" patternUnits="userSpaceOnUse" id="cp3pattern">
 <rect class="cp3color" height="12" width="12" y="0" x="0"></rect>
 <path fill="black" d="M0,0L3,0L3,3L0,3L0,0M6,0L9,0L9,3L6,3L6,0M3,3L6,3L6,6L3,6L3,3M9,3L12,3L12,6L9,6L9,3"></path>
 <path fill="black" d="M0,6L3,6L3,9L0,9L0,6M6,6L9,6L9,9L6,9L6,6M3,9L6,9L6,12L3,12L3,9M9,9L12,9L12,12L9,12L9,9"></path>
 </pattern>
 <pattern y="0" x="0" height="12" width="12" patternUnits="userSpaceOnUse" id="cp4pattern">
 <rect class="cp4color" height="12" width="12" y="0" x="0"></rect>
 <path fill="white" d="M0,0L3,0L3,3L0,3L0,0M6,0L9,0L9,3L6,3L6,0M3,3L6,3L6,6L3,6L3,3M9,3L12,3L12,6L9,6L9,3"></path>
 <path fill="white" d="M0,6L3,6L3,9L0,9L0,6M6,6L9,6L9,9L6,9L6,6M3,9L6,9L6,12L3,12L3,9M9,9L12,9L12,12L9,12L9,9"></path>
 </pattern>
 <pattern y="0" x="0" height="12" width="12" patternUnits="userSpaceOnUse" id="cp5pattern">
 <rect class="cp5color" height="12" width="12" y="0" x="0"></rect>
 <path fill="black" d="M0,0L3,0L3,3L0,3L0,0M6,0L9,0L9,3L6,3L6,0M3,3L6,3L6,6L3,6L3,3M9,3L12,3L12,6L9,6L9,3"></path>
 <path fill="black" d="M0,6L3,6L3,9L0,9L0,6M6,6L9,6L9,9L6,9L6,6M3,9L6,9L6,12L3,12L3,9M9,9L12,9L12,12L9,12L9,9"></path>
 </pattern>
 <pattern y="0" x="0" height="12" width="12" patternUnits="userSpaceOnUse" id="cp6pattern">
 <rect class="cp6color" height="12" width="12" y="0" x="0"></rect>
 <path fill="white" d="M0,0L3,0L3,3L0,3L0,0M6,0L9,0L9,3L6,3L6,0M3,3L6,3L6,6L3,6L3,3M9,3L12,3L12,6L9,6L9,3"></path>
 <path fill="white" d="M0,6L3,6L3,9L0,9L0,6M6,6L9,6L9,9L6,9L6,6M3,9L6,9L6,12L3,12L3,9M9,9L12,9L12,12L9,12L9,9"></path>
 </pattern>
 <pattern y="0" x="0" height="12" width="12" patternUnits="userSpaceOnUse" id="cp7pattern">
 <rect class="cp7color" height="12" width="12" y="0" x="0"></rect>
 <path fill="black" d="M0,0L3,0L3,3L0,3L0,0M6,0L9,0L9,3L6,3L6,0M3,3L6,3L6,6L3,6L3,3M9,3L12,3L12,6L9,6L9,3"></path>
 <path fill="black" d="M0,6L3,6L3,9L0,9L0,6M6,6L9,6L9,9L6,9L6,6M3,9L6,9L6,12L3,12L3,9M9,9L12,9L12,12L9,12L9,9"></path>
 </pattern>
 <pattern y="0" x="0" height="12" width="12" patternUnits="userSpaceOnUse" id="cp8pattern">
 <rect class="cp8color" height="12" width="12" y="0" x="0"></rect>
 <path fill="white" d="M0,0L3,0L3,3L0,3L0,0M6,0L9,0L9,3L6,3L6,0M3,3L6,3L6,6L3,6L3,3M9,3L12,3L12,6L9,6L9,3"></path>
 <path fill="white" d="M0,6L3,6L3,9L0,9L0,6M6,6L9,6L9,9L6,9L6,6M3,9L6,9L6,12L3,12L3,9M9,9L12,9L12,12L9,12L9,9"></path>
 </pattern>
 <pattern y="0" x="0" height="12" width="12" patternUnits="userSpaceOnUse" id="cp9pattern">
 <rect class="cp9color" height="12" width="12" y="0" x="0"></rect>
 <path fill="black" d="M0,0L3,0L3,3L0,3L0,0M6,0L9,0L9,3L6,3L6,0M3,3L6,3L6,6L3,6L3,3M9,3L12,3L12,6L9,6L9,3"></path>
 <path fill="black" d="M0,6L3,6L3,9L0,9L0,6M6,6L9,6L9,9L6,9L6,6M3,9L6,9L6,12L3,12L3,9M9,9L12,9L12,12L9,12L9,9"></path>
 </pattern>
 </defs>
 <rect height="100%" width="100%" y="0" x="0" class="road" id="mainfill"></rect>
 <g id="paths"><path d="M48,12L48,12L708,12L708,48L696,48L696,60L684,60L684,72L660,72L660,84L636,84L636,108L600,108L600,120L552,120L552,132L516,132L516,144L468,144L468,156L432,156L432,168L420,168L420,180L408,180L408,192L396,192L396,216L384,216L384,240L372,240L372,264L384,264L384,252L396,252L396,228L408,228L408,204L420,204L420,192L432,192L432,180L444,180L444,168L480,168L480,156L528,156L528,144L564,144L564,132L612,132L612,120L648,120L648,96L672,96L672,84L708,84L708,192L696,192L696,180L684,180L684,168L672,168L672,156L660,156L660,144L648,144L648,156L636,156L636,168L624,168L624,180L636,180L636,168L648,168L648,156L660,156L660,168L648,168L648,180L636,180L636,192L576,192L576,204L564,204L564,216L528,216L528,228L480,228L480,240L456,240L456,252L444,252L444,264L432,264L432,276L420,276L420,288L408,288L408,300L336,300L336,276L324,276L324,228L336,228L336,204L348,204L348,180L360,180L360,168L372,168L372,156L384,156L384,132L396,132L396,120L408,120L408,108L420,108L420,96L444,96L444,84L480,84L480,72L612,72L612,60L456,60L456,72L336,72L336,84L192,84L192,72L168,72L168,60L72,60L72,72L156,72L156,84L180,84L180,96L240,96L240,108L228,108L228,120L216,120L216,144L204,144L204,156L192,156L192,168L180,168L180,180L132,180L132,192L60,192L60,216L132,216L132,204L168,204L168,192L192,192L192,180L204,180L204,168L216,168L216,156L228,156L228,132L240,132L240,120L252,120L252,108L264,108L264,96L348,96L348,84L408,84L408,96L396,96L396,108L384,108L384,120L372,120L372,144L360,144L360,156L348,156L348,168L336,168L336,192L324,192L324,216L312,216L312,240L300,240L300,264L288,264L288,276L276,276L276,288L204,288L204,300L72,300L72,312L288,312L288,300L300,300L300,288L288,288L288,276L300,276L300,288L312,288L312,276L324,276L324,288L312,288L312,300L300,300L300,312L312,312L312,300L324,300L324,312L420,312L420,300L432,300L432,288L444,288L444,276L456,276L456,264L468,264L468,252L492,252L492,240L540,240L540,228L576,228L576,216L588,216L588,204L636,204L636,192L648,192L648,180L660,180L660,168L672,168L672,180L660,180L660,192L648,192L648,204L636,204L636,216L648,216L648,204L660,204L660,192L672,192L672,180L684,180L684,192L672,192L672,204L660,204L660,216L648,216L648,228L660,228L660,216L672,216L672,204L684,204L684,192L696,192L696,204L708,204L708,348L36,348L36,336L24,336L24,276L36,276L36,264L168,264L168,252L216,252L216,240L252,240L252,228L264,228L264,216L276,216L276,192L288,192L288,180L300,180L300,156L312,156L312,144L324,144L324,132L348,132L348,120L312,120L312,132L300,132L300,144L288,144L288,168L276,168L276,180L264,180L264,204L252,204L252,216L240,216L240,228L204,228L204,240L156,240L156,252L36,252L36,240L24,240L24,228L12,228L12,156L24,156L24,144L36,144L36,132L156,132L156,120L132,120L132,108L36,108L36,96L24,96L24,36L36,36L36,24L48,24L48,12M360,108L360,108L348,108L348,120L360,120Z" class="road"></path><path d="M612,60L612,60L684,60L684,72L612,72Z" class="cp1"></path><path d="M636,192L636,192L648,192L648,204L636,204L636,192M660,192L660,192L672,192L672,204L660,204L660,192M684,192L684,192L696,192L696,204L684,204Z" class="cp2"></path><path d="M24,300L24,300L72,300L72,312L24,312Z" class="cp3"></path><path d="M96,168L96,168L108,168L108,180L96,180Z" class="cp4"></path><path d="M528,264L528,264L540,264L540,276L528,276L528,264M540,276L540,276L552,276L552,312L540,312L540,300L528,300L528,312L516,312L516,276L528,276L528,288L540,288L540,276M564,264L564,264L588,264L588,276L576,276L576,288L588,288L588,276L600,276L600,288L588,288L588,300L576,300L576,312L564,312L564,264M612,264L612,264L624,264L624,312L612,312L612,264M588,300L588,300L600,300L600,312L588,312Z" class="cp5"></path><path d="M0,0L0,0L12,0L12,96L0,96Z" class="parc"></path><path d="M12,0L12,0L720,0L720,360L0,360L0,96L12,96L12,0M60,12L60,12L48,12L48,24L36,24L36,36L24,36L24,96L36,96L36,108L132,108L132,120L156,120L156,132L36,132L36,144L24,144L24,156L12,156L12,228L24,228L24,240L36,240L36,252L156,252L156,240L204,240L204,228L240,228L240,216L252,216L252,204L264,204L264,180L276,180L276,168L288,168L288,144L300,144L300,132L312,132L312,120L348,120L348,108L360,108L360,120L348,120L348,132L324,132L324,144L312,144L312,156L300,156L300,180L288,180L288,192L276,192L276,216L264,216L264,228L252,228L252,240L216,240L216,252L168,252L168,264L36,264L36,276L24,276L24,336L36,336L36,348L708,348L708,204L696,204L696,192L684,192L684,180L672,180L672,168L660,168L660,156L648,156L648,144L660,144L660,156L672,156L672,168L684,168L684,180L696,180L696,192L708,192L708,84L672,84L672,96L648,96L648,120L612,120L612,132L564,132L564,144L528,144L528,156L480,156L480,168L444,168L444,180L432,180L432,192L420,192L420,204L408,204L408,228L396,228L396,252L384,252L384,264L372,264L372,240L384,240L384,216L396,216L396,192L408,192L408,180L420,180L420,168L432,168L432,156L468,156L468,144L516,144L516,132L552,132L552,120L600,120L600,108L636,108L636,84L660,84L660,72L684,72L684,60L696,60L696,48L708,48L708,12L60,12M72,60L72,60L168,60L168,72L192,72L192,84L336,84L336,72L456,72L456,60L612,60L612,72L480,72L480,84L444,84L444,96L420,96L420,108L408,108L408,120L396,120L396,132L384,132L384,156L372,156L372,168L360,168L360,180L348,180L348,204L336,204L336,228L324,228L324,276L312,276L312,288L300,288L300,276L288,276L288,264L300,264L300,240L312,240L312,216L324,216L324,192L336,192L336,168L348,168L348,156L360,156L360,144L372,144L372,120L384,120L384,108L396,108L396,96L408,96L408,84L348,84L348,96L264,96L264,108L252,108L252,120L240,120L240,132L228,132L228,156L216,156L216,168L204,168L204,180L192,180L192,192L168,192L168,204L132,204L132,216L60,216L60,192L132,192L132,180L180,180L180,168L192,168L192,156L204,156L204,144L216,144L216,120L228,120L228,108L240,108L240,96L180,96L180,84L156,84L156,72L72,72L72,60M648,156L648,156L648,168L636,168L636,156L648,156M648,168L648,168L660,168L660,180L648,180L648,168M636,168L636,168L636,180L624,180L624,168L636,168M636,180L636,180L648,180L648,192L636,192L636,180M660,180L660,180L672,180L672,192L660,192L660,180M648,192L648,192L660,192L660,204L648,204L648,192M636,192L636,192L636,204L588,204L588,216L576,216L576,228L540,228L540,240L492,240L492,252L468,252L468,264L456,264L456,276L444,276L444,288L432,288L432,300L420,300L420,312L324,312L324,300L312,300L312,288L324,288L324,276L336,276L336,300L408,300L408,288L420,288L420,276L432,276L432,264L444,264L444,252L456,252L456,240L480,240L480,228L528,228L528,216L564,216L564,204L576,204L576,192L636,192M672,192L672,192L684,192L684,204L672,204L672,192M636,204L636,204L648,204L648,216L636,216L636,204M660,204L660,204L672,204L672,216L660,216L660,204M648,216L648,216L660,216L660,228L648,228L648,216M288,276L288,276L288,288L300,288L300,300L288,300L288,312L72,312L72,300L204,300L204,288L276,288L276,276L288,276M300,300L300,300L312,300L312,312L300,312Z" class="grass"></path><path d="M240,12L240,12L252,12L252,84L240,84Z" class="finish"></path><path d="M264,24L264,24L276,24L276,48L264,48L264,24M288,24L288,24L300,24L300,48L288,48L288,24M276,48L276,48L288,48L288,72L276,72L276,48M300,48L300,48L312,48L312,72L300,72Z" class="start"></path></g>
 <rect opacity=".3" fill="url(#grid)" height="100%" width="100%" y="0" x="0"></rect>
</svg>