<svg xmlns:xlink="http://www.w3.org/1999/xlink" xmlns="http://www.w3.org/2000/svg" height="516" width="756" id="mapSvgView" version="1.1" style="width: 756px; height: 516px;" viewBox="0 0 756 516">
 <defs>
 <pattern y="0" x="0" height="24" width="24" patternUnits="userSpaceOnUse" id="grassPattern">
 <rect class="grasscolor" height="24" width="24" y="0" x="0"></rect>
 <rect class="grassspeclecolor" height="1" width="1" x="1" y="5"></rect>
 <rect class="grassspeclecolor" height="1" width="1" x="1" y="5"></rect>
 <rect class="grassspeclecolor" height="1" width="1" x="3" y="5"></rect>
 <rect class="grassspeclecolor" height="1" width="1" x="6" y="7"></rect>
 <rect class="grassspeclecolor" height="1" width="1" x="6" y="17"></rect>
 <rect class="grassspeclecolor" height="1" width="1" x="8" y="21"></rect>
 <rect class="grassspeclecolor" height="1" width="1" x="9" y="2"></rect>
 <rect class="grassspeclecolor" height="1" width="1" x="12" y="4"></rect>
 <rect class="grassspeclecolor" height="1" width="1" x="13" y="15"></rect>
 <rect class="grassspeclecolor" height="1" width="1" x="14" y="4"></rect>
 <rect class="grassspeclecolor" height="1" width="1" x="14" y="19"></rect>
 <rect class="grassspeclecolor" height="1" width="1" x="17" y="7"></rect>
 <rect class="grassspeclecolor" height="1" width="1" x="17" y="12"></rect>
 <rect class="grassspeclecolor" height="1" width="1" x="18" y="23"></rect>
 <rect class="grassspeclecolor" height="1" width="1" x="21" y="16"></rect>
 <rect class="grassspeclecolor" height="1" width="1" x="23" y="12"></rect>
 </pattern>
 <pattern y="0" x="0" height="24" width="24" patternUnits="userSpaceOnUse" id="roadPattern">
 <rect class="roadcolor" height="24" width="24" y="0" x="0"></rect>
 <rect class="roadspeclecolor" height="1" width="1" x="1" y="5"></rect>
 <rect class="roadspeclecolor" height="1" width="1" x="1" y="5"></rect>
 <rect class="roadspeclecolor" height="1" width="1" x="3" y="5"></rect>
 <rect class="roadspeclecolor" height="1" width="1" x="6" y="7"></rect>
 <rect class="roadspeclecolor" height="1" width="1" x="6" y="17"></rect>
 <rect class="roadspeclecolor" height="1" width="1" x="8" y="21"></rect>
 <rect class="roadspeclecolor" height="1" width="1" x="9" y="2"></rect>
 <rect class="roadspeclecolor" height="1" width="1" x="12" y="4"></rect>
 <rect class="roadspeclecolor" height="1" width="1" x="13" y="15"></rect>
 <rect class="roadspeclecolor" height="1" width="1" x="14" y="4"></rect>
 <rect class="roadspeclecolor" height="1" width="1" x="14" y="19"></rect>
 <rect class="roadspeclecolor" height="1" width="1" x="17" y="7"></rect>
 <rect class="roadspeclecolor" height="1" width="1" x="17" y="12"></rect>
 <rect class="roadspeclecolor" height="1" width="1" x="18" y="23"></rect>
 <rect class="roadspeclecolor" height="1" width="1" x="21" y="16"></rect>
 <rect class="roadspeclecolor" height="1" width="1" x="23" y="12"></rect>
 </pattern>
 <pattern y="0" x="0" height="12" width="12" patternUnits="userSpaceOnUse" id="grid">
 <line stroke-width="1" stroke="black" y2="12" x2="12" y1="0" x1="12"></line>
 <line stroke-width="1" stroke="black" y2="12" x2="12" y1="12" x1="0"></line>
 </pattern>
 <pattern y="0" x="0" height="12" width="12" patternUnits="userSpaceOnUse" id="finishPattern">
 <rect fill="black" height="12" width="12" y="0" x="0"></rect>
 <path fill="white" d="M0,0L3,0L3,3L0,3L0,0M6,0L9,0L9,3L6,3L6,0M3,3L6,3L6,6L3,6L3,3M9,3L12,3L12,6L9,6L9,3"></path>
 <path fill="white" d="M0,6L3,6L3,9L0,9L0,6M6,6L9,6L9,9L6,9L6,6M3,9L6,9L6,12L3,12L3,9M9,9L12,9L12,12L9,12L9,9"></path>
 </pattern>
 <pattern y="0" x="0" height="12" width="12" patternUnits="userSpaceOnUse" id="startPattern">
 <rect fill="rgb(100,100,100)" height="12" width="12" y="0" x="0"></rect>
 <rect stroke-width="1" stroke="rgb(200,200,200)" fill="none" height="5" width="5" y="3.5" x="3.5"></rect>
 </pattern>
 <pattern y="0" x="0" height="12" width="12" patternUnits="userSpaceOnUse" id="cp1pattern">
 <rect class="cp1color" height="12" width="12" y="0" x="0"></rect>
 <path fill="black" d="M0,0L3,0L3,3L0,3L0,0M6,0L9,0L9,3L6,3L6,0M3,3L6,3L6,6L3,6L3,3M9,3L12,3L12,6L9,6L9,3"></path>
 <path fill="black" d="M0,6L3,6L3,9L0,9L0,6M6,6L9,6L9,9L6,9L6,6M3,9L6,9L6,12L3,12L3,9M9,9L12,9L12,12L9,12L9,9"></path>
 </pattern>
 <pattern y="0" x="0" height="12" width="12" patternUnits="userSpaceOnUse" id="cp2pattern">
 <rect class="cp2color" height="12" width="12" y="0" x="0"></rect>
 <path fill="white" d="M0,0L3,0L3,3L0,3L0,0M6,0L9,0L9,3L6,3L6,0M3,3L6,3L6,6L3,6L3,3M9,3L12,3L12,6L9,6L9,3"></path>
 <path fill="white" d="M0,6L3,6L3,9L0,9L0,6M6,6L9,6L9,9L6,9L6,6M3,9L6,9L6,12L3,12L3,9M9,9L12,9L12,12L9,12L9,9"></path>
 </pattern>
 <pattern y="0" x="0" height="12" width="12" patternUnits="userSpaceOnUse" id="cp3pattern">
 <rect class="cp3color" height="12" width="12" y="0" x="0"></rect>
 <path fill="black" d="M0,0L3,0L3,3L0,3L0,0M6,0L9,0L9,3L6,3L6,0M3,3L6,3L6,6L3,6L3,3M9,3L12,3L12,6L9,6L9,3"></path>
 <path fill="black" d="M0,6L3,6L3,9L0,9L0,6M6,6L9,6L9,9L6,9L6,6M3,9L6,9L6,12L3,12L3,9M9,9L12,9L12,12L9,12L9,9"></path>
 </pattern>
 <pattern y="0" x="0" height="12" width="12" patternUnits="userSpaceOnUse" id="cp4pattern">
 <rect class="cp4color" height="12" width="12" y="0" x="0"></rect>
 <path fill="white" d="M0,0L3,0L3,3L0,3L0,0M6,0L9,0L9,3L6,3L6,0M3,3L6,3L6,6L3,6L3,3M9,3L12,3L12,6L9,6L9,3"></path>
 <path fill="white" d="M0,6L3,6L3,9L0,9L0,6M6,6L9,6L9,9L6,9L6,6M3,9L6,9L6,12L3,12L3,9M9,9L12,9L12,12L9,12L9,9"></path>
 </pattern>
 <pattern y="0" x="0" height="12" width="12" patternUnits="userSpaceOnUse" id="cp5pattern">
 <rect class="cp5color" height="12" width="12" y="0" x="0"></rect>
 <path fill="black" d="M0,0L3,0L3,3L0,3L0,0M6,0L9,0L9,3L6,3L6,0M3,3L6,3L6,6L3,6L3,3M9,3L12,3L12,6L9,6L9,3"></path>
 <path fill="black" d="M0,6L3,6L3,9L0,9L0,6M6,6L9,6L9,9L6,9L6,6M3,9L6,9L6,12L3,12L3,9M9,9L12,9L12,12L9,12L9,9"></path>
 </pattern>
 <pattern y="0" x="0" height="12" width="12" patternUnits="userSpaceOnUse" id="cp6pattern">
 <rect class="cp6color" height="12" width="12" y="0" x="0"></rect>
 <path fill="white" d="M0,0L3,0L3,3L0,3L0,0M6,0L9,0L9,3L6,3L6,0M3,3L6,3L6,6L3,6L3,3M9,3L12,3L12,6L9,6L9,3"></path>
 <path fill="white" d="M0,6L3,6L3,9L0,9L0,6M6,6L9,6L9,9L6,9L6,6M3,9L6,9L6,12L3,12L3,9M9,9L12,9L12,12L9,12L9,9"></path>
 </pattern>
 <pattern y="0" x="0" height="12" width="12" patternUnits="userSpaceOnUse" id="cp7pattern">
 <rect class="cp7color" height="12" width="12" y="0" x="0"></rect>
 <path fill="black" d="M0,0L3,0L3,3L0,3L0,0M6,0L9,0L9,3L6,3L6,0M3,3L6,3L6,6L3,6L3,3M9,3L12,3L12,6L9,6L9,3"></path>
 <path fill="black" d="M0,6L3,6L3,9L0,9L0,6M6,6L9,6L9,9L6,9L6,6M3,9L6,9L6,12L3,12L3,9M9,9L12,9L12,12L9,12L9,9"></path>
 </pattern>
 <pattern y="0" x="0" height="12" width="12" patternUnits="userSpaceOnUse" id="cp8pattern">
 <rect class="cp8color" height="12" width="12" y="0" x="0"></rect>
 <path fill="white" d="M0,0L3,0L3,3L0,3L0,0M6,0L9,0L9,3L6,3L6,0M3,3L6,3L6,6L3,6L3,3M9,3L12,3L12,6L9,6L9,3"></path>
 <path fill="white" d="M0,6L3,6L3,9L0,9L0,6M6,6L9,6L9,9L6,9L6,6M3,9L6,9L6,12L3,12L3,9M9,9L12,9L12,12L9,12L9,9"></path>
 </pattern>
 <pattern y="0" x="0" height="12" width="12" patternUnits="userSpaceOnUse" id="cp9pattern">
 <rect class="cp9color" height="12" width="12" y="0" x="0"></rect>
 <path fill="black" d="M0,0L3,0L3,3L0,3L0,0M6,0L9,0L9,3L6,3L6,0M3,3L6,3L6,6L3,6L3,3M9,3L12,3L12,6L9,6L9,3"></path>
 <path fill="black" d="M0,6L3,6L3,9L0,9L0,6M6,6L9,6L9,9L6,9L6,6M3,9L6,9L6,12L3,12L3,9M9,9L12,9L12,12L9,12L9,9"></path>
 </pattern>
 </defs>
 <rect height="100%" width="100%" y="0" x="0" class="road" id="mainfill"></rect>
 <g id="paths"><path d="M12,12L12,12L744,12L744,408L696,408L696,420L660,420L660,432L636,432L636,444L576,444L576,456L552,456L552,468L384,468L384,456L336,456L336,444L288,444L288,432L264,432L264,420L216,420L216,408L180,408L180,396L132,396L132,384L84,384L84,372L12,372L12,324L120,324L120,312L216,312L216,300L324,300L324,252L216,252L216,240L120,240L120,228L12,228L12,12M504,108L504,108L492,108L492,120L504,120L504,108M480,120L480,120L468,120L468,132L456,132L456,144L444,144L444,156L456,156L456,144L468,144L468,132L480,132L480,120M408,144L408,144L396,144L396,156L384,156L384,168L372,168L372,180L360,180L360,192L348,192L348,204L336,204L336,216L324,216L324,252L384,252L384,300L324,300L324,348L288,348L288,360L240,360L240,372L192,372L192,384L240,384L240,396L288,396L288,408L324,408L324,420L420,420L420,432L432,432L432,444L528,444L528,432L552,432L552,420L588,420L588,408L600,408L600,396L576,396L576,384L552,384L552,372L528,372L528,360L504,360L504,348L480,348L480,216L468,216L468,204L456,204L456,192L432,192L432,168L420,168L420,156L408,156L408,144M648,336L648,336L636,336L636,396L660,396L660,336L648,336M48,420L48,420L60,420L60,432L48,432L48,420M60,432L60,432L72,432L72,468L60,468L60,456L48,456L48,468L36,468L36,432L48,432L48,444L60,444L60,432M84,420L84,420L108,420L108,432L96,432L96,444L108,444L108,432L120,432L120,444L108,444L108,456L96,456L96,468L84,468L84,420M132,420L132,420L144,420L144,468L132,468L132,420M108,456L108,456L120,456L120,468L108,468Z" class="road"></path><path d="M432,156L432,156L456,156L456,192L432,192Z" class="cp1"></path><path d="M108,36L108,36L120,36L120,48L108,48L108,36M60,48L60,48L72,48L72,60L60,60L60,48M156,48L156,48L168,48L168,60L156,60L156,48M300,48L300,48L312,48L312,60L300,60L300,48M204,60L204,60L216,60L216,72L204,72L204,60M300,96L300,96L312,96L312,108L300,108L300,96M228,108L228,108L240,108L240,120L228,120Z" class="cp2"></path><path d="M636,240L636,240L660,240L660,252L672,252L672,264L684,264L684,276L696,276L696,324L684,324L684,336L672,336L672,348L660,348L660,336L636,336L636,348L624,348L624,336L612,336L612,324L600,324L600,276L612,276L612,264L624,264L624,252L636,252Z" class="cp3"></path><path d="M132,384L132,384L240,384L240,396L288,396L288,408L324,408L324,420L420,420L420,432L432,432L432,444L528,444L528,432L552,432L552,420L588,420L588,408L600,408L600,396L744,396L744,408L696,408L696,420L660,420L660,432L636,432L636,444L576,444L576,456L552,456L552,468L384,468L384,456L336,456L336,444L288,444L288,432L264,432L264,420L216,420L216,408L180,408L180,396L132,396Z" class="cp4"></path><path d="M624,24L624,24L636,24L636,36L624,36L624,24M708,36L708,36L720,36L720,48L708,48L708,36M696,96L696,96L708,96L708,108L696,108L696,96M672,108L672,108L684,108L684,120L672,120L672,108M648,120L648,120L660,120L660,132L648,132L648,120M720,168L720,168L732,168L732,180L720,180L720,168M636,192L636,192L648,192L648,204L636,204L636,192M324,252L324,252L336,252L336,300L324,300L324,252M48,420L48,420L60,420L60,432L48,432L48,420M60,432L60,432L72,432L72,468L60,468L60,456L48,456L48,468L36,468L36,432L48,432L48,444L60,444L60,432M84,420L84,420L108,420L108,432L96,432L96,444L108,444L108,432L120,432L120,444L108,444L108,456L96,456L96,468L84,468L84,420M132,420L132,420L144,420L144,468L132,468L132,420M108,456L108,456L120,456L120,468L108,468Z" class="cp5"></path><path d="M528,48L528,48L552,48L552,60L564,60L564,72L576,72L576,108L564,108L564,120L552,120L552,132L528,132L528,120L540,120L540,108L552,108L552,72L540,72L540,60L528,60L528,48M336,252L336,252L384,252L384,300L336,300Z" class="cp6"></path><path d="M0,0L0,0L12,0L12,96L0,96L0,0M492,108L492,108L504,108L504,120L492,120L492,108M468,120L468,120L480,120L480,132L468,132L468,120M468,132L468,132L468,144L456,144L456,132L468,132M456,144L456,144L456,156L444,156L444,144L456,144M420,288L420,288L468,288L468,348L420,348Z" class="parc"></path><path d="M12,0L12,0L756,0L756,516L0,516L0,96L12,96L12,504L744,504L744,12L12,12L12,0M396,144L396,144L408,144L408,156L420,156L420,168L432,168L432,192L456,192L456,204L468,204L468,216L480,216L480,348L468,348L468,288L420,288L420,348L324,348L324,300L384,300L384,252L324,252L324,216L336,216L336,204L348,204L348,192L360,192L360,180L372,180L372,168L384,168L384,156L396,156L396,144M636,336L636,336L660,336L660,396L636,396Z" class="mud"></path><path d="M12,12L12,12L24,12L24,108L12,108Z" class="start"></path><path d="M12,228L12,228L120,228L120,240L216,240L216,252L324,252L324,300L216,300L216,312L120,312L120,324L12,324Z" class="sand"></path><path d="M12,324L12,324L24,324L24,372L12,372Z" class="finish"></path><path d="M288,348L288,348L504,348L504,360L528,360L528,372L552,372L552,384L576,384L576,396L600,396L600,408L588,408L588,420L552,420L552,432L528,432L528,444L432,444L432,432L420,432L420,420L324,420L324,408L288,408L288,396L240,396L240,384L192,384L192,372L240,372L240,360L288,360L288,348M12,372L12,372L84,372L84,384L132,384L132,396L180,396L180,408L216,408L216,420L264,420L264,432L288,432L288,444L336,444L336,456L384,456L384,468L552,468L552,456L576,456L576,444L636,444L636,432L660,432L660,420L696,420L696,408L744,408L744,504L12,504L12,372M60,420L60,420L48,420L48,432L36,432L36,468L48,468L48,456L60,456L60,468L72,468L72,432L60,432L60,420M96,420L96,420L84,420L84,468L96,468L96,456L108,456L108,444L96,444L96,432L108,432L108,420L96,420M144,420L144,420L132,420L132,468L144,468L144,420M48,432L48,432L60,432L60,444L48,444L48,432M120,432L120,432L108,432L108,444L120,444L120,432M120,456L120,456L108,456L108,468L120,468Z" class="grass"></path></g>
 <rect opacity=".3" fill="url(#grid)" height="100%" width="100%" y="0" x="0"></rect>
</svg>