<svg xmlns="http://www.w3.org/2000/svg" xmlns:xlink="http://www.w3.org/1999/xlink" version="1.1" id="mapSvgView" width="468" height="312"> <rect id="mainfill" class="grass" x="0" y="0" width="100%" height="100%"></rect> <g id="paths"><path d="M348,132L348,132L372,132L372,180L348,180Z" class="cp1"></path><path d="M156,144L156,144L204,144L204,168L156,168Z" class="cp2"></path><path d="M312,12L312,12L396,12L396,24L420,24L420,48L432,48L432,84L444,84L444,240L432,240L432,264L420,264L420,288L396,288L396,300L312,300L312,288L372,288L372,276L396,276L396,264L408,264L408,240L420,240L420,168L408,168L408,144L420,144L420,72L408,72L408,48L396,48L396,36L372,36L372,24L312,24L312,12M0,24L0,24L24,24L24,60L0,60L0,24M180,72L180,72L336,72L336,84L348,84L348,96L360,96L360,108L384,108L384,120L372,120L372,132L348,132L348,120L336,120L336,108L324,108L324,96L180,96L180,108L168,108L168,120L156,120L156,192L168,192L168,204L180,204L180,216L324,216L324,204L336,204L336,192L348,192L348,180L372,180L372,192L384,192L384,204L360,204L360,216L348,216L348,228L336,228L336,240L180,240L180,228L168,228L168,216L156,216L156,204L144,204L144,192L132,192L132,120L144,120L144,108L156,108L156,96L168,96L168,84L180,84L180,72M120,96L120,96L132,96L132,108L120,108L120,96M120,108L120,108L120,120L108,120L108,108L120,108M108,120L108,120L108,180L84,180L84,204L72,204L72,180L48,180L48,120L108,120M72,132L72,132L60,132L60,168L96,168L96,132L72,132M72,144L72,144L84,144L84,156L72,156L72,144M0,252L0,252L24,252L24,288L0,288Z" class="sand"></path><path d="M24,24L24,24L36,24L36,60L24,60L24,24M24,252L24,252L36,252L36,288L24,288Z" class="finish"></path><path d="M36,24L36,24L108,24L108,36L120,36L120,24L132,24L132,36L120,36L120,48L108,48L108,60L36,60L36,24M132,36L132,36L144,36L144,24L372,24L372,36L396,36L396,48L408,48L408,72L420,72L420,144L408,144L408,168L420,168L420,240L408,240L408,264L396,264L396,276L372,276L372,288L144,288L144,276L132,276L132,264L120,264L120,252L132,252L132,264L144,264L144,252L348,252L348,240L372,240L372,216L384,216L384,192L372,192L372,120L384,120L384,96L372,96L372,72L348,72L348,60L144,60L144,48L132,48L132,36M120,48L120,48L132,48L132,60L120,60L120,48M180,96L180,96L324,96L324,108L336,108L336,120L348,120L348,192L336,192L336,204L324,204L324,216L180,216L180,204L168,204L168,192L156,192L156,168L216,168L216,180L300,180L300,168L324,168L324,144L300,144L300,132L216,132L216,144L156,144L156,120L168,120L168,108L180,108L180,96M36,252L36,252L108,252L108,264L120,264L120,276L108,276L108,288L36,288L36,252M120,276L120,276L132,276L132,288L120,288Z" class="road"></path><path d="M108,24L108,24L120,24L120,36L108,36L108,24M120,36L120,36L132,36L132,24L144,24L144,36L132,36L132,48L120,48L120,36M132,48L132,48L144,48L144,60L132,60L132,48M120,48L120,48L120,60L108,60L108,48L120,48M108,252L108,252L120,252L120,264L108,264L108,252M120,264L120,264L132,264L132,252L144,252L144,264L132,264L132,276L120,276L120,264M132,276L132,276L144,276L144,288L132,288L132,276M120,276L120,276L120,288L108,288L108,276Z" class="start"></path><path d="M24,96L24,96L36,96L36,216L24,216Z" class="parc"></path></g></svg>