<svg xmlns="http://www.w3.org/2000/svg" xmlns:xlink="http://www.w3.org/1999/xlink" version="1.1" id="mapSvgView" width="696" height="360"> <rect id="mainfill" class="grass" x="0" y="0" width="100%" height="100%"></rect> <g id="paths"><path d="M516,132L516,132L552,132L552,144L516,144Z" class="cp1"></path><path d="M396,180L396,180L432,180L432,192L396,192Z" class="cp2"></path><path d="M180,156L180,156L216,156L216,168L180,168Z" class="cp3"></path><path d="M0,0L0,0L12,0L12,60L0,60Z" class="parc"></path><path d="M120,12L120,12L252,12L252,60L204,60L204,48L132,48L132,60L120,60L120,84L132,84L132,96L192,96L192,108L216,108L216,156L180,156L180,132L108,132L108,120L96,120L96,108L84,108L84,48L96,48L96,36L108,36L108,24L120,24L120,12M276,12L276,12L648,12L648,24L660,24L660,36L648,36L648,48L636,48L636,60L624,60L624,72L612,72L612,84L600,84L600,96L588,96L588,108L576,108L576,120L564,120L564,132L528,132L528,120L540,120L540,108L552,108L552,96L564,96L564,84L576,84L576,72L588,72L588,60L600,60L600,48L432,48L432,60L372,60L372,72L276,72L276,12M372,84L372,84L456,84L456,96L468,96L468,108L480,108L480,144L468,144L468,156L456,156L456,168L444,168L444,180L408,180L408,168L420,168L420,156L432,156L432,144L444,144L444,120L372,120L372,132L360,132L360,144L348,144L348,156L336,156L336,168L324,168L324,180L312,180L312,204L300,204L300,228L312,228L312,240L324,240L324,252L336,252L336,264L348,264L348,276L360,276L360,324L348,324L348,336L336,336L336,348L144,348L144,336L84,336L84,324L72,324L72,312L60,312L60,300L48,300L48,288L36,288L36,276L24,276L24,264L12,264L12,192L24,192L24,180L180,180L180,168L216,168L216,192L204,192L204,204L192,204L192,216L48,216L48,264L60,264L60,276L72,276L72,288L84,288L84,300L144,300L144,312L180,312L180,324L324,324L324,276L312,276L312,264L300,264L300,252L288,252L288,240L276,240L276,180L288,180L288,168L300,168L300,156L312,156L312,144L324,144L324,132L336,132L336,120L348,120L348,108L360,108L360,96L372,96L372,84M504,144L504,144L540,144L540,156L528,156L528,168L516,168L516,180L672,180L672,192L684,192L684,336L672,336L672,348L552,348L552,336L528,336L528,252L504,252L504,300L492,300L492,312L480,312L480,324L396,324L396,312L384,312L384,288L372,288L372,228L384,228L384,192L420,192L420,204L408,204L408,288L420,288L420,300L480,300L480,240L492,240L492,228L552,228L552,240L564,240L564,312L648,312L648,216L480,216L480,204L468,204L468,180L480,180L480,168L492,168L492,156L504,156Z" class="road"></path><path d="M252,12L252,12L264,12L264,60L252,60Z" class="finish"></path><path d="M264,12L264,12L276,12L276,72L264,72Z" class="start"></path></g></svg>