<svg xmlns:xlink="http://www.w3.org/1999/xlink" xmlns="http://www.w3.org/2000/svg" height="516" width="840" id="mapSvgView" version="1.1" style="width: 840px; height: 516px;" viewBox="0 0 840 516">
 <defs>
 <pattern y="0" x="0" height="24" width="24" patternUnits="userSpaceOnUse" id="grassPattern">
 <rect class="grasscolor" height="24" width="24" y="0" x="0"></rect>
 <rect class="grassspeclecolor" height="1" width="1" x="1" y="5"></rect>
 <rect class="grassspeclecolor" height="1" width="1" x="1" y="5"></rect>
 <rect class="grassspeclecolor" height="1" width="1" x="3" y="5"></rect>
 <rect class="grassspeclecolor" height="1" width="1" x="6" y="7"></rect>
 <rect class="grassspeclecolor" height="1" width="1" x="6" y="17"></rect>
 <rect class="grassspeclecolor" height="1" width="1" x="8" y="21"></rect>
 <rect class="grassspeclecolor" height="1" width="1" x="9" y="2"></rect>
 <rect class="grassspeclecolor" height="1" width="1" x="12" y="4"></rect>
 <rect class="grassspeclecolor" height="1" width="1" x="13" y="15"></rect>
 <rect class="grassspeclecolor" height="1" width="1" x="14" y="4"></rect>
 <rect class="grassspeclecolor" height="1" width="1" x="14" y="19"></rect>
 <rect class="grassspeclecolor" height="1" width="1" x="17" y="7"></rect>
 <rect class="grassspeclecolor" height="1" width="1" x="17" y="12"></rect>
 <rect class="grassspeclecolor" height="1" width="1" x="18" y="23"></rect>
 <rect class="grassspeclecolor" height="1" width="1" x="21" y="16"></rect>
 <rect class="grassspeclecolor" height="1" width="1" x="23" y="12"></rect>
 </pattern>
 <pattern y="0" x="0" height="24" width="24" patternUnits="userSpaceOnUse" id="roadPattern">
 <rect class="roadcolor" height="24" width="24" y="0" x="0"></rect>
 <rect class="roadspeclecolor" height="1" width="1" x="1" y="5"></rect>
 <rect class="roadspeclecolor" height="1" width="1" x="1" y="5"></rect>
 <rect class="roadspeclecolor" height="1" width="1" x="3" y="5"></rect>
 <rect class="roadspeclecolor" height="1" width="1" x="6" y="7"></rect>
 <rect class="roadspeclecolor" height="1" width="1" x="6" y="17"></rect>
 <rect class="roadspeclecolor" height="1" width="1" x="8" y="21"></rect>
 <rect class="roadspeclecolor" height="1" width="1" x="9" y="2"></rect>
 <rect class="roadspeclecolor" height="1" width="1" x="12" y="4"></rect>
 <rect class="roadspeclecolor" height="1" width="1" x="13" y="15"></rect>
 <rect class="roadspeclecolor" height="1" width="1" x="14" y="4"></rect>
 <rect class="roadspeclecolor" height="1" width="1" x="14" y="19"></rect>
 <rect class="roadspeclecolor" height="1" width="1" x="17" y="7"></rect>
 <rect class="roadspeclecolor" height="1" width="1" x="17" y="12"></rect>
 <rect class="roadspeclecolor" height="1" width="1" x="18" y="23"></rect>
 <rect class="roadspeclecolor" height="1" width="1" x="21" y="16"></rect>
 <rect class="roadspeclecolor" height="1" width="1" x="23" y="12"></rect>
 </pattern>
 <pattern y="0" x="0" height="12" width="12" patternUnits="userSpaceOnUse" id="grid">
 <line stroke-width="1" stroke="black" y2="12" x2="12" y1="0" x1="12"></line>
 <line stroke-width="1" stroke="black" y2="12" x2="12" y1="12" x1="0"></line>
 </pattern>
 <pattern y="0" x="0" height="12" width="12" patternUnits="userSpaceOnUse" id="finishPattern">
 <rect fill="black" height="12" width="12" y="0" x="0"></rect>
 <path fill="white" d="M0,0L3,0L3,3L0,3L0,0M6,0L9,0L9,3L6,3L6,0M3,3L6,3L6,6L3,6L3,3M9,3L12,3L12,6L9,6L9,3"></path>
 <path fill="white" d="M0,6L3,6L3,9L0,9L0,6M6,6L9,6L9,9L6,9L6,6M3,9L6,9L6,12L3,12L3,9M9,9L12,9L12,12L9,12L9,9"></path>
 </pattern>
 <pattern y="0" x="0" height="12" width="12" patternUnits="userSpaceOnUse" id="startPattern">
 <rect fill="rgb(100,100,100)" height="12" width="12" y="0" x="0"></rect>
 <rect stroke-width="1" stroke="rgb(200,200,200)" fill="none" height="5" width="5" y="3.5" x="3.5"></rect>
 </pattern>
 <pattern y="0" x="0" height="12" width="12" patternUnits="userSpaceOnUse" id="cp1pattern">
 <rect class="cp1color" height="12" width="12" y="0" x="0"></rect>
 <path fill="black" d="M0,0L3,0L3,3L0,3L0,0M6,0L9,0L9,3L6,3L6,0M3,3L6,3L6,6L3,6L3,3M9,3L12,3L12,6L9,6L9,3"></path>
 <path fill="black" d="M0,6L3,6L3,9L0,9L0,6M6,6L9,6L9,9L6,9L6,6M3,9L6,9L6,12L3,12L3,9M9,9L12,9L12,12L9,12L9,9"></path>
 </pattern>
 <pattern y="0" x="0" height="12" width="12" patternUnits="userSpaceOnUse" id="cp2pattern">
 <rect class="cp2color" height="12" width="12" y="0" x="0"></rect>
 <path fill="white" d="M0,0L3,0L3,3L0,3L0,0M6,0L9,0L9,3L6,3L6,0M3,3L6,3L6,6L3,6L3,3M9,3L12,3L12,6L9,6L9,3"></path>
 <path fill="white" d="M0,6L3,6L3,9L0,9L0,6M6,6L9,6L9,9L6,9L6,6M3,9L6,9L6,12L3,12L3,9M9,9L12,9L12,12L9,12L9,9"></path>
 </pattern>
 <pattern y="0" x="0" height="12" width="12" patternUnits="userSpaceOnUse" id="cp3pattern">
 <rect class="cp3color" height="12" width="12" y="0" x="0"></rect>
 <path fill="black" d="M0,0L3,0L3,3L0,3L0,0M6,0L9,0L9,3L6,3L6,0M3,3L6,3L6,6L3,6L3,3M9,3L12,3L12,6L9,6L9,3"></path>
 <path fill="black" d="M0,6L3,6L3,9L0,9L0,6M6,6L9,6L9,9L6,9L6,6M3,9L6,9L6,12L3,12L3,9M9,9L12,9L12,12L9,12L9,9"></path>
 </pattern>
 <pattern y="0" x="0" height="12" width="12" patternUnits="userSpaceOnUse" id="cp4pattern">
 <rect class="cp4color" height="12" width="12" y="0" x="0"></rect>
 <path fill="white" d="M0,0L3,0L3,3L0,3L0,0M6,0L9,0L9,3L6,3L6,0M3,3L6,3L6,6L3,6L3,3M9,3L12,3L12,6L9,6L9,3"></path>
 <path fill="white" d="M0,6L3,6L3,9L0,9L0,6M6,6L9,6L9,9L6,9L6,6M3,9L6,9L6,12L3,12L3,9M9,9L12,9L12,12L9,12L9,9"></path>
 </pattern>
 <pattern y="0" x="0" height="12" width="12" patternUnits="userSpaceOnUse" id="cp5pattern">
 <rect class="cp5color" height="12" width="12" y="0" x="0"></rect>
 <path fill="black" d="M0,0L3,0L3,3L0,3L0,0M6,0L9,0L9,3L6,3L6,0M3,3L6,3L6,6L3,6L3,3M9,3L12,3L12,6L9,6L9,3"></path>
 <path fill="black" d="M0,6L3,6L3,9L0,9L0,6M6,6L9,6L9,9L6,9L6,6M3,9L6,9L6,12L3,12L3,9M9,9L12,9L12,12L9,12L9,9"></path>
 </pattern>
 <pattern y="0" x="0" height="12" width="12" patternUnits="userSpaceOnUse" id="cp6pattern">
 <rect class="cp6color" height="12" width="12" y="0" x="0"></rect>
 <path fill="white" d="M0,0L3,0L3,3L0,3L0,0M6,0L9,0L9,3L6,3L6,0M3,3L6,3L6,6L3,6L3,3M9,3L12,3L12,6L9,6L9,3"></path>
 <path fill="white" d="M0,6L3,6L3,9L0,9L0,6M6,6L9,6L9,9L6,9L6,6M3,9L6,9L6,12L3,12L3,9M9,9L12,9L12,12L9,12L9,9"></path>
 </pattern>
 <pattern y="0" x="0" height="12" width="12" patternUnits="userSpaceOnUse" id="cp7pattern">
 <rect class="cp7color" height="12" width="12" y="0" x="0"></rect>
 <path fill="black" d="M0,0L3,0L3,3L0,3L0,0M6,0L9,0L9,3L6,3L6,0M3,3L6,3L6,6L3,6L3,3M9,3L12,3L12,6L9,6L9,3"></path>
 <path fill="black" d="M0,6L3,6L3,9L0,9L0,6M6,6L9,6L9,9L6,9L6,6M3,9L6,9L6,12L3,12L3,9M9,9L12,9L12,12L9,12L9,9"></path>
 </pattern>
 <pattern y="0" x="0" height="12" width="12" patternUnits="userSpaceOnUse" id="cp8pattern">
 <rect class="cp8color" height="12" width="12" y="0" x="0"></rect>
 <path fill="white" d="M0,0L3,0L3,3L0,3L0,0M6,0L9,0L9,3L6,3L6,0M3,3L6,3L6,6L3,6L3,3M9,3L12,3L12,6L9,6L9,3"></path>
 <path fill="white" d="M0,6L3,6L3,9L0,9L0,6M6,6L9,6L9,9L6,9L6,6M3,9L6,9L6,12L3,12L3,9M9,9L12,9L12,12L9,12L9,9"></path>
 </pattern>
 <pattern y="0" x="0" height="12" width="12" patternUnits="userSpaceOnUse" id="cp9pattern">
 <rect class="cp9color" height="12" width="12" y="0" x="0"></rect>
 <path fill="black" d="M0,0L3,0L3,3L0,3L0,0M6,0L9,0L9,3L6,3L6,0M3,3L6,3L6,6L3,6L3,3M9,3L12,3L12,6L9,6L9,3"></path>
 <path fill="black" d="M0,6L3,6L3,9L0,9L0,6M6,6L9,6L9,9L6,9L6,6M3,9L6,9L6,12L3,12L3,9M9,9L12,9L12,12L9,12L9,9"></path>
 </pattern>
 </defs>
 <rect height="100%" width="100%" y="0" x="0" class="grass" id="mainfill"></rect>
 <g id="paths"><path d="M252,12L252,12L276,12L276,24L288,24L288,36L300,36L300,108L312,108L312,120L324,120L324,132L336,132L336,144L348,144L348,156L372,156L372,168L396,168L396,180L408,180L408,192L432,192L432,204L516,204L516,216L552,216L552,228L648,228L648,216L768,216L768,204L816,204L816,216L828,216L828,252L816,252L816,264L792,264L792,276L756,276L756,288L696,288L696,300L672,300L672,312L636,312L636,324L552,324L552,312L528,312L528,300L504,300L504,288L480,288L480,300L468,300L468,324L480,324L480,360L468,360L468,372L456,372L456,384L444,384L444,396L420,396L420,408L396,408L396,420L348,420L348,432L324,432L324,444L300,444L300,456L276,456L276,468L240,468L240,456L228,456L228,444L216,444L216,432L204,432L204,408L192,408L192,384L180,384L180,360L168,360L168,348L156,348L156,324L144,324L144,372L156,372L156,384L168,384L168,396L180,396L180,420L192,420L192,480L180,480L180,492L156,492L156,504L108,504L108,492L96,492L96,480L84,480L84,456L72,456L72,408L60,408L60,372L48,372L48,348L36,348L36,312L24,312L24,192L36,192L36,168L48,168L48,156L60,156L60,144L72,144L72,132L84,132L84,120L108,120L108,108L120,108L120,96L132,96L132,84L144,84L144,72L168,72L168,60L192,60L192,48L216,48L216,36L228,36L228,24L252,24L252,12M264,48L264,48L252,48L252,60L240,60L240,72L216,72L216,84L204,84L204,96L180,96L180,108L156,108L156,120L144,120L144,132L132,132L132,144L120,144L120,156L96,156L96,168L84,168L84,192L72,192L72,336L84,336L84,372L96,372L96,432L108,432L108,468L120,468L120,480L132,480L132,468L156,468L156,420L144,420L144,408L132,408L132,396L120,396L120,384L108,384L108,300L120,300L120,288L168,288L168,300L180,300L180,312L192,312L192,336L204,336L204,360L216,360L216,384L228,384L228,408L240,408L240,420L252,420L252,432L276,432L276,420L312,420L312,408L336,408L336,396L360,396L360,384L384,384L384,372L432,372L432,360L444,360L444,324L432,324L432,288L444,288L444,264L456,264L456,252L492,252L492,264L528,264L528,276L564,276L564,288L636,288L636,276L684,276L684,264L732,264L732,252L756,252L756,240L720,240L720,252L672,252L672,264L540,264L540,252L504,252L504,240L432,240L432,228L408,228L408,216L384,216L384,204L360,204L360,192L348,192L348,180L336,180L336,168L324,168L324,156L300,156L300,144L288,144L288,132L276,132L276,108L264,108Z" class="road"></path><path d="M444,204L444,204L468,204L468,240L444,240Z" class="cp1"></path><path d="M252,432L252,432L276,432L276,468L252,468Z" class="cp2"></path><path d="M0,0L0,0L12,0L12,96L0,96Z" class="parc"></path><path d="M312,36L312,36L324,36L324,60L336,60L336,36L348,36L348,96L336,96L336,72L324,72L324,96L312,96L312,36M372,36L372,36L396,36L396,48L372,48L372,36M372,48L372,48L372,84L360,84L360,48L372,48M396,48L396,48L408,48L408,84L396,84L396,48M432,36L432,36L456,36L456,48L432,48L432,36M432,48L432,48L432,84L420,84L420,48L432,48M468,36L468,36L480,36L480,60L492,60L492,48L504,48L504,36L516,36L516,48L504,48L504,60L492,60L492,72L480,72L480,96L468,96L468,36M528,36L528,36L564,36L564,48L540,48L540,60L552,60L552,72L540,72L540,84L564,84L564,96L528,96L528,36M576,36L576,36L588,36L588,48L600,48L600,60L588,60L588,96L576,96L576,36M624,36L624,36L636,36L636,96L624,96L624,84L612,84L612,72L600,72L600,60L612,60L612,72L624,72L624,36M648,36L648,36L660,36L660,60L672,60L672,36L684,36L684,96L672,96L672,72L660,72L660,96L648,96L648,36M696,36L696,36L732,36L732,48L708,48L708,60L720,60L720,72L708,72L708,84L732,84L732,96L696,96L696,36M744,36L744,36L756,36L756,96L744,96L744,36M768,36L768,36L780,36L780,48L792,48L792,60L780,60L780,96L768,96L768,36M816,36L816,36L828,36L828,96L816,96L816,60L804,60L804,48L816,48L816,36M792,60L792,60L804,60L804,72L792,72L792,60M492,72L492,72L504,72L504,84L492,84L492,72M372,84L372,84L396,84L396,96L372,96L372,84M432,84L432,84L456,84L456,96L432,96L432,84M504,84L504,84L516,84L516,96L504,96L504,84M516,108L516,108L540,108L540,120L516,120L516,108M516,120L516,120L516,156L504,156L504,120L516,120M564,108L564,108L600,108L600,120L576,120L576,132L588,132L588,144L576,144L576,156L600,156L600,168L564,168L564,108M612,108L612,108L648,108L648,120L624,120L624,144L648,144L648,120L660,120L660,144L648,144L648,156L624,156L624,168L612,168L612,108M528,132L528,132L552,132L552,156L540,156L540,144L528,144L528,132M516,156L516,156L540,156L540,168L516,168L516,156M648,156L648,156L660,156L660,168L648,168Z" class="sand"></path><path d="M24,204L24,204L72,204L72,216L24,216Z" class="finish"></path><path d="M24,228L24,228L48,228L48,240L24,240L24,228M48,240L48,240L72,240L72,252L48,252L48,240M48,252L48,252L48,264L24,264L24,252L48,252M48,264L48,264L72,264L72,276L48,276Z" class="start"></path></g>
 <rect opacity=".3" fill="url(#grid)" height="100%" width="100%" y="0" x="0"></rect>
</svg>