<svg xmlns:xlink="http://www.w3.org/1999/xlink" xmlns="http://www.w3.org/2000/svg" height="1008" width="1440" id="mapSvgView" version="1.1" style="width: 1440px; height: 1008px;" viewBox="0 0 1440 1008">
 <defs>
 <pattern y="0" x="0" height="24" width="24" patternUnits="userSpaceOnUse" id="grassPattern">
 <rect class="grasscolor" height="24" width="24" y="0" x="0"></rect>
 <rect class="grassspeclecolor" height="1" width="1" x="1" y="5"></rect>
 <rect class="grassspeclecolor" height="1" width="1" x="1" y="5"></rect>
 <rect class="grassspeclecolor" height="1" width="1" x="3" y="5"></rect>
 <rect class="grassspeclecolor" height="1" width="1" x="6" y="7"></rect>
 <rect class="grassspeclecolor" height="1" width="1" x="6" y="17"></rect>
 <rect class="grassspeclecolor" height="1" width="1" x="8" y="21"></rect>
 <rect class="grassspeclecolor" height="1" width="1" x="9" y="2"></rect>
 <rect class="grassspeclecolor" height="1" width="1" x="12" y="4"></rect>
 <rect class="grassspeclecolor" height="1" width="1" x="13" y="15"></rect>
 <rect class="grassspeclecolor" height="1" width="1" x="14" y="4"></rect>
 <rect class="grassspeclecolor" height="1" width="1" x="14" y="19"></rect>
 <rect class="grassspeclecolor" height="1" width="1" x="17" y="7"></rect>
 <rect class="grassspeclecolor" height="1" width="1" x="17" y="12"></rect>
 <rect class="grassspeclecolor" height="1" width="1" x="18" y="23"></rect>
 <rect class="grassspeclecolor" height="1" width="1" x="21" y="16"></rect>
 <rect class="grassspeclecolor" height="1" width="1" x="23" y="12"></rect>
 </pattern>
 <pattern y="0" x="0" height="24" width="24" patternUnits="userSpaceOnUse" id="roadPattern">
 <rect class="roadcolor" height="24" width="24" y="0" x="0"></rect>
 <rect class="roadspeclecolor" height="1" width="1" x="1" y="5"></rect>
 <rect class="roadspeclecolor" height="1" width="1" x="1" y="5"></rect>
 <rect class="roadspeclecolor" height="1" width="1" x="3" y="5"></rect>
 <rect class="roadspeclecolor" height="1" width="1" x="6" y="7"></rect>
 <rect class="roadspeclecolor" height="1" width="1" x="6" y="17"></rect>
 <rect class="roadspeclecolor" height="1" width="1" x="8" y="21"></rect>
 <rect class="roadspeclecolor" height="1" width="1" x="9" y="2"></rect>
 <rect class="roadspeclecolor" height="1" width="1" x="12" y="4"></rect>
 <rect class="roadspeclecolor" height="1" width="1" x="13" y="15"></rect>
 <rect class="roadspeclecolor" height="1" width="1" x="14" y="4"></rect>
 <rect class="roadspeclecolor" height="1" width="1" x="14" y="19"></rect>
 <rect class="roadspeclecolor" height="1" width="1" x="17" y="7"></rect>
 <rect class="roadspeclecolor" height="1" width="1" x="17" y="12"></rect>
 <rect class="roadspeclecolor" height="1" width="1" x="18" y="23"></rect>
 <rect class="roadspeclecolor" height="1" width="1" x="21" y="16"></rect>
 <rect class="roadspeclecolor" height="1" width="1" x="23" y="12"></rect>
 </pattern>
 <pattern y="0" x="0" height="12" width="12" patternUnits="userSpaceOnUse" id="grid">
 <line stroke-width="1" stroke="black" y2="12" x2="12" y1="0" x1="12"></line>
 <line stroke-width="1" stroke="black" y2="12" x2="12" y1="12" x1="0"></line>
 </pattern>
 <pattern y="0" x="0" height="12" width="12" patternUnits="userSpaceOnUse" id="finishPattern">
 <rect fill="black" height="12" width="12" y="0" x="0"></rect>
 <path fill="white" d="M0,0L3,0L3,3L0,3L0,0M6,0L9,0L9,3L6,3L6,0M3,3L6,3L6,6L3,6L3,3M9,3L12,3L12,6L9,6L9,3"></path>
 <path fill="white" d="M0,6L3,6L3,9L0,9L0,6M6,6L9,6L9,9L6,9L6,6M3,9L6,9L6,12L3,12L3,9M9,9L12,9L12,12L9,12L9,9"></path>
 </pattern>
 <pattern y="0" x="0" height="12" width="12" patternUnits="userSpaceOnUse" id="startPattern">
 <rect fill="rgb(100,100,100)" height="12" width="12" y="0" x="0"></rect>
 <rect stroke-width="1" stroke="rgb(200,200,200)" fill="none" height="5" width="5" y="3.5" x="3.5"></rect>
 </pattern>
 <pattern y="0" x="0" height="12" width="12" patternUnits="userSpaceOnUse" id="cp1pattern">
 <rect class="cp1color" height="12" width="12" y="0" x="0"></rect>
 <path fill="black" d="M0,0L3,0L3,3L0,3L0,0M6,0L9,0L9,3L6,3L6,0M3,3L6,3L6,6L3,6L3,3M9,3L12,3L12,6L9,6L9,3"></path>
 <path fill="black" d="M0,6L3,6L3,9L0,9L0,6M6,6L9,6L9,9L6,9L6,6M3,9L6,9L6,12L3,12L3,9M9,9L12,9L12,12L9,12L9,9"></path>
 </pattern>
 <pattern y="0" x="0" height="12" width="12" patternUnits="userSpaceOnUse" id="cp2pattern">
 <rect class="cp2color" height="12" width="12" y="0" x="0"></rect>
 <path fill="white" d="M0,0L3,0L3,3L0,3L0,0M6,0L9,0L9,3L6,3L6,0M3,3L6,3L6,6L3,6L3,3M9,3L12,3L12,6L9,6L9,3"></path>
 <path fill="white" d="M0,6L3,6L3,9L0,9L0,6M6,6L9,6L9,9L6,9L6,6M3,9L6,9L6,12L3,12L3,9M9,9L12,9L12,12L9,12L9,9"></path>
 </pattern>
 <pattern y="0" x="0" height="12" width="12" patternUnits="userSpaceOnUse" id="cp3pattern">
 <rect class="cp3color" height="12" width="12" y="0" x="0"></rect>
 <path fill="black" d="M0,0L3,0L3,3L0,3L0,0M6,0L9,0L9,3L6,3L6,0M3,3L6,3L6,6L3,6L3,3M9,3L12,3L12,6L9,6L9,3"></path>
 <path fill="black" d="M0,6L3,6L3,9L0,9L0,6M6,6L9,6L9,9L6,9L6,6M3,9L6,9L6,12L3,12L3,9M9,9L12,9L12,12L9,12L9,9"></path>
 </pattern>
 <pattern y="0" x="0" height="12" width="12" patternUnits="userSpaceOnUse" id="cp4pattern">
 <rect class="cp4color" height="12" width="12" y="0" x="0"></rect>
 <path fill="white" d="M0,0L3,0L3,3L0,3L0,0M6,0L9,0L9,3L6,3L6,0M3,3L6,3L6,6L3,6L3,3M9,3L12,3L12,6L9,6L9,3"></path>
 <path fill="white" d="M0,6L3,6L3,9L0,9L0,6M6,6L9,6L9,9L6,9L6,6M3,9L6,9L6,12L3,12L3,9M9,9L12,9L12,12L9,12L9,9"></path>
 </pattern>
 <pattern y="0" x="0" height="12" width="12" patternUnits="userSpaceOnUse" id="cp5pattern">
 <rect class="cp5color" height="12" width="12" y="0" x="0"></rect>
 <path fill="black" d="M0,0L3,0L3,3L0,3L0,0M6,0L9,0L9,3L6,3L6,0M3,3L6,3L6,6L3,6L3,3M9,3L12,3L12,6L9,6L9,3"></path>
 <path fill="black" d="M0,6L3,6L3,9L0,9L0,6M6,6L9,6L9,9L6,9L6,6M3,9L6,9L6,12L3,12L3,9M9,9L12,9L12,12L9,12L9,9"></path>
 </pattern>
 <pattern y="0" x="0" height="12" width="12" patternUnits="userSpaceOnUse" id="cp6pattern">
 <rect class="cp6color" height="12" width="12" y="0" x="0"></rect>
 <path fill="white" d="M0,0L3,0L3,3L0,3L0,0M6,0L9,0L9,3L6,3L6,0M3,3L6,3L6,6L3,6L3,3M9,3L12,3L12,6L9,6L9,3"></path>
 <path fill="white" d="M0,6L3,6L3,9L0,9L0,6M6,6L9,6L9,9L6,9L6,6M3,9L6,9L6,12L3,12L3,9M9,9L12,9L12,12L9,12L9,9"></path>
 </pattern>
 <pattern y="0" x="0" height="12" width="12" patternUnits="userSpaceOnUse" id="cp7pattern">
 <rect class="cp7color" height="12" width="12" y="0" x="0"></rect>
 <path fill="black" d="M0,0L3,0L3,3L0,3L0,0M6,0L9,0L9,3L6,3L6,0M3,3L6,3L6,6L3,6L3,3M9,3L12,3L12,6L9,6L9,3"></path>
 <path fill="black" d="M0,6L3,6L3,9L0,9L0,6M6,6L9,6L9,9L6,9L6,6M3,9L6,9L6,12L3,12L3,9M9,9L12,9L12,12L9,12L9,9"></path>
 </pattern>
 <pattern y="0" x="0" height="12" width="12" patternUnits="userSpaceOnUse" id="cp8pattern">
 <rect class="cp8color" height="12" width="12" y="0" x="0"></rect>
 <path fill="white" d="M0,0L3,0L3,3L0,3L0,0M6,0L9,0L9,3L6,3L6,0M3,3L6,3L6,6L3,6L3,3M9,3L12,3L12,6L9,6L9,3"></path>
 <path fill="white" d="M0,6L3,6L3,9L0,9L0,6M6,6L9,6L9,9L6,9L6,6M3,9L6,9L6,12L3,12L3,9M9,9L12,9L12,12L9,12L9,9"></path>
 </pattern>
 <pattern y="0" x="0" height="12" width="12" patternUnits="userSpaceOnUse" id="cp9pattern">
 <rect class="cp9color" height="12" width="12" y="0" x="0"></rect>
 <path fill="black" d="M0,0L3,0L3,3L0,3L0,0M6,0L9,0L9,3L6,3L6,0M3,3L6,3L6,6L3,6L3,3M9,3L12,3L12,6L9,6L9,3"></path>
 <path fill="black" d="M0,6L3,6L3,9L0,9L0,6M6,6L9,6L9,9L6,9L6,6M3,9L6,9L6,12L3,12L3,9M9,9L12,9L12,12L9,12L9,9"></path>
 </pattern>
 </defs>
 <rect height="100%" width="100%" y="0" x="0" class="grass" id="mainfill"></rect>
 <g id="paths"><path d="M588,24L588,24L696,24L696,36L720,36L720,48L756,48L756,60L780,60L780,48L816,48L816,36L864,36L864,48L876,48L876,60L900,60L900,72L912,72L912,132L900,132L900,144L888,144L888,156L876,156L876,180L864,180L864,192L852,192L852,204L840,204L840,228L828,228L828,240L816,240L816,252L804,252L804,264L792,264L792,276L768,276L768,288L720,288L720,276L708,276L708,264L696,264L696,252L684,252L684,240L672,240L672,228L624,228L624,240L528,240L528,252L540,252L540,276L552,276L552,288L576,288L576,300L588,300L588,336L600,336L600,384L612,384L612,444L636,444L636,456L648,456L648,468L660,468L660,480L684,480L684,492L696,492L696,504L708,504L708,516L720,516L720,528L732,528L732,540L744,540L744,552L756,552L756,564L768,564L768,576L780,576L780,648L768,648L768,660L672,660L672,648L600,648L600,636L540,636L540,624L420,624L420,636L408,636L408,660L516,660L516,672L720,672L720,684L924,684L924,696L1056,696L1056,612L1044,612L1044,588L1020,588L1020,576L996,576L996,564L984,564L984,552L960,552L960,540L948,540L948,528L924,528L924,516L900,516L900,504L888,504L888,492L864,492L864,480L852,480L852,468L840,468L840,456L828,456L828,444L816,444L816,432L804,432L804,336L816,336L816,312L828,312L828,288L840,288L840,264L852,264L852,252L864,252L864,228L876,228L876,204L888,204L888,180L900,180L900,168L912,168L912,156L924,156L924,144L936,144L936,132L1008,132L1008,144L1020,144L1020,156L1032,156L1032,180L1044,180L1044,192L1056,192L1056,216L1068,216L1068,240L1080,240L1080,264L1092,264L1092,288L1104,288L1104,312L1116,312L1116,336L1128,336L1128,360L1140,360L1140,384L1152,384L1152,408L1164,408L1164,432L1176,432L1176,456L1188,456L1188,480L1200,480L1200,504L1212,504L1212,528L1224,528L1224,552L1236,552L1236,576L1248,576L1248,600L1260,600L1260,624L1272,624L1272,648L1284,648L1284,672L1296,672L1296,696L1308,696L1308,720L1320,720L1320,744L1332,744L1332,780L1344,780L1344,888L1332,888L1332,900L1320,900L1320,924L1308,924L1308,936L1284,936L1284,948L1260,948L1260,960L1212,960L1212,972L1068,972L1068,960L792,960L792,948L696,948L696,936L348,936L348,924L168,924L168,912L144,912L144,900L132,900L132,888L120,888L120,876L96,876L96,864L84,864L84,828L96,828L96,804L108,804L108,792L120,792L120,780L144,780L144,768L156,768L156,756L192,756L192,720L204,720L204,696L192,696L192,672L180,672L180,504L192,504L192,408L204,408L204,372L216,372L216,240L228,240L228,204L240,204L240,156L252,156L252,120L264,120L264,84L276,84L276,72L288,72L288,60L312,60L312,48L360,48L360,60L384,60L384,72L396,72L396,84L456,84L456,72L504,72L504,60L528,60L528,48L552,48L552,36L588,36L588,24M600,84L600,84L588,84L588,96L564,96L564,108L540,108L540,120L516,120L516,132L480,132L480,144L420,144L420,156L384,156L384,144L372,144L372,132L360,132L360,120L348,120L348,108L324,108L324,180L312,180L312,252L300,252L300,324L288,324L288,396L276,396L276,468L264,468L264,540L252,540L252,612L240,612L240,660L252,660L252,672L264,672L264,732L252,732L252,780L240,780L240,792L228,792L228,804L216,804L216,816L180,816L180,828L156,828L156,840L240,840L240,852L300,852L300,864L492,864L492,876L864,876L864,888L1116,888L1116,900L1260,900L1260,888L1272,888L1272,864L1284,864L1284,816L1272,816L1272,792L1260,792L1260,768L1248,768L1248,744L1236,744L1236,720L1224,720L1224,696L1212,696L1212,672L1200,672L1200,648L1188,648L1188,624L1176,624L1176,600L1164,600L1164,576L1152,576L1152,552L1140,552L1140,528L1128,528L1128,504L1116,504L1116,480L1104,480L1104,456L1092,456L1092,432L1080,432L1080,408L1068,408L1068,384L1056,384L1056,360L1044,360L1044,336L1032,336L1032,312L1020,312L1020,288L1008,288L1008,264L996,264L996,240L984,240L984,216L972,216L972,204L948,204L948,228L936,228L936,252L924,252L924,276L912,276L912,288L900,288L900,312L888,312L888,336L876,336L876,360L864,360L864,408L876,408L876,420L888,420L888,432L912,432L912,444L924,444L924,456L948,456L948,468L972,468L972,480L984,480L984,492L1008,492L1008,504L1020,504L1020,516L1044,516L1044,540L1056,540L1056,552L1068,552L1068,564L1092,564L1092,588L1104,588L1104,600L1116,600L1116,720L1104,720L1104,732L1092,732L1092,744L1068,744L1068,756L900,756L900,744L696,744L696,732L492,732L492,720L384,720L384,708L360,708L360,696L348,696L348,648L336,648L336,612L348,612L348,600L360,600L360,588L372,588L372,576L396,576L396,564L564,564L564,576L636,576L636,588L708,588L708,576L684,576L684,564L672,564L672,552L660,552L660,540L636,540L636,528L624,528L624,516L612,516L612,504L588,504L588,492L576,492L576,480L564,480L564,468L552,468L552,408L540,408L540,360L528,360L528,336L516,336L516,324L504,324L504,312L492,312L492,300L480,300L480,276L468,276L468,252L456,252L456,216L468,216L468,204L480,204L480,192L504,192L504,180L600,180L600,168L696,168L696,180L708,180L708,192L720,192L720,204L732,204L732,216L768,216L768,204L780,204L780,180L792,180L792,168L804,168L804,156L816,156L816,132L828,132L828,120L840,120L840,96L828,96L828,108L804,108L804,120L732,120L732,108L696,108L696,96L672,96L672,84L600,84M1164,96L1164,96L1200,96L1200,108L1176,108L1176,120L1188,120L1188,132L1176,132L1176,156L1164,156L1164,96M1236,96L1236,96L1248,96L1248,156L1236,156L1236,120L1224,120L1224,108L1236,108L1236,96M1224,120L1224,120L1224,132L1212,132L1212,120L1224,120M1200,180L1200,180L1224,180L1224,192L1212,192L1212,204L1224,204L1224,192L1236,192L1236,204L1224,204L1224,216L1212,216L1212,228L1224,228L1224,216L1236,216L1236,228L1224,228L1224,240L1200,240L1200,180M1248,180L1248,180L1284,180L1284,240L1272,240L1272,216L1260,216L1260,240L1248,240L1248,180M1272,192L1272,192L1260,192L1260,204L1272,204L1272,192M1296,180L1296,180L1308,180L1308,204L1320,204L1320,180L1332,180L1332,240L1320,240L1320,216L1308,216L1308,240L1296,240Z" class="road"></path><path d="M240,180L240,180L252,180L252,192L240,192L240,180M252,192L252,192L264,192L264,180L276,180L276,192L264,192L264,204L252,204L252,192M276,192L276,192L288,192L288,180L300,180L300,192L288,192L288,204L276,204L276,192M300,192L300,192L312,192L312,204L300,204Z" class="cp1"></path><path d="M588,576L588,576L600,576L600,588L588,588L588,576M588,588L588,588L588,600L576,600L576,588L588,588M588,600L588,600L600,600L600,612L588,612L588,600M588,612L588,612L588,624L576,624L576,612L588,612M588,624L588,624L600,624L600,636L588,636Z" class="cp2"></path><path d="M948,132L948,132L960,132L960,144L948,144L948,132M960,144L960,144L972,144L972,156L960,156L960,144M960,156L960,156L960,168L948,168L948,156L960,156M960,168L960,168L972,168L972,180L960,180L960,168M960,180L960,180L960,192L948,192L948,180L960,180M960,192L960,192L972,192L972,204L960,204Z" class="cp3"></path><path d="M0,0L0,0L12,0L12,96L0,96Z" class="parc"></path><path d="M300,12L300,12L348,12L348,24L360,24L360,36L372,36L372,48L396,48L396,60L408,60L408,84L396,84L396,72L384,72L384,60L360,60L360,48L312,48L312,60L288,60L288,72L276,72L276,84L264,84L264,120L252,120L252,156L240,156L240,96L252,96L252,60L264,60L264,48L276,48L276,36L288,36L288,24L300,24L300,12M576,12L576,12L696,12L696,24L588,24L588,36L564,36L564,24L576,24L576,12M696,24L696,24L708,24L708,36L696,36L696,24M828,12L828,12L900,12L900,24L912,24L912,36L924,36L924,48L936,48L936,60L948,60L948,72L960,72L960,84L984,84L984,96L1008,96L1008,108L1032,108L1032,120L1044,120L1044,132L1056,132L1056,168L1068,168L1068,216L1056,216L1056,192L1044,192L1044,180L1032,180L1032,156L1020,156L1020,144L1008,144L1008,132L936,132L936,144L924,144L924,156L912,156L912,168L900,168L900,180L888,180L888,204L876,204L876,168L888,168L888,144L900,144L900,132L912,132L912,72L900,72L900,60L876,60L876,48L864,48L864,36L816,36L816,48L780,48L780,36L792,36L792,24L828,24L828,12M360,132L360,132L372,132L372,144L384,144L384,156L420,156L420,144L456,144L456,156L432,156L432,168L420,168L420,180L384,180L384,168L372,168L372,156L360,156L360,132M624,144L624,144L684,144L684,156L708,156L708,168L720,168L720,180L732,180L732,204L720,204L720,192L708,192L708,180L696,180L696,168L600,168L600,180L564,180L564,168L588,168L588,156L624,156L624,144M468,180L468,180L504,180L504,192L480,192L480,204L468,204L468,216L456,216L456,252L468,252L468,276L456,276L456,264L444,264L444,252L432,252L432,240L420,240L420,216L432,216L432,204L444,204L444,192L468,192L468,180M1020,504L1020,504L1056,504L1056,516L1068,516L1068,528L1080,528L1080,540L1092,540L1092,552L1104,552L1104,564L1116,564L1116,576L1128,576L1128,588L1140,588L1140,612L1152,612L1152,648L1164,648L1164,744L1152,744L1152,756L1128,756L1128,768L1008,768L1008,756L1068,756L1068,744L1092,744L1092,732L1104,732L1104,720L1116,720L1116,600L1104,600L1104,588L1092,588L1092,564L1068,564L1068,552L1056,552L1056,540L1044,540L1044,516L1020,516L1020,504M720,516L720,516L744,516L744,528L756,528L756,540L768,540L768,552L780,552L780,564L792,564L792,576L804,576L804,588L816,588L816,600L828,600L828,636L816,636L816,648L804,648L804,660L792,660L792,672L744,672L744,660L768,660L768,648L780,648L780,576L768,576L768,564L756,564L756,552L744,552L744,540L732,540L732,528L720,528L720,516M372,552L372,552L456,552L456,564L396,564L396,576L372,576L372,588L360,588L360,600L348,600L348,612L336,612L336,648L348,648L348,696L360,696L360,708L384,708L384,720L492,720L492,732L360,732L360,720L348,720L348,708L336,708L336,696L324,696L324,684L312,684L312,660L300,660L300,600L312,600L312,588L324,588L324,576L348,576L348,564L372,564L372,552M180,720L180,720L192,720L192,756L156,756L156,768L144,768L144,780L120,780L120,792L108,792L108,804L96,804L96,828L84,828L84,864L96,864L96,876L120,876L120,888L132,888L132,900L144,900L144,912L168,912L168,924L228,924L228,936L132,936L132,924L84,924L84,912L72,912L72,900L60,900L60,888L48,888L48,876L36,876L36,816L48,816L48,792L72,792L72,780L96,780L96,768L120,768L120,756L144,756L144,744L168,744L168,732L180,732L180,720M1332,756L1332,756L1344,756L1344,768L1356,768L1356,792L1368,792L1368,804L1380,804L1380,912L1368,912L1368,936L1356,936L1356,960L1344,960L1344,972L1236,972L1236,960L1260,960L1260,948L1284,948L1284,936L1308,936L1308,924L1320,924L1320,900L1332,900L1332,888L1344,888L1344,780L1332,780Z" class="sand"></path><path d="M924,888L924,888L936,888L936,960L924,960Z" class="finish"></path><path d="M960,888L960,888L972,888L972,900L960,900L960,888M972,900L972,900L984,900L984,912L972,912L972,900M960,900L960,900L960,912L948,912L948,900L960,900M960,912L960,912L972,912L972,924L960,924L960,912M972,924L972,924L984,924L984,936L972,936L972,924M960,924L960,924L960,936L948,936L948,924L960,924M960,936L960,936L972,936L972,948L960,948L960,936M972,948L972,948L984,948L984,960L972,960Z" class="start"></path></g>
 <rect opacity=".3" fill="url(#grid)" height="100%" width="100%" y="0" x="0"></rect>
</svg>