<svg xmlns="http://www.w3.org/2000/svg" xmlns:xlink="http://www.w3.org/1999/xlink" version="1.1" id="mapSvgView" width="276" height="528"> <rect id="mainfill" class="grass" x="0" y="0" width="100%" height="100%"></rect> <g id="paths"><path d="M120,444L120,444L156,444L156,456L120,456Z" class="cp1"></path><path d="M0,0L0,0L12,0L12,60L0,60Z" class="parc"></path><path d="M60,12L60,12L72,12L72,36L84,36L84,48L108,48L108,60L96,60L96,72L84,72L84,84L72,84L72,96L60,96L60,480L84,480L84,468L96,468L96,456L108,456L108,444L120,444L120,432L156,432L156,444L120,444L120,456L156,456L156,444L168,444L168,456L180,456L180,468L192,468L192,480L216,480L216,96L204,96L204,84L192,84L192,72L180,72L180,60L168,60L168,48L180,48L180,36L168,36L168,12L192,12L192,24L180,24L180,36L192,36L192,24L204,24L204,12L216,12L216,36L228,36L228,48L240,48L240,60L252,60L252,72L264,72L264,516L180,516L180,504L168,504L168,492L156,492L156,480L144,480L144,468L132,468L132,480L120,480L120,492L108,492L108,504L96,504L96,516L12,516L12,72L24,72L24,60L36,60L36,48L48,48L48,36L60,36L60,12M84,12L84,12L108,12L108,36L96,36L96,24L84,24Z" class="road"></path><path d="M72,12L72,12L84,12L84,24L96,24L96,36L108,36L108,48L84,48L84,36L72,36Z" class="start"></path><path d="M192,12L192,12L204,12L204,24L192,24L192,12M192,24L192,24L192,36L180,36L180,24L192,24M180,36L180,36L180,48L168,48L168,36Z" class="finish"></path></g></svg>