<svg xmlns:xlink="http://www.w3.org/1999/xlink" xmlns="http://www.w3.org/2000/svg" height="924" width="1200" id="mapSvgView" version="1.1" style="width: 1200px; height: 924px;" viewBox="0 0 1200 924">
 <defs>
 <pattern y="0" x="0" height="24" width="24" patternUnits="userSpaceOnUse" id="grassPattern">
 <rect class="grasscolor" height="24" width="24" y="0" x="0"></rect>
 <rect class="grassspeclecolor" height="1" width="1" x="1" y="5"></rect>
 <rect class="grassspeclecolor" height="1" width="1" x="1" y="5"></rect>
 <rect class="grassspeclecolor" height="1" width="1" x="3" y="5"></rect>
 <rect class="grassspeclecolor" height="1" width="1" x="6" y="7"></rect>
 <rect class="grassspeclecolor" height="1" width="1" x="6" y="17"></rect>
 <rect class="grassspeclecolor" height="1" width="1" x="8" y="21"></rect>
 <rect class="grassspeclecolor" height="1" width="1" x="9" y="2"></rect>
 <rect class="grassspeclecolor" height="1" width="1" x="12" y="4"></rect>
 <rect class="grassspeclecolor" height="1" width="1" x="13" y="15"></rect>
 <rect class="grassspeclecolor" height="1" width="1" x="14" y="4"></rect>
 <rect class="grassspeclecolor" height="1" width="1" x="14" y="19"></rect>
 <rect class="grassspeclecolor" height="1" width="1" x="17" y="7"></rect>
 <rect class="grassspeclecolor" height="1" width="1" x="17" y="12"></rect>
 <rect class="grassspeclecolor" height="1" width="1" x="18" y="23"></rect>
 <rect class="grassspeclecolor" height="1" width="1" x="21" y="16"></rect>
 <rect class="grassspeclecolor" height="1" width="1" x="23" y="12"></rect>
 </pattern>
 <pattern y="0" x="0" height="24" width="24" patternUnits="userSpaceOnUse" id="roadPattern">
 <rect class="roadcolor" height="24" width="24" y="0" x="0"></rect>
 <rect class="roadspeclecolor" height="1" width="1" x="1" y="5"></rect>
 <rect class="roadspeclecolor" height="1" width="1" x="1" y="5"></rect>
 <rect class="roadspeclecolor" height="1" width="1" x="3" y="5"></rect>
 <rect class="roadspeclecolor" height="1" width="1" x="6" y="7"></rect>
 <rect class="roadspeclecolor" height="1" width="1" x="6" y="17"></rect>
 <rect class="roadspeclecolor" height="1" width="1" x="8" y="21"></rect>
 <rect class="roadspeclecolor" height="1" width="1" x="9" y="2"></rect>
 <rect class="roadspeclecolor" height="1" width="1" x="12" y="4"></rect>
 <rect class="roadspeclecolor" height="1" width="1" x="13" y="15"></rect>
 <rect class="roadspeclecolor" height="1" width="1" x="14" y="4"></rect>
 <rect class="roadspeclecolor" height="1" width="1" x="14" y="19"></rect>
 <rect class="roadspeclecolor" height="1" width="1" x="17" y="7"></rect>
 <rect class="roadspeclecolor" height="1" width="1" x="17" y="12"></rect>
 <rect class="roadspeclecolor" height="1" width="1" x="18" y="23"></rect>
 <rect class="roadspeclecolor" height="1" width="1" x="21" y="16"></rect>
 <rect class="roadspeclecolor" height="1" width="1" x="23" y="12"></rect>
 </pattern>
 <pattern y="0" x="0" height="12" width="12" patternUnits="userSpaceOnUse" id="grid">
 <line stroke-width="1" stroke="black" y2="12" x2="12" y1="0" x1="12"></line>
 <line stroke-width="1" stroke="black" y2="12" x2="12" y1="12" x1="0"></line>
 </pattern>
 <pattern y="0" x="0" height="12" width="12" patternUnits="userSpaceOnUse" id="finishPattern">
 <rect fill="black" height="12" width="12" y="0" x="0"></rect>
 <path fill="white" d="M0,0L3,0L3,3L0,3L0,0M6,0L9,0L9,3L6,3L6,0M3,3L6,3L6,6L3,6L3,3M9,3L12,3L12,6L9,6L9,3"></path>
 <path fill="white" d="M0,6L3,6L3,9L0,9L0,6M6,6L9,6L9,9L6,9L6,6M3,9L6,9L6,12L3,12L3,9M9,9L12,9L12,12L9,12L9,9"></path>
 </pattern>
 <pattern y="0" x="0" height="12" width="12" patternUnits="userSpaceOnUse" id="startPattern">
 <rect fill="rgb(100,100,100)" height="12" width="12" y="0" x="0"></rect>
 <rect stroke-width="1" stroke="rgb(200,200,200)" fill="none" height="5" width="5" y="3.5" x="3.5"></rect>
 </pattern>
 <pattern y="0" x="0" height="12" width="12" patternUnits="userSpaceOnUse" id="cp1pattern">
 <rect class="cp1color" height="12" width="12" y="0" x="0"></rect>
 <path fill="black" d="M0,0L3,0L3,3L0,3L0,0M6,0L9,0L9,3L6,3L6,0M3,3L6,3L6,6L3,6L3,3M9,3L12,3L12,6L9,6L9,3"></path>
 <path fill="black" d="M0,6L3,6L3,9L0,9L0,6M6,6L9,6L9,9L6,9L6,6M3,9L6,9L6,12L3,12L3,9M9,9L12,9L12,12L9,12L9,9"></path>
 </pattern>
 <pattern y="0" x="0" height="12" width="12" patternUnits="userSpaceOnUse" id="cp2pattern">
 <rect class="cp2color" height="12" width="12" y="0" x="0"></rect>
 <path fill="white" d="M0,0L3,0L3,3L0,3L0,0M6,0L9,0L9,3L6,3L6,0M3,3L6,3L6,6L3,6L3,3M9,3L12,3L12,6L9,6L9,3"></path>
 <path fill="white" d="M0,6L3,6L3,9L0,9L0,6M6,6L9,6L9,9L6,9L6,6M3,9L6,9L6,12L3,12L3,9M9,9L12,9L12,12L9,12L9,9"></path>
 </pattern>
 <pattern y="0" x="0" height="12" width="12" patternUnits="userSpaceOnUse" id="cp3pattern">
 <rect class="cp3color" height="12" width="12" y="0" x="0"></rect>
 <path fill="black" d="M0,0L3,0L3,3L0,3L0,0M6,0L9,0L9,3L6,3L6,0M3,3L6,3L6,6L3,6L3,3M9,3L12,3L12,6L9,6L9,3"></path>
 <path fill="black" d="M0,6L3,6L3,9L0,9L0,6M6,6L9,6L9,9L6,9L6,6M3,9L6,9L6,12L3,12L3,9M9,9L12,9L12,12L9,12L9,9"></path>
 </pattern>
 <pattern y="0" x="0" height="12" width="12" patternUnits="userSpaceOnUse" id="cp4pattern">
 <rect class="cp4color" height="12" width="12" y="0" x="0"></rect>
 <path fill="white" d="M0,0L3,0L3,3L0,3L0,0M6,0L9,0L9,3L6,3L6,0M3,3L6,3L6,6L3,6L3,3M9,3L12,3L12,6L9,6L9,3"></path>
 <path fill="white" d="M0,6L3,6L3,9L0,9L0,6M6,6L9,6L9,9L6,9L6,6M3,9L6,9L6,12L3,12L3,9M9,9L12,9L12,12L9,12L9,9"></path>
 </pattern>
 <pattern y="0" x="0" height="12" width="12" patternUnits="userSpaceOnUse" id="cp5pattern">
 <rect class="cp5color" height="12" width="12" y="0" x="0"></rect>
 <path fill="black" d="M0,0L3,0L3,3L0,3L0,0M6,0L9,0L9,3L6,3L6,0M3,3L6,3L6,6L3,6L3,3M9,3L12,3L12,6L9,6L9,3"></path>
 <path fill="black" d="M0,6L3,6L3,9L0,9L0,6M6,6L9,6L9,9L6,9L6,6M3,9L6,9L6,12L3,12L3,9M9,9L12,9L12,12L9,12L9,9"></path>
 </pattern>
 <pattern y="0" x="0" height="12" width="12" patternUnits="userSpaceOnUse" id="cp6pattern">
 <rect class="cp6color" height="12" width="12" y="0" x="0"></rect>
 <path fill="white" d="M0,0L3,0L3,3L0,3L0,0M6,0L9,0L9,3L6,3L6,0M3,3L6,3L6,6L3,6L3,3M9,3L12,3L12,6L9,6L9,3"></path>
 <path fill="white" d="M0,6L3,6L3,9L0,9L0,6M6,6L9,6L9,9L6,9L6,6M3,9L6,9L6,12L3,12L3,9M9,9L12,9L12,12L9,12L9,9"></path>
 </pattern>
 <pattern y="0" x="0" height="12" width="12" patternUnits="userSpaceOnUse" id="cp7pattern">
 <rect class="cp7color" height="12" width="12" y="0" x="0"></rect>
 <path fill="black" d="M0,0L3,0L3,3L0,3L0,0M6,0L9,0L9,3L6,3L6,0M3,3L6,3L6,6L3,6L3,3M9,3L12,3L12,6L9,6L9,3"></path>
 <path fill="black" d="M0,6L3,6L3,9L0,9L0,6M6,6L9,6L9,9L6,9L6,6M3,9L6,9L6,12L3,12L3,9M9,9L12,9L12,12L9,12L9,9"></path>
 </pattern>
 <pattern y="0" x="0" height="12" width="12" patternUnits="userSpaceOnUse" id="cp8pattern">
 <rect class="cp8color" height="12" width="12" y="0" x="0"></rect>
 <path fill="white" d="M0,0L3,0L3,3L0,3L0,0M6,0L9,0L9,3L6,3L6,0M3,3L6,3L6,6L3,6L3,3M9,3L12,3L12,6L9,6L9,3"></path>
 <path fill="white" d="M0,6L3,6L3,9L0,9L0,6M6,6L9,6L9,9L6,9L6,6M3,9L6,9L6,12L3,12L3,9M9,9L12,9L12,12L9,12L9,9"></path>
 </pattern>
 <pattern y="0" x="0" height="12" width="12" patternUnits="userSpaceOnUse" id="cp9pattern">
 <rect class="cp9color" height="12" width="12" y="0" x="0"></rect>
 <path fill="black" d="M0,0L3,0L3,3L0,3L0,0M6,0L9,0L9,3L6,3L6,0M3,3L6,3L6,6L3,6L3,3M9,3L12,3L12,6L9,6L9,3"></path>
 <path fill="black" d="M0,6L3,6L3,9L0,9L0,6M6,6L9,6L9,9L6,9L6,6M3,9L6,9L6,12L3,12L3,9M9,9L12,9L12,12L9,12L9,9"></path>
 </pattern>
 </defs>
 <rect height="100%" width="100%" y="0" x="0" class="grass" id="mainfill"></rect>
 <g id="paths"><path d="M384,60L384,60L432,60L432,72L444,72L444,84L456,84L456,96L468,96L468,108L480,108L480,120L492,120L492,132L504,132L504,144L516,144L516,156L528,156L528,168L540,168L540,192L552,192L552,204L564,204L564,216L576,216L576,228L660,228L660,216L672,216L672,204L684,204L684,192L696,192L696,168L708,168L708,156L720,156L720,144L744,144L744,132L756,132L756,120L780,120L780,108L804,108L804,96L876,96L876,108L900,108L900,120L912,120L912,132L948,132L948,144L972,144L972,156L996,156L996,168L1008,168L1008,180L1032,180L1032,192L1080,192L1080,204L1092,204L1092,216L1104,216L1104,228L1116,228L1116,276L1128,276L1128,300L1116,300L1116,324L1104,324L1104,336L1092,336L1092,348L1080,348L1080,360L1056,360L1056,372L1044,372L1044,384L1020,384L1020,396L1008,396L1008,408L984,408L984,420L972,420L972,432L948,432L948,444L936,444L936,456L924,456L924,468L900,468L900,480L888,480L888,492L864,492L864,504L852,504L852,516L828,516L828,528L816,528L816,540L792,540L792,552L780,552L780,564L828,564L828,576L840,576L840,588L852,588L852,600L864,600L864,624L876,624L876,636L888,636L888,684L900,684L900,768L888,768L888,780L876,780L876,792L840,792L840,804L756,804L756,792L708,792L708,780L660,780L660,768L624,768L624,756L600,756L600,768L576,768L576,780L564,780L564,792L552,792L552,804L528,804L528,816L516,816L516,828L492,828L492,840L480,840L480,852L468,852L468,864L456,864L456,876L348,876L348,864L336,864L336,852L324,852L324,840L312,840L312,816L300,816L300,780L312,780L312,756L324,756L324,744L336,744L336,732L348,732L348,720L372,720L372,708L384,708L384,696L396,696L396,684L420,684L420,672L432,672L432,660L456,660L456,648L468,648L468,636L480,636L480,624L504,624L504,612L516,612L516,600L528,600L528,588L552,588L552,576L564,576L564,564L588,564L588,552L600,552L600,540L612,540L612,528L636,528L636,516L648,516L648,504L672,504L672,492L684,492L684,480L696,480L696,468L720,468L720,456L732,456L732,444L756,444L756,432L768,432L768,420L780,420L780,408L804,408L804,396L816,396L816,384L828,384L828,372L852,372L852,360L864,360L864,348L888,348L888,336L912,336L912,324L924,324L924,312L936,312L936,300L948,300L948,288L924,288L924,300L912,300L912,312L900,312L900,324L876,324L876,336L852,336L852,348L828,348L828,360L816,360L816,372L792,372L792,384L768,384L768,396L756,396L756,408L732,408L732,420L708,420L708,432L696,432L696,444L672,444L672,456L648,456L648,468L636,468L636,480L612,480L612,492L588,492L588,504L576,504L576,516L552,516L552,528L528,528L528,540L504,540L504,552L492,552L492,564L468,564L468,576L444,576L444,588L432,588L432,600L408,600L408,612L384,612L384,624L372,624L372,636L348,636L348,648L324,648L324,660L312,660L312,672L288,672L288,684L264,684L264,696L252,696L252,708L228,708L228,720L216,720L216,732L192,732L192,720L180,720L180,708L168,708L168,696L156,696L156,684L144,684L144,672L132,672L132,648L144,648L144,624L156,624L156,612L180,612L180,624L204,624L204,612L216,612L216,600L180,600L180,588L168,588L168,576L156,576L156,564L144,564L144,552L132,552L132,540L120,540L120,516L108,516L108,504L96,504L96,372L108,372L108,348L120,348L120,336L132,336L132,324L144,324L144,312L156,312L156,300L168,300L168,288L180,288L180,276L192,276L192,252L204,252L204,240L216,240L216,228L228,228L228,216L240,216L240,204L252,204L252,192L264,192L264,180L276,180L276,168L288,168L288,156L300,156L300,144L312,144L312,132L324,132L324,120L336,120L336,96L348,96L348,84L360,84L360,72L384,72L384,60M396,120L396,120L384,120L384,132L372,132L372,144L360,144L360,156L348,156L348,168L336,168L336,192L324,192L324,204L312,204L312,216L300,216L300,228L288,228L288,240L276,240L276,252L264,252L264,264L252,264L252,276L240,276L240,288L228,288L228,312L216,312L216,324L204,324L204,336L192,336L192,348L180,348L180,360L168,360L168,372L156,372L156,504L168,504L168,516L180,516L180,528L192,528L192,540L216,540L216,552L228,552L228,564L240,564L240,576L252,576L252,588L264,588L264,612L252,612L252,624L240,624L240,636L228,636L228,648L216,648L216,660L192,660L192,672L228,672L228,660L240,660L240,648L252,648L252,636L276,636L276,624L288,624L288,612L312,612L312,600L324,600L324,588L348,588L348,576L372,576L372,564L384,564L384,552L408,552L408,540L432,540L432,528L444,528L444,516L468,516L468,504L492,504L492,492L504,492L504,480L528,480L528,468L552,468L552,456L576,456L576,444L588,444L588,432L612,432L612,420L636,420L636,408L648,408L648,396L672,396L672,384L696,384L696,372L708,372L708,360L732,360L732,348L756,348L756,336L768,336L768,324L792,324L792,312L816,312L816,300L828,300L828,288L852,288L852,276L876,276L876,264L900,264L900,252L936,252L936,264L960,264L960,276L972,276L972,288L984,288L984,312L972,312L972,336L960,336L960,360L936,360L936,372L924,372L924,384L900,384L900,396L888,396L888,408L876,408L876,420L852,420L852,432L840,432L840,444L816,444L816,456L804,456L804,468L780,468L780,480L768,480L768,492L756,492L756,504L732,504L732,516L720,516L720,528L708,528L708,540L684,540L684,552L672,552L672,564L660,564L660,576L636,576L636,588L624,588L624,600L600,600L600,612L588,612L588,624L576,624L576,636L552,636L552,648L540,648L540,660L516,660L516,672L504,672L504,684L492,684L492,696L468,696L468,708L456,708L456,720L432,720L432,732L420,732L420,744L408,744L408,756L384,756L384,768L372,768L372,780L360,780L360,816L456,816L456,804L468,804L468,792L480,792L480,780L492,780L492,768L516,768L516,756L528,756L528,744L540,744L540,732L552,732L552,720L576,720L576,708L600,708L600,696L624,696L624,708L660,708L660,720L708,720L708,732L756,732L756,744L840,744L840,684L828,684L828,636L816,636L816,624L780,624L780,612L732,612L732,600L720,600L720,588L708,588L708,552L720,552L720,540L732,540L732,528L744,528L744,516L768,516L768,504L780,504L780,492L792,492L792,480L816,480L816,468L828,468L828,456L852,456L852,444L864,444L864,432L888,432L888,420L900,420L900,408L924,408L924,396L936,396L936,384L948,384L948,372L972,372L972,360L984,360L984,348L1008,348L1008,336L1020,336L1020,324L1044,324L1044,312L1056,312L1056,300L1068,300L1068,276L1056,276L1056,252L1032,252L1032,240L1008,240L1008,228L996,228L996,216L972,216L972,204L936,204L936,192L900,192L900,180L888,180L888,168L864,168L864,156L816,156L816,168L792,168L792,180L768,180L768,192L756,192L756,204L744,204L744,216L732,216L732,228L720,228L720,252L708,252L708,264L696,264L696,276L672,276L672,288L648,288L648,300L600,300L600,288L564,288L564,276L552,276L552,264L540,264L540,252L528,252L528,240L516,240L516,228L504,228L504,216L492,216L492,204L480,204L480,180L468,180L468,168L456,168L456,156L444,156L444,144L432,144L432,132L420,132L420,120L396,120M1008,684L1008,684L1044,684L1044,696L1020,696L1020,708L1032,708L1032,720L1020,720L1020,744L1008,744L1008,684M1080,684L1080,684L1092,684L1092,744L1080,744L1080,708L1068,708L1068,696L1080,696L1080,684M1068,708L1068,708L1068,720L1056,720L1056,708L1068,708M1032,756L1032,756L1044,756L1044,768L1056,768L1056,756L1068,756L1068,816L1056,816L1056,780L1044,780L1044,816L1032,816L1032,756M1080,756L1080,756L1116,756L1116,816L1104,816L1104,792L1092,792L1092,816L1080,816L1080,756M1104,768L1104,768L1092,768L1092,780L1104,780L1104,768M1128,756L1128,756L1140,756L1140,804L1164,804L1164,816L1128,816Z" class="road"></path><path d="M96,408L96,408L156,408L156,420L96,420Z" class="cp1"></path><path d="M1056,252L1056,252L1116,252L1116,264L1056,264Z" class="cp2"></path><path d="M384,816L384,816L396,816L396,876L384,876Z" class="cp3"></path><path d="M0,0L0,0L12,0L12,96L0,96Z" class="parc"></path><path d="M432,12L432,12L444,12L444,24L456,24L456,48L468,48L468,84L480,84L480,108L468,108L468,96L456,96L456,84L444,84L444,72L432,72L432,60L384,60L384,48L396,48L396,36L408,36L408,24L432,24L432,12M780,72L780,72L852,72L852,84L876,84L876,96L804,96L804,108L780,108L780,120L756,120L756,132L744,132L744,144L732,144L732,120L744,120L744,108L756,108L756,96L768,96L768,84L780,84L780,72M204,228L204,228L216,228L216,240L204,240L204,228M204,240L204,240L204,252L192,252L192,276L180,276L180,288L168,288L168,300L156,300L156,312L144,312L144,324L132,324L132,336L120,336L120,348L108,348L108,372L96,372L96,504L108,504L108,516L120,516L120,540L132,540L132,552L144,552L144,564L156,564L156,576L132,576L132,564L120,564L120,552L108,552L108,540L96,540L96,516L84,516L84,492L72,492L72,456L60,456L60,432L48,432L48,372L60,372L60,360L72,360L72,348L84,348L84,312L96,312L96,300L120,300L120,276L144,276L144,264L156,264L156,252L180,252L180,240L204,240M1116,228L1116,228L1128,228L1128,240L1140,240L1140,252L1152,252L1152,312L1140,312L1140,360L1116,360L1116,372L1104,372L1104,384L1080,384L1080,396L1068,396L1068,408L1032,408L1032,420L996,420L996,408L1008,408L1008,396L1020,396L1020,384L1044,384L1044,372L1056,372L1056,360L1080,360L1080,348L1092,348L1092,336L1104,336L1104,324L1116,324L1116,300L1128,300L1128,276L1116,276L1116,228M912,240L912,240L960,240L960,252L984,252L984,264L996,264L996,276L1008,276L1008,288L1020,288L1020,324L996,324L996,336L984,336L984,348L960,348L960,336L972,336L972,312L984,312L984,288L972,288L972,276L960,276L960,264L936,264L936,252L912,252L912,240M708,252L708,252L732,252L732,264L744,264L744,300L720,300L720,312L696,312L696,324L672,324L672,336L588,336L588,324L576,324L576,312L564,312L564,288L552,288L552,276L540,276L540,264L552,264L552,276L564,276L564,288L600,288L600,300L648,300L648,288L672,288L672,276L696,276L696,264L708,264L708,252M696,540L696,540L708,540L708,588L720,588L720,600L732,600L732,612L720,612L720,624L708,624L708,612L696,612L696,600L684,600L684,564L696,564L696,540M840,576L840,576L864,576L864,588L876,588L876,600L888,600L888,624L900,624L900,648L912,648L912,684L924,684L924,780L912,780L912,792L900,792L900,804L888,804L888,816L876,816L876,840L852,840L852,852L828,852L828,840L780,840L780,828L768,828L768,804L840,804L840,792L876,792L876,780L888,780L888,768L900,768L900,684L888,684L888,636L876,636L876,624L864,624L864,600L852,600L852,588L840,588L840,576M132,612L132,612L156,612L156,624L144,624L144,648L132,648L132,672L144,672L144,684L156,684L156,696L168,696L168,708L180,708L180,720L192,720L192,732L216,732L216,744L192,744L192,756L120,756L120,744L108,744L108,732L96,732L96,660L108,660L108,648L120,648L120,624L132,624L132,612M516,696L516,696L564,696L564,708L576,708L576,720L552,720L552,732L540,732L540,744L528,744L528,756L516,756L516,768L492,768L492,780L480,780L480,792L468,792L468,744L480,744L480,720L504,720L504,708L516,708L516,696M300,756L300,756L312,756L312,780L300,780L300,816L312,816L312,840L324,840L324,852L336,852L336,864L348,864L348,876L456,876L456,864L468,864L468,852L480,852L480,840L492,840L492,828L516,828L516,816L540,816L540,840L528,840L528,864L516,864L516,876L504,876L504,888L468,888L468,900L444,900L444,912L348,912L348,900L324,900L324,888L288,888L288,852L276,852L276,792L288,792L288,768L300,768Z" class="sand"></path><path d="M708,384L708,384L720,384L720,396L708,396L708,384M720,396L720,396L732,396L732,408L720,408L720,396M708,396L708,396L708,408L696,408L696,396L708,396M672,396L672,396L684,396L684,408L672,408L672,396M684,408L684,408L696,408L696,420L684,420L684,408M672,408L672,408L672,420L660,420L660,408L672,408M708,408L708,408L720,408L720,420L708,420L708,408M672,420L672,420L684,420L684,432L672,432Z" class="start"></path><path d="M636,408L636,408L648,408L648,420L660,420L660,432L672,432L672,456L660,456L660,444L648,444L648,432L636,432Z" class="finish"></path></g>
 <rect opacity=".3" fill="url(#grid)" height="100%" width="100%" y="0" x="0"></rect>
</svg>