<svg xmlns:xlink="http://www.w3.org/1999/xlink" xmlns="http://www.w3.org/2000/svg" height="180" width="996" id="mapSvgView" version="1.1" style="width: 996px; height: 180px;" viewBox="0 0 996 180">
 <defs>
 <pattern y="0" x="0" height="24" width="24" patternUnits="userSpaceOnUse" id="grassPattern">
 <rect class="grasscolor" height="24" width="24" y="0" x="0"></rect>
 <rect class="grassspeclecolor" height="1" width="1" x="1" y="5"></rect>
 <rect class="grassspeclecolor" height="1" width="1" x="1" y="5"></rect>
 <rect class="grassspeclecolor" height="1" width="1" x="3" y="5"></rect>
 <rect class="grassspeclecolor" height="1" width="1" x="6" y="7"></rect>
 <rect class="grassspeclecolor" height="1" width="1" x="6" y="17"></rect>
 <rect class="grassspeclecolor" height="1" width="1" x="8" y="21"></rect>
 <rect class="grassspeclecolor" height="1" width="1" x="9" y="2"></rect>
 <rect class="grassspeclecolor" height="1" width="1" x="12" y="4"></rect>
 <rect class="grassspeclecolor" height="1" width="1" x="13" y="15"></rect>
 <rect class="grassspeclecolor" height="1" width="1" x="14" y="4"></rect>
 <rect class="grassspeclecolor" height="1" width="1" x="14" y="19"></rect>
 <rect class="grassspeclecolor" height="1" width="1" x="17" y="7"></rect>
 <rect class="grassspeclecolor" height="1" width="1" x="17" y="12"></rect>
 <rect class="grassspeclecolor" height="1" width="1" x="18" y="23"></rect>
 <rect class="grassspeclecolor" height="1" width="1" x="21" y="16"></rect>
 <rect class="grassspeclecolor" height="1" width="1" x="23" y="12"></rect>
 </pattern>
 <pattern y="0" x="0" height="24" width="24" patternUnits="userSpaceOnUse" id="roadPattern">
 <rect class="roadcolor" height="24" width="24" y="0" x="0"></rect>
 <rect class="roadspeclecolor" height="1" width="1" x="1" y="5"></rect>
 <rect class="roadspeclecolor" height="1" width="1" x="1" y="5"></rect>
 <rect class="roadspeclecolor" height="1" width="1" x="3" y="5"></rect>
 <rect class="roadspeclecolor" height="1" width="1" x="6" y="7"></rect>
 <rect class="roadspeclecolor" height="1" width="1" x="6" y="17"></rect>
 <rect class="roadspeclecolor" height="1" width="1" x="8" y="21"></rect>
 <rect class="roadspeclecolor" height="1" width="1" x="9" y="2"></rect>
 <rect class="roadspeclecolor" height="1" width="1" x="12" y="4"></rect>
 <rect class="roadspeclecolor" height="1" width="1" x="13" y="15"></rect>
 <rect class="roadspeclecolor" height="1" width="1" x="14" y="4"></rect>
 <rect class="roadspeclecolor" height="1" width="1" x="14" y="19"></rect>
 <rect class="roadspeclecolor" height="1" width="1" x="17" y="7"></rect>
 <rect class="roadspeclecolor" height="1" width="1" x="17" y="12"></rect>
 <rect class="roadspeclecolor" height="1" width="1" x="18" y="23"></rect>
 <rect class="roadspeclecolor" height="1" width="1" x="21" y="16"></rect>
 <rect class="roadspeclecolor" height="1" width="1" x="23" y="12"></rect>
 </pattern>
 <pattern y="0" x="0" height="12" width="12" patternUnits="userSpaceOnUse" id="grid">
 <line stroke-width="1" stroke="black" y2="12" x2="12" y1="0" x1="12"></line>
 <line stroke-width="1" stroke="black" y2="12" x2="12" y1="12" x1="0"></line>
 </pattern>
 <pattern y="0" x="0" height="12" width="12" patternUnits="userSpaceOnUse" id="finishPattern">
 <rect fill="black" height="12" width="12" y="0" x="0"></rect>
 <path fill="white" d="M0,0L3,0L3,3L0,3L0,0M6,0L9,0L9,3L6,3L6,0M3,3L6,3L6,6L3,6L3,3M9,3L12,3L12,6L9,6L9,3"></path>
 <path fill="white" d="M0,6L3,6L3,9L0,9L0,6M6,6L9,6L9,9L6,9L6,6M3,9L6,9L6,12L3,12L3,9M9,9L12,9L12,12L9,12L9,9"></path>
 </pattern>
 <pattern y="0" x="0" height="12" width="12" patternUnits="userSpaceOnUse" id="startPattern">
 <rect fill="rgb(100,100,100)" height="12" width="12" y="0" x="0"></rect>
 <rect stroke-width="1" stroke="rgb(200,200,200)" fill="none" height="5" width="5" y="3.5" x="3.5"></rect>
 </pattern>
 <pattern y="0" x="0" height="12" width="12" patternUnits="userSpaceOnUse" id="cp1pattern">
 <rect class="cp1color" height="12" width="12" y="0" x="0"></rect>
 <path fill="black" d="M0,0L3,0L3,3L0,3L0,0M6,0L9,0L9,3L6,3L6,0M3,3L6,3L6,6L3,6L3,3M9,3L12,3L12,6L9,6L9,3"></path>
 <path fill="black" d="M0,6L3,6L3,9L0,9L0,6M6,6L9,6L9,9L6,9L6,6M3,9L6,9L6,12L3,12L3,9M9,9L12,9L12,12L9,12L9,9"></path>
 </pattern>
 <pattern y="0" x="0" height="12" width="12" patternUnits="userSpaceOnUse" id="cp2pattern">
 <rect class="cp2color" height="12" width="12" y="0" x="0"></rect>
 <path fill="white" d="M0,0L3,0L3,3L0,3L0,0M6,0L9,0L9,3L6,3L6,0M3,3L6,3L6,6L3,6L3,3M9,3L12,3L12,6L9,6L9,3"></path>
 <path fill="white" d="M0,6L3,6L3,9L0,9L0,6M6,6L9,6L9,9L6,9L6,6M3,9L6,9L6,12L3,12L3,9M9,9L12,9L12,12L9,12L9,9"></path>
 </pattern>
 <pattern y="0" x="0" height="12" width="12" patternUnits="userSpaceOnUse" id="cp3pattern">
 <rect class="cp3color" height="12" width="12" y="0" x="0"></rect>
 <path fill="black" d="M0,0L3,0L3,3L0,3L0,0M6,0L9,0L9,3L6,3L6,0M3,3L6,3L6,6L3,6L3,3M9,3L12,3L12,6L9,6L9,3"></path>
 <path fill="black" d="M0,6L3,6L3,9L0,9L0,6M6,6L9,6L9,9L6,9L6,6M3,9L6,9L6,12L3,12L3,9M9,9L12,9L12,12L9,12L9,9"></path>
 </pattern>
 <pattern y="0" x="0" height="12" width="12" patternUnits="userSpaceOnUse" id="cp4pattern">
 <rect class="cp4color" height="12" width="12" y="0" x="0"></rect>
 <path fill="white" d="M0,0L3,0L3,3L0,3L0,0M6,0L9,0L9,3L6,3L6,0M3,3L6,3L6,6L3,6L3,3M9,3L12,3L12,6L9,6L9,3"></path>
 <path fill="white" d="M0,6L3,6L3,9L0,9L0,6M6,6L9,6L9,9L6,9L6,6M3,9L6,9L6,12L3,12L3,9M9,9L12,9L12,12L9,12L9,9"></path>
 </pattern>
 <pattern y="0" x="0" height="12" width="12" patternUnits="userSpaceOnUse" id="cp5pattern">
 <rect class="cp5color" height="12" width="12" y="0" x="0"></rect>
 <path fill="black" d="M0,0L3,0L3,3L0,3L0,0M6,0L9,0L9,3L6,3L6,0M3,3L6,3L6,6L3,6L3,3M9,3L12,3L12,6L9,6L9,3"></path>
 <path fill="black" d="M0,6L3,6L3,9L0,9L0,6M6,6L9,6L9,9L6,9L6,6M3,9L6,9L6,12L3,12L3,9M9,9L12,9L12,12L9,12L9,9"></path>
 </pattern>
 <pattern y="0" x="0" height="12" width="12" patternUnits="userSpaceOnUse" id="cp6pattern">
 <rect class="cp6color" height="12" width="12" y="0" x="0"></rect>
 <path fill="white" d="M0,0L3,0L3,3L0,3L0,0M6,0L9,0L9,3L6,3L6,0M3,3L6,3L6,6L3,6L3,3M9,3L12,3L12,6L9,6L9,3"></path>
 <path fill="white" d="M0,6L3,6L3,9L0,9L0,6M6,6L9,6L9,9L6,9L6,6M3,9L6,9L6,12L3,12L3,9M9,9L12,9L12,12L9,12L9,9"></path>
 </pattern>
 <pattern y="0" x="0" height="12" width="12" patternUnits="userSpaceOnUse" id="cp7pattern">
 <rect class="cp7color" height="12" width="12" y="0" x="0"></rect>
 <path fill="black" d="M0,0L3,0L3,3L0,3L0,0M6,0L9,0L9,3L6,3L6,0M3,3L6,3L6,6L3,6L3,3M9,3L12,3L12,6L9,6L9,3"></path>
 <path fill="black" d="M0,6L3,6L3,9L0,9L0,6M6,6L9,6L9,9L6,9L6,6M3,9L6,9L6,12L3,12L3,9M9,9L12,9L12,12L9,12L9,9"></path>
 </pattern>
 <pattern y="0" x="0" height="12" width="12" patternUnits="userSpaceOnUse" id="cp8pattern">
 <rect class="cp8color" height="12" width="12" y="0" x="0"></rect>
 <path fill="white" d="M0,0L3,0L3,3L0,3L0,0M6,0L9,0L9,3L6,3L6,0M3,3L6,3L6,6L3,6L3,3M9,3L12,3L12,6L9,6L9,3"></path>
 <path fill="white" d="M0,6L3,6L3,9L0,9L0,6M6,6L9,6L9,9L6,9L6,6M3,9L6,9L6,12L3,12L3,9M9,9L12,9L12,12L9,12L9,9"></path>
 </pattern>
 <pattern y="0" x="0" height="12" width="12" patternUnits="userSpaceOnUse" id="cp9pattern">
 <rect class="cp9color" height="12" width="12" y="0" x="0"></rect>
 <path fill="black" d="M0,0L3,0L3,3L0,3L0,0M6,0L9,0L9,3L6,3L6,0M3,3L6,3L6,6L3,6L3,3M9,3L12,3L12,6L9,6L9,3"></path>
 <path fill="black" d="M0,6L3,6L3,9L0,9L0,6M6,6L9,6L9,9L6,9L6,6M3,9L6,9L6,12L3,12L3,9M9,9L12,9L12,12L9,12L9,9"></path>
 </pattern>
 </defs>
 <rect height="100%" width="100%" y="0" x="0" class="road" id="mainfill"></rect>
 <g id="paths"><path d="M12,12L12,12L24,12L24,24L12,24L12,12M24,24L24,24L36,24L36,36L24,36L24,24M84,12L84,12L96,12L96,24L84,24L84,12M96,24L96,24L108,24L108,12L168,12L168,24L180,24L180,12L204,12L204,24L180,24L180,48L168,48L168,60L180,60L180,48L192,48L192,36L204,36L204,24L228,24L228,12L252,12L252,24L228,24L228,48L204,48L204,60L192,60L192,72L180,72L180,84L168,84L168,96L180,96L180,84L192,84L192,72L204,72L204,60L228,60L228,48L240,48L240,36L252,36L252,24L276,24L276,12L300,12L300,24L276,24L276,48L252,48L252,60L240,60L240,72L228,72L228,84L204,84L204,96L192,96L192,108L180,108L180,120L168,120L168,132L180,132L180,120L192,120L192,108L204,108L204,96L228,96L228,84L240,84L240,72L252,72L252,60L276,60L276,48L288,48L288,36L300,36L300,24L324,24L324,12L348,12L348,24L324,24L324,48L300,48L300,60L288,60L288,72L276,72L276,84L252,84L252,96L240,96L240,108L228,108L228,120L204,120L204,132L192,132L192,144L180,144L180,156L168,156L168,168L36,168L36,84L48,84L48,72L60,72L60,60L72,60L72,48L60,48L60,36L48,36L48,24L60,24L60,36L72,36L72,24L84,24L84,36L72,36L72,48L84,48L84,36L96,36L96,24M348,24L348,24L372,24L372,12L396,12L396,24L372,24L372,36L384,36L384,48L396,48L396,24L420,24L420,12L444,12L444,24L420,24L420,36L432,36L432,48L444,48L444,24L468,24L468,12L492,12L492,24L468,24L468,36L480,36L480,48L492,48L492,24L516,24L516,12L540,12L540,24L516,24L516,36L528,36L528,48L540,48L540,24L564,24L564,12L588,12L588,24L564,24L564,48L540,48L540,60L564,60L564,48L576,48L576,36L588,36L588,24L612,24L612,12L636,12L636,24L612,24L612,48L588,48L588,60L576,60L576,72L564,72L564,84L540,84L540,72L528,72L528,60L516,60L516,48L492,48L492,60L516,60L516,72L528,72L528,84L540,84L540,96L564,96L564,84L576,84L576,72L588,72L588,60L612,60L612,48L624,48L624,36L636,36L636,24L660,24L660,12L684,12L684,24L660,24L660,48L636,48L636,60L624,60L624,72L612,72L612,84L588,84L588,96L576,96L576,108L564,108L564,120L540,120L540,108L528,108L528,96L516,96L516,84L492,84L492,72L480,72L480,60L468,60L468,48L444,48L444,60L468,60L468,72L480,72L480,84L492,84L492,96L516,96L516,108L528,108L528,120L540,120L540,132L564,132L564,120L576,120L576,108L588,108L588,96L612,96L612,84L624,84L624,72L636,72L636,60L660,60L660,48L672,48L672,36L684,36L684,24L708,24L708,12L732,12L732,24L708,24L708,48L684,48L684,60L672,60L672,72L660,72L660,84L636,84L636,96L624,96L624,108L612,108L612,120L588,120L588,132L576,132L576,144L564,144L564,156L540,156L540,144L528,144L528,132L516,132L516,120L492,120L492,108L480,108L480,96L468,96L468,84L444,84L444,72L432,72L432,60L420,60L420,48L396,48L396,60L420,60L420,72L432,72L432,84L444,84L444,96L468,96L468,108L480,108L480,120L492,120L492,132L516,132L516,156L492,156L492,144L480,144L480,132L468,132L468,120L444,120L444,108L432,108L432,96L420,96L420,84L396,84L396,72L384,72L384,60L372,60L372,48L348,48L348,60L336,60L336,72L324,72L324,84L300,84L300,96L288,96L288,108L276,108L276,120L252,120L252,132L240,132L240,144L228,144L228,156L204,156L204,132L228,132L228,120L240,120L240,108L252,108L252,96L276,96L276,84L288,84L288,72L300,72L300,60L324,60L324,48L336,48L336,36L348,36L348,24M732,24L732,24L744,24L744,12L804,12L804,24L792,24L792,36L804,36L804,24L816,24L816,12L828,12L828,24L816,24L816,36L804,36L804,48L792,48L792,60L804,60L804,48L816,48L816,36L828,36L828,24L840,24L840,12L852,12L852,24L840,24L840,36L828,36L828,48L816,48L816,60L804,60L804,72L792,72L792,84L804,84L804,72L816,72L816,60L828,60L828,48L840,48L840,36L852,36L852,24L864,24L864,12L876,12L876,24L864,24L864,36L852,36L852,48L840,48L840,60L828,60L828,72L816,72L816,84L804,84L804,96L792,96L792,108L804,108L804,96L816,96L816,84L828,84L828,72L840,72L840,60L852,60L852,48L864,48L864,36L876,36L876,24L888,24L888,12L900,12L900,24L888,24L888,36L876,36L876,48L864,48L864,60L852,60L852,72L840,72L840,84L828,84L828,96L816,96L816,108L804,108L804,120L792,120L792,132L804,132L804,120L816,120L816,108L828,108L828,96L840,96L840,84L852,84L852,72L864,72L864,60L876,60L876,48L888,48L888,36L900,36L900,24L912,24L912,12L972,12L972,168L912,168L912,156L900,156L900,144L888,144L888,132L876,132L876,120L864,120L864,108L852,108L852,96L840,96L840,108L828,108L828,120L816,120L816,132L804,132L804,144L792,144L792,156L804,156L804,144L816,144L816,132L828,132L828,120L840,120L840,108L852,108L852,120L840,120L840,132L828,132L828,144L816,144L816,156L804,156L804,168L744,168L744,156L732,156L732,132L720,132L720,144L708,144L708,156L684,156L684,132L672,132L672,144L660,144L660,156L636,156L636,132L624,132L624,144L612,144L612,156L588,156L588,132L612,132L612,120L624,120L624,108L636,108L636,96L660,96L660,84L672,84L672,72L684,72L684,60L708,60L708,48L720,48L720,36L732,36L732,24M36,36L36,36L48,36L48,48L36,48L36,36M912,36L912,36L900,36L900,48L888,48L888,60L876,60L876,72L864,72L864,84L852,84L852,96L864,96L864,84L876,84L876,72L888,72L888,60L900,60L900,48L912,48L912,36M744,48L744,48L732,48L732,60L720,60L720,72L708,72L708,84L684,84L684,96L672,96L672,108L660,108L660,120L636,120L636,132L660,132L660,120L672,120L672,108L684,108L684,96L708,96L708,84L720,84L720,72L732,72L732,60L744,60L744,48M348,60L348,60L372,60L372,72L384,72L384,84L396,84L396,96L420,96L420,108L432,108L432,120L444,120L444,132L468,132L468,156L444,156L444,144L432,144L432,132L420,132L420,120L396,120L396,108L384,108L384,96L372,96L372,84L348,84L348,96L336,96L336,108L324,108L324,120L300,120L300,132L288,132L288,144L276,144L276,156L252,156L252,132L276,132L276,120L288,120L288,108L300,108L300,96L324,96L324,84L336,84L336,72L348,72L348,60M912,60L912,60L900,60L900,72L888,72L888,84L876,84L876,96L864,96L864,108L876,108L876,96L888,96L888,84L900,84L900,72L912,72L912,60M744,84L744,84L732,84L732,96L720,96L720,108L708,108L708,120L684,120L684,132L708,132L708,120L720,120L720,108L732,108L732,96L744,96L744,84M912,84L912,84L900,84L900,96L888,96L888,108L876,108L876,120L888,120L888,108L900,108L900,96L912,96L912,84M348,96L348,96L372,96L372,108L384,108L384,120L396,120L396,132L420,132L420,156L396,156L396,144L384,144L384,132L372,132L372,120L348,120L348,132L336,132L336,144L324,144L324,156L300,156L300,132L324,132L324,120L336,120L336,108L348,108L348,96M912,108L912,108L900,108L900,120L888,120L888,132L900,132L900,120L912,120L912,108M744,120L744,120L732,120L732,132L744,132L744,120M852,120L852,120L864,120L864,132L852,132L852,120M348,132L348,132L372,132L372,156L348,156L348,132M840,132L840,132L852,132L852,144L840,144L840,132M864,132L864,132L876,132L876,144L864,144L864,132M912,132L912,132L900,132L900,144L912,144L912,132M828,144L828,144L840,144L840,156L828,156L828,144M852,144L852,144L864,144L864,156L852,156L852,144M876,144L876,144L888,144L888,156L876,156L876,144M180,156L180,156L204,156L204,168L180,168L180,156M228,156L228,156L252,156L252,168L228,168L228,156M276,156L276,156L300,156L300,168L276,168L276,156M324,156L324,156L348,156L348,168L324,168L324,156M372,156L372,156L396,156L396,168L372,168L372,156M420,156L420,156L444,156L444,168L420,168L420,156M468,156L468,156L492,156L492,168L468,168L468,156M516,156L516,156L540,156L540,168L516,168L516,156M564,156L564,156L588,156L588,168L564,168L564,156M612,156L612,156L636,156L636,168L612,168L612,156M660,156L660,156L684,156L684,168L660,168L660,156M708,156L708,156L732,156L732,168L708,168L708,156M816,156L816,156L828,156L828,168L816,168L816,156M840,156L840,156L852,156L852,168L840,168L840,156M864,156L864,156L876,156L876,168L864,168L864,156M888,156L888,156L900,156L900,168L888,168Z" class="road"></path><path d="M0,0L0,0L12,0L12,84L0,84Z" class="parc"></path><path d="M12,0L12,0L996,0L996,180L0,180L0,84L12,84L12,24L24,24L24,12L12,12L12,0M96,12L96,12L84,12L84,24L72,24L72,36L60,36L60,24L48,24L48,36L36,36L36,24L24,24L24,36L36,36L36,48L48,48L48,36L60,36L60,48L72,48L72,36L84,36L84,24L96,24L96,12M120,12L120,12L108,12L108,24L96,24L96,36L84,36L84,48L72,48L72,60L60,60L60,72L48,72L48,84L36,84L36,168L168,168L168,156L180,156L180,144L192,144L192,132L204,132L204,120L228,120L228,108L240,108L240,96L252,96L252,84L276,84L276,72L288,72L288,60L300,60L300,48L324,48L324,24L300,24L300,12L276,12L276,24L252,24L252,12L228,12L228,24L204,24L204,12L180,12L180,24L168,24L168,12L120,12M336,12L336,12L324,12L324,24L348,24L348,12L336,12M384,12L384,12L372,12L372,24L348,24L348,36L336,36L336,48L324,48L324,60L300,60L300,72L288,72L288,84L276,84L276,96L252,96L252,108L240,108L240,120L228,120L228,132L204,132L204,156L180,156L180,168L204,168L204,156L228,156L228,144L240,144L240,132L252,132L252,120L276,120L276,108L288,108L288,96L300,96L300,84L324,84L324,72L336,72L336,60L348,60L348,48L372,48L372,60L348,60L348,72L336,72L336,84L324,84L324,96L300,96L300,108L288,108L288,120L276,120L276,132L252,132L252,156L228,156L228,168L252,168L252,156L276,156L276,144L288,144L288,132L300,132L300,120L324,120L324,108L336,108L336,96L348,96L348,84L372,84L372,96L348,96L348,108L336,108L336,120L324,120L324,132L300,132L300,156L276,156L276,168L300,168L300,156L324,156L324,144L336,144L336,132L348,132L348,120L372,120L372,132L348,132L348,156L324,156L324,168L348,168L348,156L372,156L372,132L384,132L384,144L396,144L396,156L372,156L372,168L396,168L396,156L420,156L420,132L396,132L396,120L384,120L384,108L372,108L372,96L384,96L384,108L396,108L396,120L420,120L420,132L432,132L432,144L444,144L444,156L420,156L420,168L444,168L444,156L468,156L468,132L444,132L444,120L432,120L432,108L420,108L420,96L396,96L396,84L384,84L384,72L372,72L372,60L384,60L384,72L396,72L396,84L420,84L420,96L432,96L432,108L444,108L444,120L468,120L468,132L480,132L480,144L492,144L492,156L468,156L468,168L492,168L492,156L516,156L516,132L492,132L492,120L480,120L480,108L468,108L468,96L444,96L444,84L432,84L432,72L420,72L420,60L396,60L396,48L384,48L384,36L372,36L372,24L396,24L396,12L384,12M432,12L432,12L420,12L420,24L396,24L396,48L420,48L420,60L432,60L432,72L444,72L444,84L468,84L468,96L480,96L480,108L492,108L492,120L516,120L516,132L528,132L528,144L540,144L540,156L516,156L516,168L540,168L540,156L564,156L564,144L576,144L576,132L588,132L588,120L612,120L612,108L624,108L624,96L636,96L636,84L660,84L660,72L672,72L672,60L684,60L684,48L708,48L708,24L684,24L684,12L660,12L660,24L636,24L636,12L612,12L612,24L588,24L588,12L564,12L564,24L540,24L540,12L516,12L516,24L492,24L492,12L468,12L468,24L444,24L444,12L432,12M720,12L720,12L708,12L708,24L732,24L732,12L720,12M756,12L756,12L744,12L744,24L732,24L732,36L720,36L720,48L708,48L708,60L684,60L684,72L672,72L672,84L660,84L660,96L636,96L636,108L624,108L624,120L612,120L612,132L588,132L588,156L564,156L564,168L588,168L588,156L612,156L612,144L624,144L624,132L636,132L636,120L660,120L660,108L672,108L672,96L684,96L684,84L708,84L708,72L720,72L720,60L732,60L732,48L744,48L744,60L732,60L732,72L720,72L720,84L708,84L708,96L684,96L684,108L672,108L672,120L660,120L660,132L636,132L636,156L612,156L612,168L636,168L636,156L660,156L660,144L672,144L672,132L684,132L684,120L708,120L708,108L720,108L720,96L732,96L732,84L744,84L744,96L732,96L732,108L720,108L720,120L708,120L708,132L684,132L684,156L660,156L660,168L684,168L684,156L708,156L708,144L720,144L720,132L732,132L732,120L744,120L744,132L732,132L732,156L708,156L708,168L732,168L732,156L744,156L744,168L804,168L804,156L792,156L792,144L804,144L804,132L792,132L792,120L804,120L804,108L792,108L792,96L804,96L804,84L792,84L792,72L804,72L804,60L792,60L792,48L804,48L804,36L792,36L792,24L804,24L804,12L756,12M828,12L828,12L816,12L816,24L804,24L804,36L816,36L816,24L828,24L828,12M852,12L852,12L840,12L840,24L828,24L828,36L816,36L816,48L804,48L804,60L816,60L816,48L828,48L828,36L840,36L840,24L852,24L852,12M876,12L876,12L864,12L864,24L852,24L852,36L840,36L840,48L828,48L828,60L816,60L816,72L804,72L804,84L816,84L816,72L828,72L828,60L840,60L840,48L852,48L852,36L864,36L864,24L876,24L876,12M900,12L900,12L888,12L888,24L876,24L876,36L864,36L864,48L852,48L852,60L840,60L840,72L828,72L828,84L816,84L816,96L804,96L804,108L816,108L816,96L828,96L828,84L840,84L840,72L852,72L852,60L864,60L864,48L876,48L876,36L888,36L888,24L900,24L900,12M924,12L924,12L912,12L912,24L900,24L900,36L888,36L888,48L876,48L876,60L864,60L864,72L852,72L852,84L840,84L840,96L828,96L828,108L816,108L816,120L804,120L804,132L816,132L816,120L828,120L828,108L840,108L840,96L852,96L852,84L864,84L864,72L876,72L876,60L888,60L888,48L900,48L900,36L912,36L912,48L900,48L900,60L888,60L888,72L876,72L876,84L864,84L864,96L852,96L852,108L840,108L840,120L828,120L828,132L816,132L816,144L804,144L804,156L816,156L816,144L828,144L828,132L840,132L840,120L852,120L852,108L864,108L864,96L876,96L876,84L888,84L888,72L900,72L900,60L912,60L912,72L900,72L900,84L888,84L888,96L876,96L876,108L864,108L864,120L852,120L852,132L840,132L840,144L828,144L828,156L816,156L816,168L828,168L828,156L840,156L840,144L852,144L852,132L864,132L864,120L876,120L876,108L888,108L888,96L900,96L900,84L912,84L912,96L900,96L900,108L888,108L888,120L876,120L876,132L864,132L864,144L852,144L852,156L840,156L840,168L852,168L852,156L864,156L864,144L876,144L876,132L888,132L888,120L900,120L900,108L912,108L912,120L900,120L900,132L888,132L888,144L876,144L876,156L864,156L864,168L876,168L876,156L888,156L888,144L900,144L900,132L912,132L912,144L900,144L900,156L888,156L888,168L900,168L900,156L912,156L912,168L972,168L972,12L924,12M180,24L180,24L204,24L204,36L192,36L192,48L180,48L180,24M228,24L228,24L252,24L252,36L240,36L240,48L228,48L228,24M276,24L276,24L300,24L300,36L288,36L288,48L276,48L276,24M420,24L420,24L444,24L444,48L432,48L432,36L420,36L420,24M468,24L468,24L492,24L492,48L480,48L480,36L468,36L468,24M516,24L516,24L540,24L540,48L528,48L528,36L516,36L516,24M564,24L564,24L588,24L588,36L576,36L576,48L564,48L564,24M612,24L612,24L636,24L636,36L624,36L624,48L612,48L612,24M660,24L660,24L684,24L684,36L672,36L672,48L660,48L660,24M180,48L180,48L180,60L168,60L168,48L180,48M228,48L228,48L228,60L204,60L204,48L228,48M276,48L276,48L276,60L252,60L252,48L276,48M444,48L444,48L468,48L468,60L444,60L444,48M492,48L492,48L516,48L516,60L492,60L492,48M540,48L540,48L564,48L564,60L540,60L540,48M612,48L612,48L612,60L588,60L588,48L612,48M660,48L660,48L660,60L636,60L636,48L660,48M204,60L204,60L204,72L192,72L192,60L204,60M252,60L252,60L252,72L240,72L240,60L252,60M468,60L468,60L480,60L480,72L468,72L468,60M516,60L516,60L528,60L528,72L516,72L516,60M588,60L588,60L588,72L576,72L576,60L588,60M636,60L636,60L636,72L624,72L624,60L636,60M192,72L192,72L192,84L180,84L180,72L192,72M240,72L240,72L240,84L228,84L228,72L240,72M480,72L480,72L492,72L492,84L480,84L480,72M528,72L528,72L540,72L540,84L528,84L528,72M576,72L576,72L576,84L564,84L564,72L576,72M624,72L624,72L624,84L612,84L612,72L624,72M180,84L180,84L180,96L168,96L168,84L180,84M228,84L228,84L228,96L204,96L204,84L228,84M492,84L492,84L516,84L516,96L492,96L492,84M540,84L540,84L564,84L564,96L540,96L540,84M612,84L612,84L612,96L588,96L588,84L612,84M204,96L204,96L204,108L192,108L192,96L204,96M516,96L516,96L528,96L528,108L516,108L516,96M588,96L588,96L588,108L576,108L576,96L588,96M192,108L192,108L192,120L180,120L180,108L192,108M528,108L528,108L540,108L540,120L528,120L528,108M576,108L576,108L576,120L564,120L564,108L576,108M180,120L180,120L180,132L168,132L168,120L180,120M540,120L540,120L564,120L564,132L540,132Z" class="grass"></path><path d="M960,12L960,12L972,12L972,96L960,96Z" class="finish"></path><path d="M36,84L36,84L48,84L48,168L36,168Z" class="start"></path></g>
 <rect opacity=".3" fill="url(#grid)" height="100%" width="100%" y="0" x="0"></rect>
</svg>