<svg xmlns="http://www.w3.org/2000/svg" xmlns:xlink="http://www.w3.org/1999/xlink" version="1.1" id="mapSvgView" width="1164" height="264"> <rect id="mainfill" class="grass" x="0" y="0" width="100%" height="100%"></rect> <g id="paths"><path d="M1068,96L1068,96L1152,96L1152,108L1068,108Z" class="cp1"></path><path d="M24,144L24,144L72,144L72,156L24,156Z" class="cp2"></path><path d="M0,0L0,0L12,0L12,108L0,108Z" class="parc"></path><path d="M264,12L264,12L564,12L564,24L588,24L588,36L600,36L600,48L588,48L588,60L576,60L576,72L564,72L564,84L540,84L540,72L480,72L480,60L312,60L312,72L276,72L276,84L252,84L252,96L228,96L228,108L216,108L216,120L204,120L204,132L180,132L180,120L168,120L168,108L156,108L156,96L144,96L144,72L156,72L156,60L168,60L168,48L180,48L180,36L216,36L216,24L264,24L264,12M648,12L648,12L948,12L948,24L984,24L984,36L996,36L996,48L1008,48L1008,60L996,60L996,72L984,72L984,84L972,84L972,96L960,96L960,84L948,84L948,72L924,72L924,60L696,60L696,72L672,72L672,84L648,84L648,72L636,72L636,60L624,60L624,48L612,48L612,36L624,36L624,24L648,24L648,12M1056,12L1056,12L1068,12L1068,24L1080,24L1080,36L1092,36L1092,48L1104,48L1104,60L1116,60L1116,72L1128,72L1128,84L1140,84L1140,96L1056,96L1056,84L1044,84L1044,72L1032,72L1032,60L1020,60L1020,48L1032,48L1032,36L1044,36L1044,24L1056,24L1056,12M24,24L24,24L36,24L36,36L48,36L48,48L60,48L60,60L72,60L72,72L84,72L84,84L96,84L96,96L108,96L108,108L96,108L96,120L84,120L84,132L72,132L72,144L24,144L24,24M600,48L600,48L612,48L612,60L600,60L600,48M588,60L588,60L600,60L600,72L588,72L588,60M612,60L612,60L624,60L624,72L612,72L612,60M1008,60L1008,60L1020,60L1020,72L1008,72L1008,60M576,72L576,72L588,72L588,84L576,84L576,72M600,72L600,72L612,72L612,84L600,84L600,72M624,72L624,72L636,72L636,84L624,84L624,72M996,72L996,72L1008,72L1008,84L996,84L996,72M1020,72L1020,72L1032,72L1032,84L1020,84L1020,72M564,84L564,84L576,84L576,96L564,96L564,84M588,84L588,84L600,84L600,96L588,96L588,84M612,84L612,84L624,84L624,96L612,96L612,84M636,84L636,84L648,84L648,96L636,96L636,84M984,84L984,84L996,84L996,96L984,96L984,84M1008,84L1008,84L1020,84L1020,96L1008,96L1008,84M1032,84L1032,84L1044,84L1044,96L1032,96L1032,84M336,84L336,84L372,84L372,108L360,108L360,96L336,96L336,84M396,84L396,84L432,84L432,96L408,96L408,108L396,108L396,84M576,96L576,96L588,96L588,108L576,108L576,96M564,96L564,96L564,108L576,108L576,120L588,120L588,108L600,108L600,96L612,96L612,108L600,108L600,120L588,120L588,132L600,132L600,120L612,120L612,108L624,108L624,96L636,96L636,108L624,108L624,120L612,120L612,132L600,132L600,144L588,144L588,156L576,156L576,168L564,168L564,180L552,180L552,192L540,192L540,204L516,204L516,216L480,216L480,228L444,228L444,240L168,240L168,228L144,228L144,216L132,216L132,204L120,204L120,192L108,192L108,180L96,180L96,168L84,168L84,156L72,156L72,144L84,144L84,132L96,132L96,120L108,120L108,108L120,108L120,120L108,120L108,132L96,132L96,144L84,144L84,156L96,156L96,144L108,144L108,132L120,132L120,120L132,120L132,132L120,132L120,144L108,144L108,156L96,156L96,168L108,168L108,156L120,156L120,144L132,144L132,132L144,132L144,144L132,144L132,156L120,156L120,168L108,168L108,180L120,180L120,168L132,168L132,156L144,156L144,144L156,144L156,156L144,156L144,168L132,168L132,180L120,180L120,192L132,192L132,180L144,180L144,168L156,168L156,156L168,156L168,168L180,168L180,180L204,180L204,192L432,192L432,180L468,180L468,168L492,168L492,156L504,156L504,144L516,144L516,132L528,132L528,120L540,120L540,108L552,108L552,96L564,96M648,96L648,96L660,96L660,108L672,108L672,120L684,120L684,132L696,132L696,144L720,144L720,156L744,156L744,168L888,168L888,156L912,156L912,144L936,144L936,132L948,132L948,120L960,120L960,108L972,108L972,96L984,96L984,108L972,108L972,120L984,120L984,108L996,108L996,96L1008,96L1008,108L996,108L996,120L984,120L984,132L996,132L996,120L1008,120L1008,108L1020,108L1020,96L1032,96L1032,108L1020,108L1020,120L1008,120L1008,132L996,132L996,144L1008,144L1008,132L1020,132L1020,120L1032,120L1032,108L1044,108L1044,96L1056,96L1056,108L1044,108L1044,120L1032,120L1032,132L1020,132L1020,144L1008,144L1008,156L996,156L996,168L984,168L984,180L972,180L972,192L936,192L936,204L888,204L888,216L756,216L756,204L720,204L720,192L684,192L684,180L660,180L660,168L636,168L636,156L624,156L624,144L612,144L612,132L624,132L624,120L636,120L636,108L648,108L648,96M372,108L372,108L396,108L396,132L408,132L408,144L360,144L360,132L372,132L372,108M1056,108L1056,108L1140,108L1140,120L1128,120L1128,132L1116,132L1116,144L1104,144L1104,156L1092,156L1092,168L1080,168L1080,180L1068,180L1068,192L1056,192L1056,180L1044,180L1044,168L1032,168L1032,156L1020,156L1020,144L1032,144L1032,132L1044,132L1044,120L1056,120L1056,108M72,156L72,156L72,168L84,168L84,180L96,180L96,192L108,192L108,204L96,204L96,216L84,216L84,228L72,228L72,240L24,240L24,156Z" class="road"></path><path d="M132,84L132,84L144,84L144,96L156,96L156,108L168,108L168,120L180,120L180,132L192,132L192,144L168,144L168,132L156,132L156,120L144,120L144,108L132,108Z" class="start"></path><path d="M120,96L120,96L132,96L132,108L120,108L120,96M132,108L132,108L144,108L144,120L132,120L132,108M144,120L144,120L156,120L156,132L144,132L144,120M156,132L156,132L168,132L168,144L156,144Z" class="finish"></path></g></svg>