<svg xmlns="http://www.w3.org/2000/svg" xmlns:xlink="http://www.w3.org/1999/xlink" version="1.1" id="mapSvgView" width="1200" height="420"> <rect id="mainfill" class="grass" x="0" y="0" width="100%" height="100%"></rect> <g id="paths"><path d="M924,132L924,132L984,132L984,144L924,144Z" class="cp1"></path><path d="M156,312L156,312L204,312L204,324L156,324Z" class="cp2"></path><path d="M0,0L0,0L12,0L12,48L0,48Z" class="parc"></path><path d="M348,24L348,24L516,24L516,36L528,36L528,24L552,24L552,72L528,72L528,60L516,60L516,72L384,72L384,84L372,84L372,96L360,96L360,108L348,108L348,192L336,192L336,204L324,204L324,216L312,216L312,228L336,228L336,216L360,216L360,204L708,204L708,216L720,216L720,204L780,204L780,216L804,216L804,204L792,204L792,192L780,192L780,180L768,180L768,168L756,168L756,72L768,72L768,60L792,60L792,48L816,48L816,36L864,36L864,48L876,48L876,60L888,60L888,72L900,72L900,84L912,84L912,96L936,96L936,108L948,108L948,120L960,120L960,132L900,132L900,120L888,120L888,108L876,108L876,96L852,96L852,84L840,84L840,72L816,72L816,216L852,216L852,204L972,204L972,192L960,192L960,168L948,168L948,156L936,156L936,144L1008,144L1008,168L1020,168L1020,180L1032,180L1032,192L1044,192L1044,216L1020,216L1020,240L852,240L852,228L816,228L816,396L768,396L768,384L720,384L720,324L732,324L732,312L744,312L744,300L756,300L756,288L768,288L768,276L780,276L780,264L792,264L792,252L804,252L804,228L780,228L780,240L312,240L312,252L324,252L324,264L336,264L336,276L348,276L348,360L324,360L324,372L216,372L216,360L204,360L204,348L192,348L192,336L180,336L180,324L216,324L216,336L228,336L228,348L300,348L300,240L180,240L180,252L168,252L168,288L180,288L180,300L192,300L192,312L144,312L144,300L132,300L132,288L120,288L120,276L108,276L108,264L96,264L96,228L120,228L120,216L144,216L144,204L240,204L240,216L276,216L276,228L300,228L300,48L312,48L312,36L348,36L348,24M540,36L540,36L528,36L528,60L540,60L540,36M360,48L360,48L348,48L348,72L360,72L360,60L372,60L372,48L360,48M588,216L588,216L576,216L576,228L612,228L612,216L588,216M1020,336L1020,336L1032,336L1032,348L1044,348L1044,360L1056,360L1056,372L1068,372L1068,384L1080,384L1080,408L1056,408L1056,384L996,384L996,408L972,408L972,384L984,384L984,372L996,372L996,360L1008,360L1008,348L1020,348L1020,336M1092,336L1092,336L1176,336L1176,348L1116,348L1116,372L1152,372L1152,384L1116,384L1116,408L1092,408L1092,336M1032,360L1032,360L1020,360L1020,372L1032,372Z" class="road"></path><path d="M516,24L516,24L528,24L528,36L516,36L516,24M528,36L528,36L540,36L540,60L528,60L528,36M528,60L528,60L528,72L516,72L516,60Z" class="start"></path><path d="M720,384L720,384L768,384L768,396L720,396Z" class="finish"></path></g></svg>