<svg xmlns:xlink="http://www.w3.org/1999/xlink" xmlns="http://www.w3.org/2000/svg" height="420" width="1200" id="mapSvgView" version="1.1" style="width: 1200px; height: 420px;" viewBox="0 0 1200 420">
 <defs>
 <pattern y="0" x="0" height="24" width="24" patternUnits="userSpaceOnUse" id="grassPattern">
 <rect class="grasscolor" height="24" width="24" y="0" x="0"></rect>
 <rect class="grassspeclecolor" height="1" width="1" x="1" y="5"></rect>
 <rect class="grassspeclecolor" height="1" width="1" x="1" y="5"></rect>
 <rect class="grassspeclecolor" height="1" width="1" x="3" y="5"></rect>
 <rect class="grassspeclecolor" height="1" width="1" x="6" y="7"></rect>
 <rect class="grassspeclecolor" height="1" width="1" x="6" y="17"></rect>
 <rect class="grassspeclecolor" height="1" width="1" x="8" y="21"></rect>
 <rect class="grassspeclecolor" height="1" width="1" x="9" y="2"></rect>
 <rect class="grassspeclecolor" height="1" width="1" x="12" y="4"></rect>
 <rect class="grassspeclecolor" height="1" width="1" x="13" y="15"></rect>
 <rect class="grassspeclecolor" height="1" width="1" x="14" y="4"></rect>
 <rect class="grassspeclecolor" height="1" width="1" x="14" y="19"></rect>
 <rect class="grassspeclecolor" height="1" width="1" x="17" y="7"></rect>
 <rect class="grassspeclecolor" height="1" width="1" x="17" y="12"></rect>
 <rect class="grassspeclecolor" height="1" width="1" x="18" y="23"></rect>
 <rect class="grassspeclecolor" height="1" width="1" x="21" y="16"></rect>
 <rect class="grassspeclecolor" height="1" width="1" x="23" y="12"></rect>
 </pattern>
 <pattern y="0" x="0" height="24" width="24" patternUnits="userSpaceOnUse" id="roadPattern">
 <rect class="roadcolor" height="24" width="24" y="0" x="0"></rect>
 <rect class="roadspeclecolor" height="1" width="1" x="1" y="5"></rect>
 <rect class="roadspeclecolor" height="1" width="1" x="1" y="5"></rect>
 <rect class="roadspeclecolor" height="1" width="1" x="3" y="5"></rect>
 <rect class="roadspeclecolor" height="1" width="1" x="6" y="7"></rect>
 <rect class="roadspeclecolor" height="1" width="1" x="6" y="17"></rect>
 <rect class="roadspeclecolor" height="1" width="1" x="8" y="21"></rect>
 <rect class="roadspeclecolor" height="1" width="1" x="9" y="2"></rect>
 <rect class="roadspeclecolor" height="1" width="1" x="12" y="4"></rect>
 <rect class="roadspeclecolor" height="1" width="1" x="13" y="15"></rect>
 <rect class="roadspeclecolor" height="1" width="1" x="14" y="4"></rect>
 <rect class="roadspeclecolor" height="1" width="1" x="14" y="19"></rect>
 <rect class="roadspeclecolor" height="1" width="1" x="17" y="7"></rect>
 <rect class="roadspeclecolor" height="1" width="1" x="17" y="12"></rect>
 <rect class="roadspeclecolor" height="1" width="1" x="18" y="23"></rect>
 <rect class="roadspeclecolor" height="1" width="1" x="21" y="16"></rect>
 <rect class="roadspeclecolor" height="1" width="1" x="23" y="12"></rect>
 </pattern>
 <pattern y="0" x="0" height="12" width="12" patternUnits="userSpaceOnUse" id="grid">
 <line stroke-width="1" stroke="black" y2="12" x2="12" y1="0" x1="12"></line>
 <line stroke-width="1" stroke="black" y2="12" x2="12" y1="12" x1="0"></line>
 </pattern>
 <pattern y="0" x="0" height="12" width="12" patternUnits="userSpaceOnUse" id="finishPattern">
 <rect fill="black" height="12" width="12" y="0" x="0"></rect>
 <path fill="white" d="M0,0L3,0L3,3L0,3L0,0M6,0L9,0L9,3L6,3L6,0M3,3L6,3L6,6L3,6L3,3M9,3L12,3L12,6L9,6L9,3"></path>
 <path fill="white" d="M0,6L3,6L3,9L0,9L0,6M6,6L9,6L9,9L6,9L6,6M3,9L6,9L6,12L3,12L3,9M9,9L12,9L12,12L9,12L9,9"></path>
 </pattern>
 <pattern y="0" x="0" height="12" width="12" patternUnits="userSpaceOnUse" id="startPattern">
 <rect fill="rgb(100,100,100)" height="12" width="12" y="0" x="0"></rect>
 <rect stroke-width="1" stroke="rgb(200,200,200)" fill="none" height="5" width="5" y="3.5" x="3.5"></rect>
 </pattern>
 <pattern y="0" x="0" height="12" width="12" patternUnits="userSpaceOnUse" id="cp1pattern">
 <rect class="cp1color" height="12" width="12" y="0" x="0"></rect>
 <path fill="black" d="M0,0L3,0L3,3L0,3L0,0M6,0L9,0L9,3L6,3L6,0M3,3L6,3L6,6L3,6L3,3M9,3L12,3L12,6L9,6L9,3"></path>
 <path fill="black" d="M0,6L3,6L3,9L0,9L0,6M6,6L9,6L9,9L6,9L6,6M3,9L6,9L6,12L3,12L3,9M9,9L12,9L12,12L9,12L9,9"></path>
 </pattern>
 <pattern y="0" x="0" height="12" width="12" patternUnits="userSpaceOnUse" id="cp2pattern">
 <rect class="cp2color" height="12" width="12" y="0" x="0"></rect>
 <path fill="white" d="M0,0L3,0L3,3L0,3L0,0M6,0L9,0L9,3L6,3L6,0M3,3L6,3L6,6L3,6L3,3M9,3L12,3L12,6L9,6L9,3"></path>
 <path fill="white" d="M0,6L3,6L3,9L0,9L0,6M6,6L9,6L9,9L6,9L6,6M3,9L6,9L6,12L3,12L3,9M9,9L12,9L12,12L9,12L9,9"></path>
 </pattern>
 <pattern y="0" x="0" height="12" width="12" patternUnits="userSpaceOnUse" id="cp3pattern">
 <rect class="cp3color" height="12" width="12" y="0" x="0"></rect>
 <path fill="black" d="M0,0L3,0L3,3L0,3L0,0M6,0L9,0L9,3L6,3L6,0M3,3L6,3L6,6L3,6L3,3M9,3L12,3L12,6L9,6L9,3"></path>
 <path fill="black" d="M0,6L3,6L3,9L0,9L0,6M6,6L9,6L9,9L6,9L6,6M3,9L6,9L6,12L3,12L3,9M9,9L12,9L12,12L9,12L9,9"></path>
 </pattern>
 <pattern y="0" x="0" height="12" width="12" patternUnits="userSpaceOnUse" id="cp4pattern">
 <rect class="cp4color" height="12" width="12" y="0" x="0"></rect>
 <path fill="white" d="M0,0L3,0L3,3L0,3L0,0M6,0L9,0L9,3L6,3L6,0M3,3L6,3L6,6L3,6L3,3M9,3L12,3L12,6L9,6L9,3"></path>
 <path fill="white" d="M0,6L3,6L3,9L0,9L0,6M6,6L9,6L9,9L6,9L6,6M3,9L6,9L6,12L3,12L3,9M9,9L12,9L12,12L9,12L9,9"></path>
 </pattern>
 <pattern y="0" x="0" height="12" width="12" patternUnits="userSpaceOnUse" id="cp5pattern">
 <rect class="cp5color" height="12" width="12" y="0" x="0"></rect>
 <path fill="black" d="M0,0L3,0L3,3L0,3L0,0M6,0L9,0L9,3L6,3L6,0M3,3L6,3L6,6L3,6L3,3M9,3L12,3L12,6L9,6L9,3"></path>
 <path fill="black" d="M0,6L3,6L3,9L0,9L0,6M6,6L9,6L9,9L6,9L6,6M3,9L6,9L6,12L3,12L3,9M9,9L12,9L12,12L9,12L9,9"></path>
 </pattern>
 <pattern y="0" x="0" height="12" width="12" patternUnits="userSpaceOnUse" id="cp6pattern">
 <rect class="cp6color" height="12" width="12" y="0" x="0"></rect>
 <path fill="white" d="M0,0L3,0L3,3L0,3L0,0M6,0L9,0L9,3L6,3L6,0M3,3L6,3L6,6L3,6L3,3M9,3L12,3L12,6L9,6L9,3"></path>
 <path fill="white" d="M0,6L3,6L3,9L0,9L0,6M6,6L9,6L9,9L6,9L6,6M3,9L6,9L6,12L3,12L3,9M9,9L12,9L12,12L9,12L9,9"></path>
 </pattern>
 <pattern y="0" x="0" height="12" width="12" patternUnits="userSpaceOnUse" id="cp7pattern">
 <rect class="cp7color" height="12" width="12" y="0" x="0"></rect>
 <path fill="black" d="M0,0L3,0L3,3L0,3L0,0M6,0L9,0L9,3L6,3L6,0M3,3L6,3L6,6L3,6L3,3M9,3L12,3L12,6L9,6L9,3"></path>
 <path fill="black" d="M0,6L3,6L3,9L0,9L0,6M6,6L9,6L9,9L6,9L6,6M3,9L6,9L6,12L3,12L3,9M9,9L12,9L12,12L9,12L9,9"></path>
 </pattern>
 <pattern y="0" x="0" height="12" width="12" patternUnits="userSpaceOnUse" id="cp8pattern">
 <rect class="cp8color" height="12" width="12" y="0" x="0"></rect>
 <path fill="white" d="M0,0L3,0L3,3L0,3L0,0M6,0L9,0L9,3L6,3L6,0M3,3L6,3L6,6L3,6L3,3M9,3L12,3L12,6L9,6L9,3"></path>
 <path fill="white" d="M0,6L3,6L3,9L0,9L0,6M6,6L9,6L9,9L6,9L6,6M3,9L6,9L6,12L3,12L3,9M9,9L12,9L12,12L9,12L9,9"></path>
 </pattern>
 <pattern y="0" x="0" height="12" width="12" patternUnits="userSpaceOnUse" id="cp9pattern">
 <rect class="cp9color" height="12" width="12" y="0" x="0"></rect>
 <path fill="black" d="M0,0L3,0L3,3L0,3L0,0M6,0L9,0L9,3L6,3L6,0M3,3L6,3L6,6L3,6L3,3M9,3L12,3L12,6L9,6L9,3"></path>
 <path fill="black" d="M0,6L3,6L3,9L0,9L0,6M6,6L9,6L9,9L6,9L6,6M3,9L6,9L6,12L3,12L3,9M9,9L12,9L12,12L9,12L9,9"></path>
 </pattern>
 </defs>
 <rect height="100%" width="100%" y="0" x="0" class="grass" id="mainfill"></rect>
 <g id="paths"><path d="M348,24L348,24L552,24L552,72L384,72L384,84L372,84L372,96L360,96L360,108L348,108L348,192L336,192L336,204L324,204L324,216L312,216L312,228L336,228L336,216L360,216L360,204L708,204L708,216L720,216L720,204L780,204L780,216L804,216L804,204L792,204L792,192L780,192L780,180L768,180L768,168L756,168L756,72L768,72L768,60L792,60L792,48L816,48L816,36L864,36L864,48L876,48L876,60L888,60L888,72L900,72L900,84L912,84L912,96L936,96L936,108L948,108L948,120L960,120L960,132L984,132L984,144L1008,144L1008,168L1020,168L1020,180L1032,180L1032,192L1044,192L1044,216L1020,216L1020,240L852,240L852,228L816,228L816,396L720,396L720,324L732,324L732,312L744,312L744,300L756,300L756,288L768,288L768,276L780,276L780,264L792,264L792,252L804,252L804,228L780,228L780,240L312,240L312,252L324,252L324,264L336,264L336,276L348,276L348,360L324,360L324,372L216,372L216,360L204,360L204,348L192,348L192,336L180,336L180,324L156,324L156,312L144,312L144,300L132,300L132,288L120,288L120,276L108,276L108,264L96,264L96,228L120,228L120,216L144,216L144,204L240,204L240,216L276,216L276,228L300,228L300,48L312,48L312,36L348,36L348,24M360,48L360,48L348,48L348,72L360,72L360,60L372,60L372,48L360,48M828,72L828,72L816,72L816,216L852,216L852,204L972,204L972,192L960,192L960,168L948,168L948,156L936,156L936,144L924,144L924,132L900,132L900,120L888,120L888,108L876,108L876,96L852,96L852,84L840,84L840,72L828,72M588,216L588,216L576,216L576,228L612,228L612,216L588,216M192,240L192,240L180,240L180,252L168,252L168,288L180,288L180,300L192,300L192,312L204,312L204,324L216,324L216,336L228,336L228,348L300,348L300,240L192,240M1020,336L1020,336L1032,336L1032,348L1044,348L1044,360L1056,360L1056,372L1068,372L1068,384L1080,384L1080,408L1056,408L1056,384L996,384L996,408L972,408L972,384L984,384L984,372L996,372L996,360L1008,360L1008,348L1020,348L1020,336M1092,336L1092,336L1176,336L1176,348L1116,348L1116,372L1152,372L1152,384L1116,384L1116,408L1092,408L1092,336M1032,360L1032,360L1020,360L1020,372L1032,372Z" class="road"></path><path d="M924,132L924,132L984,132L984,144L924,144Z" class="cp1"></path><path d="M156,312L156,312L204,312L204,324L156,324Z" class="cp2"></path><path d="M0,0L0,0L12,0L12,48L0,48Z" class="parc"></path><path d="M516,24L516,24L528,24L528,36L516,36L516,24M528,36L528,36L540,36L540,60L528,60L528,36M528,60L528,60L528,72L516,72L516,60Z" class="start"></path><path d="M720,384L720,384L768,384L768,396L720,396Z" class="finish"></path></g>
 <rect opacity=".3" fill="url(#grid)" height="100%" width="100%" y="0" x="0"></rect>
</svg>