<svg xmlns="http://www.w3.org/2000/svg" xmlns:xlink="http://www.w3.org/1999/xlink" version="1.1" id="mapSvgView" width="1068" height="396"> <rect id="mainfill" class="grass" x="0" y="0" width="100%" height="100%"></rect> <g id="paths"><path d="M0,0L0,0L12,0L12,72L0,72Z" class="parc"></path><path d="M36,12L36,12L48,12L48,72L36,72Z" class="finish"></path><path d="M48,12L48,12L192,12L192,24L216,24L216,36L228,36L228,84L216,84L216,96L204,96L204,132L192,132L192,192L204,192L204,240L216,240L216,228L228,228L228,240L216,240L216,252L204,252L204,324L216,324L216,336L240,336L240,252L228,252L228,240L240,240L240,252L252,252L252,240L264,240L264,216L252,216L252,192L240,192L240,108L252,108L252,96L264,96L264,84L276,84L276,72L300,72L300,60L312,60L312,48L324,48L324,36L348,36L348,24L372,24L372,12L468,12L468,24L480,24L480,36L516,36L516,24L528,24L528,12L1032,12L1032,24L1044,24L1044,36L1056,36L1056,72L1044,72L1044,84L1032,84L1032,96L1020,96L1020,108L996,108L996,120L984,120L984,132L600,132L600,168L648,168L648,192L660,192L660,168L888,168L888,192L900,192L900,168L996,168L996,180L1020,180L1020,192L1032,192L1032,252L1020,252L1020,264L996,264L996,276L984,276L984,288L948,288L948,300L912,300L912,312L876,312L876,324L864,324L864,336L840,336L840,348L804,348L804,360L780,360L780,372L744,372L744,384L372,384L372,324L768,324L768,312L792,312L792,300L828,300L828,288L864,288L864,276L900,276L900,264L924,264L924,252L948,252L948,228L780,228L780,204L768,204L768,228L564,228L564,216L540,216L540,204L492,204L492,216L480,216L480,228L468,228L468,240L456,240L456,276L444,276L444,288L384,288L384,276L372,276L372,240L360,240L360,108L372,108L372,96L396,96L396,84L984,84L984,72L996,72L996,60L864,60L864,48L852,48L852,36L816,36L816,48L804,48L804,60L396,60L396,72L372,72L372,84L360,84L360,96L348,96L348,108L336,108L336,192L324,192L324,216L312,216L312,240L324,240L324,264L336,264L336,312L324,312L324,324L312,324L312,348L300,348L300,360L288,360L288,372L276,372L276,384L168,384L168,372L156,372L156,360L144,360L144,348L132,348L132,336L120,336L120,324L108,324L108,312L96,312L96,288L84,288L84,264L72,264L72,228L96,228L96,216L72,216L72,180L84,180L84,156L96,156L96,144L108,144L108,132L120,132L120,120L132,120L132,108L144,108L144,96L168,96L168,84L192,84L192,72L48,72L48,12M828,96L828,96L816,96L816,108L876,108L876,96L828,96M576,108L576,108L564,108L564,120L624,120L624,108L576,108M288,120L288,120L276,120L276,144L300,144L300,120L288,120M456,132L456,132L444,132L444,192L432,192L432,204L420,204L420,216L408,216L408,252L420,252L420,240L432,240L432,228L444,228L444,216L456,216L456,204L468,204L468,180L480,180L480,168L588,168L588,132L456,132M132,156L132,156L120,156L120,192L144,192L144,156L132,156M168,156L168,156L156,156L156,192L180,192L180,156L168,156M156,240L156,240L144,240L144,252L192,252L192,240L156,240M912,336L912,336L924,336L924,372L912,372L912,336M936,336L936,336L960,336L960,348L948,348L948,372L936,372L936,336M960,348L960,348L972,348L972,336L996,336L996,372L984,372L984,348L972,348L972,360L960,360L960,348M1008,336L1008,336L1020,336L1020,360L1056,360L1056,372L1008,372Z" class="road"></path><path d="M360,324L360,324L372,324L372,384L360,384Z" class="start"></path></g></svg>