<svg xmlns:xlink="http://www.w3.org/1999/xlink" xmlns="http://www.w3.org/2000/svg" height="804" width="1536" id="mapSvgView" version="1.1" style="width: 1536px; height: 804px;" viewBox="0 0 1536 804">
 <defs>
 <pattern y="0" x="0" height="24" width="24" patternUnits="userSpaceOnUse" id="grassPattern">
 <rect class="grasscolor" height="24" width="24" y="0" x="0"></rect>
 <rect class="grassspeclecolor" height="1" width="1" x="1" y="5"></rect>
 <rect class="grassspeclecolor" height="1" width="1" x="1" y="5"></rect>
 <rect class="grassspeclecolor" height="1" width="1" x="3" y="5"></rect>
 <rect class="grassspeclecolor" height="1" width="1" x="6" y="7"></rect>
 <rect class="grassspeclecolor" height="1" width="1" x="6" y="17"></rect>
 <rect class="grassspeclecolor" height="1" width="1" x="8" y="21"></rect>
 <rect class="grassspeclecolor" height="1" width="1" x="9" y="2"></rect>
 <rect class="grassspeclecolor" height="1" width="1" x="12" y="4"></rect>
 <rect class="grassspeclecolor" height="1" width="1" x="13" y="15"></rect>
 <rect class="grassspeclecolor" height="1" width="1" x="14" y="4"></rect>
 <rect class="grassspeclecolor" height="1" width="1" x="14" y="19"></rect>
 <rect class="grassspeclecolor" height="1" width="1" x="17" y="7"></rect>
 <rect class="grassspeclecolor" height="1" width="1" x="17" y="12"></rect>
 <rect class="grassspeclecolor" height="1" width="1" x="18" y="23"></rect>
 <rect class="grassspeclecolor" height="1" width="1" x="21" y="16"></rect>
 <rect class="grassspeclecolor" height="1" width="1" x="23" y="12"></rect>
 </pattern>
 <pattern y="0" x="0" height="24" width="24" patternUnits="userSpaceOnUse" id="roadPattern">
 <rect class="roadcolor" height="24" width="24" y="0" x="0"></rect>
 <rect class="roadspeclecolor" height="1" width="1" x="1" y="5"></rect>
 <rect class="roadspeclecolor" height="1" width="1" x="1" y="5"></rect>
 <rect class="roadspeclecolor" height="1" width="1" x="3" y="5"></rect>
 <rect class="roadspeclecolor" height="1" width="1" x="6" y="7"></rect>
 <rect class="roadspeclecolor" height="1" width="1" x="6" y="17"></rect>
 <rect class="roadspeclecolor" height="1" width="1" x="8" y="21"></rect>
 <rect class="roadspeclecolor" height="1" width="1" x="9" y="2"></rect>
 <rect class="roadspeclecolor" height="1" width="1" x="12" y="4"></rect>
 <rect class="roadspeclecolor" height="1" width="1" x="13" y="15"></rect>
 <rect class="roadspeclecolor" height="1" width="1" x="14" y="4"></rect>
 <rect class="roadspeclecolor" height="1" width="1" x="14" y="19"></rect>
 <rect class="roadspeclecolor" height="1" width="1" x="17" y="7"></rect>
 <rect class="roadspeclecolor" height="1" width="1" x="17" y="12"></rect>
 <rect class="roadspeclecolor" height="1" width="1" x="18" y="23"></rect>
 <rect class="roadspeclecolor" height="1" width="1" x="21" y="16"></rect>
 <rect class="roadspeclecolor" height="1" width="1" x="23" y="12"></rect>
 </pattern>
 <pattern y="0" x="0" height="12" width="12" patternUnits="userSpaceOnUse" id="grid">
 <line stroke-width="1" stroke="black" y2="12" x2="12" y1="0" x1="12"></line>
 <line stroke-width="1" stroke="black" y2="12" x2="12" y1="12" x1="0"></line>
 </pattern>
 <pattern y="0" x="0" height="12" width="12" patternUnits="userSpaceOnUse" id="finishPattern">
 <rect fill="black" height="12" width="12" y="0" x="0"></rect>
 <path fill="white" d="M0,0L3,0L3,3L0,3L0,0M6,0L9,0L9,3L6,3L6,0M3,3L6,3L6,6L3,6L3,3M9,3L12,3L12,6L9,6L9,3"></path>
 <path fill="white" d="M0,6L3,6L3,9L0,9L0,6M6,6L9,6L9,9L6,9L6,6M3,9L6,9L6,12L3,12L3,9M9,9L12,9L12,12L9,12L9,9"></path>
 </pattern>
 <pattern y="0" x="0" height="12" width="12" patternUnits="userSpaceOnUse" id="startPattern">
 <rect fill="rgb(100,100,100)" height="12" width="12" y="0" x="0"></rect>
 <rect stroke-width="1" stroke="rgb(200,200,200)" fill="none" height="5" width="5" y="3.5" x="3.5"></rect>
 </pattern>
 <pattern y="0" x="0" height="12" width="12" patternUnits="userSpaceOnUse" id="cp1pattern">
 <rect class="cp1color" height="12" width="12" y="0" x="0"></rect>
 <path fill="black" d="M0,0L3,0L3,3L0,3L0,0M6,0L9,0L9,3L6,3L6,0M3,3L6,3L6,6L3,6L3,3M9,3L12,3L12,6L9,6L9,3"></path>
 <path fill="black" d="M0,6L3,6L3,9L0,9L0,6M6,6L9,6L9,9L6,9L6,6M3,9L6,9L6,12L3,12L3,9M9,9L12,9L12,12L9,12L9,9"></path>
 </pattern>
 <pattern y="0" x="0" height="12" width="12" patternUnits="userSpaceOnUse" id="cp2pattern">
 <rect class="cp2color" height="12" width="12" y="0" x="0"></rect>
 <path fill="white" d="M0,0L3,0L3,3L0,3L0,0M6,0L9,0L9,3L6,3L6,0M3,3L6,3L6,6L3,6L3,3M9,3L12,3L12,6L9,6L9,3"></path>
 <path fill="white" d="M0,6L3,6L3,9L0,9L0,6M6,6L9,6L9,9L6,9L6,6M3,9L6,9L6,12L3,12L3,9M9,9L12,9L12,12L9,12L9,9"></path>
 </pattern>
 <pattern y="0" x="0" height="12" width="12" patternUnits="userSpaceOnUse" id="cp3pattern">
 <rect class="cp3color" height="12" width="12" y="0" x="0"></rect>
 <path fill="black" d="M0,0L3,0L3,3L0,3L0,0M6,0L9,0L9,3L6,3L6,0M3,3L6,3L6,6L3,6L3,3M9,3L12,3L12,6L9,6L9,3"></path>
 <path fill="black" d="M0,6L3,6L3,9L0,9L0,6M6,6L9,6L9,9L6,9L6,6M3,9L6,9L6,12L3,12L3,9M9,9L12,9L12,12L9,12L9,9"></path>
 </pattern>
 <pattern y="0" x="0" height="12" width="12" patternUnits="userSpaceOnUse" id="cp4pattern">
 <rect class="cp4color" height="12" width="12" y="0" x="0"></rect>
 <path fill="white" d="M0,0L3,0L3,3L0,3L0,0M6,0L9,0L9,3L6,3L6,0M3,3L6,3L6,6L3,6L3,3M9,3L12,3L12,6L9,6L9,3"></path>
 <path fill="white" d="M0,6L3,6L3,9L0,9L0,6M6,6L9,6L9,9L6,9L6,6M3,9L6,9L6,12L3,12L3,9M9,9L12,9L12,12L9,12L9,9"></path>
 </pattern>
 <pattern y="0" x="0" height="12" width="12" patternUnits="userSpaceOnUse" id="cp5pattern">
 <rect class="cp5color" height="12" width="12" y="0" x="0"></rect>
 <path fill="black" d="M0,0L3,0L3,3L0,3L0,0M6,0L9,0L9,3L6,3L6,0M3,3L6,3L6,6L3,6L3,3M9,3L12,3L12,6L9,6L9,3"></path>
 <path fill="black" d="M0,6L3,6L3,9L0,9L0,6M6,6L9,6L9,9L6,9L6,6M3,9L6,9L6,12L3,12L3,9M9,9L12,9L12,12L9,12L9,9"></path>
 </pattern>
 <pattern y="0" x="0" height="12" width="12" patternUnits="userSpaceOnUse" id="cp6pattern">
 <rect class="cp6color" height="12" width="12" y="0" x="0"></rect>
 <path fill="white" d="M0,0L3,0L3,3L0,3L0,0M6,0L9,0L9,3L6,3L6,0M3,3L6,3L6,6L3,6L3,3M9,3L12,3L12,6L9,6L9,3"></path>
 <path fill="white" d="M0,6L3,6L3,9L0,9L0,6M6,6L9,6L9,9L6,9L6,6M3,9L6,9L6,12L3,12L3,9M9,9L12,9L12,12L9,12L9,9"></path>
 </pattern>
 <pattern y="0" x="0" height="12" width="12" patternUnits="userSpaceOnUse" id="cp7pattern">
 <rect class="cp7color" height="12" width="12" y="0" x="0"></rect>
 <path fill="black" d="M0,0L3,0L3,3L0,3L0,0M6,0L9,0L9,3L6,3L6,0M3,3L6,3L6,6L3,6L3,3M9,3L12,3L12,6L9,6L9,3"></path>
 <path fill="black" d="M0,6L3,6L3,9L0,9L0,6M6,6L9,6L9,9L6,9L6,6M3,9L6,9L6,12L3,12L3,9M9,9L12,9L12,12L9,12L9,9"></path>
 </pattern>
 <pattern y="0" x="0" height="12" width="12" patternUnits="userSpaceOnUse" id="cp8pattern">
 <rect class="cp8color" height="12" width="12" y="0" x="0"></rect>
 <path fill="white" d="M0,0L3,0L3,3L0,3L0,0M6,0L9,0L9,3L6,3L6,0M3,3L6,3L6,6L3,6L3,3M9,3L12,3L12,6L9,6L9,3"></path>
 <path fill="white" d="M0,6L3,6L3,9L0,9L0,6M6,6L9,6L9,9L6,9L6,6M3,9L6,9L6,12L3,12L3,9M9,9L12,9L12,12L9,12L9,9"></path>
 </pattern>
 <pattern y="0" x="0" height="12" width="12" patternUnits="userSpaceOnUse" id="cp9pattern">
 <rect class="cp9color" height="12" width="12" y="0" x="0"></rect>
 <path fill="black" d="M0,0L3,0L3,3L0,3L0,0M6,0L9,0L9,3L6,3L6,0M3,3L6,3L6,6L3,6L3,3M9,3L12,3L12,6L9,6L9,3"></path>
 <path fill="black" d="M0,6L3,6L3,9L0,9L0,6M6,6L9,6L9,9L6,9L6,6M3,9L6,9L6,12L3,12L3,9M9,9L12,9L12,12L9,12L9,9"></path>
 </pattern>
 </defs>
 <rect height="100%" width="100%" y="0" x="0" class="road" id="mainfill"></rect>
 <g id="paths"><path d="M144,12L144,12L744,12L744,24L756,24L756,36L768,36L768,48L780,48L780,60L792,60L792,72L816,72L816,60L828,60L828,48L840,48L840,36L852,36L852,24L864,24L864,12L1416,12L1416,24L1452,24L1452,36L1476,36L1476,48L1500,48L1500,60L1512,60L1512,84L1524,84L1524,168L1512,168L1512,180L1500,180L1500,192L1488,192L1488,204L1476,204L1476,216L1464,216L1464,228L1452,228L1452,240L1440,240L1440,252L1428,252L1428,276L1440,276L1440,288L1452,288L1452,300L1464,300L1464,312L1476,312L1476,324L1488,324L1488,336L1500,336L1500,348L1512,348L1512,684L1500,684L1500,720L1488,720L1488,732L1476,732L1476,744L1464,744L1464,756L1440,756L1440,768L1404,768L1404,780L1368,780L1368,792L1248,792L1248,780L1188,780L1188,768L1152,768L1152,756L1116,756L1116,744L1092,744L1092,732L1068,732L1068,720L1032,720L1032,708L996,708L996,696L924,696L924,684L600,684L600,696L528,696L528,708L480,708L480,720L444,720L444,732L420,732L420,744L396,744L396,756L372,756L372,768L336,768L336,780L276,780L276,792L132,792L132,780L96,780L96,768L72,768L72,756L60,756L60,744L48,744L48,720L36,720L36,684L24,684L24,336L1032,336L1032,348L1044,348L1044,360L1056,360L1056,372L1068,372L1068,384L1080,384L1080,396L1092,396L1092,408L1104,408L1104,420L1128,420L1128,408L1116,408L1116,396L1104,396L1104,384L1092,384L1092,372L1080,372L1080,360L1068,360L1068,348L1056,348L1056,336L1260,336L1260,300L108,300L108,288L96,288L96,276L84,276L84,288L96,288L96,300L24,300L24,144L36,144L36,96L48,96L48,72L60,72L60,60L72,60L72,48L84,48L84,36L108,36L108,24L144,24L144,12M768,12L768,12L780,12L780,24L768,24L768,12M780,24L780,24L792,24L792,36L780,36L780,24M828,12L828,12L840,12L840,24L828,24L828,12M828,24L828,24L828,36L816,36L816,24L828,24M792,36L792,36L816,36L816,48L792,48L792,36M684,60L684,60L672,60L672,72L660,72L660,84L648,84L648,96L636,96L636,108L624,108L624,120L168,120L168,144L1344,144L1344,240L1332,240L1332,252L1320,252L1320,264L1308,264L1308,276L1296,276L1296,360L1308,360L1308,372L1320,372L1320,384L1332,384L1332,396L1344,396L1344,492L336,492L336,480L348,480L348,468L360,468L360,456L372,456L372,444L384,444L384,432L396,432L396,420L408,420L408,408L384,408L384,420L372,420L372,432L360,432L360,444L348,444L348,456L336,456L336,468L324,468L324,480L312,480L312,492L180,492L180,528L168,528L168,600L180,600L180,624L192,624L192,636L204,636L204,648L240,648L240,636L264,636L264,624L288,624L288,612L312,612L312,600L336,600L336,588L360,588L360,576L396,576L396,564L444,564L444,552L516,552L516,540L600,540L600,528L912,528L912,540L1008,540L1008,552L1080,552L1080,564L1128,564L1128,576L1164,576L1164,588L1200,588L1200,600L1224,600L1224,612L1248,612L1248,624L1272,624L1272,636L1296,636L1296,648L1332,648L1332,636L1344,636L1344,624L1356,624L1356,600L1368,600L1368,564L1380,564L1380,444L1368,444L1368,216L1380,216L1380,204L1392,204L1392,192L1404,192L1404,180L1416,180L1416,168L1428,168L1428,156L1440,156L1440,144L1452,144L1452,120L1440,120L1440,108L1296,108L1296,120L744,120L744,108L732,108L732,96L720,96L720,84L708,84L708,72L696,72L696,60L684,60M672,84L672,84L696,84L696,96L672,96L672,84M672,96L672,96L672,108L660,108L660,96L672,96M696,96L696,96L708,96L708,108L696,108L696,96M660,108L660,108L660,120L648,120L648,108L660,108M708,108L708,108L720,108L720,120L708,120L708,108M60,120L60,120L48,120L48,144L60,144L60,120M84,120L84,120L72,120L72,144L84,144L84,120M108,120L108,120L96,120L96,156L84,156L84,168L96,168L96,156L108,156L108,120M132,120L132,120L120,120L120,144L132,144L132,120M156,120L156,120L144,120L144,144L156,144L156,120M528,156L528,156L516,156L516,168L504,168L504,180L492,180L492,192L480,192L480,204L420,204L420,216L384,216L384,228L420,228L420,240L480,240L480,252L492,252L492,264L504,264L504,276L516,276L516,288L552,288L552,276L540,276L540,264L528,264L528,252L516,252L516,240L564,240L564,252L576,252L576,264L588,264L588,228L600,228L600,216L588,216L588,180L576,180L576,192L564,192L564,204L516,204L516,192L528,192L528,180L540,180L540,168L552,168L552,156L528,156M108,168L108,168L96,168L96,180L84,180L84,192L96,192L96,180L108,180L108,168M108,192L108,192L96,192L96,204L84,204L84,216L96,216L96,204L108,204L108,192M60,216L60,216L48,216L48,228L72,228L72,216L60,216M108,216L108,216L96,216L96,228L84,228L84,240L96,240L96,228L120,228L120,216L108,216M156,216L156,216L144,216L144,228L168,228L168,216L156,216M204,216L204,216L192,216L192,228L216,228L216,216L204,216M252,216L252,216L240,216L240,228L264,228L264,216L252,216M300,216L300,216L288,216L288,228L312,228L312,216L300,216M348,216L348,216L336,216L336,228L360,228L360,216L348,216M636,216L636,216L624,216L624,228L648,228L648,216L636,216M684,216L684,216L672,216L672,228L696,228L696,216L684,216M732,216L732,216L720,216L720,228L744,228L744,216L732,216M780,216L780,216L768,216L768,228L792,228L792,216L780,216M828,216L828,216L816,216L816,228L840,228L840,216L828,216M876,216L876,216L864,216L864,228L888,228L888,216L876,216M924,216L924,216L912,216L912,228L936,228L936,216L924,216M972,216L972,216L960,216L960,228L984,228L984,216L972,216M1020,216L1020,216L1008,216L1008,228L1032,228L1032,216L1020,216M1068,216L1068,216L1056,216L1056,228L1080,228L1080,216L1068,216M1116,216L1116,216L1104,216L1104,228L1128,228L1128,216L1116,216M1164,216L1164,216L1152,216L1152,228L1176,228L1176,216L1164,216M1212,216L1212,216L1200,216L1200,228L1224,228L1224,216L1212,216M1260,216L1260,216L1248,216L1248,228L1272,228L1272,216L1260,216M1308,216L1308,216L1296,216L1296,228L1320,228L1320,216L1308,216M1500,204L1500,204L1512,204L1512,216L1500,216L1500,204M1500,216L1500,216L1500,228L1488,228L1488,216L1500,216M432,216L432,216L444,216L444,228L432,228L432,216M1488,228L1488,228L1488,240L1476,240L1476,228L1488,228M108,240L108,240L96,240L96,252L84,252L84,264L96,264L96,252L108,252L108,240M1476,240L1476,240L1476,252L1464,252L1464,240L1476,240M1464,252L1464,252L1464,276L1452,276L1452,252L1464,252M1500,240L1500,240L1512,240L1512,252L1500,252L1500,240M1500,252L1500,252L1500,276L1488,276L1488,252L1500,252M108,264L108,264L96,264L96,276L108,276L108,264M1464,276L1464,276L1476,276L1476,288L1464,288L1464,276M1500,276L1500,276L1512,276L1512,288L1500,288L1500,276M1476,288L1476,288L1488,288L1488,300L1476,300L1476,288M1488,300L1488,300L1500,300L1500,312L1488,312L1488,300M1500,312L1500,312L1512,312L1512,324L1500,324L1500,312M60,408L60,408L48,408L48,420L72,420L72,408L60,408M108,408L108,408L96,408L96,420L120,420L120,408L108,408M156,408L156,408L144,408L144,420L168,420L168,408L156,408M204,408L204,408L192,408L192,420L216,420L216,408L204,408M252,408L252,408L240,408L240,420L264,420L264,408L252,408M300,408L300,408L288,408L288,420L312,420L312,408L300,408M348,408L348,408L336,408L336,420L360,420L360,408L348,408M444,408L444,408L432,408L432,420L456,420L456,408L444,408M492,408L492,408L480,408L480,420L504,420L504,408L492,408M540,408L540,408L528,408L528,420L552,420L552,408L540,408M588,408L588,408L576,408L576,420L600,420L600,408L588,408M636,408L636,408L624,408L624,420L648,420L648,408L636,408M684,408L684,408L672,408L672,420L696,420L696,408L684,408M732,408L732,408L720,408L720,420L744,420L744,408L732,408M780,408L780,408L768,408L768,420L792,420L792,408L780,408M828,408L828,408L816,408L816,420L840,420L840,408L828,408M876,408L876,408L864,408L864,420L888,420L888,408L876,408M924,408L924,408L912,408L912,420L936,420L936,408L924,408M972,408L972,408L960,408L960,420L984,420L984,408L972,408M1020,408L1020,408L1008,408L1008,420L1032,420L1032,408L1020,408M1068,408L1068,408L1056,408L1056,420L1080,420L1080,408L1068,408M1164,408L1164,408L1152,408L1152,420L1176,420L1176,408L1164,408M1212,408L1212,408L1200,408L1200,420L1224,420L1224,408L1212,408M1260,408L1260,408L1248,408L1248,420L1272,420L1272,408L1260,408M1308,408L1308,408L1296,408L1296,420L1320,420L1320,408L1308,408M48,492L48,492L36,492L36,516L48,516L48,492M72,492L72,492L60,492L60,516L72,516L72,492M96,492L96,492L84,492L84,516L96,516L96,492M120,492L120,492L108,492L108,516L120,516L120,492M144,492L144,492L132,492L132,516L144,516L144,492M168,492L168,492L156,492L156,516L168,516L168,492M1260,528L1260,528L1320,528L1320,540L1296,540L1296,552L1308,552L1308,564L1296,564L1296,588L1272,588L1272,576L1260,576L1260,564L1272,564L1272,576L1284,576L1284,540L1260,540L1260,528M444,636L444,636L432,636L432,648L444,648L444,636M1092,636L1092,636L1080,636L1080,648L1092,648L1092,636M396,660L396,660L384,660L384,672L396,672L396,660M1140,660L1140,660L1128,660L1128,672L1140,672L1140,660M348,684L348,684L336,684L336,696L348,696L348,684M1188,684L1188,684L1176,684L1176,696L1188,696L1188,684M744,708L744,708L804,708L804,720L792,720L792,732L756,732L756,720L744,720L744,708M744,720L744,720L744,732L756,732L756,768L744,768L744,780L732,780L732,720L744,720M804,720L804,720L816,720L816,780L804,780L804,768L792,768L792,732L804,732L804,720M756,768L756,768L792,768L792,780L804,780L804,792L744,792L744,780L756,780Z" class="road"></path><path d="M24,492L24,492L36,492L36,516L24,516L24,492M48,492L48,492L60,492L60,516L48,516L48,492M72,492L72,492L84,492L84,516L72,516L72,492M96,492L96,492L108,492L108,516L96,516L96,492M120,492L120,492L132,492L132,516L120,516L120,492M144,492L144,492L156,492L156,516L144,516L144,492M168,492L168,492L180,492L180,516L168,516Z" class="cp1"></path><path d="M1260,300L1260,300L1296,300L1296,336L1260,336Z" class="cp2"></path><path d="M36,120L36,120L48,120L48,144L36,144L36,120M60,120L60,120L72,120L72,144L60,144L60,120M84,120L84,120L96,120L96,144L84,144L84,120M108,120L108,120L120,120L120,144L108,144L108,120M132,120L132,120L144,120L144,144L132,144L132,120M156,120L156,120L168,120L168,144L156,144Z" class="cp3"></path><path d="M1368,252L1368,252L1428,252L1428,276L1368,276Z" class="cp4"></path><path d="M0,0L0,0L12,0L12,240L0,240Z" class="parc"></path><path d="M12,0L12,0L1536,0L1536,804L0,804L0,240L12,240L12,0M156,12L156,12L144,12L144,24L108,24L108,36L84,36L84,48L72,48L72,60L60,60L60,72L48,72L48,96L36,96L36,144L24,144L24,300L96,300L96,288L84,288L84,276L96,276L96,264L84,264L84,252L96,252L96,240L84,240L84,228L96,228L96,216L84,216L84,204L96,204L96,192L84,192L84,180L96,180L96,168L84,168L84,156L96,156L96,120L108,120L108,156L96,156L96,168L108,168L108,180L96,180L96,192L108,192L108,204L96,204L96,216L120,216L120,228L96,228L96,240L108,240L108,252L96,252L96,264L108,264L108,276L96,276L96,288L108,288L108,300L1260,300L1260,336L1056,336L1056,348L1068,348L1068,360L1080,360L1080,372L1092,372L1092,384L1104,384L1104,396L1116,396L1116,408L1128,408L1128,420L1104,420L1104,408L1092,408L1092,396L1080,396L1080,384L1068,384L1068,372L1056,372L1056,360L1044,360L1044,348L1032,348L1032,336L24,336L24,684L36,684L36,720L48,720L48,744L60,744L60,756L72,756L72,768L96,768L96,780L132,780L132,792L276,792L276,780L336,780L336,768L372,768L372,756L396,756L396,744L420,744L420,732L444,732L444,720L480,720L480,708L528,708L528,696L600,696L600,684L924,684L924,696L996,696L996,708L1032,708L1032,720L1068,720L1068,732L1092,732L1092,744L1116,744L1116,756L1152,756L1152,768L1188,768L1188,780L1248,780L1248,792L1368,792L1368,780L1404,780L1404,768L1440,768L1440,756L1464,756L1464,744L1476,744L1476,732L1488,732L1488,720L1500,720L1500,684L1512,684L1512,348L1500,348L1500,336L1488,336L1488,324L1476,324L1476,312L1464,312L1464,300L1452,300L1452,288L1440,288L1440,276L1428,276L1428,252L1440,252L1440,240L1452,240L1452,228L1464,228L1464,216L1476,216L1476,204L1488,204L1488,192L1500,192L1500,180L1512,180L1512,168L1524,168L1524,84L1512,84L1512,60L1500,60L1500,48L1476,48L1476,36L1452,36L1452,24L1416,24L1416,12L864,12L864,24L852,24L852,36L840,36L840,48L828,48L828,60L816,60L816,72L792,72L792,60L780,60L780,48L768,48L768,36L756,36L756,24L744,24L744,12L156,12M780,12L780,12L768,12L768,24L780,24L780,12M840,12L840,12L828,12L828,24L816,24L816,36L792,36L792,24L780,24L780,36L792,36L792,48L816,48L816,36L828,36L828,24L840,24L840,12M672,60L672,60L696,60L696,72L708,72L708,84L720,84L720,96L732,96L732,108L744,108L744,120L1296,120L1296,108L1440,108L1440,120L1452,120L1452,144L1440,144L1440,156L1428,156L1428,168L1416,168L1416,180L1404,180L1404,192L1392,192L1392,204L1380,204L1380,216L1368,216L1368,444L1380,444L1380,564L1368,564L1368,600L1356,600L1356,624L1344,624L1344,636L1332,636L1332,648L1296,648L1296,636L1272,636L1272,624L1248,624L1248,612L1224,612L1224,600L1200,600L1200,588L1164,588L1164,576L1128,576L1128,564L1080,564L1080,552L1008,552L1008,540L912,540L912,528L600,528L600,540L516,540L516,552L444,552L444,564L396,564L396,576L360,576L360,588L336,588L336,600L312,600L312,612L288,612L288,624L264,624L264,636L240,636L240,648L204,648L204,636L192,636L192,624L180,624L180,600L168,600L168,528L180,528L180,492L312,492L312,480L324,480L324,468L336,468L336,456L348,456L348,444L360,444L360,432L372,432L372,420L384,420L384,408L408,408L408,420L396,420L396,432L384,432L384,444L372,444L372,456L360,456L360,468L348,468L348,480L336,480L336,492L1344,492L1344,396L1332,396L1332,384L1320,384L1320,372L1308,372L1308,360L1296,360L1296,276L1308,276L1308,264L1320,264L1320,252L1332,252L1332,240L1344,240L1344,144L168,144L168,120L624,120L624,108L636,108L636,96L648,96L648,84L660,84L660,72L672,72L672,60M684,84L684,84L672,84L672,96L660,96L660,108L648,108L648,120L660,120L660,108L672,108L672,96L696,96L696,84L684,84M708,96L708,96L696,96L696,108L708,108L708,96M720,108L720,108L708,108L708,120L720,120L720,108M48,120L48,120L60,120L60,144L48,144L48,120M72,120L72,120L84,120L84,144L72,144L72,120M120,120L120,120L132,120L132,144L120,144L120,120M144,120L144,120L156,120L156,144L144,144L144,120M516,156L516,156L552,156L552,168L540,168L540,180L528,180L528,192L516,192L516,204L564,204L564,192L576,192L576,180L588,180L588,216L600,216L600,228L588,228L588,264L576,264L576,252L564,252L564,240L516,240L516,252L528,252L528,264L540,264L540,276L552,276L552,288L516,288L516,276L504,276L504,264L492,264L492,252L480,252L480,240L420,240L420,228L384,228L384,216L420,216L420,204L480,204L480,192L492,192L492,180L504,180L504,168L516,168L516,156M1512,204L1512,204L1500,204L1500,216L1488,216L1488,228L1476,228L1476,240L1464,240L1464,252L1452,252L1452,276L1464,276L1464,252L1476,252L1476,240L1488,240L1488,228L1500,228L1500,216L1512,216L1512,204M444,216L444,216L432,216L432,228L444,228L444,216M48,216L48,216L72,216L72,228L48,228L48,216M144,216L144,216L168,216L168,228L144,228L144,216M192,216L192,216L216,216L216,228L192,228L192,216M240,216L240,216L264,216L264,228L240,228L240,216M288,216L288,216L312,216L312,228L288,228L288,216M336,216L336,216L360,216L360,228L336,228L336,216M624,216L624,216L648,216L648,228L624,228L624,216M672,216L672,216L696,216L696,228L672,228L672,216M720,216L720,216L744,216L744,228L720,228L720,216M768,216L768,216L792,216L792,228L768,228L768,216M816,216L816,216L840,216L840,228L816,228L816,216M864,216L864,216L888,216L888,228L864,228L864,216M912,216L912,216L936,216L936,228L912,228L912,216M960,216L960,216L984,216L984,228L960,228L960,216M1008,216L1008,216L1032,216L1032,228L1008,228L1008,216M1056,216L1056,216L1080,216L1080,228L1056,228L1056,216M1104,216L1104,216L1128,216L1128,228L1104,228L1104,216M1152,216L1152,216L1176,216L1176,228L1152,228L1152,216M1200,216L1200,216L1224,216L1224,228L1200,228L1200,216M1248,216L1248,216L1272,216L1272,228L1248,228L1248,216M1296,216L1296,216L1320,216L1320,228L1296,228L1296,216M1512,240L1512,240L1500,240L1500,252L1488,252L1488,276L1500,276L1500,252L1512,252L1512,240M1476,276L1476,276L1464,276L1464,288L1476,288L1476,276M1512,276L1512,276L1500,276L1500,288L1512,288L1512,276M1488,288L1488,288L1476,288L1476,300L1488,300L1488,288M1500,300L1500,300L1488,300L1488,312L1500,312L1500,300M1512,312L1512,312L1500,312L1500,324L1512,324L1512,312M48,408L48,408L72,408L72,420L48,420L48,408M96,408L96,408L120,408L120,420L96,420L96,408M144,408L144,408L168,408L168,420L144,420L144,408M192,408L192,408L216,408L216,420L192,420L192,408M240,408L240,408L264,408L264,420L240,420L240,408M288,408L288,408L312,408L312,420L288,420L288,408M336,408L336,408L360,408L360,420L336,420L336,408M432,408L432,408L456,408L456,420L432,420L432,408M480,408L480,408L504,408L504,420L480,420L480,408M528,408L528,408L552,408L552,420L528,420L528,408M576,408L576,408L600,408L600,420L576,420L576,408M624,408L624,408L648,408L648,420L624,420L624,408M672,408L672,408L696,408L696,420L672,420L672,408M720,408L720,408L744,408L744,420L720,420L720,408M768,408L768,408L792,408L792,420L768,420L768,408M816,408L816,408L840,408L840,420L816,420L816,408M864,408L864,408L888,408L888,420L864,420L864,408M912,408L912,408L936,408L936,420L912,420L912,408M960,408L960,408L984,408L984,420L960,420L960,408M1008,408L1008,408L1032,408L1032,420L1008,420L1008,408M1056,408L1056,408L1080,408L1080,420L1056,420L1056,408M1152,408L1152,408L1176,408L1176,420L1152,420L1152,408M1200,408L1200,408L1224,408L1224,420L1200,420L1200,408M1248,408L1248,408L1272,408L1272,420L1248,420L1248,408M1296,408L1296,408L1320,408L1320,420L1296,420L1296,408M36,492L36,492L48,492L48,516L36,516L36,492M60,492L60,492L72,492L72,516L60,516L60,492M84,492L84,492L96,492L96,516L84,516L84,492M108,492L108,492L120,492L120,516L108,516L108,492M132,492L132,492L144,492L144,516L132,516L132,492M156,492L156,492L168,492L168,516L156,516L156,492M1272,528L1272,528L1260,528L1260,540L1284,540L1284,576L1272,576L1272,564L1260,564L1260,576L1272,576L1272,588L1296,588L1296,564L1308,564L1308,552L1296,552L1296,540L1320,540L1320,528L1272,528M432,636L432,636L444,636L444,648L432,648L432,636M1080,636L1080,636L1092,636L1092,648L1080,648L1080,636M384,660L384,660L396,660L396,672L384,672L384,660M1128,660L1128,660L1140,660L1140,672L1128,672L1128,660M336,684L336,684L348,684L348,696L336,696L336,684M1176,684L1176,684L1188,684L1188,696L1176,696L1176,684M756,708L756,708L744,708L744,720L732,720L732,780L744,780L744,768L756,768L756,732L744,732L744,720L756,720L756,732L792,732L792,720L804,720L804,708L756,708M816,720L816,720L804,720L804,732L792,732L792,768L756,768L756,780L744,780L744,792L804,792L804,780L792,780L792,768L804,768L804,780L816,780Z" class="grass"></path><path d="M732,528L732,528L744,528L744,540L732,540L732,528M744,540L744,540L756,540L756,528L768,528L768,540L756,540L756,552L744,552L744,540M756,552L756,552L768,552L768,564L756,564L756,552M744,552L744,552L744,564L732,564L732,552L744,552M744,564L744,564L756,564L756,576L744,576L744,564M756,576L756,576L768,576L768,588L756,588L756,576M744,576L744,576L744,588L732,588L732,576L744,576M744,588L744,588L756,588L756,600L744,600L744,588M756,600L756,600L768,600L768,612L756,612L756,600M744,600L744,600L744,612L732,612L732,600L744,600M744,612L744,612L756,612L756,624L744,624L744,612M756,624L756,624L768,624L768,636L756,636L756,624M744,624L744,624L744,636L732,636L732,624L744,624M744,636L744,636L756,636L756,648L744,648L744,636M756,648L756,648L768,648L768,660L756,660L756,648M744,648L744,648L744,660L732,660L732,648L744,648M744,660L744,660L756,660L756,672L744,672L744,660M756,672L756,672L768,672L768,684L756,684L756,672M744,672L744,672L744,684L732,684L732,672Z" class="start"></path><path d="M768,528L768,528L780,528L780,684L768,684Z" class="finish"></path></g>
 <rect opacity=".3" fill="url(#grid)" height="100%" width="100%" y="0" x="0"></rect>
</svg>