<svg xmlns="http://www.w3.org/2000/svg" xmlns:xlink="http://www.w3.org/1999/xlink" version="1.1" id="mapSvgView" width="1116" height="360"> <rect id="mainfill" class="road" x="0" y="0" width="100%" height="100%"></rect> <g id="paths"><path d="M1068,192L1068,192L1104,192L1104,204L1068,204Z" class="cp1"></path><path d="M324,312L324,312L336,312L336,336L324,336Z" class="cp2"></path><path d="M0,0L0,0L12,0L12,180L0,180Z" class="parc"></path><path d="M12,0L12,0L1116,0L1116,360L0,360L0,180L12,180L12,0M60,12L60,12L48,12L48,24L36,24L36,36L24,36L24,96L36,96L36,108L48,108L48,120L72,120L72,132L216,132L216,120L240,120L240,108L276,108L276,120L312,120L312,132L288,132L288,144L276,144L276,156L288,156L288,144L312,144L312,132L348,132L348,120L372,120L372,132L396,132L396,144L408,144L408,156L420,156L420,192L408,192L408,180L384,180L384,168L372,168L372,180L384,180L384,192L396,192L396,228L372,228L372,240L288,240L288,216L240,216L240,156L228,156L228,144L96,144L96,156L48,156L48,168L24,168L24,192L12,192L12,288L24,288L24,312L36,312L36,324L48,324L48,336L72,336L72,348L300,348L300,336L360,336L360,348L456,348L456,336L492,336L492,324L516,324L516,300L528,300L528,216L516,216L516,204L528,204L528,192L540,192L540,204L528,204L528,216L540,216L540,204L552,204L552,216L540,216L540,276L552,276L552,312L564,312L564,336L552,336L552,348L588,348L588,336L636,336L636,348L708,348L708,336L732,336L732,324L756,324L756,336L768,336L768,348L852,348L852,336L876,336L876,324L900,324L900,336L972,336L972,324L1020,324L1020,312L1044,312L1044,300L1056,300L1056,288L1068,288L1068,276L1080,276L1080,264L1092,264L1092,240L1104,240L1104,180L1092,180L1092,168L1068,168L1068,156L1080,156L1080,132L1092,132L1092,84L1080,84L1080,108L1068,108L1068,132L1056,132L1056,144L1044,144L1044,156L1032,156L1032,144L1020,144L1020,108L1008,108L1008,144L1020,144L1020,168L1008,168L1008,180L996,180L996,192L984,192L984,204L972,204L972,216L960,216L960,228L924,228L924,240L888,240L888,228L876,228L876,216L888,216L888,204L912,204L912,192L948,192L948,180L960,180L960,168L972,168L972,144L984,144L984,132L996,132L996,48L1008,48L1008,24L1020,24L1020,12L996,12L996,24L972,24L972,36L924,36L924,24L900,24L900,12L828,12L828,24L804,24L804,36L792,36L792,48L780,48L780,60L768,60L768,96L756,96L756,132L744,132L744,144L732,144L732,156L708,156L708,144L696,144L696,132L684,132L684,108L672,108L672,84L684,84L684,72L696,72L696,48L684,48L684,60L624,60L624,48L588,48L588,36L528,36L528,24L384,24L384,12L60,12M84,24L84,24L108,24L108,48L96,48L96,36L84,36L84,24M708,36L708,36L696,36L696,48L708,48L708,36M1056,36L1056,36L1044,36L1044,48L1032,48L1032,60L1020,60L1020,108L1032,108L1032,60L1044,60L1044,48L1080,48L1080,36L1056,36M336,36L336,36L372,36L372,60L360,60L360,48L336,48L336,36M1092,48L1092,48L1080,48L1080,60L1092,60L1092,48M816,48L816,48L828,48L828,72L816,72L816,48M1104,60L1104,60L1092,60L1092,84L1104,84L1104,60M564,60L564,60L576,60L576,72L564,72L564,60M84,72L84,72L348,72L348,84L468,84L468,96L528,96L528,108L564,108L564,120L576,120L576,132L588,132L588,144L600,144L600,180L612,180L612,204L624,204L624,216L636,216L636,228L660,228L660,240L696,240L696,252L744,252L744,240L768,240L768,228L780,228L780,216L792,216L792,204L804,204L804,192L816,192L816,180L828,180L828,144L840,144L840,96L852,96L852,84L864,84L864,72L912,72L912,84L948,84L948,96L960,96L960,108L948,108L948,120L936,120L936,132L912,132L912,144L900,144L900,156L888,156L888,168L864,168L864,180L852,180L852,192L840,192L840,204L828,204L828,240L840,240L840,252L852,252L852,264L948,264L948,252L972,252L972,240L984,240L984,228L996,228L996,216L1008,216L1008,204L1020,204L1020,192L1032,192L1032,180L1056,180L1056,192L1068,192L1068,216L1056,216L1056,240L1044,240L1044,252L1032,252L1032,264L1008,264L1008,276L984,276L984,288L960,288L960,300L924,300L924,288L852,288L852,300L828,300L828,312L804,312L804,300L780,300L780,288L756,288L756,264L744,264L744,276L732,276L732,288L708,288L708,300L684,300L684,312L660,312L660,300L600,300L600,288L588,288L588,264L576,264L576,228L588,228L588,180L576,180L576,168L564,168L564,156L552,156L552,144L516,144L516,156L492,156L492,168L480,168L480,228L492,228L492,264L480,264L480,276L456,276L456,288L420,288L420,300L384,300L384,312L312,312L312,300L192,300L192,288L96,288L96,276L84,276L84,264L72,264L72,240L60,240L60,204L72,204L72,180L96,180L96,204L108,204L108,252L120,252L120,264L144,264L144,276L180,276L180,264L192,264L192,252L264,252L264,264L288,264L288,276L384,276L384,264L420,264L420,252L432,252L432,240L444,240L444,228L456,228L456,132L444,132L444,120L432,120L432,108L408,108L408,96L312,96L312,84L216,84L216,96L168,96L168,108L120,108L120,96L72,96L72,84L84,84L84,72M504,72L504,72L516,72L516,84L504,84L504,72M780,132L780,132L792,132L792,144L780,144L780,132M660,156L660,156L672,156L672,168L660,168L660,156M672,168L672,168L684,168L684,180L672,180L672,168M120,168L120,168L204,168L204,180L216,180L216,216L204,216L204,204L192,204L192,192L180,192L180,180L168,180L168,204L180,204L180,240L144,240L144,228L132,228L132,180L120,180L120,168M684,180L684,180L756,180L756,192L744,192L744,204L696,204L696,192L684,192L684,180M1080,312L1080,312L1068,312L1068,348L1080,348L1080,336L1092,336L1092,324L1080,324L1080,312M1104,312L1104,312L1092,312L1092,324L1104,324L1104,312M120,324L120,324L132,324L132,336L120,336L120,324M1104,336L1104,336L1092,336L1092,348L1104,348Z" class="grass"></path><path d="M204,12L204,12L228,12L228,72L204,72Z" class="finish"></path><path d="M228,12L228,12L240,12L240,72L228,72L228,12M252,12L252,12L264,12L264,72L252,72L252,12M276,12L276,12L288,12L288,72L276,72Z" class="start"></path></g></svg>