<svg xmlns:xlink="http://www.w3.org/1999/xlink" xmlns="http://www.w3.org/2000/svg" height="996" width="960" id="mapSvgView" version="1.1" style="width: 960px; height: 996px;" viewBox="0 0 960 996">
 <defs>
 <pattern y="0" x="0" height="24" width="24" patternUnits="userSpaceOnUse" id="grassPattern">
 <rect class="grasscolor" height="24" width="24" y="0" x="0"></rect>
 <rect class="grassspeclecolor" height="1" width="1" x="1" y="5"></rect>
 <rect class="grassspeclecolor" height="1" width="1" x="1" y="5"></rect>
 <rect class="grassspeclecolor" height="1" width="1" x="3" y="5"></rect>
 <rect class="grassspeclecolor" height="1" width="1" x="6" y="7"></rect>
 <rect class="grassspeclecolor" height="1" width="1" x="6" y="17"></rect>
 <rect class="grassspeclecolor" height="1" width="1" x="8" y="21"></rect>
 <rect class="grassspeclecolor" height="1" width="1" x="9" y="2"></rect>
 <rect class="grassspeclecolor" height="1" width="1" x="12" y="4"></rect>
 <rect class="grassspeclecolor" height="1" width="1" x="13" y="15"></rect>
 <rect class="grassspeclecolor" height="1" width="1" x="14" y="4"></rect>
 <rect class="grassspeclecolor" height="1" width="1" x="14" y="19"></rect>
 <rect class="grassspeclecolor" height="1" width="1" x="17" y="7"></rect>
 <rect class="grassspeclecolor" height="1" width="1" x="17" y="12"></rect>
 <rect class="grassspeclecolor" height="1" width="1" x="18" y="23"></rect>
 <rect class="grassspeclecolor" height="1" width="1" x="21" y="16"></rect>
 <rect class="grassspeclecolor" height="1" width="1" x="23" y="12"></rect>
 </pattern>
 <pattern y="0" x="0" height="24" width="24" patternUnits="userSpaceOnUse" id="roadPattern">
 <rect class="roadcolor" height="24" width="24" y="0" x="0"></rect>
 <rect class="roadspeclecolor" height="1" width="1" x="1" y="5"></rect>
 <rect class="roadspeclecolor" height="1" width="1" x="1" y="5"></rect>
 <rect class="roadspeclecolor" height="1" width="1" x="3" y="5"></rect>
 <rect class="roadspeclecolor" height="1" width="1" x="6" y="7"></rect>
 <rect class="roadspeclecolor" height="1" width="1" x="6" y="17"></rect>
 <rect class="roadspeclecolor" height="1" width="1" x="8" y="21"></rect>
 <rect class="roadspeclecolor" height="1" width="1" x="9" y="2"></rect>
 <rect class="roadspeclecolor" height="1" width="1" x="12" y="4"></rect>
 <rect class="roadspeclecolor" height="1" width="1" x="13" y="15"></rect>
 <rect class="roadspeclecolor" height="1" width="1" x="14" y="4"></rect>
 <rect class="roadspeclecolor" height="1" width="1" x="14" y="19"></rect>
 <rect class="roadspeclecolor" height="1" width="1" x="17" y="7"></rect>
 <rect class="roadspeclecolor" height="1" width="1" x="17" y="12"></rect>
 <rect class="roadspeclecolor" height="1" width="1" x="18" y="23"></rect>
 <rect class="roadspeclecolor" height="1" width="1" x="21" y="16"></rect>
 <rect class="roadspeclecolor" height="1" width="1" x="23" y="12"></rect>
 </pattern>
 <pattern y="0" x="0" height="12" width="12" patternUnits="userSpaceOnUse" id="grid">
 <line stroke-width="1" stroke="black" y2="12" x2="12" y1="0" x1="12"></line>
 <line stroke-width="1" stroke="black" y2="12" x2="12" y1="12" x1="0"></line>
 </pattern>
 <pattern y="0" x="0" height="12" width="12" patternUnits="userSpaceOnUse" id="finishPattern">
 <rect fill="black" height="12" width="12" y="0" x="0"></rect>
 <path fill="white" d="M0,0L3,0L3,3L0,3L0,0M6,0L9,0L9,3L6,3L6,0M3,3L6,3L6,6L3,6L3,3M9,3L12,3L12,6L9,6L9,3"></path>
 <path fill="white" d="M0,6L3,6L3,9L0,9L0,6M6,6L9,6L9,9L6,9L6,6M3,9L6,9L6,12L3,12L3,9M9,9L12,9L12,12L9,12L9,9"></path>
 </pattern>
 <pattern y="0" x="0" height="12" width="12" patternUnits="userSpaceOnUse" id="startPattern">
 <rect fill="rgb(100,100,100)" height="12" width="12" y="0" x="0"></rect>
 <rect stroke-width="1" stroke="rgb(200,200,200)" fill="none" height="5" width="5" y="3.5" x="3.5"></rect>
 </pattern>
 <pattern y="0" x="0" height="12" width="12" patternUnits="userSpaceOnUse" id="cp1pattern">
 <rect class="cp1color" height="12" width="12" y="0" x="0"></rect>
 <path fill="black" d="M0,0L3,0L3,3L0,3L0,0M6,0L9,0L9,3L6,3L6,0M3,3L6,3L6,6L3,6L3,3M9,3L12,3L12,6L9,6L9,3"></path>
 <path fill="black" d="M0,6L3,6L3,9L0,9L0,6M6,6L9,6L9,9L6,9L6,6M3,9L6,9L6,12L3,12L3,9M9,9L12,9L12,12L9,12L9,9"></path>
 </pattern>
 <pattern y="0" x="0" height="12" width="12" patternUnits="userSpaceOnUse" id="cp2pattern">
 <rect class="cp2color" height="12" width="12" y="0" x="0"></rect>
 <path fill="white" d="M0,0L3,0L3,3L0,3L0,0M6,0L9,0L9,3L6,3L6,0M3,3L6,3L6,6L3,6L3,3M9,3L12,3L12,6L9,6L9,3"></path>
 <path fill="white" d="M0,6L3,6L3,9L0,9L0,6M6,6L9,6L9,9L6,9L6,6M3,9L6,9L6,12L3,12L3,9M9,9L12,9L12,12L9,12L9,9"></path>
 </pattern>
 <pattern y="0" x="0" height="12" width="12" patternUnits="userSpaceOnUse" id="cp3pattern">
 <rect class="cp3color" height="12" width="12" y="0" x="0"></rect>
 <path fill="black" d="M0,0L3,0L3,3L0,3L0,0M6,0L9,0L9,3L6,3L6,0M3,3L6,3L6,6L3,6L3,3M9,3L12,3L12,6L9,6L9,3"></path>
 <path fill="black" d="M0,6L3,6L3,9L0,9L0,6M6,6L9,6L9,9L6,9L6,6M3,9L6,9L6,12L3,12L3,9M9,9L12,9L12,12L9,12L9,9"></path>
 </pattern>
 <pattern y="0" x="0" height="12" width="12" patternUnits="userSpaceOnUse" id="cp4pattern">
 <rect class="cp4color" height="12" width="12" y="0" x="0"></rect>
 <path fill="white" d="M0,0L3,0L3,3L0,3L0,0M6,0L9,0L9,3L6,3L6,0M3,3L6,3L6,6L3,6L3,3M9,3L12,3L12,6L9,6L9,3"></path>
 <path fill="white" d="M0,6L3,6L3,9L0,9L0,6M6,6L9,6L9,9L6,9L6,6M3,9L6,9L6,12L3,12L3,9M9,9L12,9L12,12L9,12L9,9"></path>
 </pattern>
 <pattern y="0" x="0" height="12" width="12" patternUnits="userSpaceOnUse" id="cp5pattern">
 <rect class="cp5color" height="12" width="12" y="0" x="0"></rect>
 <path fill="black" d="M0,0L3,0L3,3L0,3L0,0M6,0L9,0L9,3L6,3L6,0M3,3L6,3L6,6L3,6L3,3M9,3L12,3L12,6L9,6L9,3"></path>
 <path fill="black" d="M0,6L3,6L3,9L0,9L0,6M6,6L9,6L9,9L6,9L6,6M3,9L6,9L6,12L3,12L3,9M9,9L12,9L12,12L9,12L9,9"></path>
 </pattern>
 <pattern y="0" x="0" height="12" width="12" patternUnits="userSpaceOnUse" id="cp6pattern">
 <rect class="cp6color" height="12" width="12" y="0" x="0"></rect>
 <path fill="white" d="M0,0L3,0L3,3L0,3L0,0M6,0L9,0L9,3L6,3L6,0M3,3L6,3L6,6L3,6L3,3M9,3L12,3L12,6L9,6L9,3"></path>
 <path fill="white" d="M0,6L3,6L3,9L0,9L0,6M6,6L9,6L9,9L6,9L6,6M3,9L6,9L6,12L3,12L3,9M9,9L12,9L12,12L9,12L9,9"></path>
 </pattern>
 <pattern y="0" x="0" height="12" width="12" patternUnits="userSpaceOnUse" id="cp7pattern">
 <rect class="cp7color" height="12" width="12" y="0" x="0"></rect>
 <path fill="black" d="M0,0L3,0L3,3L0,3L0,0M6,0L9,0L9,3L6,3L6,0M3,3L6,3L6,6L3,6L3,3M9,3L12,3L12,6L9,6L9,3"></path>
 <path fill="black" d="M0,6L3,6L3,9L0,9L0,6M6,6L9,6L9,9L6,9L6,6M3,9L6,9L6,12L3,12L3,9M9,9L12,9L12,12L9,12L9,9"></path>
 </pattern>
 <pattern y="0" x="0" height="12" width="12" patternUnits="userSpaceOnUse" id="cp8pattern">
 <rect class="cp8color" height="12" width="12" y="0" x="0"></rect>
 <path fill="white" d="M0,0L3,0L3,3L0,3L0,0M6,0L9,0L9,3L6,3L6,0M3,3L6,3L6,6L3,6L3,3M9,3L12,3L12,6L9,6L9,3"></path>
 <path fill="white" d="M0,6L3,6L3,9L0,9L0,6M6,6L9,6L9,9L6,9L6,6M3,9L6,9L6,12L3,12L3,9M9,9L12,9L12,12L9,12L9,9"></path>
 </pattern>
 <pattern y="0" x="0" height="12" width="12" patternUnits="userSpaceOnUse" id="cp9pattern">
 <rect class="cp9color" height="12" width="12" y="0" x="0"></rect>
 <path fill="black" d="M0,0L3,0L3,3L0,3L0,0M6,0L9,0L9,3L6,3L6,0M3,3L6,3L6,6L3,6L3,3M9,3L12,3L12,6L9,6L9,3"></path>
 <path fill="black" d="M0,6L3,6L3,9L0,9L0,6M6,6L9,6L9,9L6,9L6,6M3,9L6,9L6,12L3,12L3,9M9,9L12,9L12,12L9,12L9,9"></path>
 </pattern>
 </defs>
 <rect height="100%" width="100%" y="0" x="0" class="road" id="mainfill"></rect>
 <g id="paths"><path d="M72,12L72,12L888,12L888,24L900,24L900,36L912,36L912,48L924,48L924,60L936,60L936,924L924,924L924,936L912,936L912,948L900,948L900,960L888,960L888,972L72,972L72,960L60,960L60,948L48,948L48,936L36,936L36,924L24,924L24,60L36,60L36,48L48,48L48,36L60,36L60,24L72,24L72,12M168,96L168,96L156,96L156,108L144,108L144,120L132,120L132,132L120,132L120,276L132,276L132,312L144,312L144,168L156,168L156,156L168,156L168,144L180,144L180,132L192,132L192,120L792,120L792,132L804,132L804,144L816,144L816,156L828,156L828,192L840,192L840,372L828,372L828,576L840,576L840,792L828,792L828,828L816,828L816,840L804,840L804,852L792,852L792,864L192,864L192,852L180,852L180,840L168,840L168,828L156,828L156,816L144,816L144,636L132,636L132,672L120,672L120,852L132,852L132,864L144,864L144,876L156,876L156,888L804,888L804,876L816,876L816,864L828,864L828,852L840,852L840,840L852,840L852,792L864,792L864,192L852,192L852,144L840,144L840,132L828,132L828,120L816,120L816,108L804,108L804,96L168,96M264,192L264,192L252,192L252,204L240,204L240,216L228,216L228,228L216,228L216,360L204,360L204,408L216,408L216,540L204,540L204,636L216,636L216,756L228,756L228,768L240,768L240,780L252,780L252,792L744,792L744,780L756,780L756,768L768,768L768,588L756,588L756,564L744,564L744,756L732,756L732,768L720,768L720,780L276,780L276,768L264,768L264,756L252,756L252,744L240,744L240,240L252,240L252,228L264,228L264,216L276,216L276,204L720,204L720,216L732,216L732,228L744,228L744,384L756,384L756,360L768,360L768,216L756,216L756,204L744,204L744,192L264,192M336,264L336,264L324,264L324,276L312,276L312,288L300,288L300,696L312,696L312,708L324,708L324,720L660,720L660,708L672,708L672,696L684,696L684,288L672,288L672,276L660,276L660,264L336,264M456,288L456,288L480,288L480,300L468,300L468,324L456,324L456,288M480,300L480,300L492,300L492,312L480,312L480,300M504,288L504,288L516,288L516,324L492,324L492,312L504,312L504,288M480,336L480,336L492,336L492,348L480,348L480,336M492,348L492,348L504,348L504,372L528,372L528,384L492,384L492,348M480,348L480,348L480,384L444,384L444,372L468,372L468,348L480,348M564,360L564,360L588,360L588,372L564,372L564,360M564,372L564,372L564,396L552,396L552,372L564,372M588,372L588,372L600,372L600,396L588,396L588,372M336,372L336,372L348,372L348,384L336,384L336,372M348,384L348,384L360,384L360,396L348,396L348,384M408,372L408,372L420,372L420,384L408,384L408,372M408,384L408,384L408,396L396,396L396,384L408,384M444,384L444,384L444,396L432,396L432,384L444,384M528,384L528,384L540,384L540,396L528,396L528,384M132,396L132,396L120,396L120,552L132,552L132,540L144,540L144,408L132,408L132,396M360,396L360,396L372,396L372,384L384,384L384,396L372,396L372,408L360,408L360,396M384,396L384,396L396,396L396,408L384,408L384,396M444,396L444,396L480,396L480,432L468,432L468,408L444,408L444,396M528,396L528,396L528,408L504,408L504,432L492,432L492,396L528,396M564,396L564,396L588,396L588,408L564,408L564,396M480,432L480,432L492,432L492,444L480,444L480,432M480,456L480,456L504,456L504,468L480,468L480,456M480,468L480,468L480,480L468,480L468,468L480,468M504,468L504,468L516,468L516,480L504,480L504,468M480,480L480,480L492,480L492,492L480,492L480,480M492,492L492,492L504,492L504,504L492,504L492,492M504,504L504,504L516,504L516,516L504,516L504,504M468,504L468,504L480,504L480,516L468,516L468,504M480,516L480,516L504,516L504,528L480,528L480,516M408,540L408,540L432,540L432,552L444,552L444,564L456,564L456,576L468,576L468,564L480,564L480,552L492,552L492,564L504,564L504,576L516,576L516,564L528,564L528,552L540,552L540,540L564,540L564,552L552,552L552,564L540,564L540,576L528,576L528,588L492,588L492,576L480,576L480,588L444,588L444,576L432,576L432,564L420,564L420,552L408,552Z" class="road"></path><path d="M864,456L864,456L936,456L936,468L864,468Z" class="cp1"></path><path d="M480,120L480,120L492,120L492,192L480,192Z" class="cp2"></path><path d="M240,456L240,456L300,456L300,468L240,468Z" class="cp3"></path><path d="M480,792L480,792L492,792L492,864L480,864Z" class="cp4"></path><path d="M0,0L0,0L12,0L12,96L0,96Z" class="parc"></path><path d="M12,0L12,0L960,0L960,996L0,996L0,96L12,96L12,0M84,12L84,12L72,12L72,24L60,24L60,36L48,36L48,48L36,48L36,60L24,60L24,924L36,924L36,936L48,936L48,948L60,948L60,960L72,960L72,972L888,972L888,960L900,960L900,948L912,948L912,936L924,936L924,924L936,924L936,60L924,60L924,48L912,48L912,36L900,36L900,24L888,24L888,12L84,12M156,96L156,96L804,96L804,108L816,108L816,120L828,120L828,132L840,132L840,144L852,144L852,192L864,192L864,792L852,792L852,840L840,840L840,852L828,852L828,864L816,864L816,876L804,876L804,888L156,888L156,876L144,876L144,864L132,864L132,852L120,852L120,672L132,672L132,636L144,636L144,816L156,816L156,828L168,828L168,840L180,840L180,852L192,852L192,864L792,864L792,852L804,852L804,840L816,840L816,828L828,828L828,792L840,792L840,576L828,576L828,372L840,372L840,192L828,192L828,156L816,156L816,144L804,144L804,132L792,132L792,120L192,120L192,132L180,132L180,144L168,144L168,156L156,156L156,168L144,168L144,312L132,312L132,276L120,276L120,132L132,132L132,120L144,120L144,108L156,108L156,96M252,192L252,192L744,192L744,204L756,204L756,216L768,216L768,360L756,360L756,384L744,384L744,228L732,228L732,216L720,216L720,204L276,204L276,216L264,216L264,228L252,228L252,240L240,240L240,744L252,744L252,756L264,756L264,768L276,768L276,780L720,780L720,768L732,768L732,756L744,756L744,564L756,564L756,588L768,588L768,768L756,768L756,780L744,780L744,792L252,792L252,780L240,780L240,768L228,768L228,756L216,756L216,636L204,636L204,540L216,540L216,408L204,408L204,360L216,360L216,228L228,228L228,216L240,216L240,204L252,204L252,192M324,264L324,264L660,264L660,276L672,276L672,288L684,288L684,696L672,696L672,708L660,708L660,720L324,720L324,708L312,708L312,696L300,696L300,288L312,288L312,276L324,276L324,264M468,288L468,288L456,288L456,324L468,324L468,300L480,300L480,288L468,288M516,288L516,288L504,288L504,312L492,312L492,300L480,300L480,312L492,312L492,324L516,324L516,288M492,336L492,336L480,336L480,348L468,348L468,372L444,372L444,384L432,384L432,396L444,396L444,384L480,384L480,348L492,348L492,336M504,348L504,348L492,348L492,384L528,384L528,372L504,372L504,348M576,360L576,360L564,360L564,372L552,372L552,396L564,396L564,372L588,372L588,360L576,360M348,372L348,372L336,372L336,384L348,384L348,372M420,372L420,372L408,372L408,384L396,384L396,396L384,396L384,384L372,384L372,396L360,396L360,384L348,384L348,396L360,396L360,408L372,408L372,396L384,396L384,408L396,408L396,396L408,396L408,384L420,384L420,372M600,372L600,372L588,372L588,396L564,396L564,408L588,408L588,396L600,396L600,372M540,384L540,384L528,384L528,396L492,396L492,432L480,432L480,396L444,396L444,408L468,408L468,432L480,432L480,444L492,444L492,432L504,432L504,408L528,408L528,396L540,396L540,384M120,396L120,396L132,396L132,408L144,408L144,540L132,540L132,552L120,552L120,396M492,456L492,456L480,456L480,468L468,468L468,480L480,480L480,468L504,468L504,456L492,456M516,468L516,468L504,468L504,480L516,480L516,468M492,480L492,480L480,480L480,492L492,492L492,480M504,492L504,492L492,492L492,504L504,504L504,492M480,504L480,504L468,504L468,516L480,516L480,504M516,504L516,504L504,504L504,516L480,516L480,528L504,528L504,516L516,516L516,504M420,540L420,540L408,540L408,552L420,552L420,564L432,564L432,576L444,576L444,588L480,588L480,576L492,576L492,588L528,588L528,576L540,576L540,564L552,564L552,552L564,552L564,540L540,540L540,552L528,552L528,564L516,564L516,576L504,576L504,564L492,564L492,552L480,552L480,564L468,564L468,576L456,576L456,564L444,564L444,552L432,552L432,540Z" class="grass"></path><path d="M24,456L24,456L120,456L120,468L24,468Z" class="start"></path><path d="M24,468L24,468L120,468L120,480L24,480Z" class="finish"></path></g>
 <rect opacity=".3" fill="url(#grid)" height="100%" width="100%" y="0" x="0"></rect>
</svg>