<svg xmlns="http://www.w3.org/2000/svg" xmlns:xlink="http://www.w3.org/1999/xlink" version="1.1" id="mapSvgView" width="1104" height="924"> <rect id="mainfill" class="road" x="0" y="0" width="100%" height="100%"></rect> <g id="paths"><path d="M0,0L0,0L12,0L12,180L0,180Z" class="parc"></path><path d="M12,0L12,0L1104,0L1104,924L0,924L0,180L12,180L12,0M192,24L192,24L180,24L180,36L144,36L144,48L120,48L120,60L108,60L108,72L96,72L96,84L84,84L84,96L72,96L72,108L60,108L60,120L48,120L48,144L36,144L36,180L24,180L24,744L36,744L36,780L48,780L48,804L60,804L60,816L72,816L72,828L84,828L84,840L96,840L96,852L108,852L108,864L120,864L120,876L144,876L144,888L180,888L180,900L924,900L924,888L960,888L960,876L984,876L984,864L996,864L996,852L1008,852L1008,840L1020,840L1020,828L1032,828L1032,816L1044,816L1044,804L1056,804L1056,780L1068,780L1068,744L1080,744L1080,636L1068,636L1068,600L1056,600L1056,576L1044,576L1044,564L1032,564L1032,552L1020,552L1020,540L1008,540L1008,528L996,528L996,516L984,516L984,504L960,504L960,492L924,492L924,480L672,480L672,468L660,468L660,432L672,432L672,420L1080,420L1080,240L636,240L636,252L600,252L600,264L576,264L576,276L564,276L564,288L552,288L552,300L540,300L540,312L528,312L528,324L516,324L516,336L504,336L504,360L492,360L492,396L480,396L480,504L492,504L492,540L504,540L504,564L516,564L516,576L528,576L528,588L540,588L540,600L552,600L552,612L564,612L564,624L576,624L576,636L600,636L600,648L636,648L636,660L888,660L888,672L900,672L900,708L888,708L888,720L216,720L216,708L204,708L204,216L216,216L216,204L1080,204L1080,24L192,24M912,288L912,288L948,288L948,300L936,300L936,312L924,312L924,300L912,300L912,288M984,288L984,288L1020,288L1020,300L1008,300L1008,312L996,312L996,300L984,300L984,288M936,312L936,312L948,312L948,324L936,324L936,312M996,312L996,312L996,324L984,324L984,312L996,312M948,324L948,324L960,324L960,336L948,336L948,324M984,324L984,324L984,336L972,336L972,324L984,324M960,336L960,336L972,336L972,360L996,360L996,372L936,372L936,360L960,360Z" class="grass"></path><path d="M1068,24L1068,24L1080,24L1080,204L1068,204Z" class="start"></path><path d="M960,324L960,324L972,324L972,336L960,336Z" class="finish"></path></g></svg>