<svg xmlns:xlink="http://www.w3.org/1999/xlink" xmlns="http://www.w3.org/2000/svg" height="984" width="852" id="mapSvgView" version="1.1" style="width: 852px; height: 984px;" viewBox="0 0 852 984">
 <defs>
 <pattern y="0" x="0" height="24" width="24" patternUnits="userSpaceOnUse" id="grassPattern">
 <rect class="grasscolor" height="24" width="24" y="0" x="0"></rect>
 <rect class="grassspeclecolor" height="1" width="1" x="1" y="5"></rect>
 <rect class="grassspeclecolor" height="1" width="1" x="1" y="5"></rect>
 <rect class="grassspeclecolor" height="1" width="1" x="3" y="5"></rect>
 <rect class="grassspeclecolor" height="1" width="1" x="6" y="7"></rect>
 <rect class="grassspeclecolor" height="1" width="1" x="6" y="17"></rect>
 <rect class="grassspeclecolor" height="1" width="1" x="8" y="21"></rect>
 <rect class="grassspeclecolor" height="1" width="1" x="9" y="2"></rect>
 <rect class="grassspeclecolor" height="1" width="1" x="12" y="4"></rect>
 <rect class="grassspeclecolor" height="1" width="1" x="13" y="15"></rect>
 <rect class="grassspeclecolor" height="1" width="1" x="14" y="4"></rect>
 <rect class="grassspeclecolor" height="1" width="1" x="14" y="19"></rect>
 <rect class="grassspeclecolor" height="1" width="1" x="17" y="7"></rect>
 <rect class="grassspeclecolor" height="1" width="1" x="17" y="12"></rect>
 <rect class="grassspeclecolor" height="1" width="1" x="18" y="23"></rect>
 <rect class="grassspeclecolor" height="1" width="1" x="21" y="16"></rect>
 <rect class="grassspeclecolor" height="1" width="1" x="23" y="12"></rect>
 </pattern>
 <pattern y="0" x="0" height="24" width="24" patternUnits="userSpaceOnUse" id="roadPattern">
 <rect class="roadcolor" height="24" width="24" y="0" x="0"></rect>
 <rect class="roadspeclecolor" height="1" width="1" x="1" y="5"></rect>
 <rect class="roadspeclecolor" height="1" width="1" x="1" y="5"></rect>
 <rect class="roadspeclecolor" height="1" width="1" x="3" y="5"></rect>
 <rect class="roadspeclecolor" height="1" width="1" x="6" y="7"></rect>
 <rect class="roadspeclecolor" height="1" width="1" x="6" y="17"></rect>
 <rect class="roadspeclecolor" height="1" width="1" x="8" y="21"></rect>
 <rect class="roadspeclecolor" height="1" width="1" x="9" y="2"></rect>
 <rect class="roadspeclecolor" height="1" width="1" x="12" y="4"></rect>
 <rect class="roadspeclecolor" height="1" width="1" x="13" y="15"></rect>
 <rect class="roadspeclecolor" height="1" width="1" x="14" y="4"></rect>
 <rect class="roadspeclecolor" height="1" width="1" x="14" y="19"></rect>
 <rect class="roadspeclecolor" height="1" width="1" x="17" y="7"></rect>
 <rect class="roadspeclecolor" height="1" width="1" x="17" y="12"></rect>
 <rect class="roadspeclecolor" height="1" width="1" x="18" y="23"></rect>
 <rect class="roadspeclecolor" height="1" width="1" x="21" y="16"></rect>
 <rect class="roadspeclecolor" height="1" width="1" x="23" y="12"></rect>
 </pattern>
 <pattern y="0" x="0" height="12" width="12" patternUnits="userSpaceOnUse" id="grid">
 <line stroke-width="1" stroke="black" y2="12" x2="12" y1="0" x1="12"></line>
 <line stroke-width="1" stroke="black" y2="12" x2="12" y1="12" x1="0"></line>
 </pattern>
 <pattern y="0" x="0" height="12" width="12" patternUnits="userSpaceOnUse" id="finishPattern">
 <rect fill="black" height="12" width="12" y="0" x="0"></rect>
 <path fill="white" d="M0,0L3,0L3,3L0,3L0,0M6,0L9,0L9,3L6,3L6,0M3,3L6,3L6,6L3,6L3,3M9,3L12,3L12,6L9,6L9,3"></path>
 <path fill="white" d="M0,6L3,6L3,9L0,9L0,6M6,6L9,6L9,9L6,9L6,6M3,9L6,9L6,12L3,12L3,9M9,9L12,9L12,12L9,12L9,9"></path>
 </pattern>
 <pattern y="0" x="0" height="12" width="12" patternUnits="userSpaceOnUse" id="startPattern">
 <rect fill="rgb(100,100,100)" height="12" width="12" y="0" x="0"></rect>
 <rect stroke-width="1" stroke="rgb(200,200,200)" fill="none" height="5" width="5" y="3.5" x="3.5"></rect>
 </pattern>
 <pattern y="0" x="0" height="12" width="12" patternUnits="userSpaceOnUse" id="cp1pattern">
 <rect class="cp1color" height="12" width="12" y="0" x="0"></rect>
 <path fill="black" d="M0,0L3,0L3,3L0,3L0,0M6,0L9,0L9,3L6,3L6,0M3,3L6,3L6,6L3,6L3,3M9,3L12,3L12,6L9,6L9,3"></path>
 <path fill="black" d="M0,6L3,6L3,9L0,9L0,6M6,6L9,6L9,9L6,9L6,6M3,9L6,9L6,12L3,12L3,9M9,9L12,9L12,12L9,12L9,9"></path>
 </pattern>
 <pattern y="0" x="0" height="12" width="12" patternUnits="userSpaceOnUse" id="cp2pattern">
 <rect class="cp2color" height="12" width="12" y="0" x="0"></rect>
 <path fill="white" d="M0,0L3,0L3,3L0,3L0,0M6,0L9,0L9,3L6,3L6,0M3,3L6,3L6,6L3,6L3,3M9,3L12,3L12,6L9,6L9,3"></path>
 <path fill="white" d="M0,6L3,6L3,9L0,9L0,6M6,6L9,6L9,9L6,9L6,6M3,9L6,9L6,12L3,12L3,9M9,9L12,9L12,12L9,12L9,9"></path>
 </pattern>
 <pattern y="0" x="0" height="12" width="12" patternUnits="userSpaceOnUse" id="cp3pattern">
 <rect class="cp3color" height="12" width="12" y="0" x="0"></rect>
 <path fill="black" d="M0,0L3,0L3,3L0,3L0,0M6,0L9,0L9,3L6,3L6,0M3,3L6,3L6,6L3,6L3,3M9,3L12,3L12,6L9,6L9,3"></path>
 <path fill="black" d="M0,6L3,6L3,9L0,9L0,6M6,6L9,6L9,9L6,9L6,6M3,9L6,9L6,12L3,12L3,9M9,9L12,9L12,12L9,12L9,9"></path>
 </pattern>
 <pattern y="0" x="0" height="12" width="12" patternUnits="userSpaceOnUse" id="cp4pattern">
 <rect class="cp4color" height="12" width="12" y="0" x="0"></rect>
 <path fill="white" d="M0,0L3,0L3,3L0,3L0,0M6,0L9,0L9,3L6,3L6,0M3,3L6,3L6,6L3,6L3,3M9,3L12,3L12,6L9,6L9,3"></path>
 <path fill="white" d="M0,6L3,6L3,9L0,9L0,6M6,6L9,6L9,9L6,9L6,6M3,9L6,9L6,12L3,12L3,9M9,9L12,9L12,12L9,12L9,9"></path>
 </pattern>
 <pattern y="0" x="0" height="12" width="12" patternUnits="userSpaceOnUse" id="cp5pattern">
 <rect class="cp5color" height="12" width="12" y="0" x="0"></rect>
 <path fill="black" d="M0,0L3,0L3,3L0,3L0,0M6,0L9,0L9,3L6,3L6,0M3,3L6,3L6,6L3,6L3,3M9,3L12,3L12,6L9,6L9,3"></path>
 <path fill="black" d="M0,6L3,6L3,9L0,9L0,6M6,6L9,6L9,9L6,9L6,6M3,9L6,9L6,12L3,12L3,9M9,9L12,9L12,12L9,12L9,9"></path>
 </pattern>
 <pattern y="0" x="0" height="12" width="12" patternUnits="userSpaceOnUse" id="cp6pattern">
 <rect class="cp6color" height="12" width="12" y="0" x="0"></rect>
 <path fill="white" d="M0,0L3,0L3,3L0,3L0,0M6,0L9,0L9,3L6,3L6,0M3,3L6,3L6,6L3,6L3,3M9,3L12,3L12,6L9,6L9,3"></path>
 <path fill="white" d="M0,6L3,6L3,9L0,9L0,6M6,6L9,6L9,9L6,9L6,6M3,9L6,9L6,12L3,12L3,9M9,9L12,9L12,12L9,12L9,9"></path>
 </pattern>
 <pattern y="0" x="0" height="12" width="12" patternUnits="userSpaceOnUse" id="cp7pattern">
 <rect class="cp7color" height="12" width="12" y="0" x="0"></rect>
 <path fill="black" d="M0,0L3,0L3,3L0,3L0,0M6,0L9,0L9,3L6,3L6,0M3,3L6,3L6,6L3,6L3,3M9,3L12,3L12,6L9,6L9,3"></path>
 <path fill="black" d="M0,6L3,6L3,9L0,9L0,6M6,6L9,6L9,9L6,9L6,6M3,9L6,9L6,12L3,12L3,9M9,9L12,9L12,12L9,12L9,9"></path>
 </pattern>
 <pattern y="0" x="0" height="12" width="12" patternUnits="userSpaceOnUse" id="cp8pattern">
 <rect class="cp8color" height="12" width="12" y="0" x="0"></rect>
 <path fill="white" d="M0,0L3,0L3,3L0,3L0,0M6,0L9,0L9,3L6,3L6,0M3,3L6,3L6,6L3,6L3,3M9,3L12,3L12,6L9,6L9,3"></path>
 <path fill="white" d="M0,6L3,6L3,9L0,9L0,6M6,6L9,6L9,9L6,9L6,6M3,9L6,9L6,12L3,12L3,9M9,9L12,9L12,12L9,12L9,9"></path>
 </pattern>
 <pattern y="0" x="0" height="12" width="12" patternUnits="userSpaceOnUse" id="cp9pattern">
 <rect class="cp9color" height="12" width="12" y="0" x="0"></rect>
 <path fill="black" d="M0,0L3,0L3,3L0,3L0,0M6,0L9,0L9,3L6,3L6,0M3,3L6,3L6,6L3,6L3,3M9,3L12,3L12,6L9,6L9,3"></path>
 <path fill="black" d="M0,6L3,6L3,9L0,9L0,6M6,6L9,6L9,9L6,9L6,6M3,9L6,9L6,12L3,12L3,9M9,9L12,9L12,12L9,12L9,9"></path>
 </pattern>
 </defs>
 <rect height="100%" width="100%" y="0" x="0" class="grass" id="mainfill"></rect>
 <g id="paths"><path d="M72,24L72,24L96,24L96,36L120,36L120,48L144,48L144,60L156,60L156,72L180,72L180,84L192,84L192,96L204,96L204,108L216,108L216,120L228,120L228,144L240,144L240,156L252,156L252,180L324,180L324,192L336,192L336,204L348,204L348,228L288,228L288,240L228,240L228,252L180,252L180,240L168,240L168,228L156,228L156,216L144,216L144,192L132,192L132,180L120,180L120,168L108,168L108,156L96,156L96,108L84,108L84,372L96,372L96,396L132,396L132,408L144,408L144,432L180,432L180,456L108,456L108,492L156,492L156,516L168,516L168,528L156,528L156,540L144,540L144,564L156,564L156,600L168,600L168,612L240,612L240,636L180,636L180,660L192,660L192,672L240,672L240,696L228,696L228,732L240,732L240,744L252,744L252,756L264,756L264,768L288,768L288,780L300,780L300,804L312,804L312,816L324,816L324,828L336,828L336,840L360,840L360,852L384,852L384,876L396,876L396,888L420,888L420,900L456,900L456,888L468,888L468,876L492,876L492,852L516,852L516,840L528,840L528,828L540,828L540,816L564,816L564,804L576,804L576,792L588,792L588,768L600,768L600,756L612,756L612,744L624,744L624,732L636,732L636,696L612,696L612,672L672,672L672,660L684,660L684,636L612,636L612,612L708,612L708,552L684,552L684,528L744,528L744,492L756,492L756,480L696,480L696,456L708,456L708,444L756,444L756,432L768,432L768,120L756,120L756,168L744,168L744,180L720,180L720,216L708,216L708,228L696,228L696,240L600,240L600,228L492,228L492,240L480,240L480,264L468,264L468,312L456,312L456,336L420,336L420,300L408,300L408,264L396,264L396,240L384,240L384,228L372,228L372,216L360,216L360,192L348,192L348,180L336,180L336,168L552,168L552,180L600,180L600,168L612,168L612,144L624,144L624,120L636,120L636,108L660,108L660,96L672,96L672,84L684,84L684,72L708,72L708,48L732,48L732,36L756,36L756,24L792,24L792,72L816,72L816,180L828,180L828,372L816,372L816,456L792,456L792,516L780,516L780,552L768,552L768,600L756,600L756,612L816,612L816,636L744,636L744,660L720,660L720,672L816,672L816,696L696,696L696,732L684,732L684,744L672,744L672,768L660,768L660,780L648,780L648,792L636,792L636,804L624,804L624,816L612,816L612,828L600,828L600,840L588,840L588,852L576,852L576,864L564,864L564,876L552,876L552,888L540,888L540,900L528,900L528,912L516,912L516,924L492,924L492,948L456,948L456,960L408,960L408,948L396,948L396,924L372,924L372,912L360,912L360,900L324,900L324,888L312,888L312,876L300,876L300,852L288,852L288,840L264,840L264,828L252,828L252,816L240,816L240,804L228,804L228,780L216,780L216,768L192,768L192,744L180,744L180,732L168,732L168,708L156,708L156,696L36,696L36,672L144,672L144,660L132,660L132,636L36,636L36,612L108,612L108,600L96,600L96,564L84,564L84,528L72,528L72,516L60,516L60,408L36,408L36,312L24,312L24,180L36,180L36,108L48,108L48,84L60,84L60,60L72,60L72,24M264,300L264,300L360,300L360,312L372,312L372,324L384,324L384,444L528,444L528,432L540,432L540,408L552,408L552,396L564,396L564,384L588,384L588,372L612,372L612,360L684,360L684,396L612,396L612,408L588,408L588,444L636,444L636,456L660,456L660,480L552,480L552,552L564,552L564,600L552,600L552,612L528,612L528,624L516,624L516,636L480,636L480,660L468,660L468,672L492,672L492,684L528,684L528,696L540,696L540,708L528,708L528,732L492,732L492,708L468,708L468,696L456,696L456,684L408,684L408,696L396,696L396,708L384,708L384,732L348,732L348,684L384,684L384,672L396,672L396,660L384,660L384,636L360,636L360,624L336,624L336,612L312,612L312,600L300,600L300,588L288,588L288,564L300,564L300,540L312,540L312,516L324,516L324,480L240,480L240,456L252,456L252,444L336,444L336,336L324,336L324,324L288,324L288,336L264,336L264,372L252,372L252,384L216,384L216,360L228,360L228,336L240,336L240,324L252,324L252,312L264,312L264,300M396,600L396,600L384,600L384,612L408,612L408,624L456,624L456,612L480,612L480,600Z" class="road"></path><path d="M0,0L0,0L12,0L12,84L0,84Z" class="parc"></path><path d="M276,180L276,180L288,180L288,192L276,192L276,180M288,192L288,192L300,192L300,204L288,204L288,192M300,204L300,204L312,204L312,216L300,216L300,204M312,216L312,216L324,216L324,228L312,228Z" class="finish"></path><path d="M396,252L396,252L408,252L408,264L396,264L396,252M408,264L408,264L420,264L420,276L468,276L468,288L408,288Z" class="start"></path></g>
 <rect opacity=".3" fill="url(#grid)" height="100%" width="100%" y="0" x="0"></rect>
</svg>