<svg xmlns:xlink="http://www.w3.org/1999/xlink" xmlns="http://www.w3.org/2000/svg" height="564" width="1428" id="mapSvgView" version="1.1" style="width: 1428px; height: 564px;" viewBox="0 0 1428 564">
 <defs>
 <pattern y="0" x="0" height="24" width="24" patternUnits="userSpaceOnUse" id="grassPattern">
 <rect class="grasscolor" height="24" width="24" y="0" x="0"></rect>
 <rect class="grassspeclecolor" height="1" width="1" x="1" y="5"></rect>
 <rect class="grassspeclecolor" height="1" width="1" x="1" y="5"></rect>
 <rect class="grassspeclecolor" height="1" width="1" x="3" y="5"></rect>
 <rect class="grassspeclecolor" height="1" width="1" x="6" y="7"></rect>
 <rect class="grassspeclecolor" height="1" width="1" x="6" y="17"></rect>
 <rect class="grassspeclecolor" height="1" width="1" x="8" y="21"></rect>
 <rect class="grassspeclecolor" height="1" width="1" x="9" y="2"></rect>
 <rect class="grassspeclecolor" height="1" width="1" x="12" y="4"></rect>
 <rect class="grassspeclecolor" height="1" width="1" x="13" y="15"></rect>
 <rect class="grassspeclecolor" height="1" width="1" x="14" y="4"></rect>
 <rect class="grassspeclecolor" height="1" width="1" x="14" y="19"></rect>
 <rect class="grassspeclecolor" height="1" width="1" x="17" y="7"></rect>
 <rect class="grassspeclecolor" height="1" width="1" x="17" y="12"></rect>
 <rect class="grassspeclecolor" height="1" width="1" x="18" y="23"></rect>
 <rect class="grassspeclecolor" height="1" width="1" x="21" y="16"></rect>
 <rect class="grassspeclecolor" height="1" width="1" x="23" y="12"></rect>
 </pattern>
 <pattern y="0" x="0" height="24" width="24" patternUnits="userSpaceOnUse" id="roadPattern">
 <rect class="roadcolor" height="24" width="24" y="0" x="0"></rect>
 <rect class="roadspeclecolor" height="1" width="1" x="1" y="5"></rect>
 <rect class="roadspeclecolor" height="1" width="1" x="1" y="5"></rect>
 <rect class="roadspeclecolor" height="1" width="1" x="3" y="5"></rect>
 <rect class="roadspeclecolor" height="1" width="1" x="6" y="7"></rect>
 <rect class="roadspeclecolor" height="1" width="1" x="6" y="17"></rect>
 <rect class="roadspeclecolor" height="1" width="1" x="8" y="21"></rect>
 <rect class="roadspeclecolor" height="1" width="1" x="9" y="2"></rect>
 <rect class="roadspeclecolor" height="1" width="1" x="12" y="4"></rect>
 <rect class="roadspeclecolor" height="1" width="1" x="13" y="15"></rect>
 <rect class="roadspeclecolor" height="1" width="1" x="14" y="4"></rect>
 <rect class="roadspeclecolor" height="1" width="1" x="14" y="19"></rect>
 <rect class="roadspeclecolor" height="1" width="1" x="17" y="7"></rect>
 <rect class="roadspeclecolor" height="1" width="1" x="17" y="12"></rect>
 <rect class="roadspeclecolor" height="1" width="1" x="18" y="23"></rect>
 <rect class="roadspeclecolor" height="1" width="1" x="21" y="16"></rect>
 <rect class="roadspeclecolor" height="1" width="1" x="23" y="12"></rect>
 </pattern>
 <pattern y="0" x="0" height="12" width="12" patternUnits="userSpaceOnUse" id="grid">
 <line stroke-width="1" stroke="black" y2="12" x2="12" y1="0" x1="12"></line>
 <line stroke-width="1" stroke="black" y2="12" x2="12" y1="12" x1="0"></line>
 </pattern>
 <pattern y="0" x="0" height="12" width="12" patternUnits="userSpaceOnUse" id="finishPattern">
 <rect fill="black" height="12" width="12" y="0" x="0"></rect>
 <path fill="white" d="M0,0L3,0L3,3L0,3L0,0M6,0L9,0L9,3L6,3L6,0M3,3L6,3L6,6L3,6L3,3M9,3L12,3L12,6L9,6L9,3"></path>
 <path fill="white" d="M0,6L3,6L3,9L0,9L0,6M6,6L9,6L9,9L6,9L6,6M3,9L6,9L6,12L3,12L3,9M9,9L12,9L12,12L9,12L9,9"></path>
 </pattern>
 <pattern y="0" x="0" height="12" width="12" patternUnits="userSpaceOnUse" id="startPattern">
 <rect fill="rgb(100,100,100)" height="12" width="12" y="0" x="0"></rect>
 <rect stroke-width="1" stroke="rgb(200,200,200)" fill="none" height="5" width="5" y="3.5" x="3.5"></rect>
 </pattern>
 <pattern y="0" x="0" height="12" width="12" patternUnits="userSpaceOnUse" id="cp1pattern">
 <rect class="cp1color" height="12" width="12" y="0" x="0"></rect>
 <path fill="black" d="M0,0L3,0L3,3L0,3L0,0M6,0L9,0L9,3L6,3L6,0M3,3L6,3L6,6L3,6L3,3M9,3L12,3L12,6L9,6L9,3"></path>
 <path fill="black" d="M0,6L3,6L3,9L0,9L0,6M6,6L9,6L9,9L6,9L6,6M3,9L6,9L6,12L3,12L3,9M9,9L12,9L12,12L9,12L9,9"></path>
 </pattern>
 <pattern y="0" x="0" height="12" width="12" patternUnits="userSpaceOnUse" id="cp2pattern">
 <rect class="cp2color" height="12" width="12" y="0" x="0"></rect>
 <path fill="white" d="M0,0L3,0L3,3L0,3L0,0M6,0L9,0L9,3L6,3L6,0M3,3L6,3L6,6L3,6L3,3M9,3L12,3L12,6L9,6L9,3"></path>
 <path fill="white" d="M0,6L3,6L3,9L0,9L0,6M6,6L9,6L9,9L6,9L6,6M3,9L6,9L6,12L3,12L3,9M9,9L12,9L12,12L9,12L9,9"></path>
 </pattern>
 <pattern y="0" x="0" height="12" width="12" patternUnits="userSpaceOnUse" id="cp3pattern">
 <rect class="cp3color" height="12" width="12" y="0" x="0"></rect>
 <path fill="black" d="M0,0L3,0L3,3L0,3L0,0M6,0L9,0L9,3L6,3L6,0M3,3L6,3L6,6L3,6L3,3M9,3L12,3L12,6L9,6L9,3"></path>
 <path fill="black" d="M0,6L3,6L3,9L0,9L0,6M6,6L9,6L9,9L6,9L6,6M3,9L6,9L6,12L3,12L3,9M9,9L12,9L12,12L9,12L9,9"></path>
 </pattern>
 <pattern y="0" x="0" height="12" width="12" patternUnits="userSpaceOnUse" id="cp4pattern">
 <rect class="cp4color" height="12" width="12" y="0" x="0"></rect>
 <path fill="white" d="M0,0L3,0L3,3L0,3L0,0M6,0L9,0L9,3L6,3L6,0M3,3L6,3L6,6L3,6L3,3M9,3L12,3L12,6L9,6L9,3"></path>
 <path fill="white" d="M0,6L3,6L3,9L0,9L0,6M6,6L9,6L9,9L6,9L6,6M3,9L6,9L6,12L3,12L3,9M9,9L12,9L12,12L9,12L9,9"></path>
 </pattern>
 <pattern y="0" x="0" height="12" width="12" patternUnits="userSpaceOnUse" id="cp5pattern">
 <rect class="cp5color" height="12" width="12" y="0" x="0"></rect>
 <path fill="black" d="M0,0L3,0L3,3L0,3L0,0M6,0L9,0L9,3L6,3L6,0M3,3L6,3L6,6L3,6L3,3M9,3L12,3L12,6L9,6L9,3"></path>
 <path fill="black" d="M0,6L3,6L3,9L0,9L0,6M6,6L9,6L9,9L6,9L6,6M3,9L6,9L6,12L3,12L3,9M9,9L12,9L12,12L9,12L9,9"></path>
 </pattern>
 <pattern y="0" x="0" height="12" width="12" patternUnits="userSpaceOnUse" id="cp6pattern">
 <rect class="cp6color" height="12" width="12" y="0" x="0"></rect>
 <path fill="white" d="M0,0L3,0L3,3L0,3L0,0M6,0L9,0L9,3L6,3L6,0M3,3L6,3L6,6L3,6L3,3M9,3L12,3L12,6L9,6L9,3"></path>
 <path fill="white" d="M0,6L3,6L3,9L0,9L0,6M6,6L9,6L9,9L6,9L6,6M3,9L6,9L6,12L3,12L3,9M9,9L12,9L12,12L9,12L9,9"></path>
 </pattern>
 <pattern y="0" x="0" height="12" width="12" patternUnits="userSpaceOnUse" id="cp7pattern">
 <rect class="cp7color" height="12" width="12" y="0" x="0"></rect>
 <path fill="black" d="M0,0L3,0L3,3L0,3L0,0M6,0L9,0L9,3L6,3L6,0M3,3L6,3L6,6L3,6L3,3M9,3L12,3L12,6L9,6L9,3"></path>
 <path fill="black" d="M0,6L3,6L3,9L0,9L0,6M6,6L9,6L9,9L6,9L6,6M3,9L6,9L6,12L3,12L3,9M9,9L12,9L12,12L9,12L9,9"></path>
 </pattern>
 <pattern y="0" x="0" height="12" width="12" patternUnits="userSpaceOnUse" id="cp8pattern">
 <rect class="cp8color" height="12" width="12" y="0" x="0"></rect>
 <path fill="white" d="M0,0L3,0L3,3L0,3L0,0M6,0L9,0L9,3L6,3L6,0M3,3L6,3L6,6L3,6L3,3M9,3L12,3L12,6L9,6L9,3"></path>
 <path fill="white" d="M0,6L3,6L3,9L0,9L0,6M6,6L9,6L9,9L6,9L6,6M3,9L6,9L6,12L3,12L3,9M9,9L12,9L12,12L9,12L9,9"></path>
 </pattern>
 <pattern y="0" x="0" height="12" width="12" patternUnits="userSpaceOnUse" id="cp9pattern">
 <rect class="cp9color" height="12" width="12" y="0" x="0"></rect>
 <path fill="black" d="M0,0L3,0L3,3L0,3L0,0M6,0L9,0L9,3L6,3L6,0M3,3L6,3L6,6L3,6L3,3M9,3L12,3L12,6L9,6L9,3"></path>
 <path fill="black" d="M0,6L3,6L3,9L0,9L0,6M6,6L9,6L9,9L6,9L6,6M3,9L6,9L6,12L3,12L3,9M9,9L12,9L12,12L9,12L9,9"></path>
 </pattern>
 </defs>
 <rect height="100%" width="100%" y="0" x="0" class="grass" id="mainfill"></rect>
 <g id="paths"><path d="M372,24L372,24L684,24L684,36L696,36L696,48L708,48L708,60L684,60L684,72L672,72L672,84L648,84L648,96L624,96L624,108L600,108L600,120L576,120L576,132L552,132L552,156L540,156L540,144L528,144L528,156L504,156L504,168L480,168L480,180L456,180L456,192L432,192L432,204L420,204L420,216L432,216L432,228L444,228L444,240L612,240L612,216L600,216L600,204L588,204L588,192L576,192L576,180L564,180L564,168L552,168L552,156L564,156L564,168L576,168L576,180L588,180L588,192L600,192L600,204L612,204L612,216L624,216L624,228L636,228L636,216L660,216L660,204L684,204L684,192L708,192L708,180L732,180L732,168L756,168L756,156L780,156L780,132L756,132L756,120L732,120L732,96L744,96L744,84L756,84L756,72L780,72L780,60L816,60L816,48L828,48L828,36L852,36L852,24L888,24L888,36L900,36L900,24L984,24L984,36L996,36L996,24L1368,24L1368,36L1380,36L1380,48L1392,48L1392,60L1404,60L1404,84L1392,84L1392,96L1368,96L1368,108L1344,108L1344,120L1320,120L1320,132L1296,132L1296,144L1272,144L1272,156L1140,156L1140,144L1116,144L1116,132L1092,132L1092,120L1068,120L1068,108L996,108L996,120L1008,120L1008,132L1020,132L1020,144L1008,144L1008,180L984,180L984,204L972,204L972,216L960,216L960,228L948,228L948,240L900,240L900,252L924,252L924,264L912,264L912,276L900,276L900,288L888,288L888,300L864,300L864,288L828,288L828,300L852,300L852,312L864,312L864,324L852,324L852,336L840,336L840,348L828,348L828,360L816,360L816,372L804,372L804,384L276,384L276,396L264,396L264,408L276,408L276,420L504,420L504,432L492,432L492,444L480,444L480,456L468,456L468,468L228,468L228,456L216,456L216,444L204,444L204,432L192,432L192,420L180,420L180,408L168,408L168,396L180,396L180,384L192,384L192,372L204,372L204,360L216,360L216,348L672,348L672,336L684,336L684,324L696,324L696,312L708,312L708,300L720,300L720,288L732,288L732,276L780,276L780,264L756,264L756,252L768,252L768,240L780,240L780,228L876,228L876,216L816,216L816,204L840,204L840,192L864,192L864,180L888,180L888,168L912,168L912,156L936,156L936,144L924,144L924,132L912,132L912,120L900,120L900,108L888,108L888,96L900,96L900,84L912,84L912,72L1080,72L1080,84L1104,84L1104,96L1128,96L1128,108L1248,108L1248,96L1272,96L1272,84L1296,84L1296,72L1308,72L1308,60L1056,60L1056,48L1044,48L1044,60L960,60L960,48L948,48L948,60L900,60L900,72L876,72L876,84L852,84L852,96L828,96L828,120L852,120L852,132L876,132L876,156L864,156L864,168L840,168L840,180L816,180L816,192L792,192L792,204L768,204L768,216L744,216L744,228L720,228L720,240L708,240L708,252L696,252L696,264L684,264L684,276L672,276L672,288L660,288L660,300L636,300L636,312L516,312L516,288L504,288L504,312L468,312L468,300L444,300L444,288L408,288L408,276L384,276L384,264L360,264L360,252L336,252L336,240L324,240L324,228L312,228L312,216L300,216L300,204L288,204L288,192L300,192L300,180L324,180L324,168L348,168L348,156L372,156L372,144L396,144L396,132L420,132L420,120L444,120L444,108L468,108L468,96L492,96L492,84L516,84L516,72L540,72L540,60L444,60L444,48L432,48L432,36L420,36L420,48L408,48L408,36L396,36L396,48L408,48L408,60L420,60L420,48L432,48L432,60L420,60L420,72L396,72L396,84L372,84L372,96L348,96L348,108L324,108L324,120L300,120L300,132L276,132L276,192L264,192L264,216L276,216L276,300L264,300L264,312L228,312L228,324L192,324L192,336L144,336L144,348L120,348L120,360L108,360L108,492L120,492L120,504L132,504L132,516L192,516L192,504L516,504L516,516L660,516L660,504L948,504L948,516L984,516L984,504L1128,504L1128,516L1152,516L1152,504L1140,504L1140,492L1104,492L1104,480L1080,480L1080,468L1068,468L1068,456L1080,456L1080,444L1104,444L1104,432L1128,432L1128,420L1152,420L1152,408L1176,408L1176,396L1200,396L1200,384L1224,384L1224,372L1248,372L1248,360L1284,360L1284,348L1296,348L1296,336L1260,336L1260,348L1236,348L1236,360L1212,360L1212,372L1188,372L1188,384L1164,384L1164,396L1092,396L1092,384L1080,384L1080,372L1068,372L1068,360L1056,360L1056,348L1044,348L1044,336L1032,336L1032,324L1044,324L1044,312L1068,312L1068,300L1092,300L1092,288L1116,288L1116,276L1140,276L1140,264L1164,264L1164,252L1188,252L1188,240L1212,240L1212,228L1236,228L1236,216L1260,216L1260,204L1140,204L1140,192L1128,192L1128,180L1116,180L1116,192L1128,192L1128,216L1116,216L1116,228L1104,228L1104,240L1092,240L1092,252L1080,252L1080,264L1068,264L1068,276L1056,276L1056,288L1044,288L1044,300L1032,300L1032,312L1020,312L1020,324L1008,324L1008,336L996,336L996,348L984,348L984,360L972,360L972,372L960,372L960,384L948,384L948,396L936,396L936,408L912,408L912,432L900,432L900,444L888,444L888,456L876,456L876,468L732,468L732,456L720,456L720,444L708,444L708,432L696,432L696,420L840,420L840,408L852,408L852,396L864,396L864,384L876,384L876,372L888,372L888,360L900,360L900,348L912,348L912,336L924,336L924,324L936,324L936,312L948,312L948,300L960,300L960,288L972,288L972,276L984,276L984,264L996,264L996,252L1008,252L1008,240L1020,240L1020,228L1032,228L1032,216L1044,216L1044,204L1056,204L1056,192L1068,192L1068,180L1080,180L1080,168L1344,168L1344,180L1356,180L1356,192L1368,192L1368,216L1356,216L1356,228L1320,228L1320,240L1296,240L1296,252L1284,252L1284,264L1260,264L1260,276L1236,276L1236,288L1212,288L1212,300L1188,300L1188,312L1164,312L1164,324L1140,324L1140,336L1188,336L1188,324L1200,324L1200,312L1224,312L1224,300L1248,300L1248,288L1272,288L1272,276L1344,276L1344,288L1356,288L1356,312L1368,312L1368,360L1356,360L1356,384L1344,384L1344,372L1332,372L1332,336L1320,336L1320,384L1308,384L1308,396L1296,396L1296,408L1272,408L1272,420L1248,420L1248,432L1224,432L1224,444L1200,444L1200,456L1188,456L1188,468L1200,468L1200,480L1224,480L1224,492L1248,492L1248,504L1260,504L1260,516L1248,516L1248,528L1224,528L1224,540L1164,540L1164,528L1140,528L1140,540L1116,540L1116,528L1008,528L1008,540L744,540L744,528L672,528L672,540L300,540L300,528L216,528L216,540L72,540L72,528L96,528L96,516L36,516L36,348L48,348L48,336L84,336L84,324L120,324L120,312L144,312L144,300L156,300L156,204L168,204L168,192L156,192L156,132L180,132L180,120L204,120L204,108L228,108L228,96L252,96L252,84L276,84L276,72L300,72L300,60L324,60L324,48L348,48L348,36L372,36L372,24M924,36L924,36L912,36L912,48L924,48L924,36M972,36L972,36L960,36L960,48L972,48L972,36M1020,36L1020,36L1008,36L1008,48L1020,48L1020,36M384,48L384,48L372,48L372,60L384,60L384,48M1368,108L1368,108L1380,108L1380,132L1368,132L1368,108M252,120L252,120L240,120L240,156L252,156L252,120M1068,120L1068,120L1068,132L1056,132L1056,120L1068,120M1056,132L1056,132L1056,144L1044,144L1044,132L1056,132M1368,132L1368,132L1368,156L1356,156L1356,132L1368,132M1020,144L1020,144L1044,144L1044,156L1020,156L1020,144M204,156L204,156L192,156L192,192L204,192L204,156M1368,156L1368,156L1380,156L1380,180L1368,180L1368,156M252,168L252,168L240,168L240,180L252,180L252,168M924,180L924,180L912,180L912,192L960,192L960,180L924,180M1164,180L1164,180L1152,180L1152,192L1164,192L1164,180M1380,180L1380,180L1392,180L1392,192L1380,192L1380,180M1284,192L1284,192L1272,192L1272,204L1284,204L1284,192M1392,192L1392,192L1404,192L1404,216L1392,216L1392,192M228,204L228,204L216,204L216,228L228,228L228,204M1296,204L1296,204L1284,204L1284,216L1296,216L1296,204M1392,216L1392,216L1392,240L1380,240L1380,216L1392,216M648,228L648,228L636,228L636,252L648,252L648,228M624,240L624,240L612,240L612,252L600,252L600,264L612,264L612,252L624,252L624,240M1392,240L1392,240L1404,240L1404,264L1392,264L1392,240M1332,240L1332,240L1356,240L1356,252L1368,252L1368,276L1356,276L1356,264L1344,264L1344,252L1332,252L1332,240M1332,252L1332,252L1332,264L1308,264L1308,252L1332,252M516,264L516,264L504,264L504,276L576,276L576,264L516,264M816,264L816,264L804,264L804,276L876,276L876,264L816,264M1392,264L1392,264L1392,288L1368,288L1368,276L1380,276L1380,264L1392,264M636,276L636,276L624,276L624,288L636,288L636,276M312,276L312,276L372,276L372,288L348,288L348,300L360,300L360,312L348,312L348,336L336,336L336,288L312,288L312,276M768,288L768,288L756,288L756,300L804,300L804,288L768,288M1284,288L1284,288L1272,288L1272,300L1284,300L1284,288M1392,288L1392,288L1404,288L1404,312L1392,312L1392,288M1296,300L1296,300L1284,300L1284,312L1296,312L1296,300M732,312L732,312L720,312L720,324L744,324L744,312L732,312M804,312L804,312L792,312L792,324L828,324L828,312L804,312M1308,312L1308,312L1296,312L1296,324L1308,324L1308,312M1392,312L1392,312L1392,336L1380,336L1380,312L1392,312M756,324L756,324L744,324L744,336L732,336L732,348L720,348L720,360L756,360L756,348L768,348L768,336L780,336L780,324L756,324M1116,336L1116,336L1104,336L1104,348L1116,348L1116,336M1392,336L1392,336L1404,336L1404,360L1392,360L1392,336M96,348L96,348L84,348L84,360L72,360L72,396L60,396L60,420L72,420L72,396L84,396L84,360L96,360L96,348M1128,348L1128,348L1116,348L1116,360L1128,360L1128,348M1176,348L1176,348L1164,348L1164,360L1152,360L1152,372L1164,372L1164,360L1176,360L1176,348M1140,360L1140,360L1128,360L1128,372L1140,372L1140,360M1392,360L1392,360L1392,384L1380,384L1380,360L1392,360M1344,384L1344,384L1344,396L1332,396L1332,384L1344,384M1392,384L1392,384L1404,384L1404,408L1392,408L1392,384M1332,396L1332,396L1332,408L1320,408L1320,396L1332,396M888,408L888,408L876,408L876,420L900,420L900,408L888,408M1320,408L1320,408L1320,420L1308,420L1308,408L1320,408M1392,408L1392,408L1392,432L1380,432L1380,408L1392,408M1308,420L1308,420L1308,432L1296,432L1296,420L1308,420M1344,408L1344,408L1368,408L1368,444L1356,444L1356,420L1344,420L1344,408M1344,420L1344,420L1344,444L1332,444L1332,420L1344,420M252,432L252,432L240,432L240,444L336,444L336,432L252,432M504,432L504,432L516,432L516,420L684,420L684,432L696,432L696,444L708,444L708,456L720,456L720,468L480,468L480,456L492,456L492,444L504,444L504,432M1296,432L1296,432L1296,456L1284,456L1284,432L1296,432M1392,432L1392,432L1404,432L1404,456L1392,456L1392,432M1344,444L1344,444L1356,444L1356,468L1344,468L1344,444M1332,444L1332,444L1332,468L1320,468L1320,444L1332,444M1284,456L1284,456L1284,480L1272,480L1272,456L1284,456M1392,456L1392,456L1392,480L1380,480L1380,456L1392,456M1176,468L1176,468L1164,468L1164,492L1176,492L1176,468M1320,468L1320,468L1320,492L1308,492L1308,468L1320,468M1356,468L1356,468L1368,468L1368,492L1356,492L1356,468M1284,480L1284,480L1296,480L1296,504L1284,504L1284,480M1392,480L1392,480L1404,480L1404,504L1392,504L1392,480M1320,492L1320,492L1332,492L1332,516L1320,516L1320,492M1356,492L1356,492L1356,516L1344,516L1344,492L1356,492M1188,504L1188,504L1176,504L1176,516L1212,516L1212,504L1188,504M1296,504L1296,504L1308,504L1308,516L1320,516L1320,528L1296,528L1296,504M1392,504L1392,504L1392,528L1380,528L1380,504L1392,504M408,516L408,516L396,516L396,528L456,528L456,516L408,516M852,516L852,516L840,516L840,528L900,528L900,516L852,516M1356,516L1356,516L1368,516L1368,528L1380,528L1380,540L1356,540Z" class="road"></path><path d="M708,180L708,180L732,180L732,192L744,192L744,204L756,204L756,216L732,216L732,204L720,204L720,192L708,192Z" class="cp1"></path><path d="M1380,216L1380,216L1392,216L1392,228L1380,228L1380,216M720,288L720,288L756,288L756,300L720,300L720,288M804,288L804,288L828,288L828,300L804,300Z" class="cp2"></path><path d="M1140,168L1140,168L1152,168L1152,204L1140,204L1140,168M1284,480L1284,480L1296,480L1296,492L1284,492Z" class="cp3"></path><path d="M1140,516L1140,516L1152,516L1152,528L1140,528Z" class="cp4"></path><path d="M0,0L0,0L12,0L12,120L0,120Z" class="parc"></path><path d="M156,264L156,264L168,264L168,276L156,276L156,264M168,276L168,276L180,276L180,264L192,264L192,276L180,276L180,288L168,288L168,276M192,276L192,276L204,276L204,264L216,264L216,276L204,276L204,288L192,288L192,276M216,276L216,276L228,276L228,264L240,264L240,276L228,276L228,288L216,288L216,276M240,276L240,276L252,276L252,264L264,264L264,276L252,276L252,288L240,288L240,276M264,276L264,276L276,276L276,288L264,288Z" class="start"></path><path d="M156,288L156,288L276,288L276,300L156,300Z" class="finish"></path></g>
 <rect opacity=".3" fill="url(#grid)" height="100%" width="100%" y="0" x="0"></rect>
</svg>