<svg xmlns:xlink="http://www.w3.org/1999/xlink" xmlns="http://www.w3.org/2000/svg" height="1896" width="1644" id="mapSvgView" version="1.1" style="width: 1644px; height: 1896px;" viewBox="0 0 1644 1896">
 <defs>
 <pattern y="0" x="0" height="24" width="24" patternUnits="userSpaceOnUse" id="grassPattern">
 <rect class="grasscolor" height="24" width="24" y="0" x="0"></rect>
 <rect class="grassspeclecolor" height="1" width="1" x="1" y="5"></rect>
 <rect class="grassspeclecolor" height="1" width="1" x="1" y="5"></rect>
 <rect class="grassspeclecolor" height="1" width="1" x="3" y="5"></rect>
 <rect class="grassspeclecolor" height="1" width="1" x="6" y="7"></rect>
 <rect class="grassspeclecolor" height="1" width="1" x="6" y="17"></rect>
 <rect class="grassspeclecolor" height="1" width="1" x="8" y="21"></rect>
 <rect class="grassspeclecolor" height="1" width="1" x="9" y="2"></rect>
 <rect class="grassspeclecolor" height="1" width="1" x="12" y="4"></rect>
 <rect class="grassspeclecolor" height="1" width="1" x="13" y="15"></rect>
 <rect class="grassspeclecolor" height="1" width="1" x="14" y="4"></rect>
 <rect class="grassspeclecolor" height="1" width="1" x="14" y="19"></rect>
 <rect class="grassspeclecolor" height="1" width="1" x="17" y="7"></rect>
 <rect class="grassspeclecolor" height="1" width="1" x="17" y="12"></rect>
 <rect class="grassspeclecolor" height="1" width="1" x="18" y="23"></rect>
 <rect class="grassspeclecolor" height="1" width="1" x="21" y="16"></rect>
 <rect class="grassspeclecolor" height="1" width="1" x="23" y="12"></rect>
 </pattern>
 <pattern y="0" x="0" height="24" width="24" patternUnits="userSpaceOnUse" id="roadPattern">
 <rect class="roadcolor" height="24" width="24" y="0" x="0"></rect>
 <rect class="roadspeclecolor" height="1" width="1" x="1" y="5"></rect>
 <rect class="roadspeclecolor" height="1" width="1" x="1" y="5"></rect>
 <rect class="roadspeclecolor" height="1" width="1" x="3" y="5"></rect>
 <rect class="roadspeclecolor" height="1" width="1" x="6" y="7"></rect>
 <rect class="roadspeclecolor" height="1" width="1" x="6" y="17"></rect>
 <rect class="roadspeclecolor" height="1" width="1" x="8" y="21"></rect>
 <rect class="roadspeclecolor" height="1" width="1" x="9" y="2"></rect>
 <rect class="roadspeclecolor" height="1" width="1" x="12" y="4"></rect>
 <rect class="roadspeclecolor" height="1" width="1" x="13" y="15"></rect>
 <rect class="roadspeclecolor" height="1" width="1" x="14" y="4"></rect>
 <rect class="roadspeclecolor" height="1" width="1" x="14" y="19"></rect>
 <rect class="roadspeclecolor" height="1" width="1" x="17" y="7"></rect>
 <rect class="roadspeclecolor" height="1" width="1" x="17" y="12"></rect>
 <rect class="roadspeclecolor" height="1" width="1" x="18" y="23"></rect>
 <rect class="roadspeclecolor" height="1" width="1" x="21" y="16"></rect>
 <rect class="roadspeclecolor" height="1" width="1" x="23" y="12"></rect>
 </pattern>
 <pattern y="0" x="0" height="12" width="12" patternUnits="userSpaceOnUse" id="grid">
 <line stroke-width="1" stroke="black" y2="12" x2="12" y1="0" x1="12"></line>
 <line stroke-width="1" stroke="black" y2="12" x2="12" y1="12" x1="0"></line>
 </pattern>
 <pattern y="0" x="0" height="12" width="12" patternUnits="userSpaceOnUse" id="finishPattern">
 <rect fill="black" height="12" width="12" y="0" x="0"></rect>
 <path fill="white" d="M0,0L3,0L3,3L0,3L0,0M6,0L9,0L9,3L6,3L6,0M3,3L6,3L6,6L3,6L3,3M9,3L12,3L12,6L9,6L9,3"></path>
 <path fill="white" d="M0,6L3,6L3,9L0,9L0,6M6,6L9,6L9,9L6,9L6,6M3,9L6,9L6,12L3,12L3,9M9,9L12,9L12,12L9,12L9,9"></path>
 </pattern>
 <pattern y="0" x="0" height="12" width="12" patternUnits="userSpaceOnUse" id="startPattern">
 <rect fill="rgb(100,100,100)" height="12" width="12" y="0" x="0"></rect>
 <rect stroke-width="1" stroke="rgb(200,200,200)" fill="none" height="5" width="5" y="3.5" x="3.5"></rect>
 </pattern>
 <pattern y="0" x="0" height="12" width="12" patternUnits="userSpaceOnUse" id="cp1pattern">
 <rect class="cp1color" height="12" width="12" y="0" x="0"></rect>
 <path fill="black" d="M0,0L3,0L3,3L0,3L0,0M6,0L9,0L9,3L6,3L6,0M3,3L6,3L6,6L3,6L3,3M9,3L12,3L12,6L9,6L9,3"></path>
 <path fill="black" d="M0,6L3,6L3,9L0,9L0,6M6,6L9,6L9,9L6,9L6,6M3,9L6,9L6,12L3,12L3,9M9,9L12,9L12,12L9,12L9,9"></path>
 </pattern>
 <pattern y="0" x="0" height="12" width="12" patternUnits="userSpaceOnUse" id="cp2pattern">
 <rect class="cp2color" height="12" width="12" y="0" x="0"></rect>
 <path fill="white" d="M0,0L3,0L3,3L0,3L0,0M6,0L9,0L9,3L6,3L6,0M3,3L6,3L6,6L3,6L3,3M9,3L12,3L12,6L9,6L9,3"></path>
 <path fill="white" d="M0,6L3,6L3,9L0,9L0,6M6,6L9,6L9,9L6,9L6,6M3,9L6,9L6,12L3,12L3,9M9,9L12,9L12,12L9,12L9,9"></path>
 </pattern>
 <pattern y="0" x="0" height="12" width="12" patternUnits="userSpaceOnUse" id="cp3pattern">
 <rect class="cp3color" height="12" width="12" y="0" x="0"></rect>
 <path fill="black" d="M0,0L3,0L3,3L0,3L0,0M6,0L9,0L9,3L6,3L6,0M3,3L6,3L6,6L3,6L3,3M9,3L12,3L12,6L9,6L9,3"></path>
 <path fill="black" d="M0,6L3,6L3,9L0,9L0,6M6,6L9,6L9,9L6,9L6,6M3,9L6,9L6,12L3,12L3,9M9,9L12,9L12,12L9,12L9,9"></path>
 </pattern>
 <pattern y="0" x="0" height="12" width="12" patternUnits="userSpaceOnUse" id="cp4pattern">
 <rect class="cp4color" height="12" width="12" y="0" x="0"></rect>
 <path fill="white" d="M0,0L3,0L3,3L0,3L0,0M6,0L9,0L9,3L6,3L6,0M3,3L6,3L6,6L3,6L3,3M9,3L12,3L12,6L9,6L9,3"></path>
 <path fill="white" d="M0,6L3,6L3,9L0,9L0,6M6,6L9,6L9,9L6,9L6,6M3,9L6,9L6,12L3,12L3,9M9,9L12,9L12,12L9,12L9,9"></path>
 </pattern>
 <pattern y="0" x="0" height="12" width="12" patternUnits="userSpaceOnUse" id="cp5pattern">
 <rect class="cp5color" height="12" width="12" y="0" x="0"></rect>
 <path fill="black" d="M0,0L3,0L3,3L0,3L0,0M6,0L9,0L9,3L6,3L6,0M3,3L6,3L6,6L3,6L3,3M9,3L12,3L12,6L9,6L9,3"></path>
 <path fill="black" d="M0,6L3,6L3,9L0,9L0,6M6,6L9,6L9,9L6,9L6,6M3,9L6,9L6,12L3,12L3,9M9,9L12,9L12,12L9,12L9,9"></path>
 </pattern>
 <pattern y="0" x="0" height="12" width="12" patternUnits="userSpaceOnUse" id="cp6pattern">
 <rect class="cp6color" height="12" width="12" y="0" x="0"></rect>
 <path fill="white" d="M0,0L3,0L3,3L0,3L0,0M6,0L9,0L9,3L6,3L6,0M3,3L6,3L6,6L3,6L3,3M9,3L12,3L12,6L9,6L9,3"></path>
 <path fill="white" d="M0,6L3,6L3,9L0,9L0,6M6,6L9,6L9,9L6,9L6,6M3,9L6,9L6,12L3,12L3,9M9,9L12,9L12,12L9,12L9,9"></path>
 </pattern>
 <pattern y="0" x="0" height="12" width="12" patternUnits="userSpaceOnUse" id="cp7pattern">
 <rect class="cp7color" height="12" width="12" y="0" x="0"></rect>
 <path fill="black" d="M0,0L3,0L3,3L0,3L0,0M6,0L9,0L9,3L6,3L6,0M3,3L6,3L6,6L3,6L3,3M9,3L12,3L12,6L9,6L9,3"></path>
 <path fill="black" d="M0,6L3,6L3,9L0,9L0,6M6,6L9,6L9,9L6,9L6,6M3,9L6,9L6,12L3,12L3,9M9,9L12,9L12,12L9,12L9,9"></path>
 </pattern>
 <pattern y="0" x="0" height="12" width="12" patternUnits="userSpaceOnUse" id="cp8pattern">
 <rect class="cp8color" height="12" width="12" y="0" x="0"></rect>
 <path fill="white" d="M0,0L3,0L3,3L0,3L0,0M6,0L9,0L9,3L6,3L6,0M3,3L6,3L6,6L3,6L3,3M9,3L12,3L12,6L9,6L9,3"></path>
 <path fill="white" d="M0,6L3,6L3,9L0,9L0,6M6,6L9,6L9,9L6,9L6,6M3,9L6,9L6,12L3,12L3,9M9,9L12,9L12,12L9,12L9,9"></path>
 </pattern>
 <pattern y="0" x="0" height="12" width="12" patternUnits="userSpaceOnUse" id="cp9pattern">
 <rect class="cp9color" height="12" width="12" y="0" x="0"></rect>
 <path fill="black" d="M0,0L3,0L3,3L0,3L0,0M6,0L9,0L9,3L6,3L6,0M3,3L6,3L6,6L3,6L3,3M9,3L12,3L12,6L9,6L9,3"></path>
 <path fill="black" d="M0,6L3,6L3,9L0,9L0,6M6,6L9,6L9,9L6,9L6,6M3,9L6,9L6,12L3,12L3,9M9,9L12,9L12,12L9,12L9,9"></path>
 </pattern>
 </defs>
 <rect height="100%" width="100%" y="0" x="0" class="grass" id="mainfill"></rect>
 <g id="paths"><path d="M732,36L732,36L840,36L840,48L852,48L852,36L864,36L864,48L900,48L900,60L936,60L936,72L948,72L948,84L972,84L972,96L984,96L984,108L996,108L996,120L1020,120L1020,144L1032,144L1032,156L1044,156L1044,180L1056,180L1056,204L1068,204L1068,228L1080,228L1080,252L1092,252L1092,264L1080,264L1080,276L1092,276L1092,336L1104,336L1104,360L1092,360L1092,372L1104,372L1104,384L1092,384L1092,396L1104,396L1104,408L1092,408L1092,444L1104,444L1104,516L1116,516L1116,528L1104,528L1104,540L1116,540L1116,564L1128,564L1128,600L1140,600L1140,612L1152,612L1152,636L1164,636L1164,672L1176,672L1176,684L1188,684L1188,708L1200,708L1200,732L1212,732L1212,744L1224,744L1224,756L1236,756L1236,780L1248,780L1248,792L1260,792L1260,804L1272,804L1272,816L1284,816L1284,840L1296,840L1296,864L1308,864L1308,876L1320,876L1320,888L1332,888L1332,912L1344,912L1344,936L1356,936L1356,960L1368,960L1368,1008L1380,1008L1380,1032L1392,1032L1392,1068L1404,1068L1404,1092L1416,1092L1416,1104L1404,1104L1404,1116L1416,1116L1416,1140L1428,1140L1428,1152L1416,1152L1416,1164L1428,1164L1428,1260L1416,1260L1416,1272L1428,1272L1428,1284L1416,1284L1416,1320L1404,1320L1404,1332L1380,1332L1380,1356L1368,1356L1368,1380L1356,1380L1356,1392L1332,1392L1332,1404L1320,1404L1320,1416L1332,1416L1332,1428L1296,1428L1296,1440L1284,1440L1284,1428L1272,1428L1272,1440L1284,1440L1284,1452L1272,1452L1272,1464L1260,1464L1260,1440L1248,1440L1248,1428L1236,1428L1236,1440L1224,1440L1224,1428L1212,1428L1212,1440L1200,1440L1200,1428L1188,1428L1188,1416L1176,1416L1176,1392L1140,1392L1140,1380L1152,1380L1152,1368L1164,1368L1164,1308L1152,1308L1152,1272L1164,1272L1164,1200L1152,1200L1152,1188L1164,1188L1164,1176L1152,1176L1152,1140L1164,1140L1164,1128L1152,1128L1152,1032L1140,1032L1140,996L1128,996L1128,960L1116,960L1116,948L1104,948L1104,924L1092,924L1092,900L1080,900L1080,876L1068,876L1068,852L1056,852L1056,816L1044,816L1044,780L1032,780L1032,756L1020,756L1020,732L1008,732L1008,696L996,696L996,672L984,672L984,648L972,648L972,636L960,636L960,600L936,600L936,588L948,588L948,576L936,576L936,564L924,564L924,552L936,552L936,564L960,564L960,540L948,540L948,528L960,528L960,516L948,516L948,492L936,492L936,480L948,480L948,468L960,468L960,456L972,456L972,444L960,444L960,408L972,408L972,396L960,396L960,360L936,360L936,348L948,348L948,336L936,336L936,312L924,312L924,300L912,300L912,288L876,288L876,300L864,300L864,288L840,288L840,300L828,300L828,312L816,312L816,336L804,336L804,348L792,348L792,432L804,432L804,444L780,444L780,432L768,432L768,444L756,444L756,432L744,432L744,444L732,444L732,432L708,432L708,408L720,408L720,396L708,396L708,360L696,360L696,324L684,324L684,312L660,312L660,300L624,300L624,312L612,312L612,348L588,348L588,360L600,360L600,372L588,372L588,432L600,432L600,420L612,420L612,408L600,408L600,384L612,384L612,372L624,372L624,360L660,360L660,372L648,372L648,408L660,408L660,372L672,372L672,384L684,384L684,396L672,396L672,408L660,408L660,420L672,420L672,408L684,408L684,456L672,456L672,480L660,480L660,468L648,468L648,480L636,480L636,456L624,456L624,444L612,444L612,432L600,432L600,468L612,468L612,492L624,492L624,516L636,516L636,528L624,528L624,540L600,540L600,528L588,528L588,552L612,552L612,576L624,576L624,588L636,588L636,576L648,576L648,588L636,588L636,600L672,600L672,588L684,588L684,600L672,600L672,612L696,612L696,624L684,624L684,636L672,636L672,624L660,624L660,612L648,612L648,624L660,624L660,636L636,636L636,612L624,612L624,600L600,600L600,612L588,612L588,624L600,624L600,648L588,648L588,660L600,660L600,684L588,684L588,696L600,696L600,708L588,708L588,720L576,720L576,744L564,744L564,756L552,756L552,780L540,780L540,792L528,792L528,828L516,828L516,852L528,852L528,864L516,864L516,888L492,888L492,912L504,912L504,936L480,936L480,960L468,960L468,996L456,996L456,1008L444,1008L444,1032L432,1032L432,1056L420,1056L420,1080L408,1080L408,1092L420,1092L420,1104L408,1104L408,1152L396,1152L396,1212L384,1212L384,1224L396,1224L396,1236L384,1236L384,1248L396,1248L396,1272L372,1272L372,1284L384,1284L384,1296L396,1296L396,1308L420,1308L420,1320L432,1320L432,1332L444,1332L444,1344L456,1344L456,1356L468,1356L468,1368L492,1368L492,1380L504,1380L504,1392L516,1392L516,1404L528,1404L528,1416L540,1416L540,1428L564,1428L564,1452L588,1452L588,1464L612,1464L612,1488L624,1488L624,1536L612,1536L612,1560L564,1560L564,1584L552,1584L552,1560L540,1560L540,1548L528,1548L528,1524L504,1524L504,1512L492,1512L492,1464L480,1464L480,1476L468,1476L468,1428L444,1428L444,1392L432,1392L432,1380L420,1380L420,1356L408,1356L408,1344L396,1344L396,1332L384,1332L384,1320L372,1320L372,1308L360,1308L360,1296L348,1296L348,1284L324,1284L324,1272L300,1272L300,1284L288,1284L288,1296L276,1296L276,1308L264,1308L264,1296L252,1296L252,1284L240,1284L240,1260L252,1260L252,1248L240,1248L240,1224L252,1224L252,1212L240,1212L240,1200L252,1200L252,1176L264,1176L264,1164L276,1164L276,1152L288,1152L288,1128L300,1128L300,1104L312,1104L312,1080L324,1080L324,1044L336,1044L336,1020L348,1020L348,972L360,972L360,936L372,936L372,912L384,912L384,876L396,876L396,864L408,864L408,852L420,852L420,840L432,840L432,816L444,816L444,804L456,804L456,792L468,792L468,768L480,768L480,756L492,756L492,732L504,732L504,720L516,720L516,708L528,708L528,684L540,684L540,672L552,672L552,468L540,468L540,456L552,456L552,432L540,432L540,420L552,420L552,408L540,408L540,396L552,396L552,384L540,384L540,216L552,216L552,168L564,168L564,156L576,156L576,132L588,132L588,108L612,108L612,96L624,96L624,84L636,84L636,72L660,72L660,60L696,60L696,48L732,48L732,36M924,120L924,120L912,120L912,132L900,132L900,156L912,156L912,144L924,144L924,156L912,156L912,168L936,168L936,156L948,156L948,144L936,144L936,132L924,132L924,120M936,276L936,276L924,276L924,288L936,288L936,276M840,312L840,312L852,312L852,324L840,324L840,312M864,312L864,312L876,312L876,324L864,324L864,312M912,324L912,324L924,324L924,336L912,336L912,324M852,360L852,360L900,360L900,372L912,372L912,384L924,384L924,396L912,396L912,408L924,408L924,456L900,456L900,480L852,480L852,456L828,456L828,384L840,384L840,372L852,372L852,360M888,372L888,372L876,372L876,384L888,384L888,372M900,384L900,384L888,384L888,396L900,396L900,384M684,456L684,456L696,456L696,444L708,444L708,456L696,456L696,468L684,468L684,456M756,456L756,456L780,456L780,468L756,468L756,456M648,480L648,480L660,480L660,492L648,492L648,480M708,468L708,468L720,468L720,480L708,480L708,468M900,480L900,480L912,480L912,492L900,492L900,480M816,480L816,480L828,480L828,492L816,492L816,480M672,492L672,492L684,492L684,504L672,504L672,492M720,492L720,492L732,492L732,504L720,504L720,492M612,516L612,516L600,516L600,528L612,528L612,516M768,504L768,504L780,504L780,516L768,516L768,504M684,516L684,516L696,516L696,528L684,528L684,516M792,516L792,516L804,516L804,528L792,528L792,516M624,540L624,540L636,540L636,552L624,552L624,540M924,528L924,528L936,528L936,540L924,540L924,528M648,540L648,540L660,540L660,552L648,552L648,540M756,540L756,540L768,540L768,552L756,552L756,540M888,540L888,540L900,540L900,564L888,564L888,540M672,552L672,552L684,552L684,564L672,564L672,552M852,552L852,552L876,552L876,564L852,564L852,552M732,564L732,564L744,564L744,576L732,576L732,564M1032,576L1032,576L1020,576L1020,600L1032,600L1032,576M816,576L816,576L840,576L840,588L828,588L828,600L816,600L816,612L792,612L792,624L780,624L780,612L768,612L768,600L792,600L792,588L816,588L816,576M864,576L864,576L876,576L876,588L864,588L864,576M876,588L876,588L888,588L888,600L876,600L876,588M1056,588L1056,588L1044,588L1044,600L1032,600L1032,636L1044,636L1044,648L1068,648L1068,660L1080,660L1080,648L1092,648L1092,624L1080,624L1080,612L1056,612L1056,588M900,588L900,588L924,588L924,600L900,600L900,588M732,600L732,600L744,600L744,612L768,612L768,624L708,624L708,612L732,612L732,600M768,624L768,624L780,624L780,636L768,636L768,624M876,612L876,612L888,612L888,624L876,624L876,612M876,624L876,624L876,636L852,636L852,624L876,624M1080,624L1080,624L1080,636L1068,636L1068,624L1080,624M636,636L636,636L636,648L624,648L624,636L636,636M660,636L660,636L672,636L672,648L684,648L684,636L696,636L696,660L708,660L708,648L720,648L720,636L732,636L732,648L720,648L720,672L732,672L732,648L744,648L744,672L732,672L732,684L720,684L720,696L708,696L708,672L696,672L696,684L684,684L684,660L648,660L648,648L660,648L660,636M780,636L780,636L792,636L792,648L780,648L780,636M828,624L828,624L840,624L840,636L828,636L828,624M840,636L840,636L852,636L852,648L840,648L840,636M828,636L828,636L828,660L816,660L816,636L828,636M756,648L756,648L768,648L768,660L780,660L780,672L756,672L756,648M864,648L864,648L876,648L876,660L864,660L864,648M744,672L744,672L756,672L756,696L744,696L744,672M780,672L780,672L792,672L792,660L804,660L804,684L780,684L780,672M528,888L528,888L540,888L540,900L528,900L528,888M360,1212L360,1212L348,1212L348,1224L360,1224L360,1212M1152,1308L1152,1308L1152,1320L1140,1320L1140,1308L1152,1308M372,1320L372,1320L372,1332L360,1332L360,1320L372,1320M1092,1308L1092,1308L1104,1308L1104,1320L1092,1320L1092,1308M1080,1332L1080,1332L1092,1332L1092,1344L1080,1344L1080,1332M228,1344L228,1344L240,1344L240,1356L228,1356L228,1344M252,1356L252,1356L264,1356L264,1368L252,1368L252,1356M1068,1368L1068,1368L1080,1368L1080,1380L1068,1380L1068,1368M1104,1368L1104,1368L1116,1368L1116,1380L1104,1380L1104,1368M216,1380L216,1380L228,1380L228,1392L216,1392L216,1380M228,1392L228,1392L240,1392L240,1404L228,1404L228,1392M216,1392L216,1392L216,1404L192,1404L192,1428L180,1428L180,1416L168,1416L168,1404L180,1404L180,1392L216,1392M1368,1392L1368,1392L1380,1392L1380,1404L1368,1404L1368,1392M1404,1392L1404,1392L1416,1392L1416,1404L1404,1404L1404,1392M1092,1404L1092,1404L1104,1404L1104,1416L1092,1416L1092,1404M1140,1404L1140,1404L1152,1404L1152,1416L1140,1416L1140,1404M1140,1416L1140,1416L1140,1428L1128,1428L1128,1416L1140,1416M1176,1416L1176,1416L1176,1428L1164,1428L1164,1416L1176,1416M132,1416L132,1416L156,1416L156,1428L144,1428L144,1440L132,1440L132,1416M204,1416L204,1416L216,1416L216,1428L204,1428L204,1416M360,1416L360,1416L372,1416L372,1428L360,1428L360,1416M1176,1428L1176,1428L1188,1428L1188,1440L1176,1440L1176,1428M1164,1428L1164,1428L1164,1440L1152,1440L1152,1428L1164,1428M132,1440L132,1440L132,1452L120,1452L120,1440L132,1440M240,1428L240,1428L252,1428L252,1440L240,1440L240,1428M408,1428L408,1428L420,1428L420,1440L408,1440L408,1428M1080,1428L1080,1428L1092,1428L1092,1440L1080,1440L1080,1428M1188,1440L1188,1440L1200,1440L1200,1464L1188,1464L1188,1440M1236,1440L1236,1440L1248,1440L1248,1452L1236,1452L1236,1440M1392,1428L1392,1428L1404,1428L1404,1440L1392,1440L1392,1428M84,1440L84,1440L96,1440L96,1452L84,1452L84,1440M180,1440L180,1440L192,1440L192,1452L180,1452L180,1440M1128,1440L1128,1440L1140,1440L1140,1452L1128,1452L1128,1440M1320,1440L1320,1440L1332,1440L1332,1452L1320,1452L1320,1440M1332,1452L1332,1452L1344,1452L1344,1464L1332,1464L1332,1452M1356,1440L1356,1440L1368,1440L1368,1452L1356,1452L1356,1440M48,1452L48,1452L72,1452L72,1464L48,1464L48,1452M240,1452L240,1452L252,1452L252,1464L240,1464L240,1452M276,1452L276,1452L288,1452L288,1464L276,1464L276,1452M1068,1452L1068,1452L1080,1452L1080,1464L1068,1464L1068,1452M1080,1464L1080,1464L1092,1464L1092,1476L1104,1476L1104,1464L1116,1464L1116,1476L1104,1476L1104,1488L1080,1488L1080,1500L1068,1500L1068,1476L1080,1476L1080,1464M1164,1452L1164,1452L1176,1452L1176,1464L1164,1464L1164,1452M1164,1464L1164,1464L1164,1476L1152,1476L1152,1464L1164,1464M1212,1452L1212,1452L1224,1452L1224,1464L1212,1464L1212,1452M1224,1464L1224,1464L1236,1464L1236,1476L1224,1476L1224,1464M204,1464L204,1464L216,1464L216,1476L204,1476L204,1464M420,1464L420,1464L432,1464L432,1476L420,1476L420,1464M1128,1464L1128,1464L1140,1464L1140,1476L1128,1476L1128,1464M1224,1476L1224,1476L1224,1488L1212,1488L1212,1476L1224,1476M1284,1464L1284,1464L1296,1464L1296,1476L1284,1476L1284,1464M1296,1476L1296,1476L1308,1476L1308,1488L1296,1488L1296,1476M120,1476L120,1476L132,1476L132,1488L120,1488L120,1476M168,1476L168,1476L180,1476L180,1488L168,1488L168,1476M288,1476L288,1476L300,1476L300,1488L288,1488L288,1476M372,1476L372,1476L384,1476L384,1488L372,1488L372,1476M1176,1476L1176,1476L1188,1476L1188,1488L1176,1488L1176,1476M1260,1476L1260,1476L1272,1476L1272,1488L1260,1488L1260,1476M48,1488L48,1488L60,1488L60,1500L48,1500L48,1488M444,1488L444,1488L456,1488L456,1500L444,1500L444,1488M1080,1500L1080,1500L1104,1500L1104,1512L1116,1512L1116,1524L1104,1524L1104,1536L1092,1536L1092,1524L1068,1524L1068,1512L1080,1512L1080,1500M1320,1488L1320,1488L1332,1488L1332,1500L1320,1500L1320,1488M84,1500L84,1500L96,1500L96,1512L84,1512L84,1500M192,1500L192,1500L204,1500L204,1512L192,1512L192,1500M384,1500L384,1500L396,1500L396,1512L384,1512L384,1500M1140,1500L1140,1500L1152,1500L1152,1512L1140,1512L1140,1500M1200,1500L1200,1500L1212,1500L1212,1512L1200,1512L1200,1500M1212,1512L1212,1512L1224,1512L1224,1524L1212,1524L1212,1512M1248,1500L1248,1500L1260,1500L1260,1512L1248,1512L1248,1500M48,1512L48,1512L60,1512L60,1536L48,1536L48,1512M1068,1524L1068,1524L1068,1536L1092,1536L1092,1548L1080,1548L1080,1560L1092,1560L1092,1548L1104,1548L1104,1560L1092,1560L1092,1584L1104,1584L1104,1596L1092,1596L1092,1608L1068,1608L1068,1620L1092,1620L1092,1632L1068,1632L1068,1656L1080,1656L1080,1668L1068,1668L1068,1680L1056,1680L1056,1692L1068,1692L1068,1680L1092,1680L1092,1692L1068,1692L1068,1704L1056,1704L1056,1716L1068,1716L1068,1704L1092,1704L1092,1716L1104,1716L1104,1704L1116,1704L1116,1716L1104,1716L1104,1728L1140,1728L1140,1740L1104,1740L1104,1752L1116,1752L1116,1764L1080,1764L1080,1752L1068,1752L1068,1764L1080,1764L1080,1776L1116,1776L1116,1764L1140,1764L1140,1776L1116,1776L1116,1788L1092,1788L1092,1800L1116,1800L1116,1788L1140,1788L1140,1776L1152,1776L1152,1788L1140,1788L1140,1800L1128,1800L1128,1812L1140,1812L1140,1800L1152,1800L1152,1788L1164,1788L1164,1764L1176,1764L1176,1776L1200,1776L1200,1764L1212,1764L1212,1776L1200,1776L1200,1788L1176,1788L1176,1800L1152,1800L1152,1812L1140,1812L1140,1824L1152,1824L1152,1812L1176,1812L1176,1800L1212,1800L1212,1812L1176,1812L1176,1824L1212,1824L1212,1812L1224,1812L1224,1800L1236,1800L1236,1788L1224,1788L1224,1764L1236,1764L1236,1788L1248,1788L1248,1752L1236,1752L1236,1740L1248,1740L1248,1752L1260,1752L1260,1764L1272,1764L1272,1776L1260,1776L1260,1788L1284,1788L1284,1752L1320,1752L1320,1776L1296,1776L1296,1800L1284,1800L1284,1812L1272,1812L1272,1800L1260,1800L1260,1812L1272,1812L1272,1824L1248,1824L1248,1836L1224,1836L1224,1848L1188,1848L1188,1860L1176,1860L1176,1848L1164,1848L1164,1860L1140,1860L1140,1848L1128,1848L1128,1860L1116,1860L1116,1848L1092,1848L1092,1836L1068,1836L1068,1824L1056,1824L1056,1800L1044,1800L1044,1776L1032,1776L1032,1764L1020,1764L1020,1776L1008,1776L1008,1764L708,1764L708,1776L696,1776L696,1764L684,1764L684,1776L636,1776L636,1788L612,1788L612,1800L600,1800L600,1812L576,1812L576,1824L564,1824L564,1836L552,1836L552,1848L528,1848L528,1860L516,1860L516,1848L480,1848L480,1860L468,1860L468,1848L444,1848L444,1836L408,1836L408,1824L384,1824L384,1812L348,1812L348,1800L288,1800L288,1788L240,1788L240,1776L216,1776L216,1764L204,1764L204,1752L192,1752L192,1740L180,1740L180,1752L192,1752L192,1764L168,1764L168,1752L132,1752L132,1728L144,1728L144,1704L156,1704L156,1692L168,1692L168,1704L156,1704L156,1728L144,1728L144,1740L168,1740L168,1716L180,1716L180,1728L216,1728L216,1740L228,1740L228,1752L216,1752L216,1764L228,1764L228,1752L240,1752L240,1728L276,1728L276,1716L288,1716L288,1728L276,1728L276,1764L264,1764L264,1740L252,1740L252,1752L240,1752L240,1764L264,1764L264,1776L276,1776L276,1764L288,1764L288,1740L300,1740L300,1728L312,1728L312,1740L300,1740L300,1752L324,1752L324,1764L312,1764L312,1776L300,1776L300,1764L288,1764L288,1776L300,1776L300,1788L312,1788L312,1776L324,1776L324,1764L336,1764L336,1740L348,1740L348,1764L336,1764L336,1788L348,1788L348,1776L360,1776L360,1752L372,1752L372,1764L384,1764L384,1752L396,1752L396,1764L384,1764L384,1800L396,1800L396,1764L408,1764L408,1752L420,1752L420,1740L432,1740L432,1752L420,1752L420,1764L408,1764L408,1788L420,1788L420,1776L432,1776L432,1764L444,1764L444,1776L432,1776L432,1788L420,1788L420,1800L408,1800L408,1812L420,1812L420,1800L432,1800L432,1788L444,1788L444,1800L456,1800L456,1764L468,1764L468,1788L480,1788L480,1764L492,1764L492,1752L504,1752L504,1764L492,1764L492,1776L516,1776L516,1764L528,1764L528,1776L516,1776L516,1788L528,1788L528,1776L540,1776L540,1752L564,1752L564,1740L552,1740L552,1716L564,1716L564,1680L576,1680L576,1668L564,1668L564,1656L576,1656L576,1644L588,1644L588,1632L576,1632L576,1620L564,1620L564,1596L576,1596L576,1608L588,1608L588,1632L600,1632L600,1644L612,1644L612,1656L636,1656L636,1668L696,1668L696,1680L768,1680L768,1668L840,1668L840,1656L852,1656L852,1668L864,1668L864,1656L888,1656L888,1644L924,1644L924,1632L936,1632L936,1620L960,1620L960,1608L972,1608L972,1596L984,1596L984,1584L1008,1584L1008,1572L1020,1572L1020,1560L1032,1560L1032,1548L1044,1548L1044,1536L1056,1536L1056,1524L1068,1524M1116,1524L1116,1524L1128,1524L1128,1536L1116,1536L1116,1524M1284,1512L1284,1512L1296,1512L1296,1524L1284,1524L1284,1512M72,1524L72,1524L84,1524L84,1536L72,1536L72,1524M288,1524L288,1524L300,1524L300,1536L288,1536L288,1524M468,1524L468,1524L480,1524L480,1536L468,1536L468,1524M1128,1536L1128,1536L1140,1536L1140,1548L1128,1548L1128,1536M1164,1524L1164,1524L1176,1524L1176,1536L1164,1536L1164,1524M1248,1524L1248,1524L1260,1524L1260,1536L1248,1536L1248,1524M108,1536L108,1536L120,1536L120,1548L108,1548L108,1536M1284,1536L1284,1536L1296,1536L1296,1548L1284,1548L1284,1536M1392,1536L1392,1536L1404,1536L1404,1548L1392,1548L1392,1536M48,1548L48,1548L60,1548L60,1560L48,1560L48,1548M60,1560L60,1560L72,1560L72,1572L60,1572L60,1560M492,1548L492,1548L504,1548L504,1560L492,1560L492,1548M1104,1560L1104,1560L1116,1560L1116,1572L1104,1572L1104,1560M1320,1548L1320,1548L1332,1548L1332,1560L1320,1560L1320,1548M60,1572L60,1572L60,1596L48,1596L48,1572L60,1572M132,1560L132,1560L144,1560L144,1572L132,1572L132,1560M1080,1572L1080,1572L1068,1572L1068,1596L1080,1596L1080,1572M1140,1560L1140,1560L1152,1560L1152,1572L1140,1572L1140,1560M96,1572L96,1572L108,1572L108,1584L96,1584L96,1572M180,1572L180,1572L192,1572L192,1584L180,1584L180,1572M252,1572L252,1572L264,1572L264,1584L252,1584L252,1572M1188,1572L1188,1572L1200,1572L1200,1584L1188,1584L1188,1572M1548,1572L1548,1572L1560,1572L1560,1584L1548,1584L1548,1572M72,1584L72,1584L84,1584L84,1596L72,1596L72,1584M384,1584L384,1584L396,1584L396,1596L384,1596L384,1584M492,1584L492,1584L504,1584L504,1596L492,1596L492,1584M1152,1584L1152,1584L1164,1584L1164,1596L1152,1596L1152,1584M1344,1584L1344,1584L1356,1584L1356,1596L1344,1596L1344,1584M96,1596L96,1596L108,1596L108,1608L96,1608L96,1596M432,1596L432,1596L444,1596L444,1608L432,1608L432,1596M468,1596L468,1596L480,1596L480,1608L468,1608L468,1596M1308,1596L1308,1596L1320,1596L1320,1608L1308,1608L1308,1596M1464,1596L1464,1596L1476,1596L1476,1608L1464,1608L1464,1596M48,1608L48,1608L60,1608L60,1620L48,1620L48,1608M60,1620L60,1620L72,1620L72,1632L60,1632L60,1620M492,1608L492,1608L504,1608L504,1620L492,1620L492,1608M564,1620L564,1620L564,1632L552,1632L552,1620L564,1620M1104,1608L1104,1608L1116,1608L1116,1620L1104,1620L1104,1608M1128,1608L1128,1608L1140,1608L1140,1620L1128,1620L1128,1608M1260,1608L1260,1608L1272,1608L1272,1620L1260,1620L1260,1608M1404,1608L1404,1608L1416,1608L1416,1620L1404,1620L1404,1608M1536,1608L1536,1608L1548,1608L1548,1620L1536,1620L1536,1608M300,1620L300,1620L312,1620L312,1632L300,1632L300,1620M516,1620L516,1620L528,1620L528,1632L516,1632L516,1620M1356,1620L1356,1620L1368,1620L1368,1632L1356,1632L1356,1620M96,1632L96,1632L108,1632L108,1644L96,1644L96,1632M444,1632L444,1632L456,1632L456,1644L444,1644L444,1632M1104,1632L1104,1632L1116,1632L1116,1644L1104,1644L1104,1632M1104,1644L1104,1644L1104,1656L1092,1656L1092,1644L1104,1644M1152,1632L1152,1632L1164,1632L1164,1644L1152,1644L1152,1632M1296,1632L1296,1632L1308,1632L1308,1644L1296,1644L1296,1632M1476,1632L1476,1632L1488,1632L1488,1644L1476,1644L1476,1632M1524,1632L1524,1632L1536,1632L1536,1644L1524,1644L1524,1632M48,1644L48,1644L60,1644L60,1656L48,1656L48,1644M528,1644L528,1644L540,1644L540,1656L528,1656L528,1644M588,1656L588,1656L576,1656L576,1668L588,1668L588,1656M1500,1644L1500,1644L1512,1644L1512,1656L1500,1656L1500,1644M72,1656L72,1656L84,1656L84,1668L72,1668L72,1656M120,1656L120,1656L132,1656L132,1668L120,1668L120,1656M216,1656L216,1656L228,1656L228,1668L216,1668L216,1656M432,1656L432,1656L444,1656L444,1668L432,1668L432,1656M480,1656L480,1656L492,1656L492,1668L480,1668L480,1656M504,1656L504,1656L516,1656L516,1668L504,1668L504,1656M1116,1656L1116,1656L1128,1656L1128,1668L1116,1668L1116,1656M1152,1656L1152,1656L1164,1656L1164,1668L1152,1668L1152,1656M1236,1656L1236,1656L1248,1656L1248,1668L1236,1668L1236,1656M1368,1656L1368,1656L1380,1656L1380,1668L1368,1668L1368,1656M1416,1656L1416,1656L1428,1656L1428,1668L1416,1668L1416,1656M144,1668L144,1668L156,1668L156,1680L144,1680L144,1668M324,1668L324,1668L336,1668L336,1680L324,1680L324,1668M372,1668L372,1668L384,1668L384,1680L372,1680L372,1668M600,1680L600,1680L588,1680L588,1692L600,1692L600,1680M48,1680L48,1680L60,1680L60,1692L48,1692L48,1680M276,1680L276,1680L288,1680L288,1692L276,1692L276,1680M456,1680L456,1680L468,1680L468,1692L456,1692L456,1680M1104,1680L1104,1680L1116,1680L1116,1692L1104,1692L1104,1680M1344,1680L1344,1680L1356,1680L1356,1692L1344,1692L1344,1680M72,1692L72,1692L84,1692L84,1704L72,1704L72,1692M72,1704L72,1704L72,1716L60,1716L60,1704L72,1704M96,1692L96,1692L108,1692L108,1716L96,1716L96,1692M216,1692L216,1692L228,1692L228,1704L216,1704L216,1692M228,1704L228,1704L240,1704L240,1716L228,1716L228,1704M396,1692L396,1692L408,1692L408,1704L396,1704L396,1692M540,1692L540,1692L552,1692L552,1704L540,1704L540,1692M600,1704L600,1704L588,1704L588,1716L576,1716L576,1728L564,1728L564,1740L576,1740L576,1728L588,1728L588,1716L600,1716L600,1704M1308,1692L1308,1692L1320,1692L1320,1704L1308,1704L1308,1692M1392,1692L1392,1692L1404,1692L1404,1716L1392,1716L1392,1692M120,1704L120,1704L132,1704L132,1716L120,1716L120,1704M192,1704L192,1704L204,1704L204,1716L192,1716L192,1704M252,1704L252,1704L264,1704L264,1716L252,1716L252,1704M312,1704L312,1704L324,1704L324,1716L312,1716L312,1704M336,1704L336,1704L348,1704L348,1716L336,1716L336,1704M360,1704L360,1704L372,1704L372,1716L360,1716L360,1704M492,1704L492,1704L504,1704L504,1716L492,1716L492,1704M612,1716L612,1716L600,1716L600,1728L612,1728L612,1716M1080,1716L1080,1716L1068,1716L1068,1728L1080,1728L1080,1716M1128,1704L1128,1704L1140,1704L1140,1716L1128,1716L1128,1704M1368,1704L1368,1704L1380,1704L1380,1716L1368,1716L1368,1704M1380,1716L1380,1716L1392,1716L1392,1728L1380,1728L1380,1716M516,1716L516,1716L528,1716L528,1728L516,1728L516,1716M1092,1728L1092,1728L1080,1728L1080,1752L1092,1752L1092,1728M1200,1716L1200,1716L1212,1716L1212,1728L1200,1728L1200,1716M1248,1716L1248,1716L1260,1716L1260,1728L1248,1728L1248,1716M1320,1716L1320,1716L1332,1716L1332,1728L1320,1728L1320,1716M1344,1716L1344,1716L1356,1716L1356,1728L1344,1728L1344,1716M1356,1728L1356,1728L1380,1728L1380,1740L1356,1740L1356,1728M84,1728L84,1728L120,1728L120,1740L84,1740L84,1728M1152,1728L1152,1728L1164,1728L1164,1740L1152,1740L1152,1728M1272,1728L1272,1728L1284,1728L1284,1740L1272,1740L1272,1728M1296,1728L1296,1728L1308,1728L1308,1740L1296,1740L1296,1728M1356,1740L1356,1740L1356,1752L1344,1752L1344,1740L1356,1740M468,1740L468,1740L480,1740L480,1752L468,1752L468,1740M576,1752L576,1752L564,1752L564,1764L552,1764L552,1776L564,1776L564,1764L576,1764L576,1752M600,1752L600,1752L588,1752L588,1764L600,1764L600,1752M1212,1740L1212,1740L1224,1740L1224,1752L1212,1752L1212,1740M1344,1752L1344,1752L1344,1764L1332,1764L1332,1752L1344,1752M192,1764L192,1764L204,1764L204,1776L192,1776L192,1764M372,1776L372,1776L360,1776L360,1788L348,1788L348,1800L360,1800L360,1788L372,1788L372,1776M492,1788L492,1788L480,1788L480,1800L456,1800L456,1812L444,1812L444,1824L456,1824L456,1812L480,1812L480,1800L504,1800L504,1788L492,1788M564,1788L564,1788L552,1788L552,1800L564,1800L564,1788M516,1800L516,1800L504,1800L504,1812L516,1812L516,1800M540,1800L540,1800L528,1800L528,1812L540,1812L540,1800M1248,1800L1248,1800L1236,1800L1236,1812L1224,1812L1224,1824L1236,1824L1236,1812L1248,1812L1248,1800M1500,1788L1500,1788L1512,1788L1512,1824L1560,1824L1560,1884L1500,1884L1500,1788M432,1812L432,1812L420,1812L420,1824L432,1824L432,1812M492,1812L492,1812L480,1812L480,1824L492,1824L492,1812M1356,1812L1356,1812L1368,1812L1368,1824L1356,1824L1356,1812M1368,1824L1368,1824L1380,1824L1380,1836L1368,1836L1368,1824M1404,1812L1404,1812L1416,1812L1416,1824L1404,1824L1404,1812M1404,1824L1404,1824L1404,1836L1392,1836L1392,1824L1404,1824M1380,1836L1380,1836L1392,1836L1392,1884L1380,1884L1380,1836M1428,1824L1428,1824L1488,1824L1488,1884L1428,1884L1428,1848L1476,1848L1476,1836L1428,1836L1428,1824M1524,1836L1524,1836L1512,1836L1512,1872L1548,1872L1548,1836L1524,1836M1572,1824L1572,1824L1632,1824L1632,1884L1572,1884L1572,1848L1620,1848L1620,1836L1572,1836L1572,1824M1452,1860L1452,1860L1440,1860L1440,1872L1476,1872L1476,1860L1452,1860M1596,1860L1596,1860L1584,1860L1584,1872L1620,1872L1620,1860Z" class="road"></path><path d="M0,0L0,0L12,0L12,108L0,108Z" class="parc"></path><path d="M1188,1416L1188,1416L1308,1416L1308,1428L1188,1428Z" class="start"></path><path d="M540,1548L540,1548L612,1548L612,1560L540,1560Z" class="finish"></path></g>
 <rect opacity=".3" fill="url(#grid)" height="100%" width="100%" y="0" x="0"></rect>
</svg>