<svg xmlns:xlink="http://www.w3.org/1999/xlink" xmlns="http://www.w3.org/2000/svg" height="1152" width="948" id="mapSvgView" version="1.1" style="width: 948px; height: 1152px;" viewBox="0 0 948 1152">
 <defs>
 <pattern y="0" x="0" height="24" width="24" patternUnits="userSpaceOnUse" id="grassPattern">
 <rect class="grasscolor" height="24" width="24" y="0" x="0"></rect>
 <rect class="grassspeclecolor" height="1" width="1" x="1" y="5"></rect>
 <rect class="grassspeclecolor" height="1" width="1" x="1" y="5"></rect>
 <rect class="grassspeclecolor" height="1" width="1" x="3" y="5"></rect>
 <rect class="grassspeclecolor" height="1" width="1" x="6" y="7"></rect>
 <rect class="grassspeclecolor" height="1" width="1" x="6" y="17"></rect>
 <rect class="grassspeclecolor" height="1" width="1" x="8" y="21"></rect>
 <rect class="grassspeclecolor" height="1" width="1" x="9" y="2"></rect>
 <rect class="grassspeclecolor" height="1" width="1" x="12" y="4"></rect>
 <rect class="grassspeclecolor" height="1" width="1" x="13" y="15"></rect>
 <rect class="grassspeclecolor" height="1" width="1" x="14" y="4"></rect>
 <rect class="grassspeclecolor" height="1" width="1" x="14" y="19"></rect>
 <rect class="grassspeclecolor" height="1" width="1" x="17" y="7"></rect>
 <rect class="grassspeclecolor" height="1" width="1" x="17" y="12"></rect>
 <rect class="grassspeclecolor" height="1" width="1" x="18" y="23"></rect>
 <rect class="grassspeclecolor" height="1" width="1" x="21" y="16"></rect>
 <rect class="grassspeclecolor" height="1" width="1" x="23" y="12"></rect>
 </pattern>
 <pattern y="0" x="0" height="24" width="24" patternUnits="userSpaceOnUse" id="roadPattern">
 <rect class="roadcolor" height="24" width="24" y="0" x="0"></rect>
 <rect class="roadspeclecolor" height="1" width="1" x="1" y="5"></rect>
 <rect class="roadspeclecolor" height="1" width="1" x="1" y="5"></rect>
 <rect class="roadspeclecolor" height="1" width="1" x="3" y="5"></rect>
 <rect class="roadspeclecolor" height="1" width="1" x="6" y="7"></rect>
 <rect class="roadspeclecolor" height="1" width="1" x="6" y="17"></rect>
 <rect class="roadspeclecolor" height="1" width="1" x="8" y="21"></rect>
 <rect class="roadspeclecolor" height="1" width="1" x="9" y="2"></rect>
 <rect class="roadspeclecolor" height="1" width="1" x="12" y="4"></rect>
 <rect class="roadspeclecolor" height="1" width="1" x="13" y="15"></rect>
 <rect class="roadspeclecolor" height="1" width="1" x="14" y="4"></rect>
 <rect class="roadspeclecolor" height="1" width="1" x="14" y="19"></rect>
 <rect class="roadspeclecolor" height="1" width="1" x="17" y="7"></rect>
 <rect class="roadspeclecolor" height="1" width="1" x="17" y="12"></rect>
 <rect class="roadspeclecolor" height="1" width="1" x="18" y="23"></rect>
 <rect class="roadspeclecolor" height="1" width="1" x="21" y="16"></rect>
 <rect class="roadspeclecolor" height="1" width="1" x="23" y="12"></rect>
 </pattern>
 <pattern y="0" x="0" height="12" width="12" patternUnits="userSpaceOnUse" id="grid">
 <line stroke-width="1" stroke="black" y2="12" x2="12" y1="0" x1="12"></line>
 <line stroke-width="1" stroke="black" y2="12" x2="12" y1="12" x1="0"></line>
 </pattern>
 <pattern y="0" x="0" height="12" width="12" patternUnits="userSpaceOnUse" id="finishPattern">
 <rect fill="black" height="12" width="12" y="0" x="0"></rect>
 <path fill="white" d="M0,0L3,0L3,3L0,3L0,0M6,0L9,0L9,3L6,3L6,0M3,3L6,3L6,6L3,6L3,3M9,3L12,3L12,6L9,6L9,3"></path>
 <path fill="white" d="M0,6L3,6L3,9L0,9L0,6M6,6L9,6L9,9L6,9L6,6M3,9L6,9L6,12L3,12L3,9M9,9L12,9L12,12L9,12L9,9"></path>
 </pattern>
 <pattern y="0" x="0" height="12" width="12" patternUnits="userSpaceOnUse" id="startPattern">
 <rect fill="rgb(100,100,100)" height="12" width="12" y="0" x="0"></rect>
 <rect stroke-width="1" stroke="rgb(200,200,200)" fill="none" height="5" width="5" y="3.5" x="3.5"></rect>
 </pattern>
 <pattern y="0" x="0" height="12" width="12" patternUnits="userSpaceOnUse" id="cp1pattern">
 <rect class="cp1color" height="12" width="12" y="0" x="0"></rect>
 <path fill="black" d="M0,0L3,0L3,3L0,3L0,0M6,0L9,0L9,3L6,3L6,0M3,3L6,3L6,6L3,6L3,3M9,3L12,3L12,6L9,6L9,3"></path>
 <path fill="black" d="M0,6L3,6L3,9L0,9L0,6M6,6L9,6L9,9L6,9L6,6M3,9L6,9L6,12L3,12L3,9M9,9L12,9L12,12L9,12L9,9"></path>
 </pattern>
 <pattern y="0" x="0" height="12" width="12" patternUnits="userSpaceOnUse" id="cp2pattern">
 <rect class="cp2color" height="12" width="12" y="0" x="0"></rect>
 <path fill="white" d="M0,0L3,0L3,3L0,3L0,0M6,0L9,0L9,3L6,3L6,0M3,3L6,3L6,6L3,6L3,3M9,3L12,3L12,6L9,6L9,3"></path>
 <path fill="white" d="M0,6L3,6L3,9L0,9L0,6M6,6L9,6L9,9L6,9L6,6M3,9L6,9L6,12L3,12L3,9M9,9L12,9L12,12L9,12L9,9"></path>
 </pattern>
 <pattern y="0" x="0" height="12" width="12" patternUnits="userSpaceOnUse" id="cp3pattern">
 <rect class="cp3color" height="12" width="12" y="0" x="0"></rect>
 <path fill="black" d="M0,0L3,0L3,3L0,3L0,0M6,0L9,0L9,3L6,3L6,0M3,3L6,3L6,6L3,6L3,3M9,3L12,3L12,6L9,6L9,3"></path>
 <path fill="black" d="M0,6L3,6L3,9L0,9L0,6M6,6L9,6L9,9L6,9L6,6M3,9L6,9L6,12L3,12L3,9M9,9L12,9L12,12L9,12L9,9"></path>
 </pattern>
 <pattern y="0" x="0" height="12" width="12" patternUnits="userSpaceOnUse" id="cp4pattern">
 <rect class="cp4color" height="12" width="12" y="0" x="0"></rect>
 <path fill="white" d="M0,0L3,0L3,3L0,3L0,0M6,0L9,0L9,3L6,3L6,0M3,3L6,3L6,6L3,6L3,3M9,3L12,3L12,6L9,6L9,3"></path>
 <path fill="white" d="M0,6L3,6L3,9L0,9L0,6M6,6L9,6L9,9L6,9L6,6M3,9L6,9L6,12L3,12L3,9M9,9L12,9L12,12L9,12L9,9"></path>
 </pattern>
 <pattern y="0" x="0" height="12" width="12" patternUnits="userSpaceOnUse" id="cp5pattern">
 <rect class="cp5color" height="12" width="12" y="0" x="0"></rect>
 <path fill="black" d="M0,0L3,0L3,3L0,3L0,0M6,0L9,0L9,3L6,3L6,0M3,3L6,3L6,6L3,6L3,3M9,3L12,3L12,6L9,6L9,3"></path>
 <path fill="black" d="M0,6L3,6L3,9L0,9L0,6M6,6L9,6L9,9L6,9L6,6M3,9L6,9L6,12L3,12L3,9M9,9L12,9L12,12L9,12L9,9"></path>
 </pattern>
 <pattern y="0" x="0" height="12" width="12" patternUnits="userSpaceOnUse" id="cp6pattern">
 <rect class="cp6color" height="12" width="12" y="0" x="0"></rect>
 <path fill="white" d="M0,0L3,0L3,3L0,3L0,0M6,0L9,0L9,3L6,3L6,0M3,3L6,3L6,6L3,6L3,3M9,3L12,3L12,6L9,6L9,3"></path>
 <path fill="white" d="M0,6L3,6L3,9L0,9L0,6M6,6L9,6L9,9L6,9L6,6M3,9L6,9L6,12L3,12L3,9M9,9L12,9L12,12L9,12L9,9"></path>
 </pattern>
 <pattern y="0" x="0" height="12" width="12" patternUnits="userSpaceOnUse" id="cp7pattern">
 <rect class="cp7color" height="12" width="12" y="0" x="0"></rect>
 <path fill="black" d="M0,0L3,0L3,3L0,3L0,0M6,0L9,0L9,3L6,3L6,0M3,3L6,3L6,6L3,6L3,3M9,3L12,3L12,6L9,6L9,3"></path>
 <path fill="black" d="M0,6L3,6L3,9L0,9L0,6M6,6L9,6L9,9L6,9L6,6M3,9L6,9L6,12L3,12L3,9M9,9L12,9L12,12L9,12L9,9"></path>
 </pattern>
 <pattern y="0" x="0" height="12" width="12" patternUnits="userSpaceOnUse" id="cp8pattern">
 <rect class="cp8color" height="12" width="12" y="0" x="0"></rect>
 <path fill="white" d="M0,0L3,0L3,3L0,3L0,0M6,0L9,0L9,3L6,3L6,0M3,3L6,3L6,6L3,6L3,3M9,3L12,3L12,6L9,6L9,3"></path>
 <path fill="white" d="M0,6L3,6L3,9L0,9L0,6M6,6L9,6L9,9L6,9L6,6M3,9L6,9L6,12L3,12L3,9M9,9L12,9L12,12L9,12L9,9"></path>
 </pattern>
 <pattern y="0" x="0" height="12" width="12" patternUnits="userSpaceOnUse" id="cp9pattern">
 <rect class="cp9color" height="12" width="12" y="0" x="0"></rect>
 <path fill="black" d="M0,0L3,0L3,3L0,3L0,0M6,0L9,0L9,3L6,3L6,0M3,3L6,3L6,6L3,6L3,3M9,3L12,3L12,6L9,6L9,3"></path>
 <path fill="black" d="M0,6L3,6L3,9L0,9L0,6M6,6L9,6L9,9L6,9L6,6M3,9L6,9L6,12L3,12L3,9M9,9L12,9L12,12L9,12L9,9"></path>
 </pattern>
 </defs>
 <rect height="100%" width="100%" y="0" x="0" class="grass" id="mainfill"></rect>
 <g id="paths"><path d="M468,12L468,12L612,12L612,36L624,36L624,48L636,48L636,72L624,72L624,120L636,120L636,156L648,156L648,252L636,252L636,300L624,300L624,324L612,324L612,348L600,348L600,372L588,372L588,384L576,384L576,396L564,396L564,408L552,408L552,420L540,420L540,432L528,432L528,480L540,480L540,504L552,504L552,516L564,516L564,540L576,540L576,552L588,552L588,588L600,588L600,600L612,600L612,624L624,624L624,648L636,648L636,672L648,672L648,684L660,684L660,708L672,708L672,720L684,720L684,744L696,744L696,756L708,756L708,768L720,768L720,780L744,780L744,768L756,768L756,732L744,732L744,720L732,720L732,696L720,696L720,684L708,684L708,672L696,672L696,660L684,660L684,636L672,636L672,612L660,612L660,600L648,600L648,588L636,588L636,564L624,564L624,552L612,552L612,516L600,516L600,492L588,492L588,468L600,468L600,432L612,432L612,384L624,384L624,372L636,372L636,360L648,360L648,348L660,348L660,336L672,336L672,324L684,324L684,312L708,312L708,300L720,300L720,288L708,288L708,264L684,264L684,216L696,216L696,204L708,204L708,132L720,132L720,108L732,108L732,84L744,84L744,72L780,72L780,60L804,60L804,48L828,48L828,60L864,60L864,72L888,72L888,84L900,84L900,96L912,96L912,108L924,108L924,168L936,168L936,600L864,600L864,588L852,588L852,600L828,600L828,612L804,612L804,624L792,624L792,636L780,636L780,624L768,624L768,612L756,612L756,600L768,600L768,588L780,588L780,576L792,576L792,564L804,564L804,552L816,552L816,540L840,540L840,528L852,528L852,516L864,516L864,504L876,504L876,492L888,492L888,468L876,468L876,480L852,480L852,492L828,492L828,504L816,504L816,516L792,516L792,528L780,528L780,540L768,540L768,552L756,552L756,564L732,564L732,552L720,552L720,540L708,540L708,516L720,516L720,504L732,504L732,492L756,492L756,480L768,480L768,468L792,468L792,456L804,456L804,444L816,444L816,432L828,432L828,420L840,420L840,408L852,408L852,396L864,396L864,372L840,372L840,384L828,384L828,396L816,396L816,408L804,408L804,420L780,420L780,432L768,432L768,444L756,444L756,456L732,456L732,468L720,468L720,480L708,480L708,492L696,492L696,420L708,420L708,408L720,408L720,396L732,396L732,384L756,384L756,372L768,372L768,360L792,360L792,348L804,348L804,336L816,336L816,324L828,324L828,312L840,312L840,300L852,300L852,288L864,288L864,252L876,252L876,144L864,144L864,132L852,132L852,120L840,120L840,108L828,108L828,144L840,144L840,156L852,156L852,264L828,264L828,288L804,288L804,312L780,312L780,324L768,324L768,336L744,336L744,348L732,348L732,360L708,360L708,372L696,372L696,384L684,384L684,396L672,396L672,408L660,408L660,528L672,528L672,540L684,540L684,564L696,564L696,576L708,576L708,600L720,600L720,612L732,612L732,624L744,624L744,636L756,636L756,660L768,660L768,684L780,684L780,696L792,696L792,720L804,720L804,792L792,792L792,804L780,804L780,816L768,816L768,828L744,828L744,840L720,840L720,828L696,828L696,816L684,816L684,804L660,804L660,780L648,780L648,768L636,768L636,756L624,756L624,744L612,744L612,708L600,708L600,696L588,696L588,672L576,672L576,660L564,660L564,624L552,624L552,612L540,612L540,576L528,576L528,564L516,564L516,540L504,540L504,528L492,528L492,504L480,504L480,480L468,480L468,468L456,468L456,444L444,444L444,432L456,432L456,420L480,420L480,408L492,408L492,396L504,396L504,384L516,384L516,372L528,372L528,360L540,360L540,336L552,336L552,324L564,324L564,288L576,288L576,264L588,264L588,144L576,144L576,120L564,120L564,72L480,72L480,84L444,84L444,132L456,132L456,144L516,144L516,156L528,156L528,168L540,168L540,216L528,216L528,228L516,228L516,240L456,240L456,252L444,252L444,288L408,288L408,300L384,300L384,312L372,312L372,324L360,324L360,336L348,336L348,348L336,348L336,372L324,372L324,384L312,384L312,396L300,396L300,408L288,408L288,420L264,420L264,432L252,432L252,444L240,444L240,456L228,456L228,468L204,468L204,480L192,480L192,492L156,492L156,504L144,504L144,528L96,528L96,516L84,516L84,564L72,564L72,552L48,552L48,564L72,564L72,588L84,588L84,600L120,600L120,612L132,612L132,600L144,600L144,564L156,564L156,552L168,552L168,540L192,540L192,528L204,528L204,516L228,516L228,504L240,504L240,492L264,492L264,480L276,480L276,468L300,468L300,456L312,456L312,444L324,444L324,432L336,432L336,420L348,420L348,432L372,432L372,444L384,444L384,456L396,456L396,480L408,480L408,492L420,492L420,504L432,504L432,516L444,516L444,528L456,528L456,552L468,552L468,576L480,576L480,600L492,600L492,624L504,624L504,636L516,636L516,660L444,660L444,636L360,636L360,648L348,648L348,660L336,660L336,672L324,672L324,684L312,684L312,708L300,708L300,792L288,792L288,804L228,804L228,792L216,792L216,780L180,780L180,792L144,792L144,768L120,768L120,780L84,780L84,804L72,804L72,816L96,816L96,840L120,840L120,852L132,852L132,840L144,840L144,828L228,828L228,840L300,840L300,852L348,852L348,756L360,756L360,720L372,720L372,708L384,708L384,696L444,696L444,684L456,684L456,672L516,672L516,660L528,660L528,672L516,672L516,708L504,708L504,768L516,768L516,816L528,816L528,852L540,852L540,864L552,864L552,876L564,876L564,924L552,924L552,936L540,936L540,948L528,948L528,960L504,960L504,972L492,972L492,996L480,996L480,1008L444,1008L444,1020L432,1020L432,1080L456,1080L456,1092L468,1092L468,1080L504,1080L504,1068L516,1068L516,1056L504,1056L504,1032L516,1032L516,1020L528,1020L528,1008L540,1008L540,996L552,996L552,984L564,984L564,960L588,960L588,936L612,936L612,912L636,912L636,900L624,900L624,876L612,876L612,864L600,864L600,852L588,852L588,816L576,816L576,792L564,792L564,744L576,744L576,732L588,732L588,756L600,756L600,768L612,768L612,792L624,792L624,804L636,804L636,816L648,816L648,828L660,828L660,840L672,840L672,852L684,852L684,864L780,864L780,852L792,852L792,840L804,840L804,828L816,828L816,816L828,816L828,792L840,792L840,768L852,768L852,756L840,756L840,732L828,732L828,696L816,696L816,672L804,672L804,660L828,660L828,636L852,636L852,624L864,624L864,612L924,612L924,660L900,660L900,672L888,672L888,684L876,684L876,708L888,708L888,732L900,732L900,792L888,792L888,816L876,816L876,852L864,852L864,864L852,864L852,876L828,876L828,888L816,888L816,900L792,900L792,912L720,912L720,924L684,924L684,936L672,936L672,948L660,948L660,960L648,960L648,972L636,972L636,996L624,996L624,1020L612,1020L612,1032L576,1032L576,1056L564,1056L564,1116L540,1116L540,1128L468,1128L468,1140L408,1140L408,1128L396,1128L396,1116L384,1116L384,1068L396,1068L396,1044L384,1044L384,984L396,984L396,972L408,972L408,960L456,960L456,948L468,948L468,936L480,936L480,924L492,924L492,876L480,876L480,852L468,852L468,816L456,816L456,768L444,768L444,744L432,744L432,756L408,756L408,912L324,912L324,900L240,900L240,912L216,912L216,900L204,900L204,888L156,888L156,900L144,900L144,912L96,912L96,900L84,900L84,888L72,888L72,876L60,876L60,864L48,864L48,852L36,852L36,840L24,840L24,828L12,828L12,780L24,780L24,756L48,756L48,744L72,744L72,732L84,732L84,720L96,720L96,708L168,708L168,732L192,732L192,744L216,744L216,756L228,756L228,744L240,744L240,720L252,720L252,684L264,684L264,648L276,648L276,636L288,636L288,624L300,624L300,612L324,612L324,600L336,600L336,588L396,588L396,576L408,576L408,564L396,564L396,540L384,540L384,528L372,528L372,516L360,516L360,504L324,504L324,516L312,516L312,528L288,528L288,540L276,540L276,552L264,552L264,576L216,576L216,600L204,600L204,624L192,624L192,636L180,636L180,648L168,648L168,660L120,660L120,648L48,648L48,636L24,636L24,612L12,612L12,576L36,576L36,564L24,564L24,504L36,504L36,492L48,492L48,480L60,480L60,468L144,468L144,444L168,444L168,432L180,432L180,420L192,420L192,396L204,396L204,384L192,384L192,372L180,372L180,360L168,360L168,336L144,336L144,312L132,312L132,300L120,300L120,288L108,288L108,276L96,276L96,240L48,240L48,228L36,228L36,216L24,216L24,204L12,204L12,156L24,156L24,84L36,84L36,72L48,72L48,60L60,60L60,48L96,48L96,60L120,60L120,72L192,72L192,84L204,84L204,108L216,108L216,168L228,168L228,180L240,180L240,192L252,192L252,204L264,204L264,228L276,228L276,240L288,240L288,252L300,252L300,264L312,264L312,276L336,276L336,240L312,240L312,216L300,216L300,204L288,204L288,132L300,132L300,120L312,120L312,96L336,96L336,84L348,84L348,72L384,72L384,60L396,60L396,48L408,48L408,36L432,36L432,24L468,24L468,12M96,108L96,108L84,108L84,120L72,120L72,180L84,180L84,192L120,192L120,204L132,204L132,216L144,216L144,228L156,228L156,240L168,240L168,264L180,264L180,276L192,276L192,288L204,288L204,312L216,312L216,336L228,336L228,348L240,348L240,360L264,360L264,348L276,348L276,312L264,312L264,300L252,300L252,276L240,276L240,264L228,264L228,252L216,252L216,240L204,240L204,228L192,228L192,192L180,192L180,180L156,180L156,168L144,168L144,120L132,120L132,108L96,108M804,108L804,108L792,108L792,120L780,120L780,132L768,132L768,144L756,144L756,240L768,240L768,252L780,252L780,240L792,240L792,228L804,228L804,216L792,216L792,180L804,180L804,144L816,144L816,108L804,108M372,132L372,132L360,132L360,144L348,144L348,180L360,180L360,192L372,192L372,204L384,204L384,216L444,216L444,204L480,204L480,180L420,180L420,168L396,168L396,132L372,132M588,312L588,312L576,312L576,324L588,324L588,312M564,372L564,372L552,372L552,384L564,384L564,372M84,480L84,480L72,480L72,492L84,492L84,480M96,492L96,492L84,492L84,504L108,504L108,492L96,492M60,504L60,504L48,504L48,516L60,516L60,528L72,528L72,504L60,504M120,504L120,504L108,504L108,516L120,516L120,504M48,528L48,528L36,528L36,540L48,540L48,528M672,552L672,552L660,552L660,564L672,564L672,552M48,588L48,588L36,588L36,600L48,600L48,588M360,600L360,600L348,600L348,612L360,612L360,600M408,612L408,612L396,612L396,624L408,624L408,612M696,624L696,624L684,624L684,636L696,636L696,624M744,660L744,660L732,660L732,672L744,672L744,660M192,852L192,852L180,852L180,876L204,876L204,864L192,864L192,852M228,864L228,864L216,864L216,876L228,876L228,888L240,888L240,864L228,864M432,1092L432,1092L420,1092L420,1104L432,1104L432,1092M804,1116L804,1116L816,1116L816,1128L828,1128L828,1116L840,1116L840,1140L804,1140L804,1116M852,1116L852,1116L864,1116L864,1128L876,1128L876,1140L852,1140L852,1116M888,1116L888,1116L900,1116L900,1128L912,1128L912,1140L888,1140L888,1116M924,1116L924,1116L936,1116L936,1140L924,1140Z" class="road"></path><path d="M0,0L0,0L12,0L12,144L0,144Z" class="parc"></path><path d="M696,432L696,432L708,432L708,468L696,468L696,432M720,516L720,516L732,516L732,528L720,528L720,516M732,528L732,528L744,528L744,540L732,540L732,528M744,540L744,540L756,540L756,552L744,552L744,540M864,588L864,588L936,588L936,600L864,600Z" class="start"></path><path d="M888,624L888,624L912,624L912,648L900,648L900,636L888,636Z" class="finish"></path></g>
 <rect opacity=".3" fill="url(#grid)" height="100%" width="100%" y="0" x="0"></rect>
</svg>