<svg xmlns:xlink="http://www.w3.org/1999/xlink" xmlns="http://www.w3.org/2000/svg" height="240" width="1032" id="mapSvgView" version="1.1" style="width: 1032px; height: 240px;" viewBox="0 0 1032 240">
 <defs>
 <pattern y="0" x="0" height="24" width="24" patternUnits="userSpaceOnUse" id="grassPattern">
 <rect class="grasscolor" height="24" width="24" y="0" x="0"></rect>
 <rect class="grassspeclecolor" height="1" width="1" x="1" y="5"></rect>
 <rect class="grassspeclecolor" height="1" width="1" x="1" y="5"></rect>
 <rect class="grassspeclecolor" height="1" width="1" x="3" y="5"></rect>
 <rect class="grassspeclecolor" height="1" width="1" x="6" y="7"></rect>
 <rect class="grassspeclecolor" height="1" width="1" x="6" y="17"></rect>
 <rect class="grassspeclecolor" height="1" width="1" x="8" y="21"></rect>
 <rect class="grassspeclecolor" height="1" width="1" x="9" y="2"></rect>
 <rect class="grassspeclecolor" height="1" width="1" x="12" y="4"></rect>
 <rect class="grassspeclecolor" height="1" width="1" x="13" y="15"></rect>
 <rect class="grassspeclecolor" height="1" width="1" x="14" y="4"></rect>
 <rect class="grassspeclecolor" height="1" width="1" x="14" y="19"></rect>
 <rect class="grassspeclecolor" height="1" width="1" x="17" y="7"></rect>
 <rect class="grassspeclecolor" height="1" width="1" x="17" y="12"></rect>
 <rect class="grassspeclecolor" height="1" width="1" x="18" y="23"></rect>
 <rect class="grassspeclecolor" height="1" width="1" x="21" y="16"></rect>
 <rect class="grassspeclecolor" height="1" width="1" x="23" y="12"></rect>
 </pattern>
 <pattern y="0" x="0" height="24" width="24" patternUnits="userSpaceOnUse" id="roadPattern">
 <rect class="roadcolor" height="24" width="24" y="0" x="0"></rect>
 <rect class="roadspeclecolor" height="1" width="1" x="1" y="5"></rect>
 <rect class="roadspeclecolor" height="1" width="1" x="1" y="5"></rect>
 <rect class="roadspeclecolor" height="1" width="1" x="3" y="5"></rect>
 <rect class="roadspeclecolor" height="1" width="1" x="6" y="7"></rect>
 <rect class="roadspeclecolor" height="1" width="1" x="6" y="17"></rect>
 <rect class="roadspeclecolor" height="1" width="1" x="8" y="21"></rect>
 <rect class="roadspeclecolor" height="1" width="1" x="9" y="2"></rect>
 <rect class="roadspeclecolor" height="1" width="1" x="12" y="4"></rect>
 <rect class="roadspeclecolor" height="1" width="1" x="13" y="15"></rect>
 <rect class="roadspeclecolor" height="1" width="1" x="14" y="4"></rect>
 <rect class="roadspeclecolor" height="1" width="1" x="14" y="19"></rect>
 <rect class="roadspeclecolor" height="1" width="1" x="17" y="7"></rect>
 <rect class="roadspeclecolor" height="1" width="1" x="17" y="12"></rect>
 <rect class="roadspeclecolor" height="1" width="1" x="18" y="23"></rect>
 <rect class="roadspeclecolor" height="1" width="1" x="21" y="16"></rect>
 <rect class="roadspeclecolor" height="1" width="1" x="23" y="12"></rect>
 </pattern>
 <pattern y="0" x="0" height="12" width="12" patternUnits="userSpaceOnUse" id="grid">
 <line stroke-width="1" stroke="black" y2="12" x2="12" y1="0" x1="12"></line>
 <line stroke-width="1" stroke="black" y2="12" x2="12" y1="12" x1="0"></line>
 </pattern>
 <pattern y="0" x="0" height="12" width="12" patternUnits="userSpaceOnUse" id="finishPattern">
 <rect fill="black" height="12" width="12" y="0" x="0"></rect>
 <path fill="white" d="M0,0L3,0L3,3L0,3L0,0M6,0L9,0L9,3L6,3L6,0M3,3L6,3L6,6L3,6L3,3M9,3L12,3L12,6L9,6L9,3"></path>
 <path fill="white" d="M0,6L3,6L3,9L0,9L0,6M6,6L9,6L9,9L6,9L6,6M3,9L6,9L6,12L3,12L3,9M9,9L12,9L12,12L9,12L9,9"></path>
 </pattern>
 <pattern y="0" x="0" height="12" width="12" patternUnits="userSpaceOnUse" id="startPattern">
 <rect fill="rgb(100,100,100)" height="12" width="12" y="0" x="0"></rect>
 <rect stroke-width="1" stroke="rgb(200,200,200)" fill="none" height="5" width="5" y="3.5" x="3.5"></rect>
 </pattern>
 <pattern y="0" x="0" height="12" width="12" patternUnits="userSpaceOnUse" id="cp1pattern">
 <rect class="cp1color" height="12" width="12" y="0" x="0"></rect>
 <path fill="black" d="M0,0L3,0L3,3L0,3L0,0M6,0L9,0L9,3L6,3L6,0M3,3L6,3L6,6L3,6L3,3M9,3L12,3L12,6L9,6L9,3"></path>
 <path fill="black" d="M0,6L3,6L3,9L0,9L0,6M6,6L9,6L9,9L6,9L6,6M3,9L6,9L6,12L3,12L3,9M9,9L12,9L12,12L9,12L9,9"></path>
 </pattern>
 <pattern y="0" x="0" height="12" width="12" patternUnits="userSpaceOnUse" id="cp2pattern">
 <rect class="cp2color" height="12" width="12" y="0" x="0"></rect>
 <path fill="white" d="M0,0L3,0L3,3L0,3L0,0M6,0L9,0L9,3L6,3L6,0M3,3L6,3L6,6L3,6L3,3M9,3L12,3L12,6L9,6L9,3"></path>
 <path fill="white" d="M0,6L3,6L3,9L0,9L0,6M6,6L9,6L9,9L6,9L6,6M3,9L6,9L6,12L3,12L3,9M9,9L12,9L12,12L9,12L9,9"></path>
 </pattern>
 <pattern y="0" x="0" height="12" width="12" patternUnits="userSpaceOnUse" id="cp3pattern">
 <rect class="cp3color" height="12" width="12" y="0" x="0"></rect>
 <path fill="black" d="M0,0L3,0L3,3L0,3L0,0M6,0L9,0L9,3L6,3L6,0M3,3L6,3L6,6L3,6L3,3M9,3L12,3L12,6L9,6L9,3"></path>
 <path fill="black" d="M0,6L3,6L3,9L0,9L0,6M6,6L9,6L9,9L6,9L6,6M3,9L6,9L6,12L3,12L3,9M9,9L12,9L12,12L9,12L9,9"></path>
 </pattern>
 <pattern y="0" x="0" height="12" width="12" patternUnits="userSpaceOnUse" id="cp4pattern">
 <rect class="cp4color" height="12" width="12" y="0" x="0"></rect>
 <path fill="white" d="M0,0L3,0L3,3L0,3L0,0M6,0L9,0L9,3L6,3L6,0M3,3L6,3L6,6L3,6L3,3M9,3L12,3L12,6L9,6L9,3"></path>
 <path fill="white" d="M0,6L3,6L3,9L0,9L0,6M6,6L9,6L9,9L6,9L6,6M3,9L6,9L6,12L3,12L3,9M9,9L12,9L12,12L9,12L9,9"></path>
 </pattern>
 <pattern y="0" x="0" height="12" width="12" patternUnits="userSpaceOnUse" id="cp5pattern">
 <rect class="cp5color" height="12" width="12" y="0" x="0"></rect>
 <path fill="black" d="M0,0L3,0L3,3L0,3L0,0M6,0L9,0L9,3L6,3L6,0M3,3L6,3L6,6L3,6L3,3M9,3L12,3L12,6L9,6L9,3"></path>
 <path fill="black" d="M0,6L3,6L3,9L0,9L0,6M6,6L9,6L9,9L6,9L6,6M3,9L6,9L6,12L3,12L3,9M9,9L12,9L12,12L9,12L9,9"></path>
 </pattern>
 <pattern y="0" x="0" height="12" width="12" patternUnits="userSpaceOnUse" id="cp6pattern">
 <rect class="cp6color" height="12" width="12" y="0" x="0"></rect>
 <path fill="white" d="M0,0L3,0L3,3L0,3L0,0M6,0L9,0L9,3L6,3L6,0M3,3L6,3L6,6L3,6L3,3M9,3L12,3L12,6L9,6L9,3"></path>
 <path fill="white" d="M0,6L3,6L3,9L0,9L0,6M6,6L9,6L9,9L6,9L6,6M3,9L6,9L6,12L3,12L3,9M9,9L12,9L12,12L9,12L9,9"></path>
 </pattern>
 <pattern y="0" x="0" height="12" width="12" patternUnits="userSpaceOnUse" id="cp7pattern">
 <rect class="cp7color" height="12" width="12" y="0" x="0"></rect>
 <path fill="black" d="M0,0L3,0L3,3L0,3L0,0M6,0L9,0L9,3L6,3L6,0M3,3L6,3L6,6L3,6L3,3M9,3L12,3L12,6L9,6L9,3"></path>
 <path fill="black" d="M0,6L3,6L3,9L0,9L0,6M6,6L9,6L9,9L6,9L6,6M3,9L6,9L6,12L3,12L3,9M9,9L12,9L12,12L9,12L9,9"></path>
 </pattern>
 <pattern y="0" x="0" height="12" width="12" patternUnits="userSpaceOnUse" id="cp8pattern">
 <rect class="cp8color" height="12" width="12" y="0" x="0"></rect>
 <path fill="white" d="M0,0L3,0L3,3L0,3L0,0M6,0L9,0L9,3L6,3L6,0M3,3L6,3L6,6L3,6L3,3M9,3L12,3L12,6L9,6L9,3"></path>
 <path fill="white" d="M0,6L3,6L3,9L0,9L0,6M6,6L9,6L9,9L6,9L6,6M3,9L6,9L6,12L3,12L3,9M9,9L12,9L12,12L9,12L9,9"></path>
 </pattern>
 <pattern y="0" x="0" height="12" width="12" patternUnits="userSpaceOnUse" id="cp9pattern">
 <rect class="cp9color" height="12" width="12" y="0" x="0"></rect>
 <path fill="black" d="M0,0L3,0L3,3L0,3L0,0M6,0L9,0L9,3L6,3L6,0M3,3L6,3L6,6L3,6L3,3M9,3L12,3L12,6L9,6L9,3"></path>
 <path fill="black" d="M0,6L3,6L3,9L0,9L0,6M6,6L9,6L9,9L6,9L6,6M3,9L6,9L6,12L3,12L3,9M9,9L12,9L12,12L9,12L9,9"></path>
 </pattern>
 </defs>
 <rect height="100%" width="100%" y="0" x="0" class="grass" id="mainfill"></rect>
 <g id="paths"><path d="M204,12L204,12L576,12L576,24L612,24L612,12L972,12L972,24L996,24L996,48L1008,48L1008,108L996,108L996,120L1008,120L1008,156L984,156L984,192L972,192L972,204L960,204L960,216L948,216L948,228L720,228L720,216L708,216L708,204L696,204L696,192L684,192L684,180L672,180L672,132L684,132L684,108L672,108L672,96L636,96L636,108L624,108L624,120L612,120L612,132L624,132L624,144L612,144L612,156L624,156L624,180L612,180L612,192L600,192L600,204L588,204L588,216L576,216L576,228L456,228L456,216L444,216L444,204L432,204L432,168L420,168L420,156L396,156L396,168L384,168L384,204L396,204L396,228L204,228L204,216L168,216L168,204L132,204L132,192L96,192L96,180L72,180L72,168L48,168L48,156L36,156L36,144L24,144L24,96L36,96L36,72L48,72L48,60L72,60L72,48L120,48L120,36L144,36L144,24L204,24L204,12M372,24L372,24L360,24L360,36L264,36L264,48L168,48L168,60L132,60L132,72L108,72L108,84L96,84L96,96L84,96L84,144L120,144L120,156L144,156L144,168L192,168L192,180L228,180L228,192L264,192L264,204L312,204L312,192L300,192L300,180L240,180L240,168L204,168L204,156L180,156L180,144L168,144L168,132L180,132L180,120L168,120L168,108L180,108L180,84L216,84L216,72L276,72L276,60L312,60L312,48L432,48L432,36L504,36L504,24L372,24M684,24L684,24L672,24L672,36L648,36L648,48L468,48L468,60L408,60L408,72L360,72L360,84L276,84L276,96L264,96L264,108L252,108L252,96L240,96L240,108L228,108L228,96L216,96L216,108L204,108L204,96L192,96L192,108L180,108L180,120L192,120L192,108L204,108L204,120L192,120L192,132L204,132L204,120L216,120L216,108L228,108L228,120L216,120L216,132L228,132L228,120L240,120L240,108L252,108L252,120L240,120L240,132L252,132L252,120L264,120L264,108L276,108L276,120L264,120L264,132L276,132L276,144L264,144L264,156L300,156L300,168L336,168L336,180L348,180L348,168L360,168L360,156L372,156L372,144L420,144L420,120L432,120L432,96L420,96L420,108L384,108L384,96L360,96L360,84L396,84L396,96L408,96L408,84L432,84L432,96L444,96L444,120L432,120L432,144L444,144L444,156L456,156L456,180L468,180L468,192L528,192L528,180L540,180L540,156L552,156L552,144L540,144L540,132L552,132L552,120L540,120L540,84L552,84L552,72L768,72L768,84L780,84L780,144L768,144L768,132L756,132L756,144L744,144L744,108L720,108L720,132L708,132L708,144L696,144L696,132L684,132L684,144L696,144L696,156L708,156L708,144L720,144L720,132L732,132L732,144L720,144L720,156L732,156L732,144L744,144L744,156L756,156L756,144L768,144L768,156L792,156L792,168L816,168L816,180L840,180L840,192L852,192L852,180L888,180L888,168L912,168L912,156L924,156L924,120L948,120L948,108L936,108L936,96L924,96L924,72L900,72L900,60L888,60L888,48L876,48L876,36L840,36L840,24L684,24M588,108L588,108L576,108L576,132L588,132L588,120L600,120L600,108L588,108M816,96L816,96L828,96L828,120L816,120L816,96M864,96L864,96L876,96L876,120L864,120L864,96M828,120L828,120L840,120L840,144L828,144L828,120M864,120L864,120L864,144L852,144L852,120L864,120M972,120L972,120L960,120L960,132L972,132L972,120M96,120L96,120L108,120L108,132L96,132L96,120M120,120L120,120L132,120L132,132L120,132L120,120M144,120L144,120L156,120L156,132L144,132L144,120M288,120L288,120L300,120L300,132L288,132L288,120M324,120L324,120L336,120L336,132L324,132L324,120M360,120L360,120L372,120L372,132L360,132L360,120M396,120L396,120L408,120L408,132L396,132L396,120M984,132L984,132L972,132L972,144L984,144L984,132M576,144L576,144L564,144L564,156L576,156L576,144M600,144L600,144L588,144L588,156L600,156L600,144M840,144L840,144L852,144L852,168L840,168L840,144M360,180L360,180L348,180L348,204L360,204L360,180M852,204L852,204L840,204L840,216L852,216Z" class="road"></path><path d="M24,120L24,120L84,120L84,132L24,132L24,120M96,120L96,120L108,120L108,132L96,132L96,120M120,120L120,120L132,120L132,132L120,132L120,120M144,120L144,120L156,120L156,132L144,132L144,120M180,120L180,120L192,120L192,132L180,132L180,120M204,120L204,120L216,120L216,132L204,132L204,120M228,120L228,120L240,120L240,132L228,132L228,120M252,120L252,120L264,120L264,132L252,132L252,120M288,120L288,120L300,120L300,132L288,132L288,120M324,120L324,120L336,120L336,132L324,132L324,120M360,120L360,120L372,120L372,132L360,132L360,120M396,120L396,120L408,120L408,132L396,132L396,120M420,120L420,120L432,120L432,132L420,132Z" class="cp1"></path><path d="M756,12L756,12L768,12L768,24L756,24Z" class="cp2"></path><path d="M0,0L0,0L12,0L12,48L0,48Z" class="parc"></path><path d="M828,180L828,180L840,180L840,228L828,228Z" class="start"></path><path d="M852,180L852,180L864,180L864,192L852,192L852,180M852,204L852,204L864,204L864,216L852,216Z" class="finish"></path></g>
 <rect opacity=".3" fill="url(#grid)" height="100%" width="100%" y="0" x="0"></rect>
</svg>