<svg xmlns:xlink="http://www.w3.org/1999/xlink" xmlns="http://www.w3.org/2000/svg" height="648" width="1224" id="mapSvgView" version="1.1" style="width: 1224px; height: 648px;" viewBox="0 0 1224 648">
 <defs>
 <pattern y="0" x="0" height="24" width="24" patternUnits="userSpaceOnUse" id="grassPattern">
 <rect class="grasscolor" height="24" width="24" y="0" x="0"></rect>
 <rect class="grassspeclecolor" height="1" width="1" x="1" y="5"></rect>
 <rect class="grassspeclecolor" height="1" width="1" x="1" y="5"></rect>
 <rect class="grassspeclecolor" height="1" width="1" x="3" y="5"></rect>
 <rect class="grassspeclecolor" height="1" width="1" x="6" y="7"></rect>
 <rect class="grassspeclecolor" height="1" width="1" x="6" y="17"></rect>
 <rect class="grassspeclecolor" height="1" width="1" x="8" y="21"></rect>
 <rect class="grassspeclecolor" height="1" width="1" x="9" y="2"></rect>
 <rect class="grassspeclecolor" height="1" width="1" x="12" y="4"></rect>
 <rect class="grassspeclecolor" height="1" width="1" x="13" y="15"></rect>
 <rect class="grassspeclecolor" height="1" width="1" x="14" y="4"></rect>
 <rect class="grassspeclecolor" height="1" width="1" x="14" y="19"></rect>
 <rect class="grassspeclecolor" height="1" width="1" x="17" y="7"></rect>
 <rect class="grassspeclecolor" height="1" width="1" x="17" y="12"></rect>
 <rect class="grassspeclecolor" height="1" width="1" x="18" y="23"></rect>
 <rect class="grassspeclecolor" height="1" width="1" x="21" y="16"></rect>
 <rect class="grassspeclecolor" height="1" width="1" x="23" y="12"></rect>
 </pattern>
 <pattern y="0" x="0" height="24" width="24" patternUnits="userSpaceOnUse" id="roadPattern">
 <rect class="roadcolor" height="24" width="24" y="0" x="0"></rect>
 <rect class="roadspeclecolor" height="1" width="1" x="1" y="5"></rect>
 <rect class="roadspeclecolor" height="1" width="1" x="1" y="5"></rect>
 <rect class="roadspeclecolor" height="1" width="1" x="3" y="5"></rect>
 <rect class="roadspeclecolor" height="1" width="1" x="6" y="7"></rect>
 <rect class="roadspeclecolor" height="1" width="1" x="6" y="17"></rect>
 <rect class="roadspeclecolor" height="1" width="1" x="8" y="21"></rect>
 <rect class="roadspeclecolor" height="1" width="1" x="9" y="2"></rect>
 <rect class="roadspeclecolor" height="1" width="1" x="12" y="4"></rect>
 <rect class="roadspeclecolor" height="1" width="1" x="13" y="15"></rect>
 <rect class="roadspeclecolor" height="1" width="1" x="14" y="4"></rect>
 <rect class="roadspeclecolor" height="1" width="1" x="14" y="19"></rect>
 <rect class="roadspeclecolor" height="1" width="1" x="17" y="7"></rect>
 <rect class="roadspeclecolor" height="1" width="1" x="17" y="12"></rect>
 <rect class="roadspeclecolor" height="1" width="1" x="18" y="23"></rect>
 <rect class="roadspeclecolor" height="1" width="1" x="21" y="16"></rect>
 <rect class="roadspeclecolor" height="1" width="1" x="23" y="12"></rect>
 </pattern>
 <pattern y="0" x="0" height="12" width="12" patternUnits="userSpaceOnUse" id="grid">
 <line stroke-width="1" stroke="black" y2="12" x2="12" y1="0" x1="12"></line>
 <line stroke-width="1" stroke="black" y2="12" x2="12" y1="12" x1="0"></line>
 </pattern>
 <pattern y="0" x="0" height="12" width="12" patternUnits="userSpaceOnUse" id="finishPattern">
 <rect fill="black" height="12" width="12" y="0" x="0"></rect>
 <path fill="white" d="M0,0L3,0L3,3L0,3L0,0M6,0L9,0L9,3L6,3L6,0M3,3L6,3L6,6L3,6L3,3M9,3L12,3L12,6L9,6L9,3"></path>
 <path fill="white" d="M0,6L3,6L3,9L0,9L0,6M6,6L9,6L9,9L6,9L6,6M3,9L6,9L6,12L3,12L3,9M9,9L12,9L12,12L9,12L9,9"></path>
 </pattern>
 <pattern y="0" x="0" height="12" width="12" patternUnits="userSpaceOnUse" id="startPattern">
 <rect fill="rgb(100,100,100)" height="12" width="12" y="0" x="0"></rect>
 <rect stroke-width="1" stroke="rgb(200,200,200)" fill="none" height="5" width="5" y="3.5" x="3.5"></rect>
 </pattern>
 <pattern y="0" x="0" height="12" width="12" patternUnits="userSpaceOnUse" id="cp1pattern">
 <rect class="cp1color" height="12" width="12" y="0" x="0"></rect>
 <path fill="black" d="M0,0L3,0L3,3L0,3L0,0M6,0L9,0L9,3L6,3L6,0M3,3L6,3L6,6L3,6L3,3M9,3L12,3L12,6L9,6L9,3"></path>
 <path fill="black" d="M0,6L3,6L3,9L0,9L0,6M6,6L9,6L9,9L6,9L6,6M3,9L6,9L6,12L3,12L3,9M9,9L12,9L12,12L9,12L9,9"></path>
 </pattern>
 <pattern y="0" x="0" height="12" width="12" patternUnits="userSpaceOnUse" id="cp2pattern">
 <rect class="cp2color" height="12" width="12" y="0" x="0"></rect>
 <path fill="white" d="M0,0L3,0L3,3L0,3L0,0M6,0L9,0L9,3L6,3L6,0M3,3L6,3L6,6L3,6L3,3M9,3L12,3L12,6L9,6L9,3"></path>
 <path fill="white" d="M0,6L3,6L3,9L0,9L0,6M6,6L9,6L9,9L6,9L6,6M3,9L6,9L6,12L3,12L3,9M9,9L12,9L12,12L9,12L9,9"></path>
 </pattern>
 <pattern y="0" x="0" height="12" width="12" patternUnits="userSpaceOnUse" id="cp3pattern">
 <rect class="cp3color" height="12" width="12" y="0" x="0"></rect>
 <path fill="black" d="M0,0L3,0L3,3L0,3L0,0M6,0L9,0L9,3L6,3L6,0M3,3L6,3L6,6L3,6L3,3M9,3L12,3L12,6L9,6L9,3"></path>
 <path fill="black" d="M0,6L3,6L3,9L0,9L0,6M6,6L9,6L9,9L6,9L6,6M3,9L6,9L6,12L3,12L3,9M9,9L12,9L12,12L9,12L9,9"></path>
 </pattern>
 <pattern y="0" x="0" height="12" width="12" patternUnits="userSpaceOnUse" id="cp4pattern">
 <rect class="cp4color" height="12" width="12" y="0" x="0"></rect>
 <path fill="white" d="M0,0L3,0L3,3L0,3L0,0M6,0L9,0L9,3L6,3L6,0M3,3L6,3L6,6L3,6L3,3M9,3L12,3L12,6L9,6L9,3"></path>
 <path fill="white" d="M0,6L3,6L3,9L0,9L0,6M6,6L9,6L9,9L6,9L6,6M3,9L6,9L6,12L3,12L3,9M9,9L12,9L12,12L9,12L9,9"></path>
 </pattern>
 <pattern y="0" x="0" height="12" width="12" patternUnits="userSpaceOnUse" id="cp5pattern">
 <rect class="cp5color" height="12" width="12" y="0" x="0"></rect>
 <path fill="black" d="M0,0L3,0L3,3L0,3L0,0M6,0L9,0L9,3L6,3L6,0M3,3L6,3L6,6L3,6L3,3M9,3L12,3L12,6L9,6L9,3"></path>
 <path fill="black" d="M0,6L3,6L3,9L0,9L0,6M6,6L9,6L9,9L6,9L6,6M3,9L6,9L6,12L3,12L3,9M9,9L12,9L12,12L9,12L9,9"></path>
 </pattern>
 <pattern y="0" x="0" height="12" width="12" patternUnits="userSpaceOnUse" id="cp6pattern">
 <rect class="cp6color" height="12" width="12" y="0" x="0"></rect>
 <path fill="white" d="M0,0L3,0L3,3L0,3L0,0M6,0L9,0L9,3L6,3L6,0M3,3L6,3L6,6L3,6L3,3M9,3L12,3L12,6L9,6L9,3"></path>
 <path fill="white" d="M0,6L3,6L3,9L0,9L0,6M6,6L9,6L9,9L6,9L6,6M3,9L6,9L6,12L3,12L3,9M9,9L12,9L12,12L9,12L9,9"></path>
 </pattern>
 <pattern y="0" x="0" height="12" width="12" patternUnits="userSpaceOnUse" id="cp7pattern">
 <rect class="cp7color" height="12" width="12" y="0" x="0"></rect>
 <path fill="black" d="M0,0L3,0L3,3L0,3L0,0M6,0L9,0L9,3L6,3L6,0M3,3L6,3L6,6L3,6L3,3M9,3L12,3L12,6L9,6L9,3"></path>
 <path fill="black" d="M0,6L3,6L3,9L0,9L0,6M6,6L9,6L9,9L6,9L6,6M3,9L6,9L6,12L3,12L3,9M9,9L12,9L12,12L9,12L9,9"></path>
 </pattern>
 <pattern y="0" x="0" height="12" width="12" patternUnits="userSpaceOnUse" id="cp8pattern">
 <rect class="cp8color" height="12" width="12" y="0" x="0"></rect>
 <path fill="white" d="M0,0L3,0L3,3L0,3L0,0M6,0L9,0L9,3L6,3L6,0M3,3L6,3L6,6L3,6L3,3M9,3L12,3L12,6L9,6L9,3"></path>
 <path fill="white" d="M0,6L3,6L3,9L0,9L0,6M6,6L9,6L9,9L6,9L6,6M3,9L6,9L6,12L3,12L3,9M9,9L12,9L12,12L9,12L9,9"></path>
 </pattern>
 <pattern y="0" x="0" height="12" width="12" patternUnits="userSpaceOnUse" id="cp9pattern">
 <rect class="cp9color" height="12" width="12" y="0" x="0"></rect>
 <path fill="black" d="M0,0L3,0L3,3L0,3L0,0M6,0L9,0L9,3L6,3L6,0M3,3L6,3L6,6L3,6L3,3M9,3L12,3L12,6L9,6L9,3"></path>
 <path fill="black" d="M0,6L3,6L3,9L0,9L0,6M6,6L9,6L9,9L6,9L6,6M3,9L6,9L6,12L3,12L3,9M9,9L12,9L12,12L9,12L9,9"></path>
 </pattern>
 </defs>
 <rect height="100%" width="100%" y="0" x="0" class="grass" id="mainfill"></rect>
 <g id="paths"><path d="M24,12L24,12L216,12L216,24L432,24L432,12L900,12L900,24L1020,24L1020,12L1212,12L1212,468L1200,468L1200,492L1212,492L1212,624L828,624L828,612L648,612L648,624L24,624L24,444L36,444L36,432L24,432L24,192L36,192L36,132L24,132L24,72L96,72L96,84L120,84L120,96L144,96L144,108L168,108L168,120L192,120L192,132L216,132L216,144L240,144L240,156L264,156L264,168L288,168L288,180L312,180L312,192L336,192L336,204L360,204L360,216L384,216L384,228L408,228L408,240L432,240L432,252L408,252L408,276L432,276L432,252L456,252L456,264L480,264L480,276L504,276L504,288L528,288L528,300L552,300L552,312L576,312L576,324L588,324L588,336L600,336L600,324L612,324L612,312L636,312L636,300L660,300L660,288L684,288L684,276L708,276L708,264L732,264L732,252L756,252L756,240L780,240L780,228L804,228L804,216L828,216L828,204L852,204L852,192L876,192L876,180L900,180L900,168L924,168L924,156L948,156L948,144L996,144L996,132L1020,132L1020,108L1044,108L1044,96L1068,96L1068,84L1092,84L1092,72L1152,72L1152,108L1128,108L1128,120L1104,120L1104,132L1080,132L1080,144L1056,144L1056,156L996,156L996,168L960,168L960,204L936,204L936,216L912,216L912,228L888,228L888,240L864,240L864,252L840,252L840,264L816,264L816,276L792,276L792,288L768,288L768,300L744,300L744,312L720,312L720,324L696,324L696,336L672,336L672,348L636,348L636,360L552,360L552,348L516,348L516,336L492,336L492,324L468,324L468,312L444,312L444,300L420,300L420,288L396,288L396,276L372,276L372,264L348,264L348,252L324,252L324,240L300,240L300,228L276,228L276,216L252,216L252,204L228,204L228,192L204,192L204,180L180,180L180,168L156,168L156,156L132,156L132,144L108,144L108,132L84,132L84,120L72,120L72,348L48,348L48,384L72,384L72,468L60,468L60,456L48,456L48,444L36,444L36,456L48,456L48,468L60,468L60,480L72,480L72,576L120,576L120,588L180,588L180,576L1080,576L1080,552L1068,552L1068,528L1056,528L1056,504L1068,504L1068,528L1080,528L1080,552L1092,552L1092,540L1104,540L1104,528L1116,528L1116,540L1128,540L1128,552L1092,552L1092,576L1128,576L1128,552L1140,552L1140,528L1152,528L1152,504L1164,504L1164,492L1176,492L1176,468L1164,468L1164,60L648,60L648,48L432,48L432,60L24,60L24,12M696,24L696,24L684,24L684,36L756,36L756,48L828,48L828,36L768,36L768,24L696,24M840,24L840,24L828,24L828,36L852,36L852,24L840,24M1200,180L1200,180L1188,180L1188,192L1200,192L1200,180M264,192L264,192L252,192L252,204L288,204L288,192L264,192M300,204L300,204L288,204L288,216L312,216L312,204L300,204M48,228L48,228L36,228L36,264L48,264L48,276L60,276L60,240L48,240L48,228M816,228L816,228L804,228L804,252L828,252L828,228L816,228M1188,252L1188,252L1176,252L1176,264L1188,264L1188,252M744,264L744,264L732,264L732,276L708,276L708,288L696,288L696,300L720,300L720,288L732,288L732,276L744,276L744,264M1200,324L1200,324L1188,324L1188,336L1200,336L1200,324M1188,372L1188,372L1176,372L1176,384L1188,384L1188,372M192,372L192,372L204,372L204,396L192,396L192,372M240,372L240,372L252,372L252,396L240,396L240,372M276,372L276,372L300,372L300,384L276,384L276,372M276,384L276,384L276,432L264,432L264,384L276,384M300,384L300,384L312,384L312,432L300,432L300,384M324,372L324,372L336,372L336,432L324,432L324,372M360,372L360,372L372,372L372,432L360,432L360,372M396,372L396,372L408,372L408,396L396,396L396,372M432,372L432,372L444,372L444,396L432,396L432,372M480,372L480,372L492,372L492,396L480,396L480,372M504,372L504,372L540,372L540,384L516,384L516,396L528,396L528,408L516,408L516,432L540,432L540,444L504,444L504,372M612,372L612,372L636,372L636,384L612,384L612,372M612,384L612,384L612,432L600,432L600,384L612,384M636,384L636,384L648,384L648,396L636,396L636,384M672,372L672,372L696,372L696,384L672,384L672,372M672,384L672,384L672,432L660,432L660,384L672,384M696,384L696,384L708,384L708,432L696,432L696,384M720,372L720,372L780,372L780,384L756,384L756,444L744,444L744,384L720,384L720,372M816,372L816,372L828,372L828,384L840,384L840,396L828,396L828,444L816,444L816,372M864,372L864,372L876,372L876,444L864,444L864,396L852,396L852,384L864,384L864,372M912,372L912,372L924,372L924,396L912,396L912,372M960,372L960,372L972,372L972,444L960,444L960,372M984,372L984,372L996,372L996,432L1032,432L1032,444L984,444L984,372M204,396L204,396L240,396L240,408L228,408L228,444L216,444L216,408L204,408L204,396M444,396L444,396L456,396L456,420L444,420L444,396M480,396L480,396L480,420L468,420L468,396L480,396M840,396L840,396L852,396L852,408L840,408L840,396M924,396L924,396L936,396L936,420L948,420L948,444L936,444L936,432L900,432L900,444L888,444L888,420L900,420L900,396L912,396L912,420L924,420L924,396M456,420L456,420L468,420L468,444L456,444L456,420M624,408L624,408L648,408L648,432L636,432L636,420L624,420L624,408M1200,420L1200,420L1188,420L1188,432L1200,432L1200,420M276,432L276,432L300,432L300,444L276,444L276,432M336,432L336,432L360,432L360,444L336,444L336,432M612,432L612,432L636,432L636,444L612,444L612,432M672,432L672,432L696,432L696,444L672,444L672,432M1188,504L1188,504L1176,504L1176,528L1200,528L1200,504L1188,504M1164,528L1164,528L1152,528L1152,552L1140,552L1140,576L1164,576L1164,528M228,588L228,588L216,588L216,600L348,600L348,588L228,588M384,600L384,600L372,600L372,612L624,612L624,600Z" class="road"></path><path d="M0,0L0,0L12,0L12,48L0,48Z" class="parc"></path><path d="M24,12L24,12L36,12L36,24L24,24L24,12M36,24L36,24L48,24L48,36L36,36L36,24M36,36L36,36L36,48L24,48L24,36L36,36M36,48L36,48L48,48L48,60L36,60Z" class="start"></path><path d="M1116,72L1116,72L1152,72L1152,108L1140,108L1140,84L1116,84Z" class="finish"></path></g>
 <rect opacity=".3" fill="url(#grid)" height="100%" width="100%" y="0" x="0"></rect>
</svg>