<svg xmlns:xlink="http://www.w3.org/1999/xlink" xmlns="http://www.w3.org/2000/svg" height="540" width="1272" id="mapSvgView" version="1.1" style="width: 1272px; height: 540px;" viewBox="0 0 1272 540">
 <defs>
 <pattern y="0" x="0" height="24" width="24" patternUnits="userSpaceOnUse" id="grassPattern">
 <rect class="grasscolor" height="24" width="24" y="0" x="0"></rect>
 <rect class="grassspeclecolor" height="1" width="1" x="1" y="5"></rect>
 <rect class="grassspeclecolor" height="1" width="1" x="1" y="5"></rect>
 <rect class="grassspeclecolor" height="1" width="1" x="3" y="5"></rect>
 <rect class="grassspeclecolor" height="1" width="1" x="6" y="7"></rect>
 <rect class="grassspeclecolor" height="1" width="1" x="6" y="17"></rect>
 <rect class="grassspeclecolor" height="1" width="1" x="8" y="21"></rect>
 <rect class="grassspeclecolor" height="1" width="1" x="9" y="2"></rect>
 <rect class="grassspeclecolor" height="1" width="1" x="12" y="4"></rect>
 <rect class="grassspeclecolor" height="1" width="1" x="13" y="15"></rect>
 <rect class="grassspeclecolor" height="1" width="1" x="14" y="4"></rect>
 <rect class="grassspeclecolor" height="1" width="1" x="14" y="19"></rect>
 <rect class="grassspeclecolor" height="1" width="1" x="17" y="7"></rect>
 <rect class="grassspeclecolor" height="1" width="1" x="17" y="12"></rect>
 <rect class="grassspeclecolor" height="1" width="1" x="18" y="23"></rect>
 <rect class="grassspeclecolor" height="1" width="1" x="21" y="16"></rect>
 <rect class="grassspeclecolor" height="1" width="1" x="23" y="12"></rect>
 </pattern>
 <pattern y="0" x="0" height="24" width="24" patternUnits="userSpaceOnUse" id="roadPattern">
 <rect class="roadcolor" height="24" width="24" y="0" x="0"></rect>
 <rect class="roadspeclecolor" height="1" width="1" x="1" y="5"></rect>
 <rect class="roadspeclecolor" height="1" width="1" x="1" y="5"></rect>
 <rect class="roadspeclecolor" height="1" width="1" x="3" y="5"></rect>
 <rect class="roadspeclecolor" height="1" width="1" x="6" y="7"></rect>
 <rect class="roadspeclecolor" height="1" width="1" x="6" y="17"></rect>
 <rect class="roadspeclecolor" height="1" width="1" x="8" y="21"></rect>
 <rect class="roadspeclecolor" height="1" width="1" x="9" y="2"></rect>
 <rect class="roadspeclecolor" height="1" width="1" x="12" y="4"></rect>
 <rect class="roadspeclecolor" height="1" width="1" x="13" y="15"></rect>
 <rect class="roadspeclecolor" height="1" width="1" x="14" y="4"></rect>
 <rect class="roadspeclecolor" height="1" width="1" x="14" y="19"></rect>
 <rect class="roadspeclecolor" height="1" width="1" x="17" y="7"></rect>
 <rect class="roadspeclecolor" height="1" width="1" x="17" y="12"></rect>
 <rect class="roadspeclecolor" height="1" width="1" x="18" y="23"></rect>
 <rect class="roadspeclecolor" height="1" width="1" x="21" y="16"></rect>
 <rect class="roadspeclecolor" height="1" width="1" x="23" y="12"></rect>
 </pattern>
 <pattern y="0" x="0" height="12" width="12" patternUnits="userSpaceOnUse" id="grid">
 <line stroke-width="1" stroke="black" y2="12" x2="12" y1="0" x1="12"></line>
 <line stroke-width="1" stroke="black" y2="12" x2="12" y1="12" x1="0"></line>
 </pattern>
 <pattern y="0" x="0" height="12" width="12" patternUnits="userSpaceOnUse" id="finishPattern">
 <rect fill="black" height="12" width="12" y="0" x="0"></rect>
 <path fill="white" d="M0,0L3,0L3,3L0,3L0,0M6,0L9,0L9,3L6,3L6,0M3,3L6,3L6,6L3,6L3,3M9,3L12,3L12,6L9,6L9,3"></path>
 <path fill="white" d="M0,6L3,6L3,9L0,9L0,6M6,6L9,6L9,9L6,9L6,6M3,9L6,9L6,12L3,12L3,9M9,9L12,9L12,12L9,12L9,9"></path>
 </pattern>
 <pattern y="0" x="0" height="12" width="12" patternUnits="userSpaceOnUse" id="startPattern">
 <rect fill="rgb(100,100,100)" height="12" width="12" y="0" x="0"></rect>
 <rect stroke-width="1" stroke="rgb(200,200,200)" fill="none" height="5" width="5" y="3.5" x="3.5"></rect>
 </pattern>
 <pattern y="0" x="0" height="12" width="12" patternUnits="userSpaceOnUse" id="cp1pattern">
 <rect class="cp1color" height="12" width="12" y="0" x="0"></rect>
 <path fill="black" d="M0,0L3,0L3,3L0,3L0,0M6,0L9,0L9,3L6,3L6,0M3,3L6,3L6,6L3,6L3,3M9,3L12,3L12,6L9,6L9,3"></path>
 <path fill="black" d="M0,6L3,6L3,9L0,9L0,6M6,6L9,6L9,9L6,9L6,6M3,9L6,9L6,12L3,12L3,9M9,9L12,9L12,12L9,12L9,9"></path>
 </pattern>
 <pattern y="0" x="0" height="12" width="12" patternUnits="userSpaceOnUse" id="cp2pattern">
 <rect class="cp2color" height="12" width="12" y="0" x="0"></rect>
 <path fill="white" d="M0,0L3,0L3,3L0,3L0,0M6,0L9,0L9,3L6,3L6,0M3,3L6,3L6,6L3,6L3,3M9,3L12,3L12,6L9,6L9,3"></path>
 <path fill="white" d="M0,6L3,6L3,9L0,9L0,6M6,6L9,6L9,9L6,9L6,6M3,9L6,9L6,12L3,12L3,9M9,9L12,9L12,12L9,12L9,9"></path>
 </pattern>
 <pattern y="0" x="0" height="12" width="12" patternUnits="userSpaceOnUse" id="cp3pattern">
 <rect class="cp3color" height="12" width="12" y="0" x="0"></rect>
 <path fill="black" d="M0,0L3,0L3,3L0,3L0,0M6,0L9,0L9,3L6,3L6,0M3,3L6,3L6,6L3,6L3,3M9,3L12,3L12,6L9,6L9,3"></path>
 <path fill="black" d="M0,6L3,6L3,9L0,9L0,6M6,6L9,6L9,9L6,9L6,6M3,9L6,9L6,12L3,12L3,9M9,9L12,9L12,12L9,12L9,9"></path>
 </pattern>
 <pattern y="0" x="0" height="12" width="12" patternUnits="userSpaceOnUse" id="cp4pattern">
 <rect class="cp4color" height="12" width="12" y="0" x="0"></rect>
 <path fill="white" d="M0,0L3,0L3,3L0,3L0,0M6,0L9,0L9,3L6,3L6,0M3,3L6,3L6,6L3,6L3,3M9,3L12,3L12,6L9,6L9,3"></path>
 <path fill="white" d="M0,6L3,6L3,9L0,9L0,6M6,6L9,6L9,9L6,9L6,6M3,9L6,9L6,12L3,12L3,9M9,9L12,9L12,12L9,12L9,9"></path>
 </pattern>
 <pattern y="0" x="0" height="12" width="12" patternUnits="userSpaceOnUse" id="cp5pattern">
 <rect class="cp5color" height="12" width="12" y="0" x="0"></rect>
 <path fill="black" d="M0,0L3,0L3,3L0,3L0,0M6,0L9,0L9,3L6,3L6,0M3,3L6,3L6,6L3,6L3,3M9,3L12,3L12,6L9,6L9,3"></path>
 <path fill="black" d="M0,6L3,6L3,9L0,9L0,6M6,6L9,6L9,9L6,9L6,6M3,9L6,9L6,12L3,12L3,9M9,9L12,9L12,12L9,12L9,9"></path>
 </pattern>
 <pattern y="0" x="0" height="12" width="12" patternUnits="userSpaceOnUse" id="cp6pattern">
 <rect class="cp6color" height="12" width="12" y="0" x="0"></rect>
 <path fill="white" d="M0,0L3,0L3,3L0,3L0,0M6,0L9,0L9,3L6,3L6,0M3,3L6,3L6,6L3,6L3,3M9,3L12,3L12,6L9,6L9,3"></path>
 <path fill="white" d="M0,6L3,6L3,9L0,9L0,6M6,6L9,6L9,9L6,9L6,6M3,9L6,9L6,12L3,12L3,9M9,9L12,9L12,12L9,12L9,9"></path>
 </pattern>
 <pattern y="0" x="0" height="12" width="12" patternUnits="userSpaceOnUse" id="cp7pattern">
 <rect class="cp7color" height="12" width="12" y="0" x="0"></rect>
 <path fill="black" d="M0,0L3,0L3,3L0,3L0,0M6,0L9,0L9,3L6,3L6,0M3,3L6,3L6,6L3,6L3,3M9,3L12,3L12,6L9,6L9,3"></path>
 <path fill="black" d="M0,6L3,6L3,9L0,9L0,6M6,6L9,6L9,9L6,9L6,6M3,9L6,9L6,12L3,12L3,9M9,9L12,9L12,12L9,12L9,9"></path>
 </pattern>
 <pattern y="0" x="0" height="12" width="12" patternUnits="userSpaceOnUse" id="cp8pattern">
 <rect class="cp8color" height="12" width="12" y="0" x="0"></rect>
 <path fill="white" d="M0,0L3,0L3,3L0,3L0,0M6,0L9,0L9,3L6,3L6,0M3,3L6,3L6,6L3,6L3,3M9,3L12,3L12,6L9,6L9,3"></path>
 <path fill="white" d="M0,6L3,6L3,9L0,9L0,6M6,6L9,6L9,9L6,9L6,6M3,9L6,9L6,12L3,12L3,9M9,9L12,9L12,12L9,12L9,9"></path>
 </pattern>
 <pattern y="0" x="0" height="12" width="12" patternUnits="userSpaceOnUse" id="cp9pattern">
 <rect class="cp9color" height="12" width="12" y="0" x="0"></rect>
 <path fill="black" d="M0,0L3,0L3,3L0,3L0,0M6,0L9,0L9,3L6,3L6,0M3,3L6,3L6,6L3,6L3,3M9,3L12,3L12,6L9,6L9,3"></path>
 <path fill="black" d="M0,6L3,6L3,9L0,9L0,6M6,6L9,6L9,9L6,9L6,6M3,9L6,9L6,12L3,12L3,9M9,9L12,9L12,12L9,12L9,9"></path>
 </pattern>
 </defs>
 <rect height="100%" width="100%" y="0" x="0" class="road" id="mainfill"></rect>
 <g id="paths"><path d="M84,12L84,12L216,12L216,24L228,24L228,36L240,36L240,48L252,48L252,60L264,60L264,72L276,72L276,84L288,84L288,96L300,96L300,108L312,108L312,120L324,120L324,132L336,132L336,144L348,144L348,156L360,156L360,168L372,168L372,180L396,180L396,192L420,192L420,204L444,204L444,216L468,216L468,228L504,228L504,240L552,240L552,228L588,228L588,216L612,216L612,204L636,204L636,192L660,192L660,180L684,180L684,168L696,168L696,156L708,156L708,144L720,144L720,132L732,132L732,120L744,120L744,108L756,108L756,96L768,96L768,84L792,84L792,72L816,72L816,60L840,60L840,48L864,48L864,36L888,36L888,24L924,24L924,12L1260,12L1260,96L1128,96L1128,84L1020,84L1020,96L984,96L984,108L960,108L960,120L936,120L936,132L912,132L912,144L888,144L888,156L864,156L864,168L852,168L852,180L840,180L840,192L828,192L828,204L816,204L816,216L804,216L804,228L780,228L780,240L756,240L756,252L732,252L732,264L708,264L708,276L660,276L660,288L612,288L612,300L360,300L360,288L300,288L300,276L264,276L264,264L240,264L240,252L228,252L228,240L216,240L216,228L204,228L204,204L192,204L192,168L180,168L180,132L168,132L168,84L132,84L132,288L120,288L120,324L108,324L108,360L96,360L96,396L84,396L84,420L192,420L192,408L216,408L216,396L252,396L252,384L288,384L288,372L336,372L336,360L396,360L396,348L504,348L504,336L792,336L792,324L888,324L888,312L936,312L936,300L960,300L960,288L984,288L984,276L996,276L996,264L1008,264L1008,252L1020,252L1020,240L1032,240L1032,228L1044,228L1044,216L1056,216L1056,204L1068,204L1068,180L1080,180L1080,168L1092,168L1092,156L1104,156L1104,132L1116,132L1116,120L1128,120L1128,108L1260,108L1260,228L1248,228L1248,240L1236,240L1236,252L1224,252L1224,276L1212,276L1212,288L1200,288L1200,300L1188,300L1188,324L1176,324L1176,336L1164,336L1164,348L1152,348L1152,360L1140,360L1140,372L1128,372L1128,384L1116,384L1116,396L1104,396L1104,408L1080,408L1080,420L1056,420L1056,432L1032,432L1032,444L1008,444L1008,456L972,456L972,468L936,468L936,480L888,480L888,492L840,492L840,504L780,504L780,516L300,516L300,504L84,504L84,492L72,492L72,480L60,480L60,468L48,468L48,456L36,456L36,444L24,444L24,252L36,252L36,240L48,240L48,228L60,228L60,216L48,216L48,204L36,204L36,192L24,192L24,72L36,72L36,60L48,60L48,48L60,48L60,36L72,36L72,24L84,24L84,12M216,84L216,84L204,84L204,96L216,96L216,84M264,96L264,96L252,96L252,108L264,108L264,96M252,144L252,144L240,144L240,156L252,156L252,144M312,156L312,156L300,156L300,168L312,168L312,156M300,204L300,204L288,204L288,216L300,216L300,204M384,216L384,216L372,216L372,228L384,228L384,216M432,228L432,228L420,228L420,240L432,240L432,228M408,252L408,252L396,252L396,264L408,264L408,252M828,348L828,348L816,348L816,360L852,360L852,348L828,348M636,360L636,360L624,360L624,372L660,372L660,360L636,360M924,360L924,360L912,360L912,372L948,372L948,360L924,360M444,372L444,372L432,372L432,384L468,384L468,372L444,372M732,372L732,372L720,372L720,384L756,384L756,372L732,372M540,384L540,384L528,384L528,396L564,396L564,384L540,384M828,396L828,396L816,396L816,408L852,408L852,396L828,396M636,408L636,408L624,408L624,420L660,420L660,408L636,408M924,408L924,408L912,408L912,420L948,420L948,408L924,408M252,420L252,420L240,420L240,432L276,432L276,420L252,420M444,420L444,420L432,420L432,432L468,432L468,420L444,420M732,420L732,420L720,420L720,432L756,432L756,420L732,420M348,432L348,432L336,432L336,444L372,444L372,432L348,432M540,432L540,432L528,432L528,444L564,444L564,432L540,432M828,444L828,444L816,444L816,456L852,456L852,444L828,444M636,456L636,456L624,456L624,468L660,468L660,456L636,456M252,468L252,468L240,468L240,480L276,480L276,468L252,468M444,468L444,468L432,468L432,480L468,480L468,468L444,468M732,468L732,468L720,468L720,480L756,480L756,468L732,468M1200,456L1200,456L1224,456L1224,468L1212,468L1212,480L1224,480L1224,468L1236,468L1236,456L1248,456L1248,468L1236,468L1236,504L1224,504L1224,492L1212,492L1212,504L1224,504L1224,516L1200,516L1200,456M1248,468L1248,468L1260,468L1260,504L1248,504L1248,468M348,480L348,480L336,480L336,492L372,492L372,480L348,480M540,480L540,480L528,480L528,492L564,492L564,480L540,480M1236,504L1236,504L1248,504L1248,516L1236,516Z" class="road"></path><path d="M0,0L0,0L12,0L12,324L0,324Z" class="parc"></path><path d="M12,0L12,0L1272,0L1272,540L0,540L0,324L12,324L12,0M96,12L96,12L84,12L84,24L72,24L72,36L60,36L60,48L48,48L48,60L36,60L36,72L24,72L24,192L36,192L36,204L48,204L48,216L60,216L60,228L48,228L48,240L36,240L36,252L24,252L24,444L36,444L36,456L48,456L48,468L60,468L60,480L72,480L72,492L84,492L84,504L300,504L300,516L780,516L780,504L840,504L840,492L888,492L888,480L936,480L936,468L972,468L972,456L1008,456L1008,444L1032,444L1032,432L1056,432L1056,420L1080,420L1080,408L1104,408L1104,396L1116,396L1116,384L1128,384L1128,372L1140,372L1140,360L1152,360L1152,348L1164,348L1164,336L1176,336L1176,324L1188,324L1188,300L1200,300L1200,288L1212,288L1212,276L1224,276L1224,252L1236,252L1236,240L1248,240L1248,228L1260,228L1260,108L1128,108L1128,120L1116,120L1116,132L1104,132L1104,156L1092,156L1092,168L1080,168L1080,180L1068,180L1068,204L1056,204L1056,216L1044,216L1044,228L1032,228L1032,240L1020,240L1020,252L1008,252L1008,264L996,264L996,276L984,276L984,288L960,288L960,300L936,300L936,312L888,312L888,324L792,324L792,336L504,336L504,348L396,348L396,360L336,360L336,372L288,372L288,384L252,384L252,396L216,396L216,408L192,408L192,420L84,420L84,396L96,396L96,360L108,360L108,324L120,324L120,288L132,288L132,84L168,84L168,132L180,132L180,168L192,168L192,204L204,204L204,228L216,228L216,240L228,240L228,252L240,252L240,264L264,264L264,276L300,276L300,288L360,288L360,300L612,300L612,288L660,288L660,276L708,276L708,264L732,264L732,252L756,252L756,240L780,240L780,228L804,228L804,216L816,216L816,204L828,204L828,192L840,192L840,180L852,180L852,168L864,168L864,156L888,156L888,144L912,144L912,132L936,132L936,120L960,120L960,108L984,108L984,96L1020,96L1020,84L1128,84L1128,96L1260,96L1260,12L924,12L924,24L888,24L888,36L864,36L864,48L840,48L840,60L816,60L816,72L792,72L792,84L768,84L768,96L756,96L756,108L744,108L744,120L732,120L732,132L720,132L720,144L708,144L708,156L696,156L696,168L684,168L684,180L660,180L660,192L636,192L636,204L612,204L612,216L588,216L588,228L552,228L552,240L504,240L504,228L468,228L468,216L444,216L444,204L420,204L420,192L396,192L396,180L372,180L372,168L360,168L360,156L348,156L348,144L336,144L336,132L324,132L324,120L312,120L312,108L300,108L300,96L288,96L288,84L276,84L276,72L264,72L264,60L252,60L252,48L240,48L240,36L228,36L228,24L216,24L216,12L96,12M204,84L204,84L216,84L216,96L204,96L204,84M252,96L252,96L264,96L264,108L252,108L252,96M240,144L240,144L252,144L252,156L240,156L240,144M300,156L300,156L312,156L312,168L300,168L300,156M288,204L288,204L300,204L300,216L288,216L288,204M372,216L372,216L384,216L384,228L372,228L372,216M420,228L420,228L432,228L432,240L420,240L420,228M396,252L396,252L408,252L408,264L396,264L396,252M816,348L816,348L852,348L852,360L816,360L816,348M624,360L624,360L660,360L660,372L624,372L624,360M912,360L912,360L948,360L948,372L912,372L912,360M432,372L432,372L468,372L468,384L432,384L432,372M720,372L720,372L756,372L756,384L720,384L720,372M528,384L528,384L564,384L564,396L528,396L528,384M816,396L816,396L852,396L852,408L816,408L816,396M624,408L624,408L660,408L660,420L624,420L624,408M912,408L912,408L948,408L948,420L912,420L912,408M240,420L240,420L276,420L276,432L240,432L240,420M432,420L432,420L468,420L468,432L432,432L432,420M720,420L720,420L756,420L756,432L720,432L720,420M336,432L336,432L372,432L372,444L336,444L336,432M528,432L528,432L564,432L564,444L528,444L528,432M816,444L816,444L852,444L852,456L816,456L816,444M1212,456L1212,456L1200,456L1200,516L1224,516L1224,504L1212,504L1212,492L1224,492L1224,504L1236,504L1236,468L1224,468L1224,456L1212,456M1248,456L1248,456L1236,456L1236,468L1248,468L1248,456M624,456L624,456L660,456L660,468L624,468L624,456M1224,468L1224,468L1224,480L1212,480L1212,468L1224,468M1260,468L1260,468L1248,468L1248,504L1236,504L1236,516L1248,516L1248,504L1260,504L1260,468M240,468L240,468L276,468L276,480L240,480L240,468M432,468L432,468L468,468L468,480L432,480L432,468M720,468L720,468L756,468L756,480L720,480L720,468M336,480L336,480L372,480L372,492L336,492L336,480M528,480L528,480L564,480L564,492L528,492Z" class="grass"></path><path d="M1176,24L1176,24L1236,24L1236,84L1176,84Z" class="finish"></path><path d="M1152,108L1152,108L1164,108L1164,120L1152,120L1152,108M1164,120L1164,120L1176,120L1176,132L1164,132L1164,120M1188,108L1188,108L1200,108L1200,120L1188,120L1188,108M1200,120L1200,120L1212,120L1212,132L1200,132L1200,120M1224,108L1224,108L1236,108L1236,120L1224,120L1224,108M1236,120L1236,120L1248,120L1248,132L1236,132L1236,120M1176,132L1176,132L1188,132L1188,144L1176,144L1176,132M1212,132L1212,132L1224,132L1224,144L1212,144L1212,132M1248,132L1248,132L1260,132L1260,144L1248,144L1248,132M1188,144L1188,144L1200,144L1200,156L1188,156L1188,144M1224,144L1224,144L1236,144L1236,156L1224,156L1224,144M1152,144L1152,144L1164,144L1164,156L1152,156L1152,144M1164,156L1164,156L1176,156L1176,168L1164,168L1164,156M1200,156L1200,156L1212,156L1212,168L1200,168L1200,156M1236,156L1236,156L1248,156L1248,168L1236,168L1236,156M1176,168L1176,168L1188,168L1188,180L1176,180L1176,168M1212,168L1212,168L1224,168L1224,180L1212,180L1212,168M1248,168L1248,168L1260,168L1260,180L1248,180L1248,168M1188,180L1188,180L1200,180L1200,192L1188,192L1188,180M1224,180L1224,180L1236,180L1236,192L1224,192L1224,180M1152,180L1152,180L1164,180L1164,192L1152,192L1152,180M1164,192L1164,192L1176,192L1176,204L1164,204L1164,192M1200,192L1200,192L1212,192L1212,204L1200,204L1200,192M1236,192L1236,192L1248,192L1248,204L1236,204L1236,192M1176,204L1176,204L1188,204L1188,216L1176,216L1176,204M1212,204L1212,204L1224,204L1224,216L1212,216L1212,204M1248,204L1248,204L1260,204L1260,216L1248,216Z" class="start"></path></g>
 <rect opacity=".3" fill="url(#grid)" height="100%" width="100%" y="0" x="0"></rect>
</svg>