<svg xmlns:xlink="http://www.w3.org/1999/xlink" xmlns="http://www.w3.org/2000/svg" height="936" width="948" id="mapSvgView" version="1.1" style="width: 948px; height: 936px;" viewBox="0 0 948 936">
 <defs>
 <pattern y="0" x="0" height="24" width="24" patternUnits="userSpaceOnUse" id="grassPattern">
 <rect class="grasscolor" height="24" width="24" y="0" x="0"></rect>
 <rect class="grassspeclecolor" height="1" width="1" x="1" y="5"></rect>
 <rect class="grassspeclecolor" height="1" width="1" x="1" y="5"></rect>
 <rect class="grassspeclecolor" height="1" width="1" x="3" y="5"></rect>
 <rect class="grassspeclecolor" height="1" width="1" x="6" y="7"></rect>
 <rect class="grassspeclecolor" height="1" width="1" x="6" y="17"></rect>
 <rect class="grassspeclecolor" height="1" width="1" x="8" y="21"></rect>
 <rect class="grassspeclecolor" height="1" width="1" x="9" y="2"></rect>
 <rect class="grassspeclecolor" height="1" width="1" x="12" y="4"></rect>
 <rect class="grassspeclecolor" height="1" width="1" x="13" y="15"></rect>
 <rect class="grassspeclecolor" height="1" width="1" x="14" y="4"></rect>
 <rect class="grassspeclecolor" height="1" width="1" x="14" y="19"></rect>
 <rect class="grassspeclecolor" height="1" width="1" x="17" y="7"></rect>
 <rect class="grassspeclecolor" height="1" width="1" x="17" y="12"></rect>
 <rect class="grassspeclecolor" height="1" width="1" x="18" y="23"></rect>
 <rect class="grassspeclecolor" height="1" width="1" x="21" y="16"></rect>
 <rect class="grassspeclecolor" height="1" width="1" x="23" y="12"></rect>
 </pattern>
 <pattern y="0" x="0" height="24" width="24" patternUnits="userSpaceOnUse" id="roadPattern">
 <rect class="roadcolor" height="24" width="24" y="0" x="0"></rect>
 <rect class="roadspeclecolor" height="1" width="1" x="1" y="5"></rect>
 <rect class="roadspeclecolor" height="1" width="1" x="1" y="5"></rect>
 <rect class="roadspeclecolor" height="1" width="1" x="3" y="5"></rect>
 <rect class="roadspeclecolor" height="1" width="1" x="6" y="7"></rect>
 <rect class="roadspeclecolor" height="1" width="1" x="6" y="17"></rect>
 <rect class="roadspeclecolor" height="1" width="1" x="8" y="21"></rect>
 <rect class="roadspeclecolor" height="1" width="1" x="9" y="2"></rect>
 <rect class="roadspeclecolor" height="1" width="1" x="12" y="4"></rect>
 <rect class="roadspeclecolor" height="1" width="1" x="13" y="15"></rect>
 <rect class="roadspeclecolor" height="1" width="1" x="14" y="4"></rect>
 <rect class="roadspeclecolor" height="1" width="1" x="14" y="19"></rect>
 <rect class="roadspeclecolor" height="1" width="1" x="17" y="7"></rect>
 <rect class="roadspeclecolor" height="1" width="1" x="17" y="12"></rect>
 <rect class="roadspeclecolor" height="1" width="1" x="18" y="23"></rect>
 <rect class="roadspeclecolor" height="1" width="1" x="21" y="16"></rect>
 <rect class="roadspeclecolor" height="1" width="1" x="23" y="12"></rect>
 </pattern>
 <pattern y="0" x="0" height="12" width="12" patternUnits="userSpaceOnUse" id="grid">
 <line stroke-width="1" stroke="black" y2="12" x2="12" y1="0" x1="12"></line>
 <line stroke-width="1" stroke="black" y2="12" x2="12" y1="12" x1="0"></line>
 </pattern>
 <pattern y="0" x="0" height="12" width="12" patternUnits="userSpaceOnUse" id="finishPattern">
 <rect fill="black" height="12" width="12" y="0" x="0"></rect>
 <path fill="white" d="M0,0L3,0L3,3L0,3L0,0M6,0L9,0L9,3L6,3L6,0M3,3L6,3L6,6L3,6L3,3M9,3L12,3L12,6L9,6L9,3"></path>
 <path fill="white" d="M0,6L3,6L3,9L0,9L0,6M6,6L9,6L9,9L6,9L6,6M3,9L6,9L6,12L3,12L3,9M9,9L12,9L12,12L9,12L9,9"></path>
 </pattern>
 <pattern y="0" x="0" height="12" width="12" patternUnits="userSpaceOnUse" id="startPattern">
 <rect fill="rgb(100,100,100)" height="12" width="12" y="0" x="0"></rect>
 <rect stroke-width="1" stroke="rgb(200,200,200)" fill="none" height="5" width="5" y="3.5" x="3.5"></rect>
 </pattern>
 <pattern y="0" x="0" height="12" width="12" patternUnits="userSpaceOnUse" id="cp1pattern">
 <rect class="cp1color" height="12" width="12" y="0" x="0"></rect>
 <path fill="black" d="M0,0L3,0L3,3L0,3L0,0M6,0L9,0L9,3L6,3L6,0M3,3L6,3L6,6L3,6L3,3M9,3L12,3L12,6L9,6L9,3"></path>
 <path fill="black" d="M0,6L3,6L3,9L0,9L0,6M6,6L9,6L9,9L6,9L6,6M3,9L6,9L6,12L3,12L3,9M9,9L12,9L12,12L9,12L9,9"></path>
 </pattern>
 <pattern y="0" x="0" height="12" width="12" patternUnits="userSpaceOnUse" id="cp2pattern">
 <rect class="cp2color" height="12" width="12" y="0" x="0"></rect>
 <path fill="white" d="M0,0L3,0L3,3L0,3L0,0M6,0L9,0L9,3L6,3L6,0M3,3L6,3L6,6L3,6L3,3M9,3L12,3L12,6L9,6L9,3"></path>
 <path fill="white" d="M0,6L3,6L3,9L0,9L0,6M6,6L9,6L9,9L6,9L6,6M3,9L6,9L6,12L3,12L3,9M9,9L12,9L12,12L9,12L9,9"></path>
 </pattern>
 <pattern y="0" x="0" height="12" width="12" patternUnits="userSpaceOnUse" id="cp3pattern">
 <rect class="cp3color" height="12" width="12" y="0" x="0"></rect>
 <path fill="black" d="M0,0L3,0L3,3L0,3L0,0M6,0L9,0L9,3L6,3L6,0M3,3L6,3L6,6L3,6L3,3M9,3L12,3L12,6L9,6L9,3"></path>
 <path fill="black" d="M0,6L3,6L3,9L0,9L0,6M6,6L9,6L9,9L6,9L6,6M3,9L6,9L6,12L3,12L3,9M9,9L12,9L12,12L9,12L9,9"></path>
 </pattern>
 <pattern y="0" x="0" height="12" width="12" patternUnits="userSpaceOnUse" id="cp4pattern">
 <rect class="cp4color" height="12" width="12" y="0" x="0"></rect>
 <path fill="white" d="M0,0L3,0L3,3L0,3L0,0M6,0L9,0L9,3L6,3L6,0M3,3L6,3L6,6L3,6L3,3M9,3L12,3L12,6L9,6L9,3"></path>
 <path fill="white" d="M0,6L3,6L3,9L0,9L0,6M6,6L9,6L9,9L6,9L6,6M3,9L6,9L6,12L3,12L3,9M9,9L12,9L12,12L9,12L9,9"></path>
 </pattern>
 <pattern y="0" x="0" height="12" width="12" patternUnits="userSpaceOnUse" id="cp5pattern">
 <rect class="cp5color" height="12" width="12" y="0" x="0"></rect>
 <path fill="black" d="M0,0L3,0L3,3L0,3L0,0M6,0L9,0L9,3L6,3L6,0M3,3L6,3L6,6L3,6L3,3M9,3L12,3L12,6L9,6L9,3"></path>
 <path fill="black" d="M0,6L3,6L3,9L0,9L0,6M6,6L9,6L9,9L6,9L6,6M3,9L6,9L6,12L3,12L3,9M9,9L12,9L12,12L9,12L9,9"></path>
 </pattern>
 <pattern y="0" x="0" height="12" width="12" patternUnits="userSpaceOnUse" id="cp6pattern">
 <rect class="cp6color" height="12" width="12" y="0" x="0"></rect>
 <path fill="white" d="M0,0L3,0L3,3L0,3L0,0M6,0L9,0L9,3L6,3L6,0M3,3L6,3L6,6L3,6L3,3M9,3L12,3L12,6L9,6L9,3"></path>
 <path fill="white" d="M0,6L3,6L3,9L0,9L0,6M6,6L9,6L9,9L6,9L6,6M3,9L6,9L6,12L3,12L3,9M9,9L12,9L12,12L9,12L9,9"></path>
 </pattern>
 <pattern y="0" x="0" height="12" width="12" patternUnits="userSpaceOnUse" id="cp7pattern">
 <rect class="cp7color" height="12" width="12" y="0" x="0"></rect>
 <path fill="black" d="M0,0L3,0L3,3L0,3L0,0M6,0L9,0L9,3L6,3L6,0M3,3L6,3L6,6L3,6L3,3M9,3L12,3L12,6L9,6L9,3"></path>
 <path fill="black" d="M0,6L3,6L3,9L0,9L0,6M6,6L9,6L9,9L6,9L6,6M3,9L6,9L6,12L3,12L3,9M9,9L12,9L12,12L9,12L9,9"></path>
 </pattern>
 <pattern y="0" x="0" height="12" width="12" patternUnits="userSpaceOnUse" id="cp8pattern">
 <rect class="cp8color" height="12" width="12" y="0" x="0"></rect>
 <path fill="white" d="M0,0L3,0L3,3L0,3L0,0M6,0L9,0L9,3L6,3L6,0M3,3L6,3L6,6L3,6L3,3M9,3L12,3L12,6L9,6L9,3"></path>
 <path fill="white" d="M0,6L3,6L3,9L0,9L0,6M6,6L9,6L9,9L6,9L6,6M3,9L6,9L6,12L3,12L3,9M9,9L12,9L12,12L9,12L9,9"></path>
 </pattern>
 <pattern y="0" x="0" height="12" width="12" patternUnits="userSpaceOnUse" id="cp9pattern">
 <rect class="cp9color" height="12" width="12" y="0" x="0"></rect>
 <path fill="black" d="M0,0L3,0L3,3L0,3L0,0M6,0L9,0L9,3L6,3L6,0M3,3L6,3L6,6L3,6L3,3M9,3L12,3L12,6L9,6L9,3"></path>
 <path fill="black" d="M0,6L3,6L3,9L0,9L0,6M6,6L9,6L9,9L6,9L6,6M3,9L6,9L6,12L3,12L3,9M9,9L12,9L12,12L9,12L9,9"></path>
 </pattern>
 </defs>
 <rect height="100%" width="100%" y="0" x="0" class="grass" id="mainfill"></rect>
 <g id="paths"><path d="M408,12L408,12L456,12L456,24L468,24L468,36L480,36L480,24L492,24L492,12L540,12L540,24L576,24L576,36L612,36L612,48L648,48L648,60L672,60L672,72L708,72L708,84L744,84L744,96L780,96L780,120L792,120L792,132L804,132L804,144L888,144L888,156L900,156L900,180L912,180L912,204L924,204L924,216L936,216L936,240L924,240L924,252L912,252L912,264L900,264L900,276L888,276L888,288L876,288L876,396L888,396L888,504L900,504L900,528L888,528L888,552L876,552L876,576L864,576L864,600L852,600L852,624L840,624L840,744L780,744L780,792L768,792L768,804L744,804L744,816L720,816L720,828L696,828L696,840L672,840L672,852L660,852L660,900L576,900L576,912L564,912L564,924L384,924L384,912L372,912L372,900L288,900L288,852L276,852L276,840L252,840L252,828L228,828L228,816L204,816L204,804L180,804L180,792L168,792L168,744L108,744L108,624L96,624L96,600L84,600L84,576L72,576L72,552L60,552L60,528L48,528L48,504L60,504L60,396L72,396L72,288L60,288L60,276L48,276L48,264L36,264L36,252L24,252L24,240L12,240L12,216L24,216L24,204L36,204L36,180L48,180L48,156L60,156L60,144L144,144L144,132L156,132L156,120L168,120L168,96L204,96L204,84L240,84L240,72L276,72L276,60L300,60L300,48L336,48L336,36L372,36L372,24L408,24L408,12M432,48L432,48L420,48L420,60L384,60L384,72L348,72L348,84L312,84L312,96L288,96L288,108L252,108L252,120L216,120L216,132L192,132L192,156L180,156L180,168L156,168L156,180L84,180L84,192L72,192L72,216L60,216L60,240L72,240L72,252L84,252L84,264L96,264L96,276L108,276L108,408L96,408L96,504L84,504L84,528L96,528L96,540L108,540L108,564L120,564L120,588L132,588L132,612L144,612L144,708L192,708L192,720L204,720L204,756L216,756L216,768L240,768L240,780L264,780L264,792L288,792L288,804L300,804L300,744L324,744L324,864L384,864L384,840L372,840L372,828L360,828L360,816L348,816L348,756L360,756L360,696L372,696L372,660L360,660L360,612L348,612L348,528L336,528L336,456L348,456L348,408L360,408L360,348L372,348L372,300L396,300L396,360L384,360L384,420L372,420L372,468L360,468L360,504L372,504L372,516L384,516L384,528L456,528L456,504L444,504L444,516L420,516L420,480L408,480L408,444L420,444L420,432L444,432L444,420L504,420L504,432L528,432L528,444L540,444L540,480L528,480L528,516L504,516L504,504L492,504L492,528L564,528L564,516L576,516L576,504L588,504L588,468L576,468L576,420L564,420L564,360L552,360L552,300L576,300L576,348L588,348L588,408L600,408L600,456L612,456L612,528L600,528L600,612L588,612L588,660L576,660L576,696L588,696L588,756L600,756L600,816L588,816L588,828L576,828L576,840L564,840L564,864L624,864L624,744L648,744L648,804L660,804L660,792L684,792L684,780L708,780L708,768L732,768L732,756L744,756L744,720L756,720L756,708L804,708L804,612L816,612L816,588L828,588L828,564L840,564L840,540L852,540L852,528L864,528L864,504L852,504L852,408L840,408L840,276L852,276L852,264L864,264L864,252L876,252L876,240L888,240L888,216L876,216L876,192L864,192L864,180L792,180L792,168L768,168L768,156L756,156L756,132L732,132L732,120L696,120L696,108L660,108L660,96L636,96L636,84L600,84L600,72L564,72L564,60L528,60L528,48L504,48L504,60L492,60L492,180L516,180L516,192L540,192L540,204L576,204L576,192L588,192L588,180L624,180L624,204L600,204L600,216L588,216L588,228L576,228L576,288L564,288L564,264L552,264L552,240L540,240L540,228L528,228L528,216L516,216L516,204L432,204L432,216L420,216L420,228L408,228L408,240L396,240L396,264L384,264L384,288L372,288L372,228L360,228L360,216L348,216L348,204L324,204L324,180L360,180L360,192L372,192L372,204L408,204L408,192L432,192L432,180L456,180L456,60L444,60L444,48L432,48M384,552L384,552L372,552L372,588L384,588L384,612L396,612L396,576L408,576L408,552L384,552M432,552L432,552L420,552L420,588L432,588L432,552M456,552L456,552L444,552L444,576L456,576L456,552M480,552L480,552L468,552L468,576L480,576L480,552M504,552L504,552L492,552L492,576L504,576L504,552M528,552L528,552L516,552L516,588L528,588L528,552M552,552L552,552L540,552L540,576L552,576L552,612L564,612L564,588L576,588L576,552L552,552M444,624L444,624L432,624L432,636L420,636L420,648L432,648L432,672L444,672L444,684L432,684L432,720L420,720L420,756L528,756L528,720L516,720L516,684L504,684L504,672L516,672L516,648L528,648L528,636L516,636L516,624L504,624L504,636L492,636L492,648L456,648L456,636L444,636L444,624M408,792L408,792L396,792L396,840L420,840L420,804L408,804L408,792M552,792L552,792L540,792L540,804L528,804L528,840L552,840L552,792M444,816L444,816L432,816L432,840L456,840L456,816L444,816M480,816L480,816L468,816L468,840L480,840L480,816M504,816L504,816L492,816L492,840L516,840L516,816L504,816M420,864L420,864L408,864L408,888L540,888L540,864L420,864M804,864L804,864L840,864L840,876L816,876L816,888L828,888L828,900L816,900L816,912L840,912L840,924L804,924L804,864M852,864L852,864L876,864L876,876L864,876L864,888L876,888L876,876L888,876L888,888L876,888L876,900L864,900L864,912L876,912L876,900L888,900L888,912L876,912L876,924L852,924L852,864M900,864L900,864L912,864L912,888L924,888L924,864L936,864L936,924L924,924L924,900L900,900Z" class="road"></path><path d="M324,180L324,180L336,180L336,204L324,204L324,180M612,180L612,180L624,180L624,204L612,204L612,180M372,276L372,276L384,276L384,288L372,288L372,276M564,276L564,276L576,276L576,288L564,288Z" class="start"></path><path d="M420,504L420,504L444,504L444,516L420,516L420,504M504,504L504,504L528,504L528,516L504,516L504,504M804,864L804,864L840,864L840,876L816,876L816,888L828,888L828,900L816,900L816,912L840,912L840,924L804,924L804,864M852,864L852,864L876,864L876,876L864,876L864,888L876,888L876,876L888,876L888,888L876,888L876,900L864,900L864,912L876,912L876,900L888,900L888,912L876,912L876,924L852,924L852,864M900,864L900,864L912,864L912,888L924,888L924,864L936,864L936,924L924,924L924,900L900,900Z" class="finish"></path></g>
 <rect opacity=".3" fill="url(#grid)" height="100%" width="100%" y="0" x="0"></rect>
</svg>