<svg xmlns="http://www.w3.org/2000/svg" xmlns:xlink="http://www.w3.org/1999/xlink" version="1.1" id="mapSvgView" width="1020" height="252"> <rect id="mainfill" class="grass" x="0" y="0" width="100%" height="100%"></rect> <g id="paths"><path d="M60,12L60,12L120,12L120,24L60,24Z" class="start"></path><path d="M204,12L204,12L336,12L336,24L348,24L348,36L360,36L360,192L372,192L372,204L384,204L384,216L396,216L396,204L408,204L408,192L420,192L420,24L444,24L444,12L576,12L576,24L588,24L588,36L600,36L600,192L612,192L612,204L624,204L624,228L636,228L636,204L648,204L648,192L660,192L660,12L840,12L840,192L852,192L852,204L864,204L864,228L876,228L876,204L888,204L888,192L900,192L900,24L960,24L960,192L948,192L948,204L936,204L936,228L888,228L888,240L816,240L816,228L792,228L792,192L780,192L780,24L720,24L720,192L708,192L708,204L696,204L696,228L684,228L684,240L576,240L576,228L564,228L564,204L552,204L552,192L540,192L540,48L528,48L528,36L492,36L492,48L480,48L480,192L468,192L468,204L456,204L456,228L444,228L444,240L336,240L336,228L324,228L324,204L312,204L312,192L300,192L300,36L240,36L240,192L228,192L228,204L216,204L216,228L204,228L204,240L108,240L108,228L84,228L84,204L72,204L72,192L60,192L60,24L120,24L120,192L132,192L132,204L168,204L168,192L180,192L180,36L192,36L192,24L204,24Z" class="road"></path><path d="M900,12L900,12L960,12L960,24L900,24Z" class="finish"></path></g></svg>