<svg xmlns:xlink="http://www.w3.org/1999/xlink" xmlns="http://www.w3.org/2000/svg" height="804" width="864" id="mapSvgView" version="1.1" style="width: 864px; height: 804px;" viewBox="0 0 864 804">
 <defs>
 <pattern y="0" x="0" height="24" width="24" patternUnits="userSpaceOnUse" id="grassPattern">
 <rect class="grasscolor" height="24" width="24" y="0" x="0"></rect>
 <rect class="grassspeclecolor" height="1" width="1" x="1" y="5"></rect>
 <rect class="grassspeclecolor" height="1" width="1" x="1" y="5"></rect>
 <rect class="grassspeclecolor" height="1" width="1" x="3" y="5"></rect>
 <rect class="grassspeclecolor" height="1" width="1" x="6" y="7"></rect>
 <rect class="grassspeclecolor" height="1" width="1" x="6" y="17"></rect>
 <rect class="grassspeclecolor" height="1" width="1" x="8" y="21"></rect>
 <rect class="grassspeclecolor" height="1" width="1" x="9" y="2"></rect>
 <rect class="grassspeclecolor" height="1" width="1" x="12" y="4"></rect>
 <rect class="grassspeclecolor" height="1" width="1" x="13" y="15"></rect>
 <rect class="grassspeclecolor" height="1" width="1" x="14" y="4"></rect>
 <rect class="grassspeclecolor" height="1" width="1" x="14" y="19"></rect>
 <rect class="grassspeclecolor" height="1" width="1" x="17" y="7"></rect>
 <rect class="grassspeclecolor" height="1" width="1" x="17" y="12"></rect>
 <rect class="grassspeclecolor" height="1" width="1" x="18" y="23"></rect>
 <rect class="grassspeclecolor" height="1" width="1" x="21" y="16"></rect>
 <rect class="grassspeclecolor" height="1" width="1" x="23" y="12"></rect>
 </pattern>
 <pattern y="0" x="0" height="24" width="24" patternUnits="userSpaceOnUse" id="roadPattern">
 <rect class="roadcolor" height="24" width="24" y="0" x="0"></rect>
 <rect class="roadspeclecolor" height="1" width="1" x="1" y="5"></rect>
 <rect class="roadspeclecolor" height="1" width="1" x="1" y="5"></rect>
 <rect class="roadspeclecolor" height="1" width="1" x="3" y="5"></rect>
 <rect class="roadspeclecolor" height="1" width="1" x="6" y="7"></rect>
 <rect class="roadspeclecolor" height="1" width="1" x="6" y="17"></rect>
 <rect class="roadspeclecolor" height="1" width="1" x="8" y="21"></rect>
 <rect class="roadspeclecolor" height="1" width="1" x="9" y="2"></rect>
 <rect class="roadspeclecolor" height="1" width="1" x="12" y="4"></rect>
 <rect class="roadspeclecolor" height="1" width="1" x="13" y="15"></rect>
 <rect class="roadspeclecolor" height="1" width="1" x="14" y="4"></rect>
 <rect class="roadspeclecolor" height="1" width="1" x="14" y="19"></rect>
 <rect class="roadspeclecolor" height="1" width="1" x="17" y="7"></rect>
 <rect class="roadspeclecolor" height="1" width="1" x="17" y="12"></rect>
 <rect class="roadspeclecolor" height="1" width="1" x="18" y="23"></rect>
 <rect class="roadspeclecolor" height="1" width="1" x="21" y="16"></rect>
 <rect class="roadspeclecolor" height="1" width="1" x="23" y="12"></rect>
 </pattern>
 <pattern y="0" x="0" height="12" width="12" patternUnits="userSpaceOnUse" id="grid">
 <line stroke-width="1" stroke="black" y2="12" x2="12" y1="0" x1="12"></line>
 <line stroke-width="1" stroke="black" y2="12" x2="12" y1="12" x1="0"></line>
 </pattern>
 <pattern y="0" x="0" height="12" width="12" patternUnits="userSpaceOnUse" id="finishPattern">
 <rect fill="black" height="12" width="12" y="0" x="0"></rect>
 <path fill="white" d="M0,0L3,0L3,3L0,3L0,0M6,0L9,0L9,3L6,3L6,0M3,3L6,3L6,6L3,6L3,3M9,3L12,3L12,6L9,6L9,3"></path>
 <path fill="white" d="M0,6L3,6L3,9L0,9L0,6M6,6L9,6L9,9L6,9L6,6M3,9L6,9L6,12L3,12L3,9M9,9L12,9L12,12L9,12L9,9"></path>
 </pattern>
 <pattern y="0" x="0" height="12" width="12" patternUnits="userSpaceOnUse" id="startPattern">
 <rect fill="rgb(100,100,100)" height="12" width="12" y="0" x="0"></rect>
 <rect stroke-width="1" stroke="rgb(200,200,200)" fill="none" height="5" width="5" y="3.5" x="3.5"></rect>
 </pattern>
 <pattern y="0" x="0" height="12" width="12" patternUnits="userSpaceOnUse" id="cp1pattern">
 <rect class="cp1color" height="12" width="12" y="0" x="0"></rect>
 <path fill="black" d="M0,0L3,0L3,3L0,3L0,0M6,0L9,0L9,3L6,3L6,0M3,3L6,3L6,6L3,6L3,3M9,3L12,3L12,6L9,6L9,3"></path>
 <path fill="black" d="M0,6L3,6L3,9L0,9L0,6M6,6L9,6L9,9L6,9L6,6M3,9L6,9L6,12L3,12L3,9M9,9L12,9L12,12L9,12L9,9"></path>
 </pattern>
 <pattern y="0" x="0" height="12" width="12" patternUnits="userSpaceOnUse" id="cp2pattern">
 <rect class="cp2color" height="12" width="12" y="0" x="0"></rect>
 <path fill="white" d="M0,0L3,0L3,3L0,3L0,0M6,0L9,0L9,3L6,3L6,0M3,3L6,3L6,6L3,6L3,3M9,3L12,3L12,6L9,6L9,3"></path>
 <path fill="white" d="M0,6L3,6L3,9L0,9L0,6M6,6L9,6L9,9L6,9L6,6M3,9L6,9L6,12L3,12L3,9M9,9L12,9L12,12L9,12L9,9"></path>
 </pattern>
 <pattern y="0" x="0" height="12" width="12" patternUnits="userSpaceOnUse" id="cp3pattern">
 <rect class="cp3color" height="12" width="12" y="0" x="0"></rect>
 <path fill="black" d="M0,0L3,0L3,3L0,3L0,0M6,0L9,0L9,3L6,3L6,0M3,3L6,3L6,6L3,6L3,3M9,3L12,3L12,6L9,6L9,3"></path>
 <path fill="black" d="M0,6L3,6L3,9L0,9L0,6M6,6L9,6L9,9L6,9L6,6M3,9L6,9L6,12L3,12L3,9M9,9L12,9L12,12L9,12L9,9"></path>
 </pattern>
 <pattern y="0" x="0" height="12" width="12" patternUnits="userSpaceOnUse" id="cp4pattern">
 <rect class="cp4color" height="12" width="12" y="0" x="0"></rect>
 <path fill="white" d="M0,0L3,0L3,3L0,3L0,0M6,0L9,0L9,3L6,3L6,0M3,3L6,3L6,6L3,6L3,3M9,3L12,3L12,6L9,6L9,3"></path>
 <path fill="white" d="M0,6L3,6L3,9L0,9L0,6M6,6L9,6L9,9L6,9L6,6M3,9L6,9L6,12L3,12L3,9M9,9L12,9L12,12L9,12L9,9"></path>
 </pattern>
 <pattern y="0" x="0" height="12" width="12" patternUnits="userSpaceOnUse" id="cp5pattern">
 <rect class="cp5color" height="12" width="12" y="0" x="0"></rect>
 <path fill="black" d="M0,0L3,0L3,3L0,3L0,0M6,0L9,0L9,3L6,3L6,0M3,3L6,3L6,6L3,6L3,3M9,3L12,3L12,6L9,6L9,3"></path>
 <path fill="black" d="M0,6L3,6L3,9L0,9L0,6M6,6L9,6L9,9L6,9L6,6M3,9L6,9L6,12L3,12L3,9M9,9L12,9L12,12L9,12L9,9"></path>
 </pattern>
 <pattern y="0" x="0" height="12" width="12" patternUnits="userSpaceOnUse" id="cp6pattern">
 <rect class="cp6color" height="12" width="12" y="0" x="0"></rect>
 <path fill="white" d="M0,0L3,0L3,3L0,3L0,0M6,0L9,0L9,3L6,3L6,0M3,3L6,3L6,6L3,6L3,3M9,3L12,3L12,6L9,6L9,3"></path>
 <path fill="white" d="M0,6L3,6L3,9L0,9L0,6M6,6L9,6L9,9L6,9L6,6M3,9L6,9L6,12L3,12L3,9M9,9L12,9L12,12L9,12L9,9"></path>
 </pattern>
 <pattern y="0" x="0" height="12" width="12" patternUnits="userSpaceOnUse" id="cp7pattern">
 <rect class="cp7color" height="12" width="12" y="0" x="0"></rect>
 <path fill="black" d="M0,0L3,0L3,3L0,3L0,0M6,0L9,0L9,3L6,3L6,0M3,3L6,3L6,6L3,6L3,3M9,3L12,3L12,6L9,6L9,3"></path>
 <path fill="black" d="M0,6L3,6L3,9L0,9L0,6M6,6L9,6L9,9L6,9L6,6M3,9L6,9L6,12L3,12L3,9M9,9L12,9L12,12L9,12L9,9"></path>
 </pattern>
 <pattern y="0" x="0" height="12" width="12" patternUnits="userSpaceOnUse" id="cp8pattern">
 <rect class="cp8color" height="12" width="12" y="0" x="0"></rect>
 <path fill="white" d="M0,0L3,0L3,3L0,3L0,0M6,0L9,0L9,3L6,3L6,0M3,3L6,3L6,6L3,6L3,3M9,3L12,3L12,6L9,6L9,3"></path>
 <path fill="white" d="M0,6L3,6L3,9L0,9L0,6M6,6L9,6L9,9L6,9L6,6M3,9L6,9L6,12L3,12L3,9M9,9L12,9L12,12L9,12L9,9"></path>
 </pattern>
 <pattern y="0" x="0" height="12" width="12" patternUnits="userSpaceOnUse" id="cp9pattern">
 <rect class="cp9color" height="12" width="12" y="0" x="0"></rect>
 <path fill="black" d="M0,0L3,0L3,3L0,3L0,0M6,0L9,0L9,3L6,3L6,0M3,3L6,3L6,6L3,6L3,3M9,3L12,3L12,6L9,6L9,3"></path>
 <path fill="black" d="M0,6L3,6L3,9L0,9L0,6M6,6L9,6L9,9L6,9L6,6M3,9L6,9L6,12L3,12L3,9M9,9L12,9L12,12L9,12L9,9"></path>
 </pattern>
 </defs>
 <rect height="100%" width="100%" y="0" x="0" class="grass" id="mainfill"></rect>
 <g id="paths"><path d="M624,12L624,12L696,12L696,24L732,24L732,36L756,36L756,48L768,48L768,60L792,60L792,84L804,84L804,96L816,96L816,132L828,132L828,180L840,180L840,240L828,240L828,276L816,276L816,288L804,288L804,300L780,300L780,312L756,312L756,324L744,324L744,336L720,336L720,348L708,348L708,360L696,360L696,372L684,372L684,408L696,408L696,432L720,432L720,444L732,444L732,456L744,456L744,468L756,468L756,480L768,480L768,492L792,492L792,504L804,504L804,516L816,516L816,528L828,528L828,576L840,576L840,624L852,624L852,696L840,696L840,720L828,720L828,732L816,732L816,744L792,744L792,756L744,756L744,768L708,768L708,780L648,780L648,768L624,768L624,756L612,756L612,744L600,744L600,720L588,720L588,708L576,708L576,684L564,684L564,660L552,660L552,600L540,600L540,564L528,564L528,492L516,492L516,456L504,456L504,420L492,420L492,408L480,408L480,396L468,396L468,384L456,384L456,372L444,372L444,360L432,360L432,348L396,348L396,336L324,336L324,348L312,348L312,396L324,396L324,420L336,420L336,432L348,432L348,444L360,444L360,456L372,456L372,480L384,480L384,492L396,492L396,516L408,516L408,552L420,552L420,612L432,612L432,708L420,708L420,732L408,732L408,756L396,756L396,768L384,768L384,780L324,780L324,792L120,792L120,780L84,780L84,768L60,768L60,744L48,744L48,732L36,732L36,708L24,708L24,684L12,684L12,660L24,660L24,600L12,600L12,468L24,468L24,420L12,420L12,324L24,324L24,300L12,300L12,216L24,216L24,192L36,192L36,180L48,180L48,168L60,168L60,156L72,156L72,144L84,144L84,132L96,132L96,120L120,120L120,108L132,108L132,96L144,96L144,84L168,84L168,72L192,72L192,60L228,60L228,48L516,48L516,36L600,36L600,24L624,24L624,12M588,96L588,96L576,96L576,108L264,108L264,120L192,120L192,132L168,132L168,144L156,144L156,156L144,156L144,168L132,168L132,192L120,192L120,204L108,204L108,216L96,216L96,228L84,228L84,240L72,240L72,252L60,252L60,276L72,276L72,312L84,312L84,456L96,456L96,540L108,540L108,588L120,588L120,612L132,612L132,624L156,624L156,636L168,636L168,648L216,648L216,660L288,660L288,672L312,672L312,660L324,660L324,648L336,648L336,636L348,636L348,612L360,612L360,576L348,576L348,528L336,528L336,516L324,516L324,504L312,504L312,480L300,480L300,468L288,468L288,456L264,456L264,444L252,444L252,432L240,432L240,420L228,420L228,408L216,408L216,312L228,312L228,300L240,300L240,288L252,288L252,276L276,276L276,264L288,264L288,252L396,252L396,264L420,264L420,276L444,276L444,288L456,288L456,300L468,300L468,312L480,312L480,324L492,324L492,348L504,348L504,360L516,360L516,372L528,372L528,384L540,384L540,408L552,408L552,432L564,432L564,480L576,480L576,528L588,528L588,564L600,564L600,588L612,588L612,612L624,612L624,624L636,624L636,636L648,636L648,648L672,648L672,660L732,660L732,648L744,648L744,612L756,612L756,576L744,576L744,552L732,552L732,540L720,540L720,528L708,528L708,516L696,516L696,504L684,504L684,492L672,492L672,480L648,480L648,456L636,456L636,420L624,420L624,348L636,348L636,324L648,324L648,312L660,312L660,300L684,300L684,288L696,288L696,276L708,276L708,264L732,264L732,252L744,252L744,228L756,228L756,168L744,168L744,156L732,156L732,120L720,120L720,108L672,108L672,96L588,96M444,732L444,732L480,732L480,744L456,744L456,756L468,756L468,768L456,768L456,780L480,780L480,792L444,792L444,732M492,732L492,732L516,732L516,744L504,744L504,756L516,756L516,744L528,744L528,756L516,756L516,768L504,768L504,780L516,780L516,768L528,768L528,780L516,780L516,792L492,792L492,732M540,732L540,732L552,732L552,756L564,756L564,732L576,732L576,792L564,792L564,768L540,768Z" class="road"></path><path d="M756,192L756,192L840,192L840,216L756,216Z" class="cp1"></path><path d="M360,576L360,576L420,576L420,600L360,600Z" class="cp2"></path><path d="M24,396L24,396L48,396L48,408L24,408L24,396M48,408L48,408L72,408L72,420L48,420L48,408M48,420L48,420L48,432L24,432L24,420L48,420M48,432L48,432L72,432L72,444L48,444Z" class="start"></path><path d="M24,444L24,444L84,444L84,456L24,456L24,444M444,732L444,732L480,732L480,744L456,744L456,756L468,756L468,768L456,768L456,780L480,780L480,792L444,792L444,732M492,732L492,732L516,732L516,744L504,744L504,756L516,756L516,744L528,744L528,756L516,756L516,768L504,768L504,780L516,780L516,768L528,768L528,780L516,780L516,792L492,792L492,732M540,732L540,732L552,732L552,756L564,756L564,732L576,732L576,792L564,792L564,768L540,768Z" class="finish"></path></g>
 <rect opacity=".3" fill="url(#grid)" height="100%" width="100%" y="0" x="0"></rect>
</svg>