<svg xmlns="http://www.w3.org/2000/svg" xmlns:xlink="http://www.w3.org/1999/xlink" version="1.1" id="mapSvgView" width="960" height="852"> <rect id="mainfill" class="grass" x="0" y="0" width="100%" height="100%"></rect> <g id="paths"><path d="M828,144L828,144L948,144L948,168L840,168L840,156L828,156Z" class="cp1"></path><path d="M12,144L12,144L144,144L144,156L120,156L120,168L12,168Z" class="cp2"></path><path d="M516,564L516,564L540,564L540,588L528,588L528,612L516,612L516,636L504,636L504,684L480,684L480,636L492,636L492,612L504,612L504,588L516,588Z" class="cp3"></path><path d="M12,12L12,12L396,12L396,24L408,24L408,36L420,36L420,48L432,48L432,60L444,60L444,72L552,72L552,60L564,60L564,48L576,48L576,36L588,36L588,24L600,24L600,12L948,12L948,144L612,144L612,156L600,156L600,168L588,168L588,180L576,180L576,192L564,192L564,204L432,204L432,192L420,192L420,180L408,180L408,168L396,168L396,156L384,156L384,144L12,144L12,12M12,168L12,168L120,168L120,552L144,552L144,564L264,564L264,576L384,576L384,588L372,588L372,600L384,600L384,588L396,588L396,576L420,576L420,564L516,564L516,588L504,588L504,612L492,612L492,636L480,636L480,672L456,672L456,660L420,660L420,648L384,648L384,636L372,636L372,648L264,648L264,660L12,660L12,168M840,168L840,168L948,168L948,240L936,240L936,504L924,504L924,492L900,492L900,504L852,504L852,228L840,228L840,168M876,456L876,456L864,456L864,468L888,468L888,456L876,456M912,468L912,468L900,468L900,480L924,480L924,468L912,468M876,480L876,480L864,480L864,492L888,492L888,480L876,480M852,516L852,516L936,516L936,588L948,588L948,840L492,840L492,804L480,804L480,744L492,744L492,684L504,684L504,636L516,636L516,612L528,612L528,588L540,588L540,576L600,576L600,612L612,612L612,600L624,600L624,588L636,588L636,576L660,576L660,588L636,588L636,600L624,600L624,612L612,612L612,696L624,696L624,720L828,720L828,696L840,696L840,612L732,612L732,600L720,600L720,588L708,588L708,576L840,576L840,564L852,564L852,516M660,588L660,588L672,588L672,600L660,600L660,588M708,588L708,588L708,600L696,600L696,588L708,588M396,600L396,600L384,600L384,612L372,612L372,624L384,624L384,612L396,612L396,600M672,600L672,600L696,600L696,612L672,612L672,600M396,624L396,624L384,624L384,636L396,636Z" class="road"></path><path d="M864,456L864,456L888,456L888,468L864,468L864,456M900,468L900,468L924,468L924,480L900,480L900,468M864,480L864,480L888,480L888,492L864,492L864,480M900,492L900,492L924,492L924,504L900,504Z" class="start"></path><path d="M852,504L852,504L936,504L936,516L852,516L852,504M660,636L660,636L696,636L696,648L672,648L672,660L684,660L684,672L672,672L672,684L696,684L696,696L660,696L660,636M708,636L708,636L732,636L732,648L720,648L720,660L732,660L732,648L744,648L744,660L732,660L732,672L720,672L720,684L732,684L732,672L744,672L744,684L732,684L732,696L708,696L708,636M756,636L756,636L768,636L768,660L780,660L780,636L792,636L792,696L780,696L780,672L756,672Z" class="finish"></path></g></svg>