<svg xmlns="http://www.w3.org/2000/svg" xmlns:xlink="http://www.w3.org/1999/xlink" version="1.1" id="mapSvgView" width="828" height="816"> <rect id="mainfill" class="grass" x="0" y="0" width="100%" height="100%"></rect> <g id="paths"><path d="M744,84L744,84L816,84L816,108L744,108Z" class="cp1"></path><path d="M48,84L48,84L144,84L144,108L48,108Z" class="cp2"></path><path d="M444,204L444,204L468,204L468,300L444,300Z" class="cp3"></path><path d="M516,708L516,708L588,708L588,732L516,732Z" class="cp4"></path><path d="M48,12L48,12L816,12L816,84L48,84L48,12M48,108L48,108L144,108L144,216L180,216L180,264L144,264L144,300L180,300L180,348L144,348L144,384L180,384L180,432L144,432L144,468L180,468L180,516L144,516L144,552L180,552L180,600L144,600L144,648L180,648L180,696L324,696L324,600L336,600L336,588L324,588L324,492L336,492L336,480L324,480L324,408L336,408L336,396L324,396L324,204L444,204L444,300L396,300L396,384L384,384L384,396L372,396L372,384L360,384L360,396L348,396L348,384L336,384L336,396L348,396L348,408L360,408L360,396L372,396L372,408L384,408L384,396L396,396L396,492L384,492L384,480L372,480L372,492L360,492L360,480L348,480L348,492L336,492L336,504L348,504L348,492L360,492L360,504L372,504L372,492L384,492L384,504L396,504L396,576L384,576L384,588L372,588L372,576L360,576L360,588L348,588L348,576L336,576L336,588L348,588L348,600L360,600L360,588L372,588L372,600L384,600L384,588L396,588L396,792L12,792L12,648L48,648L48,600L12,600L12,552L48,552L48,516L12,516L12,468L48,468L48,432L12,432L12,384L48,384L48,348L12,348L12,300L48,300L48,264L12,264L12,216L48,216L48,108M744,108L744,108L816,108L816,588L804,588L804,576L780,576L780,564L756,564L756,576L780,576L780,588L744,588L744,108M468,204L468,204L588,204L588,456L576,456L576,444L564,444L564,456L552,456L552,444L540,444L540,456L528,456L528,444L516,444L516,300L468,300L468,204M540,456L540,456L552,456L552,468L564,468L564,456L576,456L576,468L588,468L588,540L576,540L576,552L564,552L564,540L552,540L552,552L540,552L540,540L528,540L528,552L516,552L516,456L528,456L528,468L540,468L540,456M768,540L768,540L756,540L756,552L780,552L780,540L768,540M528,552L528,552L540,552L540,564L552,564L552,552L564,552L564,564L576,564L576,552L588,552L588,648L576,648L576,636L564,636L564,648L552,648L552,636L540,636L540,648L528,648L528,636L516,636L516,564L528,564L528,552M792,552L792,552L780,552L780,564L804,564L804,552L792,552M744,600L744,600L816,600L816,804L516,804L516,732L744,732L744,600M540,648L540,648L552,648L552,660L564,660L564,648L576,648L576,660L588,660L588,708L516,708L516,648L528,648L528,660L540,660Z" class="road"></path><path d="M756,540L756,540L780,540L780,552L756,552L756,540M780,552L780,552L804,552L804,564L780,564L780,552M780,564L780,564L780,576L756,576L756,564L780,564M780,576L780,576L804,576L804,588L780,588Z" class="start"></path><path d="M744,588L744,588L816,588L816,600L744,600L744,588M600,660L600,660L636,660L636,672L612,672L612,684L624,684L624,696L612,696L612,708L636,708L636,720L600,720L600,660M648,660L648,660L672,660L672,672L660,672L660,684L672,684L672,672L684,672L684,684L672,684L672,696L660,696L660,708L672,708L672,696L684,696L684,708L672,708L672,720L648,720L648,660M696,660L696,660L708,660L708,684L720,684L720,660L732,660L732,720L720,720L720,696L696,696Z" class="finish"></path></g></svg>