<svg xmlns="http://www.w3.org/2000/svg" xmlns:xlink="http://www.w3.org/1999/xlink" version="1.1" id="mapSvgView" width="876" height="768"> <rect id="mainfill" class="grass" x="0" y="0" width="100%" height="100%"></rect> <g id="paths"><path d="M504,132L504,132L576,132L576,156L504,156Z" class="cp1"></path><path d="M12,132L12,132L84,132L84,156L12,156Z" class="cp2"></path><path d="M516,420L516,420L576,420L576,444L516,444Z" class="cp3"></path><path d="M456,660L456,660L480,660L480,732L456,732Z" class="cp4"></path><path d="M36,624L36,624L132,624L132,636L120,636L120,648L36,648Z" class="cp5"></path><path d="M372,516L372,516L396,516L396,576L372,576Z" class="cp6"></path><path d="M780,480L780,480L864,480L864,492L852,492L852,504L768,504L768,492L780,492Z" class="cp7"></path><path d="M72,12L72,12L516,12L516,24L540,24L540,36L552,36L552,48L564,48L564,72L576,72L576,132L504,132L504,108L492,108L492,96L480,96L480,84L468,84L468,72L444,72L444,60L144,60L144,72L120,72L120,84L108,84L108,96L96,96L96,108L84,108L84,132L12,132L12,72L24,72L24,48L36,48L36,36L48,36L48,24L72,24L72,12M12,156L12,156L84,156L84,336L96,336L96,360L108,360L108,372L132,372L132,384L228,384L228,372L276,372L276,360L300,360L300,348L324,348L324,336L348,336L348,324L384,324L384,312L432,312L432,300L480,300L480,312L516,312L516,324L540,324L540,336L552,336L552,348L564,348L564,372L576,372L576,420L516,420L516,408L504,408L504,372L480,372L480,360L420,360L420,372L384,372L384,384L348,384L348,396L324,396L324,408L300,408L300,420L264,420L264,432L216,432L216,444L180,444L180,456L96,456L96,444L72,444L72,432L48,432L48,420L36,420L36,408L24,408L24,372L12,372L12,156M504,156L504,156L576,156L576,168L588,168L588,180L792,180L792,192L816,192L816,204L828,204L828,216L840,216L840,228L852,228L852,252L864,252L864,372L852,372L852,360L828,360L828,348L804,348L804,360L828,360L828,372L792,372L792,300L780,300L780,276L768,276L768,252L744,252L744,240L540,240L540,228L528,228L528,216L516,216L516,204L504,204L504,156M816,324L816,324L804,324L804,336L828,336L828,324L816,324M840,336L840,336L828,336L828,348L852,348L852,336L840,336M792,384L792,384L864,384L864,480L780,480L780,468L792,468L792,384M516,444L516,444L576,444L576,516L744,516L744,504L852,504L852,516L840,516L840,528L828,528L828,540L816,540L816,552L792,552L792,564L756,564L756,576L576,576L576,672L564,672L564,696L552,696L552,708L540,708L540,720L504,720L504,732L480,732L480,648L492,648L492,636L504,636L504,624L516,624L516,576L396,576L396,516L516,516L516,444M168,516L168,516L372,516L372,576L192,576L192,588L168,588L168,600L156,600L156,612L144,612L144,624L48,624L48,612L60,612L60,600L72,600L72,588L84,588L84,576L96,576L96,564L108,564L108,552L120,552L120,540L144,540L144,528L168,528L168,516M24,648L24,648L120,648L120,672L132,672L132,684L192,684L192,672L252,672L252,660L456,660L456,732L288,732L288,744L192,744L192,756L84,756L84,744L60,744L60,732L48,732L48,720L36,720L36,696L24,696Z" class="road"></path><path d="M804,324L804,324L828,324L828,336L804,336L804,324M828,336L828,336L852,336L852,348L828,348L828,336M828,348L828,348L828,360L804,360L804,348L828,348M828,360L828,360L852,360L852,372L828,372Z" class="start"></path><path d="M792,372L792,372L864,372L864,384L792,384L792,372M732,696L732,696L768,696L768,708L744,708L744,720L756,720L756,732L744,732L744,744L768,744L768,756L732,756L732,696M780,696L780,696L804,696L804,708L792,708L792,720L804,720L804,708L816,708L816,720L804,720L804,732L792,732L792,744L804,744L804,732L816,732L816,744L804,744L804,756L780,756L780,696M828,696L828,696L840,696L840,720L852,720L852,696L864,696L864,756L852,756L852,732L828,732Z" class="finish"></path></g></svg>