<svg xmlns:xlink="http://www.w3.org/1999/xlink" xmlns="http://www.w3.org/2000/svg" height="840" width="876" id="mapSvgView" version="1.1" style="width: 876px; height: 840px;" viewBox="0 0 876 840">
 <defs>
 <pattern y="0" x="0" height="24" width="24" patternUnits="userSpaceOnUse" id="grassPattern">
 <rect class="grasscolor" height="24" width="24" y="0" x="0"></rect>
 <rect class="grassspeclecolor" height="1" width="1" x="1" y="5"></rect>
 <rect class="grassspeclecolor" height="1" width="1" x="1" y="5"></rect>
 <rect class="grassspeclecolor" height="1" width="1" x="3" y="5"></rect>
 <rect class="grassspeclecolor" height="1" width="1" x="6" y="7"></rect>
 <rect class="grassspeclecolor" height="1" width="1" x="6" y="17"></rect>
 <rect class="grassspeclecolor" height="1" width="1" x="8" y="21"></rect>
 <rect class="grassspeclecolor" height="1" width="1" x="9" y="2"></rect>
 <rect class="grassspeclecolor" height="1" width="1" x="12" y="4"></rect>
 <rect class="grassspeclecolor" height="1" width="1" x="13" y="15"></rect>
 <rect class="grassspeclecolor" height="1" width="1" x="14" y="4"></rect>
 <rect class="grassspeclecolor" height="1" width="1" x="14" y="19"></rect>
 <rect class="grassspeclecolor" height="1" width="1" x="17" y="7"></rect>
 <rect class="grassspeclecolor" height="1" width="1" x="17" y="12"></rect>
 <rect class="grassspeclecolor" height="1" width="1" x="18" y="23"></rect>
 <rect class="grassspeclecolor" height="1" width="1" x="21" y="16"></rect>
 <rect class="grassspeclecolor" height="1" width="1" x="23" y="12"></rect>
 </pattern>
 <pattern y="0" x="0" height="24" width="24" patternUnits="userSpaceOnUse" id="roadPattern">
 <rect class="roadcolor" height="24" width="24" y="0" x="0"></rect>
 <rect class="roadspeclecolor" height="1" width="1" x="1" y="5"></rect>
 <rect class="roadspeclecolor" height="1" width="1" x="1" y="5"></rect>
 <rect class="roadspeclecolor" height="1" width="1" x="3" y="5"></rect>
 <rect class="roadspeclecolor" height="1" width="1" x="6" y="7"></rect>
 <rect class="roadspeclecolor" height="1" width="1" x="6" y="17"></rect>
 <rect class="roadspeclecolor" height="1" width="1" x="8" y="21"></rect>
 <rect class="roadspeclecolor" height="1" width="1" x="9" y="2"></rect>
 <rect class="roadspeclecolor" height="1" width="1" x="12" y="4"></rect>
 <rect class="roadspeclecolor" height="1" width="1" x="13" y="15"></rect>
 <rect class="roadspeclecolor" height="1" width="1" x="14" y="4"></rect>
 <rect class="roadspeclecolor" height="1" width="1" x="14" y="19"></rect>
 <rect class="roadspeclecolor" height="1" width="1" x="17" y="7"></rect>
 <rect class="roadspeclecolor" height="1" width="1" x="17" y="12"></rect>
 <rect class="roadspeclecolor" height="1" width="1" x="18" y="23"></rect>
 <rect class="roadspeclecolor" height="1" width="1" x="21" y="16"></rect>
 <rect class="roadspeclecolor" height="1" width="1" x="23" y="12"></rect>
 </pattern>
 <pattern y="0" x="0" height="12" width="12" patternUnits="userSpaceOnUse" id="grid">
 <line stroke-width="1" stroke="black" y2="12" x2="12" y1="0" x1="12"></line>
 <line stroke-width="1" stroke="black" y2="12" x2="12" y1="12" x1="0"></line>
 </pattern>
 <pattern y="0" x="0" height="12" width="12" patternUnits="userSpaceOnUse" id="finishPattern">
 <rect fill="black" height="12" width="12" y="0" x="0"></rect>
 <path fill="white" d="M0,0L3,0L3,3L0,3L0,0M6,0L9,0L9,3L6,3L6,0M3,3L6,3L6,6L3,6L3,3M9,3L12,3L12,6L9,6L9,3"></path>
 <path fill="white" d="M0,6L3,6L3,9L0,9L0,6M6,6L9,6L9,9L6,9L6,6M3,9L6,9L6,12L3,12L3,9M9,9L12,9L12,12L9,12L9,9"></path>
 </pattern>
 <pattern y="0" x="0" height="12" width="12" patternUnits="userSpaceOnUse" id="startPattern">
 <rect fill="rgb(100,100,100)" height="12" width="12" y="0" x="0"></rect>
 <rect stroke-width="1" stroke="rgb(200,200,200)" fill="none" height="5" width="5" y="3.5" x="3.5"></rect>
 </pattern>
 <pattern y="0" x="0" height="12" width="12" patternUnits="userSpaceOnUse" id="cp1pattern">
 <rect class="cp1color" height="12" width="12" y="0" x="0"></rect>
 <path fill="black" d="M0,0L3,0L3,3L0,3L0,0M6,0L9,0L9,3L6,3L6,0M3,3L6,3L6,6L3,6L3,3M9,3L12,3L12,6L9,6L9,3"></path>
 <path fill="black" d="M0,6L3,6L3,9L0,9L0,6M6,6L9,6L9,9L6,9L6,6M3,9L6,9L6,12L3,12L3,9M9,9L12,9L12,12L9,12L9,9"></path>
 </pattern>
 <pattern y="0" x="0" height="12" width="12" patternUnits="userSpaceOnUse" id="cp2pattern">
 <rect class="cp2color" height="12" width="12" y="0" x="0"></rect>
 <path fill="white" d="M0,0L3,0L3,3L0,3L0,0M6,0L9,0L9,3L6,3L6,0M3,3L6,3L6,6L3,6L3,3M9,3L12,3L12,6L9,6L9,3"></path>
 <path fill="white" d="M0,6L3,6L3,9L0,9L0,6M6,6L9,6L9,9L6,9L6,6M3,9L6,9L6,12L3,12L3,9M9,9L12,9L12,12L9,12L9,9"></path>
 </pattern>
 <pattern y="0" x="0" height="12" width="12" patternUnits="userSpaceOnUse" id="cp3pattern">
 <rect class="cp3color" height="12" width="12" y="0" x="0"></rect>
 <path fill="black" d="M0,0L3,0L3,3L0,3L0,0M6,0L9,0L9,3L6,3L6,0M3,3L6,3L6,6L3,6L3,3M9,3L12,3L12,6L9,6L9,3"></path>
 <path fill="black" d="M0,6L3,6L3,9L0,9L0,6M6,6L9,6L9,9L6,9L6,6M3,9L6,9L6,12L3,12L3,9M9,9L12,9L12,12L9,12L9,9"></path>
 </pattern>
 <pattern y="0" x="0" height="12" width="12" patternUnits="userSpaceOnUse" id="cp4pattern">
 <rect class="cp4color" height="12" width="12" y="0" x="0"></rect>
 <path fill="white" d="M0,0L3,0L3,3L0,3L0,0M6,0L9,0L9,3L6,3L6,0M3,3L6,3L6,6L3,6L3,3M9,3L12,3L12,6L9,6L9,3"></path>
 <path fill="white" d="M0,6L3,6L3,9L0,9L0,6M6,6L9,6L9,9L6,9L6,6M3,9L6,9L6,12L3,12L3,9M9,9L12,9L12,12L9,12L9,9"></path>
 </pattern>
 <pattern y="0" x="0" height="12" width="12" patternUnits="userSpaceOnUse" id="cp5pattern">
 <rect class="cp5color" height="12" width="12" y="0" x="0"></rect>
 <path fill="black" d="M0,0L3,0L3,3L0,3L0,0M6,0L9,0L9,3L6,3L6,0M3,3L6,3L6,6L3,6L3,3M9,3L12,3L12,6L9,6L9,3"></path>
 <path fill="black" d="M0,6L3,6L3,9L0,9L0,6M6,6L9,6L9,9L6,9L6,6M3,9L6,9L6,12L3,12L3,9M9,9L12,9L12,12L9,12L9,9"></path>
 </pattern>
 <pattern y="0" x="0" height="12" width="12" patternUnits="userSpaceOnUse" id="cp6pattern">
 <rect class="cp6color" height="12" width="12" y="0" x="0"></rect>
 <path fill="white" d="M0,0L3,0L3,3L0,3L0,0M6,0L9,0L9,3L6,3L6,0M3,3L6,3L6,6L3,6L3,3M9,3L12,3L12,6L9,6L9,3"></path>
 <path fill="white" d="M0,6L3,6L3,9L0,9L0,6M6,6L9,6L9,9L6,9L6,6M3,9L6,9L6,12L3,12L3,9M9,9L12,9L12,12L9,12L9,9"></path>
 </pattern>
 <pattern y="0" x="0" height="12" width="12" patternUnits="userSpaceOnUse" id="cp7pattern">
 <rect class="cp7color" height="12" width="12" y="0" x="0"></rect>
 <path fill="black" d="M0,0L3,0L3,3L0,3L0,0M6,0L9,0L9,3L6,3L6,0M3,3L6,3L6,6L3,6L3,3M9,3L12,3L12,6L9,6L9,3"></path>
 <path fill="black" d="M0,6L3,6L3,9L0,9L0,6M6,6L9,6L9,9L6,9L6,6M3,9L6,9L6,12L3,12L3,9M9,9L12,9L12,12L9,12L9,9"></path>
 </pattern>
 <pattern y="0" x="0" height="12" width="12" patternUnits="userSpaceOnUse" id="cp8pattern">
 <rect class="cp8color" height="12" width="12" y="0" x="0"></rect>
 <path fill="white" d="M0,0L3,0L3,3L0,3L0,0M6,0L9,0L9,3L6,3L6,0M3,3L6,3L6,6L3,6L3,3M9,3L12,3L12,6L9,6L9,3"></path>
 <path fill="white" d="M0,6L3,6L3,9L0,9L0,6M6,6L9,6L9,9L6,9L6,6M3,9L6,9L6,12L3,12L3,9M9,9L12,9L12,12L9,12L9,9"></path>
 </pattern>
 <pattern y="0" x="0" height="12" width="12" patternUnits="userSpaceOnUse" id="cp9pattern">
 <rect class="cp9color" height="12" width="12" y="0" x="0"></rect>
 <path fill="black" d="M0,0L3,0L3,3L0,3L0,0M6,0L9,0L9,3L6,3L6,0M3,3L6,3L6,6L3,6L3,3M9,3L12,3L12,6L9,6L9,3"></path>
 <path fill="black" d="M0,6L3,6L3,9L0,9L0,6M6,6L9,6L9,9L6,9L6,6M3,9L6,9L6,12L3,12L3,9M9,9L12,9L12,12L9,12L9,9"></path>
 </pattern>
 </defs>
 <rect height="100%" width="100%" y="0" x="0" class="grass" id="mainfill"></rect>
 <g id="paths"><path d="M396,12L396,12L492,12L492,24L564,24L564,12L588,12L588,24L600,24L600,36L612,36L612,24L624,24L624,36L672,36L672,24L732,24L732,36L756,36L756,48L780,48L780,60L792,60L792,72L804,72L804,84L816,84L816,108L828,108L828,156L840,156L840,216L852,216L852,240L840,240L840,300L852,300L852,372L840,372L840,576L852,576L852,636L864,636L864,744L852,744L852,768L840,768L840,780L828,780L828,792L720,792L720,780L672,780L672,768L660,768L660,744L648,744L648,732L636,732L636,720L624,720L624,696L612,696L612,564L600,564L600,480L612,480L612,432L624,432L624,408L636,408L636,372L624,372L624,348L636,348L636,288L624,288L624,264L612,264L612,240L600,240L600,228L564,228L564,216L528,216L528,228L492,228L492,240L480,240L480,264L468,264L468,288L456,288L456,312L468,312L468,336L480,336L480,348L492,348L492,360L504,360L504,372L516,372L516,396L528,396L528,444L540,444L540,492L528,492L528,528L516,528L516,576L504,576L504,588L492,588L492,624L480,624L480,648L468,648L468,684L456,684L456,708L444,708L444,744L432,744L432,756L420,756L420,768L408,768L408,780L384,780L384,792L360,792L360,804L324,804L324,816L312,816L312,828L240,828L240,816L204,816L204,828L168,828L168,816L144,816L144,804L132,804L132,816L96,816L96,804L84,804L84,792L72,792L72,780L60,780L60,768L48,768L48,720L60,720L60,696L72,696L72,672L84,672L84,660L96,660L96,648L108,648L108,636L132,636L132,624L156,624L156,612L216,612L216,600L240,600L240,588L252,588L252,564L240,564L240,552L204,552L204,540L168,540L168,528L144,528L144,516L108,516L108,504L72,504L72,492L48,492L48,480L36,480L36,468L24,468L24,384L12,384L12,336L24,336L24,312L36,312L36,300L48,300L48,288L60,288L60,276L96,276L96,264L120,264L120,252L132,252L132,228L144,228L144,192L132,192L132,132L144,132L144,120L156,120L156,108L180,108L180,96L204,96L204,84L228,84L228,72L252,72L252,60L300,60L300,48L348,48L348,36L384,36L384,24L396,24L396,12M384,60L384,60L372,60L372,72L348,72L348,84L288,84L288,96L252,96L252,108L216,108L216,120L204,120L204,132L192,132L192,144L180,144L180,204L192,204L192,264L180,264L180,288L156,288L156,300L108,300L108,312L84,312L84,324L72,324L72,336L60,336L60,432L72,432L72,444L84,444L84,468L108,468L108,480L168,480L168,492L204,492L204,504L252,504L252,516L276,516L276,528L300,528L300,540L312,540L312,564L324,564L324,612L312,612L312,624L300,624L300,636L288,636L288,648L264,648L264,660L240,660L240,672L228,672L228,684L216,684L216,708L204,708L204,756L216,756L216,768L264,768L264,780L276,780L276,768L336,768L336,756L348,756L348,744L360,744L360,732L384,732L384,720L396,720L396,708L408,708L408,696L420,696L420,684L432,684L432,660L444,660L444,588L456,588L456,564L468,564L468,504L480,504L480,480L492,480L492,408L480,408L480,384L468,384L468,372L456,372L456,360L444,360L444,348L432,348L432,336L420,336L420,324L408,324L408,240L420,240L420,216L432,216L432,204L444,204L444,192L456,192L456,180L492,180L492,168L564,168L564,180L624,180L624,192L636,192L636,204L648,204L648,216L660,216L660,228L672,228L672,252L684,252L684,288L696,288L696,348L684,348L684,396L672,396L672,444L660,444L660,576L672,576L672,648L684,648L684,684L696,684L696,696L720,696L720,708L768,708L768,432L780,432L780,396L792,396L792,264L780,264L780,216L792,216L792,180L780,180L780,132L768,132L768,108L756,108L756,96L744,96L744,84L720,84L720,72L684,72L684,60L624,60L624,72L588,72L588,60L516,60L516,72L480,72L480,60L384,60M480,768L480,768L516,768L516,780L492,780L492,792L504,792L504,804L492,804L492,816L516,816L516,828L480,828L480,768M528,768L528,768L552,768L552,780L540,780L540,792L552,792L552,780L564,780L564,792L552,792L552,804L540,804L540,816L552,816L552,804L564,804L564,816L552,816L552,828L528,828L528,768M576,768L576,768L588,768L588,792L600,792L600,768L612,768L612,828L600,828L600,804L576,804Z" class="road"></path><path d="M636,36L636,36L660,36L660,60L636,60Z" class="cp1"></path><path d="M252,564L252,564L324,564L324,588L252,588Z" class="cp2"></path><path d="M468,540L468,540L516,540L516,564L468,564Z" class="cp3"></path><path d="M600,516L600,516L660,516L660,540L600,540Z" class="cp4"></path><path d="M780,444L780,444L804,444L804,456L780,456L780,444M804,456L804,456L828,456L828,468L804,468L804,456M804,468L804,468L804,480L780,480L780,468L804,468M804,480L804,480L828,480L828,492L804,492Z" class="start"></path><path d="M768,492L768,492L840,492L840,504L768,504L768,492M480,768L480,768L516,768L516,780L492,780L492,792L504,792L504,804L492,804L492,816L516,816L516,828L480,828L480,768M528,768L528,768L552,768L552,780L540,780L540,792L552,792L552,780L564,780L564,792L552,792L552,804L540,804L540,816L552,816L552,804L564,804L564,816L552,816L552,828L528,828L528,768M576,768L576,768L588,768L588,792L600,792L600,768L612,768L612,828L600,828L600,804L576,804Z" class="finish"></path></g>
 <rect opacity=".3" fill="url(#grid)" height="100%" width="100%" y="0" x="0"></rect>
</svg>