<svg xmlns:xlink="http://www.w3.org/1999/xlink" xmlns="http://www.w3.org/2000/svg" height="804" width="852" id="mapSvgView" version="1.1" style="width: 852px; height: 804px;" viewBox="0 0 852 804">
 <defs>
 <pattern y="0" x="0" height="24" width="24" patternUnits="userSpaceOnUse" id="grassPattern">
 <rect class="grasscolor" height="24" width="24" y="0" x="0"></rect>
 <rect class="grassspeclecolor" height="1" width="1" x="1" y="5"></rect>
 <rect class="grassspeclecolor" height="1" width="1" x="1" y="5"></rect>
 <rect class="grassspeclecolor" height="1" width="1" x="3" y="5"></rect>
 <rect class="grassspeclecolor" height="1" width="1" x="6" y="7"></rect>
 <rect class="grassspeclecolor" height="1" width="1" x="6" y="17"></rect>
 <rect class="grassspeclecolor" height="1" width="1" x="8" y="21"></rect>
 <rect class="grassspeclecolor" height="1" width="1" x="9" y="2"></rect>
 <rect class="grassspeclecolor" height="1" width="1" x="12" y="4"></rect>
 <rect class="grassspeclecolor" height="1" width="1" x="13" y="15"></rect>
 <rect class="grassspeclecolor" height="1" width="1" x="14" y="4"></rect>
 <rect class="grassspeclecolor" height="1" width="1" x="14" y="19"></rect>
 <rect class="grassspeclecolor" height="1" width="1" x="17" y="7"></rect>
 <rect class="grassspeclecolor" height="1" width="1" x="17" y="12"></rect>
 <rect class="grassspeclecolor" height="1" width="1" x="18" y="23"></rect>
 <rect class="grassspeclecolor" height="1" width="1" x="21" y="16"></rect>
 <rect class="grassspeclecolor" height="1" width="1" x="23" y="12"></rect>
 </pattern>
 <pattern y="0" x="0" height="24" width="24" patternUnits="userSpaceOnUse" id="roadPattern">
 <rect class="roadcolor" height="24" width="24" y="0" x="0"></rect>
 <rect class="roadspeclecolor" height="1" width="1" x="1" y="5"></rect>
 <rect class="roadspeclecolor" height="1" width="1" x="1" y="5"></rect>
 <rect class="roadspeclecolor" height="1" width="1" x="3" y="5"></rect>
 <rect class="roadspeclecolor" height="1" width="1" x="6" y="7"></rect>
 <rect class="roadspeclecolor" height="1" width="1" x="6" y="17"></rect>
 <rect class="roadspeclecolor" height="1" width="1" x="8" y="21"></rect>
 <rect class="roadspeclecolor" height="1" width="1" x="9" y="2"></rect>
 <rect class="roadspeclecolor" height="1" width="1" x="12" y="4"></rect>
 <rect class="roadspeclecolor" height="1" width="1" x="13" y="15"></rect>
 <rect class="roadspeclecolor" height="1" width="1" x="14" y="4"></rect>
 <rect class="roadspeclecolor" height="1" width="1" x="14" y="19"></rect>
 <rect class="roadspeclecolor" height="1" width="1" x="17" y="7"></rect>
 <rect class="roadspeclecolor" height="1" width="1" x="17" y="12"></rect>
 <rect class="roadspeclecolor" height="1" width="1" x="18" y="23"></rect>
 <rect class="roadspeclecolor" height="1" width="1" x="21" y="16"></rect>
 <rect class="roadspeclecolor" height="1" width="1" x="23" y="12"></rect>
 </pattern>
 <pattern y="0" x="0" height="12" width="12" patternUnits="userSpaceOnUse" id="grid">
 <line stroke-width="1" stroke="black" y2="12" x2="12" y1="0" x1="12"></line>
 <line stroke-width="1" stroke="black" y2="12" x2="12" y1="12" x1="0"></line>
 </pattern>
 <pattern y="0" x="0" height="12" width="12" patternUnits="userSpaceOnUse" id="finishPattern">
 <rect fill="black" height="12" width="12" y="0" x="0"></rect>
 <path fill="white" d="M0,0L3,0L3,3L0,3L0,0M6,0L9,0L9,3L6,3L6,0M3,3L6,3L6,6L3,6L3,3M9,3L12,3L12,6L9,6L9,3"></path>
 <path fill="white" d="M0,6L3,6L3,9L0,9L0,6M6,6L9,6L9,9L6,9L6,6M3,9L6,9L6,12L3,12L3,9M9,9L12,9L12,12L9,12L9,9"></path>
 </pattern>
 <pattern y="0" x="0" height="12" width="12" patternUnits="userSpaceOnUse" id="startPattern">
 <rect fill="rgb(100,100,100)" height="12" width="12" y="0" x="0"></rect>
 <rect stroke-width="1" stroke="rgb(200,200,200)" fill="none" height="5" width="5" y="3.5" x="3.5"></rect>
 </pattern>
 <pattern y="0" x="0" height="12" width="12" patternUnits="userSpaceOnUse" id="cp1pattern">
 <rect class="cp1color" height="12" width="12" y="0" x="0"></rect>
 <path fill="black" d="M0,0L3,0L3,3L0,3L0,0M6,0L9,0L9,3L6,3L6,0M3,3L6,3L6,6L3,6L3,3M9,3L12,3L12,6L9,6L9,3"></path>
 <path fill="black" d="M0,6L3,6L3,9L0,9L0,6M6,6L9,6L9,9L6,9L6,6M3,9L6,9L6,12L3,12L3,9M9,9L12,9L12,12L9,12L9,9"></path>
 </pattern>
 <pattern y="0" x="0" height="12" width="12" patternUnits="userSpaceOnUse" id="cp2pattern">
 <rect class="cp2color" height="12" width="12" y="0" x="0"></rect>
 <path fill="white" d="M0,0L3,0L3,3L0,3L0,0M6,0L9,0L9,3L6,3L6,0M3,3L6,3L6,6L3,6L3,3M9,3L12,3L12,6L9,6L9,3"></path>
 <path fill="white" d="M0,6L3,6L3,9L0,9L0,6M6,6L9,6L9,9L6,9L6,6M3,9L6,9L6,12L3,12L3,9M9,9L12,9L12,12L9,12L9,9"></path>
 </pattern>
 <pattern y="0" x="0" height="12" width="12" patternUnits="userSpaceOnUse" id="cp3pattern">
 <rect class="cp3color" height="12" width="12" y="0" x="0"></rect>
 <path fill="black" d="M0,0L3,0L3,3L0,3L0,0M6,0L9,0L9,3L6,3L6,0M3,3L6,3L6,6L3,6L3,3M9,3L12,3L12,6L9,6L9,3"></path>
 <path fill="black" d="M0,6L3,6L3,9L0,9L0,6M6,6L9,6L9,9L6,9L6,6M3,9L6,9L6,12L3,12L3,9M9,9L12,9L12,12L9,12L9,9"></path>
 </pattern>
 <pattern y="0" x="0" height="12" width="12" patternUnits="userSpaceOnUse" id="cp4pattern">
 <rect class="cp4color" height="12" width="12" y="0" x="0"></rect>
 <path fill="white" d="M0,0L3,0L3,3L0,3L0,0M6,0L9,0L9,3L6,3L6,0M3,3L6,3L6,6L3,6L3,3M9,3L12,3L12,6L9,6L9,3"></path>
 <path fill="white" d="M0,6L3,6L3,9L0,9L0,6M6,6L9,6L9,9L6,9L6,6M3,9L6,9L6,12L3,12L3,9M9,9L12,9L12,12L9,12L9,9"></path>
 </pattern>
 <pattern y="0" x="0" height="12" width="12" patternUnits="userSpaceOnUse" id="cp5pattern">
 <rect class="cp5color" height="12" width="12" y="0" x="0"></rect>
 <path fill="black" d="M0,0L3,0L3,3L0,3L0,0M6,0L9,0L9,3L6,3L6,0M3,3L6,3L6,6L3,6L3,3M9,3L12,3L12,6L9,6L9,3"></path>
 <path fill="black" d="M0,6L3,6L3,9L0,9L0,6M6,6L9,6L9,9L6,9L6,6M3,9L6,9L6,12L3,12L3,9M9,9L12,9L12,12L9,12L9,9"></path>
 </pattern>
 <pattern y="0" x="0" height="12" width="12" patternUnits="userSpaceOnUse" id="cp6pattern">
 <rect class="cp6color" height="12" width="12" y="0" x="0"></rect>
 <path fill="white" d="M0,0L3,0L3,3L0,3L0,0M6,0L9,0L9,3L6,3L6,0M3,3L6,3L6,6L3,6L3,3M9,3L12,3L12,6L9,6L9,3"></path>
 <path fill="white" d="M0,6L3,6L3,9L0,9L0,6M6,6L9,6L9,9L6,9L6,6M3,9L6,9L6,12L3,12L3,9M9,9L12,9L12,12L9,12L9,9"></path>
 </pattern>
 <pattern y="0" x="0" height="12" width="12" patternUnits="userSpaceOnUse" id="cp7pattern">
 <rect class="cp7color" height="12" width="12" y="0" x="0"></rect>
 <path fill="black" d="M0,0L3,0L3,3L0,3L0,0M6,0L9,0L9,3L6,3L6,0M3,3L6,3L6,6L3,6L3,3M9,3L12,3L12,6L9,6L9,3"></path>
 <path fill="black" d="M0,6L3,6L3,9L0,9L0,6M6,6L9,6L9,9L6,9L6,6M3,9L6,9L6,12L3,12L3,9M9,9L12,9L12,12L9,12L9,9"></path>
 </pattern>
 <pattern y="0" x="0" height="12" width="12" patternUnits="userSpaceOnUse" id="cp8pattern">
 <rect class="cp8color" height="12" width="12" y="0" x="0"></rect>
 <path fill="white" d="M0,0L3,0L3,3L0,3L0,0M6,0L9,0L9,3L6,3L6,0M3,3L6,3L6,6L3,6L3,3M9,3L12,3L12,6L9,6L9,3"></path>
 <path fill="white" d="M0,6L3,6L3,9L0,9L0,6M6,6L9,6L9,9L6,9L6,6M3,9L6,9L6,12L3,12L3,9M9,9L12,9L12,12L9,12L9,9"></path>
 </pattern>
 <pattern y="0" x="0" height="12" width="12" patternUnits="userSpaceOnUse" id="cp9pattern">
 <rect class="cp9color" height="12" width="12" y="0" x="0"></rect>
 <path fill="black" d="M0,0L3,0L3,3L0,3L0,0M6,0L9,0L9,3L6,3L6,0M3,3L6,3L6,6L3,6L3,3M9,3L12,3L12,6L9,6L9,3"></path>
 <path fill="black" d="M0,6L3,6L3,9L0,9L0,6M6,6L9,6L9,9L6,9L6,6M3,9L6,9L6,12L3,12L3,9M9,9L12,9L12,12L9,12L9,9"></path>
 </pattern>
 </defs>
 <rect height="100%" width="100%" y="0" x="0" class="grass" id="mainfill"></rect>
 <g id="paths"><path d="M456,12L456,12L480,12L480,24L504,24L504,36L516,36L516,48L528,48L528,60L552,60L552,72L588,72L588,84L600,84L600,96L612,96L612,108L672,108L672,96L696,96L696,108L708,108L708,132L720,132L720,144L732,144L732,168L744,168L744,180L756,180L756,192L768,192L768,204L780,204L780,216L804,216L804,228L828,228L828,276L816,276L816,324L804,324L804,348L792,348L792,408L804,408L804,420L816,420L816,444L828,444L828,456L840,456L840,528L828,528L828,552L840,552L840,576L828,576L828,624L840,624L840,636L816,636L816,648L780,648L780,660L768,660L768,684L684,684L684,672L648,672L648,684L600,684L600,672L564,672L564,684L552,684L552,696L540,696L540,708L528,708L528,720L516,720L516,708L480,708L480,744L468,744L468,756L456,756L456,768L420,768L420,780L408,780L408,792L360,792L360,780L336,780L336,768L324,768L324,756L288,756L288,744L276,744L276,756L264,756L264,768L240,768L240,756L204,756L204,744L180,744L180,732L156,732L156,720L144,720L144,708L120,708L120,696L108,696L108,684L96,684L96,648L84,648L84,636L60,636L60,612L48,612L48,600L36,600L36,576L24,576L24,540L36,540L36,480L24,480L24,456L12,456L12,444L24,444L24,420L36,420L36,396L48,396L48,372L60,372L60,360L72,360L72,336L84,336L84,312L96,312L96,240L84,240L84,228L60,228L60,204L84,204L84,168L96,168L96,132L108,132L108,120L120,120L120,108L132,108L132,84L144,84L144,72L156,72L156,60L168,60L168,48L192,48L192,36L216,36L216,24L276,24L276,36L300,36L300,48L312,48L312,60L372,60L372,48L384,48L384,36L420,36L420,24L456,24L456,12M384,120L384,120L372,120L372,132L360,132L360,144L348,144L348,156L276,156L276,144L252,144L252,132L216,132L216,180L228,180L228,204L240,204L240,228L252,228L252,276L264,276L264,312L252,312L252,372L240,372L240,396L228,396L228,408L216,408L216,420L204,420L204,444L192,444L192,468L180,468L180,504L168,504L168,540L156,540L156,552L144,552L144,576L156,576L156,588L168,588L168,600L192,600L192,588L216,588L216,576L252,576L252,564L264,564L264,552L276,552L276,540L300,540L300,528L324,528L324,516L468,516L468,528L492,528L492,540L516,540L516,552L540,552L540,564L564,564L564,576L588,576L588,588L684,588L684,576L696,576L696,564L708,564L708,552L720,552L720,516L708,516L708,492L684,492L684,480L672,480L672,468L660,468L660,456L648,456L648,444L636,444L636,432L588,432L588,420L564,420L564,408L552,408L552,384L564,384L564,372L576,372L576,348L564,348L564,324L552,324L552,312L540,312L540,252L552,252L552,228L564,228L564,204L552,204L552,180L528,180L528,168L504,168L504,156L480,156L480,144L468,144L468,132L444,132L444,120L384,120M660,264L660,264L648,264L648,288L636,288L636,312L624,312L624,360L636,360L636,372L648,372L648,384L672,384L672,396L708,396L708,384L720,384L720,372L732,372L732,360L720,360L720,336L696,336L696,312L684,312L684,288L672,288L672,276L660,276L660,264M372,576L372,576L360,576L360,588L348,588L348,600L324,600L324,612L300,612L300,624L276,624L276,636L264,636L264,660L252,660L252,636L240,636L240,660L204,660L204,684L252,684L252,696L264,696L264,684L300,684L300,708L336,708L336,696L348,696L348,708L360,708L360,696L396,696L396,708L408,708L408,696L432,696L432,684L468,684L468,672L480,672L480,648L504,648L504,624L492,624L492,612L480,612L480,600L468,600L468,588L408,588L408,576L372,576M708,732L708,732L744,732L744,744L720,744L720,756L732,756L732,768L720,768L720,780L744,780L744,792L708,792L708,732M756,732L756,732L780,732L780,744L768,744L768,756L780,756L780,744L792,744L792,756L780,756L780,768L768,768L768,780L780,780L780,768L792,768L792,780L780,780L780,792L756,792L756,732M804,732L804,732L816,732L816,756L828,756L828,732L840,732L840,792L828,792L828,768L804,768Z" class="road"></path><path d="M324,60L324,60L336,60L336,156L324,156Z" class="cp1"></path><path d="M720,516L720,516L840,516L840,528L720,528Z" class="cp2"></path><path d="M24,540L24,540L156,540L156,552L24,552Z" class="cp3"></path><path d="M120,192L120,192L144,192L144,204L120,204L120,192M168,204L168,204L192,204L192,216L168,216L168,204M120,216L120,216L144,216L144,228L120,228L120,216M168,228L168,228L192,228L192,240L168,240Z" class="start"></path><path d="M96,240L96,240L252,240L252,252L96,252L96,240M708,732L708,732L744,732L744,744L720,744L720,756L732,756L732,768L720,768L720,780L744,780L744,792L708,792L708,732M756,732L756,732L780,732L780,744L768,744L768,756L780,756L780,744L792,744L792,756L780,756L780,768L768,768L768,780L780,780L780,768L792,768L792,780L780,780L780,792L756,792L756,732M804,732L804,732L816,732L816,756L828,756L828,732L840,732L840,792L828,792L828,768L804,768Z" class="finish"></path></g>
 <rect opacity=".3" fill="url(#grid)" height="100%" width="100%" y="0" x="0"></rect>
</svg>