<svg xmlns:xlink="http://www.w3.org/1999/xlink" xmlns="http://www.w3.org/2000/svg" height="840" width="900" id="mapSvgView" version="1.1" style="width: 900px; height: 840px;" viewBox="0 0 900 840">
 <defs>
 <pattern y="0" x="0" height="24" width="24" patternUnits="userSpaceOnUse" id="grassPattern">
 <rect class="grasscolor" height="24" width="24" y="0" x="0"></rect>
 <rect class="grassspeclecolor" height="1" width="1" x="1" y="5"></rect>
 <rect class="grassspeclecolor" height="1" width="1" x="1" y="5"></rect>
 <rect class="grassspeclecolor" height="1" width="1" x="3" y="5"></rect>
 <rect class="grassspeclecolor" height="1" width="1" x="6" y="7"></rect>
 <rect class="grassspeclecolor" height="1" width="1" x="6" y="17"></rect>
 <rect class="grassspeclecolor" height="1" width="1" x="8" y="21"></rect>
 <rect class="grassspeclecolor" height="1" width="1" x="9" y="2"></rect>
 <rect class="grassspeclecolor" height="1" width="1" x="12" y="4"></rect>
 <rect class="grassspeclecolor" height="1" width="1" x="13" y="15"></rect>
 <rect class="grassspeclecolor" height="1" width="1" x="14" y="4"></rect>
 <rect class="grassspeclecolor" height="1" width="1" x="14" y="19"></rect>
 <rect class="grassspeclecolor" height="1" width="1" x="17" y="7"></rect>
 <rect class="grassspeclecolor" height="1" width="1" x="17" y="12"></rect>
 <rect class="grassspeclecolor" height="1" width="1" x="18" y="23"></rect>
 <rect class="grassspeclecolor" height="1" width="1" x="21" y="16"></rect>
 <rect class="grassspeclecolor" height="1" width="1" x="23" y="12"></rect>
 </pattern>
 <pattern y="0" x="0" height="24" width="24" patternUnits="userSpaceOnUse" id="roadPattern">
 <rect class="roadcolor" height="24" width="24" y="0" x="0"></rect>
 <rect class="roadspeclecolor" height="1" width="1" x="1" y="5"></rect>
 <rect class="roadspeclecolor" height="1" width="1" x="1" y="5"></rect>
 <rect class="roadspeclecolor" height="1" width="1" x="3" y="5"></rect>
 <rect class="roadspeclecolor" height="1" width="1" x="6" y="7"></rect>
 <rect class="roadspeclecolor" height="1" width="1" x="6" y="17"></rect>
 <rect class="roadspeclecolor" height="1" width="1" x="8" y="21"></rect>
 <rect class="roadspeclecolor" height="1" width="1" x="9" y="2"></rect>
 <rect class="roadspeclecolor" height="1" width="1" x="12" y="4"></rect>
 <rect class="roadspeclecolor" height="1" width="1" x="13" y="15"></rect>
 <rect class="roadspeclecolor" height="1" width="1" x="14" y="4"></rect>
 <rect class="roadspeclecolor" height="1" width="1" x="14" y="19"></rect>
 <rect class="roadspeclecolor" height="1" width="1" x="17" y="7"></rect>
 <rect class="roadspeclecolor" height="1" width="1" x="17" y="12"></rect>
 <rect class="roadspeclecolor" height="1" width="1" x="18" y="23"></rect>
 <rect class="roadspeclecolor" height="1" width="1" x="21" y="16"></rect>
 <rect class="roadspeclecolor" height="1" width="1" x="23" y="12"></rect>
 </pattern>
 <pattern y="0" x="0" height="12" width="12" patternUnits="userSpaceOnUse" id="grid">
 <line stroke-width="1" stroke="black" y2="12" x2="12" y1="0" x1="12"></line>
 <line stroke-width="1" stroke="black" y2="12" x2="12" y1="12" x1="0"></line>
 </pattern>
 <pattern y="0" x="0" height="12" width="12" patternUnits="userSpaceOnUse" id="finishPattern">
 <rect fill="black" height="12" width="12" y="0" x="0"></rect>
 <path fill="white" d="M0,0L3,0L3,3L0,3L0,0M6,0L9,0L9,3L6,3L6,0M3,3L6,3L6,6L3,6L3,3M9,3L12,3L12,6L9,6L9,3"></path>
 <path fill="white" d="M0,6L3,6L3,9L0,9L0,6M6,6L9,6L9,9L6,9L6,6M3,9L6,9L6,12L3,12L3,9M9,9L12,9L12,12L9,12L9,9"></path>
 </pattern>
 <pattern y="0" x="0" height="12" width="12" patternUnits="userSpaceOnUse" id="startPattern">
 <rect fill="rgb(100,100,100)" height="12" width="12" y="0" x="0"></rect>
 <rect stroke-width="1" stroke="rgb(200,200,200)" fill="none" height="5" width="5" y="3.5" x="3.5"></rect>
 </pattern>
 <pattern y="0" x="0" height="12" width="12" patternUnits="userSpaceOnUse" id="cp1pattern">
 <rect class="cp1color" height="12" width="12" y="0" x="0"></rect>
 <path fill="black" d="M0,0L3,0L3,3L0,3L0,0M6,0L9,0L9,3L6,3L6,0M3,3L6,3L6,6L3,6L3,3M9,3L12,3L12,6L9,6L9,3"></path>
 <path fill="black" d="M0,6L3,6L3,9L0,9L0,6M6,6L9,6L9,9L6,9L6,6M3,9L6,9L6,12L3,12L3,9M9,9L12,9L12,12L9,12L9,9"></path>
 </pattern>
 <pattern y="0" x="0" height="12" width="12" patternUnits="userSpaceOnUse" id="cp2pattern">
 <rect class="cp2color" height="12" width="12" y="0" x="0"></rect>
 <path fill="white" d="M0,0L3,0L3,3L0,3L0,0M6,0L9,0L9,3L6,3L6,0M3,3L6,3L6,6L3,6L3,3M9,3L12,3L12,6L9,6L9,3"></path>
 <path fill="white" d="M0,6L3,6L3,9L0,9L0,6M6,6L9,6L9,9L6,9L6,6M3,9L6,9L6,12L3,12L3,9M9,9L12,9L12,12L9,12L9,9"></path>
 </pattern>
 <pattern y="0" x="0" height="12" width="12" patternUnits="userSpaceOnUse" id="cp3pattern">
 <rect class="cp3color" height="12" width="12" y="0" x="0"></rect>
 <path fill="black" d="M0,0L3,0L3,3L0,3L0,0M6,0L9,0L9,3L6,3L6,0M3,3L6,3L6,6L3,6L3,3M9,3L12,3L12,6L9,6L9,3"></path>
 <path fill="black" d="M0,6L3,6L3,9L0,9L0,6M6,6L9,6L9,9L6,9L6,6M3,9L6,9L6,12L3,12L3,9M9,9L12,9L12,12L9,12L9,9"></path>
 </pattern>
 <pattern y="0" x="0" height="12" width="12" patternUnits="userSpaceOnUse" id="cp4pattern">
 <rect class="cp4color" height="12" width="12" y="0" x="0"></rect>
 <path fill="white" d="M0,0L3,0L3,3L0,3L0,0M6,0L9,0L9,3L6,3L6,0M3,3L6,3L6,6L3,6L3,3M9,3L12,3L12,6L9,6L9,3"></path>
 <path fill="white" d="M0,6L3,6L3,9L0,9L0,6M6,6L9,6L9,9L6,9L6,6M3,9L6,9L6,12L3,12L3,9M9,9L12,9L12,12L9,12L9,9"></path>
 </pattern>
 <pattern y="0" x="0" height="12" width="12" patternUnits="userSpaceOnUse" id="cp5pattern">
 <rect class="cp5color" height="12" width="12" y="0" x="0"></rect>
 <path fill="black" d="M0,0L3,0L3,3L0,3L0,0M6,0L9,0L9,3L6,3L6,0M3,3L6,3L6,6L3,6L3,3M9,3L12,3L12,6L9,6L9,3"></path>
 <path fill="black" d="M0,6L3,6L3,9L0,9L0,6M6,6L9,6L9,9L6,9L6,6M3,9L6,9L6,12L3,12L3,9M9,9L12,9L12,12L9,12L9,9"></path>
 </pattern>
 <pattern y="0" x="0" height="12" width="12" patternUnits="userSpaceOnUse" id="cp6pattern">
 <rect class="cp6color" height="12" width="12" y="0" x="0"></rect>
 <path fill="white" d="M0,0L3,0L3,3L0,3L0,0M6,0L9,0L9,3L6,3L6,0M3,3L6,3L6,6L3,6L3,3M9,3L12,3L12,6L9,6L9,3"></path>
 <path fill="white" d="M0,6L3,6L3,9L0,9L0,6M6,6L9,6L9,9L6,9L6,6M3,9L6,9L6,12L3,12L3,9M9,9L12,9L12,12L9,12L9,9"></path>
 </pattern>
 <pattern y="0" x="0" height="12" width="12" patternUnits="userSpaceOnUse" id="cp7pattern">
 <rect class="cp7color" height="12" width="12" y="0" x="0"></rect>
 <path fill="black" d="M0,0L3,0L3,3L0,3L0,0M6,0L9,0L9,3L6,3L6,0M3,3L6,3L6,6L3,6L3,3M9,3L12,3L12,6L9,6L9,3"></path>
 <path fill="black" d="M0,6L3,6L3,9L0,9L0,6M6,6L9,6L9,9L6,9L6,6M3,9L6,9L6,12L3,12L3,9M9,9L12,9L12,12L9,12L9,9"></path>
 </pattern>
 <pattern y="0" x="0" height="12" width="12" patternUnits="userSpaceOnUse" id="cp8pattern">
 <rect class="cp8color" height="12" width="12" y="0" x="0"></rect>
 <path fill="white" d="M0,0L3,0L3,3L0,3L0,0M6,0L9,0L9,3L6,3L6,0M3,3L6,3L6,6L3,6L3,3M9,3L12,3L12,6L9,6L9,3"></path>
 <path fill="white" d="M0,6L3,6L3,9L0,9L0,6M6,6L9,6L9,9L6,9L6,6M3,9L6,9L6,12L3,12L3,9M9,9L12,9L12,12L9,12L9,9"></path>
 </pattern>
 <pattern y="0" x="0" height="12" width="12" patternUnits="userSpaceOnUse" id="cp9pattern">
 <rect class="cp9color" height="12" width="12" y="0" x="0"></rect>
 <path fill="black" d="M0,0L3,0L3,3L0,3L0,0M6,0L9,0L9,3L6,3L6,0M3,3L6,3L6,6L3,6L3,3M9,3L12,3L12,6L9,6L9,3"></path>
 <path fill="black" d="M0,6L3,6L3,9L0,9L0,6M6,6L9,6L9,9L6,9L6,6M3,9L6,9L6,12L3,12L3,9M9,9L12,9L12,12L9,12L9,9"></path>
 </pattern>
 </defs>
 <rect height="100%" width="100%" y="0" x="0" class="grass" id="mainfill"></rect>
 <g id="paths"><path d="M12,12L12,12L168,12L168,24L348,24L348,36L336,36L336,48L348,48L348,36L360,36L360,24L528,24L528,36L708,36L708,12L888,12L888,600L828,600L828,828L552,828L552,300L408,300L408,612L444,612L444,816L60,816L60,684L72,684L72,660L60,660L60,648L48,648L48,612L60,612L60,600L48,600L48,540L60,540L60,528L72,528L72,408L84,408L84,300L96,300L96,288L108,288L108,240L12,240L12,12M372,36L372,36L360,36L360,48L348,48L348,60L336,60L336,72L348,72L348,60L360,60L360,48L372,48L372,36M264,48L264,48L252,48L252,60L264,60L264,48M276,60L276,60L264,60L264,72L252,72L252,84L192,84L192,288L180,288L180,300L156,300L156,288L144,288L144,300L132,300L132,288L120,288L120,300L96,300L96,312L120,312L120,300L132,300L132,312L144,312L144,300L156,300L156,312L180,312L180,300L192,300L192,288L204,288L204,300L192,300L192,312L204,312L204,300L216,300L216,372L228,372L228,384L204,384L204,372L192,372L192,384L180,384L180,372L168,372L168,384L156,384L156,396L144,396L144,408L132,408L132,396L120,396L120,408L108,408L108,396L96,396L96,408L84,408L84,420L96,420L96,408L108,408L108,420L120,420L120,408L132,408L132,420L144,420L144,408L156,408L156,396L168,396L168,384L180,384L180,396L168,396L168,408L156,408L156,420L144,420L144,456L156,456L156,444L168,444L168,408L180,408L180,396L192,396L192,384L204,384L204,396L192,396L192,408L204,408L204,396L216,396L216,408L228,408L228,384L252,384L252,396L240,396L240,408L252,408L252,396L264,396L264,408L276,408L276,468L264,468L264,444L240,444L240,456L228,456L228,444L216,444L216,456L204,456L204,444L192,444L192,468L180,468L180,480L168,480L168,456L156,456L156,468L144,468L144,492L156,492L156,480L168,480L168,492L204,492L204,480L192,480L192,468L204,468L204,480L216,480L216,456L228,456L228,480L216,480L216,492L228,492L228,516L240,516L240,492L252,492L252,468L240,468L240,456L252,456L252,468L264,468L264,492L252,492L252,516L240,516L240,528L228,528L228,552L216,552L216,540L192,540L192,564L204,564L204,552L216,552L216,564L228,564L228,552L240,552L240,540L252,540L252,516L264,516L264,540L252,540L252,552L240,552L240,564L264,564L264,540L276,540L276,564L264,564L264,636L252,636L252,612L228,612L228,624L216,624L216,612L204,612L204,624L192,624L192,660L180,660L180,672L168,672L168,660L144,660L144,684L120,684L120,672L108,672L108,660L84,660L84,684L72,684L72,696L84,696L84,684L96,684L96,672L108,672L108,684L96,684L96,696L108,696L108,684L120,684L120,696L144,696L144,684L156,684L156,672L168,672L168,684L156,684L156,696L180,696L180,672L192,672L192,744L216,744L216,648L204,648L204,624L216,624L216,648L228,648L228,660L240,660L240,636L228,636L228,624L240,624L240,636L252,636L252,660L264,660L264,636L276,636L276,744L372,744L372,180L648,180L648,708L756,708L756,540L816,540L816,96L708,96L708,72L528,72L528,84L372,84L372,72L348,72L348,84L264,84L264,72L276,72L276,60M624,240L624,240L612,240L612,732L624,732L624,240M588,276L588,276L576,276L576,768L588,768L588,276M180,444L180,444L168,444L168,456L180,456L180,444M672,468L672,468L708,468L708,480L684,480L684,492L696,492L696,504L684,504L684,516L708,516L708,528L672,528L672,468M720,468L720,468L744,468L744,480L732,480L732,492L744,492L744,480L756,480L756,492L744,492L744,504L732,504L732,516L744,516L744,504L756,504L756,516L744,516L744,528L720,528L720,468M768,468L768,468L780,468L780,492L792,492L792,468L804,468L804,528L792,528L792,504L768,504L768,468M108,504L108,504L96,504L96,516L84,516L84,528L72,528L72,540L96,540L96,516L108,516L108,504M132,504L132,504L120,504L120,516L108,516L108,540L132,540L132,528L120,528L120,516L132,516L132,528L144,528L144,504L132,504M72,588L72,588L60,588L60,600L72,600L72,588M96,588L96,588L84,588L84,600L72,600L72,612L84,612L84,600L96,600L96,588M120,588L120,588L108,588L108,600L96,600L96,612L108,612L108,600L120,600L120,588M132,660L132,660L120,660L120,672L132,672Z" class="road"></path><path d="M588,36L588,36L612,36L612,72L588,72Z" class="cp1"></path><path d="M108,252L108,252L192,252L192,276L108,276Z" class="cp2"></path><path d="M300,744L300,744L324,744L324,816L300,816Z" class="cp3"></path><path d="M372,336L372,336L408,336L408,360L372,360Z" class="cp4"></path><path d="M756,660L756,660L828,660L828,684L756,684Z" class="cp5"></path><path d="M828,288L828,288L852,288L852,300L828,300L828,288M852,300L852,300L876,300L876,312L852,312L852,300M852,312L852,312L852,324L828,324L828,312L852,312M852,324L852,324L876,324L876,336L852,336Z" class="start"></path><path d="M816,336L816,336L888,336L888,348L816,348L816,336M672,468L672,468L708,468L708,480L684,480L684,492L696,492L696,504L684,504L684,516L708,516L708,528L672,528L672,468M720,468L720,468L744,468L744,480L732,480L732,492L744,492L744,480L756,480L756,492L744,492L744,504L732,504L732,516L744,516L744,504L756,504L756,516L744,516L744,528L720,528L720,468M768,468L768,468L780,468L780,492L792,492L792,468L804,468L804,528L792,528L792,504L768,504Z" class="finish"></path></g>
 <rect opacity=".3" fill="url(#grid)" height="100%" width="100%" y="0" x="0"></rect>
</svg>