<svg xmlns:xlink="http://www.w3.org/1999/xlink" xmlns="http://www.w3.org/2000/svg" height="780" width="924" id="mapSvgView" version="1.1" style="width: 924px; height: 780px;" viewBox="0 0 924 780">
 <defs>
 <pattern y="0" x="0" height="24" width="24" patternUnits="userSpaceOnUse" id="grassPattern">
 <rect class="grasscolor" height="24" width="24" y="0" x="0"></rect>
 <rect class="grassspeclecolor" height="1" width="1" x="1" y="5"></rect>
 <rect class="grassspeclecolor" height="1" width="1" x="1" y="5"></rect>
 <rect class="grassspeclecolor" height="1" width="1" x="3" y="5"></rect>
 <rect class="grassspeclecolor" height="1" width="1" x="6" y="7"></rect>
 <rect class="grassspeclecolor" height="1" width="1" x="6" y="17"></rect>
 <rect class="grassspeclecolor" height="1" width="1" x="8" y="21"></rect>
 <rect class="grassspeclecolor" height="1" width="1" x="9" y="2"></rect>
 <rect class="grassspeclecolor" height="1" width="1" x="12" y="4"></rect>
 <rect class="grassspeclecolor" height="1" width="1" x="13" y="15"></rect>
 <rect class="grassspeclecolor" height="1" width="1" x="14" y="4"></rect>
 <rect class="grassspeclecolor" height="1" width="1" x="14" y="19"></rect>
 <rect class="grassspeclecolor" height="1" width="1" x="17" y="7"></rect>
 <rect class="grassspeclecolor" height="1" width="1" x="17" y="12"></rect>
 <rect class="grassspeclecolor" height="1" width="1" x="18" y="23"></rect>
 <rect class="grassspeclecolor" height="1" width="1" x="21" y="16"></rect>
 <rect class="grassspeclecolor" height="1" width="1" x="23" y="12"></rect>
 </pattern>
 <pattern y="0" x="0" height="24" width="24" patternUnits="userSpaceOnUse" id="roadPattern">
 <rect class="roadcolor" height="24" width="24" y="0" x="0"></rect>
 <rect class="roadspeclecolor" height="1" width="1" x="1" y="5"></rect>
 <rect class="roadspeclecolor" height="1" width="1" x="1" y="5"></rect>
 <rect class="roadspeclecolor" height="1" width="1" x="3" y="5"></rect>
 <rect class="roadspeclecolor" height="1" width="1" x="6" y="7"></rect>
 <rect class="roadspeclecolor" height="1" width="1" x="6" y="17"></rect>
 <rect class="roadspeclecolor" height="1" width="1" x="8" y="21"></rect>
 <rect class="roadspeclecolor" height="1" width="1" x="9" y="2"></rect>
 <rect class="roadspeclecolor" height="1" width="1" x="12" y="4"></rect>
 <rect class="roadspeclecolor" height="1" width="1" x="13" y="15"></rect>
 <rect class="roadspeclecolor" height="1" width="1" x="14" y="4"></rect>
 <rect class="roadspeclecolor" height="1" width="1" x="14" y="19"></rect>
 <rect class="roadspeclecolor" height="1" width="1" x="17" y="7"></rect>
 <rect class="roadspeclecolor" height="1" width="1" x="17" y="12"></rect>
 <rect class="roadspeclecolor" height="1" width="1" x="18" y="23"></rect>
 <rect class="roadspeclecolor" height="1" width="1" x="21" y="16"></rect>
 <rect class="roadspeclecolor" height="1" width="1" x="23" y="12"></rect>
 </pattern>
 <pattern y="0" x="0" height="12" width="12" patternUnits="userSpaceOnUse" id="grid">
 <line stroke-width="1" stroke="black" y2="12" x2="12" y1="0" x1="12"></line>
 <line stroke-width="1" stroke="black" y2="12" x2="12" y1="12" x1="0"></line>
 </pattern>
 <pattern y="0" x="0" height="12" width="12" patternUnits="userSpaceOnUse" id="finishPattern">
 <rect fill="black" height="12" width="12" y="0" x="0"></rect>
 <path fill="white" d="M0,0L3,0L3,3L0,3L0,0M6,0L9,0L9,3L6,3L6,0M3,3L6,3L6,6L3,6L3,3M9,3L12,3L12,6L9,6L9,3"></path>
 <path fill="white" d="M0,6L3,6L3,9L0,9L0,6M6,6L9,6L9,9L6,9L6,6M3,9L6,9L6,12L3,12L3,9M9,9L12,9L12,12L9,12L9,9"></path>
 </pattern>
 <pattern y="0" x="0" height="12" width="12" patternUnits="userSpaceOnUse" id="startPattern">
 <rect fill="rgb(100,100,100)" height="12" width="12" y="0" x="0"></rect>
 <rect stroke-width="1" stroke="rgb(200,200,200)" fill="none" height="5" width="5" y="3.5" x="3.5"></rect>
 </pattern>
 <pattern y="0" x="0" height="12" width="12" patternUnits="userSpaceOnUse" id="cp1pattern">
 <rect class="cp1color" height="12" width="12" y="0" x="0"></rect>
 <path fill="black" d="M0,0L3,0L3,3L0,3L0,0M6,0L9,0L9,3L6,3L6,0M3,3L6,3L6,6L3,6L3,3M9,3L12,3L12,6L9,6L9,3"></path>
 <path fill="black" d="M0,6L3,6L3,9L0,9L0,6M6,6L9,6L9,9L6,9L6,6M3,9L6,9L6,12L3,12L3,9M9,9L12,9L12,12L9,12L9,9"></path>
 </pattern>
 <pattern y="0" x="0" height="12" width="12" patternUnits="userSpaceOnUse" id="cp2pattern">
 <rect class="cp2color" height="12" width="12" y="0" x="0"></rect>
 <path fill="white" d="M0,0L3,0L3,3L0,3L0,0M6,0L9,0L9,3L6,3L6,0M3,3L6,3L6,6L3,6L3,3M9,3L12,3L12,6L9,6L9,3"></path>
 <path fill="white" d="M0,6L3,6L3,9L0,9L0,6M6,6L9,6L9,9L6,9L6,6M3,9L6,9L6,12L3,12L3,9M9,9L12,9L12,12L9,12L9,9"></path>
 </pattern>
 <pattern y="0" x="0" height="12" width="12" patternUnits="userSpaceOnUse" id="cp3pattern">
 <rect class="cp3color" height="12" width="12" y="0" x="0"></rect>
 <path fill="black" d="M0,0L3,0L3,3L0,3L0,0M6,0L9,0L9,3L6,3L6,0M3,3L6,3L6,6L3,6L3,3M9,3L12,3L12,6L9,6L9,3"></path>
 <path fill="black" d="M0,6L3,6L3,9L0,9L0,6M6,6L9,6L9,9L6,9L6,6M3,9L6,9L6,12L3,12L3,9M9,9L12,9L12,12L9,12L9,9"></path>
 </pattern>
 <pattern y="0" x="0" height="12" width="12" patternUnits="userSpaceOnUse" id="cp4pattern">
 <rect class="cp4color" height="12" width="12" y="0" x="0"></rect>
 <path fill="white" d="M0,0L3,0L3,3L0,3L0,0M6,0L9,0L9,3L6,3L6,0M3,3L6,3L6,6L3,6L3,3M9,3L12,3L12,6L9,6L9,3"></path>
 <path fill="white" d="M0,6L3,6L3,9L0,9L0,6M6,6L9,6L9,9L6,9L6,6M3,9L6,9L6,12L3,12L3,9M9,9L12,9L12,12L9,12L9,9"></path>
 </pattern>
 <pattern y="0" x="0" height="12" width="12" patternUnits="userSpaceOnUse" id="cp5pattern">
 <rect class="cp5color" height="12" width="12" y="0" x="0"></rect>
 <path fill="black" d="M0,0L3,0L3,3L0,3L0,0M6,0L9,0L9,3L6,3L6,0M3,3L6,3L6,6L3,6L3,3M9,3L12,3L12,6L9,6L9,3"></path>
 <path fill="black" d="M0,6L3,6L3,9L0,9L0,6M6,6L9,6L9,9L6,9L6,6M3,9L6,9L6,12L3,12L3,9M9,9L12,9L12,12L9,12L9,9"></path>
 </pattern>
 <pattern y="0" x="0" height="12" width="12" patternUnits="userSpaceOnUse" id="cp6pattern">
 <rect class="cp6color" height="12" width="12" y="0" x="0"></rect>
 <path fill="white" d="M0,0L3,0L3,3L0,3L0,0M6,0L9,0L9,3L6,3L6,0M3,3L6,3L6,6L3,6L3,3M9,3L12,3L12,6L9,6L9,3"></path>
 <path fill="white" d="M0,6L3,6L3,9L0,9L0,6M6,6L9,6L9,9L6,9L6,6M3,9L6,9L6,12L3,12L3,9M9,9L12,9L12,12L9,12L9,9"></path>
 </pattern>
 <pattern y="0" x="0" height="12" width="12" patternUnits="userSpaceOnUse" id="cp7pattern">
 <rect class="cp7color" height="12" width="12" y="0" x="0"></rect>
 <path fill="black" d="M0,0L3,0L3,3L0,3L0,0M6,0L9,0L9,3L6,3L6,0M3,3L6,3L6,6L3,6L3,3M9,3L12,3L12,6L9,6L9,3"></path>
 <path fill="black" d="M0,6L3,6L3,9L0,9L0,6M6,6L9,6L9,9L6,9L6,6M3,9L6,9L6,12L3,12L3,9M9,9L12,9L12,12L9,12L9,9"></path>
 </pattern>
 <pattern y="0" x="0" height="12" width="12" patternUnits="userSpaceOnUse" id="cp8pattern">
 <rect class="cp8color" height="12" width="12" y="0" x="0"></rect>
 <path fill="white" d="M0,0L3,0L3,3L0,3L0,0M6,0L9,0L9,3L6,3L6,0M3,3L6,3L6,6L3,6L3,3M9,3L12,3L12,6L9,6L9,3"></path>
 <path fill="white" d="M0,6L3,6L3,9L0,9L0,6M6,6L9,6L9,9L6,9L6,6M3,9L6,9L6,12L3,12L3,9M9,9L12,9L12,12L9,12L9,9"></path>
 </pattern>
 <pattern y="0" x="0" height="12" width="12" patternUnits="userSpaceOnUse" id="cp9pattern">
 <rect class="cp9color" height="12" width="12" y="0" x="0"></rect>
 <path fill="black" d="M0,0L3,0L3,3L0,3L0,0M6,0L9,0L9,3L6,3L6,0M3,3L6,3L6,6L3,6L3,3M9,3L12,3L12,6L9,6L9,3"></path>
 <path fill="black" d="M0,6L3,6L3,9L0,9L0,6M6,6L9,6L9,9L6,9L6,6M3,9L6,9L6,12L3,12L3,9M9,9L12,9L12,12L9,12L9,9"></path>
 </pattern>
 </defs>
 <rect height="100%" width="100%" y="0" x="0" class="grass" id="mainfill"></rect>
 <g id="paths"><path d="M540,12L540,12L600,12L600,24L612,24L612,36L756,36L756,48L780,48L780,60L804,60L804,72L816,72L816,84L840,84L840,132L828,132L828,156L852,156L852,180L840,180L840,192L816,192L816,204L792,204L792,228L780,228L780,240L804,240L804,264L828,264L828,276L852,276L852,288L876,288L876,300L888,300L888,360L876,360L876,384L864,384L864,408L852,408L852,432L876,432L876,456L888,456L888,480L900,480L900,504L912,504L912,528L900,528L900,540L888,540L888,564L876,564L876,576L864,576L864,588L840,588L840,600L828,600L828,612L816,612L816,624L804,624L804,636L792,636L792,648L780,648L780,660L756,660L756,672L720,672L720,684L708,684L708,696L696,696L696,708L648,708L648,720L636,720L636,732L612,732L612,744L552,744L552,696L456,696L456,720L444,720L444,708L432,708L432,696L420,696L420,708L360,708L360,696L300,696L300,708L288,708L288,720L276,720L276,732L252,732L252,744L216,744L216,756L180,756L180,768L132,768L132,756L84,756L84,744L48,744L48,708L36,708L36,648L24,648L24,636L12,636L12,576L36,576L36,564L48,564L48,552L60,552L60,540L72,540L72,516L96,516L96,504L108,504L108,480L96,480L96,432L84,432L84,420L72,420L72,384L60,384L60,348L48,348L48,324L60,324L60,312L72,312L72,300L84,300L84,276L96,276L96,216L108,216L108,192L120,192L120,144L132,144L132,120L144,120L144,108L156,108L156,96L180,96L180,84L228,84L228,72L276,72L276,60L324,60L324,48L348,48L348,36L372,36L372,24L408,24L408,36L420,36L420,48L432,48L432,60L456,60L456,72L468,72L468,60L480,60L480,48L492,48L492,36L504,36L504,24L540,24L540,12M612,108L612,108L600,108L600,120L576,120L576,132L540,132L540,144L504,144L504,132L480,132L480,120L456,120L456,132L276,132L276,144L264,144L264,156L240,156L240,168L228,168L228,180L216,180L216,192L204,192L204,228L192,228L192,264L180,264L180,276L192,276L192,336L204,336L204,360L216,360L216,396L204,396L204,444L192,444L192,480L204,480L204,540L192,540L192,564L180,564L180,612L192,612L192,624L252,624L252,612L276,612L276,600L360,600L360,576L372,576L372,588L420,588L420,600L432,600L432,624L444,624L444,636L456,636L456,648L552,648L552,624L576,624L576,612L588,612L588,600L672,600L672,588L732,588L732,576L744,576L744,552L756,552L756,528L720,528L720,492L732,492L732,480L744,480L744,468L756,468L756,444L768,444L768,432L780,432L780,408L768,408L768,372L732,372L732,348L720,348L720,336L708,336L708,324L696,324L696,300L684,300L684,288L696,288L696,264L708,264L708,252L720,252L720,240L744,240L744,228L732,228L732,204L720,204L720,192L708,192L708,180L696,180L696,168L684,168L684,156L672,156L672,144L660,144L660,132L648,132L648,120L624,120L624,108L612,108M876,252L876,252L900,252L900,276L876,276L876,252M84,612L84,612L72,612L72,636L60,636L60,672L48,672L48,696L72,696L72,708L60,708L60,732L96,732L96,744L108,744L108,732L120,732L120,744L144,744L144,756L156,756L156,708L180,708L180,696L144,696L144,684L132,684L132,672L120,672L120,660L132,660L132,636L96,636L96,624L84,624L84,612M636,648L636,648L624,648L624,660L612,660L612,684L636,684L636,696L660,696L660,684L672,684L672,696L684,696L684,672L672,672L672,660L660,660L660,648L636,648M780,708L780,708L816,708L816,720L792,720L792,732L804,732L804,744L792,744L792,756L816,756L816,768L780,768L780,708M828,708L828,708L852,708L852,720L840,720L840,732L852,732L852,720L864,720L864,732L852,732L852,744L840,744L840,756L852,756L852,744L864,744L864,756L852,756L852,768L828,768L828,708M876,708L876,708L888,708L888,732L900,732L900,708L912,708L912,768L900,768L900,744L876,744Z" class="road"></path><path d="M108,192L108,192L204,192L204,216L108,216Z" class="cp1"></path><path d="M708,324L708,324L888,324L888,348L720,348L720,336L708,336Z" class="cp2"></path><path d="M480,648L480,648L504,648L504,696L480,696Z" class="cp3"></path><path d="M96,348L96,348L120,348L120,360L96,360L96,348M144,360L144,360L168,360L168,372L144,372L144,360M96,372L96,372L120,372L120,384L96,384L96,372M144,384L144,384L168,384L168,396L144,396Z" class="start"></path><path d="M72,396L72,396L204,396L204,408L72,408L72,396M780,708L780,708L816,708L816,720L792,720L792,732L804,732L804,744L792,744L792,756L816,756L816,768L780,768L780,708M828,708L828,708L852,708L852,720L840,720L840,732L852,732L852,720L864,720L864,732L852,732L852,744L840,744L840,756L852,756L852,744L864,744L864,756L852,756L852,768L828,768L828,708M876,708L876,708L888,708L888,732L900,732L900,708L912,708L912,768L900,768L900,744L876,744Z" class="finish"></path></g>
 <rect opacity=".3" fill="url(#grid)" height="100%" width="100%" y="0" x="0"></rect>
</svg>