<svg xmlns="http://www.w3.org/2000/svg" xmlns:xlink="http://www.w3.org/1999/xlink" version="1.1" id="mapSvgView" width="888" height="804"> <rect id="mainfill" class="grass" x="0" y="0" width="100%" height="100%"></rect> <g id="paths"><path d="M396,336L396,336L420,336L420,396L396,396Z" class="cp1"></path><path d="M396,432L396,432L420,432L420,480L396,480Z" class="cp2"></path><path d="M456,636L456,636L480,636L480,672L456,672Z" class="cp3"></path><path d="M96,12L96,12L336,12L336,24L372,24L372,36L396,36L396,48L408,48L408,72L420,72L420,132L408,132L408,156L396,156L396,168L384,168L384,180L372,180L372,192L360,192L360,204L348,204L348,216L336,216L336,228L324,228L324,240L312,240L312,252L300,252L300,276L288,276L288,324L324,324L324,336L396,336L396,396L264,396L264,384L240,384L240,372L228,372L228,348L216,348L216,240L228,240L228,216L240,216L240,204L252,204L252,192L264,192L264,180L276,180L276,168L288,168L288,156L300,156L300,144L312,144L312,132L324,132L324,120L336,120L336,108L348,108L348,84L336,84L336,72L108,72L108,84L96,84L96,96L84,96L84,384L96,384L96,408L108,408L108,420L132,420L132,432L396,432L396,480L72,480L72,468L48,468L48,456L36,456L36,444L24,444L24,420L12,420L12,96L24,96L24,60L36,60L36,48L48,48L48,36L60,36L60,24L96,24L96,12M684,24L684,24L768,24L768,36L804,36L804,48L828,48L828,60L840,60L840,72L852,72L852,84L864,84L864,108L876,108L876,432L864,432L864,420L840,420L840,408L816,408L816,420L840,420L840,432L804,432L804,144L792,144L792,132L780,132L780,120L744,120L744,108L696,108L696,120L672,120L672,132L660,132L660,156L648,156L648,192L636,192L636,228L624,228L624,252L612,252L612,288L600,288L600,324L588,324L588,348L576,348L576,372L552,372L552,384L528,384L528,396L420,396L420,336L516,336L516,312L528,312L528,276L540,276L540,240L552,240L552,180L564,180L564,144L576,144L576,108L588,108L588,84L600,84L600,72L612,72L612,60L624,60L624,48L648,48L648,36L684,36L684,24M828,384L828,384L816,384L816,396L840,396L840,384L828,384M852,396L852,396L840,396L840,408L864,408L864,396L852,396M420,432L420,432L684,432L684,444L708,444L708,456L720,456L720,468L732,468L732,492L744,492L744,540L732,540L732,564L720,564L720,576L708,576L708,588L684,588L684,600L516,600L516,588L456,588L456,576L384,576L384,564L216,564L216,576L192,576L192,588L180,588L180,600L168,600L168,612L156,612L156,624L144,624L144,636L132,636L132,648L120,648L120,696L132,696L132,708L204,708L204,696L252,696L252,684L288,684L288,672L324,672L324,660L360,660L360,648L396,648L396,636L456,636L456,672L432,672L432,684L408,684L408,696L384,696L384,708L360,708L360,720L336,720L336,732L312,732L312,744L288,744L288,756L252,756L252,768L228,768L228,780L192,780L192,792L84,792L84,780L60,780L60,768L48,768L48,756L36,756L36,732L24,732L24,684L36,684L36,660L48,660L48,648L60,648L60,636L72,636L72,624L84,624L84,612L96,612L96,600L108,600L108,588L120,588L120,576L132,576L132,564L144,564L144,552L168,552L168,540L192,540L192,528L240,528L240,516L408,516L408,528L480,528L480,540L540,540L540,552L588,552L588,540L600,540L600,528L612,528L612,504L600,504L600,492L588,492L588,480L420,480L420,432M804,444L804,444L876,444L876,684L864,684L864,708L852,708L852,720L840,720L840,732L828,732L828,744L804,744L804,756L780,756L780,768L660,768L660,756L636,756L636,744L612,744L612,732L588,732L588,720L564,720L564,708L540,708L540,696L516,696L516,684L492,684L492,672L480,672L480,636L540,636L540,648L576,648L576,660L612,660L612,672L648,672L648,684L672,684L672,696L696,696L696,708L744,708L744,696L780,696L780,684L792,684L792,660L804,660Z" class="road"></path><path d="M816,384L816,384L840,384L840,396L816,396L816,384M840,396L840,396L864,396L864,408L840,408L840,396M840,408L840,408L840,420L816,420L816,408L840,408M840,420L840,420L864,420L864,432L840,432Z" class="start"></path><path d="M804,432L804,432L876,432L876,444L804,444L804,432M444,732L444,732L480,732L480,744L456,744L456,756L468,756L468,768L456,768L456,780L480,780L480,792L444,792L444,732M492,732L492,732L516,732L516,744L504,744L504,756L516,756L516,744L528,744L528,756L516,756L516,768L504,768L504,780L516,780L516,768L528,768L528,780L516,780L516,792L492,792L492,732M540,732L540,732L552,732L552,756L564,756L564,732L576,732L576,792L564,792L564,768L540,768Z" class="finish"></path></g></svg>