<svg xmlns:xlink="http://www.w3.org/1999/xlink" xmlns="http://www.w3.org/2000/svg" height="792" width="864" id="mapSvgView" version="1.1" style="width: 864px; height: 792px;" viewBox="0 0 864 792">
 <defs>
 <pattern y="0" x="0" height="24" width="24" patternUnits="userSpaceOnUse" id="grassPattern">
 <rect class="grasscolor" height="24" width="24" y="0" x="0"></rect>
 <rect class="grassspeclecolor" height="1" width="1" x="1" y="5"></rect>
 <rect class="grassspeclecolor" height="1" width="1" x="1" y="5"></rect>
 <rect class="grassspeclecolor" height="1" width="1" x="3" y="5"></rect>
 <rect class="grassspeclecolor" height="1" width="1" x="6" y="7"></rect>
 <rect class="grassspeclecolor" height="1" width="1" x="6" y="17"></rect>
 <rect class="grassspeclecolor" height="1" width="1" x="8" y="21"></rect>
 <rect class="grassspeclecolor" height="1" width="1" x="9" y="2"></rect>
 <rect class="grassspeclecolor" height="1" width="1" x="12" y="4"></rect>
 <rect class="grassspeclecolor" height="1" width="1" x="13" y="15"></rect>
 <rect class="grassspeclecolor" height="1" width="1" x="14" y="4"></rect>
 <rect class="grassspeclecolor" height="1" width="1" x="14" y="19"></rect>
 <rect class="grassspeclecolor" height="1" width="1" x="17" y="7"></rect>
 <rect class="grassspeclecolor" height="1" width="1" x="17" y="12"></rect>
 <rect class="grassspeclecolor" height="1" width="1" x="18" y="23"></rect>
 <rect class="grassspeclecolor" height="1" width="1" x="21" y="16"></rect>
 <rect class="grassspeclecolor" height="1" width="1" x="23" y="12"></rect>
 </pattern>
 <pattern y="0" x="0" height="24" width="24" patternUnits="userSpaceOnUse" id="roadPattern">
 <rect class="roadcolor" height="24" width="24" y="0" x="0"></rect>
 <rect class="roadspeclecolor" height="1" width="1" x="1" y="5"></rect>
 <rect class="roadspeclecolor" height="1" width="1" x="1" y="5"></rect>
 <rect class="roadspeclecolor" height="1" width="1" x="3" y="5"></rect>
 <rect class="roadspeclecolor" height="1" width="1" x="6" y="7"></rect>
 <rect class="roadspeclecolor" height="1" width="1" x="6" y="17"></rect>
 <rect class="roadspeclecolor" height="1" width="1" x="8" y="21"></rect>
 <rect class="roadspeclecolor" height="1" width="1" x="9" y="2"></rect>
 <rect class="roadspeclecolor" height="1" width="1" x="12" y="4"></rect>
 <rect class="roadspeclecolor" height="1" width="1" x="13" y="15"></rect>
 <rect class="roadspeclecolor" height="1" width="1" x="14" y="4"></rect>
 <rect class="roadspeclecolor" height="1" width="1" x="14" y="19"></rect>
 <rect class="roadspeclecolor" height="1" width="1" x="17" y="7"></rect>
 <rect class="roadspeclecolor" height="1" width="1" x="17" y="12"></rect>
 <rect class="roadspeclecolor" height="1" width="1" x="18" y="23"></rect>
 <rect class="roadspeclecolor" height="1" width="1" x="21" y="16"></rect>
 <rect class="roadspeclecolor" height="1" width="1" x="23" y="12"></rect>
 </pattern>
 <pattern y="0" x="0" height="12" width="12" patternUnits="userSpaceOnUse" id="grid">
 <line stroke-width="1" stroke="black" y2="12" x2="12" y1="0" x1="12"></line>
 <line stroke-width="1" stroke="black" y2="12" x2="12" y1="12" x1="0"></line>
 </pattern>
 <pattern y="0" x="0" height="12" width="12" patternUnits="userSpaceOnUse" id="finishPattern">
 <rect fill="black" height="12" width="12" y="0" x="0"></rect>
 <path fill="white" d="M0,0L3,0L3,3L0,3L0,0M6,0L9,0L9,3L6,3L6,0M3,3L6,3L6,6L3,6L3,3M9,3L12,3L12,6L9,6L9,3"></path>
 <path fill="white" d="M0,6L3,6L3,9L0,9L0,6M6,6L9,6L9,9L6,9L6,6M3,9L6,9L6,12L3,12L3,9M9,9L12,9L12,12L9,12L9,9"></path>
 </pattern>
 <pattern y="0" x="0" height="12" width="12" patternUnits="userSpaceOnUse" id="startPattern">
 <rect fill="rgb(100,100,100)" height="12" width="12" y="0" x="0"></rect>
 <rect stroke-width="1" stroke="rgb(200,200,200)" fill="none" height="5" width="5" y="3.5" x="3.5"></rect>
 </pattern>
 <pattern y="0" x="0" height="12" width="12" patternUnits="userSpaceOnUse" id="cp1pattern">
 <rect class="cp1color" height="12" width="12" y="0" x="0"></rect>
 <path fill="black" d="M0,0L3,0L3,3L0,3L0,0M6,0L9,0L9,3L6,3L6,0M3,3L6,3L6,6L3,6L3,3M9,3L12,3L12,6L9,6L9,3"></path>
 <path fill="black" d="M0,6L3,6L3,9L0,9L0,6M6,6L9,6L9,9L6,9L6,6M3,9L6,9L6,12L3,12L3,9M9,9L12,9L12,12L9,12L9,9"></path>
 </pattern>
 <pattern y="0" x="0" height="12" width="12" patternUnits="userSpaceOnUse" id="cp2pattern">
 <rect class="cp2color" height="12" width="12" y="0" x="0"></rect>
 <path fill="white" d="M0,0L3,0L3,3L0,3L0,0M6,0L9,0L9,3L6,3L6,0M3,3L6,3L6,6L3,6L3,3M9,3L12,3L12,6L9,6L9,3"></path>
 <path fill="white" d="M0,6L3,6L3,9L0,9L0,6M6,6L9,6L9,9L6,9L6,6M3,9L6,9L6,12L3,12L3,9M9,9L12,9L12,12L9,12L9,9"></path>
 </pattern>
 <pattern y="0" x="0" height="12" width="12" patternUnits="userSpaceOnUse" id="cp3pattern">
 <rect class="cp3color" height="12" width="12" y="0" x="0"></rect>
 <path fill="black" d="M0,0L3,0L3,3L0,3L0,0M6,0L9,0L9,3L6,3L6,0M3,3L6,3L6,6L3,6L3,3M9,3L12,3L12,6L9,6L9,3"></path>
 <path fill="black" d="M0,6L3,6L3,9L0,9L0,6M6,6L9,6L9,9L6,9L6,6M3,9L6,9L6,12L3,12L3,9M9,9L12,9L12,12L9,12L9,9"></path>
 </pattern>
 <pattern y="0" x="0" height="12" width="12" patternUnits="userSpaceOnUse" id="cp4pattern">
 <rect class="cp4color" height="12" width="12" y="0" x="0"></rect>
 <path fill="white" d="M0,0L3,0L3,3L0,3L0,0M6,0L9,0L9,3L6,3L6,0M3,3L6,3L6,6L3,6L3,3M9,3L12,3L12,6L9,6L9,3"></path>
 <path fill="white" d="M0,6L3,6L3,9L0,9L0,6M6,6L9,6L9,9L6,9L6,6M3,9L6,9L6,12L3,12L3,9M9,9L12,9L12,12L9,12L9,9"></path>
 </pattern>
 <pattern y="0" x="0" height="12" width="12" patternUnits="userSpaceOnUse" id="cp5pattern">
 <rect class="cp5color" height="12" width="12" y="0" x="0"></rect>
 <path fill="black" d="M0,0L3,0L3,3L0,3L0,0M6,0L9,0L9,3L6,3L6,0M3,3L6,3L6,6L3,6L3,3M9,3L12,3L12,6L9,6L9,3"></path>
 <path fill="black" d="M0,6L3,6L3,9L0,9L0,6M6,6L9,6L9,9L6,9L6,6M3,9L6,9L6,12L3,12L3,9M9,9L12,9L12,12L9,12L9,9"></path>
 </pattern>
 <pattern y="0" x="0" height="12" width="12" patternUnits="userSpaceOnUse" id="cp6pattern">
 <rect class="cp6color" height="12" width="12" y="0" x="0"></rect>
 <path fill="white" d="M0,0L3,0L3,3L0,3L0,0M6,0L9,0L9,3L6,3L6,0M3,3L6,3L6,6L3,6L3,3M9,3L12,3L12,6L9,6L9,3"></path>
 <path fill="white" d="M0,6L3,6L3,9L0,9L0,6M6,6L9,6L9,9L6,9L6,6M3,9L6,9L6,12L3,12L3,9M9,9L12,9L12,12L9,12L9,9"></path>
 </pattern>
 <pattern y="0" x="0" height="12" width="12" patternUnits="userSpaceOnUse" id="cp7pattern">
 <rect class="cp7color" height="12" width="12" y="0" x="0"></rect>
 <path fill="black" d="M0,0L3,0L3,3L0,3L0,0M6,0L9,0L9,3L6,3L6,0M3,3L6,3L6,6L3,6L3,3M9,3L12,3L12,6L9,6L9,3"></path>
 <path fill="black" d="M0,6L3,6L3,9L0,9L0,6M6,6L9,6L9,9L6,9L6,6M3,9L6,9L6,12L3,12L3,9M9,9L12,9L12,12L9,12L9,9"></path>
 </pattern>
 <pattern y="0" x="0" height="12" width="12" patternUnits="userSpaceOnUse" id="cp8pattern">
 <rect class="cp8color" height="12" width="12" y="0" x="0"></rect>
 <path fill="white" d="M0,0L3,0L3,3L0,3L0,0M6,0L9,0L9,3L6,3L6,0M3,3L6,3L6,6L3,6L3,3M9,3L12,3L12,6L9,6L9,3"></path>
 <path fill="white" d="M0,6L3,6L3,9L0,9L0,6M6,6L9,6L9,9L6,9L6,6M3,9L6,9L6,12L3,12L3,9M9,9L12,9L12,12L9,12L9,9"></path>
 </pattern>
 <pattern y="0" x="0" height="12" width="12" patternUnits="userSpaceOnUse" id="cp9pattern">
 <rect class="cp9color" height="12" width="12" y="0" x="0"></rect>
 <path fill="black" d="M0,0L3,0L3,3L0,3L0,0M6,0L9,0L9,3L6,3L6,0M3,3L6,3L6,6L3,6L3,3M9,3L12,3L12,6L9,6L9,3"></path>
 <path fill="black" d="M0,6L3,6L3,9L0,9L0,6M6,6L9,6L9,9L6,9L6,6M3,9L6,9L6,12L3,12L3,9M9,9L12,9L12,12L9,12L9,9"></path>
 </pattern>
 </defs>
 <rect height="100%" width="100%" y="0" x="0" class="grass" id="mainfill"></rect>
 <g id="paths"><path d="M144,12L144,12L240,12L240,24L252,24L252,36L264,36L264,24L624,24L624,12L708,12L708,24L744,24L744,36L768,36L768,48L780,48L780,60L792,60L792,72L804,72L804,96L816,96L816,108L828,108L828,156L840,156L840,240L828,240L828,252L792,252L792,264L768,264L768,276L744,276L744,288L444,288L444,276L432,276L432,264L420,264L420,276L432,276L432,288L336,288L336,300L324,300L324,312L312,312L312,336L324,336L324,360L336,360L336,384L348,384L348,396L372,396L372,408L492,408L492,420L504,420L504,432L516,432L516,444L528,444L528,468L540,468L540,480L552,480L552,492L564,492L564,504L588,504L588,516L720,516L720,528L756,528L756,540L792,540L792,552L816,552L816,564L828,564L828,576L840,576L840,588L852,588L852,636L840,636L840,660L828,660L828,672L804,672L804,684L792,684L792,696L684,696L684,684L588,684L588,696L552,696L552,684L432,684L432,672L420,672L420,660L408,660L408,648L384,648L384,636L372,636L372,624L348,624L348,612L324,612L324,624L312,624L312,636L300,636L300,660L288,660L288,684L276,684L276,708L264,708L264,744L252,744L252,756L240,756L240,768L228,768L228,780L192,780L192,768L168,768L168,780L132,780L132,768L96,768L96,756L72,756L72,744L60,744L60,720L48,720L48,696L36,696L36,684L48,684L48,660L36,660L36,636L24,636L24,492L12,492L12,288L24,288L24,252L36,252L36,216L48,216L48,204L60,204L60,180L72,180L72,168L84,168L84,156L96,156L96,144L108,144L108,96L96,96L96,48L108,48L108,36L132,36L132,24L144,24L144,12M168,48L168,48L156,48L156,60L144,60L144,132L132,132L132,156L120,156L120,168L108,168L108,180L96,180L96,192L84,192L84,216L72,216L72,228L60,228L60,264L48,264L48,288L60,288L60,312L72,312L72,324L84,324L84,336L96,336L96,348L108,348L108,360L120,360L120,612L132,612L132,636L144,636L144,648L156,648L156,660L192,660L192,648L204,648L204,636L216,636L216,612L228,612L228,564L240,564L240,540L252,540L252,528L264,528L264,516L276,516L276,504L312,504L312,492L336,492L336,504L360,504L360,516L372,516L372,528L384,528L384,540L396,540L396,552L408,552L408,576L420,576L420,588L432,588L432,600L444,600L444,624L456,624L456,636L732,636L732,612L744,612L744,600L756,600L756,576L744,576L744,564L732,564L732,552L708,552L708,540L600,540L600,528L552,528L552,516L528,516L528,504L516,504L516,492L504,492L504,468L492,468L492,444L468,444L468,432L408,432L408,444L372,444L372,432L324,432L324,420L312,420L312,408L300,408L300,396L288,396L288,384L276,384L276,372L264,372L264,360L252,360L252,348L240,348L240,336L228,336L228,288L240,288L240,276L264,276L264,264L288,264L288,252L432,252L432,264L444,264L444,252L672,252L672,264L684,264L684,252L732,252L732,240L744,240L744,216L756,216L756,132L744,132L744,108L732,108L732,96L720,96L720,84L708,84L708,72L696,72L696,60L636,60L636,48L612,48L612,60L564,60L564,72L492,72L492,60L480,60L480,48L468,48L468,60L456,60L456,72L264,72L264,60L216,60L216,48L168,48M456,264L456,264L444,264L444,276L456,276L456,264M720,720L720,720L756,720L756,732L732,732L732,744L744,744L744,756L732,756L732,768L756,768L756,780L720,780L720,720M768,720L768,720L792,720L792,732L780,732L780,744L792,744L792,732L804,732L804,744L792,744L792,756L780,756L780,768L792,768L792,756L804,756L804,768L792,768L792,780L768,780L768,720M816,720L816,720L828,720L828,744L840,744L840,720L852,720L852,780L840,780L840,756L816,756Z" class="road"></path><path d="M348,24L348,24L372,24L372,72L348,72Z" class="cp1"></path><path d="M252,348L252,348L324,348L324,360L336,360L336,372L264,372L264,360L252,360Z" class="cp2"></path><path d="M624,636L624,636L648,636L648,684L624,684Z" class="cp3"></path><path d="M0,0L0,0L12,0L12,96L0,96Z" class="parc"></path><path d="M24,396L24,396L48,396L48,408L24,408L24,396M72,408L72,408L96,408L96,420L72,420L72,408M24,420L24,420L48,420L48,432L24,432L24,420M72,432L72,432L96,432L96,444L72,444Z" class="start"></path><path d="M12,444L12,444L120,444L120,456L12,456L12,444M720,720L720,720L756,720L756,732L732,732L732,744L744,744L744,756L732,756L732,768L756,768L756,780L720,780L720,720M768,720L768,720L792,720L792,732L780,732L780,744L792,744L792,732L804,732L804,744L792,744L792,756L780,756L780,768L792,768L792,756L804,756L804,768L792,768L792,780L768,780L768,720M816,720L816,720L828,720L828,744L840,744L840,720L852,720L852,780L840,780L840,756L816,756Z" class="finish"></path></g>
 <rect opacity=".3" fill="url(#grid)" height="100%" width="100%" y="0" x="0"></rect>
</svg>