<svg xmlns="http://www.w3.org/2000/svg" xmlns:xlink="http://www.w3.org/1999/xlink" version="1.1" id="mapSvgView" width="912" height="828"> <rect id="mainfill" class="grass" x="0" y="0" width="100%" height="100%"></rect> <g id="paths"><path d="M288,12L288,12L300,12L300,72L288,72Z" class="cp1"></path><path d="M576,312L576,312L648,312L648,336L576,336Z" class="cp2"></path><path d="M624,540L624,540L660,540L660,564L624,564L624,540M624,600L624,600L660,600L660,624L624,624Z" class="cp3"></path><path d="M540,744L540,744L576,744L576,756L540,756L540,744M540,804L540,804L576,804L576,816L540,816Z" class="cp4"></path><path d="M12,12L12,12L288,12L288,96L276,96L276,120L96,120L96,300L84,300L84,288L60,288L60,300L12,300L12,12M300,12L300,12L900,12L900,276L720,276L720,324L648,324L648,312L576,312L576,252L648,252L648,156L684,156L684,192L720,192L720,180L768,180L768,192L780,192L780,120L324,120L324,96L312,96L312,84L300,84L300,12M36,252L36,252L24,252L24,264L48,264L48,252L36,252M72,264L72,264L60,264L60,276L84,276L84,264L72,264M36,276L36,276L24,276L24,288L48,288L48,276L36,276M12,312L12,312L96,312L96,612L108,612L108,624L168,624L168,636L180,636L180,648L192,648L192,660L204,660L204,672L324,672L324,696L336,696L336,708L348,708L348,720L360,720L360,732L372,732L372,744L444,744L444,768L492,768L492,744L540,744L540,768L528,768L528,792L540,792L540,816L384,816L384,804L372,804L372,792L360,792L360,780L348,780L348,768L336,768L336,756L324,756L324,744L216,744L216,732L204,732L204,720L192,720L192,708L180,708L180,696L168,696L168,672L12,672L12,312M228,324L228,324L576,324L576,336L648,336L648,396L372,396L372,408L360,408L360,468L372,468L372,480L480,480L480,492L492,492L492,504L504,504L504,516L516,516L516,528L528,528L528,540L624,540L624,624L516,624L516,612L504,612L504,600L492,600L492,588L480,588L480,576L468,576L468,564L276,564L276,540L264,540L264,528L240,528L240,540L228,540L228,324M660,540L660,540L900,540L900,816L576,816L576,792L588,792L588,768L576,768L576,744L792,744L792,624L660,624L660,540M684,756L684,756L672,756L672,780L732,780L732,756Z" class="road"></path><path d="M24,252L24,252L48,252L48,264L24,264L24,252M60,264L60,264L84,264L84,276L60,276L60,264M24,276L24,276L48,276L48,288L24,288L24,276M60,288L60,288L84,288L84,300L60,300Z" class="start"></path><path d="M12,300L12,300L96,300L96,312L12,312L12,300M12,756L12,756L48,756L48,768L24,768L24,780L36,780L36,792L24,792L24,804L48,804L48,816L12,816L12,756M60,756L60,756L84,756L84,768L72,768L72,780L84,780L84,768L96,768L96,780L84,780L84,792L72,792L72,804L84,804L84,792L96,792L96,804L84,804L84,816L60,816L60,756M108,756L108,756L120,756L120,780L132,780L132,756L144,756L144,816L132,816L132,792L108,792Z" class="finish"></path></g></svg>