<svg xmlns:xlink="http://www.w3.org/1999/xlink" xmlns="http://www.w3.org/2000/svg" height="792" width="888" id="mapSvgView" version="1.1" style="width: 888px; height: 792px;" viewBox="0 0 888 792">
 <defs>
 <pattern y="0" x="0" height="24" width="24" patternUnits="userSpaceOnUse" id="grassPattern">
 <rect class="grasscolor" height="24" width="24" y="0" x="0"></rect>
 <rect class="grassspeclecolor" height="1" width="1" x="1" y="5"></rect>
 <rect class="grassspeclecolor" height="1" width="1" x="1" y="5"></rect>
 <rect class="grassspeclecolor" height="1" width="1" x="3" y="5"></rect>
 <rect class="grassspeclecolor" height="1" width="1" x="6" y="7"></rect>
 <rect class="grassspeclecolor" height="1" width="1" x="6" y="17"></rect>
 <rect class="grassspeclecolor" height="1" width="1" x="8" y="21"></rect>
 <rect class="grassspeclecolor" height="1" width="1" x="9" y="2"></rect>
 <rect class="grassspeclecolor" height="1" width="1" x="12" y="4"></rect>
 <rect class="grassspeclecolor" height="1" width="1" x="13" y="15"></rect>
 <rect class="grassspeclecolor" height="1" width="1" x="14" y="4"></rect>
 <rect class="grassspeclecolor" height="1" width="1" x="14" y="19"></rect>
 <rect class="grassspeclecolor" height="1" width="1" x="17" y="7"></rect>
 <rect class="grassspeclecolor" height="1" width="1" x="17" y="12"></rect>
 <rect class="grassspeclecolor" height="1" width="1" x="18" y="23"></rect>
 <rect class="grassspeclecolor" height="1" width="1" x="21" y="16"></rect>
 <rect class="grassspeclecolor" height="1" width="1" x="23" y="12"></rect>
 </pattern>
 <pattern y="0" x="0" height="24" width="24" patternUnits="userSpaceOnUse" id="roadPattern">
 <rect class="roadcolor" height="24" width="24" y="0" x="0"></rect>
 <rect class="roadspeclecolor" height="1" width="1" x="1" y="5"></rect>
 <rect class="roadspeclecolor" height="1" width="1" x="1" y="5"></rect>
 <rect class="roadspeclecolor" height="1" width="1" x="3" y="5"></rect>
 <rect class="roadspeclecolor" height="1" width="1" x="6" y="7"></rect>
 <rect class="roadspeclecolor" height="1" width="1" x="6" y="17"></rect>
 <rect class="roadspeclecolor" height="1" width="1" x="8" y="21"></rect>
 <rect class="roadspeclecolor" height="1" width="1" x="9" y="2"></rect>
 <rect class="roadspeclecolor" height="1" width="1" x="12" y="4"></rect>
 <rect class="roadspeclecolor" height="1" width="1" x="13" y="15"></rect>
 <rect class="roadspeclecolor" height="1" width="1" x="14" y="4"></rect>
 <rect class="roadspeclecolor" height="1" width="1" x="14" y="19"></rect>
 <rect class="roadspeclecolor" height="1" width="1" x="17" y="7"></rect>
 <rect class="roadspeclecolor" height="1" width="1" x="17" y="12"></rect>
 <rect class="roadspeclecolor" height="1" width="1" x="18" y="23"></rect>
 <rect class="roadspeclecolor" height="1" width="1" x="21" y="16"></rect>
 <rect class="roadspeclecolor" height="1" width="1" x="23" y="12"></rect>
 </pattern>
 <pattern y="0" x="0" height="12" width="12" patternUnits="userSpaceOnUse" id="grid">
 <line stroke-width="1" stroke="black" y2="12" x2="12" y1="0" x1="12"></line>
 <line stroke-width="1" stroke="black" y2="12" x2="12" y1="12" x1="0"></line>
 </pattern>
 <pattern y="0" x="0" height="12" width="12" patternUnits="userSpaceOnUse" id="finishPattern">
 <rect fill="black" height="12" width="12" y="0" x="0"></rect>
 <path fill="white" d="M0,0L3,0L3,3L0,3L0,0M6,0L9,0L9,3L6,3L6,0M3,3L6,3L6,6L3,6L3,3M9,3L12,3L12,6L9,6L9,3"></path>
 <path fill="white" d="M0,6L3,6L3,9L0,9L0,6M6,6L9,6L9,9L6,9L6,6M3,9L6,9L6,12L3,12L3,9M9,9L12,9L12,12L9,12L9,9"></path>
 </pattern>
 <pattern y="0" x="0" height="12" width="12" patternUnits="userSpaceOnUse" id="startPattern">
 <rect fill="rgb(100,100,100)" height="12" width="12" y="0" x="0"></rect>
 <rect stroke-width="1" stroke="rgb(200,200,200)" fill="none" height="5" width="5" y="3.5" x="3.5"></rect>
 </pattern>
 <pattern y="0" x="0" height="12" width="12" patternUnits="userSpaceOnUse" id="cp1pattern">
 <rect class="cp1color" height="12" width="12" y="0" x="0"></rect>
 <path fill="black" d="M0,0L3,0L3,3L0,3L0,0M6,0L9,0L9,3L6,3L6,0M3,3L6,3L6,6L3,6L3,3M9,3L12,3L12,6L9,6L9,3"></path>
 <path fill="black" d="M0,6L3,6L3,9L0,9L0,6M6,6L9,6L9,9L6,9L6,6M3,9L6,9L6,12L3,12L3,9M9,9L12,9L12,12L9,12L9,9"></path>
 </pattern>
 <pattern y="0" x="0" height="12" width="12" patternUnits="userSpaceOnUse" id="cp2pattern">
 <rect class="cp2color" height="12" width="12" y="0" x="0"></rect>
 <path fill="white" d="M0,0L3,0L3,3L0,3L0,0M6,0L9,0L9,3L6,3L6,0M3,3L6,3L6,6L3,6L3,3M9,3L12,3L12,6L9,6L9,3"></path>
 <path fill="white" d="M0,6L3,6L3,9L0,9L0,6M6,6L9,6L9,9L6,9L6,6M3,9L6,9L6,12L3,12L3,9M9,9L12,9L12,12L9,12L9,9"></path>
 </pattern>
 <pattern y="0" x="0" height="12" width="12" patternUnits="userSpaceOnUse" id="cp3pattern">
 <rect class="cp3color" height="12" width="12" y="0" x="0"></rect>
 <path fill="black" d="M0,0L3,0L3,3L0,3L0,0M6,0L9,0L9,3L6,3L6,0M3,3L6,3L6,6L3,6L3,3M9,3L12,3L12,6L9,6L9,3"></path>
 <path fill="black" d="M0,6L3,6L3,9L0,9L0,6M6,6L9,6L9,9L6,9L6,6M3,9L6,9L6,12L3,12L3,9M9,9L12,9L12,12L9,12L9,9"></path>
 </pattern>
 <pattern y="0" x="0" height="12" width="12" patternUnits="userSpaceOnUse" id="cp4pattern">
 <rect class="cp4color" height="12" width="12" y="0" x="0"></rect>
 <path fill="white" d="M0,0L3,0L3,3L0,3L0,0M6,0L9,0L9,3L6,3L6,0M3,3L6,3L6,6L3,6L3,3M9,3L12,3L12,6L9,6L9,3"></path>
 <path fill="white" d="M0,6L3,6L3,9L0,9L0,6M6,6L9,6L9,9L6,9L6,6M3,9L6,9L6,12L3,12L3,9M9,9L12,9L12,12L9,12L9,9"></path>
 </pattern>
 <pattern y="0" x="0" height="12" width="12" patternUnits="userSpaceOnUse" id="cp5pattern">
 <rect class="cp5color" height="12" width="12" y="0" x="0"></rect>
 <path fill="black" d="M0,0L3,0L3,3L0,3L0,0M6,0L9,0L9,3L6,3L6,0M3,3L6,3L6,6L3,6L3,3M9,3L12,3L12,6L9,6L9,3"></path>
 <path fill="black" d="M0,6L3,6L3,9L0,9L0,6M6,6L9,6L9,9L6,9L6,6M3,9L6,9L6,12L3,12L3,9M9,9L12,9L12,12L9,12L9,9"></path>
 </pattern>
 <pattern y="0" x="0" height="12" width="12" patternUnits="userSpaceOnUse" id="cp6pattern">
 <rect class="cp6color" height="12" width="12" y="0" x="0"></rect>
 <path fill="white" d="M0,0L3,0L3,3L0,3L0,0M6,0L9,0L9,3L6,3L6,0M3,3L6,3L6,6L3,6L3,3M9,3L12,3L12,6L9,6L9,3"></path>
 <path fill="white" d="M0,6L3,6L3,9L0,9L0,6M6,6L9,6L9,9L6,9L6,6M3,9L6,9L6,12L3,12L3,9M9,9L12,9L12,12L9,12L9,9"></path>
 </pattern>
 <pattern y="0" x="0" height="12" width="12" patternUnits="userSpaceOnUse" id="cp7pattern">
 <rect class="cp7color" height="12" width="12" y="0" x="0"></rect>
 <path fill="black" d="M0,0L3,0L3,3L0,3L0,0M6,0L9,0L9,3L6,3L6,0M3,3L6,3L6,6L3,6L3,3M9,3L12,3L12,6L9,6L9,3"></path>
 <path fill="black" d="M0,6L3,6L3,9L0,9L0,6M6,6L9,6L9,9L6,9L6,6M3,9L6,9L6,12L3,12L3,9M9,9L12,9L12,12L9,12L9,9"></path>
 </pattern>
 <pattern y="0" x="0" height="12" width="12" patternUnits="userSpaceOnUse" id="cp8pattern">
 <rect class="cp8color" height="12" width="12" y="0" x="0"></rect>
 <path fill="white" d="M0,0L3,0L3,3L0,3L0,0M6,0L9,0L9,3L6,3L6,0M3,3L6,3L6,6L3,6L3,3M9,3L12,3L12,6L9,6L9,3"></path>
 <path fill="white" d="M0,6L3,6L3,9L0,9L0,6M6,6L9,6L9,9L6,9L6,6M3,9L6,9L6,12L3,12L3,9M9,9L12,9L12,12L9,12L9,9"></path>
 </pattern>
 <pattern y="0" x="0" height="12" width="12" patternUnits="userSpaceOnUse" id="cp9pattern">
 <rect class="cp9color" height="12" width="12" y="0" x="0"></rect>
 <path fill="black" d="M0,0L3,0L3,3L0,3L0,0M6,0L9,0L9,3L6,3L6,0M3,3L6,3L6,6L3,6L3,3M9,3L12,3L12,6L9,6L9,3"></path>
 <path fill="black" d="M0,6L3,6L3,9L0,9L0,6M6,6L9,6L9,9L6,9L6,6M3,9L6,9L6,12L3,12L3,9M9,9L12,9L12,12L9,12L9,9"></path>
 </pattern>
 </defs>
 <rect height="100%" width="100%" y="0" x="0" class="grass" id="mainfill"></rect>
 <g id="paths"><path d="M576,12L576,12L636,12L636,24L672,24L672,36L684,36L684,48L696,48L696,60L720,60L720,72L732,72L732,84L744,84L744,96L756,96L756,108L780,108L780,120L804,120L804,132L816,132L816,192L828,192L828,288L840,288L840,312L852,312L852,336L840,336L840,384L852,384L852,396L840,396L840,456L852,456L852,468L864,468L864,504L876,504L876,540L864,540L864,576L852,576L852,588L840,588L840,600L828,600L828,612L816,612L816,624L768,624L768,636L744,636L744,648L732,648L732,660L708,660L708,696L696,696L696,708L672,708L672,720L624,720L624,732L600,732L600,744L588,744L588,732L552,732L552,720L540,720L540,696L528,696L528,684L516,684L516,648L492,648L492,636L468,636L468,660L456,660L456,696L444,696L444,708L348,708L348,696L288,696L288,708L264,708L264,720L252,720L252,732L240,732L240,744L204,744L204,756L180,756L180,768L156,768L156,780L132,780L132,768L72,768L72,756L48,756L48,744L36,744L36,660L24,660L24,648L12,648L12,612L24,612L24,588L36,588L36,564L60,564L60,540L84,540L84,528L96,528L96,540L108,540L108,480L96,480L96,468L84,468L84,456L72,456L72,432L60,432L60,396L48,396L48,372L36,372L36,360L48,360L48,348L60,348L60,336L72,336L72,300L84,300L84,276L108,276L108,264L120,264L120,252L144,252L144,228L132,228L132,216L108,216L108,180L132,180L132,144L144,144L144,132L156,132L156,120L192,120L192,108L252,108L252,96L300,96L300,84L312,84L312,72L372,72L372,60L396,60L396,72L408,72L408,84L432,84L432,108L456,108L456,96L480,96L480,84L492,84L492,60L516,60L516,48L528,48L528,36L540,36L540,24L576,24L576,12M552,144L552,144L540,144L540,156L516,156L516,168L492,168L492,180L468,180L468,204L456,204L456,216L444,216L444,240L432,240L432,252L408,252L408,240L396,240L396,204L384,204L384,192L372,192L372,216L360,216L360,240L348,240L348,228L324,228L324,216L312,216L312,204L288,204L288,192L264,192L264,180L252,180L252,192L228,192L228,300L216,300L216,312L204,312L204,324L192,324L192,336L180,336L180,348L168,348L168,360L156,360L156,372L144,372L144,396L132,396L132,408L144,408L144,420L156,420L156,432L168,432L168,444L180,444L180,468L168,468L168,480L216,480L216,492L204,492L204,516L192,516L192,540L180,540L180,564L168,564L168,588L180,588L180,612L168,612L168,624L156,624L156,636L132,636L132,648L108,648L108,672L96,672L96,696L108,696L108,684L132,684L132,672L144,672L144,660L168,660L168,648L204,648L204,612L216,612L216,600L228,600L228,624L216,624L216,684L240,684L240,672L252,672L252,648L276,648L276,636L288,636L288,624L300,624L300,612L324,612L324,636L348,636L348,624L336,624L336,600L360,600L360,612L372,612L372,624L384,624L384,552L396,552L396,540L408,540L408,576L432,576L432,540L444,540L444,516L480,516L480,528L516,528L516,540L528,540L528,576L564,576L564,588L576,588L576,648L588,648L588,708L600,708L600,684L612,684L612,648L624,648L624,636L636,636L636,552L660,552L660,540L696,540L696,528L720,528L720,516L708,516L708,504L696,504L696,492L684,492L684,480L720,480L720,456L696,456L696,444L684,444L684,432L660,432L660,420L672,420L672,408L696,408L696,396L708,396L708,384L720,384L720,348L708,348L708,300L720,300L720,288L732,288L732,276L720,276L720,264L708,264L708,252L696,252L696,240L672,240L672,228L684,228L684,216L672,216L672,204L660,204L660,192L648,192L648,156L612,156L612,168L564,168L564,144L552,144M240,540L240,540L276,540L276,564L252,564L252,552L240,552L240,540M444,576L444,576L432,576L432,588L420,588L420,636L408,636L408,624L384,624L384,636L348,636L348,660L360,660L360,684L372,684L372,672L384,672L384,636L396,636L396,648L408,648L408,660L420,660L420,672L444,672L444,576M744,720L744,720L780,720L780,732L756,732L756,744L768,744L768,756L756,756L756,768L780,768L780,780L744,780L744,720M792,720L792,720L816,720L816,732L804,732L804,744L816,744L816,732L828,732L828,744L816,744L816,756L804,756L804,768L816,768L816,756L828,756L828,768L816,768L816,780L792,780L792,720M840,720L840,720L852,720L852,744L864,744L864,720L876,720L876,780L864,780L864,756L840,756Z" class="road"></path><path d="M444,108L444,108L468,108L468,120L480,120L480,132L492,132L492,144L504,144L504,156L516,156L516,168L492,168L492,156L480,156L480,144L468,144L468,132L456,132L456,120L444,120Z" class="cp1"></path><path d="M60,396L60,396L132,396L132,408L144,408L144,420L60,420Z" class="cp2"></path><path d="M588,708L588,708L600,708L600,744L588,744Z" class="cp3"></path><path d="M744,336L744,336L768,336L768,348L744,348L744,336M792,348L792,348L816,348L816,360L792,360L792,348M744,360L744,360L768,360L768,372L744,372L744,360M792,372L792,372L816,372L816,384L792,384Z" class="start"></path><path d="M708,384L708,384L852,384L852,396L708,396L708,384M744,720L744,720L780,720L780,732L756,732L756,744L768,744L768,756L756,756L756,768L780,768L780,780L744,780L744,720M792,720L792,720L816,720L816,732L804,732L804,744L816,744L816,732L828,732L828,744L816,744L816,756L804,756L804,768L816,768L816,756L828,756L828,768L816,768L816,780L792,780L792,720M840,720L840,720L852,720L852,744L864,744L864,720L876,720L876,780L864,780L864,756L840,756Z" class="finish"></path></g>
 <rect opacity=".3" fill="url(#grid)" height="100%" width="100%" y="0" x="0"></rect>
</svg>