<svg xmlns="http://www.w3.org/2000/svg" xmlns:xlink="http://www.w3.org/1999/xlink" version="1.1" id="mapSvgView" width="960" height="456"> <rect id="mainfill" class="grass" x="0" y="0" width="100%" height="100%"></rect> <g id="paths"><path d="M48,84L48,84L144,84L144,96L48,96Z" class="cp1"></path><path d="M864,192L864,192L936,192L936,216L864,216Z" class="cp2"></path><path d="M120,12L120,12L708,12L708,72L156,72L156,84L48,84L48,72L60,72L60,60L72,60L72,36L96,36L96,24L120,24L120,12M732,12L732,12L888,12L888,24L900,24L900,36L912,36L912,48L924,48L924,60L936,60L936,192L864,192L864,120L852,120L852,96L840,96L840,84L804,84L804,72L732,72L732,12M48,96L48,96L156,96L156,108L168,108L168,120L192,120L192,132L216,132L216,144L240,144L240,156L264,156L264,168L288,168L288,180L312,180L312,192L336,192L336,204L360,204L360,216L384,216L384,228L408,228L408,240L432,240L432,252L456,252L456,264L504,264L504,252L528,252L528,240L540,240L540,228L552,228L552,216L564,216L564,204L588,204L588,192L864,192L864,216L612,216L612,228L576,228L576,240L552,240L552,252L540,252L540,264L528,264L528,300L552,300L552,312L576,312L576,324L600,324L600,336L624,336L624,348L648,348L648,360L684,360L684,372L720,372L720,384L804,384L804,372L828,372L828,360L840,360L840,348L852,348L852,336L864,336L864,216L936,216L936,372L924,372L924,384L912,384L912,396L900,396L900,408L888,408L888,420L876,420L876,432L852,432L852,444L672,444L672,432L648,432L648,420L624,420L624,408L600,408L600,396L576,396L576,384L552,384L552,372L528,372L528,360L504,360L504,348L480,348L480,336L456,336L456,324L432,324L432,312L408,312L408,300L384,300L384,288L360,288L360,276L336,276L336,264L312,264L312,252L288,252L288,240L264,240L264,228L240,228L240,216L216,216L216,204L192,204L192,192L168,192L168,180L144,180L144,168L120,168L120,156L96,156L96,144L72,144L72,132L60,132L60,120L48,120L48,96M60,360L60,360L120,360L120,372L96,372L96,384L108,384L108,396L96,396L96,420L72,420L72,408L60,408L60,396L72,396L72,408L84,408L84,372L60,372Z" class="road"></path><path d="M708,12L708,12L720,12L720,72L708,72Z" class="start"></path><path d="M720,12L720,12L732,12L732,72L720,72Z" class="finish"></path></g></svg>