<svg xmlns:xlink="http://www.w3.org/1999/xlink" xmlns="http://www.w3.org/2000/svg" height="1008" width="2172" id="mapSvgView" version="1.1" style="width: 2172px; height: 1008px;" viewBox="0 0 2172 1008">
 <defs>
 <pattern y="0" x="0" height="24" width="24" patternUnits="userSpaceOnUse" id="grassPattern">
 <rect class="grasscolor" height="24" width="24" y="0" x="0"></rect>
 <rect class="grassspeclecolor" height="1" width="1" x="1" y="5"></rect>
 <rect class="grassspeclecolor" height="1" width="1" x="1" y="5"></rect>
 <rect class="grassspeclecolor" height="1" width="1" x="3" y="5"></rect>
 <rect class="grassspeclecolor" height="1" width="1" x="6" y="7"></rect>
 <rect class="grassspeclecolor" height="1" width="1" x="6" y="17"></rect>
 <rect class="grassspeclecolor" height="1" width="1" x="8" y="21"></rect>
 <rect class="grassspeclecolor" height="1" width="1" x="9" y="2"></rect>
 <rect class="grassspeclecolor" height="1" width="1" x="12" y="4"></rect>
 <rect class="grassspeclecolor" height="1" width="1" x="13" y="15"></rect>
 <rect class="grassspeclecolor" height="1" width="1" x="14" y="4"></rect>
 <rect class="grassspeclecolor" height="1" width="1" x="14" y="19"></rect>
 <rect class="grassspeclecolor" height="1" width="1" x="17" y="7"></rect>
 <rect class="grassspeclecolor" height="1" width="1" x="17" y="12"></rect>
 <rect class="grassspeclecolor" height="1" width="1" x="18" y="23"></rect>
 <rect class="grassspeclecolor" height="1" width="1" x="21" y="16"></rect>
 <rect class="grassspeclecolor" height="1" width="1" x="23" y="12"></rect>
 </pattern>
 <pattern y="0" x="0" height="24" width="24" patternUnits="userSpaceOnUse" id="roadPattern">
 <rect class="roadcolor" height="24" width="24" y="0" x="0"></rect>
 <rect class="roadspeclecolor" height="1" width="1" x="1" y="5"></rect>
 <rect class="roadspeclecolor" height="1" width="1" x="1" y="5"></rect>
 <rect class="roadspeclecolor" height="1" width="1" x="3" y="5"></rect>
 <rect class="roadspeclecolor" height="1" width="1" x="6" y="7"></rect>
 <rect class="roadspeclecolor" height="1" width="1" x="6" y="17"></rect>
 <rect class="roadspeclecolor" height="1" width="1" x="8" y="21"></rect>
 <rect class="roadspeclecolor" height="1" width="1" x="9" y="2"></rect>
 <rect class="roadspeclecolor" height="1" width="1" x="12" y="4"></rect>
 <rect class="roadspeclecolor" height="1" width="1" x="13" y="15"></rect>
 <rect class="roadspeclecolor" height="1" width="1" x="14" y="4"></rect>
 <rect class="roadspeclecolor" height="1" width="1" x="14" y="19"></rect>
 <rect class="roadspeclecolor" height="1" width="1" x="17" y="7"></rect>
 <rect class="roadspeclecolor" height="1" width="1" x="17" y="12"></rect>
 <rect class="roadspeclecolor" height="1" width="1" x="18" y="23"></rect>
 <rect class="roadspeclecolor" height="1" width="1" x="21" y="16"></rect>
 <rect class="roadspeclecolor" height="1" width="1" x="23" y="12"></rect>
 </pattern>
 <pattern y="0" x="0" height="12" width="12" patternUnits="userSpaceOnUse" id="grid">
 <line stroke-width="1" stroke="black" y2="12" x2="12" y1="0" x1="12"></line>
 <line stroke-width="1" stroke="black" y2="12" x2="12" y1="12" x1="0"></line>
 </pattern>
 <pattern y="0" x="0" height="12" width="12" patternUnits="userSpaceOnUse" id="finishPattern">
 <rect fill="black" height="12" width="12" y="0" x="0"></rect>
 <path fill="white" d="M0,0L3,0L3,3L0,3L0,0M6,0L9,0L9,3L6,3L6,0M3,3L6,3L6,6L3,6L3,3M9,3L12,3L12,6L9,6L9,3"></path>
 <path fill="white" d="M0,6L3,6L3,9L0,9L0,6M6,6L9,6L9,9L6,9L6,6M3,9L6,9L6,12L3,12L3,9M9,9L12,9L12,12L9,12L9,9"></path>
 </pattern>
 <pattern y="0" x="0" height="12" width="12" patternUnits="userSpaceOnUse" id="startPattern">
 <rect fill="rgb(100,100,100)" height="12" width="12" y="0" x="0"></rect>
 <rect stroke-width="1" stroke="rgb(200,200,200)" fill="none" height="5" width="5" y="3.5" x="3.5"></rect>
 </pattern>
 <pattern y="0" x="0" height="12" width="12" patternUnits="userSpaceOnUse" id="cp1pattern">
 <rect class="cp1color" height="12" width="12" y="0" x="0"></rect>
 <path fill="black" d="M0,0L3,0L3,3L0,3L0,0M6,0L9,0L9,3L6,3L6,0M3,3L6,3L6,6L3,6L3,3M9,3L12,3L12,6L9,6L9,3"></path>
 <path fill="black" d="M0,6L3,6L3,9L0,9L0,6M6,6L9,6L9,9L6,9L6,6M3,9L6,9L6,12L3,12L3,9M9,9L12,9L12,12L9,12L9,9"></path>
 </pattern>
 <pattern y="0" x="0" height="12" width="12" patternUnits="userSpaceOnUse" id="cp2pattern">
 <rect class="cp2color" height="12" width="12" y="0" x="0"></rect>
 <path fill="white" d="M0,0L3,0L3,3L0,3L0,0M6,0L9,0L9,3L6,3L6,0M3,3L6,3L6,6L3,6L3,3M9,3L12,3L12,6L9,6L9,3"></path>
 <path fill="white" d="M0,6L3,6L3,9L0,9L0,6M6,6L9,6L9,9L6,9L6,6M3,9L6,9L6,12L3,12L3,9M9,9L12,9L12,12L9,12L9,9"></path>
 </pattern>
 <pattern y="0" x="0" height="12" width="12" patternUnits="userSpaceOnUse" id="cp3pattern">
 <rect class="cp3color" height="12" width="12" y="0" x="0"></rect>
 <path fill="black" d="M0,0L3,0L3,3L0,3L0,0M6,0L9,0L9,3L6,3L6,0M3,3L6,3L6,6L3,6L3,3M9,3L12,3L12,6L9,6L9,3"></path>
 <path fill="black" d="M0,6L3,6L3,9L0,9L0,6M6,6L9,6L9,9L6,9L6,6M3,9L6,9L6,12L3,12L3,9M9,9L12,9L12,12L9,12L9,9"></path>
 </pattern>
 <pattern y="0" x="0" height="12" width="12" patternUnits="userSpaceOnUse" id="cp4pattern">
 <rect class="cp4color" height="12" width="12" y="0" x="0"></rect>
 <path fill="white" d="M0,0L3,0L3,3L0,3L0,0M6,0L9,0L9,3L6,3L6,0M3,3L6,3L6,6L3,6L3,3M9,3L12,3L12,6L9,6L9,3"></path>
 <path fill="white" d="M0,6L3,6L3,9L0,9L0,6M6,6L9,6L9,9L6,9L6,6M3,9L6,9L6,12L3,12L3,9M9,9L12,9L12,12L9,12L9,9"></path>
 </pattern>
 <pattern y="0" x="0" height="12" width="12" patternUnits="userSpaceOnUse" id="cp5pattern">
 <rect class="cp5color" height="12" width="12" y="0" x="0"></rect>
 <path fill="black" d="M0,0L3,0L3,3L0,3L0,0M6,0L9,0L9,3L6,3L6,0M3,3L6,3L6,6L3,6L3,3M9,3L12,3L12,6L9,6L9,3"></path>
 <path fill="black" d="M0,6L3,6L3,9L0,9L0,6M6,6L9,6L9,9L6,9L6,6M3,9L6,9L6,12L3,12L3,9M9,9L12,9L12,12L9,12L9,9"></path>
 </pattern>
 <pattern y="0" x="0" height="12" width="12" patternUnits="userSpaceOnUse" id="cp6pattern">
 <rect class="cp6color" height="12" width="12" y="0" x="0"></rect>
 <path fill="white" d="M0,0L3,0L3,3L0,3L0,0M6,0L9,0L9,3L6,3L6,0M3,3L6,3L6,6L3,6L3,3M9,3L12,3L12,6L9,6L9,3"></path>
 <path fill="white" d="M0,6L3,6L3,9L0,9L0,6M6,6L9,6L9,9L6,9L6,6M3,9L6,9L6,12L3,12L3,9M9,9L12,9L12,12L9,12L9,9"></path>
 </pattern>
 <pattern y="0" x="0" height="12" width="12" patternUnits="userSpaceOnUse" id="cp7pattern">
 <rect class="cp7color" height="12" width="12" y="0" x="0"></rect>
 <path fill="black" d="M0,0L3,0L3,3L0,3L0,0M6,0L9,0L9,3L6,3L6,0M3,3L6,3L6,6L3,6L3,3M9,3L12,3L12,6L9,6L9,3"></path>
 <path fill="black" d="M0,6L3,6L3,9L0,9L0,6M6,6L9,6L9,9L6,9L6,6M3,9L6,9L6,12L3,12L3,9M9,9L12,9L12,12L9,12L9,9"></path>
 </pattern>
 <pattern y="0" x="0" height="12" width="12" patternUnits="userSpaceOnUse" id="cp8pattern">
 <rect class="cp8color" height="12" width="12" y="0" x="0"></rect>
 <path fill="white" d="M0,0L3,0L3,3L0,3L0,0M6,0L9,0L9,3L6,3L6,0M3,3L6,3L6,6L3,6L3,3M9,3L12,3L12,6L9,6L9,3"></path>
 <path fill="white" d="M0,6L3,6L3,9L0,9L0,6M6,6L9,6L9,9L6,9L6,6M3,9L6,9L6,12L3,12L3,9M9,9L12,9L12,12L9,12L9,9"></path>
 </pattern>
 <pattern y="0" x="0" height="12" width="12" patternUnits="userSpaceOnUse" id="cp9pattern">
 <rect class="cp9color" height="12" width="12" y="0" x="0"></rect>
 <path fill="black" d="M0,0L3,0L3,3L0,3L0,0M6,0L9,0L9,3L6,3L6,0M3,3L6,3L6,6L3,6L3,3M9,3L12,3L12,6L9,6L9,3"></path>
 <path fill="black" d="M0,6L3,6L3,9L0,9L0,6M6,6L9,6L9,9L6,9L6,6M3,9L6,9L6,12L3,12L3,9M9,9L12,9L12,12L9,12L9,9"></path>
 </pattern>
 </defs>
 <rect height="100%" width="100%" y="0" x="0" class="grass" id="mainfill"></rect>
 <g id="paths"><path d="M1416,24L1416,24L1476,24L1476,36L1512,36L1512,48L1560,48L1560,60L1596,60L1596,72L1632,72L1632,84L1692,84L1692,96L1740,96L1740,108L1800,108L1800,120L1836,120L1836,132L1860,132L1860,144L1884,144L1884,156L1908,156L1908,168L1932,168L1932,180L1944,180L1944,192L2004,192L2004,204L2016,204L2016,216L2064,216L2064,228L2088,228L2088,240L2112,240L2112,264L2124,264L2124,276L2136,276L2136,312L2148,312L2148,492L2136,492L2136,516L2124,516L2124,540L2100,540L2100,552L2088,552L2088,564L2076,564L2076,576L2052,576L2052,588L2028,588L2028,600L1920,600L1920,588L1908,588L1908,576L1896,576L1896,564L1872,564L1872,552L1860,552L1860,540L1848,540L1848,528L1836,528L1836,516L1824,516L1824,504L1812,504L1812,480L1800,480L1800,468L1788,468L1788,456L1776,456L1776,432L1764,432L1764,420L1752,420L1752,408L1740,408L1740,396L1728,396L1728,384L1716,384L1716,360L1692,360L1692,348L1680,348L1680,324L1656,324L1656,312L1644,312L1644,300L1584,300L1584,324L1572,324L1572,360L1584,360L1584,384L1596,384L1596,408L1620,408L1620,432L1632,432L1632,444L1644,444L1644,456L1656,456L1656,468L1668,468L1668,480L1680,480L1680,504L1692,504L1692,516L1704,516L1704,540L1716,540L1716,564L1728,564L1728,588L1740,588L1740,612L1752,612L1752,648L1764,648L1764,660L1776,660L1776,696L1788,696L1788,744L1800,744L1800,900L1788,900L1788,912L1776,912L1776,936L1740,936L1740,948L1716,948L1716,936L1680,936L1680,924L1656,924L1656,912L1644,912L1644,900L1632,900L1632,888L1620,888L1620,876L1584,876L1584,888L1572,888L1572,912L1560,912L1560,924L1548,924L1548,948L1536,948L1536,960L1512,960L1512,972L1500,972L1500,984L1416,984L1416,972L1404,972L1404,960L1380,960L1380,948L1368,948L1368,936L1356,936L1356,924L1344,924L1344,912L1332,912L1332,900L1308,900L1308,888L1296,888L1296,876L1284,876L1284,864L1260,864L1260,852L1236,852L1236,840L1212,840L1212,828L1188,828L1188,816L1152,816L1152,804L1104,804L1104,792L1080,792L1080,780L924,780L924,792L900,792L900,804L888,804L888,828L876,828L876,840L864,840L864,876L852,876L852,900L840,900L840,960L828,960L828,972L816,972L816,984L756,984L756,972L720,972L720,960L684,960L684,948L660,948L660,936L624,936L624,924L600,924L600,912L576,912L576,900L540,900L540,888L516,888L516,876L480,876L480,864L456,864L456,852L420,852L420,840L396,840L396,828L372,828L372,816L348,816L348,804L312,804L312,792L300,792L300,780L264,780L264,768L240,768L240,756L204,756L204,744L180,744L180,732L156,732L156,720L120,720L120,708L96,708L96,696L72,696L72,684L48,684L48,672L36,672L36,660L24,660L24,612L36,612L36,600L48,600L48,588L60,588L60,576L84,576L84,564L96,564L96,552L108,552L108,528L96,528L96,516L84,516L84,504L60,504L60,492L48,492L48,456L60,456L60,432L72,432L72,420L108,420L108,408L144,408L144,420L216,420L216,432L300,432L300,444L396,444L396,456L408,456L408,444L444,444L444,456L600,456L600,468L756,468L756,480L804,480L804,492L948,492L948,480L960,480L960,468L984,468L984,456L996,456L996,444L1008,444L1008,432L1020,432L1020,420L1032,420L1032,408L1056,408L1056,396L1080,396L1080,372L1104,372L1104,360L1116,360L1116,348L1140,348L1140,336L1152,336L1152,324L1164,324L1164,312L1188,312L1188,300L1200,300L1200,288L1224,288L1224,276L1236,276L1236,264L1248,264L1248,252L1272,252L1272,240L1284,240L1284,228L1308,228L1308,216L1332,216L1332,204L1344,204L1344,192L1368,192L1368,180L1380,180L1380,168L1392,168L1392,144L1404,144L1404,96L1392,96L1392,36L1416,36L1416,24M84,60L84,60L96,60L96,84L84,84L84,60M156,60L156,60L168,60L168,168L156,168L156,60M192,60L192,60L204,60L204,168L192,168L192,60M444,60L444,60L492,60L492,72L456,72L456,84L444,84L444,156L432,156L432,72L444,72L444,60M492,72L492,72L504,72L504,84L492,84L492,72M624,60L624,60L636,60L636,84L660,84L660,96L636,96L636,156L624,156L624,96L612,96L612,84L624,84L624,60M1476,72L1476,72L1464,72L1464,84L1452,84L1452,96L1464,96L1464,156L1452,156L1452,180L1428,180L1428,192L1416,192L1416,204L1404,204L1404,216L1392,216L1392,228L1368,228L1368,240L1356,240L1356,252L1332,252L1332,264L1320,264L1320,276L1308,276L1308,288L1284,288L1284,300L1272,300L1272,312L1260,312L1260,324L1236,324L1236,336L1224,336L1224,348L1212,348L1212,360L1188,360L1188,372L1176,372L1176,384L1164,384L1164,396L1140,396L1140,408L1128,408L1128,420L1116,420L1116,432L1092,432L1092,456L1068,456L1068,468L1044,468L1044,480L1032,480L1032,492L1020,492L1020,504L1008,504L1008,516L984,516L984,528L972,528L972,540L840,540L840,528L744,528L744,516L660,516L660,504L588,504L588,492L372,492L372,480L240,480L240,468L180,468L180,456L108,456L108,480L120,480L120,492L144,492L144,516L156,516L156,552L144,552L144,576L132,576L132,600L120,600L120,612L96,612L96,648L120,648L120,660L144,660L144,672L168,672L168,684L192,684L192,696L216,696L216,708L240,708L240,720L288,720L288,732L312,732L312,744L336,744L336,756L360,756L360,768L384,768L384,780L408,780L408,792L468,792L468,804L480,804L480,816L516,816L516,828L528,828L528,840L564,840L564,852L576,852L576,864L612,864L612,876L636,876L636,888L660,888L660,900L708,900L708,912L720,912L720,924L756,924L756,912L768,912L768,900L780,900L780,876L792,876L792,864L804,864L804,828L816,828L816,816L828,816L828,780L840,780L840,768L852,768L852,756L876,756L876,744L936,744L936,732L1008,732L1008,744L1128,744L1128,756L1152,756L1152,768L1224,768L1224,780L1236,780L1236,792L1272,792L1272,804L1296,804L1296,816L1308,816L1308,828L1332,828L1332,840L1344,840L1344,852L1368,852L1368,864L1380,864L1380,876L1392,876L1392,888L1416,888L1416,912L1440,912L1440,924L1488,924L1488,900L1500,900L1500,888L1512,888L1512,852L1524,852L1524,828L1536,828L1536,816L1548,816L1548,792L1560,792L1560,780L1584,780L1584,792L1608,792L1608,804L1620,804L1620,816L1644,816L1644,828L1656,828L1656,840L1668,840L1668,852L1680,852L1680,864L1692,864L1692,876L1740,876L1740,852L1752,852L1752,744L1740,744L1740,696L1728,696L1728,660L1716,660L1716,636L1704,636L1704,612L1692,612L1692,588L1680,588L1680,564L1668,564L1668,540L1656,540L1656,528L1644,528L1644,504L1632,504L1632,492L1620,492L1620,480L1608,480L1608,456L1596,456L1596,444L1584,444L1584,432L1572,432L1572,420L1548,420L1548,408L1536,408L1536,384L1524,384L1524,324L1512,324L1512,288L1524,288L1524,264L1536,264L1536,240L1548,240L1548,228L1572,228L1572,216L1608,216L1608,228L1632,228L1632,240L1656,240L1656,252L1668,252L1668,264L1692,264L1692,288L1704,288L1704,300L1716,300L1716,324L1728,324L1728,348L1740,348L1740,360L1752,360L1752,372L1764,372L1764,384L1776,384L1776,396L1788,396L1788,408L1800,408L1800,420L1812,420L1812,444L1824,444L1824,456L1836,456L1836,468L1848,468L1848,480L1860,480L1860,492L1872,492L1872,504L1884,504L1884,516L1896,516L1896,528L1944,528L1944,540L2004,540L2004,528L2040,528L2040,516L2064,516L2064,492L2076,492L2076,468L2088,468L2088,324L2076,324L2076,288L2064,288L2064,276L2052,276L2052,264L2040,264L2040,252L2004,252L2004,240L1968,240L1968,228L1932,228L1932,216L1896,216L1896,204L1848,204L1848,192L1812,192L1812,180L1776,180L1776,168L1752,168L1752,156L1704,156L1704,144L1680,144L1680,132L1644,132L1644,120L1608,120L1608,108L1572,108L1572,96L1536,96L1536,84L1476,84L1476,72M96,84L96,84L108,84L108,108L96,108L96,84M84,84L84,84L84,108L72,108L72,84L84,84M240,84L240,84L276,84L276,96L240,96L240,84M240,96L240,96L240,120L276,120L276,96L288,96L288,132L240,132L240,156L228,156L228,96L240,96M324,84L324,84L360,84L360,96L324,96L324,84M324,96L324,96L324,108L336,108L336,120L360,120L360,132L324,132L324,120L312,120L312,96L324,96M360,96L360,96L372,96L372,108L360,108L360,96M528,84L528,84L540,84L540,156L528,156L528,84M576,84L576,84L588,84L588,168L576,168L576,156L564,156L564,144L576,144L576,84M696,84L696,84L732,84L732,96L696,96L696,84M696,96L696,96L696,120L732,120L732,96L744,96L744,132L696,132L696,156L684,156L684,96L696,96M72,108L72,108L72,132L108,132L108,108L120,108L120,132L132,132L132,168L120,168L120,144L60,144L60,168L48,168L48,132L60,132L60,108L72,108M468,108L468,108L504,108L504,168L444,168L444,156L492,156L492,120L468,120L468,108M360,132L360,132L372,132L372,156L360,156L360,132M240,156L240,156L276,156L276,144L288,144L288,156L276,156L276,168L240,168L240,156M312,144L312,144L324,144L324,156L312,156L312,144M324,156L324,156L360,156L360,168L324,168L324,156M540,156L540,156L564,156L564,168L540,168L540,156M636,156L636,156L660,156L660,168L636,168L636,156M696,156L696,156L732,156L732,144L744,144L744,156L732,156L732,168L696,168L696,156M768,144L768,144L792,144L792,180L780,180L780,168L768,168L768,144M780,180L780,180L780,192L768,192L768,180L780,180M576,228L576,228L600,228L600,264L612,264L612,288L624,288L624,324L636,324L636,348L648,348L648,384L660,384L660,396L624,396L624,384L612,384L612,372L564,372L564,384L552,384L552,396L516,396L516,384L528,384L528,348L540,348L540,324L552,324L552,288L564,288L564,264L576,264L576,228M696,276L696,276L744,276L744,288L756,288L756,276L780,276L780,408L768,408L768,420L756,420L756,432L708,432L708,408L744,408L744,384L732,384L732,396L696,396L696,384L684,384L684,372L672,372L672,300L684,300L684,288L696,288L696,276M828,276L828,276L876,276L876,288L900,288L900,276L912,276L912,372L924,372L924,384L912,384L912,396L888,396L888,384L864,384L864,396L828,396L828,384L816,384L816,372L804,372L804,312L816,312L816,288L828,288L828,276M732,300L732,300L720,300L720,312L708,312L708,360L720,360L720,372L744,372L744,300L732,300M864,300L864,300L852,300L852,312L840,312L840,360L852,360L852,372L864,372L864,360L876,360L876,300L864,300M588,312L588,312L576,312L576,348L600,348L600,312Z" class="road"></path><path d="M2088,360L2088,360L2148,360L2148,384L2088,384Z" class="cp1"></path><path d="M888,492L888,492L900,492L900,540L888,540Z" class="cp2"></path><path d="M96,552L96,552L144,552L144,564L96,564Z" class="cp3"></path><path d="M0,0L0,0L12,0L12,96L0,96Z" class="parc"></path><path d="M324,768L324,768L384,768L384,780L336,780L336,792L300,792L300,780L324,780Z" class="finish"></path><path d="M456,804L456,804L480,804L480,816L468,816L468,828L456,828L456,840L444,840L444,852L420,852L420,840L432,840L432,828L444,828L444,816L456,816Z" class="start"></path></g>
 <rect opacity=".3" fill="url(#grid)" height="100%" width="100%" y="0" x="0"></rect>
</svg>