<svg xmlns="http://www.w3.org/2000/svg" xmlns:xlink="http://www.w3.org/1999/xlink" version="1.1" id="mapSvgView" width="972" height="444"> <rect id="mainfill" class="road" x="0" y="0" width="100%" height="100%"></rect> <g id="paths"><path d="M24,384L24,384L96,384L96,420L84,420L84,396L24,396Z" class="cp1"></path><path d="M876,384L876,384L948,384L948,396L888,396L888,420L876,420Z" class="cp2"></path><path d="M648,96L648,96L660,96L660,156L648,156Z" class="cp3"></path><path d="M204,192L204,192L216,192L216,264L204,264Z" class="cp4"></path><path d="M588,288L588,288L600,288L600,360L588,360Z" class="cp5"></path><path d="M924,24L924,24L948,24L948,48L924,48Z" class="cp6"></path><path d="M0,0L0,0L12,0L12,156L0,156Z" class="parc"></path><path d="M12,0L12,0L972,0L972,444L0,444L0,156L12,156L12,0M36,24L36,24L24,24L24,420L948,420L948,24Z" class="grass"></path><path d="M36,36L36,36L48,36L48,48L36,48L36,36M48,48L48,48L60,48L60,36L72,36L72,48L60,48L60,60L48,60L48,48M72,48L72,48L84,48L84,36L96,36L96,48L84,48L84,60L72,60L72,48M60,60L60,60L72,60L72,72L60,72L60,60M48,60L48,60L48,72L36,72L36,60L48,60M84,60L84,60L96,60L96,72L84,72L84,60M48,72L48,72L60,72L60,84L48,84L48,72M72,72L72,72L84,72L84,84L72,84L72,72M60,84L60,84L72,84L72,96L60,96L60,84M48,84L48,84L48,96L36,96L36,84L48,84M84,84L84,84L96,84L96,96L84,96Z" class="start"></path><path d="M432,204L432,204L456,204L456,228L432,228Z" class="finish"></path></g></svg>