<svg xmlns:xlink="http://www.w3.org/1999/xlink" xmlns="http://www.w3.org/2000/svg" height="852" width="1056" id="mapSvgView" version="1.1" style="width: 1056px; height: 852px;" viewBox="0 0 1056 852">
 <defs>
 <pattern y="0" x="0" height="24" width="24" patternUnits="userSpaceOnUse" id="grassPattern">
 <rect class="grasscolor" height="24" width="24" y="0" x="0"></rect>
 <rect class="grassspeclecolor" height="1" width="1" x="1" y="5"></rect>
 <rect class="grassspeclecolor" height="1" width="1" x="1" y="5"></rect>
 <rect class="grassspeclecolor" height="1" width="1" x="3" y="5"></rect>
 <rect class="grassspeclecolor" height="1" width="1" x="6" y="7"></rect>
 <rect class="grassspeclecolor" height="1" width="1" x="6" y="17"></rect>
 <rect class="grassspeclecolor" height="1" width="1" x="8" y="21"></rect>
 <rect class="grassspeclecolor" height="1" width="1" x="9" y="2"></rect>
 <rect class="grassspeclecolor" height="1" width="1" x="12" y="4"></rect>
 <rect class="grassspeclecolor" height="1" width="1" x="13" y="15"></rect>
 <rect class="grassspeclecolor" height="1" width="1" x="14" y="4"></rect>
 <rect class="grassspeclecolor" height="1" width="1" x="14" y="19"></rect>
 <rect class="grassspeclecolor" height="1" width="1" x="17" y="7"></rect>
 <rect class="grassspeclecolor" height="1" width="1" x="17" y="12"></rect>
 <rect class="grassspeclecolor" height="1" width="1" x="18" y="23"></rect>
 <rect class="grassspeclecolor" height="1" width="1" x="21" y="16"></rect>
 <rect class="grassspeclecolor" height="1" width="1" x="23" y="12"></rect>
 </pattern>
 <pattern y="0" x="0" height="24" width="24" patternUnits="userSpaceOnUse" id="roadPattern">
 <rect class="roadcolor" height="24" width="24" y="0" x="0"></rect>
 <rect class="roadspeclecolor" height="1" width="1" x="1" y="5"></rect>
 <rect class="roadspeclecolor" height="1" width="1" x="1" y="5"></rect>
 <rect class="roadspeclecolor" height="1" width="1" x="3" y="5"></rect>
 <rect class="roadspeclecolor" height="1" width="1" x="6" y="7"></rect>
 <rect class="roadspeclecolor" height="1" width="1" x="6" y="17"></rect>
 <rect class="roadspeclecolor" height="1" width="1" x="8" y="21"></rect>
 <rect class="roadspeclecolor" height="1" width="1" x="9" y="2"></rect>
 <rect class="roadspeclecolor" height="1" width="1" x="12" y="4"></rect>
 <rect class="roadspeclecolor" height="1" width="1" x="13" y="15"></rect>
 <rect class="roadspeclecolor" height="1" width="1" x="14" y="4"></rect>
 <rect class="roadspeclecolor" height="1" width="1" x="14" y="19"></rect>
 <rect class="roadspeclecolor" height="1" width="1" x="17" y="7"></rect>
 <rect class="roadspeclecolor" height="1" width="1" x="17" y="12"></rect>
 <rect class="roadspeclecolor" height="1" width="1" x="18" y="23"></rect>
 <rect class="roadspeclecolor" height="1" width="1" x="21" y="16"></rect>
 <rect class="roadspeclecolor" height="1" width="1" x="23" y="12"></rect>
 </pattern>
 <pattern y="0" x="0" height="12" width="12" patternUnits="userSpaceOnUse" id="grid">
 <line stroke-width="1" stroke="black" y2="12" x2="12" y1="0" x1="12"></line>
 <line stroke-width="1" stroke="black" y2="12" x2="12" y1="12" x1="0"></line>
 </pattern>
 <pattern y="0" x="0" height="12" width="12" patternUnits="userSpaceOnUse" id="finishPattern">
 <rect fill="black" height="12" width="12" y="0" x="0"></rect>
 <path fill="white" d="M0,0L3,0L3,3L0,3L0,0M6,0L9,0L9,3L6,3L6,0M3,3L6,3L6,6L3,6L3,3M9,3L12,3L12,6L9,6L9,3"></path>
 <path fill="white" d="M0,6L3,6L3,9L0,9L0,6M6,6L9,6L9,9L6,9L6,6M3,9L6,9L6,12L3,12L3,9M9,9L12,9L12,12L9,12L9,9"></path>
 </pattern>
 <pattern y="0" x="0" height="12" width="12" patternUnits="userSpaceOnUse" id="startPattern">
 <rect fill="rgb(100,100,100)" height="12" width="12" y="0" x="0"></rect>
 <rect stroke-width="1" stroke="rgb(200,200,200)" fill="none" height="5" width="5" y="3.5" x="3.5"></rect>
 </pattern>
 <pattern y="0" x="0" height="12" width="12" patternUnits="userSpaceOnUse" id="cp1pattern">
 <rect class="cp1color" height="12" width="12" y="0" x="0"></rect>
 <path fill="black" d="M0,0L3,0L3,3L0,3L0,0M6,0L9,0L9,3L6,3L6,0M3,3L6,3L6,6L3,6L3,3M9,3L12,3L12,6L9,6L9,3"></path>
 <path fill="black" d="M0,6L3,6L3,9L0,9L0,6M6,6L9,6L9,9L6,9L6,6M3,9L6,9L6,12L3,12L3,9M9,9L12,9L12,12L9,12L9,9"></path>
 </pattern>
 <pattern y="0" x="0" height="12" width="12" patternUnits="userSpaceOnUse" id="cp2pattern">
 <rect class="cp2color" height="12" width="12" y="0" x="0"></rect>
 <path fill="white" d="M0,0L3,0L3,3L0,3L0,0M6,0L9,0L9,3L6,3L6,0M3,3L6,3L6,6L3,6L3,3M9,3L12,3L12,6L9,6L9,3"></path>
 <path fill="white" d="M0,6L3,6L3,9L0,9L0,6M6,6L9,6L9,9L6,9L6,6M3,9L6,9L6,12L3,12L3,9M9,9L12,9L12,12L9,12L9,9"></path>
 </pattern>
 <pattern y="0" x="0" height="12" width="12" patternUnits="userSpaceOnUse" id="cp3pattern">
 <rect class="cp3color" height="12" width="12" y="0" x="0"></rect>
 <path fill="black" d="M0,0L3,0L3,3L0,3L0,0M6,0L9,0L9,3L6,3L6,0M3,3L6,3L6,6L3,6L3,3M9,3L12,3L12,6L9,6L9,3"></path>
 <path fill="black" d="M0,6L3,6L3,9L0,9L0,6M6,6L9,6L9,9L6,9L6,6M3,9L6,9L6,12L3,12L3,9M9,9L12,9L12,12L9,12L9,9"></path>
 </pattern>
 <pattern y="0" x="0" height="12" width="12" patternUnits="userSpaceOnUse" id="cp4pattern">
 <rect class="cp4color" height="12" width="12" y="0" x="0"></rect>
 <path fill="white" d="M0,0L3,0L3,3L0,3L0,0M6,0L9,0L9,3L6,3L6,0M3,3L6,3L6,6L3,6L3,3M9,3L12,3L12,6L9,6L9,3"></path>
 <path fill="white" d="M0,6L3,6L3,9L0,9L0,6M6,6L9,6L9,9L6,9L6,6M3,9L6,9L6,12L3,12L3,9M9,9L12,9L12,12L9,12L9,9"></path>
 </pattern>
 <pattern y="0" x="0" height="12" width="12" patternUnits="userSpaceOnUse" id="cp5pattern">
 <rect class="cp5color" height="12" width="12" y="0" x="0"></rect>
 <path fill="black" d="M0,0L3,0L3,3L0,3L0,0M6,0L9,0L9,3L6,3L6,0M3,3L6,3L6,6L3,6L3,3M9,3L12,3L12,6L9,6L9,3"></path>
 <path fill="black" d="M0,6L3,6L3,9L0,9L0,6M6,6L9,6L9,9L6,9L6,6M3,9L6,9L6,12L3,12L3,9M9,9L12,9L12,12L9,12L9,9"></path>
 </pattern>
 <pattern y="0" x="0" height="12" width="12" patternUnits="userSpaceOnUse" id="cp6pattern">
 <rect class="cp6color" height="12" width="12" y="0" x="0"></rect>
 <path fill="white" d="M0,0L3,0L3,3L0,3L0,0M6,0L9,0L9,3L6,3L6,0M3,3L6,3L6,6L3,6L3,3M9,3L12,3L12,6L9,6L9,3"></path>
 <path fill="white" d="M0,6L3,6L3,9L0,9L0,6M6,6L9,6L9,9L6,9L6,6M3,9L6,9L6,12L3,12L3,9M9,9L12,9L12,12L9,12L9,9"></path>
 </pattern>
 <pattern y="0" x="0" height="12" width="12" patternUnits="userSpaceOnUse" id="cp7pattern">
 <rect class="cp7color" height="12" width="12" y="0" x="0"></rect>
 <path fill="black" d="M0,0L3,0L3,3L0,3L0,0M6,0L9,0L9,3L6,3L6,0M3,3L6,3L6,6L3,6L3,3M9,3L12,3L12,6L9,6L9,3"></path>
 <path fill="black" d="M0,6L3,6L3,9L0,9L0,6M6,6L9,6L9,9L6,9L6,6M3,9L6,9L6,12L3,12L3,9M9,9L12,9L12,12L9,12L9,9"></path>
 </pattern>
 <pattern y="0" x="0" height="12" width="12" patternUnits="userSpaceOnUse" id="cp8pattern">
 <rect class="cp8color" height="12" width="12" y="0" x="0"></rect>
 <path fill="white" d="M0,0L3,0L3,3L0,3L0,0M6,0L9,0L9,3L6,3L6,0M3,3L6,3L6,6L3,6L3,3M9,3L12,3L12,6L9,6L9,3"></path>
 <path fill="white" d="M0,6L3,6L3,9L0,9L0,6M6,6L9,6L9,9L6,9L6,6M3,9L6,9L6,12L3,12L3,9M9,9L12,9L12,12L9,12L9,9"></path>
 </pattern>
 <pattern y="0" x="0" height="12" width="12" patternUnits="userSpaceOnUse" id="cp9pattern">
 <rect class="cp9color" height="12" width="12" y="0" x="0"></rect>
 <path fill="black" d="M0,0L3,0L3,3L0,3L0,0M6,0L9,0L9,3L6,3L6,0M3,3L6,3L6,6L3,6L3,3M9,3L12,3L12,6L9,6L9,3"></path>
 <path fill="black" d="M0,6L3,6L3,9L0,9L0,6M6,6L9,6L9,9L6,9L6,6M3,9L6,9L6,12L3,12L3,9M9,9L12,9L12,12L9,12L9,9"></path>
 </pattern>
 </defs>
 <rect height="100%" width="100%" y="0" x="0" class="grass" id="mainfill"></rect>
 <g id="paths"><path d="M96,12L96,12L144,12L144,48L120,48L120,60L108,60L108,72L96,72L96,84L84,84L84,96L72,96L72,132L84,132L84,168L96,168L96,192L108,192L108,216L120,216L120,240L132,240L132,252L144,252L144,264L156,264L156,276L168,276L168,300L180,300L180,312L192,312L192,324L204,324L204,336L228,336L228,348L240,348L240,360L264,360L264,372L288,372L288,384L324,384L324,396L348,396L348,408L372,408L372,420L408,420L408,432L432,432L432,444L468,444L468,456L492,456L492,468L540,468L540,456L576,456L576,444L600,444L600,432L624,432L624,420L648,420L648,408L660,408L660,396L696,396L696,432L684,432L684,444L672,444L672,456L660,456L660,468L636,468L636,480L612,480L612,492L588,492L588,504L612,504L612,516L636,516L636,528L660,528L660,540L708,540L708,552L828,552L828,588L684,588L684,612L696,612L696,624L708,624L708,684L672,684L672,660L660,660L660,648L648,648L648,636L636,636L636,624L624,624L624,600L612,600L612,588L600,588L600,576L588,576L588,552L552,552L552,540L528,540L528,528L492,528L492,516L468,516L468,576L456,576L456,612L420,612L420,516L408,516L408,504L396,504L396,492L384,492L384,480L372,480L372,468L348,468L348,456L324,456L324,444L288,444L288,432L264,432L264,420L240,420L240,408L216,408L216,396L180,396L180,408L168,408L168,420L156,420L156,480L168,480L168,492L192,492L192,504L372,504L372,552L360,552L360,576L348,576L348,648L360,648L360,672L372,672L372,684L384,684L384,696L408,696L408,708L432,708L432,696L456,696L456,684L468,684L468,672L480,672L480,660L492,660L492,648L504,648L504,636L540,636L540,660L552,660L552,672L564,672L564,684L576,684L576,708L588,708L588,720L600,720L600,732L612,732L612,756L624,756L624,768L648,768L648,780L672,780L672,792L684,792L684,780L720,780L720,768L732,768L732,756L744,756L744,744L756,744L756,660L816,660L816,672L864,672L864,684L936,684L936,672L948,672L948,660L960,660L960,648L972,648L972,576L960,576L960,552L948,552L948,528L936,528L936,516L924,516L924,504L900,504L900,492L816,492L816,504L732,504L732,456L744,456L744,420L756,420L756,384L768,384L768,324L756,324L756,312L744,312L744,300L684,300L684,312L660,312L660,324L648,324L648,336L624,336L624,348L600,348L600,360L588,360L588,372L564,372L564,384L528,384L528,300L516,300L516,252L504,252L504,216L492,216L492,192L480,192L480,180L468,180L468,168L432,168L432,180L408,180L408,192L396,192L396,204L384,204L384,216L372,216L372,228L360,228L360,240L348,240L348,264L336,264L336,276L300,276L300,240L288,240L288,216L276,216L276,192L264,192L264,180L252,180L252,168L228,168L228,216L240,216L240,252L216,252L216,264L168,264L168,168L180,168L180,156L192,156L192,132L216,132L216,120L300,120L300,132L324,132L324,144L336,144L336,156L360,156L360,144L372,144L372,132L396,132L396,120L420,120L420,108L456,108L456,96L504,96L504,108L528,108L528,120L540,120L540,132L552,132L552,144L564,144L564,168L576,168L576,204L588,204L588,300L600,300L600,288L624,288L624,276L636,276L636,264L660,264L660,252L684,252L684,240L720,240L720,228L768,228L768,240L804,240L804,252L816,252L816,264L828,264L828,288L840,288L840,384L828,384L828,408L816,408L816,444L804,444L804,456L828,456L828,444L864,444L864,432L960,432L960,444L984,444L984,456L996,456L996,468L1008,468L1008,480L1020,480L1020,504L1032,504L1032,552L1044,552L1044,624L1032,624L1032,660L1020,660L1020,684L1008,684L1008,696L996,696L996,708L972,708L972,720L912,720L912,732L828,732L828,720L804,720L804,732L792,732L792,792L780,792L780,804L768,804L768,816L744,816L744,828L708,828L708,840L612,840L612,828L588,828L588,816L576,816L576,804L564,804L564,792L552,792L552,768L540,768L540,756L528,756L528,720L516,720L516,708L504,708L504,720L492,720L492,732L468,732L468,744L444,744L444,756L420,756L420,768L360,768L360,756L336,756L336,744L324,744L324,732L312,732L312,720L300,720L300,696L288,696L288,564L300,564L300,552L168,552L168,540L120,540L120,528L108,528L108,516L96,516L96,504L84,504L84,468L72,468L72,420L84,420L84,396L96,396L96,372L120,372L120,360L132,360L132,348L120,348L120,336L108,336L108,324L96,324L96,312L84,312L84,300L72,300L72,288L60,288L60,264L48,264L48,240L36,240L36,228L24,228L24,192L12,192L12,72L24,72L24,60L36,60L36,48L48,48L48,36L60,36L60,24L96,24L96,12M36,744L36,744L60,744L60,768L48,768L48,756L36,756L36,744M36,756L36,756L36,780L48,780L48,792L36,792L36,828L48,828L48,840L12,840L12,828L24,828L24,792L12,792L12,780L24,780L24,756Z" class="road"></path><path d="M0,0L0,0L12,0L12,48L0,48Z" class="parc"></path><path d="M96,12L96,12L144,12L144,24L96,24Z" class="finish"></path><path d="M168,252L168,252L216,252L216,264L168,264Z" class="start"></path></g>
 <rect opacity=".3" fill="url(#grid)" height="100%" width="100%" y="0" x="0"></rect>
</svg>