<svg xmlns:xlink="http://www.w3.org/1999/xlink" xmlns="http://www.w3.org/2000/svg" height="864" width="792" id="mapSvgView" version="1.1" style="width: 792px; height: 864px;" viewBox="0 0 792 864">
 <defs>
 <pattern y="0" x="0" height="24" width="24" patternUnits="userSpaceOnUse" id="grassPattern">
 <rect class="grasscolor" height="24" width="24" y="0" x="0"></rect>
 <rect class="grassspeclecolor" height="1" width="1" x="1" y="5"></rect>
 <rect class="grassspeclecolor" height="1" width="1" x="1" y="5"></rect>
 <rect class="grassspeclecolor" height="1" width="1" x="3" y="5"></rect>
 <rect class="grassspeclecolor" height="1" width="1" x="6" y="7"></rect>
 <rect class="grassspeclecolor" height="1" width="1" x="6" y="17"></rect>
 <rect class="grassspeclecolor" height="1" width="1" x="8" y="21"></rect>
 <rect class="grassspeclecolor" height="1" width="1" x="9" y="2"></rect>
 <rect class="grassspeclecolor" height="1" width="1" x="12" y="4"></rect>
 <rect class="grassspeclecolor" height="1" width="1" x="13" y="15"></rect>
 <rect class="grassspeclecolor" height="1" width="1" x="14" y="4"></rect>
 <rect class="grassspeclecolor" height="1" width="1" x="14" y="19"></rect>
 <rect class="grassspeclecolor" height="1" width="1" x="17" y="7"></rect>
 <rect class="grassspeclecolor" height="1" width="1" x="17" y="12"></rect>
 <rect class="grassspeclecolor" height="1" width="1" x="18" y="23"></rect>
 <rect class="grassspeclecolor" height="1" width="1" x="21" y="16"></rect>
 <rect class="grassspeclecolor" height="1" width="1" x="23" y="12"></rect>
 </pattern>
 <pattern y="0" x="0" height="24" width="24" patternUnits="userSpaceOnUse" id="roadPattern">
 <rect class="roadcolor" height="24" width="24" y="0" x="0"></rect>
 <rect class="roadspeclecolor" height="1" width="1" x="1" y="5"></rect>
 <rect class="roadspeclecolor" height="1" width="1" x="1" y="5"></rect>
 <rect class="roadspeclecolor" height="1" width="1" x="3" y="5"></rect>
 <rect class="roadspeclecolor" height="1" width="1" x="6" y="7"></rect>
 <rect class="roadspeclecolor" height="1" width="1" x="6" y="17"></rect>
 <rect class="roadspeclecolor" height="1" width="1" x="8" y="21"></rect>
 <rect class="roadspeclecolor" height="1" width="1" x="9" y="2"></rect>
 <rect class="roadspeclecolor" height="1" width="1" x="12" y="4"></rect>
 <rect class="roadspeclecolor" height="1" width="1" x="13" y="15"></rect>
 <rect class="roadspeclecolor" height="1" width="1" x="14" y="4"></rect>
 <rect class="roadspeclecolor" height="1" width="1" x="14" y="19"></rect>
 <rect class="roadspeclecolor" height="1" width="1" x="17" y="7"></rect>
 <rect class="roadspeclecolor" height="1" width="1" x="17" y="12"></rect>
 <rect class="roadspeclecolor" height="1" width="1" x="18" y="23"></rect>
 <rect class="roadspeclecolor" height="1" width="1" x="21" y="16"></rect>
 <rect class="roadspeclecolor" height="1" width="1" x="23" y="12"></rect>
 </pattern>
 <pattern y="0" x="0" height="12" width="12" patternUnits="userSpaceOnUse" id="grid">
 <line stroke-width="1" stroke="black" y2="12" x2="12" y1="0" x1="12"></line>
 <line stroke-width="1" stroke="black" y2="12" x2="12" y1="12" x1="0"></line>
 </pattern>
 <pattern y="0" x="0" height="12" width="12" patternUnits="userSpaceOnUse" id="finishPattern">
 <rect fill="black" height="12" width="12" y="0" x="0"></rect>
 <path fill="white" d="M0,0L3,0L3,3L0,3L0,0M6,0L9,0L9,3L6,3L6,0M3,3L6,3L6,6L3,6L3,3M9,3L12,3L12,6L9,6L9,3"></path>
 <path fill="white" d="M0,6L3,6L3,9L0,9L0,6M6,6L9,6L9,9L6,9L6,6M3,9L6,9L6,12L3,12L3,9M9,9L12,9L12,12L9,12L9,9"></path>
 </pattern>
 <pattern y="0" x="0" height="12" width="12" patternUnits="userSpaceOnUse" id="startPattern">
 <rect fill="rgb(100,100,100)" height="12" width="12" y="0" x="0"></rect>
 <rect stroke-width="1" stroke="rgb(200,200,200)" fill="none" height="5" width="5" y="3.5" x="3.5"></rect>
 </pattern>
 <pattern y="0" x="0" height="12" width="12" patternUnits="userSpaceOnUse" id="cp1pattern">
 <rect class="cp1color" height="12" width="12" y="0" x="0"></rect>
 <path fill="black" d="M0,0L3,0L3,3L0,3L0,0M6,0L9,0L9,3L6,3L6,0M3,3L6,3L6,6L3,6L3,3M9,3L12,3L12,6L9,6L9,3"></path>
 <path fill="black" d="M0,6L3,6L3,9L0,9L0,6M6,6L9,6L9,9L6,9L6,6M3,9L6,9L6,12L3,12L3,9M9,9L12,9L12,12L9,12L9,9"></path>
 </pattern>
 <pattern y="0" x="0" height="12" width="12" patternUnits="userSpaceOnUse" id="cp2pattern">
 <rect class="cp2color" height="12" width="12" y="0" x="0"></rect>
 <path fill="white" d="M0,0L3,0L3,3L0,3L0,0M6,0L9,0L9,3L6,3L6,0M3,3L6,3L6,6L3,6L3,3M9,3L12,3L12,6L9,6L9,3"></path>
 <path fill="white" d="M0,6L3,6L3,9L0,9L0,6M6,6L9,6L9,9L6,9L6,6M3,9L6,9L6,12L3,12L3,9M9,9L12,9L12,12L9,12L9,9"></path>
 </pattern>
 <pattern y="0" x="0" height="12" width="12" patternUnits="userSpaceOnUse" id="cp3pattern">
 <rect class="cp3color" height="12" width="12" y="0" x="0"></rect>
 <path fill="black" d="M0,0L3,0L3,3L0,3L0,0M6,0L9,0L9,3L6,3L6,0M3,3L6,3L6,6L3,6L3,3M9,3L12,3L12,6L9,6L9,3"></path>
 <path fill="black" d="M0,6L3,6L3,9L0,9L0,6M6,6L9,6L9,9L6,9L6,6M3,9L6,9L6,12L3,12L3,9M9,9L12,9L12,12L9,12L9,9"></path>
 </pattern>
 <pattern y="0" x="0" height="12" width="12" patternUnits="userSpaceOnUse" id="cp4pattern">
 <rect class="cp4color" height="12" width="12" y="0" x="0"></rect>
 <path fill="white" d="M0,0L3,0L3,3L0,3L0,0M6,0L9,0L9,3L6,3L6,0M3,3L6,3L6,6L3,6L3,3M9,3L12,3L12,6L9,6L9,3"></path>
 <path fill="white" d="M0,6L3,6L3,9L0,9L0,6M6,6L9,6L9,9L6,9L6,6M3,9L6,9L6,12L3,12L3,9M9,9L12,9L12,12L9,12L9,9"></path>
 </pattern>
 <pattern y="0" x="0" height="12" width="12" patternUnits="userSpaceOnUse" id="cp5pattern">
 <rect class="cp5color" height="12" width="12" y="0" x="0"></rect>
 <path fill="black" d="M0,0L3,0L3,3L0,3L0,0M6,0L9,0L9,3L6,3L6,0M3,3L6,3L6,6L3,6L3,3M9,3L12,3L12,6L9,6L9,3"></path>
 <path fill="black" d="M0,6L3,6L3,9L0,9L0,6M6,6L9,6L9,9L6,9L6,6M3,9L6,9L6,12L3,12L3,9M9,9L12,9L12,12L9,12L9,9"></path>
 </pattern>
 <pattern y="0" x="0" height="12" width="12" patternUnits="userSpaceOnUse" id="cp6pattern">
 <rect class="cp6color" height="12" width="12" y="0" x="0"></rect>
 <path fill="white" d="M0,0L3,0L3,3L0,3L0,0M6,0L9,0L9,3L6,3L6,0M3,3L6,3L6,6L3,6L3,3M9,3L12,3L12,6L9,6L9,3"></path>
 <path fill="white" d="M0,6L3,6L3,9L0,9L0,6M6,6L9,6L9,9L6,9L6,6M3,9L6,9L6,12L3,12L3,9M9,9L12,9L12,12L9,12L9,9"></path>
 </pattern>
 <pattern y="0" x="0" height="12" width="12" patternUnits="userSpaceOnUse" id="cp7pattern">
 <rect class="cp7color" height="12" width="12" y="0" x="0"></rect>
 <path fill="black" d="M0,0L3,0L3,3L0,3L0,0M6,0L9,0L9,3L6,3L6,0M3,3L6,3L6,6L3,6L3,3M9,3L12,3L12,6L9,6L9,3"></path>
 <path fill="black" d="M0,6L3,6L3,9L0,9L0,6M6,6L9,6L9,9L6,9L6,6M3,9L6,9L6,12L3,12L3,9M9,9L12,9L12,12L9,12L9,9"></path>
 </pattern>
 <pattern y="0" x="0" height="12" width="12" patternUnits="userSpaceOnUse" id="cp8pattern">
 <rect class="cp8color" height="12" width="12" y="0" x="0"></rect>
 <path fill="white" d="M0,0L3,0L3,3L0,3L0,0M6,0L9,0L9,3L6,3L6,0M3,3L6,3L6,6L3,6L3,3M9,3L12,3L12,6L9,6L9,3"></path>
 <path fill="white" d="M0,6L3,6L3,9L0,9L0,6M6,6L9,6L9,9L6,9L6,6M3,9L6,9L6,12L3,12L3,9M9,9L12,9L12,12L9,12L9,9"></path>
 </pattern>
 <pattern y="0" x="0" height="12" width="12" patternUnits="userSpaceOnUse" id="cp9pattern">
 <rect class="cp9color" height="12" width="12" y="0" x="0"></rect>
 <path fill="black" d="M0,0L3,0L3,3L0,3L0,0M6,0L9,0L9,3L6,3L6,0M3,3L6,3L6,6L3,6L3,3M9,3L12,3L12,6L9,6L9,3"></path>
 <path fill="black" d="M0,6L3,6L3,9L0,9L0,6M6,6L9,6L9,9L6,9L6,6M3,9L6,9L6,12L3,12L3,9M9,9L12,9L12,12L9,12L9,9"></path>
 </pattern>
 </defs>
 <rect height="100%" width="100%" y="0" x="0" class="grass" id="mainfill"></rect>
 <g id="paths"><path d="M528,12L528,12L612,12L612,24L624,24L624,60L612,60L612,144L600,144L600,180L588,180L588,204L576,204L576,216L564,216L564,240L552,240L552,252L540,252L540,264L528,264L528,276L492,276L492,288L516,288L516,360L504,360L504,420L516,420L516,456L528,456L528,468L540,468L540,480L552,480L552,492L564,492L564,504L576,504L576,516L588,516L588,528L600,528L600,540L612,540L612,552L624,552L624,576L636,576L636,588L648,588L648,624L624,624L624,612L612,612L612,600L600,600L600,588L588,588L588,576L576,576L576,564L564,564L564,552L552,552L552,540L540,540L540,528L528,528L528,516L516,516L516,504L504,504L504,492L492,492L492,480L480,480L480,468L468,468L468,480L456,480L456,504L444,504L444,516L432,516L432,540L420,540L420,552L408,552L408,564L396,564L396,588L384,588L384,612L372,612L372,624L360,624L360,648L348,648L348,672L336,672L336,696L300,696L300,660L312,660L312,624L324,624L324,600L336,600L336,576L348,576L348,552L360,552L360,528L372,528L372,516L384,516L384,504L396,504L396,480L408,480L408,468L420,468L420,444L432,444L432,420L444,420L444,384L432,384L432,396L420,396L420,408L384,408L384,420L276,420L276,408L240,408L240,396L204,396L204,384L156,384L156,348L228,348L228,360L276,360L276,372L372,372L372,348L360,348L360,288L348,288L348,300L324,300L324,312L228,312L228,300L204,300L204,288L192,288L192,276L168,276L168,300L156,300L156,312L144,312L144,324L132,324L132,336L120,336L120,348L108,348L108,360L120,360L120,372L132,372L132,384L144,384L144,396L156,396L156,408L168,408L168,432L180,432L180,456L192,456L192,444L216,444L216,432L252,432L252,444L276,444L276,456L288,456L288,468L300,468L300,588L288,588L288,624L276,624L276,636L264,636L264,672L276,672L276,684L288,684L288,708L300,708L300,744L312,744L312,732L396,732L396,720L408,720L408,684L420,684L420,660L432,660L432,624L444,624L444,612L456,612L456,600L468,600L468,588L504,588L504,576L552,576L552,588L576,588L576,612L588,612L588,660L600,660L600,648L708,648L708,588L720,588L720,552L708,552L708,540L684,540L684,528L672,528L672,516L648,516L648,504L636,504L636,492L624,492L624,468L612,468L612,444L600,444L600,384L612,384L612,348L624,348L624,336L552,336L552,324L528,324L528,288L540,288L540,276L552,276L552,264L564,264L564,276L588,276L588,288L624,288L624,276L732,276L732,312L720,312L720,324L708,324L708,336L684,336L684,348L672,348L672,372L660,372L660,444L672,444L672,456L696,456L696,468L720,468L720,480L744,480L744,492L768,492L768,504L780,504L780,552L768,552L768,588L756,588L756,660L744,660L744,708L696,708L696,696L636,696L636,708L600,708L600,720L588,720L588,732L552,732L552,720L540,720L540,660L528,660L528,636L504,636L504,648L492,648L492,660L480,660L480,672L468,672L468,696L456,696L456,732L444,732L444,780L432,780L432,792L396,792L396,780L360,780L360,792L336,792L336,804L324,804L324,816L300,816L300,840L288,840L288,852L252,852L252,768L240,768L240,744L228,744L228,720L216,720L216,708L204,708L204,696L180,696L180,660L192,660L192,648L204,648L204,636L216,636L216,624L228,624L228,600L240,600L240,576L252,576L252,528L240,528L240,504L216,504L216,516L192,516L192,528L144,528L144,504L132,504L132,480L120,480L120,456L108,456L108,444L96,444L96,432L84,432L84,420L72,420L72,408L48,408L48,396L36,396L36,384L12,384L12,348L36,348L36,336L48,336L48,324L72,324L72,312L84,312L84,300L96,300L96,288L108,288L108,264L120,264L120,252L132,252L132,240L144,240L144,216L156,216L156,180L192,180L192,192L204,192L204,204L216,204L216,228L240,228L240,240L252,240L252,252L312,252L312,240L324,240L324,204L336,204L336,156L324,156L324,96L360,96L360,108L384,108L384,120L396,120L396,132L408,132L408,144L420,144L420,168L432,168L432,180L444,180L444,204L456,204L456,228L480,228L480,204L492,204L492,168L504,168L504,96L492,96L492,72L480,72L480,36L504,36L504,24L528,24L528,12M564,60L564,60L552,60L552,120L564,120L564,72L576,72L576,60L564,60M396,228L396,228L384,228L384,240L372,240L372,264L360,264L360,288L372,288L372,276L396,276L396,312L408,312L408,324L420,324L420,336L456,336L456,348L468,348L468,300L480,300L480,288L432,288L432,276L420,276L420,264L408,264L408,252L396,252L396,228M36,756L36,756L60,756L60,780L48,780L48,768L36,768L36,756M36,768L36,768L36,792L48,792L48,804L36,804L36,840L48,840L48,852L12,852L12,840L24,840L24,804L12,804L12,792L24,792L24,768Z" class="road"></path><path d="M0,0L0,0L12,0L12,48L0,48Z" class="parc"></path><path d="M528,12L528,12L540,12L540,24L528,24L528,12M552,12L552,12L564,12L564,24L552,24L552,12M576,12L576,12L588,12L588,24L576,24L576,12M600,12L600,12L612,12L612,24L600,24Z" class="start"></path><path d="M552,264L552,264L564,264L564,276L552,276L552,264M552,276L552,276L552,288L540,288L540,276L552,276M540,288L540,288L540,300L528,300L528,288L540,288M528,312L528,312L540,312L540,324L528,324Z" class="finish"></path></g>
 <rect opacity=".3" fill="url(#grid)" height="100%" width="100%" y="0" x="0"></rect>
</svg>