<svg xmlns="http://www.w3.org/2000/svg" xmlns:xlink="http://www.w3.org/1999/xlink" version="1.1" id="mapSvgView" width="756" height="1152"> <rect id="mainfill" class="grass" x="0" y="0" width="100%" height="100%"></rect> <g id="paths"><path d="M216,384L216,384L240,384L240,408L216,408Z" class="cp1"></path><path d="M300,492L300,492L324,492L324,516L300,516Z" class="cp2"></path><path d="M708,36L708,36L732,36L732,60L708,60Z" class="cp3"></path><path d="M0,0L0,0L12,0L12,108L0,108Z" class="parc"></path><path d="M324,12L324,12L468,12L468,24L504,24L504,36L528,36L528,48L552,48L552,60L564,60L564,72L588,72L588,84L600,84L600,96L612,96L612,60L624,60L624,36L648,36L648,24L708,24L708,60L696,60L696,48L672,48L672,60L648,60L648,84L636,84L636,120L648,120L648,144L672,144L672,132L696,132L696,120L708,120L708,96L720,96L720,84L708,84L708,60L744,60L744,120L732,120L732,144L720,144L720,156L696,156L696,168L672,168L672,180L684,180L684,204L696,204L696,228L708,228L708,252L720,252L720,288L732,288L732,360L744,360L744,564L732,564L732,636L720,636L720,672L708,672L708,696L696,696L696,732L684,732L684,756L672,756L672,780L660,780L660,804L648,804L648,828L636,828L636,840L624,840L624,852L612,852L612,876L600,876L600,900L588,900L588,912L576,912L576,924L564,924L564,948L552,948L552,960L540,960L540,972L528,972L528,984L516,984L516,996L504,996L504,1008L492,1008L492,1020L480,1020L480,1032L468,1032L468,1044L456,1044L456,1056L444,1056L444,1068L420,1068L420,1080L396,1080L396,1092L372,1092L372,1104L324,1104L324,1116L276,1116L276,1128L240,1128L240,1116L192,1116L192,1104L168,1104L168,1092L144,1092L144,1080L132,1080L132,1068L120,1068L120,1044L108,1044L108,1032L96,1032L96,996L84,996L84,876L96,876L96,828L108,828L108,792L120,792L120,756L132,756L132,720L144,720L144,648L132,648L132,624L120,624L120,612L108,612L108,588L96,588L96,576L84,576L84,540L96,540L96,528L108,528L108,504L120,504L120,480L132,480L132,444L144,444L144,420L156,420L156,396L168,396L168,372L180,372L180,336L192,336L192,312L204,312L204,276L216,276L216,264L228,264L228,240L240,240L240,228L252,228L252,216L264,216L264,204L276,204L276,192L300,192L300,180L336,180L336,168L444,168L444,180L480,180L480,192L504,192L504,204L528,204L528,216L540,216L540,228L552,228L552,240L564,240L564,252L576,252L576,276L588,276L588,312L600,312L600,336L612,336L612,396L624,396L624,504L612,504L612,564L600,564L600,600L588,600L588,636L576,636L576,648L564,648L564,672L552,672L552,696L540,696L540,708L528,708L528,732L516,732L516,744L504,744L504,768L492,768L492,780L480,780L480,792L468,792L468,804L456,804L456,816L444,816L444,828L432,828L432,840L420,840L420,852L408,852L408,876L396,876L396,900L384,900L384,888L372,888L372,876L360,876L360,888L348,888L348,876L336,876L336,888L324,888L324,900L312,900L312,864L324,864L324,852L336,852L336,840L348,840L348,828L360,828L360,816L372,816L372,792L396,792L396,780L408,780L408,756L420,756L420,744L432,744L432,732L444,732L444,708L456,708L456,696L468,696L468,672L480,672L480,636L492,636L492,552L504,552L504,480L456,480L456,492L420,492L420,504L396,504L396,516L384,516L384,540L396,540L396,552L408,552L408,576L420,576L420,624L408,624L408,648L396,648L396,660L384,660L384,672L360,672L360,684L288,684L288,696L240,696L240,708L216,708L216,720L204,720L204,732L192,732L192,744L180,744L180,756L168,756L168,780L156,780L156,792L144,792L144,828L132,828L132,864L120,864L120,984L132,984L132,1008L144,1008L144,1032L156,1032L156,1044L168,1044L168,1056L180,1056L180,1068L204,1068L204,1080L312,1080L312,1068L360,1068L360,1056L372,1056L372,1044L396,1044L396,1032L420,1032L420,1020L432,1020L432,1008L444,1008L444,996L456,996L456,984L468,984L468,972L480,972L480,960L492,960L492,948L504,948L504,924L516,924L516,912L528,912L528,900L540,900L540,888L552,888L552,864L564,864L564,852L576,852L576,828L588,828L588,804L600,804L600,780L612,780L612,756L624,756L624,732L636,732L636,696L648,696L648,684L660,684L660,636L672,636L672,588L684,588L684,540L696,540L696,384L684,384L684,324L672,324L672,276L660,276L660,240L648,240L648,216L636,216L636,192L624,192L624,168L612,168L612,156L600,156L600,144L588,144L588,132L576,132L576,120L564,120L564,108L540,108L540,96L528,96L528,84L504,84L504,72L480,72L480,60L300,60L300,72L264,72L264,84L240,84L240,96L228,96L228,108L216,108L216,120L204,120L204,132L192,132L192,144L180,144L180,156L168,156L168,168L156,168L156,180L144,180L144,192L132,192L132,216L120,216L120,240L108,240L108,252L96,252L96,288L84,288L84,312L72,312L72,336L60,336L60,372L48,372L48,408L12,408L12,372L24,372L24,324L36,324L36,288L48,288L48,276L60,276L60,240L72,240L72,216L84,216L84,204L96,204L96,192L108,192L108,168L120,168L120,156L132,156L132,132L144,132L144,120L156,120L156,108L168,108L168,96L180,96L180,84L204,84L204,72L216,72L216,60L240,60L240,48L252,48L252,36L288,36L288,24L324,24L324,12M324,324L324,324L312,324L312,336L288,336L288,348L264,348L264,372L252,372L252,444L264,444L264,468L288,468L288,480L324,480L324,492L300,492L300,516L324,516L324,492L348,492L348,504L384,504L384,492L408,492L408,480L432,480L432,468L468,468L468,456L492,456L492,396L480,396L480,372L468,372L468,360L456,360L456,348L444,348L444,336L408,336L408,324L324,324M228,384L228,384L216,384L216,408L240,408L240,384L228,384M156,528L156,528L144,528L144,540L132,540L132,552L120,552L120,600L132,600L132,552L144,552L144,540L180,540L180,528L156,528M228,528L228,528L216,528L216,564L204,564L204,612L216,612L216,576L252,576L252,612L264,612L264,576L276,576L276,528L264,528L264,564L228,564L228,528M312,528L312,528L300,528L300,564L288,564L288,612L300,612L300,576L324,576L324,588L336,588L336,576L348,576L348,564L312,564L312,540L348,540L348,564L360,564L360,528L312,528M192,540L192,540L180,540L180,588L168,588L168,600L132,600L132,612L168,612L168,600L180,600L180,588L192,588L192,540M348,588L348,588L336,588L336,612L348,612L348,588M336,888L336,888L348,888L348,900L336,900L336,888M360,888L360,888L372,888L372,900L360,900L360,888M324,900L324,900L336,900L336,912L348,912L348,900L360,900L360,912L372,912L372,900L384,900L384,924L324,924Z" class="road"></path><path d="M12,408L12,408L36,408L36,420L12,420Z" class="finish"></path><path d="M336,876L336,876L348,876L348,888L336,888L336,876M348,888L348,888L360,888L360,876L372,876L372,888L360,888L360,900L348,900L348,888M336,888L336,888L336,900L324,900L324,888L336,888M372,888L372,888L384,888L384,900L372,900L372,888M336,900L336,900L348,900L348,912L336,912L336,900M324,900L324,900L324,912L312,912L312,900L324,900M360,900L360,900L372,900L372,912L360,912L360,900M384,900L384,900L396,900L396,912L384,912Z" class="start"></path></g></svg>