<svg xmlns="http://www.w3.org/2000/svg" xmlns:xlink="http://www.w3.org/1999/xlink" version="1.1" id="mapSvgView" width="504" height="480"> <rect id="mainfill" class="road" x="0" y="0" width="100%" height="100%"></rect> <g id="paths"><path d="M0,0L0,0L12,0L12,108L0,108Z" class="parc"></path><path d="M12,0L12,0L504,0L504,480L0,480L0,108L12,108L12,0M72,24L72,24L60,24L60,36L48,36L48,84L72,84L72,96L84,96L84,132L96,132L96,156L108,156L108,180L48,180L48,204L24,204L24,324L48,324L48,372L288,372L288,216L300,216L300,204L312,204L312,192L324,192L324,180L216,180L216,156L228,156L228,132L240,132L240,96L252,96L252,84L348,84L348,372L336,372L336,384L48,384L48,396L36,396L36,456L456,456L456,36L444,36L444,24L72,24M108,96L108,96L120,96L120,120L108,120L108,96M168,96L168,96L180,96L180,120L168,120L168,96M264,120L264,120L252,120L252,132L264,132L264,120M336,120L336,120L324,120L324,132L312,132L312,144L300,144L300,132L288,132L288,144L276,144L276,132L264,132L264,144L276,144L276,156L288,156L288,144L300,144L300,156L312,156L312,144L324,144L324,132L336,132L336,120M144,132L144,132L156,132L156,156L144,156L144,132M192,132L192,132L204,132L204,156L192,156L192,132M168,156L168,156L180,156L180,180L168,180L168,156M120,168L120,168L132,168L132,192L120,192L120,168M192,168L192,168L204,168L204,192L192,192L192,168M144,180L144,180L156,180L156,204L144,204L144,180M36,216L36,216L48,216L48,312L36,312L36,216M120,216L120,216L132,216L132,240L120,240L120,216M156,216L156,216L168,216L168,240L156,240L156,216M192,216L192,216L204,216L204,240L192,240L192,216M132,252L132,252L144,252L144,276L132,276L132,252M180,252L180,252L192,252L192,276L180,276L180,252M384,312L384,312L420,312L420,336L384,336Z" class="grass"></path><path d="M60,360L60,360L72,360L72,372L60,372L60,360M84,360L84,360L96,360L96,372L84,372L84,360M108,360L108,360L120,360L120,372L108,372L108,360M132,360L132,360L144,360L144,372L132,372L132,360M156,360L156,360L168,360L168,372L156,372L156,360M180,360L180,360L192,360L192,372L180,372L180,360M204,360L204,360L216,360L216,372L204,372L204,360M228,360L228,360L240,360L240,372L228,372L228,360M252,360L252,360L264,360L264,372L252,372Z" class="start"></path><path d="M48,396L48,396L60,396L60,456L48,456Z" class="finish"></path></g></svg>