<svg xmlns="http://www.w3.org/2000/svg" xmlns:xlink="http://www.w3.org/1999/xlink" version="1.1" id="mapSvgView" width="1800" height="132"> <rect id="mainfill" class="grass" x="0" y="0" width="100%" height="100%"></rect> <g id="paths"><path d="M24,36L24,36L36,36L36,96L24,96Z" class="start"></path><path d="M36,36L36,36L192,36L192,48L480,48L480,60L732,60L732,48L840,48L840,60L948,60L948,48L1428,48L1428,60L1584,60L1584,72L1764,72L1764,84L948,84L948,72L768,72L768,84L288,84L288,96L36,96L36,36M1128,60L1128,60L1116,60L1116,72L1248,72L1248,60Z" class="road"></path><path d="M1764,72L1764,72L1776,72L1776,84L1764,84Z" class="finish"></path></g></svg>