<svg xmlns:xlink="http://www.w3.org/1999/xlink" xmlns="http://www.w3.org/2000/svg" height="720" width="540" id="mapSvgView" version="1.1" style="width: 540px; height: 720px;" viewBox="0 0 540 720">
 <defs>
 <pattern y="0" x="0" height="24" width="24" patternUnits="userSpaceOnUse" id="grassPattern">
 <rect class="grasscolor" height="24" width="24" y="0" x="0"></rect>
 <rect class="grassspeclecolor" height="1" width="1" x="1" y="5"></rect>
 <rect class="grassspeclecolor" height="1" width="1" x="1" y="5"></rect>
 <rect class="grassspeclecolor" height="1" width="1" x="3" y="5"></rect>
 <rect class="grassspeclecolor" height="1" width="1" x="6" y="7"></rect>
 <rect class="grassspeclecolor" height="1" width="1" x="6" y="17"></rect>
 <rect class="grassspeclecolor" height="1" width="1" x="8" y="21"></rect>
 <rect class="grassspeclecolor" height="1" width="1" x="9" y="2"></rect>
 <rect class="grassspeclecolor" height="1" width="1" x="12" y="4"></rect>
 <rect class="grassspeclecolor" height="1" width="1" x="13" y="15"></rect>
 <rect class="grassspeclecolor" height="1" width="1" x="14" y="4"></rect>
 <rect class="grassspeclecolor" height="1" width="1" x="14" y="19"></rect>
 <rect class="grassspeclecolor" height="1" width="1" x="17" y="7"></rect>
 <rect class="grassspeclecolor" height="1" width="1" x="17" y="12"></rect>
 <rect class="grassspeclecolor" height="1" width="1" x="18" y="23"></rect>
 <rect class="grassspeclecolor" height="1" width="1" x="21" y="16"></rect>
 <rect class="grassspeclecolor" height="1" width="1" x="23" y="12"></rect>
 </pattern>
 <pattern y="0" x="0" height="24" width="24" patternUnits="userSpaceOnUse" id="roadPattern">
 <rect class="roadcolor" height="24" width="24" y="0" x="0"></rect>
 <rect class="roadspeclecolor" height="1" width="1" x="1" y="5"></rect>
 <rect class="roadspeclecolor" height="1" width="1" x="1" y="5"></rect>
 <rect class="roadspeclecolor" height="1" width="1" x="3" y="5"></rect>
 <rect class="roadspeclecolor" height="1" width="1" x="6" y="7"></rect>
 <rect class="roadspeclecolor" height="1" width="1" x="6" y="17"></rect>
 <rect class="roadspeclecolor" height="1" width="1" x="8" y="21"></rect>
 <rect class="roadspeclecolor" height="1" width="1" x="9" y="2"></rect>
 <rect class="roadspeclecolor" height="1" width="1" x="12" y="4"></rect>
 <rect class="roadspeclecolor" height="1" width="1" x="13" y="15"></rect>
 <rect class="roadspeclecolor" height="1" width="1" x="14" y="4"></rect>
 <rect class="roadspeclecolor" height="1" width="1" x="14" y="19"></rect>
 <rect class="roadspeclecolor" height="1" width="1" x="17" y="7"></rect>
 <rect class="roadspeclecolor" height="1" width="1" x="17" y="12"></rect>
 <rect class="roadspeclecolor" height="1" width="1" x="18" y="23"></rect>
 <rect class="roadspeclecolor" height="1" width="1" x="21" y="16"></rect>
 <rect class="roadspeclecolor" height="1" width="1" x="23" y="12"></rect>
 </pattern>
 <pattern y="0" x="0" height="12" width="12" patternUnits="userSpaceOnUse" id="grid">
 <line stroke-width="1" stroke="black" y2="12" x2="12" y1="0" x1="12"></line>
 <line stroke-width="1" stroke="black" y2="12" x2="12" y1="12" x1="0"></line>
 </pattern>
 <pattern y="0" x="0" height="12" width="12" patternUnits="userSpaceOnUse" id="finishPattern">
 <rect fill="black" height="12" width="12" y="0" x="0"></rect>
 <path fill="white" d="M0,0L3,0L3,3L0,3L0,0M6,0L9,0L9,3L6,3L6,0M3,3L6,3L6,6L3,6L3,3M9,3L12,3L12,6L9,6L9,3"></path>
 <path fill="white" d="M0,6L3,6L3,9L0,9L0,6M6,6L9,6L9,9L6,9L6,6M3,9L6,9L6,12L3,12L3,9M9,9L12,9L12,12L9,12L9,9"></path>
 </pattern>
 <pattern y="0" x="0" height="12" width="12" patternUnits="userSpaceOnUse" id="startPattern">
 <rect fill="rgb(100,100,100)" height="12" width="12" y="0" x="0"></rect>
 <rect stroke-width="1" stroke="rgb(200,200,200)" fill="none" height="5" width="5" y="3.5" x="3.5"></rect>
 </pattern>
 <pattern y="0" x="0" height="12" width="12" patternUnits="userSpaceOnUse" id="cp1pattern">
 <rect class="cp1color" height="12" width="12" y="0" x="0"></rect>
 <path fill="black" d="M0,0L3,0L3,3L0,3L0,0M6,0L9,0L9,3L6,3L6,0M3,3L6,3L6,6L3,6L3,3M9,3L12,3L12,6L9,6L9,3"></path>
 <path fill="black" d="M0,6L3,6L3,9L0,9L0,6M6,6L9,6L9,9L6,9L6,6M3,9L6,9L6,12L3,12L3,9M9,9L12,9L12,12L9,12L9,9"></path>
 </pattern>
 <pattern y="0" x="0" height="12" width="12" patternUnits="userSpaceOnUse" id="cp2pattern">
 <rect class="cp2color" height="12" width="12" y="0" x="0"></rect>
 <path fill="white" d="M0,0L3,0L3,3L0,3L0,0M6,0L9,0L9,3L6,3L6,0M3,3L6,3L6,6L3,6L3,3M9,3L12,3L12,6L9,6L9,3"></path>
 <path fill="white" d="M0,6L3,6L3,9L0,9L0,6M6,6L9,6L9,9L6,9L6,6M3,9L6,9L6,12L3,12L3,9M9,9L12,9L12,12L9,12L9,9"></path>
 </pattern>
 <pattern y="0" x="0" height="12" width="12" patternUnits="userSpaceOnUse" id="cp3pattern">
 <rect class="cp3color" height="12" width="12" y="0" x="0"></rect>
 <path fill="black" d="M0,0L3,0L3,3L0,3L0,0M6,0L9,0L9,3L6,3L6,0M3,3L6,3L6,6L3,6L3,3M9,3L12,3L12,6L9,6L9,3"></path>
 <path fill="black" d="M0,6L3,6L3,9L0,9L0,6M6,6L9,6L9,9L6,9L6,6M3,9L6,9L6,12L3,12L3,9M9,9L12,9L12,12L9,12L9,9"></path>
 </pattern>
 <pattern y="0" x="0" height="12" width="12" patternUnits="userSpaceOnUse" id="cp4pattern">
 <rect class="cp4color" height="12" width="12" y="0" x="0"></rect>
 <path fill="white" d="M0,0L3,0L3,3L0,3L0,0M6,0L9,0L9,3L6,3L6,0M3,3L6,3L6,6L3,6L3,3M9,3L12,3L12,6L9,6L9,3"></path>
 <path fill="white" d="M0,6L3,6L3,9L0,9L0,6M6,6L9,6L9,9L6,9L6,6M3,9L6,9L6,12L3,12L3,9M9,9L12,9L12,12L9,12L9,9"></path>
 </pattern>
 <pattern y="0" x="0" height="12" width="12" patternUnits="userSpaceOnUse" id="cp5pattern">
 <rect class="cp5color" height="12" width="12" y="0" x="0"></rect>
 <path fill="black" d="M0,0L3,0L3,3L0,3L0,0M6,0L9,0L9,3L6,3L6,0M3,3L6,3L6,6L3,6L3,3M9,3L12,3L12,6L9,6L9,3"></path>
 <path fill="black" d="M0,6L3,6L3,9L0,9L0,6M6,6L9,6L9,9L6,9L6,6M3,9L6,9L6,12L3,12L3,9M9,9L12,9L12,12L9,12L9,9"></path>
 </pattern>
 <pattern y="0" x="0" height="12" width="12" patternUnits="userSpaceOnUse" id="cp6pattern">
 <rect class="cp6color" height="12" width="12" y="0" x="0"></rect>
 <path fill="white" d="M0,0L3,0L3,3L0,3L0,0M6,0L9,0L9,3L6,3L6,0M3,3L6,3L6,6L3,6L3,3M9,3L12,3L12,6L9,6L9,3"></path>
 <path fill="white" d="M0,6L3,6L3,9L0,9L0,6M6,6L9,6L9,9L6,9L6,6M3,9L6,9L6,12L3,12L3,9M9,9L12,9L12,12L9,12L9,9"></path>
 </pattern>
 <pattern y="0" x="0" height="12" width="12" patternUnits="userSpaceOnUse" id="cp7pattern">
 <rect class="cp7color" height="12" width="12" y="0" x="0"></rect>
 <path fill="black" d="M0,0L3,0L3,3L0,3L0,0M6,0L9,0L9,3L6,3L6,0M3,3L6,3L6,6L3,6L3,3M9,3L12,3L12,6L9,6L9,3"></path>
 <path fill="black" d="M0,6L3,6L3,9L0,9L0,6M6,6L9,6L9,9L6,9L6,6M3,9L6,9L6,12L3,12L3,9M9,9L12,9L12,12L9,12L9,9"></path>
 </pattern>
 <pattern y="0" x="0" height="12" width="12" patternUnits="userSpaceOnUse" id="cp8pattern">
 <rect class="cp8color" height="12" width="12" y="0" x="0"></rect>
 <path fill="white" d="M0,0L3,0L3,3L0,3L0,0M6,0L9,0L9,3L6,3L6,0M3,3L6,3L6,6L3,6L3,3M9,3L12,3L12,6L9,6L9,3"></path>
 <path fill="white" d="M0,6L3,6L3,9L0,9L0,6M6,6L9,6L9,9L6,9L6,6M3,9L6,9L6,12L3,12L3,9M9,9L12,9L12,12L9,12L9,9"></path>
 </pattern>
 <pattern y="0" x="0" height="12" width="12" patternUnits="userSpaceOnUse" id="cp9pattern">
 <rect class="cp9color" height="12" width="12" y="0" x="0"></rect>
 <path fill="black" d="M0,0L3,0L3,3L0,3L0,0M6,0L9,0L9,3L6,3L6,0M3,3L6,3L6,6L3,6L3,3M9,3L12,3L12,6L9,6L9,3"></path>
 <path fill="black" d="M0,6L3,6L3,9L0,9L0,6M6,6L9,6L9,9L6,9L6,6M3,9L6,9L6,12L3,12L3,9M9,9L12,9L12,12L9,12L9,9"></path>
 </pattern>
 </defs>
 <rect height="100%" width="100%" y="0" x="0" class="road" id="mainfill"></rect>
 <g id="paths"><path d="M12,0L12,0L180,0L180,12L168,12L168,36L180,36L180,48L168,48L168,60L156,60L156,96L132,96L132,108L120,108L120,120L84,120L84,144L72,144L72,180L84,180L84,192L72,192L72,216L48,216L48,252L60,252L60,264L48,264L48,276L24,276L24,288L0,288L0,72L12,72L12,0M228,0L228,0L540,0L540,324L528,324L528,264L516,264L516,216L504,216L504,192L516,192L516,132L504,132L504,108L492,108L492,96L480,96L480,84L468,84L468,60L456,60L456,48L444,48L444,36L432,36L432,24L420,24L420,36L396,36L396,48L372,48L372,60L360,60L360,72L348,72L348,84L324,84L324,96L312,96L312,72L324,72L324,48L312,48L312,36L300,36L300,48L288,48L288,60L264,60L264,36L252,36L252,24L240,24L240,12L228,12L228,0M216,60L216,60L252,60L252,72L288,72L288,84L276,84L276,96L300,96L300,108L312,108L312,156L300,156L300,180L288,180L288,216L312,216L312,204L324,204L324,192L336,192L336,180L348,180L348,168L360,168L360,120L372,120L372,84L396,84L396,72L408,72L408,60L444,60L444,72L456,72L456,84L444,84L444,96L468,96L468,108L480,108L480,120L492,120L492,192L480,192L480,216L468,216L468,252L432,252L432,264L408,264L408,276L384,276L384,288L396,288L396,300L408,300L408,312L432,312L432,324L468,324L468,336L480,336L480,348L492,348L492,372L504,372L504,384L480,384L480,396L444,396L444,408L408,408L408,420L372,420L372,432L360,432L360,420L336,420L336,432L324,432L324,444L336,444L336,456L348,456L348,480L360,480L360,492L372,492L372,516L384,516L384,540L396,540L396,552L408,552L408,576L420,576L420,624L408,624L408,636L396,636L396,648L384,648L384,660L372,660L372,672L348,672L348,684L240,684L240,672L204,672L204,660L192,660L192,648L180,648L180,636L168,636L168,624L156,624L156,588L168,588L168,564L192,564L192,552L276,552L276,540L264,540L264,528L240,528L240,540L216,540L216,528L192,528L192,540L156,540L156,552L132,552L132,564L84,564L84,552L60,552L60,540L48,540L48,528L36,528L36,492L48,492L48,480L72,480L72,468L84,468L84,456L96,456L96,444L108,444L108,432L132,432L132,420L60,420L60,408L48,408L48,396L36,396L36,384L24,384L24,348L36,348L36,336L48,336L48,324L72,324L72,312L84,312L84,300L120,300L120,312L144,312L144,324L156,324L156,336L168,336L168,348L192,348L192,336L180,336L180,324L168,324L168,312L156,312L156,300L144,300L144,276L132,276L132,264L120,264L120,228L132,228L132,216L144,216L144,204L168,204L168,192L156,192L156,180L144,180L144,168L132,168L132,144L144,144L144,132L156,132L156,120L144,120L144,108L168,108L168,96L180,96L180,84L204,84L204,72L216,72L216,60M228,96L228,96L216,96L216,108L204,108L204,132L192,132L192,168L204,168L204,204L192,204L192,228L180,228L180,240L168,240L168,264L180,264L180,276L192,276L192,288L204,288L204,300L216,300L216,312L228,312L228,360L216,360L216,372L204,372L204,384L156,384L156,372L144,372L144,360L120,360L120,348L108,348L108,336L96,336L96,348L84,348L84,372L96,372L96,384L132,384L132,396L156,396L156,408L168,408L168,456L156,456L156,468L144,468L144,480L132,480L132,492L120,492L120,504L72,504L72,516L120,516L120,528L144,528L144,516L168,516L168,504L192,504L192,492L264,492L264,504L276,504L276,516L300,516L300,528L312,528L312,564L300,564L300,576L276,576L276,588L228,588L228,576L216,576L216,588L204,588L204,612L216,612L216,624L228,624L228,636L264,636L264,648L336,648L336,636L348,636L348,624L372,624L372,612L384,612L384,600L372,600L372,576L360,576L360,552L348,552L348,540L336,540L336,528L324,528L324,504L312,504L312,492L300,492L300,468L276,468L276,456L264,456L264,420L276,420L276,408L288,408L288,396L300,396L300,384L312,384L312,372L324,372L324,360L372,360L372,372L444,372L444,360L420,360L420,348L372,348L372,336L360,336L360,312L348,312L348,300L336,300L336,276L348,276L348,252L384,252L384,216L396,216L396,204L420,204L420,192L432,192L432,180L456,180L456,132L444,132L444,108L432,108L432,96L420,96L420,132L408,132L408,144L396,144L396,168L384,168L384,192L372,192L372,216L360,216L360,228L348,228L348,240L336,240L336,252L324,252L324,264L300,264L300,276L288,276L288,288L264,288L264,276L252,276L252,240L240,240L240,228L228,228L228,216L216,216L216,192L228,192L228,180L240,180L240,168L264,168L264,156L276,156L276,144L264,144L264,120L252,120L252,108L240,108L240,96L228,96M0,324L0,324L12,324L12,336L0,336L0,324M528,384L528,384L540,384L540,720L336,720L336,708L360,708L360,696L396,696L396,708L444,708L444,660L432,660L432,636L468,636L468,612L492,612L492,564L480,564L480,552L468,552L468,540L444,540L444,528L432,528L432,516L420,516L420,504L408,504L408,468L396,468L396,444L432,444L432,432L444,432L444,420L468,420L468,408L492,408L492,396L528,396L528,384M0,420L0,420L12,420L12,432L0,432L0,420M0,480L0,480L12,480L12,528L24,528L24,540L36,540L36,552L48,552L48,564L72,564L72,576L96,576L96,588L84,588L84,624L72,624L72,636L60,636L60,684L72,684L72,696L84,696L84,708L156,708L156,696L192,696L192,708L240,708L240,720L0,720L0,480M276,696L276,696L288,696L288,708L300,708L300,720L276,720Z" class="road"></path><path d="M300,384L300,384L324,384L324,408L300,408L300,384M420,384L420,384L444,384L444,408L420,408L420,384M444,648L444,648L480,648L480,672L504,672L504,648L540,648L540,660L516,660L516,696L540,696L540,708L504,708L504,684L480,684L480,708L444,708L444,696L468,696L468,660L444,660Z" class="cp1"></path><path d="M180,612L180,612L204,612L204,636L180,636L180,612M336,636L336,636L360,636L360,660L336,660Z" class="cp2"></path><path d="M84,540L84,540L108,540L108,564L84,564Z" class="cp3"></path><path d="M240,504L240,504L264,504L264,528L240,528L240,504M276,516L276,516L300,516L300,540L276,540Z" class="cp4"></path><path d="M84,396L84,396L108,396L108,420L84,420Z" class="cp5"></path><path d="M168,96L168,96L192,96L192,108L168,108L168,96M168,132L168,132L192,132L192,156L168,156Z" class="cp6"></path><path d="M240,60L240,60L252,60L252,72L264,72L264,84L240,84L240,60M264,108L264,108L288,108L288,132L264,132L264,108M228,192L228,192L252,192L252,216L228,216Z" class="cp7"></path><path d="M324,228L324,228L348,228L348,240L336,240L336,252L324,252Z" class="cp8"></path><path d="M396,96L396,96L420,96L420,120L396,120Z" class="cp9"></path><path d="M0,0L0,0L12,0L12,72L0,72Z" class="parc"></path><path d="M180,0L180,0L228,0L228,12L240,12L240,24L252,24L252,36L264,36L264,60L288,60L288,48L300,48L300,36L312,36L312,48L324,48L324,72L312,72L312,96L324,96L324,84L348,84L348,72L360,72L360,60L372,60L372,48L396,48L396,36L420,36L420,24L432,24L432,36L444,36L444,48L456,48L456,60L468,60L468,84L480,84L480,96L492,96L492,108L504,108L504,132L516,132L516,192L504,192L504,216L516,216L516,264L528,264L528,324L540,324L540,384L528,384L528,396L492,396L492,408L468,408L468,420L444,420L444,432L432,432L432,444L396,444L396,468L408,468L408,504L420,504L420,516L432,516L432,528L444,528L444,540L468,540L468,552L480,552L480,564L492,564L492,612L468,612L468,636L432,636L432,660L444,660L444,708L396,708L396,696L360,696L360,708L336,708L336,720L300,720L300,708L288,708L288,696L276,696L276,720L240,720L240,708L192,708L192,696L156,696L156,708L84,708L84,696L72,696L72,684L60,684L60,636L72,636L72,624L84,624L84,588L96,588L96,576L72,576L72,564L48,564L48,552L36,552L36,540L24,540L24,528L12,528L12,480L0,480L0,432L12,432L12,420L0,420L0,336L12,336L12,324L0,324L0,288L24,288L24,276L48,276L48,264L60,264L60,252L48,252L48,216L72,216L72,192L84,192L84,180L72,180L72,144L84,144L84,120L120,120L120,108L132,108L132,96L156,96L156,60L168,60L168,48L180,48L180,36L168,36L168,12L180,12L180,0M228,60L228,60L216,60L216,72L204,72L204,84L180,84L180,96L168,96L168,108L144,108L144,120L156,120L156,132L144,132L144,144L132,144L132,168L144,168L144,180L156,180L156,192L168,192L168,204L144,204L144,216L132,216L132,228L120,228L120,264L132,264L132,276L144,276L144,300L156,300L156,312L168,312L168,324L180,324L180,336L192,336L192,348L168,348L168,336L156,336L156,324L144,324L144,312L120,312L120,300L84,300L84,312L72,312L72,324L48,324L48,336L36,336L36,348L24,348L24,384L36,384L36,396L48,396L48,408L60,408L60,420L132,420L132,432L108,432L108,444L96,444L96,456L84,456L84,468L72,468L72,480L48,480L48,492L36,492L36,528L48,528L48,540L60,540L60,552L84,552L84,564L132,564L132,552L156,552L156,540L192,540L192,528L216,528L216,540L240,540L240,528L264,528L264,540L276,540L276,552L192,552L192,564L168,564L168,588L156,588L156,624L168,624L168,636L180,636L180,648L192,648L192,660L204,660L204,672L240,672L240,684L348,684L348,672L372,672L372,660L384,660L384,648L396,648L396,636L408,636L408,624L420,624L420,576L408,576L408,552L396,552L396,540L384,540L384,516L372,516L372,492L360,492L360,480L348,480L348,456L336,456L336,444L324,444L324,432L336,432L336,420L360,420L360,432L372,432L372,420L408,420L408,408L444,408L444,396L480,396L480,384L504,384L504,372L492,372L492,348L480,348L480,336L468,336L468,324L432,324L432,312L408,312L408,300L396,300L396,288L384,288L384,276L408,276L408,264L432,264L432,252L468,252L468,216L480,216L480,192L492,192L492,120L480,120L480,108L468,108L468,96L444,96L444,84L456,84L456,72L444,72L444,60L408,60L408,72L396,72L396,84L372,84L372,120L360,120L360,168L348,168L348,180L336,180L336,192L324,192L324,204L312,204L312,216L288,216L288,180L300,180L300,156L312,156L312,108L300,108L300,96L276,96L276,84L288,84L288,72L252,72L252,60L228,60M216,96L216,96L240,96L240,108L252,108L252,120L264,120L264,144L276,144L276,156L264,156L264,168L240,168L240,180L228,180L228,192L216,192L216,216L228,216L228,228L240,228L240,240L252,240L252,276L264,276L264,288L288,288L288,276L300,276L300,264L324,264L324,252L336,252L336,240L348,240L348,228L360,228L360,216L372,216L372,192L384,192L384,168L396,168L396,144L408,144L408,132L420,132L420,96L432,96L432,108L444,108L444,132L456,132L456,180L432,180L432,192L420,192L420,204L396,204L396,216L384,216L384,252L348,252L348,276L336,276L336,300L348,300L348,312L360,312L360,336L372,336L372,348L420,348L420,360L444,360L444,372L372,372L372,360L324,360L324,372L312,372L312,384L300,384L300,396L288,396L288,408L276,408L276,420L264,420L264,456L276,456L276,468L300,468L300,492L312,492L312,504L324,504L324,528L336,528L336,540L348,540L348,552L360,552L360,576L372,576L372,600L384,600L384,612L372,612L372,624L348,624L348,636L336,636L336,648L264,648L264,636L228,636L228,624L216,624L216,612L204,612L204,588L216,588L216,576L228,576L228,588L276,588L276,576L300,576L300,564L312,564L312,528L300,528L300,516L276,516L276,504L264,504L264,492L192,492L192,504L168,504L168,516L144,516L144,528L120,528L120,516L72,516L72,504L120,504L120,492L132,492L132,480L144,480L144,468L156,468L156,456L168,456L168,408L156,408L156,396L132,396L132,384L96,384L96,372L84,372L84,348L96,348L96,336L108,336L108,348L120,348L120,360L144,360L144,372L156,372L156,384L204,384L204,372L216,372L216,360L228,360L228,312L216,312L216,300L204,300L204,288L192,288L192,276L180,276L180,264L168,264L168,240L180,240L180,228L192,228L192,204L204,204L204,168L192,168L192,132L204,132L204,108L216,108Z" class="grass"></path><path d="M408,204L408,204L468,204L468,240L456,240L456,228L432,228L432,216L408,216Z" class="finish"></path><path d="M408,216L408,216L432,216L432,228L456,228L456,240L408,240Z" class="start"></path></g>
 <rect opacity=".3" fill="url(#grid)" height="100%" width="100%" y="0" x="0"></rect>
</svg>