<svg xmlns:xlink="http://www.w3.org/1999/xlink" xmlns="http://www.w3.org/2000/svg" height="1068" width="1200" id="mapSvgView" version="1.1" style="width: 1200px; height: 1068px;" viewBox="0 0 1200 1068">
 <defs>
 <pattern y="0" x="0" height="24" width="24" patternUnits="userSpaceOnUse" id="grassPattern">
 <rect class="grasscolor" height="24" width="24" y="0" x="0"></rect>
 <rect class="grassspeclecolor" height="1" width="1" x="1" y="5"></rect>
 <rect class="grassspeclecolor" height="1" width="1" x="1" y="5"></rect>
 <rect class="grassspeclecolor" height="1" width="1" x="3" y="5"></rect>
 <rect class="grassspeclecolor" height="1" width="1" x="6" y="7"></rect>
 <rect class="grassspeclecolor" height="1" width="1" x="6" y="17"></rect>
 <rect class="grassspeclecolor" height="1" width="1" x="8" y="21"></rect>
 <rect class="grassspeclecolor" height="1" width="1" x="9" y="2"></rect>
 <rect class="grassspeclecolor" height="1" width="1" x="12" y="4"></rect>
 <rect class="grassspeclecolor" height="1" width="1" x="13" y="15"></rect>
 <rect class="grassspeclecolor" height="1" width="1" x="14" y="4"></rect>
 <rect class="grassspeclecolor" height="1" width="1" x="14" y="19"></rect>
 <rect class="grassspeclecolor" height="1" width="1" x="17" y="7"></rect>
 <rect class="grassspeclecolor" height="1" width="1" x="17" y="12"></rect>
 <rect class="grassspeclecolor" height="1" width="1" x="18" y="23"></rect>
 <rect class="grassspeclecolor" height="1" width="1" x="21" y="16"></rect>
 <rect class="grassspeclecolor" height="1" width="1" x="23" y="12"></rect>
 </pattern>
 <pattern y="0" x="0" height="24" width="24" patternUnits="userSpaceOnUse" id="roadPattern">
 <rect class="roadcolor" height="24" width="24" y="0" x="0"></rect>
 <rect class="roadspeclecolor" height="1" width="1" x="1" y="5"></rect>
 <rect class="roadspeclecolor" height="1" width="1" x="1" y="5"></rect>
 <rect class="roadspeclecolor" height="1" width="1" x="3" y="5"></rect>
 <rect class="roadspeclecolor" height="1" width="1" x="6" y="7"></rect>
 <rect class="roadspeclecolor" height="1" width="1" x="6" y="17"></rect>
 <rect class="roadspeclecolor" height="1" width="1" x="8" y="21"></rect>
 <rect class="roadspeclecolor" height="1" width="1" x="9" y="2"></rect>
 <rect class="roadspeclecolor" height="1" width="1" x="12" y="4"></rect>
 <rect class="roadspeclecolor" height="1" width="1" x="13" y="15"></rect>
 <rect class="roadspeclecolor" height="1" width="1" x="14" y="4"></rect>
 <rect class="roadspeclecolor" height="1" width="1" x="14" y="19"></rect>
 <rect class="roadspeclecolor" height="1" width="1" x="17" y="7"></rect>
 <rect class="roadspeclecolor" height="1" width="1" x="17" y="12"></rect>
 <rect class="roadspeclecolor" height="1" width="1" x="18" y="23"></rect>
 <rect class="roadspeclecolor" height="1" width="1" x="21" y="16"></rect>
 <rect class="roadspeclecolor" height="1" width="1" x="23" y="12"></rect>
 </pattern>
 <pattern y="0" x="0" height="12" width="12" patternUnits="userSpaceOnUse" id="grid">
 <line stroke-width="1" stroke="black" y2="12" x2="12" y1="0" x1="12"></line>
 <line stroke-width="1" stroke="black" y2="12" x2="12" y1="12" x1="0"></line>
 </pattern>
 <pattern y="0" x="0" height="12" width="12" patternUnits="userSpaceOnUse" id="finishPattern">
 <rect fill="black" height="12" width="12" y="0" x="0"></rect>
 <path fill="white" d="M0,0L3,0L3,3L0,3L0,0M6,0L9,0L9,3L6,3L6,0M3,3L6,3L6,6L3,6L3,3M9,3L12,3L12,6L9,6L9,3"></path>
 <path fill="white" d="M0,6L3,6L3,9L0,9L0,6M6,6L9,6L9,9L6,9L6,6M3,9L6,9L6,12L3,12L3,9M9,9L12,9L12,12L9,12L9,9"></path>
 </pattern>
 <pattern y="0" x="0" height="12" width="12" patternUnits="userSpaceOnUse" id="startPattern">
 <rect fill="rgb(100,100,100)" height="12" width="12" y="0" x="0"></rect>
 <rect stroke-width="1" stroke="rgb(200,200,200)" fill="none" height="5" width="5" y="3.5" x="3.5"></rect>
 </pattern>
 <pattern y="0" x="0" height="12" width="12" patternUnits="userSpaceOnUse" id="cp1pattern">
 <rect class="cp1color" height="12" width="12" y="0" x="0"></rect>
 <path fill="black" d="M0,0L3,0L3,3L0,3L0,0M6,0L9,0L9,3L6,3L6,0M3,3L6,3L6,6L3,6L3,3M9,3L12,3L12,6L9,6L9,3"></path>
 <path fill="black" d="M0,6L3,6L3,9L0,9L0,6M6,6L9,6L9,9L6,9L6,6M3,9L6,9L6,12L3,12L3,9M9,9L12,9L12,12L9,12L9,9"></path>
 </pattern>
 <pattern y="0" x="0" height="12" width="12" patternUnits="userSpaceOnUse" id="cp2pattern">
 <rect class="cp2color" height="12" width="12" y="0" x="0"></rect>
 <path fill="white" d="M0,0L3,0L3,3L0,3L0,0M6,0L9,0L9,3L6,3L6,0M3,3L6,3L6,6L3,6L3,3M9,3L12,3L12,6L9,6L9,3"></path>
 <path fill="white" d="M0,6L3,6L3,9L0,9L0,6M6,6L9,6L9,9L6,9L6,6M3,9L6,9L6,12L3,12L3,9M9,9L12,9L12,12L9,12L9,9"></path>
 </pattern>
 <pattern y="0" x="0" height="12" width="12" patternUnits="userSpaceOnUse" id="cp3pattern">
 <rect class="cp3color" height="12" width="12" y="0" x="0"></rect>
 <path fill="black" d="M0,0L3,0L3,3L0,3L0,0M6,0L9,0L9,3L6,3L6,0M3,3L6,3L6,6L3,6L3,3M9,3L12,3L12,6L9,6L9,3"></path>
 <path fill="black" d="M0,6L3,6L3,9L0,9L0,6M6,6L9,6L9,9L6,9L6,6M3,9L6,9L6,12L3,12L3,9M9,9L12,9L12,12L9,12L9,9"></path>
 </pattern>
 <pattern y="0" x="0" height="12" width="12" patternUnits="userSpaceOnUse" id="cp4pattern">
 <rect class="cp4color" height="12" width="12" y="0" x="0"></rect>
 <path fill="white" d="M0,0L3,0L3,3L0,3L0,0M6,0L9,0L9,3L6,3L6,0M3,3L6,3L6,6L3,6L3,3M9,3L12,3L12,6L9,6L9,3"></path>
 <path fill="white" d="M0,6L3,6L3,9L0,9L0,6M6,6L9,6L9,9L6,9L6,6M3,9L6,9L6,12L3,12L3,9M9,9L12,9L12,12L9,12L9,9"></path>
 </pattern>
 <pattern y="0" x="0" height="12" width="12" patternUnits="userSpaceOnUse" id="cp5pattern">
 <rect class="cp5color" height="12" width="12" y="0" x="0"></rect>
 <path fill="black" d="M0,0L3,0L3,3L0,3L0,0M6,0L9,0L9,3L6,3L6,0M3,3L6,3L6,6L3,6L3,3M9,3L12,3L12,6L9,6L9,3"></path>
 <path fill="black" d="M0,6L3,6L3,9L0,9L0,6M6,6L9,6L9,9L6,9L6,6M3,9L6,9L6,12L3,12L3,9M9,9L12,9L12,12L9,12L9,9"></path>
 </pattern>
 <pattern y="0" x="0" height="12" width="12" patternUnits="userSpaceOnUse" id="cp6pattern">
 <rect class="cp6color" height="12" width="12" y="0" x="0"></rect>
 <path fill="white" d="M0,0L3,0L3,3L0,3L0,0M6,0L9,0L9,3L6,3L6,0M3,3L6,3L6,6L3,6L3,3M9,3L12,3L12,6L9,6L9,3"></path>
 <path fill="white" d="M0,6L3,6L3,9L0,9L0,6M6,6L9,6L9,9L6,9L6,6M3,9L6,9L6,12L3,12L3,9M9,9L12,9L12,12L9,12L9,9"></path>
 </pattern>
 <pattern y="0" x="0" height="12" width="12" patternUnits="userSpaceOnUse" id="cp7pattern">
 <rect class="cp7color" height="12" width="12" y="0" x="0"></rect>
 <path fill="black" d="M0,0L3,0L3,3L0,3L0,0M6,0L9,0L9,3L6,3L6,0M3,3L6,3L6,6L3,6L3,3M9,3L12,3L12,6L9,6L9,3"></path>
 <path fill="black" d="M0,6L3,6L3,9L0,9L0,6M6,6L9,6L9,9L6,9L6,6M3,9L6,9L6,12L3,12L3,9M9,9L12,9L12,12L9,12L9,9"></path>
 </pattern>
 <pattern y="0" x="0" height="12" width="12" patternUnits="userSpaceOnUse" id="cp8pattern">
 <rect class="cp8color" height="12" width="12" y="0" x="0"></rect>
 <path fill="white" d="M0,0L3,0L3,3L0,3L0,0M6,0L9,0L9,3L6,3L6,0M3,3L6,3L6,6L3,6L3,3M9,3L12,3L12,6L9,6L9,3"></path>
 <path fill="white" d="M0,6L3,6L3,9L0,9L0,6M6,6L9,6L9,9L6,9L6,6M3,9L6,9L6,12L3,12L3,9M9,9L12,9L12,12L9,12L9,9"></path>
 </pattern>
 <pattern y="0" x="0" height="12" width="12" patternUnits="userSpaceOnUse" id="cp9pattern">
 <rect class="cp9color" height="12" width="12" y="0" x="0"></rect>
 <path fill="black" d="M0,0L3,0L3,3L0,3L0,0M6,0L9,0L9,3L6,3L6,0M3,3L6,3L6,6L3,6L3,3M9,3L12,3L12,6L9,6L9,3"></path>
 <path fill="black" d="M0,6L3,6L3,9L0,9L0,6M6,6L9,6L9,9L6,9L6,6M3,9L6,9L6,12L3,12L3,9M9,9L12,9L12,12L9,12L9,9"></path>
 </pattern>
 </defs>
 <rect height="100%" width="100%" y="0" x="0" class="grass" id="mainfill"></rect>
 <g id="paths"><path d="M384,12L384,12L432,12L432,36L444,36L444,60L456,60L456,84L468,84L468,96L480,96L480,120L492,120L492,132L504,132L504,144L516,144L516,156L540,156L540,168L636,168L636,156L696,156L696,168L732,168L732,156L744,156L744,144L756,144L756,132L768,132L768,72L780,72L780,48L804,48L804,36L828,36L828,24L840,24L840,12L888,12L888,24L876,24L876,36L888,36L888,60L900,60L900,84L912,84L912,144L924,144L924,156L936,156L936,168L960,168L960,156L1008,156L1008,144L1020,144L1020,132L1104,132L1104,120L1140,120L1140,108L1176,108L1176,96L1188,96L1188,144L1164,144L1164,156L1104,156L1104,168L1056,168L1056,180L1008,180L1008,192L960,192L960,204L936,204L936,240L960,240L960,288L972,288L972,300L984,300L984,312L1008,312L1008,324L1020,324L1020,348L1032,348L1032,372L1044,372L1044,360L1068,360L1068,348L1092,348L1092,324L1116,324L1116,312L1128,312L1128,300L1140,300L1140,288L1164,288L1164,276L1188,276L1188,312L1176,312L1176,324L1140,324L1140,348L1116,348L1116,372L1092,372L1092,384L1080,384L1080,396L1056,396L1056,420L1068,420L1068,432L1080,432L1080,456L1092,456L1092,504L1104,504L1104,540L1092,540L1092,564L1080,564L1080,576L1068,576L1068,588L1080,588L1080,600L1092,600L1092,624L1104,624L1104,648L1116,648L1116,672L1128,672L1128,708L1140,708L1140,732L1152,732L1152,756L1164,756L1164,792L1176,792L1176,804L1188,804L1188,912L1176,912L1176,876L1164,876L1164,864L1152,864L1152,828L1128,828L1128,840L1116,840L1116,852L1092,852L1092,876L1044,876L1044,900L984,900L984,912L972,912L972,900L948,900L948,912L936,912L936,924L924,924L924,948L912,948L912,984L900,984L900,1056L780,1056L780,1044L768,1044L768,1032L744,1032L744,1020L732,1020L732,1008L720,1008L720,996L708,996L708,984L696,984L696,972L684,972L684,960L660,960L660,948L636,948L636,972L648,972L648,996L660,996L660,1020L672,1020L672,1044L696,1044L696,1056L648,1056L648,1044L636,1044L636,1032L624,1032L624,1008L612,1008L612,960L600,960L600,936L588,936L588,912L576,912L576,900L564,900L564,876L552,876L552,864L540,864L540,876L516,876L516,888L504,888L504,900L480,900L480,912L456,912L456,924L444,924L444,936L408,936L408,948L384,948L384,936L372,936L372,948L360,948L360,960L348,960L348,972L324,972L324,984L312,984L312,996L300,996L300,1044L312,1044L312,1056L264,1056L264,1020L252,1020L252,1008L240,1008L240,1032L228,1032L228,1056L192,1056L192,1008L204,1008L204,984L216,984L216,960L192,960L192,948L180,948L180,936L168,936L168,912L192,912L192,900L180,900L180,888L120,888L120,900L84,900L84,936L72,936L72,972L60,972L60,1008L48,1008L48,1032L36,1032L36,1044L24,1044L24,1056L12,1056L12,1008L24,1008L24,972L36,972L36,936L48,936L48,900L60,900L60,876L72,876L72,864L84,864L84,840L96,840L96,828L108,828L108,852L216,852L216,828L252,828L252,840L264,840L264,828L300,828L300,816L324,816L324,804L336,804L336,792L348,792L348,780L360,780L360,744L348,744L348,708L360,708L360,696L372,696L372,648L360,648L360,636L348,636L348,648L336,648L336,660L300,660L300,672L252,672L252,684L192,684L192,672L180,672L180,732L132,732L132,720L120,720L120,732L108,732L108,744L60,744L60,756L48,756L48,768L12,768L12,732L24,732L24,648L36,648L36,612L48,612L48,588L24,588L24,576L12,576L12,432L36,432L36,420L48,420L48,396L72,396L72,384L96,384L96,372L108,372L108,360L120,360L120,348L132,348L132,336L144,336L144,324L156,324L156,312L168,312L168,300L180,300L180,264L192,264L192,240L204,240L204,216L216,216L216,192L192,192L192,180L204,180L204,156L84,156L84,144L60,144L60,132L24,132L24,96L60,96L60,108L96,108L96,120L180,120L180,108L192,108L192,96L216,96L216,84L252,84L252,72L288,72L288,60L324,60L324,72L348,72L348,48L360,48L360,36L372,36L372,24L384,24L384,12M408,48L408,48L396,48L396,72L384,72L384,96L396,96L396,108L432,108L432,96L420,96L420,60L408,60L408,48M852,72L852,72L840,72L840,84L804,84L804,108L792,108L792,156L780,156L780,168L768,168L768,192L756,192L756,228L768,228L768,216L804,216L804,204L828,204L828,192L876,192L876,144L888,144L888,108L876,108L876,84L864,84L864,72L852,72M300,96L300,96L288,96L288,132L264,132L264,144L252,144L252,216L240,216L240,240L228,240L228,264L216,264L216,300L204,300L204,312L192,312L192,336L180,336L180,348L168,348L168,360L156,360L156,372L144,372L144,396L132,396L132,408L108,408L108,420L84,420L84,432L72,432L72,444L60,444L60,456L36,456L36,504L24,504L24,528L48,528L48,552L60,552L60,528L72,528L72,516L84,516L84,504L108,504L108,492L120,492L120,480L132,480L132,468L144,468L144,456L156,456L156,444L168,444L168,432L180,432L180,372L192,372L192,360L228,360L228,336L240,336L240,324L264,324L264,312L288,312L288,300L312,300L312,288L348,288L348,276L372,276L372,240L384,240L384,204L396,204L396,180L408,180L408,168L420,168L420,156L432,156L432,144L408,144L408,132L312,132L312,120L300,120L300,96M348,96L348,96L336,96L336,108L348,108L348,96M468,168L468,168L456,168L456,180L432,180L432,204L420,204L420,252L408,252L408,300L372,300L372,312L336,312L336,324L312,324L312,336L300,336L300,348L276,348L276,360L264,360L264,372L252,372L252,384L240,384L240,396L216,396L216,420L204,420L204,456L192,456L192,468L180,468L180,480L168,480L168,504L156,504L156,516L144,516L144,528L108,528L108,540L96,540L96,552L84,552L84,576L72,576L72,624L60,624L60,672L84,672L84,684L72,684L72,696L60,696L60,708L84,708L84,696L120,696L120,660L108,660L108,648L120,648L120,636L132,636L132,624L192,624L192,648L204,648L204,660L240,660L240,648L264,648L264,636L300,636L300,624L324,624L324,612L336,612L336,600L360,600L360,588L372,588L372,564L384,564L384,552L396,552L396,540L408,540L408,528L420,528L420,480L432,480L432,456L444,456L444,372L456,372L456,264L468,264L468,192L480,192L480,168L468,168M528,192L528,192L516,192L516,216L504,216L504,264L492,264L492,360L480,360L480,456L468,456L468,480L480,480L480,492L516,492L516,468L528,468L528,420L540,420L540,408L552,408L552,396L564,396L564,384L576,384L576,372L588,372L588,360L600,360L600,348L612,348L612,336L624,336L624,324L648,324L648,312L660,312L660,300L672,300L672,288L696,288L696,264L684,264L684,216L696,216L696,192L624,192L624,204L564,204L564,192L528,192M864,228L864,228L852,228L852,240L792,240L792,252L780,252L780,276L804,276L804,288L816,288L816,300L828,300L828,312L840,312L840,324L948,324L948,312L936,312L936,276L924,276L924,252L912,252L912,240L876,240L876,228L864,228M720,312L720,312L708,312L708,324L684,324L684,336L672,336L672,348L660,348L660,360L648,360L648,372L636,372L636,384L624,384L624,396L600,396L600,408L588,408L588,420L576,420L576,432L564,432L564,480L552,480L552,492L540,492L540,504L564,504L564,516L576,516L576,504L588,504L588,528L612,528L612,516L648,516L648,504L708,504L708,480L732,480L732,468L744,468L744,456L768,456L768,444L780,444L780,432L792,432L792,420L804,420L804,408L792,408L792,396L780,396L780,372L768,372L768,348L744,348L744,324L720,324L720,312M804,324L804,324L792,324L792,336L804,336L804,324M960,324L960,324L948,324L948,336L960,336L960,324M816,336L816,336L804,336L804,360L816,360L816,372L828,372L828,396L852,396L852,408L864,408L864,420L876,420L876,432L900,432L900,444L912,444L912,432L936,432L936,420L948,420L948,408L972,408L972,384L948,384L948,372L936,372L936,360L828,360L828,348L816,348L816,336M972,336L972,336L960,336L960,348L972,348L972,336M984,432L984,432L972,432L972,444L960,444L960,456L948,456L948,480L960,480L960,492L984,492L984,504L1032,504L1032,528L1020,528L1020,540L1032,540L1032,552L1044,552L1044,540L1068,540L1068,528L1056,528L1056,504L1044,504L1044,480L1032,480L1032,456L1020,456L1020,432L984,432M828,444L828,444L816,444L816,456L804,456L804,468L792,468L792,480L768,480L768,492L756,492L756,504L732,504L732,528L708,528L708,540L684,540L684,564L672,564L672,600L660,600L660,624L648,624L648,636L636,636L636,648L624,648L624,672L612,672L612,696L660,696L660,792L648,792L648,804L612,804L612,840L600,840L600,876L624,876L624,888L636,888L636,900L660,900L660,912L672,912L672,924L684,924L684,936L708,936L708,948L720,948L720,960L744,960L744,984L768,984L768,1008L792,1008L792,1020L804,1020L804,1032L816,1032L816,1044L864,1044L864,984L876,984L876,948L888,948L888,924L900,924L900,900L912,900L912,876L936,876L936,864L984,864L984,852L1008,852L1008,840L1068,840L1068,828L1092,828L1092,816L1104,816L1104,804L1116,804L1116,792L1128,792L1128,780L1116,780L1116,744L1104,744L1104,720L1092,720L1092,684L1080,684L1080,660L1068,660L1068,636L1056,636L1056,612L1032,612L1032,600L1020,600L1020,576L1008,576L1008,564L996,564L996,552L984,552L984,540L972,540L972,528L948,528L948,516L936,516L936,504L912,504L912,492L900,492L900,480L876,480L876,468L864,468L864,456L852,456L852,444L828,444M456,504L456,504L444,504L444,528L432,528L432,564L420,564L420,588L408,588L408,600L396,600L396,612L384,612L384,624L396,624L396,648L408,648L408,636L420,636L420,624L432,624L432,612L444,612L444,588L456,588L456,576L468,576L468,552L480,552L480,540L492,540L492,516L456,516L456,504M540,540L540,540L528,540L528,552L516,552L516,564L504,564L504,588L540,588L540,576L552,576L552,564L564,564L564,540L540,540M636,552L636,552L624,552L624,564L588,564L588,600L600,600L600,612L612,612L612,600L624,600L624,588L636,588L636,564L648,564L648,552L636,552M492,612L492,612L480,612L480,636L456,636L456,660L444,660L444,672L420,672L420,684L408,684L408,708L396,708L396,732L384,732L384,744L372,744L372,804L360,804L360,816L348,816L348,840L336,840L336,852L324,852L324,864L288,864L288,876L252,876L252,888L216,888L216,924L264,924L264,936L300,936L300,924L360,924L360,912L372,912L372,876L384,876L384,852L396,852L396,840L408,840L408,828L420,828L420,816L432,816L432,804L444,804L444,792L432,792L432,768L444,768L444,720L456,720L456,696L480,696L480,672L492,672L492,660L504,660L504,624L516,624L516,612L492,612M576,612L576,612L564,612L564,624L552,624L552,636L540,636L540,660L528,660L528,684L516,684L516,696L504,696L504,732L480,732L480,780L492,780L492,804L504,804L504,816L480,816L480,852L432,852L432,864L420,864L420,876L408,876L408,912L420,912L420,888L444,888L444,876L480,876L480,864L492,864L492,852L504,852L504,840L528,840L528,828L576,828L576,804L588,804L588,780L612,780L612,768L624,768L624,720L612,720L612,732L588,732L588,720L576,720L576,708L564,708L564,672L588,672L588,660L576,660L576,636L588,636L588,624L576,624L576,612M168,660L168,660L156,660L156,672L168,672L168,660M780,660L780,660L804,660L804,672L780,672L780,660M780,672L780,672L780,696L768,696L768,672L780,672M804,672L804,672L816,672L816,684L804,684L804,672M840,660L840,660L876,660L876,672L852,672L852,696L876,696L876,672L888,672L888,696L876,696L876,708L852,708L852,744L840,744L840,660M912,660L912,660L948,660L948,672L936,672L936,732L948,732L948,744L912,744L912,732L924,732L924,672L912,672L912,660M780,696L780,696L804,696L804,708L780,708L780,696M804,708L804,708L816,708L816,732L804,732L804,708M768,720L768,720L780,720L780,732L768,732L768,720M780,732L780,732L804,732L804,744L780,744L780,732M276,960L276,960L264,960L264,972L288,972L288,960Z" class="road"></path><path d="M204,180L204,180L216,180L216,192L204,192Z" class="cp1"></path><path d="M576,516L576,516L588,516L588,528L576,528Z" class="cp2"></path><path d="M1008,504L1008,504L1020,504L1020,516L1008,516Z" class="cp3"></path><path d="M60,672L60,672L72,672L72,684L60,684Z" class="cp4"></path><path d="M480,804L480,804L492,804L492,816L480,816Z" class="cp5"></path><path d="M1116,804L1116,804L1128,804L1128,816L1116,816Z" class="cp6"></path><path d="M96,840L96,840L108,840L108,852L96,852Z" class="cp7"></path><path d="M888,228L888,228L900,228L900,240L888,240Z" class="cp8"></path><path d="M0,0L0,0L12,0L12,168L0,168Z" class="parc"></path><path d="M204,156L204,156L216,156L216,180L204,180L204,156M888,216L888,216L900,216L900,228L888,228L888,216M888,228L888,228L888,240L876,240L876,228L888,228M552,504L552,504L564,504L564,516L552,516L552,504M564,516L564,516L576,516L576,528L564,528L564,516M1008,516L1008,516L1032,516L1032,528L1008,528L1008,516M60,684L60,684L72,684L72,696L60,696L60,684M480,780L480,780L492,780L492,804L480,804L480,780M1116,792L1116,792L1128,792L1128,804L1116,804L1116,792M1092,816L1092,816L1104,816L1104,828L1092,828L1092,816M84,840L84,840L96,840L96,852L84,852Z" class="start"></path><path d="M192,180L192,180L204,180L204,192L192,192L192,180M900,228L900,228L912,228L912,240L900,240L900,228M576,504L576,504L588,504L588,516L576,516L576,504M1020,504L1020,504L1032,504L1032,516L1020,516L1020,504M72,672L72,672L84,672L84,684L72,684L72,672M492,804L492,804L504,804L504,816L492,816L492,804M1104,804L1104,804L1116,804L1116,816L1104,816L1104,804M96,828L96,828L108,828L108,840L96,840Z" class="finish"></path></g>
 <rect opacity=".3" fill="url(#grid)" height="100%" width="100%" y="0" x="0"></rect>
</svg>