<svg xmlns:xlink="http://www.w3.org/1999/xlink" xmlns="http://www.w3.org/2000/svg" height="984" width="924" id="mapSvgView" version="1.1" style="width: 924px; height: 984px;" viewBox="0 0 924 984">
 <defs>
 <pattern y="0" x="0" height="24" width="24" patternUnits="userSpaceOnUse" id="grassPattern">
 <rect class="grasscolor" height="24" width="24" y="0" x="0"></rect>
 <rect class="grassspeclecolor" height="1" width="1" x="1" y="5"></rect>
 <rect class="grassspeclecolor" height="1" width="1" x="1" y="5"></rect>
 <rect class="grassspeclecolor" height="1" width="1" x="3" y="5"></rect>
 <rect class="grassspeclecolor" height="1" width="1" x="6" y="7"></rect>
 <rect class="grassspeclecolor" height="1" width="1" x="6" y="17"></rect>
 <rect class="grassspeclecolor" height="1" width="1" x="8" y="21"></rect>
 <rect class="grassspeclecolor" height="1" width="1" x="9" y="2"></rect>
 <rect class="grassspeclecolor" height="1" width="1" x="12" y="4"></rect>
 <rect class="grassspeclecolor" height="1" width="1" x="13" y="15"></rect>
 <rect class="grassspeclecolor" height="1" width="1" x="14" y="4"></rect>
 <rect class="grassspeclecolor" height="1" width="1" x="14" y="19"></rect>
 <rect class="grassspeclecolor" height="1" width="1" x="17" y="7"></rect>
 <rect class="grassspeclecolor" height="1" width="1" x="17" y="12"></rect>
 <rect class="grassspeclecolor" height="1" width="1" x="18" y="23"></rect>
 <rect class="grassspeclecolor" height="1" width="1" x="21" y="16"></rect>
 <rect class="grassspeclecolor" height="1" width="1" x="23" y="12"></rect>
 </pattern>
 <pattern y="0" x="0" height="24" width="24" patternUnits="userSpaceOnUse" id="roadPattern">
 <rect class="roadcolor" height="24" width="24" y="0" x="0"></rect>
 <rect class="roadspeclecolor" height="1" width="1" x="1" y="5"></rect>
 <rect class="roadspeclecolor" height="1" width="1" x="1" y="5"></rect>
 <rect class="roadspeclecolor" height="1" width="1" x="3" y="5"></rect>
 <rect class="roadspeclecolor" height="1" width="1" x="6" y="7"></rect>
 <rect class="roadspeclecolor" height="1" width="1" x="6" y="17"></rect>
 <rect class="roadspeclecolor" height="1" width="1" x="8" y="21"></rect>
 <rect class="roadspeclecolor" height="1" width="1" x="9" y="2"></rect>
 <rect class="roadspeclecolor" height="1" width="1" x="12" y="4"></rect>
 <rect class="roadspeclecolor" height="1" width="1" x="13" y="15"></rect>
 <rect class="roadspeclecolor" height="1" width="1" x="14" y="4"></rect>
 <rect class="roadspeclecolor" height="1" width="1" x="14" y="19"></rect>
 <rect class="roadspeclecolor" height="1" width="1" x="17" y="7"></rect>
 <rect class="roadspeclecolor" height="1" width="1" x="17" y="12"></rect>
 <rect class="roadspeclecolor" height="1" width="1" x="18" y="23"></rect>
 <rect class="roadspeclecolor" height="1" width="1" x="21" y="16"></rect>
 <rect class="roadspeclecolor" height="1" width="1" x="23" y="12"></rect>
 </pattern>
 <pattern y="0" x="0" height="12" width="12" patternUnits="userSpaceOnUse" id="grid">
 <line stroke-width="1" stroke="black" y2="12" x2="12" y1="0" x1="12"></line>
 <line stroke-width="1" stroke="black" y2="12" x2="12" y1="12" x1="0"></line>
 </pattern>
 <pattern y="0" x="0" height="12" width="12" patternUnits="userSpaceOnUse" id="finishPattern">
 <rect fill="black" height="12" width="12" y="0" x="0"></rect>
 <path fill="white" d="M0,0L3,0L3,3L0,3L0,0M6,0L9,0L9,3L6,3L6,0M3,3L6,3L6,6L3,6L3,3M9,3L12,3L12,6L9,6L9,3"></path>
 <path fill="white" d="M0,6L3,6L3,9L0,9L0,6M6,6L9,6L9,9L6,9L6,6M3,9L6,9L6,12L3,12L3,9M9,9L12,9L12,12L9,12L9,9"></path>
 </pattern>
 <pattern y="0" x="0" height="12" width="12" patternUnits="userSpaceOnUse" id="startPattern">
 <rect fill="rgb(100,100,100)" height="12" width="12" y="0" x="0"></rect>
 <rect stroke-width="1" stroke="rgb(200,200,200)" fill="none" height="5" width="5" y="3.5" x="3.5"></rect>
 </pattern>
 <pattern y="0" x="0" height="12" width="12" patternUnits="userSpaceOnUse" id="cp1pattern">
 <rect class="cp1color" height="12" width="12" y="0" x="0"></rect>
 <path fill="black" d="M0,0L3,0L3,3L0,3L0,0M6,0L9,0L9,3L6,3L6,0M3,3L6,3L6,6L3,6L3,3M9,3L12,3L12,6L9,6L9,3"></path>
 <path fill="black" d="M0,6L3,6L3,9L0,9L0,6M6,6L9,6L9,9L6,9L6,6M3,9L6,9L6,12L3,12L3,9M9,9L12,9L12,12L9,12L9,9"></path>
 </pattern>
 <pattern y="0" x="0" height="12" width="12" patternUnits="userSpaceOnUse" id="cp2pattern">
 <rect class="cp2color" height="12" width="12" y="0" x="0"></rect>
 <path fill="white" d="M0,0L3,0L3,3L0,3L0,0M6,0L9,0L9,3L6,3L6,0M3,3L6,3L6,6L3,6L3,3M9,3L12,3L12,6L9,6L9,3"></path>
 <path fill="white" d="M0,6L3,6L3,9L0,9L0,6M6,6L9,6L9,9L6,9L6,6M3,9L6,9L6,12L3,12L3,9M9,9L12,9L12,12L9,12L9,9"></path>
 </pattern>
 <pattern y="0" x="0" height="12" width="12" patternUnits="userSpaceOnUse" id="cp3pattern">
 <rect class="cp3color" height="12" width="12" y="0" x="0"></rect>
 <path fill="black" d="M0,0L3,0L3,3L0,3L0,0M6,0L9,0L9,3L6,3L6,0M3,3L6,3L6,6L3,6L3,3M9,3L12,3L12,6L9,6L9,3"></path>
 <path fill="black" d="M0,6L3,6L3,9L0,9L0,6M6,6L9,6L9,9L6,9L6,6M3,9L6,9L6,12L3,12L3,9M9,9L12,9L12,12L9,12L9,9"></path>
 </pattern>
 <pattern y="0" x="0" height="12" width="12" patternUnits="userSpaceOnUse" id="cp4pattern">
 <rect class="cp4color" height="12" width="12" y="0" x="0"></rect>
 <path fill="white" d="M0,0L3,0L3,3L0,3L0,0M6,0L9,0L9,3L6,3L6,0M3,3L6,3L6,6L3,6L3,3M9,3L12,3L12,6L9,6L9,3"></path>
 <path fill="white" d="M0,6L3,6L3,9L0,9L0,6M6,6L9,6L9,9L6,9L6,6M3,9L6,9L6,12L3,12L3,9M9,9L12,9L12,12L9,12L9,9"></path>
 </pattern>
 <pattern y="0" x="0" height="12" width="12" patternUnits="userSpaceOnUse" id="cp5pattern">
 <rect class="cp5color" height="12" width="12" y="0" x="0"></rect>
 <path fill="black" d="M0,0L3,0L3,3L0,3L0,0M6,0L9,0L9,3L6,3L6,0M3,3L6,3L6,6L3,6L3,3M9,3L12,3L12,6L9,6L9,3"></path>
 <path fill="black" d="M0,6L3,6L3,9L0,9L0,6M6,6L9,6L9,9L6,9L6,6M3,9L6,9L6,12L3,12L3,9M9,9L12,9L12,12L9,12L9,9"></path>
 </pattern>
 <pattern y="0" x="0" height="12" width="12" patternUnits="userSpaceOnUse" id="cp6pattern">
 <rect class="cp6color" height="12" width="12" y="0" x="0"></rect>
 <path fill="white" d="M0,0L3,0L3,3L0,3L0,0M6,0L9,0L9,3L6,3L6,0M3,3L6,3L6,6L3,6L3,3M9,3L12,3L12,6L9,6L9,3"></path>
 <path fill="white" d="M0,6L3,6L3,9L0,9L0,6M6,6L9,6L9,9L6,9L6,6M3,9L6,9L6,12L3,12L3,9M9,9L12,9L12,12L9,12L9,9"></path>
 </pattern>
 <pattern y="0" x="0" height="12" width="12" patternUnits="userSpaceOnUse" id="cp7pattern">
 <rect class="cp7color" height="12" width="12" y="0" x="0"></rect>
 <path fill="black" d="M0,0L3,0L3,3L0,3L0,0M6,0L9,0L9,3L6,3L6,0M3,3L6,3L6,6L3,6L3,3M9,3L12,3L12,6L9,6L9,3"></path>
 <path fill="black" d="M0,6L3,6L3,9L0,9L0,6M6,6L9,6L9,9L6,9L6,6M3,9L6,9L6,12L3,12L3,9M9,9L12,9L12,12L9,12L9,9"></path>
 </pattern>
 <pattern y="0" x="0" height="12" width="12" patternUnits="userSpaceOnUse" id="cp8pattern">
 <rect class="cp8color" height="12" width="12" y="0" x="0"></rect>
 <path fill="white" d="M0,0L3,0L3,3L0,3L0,0M6,0L9,0L9,3L6,3L6,0M3,3L6,3L6,6L3,6L3,3M9,3L12,3L12,6L9,6L9,3"></path>
 <path fill="white" d="M0,6L3,6L3,9L0,9L0,6M6,6L9,6L9,9L6,9L6,6M3,9L6,9L6,12L3,12L3,9M9,9L12,9L12,12L9,12L9,9"></path>
 </pattern>
 <pattern y="0" x="0" height="12" width="12" patternUnits="userSpaceOnUse" id="cp9pattern">
 <rect class="cp9color" height="12" width="12" y="0" x="0"></rect>
 <path fill="black" d="M0,0L3,0L3,3L0,3L0,0M6,0L9,0L9,3L6,3L6,0M3,3L6,3L6,6L3,6L3,3M9,3L12,3L12,6L9,6L9,3"></path>
 <path fill="black" d="M0,6L3,6L3,9L0,9L0,6M6,6L9,6L9,9L6,9L6,6M3,9L6,9L6,12L3,12L3,9M9,9L12,9L12,12L9,12L9,9"></path>
 </pattern>
 </defs>
 <rect height="100%" width="100%" y="0" x="0" class="grass" id="mainfill"></rect>
 <g id="paths"><path d="M864,12L864,12L900,12L900,24L912,24L912,48L900,48L900,72L888,72L888,96L876,96L876,108L864,108L864,132L852,132L852,168L840,168L840,192L828,192L828,228L816,228L816,240L804,240L804,264L792,264L792,276L780,276L780,288L804,288L804,312L780,312L780,324L744,324L744,336L732,336L732,348L720,348L720,420L732,420L732,624L720,624L720,648L708,648L708,672L696,672L696,684L684,684L684,708L660,708L660,720L648,720L648,732L636,732L636,744L612,744L612,756L492,756L492,768L444,768L444,780L432,780L432,792L420,792L420,852L408,852L408,924L396,924L396,960L384,960L384,972L324,972L324,960L312,960L312,972L276,972L276,960L252,960L252,936L180,936L180,912L168,912L168,888L108,888L108,864L120,864L120,828L96,828L96,816L84,816L84,768L108,768L108,756L156,756L156,744L204,744L204,732L228,732L228,720L252,720L252,708L276,708L276,696L288,696L288,672L300,672L300,660L312,660L312,636L324,636L324,612L336,612L336,588L348,588L348,564L360,564L360,540L336,540L336,528L300,528L300,516L240,516L240,504L192,504L192,456L168,456L168,444L144,444L144,432L132,432L132,372L84,372L84,360L72,360L72,348L60,348L60,312L72,312L72,288L60,288L60,276L48,276L48,264L36,264L36,252L24,252L24,228L12,228L12,144L60,144L60,156L96,156L96,168L156,168L156,180L336,180L336,192L384,192L384,204L420,204L420,216L432,216L432,228L444,228L444,240L456,240L456,252L468,252L468,276L480,276L480,396L492,396L492,408L504,408L504,396L516,396L516,384L528,384L528,360L540,360L540,324L552,324L552,276L564,276L564,240L576,240L576,216L600,216L600,204L624,204L624,192L672,192L672,144L684,144L684,132L696,132L696,120L708,120L708,108L720,108L720,96L744,96L744,84L780,84L780,72L816,72L816,60L828,60L828,48L852,48L852,24L864,24L864,12M816,108L816,108L804,108L804,120L780,120L780,132L756,132L756,144L732,144L732,168L720,168L720,180L708,180L708,192L684,192L684,204L720,204L720,216L732,216L732,240L756,240L756,228L768,228L768,204L780,204L780,180L792,180L792,156L804,156L804,120L816,120L816,108M72,192L72,192L60,192L60,216L72,216L72,228L84,228L84,240L96,240L96,252L108,252L108,264L120,264L120,312L108,312L108,336L144,336L144,348L168,348L168,360L180,360L180,408L192,408L192,420L228,420L228,432L240,432L240,468L276,468L276,480L324,480L324,492L360,492L360,504L396,504L396,516L420,516L420,552L408,552L408,576L396,576L396,612L384,612L384,636L372,636L372,648L360,648L360,672L348,672L348,696L336,696L336,708L324,708L324,720L312,720L312,732L300,732L300,744L276,744L276,756L252,756L252,768L216,768L216,780L156,780L156,792L144,792L144,804L168,804L168,864L216,864L216,888L276,888L276,900L288,900L288,924L300,924L300,912L360,912L360,852L372,852L372,780L384,780L384,756L396,756L396,744L420,744L420,732L480,732L480,720L576,720L576,708L600,708L600,696L612,696L612,684L636,684L636,672L648,672L648,648L660,648L660,636L672,636L672,612L684,612L684,564L696,564L696,528L684,528L684,432L672,432L672,336L684,336L684,312L708,312L708,300L672,300L672,288L660,288L660,252L684,252L684,240L672,240L672,228L648,228L648,240L624,240L624,252L612,252L612,288L600,288L600,324L588,324L588,372L576,372L576,408L564,408L564,420L552,420L552,432L540,432L540,444L468,444L468,432L444,432L444,420L432,420L432,288L420,288L420,264L408,264L408,252L384,252L384,240L360,240L360,228L324,228L324,216L180,216L180,204L72,204L72,192M720,288L720,288L708,288L708,300L732,300L732,288Z" class="road"></path><path d="M804,72L804,72L816,72L816,108L804,108Z" class="cp1"></path><path d="M12,144L12,144L36,144L36,156L48,156L48,168L60,168L60,180L72,180L72,192L48,192L48,180L36,180L36,168L24,168L24,156L12,156Z" class="cp2"></path><path d="M312,912L312,912L324,912L324,960L312,960Z" class="cp3"></path><path d="M0,0L0,0L12,0L12,72L0,72Z" class="parc"></path><path d="M672,252L672,252L696,252L696,264L708,264L708,288L684,288L684,264L672,264Z" class="start"></path><path d="M780,288L780,288L804,288L804,312L780,312Z" class="finish"></path></g>
 <rect opacity=".3" fill="url(#grid)" height="100%" width="100%" y="0" x="0"></rect>
</svg>