<svg xmlns="http://www.w3.org/2000/svg" xmlns:xlink="http://www.w3.org/1999/xlink" version="1.1" id="mapSvgView" width="324" height="432"> <rect id="mainfill" class="road" x="0" y="0" width="100%" height="100%"></rect> <g id="paths"><path d="M120,192L120,192L144,192L144,204L120,204Z" class="cp1"></path><path d="M192,192L192,192L216,192L216,204L192,204Z" class="cp2"></path><path d="M84,228L84,228L96,228L96,252L84,252Z" class="cp3"></path><path d="M240,228L240,228L252,228L252,252L240,252Z" class="cp4"></path><path d="M84,300L84,300L96,300L96,324L84,324Z" class="cp5"></path><path d="M240,300L240,300L252,300L252,324L240,324Z" class="cp6"></path><path d="M120,348L120,348L144,348L144,360L120,360Z" class="cp7"></path><path d="M192,348L192,348L216,348L216,360L192,360Z" class="cp8"></path><path d="M0,0L0,0L12,0L12,72L0,72Z" class="parc"></path><path d="M12,0L12,0L324,0L324,432L0,432L0,72L12,72L12,0M36,12L36,12L24,12L24,420L312,420L312,12L36,12M72,84L72,84L264,84L264,132L72,132L72,84M72,180L72,180L120,180L120,228L72,228L72,180M144,180L144,180L192,180L192,228L144,228L144,180M216,180L216,180L264,180L264,228L216,228L216,180M72,252L72,252L120,252L120,300L72,300L72,252M144,252L144,252L192,252L192,300L144,300L144,252M216,252L216,252L264,252L264,300L216,300L216,252M72,324L72,324L120,324L120,372L72,372L72,324M144,324L144,324L192,324L192,372L144,372L144,324M216,324L216,324L264,324L264,372L216,372Z" class="grass"></path><path d="M156,12L156,12L168,12L168,24L156,24L156,12M168,24L168,24L180,24L180,36L168,36L168,24M168,36L168,36L168,48L156,48L156,36L168,36M168,48L168,48L180,48L180,60L168,60L168,48M168,60L168,60L168,72L156,72L156,60L168,60M168,72L168,72L180,72L180,84L168,84Z" class="finish"></path><path d="M168,12L168,12L180,12L180,24L168,24L168,12M168,24L168,24L168,36L156,36L156,24L168,24M168,36L168,36L180,36L180,48L168,48L168,36M168,48L168,48L168,60L156,60L156,48L168,48M168,60L168,60L180,60L180,72L168,72L168,60M168,72L168,72L168,84L156,84L156,72Z" class="start"></path></g></svg>