<svg xmlns:xlink="http://www.w3.org/1999/xlink" xmlns="http://www.w3.org/2000/svg" height="408" width="816" id="mapSvgView" version="1.1" style="width: 816px; height: 408px;" viewBox="0 0 816 408">
 <defs>
 <pattern y="0" x="0" height="24" width="24" patternUnits="userSpaceOnUse" id="grassPattern">
 <rect class="grasscolor" height="24" width="24" y="0" x="0"></rect>
 <rect class="grassspeclecolor" height="1" width="1" x="1" y="5"></rect>
 <rect class="grassspeclecolor" height="1" width="1" x="1" y="5"></rect>
 <rect class="grassspeclecolor" height="1" width="1" x="3" y="5"></rect>
 <rect class="grassspeclecolor" height="1" width="1" x="6" y="7"></rect>
 <rect class="grassspeclecolor" height="1" width="1" x="6" y="17"></rect>
 <rect class="grassspeclecolor" height="1" width="1" x="8" y="21"></rect>
 <rect class="grassspeclecolor" height="1" width="1" x="9" y="2"></rect>
 <rect class="grassspeclecolor" height="1" width="1" x="12" y="4"></rect>
 <rect class="grassspeclecolor" height="1" width="1" x="13" y="15"></rect>
 <rect class="grassspeclecolor" height="1" width="1" x="14" y="4"></rect>
 <rect class="grassspeclecolor" height="1" width="1" x="14" y="19"></rect>
 <rect class="grassspeclecolor" height="1" width="1" x="17" y="7"></rect>
 <rect class="grassspeclecolor" height="1" width="1" x="17" y="12"></rect>
 <rect class="grassspeclecolor" height="1" width="1" x="18" y="23"></rect>
 <rect class="grassspeclecolor" height="1" width="1" x="21" y="16"></rect>
 <rect class="grassspeclecolor" height="1" width="1" x="23" y="12"></rect>
 </pattern>
 <pattern y="0" x="0" height="24" width="24" patternUnits="userSpaceOnUse" id="roadPattern">
 <rect class="roadcolor" height="24" width="24" y="0" x="0"></rect>
 <rect class="roadspeclecolor" height="1" width="1" x="1" y="5"></rect>
 <rect class="roadspeclecolor" height="1" width="1" x="1" y="5"></rect>
 <rect class="roadspeclecolor" height="1" width="1" x="3" y="5"></rect>
 <rect class="roadspeclecolor" height="1" width="1" x="6" y="7"></rect>
 <rect class="roadspeclecolor" height="1" width="1" x="6" y="17"></rect>
 <rect class="roadspeclecolor" height="1" width="1" x="8" y="21"></rect>
 <rect class="roadspeclecolor" height="1" width="1" x="9" y="2"></rect>
 <rect class="roadspeclecolor" height="1" width="1" x="12" y="4"></rect>
 <rect class="roadspeclecolor" height="1" width="1" x="13" y="15"></rect>
 <rect class="roadspeclecolor" height="1" width="1" x="14" y="4"></rect>
 <rect class="roadspeclecolor" height="1" width="1" x="14" y="19"></rect>
 <rect class="roadspeclecolor" height="1" width="1" x="17" y="7"></rect>
 <rect class="roadspeclecolor" height="1" width="1" x="17" y="12"></rect>
 <rect class="roadspeclecolor" height="1" width="1" x="18" y="23"></rect>
 <rect class="roadspeclecolor" height="1" width="1" x="21" y="16"></rect>
 <rect class="roadspeclecolor" height="1" width="1" x="23" y="12"></rect>
 </pattern>
 <pattern y="0" x="0" height="12" width="12" patternUnits="userSpaceOnUse" id="grid">
 <line stroke-width="1" stroke="black" y2="12" x2="12" y1="0" x1="12"></line>
 <line stroke-width="1" stroke="black" y2="12" x2="12" y1="12" x1="0"></line>
 </pattern>
 <pattern y="0" x="0" height="12" width="12" patternUnits="userSpaceOnUse" id="finishPattern">
 <rect fill="black" height="12" width="12" y="0" x="0"></rect>
 <path fill="white" d="M0,0L3,0L3,3L0,3L0,0M6,0L9,0L9,3L6,3L6,0M3,3L6,3L6,6L3,6L3,3M9,3L12,3L12,6L9,6L9,3"></path>
 <path fill="white" d="M0,6L3,6L3,9L0,9L0,6M6,6L9,6L9,9L6,9L6,6M3,9L6,9L6,12L3,12L3,9M9,9L12,9L12,12L9,12L9,9"></path>
 </pattern>
 <pattern y="0" x="0" height="12" width="12" patternUnits="userSpaceOnUse" id="startPattern">
 <rect fill="rgb(100,100,100)" height="12" width="12" y="0" x="0"></rect>
 <rect stroke-width="1" stroke="rgb(200,200,200)" fill="none" height="5" width="5" y="3.5" x="3.5"></rect>
 </pattern>
 <pattern y="0" x="0" height="12" width="12" patternUnits="userSpaceOnUse" id="cp1pattern">
 <rect class="cp1color" height="12" width="12" y="0" x="0"></rect>
 <path fill="black" d="M0,0L3,0L3,3L0,3L0,0M6,0L9,0L9,3L6,3L6,0M3,3L6,3L6,6L3,6L3,3M9,3L12,3L12,6L9,6L9,3"></path>
 <path fill="black" d="M0,6L3,6L3,9L0,9L0,6M6,6L9,6L9,9L6,9L6,6M3,9L6,9L6,12L3,12L3,9M9,9L12,9L12,12L9,12L9,9"></path>
 </pattern>
 <pattern y="0" x="0" height="12" width="12" patternUnits="userSpaceOnUse" id="cp2pattern">
 <rect class="cp2color" height="12" width="12" y="0" x="0"></rect>
 <path fill="white" d="M0,0L3,0L3,3L0,3L0,0M6,0L9,0L9,3L6,3L6,0M3,3L6,3L6,6L3,6L3,3M9,3L12,3L12,6L9,6L9,3"></path>
 <path fill="white" d="M0,6L3,6L3,9L0,9L0,6M6,6L9,6L9,9L6,9L6,6M3,9L6,9L6,12L3,12L3,9M9,9L12,9L12,12L9,12L9,9"></path>
 </pattern>
 <pattern y="0" x="0" height="12" width="12" patternUnits="userSpaceOnUse" id="cp3pattern">
 <rect class="cp3color" height="12" width="12" y="0" x="0"></rect>
 <path fill="black" d="M0,0L3,0L3,3L0,3L0,0M6,0L9,0L9,3L6,3L6,0M3,3L6,3L6,6L3,6L3,3M9,3L12,3L12,6L9,6L9,3"></path>
 <path fill="black" d="M0,6L3,6L3,9L0,9L0,6M6,6L9,6L9,9L6,9L6,6M3,9L6,9L6,12L3,12L3,9M9,9L12,9L12,12L9,12L9,9"></path>
 </pattern>
 <pattern y="0" x="0" height="12" width="12" patternUnits="userSpaceOnUse" id="cp4pattern">
 <rect class="cp4color" height="12" width="12" y="0" x="0"></rect>
 <path fill="white" d="M0,0L3,0L3,3L0,3L0,0M6,0L9,0L9,3L6,3L6,0M3,3L6,3L6,6L3,6L3,3M9,3L12,3L12,6L9,6L9,3"></path>
 <path fill="white" d="M0,6L3,6L3,9L0,9L0,6M6,6L9,6L9,9L6,9L6,6M3,9L6,9L6,12L3,12L3,9M9,9L12,9L12,12L9,12L9,9"></path>
 </pattern>
 <pattern y="0" x="0" height="12" width="12" patternUnits="userSpaceOnUse" id="cp5pattern">
 <rect class="cp5color" height="12" width="12" y="0" x="0"></rect>
 <path fill="black" d="M0,0L3,0L3,3L0,3L0,0M6,0L9,0L9,3L6,3L6,0M3,3L6,3L6,6L3,6L3,3M9,3L12,3L12,6L9,6L9,3"></path>
 <path fill="black" d="M0,6L3,6L3,9L0,9L0,6M6,6L9,6L9,9L6,9L6,6M3,9L6,9L6,12L3,12L3,9M9,9L12,9L12,12L9,12L9,9"></path>
 </pattern>
 <pattern y="0" x="0" height="12" width="12" patternUnits="userSpaceOnUse" id="cp6pattern">
 <rect class="cp6color" height="12" width="12" y="0" x="0"></rect>
 <path fill="white" d="M0,0L3,0L3,3L0,3L0,0M6,0L9,0L9,3L6,3L6,0M3,3L6,3L6,6L3,6L3,3M9,3L12,3L12,6L9,6L9,3"></path>
 <path fill="white" d="M0,6L3,6L3,9L0,9L0,6M6,6L9,6L9,9L6,9L6,6M3,9L6,9L6,12L3,12L3,9M9,9L12,9L12,12L9,12L9,9"></path>
 </pattern>
 <pattern y="0" x="0" height="12" width="12" patternUnits="userSpaceOnUse" id="cp7pattern">
 <rect class="cp7color" height="12" width="12" y="0" x="0"></rect>
 <path fill="black" d="M0,0L3,0L3,3L0,3L0,0M6,0L9,0L9,3L6,3L6,0M3,3L6,3L6,6L3,6L3,3M9,3L12,3L12,6L9,6L9,3"></path>
 <path fill="black" d="M0,6L3,6L3,9L0,9L0,6M6,6L9,6L9,9L6,9L6,6M3,9L6,9L6,12L3,12L3,9M9,9L12,9L12,12L9,12L9,9"></path>
 </pattern>
 <pattern y="0" x="0" height="12" width="12" patternUnits="userSpaceOnUse" id="cp8pattern">
 <rect class="cp8color" height="12" width="12" y="0" x="0"></rect>
 <path fill="white" d="M0,0L3,0L3,3L0,3L0,0M6,0L9,0L9,3L6,3L6,0M3,3L6,3L6,6L3,6L3,3M9,3L12,3L12,6L9,6L9,3"></path>
 <path fill="white" d="M0,6L3,6L3,9L0,9L0,6M6,6L9,6L9,9L6,9L6,6M3,9L6,9L6,12L3,12L3,9M9,9L12,9L12,12L9,12L9,9"></path>
 </pattern>
 <pattern y="0" x="0" height="12" width="12" patternUnits="userSpaceOnUse" id="cp9pattern">
 <rect class="cp9color" height="12" width="12" y="0" x="0"></rect>
 <path fill="black" d="M0,0L3,0L3,3L0,3L0,0M6,0L9,0L9,3L6,3L6,0M3,3L6,3L6,6L3,6L3,3M9,3L12,3L12,6L9,6L9,3"></path>
 <path fill="black" d="M0,6L3,6L3,9L0,9L0,6M6,6L9,6L9,9L6,9L6,6M3,9L6,9L6,12L3,12L3,9M9,9L12,9L12,12L9,12L9,9"></path>
 </pattern>
 </defs>
 <rect height="100%" width="100%" y="0" x="0" class="road" id="mainfill"></rect>
 <g id="paths"><path d="M156,12L156,12L252,12L252,24L288,24L288,36L312,36L312,48L324,48L324,60L336,60L336,72L348,72L348,84L360,84L360,96L372,96L372,108L384,108L384,120L396,120L396,132L420,132L420,120L432,120L432,108L444,108L444,96L456,96L456,84L468,84L468,72L480,72L480,60L492,60L492,48L504,48L504,36L528,36L528,24L564,24L564,12L660,12L660,24L696,24L696,36L720,36L720,48L732,48L732,60L744,60L744,72L756,72L756,84L768,84L768,96L780,96L780,120L792,120L792,156L804,156L804,252L792,252L792,288L780,288L780,312L768,312L768,324L756,324L756,336L744,336L744,348L732,348L732,360L720,360L720,372L696,372L696,384L660,384L660,396L564,396L564,384L528,384L528,372L504,372L504,360L492,360L492,348L480,348L480,336L468,336L468,324L456,324L456,312L444,312L444,300L432,300L432,288L420,288L420,276L396,276L396,288L384,288L384,300L372,300L372,312L360,312L360,324L348,324L348,336L336,336L336,348L324,348L324,360L312,360L312,372L288,372L288,384L252,384L252,396L156,396L156,384L120,384L120,372L96,372L96,360L84,360L84,348L72,348L72,336L60,336L60,324L48,324L48,312L36,312L36,288L24,288L24,252L12,252L12,156L24,156L24,120L36,120L36,96L48,96L48,84L60,84L60,72L72,72L72,60L84,60L84,48L96,48L96,36L120,36L120,24L156,24L156,12M180,108L180,108L168,108L168,120L144,120L144,132L132,132L132,144L120,144L120,168L108,168L108,240L120,240L120,264L132,264L132,276L144,276L144,288L168,288L168,300L240,300L240,288L264,288L264,276L276,276L276,264L288,264L288,252L300,252L300,240L312,240L312,228L324,228L324,216L336,216L336,192L324,192L324,180L312,180L312,168L300,168L300,156L288,156L288,144L276,144L276,132L264,132L264,120L240,120L240,108L180,108M588,108L588,108L576,108L576,120L552,120L552,132L540,132L540,144L528,144L528,156L516,156L516,168L504,168L504,180L492,180L492,192L480,192L480,216L492,216L492,228L504,228L504,240L516,240L516,252L528,252L528,264L540,264L540,276L552,276L552,288L576,288L576,300L648,300L648,288L672,288L672,276L684,276L684,264L696,264L696,240L708,240L708,168L696,168L696,144L684,144L684,132L672,132L672,120L648,120L648,108Z" class="road"></path><path d="M732,60L732,60L744,60L744,84L732,84L732,96L720,96L720,108L708,108L708,120L696,120L696,132L672,132L672,120L684,120L684,108L696,108L696,96L708,96L708,84L720,84L720,72L732,72Z" class="cp1"></path><path d="M672,276L672,276L696,276L696,288L708,288L708,300L720,300L720,312L732,312L732,324L744,324L744,348L732,348L732,336L720,336L720,324L708,324L708,312L696,312L696,300L684,300L684,288L672,288Z" class="cp2"></path><path d="M0,0L0,0L816,0L816,408L0,408L0,0M168,12L168,12L156,12L156,24L120,24L120,36L96,36L96,48L84,48L84,60L72,60L72,72L60,72L60,84L48,84L48,96L36,96L36,120L24,120L24,156L12,156L12,252L24,252L24,288L36,288L36,312L48,312L48,324L60,324L60,336L72,336L72,348L84,348L84,360L96,360L96,372L120,372L120,384L156,384L156,396L252,396L252,384L288,384L288,372L312,372L312,360L324,360L324,348L336,348L336,336L348,336L348,324L360,324L360,312L372,312L372,300L384,300L384,288L396,288L396,276L420,276L420,288L432,288L432,300L444,300L444,312L456,312L456,324L468,324L468,336L480,336L480,348L492,348L492,360L504,360L504,372L528,372L528,384L564,384L564,396L660,396L660,384L696,384L696,372L720,372L720,360L732,360L732,348L744,348L744,336L756,336L756,324L768,324L768,312L780,312L780,288L792,288L792,252L804,252L804,156L792,156L792,120L780,120L780,96L768,96L768,84L756,84L756,72L744,72L744,60L732,60L732,48L720,48L720,36L696,36L696,24L660,24L660,12L564,12L564,24L528,24L528,36L504,36L504,48L492,48L492,60L480,60L480,72L468,72L468,84L456,84L456,96L444,96L444,108L432,108L432,120L420,120L420,132L396,132L396,120L384,120L384,108L372,108L372,96L360,96L360,84L348,84L348,72L336,72L336,60L324,60L324,48L312,48L312,36L288,36L288,24L252,24L252,12L168,12M168,108L168,108L240,108L240,120L264,120L264,132L276,132L276,144L288,144L288,156L300,156L300,168L312,168L312,180L324,180L324,192L336,192L336,216L324,216L324,228L312,228L312,240L300,240L300,252L288,252L288,264L276,264L276,276L264,276L264,288L240,288L240,300L168,300L168,288L144,288L144,276L132,276L132,264L120,264L120,240L108,240L108,168L120,168L120,144L132,144L132,132L144,132L144,120L168,120L168,108M576,108L576,108L648,108L648,120L672,120L672,132L684,132L684,144L696,144L696,168L708,168L708,240L696,240L696,264L684,264L684,276L672,276L672,288L648,288L648,300L576,300L576,288L552,288L552,276L540,276L540,264L528,264L528,252L516,252L516,240L504,240L504,228L492,228L492,216L480,216L480,192L492,192L492,180L504,180L504,168L516,168L516,156L528,156L528,144L540,144L540,132L552,132L552,120L576,120Z" class="grass"></path><path d="M12,168L12,168L108,168L108,180L12,180L12,168M12,228L12,228L108,228L108,240L12,240Z" class="finish"></path><path d="M12,192L12,192L108,192L108,216L12,216Z" class="start"></path></g>
 <rect opacity=".3" fill="url(#grid)" height="100%" width="100%" y="0" x="0"></rect>
</svg>