<svg xmlns="http://www.w3.org/2000/svg" xmlns:xlink="http://www.w3.org/1999/xlink" version="1.1" id="mapSvgView" width="816" height="408"> <rect id="mainfill" class="road" x="0" y="0" width="100%" height="100%"></rect> <g id="paths"><path d="M732,60L732,60L744,60L744,84L732,84L732,96L720,96L720,108L708,108L708,120L696,120L696,132L672,132L672,120L684,120L684,108L696,108L696,96L708,96L708,84L720,84L720,72L732,72Z" class="cp1"></path><path d="M672,276L672,276L696,276L696,288L708,288L708,300L720,300L720,312L732,312L732,324L744,324L744,348L732,348L732,336L720,336L720,324L708,324L708,312L696,312L696,300L684,300L684,288L672,288Z" class="cp2"></path><path d="M0,0L0,0L816,0L816,408L0,408L0,0M168,12L168,12L156,12L156,24L120,24L120,36L96,36L96,48L84,48L84,60L72,60L72,72L60,72L60,84L48,84L48,96L36,96L36,120L24,120L24,156L12,156L12,252L24,252L24,288L36,288L36,312L48,312L48,324L60,324L60,336L72,336L72,348L84,348L84,360L96,360L96,372L120,372L120,384L156,384L156,396L252,396L252,384L288,384L288,372L312,372L312,360L324,360L324,348L336,348L336,336L348,336L348,324L360,324L360,312L372,312L372,300L384,300L384,288L396,288L396,276L420,276L420,288L432,288L432,300L444,300L444,312L456,312L456,324L468,324L468,336L480,336L480,348L492,348L492,360L504,360L504,372L528,372L528,384L564,384L564,396L660,396L660,384L696,384L696,372L720,372L720,360L732,360L732,348L744,348L744,336L756,336L756,324L768,324L768,312L780,312L780,288L792,288L792,252L804,252L804,156L792,156L792,120L780,120L780,96L768,96L768,84L756,84L756,72L744,72L744,60L732,60L732,48L720,48L720,36L696,36L696,24L660,24L660,12L564,12L564,24L528,24L528,36L504,36L504,48L492,48L492,60L480,60L480,72L468,72L468,84L456,84L456,96L444,96L444,108L432,108L432,120L420,120L420,132L396,132L396,120L384,120L384,108L372,108L372,96L360,96L360,84L348,84L348,72L336,72L336,60L324,60L324,48L312,48L312,36L288,36L288,24L252,24L252,12L168,12M168,108L168,108L240,108L240,120L264,120L264,132L276,132L276,144L288,144L288,156L300,156L300,168L312,168L312,180L324,180L324,192L336,192L336,216L324,216L324,228L312,228L312,240L300,240L300,252L288,252L288,264L276,264L276,276L264,276L264,288L240,288L240,300L168,300L168,288L144,288L144,276L132,276L132,264L120,264L120,240L108,240L108,168L120,168L120,144L132,144L132,132L144,132L144,120L168,120L168,108M576,108L576,108L648,108L648,120L672,120L672,132L684,132L684,144L696,144L696,168L708,168L708,240L696,240L696,264L684,264L684,276L672,276L672,288L648,288L648,300L576,300L576,288L552,288L552,276L540,276L540,264L528,264L528,252L516,252L516,240L504,240L504,228L492,228L492,216L480,216L480,192L492,192L492,180L504,180L504,168L516,168L516,156L528,156L528,144L540,144L540,132L552,132L552,120L576,120Z" class="grass"></path><path d="M12,168L12,168L108,168L108,180L12,180L12,168M12,228L12,228L108,228L108,240L12,240Z" class="finish"></path><path d="M12,192L12,192L108,192L108,216L12,216Z" class="start"></path></g></svg>