<svg xmlns:xlink="http://www.w3.org/1999/xlink" xmlns="http://www.w3.org/2000/svg" height="1380" width="1380" id="mapSvgView" version="1.1" style="width: 1380px; height: 1380px;" viewBox="0 0 1380 1380">
 <defs>
 <pattern y="0" x="0" height="24" width="24" patternUnits="userSpaceOnUse" id="grassPattern">
 <rect class="grasscolor" height="24" width="24" y="0" x="0"></rect>
 <rect class="grassspeclecolor" height="1" width="1" x="1" y="5"></rect>
 <rect class="grassspeclecolor" height="1" width="1" x="1" y="5"></rect>
 <rect class="grassspeclecolor" height="1" width="1" x="3" y="5"></rect>
 <rect class="grassspeclecolor" height="1" width="1" x="6" y="7"></rect>
 <rect class="grassspeclecolor" height="1" width="1" x="6" y="17"></rect>
 <rect class="grassspeclecolor" height="1" width="1" x="8" y="21"></rect>
 <rect class="grassspeclecolor" height="1" width="1" x="9" y="2"></rect>
 <rect class="grassspeclecolor" height="1" width="1" x="12" y="4"></rect>
 <rect class="grassspeclecolor" height="1" width="1" x="13" y="15"></rect>
 <rect class="grassspeclecolor" height="1" width="1" x="14" y="4"></rect>
 <rect class="grassspeclecolor" height="1" width="1" x="14" y="19"></rect>
 <rect class="grassspeclecolor" height="1" width="1" x="17" y="7"></rect>
 <rect class="grassspeclecolor" height="1" width="1" x="17" y="12"></rect>
 <rect class="grassspeclecolor" height="1" width="1" x="18" y="23"></rect>
 <rect class="grassspeclecolor" height="1" width="1" x="21" y="16"></rect>
 <rect class="grassspeclecolor" height="1" width="1" x="23" y="12"></rect>
 </pattern>
 <pattern y="0" x="0" height="24" width="24" patternUnits="userSpaceOnUse" id="roadPattern">
 <rect class="roadcolor" height="24" width="24" y="0" x="0"></rect>
 <rect class="roadspeclecolor" height="1" width="1" x="1" y="5"></rect>
 <rect class="roadspeclecolor" height="1" width="1" x="1" y="5"></rect>
 <rect class="roadspeclecolor" height="1" width="1" x="3" y="5"></rect>
 <rect class="roadspeclecolor" height="1" width="1" x="6" y="7"></rect>
 <rect class="roadspeclecolor" height="1" width="1" x="6" y="17"></rect>
 <rect class="roadspeclecolor" height="1" width="1" x="8" y="21"></rect>
 <rect class="roadspeclecolor" height="1" width="1" x="9" y="2"></rect>
 <rect class="roadspeclecolor" height="1" width="1" x="12" y="4"></rect>
 <rect class="roadspeclecolor" height="1" width="1" x="13" y="15"></rect>
 <rect class="roadspeclecolor" height="1" width="1" x="14" y="4"></rect>
 <rect class="roadspeclecolor" height="1" width="1" x="14" y="19"></rect>
 <rect class="roadspeclecolor" height="1" width="1" x="17" y="7"></rect>
 <rect class="roadspeclecolor" height="1" width="1" x="17" y="12"></rect>
 <rect class="roadspeclecolor" height="1" width="1" x="18" y="23"></rect>
 <rect class="roadspeclecolor" height="1" width="1" x="21" y="16"></rect>
 <rect class="roadspeclecolor" height="1" width="1" x="23" y="12"></rect>
 </pattern>
 <pattern y="0" x="0" height="12" width="12" patternUnits="userSpaceOnUse" id="grid">
 <line stroke-width="1" stroke="black" y2="12" x2="12" y1="0" x1="12"></line>
 <line stroke-width="1" stroke="black" y2="12" x2="12" y1="12" x1="0"></line>
 </pattern>
 <pattern y="0" x="0" height="12" width="12" patternUnits="userSpaceOnUse" id="finishPattern">
 <rect fill="black" height="12" width="12" y="0" x="0"></rect>
 <path fill="white" d="M0,0L3,0L3,3L0,3L0,0M6,0L9,0L9,3L6,3L6,0M3,3L6,3L6,6L3,6L3,3M9,3L12,3L12,6L9,6L9,3"></path>
 <path fill="white" d="M0,6L3,6L3,9L0,9L0,6M6,6L9,6L9,9L6,9L6,6M3,9L6,9L6,12L3,12L3,9M9,9L12,9L12,12L9,12L9,9"></path>
 </pattern>
 <pattern y="0" x="0" height="12" width="12" patternUnits="userSpaceOnUse" id="startPattern">
 <rect fill="rgb(100,100,100)" height="12" width="12" y="0" x="0"></rect>
 <rect stroke-width="1" stroke="rgb(200,200,200)" fill="none" height="5" width="5" y="3.5" x="3.5"></rect>
 </pattern>
 <pattern y="0" x="0" height="12" width="12" patternUnits="userSpaceOnUse" id="cp1pattern">
 <rect class="cp1color" height="12" width="12" y="0" x="0"></rect>
 <path fill="black" d="M0,0L3,0L3,3L0,3L0,0M6,0L9,0L9,3L6,3L6,0M3,3L6,3L6,6L3,6L3,3M9,3L12,3L12,6L9,6L9,3"></path>
 <path fill="black" d="M0,6L3,6L3,9L0,9L0,6M6,6L9,6L9,9L6,9L6,6M3,9L6,9L6,12L3,12L3,9M9,9L12,9L12,12L9,12L9,9"></path>
 </pattern>
 <pattern y="0" x="0" height="12" width="12" patternUnits="userSpaceOnUse" id="cp2pattern">
 <rect class="cp2color" height="12" width="12" y="0" x="0"></rect>
 <path fill="white" d="M0,0L3,0L3,3L0,3L0,0M6,0L9,0L9,3L6,3L6,0M3,3L6,3L6,6L3,6L3,3M9,3L12,3L12,6L9,6L9,3"></path>
 <path fill="white" d="M0,6L3,6L3,9L0,9L0,6M6,6L9,6L9,9L6,9L6,6M3,9L6,9L6,12L3,12L3,9M9,9L12,9L12,12L9,12L9,9"></path>
 </pattern>
 <pattern y="0" x="0" height="12" width="12" patternUnits="userSpaceOnUse" id="cp3pattern">
 <rect class="cp3color" height="12" width="12" y="0" x="0"></rect>
 <path fill="black" d="M0,0L3,0L3,3L0,3L0,0M6,0L9,0L9,3L6,3L6,0M3,3L6,3L6,6L3,6L3,3M9,3L12,3L12,6L9,6L9,3"></path>
 <path fill="black" d="M0,6L3,6L3,9L0,9L0,6M6,6L9,6L9,9L6,9L6,6M3,9L6,9L6,12L3,12L3,9M9,9L12,9L12,12L9,12L9,9"></path>
 </pattern>
 <pattern y="0" x="0" height="12" width="12" patternUnits="userSpaceOnUse" id="cp4pattern">
 <rect class="cp4color" height="12" width="12" y="0" x="0"></rect>
 <path fill="white" d="M0,0L3,0L3,3L0,3L0,0M6,0L9,0L9,3L6,3L6,0M3,3L6,3L6,6L3,6L3,3M9,3L12,3L12,6L9,6L9,3"></path>
 <path fill="white" d="M0,6L3,6L3,9L0,9L0,6M6,6L9,6L9,9L6,9L6,6M3,9L6,9L6,12L3,12L3,9M9,9L12,9L12,12L9,12L9,9"></path>
 </pattern>
 <pattern y="0" x="0" height="12" width="12" patternUnits="userSpaceOnUse" id="cp5pattern">
 <rect class="cp5color" height="12" width="12" y="0" x="0"></rect>
 <path fill="black" d="M0,0L3,0L3,3L0,3L0,0M6,0L9,0L9,3L6,3L6,0M3,3L6,3L6,6L3,6L3,3M9,3L12,3L12,6L9,6L9,3"></path>
 <path fill="black" d="M0,6L3,6L3,9L0,9L0,6M6,6L9,6L9,9L6,9L6,6M3,9L6,9L6,12L3,12L3,9M9,9L12,9L12,12L9,12L9,9"></path>
 </pattern>
 <pattern y="0" x="0" height="12" width="12" patternUnits="userSpaceOnUse" id="cp6pattern">
 <rect class="cp6color" height="12" width="12" y="0" x="0"></rect>
 <path fill="white" d="M0,0L3,0L3,3L0,3L0,0M6,0L9,0L9,3L6,3L6,0M3,3L6,3L6,6L3,6L3,3M9,3L12,3L12,6L9,6L9,3"></path>
 <path fill="white" d="M0,6L3,6L3,9L0,9L0,6M6,6L9,6L9,9L6,9L6,6M3,9L6,9L6,12L3,12L3,9M9,9L12,9L12,12L9,12L9,9"></path>
 </pattern>
 <pattern y="0" x="0" height="12" width="12" patternUnits="userSpaceOnUse" id="cp7pattern">
 <rect class="cp7color" height="12" width="12" y="0" x="0"></rect>
 <path fill="black" d="M0,0L3,0L3,3L0,3L0,0M6,0L9,0L9,3L6,3L6,0M3,3L6,3L6,6L3,6L3,3M9,3L12,3L12,6L9,6L9,3"></path>
 <path fill="black" d="M0,6L3,6L3,9L0,9L0,6M6,6L9,6L9,9L6,9L6,6M3,9L6,9L6,12L3,12L3,9M9,9L12,9L12,12L9,12L9,9"></path>
 </pattern>
 <pattern y="0" x="0" height="12" width="12" patternUnits="userSpaceOnUse" id="cp8pattern">
 <rect class="cp8color" height="12" width="12" y="0" x="0"></rect>
 <path fill="white" d="M0,0L3,0L3,3L0,3L0,0M6,0L9,0L9,3L6,3L6,0M3,3L6,3L6,6L3,6L3,3M9,3L12,3L12,6L9,6L9,3"></path>
 <path fill="white" d="M0,6L3,6L3,9L0,9L0,6M6,6L9,6L9,9L6,9L6,6M3,9L6,9L6,12L3,12L3,9M9,9L12,9L12,12L9,12L9,9"></path>
 </pattern>
 <pattern y="0" x="0" height="12" width="12" patternUnits="userSpaceOnUse" id="cp9pattern">
 <rect class="cp9color" height="12" width="12" y="0" x="0"></rect>
 <path fill="black" d="M0,0L3,0L3,3L0,3L0,0M6,0L9,0L9,3L6,3L6,0M3,3L6,3L6,6L3,6L3,3M9,3L12,3L12,6L9,6L9,3"></path>
 <path fill="black" d="M0,6L3,6L3,9L0,9L0,6M6,6L9,6L9,9L6,9L6,6M3,9L6,9L6,12L3,12L3,9M9,9L12,9L12,12L9,12L9,9"></path>
 </pattern>
 </defs>
 <rect height="100%" width="100%" y="0" x="0" class="grass" id="mainfill"></rect>
 <g id="paths"><path d="M672,12L672,12L708,12L708,120L732,120L732,132L768,132L768,144L792,144L792,156L816,156L816,168L852,168L852,180L876,180L876,192L912,192L912,204L936,204L936,216L972,216L972,228L996,228L996,240L1020,240L1020,252L1056,252L1056,264L1044,264L1044,276L1032,276L1032,288L1008,288L1008,276L984,276L984,264L948,264L948,252L924,252L924,240L900,240L900,228L864,228L864,216L840,216L840,204L816,204L816,192L792,192L792,180L756,180L756,168L732,168L732,156L648,156L648,168L624,168L624,180L588,180L588,192L564,192L564,204L540,204L540,216L516,216L516,204L504,204L504,216L516,216L516,228L480,228L480,240L456,240L456,228L444,228L444,240L456,240L456,252L432,252L432,240L420,240L420,252L432,252L432,264L396,264L396,276L372,276L372,264L360,264L360,276L372,276L372,288L348,288L348,276L336,276L336,264L324,264L324,252L360,252L360,240L384,240L384,228L408,228L408,216L444,216L444,204L468,204L468,192L504,192L504,180L528,180L528,168L564,168L564,156L588,156L588,144L612,144L612,132L648,132L648,120L672,120L672,12M672,168L672,168L708,168L708,312L732,312L732,324L768,324L768,336L792,336L792,348L828,348L828,360L864,360L864,372L888,372L888,384L924,384L924,396L960,396L960,384L972,384L972,372L984,372L984,360L996,360L996,348L1008,348L1008,336L1020,336L1020,324L1032,324L1032,312L1044,312L1044,300L1032,300L1032,288L1044,288L1044,276L1056,276L1056,264L1092,264L1092,252L1104,252L1104,240L1116,240L1116,228L1128,228L1128,216L1140,216L1140,204L1152,204L1152,192L1164,192L1164,204L1176,204L1176,216L1188,216L1188,228L1176,228L1176,240L1164,240L1164,252L1152,252L1152,264L1140,264L1140,276L1128,276L1128,288L1116,288L1116,324L1104,324L1104,336L1092,336L1092,348L1080,348L1080,336L1068,336L1068,348L1056,348L1056,360L1044,360L1044,372L1032,372L1032,384L1020,384L1020,396L1008,396L1008,408L996,408L996,420L984,420L984,456L996,456L996,492L1008,492L1008,516L1020,516L1020,552L1032,552L1032,588L1044,588L1044,612L1056,612L1056,648L1068,648L1068,672L1212,672L1212,708L1068,708L1068,732L1056,732L1056,768L1044,768L1044,792L1032,792L1032,828L1020,828L1020,864L1008,864L1008,888L996,888L996,924L984,924L984,960L996,960L996,972L1008,972L1008,984L1020,984L1020,996L1032,996L1032,1008L1044,1008L1044,1020L1056,1020L1056,1032L1068,1032L1068,1044L1080,1044L1080,1032L1092,1032L1092,1008L1104,1008L1104,972L1116,972L1116,948L1128,948L1128,924L1140,924L1140,900L1152,900L1152,864L1164,864L1164,840L1176,840L1176,816L1188,816L1188,780L1200,780L1200,756L1212,756L1212,732L1224,732L1224,648L1212,648L1212,624L1200,624L1200,588L1188,588L1188,564L1176,564L1176,540L1164,540L1164,516L1152,516L1152,480L1140,480L1140,456L1128,456L1128,432L1116,432L1116,396L1104,396L1104,372L1092,372L1092,348L1104,348L1104,336L1116,336L1116,324L1128,324L1128,360L1140,360L1140,384L1152,384L1152,408L1164,408L1164,444L1176,444L1176,468L1188,468L1188,504L1200,504L1200,528L1212,528L1212,564L1224,564L1224,588L1236,588L1236,612L1248,612L1248,648L1260,648L1260,672L1368,672L1368,708L1260,708L1260,732L1248,732L1248,768L1236,768L1236,792L1224,792L1224,816L1212,816L1212,852L1200,852L1200,876L1188,876L1188,912L1176,912L1176,936L1164,936L1164,972L1152,972L1152,996L1140,996L1140,1020L1128,1020L1128,1056L1116,1056L1116,1044L1104,1044L1104,1032L1092,1032L1092,1044L1104,1044L1104,1056L1116,1056L1116,1092L1128,1092L1128,1104L1140,1104L1140,1116L1152,1116L1152,1128L1164,1128L1164,1140L1176,1140L1176,1152L1188,1152L1188,1164L1176,1164L1176,1176L1164,1176L1164,1188L1152,1188L1152,1176L1140,1176L1140,1164L1128,1164L1128,1152L1116,1152L1116,1140L1104,1140L1104,1128L1092,1128L1092,1116L1056,1116L1056,1104L1044,1104L1044,1092L1032,1092L1032,1080L1044,1080L1044,1068L1032,1068L1032,1056L1020,1056L1020,1044L1008,1044L1008,1032L996,1032L996,1020L984,1020L984,1008L972,1008L972,996L960,996L960,984L924,984L924,996L888,996L888,1008L864,1008L864,1020L828,1020L828,1032L792,1032L792,1044L768,1044L768,1056L732,1056L732,1068L708,1068L708,1212L672,1212L672,1068L648,1068L648,1056L612,1056L612,1044L588,1044L588,1032L552,1032L552,1020L516,1020L516,1008L492,1008L492,996L456,996L456,984L420,984L420,996L408,996L408,1008L396,1008L396,1020L384,1020L384,1032L372,1032L372,1044L360,1044L360,1056L348,1056L348,1068L336,1068L336,1080L348,1080L348,1092L336,1092L336,1104L324,1104L324,1116L288,1116L288,1128L276,1128L276,1140L264,1140L264,1152L252,1152L252,1164L240,1164L240,1176L228,1176L228,1188L216,1188L216,1176L204,1176L204,1164L192,1164L192,1152L204,1152L204,1140L216,1140L216,1128L228,1128L228,1116L240,1116L240,1104L252,1104L252,1092L264,1092L264,1056L252,1056L252,1020L240,1020L240,996L228,996L228,972L216,972L216,936L204,936L204,912L192,912L192,876L180,876L180,852L168,852L168,816L156,816L156,792L144,792L144,768L132,768L132,732L120,732L120,708L12,708L12,672L120,672L120,648L132,648L132,612L144,612L144,588L156,588L156,564L168,564L168,528L180,528L180,504L192,504L192,468L204,468L204,444L216,444L216,408L228,408L228,384L240,384L240,360L252,360L252,324L264,324L264,288L252,288L252,276L240,276L240,264L228,264L228,252L216,252L216,240L204,240L204,228L192,228L192,216L204,216L204,204L216,204L216,192L228,192L228,204L240,204L240,216L252,216L252,228L264,228L264,240L276,240L276,252L288,252L288,264L324,264L324,276L336,276L336,288L348,288L348,300L336,300L336,312L348,312L348,324L360,324L360,336L372,336L372,348L384,348L384,360L396,360L396,372L408,372L408,384L420,384L420,396L456,396L456,384L492,384L492,372L516,372L516,360L552,360L552,348L588,348L588,336L612,336L612,324L648,324L648,312L672,312L672,168M876,204L876,204L864,204L864,216L876,216L876,204M936,228L936,228L924,228L924,240L936,240L936,228M960,240L960,240L948,240L948,252L960,252L960,240M1020,264L1020,264L1008,264L1008,276L1020,276L1020,264M276,324L276,324L264,324L264,336L276,336L276,324M288,336L288,336L276,336L276,348L288,348L288,336M312,336L312,336L300,336L300,348L288,348L288,372L276,372L276,360L264,360L264,372L276,372L276,396L264,396L264,432L252,432L252,420L240,420L240,432L252,432L252,456L240,456L240,444L228,444L228,456L240,456L240,480L228,480L228,516L216,516L216,504L204,504L204,516L216,516L216,540L204,540L204,564L192,564L192,588L180,588L180,624L168,624L168,648L156,648L156,732L168,732L168,756L180,756L180,792L192,792L192,816L204,816L204,840L216,840L216,864L204,864L204,876L216,876L216,864L228,864L228,900L240,900L240,924L228,924L228,936L240,936L240,924L252,924L252,948L240,948L240,960L252,960L252,948L264,948L264,984L276,984L276,1008L264,1008L264,1020L276,1020L276,1008L288,1008L288,1032L276,1032L276,1044L264,1044L264,1056L276,1056L276,1044L288,1044L288,1032L300,1032L300,1044L312,1044L312,1032L324,1032L324,1020L336,1020L336,1008L348,1008L348,996L360,996L360,984L372,984L372,972L384,972L384,960L396,960L396,924L384,924L384,888L372,888L372,864L360,864L360,828L348,828L348,792L336,792L336,768L324,768L324,732L312,732L312,708L168,708L168,672L312,672L312,648L324,648L324,612L336,612L336,588L348,588L348,552L360,552L360,516L372,516L372,492L384,492L384,456L396,456L396,420L384,420L384,408L372,408L372,396L360,396L360,384L348,384L348,372L336,372L336,360L324,360L324,348L312,348L312,336M624,348L624,348L612,348L612,360L624,360L624,348M660,348L660,348L648,348L648,360L624,360L624,372L588,372L588,384L564,384L564,372L552,372L552,384L564,384L564,396L540,396L540,384L528,384L528,396L540,396L540,408L504,408L504,420L480,420L480,408L468,408L468,420L480,420L480,432L432,432L432,480L420,480L420,468L408,468L408,480L420,480L420,504L408,504L408,540L396,540L396,528L384,528L384,540L396,540L396,564L384,564L384,552L372,552L372,564L384,564L384,588L372,588L372,624L360,624L360,612L348,612L348,624L360,624L360,648L348,648L348,672L504,672L504,636L516,636L516,600L528,600L528,552L516,552L516,540L504,540L504,528L492,528L492,516L480,516L480,504L468,504L468,492L456,492L456,480L444,480L444,444L480,444L480,456L492,456L492,468L504,468L504,480L516,480L516,492L528,492L528,504L540,504L540,516L552,516L552,528L600,528L600,516L636,516L636,504L672,504L672,360L708,360L708,504L744,504L744,516L780,516L780,528L768,528L768,540L780,540L780,528L828,528L828,516L840,516L840,504L852,504L852,492L864,492L864,480L876,480L876,468L888,468L888,456L900,456L900,444L936,444L936,480L924,480L924,492L912,492L912,504L900,504L900,516L888,516L888,528L876,528L876,540L864,540L864,552L852,552L852,600L840,600L840,612L852,612L852,600L864,600L864,636L876,636L876,672L1032,672L1032,648L1020,648L1020,624L1008,624L1008,588L996,588L996,564L984,564L984,540L972,540L972,504L960,504L960,480L948,480L948,432L900,432L900,420L876,420L876,408L840,408L840,396L816,396L816,384L792,384L792,372L756,372L756,360L732,360L732,348L660,348M768,348L768,348L756,348L756,360L768,360L768,348M1116,360L1116,360L1104,360L1104,372L1116,372L1116,360M828,372L828,372L816,372L816,384L828,384L828,372M852,384L852,384L840,384L840,396L852,396L852,384M912,408L912,408L900,408L900,420L912,420L912,408M1140,420L1140,420L1128,420L1128,432L1140,432L1140,420M1152,444L1152,444L1140,444L1140,456L1152,456L1152,444M972,468L972,468L960,468L960,480L972,480L972,468M1176,504L1176,504L1164,504L1164,516L1176,516L1176,504M612,528L612,528L600,528L600,540L612,540L612,528M648,528L648,528L636,528L636,540L648,540L648,528M744,528L744,528L732,528L732,540L708,540L708,636L720,636L720,624L732,624L732,612L744,612L744,600L756,600L756,588L768,588L768,576L804,576L804,612L792,612L792,624L780,624L780,636L768,636L768,648L756,648L756,660L744,660L744,672L828,672L828,708L744,708L744,720L756,720L756,732L768,732L768,744L780,744L780,756L792,756L792,768L804,768L804,804L768,804L768,792L756,792L756,780L744,780L744,768L732,768L732,756L720,756L720,744L708,744L708,828L672,828L672,744L660,744L660,756L648,756L648,768L636,768L636,780L624,780L624,792L612,792L612,804L576,804L576,768L588,768L588,756L600,756L600,744L612,744L612,732L624,732L624,720L636,720L636,708L552,708L552,672L636,672L636,660L624,660L624,648L612,648L612,636L600,636L600,624L588,624L588,612L576,612L576,576L612,576L612,588L624,588L624,600L636,600L636,612L648,612L648,624L660,624L660,636L672,636L672,540L648,540L648,552L612,552L612,564L564,564L564,612L552,612L552,648L540,648L540,636L528,636L528,648L540,648L540,732L528,732L528,744L540,744L540,732L552,732L552,768L564,768L564,816L612,816L612,828L648,828L648,840L636,840L636,852L648,852L648,840L732,840L732,828L768,828L768,816L816,816L816,768L828,768L828,732L840,732L840,648L828,648L828,612L816,612L816,564L768,564L768,552L732,552L732,540L744,540L744,528M996,528L996,528L984,528L984,540L996,540L996,528M1008,552L1008,552L996,552L996,564L1008,564L1008,552M540,600L540,600L528,600L528,612L540,612L540,600M1032,612L1032,612L1020,612L1020,624L1032,624L1032,612M852,636L852,636L840,636L840,648L852,648L852,636M360,708L360,708L348,708L348,732L360,732L360,756L348,756L348,768L360,768L360,756L372,756L372,792L384,792L384,816L372,816L372,828L384,828L384,816L396,816L396,840L384,840L384,852L396,852L396,840L408,840L408,876L420,876L420,900L408,900L408,912L420,912L420,900L432,900L432,948L480,948L480,960L468,960L468,972L480,972L480,960L504,960L504,972L540,972L540,984L528,984L528,996L540,996L540,984L564,984L564,996L552,996L552,1008L564,1008L564,996L588,996L588,1008L624,1008L624,1020L612,1020L612,1032L624,1032L624,1020L648,1020L648,1032L732,1032L732,1020L756,1020L756,1008L792,1008L792,996L816,996L816,984L840,984L840,972L876,972L876,960L900,960L900,948L948,948L948,900L960,900L960,876L972,876L972,840L984,840L984,816L996,816L996,792L1008,792L1008,756L1020,756L1020,732L1032,732L1032,708L876,708L876,744L864,744L864,780L852,780L852,768L840,768L840,780L852,780L852,828L864,828L864,840L876,840L876,852L888,852L888,864L900,864L900,876L912,876L912,888L924,888L924,900L936,900L936,936L900,936L900,924L888,924L888,912L876,912L876,900L864,900L864,888L852,888L852,876L840,876L840,864L828,864L828,852L780,852L780,840L768,840L768,852L780,852L780,864L744,864L744,876L708,876L708,1020L672,1020L672,876L636,876L636,864L600,864L600,852L552,852L552,864L540,864L540,876L528,876L528,888L516,888L516,900L504,900L504,912L492,912L492,924L480,924L480,936L444,936L444,900L456,900L456,888L468,888L468,876L480,876L480,864L492,864L492,852L504,852L504,840L516,840L516,828L528,828L528,780L516,780L516,744L504,744L504,708L360,708M852,732L852,732L840,732L840,744L852,744L852,732M1032,756L1032,756L1020,756L1020,768L1032,768L1032,756M540,768L540,768L528,768L528,780L540,780L540,768M1008,816L1008,816L996,816L996,828L1008,828L1008,816M612,840L612,840L600,840L600,852L612,852L612,840M744,840L744,840L732,840L732,852L744,852L744,840M996,840L996,840L984,840L984,852L996,852L996,840M1176,864L1176,864L1164,864L1164,876L1176,876L1176,864M972,900L972,900L960,900L960,912L972,912L972,900M1152,924L1152,924L1140,924L1140,936L1152,936L1152,924M1140,948L1140,948L1128,948L1128,960L1140,960L1140,948M912,960L912,960L900,960L900,972L912,972L912,960M852,984L852,984L840,984L840,996L852,996L852,984M828,996L828,996L816,996L816,1008L828,1008L828,996M1116,1008L1116,1008L1104,1008L1104,1020L1116,1020L1116,1008M768,1020L768,1020L756,1020L756,1032L768,1032L768,1020M348,1092L348,1092L372,1092L372,1104L360,1104L360,1116L372,1116L372,1104L396,1104L396,1116L432,1116L432,1128L420,1128L420,1140L432,1140L432,1128L456,1128L456,1140L444,1140L444,1152L456,1152L456,1140L480,1140L480,1152L516,1152L516,1164L504,1164L504,1176L516,1176L516,1164L540,1164L540,1176L564,1176L564,1188L588,1188L588,1200L624,1200L624,1212L648,1212L648,1224L732,1224L732,1212L756,1212L756,1200L780,1200L780,1188L816,1188L816,1176L840,1176L840,1164L864,1164L864,1152L900,1152L900,1140L924,1140L924,1128L948,1128L948,1116L972,1116L972,1104L1008,1104L1008,1092L1032,1092L1032,1104L1044,1104L1044,1116L1056,1116L1056,1128L1020,1128L1020,1140L996,1140L996,1152L972,1152L972,1164L936,1164L936,1176L912,1176L912,1188L876,1188L876,1200L852,1200L852,1212L816,1212L816,1224L792,1224L792,1236L768,1236L768,1248L732,1248L732,1260L708,1260L708,1368L672,1368L672,1260L648,1260L648,1248L612,1248L612,1236L588,1236L588,1224L564,1224L564,1212L528,1212L528,1200L504,1200L504,1188L468,1188L468,1176L444,1176L444,1164L408,1164L408,1152L384,1152L384,1140L360,1140L360,1128L324,1128L324,1116L336,1116L336,1104L348,1104L348,1092M1020,1104L1020,1104L1008,1104L1008,1116L1020,1116L1020,1104M960,1128L960,1128L948,1128L948,1140L960,1140L960,1128M936,1140L936,1140L924,1140L924,1152L936,1152L936,1140M876,1164L876,1164L864,1164L864,1176L876,1176L876,1164M1104,1236L1104,1236L1128,1236L1128,1248L1140,1248L1140,1260L1152,1260L1152,1272L1128,1272L1128,1260L1104,1260L1104,1272L1080,1272L1080,1260L1092,1260L1092,1248L1104,1248L1104,1236M1236,1236L1236,1236L1260,1236L1260,1248L1272,1248L1272,1260L1284,1260L1284,1272L1260,1272L1260,1260L1236,1260L1236,1272L1212,1272L1212,1260L1224,1260L1224,1248L1236,1248L1236,1236M996,1296L996,1296L1068,1296L1068,1308L996,1308L996,1296M1296,1296L1296,1296L1368,1296L1368,1308L1296,1308L1296,1296M996,1320L996,1320L1068,1320L1068,1332L996,1332L996,1320M1296,1320L1296,1320L1368,1320L1368,1332L1296,1332L1296,1320M1176,1356L1176,1356L1200,1356L1200,1368L1176,1368Z" class="road"></path><path d="M684,228L684,228L696,228L696,240L684,240Z" class="cp1"></path><path d="M684,1140L684,1140L696,1140L696,1152L684,1152Z" class="cp2"></path><path d="M492,492L492,492L504,492L504,504L492,504Z" class="cp3"></path><path d="M684,420L684,420L696,420L696,432L684,432Z" class="cp4"></path><path d="M876,492L876,492L888,492L888,504L876,504Z" class="cp5"></path><path d="M876,876L876,876L888,876L888,888L876,888Z" class="cp6"></path><path d="M684,948L684,948L696,948L696,960L684,960Z" class="cp7"></path><path d="M492,876L492,876L504,876L504,888L492,888Z" class="cp8"></path><path d="M0,0L0,0L12,0L12,144L0,144Z" class="parc"></path><path d="M672,12L672,12L708,12L708,24L672,24L672,12M12,672L12,672L24,672L24,708L12,708L12,672M1356,672L1356,672L1368,672L1368,708L1356,708L1356,672M672,1356L672,1356L708,1356L708,1368L672,1368Z" class="start"></path><path d="M684,684L684,684L696,684L696,696L684,696Z" class="finish"></path></g>
 <rect opacity=".3" fill="url(#grid)" height="100%" width="100%" y="0" x="0"></rect>
</svg>