<svg height="864" width="864" id="mapSvgView" xmlns:xlink="http://www.w3.org/1999/xlink" version="1.1" xmlns="http://www.w3.org/2000/svg"> <defs> <style type="text/css"> .grass {fill: rgb(0, 200, 0);} .road {fill: rgb(128, 128, 128);} .start {fill: url(#startPattern)} .finish {fill: url(#finishPattern)} .mud {fill: rgb(100, 70, 0);} .sand {fill: rgb(230, 230, 115);} .water {fill: blue;} .earth {fill: brown;} .night {fill: black;} .parc {fill: rgb(200, 200, 200);} .cp1color {fill: rgb(0, 102, 255);} .cp2color {fill: rgb(0, 100, 200);} .cp3color {fill: rgb(0, 255, 102);} .cp4color {fill: rgb(0, 200, 0);} .cp5color {fill: rgb(255, 255, 0);} .cp6color {fill: rgb(200, 200, 0);} .cp7color {fill: rgb(255, 0, 0);} .cp8color {fill: rgb(200, 0, 0);} .cp9color {fill: rgb(255, 0, 255);} .cp1 {fill: url(#cp1pattern);} .cp2 {fill: url(#cp2pattern);} .cp3 {fill: url(#cp3pattern);} .cp4 {fill: url(#cp4pattern);} .cp5 {fill: url(#cp5pattern);} .cp6 {fill: url(#cp6pattern);} .cp7 {fill: url(#cp7pattern);} .cp8 {fill: url(#cp8pattern);} .cp9 {fill: url(#cp9pattern);} .primaryColor {fill: rgb(0, 255, 102);} </style> <pattern y="0" x="0" height="12" width="12" patternUnits="userSpaceOnUse" id="grid"> <line stroke-width="1" stroke="black" y2="12" x2="12" y1="0" x1="12"></line> <line stroke-width="1" stroke="black" y2="12" x2="12" y1="12" x1="0"></line> </pattern> <pattern y="0" x="0" height="12" width="12" patternUnits="userSpaceOnUse" id="finishPattern"> <rect fill="black" height="12" width="12" y="0" x="0"></rect> <path fill="white" d="M0,0L3,0L3,3L0,3L0,0M6,0L9,0L9,3L6,3L6,0M3,3L6,3L6,6L3,6L3,3M9,3L12,3L12,6L9,6L9,3"></path> <path fill="white" d="M0,6L3,6L3,9L0,9L0,6M6,6L9,6L9,9L6,9L6,6M3,9L6,9L6,12L3,12L3,9M9,9L12,9L12,12L9,12L9,9"></path> </pattern> <pattern y="0" x="0" height="12" width="12" patternUnits="userSpaceOnUse" id="startPattern"> <rect fill="rgb(100,100,100)" height="12" width="12" y="0" x="0"></rect> <rect stroke-width="1" stroke="rgb(200,200,200)" fill="none" height="5" width="5" y="3.5" x="3.5"></rect> &gt; </pattern> <pattern y="0" x="0" height="12" width="12" patternUnits="userSpaceOnUse" id="cp1pattern"> <rect class="cp1color" height="12" width="12" y="0" x="0"></rect> <path fill="black" d="M0,0L3,0L3,3L0,3L0,0M6,0L9,0L9,3L6,3L6,0M3,3L6,3L6,6L3,6L3,3M9,3L12,3L12,6L9,6L9,3"></path> <path fill="black" d="M0,6L3,6L3,9L0,9L0,6M6,6L9,6L9,9L6,9L6,6M3,9L6,9L6,12L3,12L3,9M9,9L12,9L12,12L9,12L9,9"></path> </pattern> <pattern y="0" x="0" height="12" width="12" patternUnits="userSpaceOnUse" id="cp2pattern"> <rect class="cp2color" height="12" width="12" y="0" x="0"></rect> <path fill="white" d="M0,0L3,0L3,3L0,3L0,0M6,0L9,0L9,3L6,3L6,0M3,3L6,3L6,6L3,6L3,3M9,3L12,3L12,6L9,6L9,3"></path> <path fill="white" d="M0,6L3,6L3,9L0,9L0,6M6,6L9,6L9,9L6,9L6,6M3,9L6,9L6,12L3,12L3,9M9,9L12,9L12,12L9,12L9,9"></path> </pattern> <pattern y="0" x="0" height="12" width="12" patternUnits="userSpaceOnUse" id="cp3pattern"> <rect class="cp3color" height="12" width="12" y="0" x="0"></rect> <path fill="black" d="M0,0L3,0L3,3L0,3L0,0M6,0L9,0L9,3L6,3L6,0M3,3L6,3L6,6L3,6L3,3M9,3L12,3L12,6L9,6L9,3"></path> <path fill="black" d="M0,6L3,6L3,9L0,9L0,6M6,6L9,6L9,9L6,9L6,6M3,9L6,9L6,12L3,12L3,9M9,9L12,9L12,12L9,12L9,9"></path> </pattern> <pattern y="0" x="0" height="12" width="12" patternUnits="userSpaceOnUse" id="cp4pattern"> <rect class="cp4color" height="12" width="12" y="0" x="0"></rect> <path fill="white" d="M0,0L3,0L3,3L0,3L0,0M6,0L9,0L9,3L6,3L6,0M3,3L6,3L6,6L3,6L3,3M9,3L12,3L12,6L9,6L9,3"></path> <path fill="white" d="M0,6L3,6L3,9L0,9L0,6M6,6L9,6L9,9L6,9L6,6M3,9L6,9L6,12L3,12L3,9M9,9L12,9L12,12L9,12L9,9"></path> </pattern> <pattern y="0" x="0" height="12" width="12" patternUnits="userSpaceOnUse" id="cp5pattern"> <rect class="cp5color" height="12" width="12" y="0" x="0"></rect> <path fill="black" d="M0,0L3,0L3,3L0,3L0,0M6,0L9,0L9,3L6,3L6,0M3,3L6,3L6,6L3,6L3,3M9,3L12,3L12,6L9,6L9,3"></path> <path fill="black" d="M0,6L3,6L3,9L0,9L0,6M6,6L9,6L9,9L6,9L6,6M3,9L6,9L6,12L3,12L3,9M9,9L12,9L12,12L9,12L9,9"></path> </pattern> <pattern y="0" x="0" height="12" width="12" patternUnits="userSpaceOnUse" id="cp6pattern"> <rect class="cp6color" height="12" width="12" y="0" x="0"></rect> <path fill="white" d="M0,0L3,0L3,3L0,3L0,0M6,0L9,0L9,3L6,3L6,0M3,3L6,3L6,6L3,6L3,3M9,3L12,3L12,6L9,6L9,3"></path> <path fill="white" d="M0,6L3,6L3,9L0,9L0,6M6,6L9,6L9,9L6,9L6,6M3,9L6,9L6,12L3,12L3,9M9,9L12,9L12,12L9,12L9,9"></path> </pattern> <pattern y="0" x="0" height="12" width="12" patternUnits="userSpaceOnUse" id="cp7pattern"> <rect class="cp7color" height="12" width="12" y="0" x="0"></rect> <path fill="black" d="M0,0L3,0L3,3L0,3L0,0M6,0L9,0L9,3L6,3L6,0M3,3L6,3L6,6L3,6L3,3M9,3L12,3L12,6L9,6L9,3"></path> <path fill="black" d="M0,6L3,6L3,9L0,9L0,6M6,6L9,6L9,9L6,9L6,6M3,9L6,9L6,12L3,12L3,9M9,9L12,9L12,12L9,12L9,9"></path> </pattern> <pattern y="0" x="0" height="12" width="12" patternUnits="userSpaceOnUse" id="cp8pattern"> <rect class="cp8color" height="12" width="12" y="0" x="0"></rect> <path fill="white" d="M0,0L3,0L3,3L0,3L0,0M6,0L9,0L9,3L6,3L6,0M3,3L6,3L6,6L3,6L3,3M9,3L12,3L12,6L9,6L9,3"></path> <path fill="white" d="M0,6L3,6L3,9L0,9L0,6M6,6L9,6L9,9L6,9L6,6M3,9L6,9L6,12L3,12L3,9M9,9L12,9L12,12L9,12L9,9"></path> </pattern> <pattern y="0" x="0" height="12" width="12" patternUnits="userSpaceOnUse" id="cp9pattern"> <rect class="cp9color" height="12" width="12" y="0" x="0"></rect> <path fill="black" d="M0,0L3,0L3,3L0,3L0,0M6,0L9,0L9,3L6,3L6,0M3,3L6,3L6,6L3,6L3,3M9,3L12,3L12,6L9,6L9,3"></path> <path fill="black" d="M0,6L3,6L3,9L0,9L0,6M6,6L9,6L9,9L6,9L6,6M3,9L6,9L6,12L3,12L3,9M9,9L12,9L12,12L9,12L9,9"></path> </pattern> </defs> <rect height="100%" width="100%" y="0" x="0" class="night" id="mainfill"></rect> <g id="paths"><path class="cp1" d="M36,792L36,792L72,792L72,828L36,828Z"></path><path class="cp2" d="M792,36L792,36L828,36L828,72L792,72Z"></path><path class="cp3" d="M792,468L792,468L828,468L828,504L792,504Z"></path><path class="cp4" d="M468,252L468,252L504,252L504,288L468,288Z"></path><path class="cp5" d="M792,576L792,576L828,576L828,612L792,612Z"></path><path class="parc" d="M0,0L0,0L864,0L864,864L0,864L0,0M24,12L24,12L12,12L12,96L36,96L36,120L12,120L12,204L36,204L36,228L12,228L12,312L36,312L36,336L12,336L12,420L36,420L36,444L12,444L12,528L36,528L36,552L12,552L12,636L36,636L36,660L12,660L12,744L36,744L36,768L12,768L12,852L96,852L96,828L120,828L120,852L204,852L204,828L228,828L228,852L312,852L312,828L336,828L336,852L420,852L420,828L444,828L444,852L528,852L528,828L552,828L552,852L636,852L636,828L660,828L660,852L744,852L744,828L768,828L768,852L852,852L852,768L828,768L828,744L852,744L852,660L828,660L828,636L852,636L852,552L828,552L828,528L852,528L852,444L828,444L828,420L852,420L852,336L828,336L828,312L852,312L852,228L828,228L828,204L852,204L852,120L828,120L828,96L852,96L852,12L768,12L768,36L744,36L744,12L660,12L660,36L636,36L636,12L552,12L552,36L528,36L528,12L444,12L444,36L420,36L420,12L336,12L336,36L312,36L312,12L228,12L228,36L204,36L204,12L120,12L120,36L96,36L96,12L24,12M96,72L96,72L120,72L120,96L144,96L144,120L120,120L120,144L96,144L96,120L72,120L72,96L96,96L96,72M204,72L204,72L228,72L228,96L252,96L252,120L228,120L228,144L204,144L204,120L180,120L180,96L204,96L204,72M312,72L312,72L336,72L336,96L360,96L360,120L336,120L336,144L312,144L312,120L288,120L288,96L312,96L312,72M420,72L420,72L444,72L444,96L468,96L468,120L444,120L444,144L420,144L420,120L396,120L396,96L420,96L420,72M528,72L528,72L552,72L552,96L576,96L576,120L552,120L552,144L528,144L528,120L504,120L504,96L528,96L528,72M636,72L636,72L660,72L660,96L684,96L684,120L660,120L660,144L636,144L636,120L612,120L612,96L636,96L636,72M744,72L744,72L768,72L768,96L792,96L792,120L768,120L768,144L744,144L744,120L720,120L720,96L744,96L744,72M96,180L96,180L120,180L120,204L144,204L144,228L120,228L120,252L96,252L96,228L72,228L72,204L96,204L96,180M204,180L204,180L228,180L228,204L252,204L252,228L228,228L228,252L204,252L204,228L180,228L180,204L204,204L204,180M312,180L312,180L336,180L336,204L360,204L360,228L336,228L336,252L312,252L312,228L288,228L288,204L312,204L312,180M420,180L420,180L444,180L444,204L468,204L468,228L444,228L444,252L420,252L420,228L396,228L396,204L420,204L420,180M528,180L528,180L552,180L552,204L576,204L576,228L552,228L552,252L528,252L528,228L504,228L504,204L528,204L528,180M636,180L636,180L660,180L660,204L684,204L684,228L660,228L660,252L636,252L636,228L612,228L612,204L636,204L636,180M744,180L744,180L768,180L768,204L792,204L792,228L768,228L768,252L744,252L744,228L720,228L720,204L744,204L744,180M96,288L96,288L120,288L120,312L144,312L144,336L120,336L120,360L96,360L96,336L72,336L72,312L96,312L96,288M204,288L204,288L228,288L228,312L252,312L252,336L228,336L228,360L204,360L204,336L180,336L180,312L204,312L204,288M312,288L312,288L336,288L336,312L360,312L360,324L396,324L396,312L420,312L420,288L444,288L444,312L468,312L468,324L504,324L504,312L528,312L528,288L552,288L552,312L576,312L576,336L552,336L552,360L540,360L540,396L552,396L552,420L576,420L576,444L552,444L552,468L540,468L540,504L552,504L552,528L576,528L576,552L552,552L552,576L528,576L528,552L504,552L504,540L468,540L468,552L444,552L444,576L420,576L420,552L396,552L396,540L360,540L360,552L336,552L336,576L312,576L312,552L288,552L288,528L312,528L312,504L324,504L324,468L312,468L312,444L288,444L288,420L312,420L312,396L324,396L324,360L312,360L312,336L288,336L288,312L312,312L312,288M636,288L636,288L660,288L660,312L684,312L684,336L660,336L660,360L636,360L636,336L612,336L612,312L636,312L636,288M744,288L744,288L768,288L768,312L792,312L792,336L768,336L768,360L744,360L744,336L720,336L720,312L744,312L744,288M360,348L360,348L348,348L348,516L516,516L516,348L360,348M96,396L96,396L120,396L120,420L144,420L144,444L120,444L120,468L96,468L96,444L72,444L72,420L96,420L96,396M204,396L204,396L228,396L228,420L252,420L252,444L228,444L228,468L204,468L204,444L180,444L180,420L204,420L204,396M396,396L396,396L468,396L468,408L480,408L480,432L504,432L504,444L480,444L480,480L468,480L468,492L456,492L456,504L444,504L444,492L420,492L420,504L408,504L408,492L396,492L396,480L384,480L384,444L360,444L360,432L384,432L384,408L396,408L396,396M636,396L636,396L660,396L660,420L684,420L684,444L660,444L660,468L636,468L636,444L612,444L612,420L636,420L636,396M744,396L744,396L768,396L768,420L792,420L792,444L768,444L768,468L744,468L744,444L720,444L720,420L744,420L744,396M408,444L408,444L396,444L396,456L408,456L408,444M468,444L468,444L456,444L456,456L468,456L468,444M96,504L96,504L120,504L120,528L144,528L144,552L120,552L120,576L96,576L96,552L72,552L72,528L96,528L96,504M204,504L204,504L228,504L228,528L252,528L252,552L228,552L228,576L204,576L204,552L180,552L180,528L204,528L204,504M636,504L636,504L660,504L660,528L684,528L684,552L660,552L660,576L636,576L636,552L612,552L612,528L636,528L636,504M744,504L744,504L768,504L768,528L792,528L792,552L768,552L768,576L744,576L744,552L720,552L720,528L744,528L744,504M96,612L96,612L120,612L120,636L144,636L144,660L120,660L120,684L96,684L96,660L72,660L72,636L96,636L96,612M204,612L204,612L228,612L228,636L252,636L252,660L228,660L228,684L204,684L204,660L180,660L180,636L204,636L204,612M312,612L312,612L336,612L336,636L360,636L360,660L336,660L336,684L312,684L312,660L288,660L288,636L312,636L312,612M420,612L420,612L444,612L444,636L468,636L468,660L444,660L444,684L420,684L420,660L396,660L396,636L420,636L420,612M528,612L528,612L552,612L552,636L576,636L576,660L552,660L552,684L528,684L528,660L504,660L504,636L528,636L528,612M636,612L636,612L660,612L660,636L684,636L684,660L660,660L660,684L636,684L636,660L612,660L612,636L636,636L636,612M744,612L744,612L768,612L768,636L792,636L792,660L768,660L768,684L744,684L744,660L720,660L720,636L744,636L744,612M96,720L96,720L120,720L120,744L144,744L144,768L120,768L120,792L96,792L96,768L72,768L72,744L96,744L96,720M204,720L204,720L228,720L228,744L252,744L252,768L228,768L228,792L204,792L204,768L180,768L180,744L204,744L204,720M312,720L312,720L336,720L336,744L360,744L360,768L336,768L336,792L312,792L312,768L288,768L288,744L312,744L312,720M420,720L420,720L444,720L444,744L468,744L468,768L444,768L444,792L420,792L420,768L396,768L396,744L420,744L420,720M528,720L528,720L552,720L552,744L576,744L576,768L552,768L552,792L528,792L528,768L504,768L504,744L528,744L528,720M636,720L636,720L660,720L660,744L684,744L684,768L660,768L660,792L636,792L636,768L612,768L612,744L636,744L636,720M744,720L744,720L768,720L768,744L792,744L792,768L768,768L768,792L744,792L744,768L720,768L720,744L744,744Z"></path><path class="start" d="M60,12L60,12L72,12L72,24L60,24L60,12M72,24L72,24L84,24L84,12L96,12L96,24L84,24L84,36L72,36L72,24M60,24L60,24L60,36L48,36L48,24L60,24M60,36L60,36L72,36L72,48L60,48L60,36M48,36L48,36L48,48L36,48L36,36L48,36M48,48L48,48L60,48L60,60L48,60L48,48M36,48L36,48L36,60L24,60L24,48L36,48M36,60L36,60L48,60L48,72L36,72L36,60M24,60L24,60L24,72L12,72L12,60L24,60M24,72L24,72L36,72L36,84L24,84L24,72M24,84L24,84L24,96L12,96L12,84Z"></path><path class="finish" d="M384,348L384,348L396,348L396,360L384,360L384,348M384,360L384,360L384,372L372,372L372,360L384,360M468,348L468,348L480,348L480,360L468,360L468,348M480,360L480,360L492,360L492,372L480,372L480,360M372,372L372,372L372,396L396,396L396,408L384,408L384,420L372,420L372,408L360,408L360,372L372,372M492,372L492,372L504,372L504,408L492,408L492,420L480,420L480,408L468,408L468,396L492,396L492,372M420,492L420,492L444,492L444,504L420,504L420,492M792,792L792,792L828,792L828,828L792,828Z"></path></g> <rect opacity=".3" fill="url(#grid)" height="100%" width="100%" y="0" x="0"></rect></svg>