<svg height="576" width="576" id="mapSvgView" xmlns:xlink="http://www.w3.org/1999/xlink" version="1.1" xmlns="http://www.w3.org/2000/svg"> <defs> <style type="text/css"> .grass {fill: rgb(0, 200, 0);} .road {fill: rgb(128, 128, 128);} .start {fill: url(#startPattern)} .finish {fill: url(#finishPattern)} .mud {fill: rgb(100, 70, 0);} .sand {fill: rgb(230, 230, 115);} .water {fill: blue;} .earth {fill: brown;} .night {fill: black;} .parc {fill: rgb(200, 200, 200);} .cp1color {fill: rgb(0, 102, 255);} .cp2color {fill: rgb(0, 100, 200);} .cp3color {fill: rgb(0, 255, 102);} .cp4color {fill: rgb(0, 200, 0);} .cp5color {fill: rgb(255, 255, 0);} .cp6color {fill: rgb(200, 200, 0);} .cp7color {fill: rgb(255, 0, 0);} .cp8color {fill: rgb(200, 0, 0);} .cp9color {fill: rgb(255, 0, 255);} .cp1 {fill: url(#cp1pattern);} .cp2 {fill: url(#cp2pattern);} .cp3 {fill: url(#cp3pattern);} .cp4 {fill: url(#cp4pattern);} .cp5 {fill: url(#cp5pattern);} .cp6 {fill: url(#cp6pattern);} .cp7 {fill: url(#cp7pattern);} .cp8 {fill: url(#cp8pattern);} .cp9 {fill: url(#cp9pattern);} .primaryColor {fill: rgb(0, 255, 102);} </style> <pattern y="0" x="0" height="12" width="12" patternUnits="userSpaceOnUse" id="grid"> <line stroke-width="1" stroke="black" y2="12" x2="12" y1="0" x1="12"></line> <line stroke-width="1" stroke="black" y2="12" x2="12" y1="12" x1="0"></line> </pattern> <pattern y="0" x="0" height="12" width="12" patternUnits="userSpaceOnUse" id="finishPattern"> <rect fill="black" height="12" width="12" y="0" x="0"></rect> <path fill="white" d="M0,0L3,0L3,3L0,3L0,0M6,0L9,0L9,3L6,3L6,0M3,3L6,3L6,6L3,6L3,3M9,3L12,3L12,6L9,6L9,3"></path> <path fill="white" d="M0,6L3,6L3,9L0,9L0,6M6,6L9,6L9,9L6,9L6,6M3,9L6,9L6,12L3,12L3,9M9,9L12,9L12,12L9,12L9,9"></path> </pattern> <pattern y="0" x="0" height="12" width="12" patternUnits="userSpaceOnUse" id="startPattern"> <rect fill="rgb(100,100,100)" height="12" width="12" y="0" x="0"></rect> <rect stroke-width="1" stroke="rgb(200,200,200)" fill="none" height="5" width="5" y="3.5" x="3.5"></rect> &gt; </pattern> <pattern y="0" x="0" height="12" width="12" patternUnits="userSpaceOnUse" id="cp1pattern"> <rect class="cp1color" height="12" width="12" y="0" x="0"></rect> <path fill="black" d="M0,0L3,0L3,3L0,3L0,0M6,0L9,0L9,3L6,3L6,0M3,3L6,3L6,6L3,6L3,3M9,3L12,3L12,6L9,6L9,3"></path> <path fill="black" d="M0,6L3,6L3,9L0,9L0,6M6,6L9,6L9,9L6,9L6,6M3,9L6,9L6,12L3,12L3,9M9,9L12,9L12,12L9,12L9,9"></path> </pattern> <pattern y="0" x="0" height="12" width="12" patternUnits="userSpaceOnUse" id="cp2pattern"> <rect class="cp2color" height="12" width="12" y="0" x="0"></rect> <path fill="white" d="M0,0L3,0L3,3L0,3L0,0M6,0L9,0L9,3L6,3L6,0M3,3L6,3L6,6L3,6L3,3M9,3L12,3L12,6L9,6L9,3"></path> <path fill="white" d="M0,6L3,6L3,9L0,9L0,6M6,6L9,6L9,9L6,9L6,6M3,9L6,9L6,12L3,12L3,9M9,9L12,9L12,12L9,12L9,9"></path> </pattern> <pattern y="0" x="0" height="12" width="12" patternUnits="userSpaceOnUse" id="cp3pattern"> <rect class="cp3color" height="12" width="12" y="0" x="0"></rect> <path fill="black" d="M0,0L3,0L3,3L0,3L0,0M6,0L9,0L9,3L6,3L6,0M3,3L6,3L6,6L3,6L3,3M9,3L12,3L12,6L9,6L9,3"></path> <path fill="black" d="M0,6L3,6L3,9L0,9L0,6M6,6L9,6L9,9L6,9L6,6M3,9L6,9L6,12L3,12L3,9M9,9L12,9L12,12L9,12L9,9"></path> </pattern> <pattern y="0" x="0" height="12" width="12" patternUnits="userSpaceOnUse" id="cp4pattern"> <rect class="cp4color" height="12" width="12" y="0" x="0"></rect> <path fill="white" d="M0,0L3,0L3,3L0,3L0,0M6,0L9,0L9,3L6,3L6,0M3,3L6,3L6,6L3,6L3,3M9,3L12,3L12,6L9,6L9,3"></path> <path fill="white" d="M0,6L3,6L3,9L0,9L0,6M6,6L9,6L9,9L6,9L6,6M3,9L6,9L6,12L3,12L3,9M9,9L12,9L12,12L9,12L9,9"></path> </pattern> <pattern y="0" x="0" height="12" width="12" patternUnits="userSpaceOnUse" id="cp5pattern"> <rect class="cp5color" height="12" width="12" y="0" x="0"></rect> <path fill="black" d="M0,0L3,0L3,3L0,3L0,0M6,0L9,0L9,3L6,3L6,0M3,3L6,3L6,6L3,6L3,3M9,3L12,3L12,6L9,6L9,3"></path> <path fill="black" d="M0,6L3,6L3,9L0,9L0,6M6,6L9,6L9,9L6,9L6,6M3,9L6,9L6,12L3,12L3,9M9,9L12,9L12,12L9,12L9,9"></path> </pattern> <pattern y="0" x="0" height="12" width="12" patternUnits="userSpaceOnUse" id="cp6pattern"> <rect class="cp6color" height="12" width="12" y="0" x="0"></rect> <path fill="white" d="M0,0L3,0L3,3L0,3L0,0M6,0L9,0L9,3L6,3L6,0M3,3L6,3L6,6L3,6L3,3M9,3L12,3L12,6L9,6L9,3"></path> <path fill="white" d="M0,6L3,6L3,9L0,9L0,6M6,6L9,6L9,9L6,9L6,6M3,9L6,9L6,12L3,12L3,9M9,9L12,9L12,12L9,12L9,9"></path> </pattern> <pattern y="0" x="0" height="12" width="12" patternUnits="userSpaceOnUse" id="cp7pattern"> <rect class="cp7color" height="12" width="12" y="0" x="0"></rect> <path fill="black" d="M0,0L3,0L3,3L0,3L0,0M6,0L9,0L9,3L6,3L6,0M3,3L6,3L6,6L3,6L3,3M9,3L12,3L12,6L9,6L9,3"></path> <path fill="black" d="M0,6L3,6L3,9L0,9L0,6M6,6L9,6L9,9L6,9L6,6M3,9L6,9L6,12L3,12L3,9M9,9L12,9L12,12L9,12L9,9"></path> </pattern> <pattern y="0" x="0" height="12" width="12" patternUnits="userSpaceOnUse" id="cp8pattern"> <rect class="cp8color" height="12" width="12" y="0" x="0"></rect> <path fill="white" d="M0,0L3,0L3,3L0,3L0,0M6,0L9,0L9,3L6,3L6,0M3,3L6,3L6,6L3,6L3,3M9,3L12,3L12,6L9,6L9,3"></path> <path fill="white" d="M0,6L3,6L3,9L0,9L0,6M6,6L9,6L9,9L6,9L6,6M3,9L6,9L6,12L3,12L3,9M9,9L12,9L12,12L9,12L9,9"></path> </pattern> <pattern y="0" x="0" height="12" width="12" patternUnits="userSpaceOnUse" id="cp9pattern"> <rect class="cp9color" height="12" width="12" y="0" x="0"></rect> <path fill="black" d="M0,0L3,0L3,3L0,3L0,0M6,0L9,0L9,3L6,3L6,0M3,3L6,3L6,6L3,6L3,3M9,3L12,3L12,6L9,6L9,3"></path> <path fill="black" d="M0,6L3,6L3,9L0,9L0,6M6,6L9,6L9,9L6,9L6,6M3,9L6,9L6,12L3,12L3,9M9,9L12,9L12,12L9,12L9,9"></path> </pattern> </defs> <rect height="100%" width="100%" y="0" x="0" class="grass" id="mainfill"></rect> <g id="paths"><path class="parc" d="M0,0L0,0L12,0L12,84L0,84Z"></path><path class="road" d="M336,12L336,12L372,12L372,24L396,24L396,36L408,36L408,48L420,48L420,60L432,60L432,72L444,72L444,84L456,84L456,96L468,96L468,108L480,108L480,180L468,180L468,204L456,204L456,216L432,216L432,228L384,228L384,240L360,240L360,252L432,252L432,240L456,240L456,228L468,228L468,216L480,216L480,204L540,204L540,216L552,216L552,252L564,252L564,300L552,300L552,312L540,312L540,324L528,324L528,336L516,336L516,348L504,348L504,360L492,360L492,372L480,372L480,384L444,384L444,372L420,372L420,360L408,360L408,348L396,348L396,336L384,336L384,324L372,324L372,312L360,312L360,288L384,288L384,276L372,276L372,264L348,264L348,252L336,252L336,228L348,228L348,216L360,216L360,192L372,192L372,180L384,180L384,168L396,168L396,156L408,156L408,144L384,144L384,156L372,156L372,168L360,168L360,180L348,180L348,144L336,144L336,168L324,168L324,192L312,192L312,180L300,180L300,216L288,216L288,204L276,204L276,180L264,180L264,144L252,144L252,180L240,180L240,168L228,168L228,156L216,156L216,168L228,168L228,192L240,192L240,204L252,204L252,216L216,216L216,204L204,204L204,216L216,216L216,228L240,228L240,252L192,252L192,240L168,240L168,228L156,228L156,216L144,216L144,204L132,204L132,156L120,156L120,108L132,108L132,72L144,72L144,60L156,60L156,48L180,48L180,60L204,60L204,72L240,72L240,84L252,84L252,96L264,96L264,108L276,108L276,120L288,120L288,132L300,132L300,48L312,48L312,36L324,36L324,24L336,24L336,12M144,216L144,216L144,228L156,228L156,240L168,240L168,252L192,252L192,264L228,264L228,276L216,276L216,288L168,288L168,300L204,300L204,312L192,312L192,324L180,324L180,336L216,336L216,324L240,324L240,312L264,312L264,336L276,336L276,396L264,396L264,432L276,432L276,408L288,408L288,384L300,384L300,348L312,348L312,336L324,336L324,348L336,348L336,360L348,360L348,372L360,372L360,492L348,492L348,528L336,528L336,540L324,540L324,552L300,552L300,540L288,540L288,528L276,528L276,516L264,516L264,504L252,504L252,492L240,492L240,468L228,468L228,444L216,444L216,396L228,396L228,384L240,384L240,348L228,348L228,360L216,360L216,372L204,372L204,384L192,384L192,396L180,396L180,408L156,408L156,420L120,420L120,408L84,408L84,396L72,396L72,384L48,384L48,372L24,372L24,360L12,360L12,348L24,348L24,336L36,336L36,324L48,324L48,312L60,312L60,288L72,288L72,264L84,264L84,252L96,252L96,240L108,240L108,228L120,228L120,216L144,216M288,240L288,240L300,240L300,252L312,252L312,264L300,264L300,276L276,276L276,252L288,252L288,240M540,324L540,324L552,324L552,336L540,336L540,324M252,336L252,336L240,336L240,348L252,348L252,336M528,336L528,336L540,336L540,348L528,348L528,336M516,348L516,348L528,348L528,360L516,360L516,348M504,360L504,360L516,360L516,372L504,372L504,360M492,372L492,372L504,372L504,384L492,384L492,372M312,384L312,384L300,384L300,420L312,420L312,384M384,408L384,408L456,408L456,552L408,552L408,540L432,540L432,528L444,528L444,420L408,420L408,432L396,432L396,444L384,444L384,408M480,408L480,408L552,408L552,444L540,444L540,432L528,432L528,420L492,420L492,528L504,528L504,540L528,540L528,552L480,552Z"></path><path class="start" d="M552,300L552,300L564,300L564,312L552,312L552,300M552,312L552,312L552,324L540,324L540,312L552,312M540,324L540,324L540,336L528,336L528,324L540,324M528,336L528,336L528,348L516,348L516,336L528,336M516,348L516,348L516,360L504,360L504,348L516,348M504,360L504,360L504,372L492,372L492,360L504,360M492,372L492,372L492,384L480,384L480,372Z"></path><path class="finish" d="M288,312L288,312L312,312L312,348L300,348L300,360L288,360Z"></path></g> <rect opacity=".3" fill="url(#grid)" height="100%" width="100%" y="0" x="0"></rect></svg>