<svg height="576" width="696" id="mapSvgView" xmlns:xlink="http://www.w3.org/1999/xlink" version="1.1" xmlns="http://www.w3.org/2000/svg"> <defs> <style type="text/css"> .grass {fill: rgb(0, 200, 0);} .road {fill: rgb(128, 128, 128);} .start {fill: url(#startPattern)} .finish {fill: url(#finishPattern)} .mud {fill: rgb(100, 70, 0);} .sand {fill: rgb(230, 230, 115);} .water {fill: blue;} .earth {fill: brown;} .night {fill: black;} .parc {fill: rgb(200, 200, 200);} .cp1color {fill: rgb(0, 102, 255);} .cp2color {fill: rgb(0, 100, 200);} .cp3color {fill: rgb(0, 255, 102);} .cp4color {fill: rgb(0, 200, 0);} .cp5color {fill: rgb(255, 255, 0);} .cp6color {fill: rgb(200, 200, 0);} .cp7color {fill: rgb(255, 0, 0);} .cp8color {fill: rgb(200, 0, 0);} .cp9color {fill: rgb(255, 0, 255);} .cp1 {fill: url(#cp1pattern);} .cp2 {fill: url(#cp2pattern);} .cp3 {fill: url(#cp3pattern);} .cp4 {fill: url(#cp4pattern);} .cp5 {fill: url(#cp5pattern);} .cp6 {fill: url(#cp6pattern);} .cp7 {fill: url(#cp7pattern);} .cp8 {fill: url(#cp8pattern);} .cp9 {fill: url(#cp9pattern);} .primaryColor {fill: rgb(0, 255, 102);} </style> <pattern y="0" x="0" height="12" width="12" patternUnits="userSpaceOnUse" id="grid"> <line stroke-width="1" stroke="black" y2="12" x2="12" y1="0" x1="12"></line> <line stroke-width="1" stroke="black" y2="12" x2="12" y1="12" x1="0"></line> </pattern> <pattern y="0" x="0" height="12" width="12" patternUnits="userSpaceOnUse" id="finishPattern"> <rect fill="black" height="12" width="12" y="0" x="0"></rect> <path fill="white" d="M0,0L3,0L3,3L0,3L0,0M6,0L9,0L9,3L6,3L6,0M3,3L6,3L6,6L3,6L3,3M9,3L12,3L12,6L9,6L9,3"></path> <path fill="white" d="M0,6L3,6L3,9L0,9L0,6M6,6L9,6L9,9L6,9L6,6M3,9L6,9L6,12L3,12L3,9M9,9L12,9L12,12L9,12L9,9"></path> </pattern> <pattern y="0" x="0" height="12" width="12" patternUnits="userSpaceOnUse" id="startPattern"> <rect fill="rgb(100,100,100)" height="12" width="12" y="0" x="0"></rect> <rect stroke-width="1" stroke="rgb(200,200,200)" fill="none" height="5" width="5" y="3.5" x="3.5"></rect> &gt; </pattern> <pattern y="0" x="0" height="12" width="12" patternUnits="userSpaceOnUse" id="cp1pattern"> <rect class="cp1color" height="12" width="12" y="0" x="0"></rect> <path fill="black" d="M0,0L3,0L3,3L0,3L0,0M6,0L9,0L9,3L6,3L6,0M3,3L6,3L6,6L3,6L3,3M9,3L12,3L12,6L9,6L9,3"></path> <path fill="black" d="M0,6L3,6L3,9L0,9L0,6M6,6L9,6L9,9L6,9L6,6M3,9L6,9L6,12L3,12L3,9M9,9L12,9L12,12L9,12L9,9"></path> </pattern> <pattern y="0" x="0" height="12" width="12" patternUnits="userSpaceOnUse" id="cp2pattern"> <rect class="cp2color" height="12" width="12" y="0" x="0"></rect> <path fill="white" d="M0,0L3,0L3,3L0,3L0,0M6,0L9,0L9,3L6,3L6,0M3,3L6,3L6,6L3,6L3,3M9,3L12,3L12,6L9,6L9,3"></path> <path fill="white" d="M0,6L3,6L3,9L0,9L0,6M6,6L9,6L9,9L6,9L6,6M3,9L6,9L6,12L3,12L3,9M9,9L12,9L12,12L9,12L9,9"></path> </pattern> <pattern y="0" x="0" height="12" width="12" patternUnits="userSpaceOnUse" id="cp3pattern"> <rect class="cp3color" height="12" width="12" y="0" x="0"></rect> <path fill="black" d="M0,0L3,0L3,3L0,3L0,0M6,0L9,0L9,3L6,3L6,0M3,3L6,3L6,6L3,6L3,3M9,3L12,3L12,6L9,6L9,3"></path> <path fill="black" d="M0,6L3,6L3,9L0,9L0,6M6,6L9,6L9,9L6,9L6,6M3,9L6,9L6,12L3,12L3,9M9,9L12,9L12,12L9,12L9,9"></path> </pattern> <pattern y="0" x="0" height="12" width="12" patternUnits="userSpaceOnUse" id="cp4pattern"> <rect class="cp4color" height="12" width="12" y="0" x="0"></rect> <path fill="white" d="M0,0L3,0L3,3L0,3L0,0M6,0L9,0L9,3L6,3L6,0M3,3L6,3L6,6L3,6L3,3M9,3L12,3L12,6L9,6L9,3"></path> <path fill="white" d="M0,6L3,6L3,9L0,9L0,6M6,6L9,6L9,9L6,9L6,6M3,9L6,9L6,12L3,12L3,9M9,9L12,9L12,12L9,12L9,9"></path> </pattern> <pattern y="0" x="0" height="12" width="12" patternUnits="userSpaceOnUse" id="cp5pattern"> <rect class="cp5color" height="12" width="12" y="0" x="0"></rect> <path fill="black" d="M0,0L3,0L3,3L0,3L0,0M6,0L9,0L9,3L6,3L6,0M3,3L6,3L6,6L3,6L3,3M9,3L12,3L12,6L9,6L9,3"></path> <path fill="black" d="M0,6L3,6L3,9L0,9L0,6M6,6L9,6L9,9L6,9L6,6M3,9L6,9L6,12L3,12L3,9M9,9L12,9L12,12L9,12L9,9"></path> </pattern> <pattern y="0" x="0" height="12" width="12" patternUnits="userSpaceOnUse" id="cp6pattern"> <rect class="cp6color" height="12" width="12" y="0" x="0"></rect> <path fill="white" d="M0,0L3,0L3,3L0,3L0,0M6,0L9,0L9,3L6,3L6,0M3,3L6,3L6,6L3,6L3,3M9,3L12,3L12,6L9,6L9,3"></path> <path fill="white" d="M0,6L3,6L3,9L0,9L0,6M6,6L9,6L9,9L6,9L6,6M3,9L6,9L6,12L3,12L3,9M9,9L12,9L12,12L9,12L9,9"></path> </pattern> <pattern y="0" x="0" height="12" width="12" patternUnits="userSpaceOnUse" id="cp7pattern"> <rect class="cp7color" height="12" width="12" y="0" x="0"></rect> <path fill="black" d="M0,0L3,0L3,3L0,3L0,0M6,0L9,0L9,3L6,3L6,0M3,3L6,3L6,6L3,6L3,3M9,3L12,3L12,6L9,6L9,3"></path> <path fill="black" d="M0,6L3,6L3,9L0,9L0,6M6,6L9,6L9,9L6,9L6,6M3,9L6,9L6,12L3,12L3,9M9,9L12,9L12,12L9,12L9,9"></path> </pattern> <pattern y="0" x="0" height="12" width="12" patternUnits="userSpaceOnUse" id="cp8pattern"> <rect class="cp8color" height="12" width="12" y="0" x="0"></rect> <path fill="white" d="M0,0L3,0L3,3L0,3L0,0M6,0L9,0L9,3L6,3L6,0M3,3L6,3L6,6L3,6L3,3M9,3L12,3L12,6L9,6L9,3"></path> <path fill="white" d="M0,6L3,6L3,9L0,9L0,6M6,6L9,6L9,9L6,9L6,6M3,9L6,9L6,12L3,12L3,9M9,9L12,9L12,12L9,12L9,9"></path> </pattern> <pattern y="0" x="0" height="12" width="12" patternUnits="userSpaceOnUse" id="cp9pattern"> <rect class="cp9color" height="12" width="12" y="0" x="0"></rect> <path fill="black" d="M0,0L3,0L3,3L0,3L0,0M6,0L9,0L9,3L6,3L6,0M3,3L6,3L6,6L3,6L3,3M9,3L12,3L12,6L9,6L9,3"></path> <path fill="black" d="M0,6L3,6L3,9L0,9L0,6M6,6L9,6L9,9L6,9L6,6M3,9L6,9L6,12L3,12L3,9M9,9L12,9L12,12L9,12L9,9"></path> </pattern> </defs> <rect height="100%" width="100%" y="0" x="0" class="grass" id="mainfill"></rect> <g id="paths"><path class="parc" d="M0,0L0,0L12,0L12,96L0,96Z"></path><path class="road" d="M240,12L240,12L276,12L276,24L336,24L336,48L324,48L324,60L336,60L336,48L348,48L348,36L360,36L360,48L372,48L372,60L384,60L384,72L396,72L396,108L384,108L384,132L372,132L372,144L324,144L324,132L312,132L312,120L240,120L240,180L252,180L252,192L300,192L300,204L312,204L312,264L300,264L300,276L288,276L288,288L252,288L252,300L228,300L228,288L144,288L144,300L132,300L132,336L144,336L144,384L192,384L192,372L168,372L168,348L180,348L180,336L168,336L168,300L228,300L228,348L240,348L240,384L252,384L252,396L228,396L228,420L216,420L216,432L192,432L192,456L216,456L216,480L180,480L180,492L168,492L168,456L180,456L180,444L168,444L168,420L180,420L180,408L144,408L144,456L132,456L132,420L120,420L120,372L96,372L96,396L72,396L72,420L96,420L96,432L108,432L108,456L132,456L132,492L144,492L144,504L180,504L180,492L228,492L228,480L240,480L240,432L252,432L252,408L264,408L264,420L276,420L276,432L288,432L288,444L312,444L312,456L348,456L348,468L384,468L384,456L420,456L420,444L444,444L444,432L456,432L456,408L468,408L468,372L480,372L480,384L504,384L504,372L516,372L516,360L456,360L456,348L408,348L408,360L396,360L396,372L384,372L384,384L372,384L372,396L336,396L336,384L324,384L324,360L312,360L312,312L324,312L324,276L336,276L336,264L348,264L348,252L360,252L360,240L372,240L372,228L396,228L396,216L420,216L420,204L444,204L444,192L468,192L468,180L492,180L492,168L516,168L516,144L480,144L480,132L468,132L468,96L480,96L480,84L492,84L492,72L516,72L516,60L624,60L624,72L648,72L648,84L660,84L660,96L672,96L672,120L684,120L684,192L672,192L672,216L660,216L660,228L648,228L648,240L636,240L636,252L624,252L624,264L612,264L612,276L588,276L588,252L540,252L540,240L588,240L588,228L636,228L636,204L648,204L648,192L660,192L660,180L636,180L636,168L624,168L624,180L600,180L600,192L588,192L588,204L576,204L576,228L540,228L540,216L504,216L504,228L492,228L492,252L420,252L420,264L408,264L408,288L396,288L396,300L384,300L384,312L408,312L408,324L420,324L420,312L444,312L444,300L456,300L456,288L468,288L468,264L492,264L492,312L504,312L504,324L552,324L552,336L588,336L588,312L564,312L564,300L552,300L552,276L528,276L528,300L504,300L504,252L540,252L540,264L576,264L576,300L588,300L588,312L600,312L600,324L612,324L612,336L624,336L624,372L636,372L636,384L624,384L624,432L612,432L612,444L600,444L600,468L588,468L588,480L576,480L576,492L564,492L564,504L540,504L540,516L516,516L516,528L492,528L492,540L468,540L468,552L420,552L420,564L228,564L228,552L180,552L180,540L156,540L156,528L132,528L132,516L108,516L108,504L96,504L96,492L84,492L84,480L72,480L72,468L60,468L60,456L48,456L48,444L36,444L36,420L24,420L24,372L12,372L12,336L24,336L24,300L36,300L36,276L48,276L48,264L60,264L60,252L84,252L84,240L96,240L96,216L84,216L84,192L72,192L72,120L84,120L84,96L96,96L96,84L108,84L108,72L120,72L120,60L132,60L132,48L156,48L156,36L180,36L180,24L240,24L240,12M204,48L204,48L192,48L192,60L180,60L180,72L216,72L216,60L228,60L228,48L204,48M348,60L348,60L336,60L336,72L324,72L324,84L336,84L336,72L348,72L348,60M192,84L192,84L180,84L180,96L216,96L216,84L192,84M348,84L348,84L336,84L336,96L324,96L324,108L336,108L336,96L348,96L348,84M204,108L204,108L192,108L192,120L180,120L180,132L216,132L216,120L228,120L228,108L204,108M348,108L348,108L336,108L336,120L324,120L324,132L336,132L336,120L348,120L348,108M108,132L108,132L96,132L96,144L108,144L108,132M120,144L120,144L108,144L108,156L120,156L120,144M132,156L132,156L120,156L120,168L132,168L132,156M144,168L144,168L132,168L132,204L144,204L144,168M216,180L216,180L204,180L204,204L180,204L180,228L204,228L204,240L216,240L216,264L240,264L240,228L228,228L228,180L216,180M156,204L156,204L144,204L144,228L132,228L132,252L120,252L120,264L108,264L108,276L120,276L120,264L132,264L132,252L144,252L144,228L156,228L156,204M72,312L72,312L60,312L60,336L48,336L48,348L24,348L24,372L60,372L60,360L108,360L108,336L84,336L84,312L72,312M528,372L528,372L516,372L516,384L504,384L504,396L516,396L516,420L540,420L540,396L576,396L576,384L564,384L564,372L528,372M192,396L192,396L180,396L180,408L192,408L192,396M576,408L576,408L564,408L564,444L528,444L528,432L516,432L516,444L492,444L492,420L480,420L480,468L528,468L528,480L564,480L564,468L576,468L576,408M300,480L300,480L288,480L288,492L252,492L252,504L228,504L228,516L204,516L204,528L192,528L192,540L204,540L204,528L228,528L228,516L252,516L252,504L288,504L288,492L324,492L324,480L300,480M336,492L336,492L324,492L324,504L396,504L396,492L336,492M408,504L408,504L396,504L396,516L456,516L456,504L408,504M468,516L468,516L456,516L456,528L480,528L480,516Z"></path><path class="start" d="M336,36L336,36L348,36L348,48L336,48L336,36M336,48L336,48L336,60L324,60L324,48L336,48M336,60L336,60L348,60L348,72L336,72L336,60M336,72L336,72L336,84L324,84L324,72L336,72M336,84L336,84L348,84L348,96L336,96L336,84M336,96L336,96L336,108L324,108L324,96L336,96M336,108L336,108L348,108L348,120L336,120L336,108M336,120L336,120L336,132L324,132L324,120Z"></path><path class="finish" d="M468,132L468,132L480,132L480,144L468,144Z"></path></g> <rect opacity=".3" fill="url(#grid)" height="100%" width="100%" y="0" x="0"></rect></svg>