<svg height="600" width="432" id="mapSvgView" xmlns:xlink="http://www.w3.org/1999/xlink" version="1.1" xmlns="http://www.w3.org/2000/svg"> <defs> <style type="text/css"> .grass {fill: rgb(0, 200, 0);} .road {fill: rgb(128, 128, 128);} .start {fill: url(#startPattern)} .finish {fill: url(#finishPattern)} .mud {fill: rgb(100, 70, 0);} .sand {fill: rgb(230, 230, 115);} .water {fill: blue;} .earth {fill: brown;} .night {fill: black;} .parc {fill: rgb(200, 200, 200);} .cp1color {fill: rgb(0, 102, 255);} .cp2color {fill: rgb(0, 100, 200);} .cp3color {fill: rgb(0, 255, 102);} .cp4color {fill: rgb(0, 200, 0);} .cp5color {fill: rgb(255, 255, 0);} .cp6color {fill: rgb(200, 200, 0);} .cp7color {fill: rgb(255, 0, 0);} .cp8color {fill: rgb(200, 0, 0);} .cp9color {fill: rgb(255, 0, 255);} .cp1 {fill: url(#cp1pattern);} .cp2 {fill: url(#cp2pattern);} .cp3 {fill: url(#cp3pattern);} .cp4 {fill: url(#cp4pattern);} .cp5 {fill: url(#cp5pattern);} .cp6 {fill: url(#cp6pattern);} .cp7 {fill: url(#cp7pattern);} .cp8 {fill: url(#cp8pattern);} .cp9 {fill: url(#cp9pattern);} .primaryColor {fill: rgb(0, 255, 102);} </style> <pattern y="0" x="0" height="12" width="12" patternUnits="userSpaceOnUse" id="grid"> <line stroke-width="1" stroke="black" y2="12" x2="12" y1="0" x1="12"></line> <line stroke-width="1" stroke="black" y2="12" x2="12" y1="12" x1="0"></line> </pattern> <pattern y="0" x="0" height="12" width="12" patternUnits="userSpaceOnUse" id="finishPattern"> <rect fill="black" height="12" width="12" y="0" x="0"></rect> <path fill="white" d="M0,0L3,0L3,3L0,3L0,0M6,0L9,0L9,3L6,3L6,0M3,3L6,3L6,6L3,6L3,3M9,3L12,3L12,6L9,6L9,3"></path> <path fill="white" d="M0,6L3,6L3,9L0,9L0,6M6,6L9,6L9,9L6,9L6,6M3,9L6,9L6,12L3,12L3,9M9,9L12,9L12,12L9,12L9,9"></path> </pattern> <pattern y="0" x="0" height="12" width="12" patternUnits="userSpaceOnUse" id="startPattern"> <rect fill="rgb(100,100,100)" height="12" width="12" y="0" x="0"></rect> <rect stroke-width="1" stroke="rgb(200,200,200)" fill="none" height="5" width="5" y="3.5" x="3.5"></rect> &gt; </pattern> <pattern y="0" x="0" height="12" width="12" patternUnits="userSpaceOnUse" id="cp1pattern"> <rect class="cp1color" height="12" width="12" y="0" x="0"></rect> <path fill="black" d="M0,0L3,0L3,3L0,3L0,0M6,0L9,0L9,3L6,3L6,0M3,3L6,3L6,6L3,6L3,3M9,3L12,3L12,6L9,6L9,3"></path> <path fill="black" d="M0,6L3,6L3,9L0,9L0,6M6,6L9,6L9,9L6,9L6,6M3,9L6,9L6,12L3,12L3,9M9,9L12,9L12,12L9,12L9,9"></path> </pattern> <pattern y="0" x="0" height="12" width="12" patternUnits="userSpaceOnUse" id="cp2pattern"> <rect class="cp2color" height="12" width="12" y="0" x="0"></rect> <path fill="white" d="M0,0L3,0L3,3L0,3L0,0M6,0L9,0L9,3L6,3L6,0M3,3L6,3L6,6L3,6L3,3M9,3L12,3L12,6L9,6L9,3"></path> <path fill="white" d="M0,6L3,6L3,9L0,9L0,6M6,6L9,6L9,9L6,9L6,6M3,9L6,9L6,12L3,12L3,9M9,9L12,9L12,12L9,12L9,9"></path> </pattern> <pattern y="0" x="0" height="12" width="12" patternUnits="userSpaceOnUse" id="cp3pattern"> <rect class="cp3color" height="12" width="12" y="0" x="0"></rect> <path fill="black" d="M0,0L3,0L3,3L0,3L0,0M6,0L9,0L9,3L6,3L6,0M3,3L6,3L6,6L3,6L3,3M9,3L12,3L12,6L9,6L9,3"></path> <path fill="black" d="M0,6L3,6L3,9L0,9L0,6M6,6L9,6L9,9L6,9L6,6M3,9L6,9L6,12L3,12L3,9M9,9L12,9L12,12L9,12L9,9"></path> </pattern> <pattern y="0" x="0" height="12" width="12" patternUnits="userSpaceOnUse" id="cp4pattern"> <rect class="cp4color" height="12" width="12" y="0" x="0"></rect> <path fill="white" d="M0,0L3,0L3,3L0,3L0,0M6,0L9,0L9,3L6,3L6,0M3,3L6,3L6,6L3,6L3,3M9,3L12,3L12,6L9,6L9,3"></path> <path fill="white" d="M0,6L3,6L3,9L0,9L0,6M6,6L9,6L9,9L6,9L6,6M3,9L6,9L6,12L3,12L3,9M9,9L12,9L12,12L9,12L9,9"></path> </pattern> <pattern y="0" x="0" height="12" width="12" patternUnits="userSpaceOnUse" id="cp5pattern"> <rect class="cp5color" height="12" width="12" y="0" x="0"></rect> <path fill="black" d="M0,0L3,0L3,3L0,3L0,0M6,0L9,0L9,3L6,3L6,0M3,3L6,3L6,6L3,6L3,3M9,3L12,3L12,6L9,6L9,3"></path> <path fill="black" d="M0,6L3,6L3,9L0,9L0,6M6,6L9,6L9,9L6,9L6,6M3,9L6,9L6,12L3,12L3,9M9,9L12,9L12,12L9,12L9,9"></path> </pattern> <pattern y="0" x="0" height="12" width="12" patternUnits="userSpaceOnUse" id="cp6pattern"> <rect class="cp6color" height="12" width="12" y="0" x="0"></rect> <path fill="white" d="M0,0L3,0L3,3L0,3L0,0M6,0L9,0L9,3L6,3L6,0M3,3L6,3L6,6L3,6L3,3M9,3L12,3L12,6L9,6L9,3"></path> <path fill="white" d="M0,6L3,6L3,9L0,9L0,6M6,6L9,6L9,9L6,9L6,6M3,9L6,9L6,12L3,12L3,9M9,9L12,9L12,12L9,12L9,9"></path> </pattern> <pattern y="0" x="0" height="12" width="12" patternUnits="userSpaceOnUse" id="cp7pattern"> <rect class="cp7color" height="12" width="12" y="0" x="0"></rect> <path fill="black" d="M0,0L3,0L3,3L0,3L0,0M6,0L9,0L9,3L6,3L6,0M3,3L6,3L6,6L3,6L3,3M9,3L12,3L12,6L9,6L9,3"></path> <path fill="black" d="M0,6L3,6L3,9L0,9L0,6M6,6L9,6L9,9L6,9L6,6M3,9L6,9L6,12L3,12L3,9M9,9L12,9L12,12L9,12L9,9"></path> </pattern> <pattern y="0" x="0" height="12" width="12" patternUnits="userSpaceOnUse" id="cp8pattern"> <rect class="cp8color" height="12" width="12" y="0" x="0"></rect> <path fill="white" d="M0,0L3,0L3,3L0,3L0,0M6,0L9,0L9,3L6,3L6,0M3,3L6,3L6,6L3,6L3,3M9,3L12,3L12,6L9,6L9,3"></path> <path fill="white" d="M0,6L3,6L3,9L0,9L0,6M6,6L9,6L9,9L6,9L6,6M3,9L6,9L6,12L3,12L3,9M9,9L12,9L12,12L9,12L9,9"></path> </pattern> <pattern y="0" x="0" height="12" width="12" patternUnits="userSpaceOnUse" id="cp9pattern"> <rect class="cp9color" height="12" width="12" y="0" x="0"></rect> <path fill="black" d="M0,0L3,0L3,3L0,3L0,0M6,0L9,0L9,3L6,3L6,0M3,3L6,3L6,6L3,6L3,3M9,3L12,3L12,6L9,6L9,3"></path> <path fill="black" d="M0,6L3,6L3,9L0,9L0,6M6,6L9,6L9,9L6,9L6,6M3,9L6,9L6,12L3,12L3,9M9,9L12,9L12,12L9,12L9,9"></path> </pattern> </defs> <rect height="100%" width="100%" y="0" x="0" class="road" id="mainfill"></rect> <g id="paths"><path class="cp1" d="M204,12L204,12L228,12L228,24L240,24L240,48L228,48L228,60L204,60L204,48L192,48L192,24L204,24Z"></path><path class="cp2" d="M312,468L312,468L336,468L336,504L312,504Z"></path><path class="parc" d="M0,0L0,0L12,0L12,72L0,72Z"></path><path class="grass" d="M12,0L12,0L432,0L432,600L0,600L0,72L12,72L12,0M216,12L216,12L204,12L204,24L192,24L192,36L180,36L180,48L168,48L168,60L156,60L156,72L144,72L144,84L132,84L132,96L120,96L120,108L108,108L108,120L96,120L96,132L84,132L84,144L72,144L72,156L60,156L60,168L48,168L48,180L36,180L36,192L24,192L24,588L96,588L96,300L108,300L108,312L120,312L120,324L132,324L132,336L144,336L144,348L156,348L156,360L168,360L168,372L180,372L180,384L192,384L192,372L204,372L204,360L216,360L216,348L204,348L204,336L192,336L192,324L180,324L180,312L168,312L168,300L156,300L156,288L144,288L144,276L300,276L300,288L288,288L288,300L276,300L276,312L264,312L264,324L252,324L252,336L240,336L240,348L228,348L228,360L216,360L216,372L204,372L204,384L192,384L192,396L168,396L168,408L156,408L156,420L144,420L144,432L132,432L132,444L120,444L120,456L108,456L108,588L408,588L408,516L144,516L144,492L156,492L156,480L168,480L168,468L180,468L180,456L192,456L192,444L204,444L204,432L216,432L216,420L204,420L204,408L192,408L192,396L204,396L204,384L216,384L216,372L228,372L228,360L240,360L240,372L228,372L228,384L216,384L216,396L204,396L204,408L216,408L216,396L228,396L228,384L240,384L240,372L252,372L252,384L240,384L240,396L228,396L228,408L216,408L216,420L228,420L228,408L240,408L240,396L252,396L252,384L264,384L264,372L276,372L276,360L288,360L288,348L300,348L300,336L312,336L312,324L324,324L324,312L336,312L336,468L324,468L324,456L312,456L312,444L300,444L300,432L288,432L288,420L276,420L276,408L264,408L264,396L252,396L252,408L240,408L240,420L228,420L228,432L240,432L240,444L252,444L252,456L264,456L264,468L276,468L276,480L288,480L288,492L300,492L300,504L408,504L408,348L384,348L384,336L372,336L372,324L396,324L396,336L408,336L408,192L396,192L396,180L384,180L384,168L372,168L372,156L360,156L360,144L348,144L348,132L336,132L336,120L324,120L324,108L312,108L312,96L300,96L300,84L288,84L288,72L276,72L276,60L264,60L264,48L252,48L252,36L240,36L240,24L228,24L228,12L216,12M372,12L372,12L360,12L360,24L348,24L348,72L360,72L360,48L372,48L372,96L396,96L396,84L384,84L384,72L396,72L396,60L384,60L384,48L396,48L396,36L384,36L384,24L372,24L372,12M360,24L360,24L372,24L372,36L360,36L360,24M408,48L408,48L396,48L396,60L408,60L408,48M408,72L408,72L396,72L396,84L408,84L408,72M204,96L204,96L228,96L228,108L240,108L240,120L252,120L252,108L276,108L276,120L252,120L252,132L264,132L264,144L276,144L276,156L288,156L288,168L300,168L300,180L312,180L312,192L324,192L324,204L108,204L108,192L120,192L120,180L132,180L132,168L144,168L144,156L156,156L156,144L168,144L168,132L180,132L180,120L192,120L192,108L204,108L204,96M108,120L108,120L132,120L132,132L108,132L108,120M360,156L360,156L360,168L336,168L336,156L360,156M108,204L108,204L108,216L96,216L96,228L108,228L108,240L96,240L96,252L72,252L72,240L84,240L84,228L72,228L72,216L84,216L84,204L108,204M312,228L312,228L336,228L336,240L348,240L348,252L360,252L360,264L336,264L336,252L300,252L300,240L312,240L312,228M60,360L60,360L84,360L84,372L72,372L72,384L48,384L48,372L60,372Z"></path><path class="finish" d="M396,516L396,516L408,516L408,588L396,588Z"></path><path class="start" d="M24,576L24,576L96,576L96,588L24,588Z"></path></g> <rect opacity=".3" fill="url(#grid)" height="100%" width="100%" y="0" x="0"></rect></svg>