<svg height="744" width="744" id="mapSvgView" xmlns:xlink="http://www.w3.org/1999/xlink" version="1.1" xmlns="http://www.w3.org/2000/svg"> <defs> <style type="text/css"> .grass {fill: rgb(0, 200, 0);} .road {fill: rgb(128, 128, 128);} .start {fill: url(#startPattern)} .finish {fill: url(#finishPattern)} .mud {fill: rgb(100, 70, 0);} .sand {fill: rgb(230, 230, 115);} .water {fill: blue;} .earth {fill: brown;} .night {fill: black;} .parc {fill: rgb(200, 200, 200);} .cp1color {fill: rgb(0, 102, 255);} .cp2color {fill: rgb(0, 100, 200);} .cp3color {fill: rgb(0, 255, 102);} .cp4color {fill: rgb(0, 200, 0);} .cp5color {fill: rgb(255, 255, 0);} .cp6color {fill: rgb(200, 200, 0);} .cp7color {fill: rgb(255, 0, 0);} .cp8color {fill: rgb(200, 0, 0);} .cp9color {fill: rgb(255, 0, 255);} .cp1 {fill: url(#cp1pattern);} .cp2 {fill: url(#cp2pattern);} .cp3 {fill: url(#cp3pattern);} .cp4 {fill: url(#cp4pattern);} .cp5 {fill: url(#cp5pattern);} .cp6 {fill: url(#cp6pattern);} .cp7 {fill: url(#cp7pattern);} .cp8 {fill: url(#cp8pattern);} .cp9 {fill: url(#cp9pattern);} .primaryColor {fill: rgb(0, 255, 102);} </style> <pattern y="0" x="0" height="12" width="12" patternUnits="userSpaceOnUse" id="grid"> <line stroke-width="1" stroke="black" y2="12" x2="12" y1="0" x1="12"></line> <line stroke-width="1" stroke="black" y2="12" x2="12" y1="12" x1="0"></line> </pattern> <pattern y="0" x="0" height="12" width="12" patternUnits="userSpaceOnUse" id="finishPattern"> <rect fill="black" height="12" width="12" y="0" x="0"></rect> <path fill="white" d="M0,0L3,0L3,3L0,3L0,0M6,0L9,0L9,3L6,3L6,0M3,3L6,3L6,6L3,6L3,3M9,3L12,3L12,6L9,6L9,3"></path> <path fill="white" d="M0,6L3,6L3,9L0,9L0,6M6,6L9,6L9,9L6,9L6,6M3,9L6,9L6,12L3,12L3,9M9,9L12,9L12,12L9,12L9,9"></path> </pattern> <pattern y="0" x="0" height="12" width="12" patternUnits="userSpaceOnUse" id="startPattern"> <rect fill="rgb(100,100,100)" height="12" width="12" y="0" x="0"></rect> <rect stroke-width="1" stroke="rgb(200,200,200)" fill="none" height="5" width="5" y="3.5" x="3.5"></rect> &gt; </pattern> <pattern y="0" x="0" height="12" width="12" patternUnits="userSpaceOnUse" id="cp1pattern"> <rect class="cp1color" height="12" width="12" y="0" x="0"></rect> <path fill="black" d="M0,0L3,0L3,3L0,3L0,0M6,0L9,0L9,3L6,3L6,0M3,3L6,3L6,6L3,6L3,3M9,3L12,3L12,6L9,6L9,3"></path> <path fill="black" d="M0,6L3,6L3,9L0,9L0,6M6,6L9,6L9,9L6,9L6,6M3,9L6,9L6,12L3,12L3,9M9,9L12,9L12,12L9,12L9,9"></path> </pattern> <pattern y="0" x="0" height="12" width="12" patternUnits="userSpaceOnUse" id="cp2pattern"> <rect class="cp2color" height="12" width="12" y="0" x="0"></rect> <path fill="white" d="M0,0L3,0L3,3L0,3L0,0M6,0L9,0L9,3L6,3L6,0M3,3L6,3L6,6L3,6L3,3M9,3L12,3L12,6L9,6L9,3"></path> <path fill="white" d="M0,6L3,6L3,9L0,9L0,6M6,6L9,6L9,9L6,9L6,6M3,9L6,9L6,12L3,12L3,9M9,9L12,9L12,12L9,12L9,9"></path> </pattern> <pattern y="0" x="0" height="12" width="12" patternUnits="userSpaceOnUse" id="cp3pattern"> <rect class="cp3color" height="12" width="12" y="0" x="0"></rect> <path fill="black" d="M0,0L3,0L3,3L0,3L0,0M6,0L9,0L9,3L6,3L6,0M3,3L6,3L6,6L3,6L3,3M9,3L12,3L12,6L9,6L9,3"></path> <path fill="black" d="M0,6L3,6L3,9L0,9L0,6M6,6L9,6L9,9L6,9L6,6M3,9L6,9L6,12L3,12L3,9M9,9L12,9L12,12L9,12L9,9"></path> </pattern> <pattern y="0" x="0" height="12" width="12" patternUnits="userSpaceOnUse" id="cp4pattern"> <rect class="cp4color" height="12" width="12" y="0" x="0"></rect> <path fill="white" d="M0,0L3,0L3,3L0,3L0,0M6,0L9,0L9,3L6,3L6,0M3,3L6,3L6,6L3,6L3,3M9,3L12,3L12,6L9,6L9,3"></path> <path fill="white" d="M0,6L3,6L3,9L0,9L0,6M6,6L9,6L9,9L6,9L6,6M3,9L6,9L6,12L3,12L3,9M9,9L12,9L12,12L9,12L9,9"></path> </pattern> <pattern y="0" x="0" height="12" width="12" patternUnits="userSpaceOnUse" id="cp5pattern"> <rect class="cp5color" height="12" width="12" y="0" x="0"></rect> <path fill="black" d="M0,0L3,0L3,3L0,3L0,0M6,0L9,0L9,3L6,3L6,0M3,3L6,3L6,6L3,6L3,3M9,3L12,3L12,6L9,6L9,3"></path> <path fill="black" d="M0,6L3,6L3,9L0,9L0,6M6,6L9,6L9,9L6,9L6,6M3,9L6,9L6,12L3,12L3,9M9,9L12,9L12,12L9,12L9,9"></path> </pattern> <pattern y="0" x="0" height="12" width="12" patternUnits="userSpaceOnUse" id="cp6pattern"> <rect class="cp6color" height="12" width="12" y="0" x="0"></rect> <path fill="white" d="M0,0L3,0L3,3L0,3L0,0M6,0L9,0L9,3L6,3L6,0M3,3L6,3L6,6L3,6L3,3M9,3L12,3L12,6L9,6L9,3"></path> <path fill="white" d="M0,6L3,6L3,9L0,9L0,6M6,6L9,6L9,9L6,9L6,6M3,9L6,9L6,12L3,12L3,9M9,9L12,9L12,12L9,12L9,9"></path> </pattern> <pattern y="0" x="0" height="12" width="12" patternUnits="userSpaceOnUse" id="cp7pattern"> <rect class="cp7color" height="12" width="12" y="0" x="0"></rect> <path fill="black" d="M0,0L3,0L3,3L0,3L0,0M6,0L9,0L9,3L6,3L6,0M3,3L6,3L6,6L3,6L3,3M9,3L12,3L12,6L9,6L9,3"></path> <path fill="black" d="M0,6L3,6L3,9L0,9L0,6M6,6L9,6L9,9L6,9L6,6M3,9L6,9L6,12L3,12L3,9M9,9L12,9L12,12L9,12L9,9"></path> </pattern> <pattern y="0" x="0" height="12" width="12" patternUnits="userSpaceOnUse" id="cp8pattern"> <rect class="cp8color" height="12" width="12" y="0" x="0"></rect> <path fill="white" d="M0,0L3,0L3,3L0,3L0,0M6,0L9,0L9,3L6,3L6,0M3,3L6,3L6,6L3,6L3,3M9,3L12,3L12,6L9,6L9,3"></path> <path fill="white" d="M0,6L3,6L3,9L0,9L0,6M6,6L9,6L9,9L6,9L6,6M3,9L6,9L6,12L3,12L3,9M9,9L12,9L12,12L9,12L9,9"></path> </pattern> <pattern y="0" x="0" height="12" width="12" patternUnits="userSpaceOnUse" id="cp9pattern"> <rect class="cp9color" height="12" width="12" y="0" x="0"></rect> <path fill="black" d="M0,0L3,0L3,3L0,3L0,0M6,0L9,0L9,3L6,3L6,0M3,3L6,3L6,6L3,6L3,3M9,3L12,3L12,6L9,6L9,3"></path> <path fill="black" d="M0,6L3,6L3,9L0,9L0,6M6,6L9,6L9,9L6,9L6,6M3,9L6,9L6,12L3,12L3,9M9,9L12,9L12,12L9,12L9,9"></path> </pattern> </defs> <rect height="100%" width="100%" y="0" x="0" class="road" id="mainfill"></rect> <g id="paths"><path class="parc" d="M0,0L0,0L12,0L12,96L0,96Z"></path><path class="sand" d="M12,0L12,0L360,0L360,12L336,12L336,24L300,24L300,36L276,36L276,24L264,24L264,36L228,36L228,48L204,48L204,60L180,60L180,72L168,72L168,84L144,84L144,96L132,96L132,108L120,108L120,120L108,120L108,132L96,132L96,144L84,144L84,168L72,168L72,180L60,180L60,204L48,204L48,228L36,228L36,264L24,264L24,312L12,312L12,432L24,432L24,480L36,480L36,516L48,516L48,540L60,540L60,564L72,564L72,576L84,576L84,600L96,600L96,612L108,612L108,624L120,624L120,636L132,636L132,648L144,648L144,660L168,660L168,672L180,672L180,684L204,684L204,696L228,696L228,708L264,708L264,720L408,720L408,708L444,708L444,696L468,696L468,684L480,684L480,672L492,672L492,660L504,660L504,648L516,648L516,624L528,624L528,600L516,600L516,588L504,588L504,576L492,576L492,504L480,504L480,480L468,480L468,468L456,468L456,456L444,456L444,444L408,444L408,432L372,432L372,444L360,444L360,456L324,456L324,468L300,468L300,480L288,480L288,492L276,492L276,504L264,504L264,528L252,528L252,540L240,540L240,564L228,564L228,612L216,612L216,636L240,636L240,648L252,648L252,660L276,660L276,672L336,672L336,684L384,684L384,672L420,672L420,660L432,660L432,648L444,648L444,636L456,636L456,624L468,624L468,612L480,612L480,600L492,600L492,624L480,624L480,636L468,636L468,648L456,648L456,660L444,660L444,672L432,672L432,684L408,684L408,696L300,696L300,684L252,684L252,672L240,672L240,660L216,660L216,648L204,648L204,636L180,636L180,624L168,624L168,612L156,612L156,600L144,600L144,588L132,588L132,576L120,576L120,564L108,564L108,552L96,552L96,528L84,528L84,516L72,516L72,492L60,492L60,456L48,456L48,288L60,288L60,252L72,252L72,228L84,228L84,216L96,216L96,192L108,192L108,180L120,180L120,168L132,168L132,192L120,192L120,204L108,204L108,228L96,228L96,240L84,240L84,276L72,276L72,312L60,312L60,432L72,432L72,468L84,468L84,504L96,504L96,516L108,516L108,540L120,540L120,552L132,552L132,564L144,564L144,576L156,576L156,588L168,588L168,600L180,600L180,612L204,612L204,588L216,588L216,540L228,540L228,528L240,528L240,504L252,504L252,492L264,492L264,480L276,480L276,468L288,468L288,456L312,456L312,444L348,444L348,432L360,432L360,420L420,420L420,432L456,432L456,444L468,444L468,456L480,456L480,468L492,468L492,492L504,492L504,564L516,564L516,576L528,576L528,588L540,588L540,624L528,624L528,648L516,648L516,660L504,660L504,672L492,672L492,684L480,684L480,696L468,696L468,708L444,708L444,720L408,720L408,732L372,732L372,744L0,744L0,96L12,96L12,0M264,36L264,36L276,36L276,48L264,48L264,36M264,48L264,48L264,60L252,60L252,48L264,48M252,60L252,60L252,72L240,72L240,60L252,60M240,72L240,72L240,84L228,84L228,72L240,72M228,84L228,84L228,96L216,96L216,84L228,84M216,96L216,96L216,120L204,120L204,96L216,96M204,120L204,120L204,156L192,156L192,120L204,120M156,180L156,180L168,180L168,204L156,204L156,180M192,228L192,228L204,228L204,264L192,264L192,228M132,240L132,240L156,240L156,252L132,252L132,240M204,264L204,264L216,264L216,288L204,288L204,264M216,288L216,288L228,288L228,300L216,300L216,288M96,288L96,288L120,288L120,300L96,300L96,288M228,300L228,300L240,300L240,312L228,312L228,300M132,300L132,300L144,300L144,324L132,324L132,300M240,312L240,312L252,312L252,324L240,324L240,312M180,312L180,312L204,312L204,324L180,324L180,312M180,324L180,324L180,348L168,348L168,324L180,324M204,324L204,324L228,324L228,336L204,336L204,324M252,324L252,324L264,324L264,336L252,336L252,324M264,336L264,336L276,336L276,348L264,348L264,336M168,348L168,348L168,360L144,360L144,348L168,348M276,348L276,348L300,348L300,360L276,360L276,348M72,348L72,348L96,348L96,360L72,360L72,348M96,360L96,360L120,360L120,372L96,372L96,360M300,360L300,360L336,360L336,372L300,372L300,360M180,360L180,360L204,360L204,372L180,372L180,360M336,372L336,372L408,372L408,384L348,384L348,396L312,396L312,408L264,408L264,420L240,420L240,432L228,432L228,444L216,444L216,456L204,456L204,480L192,480L192,492L180,492L180,504L156,504L156,492L168,492L168,480L180,480L180,456L192,456L192,444L204,444L204,432L216,432L216,420L228,420L228,408L240,408L240,396L300,396L300,384L336,384L336,372M408,384L408,384L444,384L444,396L408,396L408,384M444,396L444,396L468,396L468,408L444,408L444,396M168,396L168,396L180,396L180,420L168,420L168,396M468,408L468,408L480,408L480,420L468,420L468,408M108,408L108,408L120,408L120,432L108,432L108,408M480,420L480,420L492,420L492,432L480,432L480,420M144,420L144,420L156,420L156,444L144,444L144,420M492,432L492,432L504,432L504,444L492,444L492,432M144,444L144,444L144,468L132,468L132,444L144,444M504,444L504,444L516,444L516,456L504,456L504,444M516,456L516,456L528,456L528,480L516,480L516,456M420,468L420,468L444,468L444,528L432,528L432,564L420,564L420,576L396,576L396,600L384,600L384,612L348,612L348,624L288,624L288,600L300,600L300,612L336,612L336,600L372,600L372,588L384,588L384,564L408,564L408,552L420,552L420,516L432,516L432,480L420,480L420,468M528,480L528,480L540,480L540,516L528,516L528,480M360,492L360,492L408,492L408,504L372,504L372,516L360,516L360,540L336,540L336,552L324,552L324,588L312,588L312,540L324,540L324,528L348,528L348,504L360,504L360,492M384,528L384,528L396,528L396,540L384,540L384,528M348,564L348,564L360,564L360,576L348,576Z"></path><path class="mud" d="M360,0L360,0L744,0L744,744L372,744L372,732L408,732L408,720L444,720L444,708L468,708L468,696L480,696L480,684L492,684L492,672L504,672L504,660L516,660L516,648L528,648L528,624L540,624L540,588L552,588L552,624L540,624L540,648L528,648L528,660L516,660L516,672L504,672L504,684L492,684L492,696L480,696L480,708L468,708L468,720L480,720L480,708L516,708L516,696L540,696L540,684L564,684L564,672L576,672L576,660L600,660L600,648L612,648L612,636L624,636L624,624L636,624L636,612L648,612L648,600L660,600L660,576L672,576L672,564L684,564L684,540L696,540L696,516L708,516L708,480L720,480L720,432L732,432L732,312L720,312L720,264L708,264L708,228L696,228L696,204L684,204L684,180L672,180L672,168L660,168L660,144L648,144L648,132L636,132L636,120L624,120L624,108L612,108L612,96L600,96L600,84L576,84L576,72L564,72L564,60L540,60L540,48L516,48L516,36L480,36L480,24L336,24L336,12L360,12L360,0M336,24L336,24L336,36L300,36L300,24L336,24M300,36L300,36L300,48L276,48L276,36L300,36M276,48L276,48L276,60L264,60L264,48L276,48M264,60L264,60L264,72L252,72L252,60L264,60M336,48L336,48L444,48L444,60L492,60L492,72L504,72L504,84L528,84L528,96L540,96L540,108L564,108L564,120L576,120L576,132L588,132L588,144L600,144L600,156L612,156L612,168L624,168L624,180L636,180L636,192L648,192L648,216L660,216L660,228L672,228L672,252L684,252L684,288L696,288L696,456L684,456L684,492L672,492L672,516L660,516L660,528L648,528L648,552L636,552L636,564L624,564L624,576L612,576L612,552L624,552L624,540L636,540L636,516L648,516L648,504L660,504L660,468L672,468L672,432L684,432L684,312L672,312L672,276L660,276L660,240L648,240L648,228L636,228L636,204L624,204L624,192L612,192L612,180L600,180L600,168L588,168L588,156L576,156L576,144L564,144L564,132L540,132L540,156L528,156L528,204L516,204L516,216L504,216L504,240L492,240L492,252L480,252L480,264L468,264L468,276L456,276L456,288L432,288L432,300L396,300L396,312L384,312L384,324L324,324L324,312L288,312L288,300L276,300L276,288L264,288L264,276L252,276L252,252L240,252L240,180L228,180L228,168L216,168L216,156L204,156L204,120L216,120L216,96L228,96L228,84L240,84L240,72L252,72L252,84L240,84L240,96L228,96L228,120L216,120L216,144L228,144L228,156L240,156L240,168L252,168L252,240L264,240L264,264L276,264L276,276L288,276L288,288L300,288L300,300L336,300L336,312L372,312L372,300L384,300L384,288L420,288L420,276L444,276L444,264L456,264L456,252L468,252L468,240L480,240L480,216L492,216L492,204L504,204L504,180L516,180L516,132L528,132L528,108L504,108L504,96L492,96L492,84L468,84L468,72L408,72L408,60L360,60L360,72L324,72L324,84L312,84L312,96L300,96L300,108L288,108L288,120L276,120L276,132L264,132L264,144L252,144L252,120L264,120L264,108L276,108L276,96L288,96L288,84L300,84L300,72L312,72L312,60L336,60L336,48M396,120L396,120L456,120L456,144L444,144L444,132L408,132L408,144L372,144L372,156L360,156L360,180L336,180L336,192L324,192L324,228L312,228L312,264L324,264L324,276L300,276L300,216L312,216L312,180L324,180L324,168L348,168L348,144L360,144L360,132L396,132L396,120M420,156L420,156L432,156L432,204L420,204L420,216L396,216L396,240L384,240L384,252L336,252L336,240L372,240L372,228L384,228L384,204L408,204L408,192L420,192L420,156M384,168L384,168L396,168L396,180L384,180L384,168M348,204L348,204L360,204L360,216L348,216L348,204M204,228L204,228L216,228L216,264L204,264L204,228M564,240L564,240L588,240L588,252L576,252L576,264L564,264L564,288L552,288L552,300L540,300L540,312L528,312L528,324L516,324L516,336L504,336L504,348L444,348L444,360L408,360L408,372L336,372L336,360L300,360L300,348L276,348L276,336L264,336L264,324L252,324L252,312L240,312L240,300L228,300L228,288L216,288L216,264L228,264L228,288L240,288L240,300L252,300L252,312L264,312L264,324L276,324L276,336L300,336L300,348L336,348L336,360L396,360L396,348L432,348L432,336L480,336L480,324L504,324L504,312L516,312L516,300L528,300L528,288L540,288L540,264L552,264L552,252L564,252L564,240M600,276L600,276L612,276L612,300L600,300L600,276M600,300L600,300L600,324L588,324L588,300L600,300M624,312L624,312L636,312L636,336L624,336L624,312M564,324L564,324L576,324L576,348L564,348L564,324M408,372L408,372L444,372L444,384L408,384L408,372M444,384L444,384L468,384L468,396L444,396L444,384M540,372L540,372L564,372L564,384L540,384L540,372M624,372L624,372L648,372L648,384L624,384L624,372M648,384L648,384L672,384L672,396L648,396L648,384M468,396L468,396L480,396L480,408L468,408L468,396M576,384L576,384L600,384L600,396L576,396L576,384M576,396L576,396L576,420L564,420L564,396L576,396M480,408L480,408L492,408L492,420L480,420L480,408M492,420L492,420L504,420L504,432L492,432L492,420M516,408L516,408L540,408L540,420L516,420L516,408M540,420L540,420L564,420L564,432L540,432L540,420M504,432L504,432L516,432L516,444L504,444L504,432M600,420L600,420L612,420L612,444L600,444L600,420M516,444L516,444L528,444L528,456L516,456L516,444M528,456L528,456L540,456L540,480L528,480L528,456M624,444L624,444L648,444L648,456L624,456L624,444M540,480L540,480L552,480L552,516L540,516L540,480M588,492L588,492L612,492L612,504L588,504L588,492M576,540L576,540L588,540L588,564L576,564Z"></path><path class="start" d="M360,168L360,168L384,168L384,180L360,180L360,168M360,180L360,180L360,204L348,204L348,180L360,180M384,180L384,180L396,180L396,204L384,204L384,180M360,204L360,204L384,204L384,216L360,216Z"></path><path class="finish" d="M360,528L360,528L384,528L384,540L360,540L360,528M360,540L360,540L360,564L348,564L348,540L360,540M384,540L384,540L396,540L396,564L384,564L384,540M360,564L360,564L384,564L384,576L360,576Z"></path></g> <rect opacity=".3" fill="url(#grid)" height="100%" width="100%" y="0" x="0"></rect></svg>