<svg height="360" width="876" id="mapSvgView" xmlns:xlink="http://www.w3.org/1999/xlink" version="1.1" xmlns="http://www.w3.org/2000/svg"> <defs> <style type="text/css"> .grass {fill: rgb(0, 200, 0);} .road {fill: rgb(128, 128, 128);} .start {fill: url(#startPattern)} .finish {fill: url(#finishPattern)} .mud {fill: rgb(100, 70, 0);} .sand {fill: rgb(230, 230, 115);} .water {fill: blue;} .earth {fill: brown;} .night {fill: black;} .parc {fill: rgb(200, 200, 200);} .cp1color {fill: rgb(0, 102, 255);} .cp2color {fill: rgb(0, 100, 200);} .cp3color {fill: rgb(0, 255, 102);} .cp4color {fill: rgb(0, 200, 0);} .cp5color {fill: rgb(255, 255, 0);} .cp6color {fill: rgb(200, 200, 0);} .cp7color {fill: rgb(255, 0, 0);} .cp8color {fill: rgb(200, 0, 0);} .cp9color {fill: rgb(255, 0, 255);} .cp1 {fill: url(#cp1pattern);} .cp2 {fill: url(#cp2pattern);} .cp3 {fill: url(#cp3pattern);} .cp4 {fill: url(#cp4pattern);} .cp5 {fill: url(#cp5pattern);} .cp6 {fill: url(#cp6pattern);} .cp7 {fill: url(#cp7pattern);} .cp8 {fill: url(#cp8pattern);} .cp9 {fill: url(#cp9pattern);} .primaryColor {fill: rgb(0, 255, 102);} </style> <pattern y="0" x="0" height="12" width="12" patternUnits="userSpaceOnUse" id="grid"> <line stroke-width="1" stroke="black" y2="12" x2="12" y1="0" x1="12"></line> <line stroke-width="1" stroke="black" y2="12" x2="12" y1="12" x1="0"></line> </pattern> <pattern y="0" x="0" height="12" width="12" patternUnits="userSpaceOnUse" id="finishPattern"> <rect fill="black" height="12" width="12" y="0" x="0"></rect> <path fill="white" d="M0,0L3,0L3,3L0,3L0,0M6,0L9,0L9,3L6,3L6,0M3,3L6,3L6,6L3,6L3,3M9,3L12,3L12,6L9,6L9,3"></path> <path fill="white" d="M0,6L3,6L3,9L0,9L0,6M6,6L9,6L9,9L6,9L6,6M3,9L6,9L6,12L3,12L3,9M9,9L12,9L12,12L9,12L9,9"></path> </pattern> <pattern y="0" x="0" height="12" width="12" patternUnits="userSpaceOnUse" id="startPattern"> <rect fill="rgb(100,100,100)" height="12" width="12" y="0" x="0"></rect> <rect stroke-width="1" stroke="rgb(200,200,200)" fill="none" height="5" width="5" y="3.5" x="3.5"></rect> &gt; </pattern> <pattern y="0" x="0" height="12" width="12" patternUnits="userSpaceOnUse" id="cp1pattern"> <rect class="cp1color" height="12" width="12" y="0" x="0"></rect> <path fill="black" d="M0,0L3,0L3,3L0,3L0,0M6,0L9,0L9,3L6,3L6,0M3,3L6,3L6,6L3,6L3,3M9,3L12,3L12,6L9,6L9,3"></path> <path fill="black" d="M0,6L3,6L3,9L0,9L0,6M6,6L9,6L9,9L6,9L6,6M3,9L6,9L6,12L3,12L3,9M9,9L12,9L12,12L9,12L9,9"></path> </pattern> <pattern y="0" x="0" height="12" width="12" patternUnits="userSpaceOnUse" id="cp2pattern"> <rect class="cp2color" height="12" width="12" y="0" x="0"></rect> <path fill="white" d="M0,0L3,0L3,3L0,3L0,0M6,0L9,0L9,3L6,3L6,0M3,3L6,3L6,6L3,6L3,3M9,3L12,3L12,6L9,6L9,3"></path> <path fill="white" d="M0,6L3,6L3,9L0,9L0,6M6,6L9,6L9,9L6,9L6,6M3,9L6,9L6,12L3,12L3,9M9,9L12,9L12,12L9,12L9,9"></path> </pattern> <pattern y="0" x="0" height="12" width="12" patternUnits="userSpaceOnUse" id="cp3pattern"> <rect class="cp3color" height="12" width="12" y="0" x="0"></rect> <path fill="black" d="M0,0L3,0L3,3L0,3L0,0M6,0L9,0L9,3L6,3L6,0M3,3L6,3L6,6L3,6L3,3M9,3L12,3L12,6L9,6L9,3"></path> <path fill="black" d="M0,6L3,6L3,9L0,9L0,6M6,6L9,6L9,9L6,9L6,6M3,9L6,9L6,12L3,12L3,9M9,9L12,9L12,12L9,12L9,9"></path> </pattern> <pattern y="0" x="0" height="12" width="12" patternUnits="userSpaceOnUse" id="cp4pattern"> <rect class="cp4color" height="12" width="12" y="0" x="0"></rect> <path fill="white" d="M0,0L3,0L3,3L0,3L0,0M6,0L9,0L9,3L6,3L6,0M3,3L6,3L6,6L3,6L3,3M9,3L12,3L12,6L9,6L9,3"></path> <path fill="white" d="M0,6L3,6L3,9L0,9L0,6M6,6L9,6L9,9L6,9L6,6M3,9L6,9L6,12L3,12L3,9M9,9L12,9L12,12L9,12L9,9"></path> </pattern> <pattern y="0" x="0" height="12" width="12" patternUnits="userSpaceOnUse" id="cp5pattern"> <rect class="cp5color" height="12" width="12" y="0" x="0"></rect> <path fill="black" d="M0,0L3,0L3,3L0,3L0,0M6,0L9,0L9,3L6,3L6,0M3,3L6,3L6,6L3,6L3,3M9,3L12,3L12,6L9,6L9,3"></path> <path fill="black" d="M0,6L3,6L3,9L0,9L0,6M6,6L9,6L9,9L6,9L6,6M3,9L6,9L6,12L3,12L3,9M9,9L12,9L12,12L9,12L9,9"></path> </pattern> <pattern y="0" x="0" height="12" width="12" patternUnits="userSpaceOnUse" id="cp6pattern"> <rect class="cp6color" height="12" width="12" y="0" x="0"></rect> <path fill="white" d="M0,0L3,0L3,3L0,3L0,0M6,0L9,0L9,3L6,3L6,0M3,3L6,3L6,6L3,6L3,3M9,3L12,3L12,6L9,6L9,3"></path> <path fill="white" d="M0,6L3,6L3,9L0,9L0,6M6,6L9,6L9,9L6,9L6,6M3,9L6,9L6,12L3,12L3,9M9,9L12,9L12,12L9,12L9,9"></path> </pattern> <pattern y="0" x="0" height="12" width="12" patternUnits="userSpaceOnUse" id="cp7pattern"> <rect class="cp7color" height="12" width="12" y="0" x="0"></rect> <path fill="black" d="M0,0L3,0L3,3L0,3L0,0M6,0L9,0L9,3L6,3L6,0M3,3L6,3L6,6L3,6L3,3M9,3L12,3L12,6L9,6L9,3"></path> <path fill="black" d="M0,6L3,6L3,9L0,9L0,6M6,6L9,6L9,9L6,9L6,6M3,9L6,9L6,12L3,12L3,9M9,9L12,9L12,12L9,12L9,9"></path> </pattern> <pattern y="0" x="0" height="12" width="12" patternUnits="userSpaceOnUse" id="cp8pattern"> <rect class="cp8color" height="12" width="12" y="0" x="0"></rect> <path fill="white" d="M0,0L3,0L3,3L0,3L0,0M6,0L9,0L9,3L6,3L6,0M3,3L6,3L6,6L3,6L3,3M9,3L12,3L12,6L9,6L9,3"></path> <path fill="white" d="M0,6L3,6L3,9L0,9L0,6M6,6L9,6L9,9L6,9L6,6M3,9L6,9L6,12L3,12L3,9M9,9L12,9L12,12L9,12L9,9"></path> </pattern> <pattern y="0" x="0" height="12" width="12" patternUnits="userSpaceOnUse" id="cp9pattern"> <rect class="cp9color" height="12" width="12" y="0" x="0"></rect> <path fill="black" d="M0,0L3,0L3,3L0,3L0,0M6,0L9,0L9,3L6,3L6,0M3,3L6,3L6,6L3,6L3,3M9,3L12,3L12,6L9,6L9,3"></path> <path fill="black" d="M0,6L3,6L3,9L0,9L0,6M6,6L9,6L9,9L6,9L6,6M3,9L6,9L6,12L3,12L3,9M9,9L12,9L12,12L9,12L9,9"></path> </pattern> </defs> <rect height="100%" width="100%" y="0" x="0" class="grass" id="mainfill"></rect> <g id="paths"><path class="cp1" d="M120,216L120,216L156,216L156,228L120,228Z"></path><path class="cp2" d="M192,168L192,168L228,168L228,192L192,192Z"></path><path class="cp3" d="M264,168L264,168L300,168L300,192L264,192Z"></path><path class="cp4" d="M336,168L336,168L372,168L372,192L336,192Z"></path><path class="cp5" d="M408,168L408,168L444,168L444,192L408,192Z"></path><path class="cp6" d="M348,24L348,24L372,24L372,60L348,60L348,24M348,312L348,312L372,312L372,348L348,348Z"></path><path class="parc" d="M0,0L0,0L12,0L12,72L0,72Z"></path><path class="road" d="M168,24L168,24L180,24L180,60L168,60L168,72L156,72L156,84L144,84L144,96L132,96L132,108L120,108L120,120L108,120L108,132L96,132L96,144L84,144L84,156L72,156L72,168L60,168L60,180L48,180L48,192L60,192L60,204L72,204L72,216L84,216L84,228L96,228L96,240L108,240L108,228L144,228L144,240L132,240L132,252L120,252L120,264L132,264L132,276L144,276L144,288L156,288L156,300L168,300L168,312L228,312L228,300L216,300L216,288L204,288L204,276L192,276L192,192L228,192L228,276L240,276L240,288L252,288L252,300L264,300L264,312L300,312L300,300L288,300L288,288L276,288L276,276L264,276L264,192L300,192L300,276L312,276L312,288L324,288L324,300L336,300L336,312L348,312L348,348L168,348L168,336L156,336L156,324L144,324L144,312L132,312L132,300L120,300L120,288L108,288L108,276L96,276L96,264L84,264L84,252L72,252L72,240L60,240L60,228L48,228L48,216L36,216L36,204L24,204L24,192L12,192L12,180L24,180L24,168L36,168L36,156L48,156L48,144L60,144L60,132L72,132L72,120L84,120L84,108L96,108L96,96L108,96L108,84L120,84L120,72L132,72L132,60L144,60L144,48L156,48L156,36L168,36L168,24M204,24L204,24L348,24L348,60L336,60L336,72L324,72L324,84L312,84L312,96L300,96L300,168L264,168L264,96L276,96L276,84L288,84L288,72L300,72L300,60L264,60L264,72L252,72L252,84L240,84L240,96L228,96L228,168L192,168L192,96L204,96L204,84L216,84L216,72L228,72L228,60L204,60L204,24M372,24L372,24L504,24L504,36L516,36L516,48L528,48L528,60L540,60L540,72L552,72L552,84L564,84L564,96L576,96L576,108L588,108L588,120L600,120L600,132L612,132L612,144L624,144L624,156L636,156L636,168L648,168L648,156L660,156L660,144L672,144L672,132L684,132L684,120L696,120L696,108L708,108L708,96L720,96L720,84L732,84L732,72L744,72L744,60L756,60L756,48L768,48L768,36L780,36L780,24L840,24L840,348L780,348L780,336L768,336L768,324L756,324L756,312L744,312L744,300L732,300L732,288L720,288L720,276L708,276L708,264L696,264L696,252L684,252L684,240L672,240L672,228L660,228L660,216L648,216L648,204L636,204L636,216L624,216L624,228L612,228L612,240L600,240L600,252L588,252L588,264L576,264L576,276L564,276L564,288L552,288L552,300L540,300L540,312L528,312L528,324L516,324L516,336L504,336L504,348L372,348L372,300L360,300L360,288L348,288L348,276L336,276L336,192L372,192L372,276L384,276L384,288L396,288L396,300L408,300L408,312L444,312L444,300L432,300L432,288L420,288L420,276L408,276L408,192L444,192L444,276L456,276L456,288L468,288L468,300L480,300L480,312L504,312L504,300L516,300L516,288L528,288L528,276L540,276L540,264L552,264L552,252L564,252L564,240L576,240L576,228L588,228L588,216L600,216L600,204L612,204L612,192L624,192L624,180L612,180L612,168L600,168L600,156L588,156L588,144L576,144L576,132L564,132L564,120L552,120L552,108L540,108L540,96L528,96L528,84L516,84L516,72L504,72L504,60L480,60L480,72L468,72L468,84L456,84L456,96L444,96L444,168L408,168L408,96L420,96L420,84L432,84L432,72L444,72L444,60L408,60L408,72L396,72L396,84L384,84L384,96L372,96L372,168L336,168L336,96L348,96L348,84L360,84L360,72L372,72L372,24M804,48L804,48L792,48L792,60L780,60L780,72L768,72L768,84L756,84L756,96L744,96L744,108L732,108L732,120L720,120L720,132L708,132L708,144L696,144L696,156L684,156L684,168L672,168L672,180L660,180L660,192L672,192L672,204L684,204L684,216L696,216L696,228L708,228L708,240L720,240L720,252L732,252L732,264L744,264L744,276L756,276L756,288L768,288L768,300L780,300L780,312L792,312L792,324L804,324L804,228L792,228L792,216L780,216L780,204L768,204L768,168L780,168L780,156L792,156L792,144L804,144L804,48M132,120L132,120L156,120L156,144L132,144Z"></path><path class="start" d="M180,24L180,24L204,24L204,60L180,60Z"></path><path class="finish" d="M756,180L756,180L768,180L768,192L756,192Z"></path></g> <rect opacity=".3" fill="url(#grid)" height="100%" width="100%" y="0" x="0"></rect></svg>