<svg height="732" width="1200" id="mapSvgView" xmlns:xlink="http://www.w3.org/1999/xlink" version="1.1" xmlns="http://www.w3.org/2000/svg"> <defs> <style type="text/css"> .grass {fill: rgb(0, 200, 0);} .road {fill: rgb(128, 128, 128);} .start {fill: url(#startPattern)} .finish {fill: url(#finishPattern)} .mud {fill: rgb(100, 70, 0);} .sand {fill: rgb(230, 230, 115);} .water {fill: blue;} .earth {fill: brown;} .night {fill: black;} .parc {fill: rgb(200, 200, 200);} .cp1color {fill: rgb(0, 102, 255);} .cp2color {fill: rgb(0, 100, 200);} .cp3color {fill: rgb(0, 255, 102);} .cp4color {fill: rgb(0, 200, 0);} .cp5color {fill: rgb(255, 255, 0);} .cp6color {fill: rgb(200, 200, 0);} .cp7color {fill: rgb(255, 0, 0);} .cp8color {fill: rgb(200, 0, 0);} .cp9color {fill: rgb(255, 0, 255);} .cp1 {fill: url(#cp1pattern);} .cp2 {fill: url(#cp2pattern);} .cp3 {fill: url(#cp3pattern);} .cp4 {fill: url(#cp4pattern);} .cp5 {fill: url(#cp5pattern);} .cp6 {fill: url(#cp6pattern);} .cp7 {fill: url(#cp7pattern);} .cp8 {fill: url(#cp8pattern);} .cp9 {fill: url(#cp9pattern);} .primaryColor {fill: rgb(0, 255, 102);} </style> <pattern y="0" x="0" height="12" width="12" patternUnits="userSpaceOnUse" id="grid"> <line stroke-width="1" stroke="black" y2="12" x2="12" y1="0" x1="12"></line> <line stroke-width="1" stroke="black" y2="12" x2="12" y1="12" x1="0"></line> </pattern> <pattern y="0" x="0" height="12" width="12" patternUnits="userSpaceOnUse" id="finishPattern"> <rect fill="black" height="12" width="12" y="0" x="0"></rect> <path fill="white" d="M0,0L3,0L3,3L0,3L0,0M6,0L9,0L9,3L6,3L6,0M3,3L6,3L6,6L3,6L3,3M9,3L12,3L12,6L9,6L9,3"></path> <path fill="white" d="M0,6L3,6L3,9L0,9L0,6M6,6L9,6L9,9L6,9L6,6M3,9L6,9L6,12L3,12L3,9M9,9L12,9L12,12L9,12L9,9"></path> </pattern> <pattern y="0" x="0" height="12" width="12" patternUnits="userSpaceOnUse" id="startPattern"> <rect fill="rgb(100,100,100)" height="12" width="12" y="0" x="0"></rect> <rect stroke-width="1" stroke="rgb(200,200,200)" fill="none" height="5" width="5" y="3.5" x="3.5"></rect> &gt; </pattern> <pattern y="0" x="0" height="12" width="12" patternUnits="userSpaceOnUse" id="cp1pattern"> <rect class="cp1color" height="12" width="12" y="0" x="0"></rect> <path fill="black" d="M0,0L3,0L3,3L0,3L0,0M6,0L9,0L9,3L6,3L6,0M3,3L6,3L6,6L3,6L3,3M9,3L12,3L12,6L9,6L9,3"></path> <path fill="black" d="M0,6L3,6L3,9L0,9L0,6M6,6L9,6L9,9L6,9L6,6M3,9L6,9L6,12L3,12L3,9M9,9L12,9L12,12L9,12L9,9"></path> </pattern> <pattern y="0" x="0" height="12" width="12" patternUnits="userSpaceOnUse" id="cp2pattern"> <rect class="cp2color" height="12" width="12" y="0" x="0"></rect> <path fill="white" d="M0,0L3,0L3,3L0,3L0,0M6,0L9,0L9,3L6,3L6,0M3,3L6,3L6,6L3,6L3,3M9,3L12,3L12,6L9,6L9,3"></path> <path fill="white" d="M0,6L3,6L3,9L0,9L0,6M6,6L9,6L9,9L6,9L6,6M3,9L6,9L6,12L3,12L3,9M9,9L12,9L12,12L9,12L9,9"></path> </pattern> <pattern y="0" x="0" height="12" width="12" patternUnits="userSpaceOnUse" id="cp3pattern"> <rect class="cp3color" height="12" width="12" y="0" x="0"></rect> <path fill="black" d="M0,0L3,0L3,3L0,3L0,0M6,0L9,0L9,3L6,3L6,0M3,3L6,3L6,6L3,6L3,3M9,3L12,3L12,6L9,6L9,3"></path> <path fill="black" d="M0,6L3,6L3,9L0,9L0,6M6,6L9,6L9,9L6,9L6,6M3,9L6,9L6,12L3,12L3,9M9,9L12,9L12,12L9,12L9,9"></path> </pattern> <pattern y="0" x="0" height="12" width="12" patternUnits="userSpaceOnUse" id="cp4pattern"> <rect class="cp4color" height="12" width="12" y="0" x="0"></rect> <path fill="white" d="M0,0L3,0L3,3L0,3L0,0M6,0L9,0L9,3L6,3L6,0M3,3L6,3L6,6L3,6L3,3M9,3L12,3L12,6L9,6L9,3"></path> <path fill="white" d="M0,6L3,6L3,9L0,9L0,6M6,6L9,6L9,9L6,9L6,6M3,9L6,9L6,12L3,12L3,9M9,9L12,9L12,12L9,12L9,9"></path> </pattern> <pattern y="0" x="0" height="12" width="12" patternUnits="userSpaceOnUse" id="cp5pattern"> <rect class="cp5color" height="12" width="12" y="0" x="0"></rect> <path fill="black" d="M0,0L3,0L3,3L0,3L0,0M6,0L9,0L9,3L6,3L6,0M3,3L6,3L6,6L3,6L3,3M9,3L12,3L12,6L9,6L9,3"></path> <path fill="black" d="M0,6L3,6L3,9L0,9L0,6M6,6L9,6L9,9L6,9L6,6M3,9L6,9L6,12L3,12L3,9M9,9L12,9L12,12L9,12L9,9"></path> </pattern> <pattern y="0" x="0" height="12" width="12" patternUnits="userSpaceOnUse" id="cp6pattern"> <rect class="cp6color" height="12" width="12" y="0" x="0"></rect> <path fill="white" d="M0,0L3,0L3,3L0,3L0,0M6,0L9,0L9,3L6,3L6,0M3,3L6,3L6,6L3,6L3,3M9,3L12,3L12,6L9,6L9,3"></path> <path fill="white" d="M0,6L3,6L3,9L0,9L0,6M6,6L9,6L9,9L6,9L6,6M3,9L6,9L6,12L3,12L3,9M9,9L12,9L12,12L9,12L9,9"></path> </pattern> <pattern y="0" x="0" height="12" width="12" patternUnits="userSpaceOnUse" id="cp7pattern"> <rect class="cp7color" height="12" width="12" y="0" x="0"></rect> <path fill="black" d="M0,0L3,0L3,3L0,3L0,0M6,0L9,0L9,3L6,3L6,0M3,3L6,3L6,6L3,6L3,3M9,3L12,3L12,6L9,6L9,3"></path> <path fill="black" d="M0,6L3,6L3,9L0,9L0,6M6,6L9,6L9,9L6,9L6,6M3,9L6,9L6,12L3,12L3,9M9,9L12,9L12,12L9,12L9,9"></path> </pattern> <pattern y="0" x="0" height="12" width="12" patternUnits="userSpaceOnUse" id="cp8pattern"> <rect class="cp8color" height="12" width="12" y="0" x="0"></rect> <path fill="white" d="M0,0L3,0L3,3L0,3L0,0M6,0L9,0L9,3L6,3L6,0M3,3L6,3L6,6L3,6L3,3M9,3L12,3L12,6L9,6L9,3"></path> <path fill="white" d="M0,6L3,6L3,9L0,9L0,6M6,6L9,6L9,9L6,9L6,6M3,9L6,9L6,12L3,12L3,9M9,9L12,9L12,12L9,12L9,9"></path> </pattern> <pattern y="0" x="0" height="12" width="12" patternUnits="userSpaceOnUse" id="cp9pattern"> <rect class="cp9color" height="12" width="12" y="0" x="0"></rect> <path fill="black" d="M0,0L3,0L3,3L0,3L0,0M6,0L9,0L9,3L6,3L6,0M3,3L6,3L6,6L3,6L3,3M9,3L12,3L12,6L9,6L9,3"></path> <path fill="black" d="M0,6L3,6L3,9L0,9L0,6M6,6L9,6L9,9L6,9L6,6M3,9L6,9L6,12L3,12L3,9M9,9L12,9L12,12L9,12L9,9"></path> </pattern> </defs> <rect height="100%" width="100%" y="0" x="0" class="grass" id="mainfill"></rect> <g id="paths"><path class="cp1" d="M708,276L708,276L780,276L780,288L708,288Z"></path><path class="cp2" d="M876,468L876,468L960,468L960,480L876,480Z"></path><path class="cp3" d="M48,456L48,456L60,456L60,468L48,468L48,456M60,468L60,468L72,468L72,480L60,480L60,468M48,468L48,468L48,480L36,480L36,468L48,468M48,480L48,480L60,480L60,492L48,492L48,480M36,480L36,480L36,492L24,492L24,480L36,480M72,480L72,480L84,480L84,492L72,492L72,480M36,492L36,492L48,492L48,504L36,504L36,492M60,492L60,492L72,492L72,504L60,504L60,492M48,504L48,504L60,504L60,516L48,516Z"></path><path class="parc" d="M0,0L0,0L12,0L12,96L0,96Z"></path><path class="road" d="M120,12L120,12L288,12L288,72L156,72L156,84L132,84L132,108L120,108L120,216L132,216L132,228L156,228L156,216L168,216L168,144L180,144L180,120L192,120L192,108L204,108L204,96L228,96L228,84L312,84L312,96L336,96L336,108L348,108L348,120L360,120L360,204L372,204L372,228L384,228L384,240L396,240L396,252L408,252L408,264L420,264L420,276L432,276L432,288L444,288L444,300L456,300L456,312L468,312L468,324L480,324L480,336L492,336L492,360L504,360L504,384L516,384L516,408L528,408L528,468L516,468L516,504L504,504L504,528L492,528L492,540L480,540L480,552L456,552L456,564L420,564L420,576L372,576L372,588L264,588L264,576L228,576L228,564L192,564L192,552L168,552L168,540L156,540L156,528L144,528L144,504L132,504L132,468L120,468L120,420L108,420L108,360L96,360L96,408L84,408L84,420L72,420L72,432L60,432L60,444L48,444L48,468L36,468L36,480L12,480L12,348L24,348L24,324L36,324L36,312L60,312L60,300L132,300L132,312L156,312L156,324L168,324L168,348L180,348L180,408L192,408L192,456L204,456L204,492L216,492L216,504L228,504L228,516L252,516L252,528L396,528L396,516L420,516L420,504L432,504L432,492L444,492L444,456L456,456L456,420L444,420L444,396L432,396L432,372L420,372L420,348L408,348L408,336L396,336L396,324L384,324L384,312L372,312L372,300L360,300L360,288L348,288L348,276L336,276L336,264L324,264L324,252L312,252L312,240L300,240L300,216L288,216L288,168L276,168L276,156L252,156L252,168L240,168L240,228L228,228L228,252L216,252L216,264L204,264L204,276L180,276L180,288L84,288L84,276L60,276L60,264L48,264L48,252L36,252L36,72L48,72L48,48L60,48L60,36L84,36L84,24L120,24L120,12M312,12L312,12L324,12L324,24L312,24L312,12M324,24L324,24L336,24L336,12L1080,12L1080,24L1128,24L1128,36L1152,36L1152,48L1164,48L1164,60L1176,60L1176,84L1188,84L1188,156L1176,156L1176,180L1164,180L1164,192L1140,192L1140,204L1116,204L1116,216L1092,216L1092,240L1080,240L1080,264L1092,264L1092,276L1104,276L1104,288L1116,288L1116,300L1128,300L1128,312L1140,312L1140,324L1152,324L1152,336L1164,336L1164,348L1176,348L1176,372L1188,372L1188,468L1176,468L1176,480L1164,480L1164,492L1152,492L1152,504L1080,504L1080,492L1068,492L1068,480L1056,480L1056,420L1044,420L1044,408L1032,408L1032,396L1008,396L1008,384L960,384L960,372L912,372L912,360L864,360L864,348L792,348L792,336L756,336L756,324L720,324L720,312L708,312L708,288L792,288L792,300L828,300L828,312L900,312L900,324L960,324L960,336L996,336L996,348L1032,348L1032,360L1056,360L1056,372L1092,372L1092,384L1116,384L1116,396L1128,396L1128,408L1140,408L1140,384L1128,384L1128,360L1116,360L1116,348L1104,348L1104,336L1092,336L1092,324L1080,324L1080,312L1068,312L1068,300L1056,300L1056,288L1044,288L1044,276L1032,276L1032,264L1020,264L1020,216L1008,216L1008,168L996,168L996,144L984,144L984,132L972,132L972,120L960,120L960,108L924,108L924,96L828,96L828,84L780,84L780,72L336,72L336,60L324,60L324,48L312,48L312,36L300,36L300,24L312,24L312,36L324,36L324,24M336,36L336,36L324,36L324,48L336,48L336,36M312,48L312,48L312,60L300,60L300,48L312,48M312,60L312,60L324,60L324,72L312,72L312,60M876,72L876,72L864,72L864,84L936,84L936,96L972,96L972,108L984,108L984,120L996,120L996,132L1008,132L1008,144L1020,144L1020,180L1032,180L1032,192L1044,192L1044,168L1068,168L1068,156L1080,156L1080,144L1092,144L1092,132L1104,132L1104,108L1092,108L1092,96L1080,96L1080,84L1056,84L1056,72L876,72M552,84L552,84L744,84L744,96L780,96L780,108L804,108L804,120L828,120L828,132L852,132L852,144L864,144L864,168L876,168L876,180L888,180L888,216L864,216L864,228L840,228L840,240L816,240L816,252L804,252L804,264L792,264L792,276L720,276L720,252L732,252L732,240L744,240L744,228L768,228L768,216L792,216L792,204L804,204L804,180L792,180L792,168L780,168L780,156L756,156L756,144L720,144L720,132L576,132L576,144L528,144L528,156L516,156L516,168L504,168L504,228L516,228L516,252L528,252L528,264L540,264L540,276L552,276L552,288L564,288L564,300L576,300L576,312L588,312L588,324L600,324L600,336L612,336L612,348L624,348L624,360L636,360L636,372L660,372L660,384L840,384L840,396L876,396L876,408L900,408L900,420L912,420L912,432L924,432L924,444L936,444L936,456L948,456L948,468L864,468L864,456L852,456L852,444L816,444L816,432L660,432L660,420L624,420L624,408L600,408L600,396L576,396L576,384L564,384L564,372L552,372L552,360L540,360L540,348L528,348L528,336L516,336L516,324L504,324L504,312L492,312L492,300L480,300L480,288L468,288L468,276L456,276L456,264L444,264L444,252L432,252L432,228L420,228L420,168L432,168L432,144L444,144L444,132L456,132L456,120L480,120L480,108L504,108L504,96L552,96L552,84M552,168L552,168L612,168L612,180L600,180L600,192L612,192L612,204L624,204L624,192L636,192L636,180L624,180L624,168L684,168L684,180L660,180L660,192L648,192L648,204L636,204L636,240L648,240L648,252L588,252L588,240L600,240L600,204L588,204L588,192L576,192L576,180L552,180L552,168M1104,396L1104,396L1092,396L1092,408L1104,408L1104,396M1116,408L1116,408L1104,408L1104,456L1116,456L1116,468L1128,468L1128,456L1140,456L1140,432L1128,432L1128,420L1116,420L1116,408M84,420L84,420L96,420L96,432L84,432L84,420M72,432L72,432L84,432L84,444L72,444L72,432M60,444L60,444L72,444L72,456L60,456L60,444M84,444L84,444L96,444L96,456L84,456L84,444M72,456L72,456L84,456L84,468L72,468L72,456M48,468L48,468L60,468L60,480L48,480L48,468M84,468L84,468L96,468L96,480L84,480L84,468M732,456L732,456L816,456L816,468L828,468L828,480L840,480L840,504L828,504L828,516L804,516L804,528L792,528L792,540L768,540L768,552L744,552L744,564L720,564L720,576L696,576L696,588L672,588L672,600L648,600L648,612L636,612L636,648L648,648L648,660L684,660L684,672L768,672L768,684L780,684L780,672L792,672L792,684L780,684L780,696L816,696L816,684L804,684L804,672L816,672L816,684L828,684L828,672L948,672L948,684L960,684L960,672L972,672L972,684L960,684L960,696L996,696L996,684L984,684L984,672L996,672L996,684L1008,684L1008,672L1116,672L1116,660L1128,660L1128,600L1116,600L1116,588L1092,588L1092,576L1020,576L1020,564L984,564L984,552L960,552L960,540L936,540L936,528L924,528L924,516L912,516L912,504L900,504L900,492L888,492L888,480L972,480L972,492L984,492L984,504L996,504L996,516L1020,516L1020,528L1092,528L1092,540L1140,540L1140,552L1164,552L1164,564L1176,564L1176,588L1188,588L1188,672L1176,672L1176,696L1164,696L1164,708L1140,708L1140,720L912,720L912,708L900,708L900,696L864,696L864,708L852,708L852,720L660,720L660,708L624,708L624,696L600,696L600,684L588,684L588,672L576,672L576,648L564,648L564,612L576,612L576,600L588,600L588,588L612,588L612,576L636,576L636,564L660,564L660,552L684,552L684,540L708,540L708,528L720,528L720,516L696,516L696,528L672,528L672,540L648,540L648,552L624,552L624,564L600,564L600,576L576,576L576,588L552,588L552,600L528,600L528,612L504,612L504,624L480,624L480,636L456,636L456,648L432,648L432,660L396,660L396,672L348,672L348,684L276,684L276,696L108,696L108,684L72,684L72,672L48,672L48,660L36,660L36,636L24,636L24,600L12,600L12,564L24,564L24,552L12,552L12,540L24,540L24,528L12,528L12,516L24,516L24,504L12,504L12,492L24,492L24,504L36,504L36,516L24,516L24,528L36,528L36,516L48,516L48,528L36,528L36,540L24,540L24,552L36,552L36,540L48,540L48,528L60,528L60,504L48,504L48,492L36,492L36,480L48,480L48,492L60,492L60,480L72,480L72,492L60,492L60,504L72,504L72,492L96,492L96,588L108,588L108,612L120,612L120,624L156,624L156,636L300,636L300,624L408,624L408,612L432,612L432,600L456,600L456,588L480,588L480,576L504,576L504,564L528,564L528,552L552,552L552,540L576,540L576,528L600,528L600,516L624,516L624,504L648,504L648,492L672,492L672,480L696,480L696,468L732,468L732,456M732,504L732,504L720,504L720,516L744,516L744,504L732,504M864,708L864,708L876,708L876,720L864,720L864,708M900,708L900,708L900,720L888,720L888,708Z"></path><path class="finish" d="M288,12L288,12L300,12L300,72L288,72Z"></path><path class="start" d="M300,12L300,12L312,12L312,24L300,24L300,12M312,24L312,24L324,24L324,12L336,12L336,24L324,24L324,36L312,36L312,24M324,36L324,36L336,36L336,48L324,48L324,36M312,36L312,36L312,48L300,48L300,36L312,36M312,48L312,48L324,48L324,60L312,60L312,48M324,60L324,60L336,60L336,72L324,72L324,60M312,60L312,60L312,72L300,72L300,60Z"></path></g> <rect opacity=".3" fill="url(#grid)" height="100%" width="100%" y="0" x="0"></rect></svg>