<svg height="528" width="1200" id="mapSvgView" xmlns:xlink="http://www.w3.org/1999/xlink" version="1.1" xmlns="http://www.w3.org/2000/svg"> <defs> <style type="text/css"> .grass {fill: rgb(0, 200, 0);} .road {fill: rgb(128, 128, 128);} .start {fill: url(#startPattern)} .finish {fill: url(#finishPattern)} .mud {fill: rgb(100, 70, 0);} .sand {fill: rgb(230, 230, 115);} .water {fill: blue;} .earth {fill: brown;} .night {fill: black;} .parc {fill: rgb(200, 200, 200);} .cp1color {fill: rgb(0, 102, 255);} .cp2color {fill: rgb(0, 100, 200);} .cp3color {fill: rgb(0, 255, 102);} .cp4color {fill: rgb(0, 200, 0);} .cp5color {fill: rgb(255, 255, 0);} .cp6color {fill: rgb(200, 200, 0);} .cp7color {fill: rgb(255, 0, 0);} .cp8color {fill: rgb(200, 0, 0);} .cp9color {fill: rgb(255, 0, 255);} .cp1 {fill: url(#cp1pattern);} .cp2 {fill: url(#cp2pattern);} .cp3 {fill: url(#cp3pattern);} .cp4 {fill: url(#cp4pattern);} .cp5 {fill: url(#cp5pattern);} .cp6 {fill: url(#cp6pattern);} .cp7 {fill: url(#cp7pattern);} .cp8 {fill: url(#cp8pattern);} .cp9 {fill: url(#cp9pattern);} .primaryColor {fill: rgb(0, 255, 102);} </style> <pattern y="0" x="0" height="12" width="12" patternUnits="userSpaceOnUse" id="grid"> <line stroke-width="1" stroke="black" y2="12" x2="12" y1="0" x1="12"></line> <line stroke-width="1" stroke="black" y2="12" x2="12" y1="12" x1="0"></line> </pattern> <pattern y="0" x="0" height="12" width="12" patternUnits="userSpaceOnUse" id="finishPattern"> <rect fill="black" height="12" width="12" y="0" x="0"></rect> <path fill="white" d="M0,0L3,0L3,3L0,3L0,0M6,0L9,0L9,3L6,3L6,0M3,3L6,3L6,6L3,6L3,3M9,3L12,3L12,6L9,6L9,3"></path> <path fill="white" d="M0,6L3,6L3,9L0,9L0,6M6,6L9,6L9,9L6,9L6,6M3,9L6,9L6,12L3,12L3,9M9,9L12,9L12,12L9,12L9,9"></path> </pattern> <pattern y="0" x="0" height="12" width="12" patternUnits="userSpaceOnUse" id="startPattern"> <rect fill="rgb(100,100,100)" height="12" width="12" y="0" x="0"></rect> <rect stroke-width="1" stroke="rgb(200,200,200)" fill="none" height="5" width="5" y="3.5" x="3.5"></rect> &gt; </pattern> <pattern y="0" x="0" height="12" width="12" patternUnits="userSpaceOnUse" id="cp1pattern"> <rect class="cp1color" height="12" width="12" y="0" x="0"></rect> <path fill="black" d="M0,0L3,0L3,3L0,3L0,0M6,0L9,0L9,3L6,3L6,0M3,3L6,3L6,6L3,6L3,3M9,3L12,3L12,6L9,6L9,3"></path> <path fill="black" d="M0,6L3,6L3,9L0,9L0,6M6,6L9,6L9,9L6,9L6,6M3,9L6,9L6,12L3,12L3,9M9,9L12,9L12,12L9,12L9,9"></path> </pattern> <pattern y="0" x="0" height="12" width="12" patternUnits="userSpaceOnUse" id="cp2pattern"> <rect class="cp2color" height="12" width="12" y="0" x="0"></rect> <path fill="white" d="M0,0L3,0L3,3L0,3L0,0M6,0L9,0L9,3L6,3L6,0M3,3L6,3L6,6L3,6L3,3M9,3L12,3L12,6L9,6L9,3"></path> <path fill="white" d="M0,6L3,6L3,9L0,9L0,6M6,6L9,6L9,9L6,9L6,6M3,9L6,9L6,12L3,12L3,9M9,9L12,9L12,12L9,12L9,9"></path> </pattern> <pattern y="0" x="0" height="12" width="12" patternUnits="userSpaceOnUse" id="cp3pattern"> <rect class="cp3color" height="12" width="12" y="0" x="0"></rect> <path fill="black" d="M0,0L3,0L3,3L0,3L0,0M6,0L9,0L9,3L6,3L6,0M3,3L6,3L6,6L3,6L3,3M9,3L12,3L12,6L9,6L9,3"></path> <path fill="black" d="M0,6L3,6L3,9L0,9L0,6M6,6L9,6L9,9L6,9L6,6M3,9L6,9L6,12L3,12L3,9M9,9L12,9L12,12L9,12L9,9"></path> </pattern> <pattern y="0" x="0" height="12" width="12" patternUnits="userSpaceOnUse" id="cp4pattern"> <rect class="cp4color" height="12" width="12" y="0" x="0"></rect> <path fill="white" d="M0,0L3,0L3,3L0,3L0,0M6,0L9,0L9,3L6,3L6,0M3,3L6,3L6,6L3,6L3,3M9,3L12,3L12,6L9,6L9,3"></path> <path fill="white" d="M0,6L3,6L3,9L0,9L0,6M6,6L9,6L9,9L6,9L6,6M3,9L6,9L6,12L3,12L3,9M9,9L12,9L12,12L9,12L9,9"></path> </pattern> <pattern y="0" x="0" height="12" width="12" patternUnits="userSpaceOnUse" id="cp5pattern"> <rect class="cp5color" height="12" width="12" y="0" x="0"></rect> <path fill="black" d="M0,0L3,0L3,3L0,3L0,0M6,0L9,0L9,3L6,3L6,0M3,3L6,3L6,6L3,6L3,3M9,3L12,3L12,6L9,6L9,3"></path> <path fill="black" d="M0,6L3,6L3,9L0,9L0,6M6,6L9,6L9,9L6,9L6,6M3,9L6,9L6,12L3,12L3,9M9,9L12,9L12,12L9,12L9,9"></path> </pattern> <pattern y="0" x="0" height="12" width="12" patternUnits="userSpaceOnUse" id="cp6pattern"> <rect class="cp6color" height="12" width="12" y="0" x="0"></rect> <path fill="white" d="M0,0L3,0L3,3L0,3L0,0M6,0L9,0L9,3L6,3L6,0M3,3L6,3L6,6L3,6L3,3M9,3L12,3L12,6L9,6L9,3"></path> <path fill="white" d="M0,6L3,6L3,9L0,9L0,6M6,6L9,6L9,9L6,9L6,6M3,9L6,9L6,12L3,12L3,9M9,9L12,9L12,12L9,12L9,9"></path> </pattern> <pattern y="0" x="0" height="12" width="12" patternUnits="userSpaceOnUse" id="cp7pattern"> <rect class="cp7color" height="12" width="12" y="0" x="0"></rect> <path fill="black" d="M0,0L3,0L3,3L0,3L0,0M6,0L9,0L9,3L6,3L6,0M3,3L6,3L6,6L3,6L3,3M9,3L12,3L12,6L9,6L9,3"></path> <path fill="black" d="M0,6L3,6L3,9L0,9L0,6M6,6L9,6L9,9L6,9L6,6M3,9L6,9L6,12L3,12L3,9M9,9L12,9L12,12L9,12L9,9"></path> </pattern> <pattern y="0" x="0" height="12" width="12" patternUnits="userSpaceOnUse" id="cp8pattern"> <rect class="cp8color" height="12" width="12" y="0" x="0"></rect> <path fill="white" d="M0,0L3,0L3,3L0,3L0,0M6,0L9,0L9,3L6,3L6,0M3,3L6,3L6,6L3,6L3,3M9,3L12,3L12,6L9,6L9,3"></path> <path fill="white" d="M0,6L3,6L3,9L0,9L0,6M6,6L9,6L9,9L6,9L6,6M3,9L6,9L6,12L3,12L3,9M9,9L12,9L12,12L9,12L9,9"></path> </pattern> <pattern y="0" x="0" height="12" width="12" patternUnits="userSpaceOnUse" id="cp9pattern"> <rect class="cp9color" height="12" width="12" y="0" x="0"></rect> <path fill="black" d="M0,0L3,0L3,3L0,3L0,0M6,0L9,0L9,3L6,3L6,0M3,3L6,3L6,6L3,6L3,3M9,3L12,3L12,6L9,6L9,3"></path> <path fill="black" d="M0,6L3,6L3,9L0,9L0,6M6,6L9,6L9,9L6,9L6,6M3,9L6,9L6,12L3,12L3,9M9,9L12,9L12,12L9,12L9,9"></path> </pattern> </defs> <rect height="100%" width="100%" y="0" x="0" class="grass" id="mainfill"></rect> <g id="paths"><path class="cp1" d="M540,336L540,336L564,336L564,372L540,372Z"></path><path class="parc" d="M0,0L0,0L12,0L12,60L0,60L0,0M420,12L420,12L456,12L456,24L432,24L432,60L456,60L456,48L444,48L444,36L456,36L456,24L468,24L468,60L456,60L456,72L420,72Z"></path><path class="road" d="M504,12L504,12L516,12L516,24L504,24L504,12M516,24L516,24L528,24L528,36L516,36L516,24M504,24L504,24L504,36L492,36L492,24L504,24M552,12L552,12L564,12L564,36L588,36L588,12L624,12L624,24L600,24L600,72L588,72L588,48L564,48L564,72L552,72L552,12M624,24L624,24L636,24L636,48L624,48L624,60L612,60L612,36L624,36L624,24M672,12L672,12L684,12L684,24L672,24L672,12M684,24L684,24L696,24L696,36L684,36L684,24M672,24L672,24L672,36L660,36L660,24L672,24M720,12L720,12L732,12L732,72L720,72L720,12M744,12L744,12L756,12L756,24L768,24L768,36L756,36L756,72L744,72L744,12M792,12L792,12L804,12L804,36L828,36L828,24L948,24L948,36L972,36L972,48L960,48L960,60L984,60L984,72L996,72L996,84L1008,84L1008,108L1020,108L1020,144L1032,144L1032,168L1044,168L1044,192L1068,192L1068,252L1104,252L1104,264L1116,264L1116,288L1128,288L1128,312L1140,312L1140,432L1116,432L1116,444L564,444L564,432L552,432L552,420L540,420L540,408L552,408L552,420L564,420L564,408L1116,408L1116,336L1104,336L1104,300L1092,300L1092,288L1080,288L1080,276L1044,276L1044,216L1020,216L1020,192L1008,192L1008,168L996,168L996,132L984,132L984,108L972,108L972,96L960,96L960,84L948,84L948,72L936,72L936,60L924,60L924,48L852,48L852,60L828,60L828,96L840,96L840,108L852,108L852,144L888,144L888,156L900,156L900,168L912,168L912,192L936,192L936,252L948,252L948,264L984,264L984,348L972,348L972,360L852,360L852,372L564,372L564,336L948,336L948,324L960,324L960,288L924,288L924,276L912,276L912,216L888,216L888,192L876,192L876,180L864,180L864,168L828,168L828,120L804,120L804,72L792,72L792,60L780,60L780,48L768,48L768,36L780,36L780,48L792,48L792,12M492,36L492,36L492,48L528,48L528,36L540,36L540,72L528,72L528,60L492,60L492,72L480,72L480,36L492,36M660,36L660,36L660,48L696,48L696,36L708,36L708,72L696,72L696,60L660,60L660,72L648,72L648,36L660,36M252,36L252,36L300,36L300,48L324,48L324,60L336,60L336,72L348,72L348,84L432,84L432,108L444,108L444,120L432,120L432,132L444,132L444,144L456,144L456,156L540,156L540,168L576,168L576,192L612,192L612,264L288,264L288,276L276,276L276,300L264,300L264,312L228,312L228,324L216,324L216,348L252,348L252,336L540,336L540,372L192,372L192,300L216,300L216,288L228,288L228,276L240,276L240,264L252,264L252,252L264,252L264,240L576,240L576,216L552,216L552,192L516,192L516,180L408,180L408,108L336,108L336,96L324,96L324,84L312,84L312,72L276,72L276,60L264,60L264,72L252,72L252,96L240,96L240,108L216,108L216,156L192,156L192,216L168,216L168,264L156,264L156,312L168,312L168,360L156,360L156,372L132,372L132,384L96,384L96,396L84,396L84,408L516,408L516,444L60,444L60,384L72,384L72,372L84,372L84,360L120,360L120,348L144,348L144,336L132,336L132,252L144,252L144,192L168,192L168,132L192,132L192,84L216,84L216,60L240,60L240,48L252,48L252,36M624,60L624,60L636,60L636,72L624,72L624,60M540,420L540,420L540,432L528,432L528,420L540,420M540,432L540,432L552,432L552,444L540,444L540,432M288,468L288,468L324,468L324,480L300,480L300,492L324,492L324,480L336,480L336,468L348,468L348,480L336,480L336,492L324,492L324,504L300,504L300,516L324,516L324,504L336,504L336,528L288,528L288,468M348,480L348,480L360,480L360,492L348,492L348,480M384,468L384,468L396,468L396,480L384,480L384,468M384,480L384,480L384,492L372,492L372,480L384,480M456,468L456,468L468,468L468,480L456,480L456,468M468,480L468,480L480,480L480,504L444,504L444,480L456,480L456,492L468,492L468,480M516,468L516,468L564,468L564,480L516,480L516,468M516,480L516,480L516,504L504,504L504,480L516,480M588,468L588,468L612,468L612,480L600,480L600,492L612,492L612,480L624,480L624,492L636,492L636,504L624,504L624,516L612,516L612,504L600,504L600,528L588,528L588,468M660,468L660,468L684,468L684,480L660,480L660,468M660,480L660,480L660,516L648,516L648,480L660,480M684,480L684,480L696,480L696,516L684,516L684,480M708,468L708,468L744,468L744,480L720,480L720,516L744,516L744,480L756,480L756,516L744,516L744,528L708,528L708,468M768,468L768,468L804,468L804,480L780,480L780,492L804,492L804,480L816,480L816,504L804,504L804,516L792,516L792,504L780,504L780,528L768,528L768,468M360,492L360,492L372,492L372,528L360,528L360,492M444,504L444,504L444,528L432,528L432,504L444,504M480,504L480,504L492,504L492,528L480,528L480,504M516,504L516,504L528,504L528,516L516,516L516,504M540,492L540,492L576,492L576,516L564,516L564,504L540,504L540,492M528,516L528,516L564,516L564,528L528,528L528,516M624,516L624,516L636,516L636,528L624,528L624,516M660,516L660,516L684,516L684,528L660,528L660,516M804,516L804,516L816,516L816,528L804,528L804,516M828,516L828,516L840,516L840,528L828,528Z"></path><path class="finish" d="M516,408L516,408L528,408L528,444L516,444Z"></path><path class="start" d="M528,408L528,408L540,408L540,420L528,420L528,408M540,420L540,420L552,420L552,408L564,408L564,420L552,420L552,432L540,432L540,420M552,432L552,432L564,432L564,444L552,444L552,432M540,432L540,432L540,444L528,444L528,432Z"></path></g> <rect opacity=".3" fill="url(#grid)" height="100%" width="100%" y="0" x="0"></rect></svg>