<svg height="648" width="684" id="mapSvgView" xmlns:xlink="http://www.w3.org/1999/xlink" version="1.1" xmlns="http://www.w3.org/2000/svg"> <defs> <style type="text/css"> .grass {fill: rgb(0, 200, 0);} .road {fill: rgb(128, 128, 128);} .start {fill: url(#startPattern)} .finish {fill: url(#finishPattern)} .mud {fill: rgb(100, 70, 0);} .sand {fill: rgb(230, 230, 115);} .water {fill: blue;} .earth {fill: brown;} .night {fill: black;} .parc {fill: rgb(200, 200, 200);} .cp1color {fill: rgb(0, 102, 255);} .cp2color {fill: rgb(0, 100, 200);} .cp3color {fill: rgb(0, 255, 102);} .cp4color {fill: rgb(0, 200, 0);} .cp5color {fill: rgb(255, 255, 0);} .cp6color {fill: rgb(200, 200, 0);} .cp7color {fill: rgb(255, 0, 0);} .cp8color {fill: rgb(200, 0, 0);} .cp9color {fill: rgb(255, 0, 255);} .cp1 {fill: url(#cp1pattern);} .cp2 {fill: url(#cp2pattern);} .cp3 {fill: url(#cp3pattern);} .cp4 {fill: url(#cp4pattern);} .cp5 {fill: url(#cp5pattern);} .cp6 {fill: url(#cp6pattern);} .cp7 {fill: url(#cp7pattern);} .cp8 {fill: url(#cp8pattern);} .cp9 {fill: url(#cp9pattern);} .primaryColor {fill: rgb(0, 255, 102);} </style> <pattern y="0" x="0" height="12" width="12" patternUnits="userSpaceOnUse" id="grid"> <line stroke-width="1" stroke="black" y2="12" x2="12" y1="0" x1="12"></line> <line stroke-width="1" stroke="black" y2="12" x2="12" y1="12" x1="0"></line> </pattern> <pattern y="0" x="0" height="12" width="12" patternUnits="userSpaceOnUse" id="finishPattern"> <rect fill="black" height="12" width="12" y="0" x="0"></rect> <path fill="white" d="M0,0L3,0L3,3L0,3L0,0M6,0L9,0L9,3L6,3L6,0M3,3L6,3L6,6L3,6L3,3M9,3L12,3L12,6L9,6L9,3"></path> <path fill="white" d="M0,6L3,6L3,9L0,9L0,6M6,6L9,6L9,9L6,9L6,6M3,9L6,9L6,12L3,12L3,9M9,9L12,9L12,12L9,12L9,9"></path> </pattern> <pattern y="0" x="0" height="12" width="12" patternUnits="userSpaceOnUse" id="startPattern"> <rect fill="rgb(100,100,100)" height="12" width="12" y="0" x="0"></rect> <rect stroke-width="1" stroke="rgb(200,200,200)" fill="none" height="5" width="5" y="3.5" x="3.5"></rect> &gt; </pattern> <pattern y="0" x="0" height="12" width="12" patternUnits="userSpaceOnUse" id="cp1pattern"> <rect class="cp1color" height="12" width="12" y="0" x="0"></rect> <path fill="black" d="M0,0L3,0L3,3L0,3L0,0M6,0L9,0L9,3L6,3L6,0M3,3L6,3L6,6L3,6L3,3M9,3L12,3L12,6L9,6L9,3"></path> <path fill="black" d="M0,6L3,6L3,9L0,9L0,6M6,6L9,6L9,9L6,9L6,6M3,9L6,9L6,12L3,12L3,9M9,9L12,9L12,12L9,12L9,9"></path> </pattern> <pattern y="0" x="0" height="12" width="12" patternUnits="userSpaceOnUse" id="cp2pattern"> <rect class="cp2color" height="12" width="12" y="0" x="0"></rect> <path fill="white" d="M0,0L3,0L3,3L0,3L0,0M6,0L9,0L9,3L6,3L6,0M3,3L6,3L6,6L3,6L3,3M9,3L12,3L12,6L9,6L9,3"></path> <path fill="white" d="M0,6L3,6L3,9L0,9L0,6M6,6L9,6L9,9L6,9L6,6M3,9L6,9L6,12L3,12L3,9M9,9L12,9L12,12L9,12L9,9"></path> </pattern> <pattern y="0" x="0" height="12" width="12" patternUnits="userSpaceOnUse" id="cp3pattern"> <rect class="cp3color" height="12" width="12" y="0" x="0"></rect> <path fill="black" d="M0,0L3,0L3,3L0,3L0,0M6,0L9,0L9,3L6,3L6,0M3,3L6,3L6,6L3,6L3,3M9,3L12,3L12,6L9,6L9,3"></path> <path fill="black" d="M0,6L3,6L3,9L0,9L0,6M6,6L9,6L9,9L6,9L6,6M3,9L6,9L6,12L3,12L3,9M9,9L12,9L12,12L9,12L9,9"></path> </pattern> <pattern y="0" x="0" height="12" width="12" patternUnits="userSpaceOnUse" id="cp4pattern"> <rect class="cp4color" height="12" width="12" y="0" x="0"></rect> <path fill="white" d="M0,0L3,0L3,3L0,3L0,0M6,0L9,0L9,3L6,3L6,0M3,3L6,3L6,6L3,6L3,3M9,3L12,3L12,6L9,6L9,3"></path> <path fill="white" d="M0,6L3,6L3,9L0,9L0,6M6,6L9,6L9,9L6,9L6,6M3,9L6,9L6,12L3,12L3,9M9,9L12,9L12,12L9,12L9,9"></path> </pattern> <pattern y="0" x="0" height="12" width="12" patternUnits="userSpaceOnUse" id="cp5pattern"> <rect class="cp5color" height="12" width="12" y="0" x="0"></rect> <path fill="black" d="M0,0L3,0L3,3L0,3L0,0M6,0L9,0L9,3L6,3L6,0M3,3L6,3L6,6L3,6L3,3M9,3L12,3L12,6L9,6L9,3"></path> <path fill="black" d="M0,6L3,6L3,9L0,9L0,6M6,6L9,6L9,9L6,9L6,6M3,9L6,9L6,12L3,12L3,9M9,9L12,9L12,12L9,12L9,9"></path> </pattern> <pattern y="0" x="0" height="12" width="12" patternUnits="userSpaceOnUse" id="cp6pattern"> <rect class="cp6color" height="12" width="12" y="0" x="0"></rect> <path fill="white" d="M0,0L3,0L3,3L0,3L0,0M6,0L9,0L9,3L6,3L6,0M3,3L6,3L6,6L3,6L3,3M9,3L12,3L12,6L9,6L9,3"></path> <path fill="white" d="M0,6L3,6L3,9L0,9L0,6M6,6L9,6L9,9L6,9L6,6M3,9L6,9L6,12L3,12L3,9M9,9L12,9L12,12L9,12L9,9"></path> </pattern> <pattern y="0" x="0" height="12" width="12" patternUnits="userSpaceOnUse" id="cp7pattern"> <rect class="cp7color" height="12" width="12" y="0" x="0"></rect> <path fill="black" d="M0,0L3,0L3,3L0,3L0,0M6,0L9,0L9,3L6,3L6,0M3,3L6,3L6,6L3,6L3,3M9,3L12,3L12,6L9,6L9,3"></path> <path fill="black" d="M0,6L3,6L3,9L0,9L0,6M6,6L9,6L9,9L6,9L6,6M3,9L6,9L6,12L3,12L3,9M9,9L12,9L12,12L9,12L9,9"></path> </pattern> <pattern y="0" x="0" height="12" width="12" patternUnits="userSpaceOnUse" id="cp8pattern"> <rect class="cp8color" height="12" width="12" y="0" x="0"></rect> <path fill="white" d="M0,0L3,0L3,3L0,3L0,0M6,0L9,0L9,3L6,3L6,0M3,3L6,3L6,6L3,6L3,3M9,3L12,3L12,6L9,6L9,3"></path> <path fill="white" d="M0,6L3,6L3,9L0,9L0,6M6,6L9,6L9,9L6,9L6,6M3,9L6,9L6,12L3,12L3,9M9,9L12,9L12,12L9,12L9,9"></path> </pattern> <pattern y="0" x="0" height="12" width="12" patternUnits="userSpaceOnUse" id="cp9pattern"> <rect class="cp9color" height="12" width="12" y="0" x="0"></rect> <path fill="black" d="M0,0L3,0L3,3L0,3L0,0M6,0L9,0L9,3L6,3L6,0M3,3L6,3L6,6L3,6L3,3M9,3L12,3L12,6L9,6L9,3"></path> <path fill="black" d="M0,6L3,6L3,9L0,9L0,6M6,6L9,6L9,9L6,9L6,6M3,9L6,9L6,12L3,12L3,9M9,9L12,9L12,12L9,12L9,9"></path> </pattern> </defs> <rect height="100%" width="100%" y="0" x="0" class="grass" id="mainfill"></rect> <g id="paths"><path class="cp1" d="M216,372L216,372L360,372L360,384L216,384Z"></path><path class="cp2" d="M180,204L180,204L204,204L204,228L192,228L192,240L180,240L180,252L108,252L108,228L168,228L168,216L180,216L180,204M372,204L372,204L396,204L396,216L408,216L408,228L468,228L468,252L396,252L396,240L384,240L384,228L372,228Z"></path><path class="cp3" d="M264,612L264,612L276,612L276,624L264,624L264,612M264,624L264,624L264,636L240,636L240,624L264,624M300,612L300,612L312,612L312,624L300,624L300,612M312,624L312,624L336,624L336,636L312,636Z"></path><path class="cp4" d="M48,504L48,504L84,504L84,516L48,516L48,504M492,504L492,504L528,504L528,516L492,516Z"></path><path class="cp5" d="M276,552L276,552L300,552L300,564L276,564Z"></path><path class="cp6" d="M96,600L96,600L156,600L156,612L96,612L96,600M420,600L420,600L480,600L480,612L420,612Z"></path><path class="road" d="M180,12L180,12L192,12L192,36L204,36L204,48L228,48L228,60L240,60L240,72L252,72L252,96L264,96L264,108L276,108L276,132L300,132L300,108L312,108L312,96L324,96L324,72L336,72L336,60L348,60L348,48L372,48L372,36L384,36L384,12L396,12L396,24L408,24L408,48L420,48L420,72L432,72L432,84L444,84L444,108L456,108L456,132L468,132L468,228L444,228L444,156L432,156L432,132L420,132L420,96L408,96L408,84L396,84L396,72L372,72L372,84L348,84L348,120L336,120L336,132L324,132L324,144L312,144L312,156L264,156L264,144L252,144L252,132L240,132L240,120L228,120L228,84L204,84L204,72L180,72L180,84L168,84L168,96L156,96L156,132L144,132L144,156L132,156L132,228L108,228L108,132L120,132L120,108L132,108L132,84L144,84L144,72L156,72L156,48L168,48L168,24L180,24L180,12M156,156L156,156L228,156L228,168L240,168L240,180L252,180L252,204L228,204L228,192L216,192L216,180L156,180L156,156M348,156L348,156L420,156L420,180L360,180L360,192L348,192L348,204L324,204L324,180L336,180L336,168L348,168L348,156M264,204L264,204L312,204L312,216L324,216L324,228L336,228L336,324L324,324L324,336L312,336L312,348L264,348L264,336L252,336L252,324L240,324L240,228L252,228L252,216L264,216L264,204M276,228L276,228L264,228L264,324L312,324L312,228L276,228M108,252L108,252L132,252L132,288L144,288L144,300L156,300L156,312L168,312L168,324L180,324L180,336L192,336L192,348L240,348L240,360L252,360L252,372L180,372L180,360L168,360L168,348L156,348L156,336L144,336L144,324L132,324L132,312L120,312L120,288L108,288L108,252M444,252L444,252L468,252L468,288L456,288L456,312L444,312L444,324L432,324L432,336L420,336L420,348L408,348L408,360L396,360L396,372L324,372L324,360L336,360L336,348L384,348L384,336L396,336L396,324L408,324L408,312L420,312L420,300L432,300L432,288L444,288L444,252M216,384L216,384L252,384L252,396L240,396L240,408L228,408L228,432L216,432L216,444L192,444L192,456L180,456L180,516L192,516L192,528L204,528L204,564L372,564L372,528L384,528L384,516L396,516L396,456L384,456L384,444L360,444L360,432L348,432L348,408L336,408L336,396L324,396L324,384L360,384L360,396L372,396L372,408L384,408L384,420L396,420L396,432L408,432L408,444L420,444L420,492L432,492L432,480L444,480L444,468L492,468L492,480L504,480L504,492L516,492L516,504L492,504L492,492L444,492L444,516L540,516L540,564L552,564L552,576L564,576L564,564L648,564L648,576L660,576L660,588L672,588L672,612L660,612L660,624L648,624L648,636L576,636L576,576L564,576L564,636L336,636L336,624L312,624L312,612L264,612L264,624L240,624L240,636L12,636L12,588L24,588L24,576L36,576L36,516L132,516L132,492L84,492L84,504L60,504L60,492L72,492L72,480L84,480L84,468L132,468L132,480L156,480L156,444L168,444L168,432L180,432L180,420L192,420L192,408L204,408L204,396L216,396L216,384M276,492L276,492L300,492L300,516L336,516L336,540L300,540L300,552L276,552L276,540L240,540L240,516L276,516L276,492M156,516L156,516L144,516L144,528L132,528L132,540L60,540L60,564L132,564L132,588L72,588L72,600L48,600L48,612L180,612L180,552L168,552L168,540L156,540L156,516M432,516L432,516L420,516L420,540L408,540L408,552L396,552L396,612L528,612L528,600L504,600L504,588L444,588L444,564L516,564L516,540L444,540L444,528L432,528L432,516M216,588L216,588L204,588L204,612L252,612L252,600L264,600L264,588L216,588M324,588L324,588L312,588L312,600L324,600L324,612L372,612L372,588L324,588M612,588L612,588L600,588L600,612L636,612L636,588Z"></path><path class="start" d="M192,12L192,12L204,12L204,36L192,36L192,12M372,12L372,12L384,12L384,36L372,36L372,12M204,36L204,36L216,36L216,48L204,48L204,36M372,36L372,36L372,48L360,48L360,36Z"></path><path class="sand" d="M180,72L180,72L204,72L204,84L228,84L228,120L240,120L240,132L252,132L252,144L264,144L264,156L312,156L312,144L324,144L324,132L336,132L336,120L348,120L348,84L372,84L372,72L396,72L396,84L408,84L408,96L420,96L420,132L432,132L432,156L444,156L444,228L408,228L408,216L396,216L396,204L372,204L372,228L384,228L384,240L396,240L396,252L444,252L444,288L432,288L432,300L420,300L420,312L408,312L408,324L396,324L396,336L384,336L384,348L336,348L336,360L324,360L324,372L252,372L252,360L240,360L240,348L192,348L192,336L180,336L180,324L168,324L168,312L156,312L156,300L144,300L144,288L132,288L132,252L180,252L180,240L192,240L192,228L204,228L204,204L180,204L180,216L168,216L168,228L132,228L132,156L144,156L144,132L156,132L156,96L168,96L168,84L180,84L180,72M168,156L168,156L156,156L156,180L216,180L216,192L228,192L228,204L252,204L252,180L240,180L240,168L228,168L228,156L168,156M360,156L360,156L348,156L348,168L336,168L336,180L324,180L324,204L348,204L348,192L360,192L360,180L420,180L420,156L360,156M276,204L276,204L264,204L264,216L252,216L252,228L240,228L240,324L252,324L252,336L264,336L264,348L312,348L312,336L324,336L324,324L336,324L336,228L324,228L324,216L312,216L312,204L276,204M252,384L252,384L324,384L324,396L336,396L336,408L348,408L348,432L360,432L360,444L384,444L384,456L396,456L396,516L384,516L384,528L372,528L372,564L300,564L300,540L348,540L348,516L300,516L300,492L276,492L276,516L228,516L228,540L276,540L276,564L204,564L204,528L192,528L192,516L180,516L180,456L192,456L192,444L216,444L216,432L228,432L228,408L240,408L240,396L252,396L252,384M84,492L84,492L132,492L132,516L84,516L84,492M444,492L444,492L492,492L492,516L444,516L444,492M144,516L144,516L156,516L156,540L168,540L168,552L180,552L180,612L156,612L156,600L96,600L96,612L48,612L48,600L72,600L72,588L132,588L132,564L60,564L60,540L132,540L132,528L144,528L144,516M420,516L420,516L432,516L432,528L444,528L444,540L516,540L516,564L444,564L444,588L504,588L504,600L528,600L528,612L480,612L480,600L420,600L420,612L396,612L396,552L408,552L408,540L420,540L420,516M204,588L204,588L264,588L264,600L252,600L252,612L204,612L204,588M312,588L312,588L372,588L372,612L324,612L324,600L312,600L312,588M600,588L600,588L636,588L636,612L600,612Z"></path><path class="mud" d="M264,228L264,228L312,228L312,324L264,324Z"></path><path class="finish" d="M228,516L228,516L240,516L240,540L228,540L228,516M336,516L336,516L348,516L348,540L336,540Z"></path></g> <rect opacity=".3" fill="url(#grid)" height="100%" width="100%" y="0" x="0"></rect></svg>