<svg height="1836" width="1200" id="mapSvgView" xmlns:xlink="http://www.w3.org/1999/xlink" version="1.1" xmlns="http://www.w3.org/2000/svg"> <defs> <style type="text/css"> .grass {fill: rgb(0, 200, 0);} .road {fill: rgb(128, 128, 128);} .start {fill: url(#startPattern)} .finish {fill: url(#finishPattern)} .mud {fill: rgb(100, 70, 0);} .sand {fill: rgb(230, 230, 115);} .water {fill: blue;} .earth {fill: brown;} .night {fill: black;} .parc {fill: rgb(200, 200, 200);} .cp1color {fill: rgb(0, 102, 255);} .cp2color {fill: rgb(0, 100, 200);} .cp3color {fill: rgb(0, 255, 102);} .cp4color {fill: rgb(0, 200, 0);} .cp5color {fill: rgb(255, 255, 0);} .cp6color {fill: rgb(200, 200, 0);} .cp7color {fill: rgb(255, 0, 0);} .cp8color {fill: rgb(200, 0, 0);} .cp9color {fill: rgb(255, 0, 255);} .cp1 {fill: url(#cp1pattern);} .cp2 {fill: url(#cp2pattern);} .cp3 {fill: url(#cp3pattern);} .cp4 {fill: url(#cp4pattern);} .cp5 {fill: url(#cp5pattern);} .cp6 {fill: url(#cp6pattern);} .cp7 {fill: url(#cp7pattern);} .cp8 {fill: url(#cp8pattern);} .cp9 {fill: url(#cp9pattern);} .primaryColor {fill: rgb(0, 255, 102);} </style> <pattern y="0" x="0" height="12" width="12" patternUnits="userSpaceOnUse" id="grid"> <line stroke-width="1" stroke="black" y2="12" x2="12" y1="0" x1="12"></line> <line stroke-width="1" stroke="black" y2="12" x2="12" y1="12" x1="0"></line> </pattern> <pattern y="0" x="0" height="12" width="12" patternUnits="userSpaceOnUse" id="finishPattern"> <rect fill="black" height="12" width="12" y="0" x="0"></rect> <path fill="white" d="M0,0L3,0L3,3L0,3L0,0M6,0L9,0L9,3L6,3L6,0M3,3L6,3L6,6L3,6L3,3M9,3L12,3L12,6L9,6L9,3"></path> <path fill="white" d="M0,6L3,6L3,9L0,9L0,6M6,6L9,6L9,9L6,9L6,6M3,9L6,9L6,12L3,12L3,9M9,9L12,9L12,12L9,12L9,9"></path> </pattern> <pattern y="0" x="0" height="12" width="12" patternUnits="userSpaceOnUse" id="startPattern"> <rect fill="rgb(100,100,100)" height="12" width="12" y="0" x="0"></rect> <rect stroke-width="1" stroke="rgb(200,200,200)" fill="none" height="5" width="5" y="3.5" x="3.5"></rect> &gt; </pattern> <pattern y="0" x="0" height="12" width="12" patternUnits="userSpaceOnUse" id="cp1pattern"> <rect class="cp1color" height="12" width="12" y="0" x="0"></rect> <path fill="black" d="M0,0L3,0L3,3L0,3L0,0M6,0L9,0L9,3L6,3L6,0M3,3L6,3L6,6L3,6L3,3M9,3L12,3L12,6L9,6L9,3"></path> <path fill="black" d="M0,6L3,6L3,9L0,9L0,6M6,6L9,6L9,9L6,9L6,6M3,9L6,9L6,12L3,12L3,9M9,9L12,9L12,12L9,12L9,9"></path> </pattern> <pattern y="0" x="0" height="12" width="12" patternUnits="userSpaceOnUse" id="cp2pattern"> <rect class="cp2color" height="12" width="12" y="0" x="0"></rect> <path fill="white" d="M0,0L3,0L3,3L0,3L0,0M6,0L9,0L9,3L6,3L6,0M3,3L6,3L6,6L3,6L3,3M9,3L12,3L12,6L9,6L9,3"></path> <path fill="white" d="M0,6L3,6L3,9L0,9L0,6M6,6L9,6L9,9L6,9L6,6M3,9L6,9L6,12L3,12L3,9M9,9L12,9L12,12L9,12L9,9"></path> </pattern> <pattern y="0" x="0" height="12" width="12" patternUnits="userSpaceOnUse" id="cp3pattern"> <rect class="cp3color" height="12" width="12" y="0" x="0"></rect> <path fill="black" d="M0,0L3,0L3,3L0,3L0,0M6,0L9,0L9,3L6,3L6,0M3,3L6,3L6,6L3,6L3,3M9,3L12,3L12,6L9,6L9,3"></path> <path fill="black" d="M0,6L3,6L3,9L0,9L0,6M6,6L9,6L9,9L6,9L6,6M3,9L6,9L6,12L3,12L3,9M9,9L12,9L12,12L9,12L9,9"></path> </pattern> <pattern y="0" x="0" height="12" width="12" patternUnits="userSpaceOnUse" id="cp4pattern"> <rect class="cp4color" height="12" width="12" y="0" x="0"></rect> <path fill="white" d="M0,0L3,0L3,3L0,3L0,0M6,0L9,0L9,3L6,3L6,0M3,3L6,3L6,6L3,6L3,3M9,3L12,3L12,6L9,6L9,3"></path> <path fill="white" d="M0,6L3,6L3,9L0,9L0,6M6,6L9,6L9,9L6,9L6,6M3,9L6,9L6,12L3,12L3,9M9,9L12,9L12,12L9,12L9,9"></path> </pattern> <pattern y="0" x="0" height="12" width="12" patternUnits="userSpaceOnUse" id="cp5pattern"> <rect class="cp5color" height="12" width="12" y="0" x="0"></rect> <path fill="black" d="M0,0L3,0L3,3L0,3L0,0M6,0L9,0L9,3L6,3L6,0M3,3L6,3L6,6L3,6L3,3M9,3L12,3L12,6L9,6L9,3"></path> <path fill="black" d="M0,6L3,6L3,9L0,9L0,6M6,6L9,6L9,9L6,9L6,6M3,9L6,9L6,12L3,12L3,9M9,9L12,9L12,12L9,12L9,9"></path> </pattern> <pattern y="0" x="0" height="12" width="12" patternUnits="userSpaceOnUse" id="cp6pattern"> <rect class="cp6color" height="12" width="12" y="0" x="0"></rect> <path fill="white" d="M0,0L3,0L3,3L0,3L0,0M6,0L9,0L9,3L6,3L6,0M3,3L6,3L6,6L3,6L3,3M9,3L12,3L12,6L9,6L9,3"></path> <path fill="white" d="M0,6L3,6L3,9L0,9L0,6M6,6L9,6L9,9L6,9L6,6M3,9L6,9L6,12L3,12L3,9M9,9L12,9L12,12L9,12L9,9"></path> </pattern> <pattern y="0" x="0" height="12" width="12" patternUnits="userSpaceOnUse" id="cp7pattern"> <rect class="cp7color" height="12" width="12" y="0" x="0"></rect> <path fill="black" d="M0,0L3,0L3,3L0,3L0,0M6,0L9,0L9,3L6,3L6,0M3,3L6,3L6,6L3,6L3,3M9,3L12,3L12,6L9,6L9,3"></path> <path fill="black" d="M0,6L3,6L3,9L0,9L0,6M6,6L9,6L9,9L6,9L6,6M3,9L6,9L6,12L3,12L3,9M9,9L12,9L12,12L9,12L9,9"></path> </pattern> <pattern y="0" x="0" height="12" width="12" patternUnits="userSpaceOnUse" id="cp8pattern"> <rect class="cp8color" height="12" width="12" y="0" x="0"></rect> <path fill="white" d="M0,0L3,0L3,3L0,3L0,0M6,0L9,0L9,3L6,3L6,0M3,3L6,3L6,6L3,6L3,3M9,3L12,3L12,6L9,6L9,3"></path> <path fill="white" d="M0,6L3,6L3,9L0,9L0,6M6,6L9,6L9,9L6,9L6,6M3,9L6,9L6,12L3,12L3,9M9,9L12,9L12,12L9,12L9,9"></path> </pattern> <pattern y="0" x="0" height="12" width="12" patternUnits="userSpaceOnUse" id="cp9pattern"> <rect class="cp9color" height="12" width="12" y="0" x="0"></rect> <path fill="black" d="M0,0L3,0L3,3L0,3L0,0M6,0L9,0L9,3L6,3L6,0M3,3L6,3L6,6L3,6L3,3M9,3L12,3L12,6L9,6L9,3"></path> <path fill="black" d="M0,6L3,6L3,9L0,9L0,6M6,6L9,6L9,9L6,9L6,6M3,9L6,9L6,12L3,12L3,9M9,9L12,9L12,12L9,12L9,9"></path> </pattern> </defs> <rect height="100%" width="100%" y="0" x="0" class="road" id="mainfill"></rect> <g id="paths"><path class="cp1" d="M1056,1764L1056,1764L1080,1764L1080,1788L1056,1788Z"></path><path class="cp2" d="M120,1764L120,1764L144,1764L144,1788L120,1788Z"></path><path class="cp3" d="M48,1716L48,1716L72,1716L72,1740L48,1740Z"></path><path class="cp4" d="M108,1668L108,1668L120,1668L120,1704L108,1704Z"></path><path class="cp5" d="M552,780L552,780L576,780L576,792L552,792Z"></path><path class="cp6" d="M660,780L660,780L684,780L684,792L660,792Z"></path><path class="cp7" d="M408,900L408,900L768,900L768,912L708,912L708,924L660,924L660,936L648,936L648,948L636,948L636,972L624,972L624,996L612,996L612,1116L600,1116L600,996L588,996L588,972L576,972L576,948L564,948L564,936L552,936L552,924L504,924L504,912L408,912Z"></path><path class="sand" d="M0,0L0,0L48,0L48,12L36,12L36,24L24,24L24,12L0,12L0,0M156,0L156,0L168,0L168,24L180,24L180,12L192,12L192,0L204,0L204,24L192,24L192,36L204,36L204,60L192,60L192,48L180,48L180,36L168,36L168,60L156,60L156,0M216,0L216,0L252,0L252,12L228,12L228,24L252,24L252,36L228,36L228,48L252,48L252,60L216,60L216,0M264,0L264,0L300,0L300,36L288,36L288,48L276,48L276,60L264,60L264,0M288,12L288,12L276,12L276,24L288,24L288,12M24,24L24,24L24,36L12,36L12,24L24,24M60,12L60,12L72,12L72,48L84,48L84,12L96,12L96,60L60,60L60,12M108,12L108,12L144,12L144,24L120,24L120,48L144,48L144,60L108,60L108,12M12,36L12,36L12,48L48,48L48,60L0,60L0,36L12,36M288,48L288,48L300,48L300,60L288,60L288,48M396,384L396,384L420,384L420,420L432,420L432,432L420,432L420,504L396,504L396,516L384,516L384,528L360,528L360,540L348,540L348,552L324,552L324,564L300,564L300,576L264,576L264,588L240,588L240,600L216,600L216,612L204,612L204,624L156,624L156,552L168,552L168,540L180,540L180,528L204,528L204,516L228,516L228,504L240,504L240,492L264,492L264,480L288,480L288,468L300,468L300,456L312,456L312,444L324,444L324,432L336,432L336,420L348,420L348,408L372,408L372,396L396,396L396,384M432,396L432,396L444,396L444,408L432,408L432,396M720,408L720,408L804,408L804,420L852,420L852,528L804,528L804,516L768,516L768,504L720,504L720,408M444,432L444,432L456,432L456,456L432,456L432,444L444,444L444,432M864,432L864,432L876,432L876,444L864,444L864,432M1128,432L1128,432L1140,432L1140,456L1152,456L1152,468L1164,468L1164,480L1140,480L1140,468L1116,468L1116,444L1128,444L1128,432M1056,456L1056,456L1080,456L1080,468L1092,468L1092,480L1056,480L1056,456M972,468L972,468L1032,468L1032,480L1044,480L1044,504L1020,504L1020,480L1008,480L1008,492L972,492L972,468M1092,480L1092,480L1104,480L1104,504L1092,504L1092,480M1152,504L1152,504L1164,504L1164,516L1176,516L1176,528L1152,528L1152,504M408,516L408,516L432,516L432,612L444,612L444,636L456,636L456,732L444,732L444,708L432,708L432,636L420,636L420,612L408,612L408,576L396,576L396,528L408,528L408,516M732,516L732,516L756,516L756,528L792,528L792,552L780,552L780,648L768,648L768,672L756,672L756,696L744,696L744,732L732,732L732,516M1104,516L1104,516L1116,516L1116,528L1104,528L1104,516M468,576L468,576L480,576L480,588L468,588L468,576M708,576L708,576L720,576L720,600L708,600L708,576M468,636L468,636L480,636L480,648L468,648L468,636M480,756L480,756L504,756L504,792L516,792L516,804L528,804L528,816L540,816L540,852L528,852L528,864L516,864L516,876L528,876L528,888L600,888L600,864L612,864L612,888L696,888L696,876L708,876L708,888L732,888L732,864L720,864L720,816L708,816L708,756L720,756L720,780L732,780L732,816L744,816L744,840L756,840L756,876L768,876L768,900L420,900L420,888L432,888L432,864L444,864L444,852L456,852L456,828L468,828L468,804L480,804L480,756M624,768L624,768L636,768L636,816L624,816L624,792L612,792L612,780L624,780L624,768M612,840L612,840L624,840L624,852L612,852L612,840M660,864L660,864L672,864L672,876L660,876L660,864M408,912L408,912L504,912L504,924L552,924L552,936L564,936L564,948L576,948L576,972L588,972L588,996L600,996L600,1116L588,1116L588,1128L504,1128L504,1140L516,1140L516,1152L528,1152L528,1164L540,1164L540,1152L576,1152L576,1140L588,1140L588,1152L600,1152L600,1200L612,1200L612,1248L624,1248L624,1308L636,1308L636,1404L648,1404L648,1440L660,1440L660,1500L672,1500L672,1644L684,1644L684,1668L660,1668L660,1656L624,1656L624,1644L600,1644L600,1632L576,1632L576,1620L564,1620L564,1608L552,1608L552,1560L540,1560L540,1524L528,1524L528,1488L516,1488L516,1452L504,1452L504,1416L492,1416L492,1392L480,1392L480,1368L468,1368L468,1344L456,1344L456,1308L444,1308L444,1284L432,1284L432,1260L420,1260L420,1236L408,1236L408,1188L396,1188L396,1128L384,1128L384,996L396,996L396,936L408,936L408,912M708,912L708,912L780,912L780,948L792,948L792,996L804,996L804,1056L816,1056L816,1248L804,1248L804,1296L792,1296L792,1356L780,1356L780,1416L768,1416L768,1452L756,1452L756,1536L744,1536L744,1632L756,1632L756,1644L744,1644L744,1656L732,1656L732,1668L696,1668L696,1620L684,1620L684,1464L672,1464L672,1428L660,1428L660,1368L648,1368L648,1272L636,1272L636,1224L624,1224L624,1164L660,1164L660,1176L684,1176L684,1152L660,1152L660,1140L624,1140L624,1128L612,1128L612,996L624,996L624,972L636,972L636,948L648,948L648,936L660,936L660,924L708,924L708,912M684,1116L684,1116L672,1116L672,1128L696,1128L696,1116L684,1116M708,1128L708,1128L696,1128L696,1140L708,1140L708,1152L732,1152L732,1140L720,1140L720,1128L708,1128M732,1176L732,1176L720,1176L720,1188L732,1188L732,1236L744,1236L744,1260L756,1260L756,1188L744,1188L744,1176L732,1176M588,1440L588,1440L576,1440L576,1452L588,1452L588,1476L612,1476L612,1464L600,1464L600,1440L588,1440M720,1464L720,1464L708,1464L708,1476L720,1476L720,1500L732,1500L732,1464L720,1464M624,1488L624,1488L612,1488L612,1512L624,1512L624,1488M636,1512L636,1512L624,1512L624,1524L636,1524L636,1512M564,1536L564,1536L552,1536L552,1548L576,1548L576,1536L564,1536M600,1560L600,1560L588,1560L588,1584L612,1584L612,1596L636,1596L636,1584L624,1584L624,1572L612,1572L612,1560L600,1560M648,1596L648,1596L636,1596L636,1608L648,1608Z"></path><path class="grass" d="M48,0L48,0L156,0L156,60L168,60L168,36L180,36L180,48L192,48L192,60L204,60L204,36L192,36L192,24L204,24L204,0L216,0L216,60L252,60L252,48L228,48L228,36L252,36L252,24L228,24L228,12L252,12L252,0L264,0L264,60L276,60L276,48L288,48L288,36L300,36L300,0L1200,0L1200,1524L1188,1524L1188,444L1176,444L1176,432L1152,432L1152,420L1176,420L1176,408L1140,408L1140,420L1104,420L1104,432L1092,432L1092,420L1068,420L1068,432L972,432L972,420L960,420L960,408L948,408L948,420L900,420L900,408L828,408L828,396L780,396L780,348L792,348L792,324L780,324L780,264L768,264L768,228L756,228L756,204L744,204L744,156L732,156L732,120L720,120L720,96L708,96L708,84L696,84L696,60L672,60L672,48L648,48L648,36L576,36L576,48L552,48L552,60L528,60L528,72L516,72L516,84L504,84L504,120L492,120L492,168L480,168L480,252L468,252L468,324L456,324L456,348L444,348L444,372L396,372L396,384L372,384L372,396L348,396L348,408L324,408L324,420L312,420L312,432L300,432L300,444L288,444L288,456L276,456L276,468L264,468L264,480L240,480L240,492L216,492L216,504L204,504L204,516L168,516L168,528L156,528L156,540L144,540L144,528L120,528L120,540L108,540L108,528L96,528L96,540L24,540L24,504L12,504L12,1476L0,1476L0,60L48,60L48,48L12,48L12,36L0,36L0,12L24,12L24,24L12,24L12,36L24,36L24,24L36,24L36,12L48,12L48,0M72,12L72,12L60,12L60,60L96,60L96,12L84,12L84,48L72,48L72,12M120,12L120,12L108,12L108,60L144,60L144,48L120,48L120,24L144,24L144,12L120,12M168,0L168,0L192,0L192,12L180,12L180,24L168,24L168,0M276,12L276,12L288,12L288,24L276,24L276,12M300,48L300,48L288,48L288,60L300,60L300,48M372,540L372,540L396,540L396,576L408,576L408,612L420,612L420,636L432,636L432,708L444,708L444,732L456,732L456,816L444,816L444,840L432,840L432,852L420,852L420,876L408,876L408,900L396,900L396,924L384,924L384,984L372,984L372,1152L384,1152L384,1200L396,1200L396,1236L408,1236L408,1272L420,1272L420,1296L432,1296L432,1320L444,1320L444,1356L456,1356L456,1368L468,1368L468,1392L480,1392L480,1428L492,1428L492,1452L504,1452L504,1488L516,1488L516,1536L528,1536L528,1572L516,1572L516,1560L504,1560L504,1536L492,1536L492,1524L480,1524L480,1512L468,1512L468,1488L456,1488L456,1476L444,1476L444,1452L432,1452L432,1428L420,1428L420,1404L408,1404L408,1380L396,1380L396,1356L384,1356L384,1320L372,1320L372,1284L360,1284L360,1260L348,1260L348,1236L336,1236L336,1224L324,1224L324,1188L312,1188L312,1164L300,1164L300,1116L288,1116L288,1092L276,1092L276,1044L264,1044L264,1020L252,1020L252,972L240,972L240,936L228,936L228,912L216,912L216,840L204,840L204,792L192,792L192,732L180,732L180,684L168,684L168,636L204,636L204,624L216,624L216,612L240,612L240,600L264,600L264,588L300,588L300,576L324,576L324,564L348,564L348,552L372,552L372,540M792,540L792,540L852,540L852,612L864,612L864,828L876,828L876,1296L864,1296L864,1368L852,1368L852,1428L840,1428L840,1464L828,1464L828,1512L816,1512L816,1548L804,1548L804,1572L792,1572L792,1584L780,1584L780,1620L756,1620L756,1560L768,1560L768,1464L780,1464L780,1416L792,1416L792,1380L804,1380L804,1332L816,1332L816,1272L828,1272L828,1188L840,1188L840,1092L828,1092L828,1032L816,1032L816,960L804,960L804,924L792,924L792,888L780,888L780,852L768,852L768,828L756,828L756,792L744,792L744,696L756,696L756,672L768,672L768,648L780,648L780,552L792,552L792,540M84,576L84,576L96,576L96,600L84,600L84,576M24,588L24,588L36,588L36,612L24,612L24,588M36,636L36,636L48,636L48,744L36,744L36,636M108,732L108,732L120,732L120,756L108,756L108,732M144,768L144,768L156,768L156,804L144,804L144,768M900,768L900,768L912,768L912,780L900,780L900,768M108,780L108,780L132,780L132,840L144,840L144,876L120,876L120,792L108,792L108,780M48,804L48,804L60,804L60,840L48,840L48,804M192,864L192,864L204,864L204,888L192,888L192,864M60,876L60,876L72,876L72,924L60,924L60,876M156,876L156,876L168,876L168,900L180,900L180,984L192,984L192,1044L204,1044L204,1116L192,1116L192,1092L180,1092L180,1080L192,1080L192,1056L180,1056L180,1068L168,1068L168,1044L156,1044L156,948L168,948L168,924L156,924L156,936L144,936L144,912L156,912L156,876M888,888L888,888L900,888L900,936L888,936L888,888M924,888L924,888L936,888L936,900L924,900L924,888M72,948L72,948L84,948L84,996L72,996L72,948M204,948L204,948L216,948L216,984L204,984L204,948M216,984L216,984L228,984L228,1020L216,1020L216,984M888,972L888,972L900,972L900,1032L912,1032L912,1056L900,1056L900,1080L912,1080L912,1116L900,1116L900,1092L888,1092L888,972M108,984L108,984L120,984L120,996L108,996L108,984M120,996L120,996L132,996L132,1032L120,1032L120,996M84,1032L84,1032L96,1032L96,1068L84,1068L84,1032M228,1056L228,1056L240,1056L240,1080L252,1080L252,1092L240,1092L240,1104L252,1104L252,1140L264,1140L264,1152L252,1152L252,1188L240,1188L240,1152L228,1152L228,1056M912,1116L912,1116L924,1116L924,1260L912,1260L912,1140L900,1140L900,1128L912,1128L912,1116M276,1176L276,1176L288,1176L288,1200L300,1200L300,1224L276,1224L276,1176M216,1212L216,1212L228,1212L228,1224L216,1224L216,1212M216,1260L216,1260L228,1260L228,1272L216,1272L216,1260M912,1272L912,1272L924,1272L924,1284L912,1284L912,1272M324,1284L324,1284L336,1284L336,1308L348,1308L348,1320L324,1320L324,1284M240,1296L240,1296L252,1296L252,1308L240,1308L240,1296M276,1308L276,1308L288,1308L288,1320L276,1320L276,1308M324,1320L324,1320L324,1344L312,1344L312,1356L300,1356L300,1332L312,1332L312,1320L324,1320M240,1332L240,1332L252,1332L252,1344L240,1344L240,1332M300,1368L300,1368L324,1368L324,1404L312,1404L312,1392L300,1392L300,1368M348,1368L348,1368L372,1368L372,1404L384,1404L384,1416L348,1416L348,1368M348,1428L348,1428L360,1428L360,1452L348,1452L348,1428M384,1428L384,1428L396,1428L396,1440L408,1440L408,1464L420,1464L420,1476L432,1476L432,1500L444,1500L444,1512L456,1512L456,1536L468,1536L468,1548L480,1548L480,1572L456,1572L456,1548L444,1548L444,1536L432,1536L432,1524L420,1524L420,1500L408,1500L408,1476L396,1476L396,1452L384,1452L384,1428M480,1572L480,1572L492,1572L492,1584L504,1584L504,1596L528,1596L528,1620L516,1620L516,1632L504,1632L504,1608L492,1608L492,1596L480,1596L480,1572M528,1620L528,1620L540,1620L540,1632L528,1632Z"></path><path class="finish" d="M576,36L576,36L648,36L648,48L576,48Z"></path><path class="start" d="M12,504L12,504L24,504L24,516L12,516L12,504M1020,504L1020,504L1044,504L1044,516L1020,516L1020,504M1104,528L1104,528L1116,528L1116,540L1104,540L1104,528M1152,528L1152,528L1176,528L1176,540L1152,540L1152,528M24,540L24,540L96,540L96,552L24,552Z"></path><path class="mud" d="M1116,588L1116,588L1164,588L1164,648L1116,648L1116,588M1140,600L1140,600L1128,600L1128,624L1140,624L1140,636L1152,636L1152,600L1140,600M1116,672L1116,672L1128,672L1128,684L1140,684L1140,708L1152,708L1152,720L1164,720L1164,744L1152,744L1152,732L1128,732L1128,744L1116,744L1116,720L1128,720L1128,696L1116,696L1116,672M1116,768L1116,768L1164,768L1164,840L1116,840L1116,768M1140,792L1140,792L1128,792L1128,816L1152,816L1152,792L1140,792M1092,864L1092,864L1128,864L1128,900L1140,900L1140,876L1152,876L1152,864L1164,864L1164,888L1152,888L1152,900L1140,900L1140,912L1164,912L1164,924L1092,924L1092,888L1080,888L1080,876L1092,876L1092,864M1116,888L1116,888L1104,888L1104,912L1116,912L1116,888M1092,972L1092,972L1104,972L1104,1020L1116,1020L1116,972L1152,972L1152,984L1164,984L1164,1032L1152,1032L1152,1044L1140,1044L1140,996L1128,996L1128,1044L1092,1044L1092,996L1080,996L1080,984L1092,984L1092,972M1068,1080L1068,1080L1092,1080L1092,1104L1068,1104L1068,1080M1104,1080L1104,1080L1164,1080L1164,1104L1104,1104L1104,1080M1104,1128L1104,1128L1152,1128L1152,1140L1164,1140L1164,1188L1152,1188L1152,1200L1104,1200L1104,1176L1140,1176L1140,1152L1104,1152L1104,1128M1140,1224L1140,1224L1164,1224L1164,1272L1152,1272L1152,1284L1080,1284L1080,1272L1140,1272L1140,1224M60,1452L60,1452L72,1452L72,1464L60,1464L60,1452M0,1476L0,1476L84,1476L84,1488L96,1488L96,1536L108,1536L108,1584L120,1584L120,1608L132,1608L132,1620L120,1620L120,1632L132,1632L132,1656L144,1656L144,1668L48,1668L48,1788L312,1788L312,1800L300,1800L300,1812L372,1812L372,1800L384,1800L384,1776L396,1776L396,1764L420,1764L420,1776L432,1776L432,1788L444,1788L444,1800L480,1800L480,1812L504,1812L504,1824L612,1824L612,1812L684,1812L684,1800L732,1800L732,1788L756,1788L756,1776L780,1776L780,1764L816,1764L816,1752L840,1752L840,1776L864,1776L864,1800L888,1800L888,1788L900,1788L900,1800L948,1800L948,1788L1104,1788L1104,1800L1140,1800L1140,1692L1164,1692L1164,1680L1128,1680L1128,1668L1164,1668L1164,1680L1176,1680L1176,1656L1164,1656L1164,1644L1176,1644L1176,1620L1164,1620L1164,1608L1176,1608L1176,1596L1188,1596L1188,1524L1200,1524L1200,1836L12,1836L12,1788L0,1788L0,1476M312,1560L312,1560L324,1560L324,1572L312,1572L312,1560M156,1572L156,1572L168,1572L168,1596L156,1596L156,1572M240,1584L240,1584L252,1584L252,1596L240,1596L240,1584M324,1584L324,1584L336,1584L336,1620L348,1620L348,1644L360,1644L360,1668L348,1668L348,1656L336,1656L336,1632L324,1632L324,1584M888,1620L888,1620L900,1620L900,1644L876,1644L876,1632L888,1632L888,1620M1140,1632L1140,1632L1152,1632L1152,1644L1140,1644L1140,1632M240,1680L240,1680L252,1680L252,1692L240,1692L240,1680M468,1680L468,1680L480,1680L480,1692L468,1692L468,1680M732,1692L732,1692L744,1692L744,1704L732,1704L732,1692M72,1704L72,1704L168,1704L168,1728L192,1728L192,1740L204,1740L204,1728L264,1728L264,1740L288,1740L288,1752L300,1752L300,1764L72,1764L72,1704M1020,1716L1020,1716L1104,1716L1104,1764L984,1764L984,1752L1008,1752L1008,1728L1020,1728L1020,1716M480,1728L480,1728L492,1728L492,1740L504,1740L504,1752L528,1752L528,1776L516,1776L516,1764L492,1764L492,1752L480,1752L480,1728M660,1740L660,1740L720,1740L720,1752L660,1752L660,1740M564,1752L564,1752L576,1752L576,1764L564,1764L564,1752M588,1764L588,1764L600,1764L600,1776L588,1776Z"></path><path class="parc" d="M0,1788L0,1788L12,1788L12,1836L0,1836Z"></path></g> <rect opacity=".3" fill="url(#grid)" height="100%" width="100%" y="0" x="0"></rect></svg>