<svg height="864" width="1356" id="mapSvgView" xmlns:xlink="http://www.w3.org/1999/xlink" version="1.1" xmlns="http://www.w3.org/2000/svg"> <defs> <style type="text/css"> .grass {fill: rgb(0, 200, 0);} .road {fill: rgb(128, 128, 128);} .start {fill: url(#startPattern)} .finish {fill: url(#finishPattern)} .mud {fill: rgb(100, 70, 0);} .sand {fill: rgb(230, 230, 115);} .water {fill: blue;} .earth {fill: brown;} .night {fill: black;} .parc {fill: rgb(200, 200, 200);} .cp1color {fill: rgb(0, 102, 255);} .cp2color {fill: rgb(0, 100, 200);} .cp3color {fill: rgb(0, 255, 102);} .cp4color {fill: rgb(0, 200, 0);} .cp5color {fill: rgb(255, 255, 0);} .cp6color {fill: rgb(200, 200, 0);} .cp7color {fill: rgb(255, 0, 0);} .cp8color {fill: rgb(200, 0, 0);} .cp9color {fill: rgb(255, 0, 255);} .cp1 {fill: url(#cp1pattern);} .cp2 {fill: url(#cp2pattern);} .cp3 {fill: url(#cp3pattern);} .cp4 {fill: url(#cp4pattern);} .cp5 {fill: url(#cp5pattern);} .cp6 {fill: url(#cp6pattern);} .cp7 {fill: url(#cp7pattern);} .cp8 {fill: url(#cp8pattern);} .cp9 {fill: url(#cp9pattern);} .primaryColor {fill: rgb(0, 255, 102);} </style> <pattern y="0" x="0" height="12" width="12" patternUnits="userSpaceOnUse" id="grid"> <line stroke-width="1" stroke="black" y2="12" x2="12" y1="0" x1="12"></line> <line stroke-width="1" stroke="black" y2="12" x2="12" y1="12" x1="0"></line> </pattern> <pattern y="0" x="0" height="12" width="12" patternUnits="userSpaceOnUse" id="finishPattern"> <rect fill="black" height="12" width="12" y="0" x="0"></rect> <path fill="white" d="M0,0L3,0L3,3L0,3L0,0M6,0L9,0L9,3L6,3L6,0M3,3L6,3L6,6L3,6L3,3M9,3L12,3L12,6L9,6L9,3"></path> <path fill="white" d="M0,6L3,6L3,9L0,9L0,6M6,6L9,6L9,9L6,9L6,6M3,9L6,9L6,12L3,12L3,9M9,9L12,9L12,12L9,12L9,9"></path> </pattern> <pattern y="0" x="0" height="12" width="12" patternUnits="userSpaceOnUse" id="startPattern"> <rect fill="rgb(100,100,100)" height="12" width="12" y="0" x="0"></rect> <rect stroke-width="1" stroke="rgb(200,200,200)" fill="none" height="5" width="5" y="3.5" x="3.5"></rect> &gt; </pattern> <pattern y="0" x="0" height="12" width="12" patternUnits="userSpaceOnUse" id="cp1pattern"> <rect class="cp1color" height="12" width="12" y="0" x="0"></rect> <path fill="black" d="M0,0L3,0L3,3L0,3L0,0M6,0L9,0L9,3L6,3L6,0M3,3L6,3L6,6L3,6L3,3M9,3L12,3L12,6L9,6L9,3"></path> <path fill="black" d="M0,6L3,6L3,9L0,9L0,6M6,6L9,6L9,9L6,9L6,6M3,9L6,9L6,12L3,12L3,9M9,9L12,9L12,12L9,12L9,9"></path> </pattern> <pattern y="0" x="0" height="12" width="12" patternUnits="userSpaceOnUse" id="cp2pattern"> <rect class="cp2color" height="12" width="12" y="0" x="0"></rect> <path fill="white" d="M0,0L3,0L3,3L0,3L0,0M6,0L9,0L9,3L6,3L6,0M3,3L6,3L6,6L3,6L3,3M9,3L12,3L12,6L9,6L9,3"></path> <path fill="white" d="M0,6L3,6L3,9L0,9L0,6M6,6L9,6L9,9L6,9L6,6M3,9L6,9L6,12L3,12L3,9M9,9L12,9L12,12L9,12L9,9"></path> </pattern> <pattern y="0" x="0" height="12" width="12" patternUnits="userSpaceOnUse" id="cp3pattern"> <rect class="cp3color" height="12" width="12" y="0" x="0"></rect> <path fill="black" d="M0,0L3,0L3,3L0,3L0,0M6,0L9,0L9,3L6,3L6,0M3,3L6,3L6,6L3,6L3,3M9,3L12,3L12,6L9,6L9,3"></path> <path fill="black" d="M0,6L3,6L3,9L0,9L0,6M6,6L9,6L9,9L6,9L6,6M3,9L6,9L6,12L3,12L3,9M9,9L12,9L12,12L9,12L9,9"></path> </pattern> <pattern y="0" x="0" height="12" width="12" patternUnits="userSpaceOnUse" id="cp4pattern"> <rect class="cp4color" height="12" width="12" y="0" x="0"></rect> <path fill="white" d="M0,0L3,0L3,3L0,3L0,0M6,0L9,0L9,3L6,3L6,0M3,3L6,3L6,6L3,6L3,3M9,3L12,3L12,6L9,6L9,3"></path> <path fill="white" d="M0,6L3,6L3,9L0,9L0,6M6,6L9,6L9,9L6,9L6,6M3,9L6,9L6,12L3,12L3,9M9,9L12,9L12,12L9,12L9,9"></path> </pattern> <pattern y="0" x="0" height="12" width="12" patternUnits="userSpaceOnUse" id="cp5pattern"> <rect class="cp5color" height="12" width="12" y="0" x="0"></rect> <path fill="black" d="M0,0L3,0L3,3L0,3L0,0M6,0L9,0L9,3L6,3L6,0M3,3L6,3L6,6L3,6L3,3M9,3L12,3L12,6L9,6L9,3"></path> <path fill="black" d="M0,6L3,6L3,9L0,9L0,6M6,6L9,6L9,9L6,9L6,6M3,9L6,9L6,12L3,12L3,9M9,9L12,9L12,12L9,12L9,9"></path> </pattern> <pattern y="0" x="0" height="12" width="12" patternUnits="userSpaceOnUse" id="cp6pattern"> <rect class="cp6color" height="12" width="12" y="0" x="0"></rect> <path fill="white" d="M0,0L3,0L3,3L0,3L0,0M6,0L9,0L9,3L6,3L6,0M3,3L6,3L6,6L3,6L3,3M9,3L12,3L12,6L9,6L9,3"></path> <path fill="white" d="M0,6L3,6L3,9L0,9L0,6M6,6L9,6L9,9L6,9L6,6M3,9L6,9L6,12L3,12L3,9M9,9L12,9L12,12L9,12L9,9"></path> </pattern> <pattern y="0" x="0" height="12" width="12" patternUnits="userSpaceOnUse" id="cp7pattern"> <rect class="cp7color" height="12" width="12" y="0" x="0"></rect> <path fill="black" d="M0,0L3,0L3,3L0,3L0,0M6,0L9,0L9,3L6,3L6,0M3,3L6,3L6,6L3,6L3,3M9,3L12,3L12,6L9,6L9,3"></path> <path fill="black" d="M0,6L3,6L3,9L0,9L0,6M6,6L9,6L9,9L6,9L6,6M3,9L6,9L6,12L3,12L3,9M9,9L12,9L12,12L9,12L9,9"></path> </pattern> <pattern y="0" x="0" height="12" width="12" patternUnits="userSpaceOnUse" id="cp8pattern"> <rect class="cp8color" height="12" width="12" y="0" x="0"></rect> <path fill="white" d="M0,0L3,0L3,3L0,3L0,0M6,0L9,0L9,3L6,3L6,0M3,3L6,3L6,6L3,6L3,3M9,3L12,3L12,6L9,6L9,3"></path> <path fill="white" d="M0,6L3,6L3,9L0,9L0,6M6,6L9,6L9,9L6,9L6,6M3,9L6,9L6,12L3,12L3,9M9,9L12,9L12,12L9,12L9,9"></path> </pattern> <pattern y="0" x="0" height="12" width="12" patternUnits="userSpaceOnUse" id="cp9pattern"> <rect class="cp9color" height="12" width="12" y="0" x="0"></rect> <path fill="black" d="M0,0L3,0L3,3L0,3L0,0M6,0L9,0L9,3L6,3L6,0M3,3L6,3L6,6L3,6L3,3M9,3L12,3L12,6L9,6L9,3"></path> <path fill="black" d="M0,6L3,6L3,9L0,9L0,6M6,6L9,6L9,9L6,9L6,6M3,9L6,9L6,12L3,12L3,9M9,9L12,9L12,12L9,12L9,9"></path> </pattern> </defs> <rect height="100%" width="100%" y="0" x="0" class="grass" id="mainfill"></rect> <g id="paths"><path class="cp1" d="M300,240L300,240L360,240L360,252L300,252Z"></path><path class="cp2" d="M420,240L420,240L480,240L480,252L420,252Z"></path><path class="cp3" d="M588,240L588,240L648,240L648,252L588,252Z"></path><path class="cp4" d="M708,240L708,240L768,240L768,252L708,252Z"></path><path class="cp5" d="M876,240L876,240L936,240L936,252L876,252Z"></path><path class="cp6" d="M996,240L996,240L1056,240L1056,252L996,252Z"></path><path class="parc" d="M0,0L0,0L12,0L12,120L0,120Z"></path><path class="road" d="M180,12L180,12L324,12L324,24L348,24L348,36L372,36L372,48L396,48L396,60L408,60L408,72L420,72L420,84L432,84L432,96L444,96L444,120L456,120L456,144L468,144L468,180L480,180L480,240L420,240L420,204L408,204L408,168L396,168L396,156L384,156L384,168L372,168L372,204L360,204L360,240L300,240L300,168L312,168L312,144L324,144L324,120L336,120L336,96L312,96L312,84L288,84L288,72L204,72L204,84L168,84L168,96L144,96L144,108L132,108L132,120L120,120L120,132L108,132L108,144L96,144L96,168L84,168L84,204L72,204L72,288L84,288L84,324L96,324L96,348L108,348L108,360L120,360L120,372L132,372L132,384L144,384L144,396L168,396L168,408L204,408L204,420L300,420L300,408L324,408L324,480L312,480L312,420L300,420L300,480L264,480L264,492L228,492L228,480L156,480L156,468L132,468L132,456L120,456L120,444L96,444L96,432L84,432L84,420L72,420L72,408L60,408L60,396L48,396L48,372L36,372L36,348L24,348L24,324L12,324L12,168L24,168L24,144L36,144L36,120L48,120L48,96L60,96L60,84L72,84L72,72L84,72L84,60L96,60L96,48L120,48L120,36L132,36L132,24L180,24L180,12M456,12L456,12L600,12L600,24L636,24L636,36L648,36L648,48L636,48L636,60L624,60L624,72L612,72L612,84L576,84L576,72L492,72L492,84L456,84L456,72L444,72L444,60L432,60L432,48L420,48L420,36L432,36L432,24L456,24L456,12M756,12L756,12L888,12L888,24L936,24L936,36L948,36L948,48L972,48L972,60L984,60L984,72L996,72L996,84L1008,84L1008,96L1020,96L1020,120L1032,120L1032,144L1044,144L1044,168L1056,168L1056,240L996,240L996,204L984,204L984,168L972,168L972,156L960,156L960,168L948,168L948,204L936,204L936,240L876,240L876,180L888,180L888,156L900,156L900,120L912,120L912,96L888,96L888,84L864,84L864,72L780,72L780,84L744,84L744,96L732,96L732,120L744,120L744,144L756,144L756,168L768,168L768,240L708,240L708,204L696,204L696,168L684,168L684,156L672,156L672,168L660,168L660,204L648,204L648,240L588,240L588,180L600,180L600,144L612,144L612,120L624,120L624,96L636,96L636,84L648,84L648,72L660,72L660,60L672,60L672,48L696,48L696,36L720,36L720,24L756,24L756,12M1032,12L1032,12L1176,12L1176,24L1224,24L1224,36L1236,36L1236,48L1260,48L1260,60L1272,60L1272,72L1284,72L1284,84L1296,84L1296,108L1308,108L1308,120L1320,120L1320,144L1332,144L1332,168L1344,168L1344,324L1332,324L1332,348L1320,348L1320,372L1308,372L1308,384L1296,384L1296,408L1284,408L1284,432L1260,432L1260,444L1236,444L1236,456L1224,456L1224,468L1188,468L1188,480L1128,480L1128,492L1092,492L1092,480L1032,480L1032,468L996,468L996,456L984,456L984,444L972,444L972,432L960,432L960,420L948,420L948,408L936,408L936,396L924,396L924,384L912,384L912,372L900,372L900,348L888,348L888,312L876,312L876,252L936,252L936,276L948,276L948,324L960,324L960,336L972,336L972,324L984,324L984,300L996,300L996,252L1056,252L1056,324L1044,324L1044,348L1032,348L1032,372L1020,372L1020,396L1032,396L1032,408L1068,408L1068,420L1152,420L1152,408L1188,408L1188,396L1212,396L1212,384L1224,384L1224,372L1236,372L1236,360L1248,360L1248,348L1260,348L1260,324L1272,324L1272,288L1284,288L1284,204L1272,204L1272,168L1260,168L1260,156L1248,156L1248,132L1236,132L1236,120L1224,120L1224,108L1212,108L1212,96L1188,96L1188,84L1152,84L1152,72L1068,72L1068,84L1056,84L1056,72L1044,72L1044,60L1032,60L1032,48L1020,48L1020,36L1008,36L1008,24L1032,24L1032,12M300,252L300,252L360,252L360,288L372,288L372,324L384,324L384,336L396,336L396,324L408,324L408,288L420,288L420,252L480,252L480,324L468,324L468,348L456,348L456,372L444,372L444,384L432,384L432,396L456,396L456,408L492,408L492,420L588,420L588,408L612,408L612,396L636,396L636,384L624,384L624,372L612,372L612,348L600,348L600,324L588,324L588,252L648,252L648,288L660,288L660,324L672,324L672,336L684,336L684,324L696,324L696,288L708,288L708,252L768,252L768,324L756,324L756,348L744,348L744,372L732,372L732,384L720,384L720,396L708,396L708,408L696,408L696,420L684,420L684,432L672,432L672,444L660,444L660,456L648,456L648,468L612,468L612,480L552,480L552,492L516,492L516,480L444,480L444,468L420,468L420,456L408,456L408,444L396,444L396,432L384,432L384,420L372,420L372,408L360,408L360,396L348,396L348,384L336,384L336,372L324,372L324,348L312,348L312,324L300,324L300,252M732,408L732,408L780,408L780,420L876,420L876,408L912,408L912,420L936,420L936,432L948,432L948,456L936,456L936,468L900,468L900,480L840,480L840,492L804,492L804,480L744,480L744,468L708,468L708,456L696,456L696,444L708,444L708,432L720,432L720,420L732,420L732,408M336,420L336,420L348,420L348,432L360,432L360,444L372,444L372,456L360,456L360,468L336,468L336,420M168,588L168,588L276,588L276,600L288,600L288,624L312,624L312,648L324,648L324,672L336,672L336,696L348,696L348,708L360,708L360,732L372,732L372,744L384,744L384,768L396,768L396,780L408,780L408,648L492,648L492,768L504,768L504,780L516,780L516,792L540,792L540,780L564,780L564,660L576,660L576,648L648,648L648,792L636,792L636,816L624,816L624,828L600,828L600,840L456,840L456,828L432,828L432,840L336,840L336,828L324,828L324,804L168,804L168,816L156,816L156,828L144,828L144,840L60,840L60,816L72,816L72,792L84,792L84,780L96,780L96,756L108,756L108,744L120,744L120,720L132,720L132,708L144,708L144,684L156,684L156,672L168,672L168,648L180,648L180,624L192,624L192,612L180,612L180,600L168,600L168,588M756,588L756,588L852,588L852,600L864,600L864,612L876,612L876,636L888,636L888,648L900,648L900,660L912,660L912,672L924,672L924,696L936,696L936,792L924,792L924,804L912,804L912,816L900,816L900,828L876,828L876,840L720,840L720,828L696,828L696,816L684,816L684,804L672,804L672,792L660,792L660,696L672,696L672,684L684,684L684,672L708,672L708,660L732,660L732,648L792,648L792,636L780,636L780,624L768,624L768,600L756,600L756,588M960,648L960,648L1032,648L1032,840L948,840L948,660L960,660L960,648M252,684L252,684L240,684L240,696L228,696L228,708L216,708L216,732L204,732L204,744L276,744L276,732L264,732L264,708L252,708L252,684M780,708L780,708L768,708L768,720L744,720L744,768L756,768L756,780L780,780L780,792L816,792L816,780L840,780L840,768L852,768L852,756L864,756L864,732L852,732L852,720L840,720L840,708L780,708M1176,696L1176,696L1248,696L1248,840L1200,840L1200,828L1224,828L1224,816L1236,816L1236,708L1200,708L1200,720L1188,720L1188,732L1176,732L1176,696M1272,696L1272,696L1344,696L1344,732L1332,732L1332,720L1320,720L1320,708L1284,708L1284,816L1296,816L1296,828L1320,828L1320,840L1272,840L1272,696M420,780L420,780L408,780L408,804L420,804Z"></path><path class="finish" d="M996,36L996,36L1020,36L1020,48L1032,48L1032,60L1044,60L1044,72L1056,72L1056,84L1032,84L1032,72L1020,72L1020,60L1008,60L1008,48L996,48Z"></path><path class="start" d="M324,408L324,408L336,408L336,468L324,468L324,408M300,420L300,420L312,420L312,480L300,480Z"></path></g> <rect opacity=".3" fill="url(#grid)" height="100%" width="100%" y="0" x="0"></rect></svg>