<svg height="1068" width="1080" id="mapSvgView" xmlns:xlink="http://www.w3.org/1999/xlink" version="1.1" xmlns="http://www.w3.org/2000/svg"> <defs> <style type="text/css"> .grass {fill: rgb(0, 200, 0);} .road {fill: rgb(128, 128, 128);} .start {fill: url(#startPattern)} .finish {fill: url(#finishPattern)} .mud {fill: rgb(100, 70, 0);} .sand {fill: rgb(230, 230, 115);} .water {fill: blue;} .earth {fill: brown;} .night {fill: black;} .parc {fill: rgb(200, 200, 200);} .cp1color {fill: rgb(0, 102, 255);} .cp2color {fill: rgb(0, 100, 200);} .cp3color {fill: rgb(0, 255, 102);} .cp4color {fill: rgb(0, 200, 0);} .cp5color {fill: rgb(255, 255, 0);} .cp6color {fill: rgb(200, 200, 0);} .cp7color {fill: rgb(255, 0, 0);} .cp8color {fill: rgb(200, 0, 0);} .cp9color {fill: rgb(255, 0, 255);} .cp1 {fill: url(#cp1pattern);} .cp2 {fill: url(#cp2pattern);} .cp3 {fill: url(#cp3pattern);} .cp4 {fill: url(#cp4pattern);} .cp5 {fill: url(#cp5pattern);} .cp6 {fill: url(#cp6pattern);} .cp7 {fill: url(#cp7pattern);} .cp8 {fill: url(#cp8pattern);} .cp9 {fill: url(#cp9pattern);} .primaryColor {fill: rgb(0, 255, 102);} </style> <pattern y="0" x="0" height="12" width="12" patternUnits="userSpaceOnUse" id="grid"> <line stroke-width="1" stroke="black" y2="12" x2="12" y1="0" x1="12"></line> <line stroke-width="1" stroke="black" y2="12" x2="12" y1="12" x1="0"></line> </pattern> <pattern y="0" x="0" height="12" width="12" patternUnits="userSpaceOnUse" id="finishPattern"> <rect fill="black" height="12" width="12" y="0" x="0"></rect> <path fill="white" d="M0,0L3,0L3,3L0,3L0,0M6,0L9,0L9,3L6,3L6,0M3,3L6,3L6,6L3,6L3,3M9,3L12,3L12,6L9,6L9,3"></path> <path fill="white" d="M0,6L3,6L3,9L0,9L0,6M6,6L9,6L9,9L6,9L6,6M3,9L6,9L6,12L3,12L3,9M9,9L12,9L12,12L9,12L9,9"></path> </pattern> <pattern y="0" x="0" height="12" width="12" patternUnits="userSpaceOnUse" id="startPattern"> <rect fill="rgb(100,100,100)" height="12" width="12" y="0" x="0"></rect> <rect stroke-width="1" stroke="rgb(200,200,200)" fill="none" height="5" width="5" y="3.5" x="3.5"></rect> &gt; </pattern> <pattern y="0" x="0" height="12" width="12" patternUnits="userSpaceOnUse" id="cp1pattern"> <rect class="cp1color" height="12" width="12" y="0" x="0"></rect> <path fill="black" d="M0,0L3,0L3,3L0,3L0,0M6,0L9,0L9,3L6,3L6,0M3,3L6,3L6,6L3,6L3,3M9,3L12,3L12,6L9,6L9,3"></path> <path fill="black" d="M0,6L3,6L3,9L0,9L0,6M6,6L9,6L9,9L6,9L6,6M3,9L6,9L6,12L3,12L3,9M9,9L12,9L12,12L9,12L9,9"></path> </pattern> <pattern y="0" x="0" height="12" width="12" patternUnits="userSpaceOnUse" id="cp2pattern"> <rect class="cp2color" height="12" width="12" y="0" x="0"></rect> <path fill="white" d="M0,0L3,0L3,3L0,3L0,0M6,0L9,0L9,3L6,3L6,0M3,3L6,3L6,6L3,6L3,3M9,3L12,3L12,6L9,6L9,3"></path> <path fill="white" d="M0,6L3,6L3,9L0,9L0,6M6,6L9,6L9,9L6,9L6,6M3,9L6,9L6,12L3,12L3,9M9,9L12,9L12,12L9,12L9,9"></path> </pattern> <pattern y="0" x="0" height="12" width="12" patternUnits="userSpaceOnUse" id="cp3pattern"> <rect class="cp3color" height="12" width="12" y="0" x="0"></rect> <path fill="black" d="M0,0L3,0L3,3L0,3L0,0M6,0L9,0L9,3L6,3L6,0M3,3L6,3L6,6L3,6L3,3M9,3L12,3L12,6L9,6L9,3"></path> <path fill="black" d="M0,6L3,6L3,9L0,9L0,6M6,6L9,6L9,9L6,9L6,6M3,9L6,9L6,12L3,12L3,9M9,9L12,9L12,12L9,12L9,9"></path> </pattern> <pattern y="0" x="0" height="12" width="12" patternUnits="userSpaceOnUse" id="cp4pattern"> <rect class="cp4color" height="12" width="12" y="0" x="0"></rect> <path fill="white" d="M0,0L3,0L3,3L0,3L0,0M6,0L9,0L9,3L6,3L6,0M3,3L6,3L6,6L3,6L3,3M9,3L12,3L12,6L9,6L9,3"></path> <path fill="white" d="M0,6L3,6L3,9L0,9L0,6M6,6L9,6L9,9L6,9L6,6M3,9L6,9L6,12L3,12L3,9M9,9L12,9L12,12L9,12L9,9"></path> </pattern> <pattern y="0" x="0" height="12" width="12" patternUnits="userSpaceOnUse" id="cp5pattern"> <rect class="cp5color" height="12" width="12" y="0" x="0"></rect> <path fill="black" d="M0,0L3,0L3,3L0,3L0,0M6,0L9,0L9,3L6,3L6,0M3,3L6,3L6,6L3,6L3,3M9,3L12,3L12,6L9,6L9,3"></path> <path fill="black" d="M0,6L3,6L3,9L0,9L0,6M6,6L9,6L9,9L6,9L6,6M3,9L6,9L6,12L3,12L3,9M9,9L12,9L12,12L9,12L9,9"></path> </pattern> <pattern y="0" x="0" height="12" width="12" patternUnits="userSpaceOnUse" id="cp6pattern"> <rect class="cp6color" height="12" width="12" y="0" x="0"></rect> <path fill="white" d="M0,0L3,0L3,3L0,3L0,0M6,0L9,0L9,3L6,3L6,0M3,3L6,3L6,6L3,6L3,3M9,3L12,3L12,6L9,6L9,3"></path> <path fill="white" d="M0,6L3,6L3,9L0,9L0,6M6,6L9,6L9,9L6,9L6,6M3,9L6,9L6,12L3,12L3,9M9,9L12,9L12,12L9,12L9,9"></path> </pattern> <pattern y="0" x="0" height="12" width="12" patternUnits="userSpaceOnUse" id="cp7pattern"> <rect class="cp7color" height="12" width="12" y="0" x="0"></rect> <path fill="black" d="M0,0L3,0L3,3L0,3L0,0M6,0L9,0L9,3L6,3L6,0M3,3L6,3L6,6L3,6L3,3M9,3L12,3L12,6L9,6L9,3"></path> <path fill="black" d="M0,6L3,6L3,9L0,9L0,6M6,6L9,6L9,9L6,9L6,6M3,9L6,9L6,12L3,12L3,9M9,9L12,9L12,12L9,12L9,9"></path> </pattern> <pattern y="0" x="0" height="12" width="12" patternUnits="userSpaceOnUse" id="cp8pattern"> <rect class="cp8color" height="12" width="12" y="0" x="0"></rect> <path fill="white" d="M0,0L3,0L3,3L0,3L0,0M6,0L9,0L9,3L6,3L6,0M3,3L6,3L6,6L3,6L3,3M9,3L12,3L12,6L9,6L9,3"></path> <path fill="white" d="M0,6L3,6L3,9L0,9L0,6M6,6L9,6L9,9L6,9L6,6M3,9L6,9L6,12L3,12L3,9M9,9L12,9L12,12L9,12L9,9"></path> </pattern> <pattern y="0" x="0" height="12" width="12" patternUnits="userSpaceOnUse" id="cp9pattern"> <rect class="cp9color" height="12" width="12" y="0" x="0"></rect> <path fill="black" d="M0,0L3,0L3,3L0,3L0,0M6,0L9,0L9,3L6,3L6,0M3,3L6,3L6,6L3,6L3,3M9,3L12,3L12,6L9,6L9,3"></path> <path fill="black" d="M0,6L3,6L3,9L0,9L0,6M6,6L9,6L9,9L6,9L6,6M3,9L6,9L6,12L3,12L3,9M9,9L12,9L12,12L9,12L9,9"></path> </pattern> </defs> <rect height="100%" width="100%" y="0" x="0" class="grass" id="mainfill"></rect> <g id="paths"><path class="cp1" d="M216,360L216,360L228,360L228,372L240,372L240,408L228,408L228,420L216,420Z"></path><path class="cp2" d="M384,756L384,756L396,756L396,768L408,768L408,804L396,804L396,792L384,792L384,780L372,780L372,768L384,768Z"></path><path class="cp3" d="M792,720L792,720L804,720L804,732L816,732L816,744L804,744L804,756L792,756L792,744L780,744L780,732L792,732Z"></path><path class="cp4" d="M888,312L888,312L900,312L900,360L876,360L876,324L888,324Z"></path><path class="cp5" d="M516,120L516,120L576,120L576,132L564,132L564,144L540,144L540,132L516,132Z"></path><path class="parc" d="M0,0L0,0L12,0L12,336L0,336Z"></path><path class="road" d="M456,12L456,12L624,12L624,24L672,24L672,36L720,36L720,48L744,48L744,60L768,60L768,72L792,72L792,84L816,84L816,96L840,96L840,108L852,108L852,120L864,120L864,132L876,132L876,144L900,144L900,156L912,156L912,168L924,168L924,180L936,180L936,204L948,204L948,216L960,216L960,228L972,228L972,252L984,252L984,264L996,264L996,288L1008,288L1008,312L1020,312L1020,348L1032,348L1032,372L1044,372L1044,420L1056,420L1056,492L1068,492L1068,588L1056,588L1056,660L1044,660L1044,696L1032,696L1032,732L1020,732L1020,756L1008,756L1008,780L996,780L996,804L984,804L984,828L972,828L972,840L960,840L960,852L948,852L948,864L936,864L936,888L924,888L924,900L912,900L912,912L900,912L900,924L888,924L888,936L864,936L864,948L852,948L852,960L840,960L840,972L816,972L816,984L792,984L792,996L768,996L768,1008L744,1008L744,1020L708,1020L708,1032L660,1032L660,1044L600,1044L600,1056L504,1056L504,1044L420,1044L420,1032L372,1032L372,1020L348,1020L348,1008L312,1008L312,996L288,996L288,984L276,984L276,972L252,972L252,960L228,960L228,948L216,948L216,936L204,936L204,924L192,924L192,912L180,912L180,900L168,900L168,888L156,888L156,876L144,876L144,864L132,864L132,852L120,852L120,840L108,840L108,816L96,816L96,804L84,804L84,780L72,780L72,756L60,756L60,732L48,732L48,696L36,696L36,660L24,660L24,600L12,600L12,456L24,456L24,396L36,396L36,360L48,360L48,324L60,324L60,300L72,300L72,276L84,276L84,264L96,264L96,240L108,240L108,228L120,228L120,204L132,204L132,192L144,192L144,180L156,180L156,168L168,168L168,156L180,156L180,144L192,144L192,132L204,132L204,120L228,120L228,108L240,108L240,96L264,96L264,84L276,84L276,72L300,72L300,60L324,60L324,48L360,48L360,36L396,36L396,24L456,24L456,12M696,72L696,72L684,72L684,84L648,84L648,96L624,96L624,108L600,108L600,120L480,120L480,108L420,108L420,96L372,96L372,108L348,108L348,120L324,120L324,132L312,132L312,144L300,144L300,156L288,156L288,168L276,168L276,180L264,180L264,192L252,192L252,204L240,204L240,216L228,216L228,228L216,228L216,288L228,288L228,360L216,360L216,444L204,444L204,456L192,456L192,480L180,480L180,492L168,492L168,516L156,516L156,540L144,540L144,564L132,564L132,576L144,576L144,624L156,624L156,660L168,660L168,696L180,696L180,720L192,720L192,744L216,744L216,756L276,756L276,768L372,768L372,780L384,780L384,792L396,792L396,804L420,804L420,828L432,828L432,852L444,852L444,864L456,864L456,888L468,888L468,900L480,900L480,912L492,912L492,924L504,924L504,936L576,936L576,924L660,924L660,912L696,912L696,900L708,900L708,876L720,876L720,864L732,864L732,840L744,840L744,828L756,828L756,804L768,804L768,780L780,780L780,756L804,756L804,744L816,744L816,732L852,732L852,720L888,720L888,708L924,708L924,696L948,696L948,684L960,684L960,660L972,660L972,624L984,624L984,588L996,588L996,516L1008,516L1008,480L996,480L996,456L984,456L984,444L972,444L972,432L960,432L960,408L948,408L948,396L936,396L936,384L924,384L924,372L912,372L912,360L900,360L900,312L888,312L888,192L876,192L876,180L864,180L864,168L852,168L852,156L828,156L828,144L816,144L816,132L804,132L804,120L780,120L780,108L756,108L756,96L732,96L732,84L708,84L708,72L696,72M324,96L324,96L312,96L312,108L324,108L324,96M300,108L300,108L288,108L288,120L264,120L264,132L252,132L252,144L240,144L240,156L216,156L216,168L204,168L204,180L192,180L192,192L180,192L180,204L168,204L168,216L156,216L156,240L168,240L168,228L192,228L192,216L204,216L204,204L216,204L216,192L228,192L228,180L240,180L240,168L252,168L252,156L264,156L264,144L276,144L276,132L288,132L288,120L300,120L300,108M540,144L540,144L576,144L576,204L588,204L588,276L600,276L600,288L624,288L624,300L648,300L648,312L672,312L672,324L684,324L684,336L708,336L708,348L720,348L720,360L744,360L744,372L768,372L768,360L804,360L804,348L840,348L840,336L876,336L876,360L852,360L852,372L816,372L816,384L792,384L792,396L768,396L768,420L756,420L756,480L744,480L744,528L732,528L732,576L720,576L720,612L732,612L732,624L744,624L744,648L756,648L756,660L768,660L768,684L780,684L780,696L792,696L792,708L804,708L804,720L792,720L792,732L768,732L768,708L756,708L756,696L744,696L744,684L732,684L732,660L720,660L720,648L708,648L708,624L696,624L696,612L672,612L672,624L552,624L552,636L492,636L492,648L480,648L480,672L468,672L468,696L456,696L456,708L444,708L444,732L432,732L432,744L420,744L420,768L396,768L396,756L384,756L384,744L396,744L396,732L408,732L408,708L420,708L420,684L432,684L432,672L444,672L444,648L456,648L456,636L468,636L468,600L456,600L456,564L444,564L444,540L432,540L432,504L420,504L420,480L408,480L408,444L396,444L396,432L336,432L336,420L264,420L264,408L240,408L240,384L300,384L300,396L384,396L384,408L408,408L408,396L420,396L420,384L432,384L432,372L444,372L444,360L456,360L456,348L468,348L468,336L492,336L492,324L504,324L504,312L516,312L516,300L528,300L528,288L552,288L552,156L540,156L540,144M576,396L576,396L564,396L564,408L540,408L540,420L528,420L528,444L516,444L516,480L528,480L528,444L540,444L540,420L564,420L564,408L600,408L600,396L576,396M612,408L612,408L600,408L600,420L624,420L624,408L612,408M636,420L636,420L624,420L624,444L636,444L636,420M576,444L576,444L564,444L564,480L600,480L600,444L576,444M648,444L648,444L636,444L636,480L624,480L624,504L600,504L600,516L564,516L564,504L540,504L540,480L528,480L528,504L540,504L540,516L564,516L564,528L600,528L600,516L624,516L624,504L636,504L636,480L648,480L648,444M1032,540L1032,540L1020,540L1020,576L1032,576L1032,540M72,552L72,552L60,552L60,660L72,660L72,696L84,696L84,732L96,732L96,756L108,756L108,768L120,768L120,792L132,792L132,804L144,804L144,828L156,828L156,840L168,840L168,804L180,804L180,756L168,756L168,732L156,732L156,708L144,708L144,672L132,672L132,636L120,636L120,600L108,600L108,576L96,576L96,564L72,564L72,552M1020,588L1020,588L1008,588L1008,636L996,636L996,660L984,660L984,696L972,696L972,744L984,744L984,732L996,732L996,696L1008,696L1008,660L1020,660L1020,588M696,936L696,936L684,936L684,948L612,948L612,960L492,960L492,972L468,972L468,984L444,984L444,996L432,996L432,1008L492,1008L492,1020L588,1020L588,1008L660,1008L660,996L708,996L708,984L732,984L732,972L744,972L744,960L720,960L720,948L696,948L696,936M912,924L912,924L984,924L984,1068L936,1068L936,1056L960,1056L960,1044L972,1044L972,936L936,936L936,948L924,948L924,960L912,960L912,924M1008,924L1008,924L1080,924L1080,960L1068,960L1068,948L1056,948L1056,936L1020,936L1020,1044L1032,1044L1032,1056L1056,1056L1056,1068L1008,1068Z"></path><path class="start" d="M564,396L564,396L600,396L600,408L564,408L564,396M564,408L564,408L564,420L540,420L540,408L564,408M600,408L600,408L624,408L624,420L600,420L600,408M540,420L540,420L540,444L528,444L528,420L540,420M624,420L624,420L636,420L636,444L624,444L624,420M528,444L528,444L528,480L516,480L516,444L528,444M636,444L636,444L648,444L648,480L636,480L636,444M528,480L528,480L540,480L540,504L528,504L528,480M636,480L636,480L636,504L624,504L624,480L636,480M540,504L540,504L564,504L564,516L540,516L540,504M624,504L624,504L624,516L600,516L600,504L624,504M564,516L564,516L600,516L600,528L564,528Z"></path><path class="finish" d="M564,444L564,444L600,444L600,480L564,480Z"></path></g> <rect opacity=".3" fill="url(#grid)" height="100%" width="100%" y="0" x="0"></rect></svg>