<svg height="816" width="744" id="mapSvgView" xmlns:xlink="http://www.w3.org/1999/xlink" version="1.1" xmlns="http://www.w3.org/2000/svg"> <defs> <style type="text/css"> .grass {fill: rgb(0, 200, 0);} .road {fill: rgb(128, 128, 128);} .start {fill: url(#startPattern)} .finish {fill: url(#finishPattern)} .mud {fill: rgb(100, 70, 0);} .sand {fill: rgb(230, 230, 115);} .water {fill: blue;} .earth {fill: brown;} .night {fill: black;} .parc {fill: rgb(200, 200, 200);} .cp1color {fill: rgb(0, 102, 255);} .cp2color {fill: rgb(0, 100, 200);} .cp3color {fill: rgb(0, 255, 102);} .cp4color {fill: rgb(0, 200, 0);} .cp5color {fill: rgb(255, 255, 0);} .cp6color {fill: rgb(200, 200, 0);} .cp7color {fill: rgb(255, 0, 0);} .cp8color {fill: rgb(200, 0, 0);} .cp9color {fill: rgb(255, 0, 255);} .cp1 {fill: url(#cp1pattern);} .cp2 {fill: url(#cp2pattern);} .cp3 {fill: url(#cp3pattern);} .cp4 {fill: url(#cp4pattern);} .cp5 {fill: url(#cp5pattern);} .cp6 {fill: url(#cp6pattern);} .cp7 {fill: url(#cp7pattern);} .cp8 {fill: url(#cp8pattern);} .cp9 {fill: url(#cp9pattern);} .primaryColor {fill: rgb(0, 255, 102);} </style> <pattern y="0" x="0" height="12" width="12" patternUnits="userSpaceOnUse" id="grid"> <line stroke-width="1" stroke="black" y2="12" x2="12" y1="0" x1="12"></line> <line stroke-width="1" stroke="black" y2="12" x2="12" y1="12" x1="0"></line> </pattern> <pattern y="0" x="0" height="12" width="12" patternUnits="userSpaceOnUse" id="finishPattern"> <rect fill="black" height="12" width="12" y="0" x="0"></rect> <path fill="white" d="M0,0L3,0L3,3L0,3L0,0M6,0L9,0L9,3L6,3L6,0M3,3L6,3L6,6L3,6L3,3M9,3L12,3L12,6L9,6L9,3"></path> <path fill="white" d="M0,6L3,6L3,9L0,9L0,6M6,6L9,6L9,9L6,9L6,6M3,9L6,9L6,12L3,12L3,9M9,9L12,9L12,12L9,12L9,9"></path> </pattern> <pattern y="0" x="0" height="12" width="12" patternUnits="userSpaceOnUse" id="startPattern"> <rect fill="rgb(100,100,100)" height="12" width="12" y="0" x="0"></rect> <rect stroke-width="1" stroke="rgb(200,200,200)" fill="none" height="5" width="5" y="3.5" x="3.5"></rect> &gt; </pattern> <pattern y="0" x="0" height="12" width="12" patternUnits="userSpaceOnUse" id="cp1pattern"> <rect class="cp1color" height="12" width="12" y="0" x="0"></rect> <path fill="black" d="M0,0L3,0L3,3L0,3L0,0M6,0L9,0L9,3L6,3L6,0M3,3L6,3L6,6L3,6L3,3M9,3L12,3L12,6L9,6L9,3"></path> <path fill="black" d="M0,6L3,6L3,9L0,9L0,6M6,6L9,6L9,9L6,9L6,6M3,9L6,9L6,12L3,12L3,9M9,9L12,9L12,12L9,12L9,9"></path> </pattern> <pattern y="0" x="0" height="12" width="12" patternUnits="userSpaceOnUse" id="cp2pattern"> <rect class="cp2color" height="12" width="12" y="0" x="0"></rect> <path fill="white" d="M0,0L3,0L3,3L0,3L0,0M6,0L9,0L9,3L6,3L6,0M3,3L6,3L6,6L3,6L3,3M9,3L12,3L12,6L9,6L9,3"></path> <path fill="white" d="M0,6L3,6L3,9L0,9L0,6M6,6L9,6L9,9L6,9L6,6M3,9L6,9L6,12L3,12L3,9M9,9L12,9L12,12L9,12L9,9"></path> </pattern> <pattern y="0" x="0" height="12" width="12" patternUnits="userSpaceOnUse" id="cp3pattern"> <rect class="cp3color" height="12" width="12" y="0" x="0"></rect> <path fill="black" d="M0,0L3,0L3,3L0,3L0,0M6,0L9,0L9,3L6,3L6,0M3,3L6,3L6,6L3,6L3,3M9,3L12,3L12,6L9,6L9,3"></path> <path fill="black" d="M0,6L3,6L3,9L0,9L0,6M6,6L9,6L9,9L6,9L6,6M3,9L6,9L6,12L3,12L3,9M9,9L12,9L12,12L9,12L9,9"></path> </pattern> <pattern y="0" x="0" height="12" width="12" patternUnits="userSpaceOnUse" id="cp4pattern"> <rect class="cp4color" height="12" width="12" y="0" x="0"></rect> <path fill="white" d="M0,0L3,0L3,3L0,3L0,0M6,0L9,0L9,3L6,3L6,0M3,3L6,3L6,6L3,6L3,3M9,3L12,3L12,6L9,6L9,3"></path> <path fill="white" d="M0,6L3,6L3,9L0,9L0,6M6,6L9,6L9,9L6,9L6,6M3,9L6,9L6,12L3,12L3,9M9,9L12,9L12,12L9,12L9,9"></path> </pattern> <pattern y="0" x="0" height="12" width="12" patternUnits="userSpaceOnUse" id="cp5pattern"> <rect class="cp5color" height="12" width="12" y="0" x="0"></rect> <path fill="black" d="M0,0L3,0L3,3L0,3L0,0M6,0L9,0L9,3L6,3L6,0M3,3L6,3L6,6L3,6L3,3M9,3L12,3L12,6L9,6L9,3"></path> <path fill="black" d="M0,6L3,6L3,9L0,9L0,6M6,6L9,6L9,9L6,9L6,6M3,9L6,9L6,12L3,12L3,9M9,9L12,9L12,12L9,12L9,9"></path> </pattern> <pattern y="0" x="0" height="12" width="12" patternUnits="userSpaceOnUse" id="cp6pattern"> <rect class="cp6color" height="12" width="12" y="0" x="0"></rect> <path fill="white" d="M0,0L3,0L3,3L0,3L0,0M6,0L9,0L9,3L6,3L6,0M3,3L6,3L6,6L3,6L3,3M9,3L12,3L12,6L9,6L9,3"></path> <path fill="white" d="M0,6L3,6L3,9L0,9L0,6M6,6L9,6L9,9L6,9L6,6M3,9L6,9L6,12L3,12L3,9M9,9L12,9L12,12L9,12L9,9"></path> </pattern> <pattern y="0" x="0" height="12" width="12" patternUnits="userSpaceOnUse" id="cp7pattern"> <rect class="cp7color" height="12" width="12" y="0" x="0"></rect> <path fill="black" d="M0,0L3,0L3,3L0,3L0,0M6,0L9,0L9,3L6,3L6,0M3,3L6,3L6,6L3,6L3,3M9,3L12,3L12,6L9,6L9,3"></path> <path fill="black" d="M0,6L3,6L3,9L0,9L0,6M6,6L9,6L9,9L6,9L6,6M3,9L6,9L6,12L3,12L3,9M9,9L12,9L12,12L9,12L9,9"></path> </pattern> <pattern y="0" x="0" height="12" width="12" patternUnits="userSpaceOnUse" id="cp8pattern"> <rect class="cp8color" height="12" width="12" y="0" x="0"></rect> <path fill="white" d="M0,0L3,0L3,3L0,3L0,0M6,0L9,0L9,3L6,3L6,0M3,3L6,3L6,6L3,6L3,3M9,3L12,3L12,6L9,6L9,3"></path> <path fill="white" d="M0,6L3,6L3,9L0,9L0,6M6,6L9,6L9,9L6,9L6,6M3,9L6,9L6,12L3,12L3,9M9,9L12,9L12,12L9,12L9,9"></path> </pattern> <pattern y="0" x="0" height="12" width="12" patternUnits="userSpaceOnUse" id="cp9pattern"> <rect class="cp9color" height="12" width="12" y="0" x="0"></rect> <path fill="black" d="M0,0L3,0L3,3L0,3L0,0M6,0L9,0L9,3L6,3L6,0M3,3L6,3L6,6L3,6L3,3M9,3L12,3L12,6L9,6L9,3"></path> <path fill="black" d="M0,6L3,6L3,9L0,9L0,6M6,6L9,6L9,9L6,9L6,6M3,9L6,9L6,12L3,12L3,9M9,9L12,9L12,12L9,12L9,9"></path> </pattern> </defs> <rect height="100%" width="100%" y="0" x="0" class="grass" id="mainfill"></rect> <g id="paths"><path class="parc" d="M0,0L0,0L12,0L12,72L0,72Z"></path><path class="road" d="M408,12L408,12L432,12L432,36L444,36L444,60L456,60L456,84L468,84L468,108L480,108L480,132L492,132L492,156L504,156L504,180L516,180L516,204L528,204L528,228L540,228L540,312L480,312L480,324L468,324L468,336L444,336L444,348L432,348L432,360L408,360L408,372L384,372L384,384L372,384L372,396L348,396L348,408L336,408L336,420L312,420L312,432L300,432L300,444L288,444L288,456L264,456L264,444L252,444L252,432L240,432L240,420L252,420L252,408L276,408L276,396L300,396L300,384L324,384L324,372L348,372L348,360L360,360L360,348L384,348L384,336L396,336L396,324L420,324L420,312L444,312L444,300L456,300L456,288L480,288L480,276L492,276L492,264L504,264L504,228L492,228L492,204L480,204L480,180L468,180L468,156L456,156L456,132L444,132L444,168L432,168L432,180L384,180L384,168L360,168L360,156L324,156L324,144L288,144L288,132L264,132L264,276L252,276L252,288L204,288L204,276L180,276L180,264L144,264L144,252L120,252L120,360L132,360L132,372L144,372L144,384L156,384L156,396L168,396L168,408L180,408L180,420L192,420L192,432L204,432L204,444L216,444L216,468L228,468L228,600L240,600L240,636L252,636L252,660L264,660L264,684L276,684L276,696L288,696L288,708L300,708L300,720L312,720L312,732L324,732L324,744L348,744L348,756L384,756L384,768L540,768L540,756L576,756L576,744L600,744L600,732L612,732L612,720L624,720L624,708L636,708L636,696L648,696L648,684L660,684L660,660L672,660L672,636L684,636L684,600L696,600L696,480L684,480L684,444L672,444L672,420L660,420L660,396L648,396L648,384L636,384L636,372L624,372L624,360L612,360L612,348L600,348L600,336L576,336L576,324L564,324L564,288L600,288L600,300L624,300L624,312L636,312L636,324L648,324L648,336L660,336L660,348L672,348L672,360L684,360L684,372L696,372L696,396L708,396L708,420L720,420L720,456L732,456L732,624L720,624L720,660L708,660L708,684L696,684L696,708L684,708L684,720L672,720L672,732L660,732L660,744L648,744L648,756L636,756L636,768L624,768L624,780L600,780L600,792L576,792L576,804L348,804L348,792L324,792L324,780L300,780L300,768L288,768L288,756L276,756L276,744L264,744L264,732L252,732L252,720L240,720L240,708L228,708L228,684L216,684L216,660L204,660L204,624L192,624L192,480L180,480L180,468L168,468L168,456L156,456L156,444L144,444L144,432L132,432L132,420L120,420L120,408L108,408L108,396L96,396L96,384L84,384L84,372L72,372L72,360L60,360L60,348L48,348L48,336L36,336L36,324L24,324L24,312L12,312L12,276L48,276L48,288L60,288L60,300L72,300L72,312L84,312L84,192L96,192L96,204L120,204L120,216L144,216L144,228L180,228L180,240L216,240L216,252L228,252L228,72L240,72L240,84L264,84L264,96L288,96L288,108L324,108L324,120L360,120L360,132L396,132L396,144L408,144L408,12M408,204L408,204L444,204L444,240L408,240L408,204M336,240L336,240L372,240L372,276L336,276L336,240M264,312L264,312L300,312L300,348L264,348L264,312M192,348L192,348L228,348L228,384L192,384L192,348M348,408L348,408L396,408L396,420L408,420L408,468L396,468L396,480L348,480L348,468L336,468L336,420L348,420L348,408M528,408L528,408L576,408L576,420L588,420L588,468L576,468L576,480L528,480L528,468L516,468L516,420L528,420L528,408M240,432L240,432L240,444L228,444L228,432L240,432M240,444L240,444L252,444L252,456L240,456L240,444M252,456L252,456L264,456L264,468L252,468L252,456M300,564L300,564L336,564L336,600L300,600L300,564M588,564L588,564L624,564L624,600L588,600L588,564M336,600L336,600L372,600L372,636L336,636L336,600M588,600L588,600L588,636L552,636L552,600L588,600M12,624L12,624L84,624L84,768L36,768L36,756L60,756L60,744L72,744L72,636L36,636L36,648L24,648L24,660L12,660L12,624M108,624L108,624L180,624L180,660L168,660L168,648L156,648L156,636L120,636L120,744L132,744L132,756L156,756L156,768L108,768L108,624M372,636L372,636L552,636L552,672L372,672Z"></path><path class="sand" d="M264,132L264,132L288,132L288,144L324,144L324,156L360,156L360,168L384,168L384,180L432,180L432,168L444,168L444,132L456,132L456,156L468,156L468,180L480,180L480,204L492,204L492,228L504,228L504,264L492,264L492,276L480,276L480,288L456,288L456,300L444,300L444,312L420,312L420,324L396,324L396,336L384,336L384,348L360,348L360,360L348,360L348,372L324,372L324,384L300,384L300,396L276,396L276,408L252,408L252,420L228,420L228,456L216,456L216,444L204,444L204,432L192,432L192,420L180,420L180,408L168,408L168,396L156,396L156,384L144,384L144,372L132,372L132,360L120,360L120,252L144,252L144,264L180,264L180,276L204,276L204,288L252,288L252,276L264,276L264,132M420,204L420,204L408,204L408,240L444,240L444,204L420,204M348,240L348,240L336,240L336,276L372,276L372,240L348,240M276,312L276,312L264,312L264,348L300,348L300,312L276,312M204,348L204,348L192,348L192,384L228,384L228,348Z"></path><path class="finish" d="M552,276L552,276L576,276L576,288L564,288L564,324L552,324Z"></path><path class="start" d="M228,420L228,420L240,420L240,432L228,432L228,420M240,432L240,432L252,432L252,444L240,444L240,432M252,444L252,444L264,444L264,456L252,456L252,444M240,444L240,444L240,456L228,456L228,444L240,444M240,456L240,456L252,456L252,468L240,468L240,456M264,456L264,456L276,456L276,468L264,468Z"></path></g> <rect opacity=".3" fill="url(#grid)" height="100%" width="100%" y="0" x="0"></rect></svg>