<svg height="552" width="1404" id="mapSvgView" xmlns:xlink="http://www.w3.org/1999/xlink" version="1.1" xmlns="http://www.w3.org/2000/svg"> <defs> <style type="text/css"> .grass {fill: rgb(0, 200, 0);} .road {fill: rgb(128, 128, 128);} .start {fill: url(#startPattern)} .finish {fill: url(#finishPattern)} .mud {fill: rgb(100, 70, 0);} .sand {fill: rgb(230, 230, 115);} .water {fill: blue;} .earth {fill: brown;} .night {fill: black;} .parc {fill: rgb(200, 200, 200);} .cp1color {fill: rgb(0, 102, 255);} .cp2color {fill: rgb(0, 100, 200);} .cp3color {fill: rgb(0, 255, 102);} .cp4color {fill: rgb(0, 200, 0);} .cp5color {fill: rgb(255, 255, 0);} .cp6color {fill: rgb(200, 200, 0);} .cp7color {fill: rgb(255, 0, 0);} .cp8color {fill: rgb(200, 0, 0);} .cp9color {fill: rgb(255, 0, 255);} .cp1 {fill: url(#cp1pattern);} .cp2 {fill: url(#cp2pattern);} .cp3 {fill: url(#cp3pattern);} .cp4 {fill: url(#cp4pattern);} .cp5 {fill: url(#cp5pattern);} .cp6 {fill: url(#cp6pattern);} .cp7 {fill: url(#cp7pattern);} .cp8 {fill: url(#cp8pattern);} .cp9 {fill: url(#cp9pattern);} .primaryColor {fill: rgb(0, 255, 102);} </style> <pattern y="0" x="0" height="12" width="12" patternUnits="userSpaceOnUse" id="grid"> <line stroke-width="1" stroke="black" y2="12" x2="12" y1="0" x1="12"></line> <line stroke-width="1" stroke="black" y2="12" x2="12" y1="12" x1="0"></line> </pattern> <pattern y="0" x="0" height="12" width="12" patternUnits="userSpaceOnUse" id="finishPattern"> <rect fill="black" height="12" width="12" y="0" x="0"></rect> <path fill="white" d="M0,0L3,0L3,3L0,3L0,0M6,0L9,0L9,3L6,3L6,0M3,3L6,3L6,6L3,6L3,3M9,3L12,3L12,6L9,6L9,3"></path> <path fill="white" d="M0,6L3,6L3,9L0,9L0,6M6,6L9,6L9,9L6,9L6,6M3,9L6,9L6,12L3,12L3,9M9,9L12,9L12,12L9,12L9,9"></path> </pattern> <pattern y="0" x="0" height="12" width="12" patternUnits="userSpaceOnUse" id="startPattern"> <rect fill="rgb(100,100,100)" height="12" width="12" y="0" x="0"></rect> <rect stroke-width="1" stroke="rgb(200,200,200)" fill="none" height="5" width="5" y="3.5" x="3.5"></rect> &gt; </pattern> <pattern y="0" x="0" height="12" width="12" patternUnits="userSpaceOnUse" id="cp1pattern"> <rect class="cp1color" height="12" width="12" y="0" x="0"></rect> <path fill="black" d="M0,0L3,0L3,3L0,3L0,0M6,0L9,0L9,3L6,3L6,0M3,3L6,3L6,6L3,6L3,3M9,3L12,3L12,6L9,6L9,3"></path> <path fill="black" d="M0,6L3,6L3,9L0,9L0,6M6,6L9,6L9,9L6,9L6,6M3,9L6,9L6,12L3,12L3,9M9,9L12,9L12,12L9,12L9,9"></path> </pattern> <pattern y="0" x="0" height="12" width="12" patternUnits="userSpaceOnUse" id="cp2pattern"> <rect class="cp2color" height="12" width="12" y="0" x="0"></rect> <path fill="white" d="M0,0L3,0L3,3L0,3L0,0M6,0L9,0L9,3L6,3L6,0M3,3L6,3L6,6L3,6L3,3M9,3L12,3L12,6L9,6L9,3"></path> <path fill="white" d="M0,6L3,6L3,9L0,9L0,6M6,6L9,6L9,9L6,9L6,6M3,9L6,9L6,12L3,12L3,9M9,9L12,9L12,12L9,12L9,9"></path> </pattern> <pattern y="0" x="0" height="12" width="12" patternUnits="userSpaceOnUse" id="cp3pattern"> <rect class="cp3color" height="12" width="12" y="0" x="0"></rect> <path fill="black" d="M0,0L3,0L3,3L0,3L0,0M6,0L9,0L9,3L6,3L6,0M3,3L6,3L6,6L3,6L3,3M9,3L12,3L12,6L9,6L9,3"></path> <path fill="black" d="M0,6L3,6L3,9L0,9L0,6M6,6L9,6L9,9L6,9L6,6M3,9L6,9L6,12L3,12L3,9M9,9L12,9L12,12L9,12L9,9"></path> </pattern> <pattern y="0" x="0" height="12" width="12" patternUnits="userSpaceOnUse" id="cp4pattern"> <rect class="cp4color" height="12" width="12" y="0" x="0"></rect> <path fill="white" d="M0,0L3,0L3,3L0,3L0,0M6,0L9,0L9,3L6,3L6,0M3,3L6,3L6,6L3,6L3,3M9,3L12,3L12,6L9,6L9,3"></path> <path fill="white" d="M0,6L3,6L3,9L0,9L0,6M6,6L9,6L9,9L6,9L6,6M3,9L6,9L6,12L3,12L3,9M9,9L12,9L12,12L9,12L9,9"></path> </pattern> <pattern y="0" x="0" height="12" width="12" patternUnits="userSpaceOnUse" id="cp5pattern"> <rect class="cp5color" height="12" width="12" y="0" x="0"></rect> <path fill="black" d="M0,0L3,0L3,3L0,3L0,0M6,0L9,0L9,3L6,3L6,0M3,3L6,3L6,6L3,6L3,3M9,3L12,3L12,6L9,6L9,3"></path> <path fill="black" d="M0,6L3,6L3,9L0,9L0,6M6,6L9,6L9,9L6,9L6,6M3,9L6,9L6,12L3,12L3,9M9,9L12,9L12,12L9,12L9,9"></path> </pattern> <pattern y="0" x="0" height="12" width="12" patternUnits="userSpaceOnUse" id="cp6pattern"> <rect class="cp6color" height="12" width="12" y="0" x="0"></rect> <path fill="white" d="M0,0L3,0L3,3L0,3L0,0M6,0L9,0L9,3L6,3L6,0M3,3L6,3L6,6L3,6L3,3M9,3L12,3L12,6L9,6L9,3"></path> <path fill="white" d="M0,6L3,6L3,9L0,9L0,6M6,6L9,6L9,9L6,9L6,6M3,9L6,9L6,12L3,12L3,9M9,9L12,9L12,12L9,12L9,9"></path> </pattern> <pattern y="0" x="0" height="12" width="12" patternUnits="userSpaceOnUse" id="cp7pattern"> <rect class="cp7color" height="12" width="12" y="0" x="0"></rect> <path fill="black" d="M0,0L3,0L3,3L0,3L0,0M6,0L9,0L9,3L6,3L6,0M3,3L6,3L6,6L3,6L3,3M9,3L12,3L12,6L9,6L9,3"></path> <path fill="black" d="M0,6L3,6L3,9L0,9L0,6M6,6L9,6L9,9L6,9L6,6M3,9L6,9L6,12L3,12L3,9M9,9L12,9L12,12L9,12L9,9"></path> </pattern> <pattern y="0" x="0" height="12" width="12" patternUnits="userSpaceOnUse" id="cp8pattern"> <rect class="cp8color" height="12" width="12" y="0" x="0"></rect> <path fill="white" d="M0,0L3,0L3,3L0,3L0,0M6,0L9,0L9,3L6,3L6,0M3,3L6,3L6,6L3,6L3,3M9,3L12,3L12,6L9,6L9,3"></path> <path fill="white" d="M0,6L3,6L3,9L0,9L0,6M6,6L9,6L9,9L6,9L6,6M3,9L6,9L6,12L3,12L3,9M9,9L12,9L12,12L9,12L9,9"></path> </pattern> <pattern y="0" x="0" height="12" width="12" patternUnits="userSpaceOnUse" id="cp9pattern"> <rect class="cp9color" height="12" width="12" y="0" x="0"></rect> <path fill="black" d="M0,0L3,0L3,3L0,3L0,0M6,0L9,0L9,3L6,3L6,0M3,3L6,3L6,6L3,6L3,3M9,3L12,3L12,6L9,6L9,3"></path> <path fill="black" d="M0,6L3,6L3,9L0,9L0,6M6,6L9,6L9,9L6,9L6,6M3,9L6,9L6,12L3,12L3,9M9,9L12,9L12,12L9,12L9,9"></path> </pattern> </defs> <rect height="100%" width="100%" y="0" x="0" class="grass" id="mainfill"></rect> <g id="paths"><path class="cp1" d="M1032,48L1032,48L1044,48L1044,72L1032,72Z"></path><path class="cp2" d="M456,336L456,336L492,336L492,372L456,372L456,336M480,348L480,348L468,348L468,360L480,360Z"></path><path class="cp3" d="M84,300L84,300L96,300L96,312L84,312L84,300M108,300L108,300L120,300L120,312L108,312L108,300M132,300L132,300L144,300L144,312L132,312L132,300M156,300L156,300L168,300L168,312L156,312L156,300M180,300L180,300L192,300L192,312L180,312L180,300M84,372L84,372L96,372L96,384L84,384L84,372M108,372L108,372L120,372L120,384L108,384L108,372M132,372L132,372L144,372L144,384L132,384L132,372M156,372L156,372L168,372L168,384L156,384L156,372M180,372L180,372L192,372L192,384L180,384Z"></path><path class="parc" d="M0,0L0,0L12,0L12,84L0,84Z"></path><path class="road" d="M288,24L288,24L300,24L300,36L288,36L288,24M300,36L300,36L312,36L312,24L516,24L516,36L852,36L852,48L1032,48L1032,72L972,72L972,84L756,84L756,96L420,96L420,108L312,108L312,96L300,96L300,84L288,84L288,72L300,72L300,60L288,60L288,48L300,48L300,36M312,48L312,48L300,48L300,60L312,60L312,48M1068,36L1068,36L1332,36L1332,48L1356,48L1356,60L1368,60L1368,84L1356,84L1356,96L1332,96L1332,108L1320,108L1320,132L1332,132L1332,144L1308,144L1308,156L1272,156L1272,168L1248,168L1248,192L1260,192L1260,216L1248,216L1248,228L996,228L996,240L672,240L672,252L540,252L540,264L504,264L504,276L516,276L516,300L528,300L528,312L516,312L516,324L504,324L504,336L444,336L444,324L432,324L432,312L420,312L420,300L408,300L408,288L396,288L396,276L384,276L384,264L372,264L372,228L360,228L360,216L348,216L348,180L360,180L360,168L372,168L372,156L396,156L396,144L1188,144L1188,132L1224,132L1224,120L1212,120L1212,108L1224,108L1224,96L1248,96L1248,84L1260,84L1260,72L1044,72L1044,48L1068,48L1068,36M132,48L132,48L276,48L276,84L204,84L204,96L144,96L144,108L132,108L132,132L156,132L156,144L192,144L192,156L252,156L252,168L276,168L276,180L288,180L288,204L276,204L276,216L252,216L252,228L228,228L228,240L216,240L216,252L204,252L204,264L192,264L192,300L84,300L84,288L96,288L96,276L108,276L108,264L120,264L120,252L132,252L132,240L144,240L144,228L156,228L156,216L192,216L192,204L204,204L204,192L216,192L216,180L168,180L168,168L120,168L120,156L96,156L96,144L72,144L72,132L48,132L48,120L36,120L36,96L48,96L48,84L60,84L60,72L96,72L96,60L132,60L132,48M312,72L312,72L300,72L300,84L312,84L312,72M300,96L300,96L300,108L288,108L288,96L300,96M492,180L492,180L480,180L480,192L456,192L456,240L468,240L468,252L504,252L504,240L552,240L552,228L672,228L672,216L996,216L996,204L1236,204L1236,192L1224,192L1224,180L1140,180L1140,192L564,192L564,180L492,180M420,312L420,312L420,324L408,324L408,312L420,312M528,312L528,312L540,312L540,324L528,324L528,312M84,312L84,312L120,312L120,372L84,372L84,312M132,312L132,312L144,312L144,372L132,372L132,312M156,312L156,312L192,312L192,372L156,372L156,312M420,324L420,324L432,324L432,336L420,336L420,324M516,324L516,324L528,324L528,336L516,336L516,324M432,336L432,336L444,336L444,348L432,348L432,336M420,336L420,336L420,348L408,348L408,336L420,336M504,336L504,336L516,336L516,348L504,348L504,336M528,336L528,336L540,336L540,348L528,348L528,336M420,348L420,348L432,348L432,360L420,360L420,348M444,348L444,348L456,348L456,372L444,372L444,384L456,384L456,372L492,372L492,348L504,348L504,360L516,360L516,348L528,348L528,360L516,360L516,372L528,372L528,360L540,360L540,372L528,372L528,384L540,384L540,444L528,444L528,456L516,456L516,468L492,468L492,480L468,480L468,492L432,492L432,504L372,504L372,516L336,516L336,528L276,528L276,516L240,516L240,504L204,504L204,492L180,492L180,480L156,480L156,468L144,468L144,456L132,456L132,444L120,444L120,432L108,432L108,420L96,420L96,408L84,408L84,384L192,384L192,420L204,420L204,444L216,444L216,468L228,468L228,480L252,480L252,492L336,492L336,480L360,480L360,468L384,468L384,456L396,456L396,444L408,444L408,384L420,384L420,372L408,372L408,360L420,360L420,372L432,372L432,360L444,360L444,348M984,348L984,348L996,348L996,360L1020,360L1020,372L1056,372L1056,384L1104,384L1104,396L1164,396L1164,420L816,420L816,396L876,396L876,384L924,384L924,372L960,372L960,360L984,360L984,348M504,372L504,372L492,372L492,384L504,384L504,372M432,396L432,396L420,396L420,408L432,408L432,396M528,396L528,396L516,396L516,408L528,408Z"></path><path class="start" d="M300,24L300,24L312,24L312,36L300,36L300,24M300,36L300,36L300,48L288,48L288,36L300,36M300,48L300,48L312,48L312,60L300,60L300,48M300,60L300,60L300,72L288,72L288,60L300,60M300,72L300,72L312,72L312,84L300,84L300,72M300,84L300,84L300,96L288,96L288,84L300,84M300,96L300,96L312,96L312,108L300,108Z"></path><path class="finish" d="M276,48L276,48L288,48L288,84L276,84Z"></path></g> <rect opacity=".3" fill="url(#grid)" height="100%" width="100%" y="0" x="0"></rect></svg>