<svg height="1212" width="1008" id="mapSvgView" xmlns:xlink="http://www.w3.org/1999/xlink" version="1.1" xmlns="http://www.w3.org/2000/svg"> <defs> <style type="text/css"> .grass {fill: rgb(0, 200, 0);} .road {fill: rgb(128, 128, 128);} .start {fill: url(#startPattern)} .finish {fill: url(#finishPattern)} .mud {fill: rgb(100, 70, 0);} .sand {fill: rgb(230, 230, 115);} .water {fill: blue;} .earth {fill: brown;} .night {fill: black;} .parc {fill: rgb(200, 200, 200);} .cp1color {fill: rgb(0, 102, 255);} .cp2color {fill: rgb(0, 100, 200);} .cp3color {fill: rgb(0, 255, 102);} .cp4color {fill: rgb(0, 200, 0);} .cp5color {fill: rgb(255, 255, 0);} .cp6color {fill: rgb(200, 200, 0);} .cp7color {fill: rgb(255, 0, 0);} .cp8color {fill: rgb(200, 0, 0);} .cp9color {fill: rgb(255, 0, 255);} .cp1 {fill: url(#cp1pattern);} .cp2 {fill: url(#cp2pattern);} .cp3 {fill: url(#cp3pattern);} .cp4 {fill: url(#cp4pattern);} .cp5 {fill: url(#cp5pattern);} .cp6 {fill: url(#cp6pattern);} .cp7 {fill: url(#cp7pattern);} .cp8 {fill: url(#cp8pattern);} .cp9 {fill: url(#cp9pattern);} .primaryColor {fill: rgb(0, 255, 102);} </style> <pattern y="0" x="0" height="12" width="12" patternUnits="userSpaceOnUse" id="grid"> <line stroke-width="1" stroke="black" y2="12" x2="12" y1="0" x1="12"></line> <line stroke-width="1" stroke="black" y2="12" x2="12" y1="12" x1="0"></line> </pattern> <pattern y="0" x="0" height="12" width="12" patternUnits="userSpaceOnUse" id="finishPattern"> <rect fill="black" height="12" width="12" y="0" x="0"></rect> <path fill="white" d="M0,0L3,0L3,3L0,3L0,0M6,0L9,0L9,3L6,3L6,0M3,3L6,3L6,6L3,6L3,3M9,3L12,3L12,6L9,6L9,3"></path> <path fill="white" d="M0,6L3,6L3,9L0,9L0,6M6,6L9,6L9,9L6,9L6,6M3,9L6,9L6,12L3,12L3,9M9,9L12,9L12,12L9,12L9,9"></path> </pattern> <pattern y="0" x="0" height="12" width="12" patternUnits="userSpaceOnUse" id="startPattern"> <rect fill="rgb(100,100,100)" height="12" width="12" y="0" x="0"></rect> <rect stroke-width="1" stroke="rgb(200,200,200)" fill="none" height="5" width="5" y="3.5" x="3.5"></rect> &gt; </pattern> <pattern y="0" x="0" height="12" width="12" patternUnits="userSpaceOnUse" id="cp1pattern"> <rect class="cp1color" height="12" width="12" y="0" x="0"></rect> <path fill="black" d="M0,0L3,0L3,3L0,3L0,0M6,0L9,0L9,3L6,3L6,0M3,3L6,3L6,6L3,6L3,3M9,3L12,3L12,6L9,6L9,3"></path> <path fill="black" d="M0,6L3,6L3,9L0,9L0,6M6,6L9,6L9,9L6,9L6,6M3,9L6,9L6,12L3,12L3,9M9,9L12,9L12,12L9,12L9,9"></path> </pattern> <pattern y="0" x="0" height="12" width="12" patternUnits="userSpaceOnUse" id="cp2pattern"> <rect class="cp2color" height="12" width="12" y="0" x="0"></rect> <path fill="white" d="M0,0L3,0L3,3L0,3L0,0M6,0L9,0L9,3L6,3L6,0M3,3L6,3L6,6L3,6L3,3M9,3L12,3L12,6L9,6L9,3"></path> <path fill="white" d="M0,6L3,6L3,9L0,9L0,6M6,6L9,6L9,9L6,9L6,6M3,9L6,9L6,12L3,12L3,9M9,9L12,9L12,12L9,12L9,9"></path> </pattern> <pattern y="0" x="0" height="12" width="12" patternUnits="userSpaceOnUse" id="cp3pattern"> <rect class="cp3color" height="12" width="12" y="0" x="0"></rect> <path fill="black" d="M0,0L3,0L3,3L0,3L0,0M6,0L9,0L9,3L6,3L6,0M3,3L6,3L6,6L3,6L3,3M9,3L12,3L12,6L9,6L9,3"></path> <path fill="black" d="M0,6L3,6L3,9L0,9L0,6M6,6L9,6L9,9L6,9L6,6M3,9L6,9L6,12L3,12L3,9M9,9L12,9L12,12L9,12L9,9"></path> </pattern> <pattern y="0" x="0" height="12" width="12" patternUnits="userSpaceOnUse" id="cp4pattern"> <rect class="cp4color" height="12" width="12" y="0" x="0"></rect> <path fill="white" d="M0,0L3,0L3,3L0,3L0,0M6,0L9,0L9,3L6,3L6,0M3,3L6,3L6,6L3,6L3,3M9,3L12,3L12,6L9,6L9,3"></path> <path fill="white" d="M0,6L3,6L3,9L0,9L0,6M6,6L9,6L9,9L6,9L6,6M3,9L6,9L6,12L3,12L3,9M9,9L12,9L12,12L9,12L9,9"></path> </pattern> <pattern y="0" x="0" height="12" width="12" patternUnits="userSpaceOnUse" id="cp5pattern"> <rect class="cp5color" height="12" width="12" y="0" x="0"></rect> <path fill="black" d="M0,0L3,0L3,3L0,3L0,0M6,0L9,0L9,3L6,3L6,0M3,3L6,3L6,6L3,6L3,3M9,3L12,3L12,6L9,6L9,3"></path> <path fill="black" d="M0,6L3,6L3,9L0,9L0,6M6,6L9,6L9,9L6,9L6,6M3,9L6,9L6,12L3,12L3,9M9,9L12,9L12,12L9,12L9,9"></path> </pattern> <pattern y="0" x="0" height="12" width="12" patternUnits="userSpaceOnUse" id="cp6pattern"> <rect class="cp6color" height="12" width="12" y="0" x="0"></rect> <path fill="white" d="M0,0L3,0L3,3L0,3L0,0M6,0L9,0L9,3L6,3L6,0M3,3L6,3L6,6L3,6L3,3M9,3L12,3L12,6L9,6L9,3"></path> <path fill="white" d="M0,6L3,6L3,9L0,9L0,6M6,6L9,6L9,9L6,9L6,6M3,9L6,9L6,12L3,12L3,9M9,9L12,9L12,12L9,12L9,9"></path> </pattern> <pattern y="0" x="0" height="12" width="12" patternUnits="userSpaceOnUse" id="cp7pattern"> <rect class="cp7color" height="12" width="12" y="0" x="0"></rect> <path fill="black" d="M0,0L3,0L3,3L0,3L0,0M6,0L9,0L9,3L6,3L6,0M3,3L6,3L6,6L3,6L3,3M9,3L12,3L12,6L9,6L9,3"></path> <path fill="black" d="M0,6L3,6L3,9L0,9L0,6M6,6L9,6L9,9L6,9L6,6M3,9L6,9L6,12L3,12L3,9M9,9L12,9L12,12L9,12L9,9"></path> </pattern> <pattern y="0" x="0" height="12" width="12" patternUnits="userSpaceOnUse" id="cp8pattern"> <rect class="cp8color" height="12" width="12" y="0" x="0"></rect> <path fill="white" d="M0,0L3,0L3,3L0,3L0,0M6,0L9,0L9,3L6,3L6,0M3,3L6,3L6,6L3,6L3,3M9,3L12,3L12,6L9,6L9,3"></path> <path fill="white" d="M0,6L3,6L3,9L0,9L0,6M6,6L9,6L9,9L6,9L6,6M3,9L6,9L6,12L3,12L3,9M9,9L12,9L12,12L9,12L9,9"></path> </pattern> <pattern y="0" x="0" height="12" width="12" patternUnits="userSpaceOnUse" id="cp9pattern"> <rect class="cp9color" height="12" width="12" y="0" x="0"></rect> <path fill="black" d="M0,0L3,0L3,3L0,3L0,0M6,0L9,0L9,3L6,3L6,0M3,3L6,3L6,6L3,6L3,3M9,3L12,3L12,6L9,6L9,3"></path> <path fill="black" d="M0,6L3,6L3,9L0,9L0,6M6,6L9,6L9,9L6,9L6,6M3,9L6,9L6,12L3,12L3,9M9,9L12,9L12,12L9,12L9,9"></path> </pattern> </defs> <rect height="100%" width="100%" y="0" x="0" class="grass" id="mainfill"></rect> <g id="paths"><path class="parc" d="M0,0L0,0L12,0L12,108L0,108Z"></path><path class="finish" d="M768,12L768,12L792,12L792,48L780,48L780,24L768,24Z"></path><path class="road" d="M756,24L756,24L780,24L780,60L768,60L768,72L756,72L756,84L744,84L744,108L732,108L732,120L720,120L720,132L696,132L696,144L684,144L684,156L648,156L648,192L636,192L636,228L624,228L624,252L636,252L636,300L660,300L660,288L672,288L672,276L684,276L684,264L720,264L720,276L732,276L732,324L744,324L744,384L756,384L756,396L792,396L792,384L804,384L804,360L816,360L816,300L828,300L828,288L840,288L840,276L852,276L852,264L840,264L840,252L828,252L828,228L816,228L816,192L828,192L828,168L840,168L840,144L852,144L852,132L864,132L864,120L876,120L876,108L888,108L888,84L900,84L900,48L912,48L912,24L972,24L972,36L984,36L984,96L972,96L972,120L960,120L960,144L948,144L948,168L936,168L936,216L948,216L948,240L960,240L960,252L972,252L972,276L984,276L984,300L972,300L972,312L984,312L984,324L996,324L996,384L984,384L984,396L960,396L960,384L948,384L948,408L936,408L936,480L912,480L912,492L888,492L888,504L792,504L792,516L780,516L780,528L744,528L744,504L732,504L732,492L720,492L720,444L708,444L708,432L696,432L696,420L672,420L672,384L648,384L648,396L660,396L660,432L672,432L672,468L660,468L660,492L648,492L648,504L636,504L636,516L552,516L552,528L540,528L540,540L528,540L528,576L456,576L456,564L444,564L444,552L432,552L432,540L420,540L420,516L432,516L432,492L420,492L420,420L408,420L408,396L396,396L396,324L408,324L408,312L420,312L420,288L408,288L408,252L360,252L360,264L348,264L348,276L360,276L360,336L336,336L336,348L312,348L312,360L300,360L300,348L288,348L288,360L276,360L276,372L240,372L240,420L216,420L216,432L228,432L228,444L264,444L264,432L276,432L276,420L288,420L288,408L300,408L300,420L312,420L312,444L300,444L300,456L312,456L312,480L324,480L324,528L360,528L360,540L396,540L396,552L420,552L420,564L432,564L432,576L444,576L444,588L456,588L456,600L444,600L444,612L408,612L408,624L372,624L372,636L360,636L360,648L336,648L336,636L300,636L300,648L324,648L324,708L336,708L336,792L324,792L324,804L312,804L312,828L300,828L300,840L240,840L240,828L216,828L216,816L192,816L192,804L168,804L168,792L144,792L144,780L108,780L108,792L96,792L96,828L84,828L84,864L72,864L72,888L60,888L60,912L48,912L48,924L36,924L36,984L48,984L48,1008L84,1008L84,1032L96,1032L96,1044L120,1044L120,1056L168,1056L168,1068L192,1068L192,1056L216,1056L216,1044L240,1044L240,1032L252,1032L252,1020L264,1020L264,1008L276,1008L276,972L288,972L288,960L300,960L300,948L312,948L312,936L348,936L348,924L384,924L384,912L396,912L396,876L408,876L408,864L468,864L468,876L492,876L492,888L504,888L504,876L528,876L528,864L552,864L552,852L612,852L612,864L624,864L624,900L636,900L636,924L648,924L648,936L660,936L660,948L672,948L672,972L684,972L684,984L708,984L708,996L732,996L732,1008L744,1008L744,1032L756,1032L756,1044L780,1044L780,1032L792,1032L792,1020L780,1020L780,1008L768,1008L768,996L756,996L756,984L744,984L744,972L732,972L732,960L720,960L720,948L708,948L708,936L696,936L696,912L684,912L684,900L672,900L672,888L660,888L660,840L672,840L672,828L684,828L684,816L732,816L732,828L744,828L744,840L756,840L756,864L768,864L768,876L780,876L780,888L792,888L792,900L804,900L804,912L828,912L828,924L840,924L840,936L852,936L852,948L864,948L864,960L876,960L876,984L888,984L888,1032L900,1032L900,1044L912,1044L912,1068L924,1068L924,1080L936,1080L936,1092L948,1092L948,1104L984,1104L984,1116L996,1116L996,1128L984,1128L984,1140L972,1140L972,1152L960,1152L960,1164L948,1164L948,1176L924,1176L924,1152L900,1152L900,1104L888,1104L888,1092L876,1092L876,1068L864,1068L864,1032L852,1032L852,1008L840,1008L840,984L828,984L828,972L816,972L816,960L804,960L804,948L792,948L792,936L768,936L768,924L756,924L756,912L744,912L744,900L732,900L732,876L720,876L720,864L696,864L696,876L708,876L708,888L720,888L720,924L732,924L732,936L744,936L744,948L756,948L756,960L768,960L768,972L780,972L780,984L792,984L792,996L804,996L804,1008L828,1008L828,1020L840,1020L840,1056L828,1056L828,1068L816,1068L816,1056L804,1056L804,1068L816,1068L816,1104L804,1104L804,1116L792,1116L792,1140L768,1140L768,1152L756,1152L756,1188L744,1188L744,1200L708,1200L708,1188L696,1188L696,1176L684,1176L684,1164L660,1164L660,1116L744,1116L744,1104L756,1104L756,1068L744,1068L744,1044L720,1044L720,1032L696,1032L696,1008L672,1008L672,984L648,984L648,972L636,972L636,960L624,960L624,948L600,948L600,1056L588,1056L588,1080L540,1080L540,984L552,984L552,924L576,924L576,912L600,912L600,888L588,888L588,876L576,876L576,888L540,888L540,900L516,900L516,912L480,912L480,900L456,900L456,888L420,888L420,936L408,936L408,948L372,948L372,960L336,960L336,972L324,972L324,984L312,984L312,996L300,996L300,1044L276,1044L276,1056L264,1056L264,1068L240,1068L240,1080L228,1080L228,1092L120,1092L120,1080L84,1080L84,1068L72,1068L72,1056L60,1056L60,1044L48,1044L48,1032L36,1032L36,1020L24,1020L24,996L12,996L12,912L24,912L24,888L36,888L36,876L48,876L48,852L60,852L60,816L72,816L72,768L84,768L84,756L156,756L156,768L180,768L180,780L204,780L204,792L228,792L228,804L252,804L252,816L288,816L288,804L300,804L300,780L312,780L312,720L300,720L300,684L288,684L288,672L276,672L276,660L264,660L264,648L252,648L252,612L264,612L264,600L324,600L324,576L360,576L360,588L384,588L384,600L396,600L396,588L408,588L408,576L384,576L384,564L348,564L348,552L336,552L336,564L300,564L300,552L264,552L264,528L276,528L276,516L288,516L288,480L276,480L276,468L252,468L252,480L204,480L204,468L180,468L180,408L192,408L192,396L204,396L204,360L216,360L216,336L276,336L276,324L300,324L300,312L312,312L312,288L324,288L324,240L336,240L336,228L348,228L348,216L396,216L396,228L408,228L408,216L432,216L432,204L468,204L468,228L456,228L456,240L444,240L444,252L432,252L432,276L456,276L456,312L444,312L444,324L432,324L432,336L420,336L420,348L432,348L432,408L444,408L444,468L456,468L456,492L468,492L468,516L456,516L456,528L468,528L468,540L492,540L492,528L504,528L504,516L516,516L516,504L528,504L528,492L552,492L552,480L624,480L624,468L636,468L636,444L624,444L624,408L612,408L612,384L624,384L624,372L636,372L636,348L684,348L684,360L696,360L696,396L708,396L708,408L720,408L720,420L732,420L732,432L744,432L744,444L756,444L756,480L768,480L768,492L780,492L780,480L804,480L804,468L876,468L876,456L888,456L888,444L900,444L900,408L912,408L912,348L924,348L924,312L936,312L936,288L948,288L948,276L936,276L936,264L924,264L924,252L912,252L912,132L924,132L924,120L936,120L936,84L948,84L948,72L960,72L960,60L948,60L948,48L936,48L936,60L924,60L924,108L912,108L912,120L900,120L900,132L888,132L888,156L876,156L876,168L864,168L864,180L852,180L852,228L864,228L864,240L876,240L876,312L864,312L864,324L840,324L840,348L852,348L852,336L876,336L876,384L840,384L840,396L828,396L828,420L792,420L792,432L756,432L756,420L744,420L744,408L732,408L732,396L720,396L720,360L708,360L708,348L696,348L696,324L708,324L708,312L672,312L672,324L612,324L612,300L600,300L600,264L588,264L588,228L600,228L600,180L612,180L612,156L624,156L624,144L636,144L636,132L648,132L648,120L684,120L684,108L696,108L696,96L708,96L708,84L720,84L720,72L732,72L732,60L744,60L744,36L756,36L756,24M600,588L600,588L672,588L672,732L624,732L624,720L648,720L648,708L660,708L660,600L624,600L624,612L612,612L612,624L600,624L600,588M696,588L696,588L768,588L768,624L756,624L756,612L744,612L744,600L708,600L708,708L720,708L720,720L744,720L744,732L696,732L696,588M576,1008L576,1008L564,1008L564,1020L576,1020L576,1008M984,1152L984,1152L996,1152L996,1188L984,1188L984,1200L948,1200L948,1188L960,1188L960,1176L972,1176L972,1164L984,1164Z"></path><path class="start" d="M984,1128L984,1128L996,1128L996,1152L984,1152L984,1164L972,1164L972,1176L960,1176L960,1188L936,1188L936,1176L948,1176L948,1164L960,1164L960,1152L972,1152L972,1140L984,1140Z"></path></g> <rect opacity=".3" fill="url(#grid)" height="100%" width="100%" y="0" x="0"></rect></svg>