<svg height="708" width="2196" id="mapSvgView" xmlns:xlink="http://www.w3.org/1999/xlink" version="1.1" xmlns="http://www.w3.org/2000/svg"> <defs> <style type="text/css"> .grass {fill: rgb(0, 200, 0);} .road {fill: rgb(128, 128, 128);} .start {fill: url(#startPattern)} .finish {fill: url(#finishPattern)} .mud {fill: rgb(100, 70, 0);} .sand {fill: rgb(230, 230, 115);} .water {fill: blue;} .earth {fill: brown;} .night {fill: black;} .parc {fill: rgb(200, 200, 200);} .cp1color {fill: rgb(0, 102, 255);} .cp2color {fill: rgb(0, 100, 200);} .cp3color {fill: rgb(0, 255, 102);} .cp4color {fill: rgb(0, 200, 0);} .cp5color {fill: rgb(255, 255, 0);} .cp6color {fill: rgb(200, 200, 0);} .cp7color {fill: rgb(255, 0, 0);} .cp8color {fill: rgb(200, 0, 0);} .cp9color {fill: rgb(255, 0, 255);} .cp1 {fill: url(#cp1pattern);} .cp2 {fill: url(#cp2pattern);} .cp3 {fill: url(#cp3pattern);} .cp4 {fill: url(#cp4pattern);} .cp5 {fill: url(#cp5pattern);} .cp6 {fill: url(#cp6pattern);} .cp7 {fill: url(#cp7pattern);} .cp8 {fill: url(#cp8pattern);} .cp9 {fill: url(#cp9pattern);} .primaryColor {fill: rgb(0, 255, 102);} </style> <pattern y="0" x="0" height="12" width="12" patternUnits="userSpaceOnUse" id="grid"> <line stroke-width="1" stroke="black" y2="12" x2="12" y1="0" x1="12"></line> <line stroke-width="1" stroke="black" y2="12" x2="12" y1="12" x1="0"></line> </pattern> <pattern y="0" x="0" height="12" width="12" patternUnits="userSpaceOnUse" id="finishPattern"> <rect fill="black" height="12" width="12" y="0" x="0"></rect> <path fill="white" d="M0,0L3,0L3,3L0,3L0,0M6,0L9,0L9,3L6,3L6,0M3,3L6,3L6,6L3,6L3,3M9,3L12,3L12,6L9,6L9,3"></path> <path fill="white" d="M0,6L3,6L3,9L0,9L0,6M6,6L9,6L9,9L6,9L6,6M3,9L6,9L6,12L3,12L3,9M9,9L12,9L12,12L9,12L9,9"></path> </pattern> <pattern y="0" x="0" height="12" width="12" patternUnits="userSpaceOnUse" id="startPattern"> <rect fill="rgb(100,100,100)" height="12" width="12" y="0" x="0"></rect> <rect stroke-width="1" stroke="rgb(200,200,200)" fill="none" height="5" width="5" y="3.5" x="3.5"></rect> &gt; </pattern> <pattern y="0" x="0" height="12" width="12" patternUnits="userSpaceOnUse" id="cp1pattern"> <rect class="cp1color" height="12" width="12" y="0" x="0"></rect> <path fill="black" d="M0,0L3,0L3,3L0,3L0,0M6,0L9,0L9,3L6,3L6,0M3,3L6,3L6,6L3,6L3,3M9,3L12,3L12,6L9,6L9,3"></path> <path fill="black" d="M0,6L3,6L3,9L0,9L0,6M6,6L9,6L9,9L6,9L6,6M3,9L6,9L6,12L3,12L3,9M9,9L12,9L12,12L9,12L9,9"></path> </pattern> <pattern y="0" x="0" height="12" width="12" patternUnits="userSpaceOnUse" id="cp2pattern"> <rect class="cp2color" height="12" width="12" y="0" x="0"></rect> <path fill="white" d="M0,0L3,0L3,3L0,3L0,0M6,0L9,0L9,3L6,3L6,0M3,3L6,3L6,6L3,6L3,3M9,3L12,3L12,6L9,6L9,3"></path> <path fill="white" d="M0,6L3,6L3,9L0,9L0,6M6,6L9,6L9,9L6,9L6,6M3,9L6,9L6,12L3,12L3,9M9,9L12,9L12,12L9,12L9,9"></path> </pattern> <pattern y="0" x="0" height="12" width="12" patternUnits="userSpaceOnUse" id="cp3pattern"> <rect class="cp3color" height="12" width="12" y="0" x="0"></rect> <path fill="black" d="M0,0L3,0L3,3L0,3L0,0M6,0L9,0L9,3L6,3L6,0M3,3L6,3L6,6L3,6L3,3M9,3L12,3L12,6L9,6L9,3"></path> <path fill="black" d="M0,6L3,6L3,9L0,9L0,6M6,6L9,6L9,9L6,9L6,6M3,9L6,9L6,12L3,12L3,9M9,9L12,9L12,12L9,12L9,9"></path> </pattern> <pattern y="0" x="0" height="12" width="12" patternUnits="userSpaceOnUse" id="cp4pattern"> <rect class="cp4color" height="12" width="12" y="0" x="0"></rect> <path fill="white" d="M0,0L3,0L3,3L0,3L0,0M6,0L9,0L9,3L6,3L6,0M3,3L6,3L6,6L3,6L3,3M9,3L12,3L12,6L9,6L9,3"></path> <path fill="white" d="M0,6L3,6L3,9L0,9L0,6M6,6L9,6L9,9L6,9L6,6M3,9L6,9L6,12L3,12L3,9M9,9L12,9L12,12L9,12L9,9"></path> </pattern> <pattern y="0" x="0" height="12" width="12" patternUnits="userSpaceOnUse" id="cp5pattern"> <rect class="cp5color" height="12" width="12" y="0" x="0"></rect> <path fill="black" d="M0,0L3,0L3,3L0,3L0,0M6,0L9,0L9,3L6,3L6,0M3,3L6,3L6,6L3,6L3,3M9,3L12,3L12,6L9,6L9,3"></path> <path fill="black" d="M0,6L3,6L3,9L0,9L0,6M6,6L9,6L9,9L6,9L6,6M3,9L6,9L6,12L3,12L3,9M9,9L12,9L12,12L9,12L9,9"></path> </pattern> <pattern y="0" x="0" height="12" width="12" patternUnits="userSpaceOnUse" id="cp6pattern"> <rect class="cp6color" height="12" width="12" y="0" x="0"></rect> <path fill="white" d="M0,0L3,0L3,3L0,3L0,0M6,0L9,0L9,3L6,3L6,0M3,3L6,3L6,6L3,6L3,3M9,3L12,3L12,6L9,6L9,3"></path> <path fill="white" d="M0,6L3,6L3,9L0,9L0,6M6,6L9,6L9,9L6,9L6,6M3,9L6,9L6,12L3,12L3,9M9,9L12,9L12,12L9,12L9,9"></path> </pattern> <pattern y="0" x="0" height="12" width="12" patternUnits="userSpaceOnUse" id="cp7pattern"> <rect class="cp7color" height="12" width="12" y="0" x="0"></rect> <path fill="black" d="M0,0L3,0L3,3L0,3L0,0M6,0L9,0L9,3L6,3L6,0M3,3L6,3L6,6L3,6L3,3M9,3L12,3L12,6L9,6L9,3"></path> <path fill="black" d="M0,6L3,6L3,9L0,9L0,6M6,6L9,6L9,9L6,9L6,6M3,9L6,9L6,12L3,12L3,9M9,9L12,9L12,12L9,12L9,9"></path> </pattern> <pattern y="0" x="0" height="12" width="12" patternUnits="userSpaceOnUse" id="cp8pattern"> <rect class="cp8color" height="12" width="12" y="0" x="0"></rect> <path fill="white" d="M0,0L3,0L3,3L0,3L0,0M6,0L9,0L9,3L6,3L6,0M3,3L6,3L6,6L3,6L3,3M9,3L12,3L12,6L9,6L9,3"></path> <path fill="white" d="M0,6L3,6L3,9L0,9L0,6M6,6L9,6L9,9L6,9L6,6M3,9L6,9L6,12L3,12L3,9M9,9L12,9L12,12L9,12L9,9"></path> </pattern> <pattern y="0" x="0" height="12" width="12" patternUnits="userSpaceOnUse" id="cp9pattern"> <rect class="cp9color" height="12" width="12" y="0" x="0"></rect> <path fill="black" d="M0,0L3,0L3,3L0,3L0,0M6,0L9,0L9,3L6,3L6,0M3,3L6,3L6,6L3,6L3,3M9,3L12,3L12,6L9,6L9,3"></path> <path fill="black" d="M0,6L3,6L3,9L0,9L0,6M6,6L9,6L9,9L6,9L6,6M3,9L6,9L6,12L3,12L3,9M9,9L12,9L12,12L9,12L9,9"></path> </pattern> </defs> <rect height="100%" width="100%" y="0" x="0" class="grass" id="mainfill"></rect> <g id="paths"><path class="parc" d="M0,0L0,0L12,0L12,156L0,156Z"></path><path class="road" d="M396,12L396,12L480,12L480,24L492,24L492,36L504,36L504,48L516,48L516,96L504,96L504,120L492,120L492,132L480,132L480,180L504,180L504,192L516,192L516,204L528,204L528,252L504,252L504,240L492,240L492,252L504,252L504,264L516,264L516,288L528,288L528,276L552,276L552,264L564,264L564,252L576,252L576,240L588,240L588,228L600,228L600,216L612,216L612,204L636,204L636,192L648,192L648,180L684,180L684,168L708,168L708,180L732,180L732,192L744,192L744,204L756,204L756,252L744,252L744,276L732,276L732,288L720,288L720,300L708,300L708,312L696,312L696,300L684,300L684,288L672,288L672,264L684,264L684,252L696,252L696,240L708,240L708,228L732,228L732,216L696,216L696,228L684,228L684,240L660,240L660,264L648,264L648,276L636,276L636,288L624,288L624,300L612,300L612,324L600,324L600,336L588,336L588,360L576,360L576,396L564,396L564,456L576,456L576,468L588,468L588,456L612,456L612,444L624,444L624,432L636,432L636,420L660,420L660,396L672,396L672,384L684,384L684,372L696,372L696,360L708,360L708,348L720,348L720,324L732,324L732,312L744,312L744,300L756,300L756,276L768,276L768,264L780,264L780,252L792,252L792,240L804,240L804,228L816,228L816,216L828,216L828,204L852,204L852,192L864,192L864,180L900,180L900,168L912,168L912,180L936,180L936,192L948,192L948,180L1044,180L1044,192L1056,192L1056,180L1188,180L1188,192L1200,192L1200,168L1212,168L1212,156L1224,156L1224,144L1236,144L1236,132L1248,132L1248,120L1260,120L1260,108L1284,108L1284,96L1296,96L1296,84L1308,84L1308,72L1332,72L1332,60L1356,60L1356,48L1380,48L1380,36L1404,36L1404,24L1440,24L1440,12L1512,12L1512,36L1500,36L1500,48L1476,48L1476,60L1452,60L1452,72L1428,72L1428,84L1404,84L1404,96L1392,96L1392,108L1380,108L1380,120L1356,120L1356,132L1344,132L1344,144L1332,144L1332,156L1320,156L1320,168L1308,168L1308,180L1296,180L1296,192L1284,192L1284,204L1272,204L1272,216L1260,216L1260,240L1248,240L1248,252L1236,252L1236,264L1224,264L1224,288L1212,288L1212,300L1200,300L1200,312L1188,312L1188,336L1176,336L1176,360L1164,360L1164,384L1152,384L1152,408L1140,408L1140,432L1128,432L1128,456L1116,456L1116,492L1104,492L1104,504L1092,504L1092,516L1104,516L1104,564L1092,564L1092,576L1080,576L1080,588L1092,588L1092,576L1104,576L1104,600L1092,600L1092,612L1080,612L1080,624L1092,624L1092,612L1104,612L1104,600L1116,600L1116,612L1140,612L1140,624L1152,624L1152,612L1188,612L1188,600L1212,600L1212,588L1224,588L1224,576L1236,576L1236,564L1248,564L1248,552L1260,552L1260,540L1272,540L1272,516L1284,516L1284,504L1296,504L1296,480L1308,480L1308,456L1320,456L1320,396L1332,396L1332,384L1320,384L1320,372L1308,372L1308,384L1296,384L1296,396L1284,396L1284,408L1272,408L1272,420L1260,420L1260,444L1248,444L1248,480L1236,480L1236,492L1224,492L1224,504L1200,504L1200,516L1188,516L1188,528L1164,528L1164,540L1152,540L1152,552L1140,552L1140,492L1152,492L1152,468L1164,468L1164,444L1176,444L1176,420L1188,420L1188,408L1200,408L1200,396L1212,396L1212,372L1236,372L1236,360L1248,360L1248,348L1284,348L1284,336L1320,336L1320,348L1344,348L1344,360L1356,360L1356,468L1344,468L1344,480L1356,480L1356,468L1368,468L1368,456L1380,456L1380,444L1392,444L1392,432L1404,432L1404,420L1416,420L1416,396L1440,396L1440,384L1452,384L1452,372L1464,372L1464,360L1476,360L1476,348L1512,348L1512,336L1560,336L1560,348L1572,348L1572,360L1584,360L1584,444L1572,444L1572,468L1584,468L1584,456L1596,456L1596,432L1608,432L1608,420L1620,420L1620,396L1632,396L1632,372L1644,372L1644,348L1656,348L1656,336L1668,336L1668,312L1680,312L1680,300L1692,300L1692,276L1704,276L1704,264L1716,264L1716,240L1728,240L1728,228L1740,228L1740,216L1752,216L1752,204L1764,204L1764,180L1776,180L1776,156L1752,156L1752,144L1740,144L1740,132L1716,132L1716,120L1704,120L1704,108L1680,108L1680,96L1656,96L1656,84L1632,84L1632,72L1596,72L1596,60L1560,60L1560,48L1536,48L1536,36L1524,36L1524,24L1572,24L1572,12L1656,12L1656,24L1692,24L1692,36L1716,36L1716,48L1740,48L1740,60L1764,60L1764,72L1788,72L1788,84L1812,84L1812,96L1836,96L1836,120L1824,120L1824,132L1812,132L1812,144L1800,144L1800,156L1788,156L1788,180L1800,180L1800,168L1812,168L1812,144L1824,144L1824,132L1836,132L1836,120L1848,120L1848,96L1860,96L1860,84L1884,84L1884,72L1896,72L1896,60L1908,60L1908,48L1932,48L1932,36L1944,36L1944,24L2016,24L2016,36L2028,36L2028,72L2016,72L2016,108L2004,108L2004,120L1992,120L1992,108L1980,108L1980,72L2004,72L2004,60L1968,60L1968,72L1956,72L1956,84L1944,84L1944,96L1932,96L1932,108L1920,108L1920,120L1908,120L1908,132L1896,132L1896,144L1884,144L1884,156L1872,156L1872,168L1860,168L1860,180L1848,180L1848,192L1836,192L1836,216L1824,216L1824,228L1812,228L1812,252L1800,252L1800,240L1788,240L1788,228L1776,228L1776,240L1788,240L1788,252L1800,252L1800,264L1788,264L1788,288L1776,288L1776,300L1764,300L1764,288L1740,288L1740,300L1764,300L1764,324L1752,324L1752,336L1740,336L1740,360L1728,360L1728,384L1716,384L1716,396L1704,396L1704,420L1716,420L1716,408L1728,408L1728,384L1740,384L1740,372L1752,372L1752,360L1776,360L1776,348L1788,348L1788,336L1800,336L1800,324L1812,324L1812,312L1824,312L1824,300L1836,300L1836,288L1848,288L1848,276L1860,276L1860,252L1872,252L1872,240L1884,240L1884,228L1896,228L1896,204L1860,204L1860,180L1872,180L1872,168L1884,168L1884,156L1896,156L1896,144L1908,144L1908,132L1944,132L1944,120L1980,120L1980,132L2016,132L2016,120L2028,120L2028,108L2040,108L2040,96L2064,96L2064,84L2088,84L2088,72L2100,72L2100,60L2112,60L2112,48L2136,48L2136,36L2148,36L2148,60L2136,60L2136,84L2124,84L2124,96L2112,96L2112,108L2100,108L2100,120L2088,120L2088,132L2076,132L2076,144L2052,144L2052,156L2028,156L2028,168L2016,168L2016,180L1980,180L1980,192L1968,192L1968,204L1956,204L1956,216L1932,216L1932,204L1920,204L1920,216L1932,216L1932,240L1920,240L1920,252L1908,252L1908,264L1896,264L1896,276L1884,276L1884,288L1872,288L1872,300L1860,300L1860,312L1848,312L1848,324L1836,324L1836,336L1824,336L1824,348L1812,348L1812,360L1800,360L1800,372L1788,372L1788,384L1776,384L1776,396L1764,396L1764,408L1752,408L1752,420L1740,420L1740,432L1716,432L1716,444L1704,444L1704,456L1692,456L1692,468L1668,468L1668,504L1656,504L1656,528L1644,528L1644,564L1632,564L1632,576L1620,576L1620,588L1632,588L1632,612L1620,612L1620,624L1632,624L1632,612L1644,612L1644,600L1668,600L1668,576L1680,576L1680,564L1692,564L1692,552L1704,552L1704,528L1716,528L1716,516L1728,516L1728,492L1740,492L1740,480L1752,480L1752,456L1764,456L1764,444L1776,444L1776,432L1788,432L1788,420L1800,420L1800,408L1812,408L1812,396L1824,396L1824,384L1836,384L1836,372L1848,372L1848,360L1872,360L1872,348L1884,348L1884,336L1932,336L1932,348L2040,348L2040,372L2028,372L2028,384L2016,384L2016,408L2004,408L2004,432L1992,432L1992,456L1980,456L1980,468L1968,468L1968,492L1956,492L1956,516L1944,516L1944,528L1932,528L1932,552L1920,552L1920,576L1908,576L1908,588L1896,588L1896,624L1884,624L1884,636L1872,636L1872,648L1884,648L1884,636L1896,636L1896,624L1908,624L1908,600L1920,600L1920,588L1932,588L1932,576L1944,576L1944,564L1956,564L1956,552L1968,552L1968,528L1980,528L1980,516L2004,516L2004,528L2016,528L2016,540L2004,540L2004,552L1992,552L1992,576L1980,576L1980,588L1968,588L1968,600L1956,600L1956,612L1944,612L1944,624L1932,624L1932,636L1920,636L1920,648L1908,648L1908,660L1884,660L1884,672L1872,672L1872,684L1836,684L1836,672L1812,672L1812,648L1824,648L1824,612L1812,612L1812,600L1800,600L1800,588L1812,588L1812,600L1824,600L1824,612L1836,612L1836,588L1824,588L1824,564L1836,564L1836,540L1848,540L1848,528L1860,528L1860,504L1872,504L1872,480L1884,480L1884,468L1896,468L1896,444L1908,444L1908,420L1920,420L1920,408L1932,408L1932,396L1956,396L1956,384L1944,384L1944,372L1932,372L1932,384L1920,384L1920,396L1896,396L1896,408L1884,408L1884,420L1872,420L1872,432L1860,432L1860,456L1848,456L1848,468L1836,468L1836,480L1824,480L1824,456L1812,456L1812,480L1824,480L1824,504L1812,504L1812,528L1800,528L1800,552L1788,552L1788,576L1776,576L1776,612L1788,612L1788,600L1800,600L1800,612L1788,612L1788,624L1800,624L1800,612L1812,612L1812,624L1800,624L1800,636L1788,636L1788,648L1776,648L1776,660L1764,660L1764,672L1752,672L1752,684L1716,684L1716,672L1692,672L1692,660L1680,660L1680,636L1668,636L1668,648L1656,648L1656,660L1632,660L1632,672L1608,672L1608,684L1572,684L1572,672L1560,672L1560,660L1548,660L1548,636L1536,636L1536,588L1548,588L1548,552L1560,552L1560,516L1572,516L1572,504L1548,504L1548,516L1536,516L1536,540L1524,540L1524,552L1512,552L1512,564L1500,564L1500,588L1488,588L1488,600L1476,600L1476,612L1464,612L1464,624L1452,624L1452,636L1440,636L1440,648L1428,648L1428,660L1404,660L1404,672L1380,672L1380,684L1344,684L1344,672L1320,672L1320,660L1308,660L1308,636L1296,636L1296,588L1308,588L1308,552L1296,552L1296,564L1284,564L1284,576L1272,576L1272,588L1260,588L1260,576L1248,576L1248,588L1260,588L1260,600L1248,600L1248,612L1236,612L1236,624L1224,624L1224,636L1212,636L1212,624L1200,624L1200,636L1212,636L1212,648L1188,648L1188,660L1176,660L1176,672L1140,672L1140,684L1116,684L1116,672L1104,672L1104,684L1080,684L1080,672L1056,672L1056,660L1044,660L1044,648L1032,648L1032,636L1020,636L1020,624L1008,624L1008,600L996,600L996,492L1008,492L1008,456L1020,456L1020,420L1032,420L1032,396L1044,396L1044,372L1056,372L1056,348L1068,348L1068,336L1080,336L1080,312L1092,312L1092,300L1104,300L1104,276L1116,276L1116,264L1128,264L1128,252L1104,252L1104,240L1092,240L1092,252L984,252L984,276L972,276L972,300L960,300L960,312L948,312L948,336L936,336L936,360L924,360L924,372L912,372L912,396L900,396L900,420L888,420L888,432L876,432L876,444L900,444L900,432L912,432L912,420L924,420L924,408L936,408L936,396L948,396L948,372L960,372L960,360L972,360L972,348L1008,348L1008,372L996,372L996,384L984,384L984,396L972,396L972,420L960,420L960,432L948,432L948,444L936,444L936,456L924,456L924,468L912,468L912,480L900,480L900,492L876,492L876,504L864,504L864,516L804,516L804,504L792,504L792,480L780,480L780,492L768,492L768,504L744,504L744,516L684,516L684,504L672,504L672,480L660,480L660,468L672,468L672,456L684,456L684,444L660,444L660,456L648,456L648,468L636,468L636,480L624,480L624,492L600,492L600,504L576,504L576,516L504,516L504,504L492,504L492,492L480,492L480,480L468,480L468,396L480,396L480,360L468,360L468,372L456,372L456,396L444,396L444,408L432,408L432,420L420,420L420,432L408,432L408,456L396,456L396,468L372,468L372,480L360,480L360,492L348,492L348,504L324,504L324,516L264,516L264,504L252,504L252,492L240,492L240,468L228,468L228,432L240,432L240,396L252,396L252,360L264,360L264,348L276,348L276,324L288,324L288,300L300,300L300,288L312,288L312,276L324,276L324,264L336,264L336,252L348,252L348,240L360,240L360,228L372,228L372,216L384,216L384,204L408,204L408,192L420,192L420,180L456,180L456,156L432,156L432,144L420,144L420,108L432,108L432,96L444,96L444,84L456,84L456,72L480,72L480,60L420,60L420,72L396,72L396,84L372,84L372,96L360,96L360,108L348,108L348,120L336,120L336,132L324,132L324,144L312,144L312,156L300,156L300,168L288,168L288,180L276,180L276,192L264,192L264,168L252,168L252,192L264,192L264,204L252,204L252,216L240,216L240,240L228,240L228,252L216,252L216,240L204,240L204,252L216,252L216,264L204,264L204,288L192,288L192,312L180,312L180,324L168,324L168,348L156,348L156,372L144,372L144,408L132,408L132,444L108,444L108,432L84,432L84,444L108,444L108,456L120,456L120,576L108,576L108,588L120,588L120,576L132,576L132,588L144,588L144,612L132,612L132,600L120,600L120,612L132,612L132,624L144,624L144,612L168,612L168,624L216,624L216,636L276,636L276,624L348,624L348,612L396,612L396,600L456,600L456,588L504,588L504,576L552,576L552,564L636,564L636,552L684,552L684,564L744,564L744,660L720,660L720,672L708,672L708,684L684,684L684,660L660,660L660,648L648,648L648,636L612,636L612,624L444,624L444,636L396,636L396,648L348,648L348,660L288,660L288,672L228,672L228,684L144,684L144,672L108,672L108,660L84,660L84,648L72,648L72,636L60,636L60,624L48,624L48,612L36,612L36,600L24,600L24,576L12,576L12,432L24,432L24,384L36,384L36,360L48,360L48,336L60,336L60,312L72,312L72,288L84,288L84,276L96,276L96,252L108,252L108,240L120,240L120,228L132,228L132,204L144,204L144,192L156,192L156,180L168,180L168,168L180,168L180,156L192,156L192,144L204,144L204,132L216,132L216,120L228,120L228,108L240,108L240,96L264,96L264,84L276,84L276,72L300,72L300,60L312,60L312,48L336,48L336,36L360,36L360,24L396,24L396,12M456,36L456,36L444,36L444,48L456,48L456,36M1512,36L1512,36L1524,36L1524,48L1512,48L1512,36M492,48L492,48L480,48L480,60L492,60L492,48M1500,48L1500,48L1512,48L1512,60L1500,60L1500,48M1524,48L1524,48L1536,48L1536,60L1524,60L1524,48M372,60L372,60L360,60L360,72L372,72L372,60M1512,60L1512,60L1524,60L1524,72L1512,72L1512,60M1500,60L1500,60L1500,72L1512,72L1512,84L1500,84L1500,96L1476,96L1476,108L1464,108L1464,120L1452,120L1452,132L1440,132L1440,144L1428,144L1428,168L1416,168L1416,180L1404,180L1404,204L1392,204L1392,228L1380,228L1380,252L1428,252L1428,240L1440,240L1440,228L1452,228L1452,216L1464,216L1464,204L1476,204L1476,180L1488,180L1488,156L1500,156L1500,120L1512,120L1512,96L1524,96L1524,72L1536,72L1536,60L1548,60L1548,72L1560,72L1560,108L1548,108L1548,132L1536,132L1536,156L1524,156L1524,180L1512,180L1512,204L1500,204L1500,228L1488,228L1488,240L1476,240L1476,252L1464,252L1464,264L1440,264L1440,276L1428,276L1428,288L1368,288L1368,276L1356,276L1356,264L1344,264L1344,228L1356,228L1356,192L1368,192L1368,168L1380,168L1380,156L1392,156L1392,132L1404,132L1404,120L1416,120L1416,108L1428,108L1428,96L1440,96L1440,84L1464,84L1464,72L1488,72L1488,60L1500,60M324,108L324,108L312,108L312,120L324,120L324,108M468,108L468,108L456,108L456,120L468,120L468,108M252,132L252,132L240,132L240,144L252,144L252,132M216,168L216,168L204,168L204,180L216,180L216,168M492,192L492,192L480,192L480,204L492,204L492,192M1152,192L1152,192L1140,192L1140,204L1152,204L1152,192M1212,192L1212,192L1200,192L1200,204L1212,204L1212,192M1944,192L1944,192L1932,192L1932,204L1944,204L1944,192M504,204L504,204L492,204L492,216L456,216L456,228L444,228L444,240L432,240L432,288L420,288L420,300L408,300L408,288L396,288L396,300L384,300L384,324L372,324L372,336L360,336L360,360L348,360L348,384L336,384L336,444L360,444L360,432L372,432L372,420L396,420L396,396L408,396L408,384L420,384L420,372L432,372L432,348L444,348L444,336L456,336L456,324L432,324L432,312L420,312L420,300L432,300L432,288L444,288L444,300L468,300L468,276L480,276L480,228L492,228L492,216L504,216L504,204M888,204L888,204L876,204L876,216L888,216L888,204M1032,204L1032,204L1020,204L1020,228L1032,228L1032,204M1092,204L1092,204L1080,204L1080,216L1092,216L1092,204M1788,204L1788,204L1776,204L1776,216L1788,216L1788,204M924,216L924,216L912,216L912,228L888,228L888,240L876,240L876,252L864,252L864,276L852,276L852,288L840,288L840,300L828,300L828,288L792,288L792,300L828,300L828,324L816,324L816,336L804,336L804,360L792,360L792,372L780,372L780,396L768,396L768,444L780,444L780,432L792,432L792,420L804,420L804,408L816,408L816,396L828,396L828,372L840,372L840,360L852,360L852,336L864,336L864,324L876,324L876,300L888,300L888,276L900,276L900,252L912,252L912,228L936,228L936,216L924,216M984,216L984,216L972,216L972,228L984,228L984,216M1164,216L1164,216L1152,216L1152,228L1164,228L1164,216M852,240L852,240L840,240L840,252L852,252L852,240M948,240L948,240L936,240L936,252L948,252L948,240M180,252L180,252L168,252L168,264L180,264L180,252M960,252L960,252L948,252L948,264L960,264L960,252M816,264L816,264L804,264L804,276L816,276L816,264M1740,264L1740,264L1728,264L1728,276L1740,276L1740,264M1776,264L1776,264L1764,264L1764,276L1776,276L1776,264M504,288L504,288L492,288L492,300L504,300L504,288M1128,288L1128,288L1116,288L1116,312L1128,312L1128,288M1176,300L1176,300L1164,300L1164,312L1176,312L1176,300M1716,300L1716,300L1704,300L1704,312L1728,312L1728,300L1716,300M108,312L108,312L96,312L96,324L108,324L108,312M156,312L156,312L144,312L144,324L156,324L156,312M468,312L468,312L456,312L456,324L468,324L468,312M768,312L768,312L756,312L756,336L768,336L768,312M1740,312L1740,312L1728,312L1728,324L1740,324L1740,312M528,324L528,324L516,324L516,336L528,336L528,324M912,324L912,324L900,324L900,336L888,336L888,348L876,348L876,360L900,360L900,336L912,336L912,324M1128,324L1128,324L1116,324L1116,336L1140,336L1140,324L1128,324M1704,324L1704,324L1692,324L1692,336L1704,336L1704,324M492,336L492,336L480,336L480,348L492,348L492,336M540,336L540,336L528,336L528,348L540,348L540,336M1104,348L1104,348L1092,348L1092,372L1104,372L1104,348M1680,348L1680,348L1668,348L1668,360L1692,360L1692,348L1680,348M1716,348L1716,348L1704,348L1704,360L1716,360L1716,348M516,360L516,360L504,360L504,372L516,372L516,360M756,360L756,360L744,360L744,372L756,372L756,360M1140,360L1140,360L1128,360L1128,372L1152,372L1152,360L1140,360M1908,360L1908,360L1896,360L1896,372L1908,372L1908,360M1980,360L1980,360L1968,360L1968,372L1980,372L1980,360M132,372L132,372L120,372L120,384L132,384L132,372M528,372L528,372L516,372L516,384L504,384L504,396L516,396L516,384L528,384L528,372M732,372L732,372L720,372L720,384L732,384L732,372M1704,372L1704,372L1692,372L1692,384L1680,384L1680,396L1692,396L1692,384L1704,384L1704,372M84,384L84,384L72,384L72,396L84,396L84,384M708,384L708,384L696,384L696,396L708,396L708,384M744,384L744,384L732,384L732,396L744,396L744,384M1080,384L1080,384L1068,384L1068,396L1080,396L1080,384M1524,384L1524,384L1512,384L1512,396L1500,396L1500,444L1488,444L1488,456L1476,456L1476,444L1464,444L1464,432L1452,432L1452,444L1464,444L1464,456L1476,456L1476,468L1452,468L1452,456L1440,456L1440,468L1452,468L1452,480L1440,480L1440,504L1428,504L1428,528L1416,528L1416,552L1404,552L1404,600L1440,600L1440,588L1452,588L1452,576L1464,576L1464,564L1476,564L1476,540L1488,540L1488,528L1500,528L1500,504L1512,504L1512,492L1500,492L1500,480L1476,480L1476,468L1488,468L1488,456L1512,456L1512,468L1500,468L1500,480L1512,480L1512,468L1536,468L1536,444L1548,444L1548,396L1560,396L1560,384L1524,384M1668,396L1668,396L1656,396L1656,408L1668,408L1668,396M1860,396L1860,396L1848,396L1848,408L1872,408L1872,396L1860,396M864,408L864,408L852,408L852,420L876,420L876,408L864,408M1068,408L1068,408L1056,408L1056,432L1068,432L1068,408M1104,408L1104,408L1092,408L1092,420L1104,420L1104,408M1692,408L1692,408L1680,408L1680,420L1692,420L1692,408M1824,408L1824,408L1812,408L1812,432L1824,432L1824,408M1968,408L1968,408L1956,408L1956,420L1968,420L1968,408M732,420L732,420L720,420L720,432L732,432L732,420M1656,420L1656,420L1644,420L1644,432L1632,432L1632,444L1620,444L1620,456L1608,456L1608,468L1620,468L1620,456L1632,456L1632,444L1656,444L1656,432L1668,432L1668,420L1656,420M528,432L528,432L516,432L516,444L540,444L540,432L528,432M1440,432L1440,432L1428,432L1428,444L1416,444L1416,456L1428,456L1428,444L1440,444L1440,432M1836,432L1836,432L1824,432L1824,444L1836,444L1836,432M1932,432L1932,432L1920,432L1920,444L1932,444L1932,432M1092,444L1092,444L1080,444L1080,468L1092,468L1092,444M36,456L36,456L24,456L24,468L36,468L36,456M1068,456L1068,456L1056,456L1056,468L1068,468L1068,456M1392,456L1392,456L1380,456L1380,480L1392,480L1392,456M1788,456L1788,456L1776,456L1776,468L1788,468L1788,456M1956,456L1956,456L1944,456L1944,468L1956,468L1956,456M552,468L552,468L540,468L540,480L564,480L564,468L552,468M1428,468L1428,468L1416,468L1416,480L1428,480L1428,468M1560,468L1560,468L1548,468L1548,480L1560,480L1560,468M1644,468L1644,468L1632,468L1632,480L1644,480L1644,468M1404,480L1404,480L1392,480L1392,492L1380,492L1380,504L1392,504L1392,492L1404,492L1404,480M1536,480L1536,480L1524,480L1524,492L1536,492L1536,480M1572,480L1572,480L1560,480L1560,492L1572,492L1572,480M1596,480L1596,480L1584,480L1584,492L1608,492L1608,480L1596,480M1932,480L1932,480L1920,480L1920,492L1932,492L1932,480M72,492L72,492L60,492L60,504L84,504L84,492L72,492M1032,492L1032,492L1020,492L1020,504L1032,504L1032,492M1068,492L1068,492L1056,492L1056,504L1080,504L1080,492L1068,492M1416,492L1416,492L1404,492L1404,516L1416,516L1416,492M1632,492L1632,492L1620,492L1620,516L1632,516L1632,492M1776,492L1776,492L1764,492L1764,504L1776,504L1776,492M1788,504L1788,504L1776,504L1776,516L1788,516L1788,504M1308,516L1308,516L1296,516L1296,528L1332,528L1332,516L1308,516M1356,516L1356,516L1344,516L1344,528L1368,528L1368,516L1356,516M1608,516L1608,516L1596,516L1596,528L1572,528L1572,540L1596,540L1596,528L1608,528L1608,516M1764,516L1764,516L1752,516L1752,528L1764,528L1764,516M1092,528L1092,528L1080,528L1080,540L1092,540L1092,528M1392,528L1392,528L1380,528L1380,540L1368,540L1368,564L1380,564L1380,540L1392,540L1392,528M1632,528L1632,528L1620,528L1620,540L1632,540L1632,528M1884,528L1884,528L1872,528L1872,540L1884,540L1884,528M72,540L72,540L60,540L60,552L72,552L72,540M1020,540L1020,540L1008,540L1008,552L1032,552L1032,540L1020,540M1056,540L1056,540L1044,540L1044,552L1068,552L1068,540L1056,540M1320,540L1320,540L1308,540L1308,552L1320,552L1320,540M1344,540L1344,540L1332,540L1332,552L1344,552L1344,540M1752,540L1752,540L1740,540L1740,552L1752,552L1752,540M1272,552L1272,552L1260,552L1260,564L1272,564L1272,552M1620,552L1620,552L1608,552L1608,564L1620,564L1620,552M1776,552L1776,552L1764,552L1764,564L1776,564L1776,552M1908,552L1908,552L1896,552L1896,564L1908,564L1908,552M1044,564L1044,564L1032,564L1032,576L1044,576L1044,564M1596,564L1596,564L1584,564L1584,576L1596,576L1596,564M2016,552L2016,552L2088,552L2088,696L2040,696L2040,684L2064,684L2064,672L2076,672L2076,564L2040,564L2040,576L2028,576L2028,588L2016,588L2016,552M2112,552L2112,552L2184,552L2184,588L2172,588L2172,576L2160,576L2160,564L2124,564L2124,672L2136,672L2136,684L2160,684L2160,696L2112,696L2112,552M1332,576L1332,576L1320,576L1320,588L1332,588L1332,576M1728,576L1728,576L1716,576L1716,588L1740,588L1740,576L1728,576M1872,576L1872,576L1860,576L1860,588L1872,588L1872,576M756,576L756,576L768,576L768,648L756,648L756,576M780,576L780,576L792,576L792,588L828,588L828,600L852,600L852,612L864,612L864,624L888,624L888,636L900,636L900,648L912,648L912,660L924,660L924,672L888,672L888,660L852,660L852,648L780,648L780,576M1056,588L1056,588L1044,588L1044,600L1068,600L1068,588L1056,588M1236,588L1236,588L1224,588L1224,600L1236,600L1236,588M1356,588L1356,588L1344,588L1344,600L1356,600L1356,588M1392,588L1392,588L1380,588L1380,600L1392,600L1392,588M1560,588L1560,588L1548,588L1548,600L1560,600L1560,588M1584,588L1584,588L1572,588L1572,600L1584,600L1584,588M1704,588L1704,588L1692,588L1692,600L1704,600L1704,588M648,600L648,600L636,600L636,612L648,612L648,600M1608,600L1608,600L1596,600L1596,612L1608,612L1608,600M1572,612L1572,612L1560,612L1560,624L1572,624L1572,612M1680,612L1680,612L1668,612L1668,624L1680,624L1680,612M1728,612L1728,612L1716,612L1716,624L1728,624L1728,612M1872,612L1872,612L1860,612L1860,624L1872,624L1872,612M1056,624L1056,624L1044,624L1044,636L1056,636L1056,624M1128,624L1128,624L1116,624L1116,648L1128,648L1128,624M1176,624L1176,624L1164,624L1164,648L1176,648L1176,624M1584,624L1584,624L1572,624L1572,636L1584,636L1584,624M1608,624L1608,624L1596,624L1596,636L1608,636L1608,624M1656,624L1656,624L1644,624L1644,636L1656,636L1656,624M1692,624L1692,624L1680,624L1680,636L1692,636L1692,624M1848,636L1848,636L1836,636L1836,648L1848,648L1848,636M192,648L192,648L180,648L180,660L192,660L192,648M1092,648L1092,648L1080,648L1080,660L1092,660L1092,648M1152,648L1152,648L1140,648L1140,660L1152,660L1152,648M924,672L924,672L936,672L936,684L924,684L924,672M936,684L936,684L948,684L948,696L936,696Z"></path><path class="finish" d="M1992,504L1992,504L2028,504L2028,528L2004,528L2004,516L1992,516Z"></path><path class="start" d="M744,564L744,564L756,564L756,648L744,648L744,564M768,576L768,576L780,576L780,648L768,648Z"></path></g> <rect opacity=".3" fill="url(#grid)" height="100%" width="100%" y="0" x="0"></rect></svg>