<svg height="912" width="912" id="mapSvgView" xmlns:xlink="http://www.w3.org/1999/xlink" version="1.1" xmlns="http://www.w3.org/2000/svg"> <defs> <style type="text/css"> .grass {fill: rgb(0, 200, 0);} .road {fill: rgb(128, 128, 128);} .start {fill: url(#startPattern)} .finish {fill: url(#finishPattern)} .mud {fill: rgb(100, 70, 0);} .sand {fill: rgb(230, 230, 115);} .water {fill: blue;} .earth {fill: brown;} .night {fill: black;} .parc {fill: rgb(200, 200, 200);} .cp1color {fill: rgb(0, 102, 255);} .cp2color {fill: rgb(0, 100, 200);} .cp3color {fill: rgb(0, 255, 102);} .cp4color {fill: rgb(0, 200, 0);} .cp5color {fill: rgb(255, 255, 0);} .cp6color {fill: rgb(200, 200, 0);} .cp7color {fill: rgb(255, 0, 0);} .cp8color {fill: rgb(200, 0, 0);} .cp9color {fill: rgb(255, 0, 255);} .cp1 {fill: url(#cp1pattern);} .cp2 {fill: url(#cp2pattern);} .cp3 {fill: url(#cp3pattern);} .cp4 {fill: url(#cp4pattern);} .cp5 {fill: url(#cp5pattern);} .cp6 {fill: url(#cp6pattern);} .cp7 {fill: url(#cp7pattern);} .cp8 {fill: url(#cp8pattern);} .cp9 {fill: url(#cp9pattern);} .primaryColor {fill: rgb(0, 255, 102);} </style> <pattern y="0" x="0" height="12" width="12" patternUnits="userSpaceOnUse" id="grid"> <line stroke-width="1" stroke="black" y2="12" x2="12" y1="0" x1="12"></line> <line stroke-width="1" stroke="black" y2="12" x2="12" y1="12" x1="0"></line> </pattern> <pattern y="0" x="0" height="12" width="12" patternUnits="userSpaceOnUse" id="finishPattern"> <rect fill="black" height="12" width="12" y="0" x="0"></rect> <path fill="white" d="M0,0L3,0L3,3L0,3L0,0M6,0L9,0L9,3L6,3L6,0M3,3L6,3L6,6L3,6L3,3M9,3L12,3L12,6L9,6L9,3"></path> <path fill="white" d="M0,6L3,6L3,9L0,9L0,6M6,6L9,6L9,9L6,9L6,6M3,9L6,9L6,12L3,12L3,9M9,9L12,9L12,12L9,12L9,9"></path> </pattern> <pattern y="0" x="0" height="12" width="12" patternUnits="userSpaceOnUse" id="startPattern"> <rect fill="rgb(100,100,100)" height="12" width="12" y="0" x="0"></rect> <rect stroke-width="1" stroke="rgb(200,200,200)" fill="none" height="5" width="5" y="3.5" x="3.5"></rect> &gt; </pattern> <pattern y="0" x="0" height="12" width="12" patternUnits="userSpaceOnUse" id="cp1pattern"> <rect class="cp1color" height="12" width="12" y="0" x="0"></rect> <path fill="black" d="M0,0L3,0L3,3L0,3L0,0M6,0L9,0L9,3L6,3L6,0M3,3L6,3L6,6L3,6L3,3M9,3L12,3L12,6L9,6L9,3"></path> <path fill="black" d="M0,6L3,6L3,9L0,9L0,6M6,6L9,6L9,9L6,9L6,6M3,9L6,9L6,12L3,12L3,9M9,9L12,9L12,12L9,12L9,9"></path> </pattern> <pattern y="0" x="0" height="12" width="12" patternUnits="userSpaceOnUse" id="cp2pattern"> <rect class="cp2color" height="12" width="12" y="0" x="0"></rect> <path fill="white" d="M0,0L3,0L3,3L0,3L0,0M6,0L9,0L9,3L6,3L6,0M3,3L6,3L6,6L3,6L3,3M9,3L12,3L12,6L9,6L9,3"></path> <path fill="white" d="M0,6L3,6L3,9L0,9L0,6M6,6L9,6L9,9L6,9L6,6M3,9L6,9L6,12L3,12L3,9M9,9L12,9L12,12L9,12L9,9"></path> </pattern> <pattern y="0" x="0" height="12" width="12" patternUnits="userSpaceOnUse" id="cp3pattern"> <rect class="cp3color" height="12" width="12" y="0" x="0"></rect> <path fill="black" d="M0,0L3,0L3,3L0,3L0,0M6,0L9,0L9,3L6,3L6,0M3,3L6,3L6,6L3,6L3,3M9,3L12,3L12,6L9,6L9,3"></path> <path fill="black" d="M0,6L3,6L3,9L0,9L0,6M6,6L9,6L9,9L6,9L6,6M3,9L6,9L6,12L3,12L3,9M9,9L12,9L12,12L9,12L9,9"></path> </pattern> <pattern y="0" x="0" height="12" width="12" patternUnits="userSpaceOnUse" id="cp4pattern"> <rect class="cp4color" height="12" width="12" y="0" x="0"></rect> <path fill="white" d="M0,0L3,0L3,3L0,3L0,0M6,0L9,0L9,3L6,3L6,0M3,3L6,3L6,6L3,6L3,3M9,3L12,3L12,6L9,6L9,3"></path> <path fill="white" d="M0,6L3,6L3,9L0,9L0,6M6,6L9,6L9,9L6,9L6,6M3,9L6,9L6,12L3,12L3,9M9,9L12,9L12,12L9,12L9,9"></path> </pattern> <pattern y="0" x="0" height="12" width="12" patternUnits="userSpaceOnUse" id="cp5pattern"> <rect class="cp5color" height="12" width="12" y="0" x="0"></rect> <path fill="black" d="M0,0L3,0L3,3L0,3L0,0M6,0L9,0L9,3L6,3L6,0M3,3L6,3L6,6L3,6L3,3M9,3L12,3L12,6L9,6L9,3"></path> <path fill="black" d="M0,6L3,6L3,9L0,9L0,6M6,6L9,6L9,9L6,9L6,6M3,9L6,9L6,12L3,12L3,9M9,9L12,9L12,12L9,12L9,9"></path> </pattern> <pattern y="0" x="0" height="12" width="12" patternUnits="userSpaceOnUse" id="cp6pattern"> <rect class="cp6color" height="12" width="12" y="0" x="0"></rect> <path fill="white" d="M0,0L3,0L3,3L0,3L0,0M6,0L9,0L9,3L6,3L6,0M3,3L6,3L6,6L3,6L3,3M9,3L12,3L12,6L9,6L9,3"></path> <path fill="white" d="M0,6L3,6L3,9L0,9L0,6M6,6L9,6L9,9L6,9L6,6M3,9L6,9L6,12L3,12L3,9M9,9L12,9L12,12L9,12L9,9"></path> </pattern> <pattern y="0" x="0" height="12" width="12" patternUnits="userSpaceOnUse" id="cp7pattern"> <rect class="cp7color" height="12" width="12" y="0" x="0"></rect> <path fill="black" d="M0,0L3,0L3,3L0,3L0,0M6,0L9,0L9,3L6,3L6,0M3,3L6,3L6,6L3,6L3,3M9,3L12,3L12,6L9,6L9,3"></path> <path fill="black" d="M0,6L3,6L3,9L0,9L0,6M6,6L9,6L9,9L6,9L6,6M3,9L6,9L6,12L3,12L3,9M9,9L12,9L12,12L9,12L9,9"></path> </pattern> <pattern y="0" x="0" height="12" width="12" patternUnits="userSpaceOnUse" id="cp8pattern"> <rect class="cp8color" height="12" width="12" y="0" x="0"></rect> <path fill="white" d="M0,0L3,0L3,3L0,3L0,0M6,0L9,0L9,3L6,3L6,0M3,3L6,3L6,6L3,6L3,3M9,3L12,3L12,6L9,6L9,3"></path> <path fill="white" d="M0,6L3,6L3,9L0,9L0,6M6,6L9,6L9,9L6,9L6,6M3,9L6,9L6,12L3,12L3,9M9,9L12,9L12,12L9,12L9,9"></path> </pattern> <pattern y="0" x="0" height="12" width="12" patternUnits="userSpaceOnUse" id="cp9pattern"> <rect class="cp9color" height="12" width="12" y="0" x="0"></rect> <path fill="black" d="M0,0L3,0L3,3L0,3L0,0M6,0L9,0L9,3L6,3L6,0M3,3L6,3L6,6L3,6L3,3M9,3L12,3L12,6L9,6L9,3"></path> <path fill="black" d="M0,6L3,6L3,9L0,9L0,6M6,6L9,6L9,9L6,9L6,6M3,9L6,9L6,12L3,12L3,9M9,9L12,9L12,12L9,12L9,9"></path> </pattern> </defs> <rect height="100%" width="100%" y="0" x="0" class="grass" id="mainfill"></rect> <g id="paths"><path class="parc" d="M0,0L0,0L12,0L12,60L0,60Z"></path><path class="mud" d="M324,12L324,12L336,12L336,24L324,24L324,12M336,24L336,24L348,24L348,48L336,48L336,24M324,24L324,24L324,48L312,48L312,24L324,24M324,48L324,48L336,48L336,96L324,96L324,48M312,48L312,48L312,96L300,96L300,48L312,48M408,48L408,48L420,48L420,60L408,60L408,48M420,60L420,60L432,60L432,84L420,84L420,60M408,60L408,60L408,84L396,84L396,60L408,60M228,60L228,60L240,60L240,72L228,72L228,60M240,72L240,72L252,72L252,96L240,96L240,72M228,72L228,72L228,96L216,96L216,72L228,72M408,84L408,84L420,84L420,132L408,132L408,84M432,84L432,84L444,84L444,132L432,132L432,84M228,96L228,96L240,96L240,144L228,144L228,96M252,96L252,96L264,96L264,144L252,144L252,96M312,96L312,96L324,96L324,132L312,132L312,96M336,96L336,96L348,96L348,132L336,132L336,96M324,132L324,132L336,132L336,180L324,180L324,132M348,132L348,132L360,132L360,180L348,180L348,132M420,132L420,132L432,132L432,168L420,168L420,132M408,132L408,132L408,168L396,168L396,132L408,132M240,144L240,144L252,144L252,180L240,180L240,144M228,144L228,144L228,180L216,180L216,144L228,144M408,168L408,168L420,168L420,216L408,216L408,168M396,168L396,168L396,216L384,216L384,168L396,168M228,180L228,180L240,180L240,228L228,228L228,180M216,180L216,180L216,228L204,228L204,180L216,180M336,180L336,180L348,180L348,204L336,204L336,180M324,180L324,180L324,204L336,204L336,216L312,216L312,180L324,180M396,216L396,216L408,216L408,240L396,240L396,216M420,216L420,216L432,216L432,240L420,240L420,216M216,228L216,228L228,228L228,252L216,252L216,228M240,228L240,228L252,228L252,252L240,252L240,228M408,240L408,240L420,240L420,252L408,252L408,240M228,252L228,252L240,252L240,264L228,264L228,252M276,312L276,312L372,312L372,324L456,324L456,336L504,336L504,348L516,348L516,360L528,360L528,372L516,372L516,384L504,384L504,396L456,396L456,408L372,408L372,420L276,420L276,408L192,408L192,396L144,396L144,384L120,384L120,372L108,372L108,360L120,360L120,348L144,348L144,336L192,336L192,324L276,324L276,312M156,564L156,564L168,564L168,624L180,624L180,600L192,600L192,588L216,588L216,564L228,564L228,588L216,588L216,600L192,600L192,636L168,636L168,672L156,672L156,564M276,564L276,564L288,564L288,576L276,576L276,564M288,576L288,576L300,576L300,600L288,600L288,576M276,576L276,576L276,600L264,600L264,576L276,576M348,564L348,564L372,564L372,576L348,576L348,564M348,576L348,576L348,624L372,624L372,612L396,612L396,588L372,588L372,576L396,576L396,588L408,588L408,612L396,612L396,624L372,624L372,636L348,636L348,672L336,672L336,576L348,576M444,564L444,564L468,564L468,576L444,576L444,564M444,576L444,576L444,600L432,600L432,576L444,576M468,576L468,576L480,576L480,600L468,600L468,576M264,600L264,600L264,624L300,624L300,600L312,600L312,636L252,636L252,600L264,600M432,600L432,600L432,636L420,636L420,600L432,600M480,600L480,600L492,600L492,636L480,636L480,600M192,636L192,636L216,636L216,648L192,648L192,636M252,636L252,636L252,672L240,672L240,636L252,636M312,636L312,636L324,636L324,672L312,672L312,636M372,636L372,636L396,636L396,648L372,648L372,636M432,636L432,636L444,636L444,660L432,660L432,636M480,636L480,636L480,660L468,660L468,636L480,636M216,648L216,648L228,648L228,672L216,672L216,648M396,648L396,648L408,648L408,672L396,672L396,648M444,660L444,660L468,660L468,672L444,672Z"></path><path class="sand" d="M324,24L324,24L336,24L336,48L324,48L324,24M324,48L324,48L324,96L312,96L312,48L324,48M408,60L408,60L420,60L420,84L408,84L408,60M228,72L228,72L240,72L240,96L228,96L228,72M420,84L420,84L432,84L432,132L420,132L420,84M240,96L240,96L252,96L252,144L240,144L240,96M324,96L324,96L336,96L336,132L324,132L324,96M336,132L336,132L348,132L348,180L336,180L336,132M420,132L420,132L420,168L408,168L408,132L420,132M240,144L240,144L240,180L228,180L228,144L240,144M408,168L408,168L408,216L396,216L396,168L408,168M228,180L228,180L228,228L216,228L216,180L228,180M336,180L336,180L336,204L324,204L324,180L336,180M408,216L408,216L420,216L420,240L408,240L408,216M228,228L228,228L240,228L240,252L228,252L228,228M564,396L564,396L576,396L576,420L564,420L564,528L576,528L576,624L564,624L564,720L552,720L552,768L540,768L540,792L528,792L528,804L504,804L504,816L456,816L456,828L372,828L372,840L276,840L276,828L192,828L192,816L144,816L144,804L120,804L120,792L108,792L108,768L96,768L96,720L84,720L84,624L72,624L72,528L84,528L84,432L96,432L96,420L108,420L108,432L120,432L120,444L144,444L144,456L192,456L192,468L276,468L276,480L372,480L372,468L456,468L456,456L504,456L504,444L528,444L528,432L540,432L540,420L552,420L552,408L564,408L564,396M168,564L168,564L156,564L156,672L168,672L168,636L192,636L192,600L180,600L180,624L168,624L168,564M228,564L228,564L216,564L216,588L192,588L192,600L216,600L216,588L228,588L228,564M288,564L288,564L276,564L276,576L264,576L264,600L252,600L252,636L240,636L240,672L252,672L252,636L312,636L312,600L300,600L300,576L288,576L288,564M360,564L360,564L348,564L348,576L336,576L336,672L348,672L348,636L372,636L372,624L348,624L348,576L372,576L372,564L360,564M456,564L456,564L444,564L444,576L432,576L432,600L420,600L420,636L432,636L432,600L444,600L444,576L468,576L468,564L456,564M276,576L276,576L288,576L288,600L300,600L300,624L264,624L264,600L276,600L276,576M384,576L384,576L372,576L372,588L396,588L396,576L384,576M480,576L480,576L468,576L468,600L480,600L480,576M408,588L408,588L396,588L396,612L372,612L372,624L396,624L396,612L408,612L408,588M492,600L492,600L480,600L480,636L468,636L468,660L444,660L444,636L432,636L432,660L444,660L444,672L468,672L468,660L480,660L480,636L492,636L492,600M204,636L204,636L192,636L192,648L216,648L216,636L204,636M324,636L324,636L312,636L312,672L324,672L324,636M384,636L384,636L372,636L372,648L396,648L396,636L384,636M228,648L228,648L216,648L216,672L228,672L228,648M408,648L408,648L396,648L396,672L408,672Z"></path><path class="road" d="M276,252L276,252L372,252L372,264L456,264L456,276L504,276L504,288L528,288L528,300L540,300L540,312L552,312L552,324L564,324L564,408L552,408L552,420L540,420L540,432L528,432L528,444L504,444L504,456L456,456L456,468L372,468L372,480L276,480L276,468L192,468L192,456L144,456L144,444L120,444L120,432L108,432L108,420L96,420L96,432L84,432L84,528L72,528L72,624L84,624L84,720L96,720L96,768L108,768L108,792L120,792L120,804L144,804L144,816L192,816L192,828L276,828L276,840L372,840L372,828L456,828L456,816L504,816L504,804L528,804L528,792L540,792L540,768L552,768L552,720L564,720L564,624L576,624L576,528L564,528L564,420L576,420L576,372L588,372L588,360L612,360L612,348L708,348L708,360L756,360L756,372L780,372L780,384L804,384L804,396L828,396L828,408L840,408L840,420L852,420L852,432L864,432L864,456L876,456L876,480L888,480L888,504L900,504L900,600L888,600L888,624L876,624L876,648L864,648L864,660L852,660L852,684L840,684L840,696L828,696L828,708L804,708L804,720L780,720L780,732L756,732L756,744L708,744L708,756L660,756L660,744L648,744L648,732L636,732L636,720L648,720L648,708L660,708L660,696L708,696L708,684L756,684L756,672L780,672L780,660L804,660L804,648L816,648L816,624L828,624L828,600L840,600L840,504L828,504L828,480L816,480L816,456L804,456L804,444L780,444L780,432L756,432L756,420L708,420L708,408L636,408L636,420L624,420L624,528L636,528L636,624L624,624L624,720L612,720L612,768L600,768L600,804L588,804L588,828L576,828L576,840L564,840L564,852L540,852L540,864L504,864L504,876L456,876L456,888L372,888L372,900L276,900L276,888L192,888L192,876L144,876L144,864L108,864L108,852L84,852L84,840L72,840L72,828L60,828L60,804L48,804L48,768L36,768L36,720L24,720L24,624L12,624L12,528L24,528L24,432L36,432L36,384L48,384L48,372L60,372L60,360L108,360L108,372L120,372L120,384L144,384L144,396L192,396L192,408L276,408L276,420L372,420L372,408L456,408L456,396L504,396L504,384L516,384L516,372L528,372L528,360L516,360L516,348L504,348L504,336L456,336L456,324L372,324L372,312L276,312L276,324L192,324L192,336L144,336L144,348L132,348L132,336L120,336L120,324L108,324L108,300L120,300L120,288L144,288L144,276L192,276L192,264L276,264L276,252M108,324L108,324L108,336L120,336L120,348L84,348L84,324L108,324M660,720L660,720L648,720L648,732L660,732Z"></path><path class="finish" d="M96,312L96,312L108,312L108,324L96,324L96,312M108,324L108,324L120,324L120,336L108,336L108,324M120,336L120,336L132,336L132,348L120,348Z"></path><path class="start" d="M648,696L648,696L660,696L660,708L648,708L648,696M648,708L648,708L648,720L636,720L636,708L648,708M648,720L648,720L660,720L660,732L648,732L648,720M648,732L648,732L648,744L636,744L636,732L648,732M648,744L648,744L660,744L660,756L648,756Z"></path></g> <rect opacity=".3" fill="url(#grid)" height="100%" width="100%" y="0" x="0"></rect></svg>