<svg height="684" width="864" id="mapSvgView" xmlns:xlink="http://www.w3.org/1999/xlink" version="1.1" xmlns="http://www.w3.org/2000/svg"> <defs> <style type="text/css"> .grass {fill: rgb(0, 200, 0);} .road {fill: rgb(128, 128, 128);} .start {fill: url(#startPattern)} .finish {fill: url(#finishPattern)} .mud {fill: rgb(100, 70, 0);} .sand {fill: rgb(230, 230, 115);} .water {fill: blue;} .earth {fill: brown;} .night {fill: black;} .parc {fill: rgb(200, 200, 200);} .cp1color {fill: rgb(0, 102, 255);} .cp2color {fill: rgb(0, 100, 200);} .cp3color {fill: rgb(0, 255, 102);} .cp4color {fill: rgb(0, 200, 0);} .cp5color {fill: rgb(255, 255, 0);} .cp6color {fill: rgb(200, 200, 0);} .cp7color {fill: rgb(255, 0, 0);} .cp8color {fill: rgb(200, 0, 0);} .cp9color {fill: rgb(255, 0, 255);} .cp1 {fill: url(#cp1pattern);} .cp2 {fill: url(#cp2pattern);} .cp3 {fill: url(#cp3pattern);} .cp4 {fill: url(#cp4pattern);} .cp5 {fill: url(#cp5pattern);} .cp6 {fill: url(#cp6pattern);} .cp7 {fill: url(#cp7pattern);} .cp8 {fill: url(#cp8pattern);} .cp9 {fill: url(#cp9pattern);} .primaryColor {fill: rgb(0, 255, 102);} </style> <pattern y="0" x="0" height="12" width="12" patternUnits="userSpaceOnUse" id="grid"> <line stroke-width="1" stroke="black" y2="12" x2="12" y1="0" x1="12"></line> <line stroke-width="1" stroke="black" y2="12" x2="12" y1="12" x1="0"></line> </pattern> <pattern y="0" x="0" height="12" width="12" patternUnits="userSpaceOnUse" id="finishPattern"> <rect fill="black" height="12" width="12" y="0" x="0"></rect> <path fill="white" d="M0,0L3,0L3,3L0,3L0,0M6,0L9,0L9,3L6,3L6,0M3,3L6,3L6,6L3,6L3,3M9,3L12,3L12,6L9,6L9,3"></path> <path fill="white" d="M0,6L3,6L3,9L0,9L0,6M6,6L9,6L9,9L6,9L6,6M3,9L6,9L6,12L3,12L3,9M9,9L12,9L12,12L9,12L9,9"></path> </pattern> <pattern y="0" x="0" height="12" width="12" patternUnits="userSpaceOnUse" id="startPattern"> <rect fill="rgb(100,100,100)" height="12" width="12" y="0" x="0"></rect> <rect stroke-width="1" stroke="rgb(200,200,200)" fill="none" height="5" width="5" y="3.5" x="3.5"></rect> &gt; </pattern> <pattern y="0" x="0" height="12" width="12" patternUnits="userSpaceOnUse" id="cp1pattern"> <rect class="cp1color" height="12" width="12" y="0" x="0"></rect> <path fill="black" d="M0,0L3,0L3,3L0,3L0,0M6,0L9,0L9,3L6,3L6,0M3,3L6,3L6,6L3,6L3,3M9,3L12,3L12,6L9,6L9,3"></path> <path fill="black" d="M0,6L3,6L3,9L0,9L0,6M6,6L9,6L9,9L6,9L6,6M3,9L6,9L6,12L3,12L3,9M9,9L12,9L12,12L9,12L9,9"></path> </pattern> <pattern y="0" x="0" height="12" width="12" patternUnits="userSpaceOnUse" id="cp2pattern"> <rect class="cp2color" height="12" width="12" y="0" x="0"></rect> <path fill="white" d="M0,0L3,0L3,3L0,3L0,0M6,0L9,0L9,3L6,3L6,0M3,3L6,3L6,6L3,6L3,3M9,3L12,3L12,6L9,6L9,3"></path> <path fill="white" d="M0,6L3,6L3,9L0,9L0,6M6,6L9,6L9,9L6,9L6,6M3,9L6,9L6,12L3,12L3,9M9,9L12,9L12,12L9,12L9,9"></path> </pattern> <pattern y="0" x="0" height="12" width="12" patternUnits="userSpaceOnUse" id="cp3pattern"> <rect class="cp3color" height="12" width="12" y="0" x="0"></rect> <path fill="black" d="M0,0L3,0L3,3L0,3L0,0M6,0L9,0L9,3L6,3L6,0M3,3L6,3L6,6L3,6L3,3M9,3L12,3L12,6L9,6L9,3"></path> <path fill="black" d="M0,6L3,6L3,9L0,9L0,6M6,6L9,6L9,9L6,9L6,6M3,9L6,9L6,12L3,12L3,9M9,9L12,9L12,12L9,12L9,9"></path> </pattern> <pattern y="0" x="0" height="12" width="12" patternUnits="userSpaceOnUse" id="cp4pattern"> <rect class="cp4color" height="12" width="12" y="0" x="0"></rect> <path fill="white" d="M0,0L3,0L3,3L0,3L0,0M6,0L9,0L9,3L6,3L6,0M3,3L6,3L6,6L3,6L3,3M9,3L12,3L12,6L9,6L9,3"></path> <path fill="white" d="M0,6L3,6L3,9L0,9L0,6M6,6L9,6L9,9L6,9L6,6M3,9L6,9L6,12L3,12L3,9M9,9L12,9L12,12L9,12L9,9"></path> </pattern> <pattern y="0" x="0" height="12" width="12" patternUnits="userSpaceOnUse" id="cp5pattern"> <rect class="cp5color" height="12" width="12" y="0" x="0"></rect> <path fill="black" d="M0,0L3,0L3,3L0,3L0,0M6,0L9,0L9,3L6,3L6,0M3,3L6,3L6,6L3,6L3,3M9,3L12,3L12,6L9,6L9,3"></path> <path fill="black" d="M0,6L3,6L3,9L0,9L0,6M6,6L9,6L9,9L6,9L6,6M3,9L6,9L6,12L3,12L3,9M9,9L12,9L12,12L9,12L9,9"></path> </pattern> <pattern y="0" x="0" height="12" width="12" patternUnits="userSpaceOnUse" id="cp6pattern"> <rect class="cp6color" height="12" width="12" y="0" x="0"></rect> <path fill="white" d="M0,0L3,0L3,3L0,3L0,0M6,0L9,0L9,3L6,3L6,0M3,3L6,3L6,6L3,6L3,3M9,3L12,3L12,6L9,6L9,3"></path> <path fill="white" d="M0,6L3,6L3,9L0,9L0,6M6,6L9,6L9,9L6,9L6,6M3,9L6,9L6,12L3,12L3,9M9,9L12,9L12,12L9,12L9,9"></path> </pattern> <pattern y="0" x="0" height="12" width="12" patternUnits="userSpaceOnUse" id="cp7pattern"> <rect class="cp7color" height="12" width="12" y="0" x="0"></rect> <path fill="black" d="M0,0L3,0L3,3L0,3L0,0M6,0L9,0L9,3L6,3L6,0M3,3L6,3L6,6L3,6L3,3M9,3L12,3L12,6L9,6L9,3"></path> <path fill="black" d="M0,6L3,6L3,9L0,9L0,6M6,6L9,6L9,9L6,9L6,6M3,9L6,9L6,12L3,12L3,9M9,9L12,9L12,12L9,12L9,9"></path> </pattern> <pattern y="0" x="0" height="12" width="12" patternUnits="userSpaceOnUse" id="cp8pattern"> <rect class="cp8color" height="12" width="12" y="0" x="0"></rect> <path fill="white" d="M0,0L3,0L3,3L0,3L0,0M6,0L9,0L9,3L6,3L6,0M3,3L6,3L6,6L3,6L3,3M9,3L12,3L12,6L9,6L9,3"></path> <path fill="white" d="M0,6L3,6L3,9L0,9L0,6M6,6L9,6L9,9L6,9L6,6M3,9L6,9L6,12L3,12L3,9M9,9L12,9L12,12L9,12L9,9"></path> </pattern> <pattern y="0" x="0" height="12" width="12" patternUnits="userSpaceOnUse" id="cp9pattern"> <rect class="cp9color" height="12" width="12" y="0" x="0"></rect> <path fill="black" d="M0,0L3,0L3,3L0,3L0,0M6,0L9,0L9,3L6,3L6,0M3,3L6,3L6,6L3,6L3,3M9,3L12,3L12,6L9,6L9,3"></path> <path fill="black" d="M0,6L3,6L3,9L0,9L0,6M6,6L9,6L9,9L6,9L6,6M3,9L6,9L6,12L3,12L3,9M9,9L12,9L12,12L9,12L9,9"></path> </pattern> </defs> <rect height="100%" width="100%" y="0" x="0" class="grass" id="mainfill"></rect> <g id="paths"><path class="cp1" d="M360,636L360,636L384,636L384,660L360,660L360,636M660,636L660,636L684,636L684,660L660,660Z"></path><path class="cp2" d="M36,492L36,492L60,492L60,504L48,504L48,516L36,516L36,492M84,492L84,492L132,492L132,504L84,504L84,492M144,492L144,492L168,492L168,516L156,516L156,504L144,504L144,492M72,516L72,516L144,516L144,540L132,540L132,528L72,528L72,516M72,528L72,528L72,564L60,564L60,528L72,528M36,528L36,528L48,528L48,564L36,564L36,528M312,528L312,528L348,528L348,540L312,540L312,528M708,528L708,528L744,528L744,540L708,540L708,528M72,564L72,564L132,564L132,576L72,576L72,564M132,576L132,576L144,576L144,612L132,612L132,576M156,576L156,576L168,576L168,612L156,612L156,576M60,600L60,600L72,600L72,612L132,612L132,624L60,624L60,600M36,624L36,624L48,624L48,636L60,636L60,648L36,648L36,624M156,624L156,624L168,624L168,648L144,648L144,636L156,636L156,624M72,636L72,636L120,636L120,648L72,648Z"></path><path class="cp3" d="M372,348L372,348L396,348L396,360L372,360L372,348M660,348L660,348L684,348L684,360L660,360Z"></path><path class="cp4" d="M408,204L408,204L432,204L432,216L408,216L408,204M624,204L624,204L648,204L648,216L624,216Z"></path><path class="cp5" d="M432,36L432,36L444,36L444,48L432,48L432,36M444,48L444,48L456,48L456,60L444,60L444,48M612,36L612,36L624,36L624,48L612,48L612,36M612,48L612,48L612,60L600,60L600,48Z"></path><path class="parc" d="M0,0L0,0L12,0L12,60L0,60Z"></path><path class="road" d="M444,36L444,36L492,36L492,48L564,48L564,36L612,36L612,48L600,48L600,60L456,60L456,48L444,48L444,36M444,48L444,48L444,60L456,60L456,132L600,132L600,60L612,60L612,48L624,48L624,132L672,132L672,156L612,156L612,168L624,168L624,180L636,180L636,192L648,192L648,204L624,204L624,192L612,192L612,180L600,180L600,168L588,168L588,156L468,156L468,168L456,168L456,180L444,180L444,192L432,192L432,204L408,204L408,192L420,192L420,180L432,180L432,168L444,168L444,156L372,156L372,132L432,132L432,48L444,48M264,132L264,132L276,132L276,144L264,144L264,132M264,144L264,144L264,156L252,156L252,144L264,144M252,156L252,156L252,168L240,168L240,156L252,156M192,156L192,156L204,156L204,168L192,168L192,156M204,168L204,168L216,168L216,180L204,180L204,168M240,168L240,168L240,204L228,204L228,192L216,192L216,180L228,180L228,168L240,168M276,168L276,168L288,168L288,180L276,180L276,168M288,180L288,180L300,180L300,192L288,192L288,180M300,192L300,192L312,192L312,180L324,180L324,192L312,192L312,204L336,204L336,216L288,216L288,204L300,204L300,192M480,180L480,180L504,180L504,192L480,192L480,180M540,180L540,180L564,180L564,192L540,192L540,180M240,204L240,204L252,204L252,216L240,216L240,204M252,216L252,216L264,216L264,228L252,228L252,216M288,216L288,216L288,240L300,240L300,252L312,252L312,264L324,264L324,276L336,276L336,288L348,288L348,300L360,300L360,312L372,312L372,324L384,324L384,312L396,312L396,300L420,300L420,288L444,288L444,276L480,276L480,264L468,264L468,252L444,252L444,240L420,240L420,228L408,228L408,216L432,216L432,228L456,228L456,240L480,240L480,252L576,252L576,240L600,240L600,228L624,228L624,216L648,216L648,228L636,228L636,240L612,240L612,252L588,252L588,264L576,264L576,276L612,276L612,288L636,288L636,300L660,300L660,312L672,312L672,324L684,324L684,348L660,348L660,324L636,324L636,312L612,312L612,300L600,300L600,288L564,288L564,276L492,276L492,288L456,288L456,300L444,300L444,312L420,312L420,324L396,324L396,348L372,348L372,336L360,336L360,324L348,324L348,312L336,312L336,300L324,300L324,288L264,288L264,312L228,312L228,300L240,300L240,288L252,288L252,276L264,276L264,264L228,264L228,252L216,252L216,240L204,240L204,228L192,228L192,216L204,216L204,228L216,228L216,240L228,240L228,252L264,252L264,264L276,264L276,276L300,276L300,264L288,264L288,252L276,252L276,240L264,240L264,228L276,228L276,216L288,216M468,216L468,216L492,216L492,228L468,228L468,216M492,228L492,228L516,228L516,240L492,240L492,228M552,216L552,216L576,216L576,228L552,228L552,216M552,228L552,228L552,240L528,240L528,228L552,228M228,312L228,312L228,324L216,324L216,312L228,312M264,312L264,312L276,312L276,324L264,324L264,312M516,300L516,300L528,300L528,312L540,312L540,324L528,324L528,336L516,336L516,324L504,324L504,312L516,312L516,300M276,324L276,324L288,324L288,336L276,336L276,324M372,360L372,360L396,360L396,372L420,372L420,384L444,384L444,396L456,396L456,408L492,408L492,420L564,420L564,408L600,408L600,396L612,396L612,384L636,384L636,372L660,372L660,360L684,360L684,372L672,372L672,384L660,384L660,396L636,396L636,408L612,408L612,420L588,420L588,432L612,432L612,444L660,444L660,456L684,456L684,468L708,468L708,480L720,480L720,492L732,492L732,504L744,504L744,528L708,528L708,516L696,516L696,492L684,492L684,480L672,480L672,468L636,468L636,456L588,456L588,444L468,444L468,456L420,456L420,468L384,468L384,480L372,480L372,492L360,492L360,516L348,516L348,528L312,528L312,504L324,504L324,492L336,492L336,480L348,480L348,468L372,468L372,456L396,456L396,444L444,444L444,432L468,432L468,420L444,420L444,408L420,408L420,396L396,396L396,384L384,384L384,372L372,372L372,360M516,360L516,360L528,360L528,372L540,372L540,384L528,384L528,396L516,396L516,384L504,384L504,372L516,372L516,360M516,468L516,468L528,468L528,480L540,480L540,492L528,492L528,504L516,504L516,492L504,492L504,480L516,480L516,468M516,516L516,516L528,516L528,528L540,528L540,540L528,540L528,552L516,552L516,540L504,540L504,528L516,528L516,516M312,540L312,540L348,540L348,552L360,552L360,576L372,576L372,588L384,588L384,600L420,600L420,612L468,612L468,624L588,624L588,612L636,612L636,600L672,600L672,588L684,588L684,576L696,576L696,552L708,552L708,540L744,540L744,564L732,564L732,576L720,576L720,588L708,588L708,600L684,600L684,612L660,612L660,624L612,624L612,636L660,636L660,660L552,660L552,648L492,648L492,660L384,660L384,636L444,636L444,624L396,624L396,612L372,612L372,600L348,600L348,588L336,588L336,576L324,576L324,564L312,564L312,540M516,564L516,564L528,564L528,576L540,576L540,588L528,588L528,600L516,600L516,588L504,588L504,576L516,576L516,564M228,636L228,636L360,636L360,660L204,660L204,648L228,648L228,636M684,636L684,636L816,636L816,648L840,648L840,660L684,660Z"></path><path class="finish" d="M492,36L492,36L564,36L564,48L492,48Z"></path><path class="start" d="M492,648L492,648L552,648L552,660L492,660Z"></path></g> <rect opacity=".3" fill="url(#grid)" height="100%" width="100%" y="0" x="0"></rect></svg>