<svg height="612" width="600" id="mapSvgView" xmlns:xlink="http://www.w3.org/1999/xlink" version="1.1" xmlns="http://www.w3.org/2000/svg"> <defs> <style type="text/css"> .grass {fill: rgb(0, 200, 0);} .road {fill: rgb(128, 128, 128);} .start {fill: url(#startPattern)} .finish {fill: url(#finishPattern)} .mud {fill: rgb(100, 70, 0);} .sand {fill: rgb(230, 230, 115);} .water {fill: blue;} .earth {fill: brown;} .night {fill: black;} .parc {fill: rgb(200, 200, 200);} .cp1color {fill: rgb(0, 102, 255);} .cp2color {fill: rgb(0, 100, 200);} .cp3color {fill: rgb(0, 255, 102);} .cp4color {fill: rgb(0, 200, 0);} .cp5color {fill: rgb(255, 255, 0);} .cp6color {fill: rgb(200, 200, 0);} .cp7color {fill: rgb(255, 0, 0);} .cp8color {fill: rgb(200, 0, 0);} .cp9color {fill: rgb(255, 0, 255);} .cp1 {fill: url(#cp1pattern);} .cp2 {fill: url(#cp2pattern);} .cp3 {fill: url(#cp3pattern);} .cp4 {fill: url(#cp4pattern);} .cp5 {fill: url(#cp5pattern);} .cp6 {fill: url(#cp6pattern);} .cp7 {fill: url(#cp7pattern);} .cp8 {fill: url(#cp8pattern);} .cp9 {fill: url(#cp9pattern);} .primaryColor {fill: rgb(0, 255, 102);} </style> <pattern y="0" x="0" height="12" width="12" patternUnits="userSpaceOnUse" id="grid"> <line stroke-width="1" stroke="black" y2="12" x2="12" y1="0" x1="12"></line> <line stroke-width="1" stroke="black" y2="12" x2="12" y1="12" x1="0"></line> </pattern> <pattern y="0" x="0" height="12" width="12" patternUnits="userSpaceOnUse" id="finishPattern"> <rect fill="black" height="12" width="12" y="0" x="0"></rect> <path fill="white" d="M0,0L3,0L3,3L0,3L0,0M6,0L9,0L9,3L6,3L6,0M3,3L6,3L6,6L3,6L3,3M9,3L12,3L12,6L9,6L9,3"></path> <path fill="white" d="M0,6L3,6L3,9L0,9L0,6M6,6L9,6L9,9L6,9L6,6M3,9L6,9L6,12L3,12L3,9M9,9L12,9L12,12L9,12L9,9"></path> </pattern> <pattern y="0" x="0" height="12" width="12" patternUnits="userSpaceOnUse" id="startPattern"> <rect fill="rgb(100,100,100)" height="12" width="12" y="0" x="0"></rect> <rect stroke-width="1" stroke="rgb(200,200,200)" fill="none" height="5" width="5" y="3.5" x="3.5"></rect> &gt; </pattern> <pattern y="0" x="0" height="12" width="12" patternUnits="userSpaceOnUse" id="cp1pattern"> <rect class="cp1color" height="12" width="12" y="0" x="0"></rect> <path fill="black" d="M0,0L3,0L3,3L0,3L0,0M6,0L9,0L9,3L6,3L6,0M3,3L6,3L6,6L3,6L3,3M9,3L12,3L12,6L9,6L9,3"></path> <path fill="black" d="M0,6L3,6L3,9L0,9L0,6M6,6L9,6L9,9L6,9L6,6M3,9L6,9L6,12L3,12L3,9M9,9L12,9L12,12L9,12L9,9"></path> </pattern> <pattern y="0" x="0" height="12" width="12" patternUnits="userSpaceOnUse" id="cp2pattern"> <rect class="cp2color" height="12" width="12" y="0" x="0"></rect> <path fill="white" d="M0,0L3,0L3,3L0,3L0,0M6,0L9,0L9,3L6,3L6,0M3,3L6,3L6,6L3,6L3,3M9,3L12,3L12,6L9,6L9,3"></path> <path fill="white" d="M0,6L3,6L3,9L0,9L0,6M6,6L9,6L9,9L6,9L6,6M3,9L6,9L6,12L3,12L3,9M9,9L12,9L12,12L9,12L9,9"></path> </pattern> <pattern y="0" x="0" height="12" width="12" patternUnits="userSpaceOnUse" id="cp3pattern"> <rect class="cp3color" height="12" width="12" y="0" x="0"></rect> <path fill="black" d="M0,0L3,0L3,3L0,3L0,0M6,0L9,0L9,3L6,3L6,0M3,3L6,3L6,6L3,6L3,3M9,3L12,3L12,6L9,6L9,3"></path> <path fill="black" d="M0,6L3,6L3,9L0,9L0,6M6,6L9,6L9,9L6,9L6,6M3,9L6,9L6,12L3,12L3,9M9,9L12,9L12,12L9,12L9,9"></path> </pattern> <pattern y="0" x="0" height="12" width="12" patternUnits="userSpaceOnUse" id="cp4pattern"> <rect class="cp4color" height="12" width="12" y="0" x="0"></rect> <path fill="white" d="M0,0L3,0L3,3L0,3L0,0M6,0L9,0L9,3L6,3L6,0M3,3L6,3L6,6L3,6L3,3M9,3L12,3L12,6L9,6L9,3"></path> <path fill="white" d="M0,6L3,6L3,9L0,9L0,6M6,6L9,6L9,9L6,9L6,6M3,9L6,9L6,12L3,12L3,9M9,9L12,9L12,12L9,12L9,9"></path> </pattern> <pattern y="0" x="0" height="12" width="12" patternUnits="userSpaceOnUse" id="cp5pattern"> <rect class="cp5color" height="12" width="12" y="0" x="0"></rect> <path fill="black" d="M0,0L3,0L3,3L0,3L0,0M6,0L9,0L9,3L6,3L6,0M3,3L6,3L6,6L3,6L3,3M9,3L12,3L12,6L9,6L9,3"></path> <path fill="black" d="M0,6L3,6L3,9L0,9L0,6M6,6L9,6L9,9L6,9L6,6M3,9L6,9L6,12L3,12L3,9M9,9L12,9L12,12L9,12L9,9"></path> </pattern> <pattern y="0" x="0" height="12" width="12" patternUnits="userSpaceOnUse" id="cp6pattern"> <rect class="cp6color" height="12" width="12" y="0" x="0"></rect> <path fill="white" d="M0,0L3,0L3,3L0,3L0,0M6,0L9,0L9,3L6,3L6,0M3,3L6,3L6,6L3,6L3,3M9,3L12,3L12,6L9,6L9,3"></path> <path fill="white" d="M0,6L3,6L3,9L0,9L0,6M6,6L9,6L9,9L6,9L6,6M3,9L6,9L6,12L3,12L3,9M9,9L12,9L12,12L9,12L9,9"></path> </pattern> <pattern y="0" x="0" height="12" width="12" patternUnits="userSpaceOnUse" id="cp7pattern"> <rect class="cp7color" height="12" width="12" y="0" x="0"></rect> <path fill="black" d="M0,0L3,0L3,3L0,3L0,0M6,0L9,0L9,3L6,3L6,0M3,3L6,3L6,6L3,6L3,3M9,3L12,3L12,6L9,6L9,3"></path> <path fill="black" d="M0,6L3,6L3,9L0,9L0,6M6,6L9,6L9,9L6,9L6,6M3,9L6,9L6,12L3,12L3,9M9,9L12,9L12,12L9,12L9,9"></path> </pattern> <pattern y="0" x="0" height="12" width="12" patternUnits="userSpaceOnUse" id="cp8pattern"> <rect class="cp8color" height="12" width="12" y="0" x="0"></rect> <path fill="white" d="M0,0L3,0L3,3L0,3L0,0M6,0L9,0L9,3L6,3L6,0M3,3L6,3L6,6L3,6L3,3M9,3L12,3L12,6L9,6L9,3"></path> <path fill="white" d="M0,6L3,6L3,9L0,9L0,6M6,6L9,6L9,9L6,9L6,6M3,9L6,9L6,12L3,12L3,9M9,9L12,9L12,12L9,12L9,9"></path> </pattern> <pattern y="0" x="0" height="12" width="12" patternUnits="userSpaceOnUse" id="cp9pattern"> <rect class="cp9color" height="12" width="12" y="0" x="0"></rect> <path fill="black" d="M0,0L3,0L3,3L0,3L0,0M6,0L9,0L9,3L6,3L6,0M3,3L6,3L6,6L3,6L3,3M9,3L12,3L12,6L9,6L9,3"></path> <path fill="black" d="M0,6L3,6L3,9L0,9L0,6M6,6L9,6L9,9L6,9L6,6M3,9L6,9L6,12L3,12L3,9M9,9L12,9L12,12L9,12L9,9"></path> </pattern> </defs> <rect height="100%" width="100%" y="0" x="0" class="grass" id="mainfill"></rect> <g id="paths"><path class="parc" d="M0,0L0,0L12,0L12,72L0,72Z"></path><path class="road" d="M408,12L408,12L432,12L432,24L444,24L444,36L468,36L468,48L492,48L492,60L504,60L504,72L540,72L540,84L552,84L552,108L564,108L564,120L576,120L576,168L588,168L588,204L576,204L576,252L588,252L588,264L576,264L576,312L552,312L552,336L540,336L540,360L516,360L516,372L504,372L504,384L492,384L492,408L480,408L480,420L468,420L468,432L456,432L456,444L432,444L432,456L384,456L384,432L372,432L372,420L360,420L360,396L348,396L348,360L336,360L336,372L324,372L324,384L312,384L312,396L300,396L300,408L276,408L276,420L264,420L264,444L240,444L240,468L204,468L204,456L192,456L192,444L180,444L180,432L168,432L168,384L156,384L156,372L168,372L168,300L180,300L180,288L192,288L192,276L204,276L204,264L216,264L216,252L228,252L228,240L240,240L240,228L252,228L252,216L276,216L276,204L288,204L288,192L312,192L312,180L336,180L336,168L372,168L372,180L384,180L384,228L348,228L348,240L336,240L336,252L312,252L312,264L300,264L300,276L288,276L288,288L276,288L276,300L264,300L264,312L252,312L252,336L240,336L240,360L228,360L228,384L216,384L216,408L204,408L204,420L240,420L240,408L264,408L264,396L276,396L276,384L288,384L288,372L300,372L300,360L312,360L312,348L324,348L324,336L336,336L336,312L348,312L348,264L360,264L360,252L372,252L372,264L384,264L384,276L396,276L396,432L420,432L420,420L444,420L444,408L456,408L456,396L468,396L468,384L480,384L480,372L492,372L492,360L504,360L504,336L516,336L516,288L540,288L540,264L528,264L528,240L540,240L540,192L528,192L528,180L516,180L516,156L504,156L504,120L492,120L492,108L480,108L480,96L456,96L456,84L432,84L432,72L372,72L372,84L348,84L348,60L300,60L300,72L252,72L252,84L204,84L204,96L192,96L192,108L180,108L180,120L168,120L168,132L132,132L132,144L120,144L120,156L108,156L108,168L96,168L96,192L84,192L84,204L72,204L72,240L60,240L60,264L72,264L72,288L60,288L60,300L48,300L48,324L36,324L36,336L48,336L48,348L60,348L60,360L72,360L72,468L84,468L84,480L96,480L96,492L108,492L108,504L120,504L120,516L132,516L132,528L156,528L156,540L192,540L192,552L228,552L228,564L252,564L252,576L264,576L264,564L324,564L324,552L420,552L420,540L444,540L444,528L456,528L456,516L480,516L480,504L504,504L504,492L516,492L516,456L528,456L528,432L552,432L552,420L540,420L540,408L552,408L552,396L564,396L564,432L552,432L552,444L564,444L564,468L552,468L552,492L540,492L540,504L516,504L516,528L504,528L504,540L480,540L480,552L468,552L468,564L444,564L444,576L408,576L408,588L396,588L396,576L324,576L324,588L300,588L300,600L264,600L264,588L240,588L240,576L228,576L228,588L180,588L180,576L156,576L156,564L120,564L120,552L84,552L84,540L72,540L72,528L60,528L60,504L48,504L48,456L36,456L36,444L24,444L24,396L12,396L12,324L24,324L24,276L36,276L36,252L48,252L48,180L60,180L60,168L72,168L72,156L84,156L84,132L96,132L96,120L108,120L108,96L120,96L120,84L132,84L132,72L144,72L144,60L180,60L180,48L216,48L216,36L300,36L300,24L372,24L372,36L384,36L384,24L408,24Z"></path><path class="start" d="M348,156L348,156L372,156L372,168L348,168L348,156M372,168L372,168L384,168L384,180L372,180L372,168M384,180L384,180L396,180L396,216L384,216Z"></path><path class="finish" d="M540,420L540,420L552,420L552,432L540,432L540,420M552,432L552,432L564,432L564,444L552,444Z"></path></g> <rect opacity=".3" fill="url(#grid)" height="100%" width="100%" y="0" x="0"></rect></svg>