<svg height="840" width="1128" id="mapSvgView" xmlns:xlink="http://www.w3.org/1999/xlink" version="1.1" xmlns="http://www.w3.org/2000/svg"> <defs> <style type="text/css"> .grass {fill: rgb(0, 200, 0);} .road {fill: rgb(128, 128, 128);} .start {fill: url(#startPattern)} .finish {fill: url(#finishPattern)} .mud {fill: rgb(100, 70, 0);} .sand {fill: rgb(230, 230, 115);} .water {fill: blue;} .earth {fill: brown;} .night {fill: black;} .parc {fill: rgb(200, 200, 200);} .cp1color {fill: rgb(0, 102, 255);} .cp2color {fill: rgb(0, 100, 200);} .cp3color {fill: rgb(0, 255, 102);} .cp4color {fill: rgb(0, 200, 0);} .cp5color {fill: rgb(255, 255, 0);} .cp6color {fill: rgb(200, 200, 0);} .cp7color {fill: rgb(255, 0, 0);} .cp8color {fill: rgb(200, 0, 0);} .cp9color {fill: rgb(255, 0, 255);} .cp1 {fill: url(#cp1pattern);} .cp2 {fill: url(#cp2pattern);} .cp3 {fill: url(#cp3pattern);} .cp4 {fill: url(#cp4pattern);} .cp5 {fill: url(#cp5pattern);} .cp6 {fill: url(#cp6pattern);} .cp7 {fill: url(#cp7pattern);} .cp8 {fill: url(#cp8pattern);} .cp9 {fill: url(#cp9pattern);} .primaryColor {fill: rgb(0, 255, 102);} </style> <pattern y="0" x="0" height="12" width="12" patternUnits="userSpaceOnUse" id="grid"> <line stroke-width="1" stroke="black" y2="12" x2="12" y1="0" x1="12"></line> <line stroke-width="1" stroke="black" y2="12" x2="12" y1="12" x1="0"></line> </pattern> <pattern y="0" x="0" height="12" width="12" patternUnits="userSpaceOnUse" id="finishPattern"> <rect fill="black" height="12" width="12" y="0" x="0"></rect> <path fill="white" d="M0,0L3,0L3,3L0,3L0,0M6,0L9,0L9,3L6,3L6,0M3,3L6,3L6,6L3,6L3,3M9,3L12,3L12,6L9,6L9,3"></path> <path fill="white" d="M0,6L3,6L3,9L0,9L0,6M6,6L9,6L9,9L6,9L6,6M3,9L6,9L6,12L3,12L3,9M9,9L12,9L12,12L9,12L9,9"></path> </pattern> <pattern y="0" x="0" height="12" width="12" patternUnits="userSpaceOnUse" id="startPattern"> <rect fill="rgb(100,100,100)" height="12" width="12" y="0" x="0"></rect> <rect stroke-width="1" stroke="rgb(200,200,200)" fill="none" height="5" width="5" y="3.5" x="3.5"></rect> &gt; </pattern> <pattern y="0" x="0" height="12" width="12" patternUnits="userSpaceOnUse" id="cp1pattern"> <rect class="cp1color" height="12" width="12" y="0" x="0"></rect> <path fill="black" d="M0,0L3,0L3,3L0,3L0,0M6,0L9,0L9,3L6,3L6,0M3,3L6,3L6,6L3,6L3,3M9,3L12,3L12,6L9,6L9,3"></path> <path fill="black" d="M0,6L3,6L3,9L0,9L0,6M6,6L9,6L9,9L6,9L6,6M3,9L6,9L6,12L3,12L3,9M9,9L12,9L12,12L9,12L9,9"></path> </pattern> <pattern y="0" x="0" height="12" width="12" patternUnits="userSpaceOnUse" id="cp2pattern"> <rect class="cp2color" height="12" width="12" y="0" x="0"></rect> <path fill="white" d="M0,0L3,0L3,3L0,3L0,0M6,0L9,0L9,3L6,3L6,0M3,3L6,3L6,6L3,6L3,3M9,3L12,3L12,6L9,6L9,3"></path> <path fill="white" d="M0,6L3,6L3,9L0,9L0,6M6,6L9,6L9,9L6,9L6,6M3,9L6,9L6,12L3,12L3,9M9,9L12,9L12,12L9,12L9,9"></path> </pattern> <pattern y="0" x="0" height="12" width="12" patternUnits="userSpaceOnUse" id="cp3pattern"> <rect class="cp3color" height="12" width="12" y="0" x="0"></rect> <path fill="black" d="M0,0L3,0L3,3L0,3L0,0M6,0L9,0L9,3L6,3L6,0M3,3L6,3L6,6L3,6L3,3M9,3L12,3L12,6L9,6L9,3"></path> <path fill="black" d="M0,6L3,6L3,9L0,9L0,6M6,6L9,6L9,9L6,9L6,6M3,9L6,9L6,12L3,12L3,9M9,9L12,9L12,12L9,12L9,9"></path> </pattern> <pattern y="0" x="0" height="12" width="12" patternUnits="userSpaceOnUse" id="cp4pattern"> <rect class="cp4color" height="12" width="12" y="0" x="0"></rect> <path fill="white" d="M0,0L3,0L3,3L0,3L0,0M6,0L9,0L9,3L6,3L6,0M3,3L6,3L6,6L3,6L3,3M9,3L12,3L12,6L9,6L9,3"></path> <path fill="white" d="M0,6L3,6L3,9L0,9L0,6M6,6L9,6L9,9L6,9L6,6M3,9L6,9L6,12L3,12L3,9M9,9L12,9L12,12L9,12L9,9"></path> </pattern> <pattern y="0" x="0" height="12" width="12" patternUnits="userSpaceOnUse" id="cp5pattern"> <rect class="cp5color" height="12" width="12" y="0" x="0"></rect> <path fill="black" d="M0,0L3,0L3,3L0,3L0,0M6,0L9,0L9,3L6,3L6,0M3,3L6,3L6,6L3,6L3,3M9,3L12,3L12,6L9,6L9,3"></path> <path fill="black" d="M0,6L3,6L3,9L0,9L0,6M6,6L9,6L9,9L6,9L6,6M3,9L6,9L6,12L3,12L3,9M9,9L12,9L12,12L9,12L9,9"></path> </pattern> <pattern y="0" x="0" height="12" width="12" patternUnits="userSpaceOnUse" id="cp6pattern"> <rect class="cp6color" height="12" width="12" y="0" x="0"></rect> <path fill="white" d="M0,0L3,0L3,3L0,3L0,0M6,0L9,0L9,3L6,3L6,0M3,3L6,3L6,6L3,6L3,3M9,3L12,3L12,6L9,6L9,3"></path> <path fill="white" d="M0,6L3,6L3,9L0,9L0,6M6,6L9,6L9,9L6,9L6,6M3,9L6,9L6,12L3,12L3,9M9,9L12,9L12,12L9,12L9,9"></path> </pattern> <pattern y="0" x="0" height="12" width="12" patternUnits="userSpaceOnUse" id="cp7pattern"> <rect class="cp7color" height="12" width="12" y="0" x="0"></rect> <path fill="black" d="M0,0L3,0L3,3L0,3L0,0M6,0L9,0L9,3L6,3L6,0M3,3L6,3L6,6L3,6L3,3M9,3L12,3L12,6L9,6L9,3"></path> <path fill="black" d="M0,6L3,6L3,9L0,9L0,6M6,6L9,6L9,9L6,9L6,6M3,9L6,9L6,12L3,12L3,9M9,9L12,9L12,12L9,12L9,9"></path> </pattern> <pattern y="0" x="0" height="12" width="12" patternUnits="userSpaceOnUse" id="cp8pattern"> <rect class="cp8color" height="12" width="12" y="0" x="0"></rect> <path fill="white" d="M0,0L3,0L3,3L0,3L0,0M6,0L9,0L9,3L6,3L6,0M3,3L6,3L6,6L3,6L3,3M9,3L12,3L12,6L9,6L9,3"></path> <path fill="white" d="M0,6L3,6L3,9L0,9L0,6M6,6L9,6L9,9L6,9L6,6M3,9L6,9L6,12L3,12L3,9M9,9L12,9L12,12L9,12L9,9"></path> </pattern> <pattern y="0" x="0" height="12" width="12" patternUnits="userSpaceOnUse" id="cp9pattern"> <rect class="cp9color" height="12" width="12" y="0" x="0"></rect> <path fill="black" d="M0,0L3,0L3,3L0,3L0,0M6,0L9,0L9,3L6,3L6,0M3,3L6,3L6,6L3,6L3,3M9,3L12,3L12,6L9,6L9,3"></path> <path fill="black" d="M0,6L3,6L3,9L0,9L0,6M6,6L9,6L9,9L6,9L6,6M3,9L6,9L6,12L3,12L3,9M9,9L12,9L12,12L9,12L9,9"></path> </pattern> </defs> <rect height="100%" width="100%" y="0" x="0" class="grass" id="mainfill"></rect> <g id="paths"><path class="cp1" d="M456,144L456,144L468,144L468,204L456,204Z"></path><path class="cp2" d="M96,504L96,504L156,504L156,516L96,516Z"></path><path class="cp3" d="M1080,528L1080,528L1092,528L1092,540L1080,540L1080,528M1080,540L1080,540L1080,552L1068,552L1068,540L1080,540M1068,588L1068,588L1080,588L1080,600L1068,600L1068,588M1080,600L1080,600L1092,600L1092,612L1080,612Z"></path><path class="cp4" d="M24,504L24,504L84,504L84,516L24,516Z"></path><path class="cp5" d="M528,324L528,324L540,324L540,336L528,336L528,324M540,336L540,336L552,336L552,348L540,348L540,336M468,384L468,384L480,384L480,396L468,396L468,384M480,396L480,396L492,396L492,408L480,408L480,396M636,432L636,432L648,432L648,444L636,444L636,432M648,444L648,444L660,444L660,456L648,456L648,444M576,492L576,492L588,492L588,504L576,504L576,492M588,504L588,504L600,504L600,516L588,516Z"></path><path class="cp6" d="M1044,324L1044,324L1104,324L1104,336L1044,336Z"></path><path class="cp7" d="M36,228L36,228L48,228L48,240L36,240L36,228M48,240L48,240L60,240L60,252L48,252L48,240M48,288L48,288L60,288L60,300L48,300L48,288M48,300L48,300L48,312L36,312L36,300Z"></path><path class="cp8" d="M972,324L972,324L1032,324L1032,336L972,336Z"></path><path class="cp9" d="M660,636L660,636L672,636L672,696L660,696Z"></path><path class="parc" d="M0,0L0,0L12,0L12,120L0,120Z"></path><path class="road" d="M396,12L396,12L516,12L516,24L576,24L576,36L600,36L600,48L624,48L624,60L636,60L636,72L648,72L648,84L660,84L660,96L672,96L672,108L684,108L684,120L696,120L696,132L708,132L708,144L696,144L696,156L684,156L684,168L672,168L672,156L660,156L660,144L648,144L648,132L636,132L636,120L624,120L624,108L612,108L612,96L600,96L600,84L576,84L576,72L552,72L552,60L492,60L492,48L420,48L420,60L384,60L384,72L360,72L360,84L348,84L348,96L336,96L336,108L324,108L324,120L312,120L312,132L300,132L300,144L288,144L288,156L276,156L276,168L264,168L264,180L252,180L252,192L240,192L240,204L228,204L228,216L216,216L216,228L204,228L204,240L192,240L192,252L180,252L180,264L168,264L168,252L156,252L156,240L144,240L144,228L156,228L156,216L168,216L168,204L180,204L180,192L192,192L192,180L204,180L204,168L216,168L216,156L228,156L228,144L240,144L240,132L252,132L252,120L264,120L264,108L276,108L276,96L288,96L288,84L300,84L300,72L312,72L312,60L324,60L324,48L336,48L336,36L360,36L360,24L396,24L396,12M804,72L804,72L924,72L924,84L960,84L960,96L984,96L984,108L996,108L996,120L1020,120L1020,132L1032,132L1032,144L1044,144L1044,156L1056,156L1056,180L1068,180L1068,192L1080,192L1080,216L1092,216L1092,240L1104,240L1104,324L1044,324L1044,276L1032,276L1032,252L1020,252L1020,240L1008,240L1008,228L984,228L984,216L912,216L912,228L876,228L876,240L864,240L864,252L852,252L852,264L840,264L840,252L828,252L828,240L840,240L840,228L852,228L852,216L864,216L864,204L876,204L876,192L912,192L912,180L984,180L984,192L1008,192L1008,204L1020,204L1020,216L1032,216L1032,228L1044,228L1044,240L1056,240L1056,216L1044,216L1044,192L1032,192L1032,180L1020,180L1020,156L996,156L996,144L984,144L984,132L960,132L960,120L924,120L924,108L804,108L804,120L768,120L768,132L756,132L756,144L744,144L744,156L732,156L732,144L720,144L720,132L732,132L732,120L744,120L744,108L756,108L756,96L768,96L768,84L804,84L804,72M408,84L408,84L516,84L516,96L552,96L552,108L564,108L564,120L576,120L576,132L588,132L588,144L600,144L600,156L612,156L612,168L624,168L624,180L636,180L636,192L648,192L648,204L636,204L636,216L624,216L624,228L612,228L612,216L600,216L600,204L588,204L588,192L576,192L576,180L564,180L564,168L552,168L552,156L540,156L540,144L528,144L528,132L492,132L492,120L432,120L432,132L396,132L396,144L384,144L384,156L372,156L372,168L360,168L360,180L348,180L348,192L336,192L336,204L324,204L324,216L312,216L312,228L300,228L300,240L288,240L288,252L276,252L276,264L264,264L264,276L252,276L252,288L240,288L240,300L228,300L228,312L216,312L216,300L204,300L204,288L192,288L192,276L204,276L204,264L216,264L216,252L228,252L228,240L240,240L240,228L252,228L252,216L264,216L264,204L276,204L276,192L288,192L288,180L300,180L300,168L312,168L312,156L324,156L324,144L336,144L336,132L348,132L348,120L360,120L360,108L372,108L372,96L408,96L408,84M708,144L708,144L720,144L720,156L708,156L708,144M420,144L420,144L456,144L456,204L444,204L444,216L432,216L432,252L444,252L444,264L456,264L456,276L444,276L444,288L432,288L432,300L420,300L420,312L408,312L408,300L396,300L396,288L384,288L384,276L372,276L372,192L384,192L384,180L396,180L396,168L408,168L408,156L420,156L420,144M468,144L468,144L504,144L504,156L516,156L516,168L528,168L528,180L540,180L540,192L552,192L552,276L540,276L540,288L528,288L528,300L516,300L516,312L504,312L504,300L492,300L492,288L480,288L480,276L468,276L468,264L480,264L480,252L492,252L492,216L480,216L480,204L468,204L468,144M696,156L696,156L708,156L708,168L696,168L696,156M720,156L720,156L732,156L732,168L720,168L720,156M684,168L684,168L696,168L696,180L684,180L684,168M708,168L708,168L720,168L720,180L708,180L708,168M732,168L732,168L744,168L744,180L756,180L756,192L768,192L768,204L780,204L780,216L792,216L792,228L804,228L804,240L816,240L816,252L804,252L804,264L792,264L792,276L780,276L780,264L768,264L768,252L756,252L756,240L744,240L744,228L732,228L732,216L720,216L720,204L708,204L708,192L696,192L696,180L708,180L708,192L720,192L720,180L732,180L732,168M684,180L684,180L684,192L696,192L696,204L684,204L684,216L672,216L672,204L660,204L660,192L672,192L672,180L684,180M648,204L648,204L660,204L660,216L648,216L648,204M60,204L60,204L96,204L96,216L120,216L120,228L132,228L132,240L120,240L120,252L108,252L108,264L96,264L96,252L84,252L84,240L72,240L72,252L60,252L60,240L48,240L48,228L36,228L36,216L60,216L60,204M636,216L636,216L648,216L648,228L636,228L636,216M660,216L660,216L672,216L672,228L660,228L660,216M36,228L36,228L36,240L48,240L48,252L60,252L60,264L48,264L48,276L60,276L60,288L48,288L48,300L36,300L36,312L24,312L24,288L12,288L12,252L24,252L24,228L36,228M624,228L624,228L636,228L636,240L624,240L624,228M648,228L648,228L660,228L660,240L648,240L648,228M672,228L672,228L684,228L684,240L696,240L696,252L708,252L708,264L720,264L720,276L732,276L732,288L744,288L744,300L756,300L756,312L744,312L744,324L732,324L732,336L720,336L720,324L708,324L708,312L696,312L696,300L684,300L684,288L672,288L672,276L660,276L660,264L648,264L648,252L636,252L636,240L648,240L648,252L660,252L660,240L672,240L672,228M132,240L132,240L144,240L144,252L132,252L132,240M624,240L624,240L624,252L636,252L636,264L624,264L624,276L612,276L612,288L600,288L600,300L588,300L588,312L576,312L576,324L564,324L564,336L540,336L540,312L552,312L552,300L564,300L564,288L576,288L576,276L588,276L588,264L600,264L600,252L612,252L612,240L624,240M120,252L120,252L132,252L132,264L120,264L120,252M144,252L144,252L156,252L156,264L144,264L144,252M816,252L816,252L828,252L828,264L816,264L816,252M900,240L900,240L984,240L984,252L996,252L996,264L1008,264L1008,276L1020,276L1020,288L1032,288L1032,324L972,324L972,312L960,312L960,300L924,300L924,312L912,312L912,324L900,324L900,312L888,312L888,300L876,300L876,288L864,288L864,276L876,276L876,264L888,264L888,252L900,252L900,240M108,264L108,264L120,264L120,276L108,276L108,264M132,264L132,264L144,264L144,276L132,276L132,264M156,264L156,264L168,264L168,276L156,276L156,264M804,264L804,264L816,264L816,276L804,276L804,264M828,264L828,264L840,264L840,276L828,276L828,264M120,276L120,276L132,276L132,288L120,288L120,276M108,276L108,276L108,288L120,288L120,300L132,300L132,288L144,288L144,276L156,276L156,288L144,288L144,300L132,300L132,312L120,312L120,324L96,324L96,336L60,336L60,324L36,324L36,312L48,312L48,300L60,300L60,288L72,288L72,300L84,300L84,288L96,288L96,276L108,276M168,276L168,276L180,276L180,288L168,288L168,276M456,276L456,276L468,276L468,288L456,288L456,276M792,276L792,276L804,276L804,288L792,288L792,276M816,276L816,276L828,276L828,288L816,288L816,276M840,276L840,276L852,276L852,288L840,288L840,276M156,288L156,288L168,288L168,300L156,300L156,288M180,288L180,288L192,288L192,300L180,300L180,288M444,288L444,288L456,288L456,300L444,300L444,288M468,288L468,288L480,288L480,300L468,300L468,288M804,288L804,288L816,288L816,300L804,300L804,288M792,288L792,288L792,300L780,300L780,288L792,288M828,288L828,288L840,288L840,300L828,300L828,288M852,288L852,288L864,288L864,300L852,300L852,288M144,300L144,300L156,300L156,312L144,312L144,300M168,300L168,300L180,300L180,312L168,312L168,300M192,300L192,300L204,300L204,312L192,312L192,300M432,300L432,300L444,300L444,312L432,312L432,300M456,300L456,300L468,300L468,312L456,312L456,300M480,300L480,300L492,300L492,312L480,312L480,300M792,300L792,300L804,300L804,312L792,312L792,300M780,300L780,300L780,312L768,312L768,300L780,300M816,300L816,300L828,300L828,312L816,312L816,300M840,300L840,300L852,300L852,312L840,312L840,300M864,300L864,300L876,300L876,312L864,312L864,300M156,312L156,312L168,312L168,324L156,324L156,312M180,312L180,312L192,312L192,324L180,324L180,312M204,312L204,312L216,312L216,324L204,324L204,312M420,312L420,312L432,312L432,324L420,324L420,312M444,312L444,312L456,312L456,324L444,324L444,312M468,312L468,312L480,312L480,324L468,324L468,312M492,312L492,312L504,312L504,324L492,324L492,312M756,312L756,312L768,312L768,324L756,324L756,312M780,312L780,312L792,312L792,324L780,324L780,312M804,312L804,312L816,312L816,324L804,324L804,312M828,312L828,312L840,312L840,324L828,324L828,312M852,312L852,312L864,312L864,324L852,324L852,312M876,312L876,312L888,312L888,324L876,324L876,312M168,324L168,324L180,324L180,336L168,336L168,324M156,324L156,324L156,336L168,336L168,348L180,348L180,336L192,336L192,324L204,324L204,336L192,336L192,348L180,348L180,360L168,360L168,372L156,372L156,384L144,384L144,396L132,396L132,408L120,408L120,420L108,420L108,432L96,432L96,444L84,444L84,504L24,504L24,480L36,480L36,444L48,444L48,420L60,420L60,408L72,408L72,396L84,396L84,384L96,384L96,372L108,372L108,360L120,360L120,348L132,348L132,336L144,336L144,324L156,324M216,324L216,324L228,324L228,336L240,336L240,348L252,348L252,360L264,360L264,372L276,372L276,384L288,384L288,396L300,396L300,408L312,408L312,420L300,420L300,432L288,432L288,444L276,444L276,432L264,432L264,420L252,420L252,408L240,408L240,396L228,396L228,384L216,384L216,372L204,372L204,360L192,360L192,348L204,348L204,336L216,336L216,324M432,324L432,324L444,324L444,336L432,336L432,324M420,324L420,324L420,336L432,336L432,348L444,348L444,336L456,336L456,324L468,324L468,336L456,336L456,348L444,348L444,360L456,360L456,348L468,348L468,336L480,336L480,324L492,324L492,336L480,336L480,348L468,348L468,360L456,360L456,372L444,372L444,384L432,384L432,396L420,396L420,408L408,408L408,420L396,420L396,432L384,432L384,444L372,444L372,456L360,456L360,444L348,444L348,432L336,432L336,420L324,420L324,408L336,408L336,396L348,396L348,384L360,384L360,372L372,372L372,360L384,360L384,348L396,348L396,336L408,336L408,324L420,324M504,324L504,324L516,324L516,336L504,336L504,324M744,324L744,324L756,324L756,336L744,336L744,324M768,324L768,324L780,324L780,336L768,336L768,324M792,324L792,324L804,324L804,336L792,336L792,324M816,324L816,324L828,324L828,336L816,336L816,324M840,324L840,324L852,324L852,336L840,336L840,324M864,324L864,324L876,324L876,336L864,336L864,324M888,324L888,324L900,324L900,336L888,336L888,324M492,336L492,336L504,336L504,348L492,348L492,336M516,336L516,336L528,336L528,348L516,348L516,336M732,336L732,336L744,336L744,348L732,348L732,336M756,336L756,336L768,336L768,348L756,348L756,336M780,336L780,336L792,336L792,348L780,348L780,336M804,336L804,336L816,336L816,348L804,348L804,336M828,336L828,336L840,336L840,348L828,348L828,336M852,336L852,336L864,336L864,348L852,348L852,336M876,336L876,336L888,336L888,348L876,348L876,336M900,336L900,336L912,336L912,348L924,348L924,360L960,360L960,348L972,348L972,336L1032,336L1032,372L1020,372L1020,384L1008,384L1008,396L996,396L996,408L984,408L984,420L900,420L900,408L888,408L888,396L876,396L876,384L864,384L864,372L852,372L852,360L840,360L840,348L852,348L852,360L864,360L864,348L876,348L876,360L864,360L864,372L876,372L876,360L888,360L888,348L900,348L900,336M480,348L480,348L492,348L492,360L480,360L480,348M504,348L504,348L516,348L516,360L504,360L504,348M528,348L528,348L540,348L540,360L528,360L528,348M744,348L744,348L756,348L756,360L744,360L744,348M732,348L732,348L732,360L744,360L744,372L732,372L732,384L720,384L720,396L708,396L708,408L696,408L696,420L684,420L684,432L672,432L672,444L648,444L648,420L660,420L660,408L672,408L672,396L684,396L684,384L696,384L696,372L708,372L708,360L720,360L720,348L732,348M768,348L768,348L780,348L780,360L768,360L768,348M792,348L792,348L804,348L804,360L792,360L792,348M816,348L816,348L828,348L828,360L816,360L816,348M1044,336L1044,336L1104,336L1104,360L1092,360L1092,396L1080,396L1080,420L1068,420L1068,432L1056,432L1056,444L1044,444L1044,456L1032,456L1032,468L1020,468L1020,480L1008,480L1008,492L996,492L996,504L984,504L984,516L972,516L972,504L960,504L960,492L948,492L948,480L960,480L960,468L972,468L972,456L984,456L984,444L996,444L996,432L1008,432L1008,420L1020,420L1020,408L1032,408L1032,396L1044,396L1044,336M468,360L468,360L480,360L480,372L468,372L468,360M492,360L492,360L504,360L504,372L492,372L492,360M516,360L516,360L528,360L528,372L516,372L516,360M540,360L540,360L552,360L552,372L564,372L564,384L552,384L552,396L540,396L540,408L528,408L528,420L516,420L516,408L504,408L504,396L492,396L492,384L480,384L480,372L492,372L492,384L504,384L504,372L516,372L516,384L504,384L504,396L516,396L516,384L528,384L528,372L540,372L540,360M756,360L756,360L768,360L768,372L756,372L756,360M780,360L780,360L792,360L792,372L780,372L780,360M804,360L804,360L816,360L816,372L804,372L804,360M828,360L828,360L840,360L840,372L828,372L828,360M768,372L768,372L780,372L780,384L768,384L768,372M792,372L792,372L804,372L804,384L792,384L792,372M816,372L816,372L828,372L828,384L816,384L816,372M840,372L840,372L852,372L852,384L840,384L840,372M564,384L564,384L576,384L576,396L564,396L564,384M780,384L780,384L792,384L792,396L780,396L780,384M768,384L768,384L768,396L780,396L780,408L792,408L792,396L804,396L804,384L816,384L816,396L804,396L804,408L792,408L792,420L804,420L804,408L816,408L816,396L828,396L828,384L840,384L840,396L828,396L828,408L816,408L816,420L804,420L804,432L792,432L792,444L780,444L780,456L768,456L768,468L756,468L756,480L744,480L744,492L732,492L732,504L720,504L720,516L708,516L708,504L696,504L696,492L684,492L684,480L672,480L672,468L684,468L684,456L696,456L696,444L708,444L708,432L720,432L720,420L732,420L732,408L744,408L744,396L756,396L756,384L768,384M552,396L552,396L564,396L564,420L540,420L540,408L552,408L552,396M840,396L840,396L852,396L852,408L864,408L864,420L876,420L876,432L888,432L888,444L900,444L900,456L912,456L912,468L924,468L924,480L936,480L936,492L924,492L924,504L912,504L912,516L900,516L900,504L888,504L888,492L876,492L876,480L864,480L864,468L852,468L852,456L840,456L840,444L828,444L828,432L816,432L816,420L828,420L828,408L840,408L840,396M456,396L456,396L480,396L480,420L468,420L468,432L456,432L456,444L444,444L444,456L432,456L432,468L420,468L420,480L408,480L408,492L396,492L396,480L384,480L384,468L396,468L396,456L408,456L408,444L420,444L420,432L432,432L432,420L444,420L444,408L456,408L456,396M312,420L312,420L324,420L324,432L312,432L312,420M528,420L528,420L540,420L540,432L528,432L528,420M564,420L564,420L588,420L588,408L600,408L600,420L588,420L588,432L576,432L576,444L564,444L564,420M600,420L600,420L612,420L612,432L624,432L624,444L612,444L612,456L600,456L600,468L588,468L588,480L576,480L576,468L564,468L564,456L552,456L552,444L564,444L564,456L576,456L576,444L588,444L588,432L600,432L600,420M144,420L144,420L228,420L228,432L240,432L240,444L252,444L252,456L264,456L264,468L252,468L252,480L240,480L240,492L228,492L228,504L216,504L216,492L204,492L204,480L168,480L168,492L156,492L156,504L96,504L96,468L108,468L108,456L120,456L120,444L132,444L132,432L144,432L144,420M300,432L300,432L312,432L312,444L300,444L300,432M324,432L324,432L336,432L336,444L324,444L324,432M288,444L288,444L300,444L300,456L288,456L288,444M312,444L312,444L324,444L324,456L312,456L312,444M336,444L336,444L348,444L348,456L336,456L336,444M624,444L624,444L636,444L636,456L624,456L624,444M300,456L300,456L312,456L312,468L300,468L300,456M288,456L288,456L288,468L276,468L276,456L288,456M324,456L324,456L336,456L336,468L324,468L324,456M348,456L348,456L360,456L360,468L348,468L348,456M612,456L612,456L624,456L624,468L612,468L612,456M636,456L636,456L648,456L648,468L636,468L636,456M264,468L264,468L276,468L276,480L264,480L264,468M288,468L288,468L300,468L300,480L288,480L288,468M312,468L312,468L324,468L324,480L312,480L312,468M336,468L336,468L348,468L348,480L336,480L336,468M360,468L360,468L372,468L372,480L360,480L360,468M600,468L600,468L612,468L612,480L600,480L600,468M624,468L624,468L636,468L636,480L624,480L624,468M648,468L648,468L660,468L660,480L648,480L648,468M252,480L252,480L264,480L264,492L252,492L252,480M276,480L276,480L288,480L288,492L276,492L276,480M300,480L300,480L312,480L312,492L300,492L300,480M324,480L324,480L336,480L336,492L324,492L324,480M348,480L348,480L360,480L360,492L348,492L348,480M372,480L372,480L384,480L384,492L372,492L372,480M588,480L588,480L600,480L600,492L588,492L588,480M612,480L612,480L624,480L624,492L612,492L612,480M636,480L636,480L648,480L648,492L636,492L636,480M660,480L660,480L672,480L672,492L660,492L660,480M240,492L240,492L252,492L252,504L240,504L240,492M264,492L264,492L276,492L276,504L264,504L264,492M288,492L288,492L300,492L300,504L288,504L288,492M312,492L312,492L324,492L324,504L312,504L312,492M336,492L336,492L348,492L348,504L336,504L336,492M360,492L360,492L372,492L372,504L360,504L360,492M384,492L384,492L396,492L396,504L384,504L384,492M600,492L600,492L612,492L612,504L600,504L600,492M624,492L624,492L636,492L636,504L624,504L624,492M648,492L648,492L660,492L660,504L648,504L648,492M672,492L672,492L684,492L684,504L672,504L672,492M936,492L936,492L948,492L948,504L936,504L936,492M228,504L228,504L240,504L240,516L228,516L228,504M252,504L252,504L264,504L264,516L252,516L252,504M276,504L276,504L288,504L288,516L276,516L276,504M300,504L300,504L312,504L312,516L300,516L300,504M324,504L324,504L336,504L336,516L324,516L324,504M348,504L348,504L360,504L360,516L348,516L348,504M372,504L372,504L384,504L384,516L372,516L372,504M396,504L396,504L408,504L408,516L420,516L420,528L432,528L432,540L444,540L444,552L456,552L456,564L468,564L468,576L480,576L480,588L468,588L468,600L456,600L456,612L444,612L444,600L432,600L432,588L420,588L420,576L408,576L408,564L396,564L396,552L384,552L384,540L372,540L372,528L360,528L360,516L372,516L372,528L384,528L384,516L396,516L396,504M612,504L612,504L624,504L624,516L612,516L612,504M636,504L636,504L648,504L648,516L636,516L636,504M660,504L660,504L672,504L672,516L660,516L660,504M684,504L684,504L696,504L696,516L684,516L684,504M924,504L924,504L936,504L936,516L924,516L924,504M948,504L948,504L960,504L960,516L948,516L948,504M240,516L240,516L252,516L252,528L240,528L240,516M228,516L228,516L228,528L240,528L240,540L252,540L252,528L264,528L264,516L276,516L276,528L264,528L264,540L252,540L252,552L264,552L264,540L276,540L276,528L288,528L288,516L300,516L300,528L288,528L288,540L276,540L276,552L264,552L264,564L252,564L252,576L240,576L240,588L228,588L228,600L144,600L144,588L132,588L132,576L120,576L120,564L108,564L108,552L96,552L96,516L156,516L156,528L168,528L168,540L204,540L204,528L216,528L216,516L228,516M312,516L312,516L324,516L324,528L312,528L312,516M336,516L336,516L348,516L348,528L336,528L336,516M564,504L564,504L588,504L588,528L576,528L576,540L564,540L564,552L552,552L552,564L540,564L540,576L528,576L528,588L516,588L516,600L504,600L504,588L492,588L492,576L504,576L504,564L516,564L516,552L528,552L528,540L540,540L540,528L552,528L552,516L564,516L564,504M624,516L624,516L636,516L636,528L624,528L624,516M648,516L648,516L660,516L660,528L648,528L648,516M672,516L672,516L684,516L684,528L672,528L672,516M696,516L696,516L708,516L708,528L696,528L696,516M912,516L912,516L924,516L924,528L912,528L912,516M936,516L936,516L948,516L948,528L936,528L936,516M960,516L960,516L972,516L972,528L960,528L960,516M1032,504L1032,504L1068,504L1068,516L1092,516L1092,528L1080,528L1080,540L1068,540L1068,552L1056,552L1056,540L1044,540L1044,552L1032,552L1032,564L1020,564L1020,552L1008,552L1008,540L996,540L996,528L1008,528L1008,516L1032,516L1032,504M24,516L24,516L84,516L84,564L96,564L96,588L108,588L108,600L120,600L120,612L144,612L144,624L216,624L216,612L252,612L252,600L264,600L264,588L276,588L276,576L288,576L288,564L276,564L276,552L288,552L288,540L300,540L300,528L312,528L312,540L300,540L300,552L288,552L288,564L300,564L300,552L312,552L312,540L324,540L324,528L336,528L336,540L324,540L324,552L312,552L312,564L300,564L300,576L288,576L288,588L300,588L300,576L312,576L312,564L324,564L324,552L336,552L336,540L348,540L348,528L360,528L360,540L348,540L348,552L336,552L336,564L324,564L324,576L312,576L312,588L300,588L300,600L288,600L288,612L276,612L276,624L264,624L264,636L252,636L252,648L216,648L216,660L144,660L144,648L120,648L120,636L108,636L108,624L96,624L96,612L84,612L84,600L72,600L72,624L84,624L84,648L96,648L96,660L108,660L108,684L132,684L132,696L144,696L144,708L168,708L168,720L204,720L204,732L324,732L324,720L360,720L360,708L372,708L372,696L384,696L384,684L396,684L396,672L384,672L384,660L372,660L372,648L360,648L360,636L348,636L348,624L336,624L336,612L324,612L324,600L312,600L312,588L324,588L324,576L336,576L336,564L348,564L348,576L360,576L360,588L372,588L372,600L384,600L384,612L396,612L396,624L408,624L408,636L420,636L420,648L408,648L408,660L396,660L396,672L408,672L408,660L420,660L420,648L432,648L432,636L444,636L444,624L456,624L456,612L468,612L468,600L480,600L480,588L492,588L492,600L480,600L480,612L468,612L468,624L456,624L456,636L468,636L468,624L480,624L480,612L492,612L492,600L504,600L504,612L492,612L492,624L480,624L480,636L468,636L468,648L456,648L456,660L444,660L444,648L432,648L432,660L420,660L420,672L408,672L408,684L396,684L396,696L408,696L408,684L420,684L420,672L432,672L432,660L444,660L444,672L432,672L432,684L420,684L420,696L408,696L408,708L396,708L396,720L384,720L384,732L372,732L372,744L360,744L360,756L324,756L324,768L204,768L204,756L168,756L168,744L144,744L144,732L132,732L132,720L108,720L108,708L96,708L96,696L84,696L84,684L72,684L72,660L60,660L60,648L48,648L48,624L36,624L36,600L24,600L24,516M636,528L636,528L648,528L648,540L636,540L636,528M624,528L624,528L624,540L636,540L636,552L648,552L648,540L660,540L660,528L672,528L672,540L660,540L660,552L648,552L648,564L660,564L660,552L672,552L672,540L684,540L684,528L696,528L696,540L684,540L684,552L672,552L672,564L660,564L660,576L648,576L648,588L636,588L636,624L648,624L648,636L660,636L660,696L624,696L624,684L612,684L612,672L600,672L600,660L588,660L588,648L576,648L576,564L588,564L588,552L600,552L600,540L612,540L612,528L624,528M708,528L708,528L720,528L720,540L732,540L732,552L744,552L744,564L756,564L756,648L744,648L744,660L732,660L732,672L720,672L720,684L708,684L708,696L672,696L672,636L684,636L684,624L696,624L696,588L684,588L684,576L672,576L672,564L684,564L684,552L696,552L696,540L708,540L708,528M924,528L924,528L936,528L936,540L924,540L924,528M912,528L912,528L912,540L924,540L924,552L936,552L936,540L948,540L948,528L960,528L960,540L948,540L948,552L936,552L936,564L924,564L924,576L912,576L912,588L900,588L900,600L888,600L888,612L876,612L876,624L864,624L864,636L852,636L852,648L840,648L840,660L828,660L828,672L816,672L816,684L804,684L804,696L792,696L792,708L780,708L780,720L768,720L768,732L756,732L756,744L720,744L720,756L612,756L612,744L576,744L576,732L564,732L564,720L552,720L552,708L540,708L540,696L528,696L528,684L516,684L516,672L504,672L504,660L492,660L492,648L480,648L480,636L492,636L492,624L504,624L504,612L516,612L516,624L528,624L528,636L540,636L540,648L552,648L552,660L564,660L564,672L576,672L576,684L588,684L588,696L600,696L600,708L636,708L636,720L696,720L696,708L732,708L732,696L744,696L744,684L756,684L756,672L768,672L768,660L780,660L780,648L792,648L792,636L804,636L804,624L816,624L816,612L828,612L828,600L840,600L840,588L852,588L852,576L864,576L864,564L876,564L876,552L888,552L888,540L900,540L900,528L912,528M972,528L972,528L984,528L984,540L972,540L972,528M1092,528L1092,528L1104,528L1104,552L1116,552L1116,588L1104,588L1104,612L1092,612L1092,600L1080,600L1080,588L1068,588L1068,576L1080,576L1080,564L1068,564L1068,552L1080,552L1080,540L1092,540L1092,528M960,540L960,540L972,540L972,552L960,552L960,540M984,540L984,540L996,540L996,552L984,552L984,540M948,552L948,552L960,552L960,564L948,564L948,552M972,552L972,552L984,552L984,564L972,564L972,552M996,552L996,552L1008,552L1008,564L996,564L996,552M960,564L960,564L972,564L972,576L960,576L960,564M984,564L984,564L996,564L996,576L984,576L984,564M1008,564L1008,564L1020,564L1020,576L1008,576L1008,564M972,576L972,576L984,576L984,588L972,588L972,576M960,576L960,576L960,588L972,588L972,600L984,600L984,588L996,588L996,576L1008,576L1008,588L996,588L996,600L984,600L984,612L972,612L972,624L960,624L960,636L948,636L948,648L936,648L936,660L924,660L924,672L912,672L912,684L900,684L900,696L888,696L888,708L876,708L876,720L864,720L864,732L852,732L852,744L840,744L840,756L828,756L828,768L816,768L816,780L804,780L804,792L792,792L792,804L768,804L768,816L732,816L732,828L612,828L612,816L552,816L552,804L528,804L528,792L504,792L504,780L492,780L492,768L480,768L480,756L468,756L468,744L456,744L456,732L444,732L444,720L432,720L432,708L420,708L420,696L432,696L432,684L444,684L444,672L456,672L456,684L468,684L468,696L480,696L480,708L492,708L492,720L504,720L504,732L516,732L516,744L528,744L528,756L552,756L552,768L576,768L576,780L636,780L636,792L708,792L708,780L744,780L744,768L768,768L768,756L780,756L780,744L792,744L792,732L804,732L804,720L816,720L816,708L828,708L828,696L840,696L840,684L852,684L852,672L864,672L864,660L876,660L876,648L888,648L888,636L900,636L900,624L912,624L912,612L924,612L924,600L936,600L936,588L948,588L948,576L960,576M1020,576L1020,576L1032,576L1032,588L1044,588L1044,600L1056,600L1056,588L1068,588L1068,600L1080,600L1080,612L1092,612L1092,624L1068,624L1068,636L1032,636L1032,624L1008,624L1008,612L996,612L996,600L1008,600L1008,588L1020,588Z"></path><path class="sand" d="M756,84L756,84L768,84L768,96L756,96L756,84M756,96L756,96L756,108L744,108L744,96L756,96M672,96L672,96L684,96L684,108L672,108L672,96M684,108L684,108L708,108L708,120L732,120L732,108L744,108L744,120L732,120L732,132L720,132L720,144L708,144L708,132L696,132L696,120L684,120L684,108M768,120L768,120L792,120L792,132L780,132L780,144L768,144L768,156L756,156L756,168L768,168L768,192L756,192L756,180L744,180L744,168L732,168L732,156L720,156L720,144L732,144L732,156L744,156L744,144L756,144L756,132L768,132L768,120M708,144L708,144L708,156L696,156L696,144L708,144M708,156L708,156L720,156L720,168L708,168L708,156M696,156L696,156L696,168L684,168L684,156L696,156M612,156L612,156L624,156L624,168L612,168L612,156M624,168L624,168L636,168L636,180L624,180L624,168M660,156L660,156L672,156L672,168L684,168L684,180L672,180L672,192L660,192L660,204L648,204L648,192L636,192L636,180L660,180L660,156M696,168L696,168L708,168L708,180L696,180L696,168M720,168L720,168L732,168L732,180L720,180L720,168M1008,156L1008,156L1020,156L1020,180L1008,180L1008,156M684,180L684,180L696,180L696,192L684,192L684,180M708,180L708,180L720,180L720,192L708,192L708,180M1020,180L1020,180L1032,180L1032,192L1044,192L1044,216L1056,216L1056,240L1044,240L1044,228L1032,228L1032,216L1020,216L1020,180M696,192L696,192L708,192L708,204L720,204L720,216L732,216L732,228L696,228L696,240L684,240L684,228L672,228L672,216L660,216L660,204L672,204L672,216L684,216L684,204L696,204L696,192M768,192L768,192L780,192L780,204L768,204L768,192M168,192L168,192L180,192L180,204L168,204L168,192M168,204L168,204L168,216L156,216L156,204L168,204M648,204L648,204L648,216L636,216L636,204L648,204M780,204L780,204L792,204L792,216L780,216L780,204M864,192L864,192L876,192L876,204L864,204L864,192M864,204L864,204L864,216L852,216L852,228L840,228L840,240L828,240L828,252L816,252L816,240L804,240L804,228L792,228L792,216L840,216L840,204L864,204M156,216L156,216L156,228L144,228L144,240L132,240L132,228L120,228L120,216L156,216M444,204L444,204L480,204L480,216L492,216L492,252L480,252L480,264L468,264L468,276L456,276L456,264L444,264L444,252L432,252L432,216L444,216L444,204M588,204L588,204L600,204L600,216L588,216L588,204M600,216L600,216L612,216L612,228L600,228L600,216M648,216L648,216L660,216L660,228L648,228L648,216M636,216L636,216L636,228L624,228L624,216L636,216M612,228L612,228L624,228L624,240L612,240L612,228M636,228L636,228L648,228L648,240L636,240L636,228M660,228L660,228L672,228L672,240L660,240L660,228M144,240L144,240L156,240L156,252L144,252L144,240M132,240L132,240L132,252L120,252L120,240L132,240M624,240L624,240L636,240L636,252L624,252L624,240M648,240L648,240L660,240L660,252L648,252L648,240M696,240L696,240L708,240L708,252L696,252L696,240M72,240L72,240L84,240L84,252L96,252L96,264L108,264L108,252L120,252L120,264L108,264L108,276L96,276L96,288L84,288L84,300L72,300L72,288L60,288L60,276L48,276L48,264L60,264L60,252L72,252L72,240M132,252L132,252L144,252L144,264L132,264L132,252M156,252L156,252L168,252L168,264L156,264L156,252M216,240L216,240L228,240L228,252L216,252L216,240M216,252L216,252L216,264L204,264L204,276L192,276L192,288L180,288L180,276L168,276L168,264L180,264L180,252L216,252M636,252L636,252L648,252L648,264L660,264L660,276L672,276L672,288L684,288L684,300L660,300L660,288L624,288L624,300L600,300L600,288L612,288L612,276L624,276L624,264L636,264L636,252M708,252L708,252L732,252L732,264L756,264L756,276L792,276L792,264L804,264L804,252L816,252L816,264L804,264L804,276L792,276L792,288L780,288L780,300L768,300L768,312L756,312L756,300L744,300L744,288L732,288L732,276L720,276L720,264L708,264L708,252M828,252L828,252L840,252L840,264L828,264L828,252M888,240L888,240L900,240L900,252L888,252L888,240M888,252L888,252L888,264L876,264L876,276L864,276L864,288L852,288L852,276L840,276L840,264L852,264L852,252L888,252M1008,240L1008,240L1020,240L1020,252L1008,252L1008,240M1020,252L1020,252L1032,252L1032,276L1044,276L1044,396L1032,396L1032,408L1020,408L1020,420L1008,420L1008,408L996,408L996,396L1008,396L1008,384L1020,384L1020,372L1032,372L1032,288L1020,288L1020,276L1008,276L1008,264L1020,264L1020,252M120,264L120,264L132,264L132,276L120,276L120,264M144,264L144,264L156,264L156,276L144,276L144,264M816,264L816,264L828,264L828,276L816,276L816,264M108,276L108,276L120,276L120,288L108,288L108,276M132,276L132,276L144,276L144,288L132,288L132,276M156,276L156,276L168,276L168,288L156,288L156,276M264,264L264,264L276,264L276,276L264,276L264,264M264,276L264,276L264,288L252,288L252,276L264,276M468,276L468,276L480,276L480,288L468,288L468,276M456,276L456,276L456,288L444,288L444,276L456,276M804,276L804,276L816,276L816,288L804,288L804,276M828,276L828,276L840,276L840,288L828,288L828,276M120,288L120,288L132,288L132,300L120,300L120,288M144,288L144,288L156,288L156,300L144,300L144,288M168,288L168,288L180,288L180,300L168,300L168,288M192,288L192,288L204,288L204,300L192,300L192,288M252,288L252,288L252,312L240,312L240,336L228,336L228,324L216,324L216,312L204,312L204,300L216,300L216,312L228,312L228,300L240,300L240,288L252,288M456,288L456,288L468,288L468,300L456,300L456,288M444,288L444,288L444,300L432,300L432,288L444,288M480,288L480,288L492,288L492,300L480,300L480,288M792,288L792,288L804,288L804,300L792,300L792,288M816,288L816,288L828,288L828,300L816,300L816,288M840,288L840,288L852,288L852,300L840,300L840,288M864,288L864,288L876,288L876,300L864,300L864,288M132,300L132,300L144,300L144,312L156,312L156,300L168,300L168,312L156,312L156,324L144,324L144,336L132,336L132,348L120,348L120,312L132,312L132,300M180,300L180,300L192,300L192,312L180,312L180,300M444,300L444,300L456,300L456,312L444,312L444,300M432,300L432,300L432,312L420,312L420,300L432,300M468,300L468,300L480,300L480,312L468,312L468,300M492,300L492,300L504,300L504,312L492,312L492,300M600,300L600,300L600,312L588,312L588,300L600,300M684,300L684,300L696,300L696,312L684,312L684,300M780,300L780,300L792,300L792,312L780,312L780,300M804,300L804,300L816,300L816,312L804,312L804,300M828,300L828,300L840,300L840,312L828,312L828,300M852,300L852,300L864,300L864,312L852,312L852,300M876,300L876,300L888,300L888,312L876,312L876,300M168,312L168,312L180,312L180,324L168,324L168,312M192,312L192,312L204,312L204,324L192,324L192,312M432,312L432,312L444,312L444,324L432,324L432,312M456,312L456,312L468,312L468,324L456,324L456,312M480,312L480,312L492,312L492,324L480,324L480,312M504,312L504,312L540,312L540,324L528,324L528,336L516,336L516,324L504,324L504,312M588,312L588,312L588,324L576,324L576,312L588,312M696,312L696,312L708,312L708,324L696,324L696,312M768,312L768,312L780,312L780,324L768,324L768,312M756,312L756,312L756,324L744,324L744,312L756,312M792,312L792,312L804,312L804,324L792,324L792,312M816,312L816,312L828,312L828,324L816,324L816,312M840,312L840,312L852,312L852,324L840,324L840,312M864,312L864,312L876,312L876,324L864,324L864,312M888,312L888,312L900,312L900,324L888,324L888,312M924,300L924,300L960,300L960,312L972,312L972,348L960,348L960,360L924,360L924,348L912,348L912,336L900,336L900,324L912,324L912,312L924,312L924,300M156,324L156,324L168,324L168,336L156,336L156,324M180,324L180,324L192,324L192,336L180,336L180,324M204,324L204,324L216,324L216,336L204,336L204,324M444,324L444,324L456,324L456,336L444,336L444,324M432,324L432,324L432,336L420,336L420,324L432,324M468,324L468,324L480,324L480,336L468,336L468,324M492,324L492,324L504,324L504,336L492,336L492,324M576,324L576,324L576,348L564,348L564,372L552,372L552,360L540,360L540,348L528,348L528,336L540,336L540,348L552,348L552,336L564,336L564,324L576,324M708,324L708,324L720,324L720,336L732,336L732,324L744,324L744,336L732,336L732,348L720,348L720,360L708,360L708,324M756,324L756,324L768,324L768,336L756,336L756,324M780,324L780,324L792,324L792,336L780,336L780,324M804,324L804,324L816,324L816,336L804,336L804,324M828,324L828,324L840,324L840,336L828,336L828,324M852,324L852,324L864,324L864,336L852,336L852,324M876,324L876,324L888,324L888,336L876,336L876,324M168,336L168,336L180,336L180,348L168,348L168,336M192,336L192,336L204,336L204,348L192,348L192,336M432,336L432,336L444,336L444,348L432,348L432,336M456,336L456,336L468,336L468,348L456,348L456,336M480,336L480,336L492,336L492,348L480,348L480,336M504,336L504,336L516,336L516,348L504,348L504,336M744,336L744,336L756,336L756,348L744,348L744,336M768,336L768,336L780,336L780,348L768,348L768,336M792,336L792,336L804,336L804,348L792,348L792,336M816,336L816,336L828,336L828,348L816,348L816,336M840,336L840,336L852,336L852,348L840,348L840,336M864,336L864,336L876,336L876,348L864,348L864,336M888,336L888,336L900,336L900,348L888,348L888,336M120,348L120,348L120,360L108,360L108,348L120,348M180,348L180,348L192,348L192,360L204,360L204,372L168,372L168,360L180,360L180,348M444,348L444,348L456,348L456,360L444,360L444,348M468,348L468,348L480,348L480,360L468,360L468,348M492,348L492,348L504,348L504,360L492,360L492,348M516,348L516,348L528,348L528,360L516,360L516,348M732,348L732,348L744,348L744,360L732,360L732,348M756,348L756,348L768,348L768,360L756,360L756,348M780,348L780,348L792,348L792,360L780,360L780,348M804,348L804,348L816,348L816,360L804,360L804,348M828,348L828,348L840,348L840,360L828,360L828,348M852,348L852,348L864,348L864,360L852,360L852,348M876,348L876,348L888,348L888,360L876,360L876,348M456,360L456,360L468,360L468,372L480,372L480,360L492,360L492,372L480,372L480,384L468,384L468,396L456,396L456,408L444,408L444,420L432,420L432,432L420,432L420,444L408,444L408,456L396,456L396,468L384,468L384,480L372,480L372,468L360,468L360,456L348,456L348,444L336,444L336,432L324,432L324,420L312,420L312,408L300,408L300,396L288,396L288,384L276,384L276,372L264,372L264,360L276,360L276,372L300,372L300,384L348,384L348,372L360,372L360,360L372,360L372,372L360,372L360,384L348,384L348,396L336,396L336,408L324,408L324,420L336,420L336,432L348,432L348,444L360,444L360,456L372,456L372,444L384,444L384,432L396,432L396,420L408,420L408,408L420,408L420,396L432,396L432,384L444,384L444,372L456,372L456,360M504,360L504,360L516,360L516,372L504,372L504,360M528,360L528,360L540,360L540,372L528,372L528,360M708,360L708,360L708,372L696,372L696,360L708,360M744,360L744,360L756,360L756,372L768,372L768,360L780,360L780,372L768,372L768,384L732,384L732,372L744,372L744,360M792,360L792,360L804,360L804,372L792,372L792,360M816,360L816,360L828,360L828,372L816,372L816,360M840,360L840,360L852,360L852,372L840,372L840,360M864,360L864,360L876,360L876,372L864,372L864,360M168,372L168,372L168,384L156,384L156,372L168,372M204,372L204,372L216,372L216,384L204,384L204,372M492,372L492,372L504,372L504,384L492,384L492,372M516,372L516,372L528,372L528,384L516,384L516,372M564,372L564,372L576,372L576,384L564,384L564,372M696,372L696,372L696,384L684,384L684,372L696,372M780,372L780,372L792,372L792,384L780,384L780,372M804,372L804,372L816,372L816,384L804,384L804,372M828,372L828,372L840,372L840,384L828,384L828,372M852,372L852,372L864,372L864,384L876,384L876,396L888,396L888,408L852,408L852,396L840,396L840,384L852,384L852,372M480,384L480,384L492,384L492,396L480,396L480,384M504,384L504,384L516,384L516,396L504,396L504,384M684,384L684,384L684,396L672,396L672,384L684,384M732,384L732,384L732,396L720,396L720,384L732,384M768,384L768,384L780,384L780,396L768,396L768,384M792,384L792,384L804,384L804,396L792,396L792,384M816,384L816,384L828,384L828,396L816,396L816,384M492,396L492,396L504,396L504,408L516,408L516,420L528,420L528,432L504,432L504,420L480,420L480,408L492,408L492,396M672,396L672,396L672,408L660,408L660,420L648,420L648,432L636,432L636,444L624,444L624,432L612,432L612,420L600,420L600,408L588,408L588,396L612,396L612,408L648,408L648,396L672,396M780,396L780,396L792,396L792,408L780,408L780,396M804,396L804,396L816,396L816,408L804,408L804,396M828,396L828,396L840,396L840,408L828,408L828,396M228,396L228,396L240,396L240,408L228,408L228,396M240,408L240,408L252,408L252,420L240,420L240,408M792,408L792,408L804,408L804,420L792,420L792,408M816,408L816,408L828,408L828,420L816,420L816,408M888,408L888,408L900,408L900,420L888,420L888,408M252,420L252,420L264,420L264,432L276,432L276,444L288,444L288,432L300,432L300,420L312,420L312,432L300,432L300,444L288,444L288,456L276,456L276,468L264,468L264,456L252,456L252,444L240,444L240,432L252,432L252,420M480,420L480,420L480,432L468,432L468,420L480,420M804,420L804,420L816,420L816,432L828,432L828,444L840,444L840,456L852,456L852,468L828,468L828,456L816,456L816,444L792,444L792,432L804,432L804,420M1008,420L1008,420L1008,432L996,432L996,420L1008,420M132,420L132,420L144,420L144,432L132,432L132,420M132,432L132,432L132,444L120,444L120,456L108,456L108,468L96,468L96,552L108,552L108,564L120,564L120,576L108,576L108,588L96,588L96,564L84,564L84,444L96,444L96,432L132,432M312,432L312,432L324,432L324,444L312,444L312,432M528,432L528,432L540,432L540,444L528,444L528,432M684,420L684,420L696,420L696,432L684,432L684,420M684,432L684,432L684,444L672,444L672,432L684,432M300,444L300,444L312,444L312,456L300,456L300,444M324,444L324,444L336,444L336,456L324,456L324,444M636,444L636,444L648,444L648,456L636,456L636,444M624,444L624,444L624,456L612,456L612,444L624,444M672,444L672,444L672,456L684,456L684,468L672,468L672,480L660,480L660,468L648,468L648,456L660,456L660,444L672,444M792,444L792,444L792,456L780,456L780,444L792,444M288,456L288,456L300,456L300,468L288,468L288,456M312,456L312,456L324,456L324,468L312,468L312,456M336,456L336,456L348,456L348,468L336,468L336,456M624,456L624,456L636,456L636,468L624,468L624,456M612,456L612,456L612,468L600,468L600,456L612,456M780,456L780,456L780,468L768,468L768,456L780,456M972,444L972,444L984,444L984,456L972,456L972,444M972,456L972,456L972,468L960,468L960,456L972,456M276,468L276,468L288,468L288,480L276,480L276,468M264,468L264,468L264,480L252,480L252,468L264,468M300,468L300,468L312,468L312,480L300,480L300,468M324,468L324,468L336,468L336,480L324,480L324,468M348,468L348,468L360,468L360,480L348,480L348,468M612,468L612,468L624,468L624,480L612,480L612,468M600,468L600,468L600,480L588,480L588,468L600,468M636,468L636,468L648,468L648,480L636,480L636,468M768,468L768,468L768,480L756,480L756,468L768,468M852,468L852,468L864,468L864,480L852,480L852,468M912,456L912,456L924,456L924,468L912,468L912,456M924,468L924,468L960,468L960,480L948,480L948,492L936,492L936,480L924,480L924,468M264,480L264,480L276,480L276,492L264,492L264,480M252,480L252,480L252,492L240,492L240,480L252,480M288,480L288,480L300,480L300,492L288,492L288,480M312,480L312,480L324,480L324,492L312,492L312,480M336,480L336,480L348,480L348,492L336,492L336,480M360,480L360,480L372,480L372,492L360,492L360,480M384,480L384,480L396,480L396,492L384,492L384,480M564,468L564,468L576,468L576,480L588,480L588,492L576,492L576,504L564,504L564,516L552,516L552,528L540,528L540,540L528,540L528,552L516,552L516,564L504,564L504,576L492,576L492,588L480,588L480,576L468,576L468,564L456,564L456,552L480,552L480,540L504,540L504,528L528,528L528,516L540,516L540,504L552,504L552,492L564,492L564,468M600,480L600,480L612,480L612,492L600,492L600,480M624,480L624,480L636,480L636,492L624,492L624,480M648,480L648,480L660,480L660,492L648,492L648,480M672,480L672,480L684,480L684,492L672,492L672,480M756,480L756,480L756,504L744,504L744,528L756,528L756,540L768,540L768,588L756,588L756,564L744,564L744,552L732,552L732,540L720,540L720,528L708,528L708,516L696,516L696,504L684,504L684,492L696,492L696,504L708,504L708,516L720,516L720,504L732,504L732,492L744,492L744,480L756,480M864,480L864,480L876,480L876,492L864,492L864,480M168,480L168,480L204,480L204,492L216,492L216,504L228,504L228,492L240,492L240,504L228,504L228,516L216,516L216,528L204,528L204,540L168,540L168,528L156,528L156,492L168,492L168,480M252,492L252,492L264,492L264,504L252,504L252,492M276,492L276,492L288,492L288,504L276,504L276,492M300,492L300,492L312,492L312,504L300,504L300,492M324,492L324,492L336,492L336,504L324,504L324,492M348,492L348,492L360,492L360,504L348,504L348,492M372,492L372,492L384,492L384,504L372,504L372,492M396,492L396,492L408,492L408,504L396,504L396,492M588,492L588,492L600,492L600,504L588,504L588,492M612,492L612,492L624,492L624,504L612,504L612,492M636,492L636,492L648,492L648,504L636,504L636,492M660,492L660,492L672,492L672,504L660,504L660,492M876,492L876,492L888,492L888,504L900,504L900,516L912,516L912,504L924,504L924,492L936,492L936,504L924,504L924,516L912,516L912,528L900,528L900,540L888,540L888,516L876,516L876,492M948,492L948,492L960,492L960,504L948,504L948,492M240,504L240,504L252,504L252,516L240,516L240,504M264,504L264,504L276,504L276,516L264,516L264,504M288,504L288,504L300,504L300,516L288,516L288,504M312,504L312,504L324,504L324,516L312,516L312,504M336,504L336,504L348,504L348,516L336,516L336,504M360,504L360,504L372,504L372,516L360,516L360,504M384,504L384,504L396,504L396,516L384,516L384,504M408,504L408,504L420,504L420,516L408,516L408,504M600,504L600,504L612,504L612,516L624,516L624,504L636,504L636,516L624,516L624,528L612,528L612,540L600,540L600,552L588,552L588,564L552,564L552,552L564,552L564,540L576,540L576,528L588,528L588,516L600,516L600,504M648,504L648,504L660,504L660,516L648,516L648,504M672,504L672,504L684,504L684,516L672,516L672,504M936,504L936,504L948,504L948,516L936,516L936,504M960,504L960,504L972,504L972,516L960,516L960,504M228,516L228,516L240,516L240,528L228,528L228,516M252,516L252,516L264,516L264,528L252,528L252,516M276,516L276,516L288,516L288,528L276,528L276,516M300,516L300,516L312,516L312,528L300,528L300,516M324,516L324,516L336,516L336,528L324,528L324,516M348,516L348,516L360,516L360,528L348,528L348,516M372,516L372,516L384,516L384,528L372,528L372,516M636,516L636,516L648,516L648,528L636,528L636,516M660,516L660,516L672,516L672,528L660,528L660,516M684,516L684,516L696,516L696,528L684,528L684,516M924,516L924,516L936,516L936,528L924,528L924,516M948,516L948,516L960,516L960,528L948,528L948,516M972,516L972,516L1008,516L1008,528L996,528L996,540L984,540L984,528L972,528L972,516M240,528L240,528L252,528L252,540L240,540L240,528M264,528L264,528L276,528L276,540L264,540L264,528M288,528L288,528L300,528L300,540L288,540L288,528M312,528L312,528L324,528L324,540L312,540L312,528M336,528L336,528L348,528L348,540L336,540L336,528M360,528L360,528L372,528L372,540L384,540L384,552L396,552L396,564L408,564L408,576L396,576L396,588L384,588L384,600L372,600L372,588L360,588L360,576L348,576L348,564L336,564L336,552L324,552L324,540L336,540L336,552L348,552L348,540L360,540L360,528M624,528L624,528L636,528L636,540L624,540L624,528M648,528L648,528L660,528L660,540L648,540L648,528M672,528L672,528L684,528L684,540L672,540L672,528M696,528L696,528L708,528L708,540L696,540L696,528M912,528L912,528L924,528L924,540L912,540L912,528M936,528L936,528L948,528L948,540L936,540L936,528M960,528L960,528L972,528L972,540L960,540L960,528M252,540L252,540L264,540L264,552L252,552L252,540M276,540L276,540L288,540L288,552L276,552L276,540M300,540L300,540L312,540L312,552L300,552L300,540M636,540L636,540L648,540L648,552L636,552L636,540M660,540L660,540L672,540L672,552L660,552L660,540M684,540L684,540L696,540L696,552L684,552L684,540M888,540L888,540L888,552L876,552L876,540L888,540M924,540L924,540L936,540L936,552L924,552L924,540M948,540L948,540L960,540L960,552L948,552L948,540M972,540L972,540L984,540L984,552L972,552L972,540M996,540L996,540L1008,540L1008,552L996,552L996,540M264,552L264,552L276,552L276,564L288,564L288,552L300,552L300,564L288,564L288,576L252,576L252,564L264,564L264,552M312,552L312,552L324,552L324,564L312,564L312,552M648,552L648,552L660,552L660,564L648,564L648,552M672,552L672,552L684,552L684,564L672,564L672,552M936,552L936,552L948,552L948,564L960,564L960,552L972,552L972,564L960,564L960,576L948,576L948,588L936,588L936,576L924,576L924,564L936,564L936,552M984,552L984,552L996,552L996,564L984,564L984,552M1008,552L1008,552L1020,552L1020,564L1008,564L1008,552M1044,540L1044,540L1056,540L1056,552L1068,552L1068,564L1080,564L1080,576L1068,576L1068,588L1056,588L1056,600L1044,600L1044,588L1032,588L1032,576L1020,576L1020,564L1032,564L1032,552L1044,552L1044,540M300,564L300,564L312,564L312,576L300,576L300,564M324,564L324,564L336,564L336,576L324,576L324,564M552,564L552,564L552,576L540,576L540,564L552,564M660,564L660,564L672,564L672,576L684,576L684,588L696,588L696,624L684,624L684,636L648,636L648,624L636,624L636,588L648,588L648,576L660,576L660,564M972,564L972,564L984,564L984,576L972,576L972,564M996,564L996,564L1008,564L1008,576L996,576L996,564M252,576L252,576L252,588L240,588L240,576L252,576M288,576L288,576L300,576L300,588L288,588L288,576M312,576L312,576L324,576L324,588L312,588L312,576M540,576L540,576L540,588L528,588L528,576L540,576M960,576L960,576L972,576L972,588L960,588L960,576M984,576L984,576L996,576L996,588L984,588L984,576M1008,576L1008,576L1020,576L1020,588L1008,588L1008,576M108,588L108,588L120,588L120,600L108,600L108,588M300,588L300,588L312,588L312,600L300,600L300,588M492,588L492,588L504,588L504,600L492,600L492,588M480,588L480,588L480,600L468,600L468,588L480,588M528,588L528,588L528,612L540,612L540,624L552,624L552,648L540,648L540,636L528,636L528,624L516,624L516,612L504,612L504,600L516,600L516,588L528,588M936,588L936,588L936,600L924,600L924,588L936,588M972,588L972,588L984,588L984,600L972,600L972,588M996,588L996,588L1008,588L1008,600L996,600L996,588M384,600L384,600L396,600L396,612L384,612L384,600M480,600L480,600L492,600L492,612L480,612L480,600M468,600L468,600L468,612L456,612L456,600L468,600M984,600L984,600L996,600L996,612L984,612L984,600M72,600L72,600L84,600L84,612L96,612L96,624L108,624L108,660L96,660L96,648L84,648L84,624L72,624L72,600M468,612L468,612L480,612L480,624L468,624L468,612M492,612L492,612L504,612L504,624L492,624L492,612M996,612L996,612L1008,612L1008,624L996,624L996,612M480,624L480,624L492,624L492,636L480,636L480,624M468,624L468,624L468,636L456,636L456,624L468,624M1008,624L1008,624L1032,624L1032,636L1008,636L1008,624M408,624L408,624L444,624L444,636L432,636L432,648L420,648L420,636L408,636L408,624M468,636L468,636L480,636L480,648L492,648L492,660L456,660L456,648L468,648L468,636M432,648L432,648L444,648L444,660L432,660L432,648M420,648L420,648L420,660L408,660L408,648L420,648M552,648L552,648L564,648L564,660L552,660L552,648M108,660L108,660L120,660L120,672L108,672L108,660M360,648L360,648L372,648L372,660L360,660L360,648M372,660L372,660L384,660L384,672L396,672L396,660L408,660L408,672L396,672L396,684L384,684L384,696L372,696L372,708L360,708L360,720L336,720L336,708L348,708L348,696L360,696L360,684L372,684L372,660M420,660L420,660L432,660L432,672L420,672L420,660M444,660L444,660L456,660L456,672L444,672L444,660M492,660L492,660L504,660L504,672L492,672L492,660M408,672L408,672L420,672L420,684L408,684L408,672M432,672L432,672L444,672L444,684L432,684L432,672M504,672L504,672L516,672L516,684L504,684L504,672M396,684L396,684L408,684L408,696L396,696L396,684M420,684L420,684L432,684L432,696L420,696L420,684M408,696L408,696L420,696L420,708L432,708L432,720L396,720L396,708L408,708L408,696M396,720L396,720L396,732L384,732L384,720L396,720M432,720L432,720L444,720L444,732L432,732L432,720M444,732L444,732L456,732L456,744L444,744Z"></path><path class="start" d="M552,384L552,384L564,384L564,396L552,396L552,384M564,396L564,396L576,396L576,408L564,408L564,396M552,396L552,396L552,408L540,408L540,396L552,396M540,408L540,408L540,420L528,420L528,408L540,408M576,408L576,408L588,408L588,420L576,420L576,408M540,420L540,420L552,420L552,432L540,432L540,420M588,420L588,420L600,420L600,432L588,432L588,420M552,432L552,432L564,432L564,444L552,444L552,432M588,432L588,432L588,444L576,444L576,432L588,432M564,444L564,444L576,444L576,456L564,456Z"></path><path class="finish" d="M576,396L576,396L588,396L588,408L576,408L576,396M576,408L576,408L576,420L564,420L564,408L576,408M564,420L564,420L564,432L552,432L552,420L564,420M552,432L552,432L552,444L540,444L540,432Z"></path></g> <rect opacity=".3" fill="url(#grid)" height="100%" width="100%" y="0" x="0"></rect></svg>