<svg height="540" width="756" id="mapSvgView" xmlns:xlink="http://www.w3.org/1999/xlink" version="1.1" xmlns="http://www.w3.org/2000/svg"> <defs> <style type="text/css"> .grass {fill: rgb(0, 200, 0);} .road {fill: rgb(128, 128, 128);} .start {fill: url(#startPattern)} .finish {fill: url(#finishPattern)} .mud {fill: rgb(100, 70, 0);} .sand {fill: rgb(230, 230, 115);} .water {fill: blue;} .earth {fill: brown;} .night {fill: black;} .parc {fill: rgb(200, 200, 200);} .cp1color {fill: rgb(0, 102, 255);} .cp2color {fill: rgb(0, 100, 200);} .cp3color {fill: rgb(0, 255, 102);} .cp4color {fill: rgb(0, 200, 0);} .cp5color {fill: rgb(255, 255, 0);} .cp6color {fill: rgb(200, 200, 0);} .cp7color {fill: rgb(255, 0, 0);} .cp8color {fill: rgb(200, 0, 0);} .cp9color {fill: rgb(255, 0, 255);} .cp1 {fill: url(#cp1pattern);} .cp2 {fill: url(#cp2pattern);} .cp3 {fill: url(#cp3pattern);} .cp4 {fill: url(#cp4pattern);} .cp5 {fill: url(#cp5pattern);} .cp6 {fill: url(#cp6pattern);} .cp7 {fill: url(#cp7pattern);} .cp8 {fill: url(#cp8pattern);} .cp9 {fill: url(#cp9pattern);} .primaryColor {fill: rgb(0, 255, 102);} </style> <pattern y="0" x="0" height="12" width="12" patternUnits="userSpaceOnUse" id="grid"> <line stroke-width="1" stroke="black" y2="12" x2="12" y1="0" x1="12"></line> <line stroke-width="1" stroke="black" y2="12" x2="12" y1="12" x1="0"></line> </pattern> <pattern y="0" x="0" height="12" width="12" patternUnits="userSpaceOnUse" id="finishPattern"> <rect fill="black" height="12" width="12" y="0" x="0"></rect> <path fill="white" d="M0,0L3,0L3,3L0,3L0,0M6,0L9,0L9,3L6,3L6,0M3,3L6,3L6,6L3,6L3,3M9,3L12,3L12,6L9,6L9,3"></path> <path fill="white" d="M0,6L3,6L3,9L0,9L0,6M6,6L9,6L9,9L6,9L6,6M3,9L6,9L6,12L3,12L3,9M9,9L12,9L12,12L9,12L9,9"></path> </pattern> <pattern y="0" x="0" height="12" width="12" patternUnits="userSpaceOnUse" id="startPattern"> <rect fill="rgb(100,100,100)" height="12" width="12" y="0" x="0"></rect> <rect stroke-width="1" stroke="rgb(200,200,200)" fill="none" height="5" width="5" y="3.5" x="3.5"></rect> &gt; </pattern> <pattern y="0" x="0" height="12" width="12" patternUnits="userSpaceOnUse" id="cp1pattern"> <rect class="cp1color" height="12" width="12" y="0" x="0"></rect> <path fill="black" d="M0,0L3,0L3,3L0,3L0,0M6,0L9,0L9,3L6,3L6,0M3,3L6,3L6,6L3,6L3,3M9,3L12,3L12,6L9,6L9,3"></path> <path fill="black" d="M0,6L3,6L3,9L0,9L0,6M6,6L9,6L9,9L6,9L6,6M3,9L6,9L6,12L3,12L3,9M9,9L12,9L12,12L9,12L9,9"></path> </pattern> <pattern y="0" x="0" height="12" width="12" patternUnits="userSpaceOnUse" id="cp2pattern"> <rect class="cp2color" height="12" width="12" y="0" x="0"></rect> <path fill="white" d="M0,0L3,0L3,3L0,3L0,0M6,0L9,0L9,3L6,3L6,0M3,3L6,3L6,6L3,6L3,3M9,3L12,3L12,6L9,6L9,3"></path> <path fill="white" d="M0,6L3,6L3,9L0,9L0,6M6,6L9,6L9,9L6,9L6,6M3,9L6,9L6,12L3,12L3,9M9,9L12,9L12,12L9,12L9,9"></path> </pattern> <pattern y="0" x="0" height="12" width="12" patternUnits="userSpaceOnUse" id="cp3pattern"> <rect class="cp3color" height="12" width="12" y="0" x="0"></rect> <path fill="black" d="M0,0L3,0L3,3L0,3L0,0M6,0L9,0L9,3L6,3L6,0M3,3L6,3L6,6L3,6L3,3M9,3L12,3L12,6L9,6L9,3"></path> <path fill="black" d="M0,6L3,6L3,9L0,9L0,6M6,6L9,6L9,9L6,9L6,6M3,9L6,9L6,12L3,12L3,9M9,9L12,9L12,12L9,12L9,9"></path> </pattern> <pattern y="0" x="0" height="12" width="12" patternUnits="userSpaceOnUse" id="cp4pattern"> <rect class="cp4color" height="12" width="12" y="0" x="0"></rect> <path fill="white" d="M0,0L3,0L3,3L0,3L0,0M6,0L9,0L9,3L6,3L6,0M3,3L6,3L6,6L3,6L3,3M9,3L12,3L12,6L9,6L9,3"></path> <path fill="white" d="M0,6L3,6L3,9L0,9L0,6M6,6L9,6L9,9L6,9L6,6M3,9L6,9L6,12L3,12L3,9M9,9L12,9L12,12L9,12L9,9"></path> </pattern> <pattern y="0" x="0" height="12" width="12" patternUnits="userSpaceOnUse" id="cp5pattern"> <rect class="cp5color" height="12" width="12" y="0" x="0"></rect> <path fill="black" d="M0,0L3,0L3,3L0,3L0,0M6,0L9,0L9,3L6,3L6,0M3,3L6,3L6,6L3,6L3,3M9,3L12,3L12,6L9,6L9,3"></path> <path fill="black" d="M0,6L3,6L3,9L0,9L0,6M6,6L9,6L9,9L6,9L6,6M3,9L6,9L6,12L3,12L3,9M9,9L12,9L12,12L9,12L9,9"></path> </pattern> <pattern y="0" x="0" height="12" width="12" patternUnits="userSpaceOnUse" id="cp6pattern"> <rect class="cp6color" height="12" width="12" y="0" x="0"></rect> <path fill="white" d="M0,0L3,0L3,3L0,3L0,0M6,0L9,0L9,3L6,3L6,0M3,3L6,3L6,6L3,6L3,3M9,3L12,3L12,6L9,6L9,3"></path> <path fill="white" d="M0,6L3,6L3,9L0,9L0,6M6,6L9,6L9,9L6,9L6,6M3,9L6,9L6,12L3,12L3,9M9,9L12,9L12,12L9,12L9,9"></path> </pattern> <pattern y="0" x="0" height="12" width="12" patternUnits="userSpaceOnUse" id="cp7pattern"> <rect class="cp7color" height="12" width="12" y="0" x="0"></rect> <path fill="black" d="M0,0L3,0L3,3L0,3L0,0M6,0L9,0L9,3L6,3L6,0M3,3L6,3L6,6L3,6L3,3M9,3L12,3L12,6L9,6L9,3"></path> <path fill="black" d="M0,6L3,6L3,9L0,9L0,6M6,6L9,6L9,9L6,9L6,6M3,9L6,9L6,12L3,12L3,9M9,9L12,9L12,12L9,12L9,9"></path> </pattern> <pattern y="0" x="0" height="12" width="12" patternUnits="userSpaceOnUse" id="cp8pattern"> <rect class="cp8color" height="12" width="12" y="0" x="0"></rect> <path fill="white" d="M0,0L3,0L3,3L0,3L0,0M6,0L9,0L9,3L6,3L6,0M3,3L6,3L6,6L3,6L3,3M9,3L12,3L12,6L9,6L9,3"></path> <path fill="white" d="M0,6L3,6L3,9L0,9L0,6M6,6L9,6L9,9L6,9L6,6M3,9L6,9L6,12L3,12L3,9M9,9L12,9L12,12L9,12L9,9"></path> </pattern> <pattern y="0" x="0" height="12" width="12" patternUnits="userSpaceOnUse" id="cp9pattern"> <rect class="cp9color" height="12" width="12" y="0" x="0"></rect> <path fill="black" d="M0,0L3,0L3,3L0,3L0,0M6,0L9,0L9,3L6,3L6,0M3,3L6,3L6,6L3,6L3,3M9,3L12,3L12,6L9,6L9,3"></path> <path fill="black" d="M0,6L3,6L3,9L0,9L0,6M6,6L9,6L9,9L6,9L6,6M3,9L6,9L6,12L3,12L3,9M9,9L12,9L12,12L9,12L9,9"></path> </pattern> </defs> <rect height="100%" width="100%" y="0" x="0" class="road" id="mainfill"></rect> <g id="paths"><path class="parc" d="M0,0L0,0L12,0L12,60L0,60L0,0M372,12L372,12L384,12L384,72L372,72L372,12M396,276L396,276L408,276L408,288L420,288L420,300L408,300L408,312L396,312L396,300L384,300L384,288L396,288Z"></path><path class="grass" d="M12,0L12,0L756,0L756,540L0,540L0,60L12,60L12,0M48,12L48,12L36,12L36,24L24,24L24,72L12,72L12,96L24,96L24,120L12,120L12,156L24,156L24,168L60,168L60,156L72,156L72,180L84,180L84,192L96,192L96,216L108,216L108,228L132,228L132,240L144,240L144,252L168,252L168,240L192,240L192,252L228,252L228,240L240,240L240,228L276,228L276,216L288,216L288,192L300,192L300,180L312,180L312,144L336,144L336,132L360,132L360,144L432,144L432,156L444,156L444,168L516,168L516,156L528,156L528,144L600,144L600,132L648,132L648,156L636,156L636,144L612,144L612,156L540,156L540,168L528,168L528,180L432,180L432,168L420,168L420,156L336,156L336,168L324,168L324,192L312,192L312,204L300,204L300,228L288,228L288,240L252,240L252,252L240,252L240,264L132,264L132,252L120,252L120,240L96,240L96,228L84,228L84,204L72,204L72,192L24,192L24,204L12,204L12,384L24,384L24,396L48,396L48,384L60,384L60,372L360,372L360,360L444,360L444,348L456,348L456,312L468,312L468,336L480,336L480,348L504,348L504,372L372,372L372,384L84,384L84,396L72,396L72,408L36,408L36,420L24,420L24,432L12,432L12,516L24,516L24,528L60,528L60,516L72,516L72,504L96,504L96,516L132,516L132,528L468,528L468,516L492,516L492,504L528,504L528,516L564,516L564,528L588,528L588,516L600,516L600,492L612,492L612,456L624,456L624,432L612,432L612,372L624,372L624,348L612,348L612,336L600,336L600,300L588,300L588,288L564,288L564,264L624,264L624,336L636,336L636,348L648,348L648,372L636,372L636,384L624,384L624,420L636,420L636,432L648,432L648,456L636,456L636,480L624,480L624,504L636,504L636,516L660,516L660,528L696,528L696,516L720,516L720,504L732,504L732,480L744,480L744,24L732,24L732,12L696,12L696,24L648,24L648,12L624,12L624,24L576,24L576,12L552,12L552,24L528,24L528,12L492,12L492,24L480,24L480,12L312,12L312,24L300,24L300,12L264,12L264,24L252,24L252,60L228,60L228,72L216,72L216,108L192,108L192,120L180,120L180,144L168,144L168,108L180,108L180,96L192,96L192,84L204,84L204,36L192,36L192,24L180,24L180,12L84,12L84,24L60,24L60,12L48,12M540,48L540,48L552,48L552,60L588,60L588,72L612,72L612,60L660,60L660,72L684,72L684,60L696,60L696,72L708,72L708,468L696,468L696,480L684,480L684,492L672,492L672,468L684,468L684,456L696,456L696,432L684,432L684,372L696,372L696,348L684,348L684,228L672,228L672,216L552,216L552,228L540,228L540,240L528,240L528,252L516,252L516,300L528,300L528,312L552,312L552,324L564,324L564,348L576,348L576,372L564,372L564,432L576,432L576,456L564,456L564,480L552,480L552,468L528,468L528,456L504,456L504,444L468,444L468,432L132,432L132,444L108,444L108,456L72,456L72,468L48,468L48,456L60,456L60,444L96,444L96,432L108,432L108,420L504,420L504,432L516,432L516,444L540,444L540,432L552,432L552,336L540,336L540,324L516,324L516,312L504,312L504,288L492,288L492,276L480,276L480,264L468,264L468,252L444,252L444,240L420,240L420,228L408,228L408,216L360,216L360,240L348,240L348,264L336,264L336,276L324,276L324,288L300,288L300,300L288,300L288,312L252,312L252,324L240,324L240,336L84,336L84,324L72,324L72,300L60,300L60,276L48,276L48,240L60,240L60,264L72,264L72,276L84,276L84,288L96,288L96,300L108,300L108,312L120,312L120,324L228,324L228,312L240,312L240,300L252,300L252,288L276,288L276,276L312,276L312,264L324,264L324,240L336,240L336,228L348,228L348,204L420,204L420,216L432,216L432,228L456,228L456,240L516,240L516,228L528,228L528,216L540,216L540,204L600,204L600,192L636,192L636,204L684,204L684,192L696,192L696,96L684,96L684,84L528,84L528,96L516,96L516,108L444,108L444,96L432,96L432,84L360,84L360,96L336,96L336,84L300,84L300,96L288,96L288,132L264,132L264,144L252,144L252,168L240,168L240,180L228,180L228,192L192,192L192,204L144,204L144,192L132,192L132,168L120,168L120,156L108,156L108,120L96,120L96,108L72,108L72,120L60,120L60,108L48,108L48,96L60,96L60,60L84,60L84,72L120,72L120,60L156,60L156,72L144,72L144,84L132,84L132,120L120,120L120,144L132,144L132,156L144,156L144,180L156,180L156,192L180,192L180,180L192,180L192,168L228,168L228,156L240,156L240,120L264,120L264,108L276,108L276,72L300,72L300,60L312,60L312,72L480,72L480,60L492,60L492,72L528,72L528,60L540,60L540,48M384,264L384,264L420,264L420,276L432,276L432,312L420,312L420,324L384,324L384,312L372,312L372,276L384,276L384,264M408,276L408,276L396,276L396,288L384,288L384,300L396,300L396,312L408,312L408,300L420,300L420,288L408,288L408,276M228,468L228,468L468,468L468,480L372,480L372,492L132,492L132,480L228,480Z"></path><path class="finish" d="M348,12L348,12L360,12L360,24L348,24L348,12M360,24L360,24L372,24L372,36L360,36L360,24M360,36L360,36L360,48L348,48L348,36L360,36M360,48L360,48L372,48L372,60L360,60L360,48M360,60L360,60L360,72L348,72L348,60Z"></path><path class="start" d="M396,12L396,12L408,12L408,24L396,24L396,12M396,24L396,24L396,36L384,36L384,24L396,24M396,36L396,36L408,36L408,48L396,48L396,36M396,48L396,48L396,60L384,60L384,48L396,48M396,60L396,60L408,60L408,72L396,72Z"></path></g> <rect opacity=".3" fill="url(#grid)" height="100%" width="100%" y="0" x="0"></rect></svg>