<svg height="516" width="648" id="mapSvgView" xmlns:xlink="http://www.w3.org/1999/xlink" version="1.1" xmlns="http://www.w3.org/2000/svg"> <defs> <style type="text/css"> .grass {fill: rgb(0, 200, 0);} .road {fill: rgb(128, 128, 128);} .start {fill: url(#startPattern)} .finish {fill: url(#finishPattern)} .mud {fill: rgb(100, 70, 0);} .sand {fill: rgb(230, 230, 115);} .water {fill: blue;} .earth {fill: brown;} .night {fill: black;} .parc {fill: rgb(200, 200, 200);} .cp1color {fill: rgb(0, 102, 255);} .cp2color {fill: rgb(0, 100, 200);} .cp3color {fill: rgb(0, 255, 102);} .cp4color {fill: rgb(0, 200, 0);} .cp5color {fill: rgb(255, 255, 0);} .cp6color {fill: rgb(200, 200, 0);} .cp7color {fill: rgb(255, 0, 0);} .cp8color {fill: rgb(200, 0, 0);} .cp9color {fill: rgb(255, 0, 255);} .cp1 {fill: url(#cp1pattern);} .cp2 {fill: url(#cp2pattern);} .cp3 {fill: url(#cp3pattern);} .cp4 {fill: url(#cp4pattern);} .cp5 {fill: url(#cp5pattern);} .cp6 {fill: url(#cp6pattern);} .cp7 {fill: url(#cp7pattern);} .cp8 {fill: url(#cp8pattern);} .cp9 {fill: url(#cp9pattern);} .primaryColor {fill: rgb(0, 255, 102);} </style> <pattern y="0" x="0" height="12" width="12" patternUnits="userSpaceOnUse" id="grid"> <line stroke-width="1" stroke="black" y2="12" x2="12" y1="0" x1="12"></line> <line stroke-width="1" stroke="black" y2="12" x2="12" y1="12" x1="0"></line> </pattern> <pattern y="0" x="0" height="12" width="12" patternUnits="userSpaceOnUse" id="finishPattern"> <rect fill="black" height="12" width="12" y="0" x="0"></rect> <path fill="white" d="M0,0L3,0L3,3L0,3L0,0M6,0L9,0L9,3L6,3L6,0M3,3L6,3L6,6L3,6L3,3M9,3L12,3L12,6L9,6L9,3"></path> <path fill="white" d="M0,6L3,6L3,9L0,9L0,6M6,6L9,6L9,9L6,9L6,6M3,9L6,9L6,12L3,12L3,9M9,9L12,9L12,12L9,12L9,9"></path> </pattern> <pattern y="0" x="0" height="12" width="12" patternUnits="userSpaceOnUse" id="startPattern"> <rect fill="rgb(100,100,100)" height="12" width="12" y="0" x="0"></rect> <rect stroke-width="1" stroke="rgb(200,200,200)" fill="none" height="5" width="5" y="3.5" x="3.5"></rect> &gt; </pattern> <pattern y="0" x="0" height="12" width="12" patternUnits="userSpaceOnUse" id="cp1pattern"> <rect class="cp1color" height="12" width="12" y="0" x="0"></rect> <path fill="black" d="M0,0L3,0L3,3L0,3L0,0M6,0L9,0L9,3L6,3L6,0M3,3L6,3L6,6L3,6L3,3M9,3L12,3L12,6L9,6L9,3"></path> <path fill="black" d="M0,6L3,6L3,9L0,9L0,6M6,6L9,6L9,9L6,9L6,6M3,9L6,9L6,12L3,12L3,9M9,9L12,9L12,12L9,12L9,9"></path> </pattern> <pattern y="0" x="0" height="12" width="12" patternUnits="userSpaceOnUse" id="cp2pattern"> <rect class="cp2color" height="12" width="12" y="0" x="0"></rect> <path fill="white" d="M0,0L3,0L3,3L0,3L0,0M6,0L9,0L9,3L6,3L6,0M3,3L6,3L6,6L3,6L3,3M9,3L12,3L12,6L9,6L9,3"></path> <path fill="white" d="M0,6L3,6L3,9L0,9L0,6M6,6L9,6L9,9L6,9L6,6M3,9L6,9L6,12L3,12L3,9M9,9L12,9L12,12L9,12L9,9"></path> </pattern> <pattern y="0" x="0" height="12" width="12" patternUnits="userSpaceOnUse" id="cp3pattern"> <rect class="cp3color" height="12" width="12" y="0" x="0"></rect> <path fill="black" d="M0,0L3,0L3,3L0,3L0,0M6,0L9,0L9,3L6,3L6,0M3,3L6,3L6,6L3,6L3,3M9,3L12,3L12,6L9,6L9,3"></path> <path fill="black" d="M0,6L3,6L3,9L0,9L0,6M6,6L9,6L9,9L6,9L6,6M3,9L6,9L6,12L3,12L3,9M9,9L12,9L12,12L9,12L9,9"></path> </pattern> <pattern y="0" x="0" height="12" width="12" patternUnits="userSpaceOnUse" id="cp4pattern"> <rect class="cp4color" height="12" width="12" y="0" x="0"></rect> <path fill="white" d="M0,0L3,0L3,3L0,3L0,0M6,0L9,0L9,3L6,3L6,0M3,3L6,3L6,6L3,6L3,3M9,3L12,3L12,6L9,6L9,3"></path> <path fill="white" d="M0,6L3,6L3,9L0,9L0,6M6,6L9,6L9,9L6,9L6,6M3,9L6,9L6,12L3,12L3,9M9,9L12,9L12,12L9,12L9,9"></path> </pattern> <pattern y="0" x="0" height="12" width="12" patternUnits="userSpaceOnUse" id="cp5pattern"> <rect class="cp5color" height="12" width="12" y="0" x="0"></rect> <path fill="black" d="M0,0L3,0L3,3L0,3L0,0M6,0L9,0L9,3L6,3L6,0M3,3L6,3L6,6L3,6L3,3M9,3L12,3L12,6L9,6L9,3"></path> <path fill="black" d="M0,6L3,6L3,9L0,9L0,6M6,6L9,6L9,9L6,9L6,6M3,9L6,9L6,12L3,12L3,9M9,9L12,9L12,12L9,12L9,9"></path> </pattern> <pattern y="0" x="0" height="12" width="12" patternUnits="userSpaceOnUse" id="cp6pattern"> <rect class="cp6color" height="12" width="12" y="0" x="0"></rect> <path fill="white" d="M0,0L3,0L3,3L0,3L0,0M6,0L9,0L9,3L6,3L6,0M3,3L6,3L6,6L3,6L3,3M9,3L12,3L12,6L9,6L9,3"></path> <path fill="white" d="M0,6L3,6L3,9L0,9L0,6M6,6L9,6L9,9L6,9L6,6M3,9L6,9L6,12L3,12L3,9M9,9L12,9L12,12L9,12L9,9"></path> </pattern> <pattern y="0" x="0" height="12" width="12" patternUnits="userSpaceOnUse" id="cp7pattern"> <rect class="cp7color" height="12" width="12" y="0" x="0"></rect> <path fill="black" d="M0,0L3,0L3,3L0,3L0,0M6,0L9,0L9,3L6,3L6,0M3,3L6,3L6,6L3,6L3,3M9,3L12,3L12,6L9,6L9,3"></path> <path fill="black" d="M0,6L3,6L3,9L0,9L0,6M6,6L9,6L9,9L6,9L6,6M3,9L6,9L6,12L3,12L3,9M9,9L12,9L12,12L9,12L9,9"></path> </pattern> <pattern y="0" x="0" height="12" width="12" patternUnits="userSpaceOnUse" id="cp8pattern"> <rect class="cp8color" height="12" width="12" y="0" x="0"></rect> <path fill="white" d="M0,0L3,0L3,3L0,3L0,0M6,0L9,0L9,3L6,3L6,0M3,3L6,3L6,6L3,6L3,3M9,3L12,3L12,6L9,6L9,3"></path> <path fill="white" d="M0,6L3,6L3,9L0,9L0,6M6,6L9,6L9,9L6,9L6,6M3,9L6,9L6,12L3,12L3,9M9,9L12,9L12,12L9,12L9,9"></path> </pattern> <pattern y="0" x="0" height="12" width="12" patternUnits="userSpaceOnUse" id="cp9pattern"> <rect class="cp9color" height="12" width="12" y="0" x="0"></rect> <path fill="black" d="M0,0L3,0L3,3L0,3L0,0M6,0L9,0L9,3L6,3L6,0M3,3L6,3L6,6L3,6L3,3M9,3L12,3L12,6L9,6L9,3"></path> <path fill="black" d="M0,6L3,6L3,9L0,9L0,6M6,6L9,6L9,9L6,9L6,6M3,9L6,9L6,12L3,12L3,9M9,9L12,9L12,12L9,12L9,9"></path> </pattern> </defs> <rect height="100%" width="100%" y="0" x="0" class="road" id="mainfill"></rect> <g id="paths"><path class="cp1" d="M312,24L312,24L336,24L336,36L312,36L312,24M192,240L192,240L204,240L204,264L216,264L216,240L228,240L228,276L192,276Z"></path><path class="cp2" d="M312,48L312,48L336,48L336,60L312,60L312,48M228,240L228,240L240,240L240,264L252,264L252,276L228,276Z"></path><path class="cp3" d="M312,72L312,72L336,72L336,84L312,84L312,72M240,240L240,240L276,240L276,252L264,252L264,276L252,276L252,252L240,252Z"></path><path class="cp4" d="M312,96L312,96L336,96L336,108L312,108L312,96M276,240L276,240L288,240L288,276L276,276Z"></path><path class="cp5" d="M312,120L312,120L336,120L336,132L312,132L312,120M288,240L288,240L348,240L348,276L336,276L336,252L324,252L324,264L312,264L312,252L300,252L300,276L288,276Z"></path><path class="cp6" d="M312,144L312,144L336,144L336,156L312,156L312,144M348,240L348,240L384,240L384,276L372,276L372,264L360,264L360,276L348,276Z"></path><path class="cp7" d="M312,168L312,168L336,168L336,180L312,180L312,168M384,240L384,240L420,240L420,252L408,252L408,276L396,276L396,252L384,252Z"></path><path class="cp8" d="M312,192L312,192L336,192L336,204L312,204L312,192M420,240L420,240L456,240L456,252L444,252L444,264L456,264L456,276L420,276Z"></path><path class="cp9" d="M312,216L312,216L336,216L336,228L312,228Z"></path><path class="parc" d="M0,0L0,0L648,0L648,516L0,516L0,0M240,24L240,24L228,24L228,36L168,36L168,48L156,48L156,60L132,60L132,72L120,72L120,84L96,84L96,96L84,96L84,120L72,120L72,132L60,132L60,156L48,156L48,168L36,168L36,228L24,228L24,288L36,288L36,348L48,348L48,360L60,360L60,384L72,384L72,396L84,396L84,420L96,420L96,432L120,432L120,444L132,444L132,456L156,456L156,468L168,468L168,480L228,480L228,492L420,492L420,480L480,480L480,468L492,468L492,456L516,456L516,444L528,444L528,432L552,432L552,420L564,420L564,396L576,396L576,384L588,384L588,360L600,360L600,348L612,348L612,288L624,288L624,228L612,228L612,168L600,168L600,156L588,156L588,132L576,132L576,120L564,120L564,96L552,96L552,84L528,84L528,72L516,72L516,60L492,60L492,48L480,48L480,36L420,36L420,24L240,24M300,36L300,36L348,36L348,48L300,48L300,36M300,60L300,60L348,60L348,72L300,72L300,60M288,84L288,84L360,84L360,96L288,96L288,84M288,108L288,108L360,108L360,120L288,120L288,108M276,132L276,132L372,132L372,144L276,144L276,132M276,156L276,156L372,156L372,168L276,168L276,156M264,180L264,180L384,180L384,192L264,192L264,180M264,204L264,204L384,204L384,216L264,216L264,204M180,228L180,228L468,228L468,240L480,240L480,276L468,276L468,288L180,288L180,276L168,276L168,240L180,240L180,228M204,240L204,240L192,240L192,276L264,276L264,252L276,252L276,276L300,276L300,252L312,252L312,264L324,264L324,252L336,252L336,276L360,276L360,264L372,264L372,276L384,276L384,252L396,252L396,276L408,276L408,252L420,252L420,276L456,276L456,264L444,264L444,252L456,252L456,240L216,240L216,264L204,264L204,240M240,252L240,252L252,252L252,264L240,264L240,252M264,300L264,300L384,300L384,312L264,312L264,300M264,324L264,324L384,324L384,336L264,336L264,324M276,348L276,348L372,348L372,360L276,360L276,348M276,372L276,372L372,372L372,384L276,384L276,372M288,396L288,396L360,396L360,408L288,408L288,396M288,420L288,420L360,420L360,432L288,432L288,420M300,444L300,444L348,444L348,456L300,456L300,444M300,468L300,468L348,468L348,480L300,480Z"></path><path class="start" d="M312,288L312,288L324,288L324,300L312,300L312,288M312,312L312,312L324,312L324,324L312,324L312,312M312,336L312,336L324,336L324,348L312,348L312,336M312,360L312,360L324,360L324,372L312,372L312,360M312,384L312,384L324,384L324,396L312,396L312,384M312,408L312,408L324,408L324,420L312,420L312,408M312,432L312,432L324,432L324,444L312,444L312,432M312,456L312,456L324,456L324,468L312,468L312,456M312,480L312,480L324,480L324,492L312,492Z"></path><path class="finish" d="M324,288L324,288L336,288L336,300L324,300L324,288M324,312L324,312L336,312L336,324L324,324L324,312M324,336L324,336L336,336L336,348L324,348L324,336M324,360L324,360L336,360L336,372L324,372L324,360M324,384L324,384L336,384L336,396L324,396L324,384M324,408L324,408L336,408L336,420L324,420L324,408M324,432L324,432L336,432L336,444L324,444L324,432M324,456L324,456L336,456L336,468L324,468L324,456M324,480L324,480L336,480L336,492L324,492Z"></path></g> <rect opacity=".3" fill="url(#grid)" height="100%" width="100%" y="0" x="0"></rect></svg>