<svg height="1008" width="1476" id="mapSvgView" xmlns:xlink="http://www.w3.org/1999/xlink" version="1.1" xmlns="http://www.w3.org/2000/svg"> <defs> <style type="text/css"> .grass {fill: rgb(0, 200, 0);} .road {fill: rgb(128, 128, 128);} .start {fill: url(#startPattern)} .finish {fill: url(#finishPattern)} .mud {fill: rgb(100, 70, 0);} .sand {fill: rgb(230, 230, 115);} .water {fill: blue;} .earth {fill: brown;} .night {fill: black;} .parc {fill: rgb(200, 200, 200);} .cp1color {fill: rgb(0, 102, 255);} .cp2color {fill: rgb(0, 100, 200);} .cp3color {fill: rgb(0, 255, 102);} .cp4color {fill: rgb(0, 200, 0);} .cp5color {fill: rgb(255, 255, 0);} .cp6color {fill: rgb(200, 200, 0);} .cp7color {fill: rgb(255, 0, 0);} .cp8color {fill: rgb(200, 0, 0);} .cp9color {fill: rgb(255, 0, 255);} .cp1 {fill: url(#cp1pattern);} .cp2 {fill: url(#cp2pattern);} .cp3 {fill: url(#cp3pattern);} .cp4 {fill: url(#cp4pattern);} .cp5 {fill: url(#cp5pattern);} .cp6 {fill: url(#cp6pattern);} .cp7 {fill: url(#cp7pattern);} .cp8 {fill: url(#cp8pattern);} .cp9 {fill: url(#cp9pattern);} .primaryColor {fill: rgb(0, 255, 102);} </style> <pattern y="0" x="0" height="12" width="12" patternUnits="userSpaceOnUse" id="grid"> <line stroke-width="1" stroke="black" y2="12" x2="12" y1="0" x1="12"></line> <line stroke-width="1" stroke="black" y2="12" x2="12" y1="12" x1="0"></line> </pattern> <pattern y="0" x="0" height="12" width="12" patternUnits="userSpaceOnUse" id="finishPattern"> <rect fill="black" height="12" width="12" y="0" x="0"></rect> <path fill="white" d="M0,0L3,0L3,3L0,3L0,0M6,0L9,0L9,3L6,3L6,0M3,3L6,3L6,6L3,6L3,3M9,3L12,3L12,6L9,6L9,3"></path> <path fill="white" d="M0,6L3,6L3,9L0,9L0,6M6,6L9,6L9,9L6,9L6,6M3,9L6,9L6,12L3,12L3,9M9,9L12,9L12,12L9,12L9,9"></path> </pattern> <pattern y="0" x="0" height="12" width="12" patternUnits="userSpaceOnUse" id="startPattern"> <rect fill="rgb(100,100,100)" height="12" width="12" y="0" x="0"></rect> <rect stroke-width="1" stroke="rgb(200,200,200)" fill="none" height="5" width="5" y="3.5" x="3.5"></rect> &gt; </pattern> <pattern y="0" x="0" height="12" width="12" patternUnits="userSpaceOnUse" id="cp1pattern"> <rect class="cp1color" height="12" width="12" y="0" x="0"></rect> <path fill="black" d="M0,0L3,0L3,3L0,3L0,0M6,0L9,0L9,3L6,3L6,0M3,3L6,3L6,6L3,6L3,3M9,3L12,3L12,6L9,6L9,3"></path> <path fill="black" d="M0,6L3,6L3,9L0,9L0,6M6,6L9,6L9,9L6,9L6,6M3,9L6,9L6,12L3,12L3,9M9,9L12,9L12,12L9,12L9,9"></path> </pattern> <pattern y="0" x="0" height="12" width="12" patternUnits="userSpaceOnUse" id="cp2pattern"> <rect class="cp2color" height="12" width="12" y="0" x="0"></rect> <path fill="white" d="M0,0L3,0L3,3L0,3L0,0M6,0L9,0L9,3L6,3L6,0M3,3L6,3L6,6L3,6L3,3M9,3L12,3L12,6L9,6L9,3"></path> <path fill="white" d="M0,6L3,6L3,9L0,9L0,6M6,6L9,6L9,9L6,9L6,6M3,9L6,9L6,12L3,12L3,9M9,9L12,9L12,12L9,12L9,9"></path> </pattern> <pattern y="0" x="0" height="12" width="12" patternUnits="userSpaceOnUse" id="cp3pattern"> <rect class="cp3color" height="12" width="12" y="0" x="0"></rect> <path fill="black" d="M0,0L3,0L3,3L0,3L0,0M6,0L9,0L9,3L6,3L6,0M3,3L6,3L6,6L3,6L3,3M9,3L12,3L12,6L9,6L9,3"></path> <path fill="black" d="M0,6L3,6L3,9L0,9L0,6M6,6L9,6L9,9L6,9L6,6M3,9L6,9L6,12L3,12L3,9M9,9L12,9L12,12L9,12L9,9"></path> </pattern> <pattern y="0" x="0" height="12" width="12" patternUnits="userSpaceOnUse" id="cp4pattern"> <rect class="cp4color" height="12" width="12" y="0" x="0"></rect> <path fill="white" d="M0,0L3,0L3,3L0,3L0,0M6,0L9,0L9,3L6,3L6,0M3,3L6,3L6,6L3,6L3,3M9,3L12,3L12,6L9,6L9,3"></path> <path fill="white" d="M0,6L3,6L3,9L0,9L0,6M6,6L9,6L9,9L6,9L6,6M3,9L6,9L6,12L3,12L3,9M9,9L12,9L12,12L9,12L9,9"></path> </pattern> <pattern y="0" x="0" height="12" width="12" patternUnits="userSpaceOnUse" id="cp5pattern"> <rect class="cp5color" height="12" width="12" y="0" x="0"></rect> <path fill="black" d="M0,0L3,0L3,3L0,3L0,0M6,0L9,0L9,3L6,3L6,0M3,3L6,3L6,6L3,6L3,3M9,3L12,3L12,6L9,6L9,3"></path> <path fill="black" d="M0,6L3,6L3,9L0,9L0,6M6,6L9,6L9,9L6,9L6,6M3,9L6,9L6,12L3,12L3,9M9,9L12,9L12,12L9,12L9,9"></path> </pattern> <pattern y="0" x="0" height="12" width="12" patternUnits="userSpaceOnUse" id="cp6pattern"> <rect class="cp6color" height="12" width="12" y="0" x="0"></rect> <path fill="white" d="M0,0L3,0L3,3L0,3L0,0M6,0L9,0L9,3L6,3L6,0M3,3L6,3L6,6L3,6L3,3M9,3L12,3L12,6L9,6L9,3"></path> <path fill="white" d="M0,6L3,6L3,9L0,9L0,6M6,6L9,6L9,9L6,9L6,6M3,9L6,9L6,12L3,12L3,9M9,9L12,9L12,12L9,12L9,9"></path> </pattern> <pattern y="0" x="0" height="12" width="12" patternUnits="userSpaceOnUse" id="cp7pattern"> <rect class="cp7color" height="12" width="12" y="0" x="0"></rect> <path fill="black" d="M0,0L3,0L3,3L0,3L0,0M6,0L9,0L9,3L6,3L6,0M3,3L6,3L6,6L3,6L3,3M9,3L12,3L12,6L9,6L9,3"></path> <path fill="black" d="M0,6L3,6L3,9L0,9L0,6M6,6L9,6L9,9L6,9L6,6M3,9L6,9L6,12L3,12L3,9M9,9L12,9L12,12L9,12L9,9"></path> </pattern> <pattern y="0" x="0" height="12" width="12" patternUnits="userSpaceOnUse" id="cp8pattern"> <rect class="cp8color" height="12" width="12" y="0" x="0"></rect> <path fill="white" d="M0,0L3,0L3,3L0,3L0,0M6,0L9,0L9,3L6,3L6,0M3,3L6,3L6,6L3,6L3,3M9,3L12,3L12,6L9,6L9,3"></path> <path fill="white" d="M0,6L3,6L3,9L0,9L0,6M6,6L9,6L9,9L6,9L6,6M3,9L6,9L6,12L3,12L3,9M9,9L12,9L12,12L9,12L9,9"></path> </pattern> <pattern y="0" x="0" height="12" width="12" patternUnits="userSpaceOnUse" id="cp9pattern"> <rect class="cp9color" height="12" width="12" y="0" x="0"></rect> <path fill="black" d="M0,0L3,0L3,3L0,3L0,0M6,0L9,0L9,3L6,3L6,0M3,3L6,3L6,6L3,6L3,3M9,3L12,3L12,6L9,6L9,3"></path> <path fill="black" d="M0,6L3,6L3,9L0,9L0,6M6,6L9,6L9,9L6,9L6,6M3,9L6,9L6,12L3,12L3,9M9,9L12,9L12,12L9,12L9,9"></path> </pattern> </defs> <rect height="100%" width="100%" y="0" x="0" class="grass" id="mainfill"></rect> <g id="paths"><path class="cp1" d="M864,180L864,180L876,180L876,204L864,204L864,180M1404,612L1404,612L1440,612L1440,624L1404,624Z"></path><path class="cp2" d="M768,492L768,492L780,492L780,552L768,552L768,492M1284,624L1284,624L1296,624L1296,636L1284,636Z"></path><path class="cp3" d="M984,768L984,768L996,768L996,780L984,780L984,768M996,780L996,780L1008,780L1008,792L996,792L996,780M1032,768L1032,768L1044,768L1044,780L1032,780L1032,768M1032,780L1032,780L1032,792L1020,792L1020,780L1032,780M1008,792L1008,792L1020,792L1020,804L1008,804L1008,792M960,792L960,792L972,792L972,804L984,804L984,816L960,816L960,792M1020,804L1020,804L1032,804L1032,816L1020,816L1020,804M1008,804L1008,804L1008,816L996,816L996,804L1008,804M1056,792L1056,792L1068,792L1068,804L1056,804L1056,792M1056,804L1056,804L1056,816L1044,816L1044,804L1056,804M984,816L984,816L996,816L996,828L984,828L984,816M1032,816L1032,816L1044,816L1044,828L1032,828L1032,816M936,816L936,816L948,816L948,828L936,828L936,816M948,828L948,828L960,828L960,840L948,840L948,828M996,828L996,828L1008,828L1008,840L996,840L996,828M984,828L984,828L984,840L972,840L972,828L984,828M1044,828L1044,828L1056,828L1056,840L1044,840L1044,828M1032,828L1032,828L1032,840L1020,840L1020,828L1032,828M960,840L960,840L972,840L972,852L960,852L960,840M1008,840L1008,840L1020,840L1020,852L1008,852L1008,840M1056,840L1056,840L1068,840L1068,852L1056,852L1056,840M972,852L972,852L984,852L984,864L972,864L972,852M960,852L960,852L960,864L948,864L948,852L960,852M1020,852L1020,852L1032,852L1032,864L1020,864L1020,852M1008,852L1008,852L1008,864L996,864L996,852L1008,852M984,864L984,864L996,864L996,876L984,876L984,864M1032,864L1032,864L1044,864L1044,876L1032,876L1032,864M996,876L996,876L1008,876L1008,888L996,888L996,876M984,876L984,876L984,888L972,888L972,876L984,876M972,888L972,888L972,900L960,900L960,888L972,888M1008,888L1008,888L1020,888L1020,900L1008,900Z"></path><path class="parc" d="M0,0L0,0L12,0L12,108L0,108Z"></path><path class="sand" d="M132,12L132,12L240,12L240,24L156,24L156,36L132,36L132,48L96,48L96,72L72,72L72,84L60,84L60,96L48,96L48,132L36,132L36,60L48,60L48,48L72,48L72,36L84,36L84,24L132,24L132,12M444,24L444,24L564,24L564,36L576,36L576,48L600,48L600,60L612,60L612,72L624,72L624,84L600,84L600,72L564,72L564,60L540,60L540,48L504,48L504,36L444,36L444,24M612,108L612,108L636,108L636,168L624,168L624,144L612,144L612,108M1008,252L1008,252L1032,252L1032,276L996,276L996,288L972,288L972,300L960,300L960,312L948,312L948,324L936,324L936,300L948,300L948,288L960,288L960,276L984,276L984,264L1008,264L1008,252M1044,252L1044,252L1068,252L1068,276L1080,276L1080,288L1092,288L1092,300L1068,300L1068,288L1056,288L1056,264L1044,264L1044,252M1164,264L1164,264L1212,264L1212,276L1236,276L1236,288L1248,288L1248,300L1272,300L1272,312L1284,312L1284,324L1308,324L1308,336L1332,336L1332,384L1320,384L1320,360L1308,360L1308,348L1296,348L1296,336L1272,336L1272,324L1248,324L1248,312L1224,312L1224,300L1212,300L1212,288L1200,288L1200,276L1176,276L1176,288L1152,288L1152,276L1164,276L1164,264M1056,372L1056,372L1068,372L1068,384L1092,384L1092,396L1116,396L1116,408L1164,408L1164,420L1104,420L1104,408L1068,408L1068,396L1056,396L1056,372M1164,372L1164,372L1188,372L1188,384L1176,384L1176,396L1152,396L1152,384L1164,384L1164,372M540,444L540,444L552,444L552,504L540,504L540,444M936,468L936,468L948,468L948,492L936,492L936,528L912,528L912,540L900,540L900,552L888,552L888,564L792,564L792,552L852,552L852,540L864,540L864,528L888,528L888,516L900,516L900,504L912,504L912,492L924,492L924,480L936,480L936,468M576,480L576,480L588,480L588,492L576,492L576,480M600,504L600,504L648,504L648,516L672,516L672,528L684,528L684,540L708,540L708,552L732,552L732,564L672,564L672,552L660,552L660,540L600,540L600,552L564,552L564,540L576,540L576,528L588,528L588,516L600,516L600,504M24,540L24,540L36,540L36,588L48,588L48,624L60,624L60,648L72,648L72,672L84,672L84,684L96,684L96,696L108,696L108,708L132,708L132,720L84,720L84,708L72,708L72,696L60,696L60,684L48,684L48,660L36,660L36,648L24,648L24,624L12,624L12,576L24,576L24,540M1104,564L1104,564L1116,564L1116,576L1104,576L1104,564M1104,576L1104,576L1104,588L1092,588L1092,576L1104,576M1092,588L1092,588L1092,648L1068,648L1068,672L1056,672L1056,648L1032,648L1032,588L1092,588M1056,600L1056,600L1044,600L1044,636L1080,636L1080,600L1056,600M1056,612L1056,612L1068,612L1068,624L1056,624L1056,612M828,684L828,684L912,684L912,696L852,696L852,708L816,708L816,720L792,720L792,708L780,708L780,696L828,696L828,684M1440,684L1440,684L1452,684L1452,696L1464,696L1464,792L1452,792L1452,828L1440,828L1440,840L1428,840L1428,852L1416,852L1416,864L1404,864L1404,876L1392,876L1392,888L1380,888L1380,900L1368,900L1368,912L1356,912L1356,924L1344,924L1344,936L1332,936L1332,948L1308,948L1308,960L1272,960L1272,972L1224,972L1224,984L1200,984L1200,996L1104,996L1104,984L1092,984L1092,972L1056,972L1056,960L1044,960L1044,948L1020,948L1020,924L1008,924L1008,912L996,912L996,900L984,900L984,876L960,876L960,852L936,852L936,840L924,840L924,828L948,828L948,816L936,816L936,804L900,804L900,792L888,792L888,780L912,780L912,792L936,792L936,804L960,804L960,816L984,816L984,804L972,804L972,792L960,792L960,780L948,780L948,768L924,768L924,756L888,756L888,744L876,744L876,732L912,732L912,744L948,744L948,756L972,756L972,768L984,768L984,744L996,744L996,756L1008,756L1008,768L1020,768L1020,792L1008,792L1008,780L996,780L996,768L984,768L984,780L996,780L996,792L1008,792L1008,804L996,804L996,816L984,816L984,828L972,828L972,840L960,840L960,828L948,828L948,840L960,840L960,852L972,852L972,840L984,840L984,828L996,828L996,816L1008,816L1008,804L1020,804L1020,792L1044,792L1044,816L1032,816L1032,804L1020,804L1020,816L1032,816L1032,828L1020,828L1020,840L1008,840L1008,828L996,828L996,840L1008,840L1008,852L996,852L996,864L984,864L984,852L972,852L972,864L984,864L984,876L996,876L996,864L1008,864L1008,852L1020,852L1020,840L1032,840L1032,828L1044,828L1044,816L1068,816L1068,828L1080,828L1080,852L1068,852L1068,840L1056,840L1056,828L1044,828L1044,840L1056,840L1056,852L1068,852L1068,876L1044,876L1044,864L1032,864L1032,852L1020,852L1020,864L1032,864L1032,876L1044,876L1044,900L1020,900L1020,888L1008,888L1008,876L996,876L996,888L1008,888L1008,900L1020,900L1020,924L1032,924L1032,936L1056,936L1056,948L1080,948L1080,960L1116,960L1116,972L1200,972L1200,960L1224,960L1224,948L1260,948L1260,936L1296,936L1296,924L1308,924L1308,912L1332,912L1332,900L1344,900L1344,888L1356,888L1356,876L1368,876L1368,864L1380,864L1380,852L1392,852L1392,828L1404,828L1404,816L1416,816L1416,804L1428,804L1428,792L1440,792L1440,756L1452,756L1452,708L1440,708Z"></path><path class="road" d="M156,24L156,24L312,24L312,36L504,36L504,48L540,48L540,60L564,60L564,72L600,72L600,84L636,84L636,96L660,96L660,108L672,108L672,120L684,120L684,132L696,132L696,156L720,156L720,168L732,168L732,180L756,180L756,204L768,204L768,228L780,228L780,240L792,240L792,252L816,252L816,240L828,240L828,228L840,228L840,192L852,192L852,180L864,180L864,216L852,216L852,240L840,240L840,252L828,252L828,264L780,264L780,252L768,252L768,240L756,240L756,228L744,228L744,204L732,204L732,192L720,192L720,180L696,180L696,168L684,168L684,156L672,156L672,132L648,132L648,120L636,120L636,108L612,108L612,144L624,144L624,432L636,432L636,444L648,444L648,456L672,456L672,468L696,468L696,480L708,480L708,492L768,492L768,552L708,552L708,540L684,540L684,528L672,528L672,516L648,516L648,504L600,504L600,516L588,516L588,528L576,528L576,540L564,540L564,576L576,576L576,600L588,600L588,612L600,612L600,624L612,624L612,636L624,636L624,648L648,648L648,660L672,660L672,672L720,672L720,684L744,684L744,696L768,696L768,708L792,708L792,720L816,720L816,708L852,708L852,696L912,696L912,708L924,708L924,720L948,720L948,732L1044,732L1044,744L1068,744L1068,756L1104,756L1104,780L1176,780L1176,804L1236,804L1236,792L1248,792L1248,720L1260,720L1260,708L1272,708L1272,684L1284,684L1284,636L1296,636L1296,720L1284,720L1284,732L1272,732L1272,804L1260,804L1260,816L1248,816L1248,828L1176,828L1176,816L1164,816L1164,804L1092,804L1092,792L1056,792L1056,780L1044,780L1044,756L996,756L996,744L984,744L984,768L972,768L972,756L948,756L948,744L912,744L912,732L876,732L876,744L888,744L888,756L924,756L924,768L948,768L948,780L960,780L960,804L936,804L936,792L912,792L912,780L888,780L888,792L900,792L900,804L936,804L936,828L900,828L900,816L816,816L816,804L768,804L768,816L792,816L792,828L804,828L804,840L828,840L828,852L876,852L876,864L948,864L948,876L864,876L864,864L816,864L816,852L792,852L792,840L780,840L780,828L756,828L756,816L744,816L744,792L732,792L732,780L720,780L720,768L708,768L708,756L684,756L684,768L696,768L696,780L708,780L708,792L720,792L720,816L732,816L732,828L744,828L744,840L768,840L768,852L780,852L780,864L804,864L804,876L828,876L828,888L852,888L852,900L936,900L936,888L960,888L960,912L816,912L816,900L804,900L804,888L792,888L792,876L768,876L768,864L756,864L756,852L732,852L732,840L720,840L720,828L708,828L708,816L696,816L696,792L684,792L684,780L672,780L672,768L648,768L648,744L636,744L636,732L576,732L576,720L132,720L132,708L108,708L108,696L96,696L96,684L84,684L84,672L72,672L72,648L60,648L60,624L48,624L48,588L36,588L36,372L108,372L108,576L120,576L120,612L132,612L132,624L144,624L144,636L252,636L252,624L240,624L240,612L228,612L228,600L216,600L216,588L204,588L204,576L192,576L192,564L180,564L180,552L168,552L168,528L156,528L156,504L144,504L144,480L132,480L132,372L168,372L168,492L180,492L180,504L192,504L192,540L204,540L204,552L216,552L216,564L228,564L228,576L240,576L240,588L276,588L276,600L312,600L312,612L456,612L456,600L480,600L480,588L492,588L492,576L504,576L504,564L516,564L516,552L528,552L528,540L540,540L540,504L552,504L552,156L540,156L540,144L528,144L528,132L504,132L504,120L480,120L480,108L444,108L444,96L408,96L408,84L312,84L312,96L288,96L288,108L264,108L264,120L240,120L240,132L228,132L228,144L216,144L216,156L204,156L204,168L192,168L192,180L180,180L180,192L168,192L168,348L156,348L156,336L144,336L144,348L132,348L132,204L144,204L144,192L156,192L156,180L168,180L168,168L180,168L180,156L192,156L192,144L204,144L204,132L216,132L216,108L144,108L144,120L132,120L132,132L120,132L120,168L108,168L108,336L96,336L96,348L84,348L84,336L72,336L72,348L60,348L60,336L48,336L48,348L36,348L36,132L48,132L48,96L60,96L60,84L72,84L72,72L96,72L96,48L132,48L132,36L156,36L156,24M960,108L960,108L1020,108L1020,120L1032,120L1032,132L1044,132L1044,180L1032,180L1032,204L1020,204L1020,216L1008,216L1008,228L1032,228L1032,240L1044,240L1044,264L1056,264L1056,288L1068,288L1068,300L1152,300L1152,288L1176,288L1176,276L1200,276L1200,288L1212,288L1212,300L1224,300L1224,312L1248,312L1248,324L1272,324L1272,336L1296,336L1296,348L1308,348L1308,360L1320,360L1320,384L1332,384L1332,396L1344,396L1344,408L1356,408L1356,420L1368,420L1368,432L1380,432L1380,444L1392,444L1392,468L1404,468L1404,504L1416,504L1416,528L1428,528L1428,564L1440,564L1440,612L1404,612L1404,564L1392,564L1392,540L1380,540L1380,528L1368,528L1368,492L1356,492L1356,480L1344,480L1344,444L1332,444L1332,432L1320,432L1320,420L1308,420L1308,408L1296,408L1296,396L1272,396L1272,384L1248,384L1248,372L1164,372L1164,384L1152,384L1152,396L1188,396L1188,408L1200,408L1200,432L1212,432L1212,456L1224,456L1224,468L1236,468L1236,492L1248,492L1248,504L1260,504L1260,516L1272,516L1272,540L1284,540L1284,552L1296,552L1296,624L1284,624L1284,600L1272,600L1272,552L1260,552L1260,540L1248,540L1248,516L1236,516L1236,504L1224,504L1224,480L1212,480L1212,468L1200,468L1200,456L1188,456L1188,432L1176,432L1176,420L1164,420L1164,408L1116,408L1116,396L1092,396L1092,384L1068,384L1068,372L996,372L996,384L984,384L984,396L972,396L972,408L960,408L960,444L948,444L948,468L936,468L936,480L924,480L924,492L912,492L912,504L900,504L900,516L888,516L888,528L864,528L864,540L852,540L852,552L780,552L780,492L840,492L840,480L852,480L852,468L864,468L864,456L876,456L876,444L888,444L888,420L900,420L900,408L912,408L912,384L924,384L924,360L936,360L936,324L948,324L948,312L960,312L960,300L972,300L972,288L996,288L996,276L1032,276L1032,252L1008,252L1008,240L996,240L996,204L1008,204L1008,180L1020,180L1020,168L1032,168L1032,144L1020,144L1020,132L1008,132L1008,120L996,120L996,132L960,132L960,168L948,168L948,180L936,180L936,192L924,192L924,204L876,204L876,180L924,180L924,168L936,168L936,132L948,132L948,120L960,120L960,108M48,348L48,348L60,348L60,360L48,360L48,348M72,348L72,348L84,348L84,360L72,360L72,348M96,348L96,348L108,348L108,360L96,360L96,348M144,348L144,348L156,348L156,360L144,360L144,348M588,480L588,480L576,480L576,492L588,492L588,480M540,576L540,576L528,576L528,588L516,588L516,600L504,600L504,612L480,612L480,624L564,624L564,612L552,612L552,576L540,576M1404,624L1404,624L1440,624L1440,708L1452,708L1452,756L1440,756L1440,792L1428,792L1428,804L1416,804L1416,816L1404,816L1404,828L1392,828L1392,852L1380,852L1380,864L1368,864L1368,876L1356,876L1356,888L1344,888L1344,900L1332,900L1332,912L1308,912L1308,924L1296,924L1296,936L1260,936L1260,948L1224,948L1224,960L1200,960L1200,972L1116,972L1116,960L1080,960L1080,948L1056,948L1056,936L1032,936L1032,924L1020,924L1020,900L1044,900L1044,876L1068,876L1068,852L1092,852L1092,864L1104,864L1104,876L1128,876L1128,900L1140,900L1140,912L1212,912L1212,900L1260,900L1260,888L1284,888L1284,876L1296,876L1296,864L1320,864L1320,840L1332,840L1332,816L1344,816L1344,804L1356,804L1356,792L1368,792L1368,768L1392,768L1392,744L1404,744Z"></path><path class="start" d="M48,336L48,336L60,336L60,348L48,348L48,336M60,348L60,348L72,348L72,336L84,336L84,348L72,348L72,360L60,360L60,348M48,348L48,348L48,360L36,360L36,348L48,348M84,348L84,348L96,348L96,336L108,336L108,348L96,348L96,360L84,360L84,348M144,336L144,336L156,336L156,348L144,348L144,336M156,348L156,348L168,348L168,360L156,360L156,348M144,348L144,348L144,360L132,360L132,348Z"></path><path class="finish" d="M36,360L36,360L108,360L108,372L36,372L36,360M132,360L132,360L168,360L168,372L132,372Z"></path></g> <rect opacity=".3" fill="url(#grid)" height="100%" width="100%" y="0" x="0"></rect></svg>