<svg height="1368" width="1704" id="mapSvgView" xmlns:xlink="http://www.w3.org/1999/xlink" version="1.1" xmlns="http://www.w3.org/2000/svg"> <defs> <style type="text/css"> .grass {fill: rgb(0, 200, 0);} .road {fill: rgb(128, 128, 128);} .start {fill: url(#startPattern)} .finish {fill: url(#finishPattern)} .mud {fill: rgb(100, 70, 0);} .sand {fill: rgb(230, 230, 115);} .water {fill: blue;} .earth {fill: brown;} .night {fill: black;} .parc {fill: rgb(200, 200, 200);} .cp1color {fill: rgb(0, 102, 255);} .cp2color {fill: rgb(0, 100, 200);} .cp3color {fill: rgb(0, 255, 102);} .cp4color {fill: rgb(0, 200, 0);} .cp5color {fill: rgb(255, 255, 0);} .cp6color {fill: rgb(200, 200, 0);} .cp7color {fill: rgb(255, 0, 0);} .cp8color {fill: rgb(200, 0, 0);} .cp9color {fill: rgb(255, 0, 255);} .cp1 {fill: url(#cp1pattern);} .cp2 {fill: url(#cp2pattern);} .cp3 {fill: url(#cp3pattern);} .cp4 {fill: url(#cp4pattern);} .cp5 {fill: url(#cp5pattern);} .cp6 {fill: url(#cp6pattern);} .cp7 {fill: url(#cp7pattern);} .cp8 {fill: url(#cp8pattern);} .cp9 {fill: url(#cp9pattern);} .primaryColor {fill: rgb(0, 255, 102);} </style> <pattern y="0" x="0" height="12" width="12" patternUnits="userSpaceOnUse" id="grid"> <line stroke-width="1" stroke="black" y2="12" x2="12" y1="0" x1="12"></line> <line stroke-width="1" stroke="black" y2="12" x2="12" y1="12" x1="0"></line> </pattern> <pattern y="0" x="0" height="12" width="12" patternUnits="userSpaceOnUse" id="finishPattern"> <rect fill="black" height="12" width="12" y="0" x="0"></rect> <path fill="white" d="M0,0L3,0L3,3L0,3L0,0M6,0L9,0L9,3L6,3L6,0M3,3L6,3L6,6L3,6L3,3M9,3L12,3L12,6L9,6L9,3"></path> <path fill="white" d="M0,6L3,6L3,9L0,9L0,6M6,6L9,6L9,9L6,9L6,6M3,9L6,9L6,12L3,12L3,9M9,9L12,9L12,12L9,12L9,9"></path> </pattern> <pattern y="0" x="0" height="12" width="12" patternUnits="userSpaceOnUse" id="startPattern"> <rect fill="rgb(100,100,100)" height="12" width="12" y="0" x="0"></rect> <rect stroke-width="1" stroke="rgb(200,200,200)" fill="none" height="5" width="5" y="3.5" x="3.5"></rect> &gt; </pattern> <pattern y="0" x="0" height="12" width="12" patternUnits="userSpaceOnUse" id="cp1pattern"> <rect class="cp1color" height="12" width="12" y="0" x="0"></rect> <path fill="black" d="M0,0L3,0L3,3L0,3L0,0M6,0L9,0L9,3L6,3L6,0M3,3L6,3L6,6L3,6L3,3M9,3L12,3L12,6L9,6L9,3"></path> <path fill="black" d="M0,6L3,6L3,9L0,9L0,6M6,6L9,6L9,9L6,9L6,6M3,9L6,9L6,12L3,12L3,9M9,9L12,9L12,12L9,12L9,9"></path> </pattern> <pattern y="0" x="0" height="12" width="12" patternUnits="userSpaceOnUse" id="cp2pattern"> <rect class="cp2color" height="12" width="12" y="0" x="0"></rect> <path fill="white" d="M0,0L3,0L3,3L0,3L0,0M6,0L9,0L9,3L6,3L6,0M3,3L6,3L6,6L3,6L3,3M9,3L12,3L12,6L9,6L9,3"></path> <path fill="white" d="M0,6L3,6L3,9L0,9L0,6M6,6L9,6L9,9L6,9L6,6M3,9L6,9L6,12L3,12L3,9M9,9L12,9L12,12L9,12L9,9"></path> </pattern> <pattern y="0" x="0" height="12" width="12" patternUnits="userSpaceOnUse" id="cp3pattern"> <rect class="cp3color" height="12" width="12" y="0" x="0"></rect> <path fill="black" d="M0,0L3,0L3,3L0,3L0,0M6,0L9,0L9,3L6,3L6,0M3,3L6,3L6,6L3,6L3,3M9,3L12,3L12,6L9,6L9,3"></path> <path fill="black" d="M0,6L3,6L3,9L0,9L0,6M6,6L9,6L9,9L6,9L6,6M3,9L6,9L6,12L3,12L3,9M9,9L12,9L12,12L9,12L9,9"></path> </pattern> <pattern y="0" x="0" height="12" width="12" patternUnits="userSpaceOnUse" id="cp4pattern"> <rect class="cp4color" height="12" width="12" y="0" x="0"></rect> <path fill="white" d="M0,0L3,0L3,3L0,3L0,0M6,0L9,0L9,3L6,3L6,0M3,3L6,3L6,6L3,6L3,3M9,3L12,3L12,6L9,6L9,3"></path> <path fill="white" d="M0,6L3,6L3,9L0,9L0,6M6,6L9,6L9,9L6,9L6,6M3,9L6,9L6,12L3,12L3,9M9,9L12,9L12,12L9,12L9,9"></path> </pattern> <pattern y="0" x="0" height="12" width="12" patternUnits="userSpaceOnUse" id="cp5pattern"> <rect class="cp5color" height="12" width="12" y="0" x="0"></rect> <path fill="black" d="M0,0L3,0L3,3L0,3L0,0M6,0L9,0L9,3L6,3L6,0M3,3L6,3L6,6L3,6L3,3M9,3L12,3L12,6L9,6L9,3"></path> <path fill="black" d="M0,6L3,6L3,9L0,9L0,6M6,6L9,6L9,9L6,9L6,6M3,9L6,9L6,12L3,12L3,9M9,9L12,9L12,12L9,12L9,9"></path> </pattern> <pattern y="0" x="0" height="12" width="12" patternUnits="userSpaceOnUse" id="cp6pattern"> <rect class="cp6color" height="12" width="12" y="0" x="0"></rect> <path fill="white" d="M0,0L3,0L3,3L0,3L0,0M6,0L9,0L9,3L6,3L6,0M3,3L6,3L6,6L3,6L3,3M9,3L12,3L12,6L9,6L9,3"></path> <path fill="white" d="M0,6L3,6L3,9L0,9L0,6M6,6L9,6L9,9L6,9L6,6M3,9L6,9L6,12L3,12L3,9M9,9L12,9L12,12L9,12L9,9"></path> </pattern> <pattern y="0" x="0" height="12" width="12" patternUnits="userSpaceOnUse" id="cp7pattern"> <rect class="cp7color" height="12" width="12" y="0" x="0"></rect> <path fill="black" d="M0,0L3,0L3,3L0,3L0,0M6,0L9,0L9,3L6,3L6,0M3,3L6,3L6,6L3,6L3,3M9,3L12,3L12,6L9,6L9,3"></path> <path fill="black" d="M0,6L3,6L3,9L0,9L0,6M6,6L9,6L9,9L6,9L6,6M3,9L6,9L6,12L3,12L3,9M9,9L12,9L12,12L9,12L9,9"></path> </pattern> <pattern y="0" x="0" height="12" width="12" patternUnits="userSpaceOnUse" id="cp8pattern"> <rect class="cp8color" height="12" width="12" y="0" x="0"></rect> <path fill="white" d="M0,0L3,0L3,3L0,3L0,0M6,0L9,0L9,3L6,3L6,0M3,3L6,3L6,6L3,6L3,3M9,3L12,3L12,6L9,6L9,3"></path> <path fill="white" d="M0,6L3,6L3,9L0,9L0,6M6,6L9,6L9,9L6,9L6,6M3,9L6,9L6,12L3,12L3,9M9,9L12,9L12,12L9,12L9,9"></path> </pattern> <pattern y="0" x="0" height="12" width="12" patternUnits="userSpaceOnUse" id="cp9pattern"> <rect class="cp9color" height="12" width="12" y="0" x="0"></rect> <path fill="black" d="M0,0L3,0L3,3L0,3L0,0M6,0L9,0L9,3L6,3L6,0M3,3L6,3L6,6L3,6L3,3M9,3L12,3L12,6L9,6L9,3"></path> <path fill="black" d="M0,6L3,6L3,9L0,9L0,6M6,6L9,6L9,9L6,9L6,6M3,9L6,9L6,12L3,12L3,9M9,9L12,9L12,12L9,12L9,9"></path> </pattern> </defs> <rect height="100%" width="100%" y="0" x="0" class="mud" id="mainfill"></rect> <g id="paths"><path class="cp1" d="M360,1224L360,1224L516,1224L516,1236L492,1236L492,1248L456,1248L456,1260L432,1260L432,1248L360,1248Z"></path><path class="cp2" d="M876,636L876,636L888,636L888,648L900,648L900,744L888,744L888,756L876,756Z"></path><path class="cp3" d="M1272,1020L1272,1020L1284,1020L1284,1032L1296,1032L1296,1044L1308,1044L1308,1056L1320,1056L1320,1068L1296,1068L1296,1056L1284,1056L1284,1044L1272,1044L1272,1020M1296,1092L1296,1092L1320,1092L1320,1104L1308,1104L1308,1116L1296,1116L1296,1128L1284,1128L1284,1140L1272,1140L1272,1116L1284,1116L1284,1104L1296,1104Z"></path><path class="cp4" d="M1020,1068L1020,1068L1032,1068L1032,1092L1020,1092L1020,1104L996,1104L996,1092L1008,1092L1008,1080L1020,1080L1020,1068M1008,1140L1008,1140L1032,1140L1032,1152L1044,1152L1044,1164L1020,1164L1020,1152L1008,1152Z"></path><path class="cp5" d="M648,444L648,444L708,444L708,456L720,456L720,468L636,468L636,456L648,456Z"></path><path class="cp6" d="M1344,324L1344,324L1356,324L1356,336L1368,336L1368,348L1380,348L1380,360L1392,360L1392,372L1404,372L1404,384L1416,384L1416,396L1428,396L1428,408L1440,408L1440,420L1452,420L1452,432L1464,432L1464,444L1476,444L1476,456L1488,456L1488,468L1500,468L1500,480L1476,480L1476,468L1464,468L1464,456L1452,456L1452,444L1428,444L1428,432L1416,432L1416,420L1404,420L1404,408L1392,408L1392,396L1380,396L1380,384L1368,384L1368,372L1356,372L1356,348L1344,348L1344,324M1500,480L1500,480L1512,480L1512,492L1524,492L1524,504L1500,504L1500,480M1524,504L1524,504L1536,504L1536,516L1524,516Z"></path><path class="cp7" d="M792,564L792,564L804,564L804,576L792,576L792,564M804,576L804,576L816,576L816,588L804,588L804,576M816,588L816,588L828,588L828,600L816,600Z"></path><path class="parc" d="M0,0L0,0L12,0L12,84L0,84Z"></path><path class="road" d="M708,48L708,48L852,48L852,60L864,60L864,72L876,72L876,84L888,84L888,108L876,108L876,120L864,120L864,132L876,132L876,120L888,120L888,108L900,108L900,192L888,192L888,180L876,180L876,168L864,168L864,180L876,180L876,192L888,192L888,216L828,216L828,228L804,228L804,240L708,240L708,228L684,228L684,216L672,216L672,204L612,204L612,192L432,192L432,204L360,204L360,216L336,216L336,228L312,228L312,240L300,240L300,252L276,252L276,264L264,264L264,276L252,276L252,288L240,288L240,300L228,300L228,312L216,312L216,336L204,336L204,348L192,348L192,372L180,372L180,396L168,396L168,504L156,504L156,576L144,576L144,624L132,624L132,684L120,684L120,852L132,852L132,960L144,960L144,972L156,972L156,996L168,996L168,1008L180,1008L180,1020L192,1020L192,1032L204,1032L204,1044L216,1044L216,1068L228,1068L228,1080L252,1080L252,1092L264,1092L264,1104L288,1104L288,1116L300,1116L300,1128L324,1128L324,1140L360,1140L360,1152L372,1152L372,1164L384,1164L384,1176L396,1176L396,1164L408,1164L408,1152L420,1152L420,1128L432,1128L432,1116L420,1116L420,1080L408,1080L408,1032L396,1032L396,1008L384,1008L384,936L396,936L396,912L408,912L408,900L420,900L420,888L432,888L432,876L444,876L444,864L456,864L456,852L432,852L432,840L420,840L420,828L408,828L408,708L420,708L420,648L432,648L432,624L444,624L444,612L456,612L456,600L468,600L468,588L480,588L480,516L468,516L468,468L456,468L456,444L444,444L444,420L432,420L432,408L408,408L408,384L396,384L396,408L372,408L372,420L348,420L348,408L336,408L336,396L324,396L324,348L336,348L336,336L372,336L372,348L420,348L420,360L444,360L444,372L456,372L456,384L468,384L468,396L480,396L480,408L492,408L492,432L504,432L504,552L516,552L516,540L528,540L528,528L540,528L540,516L552,516L552,504L564,504L564,492L588,492L588,480L600,480L600,468L732,468L732,480L744,480L744,492L768,492L768,504L780,504L780,516L792,516L792,528L804,528L804,552L792,552L792,564L780,564L780,576L768,576L768,564L756,564L756,552L744,552L744,540L732,540L732,528L708,528L708,516L624,516L624,528L600,528L600,552L588,552L588,564L564,564L564,576L552,576L552,588L540,588L540,600L528,600L528,612L516,612L516,624L504,624L504,636L492,636L492,660L480,660L480,684L468,684L468,732L456,732L456,756L468,756L468,768L480,768L480,780L516,780L516,768L540,768L540,756L564,756L564,744L588,744L588,732L612,732L612,720L624,720L624,708L636,708L636,696L648,696L648,684L672,684L672,672L684,672L684,660L696,660L696,648L708,648L708,636L720,636L720,624L732,624L732,612L756,612L756,600L768,600L768,588L780,588L780,576L792,576L792,588L780,588L780,600L792,600L792,588L804,588L804,600L792,600L792,612L804,612L804,600L816,600L816,612L804,612L804,636L792,636L792,648L780,648L780,660L756,660L756,672L744,672L744,684L732,684L732,696L720,696L720,708L708,708L708,720L696,720L696,732L672,732L672,744L660,744L660,756L648,756L648,768L624,768L624,780L612,780L612,792L576,792L576,804L552,804L552,816L540,816L540,828L528,828L528,840L516,840L516,852L504,852L504,864L492,864L492,876L468,876L468,888L516,888L516,900L528,900L528,912L564,912L564,924L708,924L708,912L744,912L744,900L768,900L768,888L792,888L792,876L804,876L804,864L816,864L816,852L828,852L828,816L840,816L840,660L828,660L828,636L816,636L816,612L828,612L828,600L840,600L840,588L828,588L828,576L816,576L816,564L804,564L804,552L816,552L816,540L828,540L828,528L852,528L852,516L864,516L864,504L888,504L888,492L912,492L912,480L1044,480L1044,492L1080,492L1080,504L1092,504L1092,516L1104,516L1104,528L1116,528L1116,540L1140,540L1140,552L1152,552L1152,564L1164,564L1164,684L1152,684L1152,816L1164,816L1164,912L1176,912L1176,948L1200,948L1200,960L1224,960L1224,972L1248,972L1248,984L1260,984L1260,996L1272,996L1272,1044L1284,1044L1284,1056L1296,1056L1296,1068L1320,1068L1320,1056L1368,1056L1368,1044L1380,1044L1380,1032L1392,1032L1392,1020L1404,1020L1404,1008L1416,1008L1416,984L1428,984L1428,972L1440,972L1440,936L1452,936L1452,912L1464,912L1464,888L1476,888L1476,876L1488,876L1488,840L1500,840L1500,756L1488,756L1488,732L1476,732L1476,720L1464,720L1464,696L1440,696L1440,684L1428,684L1428,672L1416,672L1416,660L1380,660L1380,648L1368,648L1368,612L1380,612L1380,600L1404,600L1404,612L1416,612L1416,636L1428,636L1428,648L1440,648L1440,660L1452,660L1452,672L1476,672L1476,684L1488,684L1488,708L1500,708L1500,720L1512,720L1512,744L1524,744L1524,888L1512,888L1512,912L1500,912L1500,924L1488,924L1488,948L1476,948L1476,972L1464,972L1464,996L1452,996L1452,1020L1440,1020L1440,1044L1428,1044L1428,1056L1416,1056L1416,1068L1404,1068L1404,1080L1392,1080L1392,1092L1296,1092L1296,1104L1284,1104L1284,1116L1272,1116L1272,1164L1260,1164L1260,1176L1248,1176L1248,1188L1224,1188L1224,1200L1236,1200L1236,1212L1260,1212L1260,1224L1272,1224L1272,1236L1296,1236L1296,1248L1428,1248L1428,1224L1440,1224L1440,1212L1452,1212L1452,1200L1464,1200L1464,1188L1476,1188L1476,1176L1488,1176L1488,1164L1500,1164L1500,1152L1524,1152L1524,1116L1536,1116L1536,1068L1548,1068L1548,1032L1560,1032L1560,924L1572,924L1572,780L1584,780L1584,564L1572,564L1572,528L1548,528L1548,516L1536,516L1536,504L1524,504L1524,492L1512,492L1512,480L1500,480L1500,468L1488,468L1488,456L1476,456L1476,444L1464,444L1464,432L1452,432L1452,420L1440,420L1440,408L1428,408L1428,396L1416,396L1416,384L1404,384L1404,372L1392,372L1392,360L1380,360L1380,348L1368,348L1368,336L1356,336L1356,324L1344,324L1344,312L1332,312L1332,276L1320,276L1320,264L1308,264L1308,252L1296,252L1296,240L1284,240L1284,228L1260,228L1260,216L1212,216L1212,204L1176,204L1176,192L1056,192L1056,180L972,180L972,192L912,192L912,108L972,108L972,120L1008,120L1008,132L1080,132L1080,144L1200,144L1200,156L1236,156L1236,168L1284,168L1284,180L1332,180L1332,192L1368,192L1368,204L1392,204L1392,216L1416,216L1416,228L1452,228L1452,240L1476,240L1476,252L1500,252L1500,264L1512,264L1512,276L1524,276L1524,288L1536,288L1536,300L1548,300L1548,312L1560,312L1560,336L1572,336L1572,348L1584,348L1584,360L1596,360L1596,396L1608,396L1608,408L1620,408L1620,540L1632,540L1632,804L1620,804L1620,948L1608,948L1608,1056L1596,1056L1596,1092L1584,1092L1584,1140L1572,1140L1572,1176L1560,1176L1560,1188L1548,1188L1548,1212L1536,1212L1536,1224L1524,1224L1524,1248L1512,1248L1512,1260L1500,1260L1500,1272L1476,1272L1476,1284L1464,1284L1464,1296L1284,1296L1284,1284L1248,1284L1248,1272L1224,1272L1224,1260L1212,1260L1212,1248L1200,1248L1200,1236L1188,1236L1188,1224L1176,1224L1176,1212L1140,1212L1140,1200L1104,1200L1104,1188L1080,1188L1080,1176L1068,1176L1068,1164L1044,1164L1044,1152L1032,1152L1032,1140L948,1140L948,1152L912,1152L912,1164L900,1164L900,1176L888,1176L888,1188L876,1188L876,1200L864,1200L864,1236L852,1236L852,1260L840,1260L840,1272L828,1272L828,1296L816,1296L816,1308L792,1308L792,1320L744,1320L744,1308L708,1308L708,1296L696,1296L696,1272L720,1272L720,1260L732,1260L732,1272L744,1272L744,1296L780,1296L780,1284L804,1284L804,1260L816,1260L816,1248L828,1248L828,1224L840,1224L840,1200L852,1200L852,1176L864,1176L864,1164L876,1164L876,1152L900,1152L900,1140L912,1140L912,1128L948,1128L948,1116L984,1116L984,1104L1020,1104L1020,1092L1032,1092L1032,1044L1044,1044L1044,1020L1056,1020L1056,996L1068,996L1068,984L1080,984L1080,972L1092,972L1092,960L1104,960L1104,924L1116,924L1116,840L1104,840L1104,660L1116,660L1116,588L1104,588L1104,576L1080,576L1080,564L1068,564L1068,552L1056,552L1056,540L1020,540L1020,528L936,528L936,540L912,540L912,552L888,552L888,564L864,564L864,576L840,576L840,564L828,564L828,552L816,552L816,564L828,564L828,576L840,576L840,588L864,588L864,612L876,612L876,864L864,864L864,888L852,888L852,900L840,900L840,912L828,912L828,924L816,924L816,936L792,936L792,948L768,948L768,960L732,960L732,972L552,972L552,960L492,960L492,972L480,972L480,984L468,984L468,996L456,996L456,1044L468,1044L468,1092L480,1092L480,1152L468,1152L468,1164L480,1164L480,1176L492,1176L492,1188L540,1188L540,1200L648,1200L648,1188L660,1188L660,1176L684,1176L684,1164L708,1164L708,1152L720,1152L720,1140L732,1140L732,1128L744,1128L744,1092L756,1092L756,1080L792,1080L792,1092L804,1092L804,1152L792,1152L792,1164L744,1164L744,1176L732,1176L732,1188L720,1188L720,1200L708,1200L708,1212L696,1212L696,1224L348,1224L348,1212L324,1212L324,1200L288,1200L288,1188L264,1188L264,1176L240,1176L240,1164L228,1164L228,1152L204,1152L204,1140L192,1140L192,1128L180,1128L180,1116L168,1116L168,1104L156,1104L156,1092L144,1092L144,1080L132,1080L132,1068L120,1068L120,1056L108,1056L108,1020L96,1020L96,996L84,996L84,960L72,960L72,660L84,660L84,636L72,636L72,432L84,432L84,372L96,372L96,336L108,336L108,300L120,300L120,276L132,276L132,252L144,252L144,228L156,228L156,216L168,216L168,204L180,204L180,192L192,192L192,180L204,180L204,168L228,168L228,156L252,156L252,144L276,144L276,132L432,132L432,120L480,120L480,108L624,108L624,96L636,96L636,84L648,84L648,72L660,72L660,60L708,60L708,48M888,132L888,132L876,132L876,144L864,144L864,156L876,156L876,144L888,144L888,132M888,156L888,156L876,156L876,168L888,168Z"></path><path class="start" d="M876,108L876,108L888,108L888,120L876,120L876,108M876,120L876,120L876,132L864,132L864,120L876,120M876,132L876,132L888,132L888,144L876,144L876,132M876,144L876,144L876,156L864,156L864,144L876,144M876,156L876,156L888,156L888,168L876,168L876,156M876,168L876,168L876,180L864,180L864,168L876,168M876,180L876,180L888,180L888,192L876,192Z"></path><path class="finish" d="M900,108L900,108L912,108L912,192L900,192Z"></path><path class="sand" d="M612,204L612,204L636,204L636,216L648,216L648,228L660,228L660,240L672,240L672,252L708,252L708,264L816,264L816,252L852,252L852,240L864,240L864,228L876,228L876,216L888,216L888,204L900,204L900,228L888,228L888,240L876,240L876,252L864,252L864,264L840,264L840,276L684,276L684,264L660,264L660,252L648,252L648,240L636,240L636,228L624,228L624,216L612,216L612,204M1332,312L1332,312L1344,312L1344,348L1356,348L1356,372L1368,372L1368,384L1380,384L1380,396L1392,396L1392,408L1404,408L1404,420L1416,420L1416,432L1428,432L1428,444L1452,444L1452,456L1464,456L1464,468L1476,468L1476,480L1500,480L1500,504L1524,504L1524,516L1548,516L1548,528L1560,528L1560,540L1536,540L1536,528L1512,528L1512,516L1488,516L1488,492L1464,492L1464,480L1440,480L1440,468L1428,468L1428,456L1416,456L1416,444L1404,444L1404,432L1392,432L1392,420L1380,420L1380,408L1368,408L1368,396L1344,396L1344,372L1332,372L1332,312M636,432L636,432L720,432L720,444L732,444L732,468L720,468L720,456L708,456L708,444L648,444L648,456L636,456L636,468L612,468L612,456L624,456L624,444L636,444L636,432M1044,540L1044,540L1056,540L1056,552L1068,552L1068,564L1080,564L1080,576L1104,576L1104,588L1116,588L1116,660L1104,660L1104,672L1092,672L1092,648L1104,648L1104,612L1092,612L1092,600L1080,600L1080,588L1056,588L1056,576L1044,576L1044,540M792,552L792,552L804,552L804,564L792,564L792,552M804,564L804,564L816,564L816,552L828,552L828,564L816,564L816,576L804,576L804,564M792,564L792,564L792,576L780,576L780,564L792,564M828,564L828,564L840,564L840,576L828,576L828,564M792,576L792,576L804,576L804,588L792,588L792,576M816,576L816,576L828,576L828,588L816,588L816,576M804,588L804,588L816,588L816,600L804,600L804,588M792,588L792,588L792,600L780,600L780,588L792,588M828,588L828,588L840,588L840,600L828,600L828,588M792,600L792,600L804,600L804,612L792,612L792,600M816,600L816,600L828,600L828,612L816,612L816,600M876,612L876,612L888,612L888,624L900,624L900,636L912,636L912,684L924,684L924,720L912,720L912,756L900,756L900,768L888,768L888,780L876,780L876,756L888,756L888,744L900,744L900,648L888,648L888,636L876,636L876,612M396,816L396,816L408,816L408,828L420,828L420,840L432,840L432,852L456,852L456,864L444,864L444,876L432,876L432,888L420,888L420,900L408,900L408,912L396,912L396,888L408,888L408,876L420,876L420,864L408,864L408,852L396,852L396,816M516,840L516,840L528,840L528,864L516,864L516,876L528,876L528,900L516,900L516,888L468,888L468,876L492,876L492,864L504,864L504,852L516,852L516,840M396,912L396,912L396,936L384,936L384,912L396,912M1272,1008L1272,1008L1284,1008L1284,1020L1272,1020L1272,1008M1284,1020L1284,1020L1308,1020L1308,1032L1320,1032L1320,1044L1332,1044L1332,1056L1308,1056L1308,1044L1296,1044L1296,1032L1284,1032L1284,1020M1020,1032L1020,1032L1044,1032L1044,1044L1032,1044L1032,1068L1020,1068L1020,1080L1008,1080L1008,1092L996,1092L996,1104L984,1104L984,1116L972,1116L972,1092L984,1092L984,1080L996,1080L996,1068L1008,1068L1008,1056L1020,1056L1020,1032M1320,1092L1320,1092L1344,1092L1344,1104L1332,1104L1332,1116L1320,1116L1320,1128L1308,1128L1308,1140L1284,1140L1284,1128L1296,1128L1296,1116L1308,1116L1308,1104L1320,1104L1320,1092M408,1104L408,1104L420,1104L420,1116L432,1116L432,1128L420,1128L420,1152L408,1152L408,1164L396,1164L396,1176L384,1176L384,1164L372,1164L372,1152L360,1152L360,1140L336,1140L336,1128L372,1128L372,1140L408,1140L408,1104M1284,1140L1284,1140L1284,1152L1272,1152L1272,1140L1284,1140M984,1140L984,1140L1008,1140L1008,1152L1020,1152L1020,1164L1068,1164L1068,1176L1080,1176L1080,1188L1032,1188L1032,1176L996,1176L996,1152L984,1152L984,1140M336,1224L336,1224L360,1224L360,1248L432,1248L432,1260L456,1260L456,1248L492,1248L492,1236L516,1236L516,1224L564,1224L564,1236L552,1236L552,1248L528,1248L528,1260L516,1260L516,1272L480,1272L480,1284L408,1284L408,1272L360,1272L360,1260L336,1260Z"></path><path class="grass" d="M636,204L636,204L672,204L672,216L684,216L684,228L708,228L708,240L804,240L804,228L828,228L828,216L876,216L876,228L864,228L864,240L852,240L852,252L816,252L816,264L708,264L708,252L672,252L672,240L660,240L660,228L648,228L648,216L636,216Z"></path></g> <rect opacity=".3" fill="url(#grid)" height="100%" width="100%" y="0" x="0"></rect></svg>