<svg height="948" width="1812" id="mapSvgView" xmlns:xlink="http://www.w3.org/1999/xlink" version="1.1" xmlns="http://www.w3.org/2000/svg"> <defs> <style type="text/css"> .grass {fill: rgb(0, 200, 0);} .road {fill: rgb(128, 128, 128);} .start {fill: url(#startPattern)} .finish {fill: url(#finishPattern)} .mud {fill: rgb(100, 70, 0);} .sand {fill: rgb(230, 230, 115);} .water {fill: blue;} .earth {fill: brown;} .night {fill: black;} .parc {fill: rgb(200, 200, 200);} .cp1color {fill: rgb(0, 102, 255);} .cp2color {fill: rgb(0, 100, 200);} .cp3color {fill: rgb(0, 255, 102);} .cp4color {fill: rgb(0, 200, 0);} .cp5color {fill: rgb(255, 255, 0);} .cp6color {fill: rgb(200, 200, 0);} .cp7color {fill: rgb(255, 0, 0);} .cp8color {fill: rgb(200, 0, 0);} .cp9color {fill: rgb(255, 0, 255);} .cp1 {fill: url(#cp1pattern);} .cp2 {fill: url(#cp2pattern);} .cp3 {fill: url(#cp3pattern);} .cp4 {fill: url(#cp4pattern);} .cp5 {fill: url(#cp5pattern);} .cp6 {fill: url(#cp6pattern);} .cp7 {fill: url(#cp7pattern);} .cp8 {fill: url(#cp8pattern);} .cp9 {fill: url(#cp9pattern);} .primaryColor {fill: rgb(0, 255, 102);} </style> <pattern y="0" x="0" height="12" width="12" patternUnits="userSpaceOnUse" id="grid"> <line stroke-width="1" stroke="black" y2="12" x2="12" y1="0" x1="12"></line> <line stroke-width="1" stroke="black" y2="12" x2="12" y1="12" x1="0"></line> </pattern> <pattern y="0" x="0" height="12" width="12" patternUnits="userSpaceOnUse" id="finishPattern"> <rect fill="black" height="12" width="12" y="0" x="0"></rect> <path fill="white" d="M0,0L3,0L3,3L0,3L0,0M6,0L9,0L9,3L6,3L6,0M3,3L6,3L6,6L3,6L3,3M9,3L12,3L12,6L9,6L9,3"></path> <path fill="white" d="M0,6L3,6L3,9L0,9L0,6M6,6L9,6L9,9L6,9L6,6M3,9L6,9L6,12L3,12L3,9M9,9L12,9L12,12L9,12L9,9"></path> </pattern> <pattern y="0" x="0" height="12" width="12" patternUnits="userSpaceOnUse" id="startPattern"> <rect fill="rgb(100,100,100)" height="12" width="12" y="0" x="0"></rect> <rect stroke-width="1" stroke="rgb(200,200,200)" fill="none" height="5" width="5" y="3.5" x="3.5"></rect> &gt; </pattern> <pattern y="0" x="0" height="12" width="12" patternUnits="userSpaceOnUse" id="cp1pattern"> <rect class="cp1color" height="12" width="12" y="0" x="0"></rect> <path fill="black" d="M0,0L3,0L3,3L0,3L0,0M6,0L9,0L9,3L6,3L6,0M3,3L6,3L6,6L3,6L3,3M9,3L12,3L12,6L9,6L9,3"></path> <path fill="black" d="M0,6L3,6L3,9L0,9L0,6M6,6L9,6L9,9L6,9L6,6M3,9L6,9L6,12L3,12L3,9M9,9L12,9L12,12L9,12L9,9"></path> </pattern> <pattern y="0" x="0" height="12" width="12" patternUnits="userSpaceOnUse" id="cp2pattern"> <rect class="cp2color" height="12" width="12" y="0" x="0"></rect> <path fill="white" d="M0,0L3,0L3,3L0,3L0,0M6,0L9,0L9,3L6,3L6,0M3,3L6,3L6,6L3,6L3,3M9,3L12,3L12,6L9,6L9,3"></path> <path fill="white" d="M0,6L3,6L3,9L0,9L0,6M6,6L9,6L9,9L6,9L6,6M3,9L6,9L6,12L3,12L3,9M9,9L12,9L12,12L9,12L9,9"></path> </pattern> <pattern y="0" x="0" height="12" width="12" patternUnits="userSpaceOnUse" id="cp3pattern"> <rect class="cp3color" height="12" width="12" y="0" x="0"></rect> <path fill="black" d="M0,0L3,0L3,3L0,3L0,0M6,0L9,0L9,3L6,3L6,0M3,3L6,3L6,6L3,6L3,3M9,3L12,3L12,6L9,6L9,3"></path> <path fill="black" d="M0,6L3,6L3,9L0,9L0,6M6,6L9,6L9,9L6,9L6,6M3,9L6,9L6,12L3,12L3,9M9,9L12,9L12,12L9,12L9,9"></path> </pattern> <pattern y="0" x="0" height="12" width="12" patternUnits="userSpaceOnUse" id="cp4pattern"> <rect class="cp4color" height="12" width="12" y="0" x="0"></rect> <path fill="white" d="M0,0L3,0L3,3L0,3L0,0M6,0L9,0L9,3L6,3L6,0M3,3L6,3L6,6L3,6L3,3M9,3L12,3L12,6L9,6L9,3"></path> <path fill="white" d="M0,6L3,6L3,9L0,9L0,6M6,6L9,6L9,9L6,9L6,6M3,9L6,9L6,12L3,12L3,9M9,9L12,9L12,12L9,12L9,9"></path> </pattern> <pattern y="0" x="0" height="12" width="12" patternUnits="userSpaceOnUse" id="cp5pattern"> <rect class="cp5color" height="12" width="12" y="0" x="0"></rect> <path fill="black" d="M0,0L3,0L3,3L0,3L0,0M6,0L9,0L9,3L6,3L6,0M3,3L6,3L6,6L3,6L3,3M9,3L12,3L12,6L9,6L9,3"></path> <path fill="black" d="M0,6L3,6L3,9L0,9L0,6M6,6L9,6L9,9L6,9L6,6M3,9L6,9L6,12L3,12L3,9M9,9L12,9L12,12L9,12L9,9"></path> </pattern> <pattern y="0" x="0" height="12" width="12" patternUnits="userSpaceOnUse" id="cp6pattern"> <rect class="cp6color" height="12" width="12" y="0" x="0"></rect> <path fill="white" d="M0,0L3,0L3,3L0,3L0,0M6,0L9,0L9,3L6,3L6,0M3,3L6,3L6,6L3,6L3,3M9,3L12,3L12,6L9,6L9,3"></path> <path fill="white" d="M0,6L3,6L3,9L0,9L0,6M6,6L9,6L9,9L6,9L6,6M3,9L6,9L6,12L3,12L3,9M9,9L12,9L12,12L9,12L9,9"></path> </pattern> <pattern y="0" x="0" height="12" width="12" patternUnits="userSpaceOnUse" id="cp7pattern"> <rect class="cp7color" height="12" width="12" y="0" x="0"></rect> <path fill="black" d="M0,0L3,0L3,3L0,3L0,0M6,0L9,0L9,3L6,3L6,0M3,3L6,3L6,6L3,6L3,3M9,3L12,3L12,6L9,6L9,3"></path> <path fill="black" d="M0,6L3,6L3,9L0,9L0,6M6,6L9,6L9,9L6,9L6,6M3,9L6,9L6,12L3,12L3,9M9,9L12,9L12,12L9,12L9,9"></path> </pattern> <pattern y="0" x="0" height="12" width="12" patternUnits="userSpaceOnUse" id="cp8pattern"> <rect class="cp8color" height="12" width="12" y="0" x="0"></rect> <path fill="white" d="M0,0L3,0L3,3L0,3L0,0M6,0L9,0L9,3L6,3L6,0M3,3L6,3L6,6L3,6L3,3M9,3L12,3L12,6L9,6L9,3"></path> <path fill="white" d="M0,6L3,6L3,9L0,9L0,6M6,6L9,6L9,9L6,9L6,6M3,9L6,9L6,12L3,12L3,9M9,9L12,9L12,12L9,12L9,9"></path> </pattern> <pattern y="0" x="0" height="12" width="12" patternUnits="userSpaceOnUse" id="cp9pattern"> <rect class="cp9color" height="12" width="12" y="0" x="0"></rect> <path fill="black" d="M0,0L3,0L3,3L0,3L0,0M6,0L9,0L9,3L6,3L6,0M3,3L6,3L6,6L3,6L3,3M9,3L12,3L12,6L9,6L9,3"></path> <path fill="black" d="M0,6L3,6L3,9L0,9L0,6M6,6L9,6L9,9L6,9L6,6M3,9L6,9L6,12L3,12L3,9M9,9L12,9L12,12L9,12L9,9"></path> </pattern> </defs> <rect height="100%" width="100%" y="0" x="0" class="grass" id="mainfill"></rect> <g id="paths"><path class="parc" d="M0,0L0,0L12,0L12,120L0,120Z"></path><path class="road" d="M804,12L804,12L1080,12L1080,24L1224,24L1224,36L1284,36L1284,48L1332,48L1332,60L1380,60L1380,72L1404,72L1404,84L1416,84L1416,96L1440,96L1440,108L1452,108L1452,120L1464,120L1464,132L1476,132L1476,144L1488,144L1488,156L1500,156L1500,180L1512,180L1512,192L1524,192L1524,216L1536,216L1536,228L1548,228L1548,240L1620,240L1620,252L1644,252L1644,264L1656,264L1656,276L1668,276L1668,288L1692,288L1692,300L1704,300L1704,312L1716,312L1716,324L1740,324L1740,336L1752,336L1752,348L1764,348L1764,360L1776,360L1776,372L1788,372L1788,384L1800,384L1800,516L1788,516L1788,552L1776,552L1776,588L1764,588L1764,612L1752,612L1752,636L1740,636L1740,660L1728,660L1728,672L1716,672L1716,684L1704,684L1704,696L1680,696L1680,720L1668,720L1668,756L1656,756L1656,780L1644,780L1644,792L1632,792L1632,804L1620,804L1620,816L1596,816L1596,828L1584,828L1584,840L1476,840L1476,828L1452,828L1452,816L1440,816L1440,804L1428,804L1428,792L1416,792L1416,768L1404,768L1404,780L1344,780L1344,792L1272,792L1272,804L1200,804L1200,816L1140,816L1140,828L1068,828L1068,840L996,840L996,852L984,852L984,876L972,876L972,900L960,900L960,912L936,912L936,924L912,924L912,936L804,936L804,924L768,924L768,912L756,912L756,900L744,900L744,888L732,888L732,804L780,804L780,852L792,852L792,864L816,864L816,876L900,876L900,864L912,864L912,852L924,852L924,840L936,840L936,756L924,756L924,744L900,744L900,732L888,732L888,720L828,720L828,732L804,732L804,744L792,744L792,756L780,756L780,792L732,792L732,720L744,720L744,708L756,708L756,696L768,696L768,684L780,684L780,672L804,672L804,660L912,660L912,672L936,672L936,684L948,684L948,696L960,696L960,708L972,708L972,720L984,720L984,744L996,744L996,768L1008,768L1008,780L1056,780L1056,768L1128,768L1128,756L1188,756L1188,744L1260,744L1260,732L1332,732L1332,720L1392,720L1392,696L1404,696L1404,660L1416,660L1416,636L1428,636L1428,612L1440,612L1440,600L1452,600L1452,588L1476,588L1476,576L1500,576L1500,564L1560,564L1560,576L1596,576L1596,588L1620,588L1620,600L1632,600L1632,612L1644,612L1644,624L1656,624L1656,636L1692,636L1692,624L1704,624L1704,612L1716,612L1716,576L1728,576L1728,540L1740,540L1740,516L1752,516L1752,456L1764,456L1764,432L1608,432L1608,444L1572,444L1572,432L1560,432L1560,420L1548,420L1548,384L1536,384L1536,360L1524,360L1524,324L1512,324L1512,300L1500,300L1500,276L1488,276L1488,252L1476,252L1476,240L1464,240L1464,216L1452,216L1452,204L1440,204L1440,192L1428,192L1428,168L1416,168L1416,156L1404,156L1404,144L1368,144L1368,132L1332,132L1332,108L1272,108L1272,96L1224,96L1224,84L1164,84L1164,72L828,72L828,84L780,84L780,96L732,96L732,108L696,108L696,120L684,120L684,132L672,132L672,156L660,156L660,180L648,180L648,204L636,204L636,228L624,228L624,252L612,252L612,276L600,276L600,288L588,288L588,312L576,312L576,324L564,324L564,336L552,336L552,360L528,360L528,372L492,372L492,384L468,384L468,396L432,396L432,408L420,408L420,420L384,420L384,432L360,432L360,444L324,444L324,456L288,456L288,468L264,468L264,480L228,480L228,492L216,492L216,504L336,504L336,516L420,516L420,528L468,528L468,540L528,540L528,552L564,552L564,564L600,564L600,576L648,576L648,600L636,600L636,624L624,624L624,636L588,636L588,624L552,624L552,612L492,612L492,600L432,600L432,588L384,588L384,576L276,576L276,564L84,564L84,576L72,576L72,600L60,600L60,672L72,672L72,708L84,708L84,720L96,720L96,744L168,744L168,756L264,756L264,768L360,768L360,780L444,780L444,792L540,792L540,804L636,804L636,816L648,816L648,612L660,612L660,588L672,588L672,576L696,576L696,564L732,564L732,552L768,552L768,540L804,540L804,528L864,528L864,516L912,516L912,504L972,504L972,492L1020,492L1020,480L1044,480L1044,468L1056,468L1056,420L1068,420L1068,312L1056,312L1056,300L1044,300L1044,288L1032,288L1032,276L1020,276L1020,264L996,264L996,252L960,252L960,240L936,240L936,228L900,228L900,216L876,216L876,204L816,204L816,192L744,192L744,204L732,204L732,216L720,216L720,240L708,240L708,264L696,264L696,288L684,288L684,312L672,312L672,324L660,324L660,336L648,336L648,348L744,348L744,360L816,360L816,372L876,372L876,384L936,384L936,396L984,396L984,408L1020,408L1020,420L1008,420L1008,432L996,432L996,444L984,444L984,456L972,456L972,468L960,468L960,456L912,456L912,444L864,444L864,432L804,432L804,420L720,420L720,408L612,408L612,396L576,396L576,372L564,372L564,348L576,348L576,336L588,336L588,324L600,324L600,300L612,300L612,288L624,288L624,264L636,264L636,240L648,240L648,216L660,216L660,192L672,192L672,180L684,180L684,168L696,168L696,156L732,156L732,144L828,144L828,156L876,156L876,168L924,168L924,180L972,180L972,192L996,192L996,204L1032,204L1032,216L1056,216L1056,228L1080,228L1080,240L1092,240L1092,252L1104,252L1104,264L1116,264L1116,288L1128,288L1128,480L1140,480L1140,504L1128,504L1128,516L1116,516L1116,528L1080,528L1080,540L1032,540L1032,552L984,552L984,564L936,564L936,576L888,576L888,588L828,588L828,600L792,600L792,612L756,612L756,624L720,624L720,852L696,852L696,864L672,864L672,876L600,876L600,864L528,864L528,852L396,852L396,840L300,840L300,828L204,828L204,816L120,816L120,804L96,804L96,792L72,792L72,780L60,780L60,768L48,768L48,744L36,744L36,720L24,720L24,684L12,684L12,588L24,588L24,552L36,552L36,528L48,528L48,516L60,516L60,504L72,504L72,492L96,492L96,480L120,480L120,468L156,468L156,456L180,456L180,444L216,444L216,432L240,432L240,420L264,420L264,408L300,408L300,396L324,396L324,384L360,384L360,372L384,372L384,360L420,360L420,348L444,348L444,336L468,336L468,324L492,324L492,312L504,312L504,300L516,300L516,288L528,288L528,276L540,276L540,252L552,252L552,228L564,228L564,216L576,216L576,192L588,192L588,168L600,168L600,156L612,156L612,132L624,132L624,108L636,108L636,96L648,96L648,84L660,84L660,72L672,72L672,60L696,60L696,48L720,48L720,36L756,36L756,24L804,24L804,12M1260,240L1260,240L1392,240L1392,252L1428,252L1428,264L1440,264L1440,276L1452,276L1452,288L1464,288L1464,300L1476,300L1476,312L1488,312L1488,336L1500,336L1500,372L1512,372L1512,408L1500,408L1500,420L1476,420L1476,432L1428,432L1428,444L1356,444L1356,456L1284,456L1284,468L1224,468L1224,480L1164,480L1164,468L1152,468L1152,384L1164,384L1164,324L1176,324L1176,300L1164,300L1164,288L1176,288L1176,264L1200,264L1200,252L1260,252L1260,240M1572,264L1572,264L1560,264L1560,276L1572,276L1572,300L1584,300L1584,324L1596,324L1596,360L1608,360L1608,372L1716,372L1716,360L1704,360L1704,348L1680,348L1680,336L1668,336L1668,324L1656,324L1656,312L1644,312L1644,300L1620,300L1620,288L1596,288L1596,276L1584,276L1584,264L1572,264M1248,312L1248,312L1236,312L1236,348L1224,348L1224,384L1212,384L1212,408L1248,408L1248,396L1308,396L1308,384L1440,384L1440,360L1428,360L1428,348L1416,348L1416,336L1404,336L1404,324L1392,324L1392,312L1248,312M1020,420L1020,420L1032,420L1032,432L1020,432L1020,420M1008,432L1008,432L1020,432L1020,444L1008,444L1008,432M1032,432L1032,432L1044,432L1044,444L1032,444L1032,432M996,444L996,444L1008,444L1008,456L996,456L996,444M1020,444L1020,444L1032,444L1032,456L1020,456L1020,444M984,456L984,456L996,456L996,468L984,468L984,456M1008,456L1008,456L1020,456L1020,468L1008,468L1008,456M132,588L132,588L168,588L168,600L180,600L180,612L192,612L192,660L180,660L180,672L168,672L168,684L156,684L156,696L120,696L120,684L108,684L108,672L96,672L96,612L108,612L108,600L132,600L132,588M1512,636L1512,636L1500,636L1500,648L1488,648L1488,660L1476,660L1476,684L1464,684L1464,756L1488,756L1488,768L1500,768L1500,780L1548,780L1548,768L1572,768L1572,756L1584,756L1584,744L1596,744L1596,732L1608,732L1608,672L1596,672L1596,648L1572,648L1572,636L1512,636M540,648L540,648L588,648L588,660L600,660L600,672L612,672L612,744L600,744L600,756L588,756L588,768L540,768L540,756L528,756L528,744L516,744L516,732L504,732L504,672L516,672L516,660L540,660L540,648M168,828L168,828L192,828L192,840L252,840L252,852L264,852L264,864L300,864L300,876L336,876L336,864L360,864L360,852L384,852L384,864L444,864L444,888L432,888L432,900L408,900L408,912L396,912L396,924L360,924L360,936L276,936L276,924L240,924L240,912L216,912L216,900L204,900L204,888L192,888L192,876L180,876L180,852L168,852L168,828M36,840L36,840L60,840L60,864L48,864L48,852L36,852L36,840M36,852L36,852L36,876L48,876L48,888L36,888L36,924L48,924L48,936L12,936L12,924L24,924L24,888L12,888L12,876L24,876L24,852Z"></path><path class="start" d="M1008,420L1008,420L1020,420L1020,432L1008,432L1008,420M1020,432L1020,432L1032,432L1032,420L1044,420L1044,432L1032,432L1032,444L1020,444L1020,432M1008,432L1008,432L1008,444L996,444L996,432L1008,432M1008,444L1008,444L1020,444L1020,456L1008,456L1008,444M996,444L996,444L996,456L984,456L984,444L996,444M1032,444L1032,444L1044,444L1044,456L1032,456L1032,444M996,456L996,456L1008,456L1008,468L996,468L996,456M984,456L984,456L984,468L972,468L972,456L984,456M1020,456L1020,456L1032,456L1032,468L1020,468Z"></path><path class="finish" d="M732,792L732,792L780,792L780,804L732,804Z"></path></g> <rect opacity=".3" fill="url(#grid)" height="100%" width="100%" y="0" x="0"></rect></svg>