<svg height="876" width="924" id="mapSvgView" xmlns:xlink="http://www.w3.org/1999/xlink" version="1.1" xmlns="http://www.w3.org/2000/svg"> <defs> <style type="text/css"> .grass {fill: rgb(0, 200, 0);} .road {fill: rgb(128, 128, 128);} .start {fill: url(#startPattern)} .finish {fill: url(#finishPattern)} .mud {fill: rgb(100, 70, 0);} .sand {fill: rgb(230, 230, 115);} .water {fill: blue;} .earth {fill: brown;} .night {fill: black;} .parc {fill: rgb(200, 200, 200);} .cp1color {fill: rgb(0, 102, 255);} .cp2color {fill: rgb(0, 100, 200);} .cp3color {fill: rgb(0, 255, 102);} .cp4color {fill: rgb(0, 200, 0);} .cp5color {fill: rgb(255, 255, 0);} .cp6color {fill: rgb(200, 200, 0);} .cp7color {fill: rgb(255, 0, 0);} .cp8color {fill: rgb(200, 0, 0);} .cp9color {fill: rgb(255, 0, 255);} .cp1 {fill: url(#cp1pattern);} .cp2 {fill: url(#cp2pattern);} .cp3 {fill: url(#cp3pattern);} .cp4 {fill: url(#cp4pattern);} .cp5 {fill: url(#cp5pattern);} .cp6 {fill: url(#cp6pattern);} .cp7 {fill: url(#cp7pattern);} .cp8 {fill: url(#cp8pattern);} .cp9 {fill: url(#cp9pattern);} .primaryColor {fill: rgb(0, 255, 102);} </style> <pattern y="0" x="0" height="12" width="12" patternUnits="userSpaceOnUse" id="grid"> <line stroke-width="1" stroke="black" y2="12" x2="12" y1="0" x1="12"></line> <line stroke-width="1" stroke="black" y2="12" x2="12" y1="12" x1="0"></line> </pattern> <pattern y="0" x="0" height="12" width="12" patternUnits="userSpaceOnUse" id="finishPattern"> <rect fill="black" height="12" width="12" y="0" x="0"></rect> <path fill="white" d="M0,0L3,0L3,3L0,3L0,0M6,0L9,0L9,3L6,3L6,0M3,3L6,3L6,6L3,6L3,3M9,3L12,3L12,6L9,6L9,3"></path> <path fill="white" d="M0,6L3,6L3,9L0,9L0,6M6,6L9,6L9,9L6,9L6,6M3,9L6,9L6,12L3,12L3,9M9,9L12,9L12,12L9,12L9,9"></path> </pattern> <pattern y="0" x="0" height="12" width="12" patternUnits="userSpaceOnUse" id="startPattern"> <rect fill="rgb(100,100,100)" height="12" width="12" y="0" x="0"></rect> <rect stroke-width="1" stroke="rgb(200,200,200)" fill="none" height="5" width="5" y="3.5" x="3.5"></rect> &gt; </pattern> <pattern y="0" x="0" height="12" width="12" patternUnits="userSpaceOnUse" id="cp1pattern"> <rect class="cp1color" height="12" width="12" y="0" x="0"></rect> <path fill="black" d="M0,0L3,0L3,3L0,3L0,0M6,0L9,0L9,3L6,3L6,0M3,3L6,3L6,6L3,6L3,3M9,3L12,3L12,6L9,6L9,3"></path> <path fill="black" d="M0,6L3,6L3,9L0,9L0,6M6,6L9,6L9,9L6,9L6,6M3,9L6,9L6,12L3,12L3,9M9,9L12,9L12,12L9,12L9,9"></path> </pattern> <pattern y="0" x="0" height="12" width="12" patternUnits="userSpaceOnUse" id="cp2pattern"> <rect class="cp2color" height="12" width="12" y="0" x="0"></rect> <path fill="white" d="M0,0L3,0L3,3L0,3L0,0M6,0L9,0L9,3L6,3L6,0M3,3L6,3L6,6L3,6L3,3M9,3L12,3L12,6L9,6L9,3"></path> <path fill="white" d="M0,6L3,6L3,9L0,9L0,6M6,6L9,6L9,9L6,9L6,6M3,9L6,9L6,12L3,12L3,9M9,9L12,9L12,12L9,12L9,9"></path> </pattern> <pattern y="0" x="0" height="12" width="12" patternUnits="userSpaceOnUse" id="cp3pattern"> <rect class="cp3color" height="12" width="12" y="0" x="0"></rect> <path fill="black" d="M0,0L3,0L3,3L0,3L0,0M6,0L9,0L9,3L6,3L6,0M3,3L6,3L6,6L3,6L3,3M9,3L12,3L12,6L9,6L9,3"></path> <path fill="black" d="M0,6L3,6L3,9L0,9L0,6M6,6L9,6L9,9L6,9L6,6M3,9L6,9L6,12L3,12L3,9M9,9L12,9L12,12L9,12L9,9"></path> </pattern> <pattern y="0" x="0" height="12" width="12" patternUnits="userSpaceOnUse" id="cp4pattern"> <rect class="cp4color" height="12" width="12" y="0" x="0"></rect> <path fill="white" d="M0,0L3,0L3,3L0,3L0,0M6,0L9,0L9,3L6,3L6,0M3,3L6,3L6,6L3,6L3,3M9,3L12,3L12,6L9,6L9,3"></path> <path fill="white" d="M0,6L3,6L3,9L0,9L0,6M6,6L9,6L9,9L6,9L6,6M3,9L6,9L6,12L3,12L3,9M9,9L12,9L12,12L9,12L9,9"></path> </pattern> <pattern y="0" x="0" height="12" width="12" patternUnits="userSpaceOnUse" id="cp5pattern"> <rect class="cp5color" height="12" width="12" y="0" x="0"></rect> <path fill="black" d="M0,0L3,0L3,3L0,3L0,0M6,0L9,0L9,3L6,3L6,0M3,3L6,3L6,6L3,6L3,3M9,3L12,3L12,6L9,6L9,3"></path> <path fill="black" d="M0,6L3,6L3,9L0,9L0,6M6,6L9,6L9,9L6,9L6,6M3,9L6,9L6,12L3,12L3,9M9,9L12,9L12,12L9,12L9,9"></path> </pattern> <pattern y="0" x="0" height="12" width="12" patternUnits="userSpaceOnUse" id="cp6pattern"> <rect class="cp6color" height="12" width="12" y="0" x="0"></rect> <path fill="white" d="M0,0L3,0L3,3L0,3L0,0M6,0L9,0L9,3L6,3L6,0M3,3L6,3L6,6L3,6L3,3M9,3L12,3L12,6L9,6L9,3"></path> <path fill="white" d="M0,6L3,6L3,9L0,9L0,6M6,6L9,6L9,9L6,9L6,6M3,9L6,9L6,12L3,12L3,9M9,9L12,9L12,12L9,12L9,9"></path> </pattern> <pattern y="0" x="0" height="12" width="12" patternUnits="userSpaceOnUse" id="cp7pattern"> <rect class="cp7color" height="12" width="12" y="0" x="0"></rect> <path fill="black" d="M0,0L3,0L3,3L0,3L0,0M6,0L9,0L9,3L6,3L6,0M3,3L6,3L6,6L3,6L3,3M9,3L12,3L12,6L9,6L9,3"></path> <path fill="black" d="M0,6L3,6L3,9L0,9L0,6M6,6L9,6L9,9L6,9L6,6M3,9L6,9L6,12L3,12L3,9M9,9L12,9L12,12L9,12L9,9"></path> </pattern> <pattern y="0" x="0" height="12" width="12" patternUnits="userSpaceOnUse" id="cp8pattern"> <rect class="cp8color" height="12" width="12" y="0" x="0"></rect> <path fill="white" d="M0,0L3,0L3,3L0,3L0,0M6,0L9,0L9,3L6,3L6,0M3,3L6,3L6,6L3,6L3,3M9,3L12,3L12,6L9,6L9,3"></path> <path fill="white" d="M0,6L3,6L3,9L0,9L0,6M6,6L9,6L9,9L6,9L6,6M3,9L6,9L6,12L3,12L3,9M9,9L12,9L12,12L9,12L9,9"></path> </pattern> <pattern y="0" x="0" height="12" width="12" patternUnits="userSpaceOnUse" id="cp9pattern"> <rect class="cp9color" height="12" width="12" y="0" x="0"></rect> <path fill="black" d="M0,0L3,0L3,3L0,3L0,0M6,0L9,0L9,3L6,3L6,0M3,3L6,3L6,6L3,6L3,3M9,3L12,3L12,6L9,6L9,3"></path> <path fill="black" d="M0,6L3,6L3,9L0,9L0,6M6,6L9,6L9,9L6,9L6,6M3,9L6,9L6,12L3,12L3,9M9,9L12,9L12,12L9,12L9,9"></path> </pattern> </defs> <rect height="100%" width="100%" y="0" x="0" class="grass" id="mainfill"></rect> <g id="paths"><path class="parc" d="M0,0L0,0L12,0L12,48L0,48L0,0M156,48L156,48L228,48L228,60L264,60L264,72L276,72L276,84L288,84L288,96L300,96L300,108L312,108L312,120L324,120L324,156L336,156L336,180L348,180L348,192L360,192L360,204L372,204L372,216L408,216L408,228L516,228L516,216L552,216L552,204L564,204L564,192L576,192L576,180L588,180L588,156L600,156L600,120L612,120L612,108L624,108L624,96L636,96L636,84L648,84L648,72L660,72L660,60L696,60L696,48L768,48L768,60L804,60L804,72L816,72L816,84L828,84L828,96L840,96L840,108L852,108L852,120L864,120L864,156L876,156L876,228L864,228L864,264L852,264L852,276L840,276L840,288L828,288L828,300L804,300L804,324L768,324L768,336L744,336L744,348L732,348L732,372L708,372L708,408L696,408L696,504L684,504L684,540L672,540L672,576L660,576L660,600L648,600L648,624L636,624L636,648L624,648L624,684L612,684L612,696L600,696L600,708L588,708L588,720L576,720L576,732L552,732L552,744L540,744L540,756L528,756L528,768L516,768L516,744L504,744L504,732L420,732L420,744L408,744L408,768L396,768L396,756L384,756L384,744L372,744L372,732L348,732L348,720L336,720L336,708L324,708L324,696L312,696L312,684L300,684L300,648L288,648L288,624L276,624L276,600L264,600L264,576L252,576L252,540L240,540L240,504L228,504L228,408L216,408L216,372L192,372L192,348L180,348L180,336L156,336L156,324L120,324L120,300L96,300L96,288L84,288L84,276L72,276L72,264L60,264L60,228L48,228L48,156L60,156L60,120L72,120L72,108L84,108L84,96L96,96L96,84L108,84L108,72L120,72L120,60L156,60L156,48M168,84L168,84L156,84L156,96L132,96L132,108L120,108L120,120L108,120L108,132L96,132L96,156L84,156L84,228L96,228L96,252L108,252L108,264L120,264L120,276L132,276L132,288L144,288L144,300L180,300L180,312L192,312L192,324L204,324L204,336L228,336L228,396L240,396L240,372L252,372L252,348L264,348L264,324L276,324L276,300L288,300L288,288L300,288L300,276L324,276L324,264L348,264L348,252L372,252L372,240L396,240L396,228L336,228L336,204L324,204L324,192L312,192L312,180L300,180L300,156L288,156L288,132L276,132L276,120L264,120L264,108L252,108L252,96L228,96L228,84L168,84M708,84L708,84L696,84L696,96L672,96L672,108L660,108L660,120L648,120L648,132L636,132L636,156L624,156L624,180L612,180L612,192L600,192L600,204L588,204L588,228L528,228L528,240L552,240L552,252L576,252L576,264L600,264L600,276L624,276L624,288L636,288L636,300L648,300L648,324L660,324L660,348L672,348L672,372L684,372L684,396L696,396L696,336L720,336L720,324L732,324L732,312L744,312L744,300L768,300L768,288L792,288L792,276L804,276L804,264L816,264L816,252L828,252L828,228L840,228L840,156L828,156L828,132L816,132L816,120L804,120L804,108L792,108L792,96L768,96L768,84L708,84M360,336L360,336L348,336L348,348L336,348L336,396L348,396L348,408L396,408L396,396L408,396L408,348L396,348L396,336L360,336M540,336L540,336L528,336L528,348L516,348L516,396L528,396L528,408L576,408L576,396L588,396L588,348L576,348L576,336Z"></path><path class="road" d="M144,12L144,12L240,12L240,24L276,24L276,36L288,36L288,48L300,48L300,60L312,60L312,72L324,72L324,84L336,84L336,96L348,96L348,108L360,108L360,144L372,144L372,168L384,168L384,180L396,180L396,192L528,192L528,180L540,180L540,168L552,168L552,144L564,144L564,108L576,108L576,96L588,96L588,84L600,84L600,72L612,72L612,60L624,60L624,48L636,48L636,36L648,36L648,24L684,24L684,12L780,12L780,24L816,24L816,36L828,36L828,48L840,48L840,60L852,60L852,72L864,72L864,84L876,84L876,96L888,96L888,108L900,108L900,144L912,144L912,240L900,240L900,276L888,276L888,288L876,288L876,300L864,300L864,312L852,312L852,324L840,324L840,336L828,336L828,348L816,348L816,360L780,360L780,372L756,372L756,384L744,384L744,408L732,408L732,504L720,504L720,540L708,540L708,564L696,564L696,600L684,600L684,624L672,624L672,660L660,660L660,696L648,696L648,708L636,708L636,720L624,720L624,732L672,732L672,720L744,720L744,732L732,732L732,744L708,744L708,756L672,756L672,768L588,768L588,780L564,780L564,792L552,792L552,780L540,780L540,792L528,792L528,804L540,804L540,792L552,792L552,804L564,804L564,792L588,792L588,804L624,804L624,816L660,816L660,828L684,828L684,840L696,840L696,852L708,852L708,864L660,864L660,852L624,852L624,840L588,840L588,828L552,828L552,816L516,816L516,804L504,804L504,792L516,792L516,768L528,768L528,756L540,756L540,744L552,744L552,732L576,732L576,720L588,720L588,708L600,708L600,696L612,696L612,684L624,684L624,648L636,648L636,624L648,624L648,600L660,600L660,576L672,576L672,540L684,540L684,504L696,504L696,408L708,408L708,372L732,372L732,348L744,348L744,336L768,336L768,324L804,324L804,300L828,300L828,288L840,288L840,276L852,276L852,264L864,264L864,228L876,228L876,156L864,156L864,120L852,120L852,108L840,108L840,96L828,96L828,84L816,84L816,72L804,72L804,60L768,60L768,48L696,48L696,60L660,60L660,72L648,72L648,84L636,84L636,96L624,96L624,108L612,108L612,120L600,120L600,156L588,156L588,180L576,180L576,192L564,192L564,204L552,204L552,216L516,216L516,228L408,228L408,216L372,216L372,204L360,204L360,192L348,192L348,180L336,180L336,156L324,156L324,120L312,120L312,108L300,108L300,96L288,96L288,84L276,84L276,72L264,72L264,60L228,60L228,48L156,48L156,60L120,60L120,72L108,72L108,84L96,84L96,96L84,96L84,108L72,108L72,120L60,120L60,156L48,156L48,228L60,228L60,264L72,264L72,276L84,276L84,288L96,288L96,300L120,300L120,324L156,324L156,336L180,336L180,348L192,348L192,372L216,372L216,408L228,408L228,504L240,504L240,540L252,540L252,576L264,576L264,600L276,600L276,624L288,624L288,648L300,648L300,684L312,684L312,696L324,696L324,708L336,708L336,720L348,720L348,732L372,732L372,744L384,744L384,756L396,756L396,768L408,768L408,792L420,792L420,804L408,804L408,816L372,816L372,828L336,828L336,840L300,840L300,852L264,852L264,864L216,864L216,852L228,852L228,840L240,840L240,828L264,828L264,816L300,816L300,804L336,804L336,792L360,792L360,780L336,780L336,768L264,768L264,756L216,756L216,744L192,744L192,732L180,732L180,720L264,720L264,732L300,732L300,720L288,720L288,708L276,708L276,684L264,684L264,660L252,660L252,624L240,624L240,600L228,600L228,564L216,564L216,540L204,540L204,504L192,504L192,408L180,408L180,384L168,384L168,372L144,372L144,360L108,360L108,348L96,348L96,336L84,336L84,324L72,324L72,312L60,312L60,300L48,300L48,288L36,288L36,276L24,276L24,240L12,240L12,144L24,144L24,108L36,108L36,96L48,96L48,84L60,84L60,72L72,72L72,60L84,60L84,48L96,48L96,36L108,36L108,24L144,24L144,12M324,228L324,228L396,228L396,240L372,240L372,252L348,252L348,264L324,264L324,276L300,276L300,288L288,288L288,300L276,300L276,324L264,324L264,348L252,348L252,372L240,372L240,396L228,396L228,324L240,324L240,312L252,312L252,300L264,300L264,276L276,276L276,264L300,264L300,252L312,252L312,240L324,240L324,228M528,228L528,228L600,228L600,240L612,240L612,252L624,252L624,264L648,264L648,276L660,276L660,300L672,300L672,312L684,312L684,324L696,324L696,396L684,396L684,372L672,372L672,348L660,348L660,324L648,324L648,300L636,300L636,288L624,288L624,276L600,276L600,264L576,264L576,252L552,252L552,240L528,240L528,228M384,780L384,780L372,780L372,792L360,792L360,804L372,804L372,792L384,792L384,780M396,792L396,792L384,792L384,804L396,804Z"></path><path class="sand" d="M156,84L156,84L228,84L228,96L252,96L252,108L264,108L264,120L276,120L276,132L288,132L288,156L300,156L300,180L312,180L312,192L324,192L324,204L336,204L336,228L324,228L324,240L312,240L312,252L300,252L300,264L276,264L276,276L264,276L264,300L252,300L252,312L240,312L240,324L228,324L228,336L204,336L204,324L192,324L192,312L180,312L180,300L144,300L144,288L132,288L132,276L120,276L120,264L108,264L108,252L96,252L96,228L84,228L84,156L96,156L96,132L108,132L108,120L120,120L120,108L132,108L132,96L156,96L156,84M696,84L696,84L768,84L768,96L792,96L792,108L804,108L804,120L816,120L816,132L828,132L828,156L840,156L840,228L828,228L828,252L816,252L816,264L804,264L804,276L792,276L792,288L768,288L768,300L744,300L744,312L732,312L732,324L720,324L720,336L696,336L696,324L684,324L684,312L672,312L672,300L660,300L660,276L648,276L648,264L624,264L624,252L612,252L612,240L600,240L600,228L588,228L588,204L600,204L600,192L612,192L612,180L624,180L624,156L636,156L636,132L648,132L648,120L660,120L660,108L672,108L672,96L696,96L696,84M420,732L420,732L504,732L504,744L516,744L516,792L504,792L504,804L420,804L420,792L408,792L408,744L420,744Z"></path><path class="mud" d="M348,336L348,336L396,336L396,348L408,348L408,396L396,396L396,408L348,408L348,396L336,396L336,348L348,348L348,336M528,336L528,336L576,336L576,348L588,348L588,396L576,396L576,408L528,408L528,396L516,396L516,348L528,348Z"></path><path class="start" d="M348,780L348,780L360,780L360,792L348,792L348,780M360,792L360,792L372,792L372,780L384,780L384,792L372,792L372,804L360,804L360,792M384,792L384,792L396,792L396,804L384,804Z"></path><path class="finish" d="M540,780L540,780L552,780L552,792L540,792L540,780M552,792L552,792L564,792L564,780L576,780L576,792L564,792L564,804L552,804L552,792M540,792L540,792L540,804L528,804L528,792Z"></path></g> <rect opacity=".3" fill="url(#grid)" height="100%" width="100%" y="0" x="0"></rect></svg>