<svg height="696" width="960" id="mapSvgView" xmlns:xlink="http://www.w3.org/1999/xlink" version="1.1" xmlns="http://www.w3.org/2000/svg"> <defs> <style type="text/css"> .grass {fill: rgb(0, 200, 0);} .road {fill: rgb(128, 128, 128);} .start {fill: url(#startPattern)} .finish {fill: url(#finishPattern)} .mud {fill: rgb(100, 70, 0);} .sand {fill: rgb(230, 230, 115);} .water {fill: blue;} .earth {fill: brown;} .night {fill: black;} .parc {fill: rgb(200, 200, 200);} .cp1color {fill: rgb(0, 102, 255);} .cp2color {fill: rgb(0, 100, 200);} .cp3color {fill: rgb(0, 255, 102);} .cp4color {fill: rgb(0, 200, 0);} .cp5color {fill: rgb(255, 255, 0);} .cp6color {fill: rgb(200, 200, 0);} .cp7color {fill: rgb(255, 0, 0);} .cp8color {fill: rgb(200, 0, 0);} .cp9color {fill: rgb(255, 0, 255);} .cp1 {fill: url(#cp1pattern);} .cp2 {fill: url(#cp2pattern);} .cp3 {fill: url(#cp3pattern);} .cp4 {fill: url(#cp4pattern);} .cp5 {fill: url(#cp5pattern);} .cp6 {fill: url(#cp6pattern);} .cp7 {fill: url(#cp7pattern);} .cp8 {fill: url(#cp8pattern);} .cp9 {fill: url(#cp9pattern);} .primaryColor {fill: rgb(0, 255, 102);} </style> <pattern y="0" x="0" height="12" width="12" patternUnits="userSpaceOnUse" id="grid"> <line stroke-width="1" stroke="black" y2="12" x2="12" y1="0" x1="12"></line> <line stroke-width="1" stroke="black" y2="12" x2="12" y1="12" x1="0"></line> </pattern> <pattern y="0" x="0" height="12" width="12" patternUnits="userSpaceOnUse" id="finishPattern"> <rect fill="black" height="12" width="12" y="0" x="0"></rect> <path fill="white" d="M0,0L3,0L3,3L0,3L0,0M6,0L9,0L9,3L6,3L6,0M3,3L6,3L6,6L3,6L3,3M9,3L12,3L12,6L9,6L9,3"></path> <path fill="white" d="M0,6L3,6L3,9L0,9L0,6M6,6L9,6L9,9L6,9L6,6M3,9L6,9L6,12L3,12L3,9M9,9L12,9L12,12L9,12L9,9"></path> </pattern> <pattern y="0" x="0" height="12" width="12" patternUnits="userSpaceOnUse" id="startPattern"> <rect fill="rgb(100,100,100)" height="12" width="12" y="0" x="0"></rect> <rect stroke-width="1" stroke="rgb(200,200,200)" fill="none" height="5" width="5" y="3.5" x="3.5"></rect> &gt; </pattern> <pattern y="0" x="0" height="12" width="12" patternUnits="userSpaceOnUse" id="cp1pattern"> <rect class="cp1color" height="12" width="12" y="0" x="0"></rect> <path fill="black" d="M0,0L3,0L3,3L0,3L0,0M6,0L9,0L9,3L6,3L6,0M3,3L6,3L6,6L3,6L3,3M9,3L12,3L12,6L9,6L9,3"></path> <path fill="black" d="M0,6L3,6L3,9L0,9L0,6M6,6L9,6L9,9L6,9L6,6M3,9L6,9L6,12L3,12L3,9M9,9L12,9L12,12L9,12L9,9"></path> </pattern> <pattern y="0" x="0" height="12" width="12" patternUnits="userSpaceOnUse" id="cp2pattern"> <rect class="cp2color" height="12" width="12" y="0" x="0"></rect> <path fill="white" d="M0,0L3,0L3,3L0,3L0,0M6,0L9,0L9,3L6,3L6,0M3,3L6,3L6,6L3,6L3,3M9,3L12,3L12,6L9,6L9,3"></path> <path fill="white" d="M0,6L3,6L3,9L0,9L0,6M6,6L9,6L9,9L6,9L6,6M3,9L6,9L6,12L3,12L3,9M9,9L12,9L12,12L9,12L9,9"></path> </pattern> <pattern y="0" x="0" height="12" width="12" patternUnits="userSpaceOnUse" id="cp3pattern"> <rect class="cp3color" height="12" width="12" y="0" x="0"></rect> <path fill="black" d="M0,0L3,0L3,3L0,3L0,0M6,0L9,0L9,3L6,3L6,0M3,3L6,3L6,6L3,6L3,3M9,3L12,3L12,6L9,6L9,3"></path> <path fill="black" d="M0,6L3,6L3,9L0,9L0,6M6,6L9,6L9,9L6,9L6,6M3,9L6,9L6,12L3,12L3,9M9,9L12,9L12,12L9,12L9,9"></path> </pattern> <pattern y="0" x="0" height="12" width="12" patternUnits="userSpaceOnUse" id="cp4pattern"> <rect class="cp4color" height="12" width="12" y="0" x="0"></rect> <path fill="white" d="M0,0L3,0L3,3L0,3L0,0M6,0L9,0L9,3L6,3L6,0M3,3L6,3L6,6L3,6L3,3M9,3L12,3L12,6L9,6L9,3"></path> <path fill="white" d="M0,6L3,6L3,9L0,9L0,6M6,6L9,6L9,9L6,9L6,6M3,9L6,9L6,12L3,12L3,9M9,9L12,9L12,12L9,12L9,9"></path> </pattern> <pattern y="0" x="0" height="12" width="12" patternUnits="userSpaceOnUse" id="cp5pattern"> <rect class="cp5color" height="12" width="12" y="0" x="0"></rect> <path fill="black" d="M0,0L3,0L3,3L0,3L0,0M6,0L9,0L9,3L6,3L6,0M3,3L6,3L6,6L3,6L3,3M9,3L12,3L12,6L9,6L9,3"></path> <path fill="black" d="M0,6L3,6L3,9L0,9L0,6M6,6L9,6L9,9L6,9L6,6M3,9L6,9L6,12L3,12L3,9M9,9L12,9L12,12L9,12L9,9"></path> </pattern> <pattern y="0" x="0" height="12" width="12" patternUnits="userSpaceOnUse" id="cp6pattern"> <rect class="cp6color" height="12" width="12" y="0" x="0"></rect> <path fill="white" d="M0,0L3,0L3,3L0,3L0,0M6,0L9,0L9,3L6,3L6,0M3,3L6,3L6,6L3,6L3,3M9,3L12,3L12,6L9,6L9,3"></path> <path fill="white" d="M0,6L3,6L3,9L0,9L0,6M6,6L9,6L9,9L6,9L6,6M3,9L6,9L6,12L3,12L3,9M9,9L12,9L12,12L9,12L9,9"></path> </pattern> <pattern y="0" x="0" height="12" width="12" patternUnits="userSpaceOnUse" id="cp7pattern"> <rect class="cp7color" height="12" width="12" y="0" x="0"></rect> <path fill="black" d="M0,0L3,0L3,3L0,3L0,0M6,0L9,0L9,3L6,3L6,0M3,3L6,3L6,6L3,6L3,3M9,3L12,3L12,6L9,6L9,3"></path> <path fill="black" d="M0,6L3,6L3,9L0,9L0,6M6,6L9,6L9,9L6,9L6,6M3,9L6,9L6,12L3,12L3,9M9,9L12,9L12,12L9,12L9,9"></path> </pattern> <pattern y="0" x="0" height="12" width="12" patternUnits="userSpaceOnUse" id="cp8pattern"> <rect class="cp8color" height="12" width="12" y="0" x="0"></rect> <path fill="white" d="M0,0L3,0L3,3L0,3L0,0M6,0L9,0L9,3L6,3L6,0M3,3L6,3L6,6L3,6L3,3M9,3L12,3L12,6L9,6L9,3"></path> <path fill="white" d="M0,6L3,6L3,9L0,9L0,6M6,6L9,6L9,9L6,9L6,6M3,9L6,9L6,12L3,12L3,9M9,9L12,9L12,12L9,12L9,9"></path> </pattern> <pattern y="0" x="0" height="12" width="12" patternUnits="userSpaceOnUse" id="cp9pattern"> <rect class="cp9color" height="12" width="12" y="0" x="0"></rect> <path fill="black" d="M0,0L3,0L3,3L0,3L0,0M6,0L9,0L9,3L6,3L6,0M3,3L6,3L6,6L3,6L3,3M9,3L12,3L12,6L9,6L9,3"></path> <path fill="black" d="M0,6L3,6L3,9L0,9L0,6M6,6L9,6L9,9L6,9L6,6M3,9L6,9L6,12L3,12L3,9M9,9L12,9L12,12L9,12L9,9"></path> </pattern> </defs> <rect height="100%" width="100%" y="0" x="0" class="grass" id="mainfill"></rect> <g id="paths"><path class="parc" d="M0,0L0,0L12,0L12,48L0,48L0,0M732,96L732,96L864,96L864,108L888,108L888,120L900,120L900,132L912,132L912,264L732,264L732,276L696,276L696,288L672,288L672,240L660,240L660,168L648,168L648,120L696,120L696,108L732,108Z"></path><path class="road" d="M204,12L204,12L264,12L264,24L276,24L276,36L288,36L288,48L300,48L300,72L312,72L312,96L324,96L324,132L336,132L336,192L348,192L348,276L360,276L360,252L372,252L372,240L384,240L384,216L396,216L396,204L408,204L408,192L420,192L420,168L432,168L432,156L444,156L444,144L456,144L456,132L468,132L468,120L480,120L480,108L492,108L492,96L504,96L504,84L528,84L528,72L588,72L588,84L600,84L600,72L612,72L612,84L600,84L600,96L588,96L588,108L552,108L552,120L528,120L528,132L516,132L516,144L504,144L504,156L492,156L492,168L480,168L480,180L468,180L468,192L456,192L456,216L444,216L444,228L432,228L432,240L420,240L420,264L408,264L408,276L396,276L396,300L384,300L384,324L372,324L372,336L360,336L360,360L348,360L348,384L336,384L336,408L324,408L324,432L312,432L312,456L300,456L300,468L288,468L288,480L252,480L252,444L264,444L264,432L276,432L276,408L288,408L288,384L300,384L300,360L312,360L312,216L300,216L300,156L288,156L288,120L276,120L276,96L264,96L264,72L252,72L252,60L240,60L240,48L228,48L228,60L204,60L204,72L192,72L192,84L180,84L180,96L168,96L168,108L156,108L156,120L144,120L144,132L132,132L132,156L120,156L120,168L108,168L108,192L96,192L96,216L84,216L84,252L72,252L72,300L60,300L60,360L48,360L48,384L60,384L60,444L72,444L72,480L84,480L84,504L96,504L96,516L108,516L108,540L120,540L120,552L132,552L132,564L144,564L144,576L168,576L168,588L180,588L180,600L204,600L204,612L228,612L228,624L264,624L264,636L312,636L312,648L360,648L360,636L408,636L408,624L444,624L444,612L468,612L468,600L480,600L480,588L504,588L504,576L516,576L516,564L528,564L528,552L540,552L540,540L552,540L552,528L564,528L564,504L576,504L576,492L588,492L588,468L600,468L600,432L612,432L612,384L624,384L624,312L636,312L636,264L624,264L624,192L612,192L612,144L600,144L600,120L612,120L612,108L624,108L624,96L636,96L636,84L672,84L672,72L708,72L708,60L888,60L888,72L912,72L912,84L924,84L924,96L936,96L936,108L948,108L948,336L912,336L912,324L900,324L900,312L888,312L888,300L756,300L756,312L708,312L708,300L696,300L696,312L708,312L708,324L684,324L684,288L708,288L708,276L732,276L732,264L912,264L912,132L900,132L900,120L888,120L888,108L864,108L864,96L732,96L732,108L696,108L696,120L648,120L648,168L660,168L660,240L672,240L672,336L660,336L660,408L648,408L648,456L636,456L636,492L624,492L624,516L612,516L612,528L600,528L600,552L588,552L588,564L576,564L576,576L564,576L564,588L552,588L552,600L540,600L540,612L528,612L528,624L504,624L504,636L492,636L492,648L468,648L468,660L432,660L432,672L384,672L384,684L288,684L288,672L240,672L240,660L204,660L204,648L180,648L180,636L156,636L156,624L144,624L144,612L120,612L120,600L108,600L108,588L96,588L96,576L84,576L84,564L72,564L72,540L60,540L60,528L48,528L48,504L36,504L36,468L24,468L24,408L12,408L12,336L24,336L24,276L36,276L36,228L48,228L48,192L60,192L60,168L72,168L72,144L84,144L84,132L96,132L96,108L108,108L108,96L120,96L120,84L132,84L132,72L144,72L144,60L156,60L156,48L168,48L168,36L180,36L180,24L204,24L204,12M720,288L720,288L708,288L708,300L720,300Z"></path><path class="sand" d="M228,48L228,48L240,48L240,60L252,60L252,72L264,72L264,96L276,96L276,120L288,120L288,156L300,156L300,216L312,216L312,264L300,264L300,300L288,300L288,324L276,324L276,360L264,360L264,396L252,396L252,480L288,480L288,468L300,468L300,456L312,456L312,432L324,432L324,408L336,408L336,384L348,384L348,360L360,360L360,336L372,336L372,324L384,324L384,300L396,300L396,276L408,276L408,264L420,264L420,240L432,240L432,228L444,228L444,216L456,216L456,192L468,192L468,180L480,180L480,168L492,168L492,156L504,156L504,144L516,144L516,132L528,132L528,120L552,120L552,108L600,108L600,144L612,144L612,192L624,192L624,264L636,264L636,312L624,312L624,360L612,360L612,396L600,396L600,432L588,432L588,456L564,456L564,468L552,468L552,456L540,456L540,432L528,432L528,420L468,420L468,432L444,432L444,444L408,444L408,456L396,456L396,468L372,468L372,480L348,480L348,492L324,492L324,504L312,504L312,516L216,516L216,504L204,504L204,492L192,492L192,480L180,480L180,468L168,468L168,456L156,456L156,432L144,432L144,408L132,408L132,384L120,384L120,360L108,360L108,384L96,384L96,396L84,396L84,240L96,240L96,192L108,192L108,168L120,168L120,156L132,156L132,132L144,132L144,120L156,120L156,108L168,108L168,96L180,96L180,84L192,84L192,72L204,72L204,60L228,60Z"></path><path class="finish" d="M588,72L588,72L600,72L600,84L588,84L588,72M600,84L600,84L612,84L612,96L600,96L600,84M600,96L600,96L600,108L588,108L588,96Z"></path><path class="mud" d="M612,84L612,84L636,84L636,96L624,96L624,108L612,108L612,120L600,120L600,96L612,96L612,84M84,216L84,216L96,216L96,240L84,240L84,216M72,252L72,252L84,252L84,396L96,396L96,384L108,384L108,360L120,360L120,384L132,384L132,408L144,408L144,432L156,432L156,456L168,456L168,468L180,468L180,480L192,480L192,492L204,492L204,504L216,504L216,516L312,516L312,504L324,504L324,492L348,492L348,480L372,480L372,468L396,468L396,456L408,456L408,444L444,444L444,432L468,432L468,420L528,420L528,432L540,432L540,456L552,456L552,468L564,468L564,456L588,456L588,432L600,432L600,396L612,396L612,432L600,432L600,468L588,468L588,492L576,492L576,504L564,504L564,528L552,528L552,540L540,540L540,552L528,552L528,564L516,564L516,576L504,576L504,588L480,588L480,600L468,600L468,612L444,612L444,624L408,624L408,636L360,636L360,648L312,648L312,636L264,636L264,624L228,624L228,612L204,612L204,600L180,600L180,588L168,588L168,576L144,576L144,564L132,564L132,552L120,552L120,540L108,540L108,516L96,516L96,504L84,504L84,480L72,480L72,444L60,444L60,384L48,384L48,360L60,360L60,300L72,300L72,252M300,264L300,264L312,264L312,360L300,360L300,384L288,384L288,408L276,408L276,432L264,432L264,444L252,444L252,396L264,396L264,360L276,360L276,324L288,324L288,300L300,300L300,264M612,360L612,360L624,360L624,384L612,384Z"></path><path class="start" d="M696,276L696,276L708,276L708,288L696,288L696,276M708,288L708,288L720,288L720,300L708,300L708,288M708,300L708,300L708,312L696,312L696,300L708,300M708,312L708,312L720,312L720,324L708,324Z"></path></g> <rect opacity=".3" fill="url(#grid)" height="100%" width="100%" y="0" x="0"></rect></svg>