<svg height="960" width="516" id="mapSvgView" xmlns:xlink="http://www.w3.org/1999/xlink" version="1.1" xmlns="http://www.w3.org/2000/svg"> <defs> <style type="text/css"> .grass {fill: rgb(0, 200, 0);} .road {fill: rgb(128, 128, 128);} .start {fill: url(#startPattern)} .finish {fill: url(#finishPattern)} .mud {fill: rgb(100, 70, 0);} .sand {fill: rgb(230, 230, 115);} .water {fill: blue;} .earth {fill: brown;} .night {fill: black;} .parc {fill: rgb(200, 200, 200);} .cp1color {fill: rgb(0, 102, 255);} .cp2color {fill: rgb(0, 100, 200);} .cp3color {fill: rgb(0, 255, 102);} .cp4color {fill: rgb(0, 200, 0);} .cp5color {fill: rgb(255, 255, 0);} .cp6color {fill: rgb(200, 200, 0);} .cp7color {fill: rgb(255, 0, 0);} .cp8color {fill: rgb(200, 0, 0);} .cp9color {fill: rgb(255, 0, 255);} .cp1 {fill: url(#cp1pattern);} .cp2 {fill: url(#cp2pattern);} .cp3 {fill: url(#cp3pattern);} .cp4 {fill: url(#cp4pattern);} .cp5 {fill: url(#cp5pattern);} .cp6 {fill: url(#cp6pattern);} .cp7 {fill: url(#cp7pattern);} .cp8 {fill: url(#cp8pattern);} .cp9 {fill: url(#cp9pattern);} .primaryColor {fill: rgb(0, 255, 102);} </style> <pattern y="0" x="0" height="12" width="12" patternUnits="userSpaceOnUse" id="grid"> <line stroke-width="1" stroke="black" y2="12" x2="12" y1="0" x1="12"></line> <line stroke-width="1" stroke="black" y2="12" x2="12" y1="12" x1="0"></line> </pattern> <pattern y="0" x="0" height="12" width="12" patternUnits="userSpaceOnUse" id="finishPattern"> <rect fill="black" height="12" width="12" y="0" x="0"></rect> <path fill="white" d="M0,0L3,0L3,3L0,3L0,0M6,0L9,0L9,3L6,3L6,0M3,3L6,3L6,6L3,6L3,3M9,3L12,3L12,6L9,6L9,3"></path> <path fill="white" d="M0,6L3,6L3,9L0,9L0,6M6,6L9,6L9,9L6,9L6,6M3,9L6,9L6,12L3,12L3,9M9,9L12,9L12,12L9,12L9,9"></path> </pattern> <pattern y="0" x="0" height="12" width="12" patternUnits="userSpaceOnUse" id="startPattern"> <rect fill="rgb(100,100,100)" height="12" width="12" y="0" x="0"></rect> <rect stroke-width="1" stroke="rgb(200,200,200)" fill="none" height="5" width="5" y="3.5" x="3.5"></rect> &gt; </pattern> <pattern y="0" x="0" height="12" width="12" patternUnits="userSpaceOnUse" id="cp1pattern"> <rect class="cp1color" height="12" width="12" y="0" x="0"></rect> <path fill="black" d="M0,0L3,0L3,3L0,3L0,0M6,0L9,0L9,3L6,3L6,0M3,3L6,3L6,6L3,6L3,3M9,3L12,3L12,6L9,6L9,3"></path> <path fill="black" d="M0,6L3,6L3,9L0,9L0,6M6,6L9,6L9,9L6,9L6,6M3,9L6,9L6,12L3,12L3,9M9,9L12,9L12,12L9,12L9,9"></path> </pattern> <pattern y="0" x="0" height="12" width="12" patternUnits="userSpaceOnUse" id="cp2pattern"> <rect class="cp2color" height="12" width="12" y="0" x="0"></rect> <path fill="white" d="M0,0L3,0L3,3L0,3L0,0M6,0L9,0L9,3L6,3L6,0M3,3L6,3L6,6L3,6L3,3M9,3L12,3L12,6L9,6L9,3"></path> <path fill="white" d="M0,6L3,6L3,9L0,9L0,6M6,6L9,6L9,9L6,9L6,6M3,9L6,9L6,12L3,12L3,9M9,9L12,9L12,12L9,12L9,9"></path> </pattern> <pattern y="0" x="0" height="12" width="12" patternUnits="userSpaceOnUse" id="cp3pattern"> <rect class="cp3color" height="12" width="12" y="0" x="0"></rect> <path fill="black" d="M0,0L3,0L3,3L0,3L0,0M6,0L9,0L9,3L6,3L6,0M3,3L6,3L6,6L3,6L3,3M9,3L12,3L12,6L9,6L9,3"></path> <path fill="black" d="M0,6L3,6L3,9L0,9L0,6M6,6L9,6L9,9L6,9L6,6M3,9L6,9L6,12L3,12L3,9M9,9L12,9L12,12L9,12L9,9"></path> </pattern> <pattern y="0" x="0" height="12" width="12" patternUnits="userSpaceOnUse" id="cp4pattern"> <rect class="cp4color" height="12" width="12" y="0" x="0"></rect> <path fill="white" d="M0,0L3,0L3,3L0,3L0,0M6,0L9,0L9,3L6,3L6,0M3,3L6,3L6,6L3,6L3,3M9,3L12,3L12,6L9,6L9,3"></path> <path fill="white" d="M0,6L3,6L3,9L0,9L0,6M6,6L9,6L9,9L6,9L6,6M3,9L6,9L6,12L3,12L3,9M9,9L12,9L12,12L9,12L9,9"></path> </pattern> <pattern y="0" x="0" height="12" width="12" patternUnits="userSpaceOnUse" id="cp5pattern"> <rect class="cp5color" height="12" width="12" y="0" x="0"></rect> <path fill="black" d="M0,0L3,0L3,3L0,3L0,0M6,0L9,0L9,3L6,3L6,0M3,3L6,3L6,6L3,6L3,3M9,3L12,3L12,6L9,6L9,3"></path> <path fill="black" d="M0,6L3,6L3,9L0,9L0,6M6,6L9,6L9,9L6,9L6,6M3,9L6,9L6,12L3,12L3,9M9,9L12,9L12,12L9,12L9,9"></path> </pattern> <pattern y="0" x="0" height="12" width="12" patternUnits="userSpaceOnUse" id="cp6pattern"> <rect class="cp6color" height="12" width="12" y="0" x="0"></rect> <path fill="white" d="M0,0L3,0L3,3L0,3L0,0M6,0L9,0L9,3L6,3L6,0M3,3L6,3L6,6L3,6L3,3M9,3L12,3L12,6L9,6L9,3"></path> <path fill="white" d="M0,6L3,6L3,9L0,9L0,6M6,6L9,6L9,9L6,9L6,6M3,9L6,9L6,12L3,12L3,9M9,9L12,9L12,12L9,12L9,9"></path> </pattern> <pattern y="0" x="0" height="12" width="12" patternUnits="userSpaceOnUse" id="cp7pattern"> <rect class="cp7color" height="12" width="12" y="0" x="0"></rect> <path fill="black" d="M0,0L3,0L3,3L0,3L0,0M6,0L9,0L9,3L6,3L6,0M3,3L6,3L6,6L3,6L3,3M9,3L12,3L12,6L9,6L9,3"></path> <path fill="black" d="M0,6L3,6L3,9L0,9L0,6M6,6L9,6L9,9L6,9L6,6M3,9L6,9L6,12L3,12L3,9M9,9L12,9L12,12L9,12L9,9"></path> </pattern> <pattern y="0" x="0" height="12" width="12" patternUnits="userSpaceOnUse" id="cp8pattern"> <rect class="cp8color" height="12" width="12" y="0" x="0"></rect> <path fill="white" d="M0,0L3,0L3,3L0,3L0,0M6,0L9,0L9,3L6,3L6,0M3,3L6,3L6,6L3,6L3,3M9,3L12,3L12,6L9,6L9,3"></path> <path fill="white" d="M0,6L3,6L3,9L0,9L0,6M6,6L9,6L9,9L6,9L6,6M3,9L6,9L6,12L3,12L3,9M9,9L12,9L12,12L9,12L9,9"></path> </pattern> <pattern y="0" x="0" height="12" width="12" patternUnits="userSpaceOnUse" id="cp9pattern"> <rect class="cp9color" height="12" width="12" y="0" x="0"></rect> <path fill="black" d="M0,0L3,0L3,3L0,3L0,0M6,0L9,0L9,3L6,3L6,0M3,3L6,3L6,6L3,6L3,3M9,3L12,3L12,6L9,6L9,3"></path> <path fill="black" d="M0,6L3,6L3,9L0,9L0,6M6,6L9,6L9,9L6,9L6,6M3,9L6,9L6,12L3,12L3,9M9,9L12,9L12,12L9,12L9,9"></path> </pattern> </defs> <rect height="100%" width="100%" y="0" x="0" class="grass" id="mainfill"></rect> <g id="paths"><path class="cp1" d="M180,132L180,132L252,132L252,144L180,144Z"></path><path class="cp2" d="M372,132L372,132L420,132L420,144L372,144Z"></path><path class="cp3" d="M36,588L36,588L132,588L132,600L36,600Z"></path><path class="cp4" d="M408,588L408,588L504,588L504,600L408,600Z"></path><path class="cp5" d="M300,588L300,588L372,588L372,600L300,600Z"></path><path class="parc" d="M0,0L0,0L12,0L12,120L0,120Z"></path><path class="road" d="M252,12L252,12L348,12L348,24L360,24L360,48L372,48L372,60L384,60L384,72L396,72L396,96L408,96L408,120L420,120L420,132L372,132L372,120L360,120L360,96L348,96L348,84L336,84L336,72L324,72L324,84L288,84L288,96L276,96L276,108L264,108L264,120L252,120L252,132L180,132L180,120L192,120L192,96L204,96L204,60L216,60L216,36L228,36L228,24L252,24L252,12M180,144L180,144L240,144L240,216L252,216L252,252L264,252L264,264L276,264L276,252L300,252L300,240L312,240L312,216L324,216L324,204L336,204L336,192L348,192L348,180L360,180L360,156L372,156L372,144L420,144L420,216L408,216L408,252L396,252L396,276L384,276L384,300L372,300L372,312L360,312L360,324L348,324L348,336L336,336L336,348L312,348L312,372L300,372L300,396L312,396L312,420L324,420L324,444L360,444L360,456L384,456L384,468L396,468L396,480L408,480L408,492L420,492L420,504L432,504L432,516L444,516L444,528L456,528L456,540L468,540L468,564L480,564L480,576L492,576L492,588L408,588L408,576L396,576L396,552L372,552L372,540L360,540L360,528L348,528L348,540L360,540L360,576L372,576L372,588L300,588L300,576L288,576L288,552L264,552L264,564L252,564L252,588L240,588L240,600L228,600L228,636L252,636L252,660L276,660L276,672L216,672L216,660L192,660L192,648L180,648L180,636L168,636L168,564L180,564L180,540L192,540L192,528L204,528L204,504L216,504L216,492L228,492L228,480L240,480L240,468L252,468L252,456L264,456L264,432L252,432L252,420L228,420L228,432L216,432L216,456L204,456L204,468L192,468L192,480L180,480L180,492L168,492L168,504L156,504L156,528L144,528L144,552L132,552L132,564L120,564L120,576L132,576L132,588L36,588L36,540L48,540L48,516L60,516L60,492L72,492L72,468L84,468L84,444L96,444L96,432L108,432L108,420L120,420L120,408L132,408L132,396L144,396L144,384L156,384L156,372L168,372L168,360L180,360L180,348L192,348L192,336L204,336L204,324L216,324L216,312L228,312L228,300L216,300L216,276L204,276L204,264L192,264L192,240L180,240L180,228L168,228L168,168L180,168L180,144M48,600L48,600L144,600L144,624L156,624L156,636L168,636L168,660L180,660L180,672L204,672L204,684L216,684L216,696L336,696L336,672L324,672L324,636L312,636L312,612L300,612L300,600L372,600L372,636L384,636L384,672L396,672L396,696L408,696L408,672L420,672L420,660L432,660L432,624L420,624L420,612L408,612L408,600L504,600L504,636L492,636L492,648L480,648L480,672L468,672L468,696L456,696L456,708L444,708L444,732L432,732L432,744L408,744L408,876L396,876L396,900L384,900L384,912L372,912L372,924L360,924L360,936L276,936L276,924L240,924L240,912L216,912L216,900L204,900L204,876L192,876L192,864L180,864L180,828L192,828L192,804L204,804L204,792L216,792L216,768L240,768L240,756L300,756L300,780L288,780L288,768L276,768L276,780L264,780L264,768L240,768L240,780L228,780L228,792L252,792L252,780L264,780L264,792L252,792L252,804L264,804L264,792L276,792L276,780L288,780L288,792L276,792L276,804L288,804L288,792L300,792L300,780L312,780L312,792L300,792L300,804L312,804L312,792L324,792L324,804L336,804L336,816L348,816L348,840L336,840L336,852L312,852L312,876L348,876L348,852L372,852L372,768L360,768L360,756L312,756L312,744L204,744L204,732L168,732L168,720L144,720L144,708L132,708L132,696L120,696L120,684L96,684L96,672L84,672L84,660L72,660L72,648L60,648L60,636L48,636L48,600M12,852L12,852L48,852L48,900L72,900L72,852L108,852L108,864L84,864L84,936L108,936L108,948L72,948L72,912L48,912L48,948L12,948L12,936L36,936L36,864L12,864Z"></path><path class="finish" d="M276,660L276,660L288,660L288,684L240,684L240,672L276,672Z"></path><path class="start" d="M252,768L252,768L264,768L264,780L252,780L252,768M264,780L264,780L276,780L276,768L288,768L288,780L276,780L276,792L264,792L264,780M252,780L252,780L252,792L240,792L240,780L252,780M288,780L288,780L300,780L300,768L312,768L312,780L300,780L300,792L288,792L288,780M312,780L312,780L324,780L324,792L312,792L312,780M252,792L252,792L264,792L264,804L252,804L252,792M276,792L276,792L288,792L288,804L276,804L276,792M300,792L300,792L312,792L312,804L300,804Z"></path></g> <rect opacity=".3" fill="url(#grid)" height="100%" width="100%" y="0" x="0"></rect></svg>