<svg height="768" width="768" id="mapSvgView" xmlns:xlink="http://www.w3.org/1999/xlink" version="1.1" xmlns="http://www.w3.org/2000/svg"> <defs> <style type="text/css"> .grass {fill: rgb(0, 200, 0);} .road {fill: rgb(128, 128, 128);} .start {fill: url(#startPattern)} .finish {fill: url(#finishPattern)} .mud {fill: rgb(100, 70, 0);} .sand {fill: rgb(230, 230, 115);} .water {fill: blue;} .earth {fill: brown;} .night {fill: black;} .parc {fill: rgb(200, 200, 200);} .cp1color {fill: rgb(0, 102, 255);} .cp2color {fill: rgb(0, 100, 200);} .cp3color {fill: rgb(0, 255, 102);} .cp4color {fill: rgb(0, 200, 0);} .cp5color {fill: rgb(255, 255, 0);} .cp6color {fill: rgb(200, 200, 0);} .cp7color {fill: rgb(255, 0, 0);} .cp8color {fill: rgb(200, 0, 0);} .cp9color {fill: rgb(255, 0, 255);} .cp1 {fill: url(#cp1pattern);} .cp2 {fill: url(#cp2pattern);} .cp3 {fill: url(#cp3pattern);} .cp4 {fill: url(#cp4pattern);} .cp5 {fill: url(#cp5pattern);} .cp6 {fill: url(#cp6pattern);} .cp7 {fill: url(#cp7pattern);} .cp8 {fill: url(#cp8pattern);} .cp9 {fill: url(#cp9pattern);} .primaryColor {fill: rgb(0, 255, 102);} </style> <pattern y="0" x="0" height="12" width="12" patternUnits="userSpaceOnUse" id="grid"> <line stroke-width="1" stroke="black" y2="12" x2="12" y1="0" x1="12"></line> <line stroke-width="1" stroke="black" y2="12" x2="12" y1="12" x1="0"></line> </pattern> <pattern y="0" x="0" height="12" width="12" patternUnits="userSpaceOnUse" id="finishPattern"> <rect fill="black" height="12" width="12" y="0" x="0"></rect> <path fill="white" d="M0,0L3,0L3,3L0,3L0,0M6,0L9,0L9,3L6,3L6,0M3,3L6,3L6,6L3,6L3,3M9,3L12,3L12,6L9,6L9,3"></path> <path fill="white" d="M0,6L3,6L3,9L0,9L0,6M6,6L9,6L9,9L6,9L6,6M3,9L6,9L6,12L3,12L3,9M9,9L12,9L12,12L9,12L9,9"></path> </pattern> <pattern y="0" x="0" height="12" width="12" patternUnits="userSpaceOnUse" id="startPattern"> <rect fill="rgb(100,100,100)" height="12" width="12" y="0" x="0"></rect> <rect stroke-width="1" stroke="rgb(200,200,200)" fill="none" height="5" width="5" y="3.5" x="3.5"></rect> &gt; </pattern> <pattern y="0" x="0" height="12" width="12" patternUnits="userSpaceOnUse" id="cp1pattern"> <rect class="cp1color" height="12" width="12" y="0" x="0"></rect> <path fill="black" d="M0,0L3,0L3,3L0,3L0,0M6,0L9,0L9,3L6,3L6,0M3,3L6,3L6,6L3,6L3,3M9,3L12,3L12,6L9,6L9,3"></path> <path fill="black" d="M0,6L3,6L3,9L0,9L0,6M6,6L9,6L9,9L6,9L6,6M3,9L6,9L6,12L3,12L3,9M9,9L12,9L12,12L9,12L9,9"></path> </pattern> <pattern y="0" x="0" height="12" width="12" patternUnits="userSpaceOnUse" id="cp2pattern"> <rect class="cp2color" height="12" width="12" y="0" x="0"></rect> <path fill="white" d="M0,0L3,0L3,3L0,3L0,0M6,0L9,0L9,3L6,3L6,0M3,3L6,3L6,6L3,6L3,3M9,3L12,3L12,6L9,6L9,3"></path> <path fill="white" d="M0,6L3,6L3,9L0,9L0,6M6,6L9,6L9,9L6,9L6,6M3,9L6,9L6,12L3,12L3,9M9,9L12,9L12,12L9,12L9,9"></path> </pattern> <pattern y="0" x="0" height="12" width="12" patternUnits="userSpaceOnUse" id="cp3pattern"> <rect class="cp3color" height="12" width="12" y="0" x="0"></rect> <path fill="black" d="M0,0L3,0L3,3L0,3L0,0M6,0L9,0L9,3L6,3L6,0M3,3L6,3L6,6L3,6L3,3M9,3L12,3L12,6L9,6L9,3"></path> <path fill="black" d="M0,6L3,6L3,9L0,9L0,6M6,6L9,6L9,9L6,9L6,6M3,9L6,9L6,12L3,12L3,9M9,9L12,9L12,12L9,12L9,9"></path> </pattern> <pattern y="0" x="0" height="12" width="12" patternUnits="userSpaceOnUse" id="cp4pattern"> <rect class="cp4color" height="12" width="12" y="0" x="0"></rect> <path fill="white" d="M0,0L3,0L3,3L0,3L0,0M6,0L9,0L9,3L6,3L6,0M3,3L6,3L6,6L3,6L3,3M9,3L12,3L12,6L9,6L9,3"></path> <path fill="white" d="M0,6L3,6L3,9L0,9L0,6M6,6L9,6L9,9L6,9L6,6M3,9L6,9L6,12L3,12L3,9M9,9L12,9L12,12L9,12L9,9"></path> </pattern> <pattern y="0" x="0" height="12" width="12" patternUnits="userSpaceOnUse" id="cp5pattern"> <rect class="cp5color" height="12" width="12" y="0" x="0"></rect> <path fill="black" d="M0,0L3,0L3,3L0,3L0,0M6,0L9,0L9,3L6,3L6,0M3,3L6,3L6,6L3,6L3,3M9,3L12,3L12,6L9,6L9,3"></path> <path fill="black" d="M0,6L3,6L3,9L0,9L0,6M6,6L9,6L9,9L6,9L6,6M3,9L6,9L6,12L3,12L3,9M9,9L12,9L12,12L9,12L9,9"></path> </pattern> <pattern y="0" x="0" height="12" width="12" patternUnits="userSpaceOnUse" id="cp6pattern"> <rect class="cp6color" height="12" width="12" y="0" x="0"></rect> <path fill="white" d="M0,0L3,0L3,3L0,3L0,0M6,0L9,0L9,3L6,3L6,0M3,3L6,3L6,6L3,6L3,3M9,3L12,3L12,6L9,6L9,3"></path> <path fill="white" d="M0,6L3,6L3,9L0,9L0,6M6,6L9,6L9,9L6,9L6,6M3,9L6,9L6,12L3,12L3,9M9,9L12,9L12,12L9,12L9,9"></path> </pattern> <pattern y="0" x="0" height="12" width="12" patternUnits="userSpaceOnUse" id="cp7pattern"> <rect class="cp7color" height="12" width="12" y="0" x="0"></rect> <path fill="black" d="M0,0L3,0L3,3L0,3L0,0M6,0L9,0L9,3L6,3L6,0M3,3L6,3L6,6L3,6L3,3M9,3L12,3L12,6L9,6L9,3"></path> <path fill="black" d="M0,6L3,6L3,9L0,9L0,6M6,6L9,6L9,9L6,9L6,6M3,9L6,9L6,12L3,12L3,9M9,9L12,9L12,12L9,12L9,9"></path> </pattern> <pattern y="0" x="0" height="12" width="12" patternUnits="userSpaceOnUse" id="cp8pattern"> <rect class="cp8color" height="12" width="12" y="0" x="0"></rect> <path fill="white" d="M0,0L3,0L3,3L0,3L0,0M6,0L9,0L9,3L6,3L6,0M3,3L6,3L6,6L3,6L3,3M9,3L12,3L12,6L9,6L9,3"></path> <path fill="white" d="M0,6L3,6L3,9L0,9L0,6M6,6L9,6L9,9L6,9L6,6M3,9L6,9L6,12L3,12L3,9M9,9L12,9L12,12L9,12L9,9"></path> </pattern> <pattern y="0" x="0" height="12" width="12" patternUnits="userSpaceOnUse" id="cp9pattern"> <rect class="cp9color" height="12" width="12" y="0" x="0"></rect> <path fill="black" d="M0,0L3,0L3,3L0,3L0,0M6,0L9,0L9,3L6,3L6,0M3,3L6,3L6,6L3,6L3,3M9,3L12,3L12,6L9,6L9,3"></path> <path fill="black" d="M0,6L3,6L3,9L0,9L0,6M6,6L9,6L9,9L6,9L6,6M3,9L6,9L6,12L3,12L3,9M9,9L12,9L12,12L9,12L9,9"></path> </pattern> </defs> <rect height="100%" width="100%" y="0" x="0" class="sand" id="mainfill"></rect> <g id="paths"><path class="cp1" d="M240,12L240,12L252,12L252,24L240,24L240,12M252,24L252,24L264,24L264,36L252,36L252,24M240,24L240,24L240,36L228,36L228,24L240,24M240,36L240,36L252,36L252,48L240,48L240,36M504,720L504,720L516,720L516,732L504,732L504,720M516,732L516,732L528,732L528,744L516,744L516,732M504,732L504,732L504,744L492,744L492,732L504,732M504,744L504,744L516,744L516,756L504,756Z"></path><path class="cp2" d="M504,12L504,12L516,12L516,24L504,24L504,12M516,24L516,24L528,24L528,36L516,36L516,24M504,24L504,24L504,36L492,36L492,24L504,24M504,36L504,36L516,36L516,48L504,48L504,36M252,720L252,720L264,720L264,732L252,732L252,720M264,732L264,732L276,732L276,744L264,744L264,732M252,732L252,732L252,744L240,744L240,732L252,732M252,744L252,744L264,744L264,756L252,756Z"></path><path class="cp3" d="M732,228L732,228L744,228L744,240L732,240L732,228M744,240L744,240L756,240L756,252L744,252L744,240M732,240L732,240L732,252L720,252L720,240L732,240M732,252L732,252L744,252L744,264L732,264L732,252M24,504L24,504L36,504L36,516L24,516L24,504M36,516L36,516L48,516L48,528L36,528L36,516M24,516L24,516L24,528L12,528L12,516L24,516M24,528L24,528L36,528L36,540L24,540Z"></path><path class="cp4" d="M24,252L24,252L36,252L36,264L24,264L24,252M36,264L36,264L48,264L48,276L36,276L36,264M24,264L24,264L24,276L12,276L12,264L24,264M24,276L24,276L36,276L36,288L24,288L24,276M732,492L732,492L744,492L744,504L732,504L732,492M744,504L744,504L756,504L756,516L744,516L744,504M732,504L732,504L732,516L720,516L720,504L732,504M732,516L732,516L744,516L744,528L732,528Z"></path><path class="cp5" d="M456,288L456,288L468,288L468,300L480,300L480,312L468,312L468,324L456,324L456,312L444,312L444,300L456,300L456,288M300,456L300,456L312,456L312,468L324,468L324,480L312,480L312,492L300,492L300,480L288,480L288,468L300,468Z"></path><path class="cp6" d="M288,288L288,288L300,288L300,300L312,300L312,312L300,312L300,324L288,324L288,312L276,312L276,300L288,300L288,288M456,444L456,444L468,444L468,456L480,456L480,468L468,468L468,480L456,480L456,468L444,468L444,456L456,456Z"></path><path class="parc" d="M0,0L0,0L12,0L12,144L0,144Z"></path><path class="grass" d="M12,0L12,0L768,0L768,768L0,768L0,144L12,144L12,0M216,12L216,12L204,12L204,24L192,24L192,48L180,48L180,72L168,72L168,84L156,84L156,180L84,180L84,192L48,192L48,204L24,204L24,216L12,216L12,324L24,324L24,360L36,360L36,372L48,372L48,384L60,384L60,396L72,396L72,408L48,408L48,420L36,420L36,456L24,456L24,468L12,468L12,564L24,564L24,576L48,576L48,588L72,588L72,600L84,600L84,612L168,612L168,672L180,672L180,684L192,684L192,732L204,732L204,744L216,744L216,756L300,756L300,744L348,744L348,732L360,732L360,720L372,720L372,708L384,708L384,684L396,684L396,708L408,708L408,720L420,720L420,732L456,732L456,744L468,744L468,756L552,756L552,744L564,744L564,720L576,720L576,696L588,696L588,684L600,684L600,648L612,648L612,588L672,588L672,576L720,576L720,564L744,564L744,552L756,552L756,480L744,480L744,432L732,432L732,408L720,408L720,396L708,396L708,384L684,384L684,372L696,372L696,360L708,360L708,348L720,348L720,324L732,324L732,300L744,300L744,288L756,288L756,216L744,216L744,204L732,204L732,192L696,192L696,180L684,180L684,168L660,168L660,156L588,156L588,96L576,96L576,60L564,60L564,24L552,24L552,12L468,12L468,24L408,24L408,36L396,36L396,48L384,48L384,60L372,60L372,72L360,72L360,60L348,60L348,48L336,48L336,36L300,36L300,24L288,24L288,12Z"></path><path class="road" d="M204,12L204,12L240,12L240,24L228,24L228,36L240,36L240,24L252,24L252,12L288,12L288,24L300,24L300,36L336,36L336,48L348,48L348,60L360,60L360,72L372,72L372,60L384,60L384,48L396,48L396,36L408,36L408,24L468,24L468,12L504,12L504,24L492,24L492,36L504,36L504,24L516,24L516,12L552,12L552,24L564,24L564,60L576,60L576,96L588,96L588,156L660,156L660,168L684,168L684,180L696,180L696,192L732,192L732,204L744,204L744,216L756,216L756,240L744,240L744,228L732,228L732,240L708,240L708,228L672,228L672,216L660,216L660,204L624,204L624,192L612,192L612,204L576,204L576,216L564,216L564,240L552,240L552,252L540,252L540,264L516,264L516,276L504,276L504,288L492,288L492,300L468,300L468,276L456,276L456,300L420,300L420,288L336,288L336,300L300,300L300,276L312,276L312,264L300,264L300,240L276,240L276,228L300,228L300,240L312,240L312,264L324,264L324,216L312,216L312,192L300,192L300,180L288,180L288,156L300,156L300,180L312,180L312,192L324,192L324,216L336,216L336,264L348,264L348,252L360,252L360,204L396,204L396,252L408,252L408,240L420,240L420,204L408,204L408,192L420,192L420,204L432,204L432,240L420,240L420,264L432,264L432,252L444,252L444,228L456,228L456,156L468,156L468,228L456,228L456,252L444,252L444,264L432,264L432,276L444,276L444,264L468,264L468,252L480,252L480,228L492,228L492,216L504,216L504,228L492,228L492,252L480,252L480,264L468,264L468,276L480,276L480,264L504,264L504,240L516,240L516,216L528,216L528,192L540,192L540,144L552,144L552,120L540,120L540,84L528,84L528,60L516,60L516,36L504,36L504,48L492,48L492,60L432,60L432,72L420,72L420,84L408,84L408,108L396,108L396,168L384,168L384,156L372,156L372,168L360,168L360,132L348,132L348,120L336,120L336,108L324,108L324,84L312,84L312,72L276,72L276,60L264,60L264,48L252,48L252,36L240,36L240,48L228,48L228,72L216,72L216,96L204,96L204,108L192,108L192,168L204,168L204,192L216,192L216,216L228,216L228,228L240,228L240,240L252,240L252,264L264,264L264,276L288,276L288,300L252,300L252,288L228,288L228,276L216,276L216,264L204,264L204,252L192,252L192,240L180,240L180,228L168,228L168,216L108,216L108,228L72,228L72,240L48,240L48,264L36,264L36,252L24,252L24,264L12,264L12,216L24,216L24,204L48,204L48,192L84,192L84,180L156,180L156,84L168,84L168,72L180,72L180,48L192,48L192,24L204,24L204,12M264,24L264,24L252,24L252,36L264,36L264,24M528,24L528,24L516,24L516,36L528,36L528,24M372,168L372,168L384,168L384,180L396,180L396,192L360,192L360,180L372,180L372,168M732,240L732,240L744,240L744,252L732,252L732,240M744,252L744,252L756,252L756,288L744,288L744,300L732,300L732,324L720,324L720,348L708,348L708,360L696,360L696,372L684,372L684,384L708,384L708,396L720,396L720,408L732,408L732,432L744,432L744,480L756,480L756,504L744,504L744,492L732,492L732,504L708,504L708,456L696,456L696,432L684,432L684,420L660,420L660,408L648,408L648,396L612,396L612,372L600,372L600,384L588,384L588,348L600,348L600,360L612,360L612,348L648,348L648,336L672,336L672,324L684,324L684,300L696,300L696,276L708,276L708,264L720,264L720,252L732,252L732,264L744,264L744,252M24,264L24,264L36,264L36,276L24,276L24,264M36,276L36,276L48,276L48,288L60,288L60,336L72,336L72,348L96,348L96,360L120,360L120,372L132,372L132,384L120,384L120,396L132,396L132,384L144,384L144,372L156,372L156,408L144,408L144,396L132,396L132,420L108,420L108,432L96,432L96,444L72,444L72,480L60,480L60,492L48,492L48,516L36,516L36,504L24,504L24,516L12,516L12,468L24,468L24,456L36,456L36,420L48,420L48,408L72,408L72,396L60,396L60,384L48,384L48,372L36,372L36,360L24,360L24,324L12,324L12,276L24,276L24,288L36,288L36,276M528,276L528,276L540,276L540,300L528,300L528,276M600,276L600,276L612,276L612,288L600,288L600,276M600,288L600,288L600,300L588,300L588,288L600,288M168,288L168,288L192,288L192,300L168,300L168,288M168,300L168,300L168,312L144,312L144,300L168,300M192,300L192,300L228,300L228,312L192,312L192,300M528,300L528,300L528,312L516,312L516,300L528,300M588,300L588,300L588,312L576,312L576,300L588,300M228,312L228,312L252,312L252,324L228,324L228,312M516,312L516,312L516,324L552,324L552,312L576,312L576,324L552,324L552,336L504,336L504,348L576,348L576,384L528,384L528,396L504,396L504,408L516,408L516,420L504,420L504,432L516,432L516,420L564,420L564,408L576,408L576,420L564,420L564,432L516,432L516,444L528,444L528,456L504,456L504,444L492,444L492,468L480,468L480,456L468,456L468,420L480,420L480,348L468,348L468,312L516,312M252,324L252,324L264,324L264,312L288,312L288,348L276,348L276,408L288,408L288,444L300,444L300,468L264,468L264,456L252,456L252,444L204,444L204,432L252,432L252,420L240,420L240,408L168,408L168,372L240,372L240,360L228,360L228,348L204,348L204,336L228,336L228,348L240,348L240,360L252,360L252,324M204,348L204,348L204,360L180,360L180,348L204,348M624,360L624,360L612,360L612,372L624,372L624,360M264,432L264,432L252,432L252,444L264,444L264,432M204,444L204,444L204,456L192,456L192,444L204,444M192,456L192,456L192,468L180,468L180,480L168,480L168,456L192,456M252,456L252,456L252,468L240,468L240,480L228,480L228,492L216,492L216,468L228,468L228,456L252,456M528,456L528,456L552,456L552,468L528,468L528,456M492,468L492,468L504,468L504,480L492,480L492,468M480,468L480,468L480,480L492,480L492,492L504,492L504,480L528,480L528,492L504,492L504,504L516,504L516,516L528,516L528,528L564,528L564,540L588,540L588,552L648,552L648,540L696,540L696,528L720,528L720,516L732,516L732,504L744,504L744,516L732,516L732,528L744,528L744,516L756,516L756,552L744,552L744,564L720,564L720,576L672,576L672,588L612,588L612,648L600,648L600,684L588,684L588,696L576,696L576,720L564,720L564,744L552,744L552,756L516,756L516,744L504,744L504,732L492,732L492,744L504,744L504,756L468,756L468,744L456,744L456,732L420,732L420,720L408,720L408,708L396,708L396,684L384,684L384,708L372,708L372,720L360,720L360,732L348,732L348,744L300,744L300,756L264,756L264,744L252,744L252,732L240,732L240,744L252,744L252,756L216,756L216,744L204,744L204,732L192,732L192,684L180,684L180,672L168,672L168,612L84,612L84,600L72,600L72,588L48,588L48,576L24,576L24,564L12,564L12,528L24,528L24,516L36,516L36,528L24,528L24,540L36,540L36,528L60,528L60,540L72,540L72,552L96,552L96,564L108,564L108,576L144,576L144,564L180,564L180,552L204,552L204,540L216,540L216,528L240,528L240,516L252,516L252,504L264,504L264,492L276,492L276,480L300,480L300,504L288,504L288,516L276,516L276,528L264,528L264,552L252,552L252,564L240,564L240,576L228,576L228,588L216,588L216,636L204,636L204,648L216,648L216,660L228,660L228,708L240,708L240,720L252,720L252,732L264,732L264,720L276,720L276,708L324,708L324,696L336,696L336,684L348,684L348,660L360,660L360,648L372,648L372,612L384,612L384,600L372,600L372,588L408,588L408,600L396,600L396,612L384,612L384,624L396,624L396,612L408,612L408,648L420,648L420,660L432,660L432,684L444,684L444,696L480,696L480,708L504,708L504,732L516,732L516,720L528,720L528,696L540,696L540,672L552,672L552,660L564,660L564,576L540,576L540,564L528,564L528,552L516,552L516,540L504,540L504,528L492,528L492,516L468,516L468,504L456,504L456,516L468,516L468,528L480,528L480,540L456,540L456,528L444,528L444,504L432,504L432,540L420,540L420,516L408,516L408,576L372,576L372,516L348,516L348,504L324,504L324,516L312,516L312,480L324,480L324,468L336,468L336,480L432,480L432,468L456,468L456,480L468,480L468,468L480,468M552,468L552,468L600,468L600,456L624,456L624,468L600,468L600,480L552,480L552,468M168,480L168,480L168,492L156,492L156,480L168,480M528,492L528,492L552,492L552,504L528,504L528,492M312,516L312,516L312,552L300,552L300,516L312,516M348,516L348,516L348,528L336,528L336,516L348,516M336,528L336,528L336,552L324,552L324,528L336,528M432,540L432,540L444,540L444,564L456,564L456,588L444,588L444,576L432,576L432,540M480,540L480,540L492,540L492,552L480,552L480,540M300,552L300,552L300,624L288,624L288,552L300,552M336,552L336,552L348,552L348,576L336,576L336,552M456,588L456,588L480,588L480,600L456,600L456,588M480,600L480,600L492,600L492,612L480,612L480,600M276,732L276,732L264,732L264,744L276,744L276,732M528,732L528,732L516,732L516,744L528,744Z"></path><path class="start" d="M372,156L372,156L384,156L384,168L372,168L372,156M384,168L384,168L396,168L396,180L384,180L384,168M372,168L372,168L372,180L360,180L360,168L372,168M600,348L600,348L612,348L612,360L600,360L600,348M612,360L612,360L624,360L624,372L612,372L612,360M612,372L612,372L612,384L600,384L600,372L612,372M132,372L132,372L144,372L144,384L132,384L132,372M132,384L132,384L132,396L120,396L120,384L132,384M132,396L132,396L144,396L144,408L132,408L132,396M372,600L372,600L384,600L384,612L372,612L372,600M384,612L384,612L396,612L396,600L408,600L408,612L396,612L396,624L384,624Z"></path><path class="finish" d="M360,192L360,192L396,192L396,204L360,204L360,192M576,348L576,348L588,348L588,384L576,384L576,348M156,372L156,372L168,372L168,408L156,408L156,372M372,576L372,576L408,576L408,588L372,588Z"></path><path class="mud" d="M336,288L336,288L420,288L420,300L444,300L444,312L456,312L456,324L468,324L468,348L480,348L480,420L468,420L468,444L456,444L456,456L444,456L444,468L432,468L432,480L336,480L336,468L312,468L312,456L300,456L300,444L288,444L288,408L276,408L276,348L288,348L288,324L300,324L300,312L312,312L312,300L336,300Z"></path></g> <rect opacity=".3" fill="url(#grid)" height="100%" width="100%" y="0" x="0"></rect></svg>