<svg height="600" width="924" id="mapSvgView" xmlns:xlink="http://www.w3.org/1999/xlink" version="1.1" xmlns="http://www.w3.org/2000/svg"> <defs> <style type="text/css"> .grass {fill: rgb(0, 200, 0);} .road {fill: rgb(128, 128, 128);} .start {fill: url(#startPattern)} .finish {fill: url(#finishPattern)} .mud {fill: rgb(100, 70, 0);} .sand {fill: rgb(230, 230, 115);} .water {fill: blue;} .earth {fill: brown;} .night {fill: black;} .parc {fill: rgb(200, 200, 200);} .cp1color {fill: rgb(0, 102, 255);} .cp2color {fill: rgb(0, 100, 200);} .cp3color {fill: rgb(0, 255, 102);} .cp4color {fill: rgb(0, 200, 0);} .cp5color {fill: rgb(255, 255, 0);} .cp6color {fill: rgb(200, 200, 0);} .cp7color {fill: rgb(255, 0, 0);} .cp8color {fill: rgb(200, 0, 0);} .cp9color {fill: rgb(255, 0, 255);} .cp1 {fill: url(#cp1pattern);} .cp2 {fill: url(#cp2pattern);} .cp3 {fill: url(#cp3pattern);} .cp4 {fill: url(#cp4pattern);} .cp5 {fill: url(#cp5pattern);} .cp6 {fill: url(#cp6pattern);} .cp7 {fill: url(#cp7pattern);} .cp8 {fill: url(#cp8pattern);} .cp9 {fill: url(#cp9pattern);} .primaryColor {fill: rgb(0, 255, 102);} </style> <pattern y="0" x="0" height="12" width="12" patternUnits="userSpaceOnUse" id="grid"> <line stroke-width="1" stroke="black" y2="12" x2="12" y1="0" x1="12"></line> <line stroke-width="1" stroke="black" y2="12" x2="12" y1="12" x1="0"></line> </pattern> <pattern y="0" x="0" height="12" width="12" patternUnits="userSpaceOnUse" id="finishPattern"> <rect fill="black" height="12" width="12" y="0" x="0"></rect> <path fill="white" d="M0,0L3,0L3,3L0,3L0,0M6,0L9,0L9,3L6,3L6,0M3,3L6,3L6,6L3,6L3,3M9,3L12,3L12,6L9,6L9,3"></path> <path fill="white" d="M0,6L3,6L3,9L0,9L0,6M6,6L9,6L9,9L6,9L6,6M3,9L6,9L6,12L3,12L3,9M9,9L12,9L12,12L9,12L9,9"></path> </pattern> <pattern y="0" x="0" height="12" width="12" patternUnits="userSpaceOnUse" id="startPattern"> <rect fill="rgb(100,100,100)" height="12" width="12" y="0" x="0"></rect> <rect stroke-width="1" stroke="rgb(200,200,200)" fill="none" height="5" width="5" y="3.5" x="3.5"></rect> &gt; </pattern> <pattern y="0" x="0" height="12" width="12" patternUnits="userSpaceOnUse" id="cp1pattern"> <rect class="cp1color" height="12" width="12" y="0" x="0"></rect> <path fill="black" d="M0,0L3,0L3,3L0,3L0,0M6,0L9,0L9,3L6,3L6,0M3,3L6,3L6,6L3,6L3,3M9,3L12,3L12,6L9,6L9,3"></path> <path fill="black" d="M0,6L3,6L3,9L0,9L0,6M6,6L9,6L9,9L6,9L6,6M3,9L6,9L6,12L3,12L3,9M9,9L12,9L12,12L9,12L9,9"></path> </pattern> <pattern y="0" x="0" height="12" width="12" patternUnits="userSpaceOnUse" id="cp2pattern"> <rect class="cp2color" height="12" width="12" y="0" x="0"></rect> <path fill="white" d="M0,0L3,0L3,3L0,3L0,0M6,0L9,0L9,3L6,3L6,0M3,3L6,3L6,6L3,6L3,3M9,3L12,3L12,6L9,6L9,3"></path> <path fill="white" d="M0,6L3,6L3,9L0,9L0,6M6,6L9,6L9,9L6,9L6,6M3,9L6,9L6,12L3,12L3,9M9,9L12,9L12,12L9,12L9,9"></path> </pattern> <pattern y="0" x="0" height="12" width="12" patternUnits="userSpaceOnUse" id="cp3pattern"> <rect class="cp3color" height="12" width="12" y="0" x="0"></rect> <path fill="black" d="M0,0L3,0L3,3L0,3L0,0M6,0L9,0L9,3L6,3L6,0M3,3L6,3L6,6L3,6L3,3M9,3L12,3L12,6L9,6L9,3"></path> <path fill="black" d="M0,6L3,6L3,9L0,9L0,6M6,6L9,6L9,9L6,9L6,6M3,9L6,9L6,12L3,12L3,9M9,9L12,9L12,12L9,12L9,9"></path> </pattern> <pattern y="0" x="0" height="12" width="12" patternUnits="userSpaceOnUse" id="cp4pattern"> <rect class="cp4color" height="12" width="12" y="0" x="0"></rect> <path fill="white" d="M0,0L3,0L3,3L0,3L0,0M6,0L9,0L9,3L6,3L6,0M3,3L6,3L6,6L3,6L3,3M9,3L12,3L12,6L9,6L9,3"></path> <path fill="white" d="M0,6L3,6L3,9L0,9L0,6M6,6L9,6L9,9L6,9L6,6M3,9L6,9L6,12L3,12L3,9M9,9L12,9L12,12L9,12L9,9"></path> </pattern> <pattern y="0" x="0" height="12" width="12" patternUnits="userSpaceOnUse" id="cp5pattern"> <rect class="cp5color" height="12" width="12" y="0" x="0"></rect> <path fill="black" d="M0,0L3,0L3,3L0,3L0,0M6,0L9,0L9,3L6,3L6,0M3,3L6,3L6,6L3,6L3,3M9,3L12,3L12,6L9,6L9,3"></path> <path fill="black" d="M0,6L3,6L3,9L0,9L0,6M6,6L9,6L9,9L6,9L6,6M3,9L6,9L6,12L3,12L3,9M9,9L12,9L12,12L9,12L9,9"></path> </pattern> <pattern y="0" x="0" height="12" width="12" patternUnits="userSpaceOnUse" id="cp6pattern"> <rect class="cp6color" height="12" width="12" y="0" x="0"></rect> <path fill="white" d="M0,0L3,0L3,3L0,3L0,0M6,0L9,0L9,3L6,3L6,0M3,3L6,3L6,6L3,6L3,3M9,3L12,3L12,6L9,6L9,3"></path> <path fill="white" d="M0,6L3,6L3,9L0,9L0,6M6,6L9,6L9,9L6,9L6,6M3,9L6,9L6,12L3,12L3,9M9,9L12,9L12,12L9,12L9,9"></path> </pattern> <pattern y="0" x="0" height="12" width="12" patternUnits="userSpaceOnUse" id="cp7pattern"> <rect class="cp7color" height="12" width="12" y="0" x="0"></rect> <path fill="black" d="M0,0L3,0L3,3L0,3L0,0M6,0L9,0L9,3L6,3L6,0M3,3L6,3L6,6L3,6L3,3M9,3L12,3L12,6L9,6L9,3"></path> <path fill="black" d="M0,6L3,6L3,9L0,9L0,6M6,6L9,6L9,9L6,9L6,6M3,9L6,9L6,12L3,12L3,9M9,9L12,9L12,12L9,12L9,9"></path> </pattern> <pattern y="0" x="0" height="12" width="12" patternUnits="userSpaceOnUse" id="cp8pattern"> <rect class="cp8color" height="12" width="12" y="0" x="0"></rect> <path fill="white" d="M0,0L3,0L3,3L0,3L0,0M6,0L9,0L9,3L6,3L6,0M3,3L6,3L6,6L3,6L3,3M9,3L12,3L12,6L9,6L9,3"></path> <path fill="white" d="M0,6L3,6L3,9L0,9L0,6M6,6L9,6L9,9L6,9L6,6M3,9L6,9L6,12L3,12L3,9M9,9L12,9L12,12L9,12L9,9"></path> </pattern> <pattern y="0" x="0" height="12" width="12" patternUnits="userSpaceOnUse" id="cp9pattern"> <rect class="cp9color" height="12" width="12" y="0" x="0"></rect> <path fill="black" d="M0,0L3,0L3,3L0,3L0,0M6,0L9,0L9,3L6,3L6,0M3,3L6,3L6,6L3,6L3,3M9,3L12,3L12,6L9,6L9,3"></path> <path fill="black" d="M0,6L3,6L3,9L0,9L0,6M6,6L9,6L9,9L6,9L6,6M3,9L6,9L6,12L3,12L3,9M9,9L12,9L12,12L9,12L9,9"></path> </pattern> </defs> <rect height="100%" width="100%" y="0" x="0" class="sand" id="mainfill"></rect> <g id="paths"><path class="cp1" d="M420,204L420,204L444,204L444,276L420,276Z"></path><path class="cp2" d="M672,48L672,48L708,48L708,84L684,84L684,72L672,72Z"></path><path class="cp3" d="M828,432L828,432L888,432L888,456L828,456Z"></path><path class="parc" d="M0,0L0,0L12,0L12,96L0,96Z"></path><path class="mud" d="M792,12L792,12L876,12L876,36L864,36L864,24L852,24L852,36L840,36L840,24L828,24L828,36L816,36L816,24L804,24L804,36L792,36L792,12M804,36L804,36L816,36L816,48L804,48L804,36M828,36L828,36L840,36L840,48L828,48L828,36M852,36L852,36L864,36L864,48L852,48L852,36M876,36L876,36L888,36L888,48L876,48L876,36M816,48L816,48L828,48L828,60L840,60L840,48L852,48L852,60L864,60L864,48L876,48L876,72L792,72L792,48L804,48L804,60L816,60Z"></path><path class="finish" d="M804,24L804,24L816,24L816,36L804,36L804,24M816,36L816,36L828,36L828,24L840,24L840,36L828,36L828,48L816,48L816,36M840,36L840,36L852,36L852,24L864,24L864,36L852,36L852,48L840,48L840,36M864,36L864,36L876,36L876,48L864,48L864,36M828,48L828,48L840,48L840,60L828,60L828,48M816,48L816,48L816,60L804,60L804,48L816,48M852,48L852,48L864,48L864,60L852,60L852,48M108,216L108,216L192,216L192,228L108,228Z"></path><path class="road" d="M324,60L324,60L360,60L360,84L384,84L384,60L492,60L492,120L516,120L516,72L552,72L552,84L576,84L576,108L600,108L600,132L612,132L612,108L624,108L624,96L636,96L636,84L648,84L648,72L660,72L660,60L672,60L672,72L684,72L684,84L696,84L696,96L684,96L684,108L672,108L672,120L660,120L660,132L648,132L648,144L624,144L624,156L636,156L636,204L648,204L648,348L624,348L624,372L636,372L636,384L648,384L648,396L660,396L660,432L648,432L648,456L636,456L636,444L624,444L624,420L612,420L612,408L600,408L600,384L588,384L588,312L576,312L576,252L564,252L564,240L552,240L552,228L540,228L540,204L528,204L528,192L516,192L516,180L444,180L444,108L420,108L420,168L372,168L372,156L348,156L348,144L300,144L300,156L252,156L252,168L204,168L204,204L192,204L192,216L108,216L108,204L120,204L120,192L132,192L132,144L144,144L144,108L168,108L168,84L180,84L180,72L324,72L324,60M348,204L348,204L420,204L420,288L408,288L408,300L384,300L384,312L372,312L372,336L360,336L360,348L348,348L348,372L336,372L336,408L348,408L348,432L336,432L336,444L324,444L324,432L312,432L312,420L300,420L300,384L312,384L312,372L300,372L300,348L312,348L312,336L300,336L300,288L312,288L312,276L324,276L324,252L336,252L336,228L348,228L348,204M444,204L444,204L480,204L480,216L492,216L492,240L504,240L504,300L492,300L492,312L480,312L480,336L492,336L492,348L504,348L504,408L492,408L492,420L480,420L480,444L468,444L468,456L444,456L444,468L432,468L432,480L408,480L408,468L396,468L396,456L384,456L384,444L372,444L372,432L360,432L360,420L372,420L372,408L384,408L384,396L408,396L408,384L420,384L420,372L456,372L456,348L444,348L444,204M108,228L108,228L192,228L192,276L180,276L180,312L168,312L168,492L180,492L180,504L276,504L276,492L288,492L288,480L324,480L324,456L336,456L336,444L348,444L348,432L360,432L360,444L348,444L348,456L336,456L336,468L348,468L348,456L360,456L360,444L372,444L372,456L360,456L360,468L348,468L348,480L360,480L360,468L372,468L372,456L384,456L384,468L372,468L372,480L360,480L360,492L372,492L372,480L384,480L384,468L396,468L396,480L384,480L384,492L372,492L372,504L384,504L384,492L396,492L396,480L408,480L408,492L396,492L396,504L384,504L384,540L348,540L348,552L336,552L336,564L264,564L264,576L120,576L120,564L108,564L108,552L96,552L96,516L84,516L84,480L72,480L72,312L84,312L84,252L96,252L96,240L108,240L108,228M120,252L120,252L108,252L108,264L132,264L132,252L120,252M144,264L144,264L132,264L132,276L108,276L108,288L132,288L132,276L156,276L156,264L144,264M144,288L144,288L132,288L132,300L156,300L156,288L144,288M468,288L468,288L456,288L456,312L468,312L468,288M780,336L780,336L840,336L840,348L852,348L852,360L876,360L876,384L888,384L888,432L828,432L828,420L816,420L816,408L792,408L792,396L756,396L756,408L744,408L744,420L732,420L732,444L720,444L720,456L732,456L732,480L720,480L720,468L708,468L708,456L696,456L696,444L684,444L684,432L672,432L672,408L684,408L684,396L696,396L696,372L708,372L708,360L756,360L756,348L780,348L780,336M660,432L660,432L672,432L672,444L660,444L660,432M672,444L672,444L684,444L684,456L672,456L672,444M684,456L684,456L696,456L696,468L684,468L684,456M672,456L672,456L672,468L684,468L684,480L696,480L696,468L708,468L708,480L696,480L696,492L708,492L708,480L720,480L720,492L708,492L708,516L696,516L696,528L684,528L684,540L672,540L672,552L636,552L636,564L504,564L504,552L456,552L456,540L408,540L408,516L396,516L396,504L408,504L408,492L432,492L432,504L456,504L456,492L540,492L540,504L612,504L612,492L636,492L636,480L648,480L648,468L660,468L660,456L672,456M828,456L828,456L888,456L888,480L876,480L876,504L864,504L864,516L852,516L852,528L840,528L840,540L816,540L816,552L756,552L756,540L732,540L732,516L720,516L720,492L744,492L744,504L804,504L804,492L816,492L816,480L828,480Z"></path><path class="start" d="M108,252L108,252L132,252L132,264L108,264L108,252M132,264L132,264L156,264L156,276L132,276L132,264M132,276L132,276L132,288L108,288L108,276L132,276M132,288L132,288L156,288L156,300L132,300Z"></path></g> <rect opacity=".3" fill="url(#grid)" height="100%" width="100%" y="0" x="0"></rect></svg>