<svg height="1020" width="492" id="mapSvgView" xmlns:xlink="http://www.w3.org/1999/xlink" version="1.1" xmlns="http://www.w3.org/2000/svg"> <defs> <style type="text/css"> .grass {fill: rgb(0, 200, 0);} .road {fill: rgb(128, 128, 128);} .start {fill: url(#startPattern)} .finish {fill: url(#finishPattern)} .mud {fill: rgb(100, 70, 0);} .sand {fill: rgb(230, 230, 115);} .water {fill: blue;} .earth {fill: brown;} .night {fill: black;} .parc {fill: rgb(200, 200, 200);} .cp1color {fill: rgb(0, 102, 255);} .cp2color {fill: rgb(0, 100, 200);} .cp3color {fill: rgb(0, 255, 102);} .cp4color {fill: rgb(0, 200, 0);} .cp5color {fill: rgb(255, 255, 0);} .cp6color {fill: rgb(200, 200, 0);} .cp7color {fill: rgb(255, 0, 0);} .cp8color {fill: rgb(200, 0, 0);} .cp9color {fill: rgb(255, 0, 255);} .cp1 {fill: url(#cp1pattern);} .cp2 {fill: url(#cp2pattern);} .cp3 {fill: url(#cp3pattern);} .cp4 {fill: url(#cp4pattern);} .cp5 {fill: url(#cp5pattern);} .cp6 {fill: url(#cp6pattern);} .cp7 {fill: url(#cp7pattern);} .cp8 {fill: url(#cp8pattern);} .cp9 {fill: url(#cp9pattern);} .primaryColor {fill: rgb(0, 255, 102);} </style> <pattern y="0" x="0" height="12" width="12" patternUnits="userSpaceOnUse" id="grid"> <line stroke-width="1" stroke="black" y2="12" x2="12" y1="0" x1="12"></line> <line stroke-width="1" stroke="black" y2="12" x2="12" y1="12" x1="0"></line> </pattern> <pattern y="0" x="0" height="12" width="12" patternUnits="userSpaceOnUse" id="finishPattern"> <rect fill="black" height="12" width="12" y="0" x="0"></rect> <path fill="white" d="M0,0L3,0L3,3L0,3L0,0M6,0L9,0L9,3L6,3L6,0M3,3L6,3L6,6L3,6L3,3M9,3L12,3L12,6L9,6L9,3"></path> <path fill="white" d="M0,6L3,6L3,9L0,9L0,6M6,6L9,6L9,9L6,9L6,6M3,9L6,9L6,12L3,12L3,9M9,9L12,9L12,12L9,12L9,9"></path> </pattern> <pattern y="0" x="0" height="12" width="12" patternUnits="userSpaceOnUse" id="startPattern"> <rect fill="rgb(100,100,100)" height="12" width="12" y="0" x="0"></rect> <rect stroke-width="1" stroke="rgb(200,200,200)" fill="none" height="5" width="5" y="3.5" x="3.5"></rect> &gt; </pattern> <pattern y="0" x="0" height="12" width="12" patternUnits="userSpaceOnUse" id="cp1pattern"> <rect class="cp1color" height="12" width="12" y="0" x="0"></rect> <path fill="black" d="M0,0L3,0L3,3L0,3L0,0M6,0L9,0L9,3L6,3L6,0M3,3L6,3L6,6L3,6L3,3M9,3L12,3L12,6L9,6L9,3"></path> <path fill="black" d="M0,6L3,6L3,9L0,9L0,6M6,6L9,6L9,9L6,9L6,6M3,9L6,9L6,12L3,12L3,9M9,9L12,9L12,12L9,12L9,9"></path> </pattern> <pattern y="0" x="0" height="12" width="12" patternUnits="userSpaceOnUse" id="cp2pattern"> <rect class="cp2color" height="12" width="12" y="0" x="0"></rect> <path fill="white" d="M0,0L3,0L3,3L0,3L0,0M6,0L9,0L9,3L6,3L6,0M3,3L6,3L6,6L3,6L3,3M9,3L12,3L12,6L9,6L9,3"></path> <path fill="white" d="M0,6L3,6L3,9L0,9L0,6M6,6L9,6L9,9L6,9L6,6M3,9L6,9L6,12L3,12L3,9M9,9L12,9L12,12L9,12L9,9"></path> </pattern> <pattern y="0" x="0" height="12" width="12" patternUnits="userSpaceOnUse" id="cp3pattern"> <rect class="cp3color" height="12" width="12" y="0" x="0"></rect> <path fill="black" d="M0,0L3,0L3,3L0,3L0,0M6,0L9,0L9,3L6,3L6,0M3,3L6,3L6,6L3,6L3,3M9,3L12,3L12,6L9,6L9,3"></path> <path fill="black" d="M0,6L3,6L3,9L0,9L0,6M6,6L9,6L9,9L6,9L6,6M3,9L6,9L6,12L3,12L3,9M9,9L12,9L12,12L9,12L9,9"></path> </pattern> <pattern y="0" x="0" height="12" width="12" patternUnits="userSpaceOnUse" id="cp4pattern"> <rect class="cp4color" height="12" width="12" y="0" x="0"></rect> <path fill="white" d="M0,0L3,0L3,3L0,3L0,0M6,0L9,0L9,3L6,3L6,0M3,3L6,3L6,6L3,6L3,3M9,3L12,3L12,6L9,6L9,3"></path> <path fill="white" d="M0,6L3,6L3,9L0,9L0,6M6,6L9,6L9,9L6,9L6,6M3,9L6,9L6,12L3,12L3,9M9,9L12,9L12,12L9,12L9,9"></path> </pattern> <pattern y="0" x="0" height="12" width="12" patternUnits="userSpaceOnUse" id="cp5pattern"> <rect class="cp5color" height="12" width="12" y="0" x="0"></rect> <path fill="black" d="M0,0L3,0L3,3L0,3L0,0M6,0L9,0L9,3L6,3L6,0M3,3L6,3L6,6L3,6L3,3M9,3L12,3L12,6L9,6L9,3"></path> <path fill="black" d="M0,6L3,6L3,9L0,9L0,6M6,6L9,6L9,9L6,9L6,6M3,9L6,9L6,12L3,12L3,9M9,9L12,9L12,12L9,12L9,9"></path> </pattern> <pattern y="0" x="0" height="12" width="12" patternUnits="userSpaceOnUse" id="cp6pattern"> <rect class="cp6color" height="12" width="12" y="0" x="0"></rect> <path fill="white" d="M0,0L3,0L3,3L0,3L0,0M6,0L9,0L9,3L6,3L6,0M3,3L6,3L6,6L3,6L3,3M9,3L12,3L12,6L9,6L9,3"></path> <path fill="white" d="M0,6L3,6L3,9L0,9L0,6M6,6L9,6L9,9L6,9L6,6M3,9L6,9L6,12L3,12L3,9M9,9L12,9L12,12L9,12L9,9"></path> </pattern> <pattern y="0" x="0" height="12" width="12" patternUnits="userSpaceOnUse" id="cp7pattern"> <rect class="cp7color" height="12" width="12" y="0" x="0"></rect> <path fill="black" d="M0,0L3,0L3,3L0,3L0,0M6,0L9,0L9,3L6,3L6,0M3,3L6,3L6,6L3,6L3,3M9,3L12,3L12,6L9,6L9,3"></path> <path fill="black" d="M0,6L3,6L3,9L0,9L0,6M6,6L9,6L9,9L6,9L6,6M3,9L6,9L6,12L3,12L3,9M9,9L12,9L12,12L9,12L9,9"></path> </pattern> <pattern y="0" x="0" height="12" width="12" patternUnits="userSpaceOnUse" id="cp8pattern"> <rect class="cp8color" height="12" width="12" y="0" x="0"></rect> <path fill="white" d="M0,0L3,0L3,3L0,3L0,0M6,0L9,0L9,3L6,3L6,0M3,3L6,3L6,6L3,6L3,3M9,3L12,3L12,6L9,6L9,3"></path> <path fill="white" d="M0,6L3,6L3,9L0,9L0,6M6,6L9,6L9,9L6,9L6,6M3,9L6,9L6,12L3,12L3,9M9,9L12,9L12,12L9,12L9,9"></path> </pattern> <pattern y="0" x="0" height="12" width="12" patternUnits="userSpaceOnUse" id="cp9pattern"> <rect class="cp9color" height="12" width="12" y="0" x="0"></rect> <path fill="black" d="M0,0L3,0L3,3L0,3L0,0M6,0L9,0L9,3L6,3L6,0M3,3L6,3L6,6L3,6L3,3M9,3L12,3L12,6L9,6L9,3"></path> <path fill="black" d="M0,6L3,6L3,9L0,9L0,6M6,6L9,6L9,9L6,9L6,6M3,9L6,9L6,12L3,12L3,9M9,9L12,9L12,12L9,12L9,9"></path> </pattern> </defs> <rect height="100%" width="100%" y="0" x="0" class="road" id="mainfill"></rect> <g id="paths"><path class="parc" d="M0,0L0,0L12,0L12,108L0,108Z"></path><path class="grass" d="M12,12L12,12L480,12L480,1008L12,1008L12,12M36,24L36,24L24,24L24,996L468,996L468,24L36,24M204,84L204,84L216,84L216,108L228,108L228,120L216,120L216,144L228,144L228,120L240,120L240,132L252,132L252,108L264,108L264,144L276,144L276,120L288,120L288,108L300,108L300,132L288,132L288,144L312,144L312,132L336,132L336,144L324,144L324,156L300,156L300,180L324,180L324,216L300,216L300,240L312,240L312,276L324,276L324,288L384,288L384,300L396,300L396,336L384,336L384,348L372,348L372,384L384,384L384,396L372,396L372,408L348,408L348,420L336,420L336,468L348,468L348,600L360,600L360,624L384,624L384,672L372,672L372,804L384,804L384,888L420,888L420,900L432,900L432,912L456,912L456,984L36,984L36,912L60,912L60,900L72,900L72,888L108,888L108,804L144,804L144,672L132,672L132,624L156,624L156,576L168,576L168,564L204,564L204,552L192,552L192,492L204,492L204,468L192,468L192,456L180,456L180,396L192,396L192,360L180,360L180,324L192,324L192,288L180,288L180,252L192,252L192,204L180,204L180,180L168,180L168,96L180,96L180,108L192,108L192,132L180,132L180,168L192,168L192,192L204,192L204,252L216,252L216,240L228,240L228,264L192,264L192,276L204,276L204,336L192,336L192,348L204,348L204,408L192,408L192,444L204,444L204,456L216,456L216,504L204,504L204,540L216,540L216,528L228,528L228,504L240,504L240,492L252,492L252,480L264,480L264,408L252,408L252,336L264,336L264,408L276,408L276,492L264,492L264,504L252,504L252,516L240,516L240,540L228,540L228,552L216,552L216,576L180,576L180,588L168,588L168,600L276,600L276,612L168,612L168,624L228,624L228,636L144,636L144,660L156,660L156,804L324,804L324,816L120,816L120,900L84,900L84,912L72,912L72,924L48,924L48,972L444,972L444,924L420,924L420,912L408,912L408,900L156,900L156,888L372,888L372,816L360,816L360,672L192,672L192,660L372,660L372,636L288,636L288,624L348,624L348,612L324,612L324,600L336,600L336,480L324,480L324,408L336,408L336,396L324,396L324,372L336,372L336,360L348,360L348,324L384,324L384,312L360,312L360,300L312,300L312,288L300,288L300,252L288,252L288,204L312,204L312,192L288,192L288,168L276,168L276,180L252,180L252,168L240,168L240,180L252,180L252,192L228,192L228,204L216,204L216,156L204,156L204,84M240,144L240,144L228,144L228,156L240,156L240,144M252,192L252,192L276,192L276,204L252,204L252,192M240,216L240,216L252,216L252,228L264,228L264,240L276,240L276,252L252,252L252,240L240,240L240,216M36,276L36,276L60,276L60,300L84,300L84,276L108,276L108,288L96,288L96,324L108,324L108,336L84,336L84,312L60,312L60,336L36,336L36,324L48,324L48,288L36,288L36,276M264,276L264,276L276,276L276,300L288,300L288,312L264,312L264,276M228,300L228,300L240,300L240,336L228,336L228,408L216,408L216,324L228,324L228,300M288,312L288,312L300,312L300,360L288,360L288,312M300,360L300,360L312,360L312,444L300,444L300,360M360,360L360,360L348,360L348,384L336,384L336,396L360,396L360,360M228,408L228,408L240,408L240,432L228,432L228,408M288,480L288,480L312,480L312,540L300,540L300,492L288,492L288,480M252,516L252,516L264,516L264,564L252,564L252,516M204,696L204,696L228,696L228,744L204,744L204,696M240,696L240,696L264,696L264,744L240,744L240,696M276,696L276,696L300,696L300,744L276,744Z"></path><path class="finish" d="M180,36L180,36L204,36L204,48L216,48L216,60L228,60L228,96L216,96L216,84L204,84L204,60L192,60L192,72L180,72L180,96L168,96L168,48L180,48Z"></path><path class="start" d="M396,912L396,912L408,912L408,924L396,924L396,912M408,924L408,924L420,924L420,936L408,936L408,924M420,936L420,936L432,936L432,924L444,924L444,936L432,936L432,948L420,948L420,936M408,936L408,936L408,948L396,948L396,936L408,936M408,948L408,948L420,948L420,960L408,960L408,948M432,948L432,948L444,948L444,960L432,960L432,948M420,960L420,960L432,960L432,972L420,972L420,960M408,960L408,960L408,972L396,972L396,960Z"></path></g> <rect opacity=".3" fill="url(#grid)" height="100%" width="100%" y="0" x="0"></rect></svg>