<svg height="864" width="948" id="mapSvgView" xmlns:xlink="http://www.w3.org/1999/xlink" version="1.1" xmlns="http://www.w3.org/2000/svg"> <defs> <style type="text/css"> .grass {fill: rgb(0, 200, 0);} .road {fill: rgb(128, 128, 128);} .start {fill: url(#startPattern)} .finish {fill: url(#finishPattern)} .mud {fill: rgb(100, 70, 0);} .sand {fill: rgb(230, 230, 115);} .water {fill: blue;} .earth {fill: brown;} .night {fill: black;} .parc {fill: rgb(200, 200, 200);} .cp1color {fill: rgb(0, 102, 255);} .cp2color {fill: rgb(0, 100, 200);} .cp3color {fill: rgb(0, 255, 102);} .cp4color {fill: rgb(0, 200, 0);} .cp5color {fill: rgb(255, 255, 0);} .cp6color {fill: rgb(200, 200, 0);} .cp7color {fill: rgb(255, 0, 0);} .cp8color {fill: rgb(200, 0, 0);} .cp9color {fill: rgb(255, 0, 255);} .cp1 {fill: url(#cp1pattern);} .cp2 {fill: url(#cp2pattern);} .cp3 {fill: url(#cp3pattern);} .cp4 {fill: url(#cp4pattern);} .cp5 {fill: url(#cp5pattern);} .cp6 {fill: url(#cp6pattern);} .cp7 {fill: url(#cp7pattern);} .cp8 {fill: url(#cp8pattern);} .cp9 {fill: url(#cp9pattern);} .primaryColor {fill: rgb(0, 255, 102);} </style> <pattern y="0" x="0" height="12" width="12" patternUnits="userSpaceOnUse" id="grid"> <line stroke-width="1" stroke="black" y2="12" x2="12" y1="0" x1="12"></line> <line stroke-width="1" stroke="black" y2="12" x2="12" y1="12" x1="0"></line> </pattern> <pattern y="0" x="0" height="12" width="12" patternUnits="userSpaceOnUse" id="finishPattern"> <rect fill="black" height="12" width="12" y="0" x="0"></rect> <path fill="white" d="M0,0L3,0L3,3L0,3L0,0M6,0L9,0L9,3L6,3L6,0M3,3L6,3L6,6L3,6L3,3M9,3L12,3L12,6L9,6L9,3"></path> <path fill="white" d="M0,6L3,6L3,9L0,9L0,6M6,6L9,6L9,9L6,9L6,6M3,9L6,9L6,12L3,12L3,9M9,9L12,9L12,12L9,12L9,9"></path> </pattern> <pattern y="0" x="0" height="12" width="12" patternUnits="userSpaceOnUse" id="startPattern"> <rect fill="rgb(100,100,100)" height="12" width="12" y="0" x="0"></rect> <rect stroke-width="1" stroke="rgb(200,200,200)" fill="none" height="5" width="5" y="3.5" x="3.5"></rect> &gt; </pattern> <pattern y="0" x="0" height="12" width="12" patternUnits="userSpaceOnUse" id="cp1pattern"> <rect class="cp1color" height="12" width="12" y="0" x="0"></rect> <path fill="black" d="M0,0L3,0L3,3L0,3L0,0M6,0L9,0L9,3L6,3L6,0M3,3L6,3L6,6L3,6L3,3M9,3L12,3L12,6L9,6L9,3"></path> <path fill="black" d="M0,6L3,6L3,9L0,9L0,6M6,6L9,6L9,9L6,9L6,6M3,9L6,9L6,12L3,12L3,9M9,9L12,9L12,12L9,12L9,9"></path> </pattern> <pattern y="0" x="0" height="12" width="12" patternUnits="userSpaceOnUse" id="cp2pattern"> <rect class="cp2color" height="12" width="12" y="0" x="0"></rect> <path fill="white" d="M0,0L3,0L3,3L0,3L0,0M6,0L9,0L9,3L6,3L6,0M3,3L6,3L6,6L3,6L3,3M9,3L12,3L12,6L9,6L9,3"></path> <path fill="white" d="M0,6L3,6L3,9L0,9L0,6M6,6L9,6L9,9L6,9L6,6M3,9L6,9L6,12L3,12L3,9M9,9L12,9L12,12L9,12L9,9"></path> </pattern> <pattern y="0" x="0" height="12" width="12" patternUnits="userSpaceOnUse" id="cp3pattern"> <rect class="cp3color" height="12" width="12" y="0" x="0"></rect> <path fill="black" d="M0,0L3,0L3,3L0,3L0,0M6,0L9,0L9,3L6,3L6,0M3,3L6,3L6,6L3,6L3,3M9,3L12,3L12,6L9,6L9,3"></path> <path fill="black" d="M0,6L3,6L3,9L0,9L0,6M6,6L9,6L9,9L6,9L6,6M3,9L6,9L6,12L3,12L3,9M9,9L12,9L12,12L9,12L9,9"></path> </pattern> <pattern y="0" x="0" height="12" width="12" patternUnits="userSpaceOnUse" id="cp4pattern"> <rect class="cp4color" height="12" width="12" y="0" x="0"></rect> <path fill="white" d="M0,0L3,0L3,3L0,3L0,0M6,0L9,0L9,3L6,3L6,0M3,3L6,3L6,6L3,6L3,3M9,3L12,3L12,6L9,6L9,3"></path> <path fill="white" d="M0,6L3,6L3,9L0,9L0,6M6,6L9,6L9,9L6,9L6,6M3,9L6,9L6,12L3,12L3,9M9,9L12,9L12,12L9,12L9,9"></path> </pattern> <pattern y="0" x="0" height="12" width="12" patternUnits="userSpaceOnUse" id="cp5pattern"> <rect class="cp5color" height="12" width="12" y="0" x="0"></rect> <path fill="black" d="M0,0L3,0L3,3L0,3L0,0M6,0L9,0L9,3L6,3L6,0M3,3L6,3L6,6L3,6L3,3M9,3L12,3L12,6L9,6L9,3"></path> <path fill="black" d="M0,6L3,6L3,9L0,9L0,6M6,6L9,6L9,9L6,9L6,6M3,9L6,9L6,12L3,12L3,9M9,9L12,9L12,12L9,12L9,9"></path> </pattern> <pattern y="0" x="0" height="12" width="12" patternUnits="userSpaceOnUse" id="cp6pattern"> <rect class="cp6color" height="12" width="12" y="0" x="0"></rect> <path fill="white" d="M0,0L3,0L3,3L0,3L0,0M6,0L9,0L9,3L6,3L6,0M3,3L6,3L6,6L3,6L3,3M9,3L12,3L12,6L9,6L9,3"></path> <path fill="white" d="M0,6L3,6L3,9L0,9L0,6M6,6L9,6L9,9L6,9L6,6M3,9L6,9L6,12L3,12L3,9M9,9L12,9L12,12L9,12L9,9"></path> </pattern> <pattern y="0" x="0" height="12" width="12" patternUnits="userSpaceOnUse" id="cp7pattern"> <rect class="cp7color" height="12" width="12" y="0" x="0"></rect> <path fill="black" d="M0,0L3,0L3,3L0,3L0,0M6,0L9,0L9,3L6,3L6,0M3,3L6,3L6,6L3,6L3,3M9,3L12,3L12,6L9,6L9,3"></path> <path fill="black" d="M0,6L3,6L3,9L0,9L0,6M6,6L9,6L9,9L6,9L6,6M3,9L6,9L6,12L3,12L3,9M9,9L12,9L12,12L9,12L9,9"></path> </pattern> <pattern y="0" x="0" height="12" width="12" patternUnits="userSpaceOnUse" id="cp8pattern"> <rect class="cp8color" height="12" width="12" y="0" x="0"></rect> <path fill="white" d="M0,0L3,0L3,3L0,3L0,0M6,0L9,0L9,3L6,3L6,0M3,3L6,3L6,6L3,6L3,3M9,3L12,3L12,6L9,6L9,3"></path> <path fill="white" d="M0,6L3,6L3,9L0,9L0,6M6,6L9,6L9,9L6,9L6,6M3,9L6,9L6,12L3,12L3,9M9,9L12,9L12,12L9,12L9,9"></path> </pattern> <pattern y="0" x="0" height="12" width="12" patternUnits="userSpaceOnUse" id="cp9pattern"> <rect class="cp9color" height="12" width="12" y="0" x="0"></rect> <path fill="black" d="M0,0L3,0L3,3L0,3L0,0M6,0L9,0L9,3L6,3L6,0M3,3L6,3L6,6L3,6L3,3M9,3L12,3L12,6L9,6L9,3"></path> <path fill="black" d="M0,6L3,6L3,9L0,9L0,6M6,6L9,6L9,9L6,9L6,6M3,9L6,9L6,12L3,12L3,9M9,9L12,9L12,12L9,12L9,9"></path> </pattern> </defs> <rect height="100%" width="100%" y="0" x="0" class="grass" id="mainfill"></rect> <g id="paths"><path class="cp1" d="M444,36L444,36L504,36L504,48L444,48Z"></path><path class="cp2" d="M792,216L792,216L816,216L816,228L828,228L828,240L840,240L840,264L828,264L828,252L816,252L816,240L804,240L804,228L792,228Z"></path><path class="cp3" d="M828,600L828,600L840,600L840,624L828,624L828,636L816,636L816,648L792,648L792,636L804,636L804,624L816,624L816,612L828,612Z"></path><path class="cp4" d="M444,816L444,816L504,816L504,828L444,828Z"></path><path class="cp5" d="M108,600L108,600L120,600L120,612L132,612L132,624L144,624L144,636L156,636L156,648L132,648L132,636L120,636L120,624L108,624Z"></path><path class="cp6" d="M132,216L132,216L156,216L156,228L144,228L144,240L132,240L132,252L120,252L120,264L108,264L108,240L120,240L120,228L132,228Z"></path><path class="parc" d="M0,0L0,0L12,0L12,120L0,120Z"></path><path class="road" d="M444,12L444,12L504,12L504,36L444,36L444,12M264,24L264,24L288,24L288,36L312,36L312,48L324,48L324,60L348,60L348,72L360,72L360,84L384,84L384,96L396,96L396,108L420,108L420,120L444,120L444,48L504,48L504,120L528,120L528,108L552,108L552,96L564,96L564,84L588,84L588,72L600,72L600,60L624,60L624,48L636,48L636,36L660,36L660,24L684,24L684,36L696,36L696,48L708,48L708,252L720,252L720,240L744,240L744,228L768,228L768,216L792,216L792,228L804,228L804,240L816,240L816,252L828,252L828,264L816,264L816,276L792,276L792,288L768,288L768,300L744,300L744,312L768,312L768,324L792,324L792,336L816,336L816,348L840,348L840,360L864,360L864,372L888,372L888,384L912,384L912,396L924,396L924,408L936,408L936,456L924,456L924,468L912,468L912,480L888,480L888,492L864,492L864,504L840,504L840,516L816,516L816,528L792,528L792,540L768,540L768,552L744,552L744,564L768,564L768,576L792,576L792,588L816,588L816,600L828,600L828,612L816,612L816,624L804,624L804,636L792,636L792,648L768,648L768,636L744,636L744,624L720,624L720,612L708,612L708,816L696,816L696,828L684,828L684,840L660,840L660,828L636,828L636,816L624,816L624,804L600,804L600,792L588,792L588,780L564,780L564,768L552,768L552,756L528,756L528,744L504,744L504,816L444,816L444,744L420,744L420,756L396,756L396,768L384,768L384,780L360,780L360,792L348,792L348,804L324,804L324,816L312,816L312,828L288,828L288,840L264,840L264,828L252,828L252,816L240,816L240,612L228,612L228,624L204,624L204,636L180,636L180,648L156,648L156,636L144,636L144,624L132,624L132,612L120,612L120,600L132,600L132,588L156,588L156,576L180,576L180,564L204,564L204,552L180,552L180,540L156,540L156,528L132,528L132,516L108,516L108,504L84,504L84,492L60,492L60,480L36,480L36,468L24,468L24,456L12,456L12,408L24,408L24,396L36,396L36,384L60,384L60,372L84,372L84,360L108,360L108,348L132,348L132,336L156,336L156,324L180,324L180,312L204,312L204,300L180,300L180,288L156,288L156,276L132,276L132,264L120,264L120,252L132,252L132,240L144,240L144,228L156,228L156,216L180,216L180,228L204,228L204,240L228,240L228,252L240,252L240,48L252,48L252,36L264,36L264,24M312,120L312,120L300,120L300,288L312,288L312,300L324,300L324,312L348,312L348,324L372,324L372,336L384,336L384,348L408,348L408,360L432,360L432,372L444,372L444,204L432,204L432,192L420,192L420,180L396,180L396,168L372,168L372,156L360,156L360,144L336,144L336,132L324,132L324,120L312,120M636,120L636,120L624,120L624,132L612,132L612,144L588,144L588,156L576,156L576,168L552,168L552,180L528,180L528,192L516,192L516,204L504,204L504,372L516,372L516,360L540,360L540,348L564,348L564,336L576,336L576,324L600,324L600,312L624,312L624,300L636,300L636,288L648,288L648,120L636,120M108,204L108,204L144,204L144,216L132,216L132,228L120,228L120,240L108,240L108,252L84,252L84,228L96,228L96,216L108,216L108,204M804,204L804,204L840,204L840,216L852,216L852,228L864,228L864,252L840,252L840,240L828,240L828,228L816,228L816,216L804,216L804,204M264,348L264,348L252,348L252,360L228,360L228,372L204,372L204,384L180,384L180,396L156,396L156,408L132,408L132,420L108,420L108,444L132,444L132,456L156,456L156,468L180,468L180,480L204,480L204,492L228,492L228,504L252,504L252,516L288,516L288,504L300,504L300,492L324,492L324,480L348,480L348,468L360,468L360,456L384,456L384,444L408,444L408,420L384,420L384,408L360,408L360,396L348,396L348,384L324,384L324,372L300,372L300,360L288,360L288,348L264,348M672,348L672,348L660,348L660,360L648,360L648,372L624,372L624,384L600,384L600,396L588,396L588,408L564,408L564,420L540,420L540,444L564,444L564,456L588,456L588,468L600,468L600,480L624,480L624,492L648,492L648,504L660,504L660,516L696,516L696,504L720,504L720,492L744,492L744,480L768,480L768,468L792,468L792,456L816,456L816,444L840,444L840,420L816,420L816,408L792,408L792,396L768,396L768,384L744,384L744,372L720,372L720,360L696,360L696,348L672,348M480,396L480,396L468,396L468,408L456,408L456,420L444,420L444,444L456,444L456,456L468,456L468,468L480,468L480,456L492,456L492,444L504,444L504,420L492,420L492,408L480,408L480,396M468,420L468,420L480,420L480,444L468,444L468,420M444,492L444,492L432,492L432,504L408,504L408,516L384,516L384,528L372,528L372,540L348,540L348,552L324,552L324,564L312,564L312,576L300,576L300,744L324,744L324,732L336,732L336,720L360,720L360,708L372,708L372,696L396,696L396,684L420,684L420,672L432,672L432,660L444,660L444,492M516,492L516,492L504,492L504,660L516,660L516,672L528,672L528,684L552,684L552,696L576,696L576,708L588,708L588,720L612,720L612,732L624,732L624,744L648,744L648,576L636,576L636,564L624,564L624,552L600,552L600,540L576,540L576,528L564,528L564,516L540,516L540,504L516,504L516,492M84,612L84,612L108,612L108,624L120,624L120,636L132,636L132,648L144,648L144,660L108,660L108,648L96,648L96,636L84,636L84,612M840,612L840,612L864,612L864,636L852,636L852,648L840,648L840,660L804,660L804,648L816,648L816,636L828,636L828,624L840,624L840,612M444,828L444,828L504,828L504,852L444,852Z"></path><path class="start" d="M468,396L468,396L480,396L480,408L468,408L468,396M480,408L480,408L492,408L492,420L480,420L480,408M468,408L468,408L468,420L456,420L456,408L468,408M456,420L456,420L456,444L444,444L444,420L456,420M492,420L492,420L504,420L504,444L492,444L492,420M456,444L456,444L468,444L468,456L456,456L456,444M492,444L492,444L492,456L480,456L480,444L492,444M468,456L468,456L480,456L480,468L468,468Z"></path><path class="finish" d="M468,408L468,408L480,408L480,420L468,420L468,408M480,420L480,420L492,420L492,444L480,444L480,420M468,420L468,420L468,444L456,444L456,420L468,420M468,444L468,444L480,444L480,456L468,456Z"></path></g> <rect opacity=".3" fill="url(#grid)" height="100%" width="100%" y="0" x="0"></rect></svg>