<svg height="504" width="792" id="mapSvgView" xmlns:xlink="http://www.w3.org/1999/xlink" version="1.1" xmlns="http://www.w3.org/2000/svg"> <defs> <style type="text/css"> .grass {fill: rgb(0, 200, 0);} .road {fill: rgb(128, 128, 128);} .start {fill: url(#startPattern)} .finish {fill: url(#finishPattern)} .mud {fill: rgb(100, 70, 0);} .sand {fill: rgb(230, 230, 115);} .water {fill: blue;} .earth {fill: brown;} .night {fill: black;} .parc {fill: rgb(200, 200, 200);} .cp1color {fill: rgb(0, 102, 255);} .cp2color {fill: rgb(0, 100, 200);} .cp3color {fill: rgb(0, 255, 102);} .cp4color {fill: rgb(0, 200, 0);} .cp5color {fill: rgb(255, 255, 0);} .cp6color {fill: rgb(200, 200, 0);} .cp7color {fill: rgb(255, 0, 0);} .cp8color {fill: rgb(200, 0, 0);} .cp9color {fill: rgb(255, 0, 255);} .cp1 {fill: url(#cp1pattern);} .cp2 {fill: url(#cp2pattern);} .cp3 {fill: url(#cp3pattern);} .cp4 {fill: url(#cp4pattern);} .cp5 {fill: url(#cp5pattern);} .cp6 {fill: url(#cp6pattern);} .cp7 {fill: url(#cp7pattern);} .cp8 {fill: url(#cp8pattern);} .cp9 {fill: url(#cp9pattern);} .primaryColor {fill: rgb(0, 255, 102);} </style> <pattern y="0" x="0" height="12" width="12" patternUnits="userSpaceOnUse" id="grid"> <line stroke-width="1" stroke="black" y2="12" x2="12" y1="0" x1="12"></line> <line stroke-width="1" stroke="black" y2="12" x2="12" y1="12" x1="0"></line> </pattern> <pattern y="0" x="0" height="12" width="12" patternUnits="userSpaceOnUse" id="finishPattern"> <rect fill="black" height="12" width="12" y="0" x="0"></rect> <path fill="white" d="M0,0L3,0L3,3L0,3L0,0M6,0L9,0L9,3L6,3L6,0M3,3L6,3L6,6L3,6L3,3M9,3L12,3L12,6L9,6L9,3"></path> <path fill="white" d="M0,6L3,6L3,9L0,9L0,6M6,6L9,6L9,9L6,9L6,6M3,9L6,9L6,12L3,12L3,9M9,9L12,9L12,12L9,12L9,9"></path> </pattern> <pattern y="0" x="0" height="12" width="12" patternUnits="userSpaceOnUse" id="startPattern"> <rect fill="rgb(100,100,100)" height="12" width="12" y="0" x="0"></rect> <rect stroke-width="1" stroke="rgb(200,200,200)" fill="none" height="5" width="5" y="3.5" x="3.5"></rect> &gt; </pattern> <pattern y="0" x="0" height="12" width="12" patternUnits="userSpaceOnUse" id="cp1pattern"> <rect class="cp1color" height="12" width="12" y="0" x="0"></rect> <path fill="black" d="M0,0L3,0L3,3L0,3L0,0M6,0L9,0L9,3L6,3L6,0M3,3L6,3L6,6L3,6L3,3M9,3L12,3L12,6L9,6L9,3"></path> <path fill="black" d="M0,6L3,6L3,9L0,9L0,6M6,6L9,6L9,9L6,9L6,6M3,9L6,9L6,12L3,12L3,9M9,9L12,9L12,12L9,12L9,9"></path> </pattern> <pattern y="0" x="0" height="12" width="12" patternUnits="userSpaceOnUse" id="cp2pattern"> <rect class="cp2color" height="12" width="12" y="0" x="0"></rect> <path fill="white" d="M0,0L3,0L3,3L0,3L0,0M6,0L9,0L9,3L6,3L6,0M3,3L6,3L6,6L3,6L3,3M9,3L12,3L12,6L9,6L9,3"></path> <path fill="white" d="M0,6L3,6L3,9L0,9L0,6M6,6L9,6L9,9L6,9L6,6M3,9L6,9L6,12L3,12L3,9M9,9L12,9L12,12L9,12L9,9"></path> </pattern> <pattern y="0" x="0" height="12" width="12" patternUnits="userSpaceOnUse" id="cp3pattern"> <rect class="cp3color" height="12" width="12" y="0" x="0"></rect> <path fill="black" d="M0,0L3,0L3,3L0,3L0,0M6,0L9,0L9,3L6,3L6,0M3,3L6,3L6,6L3,6L3,3M9,3L12,3L12,6L9,6L9,3"></path> <path fill="black" d="M0,6L3,6L3,9L0,9L0,6M6,6L9,6L9,9L6,9L6,6M3,9L6,9L6,12L3,12L3,9M9,9L12,9L12,12L9,12L9,9"></path> </pattern> <pattern y="0" x="0" height="12" width="12" patternUnits="userSpaceOnUse" id="cp4pattern"> <rect class="cp4color" height="12" width="12" y="0" x="0"></rect> <path fill="white" d="M0,0L3,0L3,3L0,3L0,0M6,0L9,0L9,3L6,3L6,0M3,3L6,3L6,6L3,6L3,3M9,3L12,3L12,6L9,6L9,3"></path> <path fill="white" d="M0,6L3,6L3,9L0,9L0,6M6,6L9,6L9,9L6,9L6,6M3,9L6,9L6,12L3,12L3,9M9,9L12,9L12,12L9,12L9,9"></path> </pattern> <pattern y="0" x="0" height="12" width="12" patternUnits="userSpaceOnUse" id="cp5pattern"> <rect class="cp5color" height="12" width="12" y="0" x="0"></rect> <path fill="black" d="M0,0L3,0L3,3L0,3L0,0M6,0L9,0L9,3L6,3L6,0M3,3L6,3L6,6L3,6L3,3M9,3L12,3L12,6L9,6L9,3"></path> <path fill="black" d="M0,6L3,6L3,9L0,9L0,6M6,6L9,6L9,9L6,9L6,6M3,9L6,9L6,12L3,12L3,9M9,9L12,9L12,12L9,12L9,9"></path> </pattern> <pattern y="0" x="0" height="12" width="12" patternUnits="userSpaceOnUse" id="cp6pattern"> <rect class="cp6color" height="12" width="12" y="0" x="0"></rect> <path fill="white" d="M0,0L3,0L3,3L0,3L0,0M6,0L9,0L9,3L6,3L6,0M3,3L6,3L6,6L3,6L3,3M9,3L12,3L12,6L9,6L9,3"></path> <path fill="white" d="M0,6L3,6L3,9L0,9L0,6M6,6L9,6L9,9L6,9L6,6M3,9L6,9L6,12L3,12L3,9M9,9L12,9L12,12L9,12L9,9"></path> </pattern> <pattern y="0" x="0" height="12" width="12" patternUnits="userSpaceOnUse" id="cp7pattern"> <rect class="cp7color" height="12" width="12" y="0" x="0"></rect> <path fill="black" d="M0,0L3,0L3,3L0,3L0,0M6,0L9,0L9,3L6,3L6,0M3,3L6,3L6,6L3,6L3,3M9,3L12,3L12,6L9,6L9,3"></path> <path fill="black" d="M0,6L3,6L3,9L0,9L0,6M6,6L9,6L9,9L6,9L6,6M3,9L6,9L6,12L3,12L3,9M9,9L12,9L12,12L9,12L9,9"></path> </pattern> <pattern y="0" x="0" height="12" width="12" patternUnits="userSpaceOnUse" id="cp8pattern"> <rect class="cp8color" height="12" width="12" y="0" x="0"></rect> <path fill="white" d="M0,0L3,0L3,3L0,3L0,0M6,0L9,0L9,3L6,3L6,0M3,3L6,3L6,6L3,6L3,3M9,3L12,3L12,6L9,6L9,3"></path> <path fill="white" d="M0,6L3,6L3,9L0,9L0,6M6,6L9,6L9,9L6,9L6,6M3,9L6,9L6,12L3,12L3,9M9,9L12,9L12,12L9,12L9,9"></path> </pattern> <pattern y="0" x="0" height="12" width="12" patternUnits="userSpaceOnUse" id="cp9pattern"> <rect class="cp9color" height="12" width="12" y="0" x="0"></rect> <path fill="black" d="M0,0L3,0L3,3L0,3L0,0M6,0L9,0L9,3L6,3L6,0M3,3L6,3L6,6L3,6L3,3M9,3L12,3L12,6L9,6L9,3"></path> <path fill="black" d="M0,6L3,6L3,9L0,9L0,6M6,6L9,6L9,9L6,9L6,6M3,9L6,9L6,12L3,12L3,9M9,9L12,9L12,12L9,12L9,9"></path> </pattern> </defs> <rect height="100%" width="100%" y="0" x="0" class="road" id="mainfill"></rect> <g id="paths"><path class="cp1" d="M24,24L24,24L72,24L72,36L36,36L36,72L24,72Z"></path><path class="cp2" d="M372,24L372,24L420,24L420,36L372,36Z"></path><path class="cp3" d="M720,24L720,24L768,24L768,72L756,72L756,36L720,36Z"></path><path class="cp4" d="M24,432L24,432L36,432L36,468L72,468L72,480L24,480Z"></path><path class="cp5" d="M372,468L372,468L420,468L420,480L372,480Z"></path><path class="parc" d="M0,0L0,0L12,0L12,96L0,96Z"></path><path class="grass" d="M192,0L192,0L276,0L276,12L780,12L780,492L12,492L12,432L0,432L0,384L12,384L12,288L0,288L0,264L12,264L12,12L192,12L192,0M36,24L36,24L24,24L24,72L36,72L36,240L60,240L60,228L72,228L72,216L96,216L96,204L120,204L120,192L144,192L144,180L156,180L156,168L180,168L180,156L204,156L204,144L228,144L228,132L216,132L216,120L252,120L252,96L264,96L264,108L276,108L276,120L288,120L288,132L264,132L264,168L252,168L252,156L240,156L240,180L228,180L228,192L216,192L216,204L204,204L204,216L192,216L192,228L180,228L180,240L168,240L168,252L156,252L156,264L144,264L144,276L132,276L132,288L120,288L120,300L108,300L108,312L96,312L96,324L84,324L84,336L72,336L72,360L60,360L60,372L48,372L48,396L36,396L36,432L24,432L24,480L72,480L72,468L312,468L312,456L300,456L300,432L312,432L312,420L336,420L336,432L348,432L348,456L336,456L336,468L372,468L372,480L420,480L420,468L456,468L456,444L468,444L468,432L480,432L480,420L492,420L492,408L504,408L504,396L516,396L516,384L540,384L540,396L552,396L552,408L564,408L564,420L576,420L576,432L588,432L588,444L600,444L600,468L720,468L720,480L768,480L768,432L756,432L756,372L744,372L744,384L720,384L720,372L708,372L708,348L720,348L720,336L744,336L744,348L756,348L756,180L744,180L744,192L720,192L720,180L708,180L708,156L720,156L720,144L744,144L744,156L756,156L756,72L768,72L768,24L720,24L720,36L516,36L516,48L528,48L528,72L516,72L516,84L492,84L492,72L480,72L480,48L492,48L492,36L420,36L420,24L372,24L372,36L312,36L312,48L336,48L336,60L372,60L372,72L396,72L396,84L432,84L432,96L468,96L468,108L504,108L504,120L528,120L528,132L564,132L564,144L588,144L588,156L624,156L624,168L648,168L648,180L672,180L672,192L696,192L696,204L708,204L708,216L684,216L684,204L648,204L648,192L624,192L624,180L588,180L588,168L564,168L564,156L528,156L528,144L492,144L492,132L456,132L456,120L432,120L432,108L396,108L396,96L372,96L372,84L336,84L336,72L324,72L324,84L336,84L336,108L324,108L324,120L300,120L300,108L288,108L288,84L300,84L300,72L312,72L312,60L276,60L276,48L240,48L240,36L72,36L72,24L36,24M696,72L696,72L720,72L720,84L732,84L732,108L720,108L720,120L696,120L696,108L684,108L684,84L696,84L696,72M144,96L144,96L168,96L168,108L180,108L180,132L168,132L168,144L144,144L144,132L132,132L132,108L144,108L144,96M216,168L216,168L204,168L204,180L180,180L180,192L168,192L168,204L144,204L144,216L120,216L120,228L96,228L96,240L84,240L84,252L60,252L60,264L48,264L48,276L36,276L36,348L48,348L48,336L60,336L60,324L72,324L72,312L84,312L84,300L96,300L96,288L108,288L108,276L120,276L120,264L132,264L132,252L144,252L144,240L156,240L156,228L168,228L168,216L180,216L180,204L192,204L192,192L204,192L204,180L216,180L216,168M432,156L432,156L456,156L456,168L468,168L468,180L480,180L480,168L504,168L504,180L516,180L516,204L504,204L504,216L492,216L492,240L480,240L480,252L456,252L456,240L444,240L444,216L456,216L456,204L432,204L432,192L420,192L420,168L432,168L432,156M276,180L276,180L300,180L300,192L312,192L312,216L300,216L300,228L276,228L276,216L264,216L264,192L276,192L276,180M468,192L468,192L456,192L456,204L468,204L468,192M516,240L516,240L540,240L540,252L552,252L552,276L540,276L540,288L516,288L516,276L504,276L504,252L516,252L516,240M684,240L684,240L708,240L708,252L720,252L720,276L708,276L708,288L684,288L684,276L672,276L672,252L684,252L684,240M312,264L312,264L336,264L336,276L348,276L348,300L336,300L336,312L312,312L312,300L300,300L300,276L312,276L312,264M420,288L420,288L444,288L444,300L456,300L456,324L444,324L444,336L420,336L420,324L408,324L408,300L420,300L420,288M156,300L156,300L180,300L180,312L192,312L192,336L180,336L180,348L156,348L156,336L144,336L144,312L156,312L156,300M324,360L324,360L348,360L348,372L360,372L360,396L348,396L348,408L324,408L324,396L312,396L312,372L324,372L324,360M612,360L612,360L636,360L636,372L648,372L648,396L636,396L636,408L612,408L612,396L600,396L600,372L612,372L612,360M180,372L180,372L204,372L204,384L216,384L216,408L204,408L204,420L180,420L180,408L168,408L168,384L180,384L180,372M84,396L84,396L108,396L108,408L120,408L120,432L108,432L108,444L84,444L84,432L72,432L72,408L84,408L84,396M372,396L372,396L396,396L396,408L408,408L408,432L396,432L396,444L372,444L372,432L360,432L360,408L372,408L372,396M528,408L528,408L516,408L516,420L504,420L504,432L492,432L492,444L480,444L480,456L576,456L576,444L564,444L564,432L552,432L552,420L540,420L540,408Z"></path><path class="start" d="M192,252L192,252L216,252L216,264L192,264L192,252M192,264L192,264L192,288L180,288L180,264L192,264M216,264L216,264L228,264L228,288L216,288L216,264M192,288L192,288L216,288L216,300L192,300Z"></path><path class="finish" d="M756,432L756,432L768,432L768,480L720,480L720,468L756,468Z"></path></g> <rect opacity=".3" fill="url(#grid)" height="100%" width="100%" y="0" x="0"></rect></svg>