<svg height="864" width="1320" id="mapSvgView" xmlns:xlink="http://www.w3.org/1999/xlink" version="1.1" xmlns="http://www.w3.org/2000/svg"> <defs> <style type="text/css"> .grass {fill: rgb(0, 200, 0);} .road {fill: rgb(128, 128, 128);} .start {fill: url(#startPattern)} .finish {fill: url(#finishPattern)} .mud {fill: rgb(100, 70, 0);} .sand {fill: rgb(230, 230, 115);} .water {fill: blue;} .earth {fill: brown;} .night {fill: black;} .parc {fill: rgb(200, 200, 200);} .cp1color {fill: rgb(0, 102, 255);} .cp2color {fill: rgb(0, 100, 200);} .cp3color {fill: rgb(0, 255, 102);} .cp4color {fill: rgb(0, 200, 0);} .cp5color {fill: rgb(255, 255, 0);} .cp6color {fill: rgb(200, 200, 0);} .cp7color {fill: rgb(255, 0, 0);} .cp8color {fill: rgb(200, 0, 0);} .cp9color {fill: rgb(255, 0, 255);} .cp1 {fill: url(#cp1pattern);} .cp2 {fill: url(#cp2pattern);} .cp3 {fill: url(#cp3pattern);} .cp4 {fill: url(#cp4pattern);} .cp5 {fill: url(#cp5pattern);} .cp6 {fill: url(#cp6pattern);} .cp7 {fill: url(#cp7pattern);} .cp8 {fill: url(#cp8pattern);} .cp9 {fill: url(#cp9pattern);} .primaryColor {fill: rgb(0, 255, 102);} </style> <pattern y="0" x="0" height="12" width="12" patternUnits="userSpaceOnUse" id="grid"> <line stroke-width="1" stroke="black" y2="12" x2="12" y1="0" x1="12"></line> <line stroke-width="1" stroke="black" y2="12" x2="12" y1="12" x1="0"></line> </pattern> <pattern y="0" x="0" height="12" width="12" patternUnits="userSpaceOnUse" id="finishPattern"> <rect fill="black" height="12" width="12" y="0" x="0"></rect> <path fill="white" d="M0,0L3,0L3,3L0,3L0,0M6,0L9,0L9,3L6,3L6,0M3,3L6,3L6,6L3,6L3,3M9,3L12,3L12,6L9,6L9,3"></path> <path fill="white" d="M0,6L3,6L3,9L0,9L0,6M6,6L9,6L9,9L6,9L6,6M3,9L6,9L6,12L3,12L3,9M9,9L12,9L12,12L9,12L9,9"></path> </pattern> <pattern y="0" x="0" height="12" width="12" patternUnits="userSpaceOnUse" id="startPattern"> <rect fill="rgb(100,100,100)" height="12" width="12" y="0" x="0"></rect> <rect stroke-width="1" stroke="rgb(200,200,200)" fill="none" height="5" width="5" y="3.5" x="3.5"></rect> &gt; </pattern> <pattern y="0" x="0" height="12" width="12" patternUnits="userSpaceOnUse" id="cp1pattern"> <rect class="cp1color" height="12" width="12" y="0" x="0"></rect> <path fill="black" d="M0,0L3,0L3,3L0,3L0,0M6,0L9,0L9,3L6,3L6,0M3,3L6,3L6,6L3,6L3,3M9,3L12,3L12,6L9,6L9,3"></path> <path fill="black" d="M0,6L3,6L3,9L0,9L0,6M6,6L9,6L9,9L6,9L6,6M3,9L6,9L6,12L3,12L3,9M9,9L12,9L12,12L9,12L9,9"></path> </pattern> <pattern y="0" x="0" height="12" width="12" patternUnits="userSpaceOnUse" id="cp2pattern"> <rect class="cp2color" height="12" width="12" y="0" x="0"></rect> <path fill="white" d="M0,0L3,0L3,3L0,3L0,0M6,0L9,0L9,3L6,3L6,0M3,3L6,3L6,6L3,6L3,3M9,3L12,3L12,6L9,6L9,3"></path> <path fill="white" d="M0,6L3,6L3,9L0,9L0,6M6,6L9,6L9,9L6,9L6,6M3,9L6,9L6,12L3,12L3,9M9,9L12,9L12,12L9,12L9,9"></path> </pattern> <pattern y="0" x="0" height="12" width="12" patternUnits="userSpaceOnUse" id="cp3pattern"> <rect class="cp3color" height="12" width="12" y="0" x="0"></rect> <path fill="black" d="M0,0L3,0L3,3L0,3L0,0M6,0L9,0L9,3L6,3L6,0M3,3L6,3L6,6L3,6L3,3M9,3L12,3L12,6L9,6L9,3"></path> <path fill="black" d="M0,6L3,6L3,9L0,9L0,6M6,6L9,6L9,9L6,9L6,6M3,9L6,9L6,12L3,12L3,9M9,9L12,9L12,12L9,12L9,9"></path> </pattern> <pattern y="0" x="0" height="12" width="12" patternUnits="userSpaceOnUse" id="cp4pattern"> <rect class="cp4color" height="12" width="12" y="0" x="0"></rect> <path fill="white" d="M0,0L3,0L3,3L0,3L0,0M6,0L9,0L9,3L6,3L6,0M3,3L6,3L6,6L3,6L3,3M9,3L12,3L12,6L9,6L9,3"></path> <path fill="white" d="M0,6L3,6L3,9L0,9L0,6M6,6L9,6L9,9L6,9L6,6M3,9L6,9L6,12L3,12L3,9M9,9L12,9L12,12L9,12L9,9"></path> </pattern> <pattern y="0" x="0" height="12" width="12" patternUnits="userSpaceOnUse" id="cp5pattern"> <rect class="cp5color" height="12" width="12" y="0" x="0"></rect> <path fill="black" d="M0,0L3,0L3,3L0,3L0,0M6,0L9,0L9,3L6,3L6,0M3,3L6,3L6,6L3,6L3,3M9,3L12,3L12,6L9,6L9,3"></path> <path fill="black" d="M0,6L3,6L3,9L0,9L0,6M6,6L9,6L9,9L6,9L6,6M3,9L6,9L6,12L3,12L3,9M9,9L12,9L12,12L9,12L9,9"></path> </pattern> <pattern y="0" x="0" height="12" width="12" patternUnits="userSpaceOnUse" id="cp6pattern"> <rect class="cp6color" height="12" width="12" y="0" x="0"></rect> <path fill="white" d="M0,0L3,0L3,3L0,3L0,0M6,0L9,0L9,3L6,3L6,0M3,3L6,3L6,6L3,6L3,3M9,3L12,3L12,6L9,6L9,3"></path> <path fill="white" d="M0,6L3,6L3,9L0,9L0,6M6,6L9,6L9,9L6,9L6,6M3,9L6,9L6,12L3,12L3,9M9,9L12,9L12,12L9,12L9,9"></path> </pattern> <pattern y="0" x="0" height="12" width="12" patternUnits="userSpaceOnUse" id="cp7pattern"> <rect class="cp7color" height="12" width="12" y="0" x="0"></rect> <path fill="black" d="M0,0L3,0L3,3L0,3L0,0M6,0L9,0L9,3L6,3L6,0M3,3L6,3L6,6L3,6L3,3M9,3L12,3L12,6L9,6L9,3"></path> <path fill="black" d="M0,6L3,6L3,9L0,9L0,6M6,6L9,6L9,9L6,9L6,6M3,9L6,9L6,12L3,12L3,9M9,9L12,9L12,12L9,12L9,9"></path> </pattern> <pattern y="0" x="0" height="12" width="12" patternUnits="userSpaceOnUse" id="cp8pattern"> <rect class="cp8color" height="12" width="12" y="0" x="0"></rect> <path fill="white" d="M0,0L3,0L3,3L0,3L0,0M6,0L9,0L9,3L6,3L6,0M3,3L6,3L6,6L3,6L3,3M9,3L12,3L12,6L9,6L9,3"></path> <path fill="white" d="M0,6L3,6L3,9L0,9L0,6M6,6L9,6L9,9L6,9L6,6M3,9L6,9L6,12L3,12L3,9M9,9L12,9L12,12L9,12L9,9"></path> </pattern> <pattern y="0" x="0" height="12" width="12" patternUnits="userSpaceOnUse" id="cp9pattern"> <rect class="cp9color" height="12" width="12" y="0" x="0"></rect> <path fill="black" d="M0,0L3,0L3,3L0,3L0,0M6,0L9,0L9,3L6,3L6,0M3,3L6,3L6,6L3,6L3,3M9,3L12,3L12,6L9,6L9,3"></path> <path fill="black" d="M0,6L3,6L3,9L0,9L0,6M6,6L9,6L9,9L6,9L6,6M3,9L6,9L6,12L3,12L3,9M9,9L12,9L12,12L9,12L9,9"></path> </pattern> </defs> <rect height="100%" width="100%" y="0" x="0" class="grass" id="mainfill"></rect> <g id="paths"><path class="cp1" d="M120,228L120,228L192,228L192,240L120,240Z"></path><path class="cp2" d="M1032,420L1032,420L1044,420L1044,492L1032,492Z"></path><path class="parc" d="M0,0L0,0L12,0L12,96L0,96Z"></path><path class="sand" d="M336,36L336,36L372,36L372,48L384,48L384,60L408,60L408,72L372,72L372,60L336,60L336,72L300,72L300,84L276,84L276,96L240,96L240,108L192,108L192,96L228,96L228,84L252,84L252,72L276,72L276,60L300,60L300,48L336,48L336,36M408,72L408,72L420,72L420,84L408,84L408,72M420,84L420,84L432,84L432,96L420,96L420,84M192,108L192,108L192,120L180,120L180,108L192,108M516,168L516,168L540,168L540,180L516,180L516,168M540,180L540,180L552,180L552,192L564,192L564,204L576,204L576,240L564,240L564,252L552,252L552,264L540,264L540,276L528,276L528,252L540,252L540,240L552,240L552,204L540,204L540,180M96,252L96,252L108,252L108,264L96,264L96,252M96,264L96,264L96,288L84,288L84,372L96,372L96,384L108,384L108,408L96,408L96,396L84,396L84,384L72,384L72,360L60,360L60,288L72,288L72,276L84,276L84,264L96,264M852,396L852,396L996,396L996,408L1056,408L1056,420L984,420L984,408L852,408L852,396M852,408L852,408L852,420L840,420L840,408L852,408M204,408L204,408L228,408L228,420L240,420L240,432L252,432L252,480L240,480L240,504L228,504L228,540L216,540L216,528L180,528L180,516L204,516L204,504L216,504L216,480L228,480L228,432L216,432L216,420L204,420L204,408M1056,420L1056,420L1068,420L1068,432L1056,432L1056,420M132,456L132,456L156,456L156,468L132,468L132,456M132,468L132,468L132,492L120,492L120,552L132,552L132,564L144,564L144,576L156,576L156,588L132,588L132,576L120,576L120,564L108,564L108,552L96,552L96,492L108,492L108,480L120,480L120,468L132,468M1200,528L1200,528L1212,528L1212,540L1200,540L1200,528M1212,540L1212,540L1236,540L1236,552L1248,552L1248,564L1260,564L1260,576L1272,576L1272,612L1260,612L1260,624L1248,624L1248,636L1236,636L1236,648L1224,648L1224,624L1236,624L1236,612L1248,612L1248,576L1236,576L1236,564L1224,564L1224,552L1212,552L1212,540M996,588L996,588L1020,588L1020,600L1032,600L1032,612L1044,612L1044,624L1056,624L1056,636L1032,636L1032,624L984,624L984,636L972,636L972,648L960,648L960,708L948,708L948,696L936,696L936,648L948,648L948,636L960,636L960,624L972,624L972,612L984,612L984,600L996,600L996,588M528,636L528,636L540,636L540,648L552,648L552,660L564,660L564,672L528,672L528,636M420,648L420,648L456,648L456,660L468,660L468,696L480,696L480,720L504,720L504,732L540,732L540,744L480,744L480,732L468,732L468,708L456,708L456,684L444,684L444,672L432,672L432,660L420,660L420,648M1164,720L1164,720L1176,720L1176,744L1164,744L1164,756L1140,756L1140,768L1104,768L1104,756L1080,756L1080,744L1068,744L1068,732L1092,732L1092,744L1152,744L1152,732L1164,732L1164,720M1008,768L1008,768L1020,768L1020,792L1008,792L1008,804L996,804L996,816L924,816L924,804L900,804L900,792L996,792L996,780L1008,780Z"></path><path class="road" d="M336,60L336,60L372,60L372,72L408,72L408,84L420,84L420,96L444,96L444,108L456,108L456,120L468,120L468,132L480,132L480,144L492,144L492,156L504,156L504,168L516,168L516,180L540,180L540,204L552,204L552,240L540,240L540,252L528,252L528,276L540,276L540,312L552,312L552,324L564,324L564,336L576,336L576,348L588,348L588,360L600,360L600,372L612,372L612,384L624,384L624,396L636,396L636,408L660,408L660,420L684,420L684,432L720,432L720,444L816,444L816,432L840,432L840,420L852,420L852,408L984,408L984,420L1032,420L1032,480L936,480L936,468L888,468L888,480L864,480L864,492L852,492L852,504L816,504L816,516L720,516L720,504L684,504L684,492L660,492L660,480L636,480L636,468L612,468L612,456L588,456L588,444L576,444L576,432L564,432L564,420L552,420L552,396L540,396L540,384L528,384L528,372L504,372L504,348L492,348L492,336L480,336L480,300L468,300L468,228L480,228L480,216L468,216L468,204L456,204L456,192L444,192L444,180L420,180L420,168L408,168L408,156L396,156L396,144L384,144L384,132L324,132L324,144L300,144L300,156L276,156L276,168L228,168L228,192L216,192L216,204L204,204L204,216L192,216L192,228L132,228L132,192L144,192L144,168L156,168L156,156L168,156L168,132L180,132L180,120L192,120L192,108L240,108L240,96L276,96L276,84L300,84L300,72L336,72L336,60M912,72L912,72L948,72L948,84L924,84L924,96L936,96L936,108L924,108L924,132L912,132L912,72M984,72L984,72L996,72L996,132L984,132L984,96L972,96L972,84L984,84L984,72M1080,72L1080,72L1116,72L1116,132L1104,132L1104,108L1092,108L1092,132L1080,132L1080,72M1104,84L1104,84L1092,84L1092,96L1104,96L1104,84M1128,72L1128,72L1140,72L1140,120L1152,120L1152,72L1164,72L1164,132L1128,132L1128,72M1176,72L1176,72L1212,72L1212,84L1188,84L1188,96L1212,96L1212,132L1176,132L1176,120L1200,120L1200,108L1176,108L1176,72M972,96L972,96L972,108L960,108L960,96L972,96M1020,96L1020,96L1056,96L1056,108L1020,108L1020,96M108,240L108,240L192,240L192,252L180,252L180,264L168,264L168,288L156,288L156,312L144,312L144,348L156,348L156,372L168,372L168,384L180,384L180,396L192,396L192,408L204,408L204,420L216,420L216,432L228,432L228,480L216,480L216,504L204,504L204,516L180,516L180,528L216,528L216,540L252,540L252,552L288,552L288,564L312,564L312,576L408,576L408,588L480,588L480,600L504,600L504,612L516,612L516,636L528,636L528,672L624,672L624,684L696,684L696,696L708,696L708,756L660,756L660,744L588,744L588,732L504,732L504,720L480,720L480,696L468,696L468,660L456,660L456,648L360,648L360,636L300,636L300,624L252,624L252,612L228,612L228,600L192,600L192,588L156,588L156,576L144,576L144,564L132,564L132,552L120,552L120,492L132,492L132,468L156,468L156,444L144,444L144,432L132,432L132,420L120,420L120,408L108,408L108,384L96,384L96,372L84,372L84,288L96,288L96,264L108,264L108,240M1044,420L1044,420L1056,420L1056,432L1080,432L1080,444L1092,444L1092,456L1104,456L1104,468L1128,468L1128,480L1140,480L1140,492L1164,492L1164,504L1176,504L1176,516L1188,516L1188,528L1200,528L1200,540L1212,540L1212,552L1224,552L1224,564L1236,564L1236,576L1248,576L1248,612L1236,612L1236,624L1224,624L1224,648L1212,648L1212,672L1200,672L1200,684L1188,684L1188,708L1176,708L1176,720L1164,720L1164,732L1152,732L1152,744L1092,744L1092,732L1068,732L1068,720L1044,720L1044,708L1020,708L1020,768L1008,768L1008,780L996,780L996,792L888,792L888,780L816,780L816,768L732,768L732,756L720,756L720,696L768,696L768,708L756,708L756,720L744,720L744,708L732,708L732,720L744,720L744,732L732,732L732,744L744,744L744,732L756,732L756,720L768,720L768,708L840,708L840,720L924,720L924,732L960,732L960,648L972,648L972,636L984,636L984,624L1032,624L1032,636L1056,636L1056,648L1068,648L1068,660L1092,660L1092,672L1116,672L1116,684L1128,684L1128,660L1140,660L1140,648L1152,648L1152,624L1164,624L1164,600L1176,600L1176,588L1164,588L1164,576L1152,576L1152,564L1128,564L1128,552L1116,552L1116,540L1104,540L1104,528L1080,528L1080,516L1068,516L1068,504L1044,504L1044,420M780,720L780,720L768,720L768,732L756,732L756,744L744,744L744,756L756,756L756,744L768,744L768,732L780,732L780,720M780,744L780,744L768,744L768,756L780,756Z"></path><path class="finish" d="M708,696L708,696L720,696L720,756L708,756Z"></path><path class="start" d="M732,708L732,708L744,708L744,720L732,720L732,708M744,720L744,720L756,720L756,708L768,708L768,720L756,720L756,732L744,732L744,720M768,720L768,720L780,720L780,732L768,732L768,720M756,732L756,732L768,732L768,744L756,744L756,732M744,732L744,732L744,744L732,744L732,732L744,732M744,744L744,744L756,744L756,756L744,756L744,744M768,744L768,744L780,744L780,756L768,756Z"></path></g> <rect opacity=".3" fill="url(#grid)" height="100%" width="100%" y="0" x="0"></rect></svg>