<svg height="756" width="1080" id="mapSvgView" xmlns:xlink="http://www.w3.org/1999/xlink" version="1.1" xmlns="http://www.w3.org/2000/svg"> <defs> <style type="text/css"> .grass {fill: rgb(0, 200, 0);} .road {fill: rgb(128, 128, 128);} .start {fill: url(#startPattern)} .finish {fill: url(#finishPattern)} .mud {fill: rgb(100, 70, 0);} .sand {fill: rgb(230, 230, 115);} .water {fill: blue;} .earth {fill: brown;} .night {fill: black;} .parc {fill: rgb(200, 200, 200);} .cp1color {fill: rgb(0, 102, 255);} .cp2color {fill: rgb(0, 100, 200);} .cp3color {fill: rgb(0, 255, 102);} .cp4color {fill: rgb(0, 200, 0);} .cp5color {fill: rgb(255, 255, 0);} .cp6color {fill: rgb(200, 200, 0);} .cp7color {fill: rgb(255, 0, 0);} .cp8color {fill: rgb(200, 0, 0);} .cp9color {fill: rgb(255, 0, 255);} .cp1 {fill: url(#cp1pattern);} .cp2 {fill: url(#cp2pattern);} .cp3 {fill: url(#cp3pattern);} .cp4 {fill: url(#cp4pattern);} .cp5 {fill: url(#cp5pattern);} .cp6 {fill: url(#cp6pattern);} .cp7 {fill: url(#cp7pattern);} .cp8 {fill: url(#cp8pattern);} .cp9 {fill: url(#cp9pattern);} .primaryColor {fill: rgb(0, 255, 102);} </style> <pattern y="0" x="0" height="12" width="12" patternUnits="userSpaceOnUse" id="grid"> <line stroke-width="1" stroke="black" y2="12" x2="12" y1="0" x1="12"></line> <line stroke-width="1" stroke="black" y2="12" x2="12" y1="12" x1="0"></line> </pattern> <pattern y="0" x="0" height="12" width="12" patternUnits="userSpaceOnUse" id="finishPattern"> <rect fill="black" height="12" width="12" y="0" x="0"></rect> <path fill="white" d="M0,0L3,0L3,3L0,3L0,0M6,0L9,0L9,3L6,3L6,0M3,3L6,3L6,6L3,6L3,3M9,3L12,3L12,6L9,6L9,3"></path> <path fill="white" d="M0,6L3,6L3,9L0,9L0,6M6,6L9,6L9,9L6,9L6,6M3,9L6,9L6,12L3,12L3,9M9,9L12,9L12,12L9,12L9,9"></path> </pattern> <pattern y="0" x="0" height="12" width="12" patternUnits="userSpaceOnUse" id="startPattern"> <rect fill="rgb(100,100,100)" height="12" width="12" y="0" x="0"></rect> <rect stroke-width="1" stroke="rgb(200,200,200)" fill="none" height="5" width="5" y="3.5" x="3.5"></rect> &gt; </pattern> <pattern y="0" x="0" height="12" width="12" patternUnits="userSpaceOnUse" id="cp1pattern"> <rect class="cp1color" height="12" width="12" y="0" x="0"></rect> <path fill="black" d="M0,0L3,0L3,3L0,3L0,0M6,0L9,0L9,3L6,3L6,0M3,3L6,3L6,6L3,6L3,3M9,3L12,3L12,6L9,6L9,3"></path> <path fill="black" d="M0,6L3,6L3,9L0,9L0,6M6,6L9,6L9,9L6,9L6,6M3,9L6,9L6,12L3,12L3,9M9,9L12,9L12,12L9,12L9,9"></path> </pattern> <pattern y="0" x="0" height="12" width="12" patternUnits="userSpaceOnUse" id="cp2pattern"> <rect class="cp2color" height="12" width="12" y="0" x="0"></rect> <path fill="white" d="M0,0L3,0L3,3L0,3L0,0M6,0L9,0L9,3L6,3L6,0M3,3L6,3L6,6L3,6L3,3M9,3L12,3L12,6L9,6L9,3"></path> <path fill="white" d="M0,6L3,6L3,9L0,9L0,6M6,6L9,6L9,9L6,9L6,6M3,9L6,9L6,12L3,12L3,9M9,9L12,9L12,12L9,12L9,9"></path> </pattern> <pattern y="0" x="0" height="12" width="12" patternUnits="userSpaceOnUse" id="cp3pattern"> <rect class="cp3color" height="12" width="12" y="0" x="0"></rect> <path fill="black" d="M0,0L3,0L3,3L0,3L0,0M6,0L9,0L9,3L6,3L6,0M3,3L6,3L6,6L3,6L3,3M9,3L12,3L12,6L9,6L9,3"></path> <path fill="black" d="M0,6L3,6L3,9L0,9L0,6M6,6L9,6L9,9L6,9L6,6M3,9L6,9L6,12L3,12L3,9M9,9L12,9L12,12L9,12L9,9"></path> </pattern> <pattern y="0" x="0" height="12" width="12" patternUnits="userSpaceOnUse" id="cp4pattern"> <rect class="cp4color" height="12" width="12" y="0" x="0"></rect> <path fill="white" d="M0,0L3,0L3,3L0,3L0,0M6,0L9,0L9,3L6,3L6,0M3,3L6,3L6,6L3,6L3,3M9,3L12,3L12,6L9,6L9,3"></path> <path fill="white" d="M0,6L3,6L3,9L0,9L0,6M6,6L9,6L9,9L6,9L6,6M3,9L6,9L6,12L3,12L3,9M9,9L12,9L12,12L9,12L9,9"></path> </pattern> <pattern y="0" x="0" height="12" width="12" patternUnits="userSpaceOnUse" id="cp5pattern"> <rect class="cp5color" height="12" width="12" y="0" x="0"></rect> <path fill="black" d="M0,0L3,0L3,3L0,3L0,0M6,0L9,0L9,3L6,3L6,0M3,3L6,3L6,6L3,6L3,3M9,3L12,3L12,6L9,6L9,3"></path> <path fill="black" d="M0,6L3,6L3,9L0,9L0,6M6,6L9,6L9,9L6,9L6,6M3,9L6,9L6,12L3,12L3,9M9,9L12,9L12,12L9,12L9,9"></path> </pattern> <pattern y="0" x="0" height="12" width="12" patternUnits="userSpaceOnUse" id="cp6pattern"> <rect class="cp6color" height="12" width="12" y="0" x="0"></rect> <path fill="white" d="M0,0L3,0L3,3L0,3L0,0M6,0L9,0L9,3L6,3L6,0M3,3L6,3L6,6L3,6L3,3M9,3L12,3L12,6L9,6L9,3"></path> <path fill="white" d="M0,6L3,6L3,9L0,9L0,6M6,6L9,6L9,9L6,9L6,6M3,9L6,9L6,12L3,12L3,9M9,9L12,9L12,12L9,12L9,9"></path> </pattern> <pattern y="0" x="0" height="12" width="12" patternUnits="userSpaceOnUse" id="cp7pattern"> <rect class="cp7color" height="12" width="12" y="0" x="0"></rect> <path fill="black" d="M0,0L3,0L3,3L0,3L0,0M6,0L9,0L9,3L6,3L6,0M3,3L6,3L6,6L3,6L3,3M9,3L12,3L12,6L9,6L9,3"></path> <path fill="black" d="M0,6L3,6L3,9L0,9L0,6M6,6L9,6L9,9L6,9L6,6M3,9L6,9L6,12L3,12L3,9M9,9L12,9L12,12L9,12L9,9"></path> </pattern> <pattern y="0" x="0" height="12" width="12" patternUnits="userSpaceOnUse" id="cp8pattern"> <rect class="cp8color" height="12" width="12" y="0" x="0"></rect> <path fill="white" d="M0,0L3,0L3,3L0,3L0,0M6,0L9,0L9,3L6,3L6,0M3,3L6,3L6,6L3,6L3,3M9,3L12,3L12,6L9,6L9,3"></path> <path fill="white" d="M0,6L3,6L3,9L0,9L0,6M6,6L9,6L9,9L6,9L6,6M3,9L6,9L6,12L3,12L3,9M9,9L12,9L12,12L9,12L9,9"></path> </pattern> <pattern y="0" x="0" height="12" width="12" patternUnits="userSpaceOnUse" id="cp9pattern"> <rect class="cp9color" height="12" width="12" y="0" x="0"></rect> <path fill="black" d="M0,0L3,0L3,3L0,3L0,0M6,0L9,0L9,3L6,3L6,0M3,3L6,3L6,6L3,6L3,3M9,3L12,3L12,6L9,6L9,3"></path> <path fill="black" d="M0,6L3,6L3,9L0,9L0,6M6,6L9,6L9,9L6,9L6,6M3,9L6,9L6,12L3,12L3,9M9,9L12,9L12,12L9,12L9,9"></path> </pattern> </defs> <rect height="100%" width="100%" y="0" x="0" class="grass" id="mainfill"></rect> <g id="paths"><path class="cp1" d="M804,216L804,216L816,216L816,228L804,228L804,216M804,228L804,228L804,240L792,240L792,228L804,228M804,240L804,240L816,240L816,252L804,252L804,240M804,252L804,252L804,264L792,264L792,252Z"></path><path class="cp2" d="M864,564L864,564L876,564L876,576L864,576L864,564M876,576L876,576L888,576L888,588L876,588L876,576M876,588L876,588L876,600L864,600L864,588L876,588M876,600L876,600L888,600L888,612L876,612Z"></path><path class="cp3" d="M288,684L288,684L300,684L300,696L288,696L288,684M288,696L288,696L288,708L276,708L276,696L288,696M288,708L288,708L300,708L300,720L288,720L288,708M288,720L288,720L288,732L276,732L276,720Z"></path><path class="parc" d="M0,0L0,0L12,0L12,96L0,96Z"></path><path class="sand" d="M480,0L480,0L552,0L552,12L492,12L492,24L480,24L480,48L468,48L468,84L456,84L456,96L444,96L444,48L456,48L456,36L468,36L468,12L480,12L480,0M600,12L600,12L636,12L636,24L648,24L648,48L660,48L660,108L648,108L648,72L636,72L636,60L624,60L624,36L612,36L612,24L600,24L600,12M504,96L504,96L540,96L540,108L516,108L516,132L504,132L504,180L516,180L516,192L528,192L528,204L540,204L540,216L564,216L564,228L552,228L552,240L516,240L516,228L504,228L504,216L492,216L492,204L480,204L480,144L492,144L492,120L504,120L504,96M888,132L888,132L996,132L996,144L1008,144L1008,168L1020,168L1020,240L1008,240L1008,252L984,252L984,264L888,264L888,252L912,252L912,240L948,240L948,228L984,228L984,216L996,216L996,192L984,192L984,168L960,168L960,156L900,156L900,144L888,144L888,132M540,144L540,144L564,144L564,156L624,156L624,168L540,168L540,144M624,252L624,252L648,252L648,264L636,264L636,288L624,288L624,348L636,348L636,372L648,372L648,384L624,384L624,360L612,360L612,348L600,348L600,300L612,300L612,264L624,264L624,252M708,408L708,408L732,408L732,420L744,420L744,516L732,516L732,528L696,528L696,516L720,516L720,492L732,492L732,456L720,456L720,420L708,420L708,408M936,456L936,456L1020,456L1020,468L1032,468L1032,480L1044,480L1044,492L1056,492L1056,504L1068,504L1068,612L1056,612L1056,636L1044,636L1044,660L1032,660L1032,684L1008,684L1008,696L996,696L996,708L912,708L912,696L984,696L984,672L996,672L996,660L1008,660L1008,648L1020,648L1020,624L1032,624L1032,600L1044,600L1044,528L1032,528L1032,504L1020,504L1020,492L1008,492L1008,480L936,480L936,492L924,492L924,504L912,504L912,480L924,480L924,468L936,468L936,456M552,480L552,480L576,480L576,492L564,492L564,504L552,504L552,540L540,540L540,564L552,564L552,588L576,588L576,600L600,600L600,612L648,612L648,624L564,624L564,612L540,612L540,600L528,600L528,588L516,588L516,528L528,528L528,516L540,516L540,492L552,492L552,480M360,504L360,504L372,504L372,588L360,588L360,636L348,636L348,648L312,648L312,660L264,660L264,648L288,648L288,636L324,636L324,612L336,612L336,576L348,576L348,552L360,552L360,504M960,528L960,528L984,528L984,540L996,540L996,588L984,588L984,612L960,612L960,528M108,576L108,576L132,576L132,588L156,588L156,600L120,600L120,612L60,612L60,624L36,624L36,636L24,636L24,708L12,708L12,696L0,696L0,636L12,636L12,624L24,624L24,612L36,612L36,600L48,600L48,588L108,588Z"></path><path class="road" d="M492,12L492,12L600,12L600,24L612,24L612,36L624,36L624,60L636,60L636,72L648,72L648,132L636,132L636,144L612,144L612,156L564,156L564,144L540,144L540,168L624,168L624,156L672,156L672,144L756,144L756,132L864,132L864,144L900,144L900,156L960,156L960,168L984,168L984,192L996,192L996,216L984,216L984,228L948,228L948,240L912,240L912,252L840,252L840,264L804,264L804,252L792,252L792,264L696,264L696,288L684,288L684,300L672,300L672,336L684,336L684,360L696,360L696,396L708,396L708,420L720,420L720,456L732,456L732,492L720,492L720,516L696,516L696,528L672,528L672,540L600,540L600,552L624,552L624,564L864,564L864,576L876,576L876,564L912,564L912,504L924,504L924,492L936,492L936,480L1008,480L1008,492L1020,492L1020,504L1032,504L1032,528L1044,528L1044,600L1032,600L1032,624L1020,624L1020,648L1008,648L1008,660L996,660L996,672L984,672L984,696L888,696L888,708L576,708L576,720L312,720L312,732L288,732L288,720L276,720L276,732L48,732L48,720L24,720L24,636L36,636L36,624L60,624L60,612L120,612L120,600L276,600L276,588L288,588L288,564L300,564L300,540L312,540L312,504L324,504L324,468L336,468L336,420L348,420L348,396L360,396L360,360L372,360L372,348L384,348L384,336L372,336L372,324L384,324L384,312L396,312L396,300L384,300L384,288L444,288L444,300L432,300L432,312L420,312L420,300L408,300L408,312L396,312L396,324L384,324L384,336L396,336L396,324L408,324L408,312L420,312L420,324L408,324L408,336L396,336L396,348L408,348L408,336L420,336L420,324L432,324L432,336L420,336L420,360L408,360L408,408L396,408L396,432L384,432L384,480L372,480L372,504L360,504L360,552L348,552L348,576L336,576L336,612L324,612L324,636L288,636L288,648L108,648L108,660L72,660L72,684L288,684L288,696L276,696L276,708L288,708L288,696L300,696L300,672L564,672L564,660L828,660L828,648L948,648L948,636L960,636L960,624L972,624L972,612L984,612L984,588L996,588L996,540L984,540L984,528L960,528L960,600L936,600L936,612L888,612L888,600L876,600L876,588L864,588L864,600L876,600L876,612L600,612L600,600L576,600L576,588L552,588L552,564L540,564L540,540L552,540L552,504L564,504L564,492L660,492L660,480L684,480L684,468L672,468L672,432L660,432L660,420L648,420L648,372L636,372L636,348L624,348L624,288L636,288L636,264L648,264L648,252L660,252L660,228L672,228L672,216L804,216L804,228L792,228L792,240L804,240L804,228L816,228L816,216L900,216L900,204L924,204L924,192L864,192L864,180L768,180L768,192L696,192L696,204L636,204L636,216L540,216L540,204L528,204L528,192L516,192L516,180L504,180L504,132L516,132L516,108L600,108L600,84L588,84L588,72L576,72L576,60L516,60L516,96L504,96L504,120L492,120L492,144L480,144L480,192L468,192L468,228L456,228L456,264L444,264L444,276L396,276L396,252L408,252L408,216L420,216L420,180L432,180L432,144L444,144L444,108L456,108L456,84L468,84L468,48L480,48L480,24L492,24L492,12M36,156L36,156L72,156L72,168L48,168L48,180L60,180L60,192L48,192L48,216L36,216L36,156M108,156L108,156L120,156L120,216L108,216L108,180L96,180L96,168L108,168L108,156M96,180L96,180L96,192L84,192L84,180L96,180M816,240L816,240L804,240L804,252L816,252L816,240M36,240L36,240L72,240L72,252L48,252L48,264L72,264L72,300L36,300L36,288L60,288L60,276L36,276L36,240M84,240L84,240L96,240L96,264L108,264L108,240L120,240L120,300L108,300L108,276L96,276L96,300L84,300L84,240M132,240L132,240L168,240L168,300L156,300L156,276L144,276L144,300L132,300L132,240M156,252L156,252L144,252L144,264L156,264L156,252M888,576L888,576L876,576L876,588L888,588L888,576M300,708L300,708L288,708L288,720L300,720Z"></path><path class="finish" d="M396,276L396,276L444,276L444,288L396,288Z"></path><path class="start" d="M384,300L384,300L396,300L396,312L384,312L384,300M396,312L396,312L408,312L408,300L420,300L420,312L408,312L408,324L396,324L396,312M420,312L420,312L432,312L432,324L420,324L420,312M408,324L408,324L420,324L420,336L408,336L408,324M396,324L396,324L396,336L384,336L384,324L396,324M396,336L396,336L408,336L408,348L396,348L396,336M384,336L384,336L384,348L372,348L372,336Z"></path></g> <rect opacity=".3" fill="url(#grid)" height="100%" width="100%" y="0" x="0"></rect></svg>