<svg height="600" width="996" id="mapSvgView" xmlns:xlink="http://www.w3.org/1999/xlink" version="1.1" xmlns="http://www.w3.org/2000/svg"> <defs> <style type="text/css"> .grass {fill: rgb(0, 200, 0);} .road {fill: rgb(128, 128, 128);} .start {fill: url(#startPattern)} .finish {fill: url(#finishPattern)} .mud {fill: rgb(100, 70, 0);} .sand {fill: rgb(230, 230, 115);} .water {fill: blue;} .earth {fill: brown;} .night {fill: black;} .parc {fill: rgb(200, 200, 200);} .cp1color {fill: rgb(0, 102, 255);} .cp2color {fill: rgb(0, 100, 200);} .cp3color {fill: rgb(0, 255, 102);} .cp4color {fill: rgb(0, 200, 0);} .cp5color {fill: rgb(255, 255, 0);} .cp6color {fill: rgb(200, 200, 0);} .cp7color {fill: rgb(255, 0, 0);} .cp8color {fill: rgb(200, 0, 0);} .cp9color {fill: rgb(255, 0, 255);} .cp1 {fill: url(#cp1pattern);} .cp2 {fill: url(#cp2pattern);} .cp3 {fill: url(#cp3pattern);} .cp4 {fill: url(#cp4pattern);} .cp5 {fill: url(#cp5pattern);} .cp6 {fill: url(#cp6pattern);} .cp7 {fill: url(#cp7pattern);} .cp8 {fill: url(#cp8pattern);} .cp9 {fill: url(#cp9pattern);} .primaryColor {fill: rgb(0, 255, 102);} </style> <pattern y="0" x="0" height="12" width="12" patternUnits="userSpaceOnUse" id="grid"> <line stroke-width="1" stroke="black" y2="12" x2="12" y1="0" x1="12"></line> <line stroke-width="1" stroke="black" y2="12" x2="12" y1="12" x1="0"></line> </pattern> <pattern y="0" x="0" height="12" width="12" patternUnits="userSpaceOnUse" id="finishPattern"> <rect fill="black" height="12" width="12" y="0" x="0"></rect> <path fill="white" d="M0,0L3,0L3,3L0,3L0,0M6,0L9,0L9,3L6,3L6,0M3,3L6,3L6,6L3,6L3,3M9,3L12,3L12,6L9,6L9,3"></path> <path fill="white" d="M0,6L3,6L3,9L0,9L0,6M6,6L9,6L9,9L6,9L6,6M3,9L6,9L6,12L3,12L3,9M9,9L12,9L12,12L9,12L9,9"></path> </pattern> <pattern y="0" x="0" height="12" width="12" patternUnits="userSpaceOnUse" id="startPattern"> <rect fill="rgb(100,100,100)" height="12" width="12" y="0" x="0"></rect> <rect stroke-width="1" stroke="rgb(200,200,200)" fill="none" height="5" width="5" y="3.5" x="3.5"></rect> &gt; </pattern> <pattern y="0" x="0" height="12" width="12" patternUnits="userSpaceOnUse" id="cp1pattern"> <rect class="cp1color" height="12" width="12" y="0" x="0"></rect> <path fill="black" d="M0,0L3,0L3,3L0,3L0,0M6,0L9,0L9,3L6,3L6,0M3,3L6,3L6,6L3,6L3,3M9,3L12,3L12,6L9,6L9,3"></path> <path fill="black" d="M0,6L3,6L3,9L0,9L0,6M6,6L9,6L9,9L6,9L6,6M3,9L6,9L6,12L3,12L3,9M9,9L12,9L12,12L9,12L9,9"></path> </pattern> <pattern y="0" x="0" height="12" width="12" patternUnits="userSpaceOnUse" id="cp2pattern"> <rect class="cp2color" height="12" width="12" y="0" x="0"></rect> <path fill="white" d="M0,0L3,0L3,3L0,3L0,0M6,0L9,0L9,3L6,3L6,0M3,3L6,3L6,6L3,6L3,3M9,3L12,3L12,6L9,6L9,3"></path> <path fill="white" d="M0,6L3,6L3,9L0,9L0,6M6,6L9,6L9,9L6,9L6,6M3,9L6,9L6,12L3,12L3,9M9,9L12,9L12,12L9,12L9,9"></path> </pattern> <pattern y="0" x="0" height="12" width="12" patternUnits="userSpaceOnUse" id="cp3pattern"> <rect class="cp3color" height="12" width="12" y="0" x="0"></rect> <path fill="black" d="M0,0L3,0L3,3L0,3L0,0M6,0L9,0L9,3L6,3L6,0M3,3L6,3L6,6L3,6L3,3M9,3L12,3L12,6L9,6L9,3"></path> <path fill="black" d="M0,6L3,6L3,9L0,9L0,6M6,6L9,6L9,9L6,9L6,6M3,9L6,9L6,12L3,12L3,9M9,9L12,9L12,12L9,12L9,9"></path> </pattern> <pattern y="0" x="0" height="12" width="12" patternUnits="userSpaceOnUse" id="cp4pattern"> <rect class="cp4color" height="12" width="12" y="0" x="0"></rect> <path fill="white" d="M0,0L3,0L3,3L0,3L0,0M6,0L9,0L9,3L6,3L6,0M3,3L6,3L6,6L3,6L3,3M9,3L12,3L12,6L9,6L9,3"></path> <path fill="white" d="M0,6L3,6L3,9L0,9L0,6M6,6L9,6L9,9L6,9L6,6M3,9L6,9L6,12L3,12L3,9M9,9L12,9L12,12L9,12L9,9"></path> </pattern> <pattern y="0" x="0" height="12" width="12" patternUnits="userSpaceOnUse" id="cp5pattern"> <rect class="cp5color" height="12" width="12" y="0" x="0"></rect> <path fill="black" d="M0,0L3,0L3,3L0,3L0,0M6,0L9,0L9,3L6,3L6,0M3,3L6,3L6,6L3,6L3,3M9,3L12,3L12,6L9,6L9,3"></path> <path fill="black" d="M0,6L3,6L3,9L0,9L0,6M6,6L9,6L9,9L6,9L6,6M3,9L6,9L6,12L3,12L3,9M9,9L12,9L12,12L9,12L9,9"></path> </pattern> <pattern y="0" x="0" height="12" width="12" patternUnits="userSpaceOnUse" id="cp6pattern"> <rect class="cp6color" height="12" width="12" y="0" x="0"></rect> <path fill="white" d="M0,0L3,0L3,3L0,3L0,0M6,0L9,0L9,3L6,3L6,0M3,3L6,3L6,6L3,6L3,3M9,3L12,3L12,6L9,6L9,3"></path> <path fill="white" d="M0,6L3,6L3,9L0,9L0,6M6,6L9,6L9,9L6,9L6,6M3,9L6,9L6,12L3,12L3,9M9,9L12,9L12,12L9,12L9,9"></path> </pattern> <pattern y="0" x="0" height="12" width="12" patternUnits="userSpaceOnUse" id="cp7pattern"> <rect class="cp7color" height="12" width="12" y="0" x="0"></rect> <path fill="black" d="M0,0L3,0L3,3L0,3L0,0M6,0L9,0L9,3L6,3L6,0M3,3L6,3L6,6L3,6L3,3M9,3L12,3L12,6L9,6L9,3"></path> <path fill="black" d="M0,6L3,6L3,9L0,9L0,6M6,6L9,6L9,9L6,9L6,6M3,9L6,9L6,12L3,12L3,9M9,9L12,9L12,12L9,12L9,9"></path> </pattern> <pattern y="0" x="0" height="12" width="12" patternUnits="userSpaceOnUse" id="cp8pattern"> <rect class="cp8color" height="12" width="12" y="0" x="0"></rect> <path fill="white" d="M0,0L3,0L3,3L0,3L0,0M6,0L9,0L9,3L6,3L6,0M3,3L6,3L6,6L3,6L3,3M9,3L12,3L12,6L9,6L9,3"></path> <path fill="white" d="M0,6L3,6L3,9L0,9L0,6M6,6L9,6L9,9L6,9L6,6M3,9L6,9L6,12L3,12L3,9M9,9L12,9L12,12L9,12L9,9"></path> </pattern> <pattern y="0" x="0" height="12" width="12" patternUnits="userSpaceOnUse" id="cp9pattern"> <rect class="cp9color" height="12" width="12" y="0" x="0"></rect> <path fill="black" d="M0,0L3,0L3,3L0,3L0,0M6,0L9,0L9,3L6,3L6,0M3,3L6,3L6,6L3,6L3,3M9,3L12,3L12,6L9,6L9,3"></path> <path fill="black" d="M0,6L3,6L3,9L0,9L0,6M6,6L9,6L9,9L6,9L6,6M3,9L6,9L6,12L3,12L3,9M9,9L12,9L12,12L9,12L9,9"></path> </pattern> </defs> <rect height="100%" width="100%" y="0" x="0" class="grass" id="mainfill"></rect> <g id="paths"><path class="cp1" d="M888,132L888,132L924,132L924,144L888,144Z"></path><path class="cp2" d="M432,60L432,60L444,60L444,108L432,108Z"></path><path class="cp3" d="M336,228L336,228L348,228L348,276L336,276Z"></path><path class="cp4" d="M420,384L420,384L444,384L444,396L432,396L432,408L420,408L420,420L396,420L396,408L408,408L408,396L420,396Z"></path><path class="cp5" d="M12,420L12,420L60,420L60,432L12,432Z"></path><path class="parc" d="M0,0L0,0L12,0L12,96L0,96Z"></path><path class="sand" d="M732,12L732,12L852,12L852,24L828,24L828,36L720,36L720,24L732,24L732,12M852,60L852,60L888,60L888,72L900,72L900,96L876,96L876,84L864,84L864,72L852,72L852,60M168,84L168,84L228,84L228,96L192,96L192,108L180,108L180,120L168,120L168,132L156,132L156,216L168,216L168,240L144,240L144,228L132,228L132,204L120,204L120,144L132,144L132,120L144,120L144,108L156,108L156,96L168,96L168,84M936,108L936,108L948,108L948,132L960,132L960,156L948,156L948,144L924,144L924,120L936,120L936,108M240,132L240,132L252,132L252,156L228,156L228,180L216,180L216,192L228,192L228,204L252,204L252,228L240,228L240,216L216,216L216,204L204,204L204,168L216,168L216,144L240,144L240,132M900,180L900,180L912,180L912,192L924,192L924,240L912,240L912,252L900,252L900,180M960,240L960,240L972,240L972,264L984,264L984,300L972,300L972,312L960,312L960,324L948,324L948,336L924,336L924,348L888,348L888,360L864,360L864,348L876,348L876,336L900,336L900,324L924,324L924,312L936,312L936,300L948,300L948,288L960,288L960,240M48,252L48,252L156,252L156,264L180,264L180,276L216,276L216,288L240,288L240,300L264,300L264,324L252,324L252,312L228,312L228,300L204,300L204,288L168,288L168,276L60,276L60,288L48,288L48,300L36,300L36,324L24,324L24,372L12,372L12,288L24,288L24,276L36,276L36,264L48,264L48,252M576,252L576,252L624,252L624,264L648,264L648,276L660,276L660,300L672,300L672,312L684,312L684,348L672,348L672,360L660,360L660,372L648,372L648,384L624,384L624,372L636,372L636,336L624,336L624,276L600,276L600,264L576,264L576,252M384,396L384,396L396,396L396,432L408,432L408,456L420,456L420,468L468,468L468,456L480,456L480,480L396,480L396,468L384,468L384,456L360,456L360,444L348,444L348,432L360,432L360,420L372,420L372,408L384,408L384,396M216,432L216,432L252,432L252,444L264,444L264,456L252,456L252,468L204,468L204,480L180,480L180,468L192,468L192,456L216,456L216,432M36,504L36,504L48,504L48,528L60,528L60,552L72,552L72,564L84,564L84,576L96,576L96,588L72,588L72,576L60,576L60,564L48,564L48,540L36,540Z"></path><path class="road" d="M828,24L828,24L912,24L912,36L924,36L924,48L936,48L936,72L948,72L948,108L936,108L936,120L924,120L924,132L888,132L888,96L900,96L900,72L888,72L888,60L852,60L852,72L756,72L756,84L636,84L636,96L540,96L540,108L444,108L444,60L552,60L552,48L672,48L672,36L828,36L828,24M408,60L408,60L432,60L432,108L396,108L396,120L300,120L300,132L240,132L240,144L216,144L216,168L204,168L204,204L216,204L216,216L240,216L240,228L336,228L336,276L228,276L228,264L192,264L192,252L180,252L180,240L168,240L168,216L156,216L156,132L168,132L168,120L180,120L180,108L192,108L192,96L228,96L228,84L252,84L252,72L408,72L408,60M888,144L888,144L948,144L948,156L960,156L960,288L948,288L948,300L936,300L936,312L924,312L924,324L900,324L900,336L876,336L876,348L864,348L864,360L840,360L840,372L828,372L828,384L804,384L804,396L780,396L780,408L768,408L768,420L744,420L744,432L732,432L732,420L720,420L720,396L708,396L708,372L720,372L720,360L744,360L744,348L768,348L768,336L780,336L780,324L804,324L804,312L816,312L816,300L840,300L840,288L864,288L864,276L876,276L876,264L900,264L900,252L912,252L912,240L924,240L924,192L912,192L912,180L900,180L900,168L888,168L888,144M348,228L348,228L372,228L372,240L516,240L516,252L576,252L576,264L600,264L600,276L624,276L624,336L636,336L636,372L624,372L624,384L600,384L600,396L576,396L576,408L552,408L552,420L528,420L528,432L504,432L504,444L480,444L480,456L468,456L468,468L420,468L420,456L408,456L408,432L396,432L396,420L420,420L420,408L432,408L432,396L444,396L444,420L456,420L456,408L480,408L480,396L492,396L492,384L516,384L516,372L540,372L540,360L564,360L564,348L588,348L588,336L576,336L576,300L492,300L492,288L372,288L372,276L348,276L348,228M60,276L60,276L168,276L168,288L204,288L204,300L228,300L228,312L252,312L252,324L264,324L264,336L276,336L276,396L264,396L264,408L252,408L252,420L240,420L240,432L216,432L216,456L192,456L192,468L180,468L180,480L204,480L204,468L252,468L252,456L264,456L264,444L276,444L276,432L288,432L288,420L300,420L300,408L312,408L312,396L324,396L324,384L336,384L336,372L348,372L348,360L360,360L360,348L372,348L372,336L432,336L432,348L444,348L444,384L420,384L420,396L408,396L408,408L396,408L396,396L384,396L384,408L372,408L372,420L360,420L360,432L348,432L348,444L336,444L336,456L324,456L324,468L300,468L300,480L288,480L288,492L276,492L276,504L252,504L252,516L216,516L216,528L132,528L132,516L120,516L120,456L132,456L132,444L144,444L144,432L168,432L168,420L180,420L180,408L192,408L192,396L204,396L204,384L216,384L216,372L228,372L228,348L192,348L192,336L156,336L156,324L84,324L84,336L72,336L72,372L60,372L60,420L12,420L12,372L24,372L24,324L36,324L36,300L48,300L48,288L60,288L60,276M672,396L672,396L696,396L696,408L708,408L708,432L720,432L720,444L708,444L708,456L696,456L696,432L684,432L684,408L672,408L672,396M672,408L672,408L672,432L684,432L684,468L672,468L672,444L660,444L660,420L648,420L648,408L672,408M648,420L648,420L648,444L660,444L660,468L672,468L672,480L648,480L648,492L636,492L636,504L612,504L612,516L588,516L588,528L576,528L576,540L552,540L552,552L504,552L504,564L468,564L468,576L264,576L264,588L108,588L108,576L84,576L84,564L72,564L72,552L60,552L60,528L48,528L48,504L36,504L36,480L24,480L24,444L12,444L12,432L60,432L60,444L72,444L72,468L84,468L84,492L96,492L96,516L108,516L108,528L120,528L120,540L144,540L144,552L156,552L156,540L264,540L264,528L396,528L396,516L456,516L456,504L492,504L492,492L528,492L528,480L540,480L540,468L564,468L564,456L588,456L588,444L600,444L600,432L624,432L624,420L648,420M624,528L624,528L672,528L672,540L636,540L636,552L660,552L660,564L636,564L636,588L624,588L624,528M708,528L708,528L720,528L720,588L708,588L708,552L696,552L696,540L708,540L708,528M780,528L780,528L816,528L816,540L792,540L792,576L816,576L816,564L804,564L804,552L816,552L816,540L828,540L828,552L816,552L816,564L828,564L828,576L816,576L816,588L780,588L780,528M840,528L840,528L876,528L876,540L852,540L852,552L876,552L876,540L888,540L888,552L876,552L876,576L864,576L864,564L852,564L852,588L840,588L840,528M900,528L900,528L948,528L948,588L936,588L936,564L912,564L912,588L900,588L900,528M924,540L924,540L912,540L912,552L936,552L936,540L924,540M696,552L696,552L696,564L684,564L684,552L696,552M732,552L732,552L768,552L768,564L732,564L732,552M876,576L876,576L888,576L888,588L876,588Z"></path><path class="finish" d="M696,384L696,384L708,384L708,396L720,396L720,420L732,420L732,444L720,444L720,432L708,432L708,408L696,408L696,384M864,420L864,420L876,420L876,432L864,432L864,420M852,444L852,444L864,444L864,456L852,456L852,444M864,456L864,456L876,456L876,444L888,444L888,456L876,456L876,468L864,468L864,456M852,456L852,456L852,468L840,468L840,456L852,456M888,456L888,456L900,456L900,468L888,468L888,456M840,480L840,480L852,480L852,492L840,492L840,480M852,492L852,492L864,492L864,504L852,504L852,492M840,492L840,492L840,504L828,504L828,492L840,492M888,480L888,480L900,480L900,492L888,492L888,480M900,492L900,492L912,492L912,504L900,504L900,492M888,492L888,492L888,504L876,504L876,492L888,492M828,504L828,504L828,516L816,516L816,504L828,504M864,504L864,504L876,504L876,516L864,516L864,504M912,504L912,504L924,504L924,516L912,516Z"></path><path class="start" d="M672,408L672,408L684,408L684,432L672,432L672,408M648,420L648,420L660,420L660,444L648,444L648,420M684,432L684,432L696,432L696,456L684,456L684,432M660,444L660,444L672,444L672,468L660,468Z"></path></g> <rect opacity=".3" fill="url(#grid)" height="100%" width="100%" y="0" x="0"></rect></svg>