<svg height="684" width="936" id="mapSvgView" xmlns:xlink="http://www.w3.org/1999/xlink" version="1.1" xmlns="http://www.w3.org/2000/svg"> <defs> <style type="text/css"> .grass {fill: rgb(0, 200, 0);} .road {fill: rgb(128, 128, 128);} .start {fill: url(#startPattern)} .finish {fill: url(#finishPattern)} .mud {fill: rgb(100, 70, 0);} .sand {fill: rgb(230, 230, 115);} .water {fill: blue;} .earth {fill: brown;} .night {fill: black;} .parc {fill: rgb(200, 200, 200);} .cp1color {fill: rgb(0, 102, 255);} .cp2color {fill: rgb(0, 100, 200);} .cp3color {fill: rgb(0, 255, 102);} .cp4color {fill: rgb(0, 200, 0);} .cp5color {fill: rgb(255, 255, 0);} .cp6color {fill: rgb(200, 200, 0);} .cp7color {fill: rgb(255, 0, 0);} .cp8color {fill: rgb(200, 0, 0);} .cp9color {fill: rgb(255, 0, 255);} .cp1 {fill: url(#cp1pattern);} .cp2 {fill: url(#cp2pattern);} .cp3 {fill: url(#cp3pattern);} .cp4 {fill: url(#cp4pattern);} .cp5 {fill: url(#cp5pattern);} .cp6 {fill: url(#cp6pattern);} .cp7 {fill: url(#cp7pattern);} .cp8 {fill: url(#cp8pattern);} .cp9 {fill: url(#cp9pattern);} .primaryColor {fill: rgb(0, 255, 102);} </style> <pattern y="0" x="0" height="12" width="12" patternUnits="userSpaceOnUse" id="grid"> <line stroke-width="1" stroke="black" y2="12" x2="12" y1="0" x1="12"></line> <line stroke-width="1" stroke="black" y2="12" x2="12" y1="12" x1="0"></line> </pattern> <pattern y="0" x="0" height="12" width="12" patternUnits="userSpaceOnUse" id="finishPattern"> <rect fill="black" height="12" width="12" y="0" x="0"></rect> <path fill="white" d="M0,0L3,0L3,3L0,3L0,0M6,0L9,0L9,3L6,3L6,0M3,3L6,3L6,6L3,6L3,3M9,3L12,3L12,6L9,6L9,3"></path> <path fill="white" d="M0,6L3,6L3,9L0,9L0,6M6,6L9,6L9,9L6,9L6,6M3,9L6,9L6,12L3,12L3,9M9,9L12,9L12,12L9,12L9,9"></path> </pattern> <pattern y="0" x="0" height="12" width="12" patternUnits="userSpaceOnUse" id="startPattern"> <rect fill="rgb(100,100,100)" height="12" width="12" y="0" x="0"></rect> <rect stroke-width="1" stroke="rgb(200,200,200)" fill="none" height="5" width="5" y="3.5" x="3.5"></rect> &gt; </pattern> <pattern y="0" x="0" height="12" width="12" patternUnits="userSpaceOnUse" id="cp1pattern"> <rect class="cp1color" height="12" width="12" y="0" x="0"></rect> <path fill="black" d="M0,0L3,0L3,3L0,3L0,0M6,0L9,0L9,3L6,3L6,0M3,3L6,3L6,6L3,6L3,3M9,3L12,3L12,6L9,6L9,3"></path> <path fill="black" d="M0,6L3,6L3,9L0,9L0,6M6,6L9,6L9,9L6,9L6,6M3,9L6,9L6,12L3,12L3,9M9,9L12,9L12,12L9,12L9,9"></path> </pattern> <pattern y="0" x="0" height="12" width="12" patternUnits="userSpaceOnUse" id="cp2pattern"> <rect class="cp2color" height="12" width="12" y="0" x="0"></rect> <path fill="white" d="M0,0L3,0L3,3L0,3L0,0M6,0L9,0L9,3L6,3L6,0M3,3L6,3L6,6L3,6L3,3M9,3L12,3L12,6L9,6L9,3"></path> <path fill="white" d="M0,6L3,6L3,9L0,9L0,6M6,6L9,6L9,9L6,9L6,6M3,9L6,9L6,12L3,12L3,9M9,9L12,9L12,12L9,12L9,9"></path> </pattern> <pattern y="0" x="0" height="12" width="12" patternUnits="userSpaceOnUse" id="cp3pattern"> <rect class="cp3color" height="12" width="12" y="0" x="0"></rect> <path fill="black" d="M0,0L3,0L3,3L0,3L0,0M6,0L9,0L9,3L6,3L6,0M3,3L6,3L6,6L3,6L3,3M9,3L12,3L12,6L9,6L9,3"></path> <path fill="black" d="M0,6L3,6L3,9L0,9L0,6M6,6L9,6L9,9L6,9L6,6M3,9L6,9L6,12L3,12L3,9M9,9L12,9L12,12L9,12L9,9"></path> </pattern> <pattern y="0" x="0" height="12" width="12" patternUnits="userSpaceOnUse" id="cp4pattern"> <rect class="cp4color" height="12" width="12" y="0" x="0"></rect> <path fill="white" d="M0,0L3,0L3,3L0,3L0,0M6,0L9,0L9,3L6,3L6,0M3,3L6,3L6,6L3,6L3,3M9,3L12,3L12,6L9,6L9,3"></path> <path fill="white" d="M0,6L3,6L3,9L0,9L0,6M6,6L9,6L9,9L6,9L6,6M3,9L6,9L6,12L3,12L3,9M9,9L12,9L12,12L9,12L9,9"></path> </pattern> <pattern y="0" x="0" height="12" width="12" patternUnits="userSpaceOnUse" id="cp5pattern"> <rect class="cp5color" height="12" width="12" y="0" x="0"></rect> <path fill="black" d="M0,0L3,0L3,3L0,3L0,0M6,0L9,0L9,3L6,3L6,0M3,3L6,3L6,6L3,6L3,3M9,3L12,3L12,6L9,6L9,3"></path> <path fill="black" d="M0,6L3,6L3,9L0,9L0,6M6,6L9,6L9,9L6,9L6,6M3,9L6,9L6,12L3,12L3,9M9,9L12,9L12,12L9,12L9,9"></path> </pattern> <pattern y="0" x="0" height="12" width="12" patternUnits="userSpaceOnUse" id="cp6pattern"> <rect class="cp6color" height="12" width="12" y="0" x="0"></rect> <path fill="white" d="M0,0L3,0L3,3L0,3L0,0M6,0L9,0L9,3L6,3L6,0M3,3L6,3L6,6L3,6L3,3M9,3L12,3L12,6L9,6L9,3"></path> <path fill="white" d="M0,6L3,6L3,9L0,9L0,6M6,6L9,6L9,9L6,9L6,6M3,9L6,9L6,12L3,12L3,9M9,9L12,9L12,12L9,12L9,9"></path> </pattern> <pattern y="0" x="0" height="12" width="12" patternUnits="userSpaceOnUse" id="cp7pattern"> <rect class="cp7color" height="12" width="12" y="0" x="0"></rect> <path fill="black" d="M0,0L3,0L3,3L0,3L0,0M6,0L9,0L9,3L6,3L6,0M3,3L6,3L6,6L3,6L3,3M9,3L12,3L12,6L9,6L9,3"></path> <path fill="black" d="M0,6L3,6L3,9L0,9L0,6M6,6L9,6L9,9L6,9L6,6M3,9L6,9L6,12L3,12L3,9M9,9L12,9L12,12L9,12L9,9"></path> </pattern> <pattern y="0" x="0" height="12" width="12" patternUnits="userSpaceOnUse" id="cp8pattern"> <rect class="cp8color" height="12" width="12" y="0" x="0"></rect> <path fill="white" d="M0,0L3,0L3,3L0,3L0,0M6,0L9,0L9,3L6,3L6,0M3,3L6,3L6,6L3,6L3,3M9,3L12,3L12,6L9,6L9,3"></path> <path fill="white" d="M0,6L3,6L3,9L0,9L0,6M6,6L9,6L9,9L6,9L6,6M3,9L6,9L6,12L3,12L3,9M9,9L12,9L12,12L9,12L9,9"></path> </pattern> <pattern y="0" x="0" height="12" width="12" patternUnits="userSpaceOnUse" id="cp9pattern"> <rect class="cp9color" height="12" width="12" y="0" x="0"></rect> <path fill="black" d="M0,0L3,0L3,3L0,3L0,0M6,0L9,0L9,3L6,3L6,0M3,3L6,3L6,6L3,6L3,3M9,3L12,3L12,6L9,6L9,3"></path> <path fill="black" d="M0,6L3,6L3,9L0,9L0,6M6,6L9,6L9,9L6,9L6,6M3,9L6,9L6,12L3,12L3,9M9,9L12,9L12,12L9,12L9,9"></path> </pattern> </defs> <rect height="100%" width="100%" y="0" x="0" class="road" id="mainfill"></rect> <g id="paths"><path class="cp1" d="M888,360L888,360L912,360L912,384L888,384Z"></path><path class="cp2" d="M792,384L792,384L816,384L816,408L792,408Z"></path><path class="cp3" d="M636,372L636,372L660,372L660,396L636,396Z"></path><path class="cp4" d="M516,336L516,336L528,336L528,372L516,372Z"></path><path class="cp5" d="M564,336L564,336L576,336L576,372L564,372Z"></path><path class="cp6" d="M708,360L708,360L732,360L732,384L708,384Z"></path><path class="cp7" d="M636,204L636,204L660,204L660,228L636,228Z"></path><path class="parc" d="M0,0L0,0L12,0L12,84L0,84Z"></path><path class="grass" d="M12,0L12,0L936,0L936,684L0,684L0,84L12,84L12,0M48,12L48,12L36,12L36,24L24,24L24,480L36,480L36,516L48,516L48,552L60,552L60,540L72,540L72,552L60,552L60,564L72,564L72,576L84,576L84,588L96,588L96,600L108,600L108,588L120,588L120,600L108,600L108,612L120,612L120,624L156,624L156,636L192,636L192,648L252,648L252,636L288,636L288,624L324,624L324,612L336,612L336,600L324,600L324,588L336,588L336,600L348,600L348,588L360,588L360,576L372,576L372,564L384,564L384,552L372,552L372,540L384,540L384,552L396,552L396,516L408,516L408,480L420,480L420,420L408,420L408,384L396,384L396,348L384,348L384,336L372,336L372,324L360,324L360,312L348,312L348,300L336,300L336,288L324,288L324,276L288,276L288,264L252,264L252,252L192,252L192,264L156,264L156,312L132,312L132,300L120,300L120,96L312,96L312,108L336,108L336,120L348,120L348,132L360,132L360,216L372,216L372,240L396,240L396,252L408,252L408,264L420,264L420,276L432,276L432,300L444,300L444,348L456,348L456,408L468,408L468,468L480,468L480,516L492,516L492,552L504,552L504,576L516,576L516,600L528,600L528,624L540,624L540,636L552,636L552,648L564,648L564,660L588,660L588,672L684,672L684,660L732,660L732,648L768,648L768,636L804,636L804,624L828,624L828,612L852,612L852,600L864,600L864,588L876,588L876,576L888,576L888,564L900,564L900,528L912,528L912,492L924,492L924,288L912,288L912,132L900,132L900,60L888,60L888,36L876,36L876,24L852,24L852,12L696,12L696,72L672,72L672,60L648,60L648,48L624,48L624,36L600,36L600,24L576,24L576,12L552,12L552,192L576,192L576,180L600,180L600,168L624,168L624,156L648,156L648,144L672,144L672,132L720,132L720,120L756,120L756,168L768,168L768,204L732,204L732,228L720,228L720,300L732,300L732,312L744,312L744,324L756,324L756,336L768,336L768,348L780,348L780,360L792,360L792,408L756,408L756,420L744,420L744,432L756,432L756,468L744,468L744,480L720,480L720,456L504,456L504,384L492,384L492,324L480,324L480,276L468,276L468,264L456,264L456,252L444,252L444,240L432,240L432,228L420,228L420,216L408,216L408,192L396,192L396,180L408,180L408,192L420,192L420,204L432,204L432,216L444,216L444,228L456,228L456,240L468,240L468,252L480,252L480,264L492,264L492,288L504,288L504,312L516,312L516,420L528,420L528,432L540,432L540,444L708,444L708,432L720,432L720,420L732,420L732,324L720,324L720,360L708,360L708,216L696,216L696,204L684,204L684,192L636,192L636,204L600,204L600,216L636,216L636,228L588,228L588,204L540,204L540,48L528,48L528,36L516,36L516,24L504,24L504,12L48,12M756,48L756,48L780,48L780,60L816,60L816,72L840,72L840,144L852,144L852,288L864,288L864,408L840,408L840,360L852,360L852,348L840,348L840,324L804,324L804,288L756,288L756,240L804,240L804,216L816,216L816,156L804,156L804,84L720,84L720,72L732,72L732,60L756,60L756,48M408,96L408,96L480,96L480,144L492,144L492,168L504,168L504,216L516,216L516,228L528,228L528,240L576,240L576,252L660,252L660,264L672,264L672,420L624,420L624,396L576,396L576,312L600,312L600,324L612,324L612,312L624,312L624,324L636,324L636,312L648,312L648,324L636,324L636,336L648,336L648,348L624,348L624,336L600,336L600,372L624,372L624,360L648,360L648,372L636,372L636,408L660,408L660,300L600,300L600,276L540,276L540,264L528,264L528,252L516,252L516,240L504,240L504,228L492,228L492,216L480,216L480,192L468,192L468,168L456,168L456,144L444,144L444,132L432,132L432,120L408,120L408,96M528,312L528,312L540,312L540,324L528,324L528,312M540,324L540,324L552,324L552,312L564,312L564,324L552,324L552,336L564,336L564,348L552,348L552,360L564,360L564,372L552,372L552,384L540,384L540,372L528,372L528,360L540,360L540,348L528,348L528,336L540,336L540,324M168,348L168,348L180,348L180,360L168,360L168,348M168,360L168,360L168,372L156,372L156,360L168,360M156,372L156,372L156,384L144,384L144,372L156,372M144,384L144,384L144,396L132,396L132,384L144,384M552,384L552,384L564,384L564,396L552,396L552,384M540,384L540,384L540,396L528,396L528,384L540,384M132,396L132,396L132,408L120,408L120,396L132,396M120,408L120,408L120,420L108,420L108,408L120,408M108,420L108,420L108,432L96,432L96,420L108,420M96,432L96,432L96,444L84,444L84,432L96,432M84,444L84,444L84,456L72,456L72,444L84,444M840,432L840,432L864,432L864,468L852,468L852,480L840,480L840,528L780,528L780,540L732,540L732,552L636,552L636,540L600,540L600,528L576,528L576,516L564,516L564,480L600,480L600,516L612,516L612,504L672,504L672,492L708,492L708,516L768,516L768,504L780,504L780,492L792,492L792,480L804,480L804,444L840,444L840,432M72,456L72,456L72,468L60,468L60,456L72,456M84,540L84,540L96,540L96,552L84,552L84,540M108,540L108,540L120,540L120,552L108,552L108,540M132,540L132,540L144,540L144,552L132,552L132,540M156,540L156,540L168,540L168,552L156,552L156,540M180,540L180,540L192,540L192,552L180,552L180,540M204,540L204,540L216,540L216,552L204,552L204,540M228,540L228,540L240,540L240,552L228,552L228,540M252,540L252,540L264,540L264,552L252,552L252,540M276,540L276,540L288,540L288,552L276,552L276,540M300,540L300,540L312,540L312,552L300,552L300,540M324,540L324,540L336,540L336,552L324,552L324,540M348,540L348,540L360,540L360,552L348,552L348,540M132,588L132,588L144,588L144,600L132,600L132,588M156,588L156,588L168,588L168,600L156,600L156,588M180,588L180,588L192,588L192,600L180,600L180,588M204,588L204,588L216,588L216,600L204,600L204,588M228,588L228,588L240,588L240,600L228,600L228,588M252,588L252,588L264,588L264,600L252,600L252,588M276,588L276,588L288,588L288,600L276,600L276,588M300,588L300,588L312,588L312,600L300,600Z"></path><path class="start" d="M552,24L552,24L564,24L564,36L552,36L552,24M552,48L552,48L564,48L564,60L552,60L552,48M552,72L552,72L564,72L564,84L552,84L552,72M552,96L552,96L564,96L564,108L552,108L552,96M552,120L552,120L564,120L564,132L552,132L552,120M552,144L552,144L564,144L564,156L552,156L552,144M552,168L552,168L564,168L564,180L552,180Z"></path><path class="finish" d="M192,252L192,252L252,252L252,264L192,264L192,252M408,420L408,420L420,420L420,480L408,480L408,420M192,636L192,636L252,636L252,648L192,648Z"></path></g> <rect opacity=".3" fill="url(#grid)" height="100%" width="100%" y="0" x="0"></rect></svg>