<svg height="900" width="660" id="mapSvgView" xmlns:xlink="http://www.w3.org/1999/xlink" version="1.1" xmlns="http://www.w3.org/2000/svg"> <defs> <style type="text/css"> .grass {fill: rgb(0, 200, 0);} .road {fill: rgb(128, 128, 128);} .start {fill: url(#startPattern)} .finish {fill: url(#finishPattern)} .mud {fill: rgb(100, 70, 0);} .sand {fill: rgb(230, 230, 115);} .water {fill: blue;} .earth {fill: brown;} .night {fill: black;} .parc {fill: rgb(200, 200, 200);} .cp1color {fill: rgb(0, 102, 255);} .cp2color {fill: rgb(0, 100, 200);} .cp3color {fill: rgb(0, 255, 102);} .cp4color {fill: rgb(0, 200, 0);} .cp5color {fill: rgb(255, 255, 0);} .cp6color {fill: rgb(200, 200, 0);} .cp7color {fill: rgb(255, 0, 0);} .cp8color {fill: rgb(200, 0, 0);} .cp9color {fill: rgb(255, 0, 255);} .cp1 {fill: url(#cp1pattern);} .cp2 {fill: url(#cp2pattern);} .cp3 {fill: url(#cp3pattern);} .cp4 {fill: url(#cp4pattern);} .cp5 {fill: url(#cp5pattern);} .cp6 {fill: url(#cp6pattern);} .cp7 {fill: url(#cp7pattern);} .cp8 {fill: url(#cp8pattern);} .cp9 {fill: url(#cp9pattern);} .primaryColor {fill: rgb(0, 255, 102);} </style> <pattern y="0" x="0" height="12" width="12" patternUnits="userSpaceOnUse" id="grid"> <line stroke-width="1" stroke="black" y2="12" x2="12" y1="0" x1="12"></line> <line stroke-width="1" stroke="black" y2="12" x2="12" y1="12" x1="0"></line> </pattern> <pattern y="0" x="0" height="12" width="12" patternUnits="userSpaceOnUse" id="finishPattern"> <rect fill="black" height="12" width="12" y="0" x="0"></rect> <path fill="white" d="M0,0L3,0L3,3L0,3L0,0M6,0L9,0L9,3L6,3L6,0M3,3L6,3L6,6L3,6L3,3M9,3L12,3L12,6L9,6L9,3"></path> <path fill="white" d="M0,6L3,6L3,9L0,9L0,6M6,6L9,6L9,9L6,9L6,6M3,9L6,9L6,12L3,12L3,9M9,9L12,9L12,12L9,12L9,9"></path> </pattern> <pattern y="0" x="0" height="12" width="12" patternUnits="userSpaceOnUse" id="startPattern"> <rect fill="rgb(100,100,100)" height="12" width="12" y="0" x="0"></rect> <rect stroke-width="1" stroke="rgb(200,200,200)" fill="none" height="5" width="5" y="3.5" x="3.5"></rect> &gt; </pattern> <pattern y="0" x="0" height="12" width="12" patternUnits="userSpaceOnUse" id="cp1pattern"> <rect class="cp1color" height="12" width="12" y="0" x="0"></rect> <path fill="black" d="M0,0L3,0L3,3L0,3L0,0M6,0L9,0L9,3L6,3L6,0M3,3L6,3L6,6L3,6L3,3M9,3L12,3L12,6L9,6L9,3"></path> <path fill="black" d="M0,6L3,6L3,9L0,9L0,6M6,6L9,6L9,9L6,9L6,6M3,9L6,9L6,12L3,12L3,9M9,9L12,9L12,12L9,12L9,9"></path> </pattern> <pattern y="0" x="0" height="12" width="12" patternUnits="userSpaceOnUse" id="cp2pattern"> <rect class="cp2color" height="12" width="12" y="0" x="0"></rect> <path fill="white" d="M0,0L3,0L3,3L0,3L0,0M6,0L9,0L9,3L6,3L6,0M3,3L6,3L6,6L3,6L3,3M9,3L12,3L12,6L9,6L9,3"></path> <path fill="white" d="M0,6L3,6L3,9L0,9L0,6M6,6L9,6L9,9L6,9L6,6M3,9L6,9L6,12L3,12L3,9M9,9L12,9L12,12L9,12L9,9"></path> </pattern> <pattern y="0" x="0" height="12" width="12" patternUnits="userSpaceOnUse" id="cp3pattern"> <rect class="cp3color" height="12" width="12" y="0" x="0"></rect> <path fill="black" d="M0,0L3,0L3,3L0,3L0,0M6,0L9,0L9,3L6,3L6,0M3,3L6,3L6,6L3,6L3,3M9,3L12,3L12,6L9,6L9,3"></path> <path fill="black" d="M0,6L3,6L3,9L0,9L0,6M6,6L9,6L9,9L6,9L6,6M3,9L6,9L6,12L3,12L3,9M9,9L12,9L12,12L9,12L9,9"></path> </pattern> <pattern y="0" x="0" height="12" width="12" patternUnits="userSpaceOnUse" id="cp4pattern"> <rect class="cp4color" height="12" width="12" y="0" x="0"></rect> <path fill="white" d="M0,0L3,0L3,3L0,3L0,0M6,0L9,0L9,3L6,3L6,0M3,3L6,3L6,6L3,6L3,3M9,3L12,3L12,6L9,6L9,3"></path> <path fill="white" d="M0,6L3,6L3,9L0,9L0,6M6,6L9,6L9,9L6,9L6,6M3,9L6,9L6,12L3,12L3,9M9,9L12,9L12,12L9,12L9,9"></path> </pattern> <pattern y="0" x="0" height="12" width="12" patternUnits="userSpaceOnUse" id="cp5pattern"> <rect class="cp5color" height="12" width="12" y="0" x="0"></rect> <path fill="black" d="M0,0L3,0L3,3L0,3L0,0M6,0L9,0L9,3L6,3L6,0M3,3L6,3L6,6L3,6L3,3M9,3L12,3L12,6L9,6L9,3"></path> <path fill="black" d="M0,6L3,6L3,9L0,9L0,6M6,6L9,6L9,9L6,9L6,6M3,9L6,9L6,12L3,12L3,9M9,9L12,9L12,12L9,12L9,9"></path> </pattern> <pattern y="0" x="0" height="12" width="12" patternUnits="userSpaceOnUse" id="cp6pattern"> <rect class="cp6color" height="12" width="12" y="0" x="0"></rect> <path fill="white" d="M0,0L3,0L3,3L0,3L0,0M6,0L9,0L9,3L6,3L6,0M3,3L6,3L6,6L3,6L3,3M9,3L12,3L12,6L9,6L9,3"></path> <path fill="white" d="M0,6L3,6L3,9L0,9L0,6M6,6L9,6L9,9L6,9L6,6M3,9L6,9L6,12L3,12L3,9M9,9L12,9L12,12L9,12L9,9"></path> </pattern> <pattern y="0" x="0" height="12" width="12" patternUnits="userSpaceOnUse" id="cp7pattern"> <rect class="cp7color" height="12" width="12" y="0" x="0"></rect> <path fill="black" d="M0,0L3,0L3,3L0,3L0,0M6,0L9,0L9,3L6,3L6,0M3,3L6,3L6,6L3,6L3,3M9,3L12,3L12,6L9,6L9,3"></path> <path fill="black" d="M0,6L3,6L3,9L0,9L0,6M6,6L9,6L9,9L6,9L6,6M3,9L6,9L6,12L3,12L3,9M9,9L12,9L12,12L9,12L9,9"></path> </pattern> <pattern y="0" x="0" height="12" width="12" patternUnits="userSpaceOnUse" id="cp8pattern"> <rect class="cp8color" height="12" width="12" y="0" x="0"></rect> <path fill="white" d="M0,0L3,0L3,3L0,3L0,0M6,0L9,0L9,3L6,3L6,0M3,3L6,3L6,6L3,6L3,3M9,3L12,3L12,6L9,6L9,3"></path> <path fill="white" d="M0,6L3,6L3,9L0,9L0,6M6,6L9,6L9,9L6,9L6,6M3,9L6,9L6,12L3,12L3,9M9,9L12,9L12,12L9,12L9,9"></path> </pattern> <pattern y="0" x="0" height="12" width="12" patternUnits="userSpaceOnUse" id="cp9pattern"> <rect class="cp9color" height="12" width="12" y="0" x="0"></rect> <path fill="black" d="M0,0L3,0L3,3L0,3L0,0M6,0L9,0L9,3L6,3L6,0M3,3L6,3L6,6L3,6L3,3M9,3L12,3L12,6L9,6L9,3"></path> <path fill="black" d="M0,6L3,6L3,9L0,9L0,6M6,6L9,6L9,9L6,9L6,6M3,9L6,9L6,12L3,12L3,9M9,9L12,9L12,12L9,12L9,9"></path> </pattern> </defs> <rect height="100%" width="100%" y="0" x="0" class="grass" id="mainfill"></rect> <g id="paths"><path class="parc" d="M0,0L0,0L12,0L12,48L0,48Z"></path><path class="road" d="M336,12L336,12L348,12L348,24L360,24L360,36L372,36L372,48L384,48L384,60L396,60L396,72L408,72L408,84L420,84L420,96L432,96L432,108L444,108L444,120L456,120L456,132L468,132L468,144L480,144L480,156L492,156L492,168L504,168L504,180L516,180L516,192L528,192L528,204L540,204L540,216L552,216L552,228L564,228L564,240L576,240L576,252L588,252L588,264L600,264L600,276L612,276L612,288L624,288L624,612L612,612L612,624L600,624L600,636L588,636L588,648L576,648L576,660L564,660L564,672L552,672L552,684L540,684L540,696L528,696L528,708L516,708L516,720L504,720L504,732L492,732L492,744L480,744L480,756L468,756L468,768L456,768L456,780L444,780L444,792L432,792L432,804L420,804L420,816L408,816L408,828L396,828L396,840L384,840L384,852L372,852L372,864L360,864L360,876L348,876L348,888L336,888L336,876L324,876L324,864L312,864L312,852L300,852L300,840L288,840L288,828L276,828L276,816L264,816L264,804L252,804L252,792L240,792L240,780L228,780L228,768L216,768L216,756L204,756L204,744L192,744L192,732L180,732L180,720L168,720L168,708L156,708L156,696L144,696L144,684L132,684L132,672L120,672L120,660L108,660L108,648L96,648L96,636L84,636L84,624L72,624L72,612L60,612L60,288L108,288L108,300L120,300L120,312L132,312L132,324L144,324L144,336L156,336L156,348L168,348L168,360L180,360L180,372L192,372L192,384L204,384L204,396L216,396L216,408L228,408L228,420L240,420L240,432L252,432L252,444L264,444L264,456L276,456L276,468L288,468L288,480L300,480L300,492L312,492L312,504L324,504L324,516L336,516L336,528L360,528L360,780L312,780L312,540L300,540L300,528L288,528L288,516L276,516L276,504L264,504L264,492L252,492L252,480L240,480L240,468L228,468L228,456L216,456L216,444L204,444L204,432L192,432L192,420L180,420L180,408L168,408L168,396L156,396L156,384L144,384L144,372L132,372L132,360L120,360L120,348L108,348L108,612L120,612L120,624L132,624L132,636L144,636L144,648L156,648L156,660L168,660L168,672L180,672L180,684L192,684L192,696L204,696L204,708L216,708L216,720L228,720L228,732L240,732L240,744L252,744L252,756L264,756L264,768L276,768L276,780L288,780L288,792L300,792L300,804L312,804L312,816L324,816L324,828L336,828L336,840L348,840L348,828L360,828L360,816L372,816L372,804L384,804L384,792L396,792L396,780L408,780L408,768L420,768L420,756L432,756L432,744L444,744L444,732L456,732L456,720L468,720L468,708L480,708L480,696L492,696L492,684L504,684L504,672L516,672L516,660L528,660L528,648L540,648L540,636L552,636L552,624L564,624L564,612L576,612L576,288L564,288L564,276L552,276L552,264L540,264L540,252L528,252L528,240L516,240L516,228L504,228L504,216L492,216L492,204L480,204L480,192L468,192L468,180L456,180L456,168L444,168L444,156L432,156L432,144L420,144L420,132L408,132L408,120L396,120L396,108L384,108L384,96L372,96L372,84L360,84L360,72L348,72L348,60L336,60L336,72L324,72L324,84L312,84L312,96L300,96L300,108L288,108L288,120L276,120L276,132L264,132L264,144L252,144L252,156L240,156L240,168L228,168L228,180L216,180L216,192L204,192L204,204L192,204L192,216L180,216L180,228L168,228L168,240L156,240L156,252L144,252L144,264L96,264L96,252L108,252L108,240L120,240L120,228L132,228L132,216L144,216L144,204L156,204L156,192L168,192L168,180L180,180L180,168L192,168L192,156L204,156L204,144L216,144L216,132L228,132L228,120L240,120L240,108L252,108L252,96L264,96L264,84L276,84L276,72L288,72L288,60L300,60L300,48L312,48L312,36L324,36L324,24L336,24L336,12M552,312L552,312L564,312L564,360L552,360L552,372L540,372L540,384L528,384L528,396L516,396L516,408L504,408L504,420L492,420L492,432L480,432L480,444L468,444L468,456L456,456L456,468L444,468L444,480L432,480L432,492L420,492L420,504L408,504L408,516L396,516L396,528L384,528L384,540L372,540L372,516L360,516L360,504L372,504L372,492L384,492L384,480L396,480L396,468L408,468L408,456L420,456L420,444L432,444L432,432L444,432L444,420L456,420L456,408L468,408L468,396L480,396L480,384L492,384L492,372L504,372L504,360L516,360L516,348L528,348L528,336L540,336L540,324L552,324Z"></path><path class="start" d="M84,264L84,264L132,264L132,276L84,276Z"></path><path class="finish" d="M312,780L312,780L360,780L360,792L312,792Z"></path></g> <rect opacity=".3" fill="url(#grid)" height="100%" width="100%" y="0" x="0"></rect></svg>