<svg height="348" width="360" id="mapSvgView" xmlns:xlink="http://www.w3.org/1999/xlink" version="1.1" xmlns="http://www.w3.org/2000/svg"> <defs> <style type="text/css"> .grass {fill: rgb(0, 200, 0);} .road {fill: rgb(128, 128, 128);} .start {fill: url(#startPattern)} .finish {fill: url(#finishPattern)} .mud {fill: rgb(100, 70, 0);} .sand {fill: rgb(230, 230, 115);} .water {fill: blue;} .earth {fill: brown;} .night {fill: black;} .parc {fill: rgb(200, 200, 200);} .cp1color {fill: rgb(0, 102, 255);} .cp2color {fill: rgb(0, 100, 200);} .cp3color {fill: rgb(0, 255, 102);} .cp4color {fill: rgb(0, 200, 0);} .cp5color {fill: rgb(255, 255, 0);} .cp6color {fill: rgb(200, 200, 0);} .cp7color {fill: rgb(255, 0, 0);} .cp8color {fill: rgb(200, 0, 0);} .cp9color {fill: rgb(255, 0, 255);} .cp1 {fill: url(#cp1pattern);} .cp2 {fill: url(#cp2pattern);} .cp3 {fill: url(#cp3pattern);} .cp4 {fill: url(#cp4pattern);} .cp5 {fill: url(#cp5pattern);} .cp6 {fill: url(#cp6pattern);} .cp7 {fill: url(#cp7pattern);} .cp8 {fill: url(#cp8pattern);} .cp9 {fill: url(#cp9pattern);} .primaryColor {fill: rgb(0, 255, 102);} </style> <pattern y="0" x="0" height="12" width="12" patternUnits="userSpaceOnUse" id="grid"> <line stroke-width="1" stroke="black" y2="12" x2="12" y1="0" x1="12"></line> <line stroke-width="1" stroke="black" y2="12" x2="12" y1="12" x1="0"></line> </pattern> <pattern y="0" x="0" height="12" width="12" patternUnits="userSpaceOnUse" id="finishPattern"> <rect fill="black" height="12" width="12" y="0" x="0"></rect> <path fill="white" d="M0,0L3,0L3,3L0,3L0,0M6,0L9,0L9,3L6,3L6,0M3,3L6,3L6,6L3,6L3,3M9,3L12,3L12,6L9,6L9,3"></path> <path fill="white" d="M0,6L3,6L3,9L0,9L0,6M6,6L9,6L9,9L6,9L6,6M3,9L6,9L6,12L3,12L3,9M9,9L12,9L12,12L9,12L9,9"></path> </pattern> <pattern y="0" x="0" height="12" width="12" patternUnits="userSpaceOnUse" id="startPattern"> <rect fill="rgb(100,100,100)" height="12" width="12" y="0" x="0"></rect> <rect stroke-width="1" stroke="rgb(200,200,200)" fill="none" height="5" width="5" y="3.5" x="3.5"></rect> &gt; </pattern> <pattern y="0" x="0" height="12" width="12" patternUnits="userSpaceOnUse" id="cp1pattern"> <rect class="cp1color" height="12" width="12" y="0" x="0"></rect> <path fill="black" d="M0,0L3,0L3,3L0,3L0,0M6,0L9,0L9,3L6,3L6,0M3,3L6,3L6,6L3,6L3,3M9,3L12,3L12,6L9,6L9,3"></path> <path fill="black" d="M0,6L3,6L3,9L0,9L0,6M6,6L9,6L9,9L6,9L6,6M3,9L6,9L6,12L3,12L3,9M9,9L12,9L12,12L9,12L9,9"></path> </pattern> <pattern y="0" x="0" height="12" width="12" patternUnits="userSpaceOnUse" id="cp2pattern"> <rect class="cp2color" height="12" width="12" y="0" x="0"></rect> <path fill="white" d="M0,0L3,0L3,3L0,3L0,0M6,0L9,0L9,3L6,3L6,0M3,3L6,3L6,6L3,6L3,3M9,3L12,3L12,6L9,6L9,3"></path> <path fill="white" d="M0,6L3,6L3,9L0,9L0,6M6,6L9,6L9,9L6,9L6,6M3,9L6,9L6,12L3,12L3,9M9,9L12,9L12,12L9,12L9,9"></path> </pattern> <pattern y="0" x="0" height="12" width="12" patternUnits="userSpaceOnUse" id="cp3pattern"> <rect class="cp3color" height="12" width="12" y="0" x="0"></rect> <path fill="black" d="M0,0L3,0L3,3L0,3L0,0M6,0L9,0L9,3L6,3L6,0M3,3L6,3L6,6L3,6L3,3M9,3L12,3L12,6L9,6L9,3"></path> <path fill="black" d="M0,6L3,6L3,9L0,9L0,6M6,6L9,6L9,9L6,9L6,6M3,9L6,9L6,12L3,12L3,9M9,9L12,9L12,12L9,12L9,9"></path> </pattern> <pattern y="0" x="0" height="12" width="12" patternUnits="userSpaceOnUse" id="cp4pattern"> <rect class="cp4color" height="12" width="12" y="0" x="0"></rect> <path fill="white" d="M0,0L3,0L3,3L0,3L0,0M6,0L9,0L9,3L6,3L6,0M3,3L6,3L6,6L3,6L3,3M9,3L12,3L12,6L9,6L9,3"></path> <path fill="white" d="M0,6L3,6L3,9L0,9L0,6M6,6L9,6L9,9L6,9L6,6M3,9L6,9L6,12L3,12L3,9M9,9L12,9L12,12L9,12L9,9"></path> </pattern> <pattern y="0" x="0" height="12" width="12" patternUnits="userSpaceOnUse" id="cp5pattern"> <rect class="cp5color" height="12" width="12" y="0" x="0"></rect> <path fill="black" d="M0,0L3,0L3,3L0,3L0,0M6,0L9,0L9,3L6,3L6,0M3,3L6,3L6,6L3,6L3,3M9,3L12,3L12,6L9,6L9,3"></path> <path fill="black" d="M0,6L3,6L3,9L0,9L0,6M6,6L9,6L9,9L6,9L6,6M3,9L6,9L6,12L3,12L3,9M9,9L12,9L12,12L9,12L9,9"></path> </pattern> <pattern y="0" x="0" height="12" width="12" patternUnits="userSpaceOnUse" id="cp6pattern"> <rect class="cp6color" height="12" width="12" y="0" x="0"></rect> <path fill="white" d="M0,0L3,0L3,3L0,3L0,0M6,0L9,0L9,3L6,3L6,0M3,3L6,3L6,6L3,6L3,3M9,3L12,3L12,6L9,6L9,3"></path> <path fill="white" d="M0,6L3,6L3,9L0,9L0,6M6,6L9,6L9,9L6,9L6,6M3,9L6,9L6,12L3,12L3,9M9,9L12,9L12,12L9,12L9,9"></path> </pattern> <pattern y="0" x="0" height="12" width="12" patternUnits="userSpaceOnUse" id="cp7pattern"> <rect class="cp7color" height="12" width="12" y="0" x="0"></rect> <path fill="black" d="M0,0L3,0L3,3L0,3L0,0M6,0L9,0L9,3L6,3L6,0M3,3L6,3L6,6L3,6L3,3M9,3L12,3L12,6L9,6L9,3"></path> <path fill="black" d="M0,6L3,6L3,9L0,9L0,6M6,6L9,6L9,9L6,9L6,6M3,9L6,9L6,12L3,12L3,9M9,9L12,9L12,12L9,12L9,9"></path> </pattern> <pattern y="0" x="0" height="12" width="12" patternUnits="userSpaceOnUse" id="cp8pattern"> <rect class="cp8color" height="12" width="12" y="0" x="0"></rect> <path fill="white" d="M0,0L3,0L3,3L0,3L0,0M6,0L9,0L9,3L6,3L6,0M3,3L6,3L6,6L3,6L3,3M9,3L12,3L12,6L9,6L9,3"></path> <path fill="white" d="M0,6L3,6L3,9L0,9L0,6M6,6L9,6L9,9L6,9L6,6M3,9L6,9L6,12L3,12L3,9M9,9L12,9L12,12L9,12L9,9"></path> </pattern> <pattern y="0" x="0" height="12" width="12" patternUnits="userSpaceOnUse" id="cp9pattern"> <rect class="cp9color" height="12" width="12" y="0" x="0"></rect> <path fill="black" d="M0,0L3,0L3,3L0,3L0,0M6,0L9,0L9,3L6,3L6,0M3,3L6,3L6,6L3,6L3,3M9,3L12,3L12,6L9,6L9,3"></path> <path fill="black" d="M0,6L3,6L3,9L0,9L0,6M6,6L9,6L9,9L6,9L6,6M3,9L6,9L6,12L3,12L3,9M9,9L12,9L12,12L9,12L9,9"></path> </pattern> </defs> <rect height="100%" width="100%" y="0" x="0" class="grass" id="mainfill"></rect> <g id="paths"><path class="cp1" d="M96,192L96,192L144,192L144,204L96,204Z"></path><path class="cp2" d="M228,36L228,36L240,36L240,84L228,84Z"></path><path class="cp3" d="M228,204L228,204L240,204L240,216L228,216L228,204M240,216L240,216L252,216L252,228L240,228L240,216M252,228L252,228L264,228L264,240L252,240Z"></path><path class="cp5" d="M144,276L144,276L156,276L156,324L144,324Z"></path><path class="cp7" d="M144,84L144,84L156,84L156,120L144,120Z"></path><path class="parc" d="M0,0L0,0L12,0L12,36L0,36Z"></path><path class="mud" d="M108,12L108,12L168,12L168,48L156,48L156,24L108,24L108,12M108,24L108,24L108,36L96,36L96,24L108,24M204,12L204,12L300,12L300,24L312,24L312,36L324,36L324,48L336,48L336,60L348,60L348,72L360,72L360,156L348,156L348,180L336,180L336,204L324,204L324,216L312,216L312,228L300,228L300,240L288,240L288,252L360,252L360,324L348,324L348,264L252,264L252,252L264,252L264,240L276,240L276,228L288,228L288,216L300,216L300,204L312,204L312,192L324,192L324,168L336,168L336,144L348,144L348,84L336,84L336,72L324,72L324,60L312,60L312,48L300,48L300,36L288,36L288,24L204,24L204,12M96,36L96,36L96,48L72,48L72,36L96,36M72,48L72,48L72,60L60,60L60,48L72,48M60,60L60,60L60,72L36,72L36,60L60,60M36,72L36,72L36,84L24,84L24,72L36,72M156,132L156,132L168,132L168,252L156,252Z"></path><path class="sand" d="M108,24L108,24L156,24L156,48L180,48L180,36L192,36L192,24L288,24L288,36L192,36L192,48L180,48L180,60L156,60L156,84L144,84L144,36L108,36L108,24M108,36L108,36L108,48L96,48L96,36L108,36M288,36L288,36L300,36L300,48L288,48L288,36M96,48L96,48L96,60L84,60L84,72L72,72L72,84L48,84L48,96L24,96L24,84L36,84L36,72L60,72L60,60L72,60L72,48L96,48M300,48L300,48L312,48L312,60L300,60L300,48M312,60L312,60L324,60L324,72L312,72L312,60M324,72L324,72L336,72L336,84L324,84L324,72M336,84L336,84L348,84L348,144L336,144L336,84M24,96L24,96L24,144L48,144L48,132L72,132L72,120L96,120L96,324L336,324L336,276L216,276L216,264L228,264L228,252L240,252L240,240L264,240L264,228L276,228L276,216L288,216L288,204L300,204L300,192L312,192L312,168L324,168L324,144L336,144L336,168L324,168L324,192L312,192L312,204L300,204L300,216L288,216L288,228L276,228L276,240L264,240L264,252L252,252L252,264L348,264L348,336L84,336L84,132L72,132L72,144L48,144L48,156L12,156L12,96L24,96M204,84L204,84L276,84L276,96L204,96L204,84M204,96L204,96L204,120L192,120L192,96L204,96M276,96L276,96L288,96L288,108L276,108L276,96M288,108L288,108L300,108L300,132L288,132L288,108M192,120L192,120L192,132L156,132L156,252L168,252L168,240L192,240L192,228L204,228L204,216L216,216L216,204L228,204L228,192L240,192L240,180L252,180L252,168L264,168L264,156L276,156L276,132L288,132L288,156L276,156L276,168L264,168L264,180L252,180L252,192L240,192L240,204L228,204L228,216L216,216L216,228L204,228L204,240L192,240L192,252L168,252L168,264L156,264L156,276L144,276L144,120Z"></path><path class="road" d="M108,36L108,36L144,36L144,192L96,192L96,120L72,120L72,132L48,132L48,144L24,144L24,96L48,96L48,120L60,120L60,84L72,84L72,72L84,72L84,60L96,60L96,48L108,48L108,36M192,36L192,36L228,36L228,84L204,84L204,96L192,96L192,120L156,120L156,60L180,60L180,48L192,48L192,36M240,36L240,36L288,36L288,48L300,48L300,60L312,60L312,72L324,72L324,84L336,84L336,144L324,144L324,168L312,168L312,192L300,192L300,204L288,204L288,216L276,216L276,228L252,228L252,216L240,216L240,192L252,192L252,180L264,180L264,168L276,168L276,156L288,156L288,132L300,132L300,108L288,108L288,96L276,96L276,84L240,84L240,36M96,204L96,204L144,204L144,324L96,324L96,204M240,216L240,216L240,228L252,228L252,240L240,240L240,252L228,252L228,264L216,264L216,276L324,276L324,324L156,324L156,264L168,264L168,252L192,252L192,240L204,240L204,228L216,228L216,216Z"></path><path class="start" d="M48,84L48,84L60,84L60,120L48,120Z"></path><path class="finish" d="M324,276L324,276L336,276L336,324L324,324Z"></path></g> <rect opacity=".3" fill="url(#grid)" height="100%" width="100%" y="0" x="0"></rect></svg>