<svg height="372" width="960" id="mapSvgView" xmlns:xlink="http://www.w3.org/1999/xlink" version="1.1" xmlns="http://www.w3.org/2000/svg"> <defs> <style type="text/css"> .grass {fill: rgb(0, 200, 0);} .road {fill: rgb(128, 128, 128);} .start {fill: url(#startPattern)} .finish {fill: url(#finishPattern)} .mud {fill: rgb(100, 70, 0);} .sand {fill: rgb(230, 230, 115);} .water {fill: blue;} .earth {fill: brown;} .night {fill: black;} .parc {fill: rgb(200, 200, 200);} .cp1color {fill: rgb(0, 102, 255);} .cp2color {fill: rgb(0, 100, 200);} .cp3color {fill: rgb(0, 255, 102);} .cp4color {fill: rgb(0, 200, 0);} .cp5color {fill: rgb(255, 255, 0);} .cp6color {fill: rgb(200, 200, 0);} .cp7color {fill: rgb(255, 0, 0);} .cp8color {fill: rgb(200, 0, 0);} .cp9color {fill: rgb(255, 0, 255);} .cp1 {fill: url(#cp1pattern);} .cp2 {fill: url(#cp2pattern);} .cp3 {fill: url(#cp3pattern);} .cp4 {fill: url(#cp4pattern);} .cp5 {fill: url(#cp5pattern);} .cp6 {fill: url(#cp6pattern);} .cp7 {fill: url(#cp7pattern);} .cp8 {fill: url(#cp8pattern);} .cp9 {fill: url(#cp9pattern);} .primaryColor {fill: rgb(0, 255, 102);} </style> <pattern y="0" x="0" height="12" width="12" patternUnits="userSpaceOnUse" id="grid"> <line stroke-width="1" stroke="black" y2="12" x2="12" y1="0" x1="12"></line> <line stroke-width="1" stroke="black" y2="12" x2="12" y1="12" x1="0"></line> </pattern> <pattern y="0" x="0" height="12" width="12" patternUnits="userSpaceOnUse" id="finishPattern"> <rect fill="black" height="12" width="12" y="0" x="0"></rect> <path fill="white" d="M0,0L3,0L3,3L0,3L0,0M6,0L9,0L9,3L6,3L6,0M3,3L6,3L6,6L3,6L3,3M9,3L12,3L12,6L9,6L9,3"></path> <path fill="white" d="M0,6L3,6L3,9L0,9L0,6M6,6L9,6L9,9L6,9L6,6M3,9L6,9L6,12L3,12L3,9M9,9L12,9L12,12L9,12L9,9"></path> </pattern> <pattern y="0" x="0" height="12" width="12" patternUnits="userSpaceOnUse" id="startPattern"> <rect fill="rgb(100,100,100)" height="12" width="12" y="0" x="0"></rect> <rect stroke-width="1" stroke="rgb(200,200,200)" fill="none" height="5" width="5" y="3.5" x="3.5"></rect> &gt; </pattern> <pattern y="0" x="0" height="12" width="12" patternUnits="userSpaceOnUse" id="cp1pattern"> <rect class="cp1color" height="12" width="12" y="0" x="0"></rect> <path fill="black" d="M0,0L3,0L3,3L0,3L0,0M6,0L9,0L9,3L6,3L6,0M3,3L6,3L6,6L3,6L3,3M9,3L12,3L12,6L9,6L9,3"></path> <path fill="black" d="M0,6L3,6L3,9L0,9L0,6M6,6L9,6L9,9L6,9L6,6M3,9L6,9L6,12L3,12L3,9M9,9L12,9L12,12L9,12L9,9"></path> </pattern> <pattern y="0" x="0" height="12" width="12" patternUnits="userSpaceOnUse" id="cp2pattern"> <rect class="cp2color" height="12" width="12" y="0" x="0"></rect> <path fill="white" d="M0,0L3,0L3,3L0,3L0,0M6,0L9,0L9,3L6,3L6,0M3,3L6,3L6,6L3,6L3,3M9,3L12,3L12,6L9,6L9,3"></path> <path fill="white" d="M0,6L3,6L3,9L0,9L0,6M6,6L9,6L9,9L6,9L6,6M3,9L6,9L6,12L3,12L3,9M9,9L12,9L12,12L9,12L9,9"></path> </pattern> <pattern y="0" x="0" height="12" width="12" patternUnits="userSpaceOnUse" id="cp3pattern"> <rect class="cp3color" height="12" width="12" y="0" x="0"></rect> <path fill="black" d="M0,0L3,0L3,3L0,3L0,0M6,0L9,0L9,3L6,3L6,0M3,3L6,3L6,6L3,6L3,3M9,3L12,3L12,6L9,6L9,3"></path> <path fill="black" d="M0,6L3,6L3,9L0,9L0,6M6,6L9,6L9,9L6,9L6,6M3,9L6,9L6,12L3,12L3,9M9,9L12,9L12,12L9,12L9,9"></path> </pattern> <pattern y="0" x="0" height="12" width="12" patternUnits="userSpaceOnUse" id="cp4pattern"> <rect class="cp4color" height="12" width="12" y="0" x="0"></rect> <path fill="white" d="M0,0L3,0L3,3L0,3L0,0M6,0L9,0L9,3L6,3L6,0M3,3L6,3L6,6L3,6L3,3M9,3L12,3L12,6L9,6L9,3"></path> <path fill="white" d="M0,6L3,6L3,9L0,9L0,6M6,6L9,6L9,9L6,9L6,6M3,9L6,9L6,12L3,12L3,9M9,9L12,9L12,12L9,12L9,9"></path> </pattern> <pattern y="0" x="0" height="12" width="12" patternUnits="userSpaceOnUse" id="cp5pattern"> <rect class="cp5color" height="12" width="12" y="0" x="0"></rect> <path fill="black" d="M0,0L3,0L3,3L0,3L0,0M6,0L9,0L9,3L6,3L6,0M3,3L6,3L6,6L3,6L3,3M9,3L12,3L12,6L9,6L9,3"></path> <path fill="black" d="M0,6L3,6L3,9L0,9L0,6M6,6L9,6L9,9L6,9L6,6M3,9L6,9L6,12L3,12L3,9M9,9L12,9L12,12L9,12L9,9"></path> </pattern> <pattern y="0" x="0" height="12" width="12" patternUnits="userSpaceOnUse" id="cp6pattern"> <rect class="cp6color" height="12" width="12" y="0" x="0"></rect> <path fill="white" d="M0,0L3,0L3,3L0,3L0,0M6,0L9,0L9,3L6,3L6,0M3,3L6,3L6,6L3,6L3,3M9,3L12,3L12,6L9,6L9,3"></path> <path fill="white" d="M0,6L3,6L3,9L0,9L0,6M6,6L9,6L9,9L6,9L6,6M3,9L6,9L6,12L3,12L3,9M9,9L12,9L12,12L9,12L9,9"></path> </pattern> <pattern y="0" x="0" height="12" width="12" patternUnits="userSpaceOnUse" id="cp7pattern"> <rect class="cp7color" height="12" width="12" y="0" x="0"></rect> <path fill="black" d="M0,0L3,0L3,3L0,3L0,0M6,0L9,0L9,3L6,3L6,0M3,3L6,3L6,6L3,6L3,3M9,3L12,3L12,6L9,6L9,3"></path> <path fill="black" d="M0,6L3,6L3,9L0,9L0,6M6,6L9,6L9,9L6,9L6,6M3,9L6,9L6,12L3,12L3,9M9,9L12,9L12,12L9,12L9,9"></path> </pattern> <pattern y="0" x="0" height="12" width="12" patternUnits="userSpaceOnUse" id="cp8pattern"> <rect class="cp8color" height="12" width="12" y="0" x="0"></rect> <path fill="white" d="M0,0L3,0L3,3L0,3L0,0M6,0L9,0L9,3L6,3L6,0M3,3L6,3L6,6L3,6L3,3M9,3L12,3L12,6L9,6L9,3"></path> <path fill="white" d="M0,6L3,6L3,9L0,9L0,6M6,6L9,6L9,9L6,9L6,6M3,9L6,9L6,12L3,12L3,9M9,9L12,9L12,12L9,12L9,9"></path> </pattern> <pattern y="0" x="0" height="12" width="12" patternUnits="userSpaceOnUse" id="cp9pattern"> <rect class="cp9color" height="12" width="12" y="0" x="0"></rect> <path fill="black" d="M0,0L3,0L3,3L0,3L0,0M6,0L9,0L9,3L6,3L6,0M3,3L6,3L6,6L3,6L3,3M9,3L12,3L12,6L9,6L9,3"></path> <path fill="black" d="M0,6L3,6L3,9L0,9L0,6M6,6L9,6L9,9L6,9L6,6M3,9L6,9L6,12L3,12L3,9M9,9L12,9L12,12L9,12L9,9"></path> </pattern> </defs> <rect height="100%" width="100%" y="0" x="0" class="grass" id="mainfill"></rect> <g id="paths"><path class="cp1" d="M864,180L864,180L900,180L900,192L864,192Z"></path><path class="cp2" d="M48,180L48,180L84,180L84,192L48,192Z"></path><path class="parc" d="M0,0L0,0L12,0L12,96L0,96Z"></path><path class="sand" d="M732,36L732,36L816,36L816,48L840,48L840,60L864,60L864,72L876,72L876,84L888,84L888,96L900,96L900,120L912,120L912,144L924,144L924,228L912,228L912,252L900,252L900,276L888,276L888,288L876,288L876,300L864,300L864,312L840,312L840,324L816,324L816,336L732,336L732,324L708,324L708,312L684,312L684,300L660,300L660,288L636,288L636,276L612,276L612,264L588,264L588,252L564,252L564,240L540,240L540,228L516,228L516,216L360,216L360,228L336,228L336,240L312,240L312,252L288,252L288,264L264,264L264,276L240,276L240,288L216,288L216,300L192,300L192,312L108,312L108,300L84,300L84,288L72,288L72,276L60,276L60,264L48,264L48,252L36,252L36,216L24,216L24,156L36,156L36,120L48,120L48,108L60,108L60,96L72,96L72,84L84,84L84,72L108,72L108,60L192,60L192,72L216,72L216,84L240,84L240,96L264,96L264,108L288,108L288,120L312,120L312,132L336,132L336,144L360,144L360,156L516,156L516,144L540,144L540,132L564,132L564,120L588,120L588,108L612,108L612,96L636,96L636,84L660,84L660,72L684,72L684,60L708,60L708,48L732,48L732,36M732,60L732,60L720,60L720,72L696,72L696,84L684,84L684,96L672,96L672,108L660,108L660,120L648,120L648,132L636,132L636,144L624,144L624,156L612,156L612,168L276,168L276,156L252,156L252,144L240,144L240,132L228,132L228,120L216,120L216,108L204,108L204,96L180,96L180,84L108,84L108,96L84,96L84,108L72,108L72,132L60,132L60,156L48,156L48,216L60,216L60,240L72,240L72,264L84,264L84,276L108,276L108,288L180,288L180,276L204,276L204,264L216,264L216,252L228,252L228,240L240,240L240,228L252,228L252,216L276,216L276,204L612,204L612,216L624,216L624,228L636,228L636,240L648,240L648,252L660,252L660,264L672,264L672,276L684,276L684,288L696,288L696,300L720,300L720,312L816,312L816,300L840,300L840,288L852,288L852,276L864,276L864,264L876,264L876,252L888,252L888,228L900,228L900,144L888,144L888,120L876,120L876,108L864,108L864,96L852,96L852,84L840,84L840,72L804,72L804,60L732,60M120,120L120,120L168,120L168,132L180,132L180,144L192,144L192,156L204,156L204,180L216,180L216,192L204,192L204,216L192,216L192,228L180,228L180,240L168,240L168,252L120,252L120,240L108,240L108,228L96,228L96,216L84,216L84,156L96,156L96,144L108,144L108,132L120,132L120,120M816,132L816,132L828,132L828,144L816,144L816,132M816,144L816,144L816,156L804,156L804,144L816,144M804,156L804,156L804,216L780,216L780,240L768,240L768,216L744,216L744,156L804,156M768,168L768,168L756,168L756,204L792,204L792,168L768,168M768,180L768,180L780,180L780,192L768,192Z"></path><path class="road" d="M720,60L720,60L804,60L804,72L840,72L840,84L852,84L852,96L864,96L864,108L876,108L876,120L888,120L888,144L900,144L900,180L864,180L864,156L852,156L852,132L840,132L840,120L828,120L828,108L804,108L804,96L744,96L744,108L720,108L720,120L708,120L708,132L696,132L696,156L684,156L684,168L672,168L672,204L684,204L684,216L696,216L696,240L708,240L708,252L720,252L720,264L744,264L744,276L804,276L804,264L828,264L828,252L840,252L840,240L852,240L852,216L864,216L864,192L900,192L900,228L888,228L888,252L876,252L876,264L864,264L864,276L852,276L852,288L840,288L840,300L816,300L816,312L720,312L720,300L696,300L696,288L684,288L684,276L672,276L672,264L660,264L660,252L648,252L648,240L636,240L636,228L624,228L624,216L612,216L612,204L444,204L444,192L432,192L432,180L420,180L420,168L432,168L432,180L444,180L444,168L612,168L612,156L624,156L624,144L636,144L636,132L648,132L648,120L660,120L660,108L672,108L672,96L684,96L684,84L696,84L696,72L720,72L720,60M108,84L108,84L180,84L180,96L204,96L204,108L216,108L216,120L228,120L228,132L240,132L240,144L252,144L252,156L276,156L276,168L372,168L372,204L276,204L276,216L252,216L252,228L240,228L240,240L228,240L228,252L216,252L216,264L204,264L204,276L180,276L180,288L108,288L108,276L84,276L84,264L72,264L72,240L60,240L60,216L48,216L48,192L84,192L84,216L96,216L96,228L108,228L108,240L120,240L120,252L168,252L168,240L180,240L180,228L192,228L192,216L204,216L204,192L216,192L216,180L204,180L204,156L192,156L192,144L180,144L180,132L168,132L168,120L120,120L120,132L108,132L108,144L96,144L96,156L84,156L84,180L48,180L48,156L60,156L60,132L72,132L72,108L84,108L84,96L108,96L108,84M396,168L396,168L408,168L408,180L396,180L396,168M408,180L408,180L420,180L420,192L408,192L408,180M396,180L396,180L396,192L384,192L384,180L396,180M396,192L396,192L408,192L408,204L396,204L396,192M420,192L420,192L432,192L432,204L420,204Z"></path><path class="finish" d="M372,168L372,168L384,168L384,204L372,204Z"></path><path class="start" d="M384,168L384,168L396,168L396,180L384,180L384,168M396,180L396,180L408,180L408,168L420,168L420,180L408,180L408,192L396,192L396,180M420,180L420,180L432,180L432,168L444,168L444,180L432,180L432,192L420,192L420,180M408,192L408,192L420,192L420,204L408,204L408,192M396,192L396,192L396,204L384,204L384,192L396,192M432,192L432,192L444,192L444,204L432,204Z"></path></g> <rect opacity=".3" fill="url(#grid)" height="100%" width="100%" y="0" x="0"></rect></svg>