<svg height="1440" width="1236" id="mapSvgView" xmlns:xlink="http://www.w3.org/1999/xlink" version="1.1" xmlns="http://www.w3.org/2000/svg"> <defs> <style type="text/css"> .grass {fill: rgb(0, 200, 0);} .road {fill: rgb(128, 128, 128);} .start {fill: url(#startPattern)} .finish {fill: url(#finishPattern)} .mud {fill: rgb(100, 70, 0);} .sand {fill: rgb(230, 230, 115);} .water {fill: blue;} .earth {fill: brown;} .night {fill: black;} .parc {fill: rgb(200, 200, 200);} .cp1color {fill: rgb(0, 102, 255);} .cp2color {fill: rgb(0, 100, 200);} .cp3color {fill: rgb(0, 255, 102);} .cp4color {fill: rgb(0, 200, 0);} .cp5color {fill: rgb(255, 255, 0);} .cp6color {fill: rgb(200, 200, 0);} .cp7color {fill: rgb(255, 0, 0);} .cp8color {fill: rgb(200, 0, 0);} .cp9color {fill: rgb(255, 0, 255);} .cp1 {fill: url(#cp1pattern);} .cp2 {fill: url(#cp2pattern);} .cp3 {fill: url(#cp3pattern);} .cp4 {fill: url(#cp4pattern);} .cp5 {fill: url(#cp5pattern);} .cp6 {fill: url(#cp6pattern);} .cp7 {fill: url(#cp7pattern);} .cp8 {fill: url(#cp8pattern);} .cp9 {fill: url(#cp9pattern);} .primaryColor {fill: rgb(0, 255, 102);} </style> <pattern y="0" x="0" height="12" width="12" patternUnits="userSpaceOnUse" id="grid"> <line stroke-width="1" stroke="black" y2="12" x2="12" y1="0" x1="12"></line> <line stroke-width="1" stroke="black" y2="12" x2="12" y1="12" x1="0"></line> </pattern> <pattern y="0" x="0" height="12" width="12" patternUnits="userSpaceOnUse" id="finishPattern"> <rect fill="black" height="12" width="12" y="0" x="0"></rect> <path fill="white" d="M0,0L3,0L3,3L0,3L0,0M6,0L9,0L9,3L6,3L6,0M3,3L6,3L6,6L3,6L3,3M9,3L12,3L12,6L9,6L9,3"></path> <path fill="white" d="M0,6L3,6L3,9L0,9L0,6M6,6L9,6L9,9L6,9L6,6M3,9L6,9L6,12L3,12L3,9M9,9L12,9L12,12L9,12L9,9"></path> </pattern> <pattern y="0" x="0" height="12" width="12" patternUnits="userSpaceOnUse" id="startPattern"> <rect fill="rgb(100,100,100)" height="12" width="12" y="0" x="0"></rect> <rect stroke-width="1" stroke="rgb(200,200,200)" fill="none" height="5" width="5" y="3.5" x="3.5"></rect> &gt; </pattern> <pattern y="0" x="0" height="12" width="12" patternUnits="userSpaceOnUse" id="cp1pattern"> <rect class="cp1color" height="12" width="12" y="0" x="0"></rect> <path fill="black" d="M0,0L3,0L3,3L0,3L0,0M6,0L9,0L9,3L6,3L6,0M3,3L6,3L6,6L3,6L3,3M9,3L12,3L12,6L9,6L9,3"></path> <path fill="black" d="M0,6L3,6L3,9L0,9L0,6M6,6L9,6L9,9L6,9L6,6M3,9L6,9L6,12L3,12L3,9M9,9L12,9L12,12L9,12L9,9"></path> </pattern> <pattern y="0" x="0" height="12" width="12" patternUnits="userSpaceOnUse" id="cp2pattern"> <rect class="cp2color" height="12" width="12" y="0" x="0"></rect> <path fill="white" d="M0,0L3,0L3,3L0,3L0,0M6,0L9,0L9,3L6,3L6,0M3,3L6,3L6,6L3,6L3,3M9,3L12,3L12,6L9,6L9,3"></path> <path fill="white" d="M0,6L3,6L3,9L0,9L0,6M6,6L9,6L9,9L6,9L6,6M3,9L6,9L6,12L3,12L3,9M9,9L12,9L12,12L9,12L9,9"></path> </pattern> <pattern y="0" x="0" height="12" width="12" patternUnits="userSpaceOnUse" id="cp3pattern"> <rect class="cp3color" height="12" width="12" y="0" x="0"></rect> <path fill="black" d="M0,0L3,0L3,3L0,3L0,0M6,0L9,0L9,3L6,3L6,0M3,3L6,3L6,6L3,6L3,3M9,3L12,3L12,6L9,6L9,3"></path> <path fill="black" d="M0,6L3,6L3,9L0,9L0,6M6,6L9,6L9,9L6,9L6,6M3,9L6,9L6,12L3,12L3,9M9,9L12,9L12,12L9,12L9,9"></path> </pattern> <pattern y="0" x="0" height="12" width="12" patternUnits="userSpaceOnUse" id="cp4pattern"> <rect class="cp4color" height="12" width="12" y="0" x="0"></rect> <path fill="white" d="M0,0L3,0L3,3L0,3L0,0M6,0L9,0L9,3L6,3L6,0M3,3L6,3L6,6L3,6L3,3M9,3L12,3L12,6L9,6L9,3"></path> <path fill="white" d="M0,6L3,6L3,9L0,9L0,6M6,6L9,6L9,9L6,9L6,6M3,9L6,9L6,12L3,12L3,9M9,9L12,9L12,12L9,12L9,9"></path> </pattern> <pattern y="0" x="0" height="12" width="12" patternUnits="userSpaceOnUse" id="cp5pattern"> <rect class="cp5color" height="12" width="12" y="0" x="0"></rect> <path fill="black" d="M0,0L3,0L3,3L0,3L0,0M6,0L9,0L9,3L6,3L6,0M3,3L6,3L6,6L3,6L3,3M9,3L12,3L12,6L9,6L9,3"></path> <path fill="black" d="M0,6L3,6L3,9L0,9L0,6M6,6L9,6L9,9L6,9L6,6M3,9L6,9L6,12L3,12L3,9M9,9L12,9L12,12L9,12L9,9"></path> </pattern> <pattern y="0" x="0" height="12" width="12" patternUnits="userSpaceOnUse" id="cp6pattern"> <rect class="cp6color" height="12" width="12" y="0" x="0"></rect> <path fill="white" d="M0,0L3,0L3,3L0,3L0,0M6,0L9,0L9,3L6,3L6,0M3,3L6,3L6,6L3,6L3,3M9,3L12,3L12,6L9,6L9,3"></path> <path fill="white" d="M0,6L3,6L3,9L0,9L0,6M6,6L9,6L9,9L6,9L6,6M3,9L6,9L6,12L3,12L3,9M9,9L12,9L12,12L9,12L9,9"></path> </pattern> <pattern y="0" x="0" height="12" width="12" patternUnits="userSpaceOnUse" id="cp7pattern"> <rect class="cp7color" height="12" width="12" y="0" x="0"></rect> <path fill="black" d="M0,0L3,0L3,3L0,3L0,0M6,0L9,0L9,3L6,3L6,0M3,3L6,3L6,6L3,6L3,3M9,3L12,3L12,6L9,6L9,3"></path> <path fill="black" d="M0,6L3,6L3,9L0,9L0,6M6,6L9,6L9,9L6,9L6,6M3,9L6,9L6,12L3,12L3,9M9,9L12,9L12,12L9,12L9,9"></path> </pattern> <pattern y="0" x="0" height="12" width="12" patternUnits="userSpaceOnUse" id="cp8pattern"> <rect class="cp8color" height="12" width="12" y="0" x="0"></rect> <path fill="white" d="M0,0L3,0L3,3L0,3L0,0M6,0L9,0L9,3L6,3L6,0M3,3L6,3L6,6L3,6L3,3M9,3L12,3L12,6L9,6L9,3"></path> <path fill="white" d="M0,6L3,6L3,9L0,9L0,6M6,6L9,6L9,9L6,9L6,6M3,9L6,9L6,12L3,12L3,9M9,9L12,9L12,12L9,12L9,9"></path> </pattern> <pattern y="0" x="0" height="12" width="12" patternUnits="userSpaceOnUse" id="cp9pattern"> <rect class="cp9color" height="12" width="12" y="0" x="0"></rect> <path fill="black" d="M0,0L3,0L3,3L0,3L0,0M6,0L9,0L9,3L6,3L6,0M3,3L6,3L6,6L3,6L3,3M9,3L12,3L12,6L9,6L9,3"></path> <path fill="black" d="M0,6L3,6L3,9L0,9L0,6M6,6L9,6L9,9L6,9L6,6M3,9L6,9L6,12L3,12L3,9M9,9L12,9L12,12L9,12L9,9"></path> </pattern> </defs> <rect height="100%" width="100%" y="0" x="0" class="grass" id="mainfill"></rect> <g id="paths"><path class="cp1" d="M924,12L924,12L936,12L936,72L924,72Z"></path><path class="cp2" d="M972,732L972,732L1032,732L1032,744L972,744L972,732M1044,732L1044,732L1104,732L1104,744L1044,744Z"></path><path class="cp3" d="M924,1368L924,1368L936,1368L936,1428L924,1428Z"></path><path class="cp4" d="M48,732L48,732L108,732L108,744L48,744Z"></path><path class="cp7" d="M492,732L492,732L576,732L576,744L492,744Z"></path><path class="parc" d="M0,0L0,0L12,0L12,120L0,120Z"></path><path class="sand" d="M852,0L852,0L1008,0L1008,12L1020,12L1020,24L1032,24L1032,36L1044,36L1044,48L1056,48L1056,60L1068,60L1068,72L1080,72L1080,84L1092,84L1092,108L1104,108L1104,180L1092,180L1092,216L1080,216L1080,300L1068,300L1068,96L1056,96L1056,72L1044,72L1044,60L1032,60L1032,48L1020,48L1020,36L1008,36L1008,24L984,24L984,12L876,12L876,24L852,24L852,36L840,36L840,48L828,48L828,60L816,60L816,72L804,72L804,96L792,96L792,60L804,60L804,48L816,48L816,36L828,36L828,24L840,24L840,12L852,12L852,0M996,264L996,264L1008,264L1008,300L996,300L996,264M996,300L996,300L996,324L984,324L984,300L996,300M1080,300L1080,300L1092,300L1092,324L1080,324L1080,300M984,324L984,324L984,348L972,348L972,324L984,324M1092,324L1092,324L1104,324L1104,348L1092,348L1092,324M624,324L624,324L648,324L648,348L624,348L624,324M624,348L624,348L624,372L600,372L600,348L624,348M972,348L972,348L972,384L960,384L960,408L948,408L948,420L936,420L936,432L924,432L924,444L912,444L912,456L900,456L900,480L888,480L888,516L876,516L876,588L888,588L888,612L900,612L900,636L912,636L912,648L924,648L924,660L936,660L936,672L948,672L948,684L960,684L960,708L972,708L972,768L960,768L960,792L948,792L948,804L936,804L936,816L924,816L924,828L912,828L912,840L900,840L900,864L888,864L888,900L876,900L876,972L888,972L888,996L900,996L900,1020L912,1020L912,1032L924,1032L924,1044L936,1044L936,1056L948,1056L948,1068L960,1068L960,1092L972,1092L972,1116L984,1116L984,1140L996,1140L996,1164L1008,1164L1008,1332L996,1332L996,1296L984,1296L984,1260L972,1260L972,1188L984,1188L984,1152L972,1152L972,1140L960,1140L960,1116L948,1116L948,1104L936,1104L936,1092L912,1092L912,1080L888,1080L888,1068L876,1068L876,1056L864,1056L864,1044L852,1044L852,1032L840,1032L840,792L828,792L828,768L816,768L816,756L804,756L804,744L792,744L792,732L804,732L804,720L816,720L816,708L828,708L828,684L840,684L840,636L852,636L852,492L864,492L864,468L876,468L876,456L888,456L888,444L900,444L900,432L912,432L912,420L924,420L924,408L936,408L936,396L948,396L948,372L960,372L960,348L972,348M1104,348L1104,348L1116,348L1116,372L1128,372L1128,396L1140,396L1140,408L1152,408L1152,420L1164,420L1164,432L1176,432L1176,444L1188,444L1188,456L1200,456L1200,468L1212,468L1212,492L1224,492L1224,528L1236,528L1236,624L1224,624L1224,648L1212,648L1212,660L1200,660L1200,672L1188,672L1188,684L1176,684L1176,708L1164,708L1164,720L1152,720L1152,732L1140,732L1140,744L1128,744L1128,768L1104,768L1104,708L1116,708L1116,684L1128,684L1128,672L1140,672L1140,660L1152,660L1152,648L1164,648L1164,636L1176,636L1176,612L1188,612L1188,588L1200,588L1200,516L1188,516L1188,480L1176,480L1176,456L1164,456L1164,444L1152,444L1152,432L1140,432L1140,420L1128,420L1128,408L1104,408L1104,348M1032,348L1032,348L1044,348L1044,396L1056,396L1056,420L1068,420L1068,444L1080,444L1080,456L1092,456L1092,468L1104,468L1104,480L1116,480L1116,492L1128,492L1128,516L1116,516L1116,504L1104,504L1104,492L1080,492L1080,480L1068,480L1068,468L1056,468L1056,456L1020,456L1020,468L1008,468L1008,480L996,480L996,492L972,492L972,504L960,504L960,516L948,516L948,492L960,492L960,480L972,480L972,468L984,468L984,456L996,456L996,444L1008,444L1008,420L1020,420L1020,396L1032,396L1032,348M600,372L600,372L600,492L552,492L552,540L528,540L528,492L480,492L480,372L600,372M516,396L516,396L504,396L504,468L576,468L576,396L516,396M528,420L528,420L552,420L552,444L528,444L528,420M948,516L948,516L948,528L936,528L936,516L948,516M1128,516L1128,516L1140,516L1140,528L1128,528L1128,516M132,552L132,552L228,552L228,564L252,564L252,576L276,576L276,588L288,588L288,600L300,600L300,612L312,612L312,624L324,624L324,636L336,636L336,660L348,660L348,684L372,684L372,672L408,672L408,684L432,684L432,696L636,696L636,684L660,684L660,672L696,672L696,684L720,684L720,696L780,696L780,672L792,672L792,612L804,612L804,672L792,672L792,696L780,696L780,708L756,708L756,720L720,720L720,708L348,708L348,720L324,720L324,708L312,708L312,696L300,696L300,672L288,672L288,648L276,648L276,636L264,636L264,624L240,624L240,612L216,612L216,600L144,600L144,612L120,612L120,624L96,624L96,636L84,636L84,648L72,648L72,672L60,672L60,696L48,696L48,780L60,780L60,804L72,804L72,828L84,828L84,840L96,840L96,852L120,852L120,864L144,864L144,876L216,876L216,864L240,864L240,852L264,852L264,840L276,840L276,828L288,828L288,804L300,804L300,780L312,780L312,768L324,768L324,756L348,756L348,768L720,768L720,756L756,756L756,768L780,768L780,780L720,780L720,792L696,792L696,804L660,804L660,792L636,792L636,780L432,780L432,792L408,792L408,804L372,804L372,792L348,792L348,816L336,816L336,840L324,840L324,852L312,852L312,864L300,864L300,876L288,876L288,888L276,888L276,900L252,900L252,912L228,912L228,924L132,924L132,912L108,912L108,900L84,900L84,888L72,888L72,876L60,876L60,864L48,864L48,852L36,852L36,840L24,840L24,816L12,816L12,780L0,780L0,696L12,696L12,660L24,660L24,636L36,636L36,624L48,624L48,612L60,612L60,600L72,600L72,588L84,588L84,576L108,576L108,564L132,564L132,552M972,612L972,612L984,612L984,624L972,624L972,612M984,624L984,624L996,624L996,636L984,636L984,624M1092,612L1092,612L1104,612L1104,624L1092,624L1092,612M1092,624L1092,624L1092,636L1080,636L1080,624L1092,624M996,636L996,636L1008,636L1008,648L996,648L996,636M1080,636L1080,636L1080,648L1068,648L1068,636L1080,636M1008,648L1008,648L1020,648L1020,660L1056,660L1056,648L1068,648L1068,672L1056,672L1056,708L1044,708L1044,780L1056,780L1056,804L1068,804L1068,828L1080,828L1080,840L1092,840L1092,852L1104,852L1104,864L1116,864L1116,876L1092,876L1092,864L1080,864L1080,852L1056,852L1056,840L1044,840L1044,828L1032,828L1032,840L1020,840L1020,852L996,852L996,864L984,864L984,876L960,876L960,864L972,864L972,852L984,852L984,840L996,840L996,828L1008,828L1008,804L1020,804L1020,780L1032,780L1032,708L1020,708L1020,672L1008,672L1008,648M396,732L396,732L492,732L492,744L396,744L396,732M576,732L576,732L672,732L672,744L576,744L576,732M780,780L780,780L792,780L792,792L780,792L780,780M1140,804L1140,804L1152,804L1152,816L1140,816L1140,804M1152,816L1152,816L1164,816L1164,828L1152,828L1152,816M1164,828L1164,828L1176,828L1176,840L1164,840L1164,828M1176,840L1176,840L1188,840L1188,852L1200,852L1200,864L1212,864L1212,876L1224,876L1224,900L1236,900L1236,1032L1224,1032L1224,1044L1212,1044L1212,1056L1200,1056L1200,1068L1188,1068L1188,1080L1164,1080L1164,1092L1140,1092L1140,1104L1128,1104L1128,1116L1116,1116L1116,1140L1104,1140L1104,1152L1092,1152L1092,1188L1104,1188L1104,1260L1092,1260L1092,1296L1080,1296L1080,1344L1068,1344L1068,1164L1080,1164L1080,1140L1092,1140L1092,1116L1104,1116L1104,1092L1116,1092L1116,1068L1128,1068L1128,1056L1140,1056L1140,1044L1152,1044L1152,1032L1164,1032L1164,1020L1176,1020L1176,996L1188,996L1188,972L1200,972L1200,900L1188,900L1188,864L1176,864L1176,840M960,876L960,876L960,888L948,888L948,876L960,876M1116,876L1116,876L1128,876L1128,888L1116,888L1116,876M972,996L972,996L984,996L984,1008L972,1008L972,996M984,1008L984,1008L996,1008L996,1020L984,1020L984,1008M1092,996L1092,996L1104,996L1104,1008L1092,1008L1092,996M1092,1008L1092,1008L1092,1020L1080,1020L1080,1008L1092,1008M996,1020L996,1020L1008,1020L1008,1032L996,1032L996,1020M1080,1020L1080,1020L1080,1032L1068,1032L1068,1020L1080,1020M1008,1032L1008,1032L1020,1032L1020,1044L1032,1044L1032,1056L1044,1056L1044,1044L1056,1044L1056,1032L1068,1032L1068,1056L1056,1056L1056,1092L1044,1092L1044,1116L1032,1116L1032,1092L1020,1092L1020,1056L1008,1056L1008,1032M780,1188L780,1188L792,1188L792,1344L804,1344L804,1368L816,1368L816,1380L828,1380L828,1392L840,1392L840,1404L852,1404L852,1416L876,1416L876,1428L984,1428L984,1416L1008,1416L1008,1404L1020,1404L1020,1392L1032,1392L1032,1380L1044,1380L1044,1368L1056,1368L1056,1344L1068,1344L1068,1380L1056,1380L1056,1392L1044,1392L1044,1404L1032,1404L1032,1416L1020,1416L1020,1428L1008,1428L1008,1440L840,1440L840,1428L828,1428L828,1416L816,1416L816,1404L804,1404L804,1392L792,1392L792,1380L780,1380L780,1344L768,1344L768,1308L756,1308L756,1236L768,1236L768,1212L780,1212Z"></path><path class="road" d="M876,12L876,12L924,12L924,72L888,72L888,84L876,84L876,96L864,96L864,108L852,108L852,540L840,540L840,528L828,528L828,540L816,540L816,528L804,528L804,540L792,540L792,96L804,96L804,72L816,72L816,60L828,60L828,48L840,48L840,36L852,36L852,24L876,24L876,12M936,12L936,12L984,12L984,24L1008,24L1008,36L1020,36L1020,48L1032,48L1032,60L1044,60L1044,72L1056,72L1056,96L1068,96L1068,300L1080,300L1080,324L1092,324L1092,348L1104,348L1104,408L1128,408L1128,420L1140,420L1140,432L1152,432L1152,444L1164,444L1164,456L1176,456L1176,480L1188,480L1188,516L1200,516L1200,588L1188,588L1188,612L1176,612L1176,636L1164,636L1164,648L1152,648L1152,660L1140,660L1140,672L1128,672L1128,684L1116,684L1116,708L1104,708L1104,732L1044,732L1044,708L1056,708L1056,672L1068,672L1068,648L1080,648L1080,636L1092,636L1092,624L1104,624L1104,612L1116,612L1116,600L1128,600L1128,576L1140,576L1140,516L1128,516L1128,492L1116,492L1116,480L1104,480L1104,468L1092,468L1092,456L1080,456L1080,444L1068,444L1068,420L1056,420L1056,396L1044,396L1044,348L1032,348L1032,396L1020,396L1020,420L1008,420L1008,444L996,444L996,456L984,456L984,468L972,468L972,480L960,480L960,492L948,492L948,516L936,516L936,576L948,576L948,600L960,600L960,612L972,612L972,624L984,624L984,636L996,636L996,648L1008,648L1008,672L1020,672L1020,708L1032,708L1032,732L972,732L972,708L960,708L960,684L948,684L948,672L936,672L936,660L924,660L924,648L912,648L912,636L900,636L900,612L888,612L888,588L876,588L876,516L888,516L888,480L900,480L900,456L912,456L912,444L924,444L924,432L936,432L936,420L948,420L948,408L960,408L960,384L972,384L972,348L984,348L984,324L996,324L996,300L1008,300L1008,108L996,108L996,96L984,96L984,84L972,84L972,72L936,72L936,12M804,540L804,540L816,540L816,552L804,552L804,540M828,540L828,540L840,540L840,552L828,552L828,540M816,552L816,552L828,552L828,564L816,564L816,552M804,552L804,552L804,564L792,564L792,552L804,552M840,552L840,552L852,552L852,564L840,564L840,552M804,564L804,564L816,564L816,576L828,576L828,564L840,564L840,576L852,576L852,600L792,600L792,576L804,576L804,564M144,600L144,600L216,600L216,612L240,612L240,624L264,624L264,636L276,636L276,648L288,648L288,672L300,672L300,696L312,696L312,708L324,708L324,720L348,720L348,708L720,708L720,720L756,720L756,708L780,708L780,696L792,696L792,672L804,672L804,612L852,612L852,636L840,636L840,684L828,684L828,708L816,708L816,720L804,720L804,732L792,732L792,744L804,744L804,756L816,756L816,768L828,768L828,792L840,792L840,1308L852,1308L852,1332L864,1332L864,1344L876,1344L876,1356L888,1356L888,1368L924,1368L924,1428L876,1428L876,1416L852,1416L852,1404L840,1404L840,1392L828,1392L828,1380L816,1380L816,1368L804,1368L804,1344L792,1344L792,780L780,780L780,768L756,768L756,756L720,756L720,768L348,768L348,756L324,756L324,768L312,768L312,780L300,780L300,804L288,804L288,828L276,828L276,840L264,840L264,852L240,852L240,864L216,864L216,876L144,876L144,864L120,864L120,852L96,852L96,840L84,840L84,828L72,828L72,804L60,804L60,780L48,780L48,744L108,744L108,768L120,768L120,792L132,792L132,804L156,804L156,816L204,816L204,804L228,804L228,792L240,792L240,768L252,768L252,744L264,744L264,732L252,732L252,708L240,708L240,684L228,684L228,672L204,672L204,660L156,660L156,672L132,672L132,684L120,684L120,708L108,708L108,732L48,732L48,696L60,696L60,672L72,672L72,648L84,648L84,636L96,636L96,624L120,624L120,612L144,612L144,600M408,732L408,732L396,732L396,744L672,744L672,732L408,732M972,744L972,744L1032,744L1032,780L1020,780L1020,804L1008,804L1008,828L996,828L996,840L984,840L984,852L972,852L972,864L960,864L960,876L948,876L948,900L936,900L936,960L948,960L948,984L960,984L960,996L972,996L972,1008L984,1008L984,1020L996,1020L996,1032L1008,1032L1008,1056L1020,1056L1020,1092L1032,1092L1032,1116L1044,1116L1044,1092L1056,1092L1056,1056L1068,1056L1068,1032L1080,1032L1080,1020L1092,1020L1092,1008L1104,1008L1104,996L1116,996L1116,984L1128,984L1128,960L1140,960L1140,900L1128,900L1128,876L1116,876L1116,864L1104,864L1104,852L1092,852L1092,840L1080,840L1080,828L1068,828L1068,804L1056,804L1056,780L1044,780L1044,744L1104,744L1104,768L1116,768L1116,792L1128,792L1128,804L1140,804L1140,816L1152,816L1152,828L1164,828L1164,840L1176,840L1176,864L1188,864L1188,900L1200,900L1200,972L1188,972L1188,996L1176,996L1176,1020L1164,1020L1164,1032L1152,1032L1152,1044L1140,1044L1140,1056L1128,1056L1128,1068L1116,1068L1116,1092L1104,1092L1104,1116L1092,1116L1092,1140L1080,1140L1080,1164L1068,1164L1068,1344L1056,1344L1056,1368L1044,1368L1044,1380L1032,1380L1032,1392L1020,1392L1020,1404L1008,1404L1008,1416L984,1416L984,1428L936,1428L936,1368L972,1368L972,1356L984,1356L984,1344L996,1344L996,1332L1008,1332L1008,1164L996,1164L996,1140L984,1140L984,1116L972,1116L972,1092L960,1092L960,1068L948,1068L948,1056L936,1056L936,1044L924,1044L924,1032L912,1032L912,1020L900,1020L900,996L888,996L888,972L876,972L876,900L888,900L888,864L900,864L900,840L912,840L912,828L924,828L924,816L936,816L936,804L948,804L948,792L960,792L960,768L972,768Z"></path><path class="start" d="M804,528L804,528L816,528L816,540L804,540L804,528M816,540L816,540L828,540L828,528L840,528L840,540L828,540L828,552L816,552L816,540M804,540L804,540L804,552L792,552L792,540L804,540M840,540L840,540L852,540L852,552L840,552L840,540M804,552L804,552L816,552L816,564L804,564L804,552M828,552L828,552L840,552L840,564L828,564L828,552M816,564L816,564L828,564L828,576L816,576L816,564M804,564L804,564L804,576L792,576L792,564L804,564M840,564L840,564L852,564L852,576L840,576Z"></path><path class="finish" d="M792,600L792,600L852,600L852,612L792,612Z"></path></g> <rect opacity=".3" fill="url(#grid)" height="100%" width="100%" y="0" x="0"></rect></svg>