<svg height="360" width="720" id="mapSvgView" xmlns:xlink="http://www.w3.org/1999/xlink" version="1.1" xmlns="http://www.w3.org/2000/svg"> <defs> <style type="text/css"> .grass {fill: rgb(0, 200, 0);} .road {fill: rgb(128, 128, 128);} .start {fill: url(#startPattern)} .finish {fill: url(#finishPattern)} .mud {fill: rgb(100, 70, 0);} .sand {fill: rgb(230, 230, 115);} .water {fill: blue;} .earth {fill: brown;} .night {fill: black;} .parc {fill: rgb(200, 200, 200);} .cp1color {fill: rgb(0, 102, 255);} .cp2color {fill: rgb(0, 100, 200);} .cp3color {fill: rgb(0, 255, 102);} .cp4color {fill: rgb(0, 200, 0);} .cp5color {fill: rgb(255, 255, 0);} .cp6color {fill: rgb(200, 200, 0);} .cp7color {fill: rgb(255, 0, 0);} .cp8color {fill: rgb(200, 0, 0);} .cp9color {fill: rgb(255, 0, 255);} .cp1 {fill: url(#cp1pattern);} .cp2 {fill: url(#cp2pattern);} .cp3 {fill: url(#cp3pattern);} .cp4 {fill: url(#cp4pattern);} .cp5 {fill: url(#cp5pattern);} .cp6 {fill: url(#cp6pattern);} .cp7 {fill: url(#cp7pattern);} .cp8 {fill: url(#cp8pattern);} .cp9 {fill: url(#cp9pattern);} .primaryColor {fill: rgb(0, 255, 102);} </style> <pattern y="0" x="0" height="12" width="12" patternUnits="userSpaceOnUse" id="grid"> <line stroke-width="1" stroke="black" y2="12" x2="12" y1="0" x1="12"></line> <line stroke-width="1" stroke="black" y2="12" x2="12" y1="12" x1="0"></line> </pattern> <pattern y="0" x="0" height="12" width="12" patternUnits="userSpaceOnUse" id="finishPattern"> <rect fill="black" height="12" width="12" y="0" x="0"></rect> <path fill="white" d="M0,0L3,0L3,3L0,3L0,0M6,0L9,0L9,3L6,3L6,0M3,3L6,3L6,6L3,6L3,3M9,3L12,3L12,6L9,6L9,3"></path> <path fill="white" d="M0,6L3,6L3,9L0,9L0,6M6,6L9,6L9,9L6,9L6,6M3,9L6,9L6,12L3,12L3,9M9,9L12,9L12,12L9,12L9,9"></path> </pattern> <pattern y="0" x="0" height="12" width="12" patternUnits="userSpaceOnUse" id="startPattern"> <rect fill="rgb(100,100,100)" height="12" width="12" y="0" x="0"></rect> <rect stroke-width="1" stroke="rgb(200,200,200)" fill="none" height="5" width="5" y="3.5" x="3.5"></rect> &gt; </pattern> <pattern y="0" x="0" height="12" width="12" patternUnits="userSpaceOnUse" id="cp1pattern"> <rect class="cp1color" height="12" width="12" y="0" x="0"></rect> <path fill="black" d="M0,0L3,0L3,3L0,3L0,0M6,0L9,0L9,3L6,3L6,0M3,3L6,3L6,6L3,6L3,3M9,3L12,3L12,6L9,6L9,3"></path> <path fill="black" d="M0,6L3,6L3,9L0,9L0,6M6,6L9,6L9,9L6,9L6,6M3,9L6,9L6,12L3,12L3,9M9,9L12,9L12,12L9,12L9,9"></path> </pattern> <pattern y="0" x="0" height="12" width="12" patternUnits="userSpaceOnUse" id="cp2pattern"> <rect class="cp2color" height="12" width="12" y="0" x="0"></rect> <path fill="white" d="M0,0L3,0L3,3L0,3L0,0M6,0L9,0L9,3L6,3L6,0M3,3L6,3L6,6L3,6L3,3M9,3L12,3L12,6L9,6L9,3"></path> <path fill="white" d="M0,6L3,6L3,9L0,9L0,6M6,6L9,6L9,9L6,9L6,6M3,9L6,9L6,12L3,12L3,9M9,9L12,9L12,12L9,12L9,9"></path> </pattern> <pattern y="0" x="0" height="12" width="12" patternUnits="userSpaceOnUse" id="cp3pattern"> <rect class="cp3color" height="12" width="12" y="0" x="0"></rect> <path fill="black" d="M0,0L3,0L3,3L0,3L0,0M6,0L9,0L9,3L6,3L6,0M3,3L6,3L6,6L3,6L3,3M9,3L12,3L12,6L9,6L9,3"></path> <path fill="black" d="M0,6L3,6L3,9L0,9L0,6M6,6L9,6L9,9L6,9L6,6M3,9L6,9L6,12L3,12L3,9M9,9L12,9L12,12L9,12L9,9"></path> </pattern> <pattern y="0" x="0" height="12" width="12" patternUnits="userSpaceOnUse" id="cp4pattern"> <rect class="cp4color" height="12" width="12" y="0" x="0"></rect> <path fill="white" d="M0,0L3,0L3,3L0,3L0,0M6,0L9,0L9,3L6,3L6,0M3,3L6,3L6,6L3,6L3,3M9,3L12,3L12,6L9,6L9,3"></path> <path fill="white" d="M0,6L3,6L3,9L0,9L0,6M6,6L9,6L9,9L6,9L6,6M3,9L6,9L6,12L3,12L3,9M9,9L12,9L12,12L9,12L9,9"></path> </pattern> <pattern y="0" x="0" height="12" width="12" patternUnits="userSpaceOnUse" id="cp5pattern"> <rect class="cp5color" height="12" width="12" y="0" x="0"></rect> <path fill="black" d="M0,0L3,0L3,3L0,3L0,0M6,0L9,0L9,3L6,3L6,0M3,3L6,3L6,6L3,6L3,3M9,3L12,3L12,6L9,6L9,3"></path> <path fill="black" d="M0,6L3,6L3,9L0,9L0,6M6,6L9,6L9,9L6,9L6,6M3,9L6,9L6,12L3,12L3,9M9,9L12,9L12,12L9,12L9,9"></path> </pattern> <pattern y="0" x="0" height="12" width="12" patternUnits="userSpaceOnUse" id="cp6pattern"> <rect class="cp6color" height="12" width="12" y="0" x="0"></rect> <path fill="white" d="M0,0L3,0L3,3L0,3L0,0M6,0L9,0L9,3L6,3L6,0M3,3L6,3L6,6L3,6L3,3M9,3L12,3L12,6L9,6L9,3"></path> <path fill="white" d="M0,6L3,6L3,9L0,9L0,6M6,6L9,6L9,9L6,9L6,6M3,9L6,9L6,12L3,12L3,9M9,9L12,9L12,12L9,12L9,9"></path> </pattern> <pattern y="0" x="0" height="12" width="12" patternUnits="userSpaceOnUse" id="cp7pattern"> <rect class="cp7color" height="12" width="12" y="0" x="0"></rect> <path fill="black" d="M0,0L3,0L3,3L0,3L0,0M6,0L9,0L9,3L6,3L6,0M3,3L6,3L6,6L3,6L3,3M9,3L12,3L12,6L9,6L9,3"></path> <path fill="black" d="M0,6L3,6L3,9L0,9L0,6M6,6L9,6L9,9L6,9L6,6M3,9L6,9L6,12L3,12L3,9M9,9L12,9L12,12L9,12L9,9"></path> </pattern> <pattern y="0" x="0" height="12" width="12" patternUnits="userSpaceOnUse" id="cp8pattern"> <rect class="cp8color" height="12" width="12" y="0" x="0"></rect> <path fill="white" d="M0,0L3,0L3,3L0,3L0,0M6,0L9,0L9,3L6,3L6,0M3,3L6,3L6,6L3,6L3,3M9,3L12,3L12,6L9,6L9,3"></path> <path fill="white" d="M0,6L3,6L3,9L0,9L0,6M6,6L9,6L9,9L6,9L6,6M3,9L6,9L6,12L3,12L3,9M9,9L12,9L12,12L9,12L9,9"></path> </pattern> <pattern y="0" x="0" height="12" width="12" patternUnits="userSpaceOnUse" id="cp9pattern"> <rect class="cp9color" height="12" width="12" y="0" x="0"></rect> <path fill="black" d="M0,0L3,0L3,3L0,3L0,0M6,0L9,0L9,3L6,3L6,0M3,3L6,3L6,6L3,6L3,3M9,3L12,3L12,6L9,6L9,3"></path> <path fill="black" d="M0,6L3,6L3,9L0,9L0,6M6,6L9,6L9,9L6,9L6,6M3,9L6,9L6,12L3,12L3,9M9,9L12,9L12,12L9,12L9,9"></path> </pattern> </defs> <rect height="100%" width="100%" y="0" x="0" class="road" id="mainfill"></rect> <g id="paths"><path class="cp1" d="M612,60L612,60L684,60L684,72L612,72Z"></path><path class="cp2" d="M636,192L636,192L648,192L648,204L636,204L636,192M660,192L660,192L672,192L672,204L660,204L660,192M684,192L684,192L696,192L696,204L684,204Z"></path><path class="cp3" d="M24,300L24,300L72,300L72,312L24,312Z"></path><path class="cp4" d="M96,168L96,168L108,168L108,180L96,180Z"></path><path class="cp5" d="M528,264L528,264L540,264L540,276L528,276L528,264M540,276L540,276L552,276L552,312L540,312L540,300L528,300L528,312L516,312L516,276L528,276L528,288L540,288L540,276M564,264L564,264L588,264L588,276L576,276L576,288L588,288L588,276L600,276L600,288L588,288L588,300L576,300L576,312L564,312L564,264M612,264L612,264L624,264L624,312L612,312L612,264M588,300L588,300L600,300L600,312L588,312Z"></path><path class="parc" d="M0,0L0,0L12,0L12,96L0,96Z"></path><path class="grass" d="M12,0L12,0L720,0L720,360L0,360L0,96L12,96L12,0M60,12L60,12L48,12L48,24L36,24L36,36L24,36L24,96L36,96L36,108L132,108L132,120L156,120L156,132L36,132L36,144L24,144L24,156L12,156L12,228L24,228L24,240L36,240L36,252L156,252L156,240L204,240L204,228L240,228L240,216L252,216L252,204L264,204L264,180L276,180L276,168L288,168L288,144L300,144L300,132L312,132L312,120L348,120L348,108L360,108L360,120L348,120L348,132L324,132L324,144L312,144L312,156L300,156L300,180L288,180L288,192L276,192L276,216L264,216L264,228L252,228L252,240L216,240L216,252L168,252L168,264L36,264L36,276L24,276L24,336L36,336L36,348L708,348L708,204L696,204L696,192L684,192L684,180L672,180L672,168L660,168L660,156L648,156L648,144L660,144L660,156L672,156L672,168L684,168L684,180L696,180L696,192L708,192L708,84L672,84L672,96L648,96L648,120L612,120L612,132L564,132L564,144L528,144L528,156L480,156L480,168L444,168L444,180L432,180L432,192L420,192L420,204L408,204L408,228L396,228L396,252L384,252L384,264L372,264L372,240L384,240L384,216L396,216L396,192L408,192L408,180L420,180L420,168L432,168L432,156L468,156L468,144L516,144L516,132L552,132L552,120L600,120L600,108L636,108L636,84L660,84L660,72L684,72L684,60L696,60L696,48L708,48L708,12L60,12M72,60L72,60L168,60L168,72L192,72L192,84L336,84L336,72L456,72L456,60L612,60L612,72L480,72L480,84L444,84L444,96L420,96L420,108L408,108L408,120L396,120L396,132L384,132L384,156L372,156L372,168L360,168L360,180L348,180L348,204L336,204L336,228L324,228L324,276L312,276L312,288L300,288L300,276L288,276L288,264L300,264L300,240L312,240L312,216L324,216L324,192L336,192L336,168L348,168L348,156L360,156L360,144L372,144L372,120L384,120L384,108L396,108L396,96L408,96L408,84L348,84L348,96L264,96L264,108L252,108L252,120L240,120L240,132L228,132L228,156L216,156L216,168L204,168L204,180L192,180L192,192L168,192L168,204L132,204L132,216L60,216L60,192L132,192L132,180L180,180L180,168L192,168L192,156L204,156L204,144L216,144L216,120L228,120L228,108L240,108L240,96L180,96L180,84L156,84L156,72L72,72L72,60M648,156L648,156L648,168L636,168L636,156L648,156M648,168L648,168L660,168L660,180L648,180L648,168M636,168L636,168L636,180L624,180L624,168L636,168M636,180L636,180L648,180L648,192L636,192L636,180M660,180L660,180L672,180L672,192L660,192L660,180M648,192L648,192L660,192L660,204L648,204L648,192M636,192L636,192L636,204L588,204L588,216L576,216L576,228L540,228L540,240L492,240L492,252L468,252L468,264L456,264L456,276L444,276L444,288L432,288L432,300L420,300L420,312L324,312L324,300L312,300L312,288L324,288L324,276L336,276L336,300L408,300L408,288L420,288L420,276L432,276L432,264L444,264L444,252L456,252L456,240L480,240L480,228L528,228L528,216L564,216L564,204L576,204L576,192L636,192M672,192L672,192L684,192L684,204L672,204L672,192M636,204L636,204L648,204L648,216L636,216L636,204M660,204L660,204L672,204L672,216L660,216L660,204M648,216L648,216L660,216L660,228L648,228L648,216M288,276L288,276L288,288L300,288L300,300L288,300L288,312L72,312L72,300L204,300L204,288L276,288L276,276L288,276M300,300L300,300L312,300L312,312L300,312Z"></path><path class="finish" d="M240,12L240,12L252,12L252,84L240,84Z"></path><path class="start" d="M264,24L264,24L276,24L276,48L264,48L264,24M288,24L288,24L300,24L300,48L288,48L288,24M276,48L276,48L288,48L288,72L276,72L276,48M300,48L300,48L312,48L312,72L300,72Z"></path></g> <rect opacity=".3" fill="url(#grid)" height="100%" width="100%" y="0" x="0"></rect></svg>