<svg height="864" width="1368" id="mapSvgView" xmlns:xlink="http://www.w3.org/1999/xlink" version="1.1" xmlns="http://www.w3.org/2000/svg"> <defs> <style type="text/css"> .grass {fill: rgb(0, 200, 0);} .road {fill: rgb(128, 128, 128);} .start {fill: url(#startPattern)} .finish {fill: url(#finishPattern)} .mud {fill: rgb(100, 70, 0);} .sand {fill: rgb(230, 230, 115);} .water {fill: blue;} .earth {fill: brown;} .night {fill: black;} .parc {fill: rgb(200, 200, 200);} .cp1color {fill: rgb(0, 102, 255);} .cp2color {fill: rgb(0, 100, 200);} .cp3color {fill: rgb(0, 255, 102);} .cp4color {fill: rgb(0, 200, 0);} .cp5color {fill: rgb(255, 255, 0);} .cp6color {fill: rgb(200, 200, 0);} .cp7color {fill: rgb(255, 0, 0);} .cp8color {fill: rgb(200, 0, 0);} .cp9color {fill: rgb(255, 0, 255);} .cp1 {fill: url(#cp1pattern);} .cp2 {fill: url(#cp2pattern);} .cp3 {fill: url(#cp3pattern);} .cp4 {fill: url(#cp4pattern);} .cp5 {fill: url(#cp5pattern);} .cp6 {fill: url(#cp6pattern);} .cp7 {fill: url(#cp7pattern);} .cp8 {fill: url(#cp8pattern);} .cp9 {fill: url(#cp9pattern);} .primaryColor {fill: rgb(0, 255, 102);} </style> <pattern y="0" x="0" height="12" width="12" patternUnits="userSpaceOnUse" id="grid"> <line stroke-width="1" stroke="black" y2="12" x2="12" y1="0" x1="12"></line> <line stroke-width="1" stroke="black" y2="12" x2="12" y1="12" x1="0"></line> </pattern> <pattern y="0" x="0" height="12" width="12" patternUnits="userSpaceOnUse" id="finishPattern"> <rect fill="black" height="12" width="12" y="0" x="0"></rect> <path fill="white" d="M0,0L3,0L3,3L0,3L0,0M6,0L9,0L9,3L6,3L6,0M3,3L6,3L6,6L3,6L3,3M9,3L12,3L12,6L9,6L9,3"></path> <path fill="white" d="M0,6L3,6L3,9L0,9L0,6M6,6L9,6L9,9L6,9L6,6M3,9L6,9L6,12L3,12L3,9M9,9L12,9L12,12L9,12L9,9"></path> </pattern> <pattern y="0" x="0" height="12" width="12" patternUnits="userSpaceOnUse" id="startPattern"> <rect fill="rgb(100,100,100)" height="12" width="12" y="0" x="0"></rect> <rect stroke-width="1" stroke="rgb(200,200,200)" fill="none" height="5" width="5" y="3.5" x="3.5"></rect> &gt; </pattern> <pattern y="0" x="0" height="12" width="12" patternUnits="userSpaceOnUse" id="cp1pattern"> <rect class="cp1color" height="12" width="12" y="0" x="0"></rect> <path fill="black" d="M0,0L3,0L3,3L0,3L0,0M6,0L9,0L9,3L6,3L6,0M3,3L6,3L6,6L3,6L3,3M9,3L12,3L12,6L9,6L9,3"></path> <path fill="black" d="M0,6L3,6L3,9L0,9L0,6M6,6L9,6L9,9L6,9L6,6M3,9L6,9L6,12L3,12L3,9M9,9L12,9L12,12L9,12L9,9"></path> </pattern> <pattern y="0" x="0" height="12" width="12" patternUnits="userSpaceOnUse" id="cp2pattern"> <rect class="cp2color" height="12" width="12" y="0" x="0"></rect> <path fill="white" d="M0,0L3,0L3,3L0,3L0,0M6,0L9,0L9,3L6,3L6,0M3,3L6,3L6,6L3,6L3,3M9,3L12,3L12,6L9,6L9,3"></path> <path fill="white" d="M0,6L3,6L3,9L0,9L0,6M6,6L9,6L9,9L6,9L6,6M3,9L6,9L6,12L3,12L3,9M9,9L12,9L12,12L9,12L9,9"></path> </pattern> <pattern y="0" x="0" height="12" width="12" patternUnits="userSpaceOnUse" id="cp3pattern"> <rect class="cp3color" height="12" width="12" y="0" x="0"></rect> <path fill="black" d="M0,0L3,0L3,3L0,3L0,0M6,0L9,0L9,3L6,3L6,0M3,3L6,3L6,6L3,6L3,3M9,3L12,3L12,6L9,6L9,3"></path> <path fill="black" d="M0,6L3,6L3,9L0,9L0,6M6,6L9,6L9,9L6,9L6,6M3,9L6,9L6,12L3,12L3,9M9,9L12,9L12,12L9,12L9,9"></path> </pattern> <pattern y="0" x="0" height="12" width="12" patternUnits="userSpaceOnUse" id="cp4pattern"> <rect class="cp4color" height="12" width="12" y="0" x="0"></rect> <path fill="white" d="M0,0L3,0L3,3L0,3L0,0M6,0L9,0L9,3L6,3L6,0M3,3L6,3L6,6L3,6L3,3M9,3L12,3L12,6L9,6L9,3"></path> <path fill="white" d="M0,6L3,6L3,9L0,9L0,6M6,6L9,6L9,9L6,9L6,6M3,9L6,9L6,12L3,12L3,9M9,9L12,9L12,12L9,12L9,9"></path> </pattern> <pattern y="0" x="0" height="12" width="12" patternUnits="userSpaceOnUse" id="cp5pattern"> <rect class="cp5color" height="12" width="12" y="0" x="0"></rect> <path fill="black" d="M0,0L3,0L3,3L0,3L0,0M6,0L9,0L9,3L6,3L6,0M3,3L6,3L6,6L3,6L3,3M9,3L12,3L12,6L9,6L9,3"></path> <path fill="black" d="M0,6L3,6L3,9L0,9L0,6M6,6L9,6L9,9L6,9L6,6M3,9L6,9L6,12L3,12L3,9M9,9L12,9L12,12L9,12L9,9"></path> </pattern> <pattern y="0" x="0" height="12" width="12" patternUnits="userSpaceOnUse" id="cp6pattern"> <rect class="cp6color" height="12" width="12" y="0" x="0"></rect> <path fill="white" d="M0,0L3,0L3,3L0,3L0,0M6,0L9,0L9,3L6,3L6,0M3,3L6,3L6,6L3,6L3,3M9,3L12,3L12,6L9,6L9,3"></path> <path fill="white" d="M0,6L3,6L3,9L0,9L0,6M6,6L9,6L9,9L6,9L6,6M3,9L6,9L6,12L3,12L3,9M9,9L12,9L12,12L9,12L9,9"></path> </pattern> <pattern y="0" x="0" height="12" width="12" patternUnits="userSpaceOnUse" id="cp7pattern"> <rect class="cp7color" height="12" width="12" y="0" x="0"></rect> <path fill="black" d="M0,0L3,0L3,3L0,3L0,0M6,0L9,0L9,3L6,3L6,0M3,3L6,3L6,6L3,6L3,3M9,3L12,3L12,6L9,6L9,3"></path> <path fill="black" d="M0,6L3,6L3,9L0,9L0,6M6,6L9,6L9,9L6,9L6,6M3,9L6,9L6,12L3,12L3,9M9,9L12,9L12,12L9,12L9,9"></path> </pattern> <pattern y="0" x="0" height="12" width="12" patternUnits="userSpaceOnUse" id="cp8pattern"> <rect class="cp8color" height="12" width="12" y="0" x="0"></rect> <path fill="white" d="M0,0L3,0L3,3L0,3L0,0M6,0L9,0L9,3L6,3L6,0M3,3L6,3L6,6L3,6L3,3M9,3L12,3L12,6L9,6L9,3"></path> <path fill="white" d="M0,6L3,6L3,9L0,9L0,6M6,6L9,6L9,9L6,9L6,6M3,9L6,9L6,12L3,12L3,9M9,9L12,9L12,12L9,12L9,9"></path> </pattern> <pattern y="0" x="0" height="12" width="12" patternUnits="userSpaceOnUse" id="cp9pattern"> <rect class="cp9color" height="12" width="12" y="0" x="0"></rect> <path fill="black" d="M0,0L3,0L3,3L0,3L0,0M6,0L9,0L9,3L6,3L6,0M3,3L6,3L6,6L3,6L3,3M9,3L12,3L12,6L9,6L9,3"></path> <path fill="black" d="M0,6L3,6L3,9L0,9L0,6M6,6L9,6L9,9L6,9L6,6M3,9L6,9L6,12L3,12L3,9M9,9L12,9L12,12L9,12L9,9"></path> </pattern> </defs> <rect height="100%" width="100%" y="0" x="0" class="road" id="mainfill"></rect> <g id="paths"><path class="cp1" d="M1020,396L1020,396L1032,396L1032,408L1044,408L1044,432L1056,432L1056,456L1044,456L1044,468L1020,468L1020,480L1008,480L1008,468L996,468L996,492L984,492L984,504L936,504L936,492L876,492L876,468L888,468L888,480L924,480L924,444L936,444L936,432L996,432L996,444L1008,444L1008,420L1020,420Z"></path><path class="cp2" d="M924,204L924,204L948,204L948,216L924,216L924,204M900,240L900,240L924,240L924,252L900,252Z"></path><path class="cp3" d="M816,540L816,540L840,540L840,564L828,564L828,648L816,648L816,672L804,672L804,684L792,684L792,696L780,696L780,708L768,708L768,720L756,720L756,732L732,732L732,744L720,744L720,756L708,756L708,768L684,768L684,780L660,780L660,792L636,792L636,804L612,804L612,816L588,816L588,828L528,828L528,840L432,840L432,816L384,816L384,828L360,828L360,792L348,792L348,780L372,780L372,792L444,792L444,780L492,780L492,768L504,768L504,756L528,756L528,744L540,744L540,732L552,732L552,720L564,720L564,708L576,708L576,696L588,696L588,684L600,684L600,660L612,660L612,648L624,648L624,636L636,636L636,612L648,612L648,600L672,600L672,588L684,588L684,576L756,576L756,564L792,564L792,552L816,552L816,540M756,624L756,624L744,624L744,636L720,636L720,648L708,648L708,660L684,660L684,672L672,672L672,684L660,684L660,696L648,696L648,708L636,708L636,720L624,720L624,732L612,732L612,744L600,744L600,756L576,756L576,768L564,768L564,780L540,780L540,792L516,792L516,804L540,804L540,792L564,792L564,780L588,780L588,768L612,768L612,756L636,756L636,744L648,744L648,732L660,732L660,720L672,720L672,708L696,708L696,696L708,696L708,684L720,684L720,672L732,672L732,660L744,660L744,636L756,636L756,624M840,636L840,636L852,636L852,648L840,648L840,636M168,660L168,660L180,660L180,672L168,672L168,660M180,672L180,672L192,672L192,696L180,696L180,672M192,696L192,696L204,696L204,720L192,720L192,696M204,720L204,720L216,720L216,744L204,744L204,720M216,744L216,744L228,744L228,768L216,768L216,744M396,828L396,828L420,828L420,840L396,840Z"></path><path class="cp4" d="M84,540L84,540L120,540L120,552L168,552L168,564L192,564L192,576L216,576L216,588L228,588L228,600L240,600L240,624L252,624L252,636L264,636L264,660L276,660L276,684L288,684L288,720L300,720L300,732L312,732L312,756L324,756L324,768L336,768L336,780L348,780L348,792L360,792L360,816L288,816L288,804L264,804L264,792L252,792L252,780L228,780L228,744L216,744L216,720L204,720L204,696L192,696L192,672L180,672L180,648L168,648L168,624L156,624L156,600L144,600L144,588L132,588L132,564L108,564L108,552L84,552L84,540M828,564L828,564L840,564L840,576L852,576L852,600L840,600L840,648L852,648L852,624L864,624L864,636L876,636L876,660L828,660L828,672L816,672L816,648L828,648L828,564M744,624L744,624L756,624L756,636L744,636L744,624M744,636L744,636L744,660L732,660L732,672L720,672L720,684L708,684L708,696L696,696L696,708L672,708L672,720L660,720L660,732L648,732L648,744L636,744L636,756L612,756L612,768L588,768L588,780L564,780L564,768L576,768L576,756L600,756L600,744L612,744L612,732L624,732L624,720L636,720L636,708L648,708L648,696L660,696L660,684L672,684L672,672L684,672L684,660L708,660L708,648L720,648L720,636L744,636M36,636L36,636L72,636L72,648L144,648L144,660L168,660L168,672L180,672L180,696L192,696L192,720L204,720L204,744L180,744L180,732L168,732L168,720L144,720L144,708L120,708L120,696L108,696L108,684L84,684L84,672L48,672L48,660L36,660L36,636M204,744L204,744L216,744L216,756L204,756L204,744M564,780L564,780L564,792L540,792L540,780L564,780M540,792L540,792L540,804L516,804L516,792L540,792M384,816L384,816L432,816L432,840L420,840L420,828L384,828Z"></path><path class="cp5" d="M1128,744L1128,744L1140,744L1140,756L1128,756L1128,744M1140,756L1140,756L1152,756L1152,792L1140,792L1140,780L1128,780L1128,792L1116,792L1116,756L1128,756L1128,768L1140,768L1140,756M1164,744L1164,744L1188,744L1188,756L1176,756L1176,768L1188,768L1188,756L1200,756L1200,768L1188,768L1188,780L1176,780L1176,792L1164,792L1164,744M1212,744L1212,744L1224,744L1224,792L1212,792L1212,744M1188,780L1188,780L1200,780L1200,792L1188,792Z"></path><path class="cp7" d="M972,240L972,240L984,240L984,252L1008,252L1008,264L960,264L960,252L972,252Z"></path><path class="parc" d="M0,0L0,0L12,0L12,96L0,96L0,0M1044,84L1044,84L1068,84L1068,96L1044,96L1044,84M1044,96L1044,96L1044,108L1032,108L1032,96L1044,96M1068,96L1068,96L1080,96L1080,108L1068,108L1068,96M1032,108L1032,108L1032,132L1020,132L1020,108L1032,108M1080,108L1080,108L1092,108L1092,132L1080,132L1080,108M348,120L348,120L372,120L372,132L348,132L348,120M348,132L348,132L348,144L336,144L336,132L348,132M372,132L372,132L384,132L384,144L372,144L372,132M1032,132L1032,132L1044,132L1044,144L1032,144L1032,132M1080,132L1080,132L1080,144L1068,144L1068,132L1080,132M336,144L336,144L336,168L324,168L324,144L336,144M384,144L384,144L396,144L396,168L384,168L384,144M1044,144L1044,144L1068,144L1068,156L1044,156L1044,144M336,168L336,168L348,168L348,180L336,180L336,168M384,168L384,168L384,180L372,180L372,168L384,168M348,180L348,180L372,180L372,192L348,192L348,180M108,204L108,204L132,204L132,216L108,216L108,204M108,216L108,216L108,228L96,228L96,216L108,216M132,216L132,216L144,216L144,228L132,228L132,216M96,228L96,228L96,252L84,252L84,228L96,228M144,228L144,228L156,228L156,252L144,252L144,228M96,252L96,252L108,252L108,264L96,264L96,252M144,252L144,252L144,264L132,264L132,252L144,252M108,264L108,264L132,264L132,276L108,276L108,264M288,312L288,312L312,312L312,324L288,324L288,312M288,324L288,324L288,336L276,336L276,324L288,324M312,324L312,324L324,324L324,336L312,336L312,324M276,336L276,336L276,360L264,360L264,336L276,336M324,336L324,336L336,336L336,360L324,360L324,336M276,360L276,360L288,360L288,372L276,372L276,360M324,360L324,360L324,372L312,372L312,360L324,360M288,372L288,372L312,372L312,384L288,384L288,372M432,528L432,528L444,528L444,540L432,540L432,528M444,540L444,540L456,540L456,552L444,552L444,540M432,540L432,540L432,552L420,552L420,540L432,540M432,552L432,552L444,552L444,564L432,564L432,552M1152,552L1152,552L1176,552L1176,564L1152,564L1152,552M1152,564L1152,564L1152,576L1140,576L1140,564L1152,564M1176,564L1176,564L1188,564L1188,576L1176,576L1176,564M1140,576L1140,576L1140,600L1128,600L1128,576L1140,576M1188,576L1188,576L1200,576L1200,600L1188,600L1188,576M1140,600L1140,600L1152,600L1152,612L1140,612L1140,600M1188,600L1188,600L1188,612L1176,612L1176,600L1188,600M1152,612L1152,612L1176,612L1176,624L1152,624L1152,612M924,720L924,720L936,720L936,732L924,732L924,720M936,732L936,732L948,732L948,744L936,744L936,732M924,732L924,732L924,744L912,744L912,732L924,732M924,744L924,744L936,744L936,756L924,756L924,744M768,804L768,804L780,804L780,816L768,816L768,804M780,816L780,816L792,816L792,828L780,828L780,816M768,816L768,816L768,828L756,828L756,816L768,816M768,828L768,828L780,828L780,840L768,840Z"></path><path class="mud" d="M12,0L12,0L1368,0L1368,864L0,864L0,96L12,96L12,0M36,12L36,12L24,12L24,852L1356,852L1356,12L36,12M864,144L864,144L912,144L912,156L924,156L924,168L876,168L876,180L864,180L864,240L876,240L876,264L888,264L888,276L912,276L912,288L900,288L900,300L888,300L888,312L912,312L912,324L924,324L924,360L912,360L912,372L900,372L900,384L876,384L876,396L864,396L864,408L852,408L852,420L840,420L840,432L828,432L828,456L816,456L816,468L804,468L804,480L792,480L792,492L780,492L780,504L768,504L768,516L732,516L732,528L696,528L696,540L672,540L672,552L648,552L648,540L624,540L624,528L612,528L612,516L600,516L600,504L612,504L612,468L588,468L588,456L516,456L516,468L504,468L504,480L492,480L492,432L504,432L504,408L516,408L516,396L540,396L540,384L600,384L600,396L612,396L612,372L564,372L564,360L648,360L648,372L660,372L660,384L672,384L672,396L684,396L684,408L696,408L696,420L708,420L708,372L696,372L696,348L684,348L684,336L696,336L696,324L768,324L768,312L780,312L780,276L792,276L792,228L804,228L804,204L816,204L816,192L828,192L828,180L852,180L852,156L864,156L864,144M912,192L912,192L924,192L924,204L912,204L912,192M888,228L888,228L900,228L900,240L888,240Z"></path><path class="sand" d="M1284,24L1284,24L1296,24L1296,36L1308,36L1308,24L1320,24L1320,60L1308,60L1308,84L1296,84L1296,96L1320,96L1320,108L1296,108L1296,120L1272,120L1272,132L1236,132L1236,156L1224,156L1224,180L1212,180L1212,204L1200,204L1200,216L1188,216L1188,228L1176,228L1176,240L1164,240L1164,264L1152,264L1152,276L1140,276L1140,288L1128,288L1128,300L1116,300L1116,312L1092,312L1092,324L1080,324L1080,336L1068,336L1068,348L1056,348L1056,360L1044,360L1044,372L1032,372L1032,384L1020,384L1020,420L1008,420L1008,444L996,444L996,432L936,432L936,444L924,444L924,480L888,480L888,468L876,468L876,480L864,480L864,492L852,492L852,504L840,504L840,516L828,516L828,528L816,528L816,552L792,552L792,564L756,564L756,576L684,576L684,588L600,588L600,576L588,576L588,564L576,564L576,552L564,552L564,540L552,540L552,528L540,528L540,504L576,504L576,516L588,516L588,528L600,528L600,540L612,540L612,564L648,564L648,552L672,552L672,540L696,540L696,528L732,528L732,516L768,516L768,504L780,504L780,492L792,492L792,480L804,480L804,468L816,468L816,456L828,456L828,432L840,432L840,420L852,420L852,408L864,408L864,396L876,396L876,384L900,384L900,372L912,372L912,360L924,360L924,324L912,324L912,312L888,312L888,300L900,300L900,288L912,288L912,276L888,276L888,264L876,264L876,240L864,240L864,180L876,180L876,168L924,168L924,180L936,180L936,204L924,204L924,192L912,192L912,204L924,204L924,216L984,216L984,228L996,228L996,240L972,240L972,252L960,252L960,264L1008,264L1008,276L996,276L996,288L984,288L984,300L972,300L972,336L996,336L996,324L1008,324L1008,312L1020,312L1020,300L1044,300L1044,288L1068,288L1068,276L1080,276L1080,264L1092,264L1092,252L1104,252L1104,240L1116,240L1116,228L1128,228L1128,216L1140,216L1140,204L1152,204L1152,192L1164,192L1164,180L1176,180L1176,168L1188,168L1188,156L1200,156L1200,132L1212,132L1212,120L1224,120L1224,96L1248,96L1248,84L1260,84L1260,60L1272,60L1272,48L1284,48L1284,24M900,228L900,228L888,228L888,240L900,240L900,228M912,240L912,240L900,240L900,252L924,252L924,240L912,240M996,468L996,468L1008,468L1008,480L1020,480L1020,492L1008,492L1008,504L996,504L996,516L984,516L984,528L960,528L960,540L948,540L948,552L936,552L936,564L924,564L924,576L912,576L912,588L900,588L900,600L888,600L888,612L876,612L876,624L852,624L852,636L840,636L840,600L852,600L852,576L840,576L840,540L852,540L852,528L864,528L864,504L876,504L876,492L936,492L936,504L984,504L984,492L996,492Z"></path><path class="start" d="M48,36L48,36L144,36L144,48L48,48Z"></path><path class="finish" d="M984,240L984,240L1008,240L1008,252L984,252Z"></path></g> <rect opacity=".3" fill="url(#grid)" height="100%" width="100%" y="0" x="0"></rect></svg>