<svg height="456" width="960" id="mapSvgView" xmlns:xlink="http://www.w3.org/1999/xlink" version="1.1" xmlns="http://www.w3.org/2000/svg"> <defs> <style type="text/css"> .grass {fill: rgb(0, 200, 0);} .road {fill: rgb(128, 128, 128);} .start {fill: url(#startPattern)} .finish {fill: url(#finishPattern)} .mud {fill: rgb(100, 70, 0);} .sand {fill: rgb(230, 230, 115);} .water {fill: blue;} .earth {fill: brown;} .night {fill: black;} .parc {fill: rgb(200, 200, 200);} .cp1color {fill: rgb(0, 102, 255);} .cp2color {fill: rgb(0, 100, 200);} .cp3color {fill: rgb(0, 255, 102);} .cp4color {fill: rgb(0, 200, 0);} .cp5color {fill: rgb(255, 255, 0);} .cp6color {fill: rgb(200, 200, 0);} .cp7color {fill: rgb(255, 0, 0);} .cp8color {fill: rgb(200, 0, 0);} .cp9color {fill: rgb(255, 0, 255);} .cp1 {fill: url(#cp1pattern);} .cp2 {fill: url(#cp2pattern);} .cp3 {fill: url(#cp3pattern);} .cp4 {fill: url(#cp4pattern);} .cp5 {fill: url(#cp5pattern);} .cp6 {fill: url(#cp6pattern);} .cp7 {fill: url(#cp7pattern);} .cp8 {fill: url(#cp8pattern);} .cp9 {fill: url(#cp9pattern);} .primaryColor {fill: rgb(0, 255, 102);} </style> <pattern y="0" x="0" height="12" width="12" patternUnits="userSpaceOnUse" id="grid"> <line stroke-width="1" stroke="black" y2="12" x2="12" y1="0" x1="12"></line> <line stroke-width="1" stroke="black" y2="12" x2="12" y1="12" x1="0"></line> </pattern> <pattern y="0" x="0" height="12" width="12" patternUnits="userSpaceOnUse" id="finishPattern"> <rect fill="black" height="12" width="12" y="0" x="0"></rect> <path fill="white" d="M0,0L3,0L3,3L0,3L0,0M6,0L9,0L9,3L6,3L6,0M3,3L6,3L6,6L3,6L3,3M9,3L12,3L12,6L9,6L9,3"></path> <path fill="white" d="M0,6L3,6L3,9L0,9L0,6M6,6L9,6L9,9L6,9L6,6M3,9L6,9L6,12L3,12L3,9M9,9L12,9L12,12L9,12L9,9"></path> </pattern> <pattern y="0" x="0" height="12" width="12" patternUnits="userSpaceOnUse" id="startPattern"> <rect fill="rgb(100,100,100)" height="12" width="12" y="0" x="0"></rect> <rect stroke-width="1" stroke="rgb(200,200,200)" fill="none" height="5" width="5" y="3.5" x="3.5"></rect> &gt; </pattern> <pattern y="0" x="0" height="12" width="12" patternUnits="userSpaceOnUse" id="cp1pattern"> <rect class="cp1color" height="12" width="12" y="0" x="0"></rect> <path fill="black" d="M0,0L3,0L3,3L0,3L0,0M6,0L9,0L9,3L6,3L6,0M3,3L6,3L6,6L3,6L3,3M9,3L12,3L12,6L9,6L9,3"></path> <path fill="black" d="M0,6L3,6L3,9L0,9L0,6M6,6L9,6L9,9L6,9L6,6M3,9L6,9L6,12L3,12L3,9M9,9L12,9L12,12L9,12L9,9"></path> </pattern> <pattern y="0" x="0" height="12" width="12" patternUnits="userSpaceOnUse" id="cp2pattern"> <rect class="cp2color" height="12" width="12" y="0" x="0"></rect> <path fill="white" d="M0,0L3,0L3,3L0,3L0,0M6,0L9,0L9,3L6,3L6,0M3,3L6,3L6,6L3,6L3,3M9,3L12,3L12,6L9,6L9,3"></path> <path fill="white" d="M0,6L3,6L3,9L0,9L0,6M6,6L9,6L9,9L6,9L6,6M3,9L6,9L6,12L3,12L3,9M9,9L12,9L12,12L9,12L9,9"></path> </pattern> <pattern y="0" x="0" height="12" width="12" patternUnits="userSpaceOnUse" id="cp3pattern"> <rect class="cp3color" height="12" width="12" y="0" x="0"></rect> <path fill="black" d="M0,0L3,0L3,3L0,3L0,0M6,0L9,0L9,3L6,3L6,0M3,3L6,3L6,6L3,6L3,3M9,3L12,3L12,6L9,6L9,3"></path> <path fill="black" d="M0,6L3,6L3,9L0,9L0,6M6,6L9,6L9,9L6,9L6,6M3,9L6,9L6,12L3,12L3,9M9,9L12,9L12,12L9,12L9,9"></path> </pattern> <pattern y="0" x="0" height="12" width="12" patternUnits="userSpaceOnUse" id="cp4pattern"> <rect class="cp4color" height="12" width="12" y="0" x="0"></rect> <path fill="white" d="M0,0L3,0L3,3L0,3L0,0M6,0L9,0L9,3L6,3L6,0M3,3L6,3L6,6L3,6L3,3M9,3L12,3L12,6L9,6L9,3"></path> <path fill="white" d="M0,6L3,6L3,9L0,9L0,6M6,6L9,6L9,9L6,9L6,6M3,9L6,9L6,12L3,12L3,9M9,9L12,9L12,12L9,12L9,9"></path> </pattern> <pattern y="0" x="0" height="12" width="12" patternUnits="userSpaceOnUse" id="cp5pattern"> <rect class="cp5color" height="12" width="12" y="0" x="0"></rect> <path fill="black" d="M0,0L3,0L3,3L0,3L0,0M6,0L9,0L9,3L6,3L6,0M3,3L6,3L6,6L3,6L3,3M9,3L12,3L12,6L9,6L9,3"></path> <path fill="black" d="M0,6L3,6L3,9L0,9L0,6M6,6L9,6L9,9L6,9L6,6M3,9L6,9L6,12L3,12L3,9M9,9L12,9L12,12L9,12L9,9"></path> </pattern> <pattern y="0" x="0" height="12" width="12" patternUnits="userSpaceOnUse" id="cp6pattern"> <rect class="cp6color" height="12" width="12" y="0" x="0"></rect> <path fill="white" d="M0,0L3,0L3,3L0,3L0,0M6,0L9,0L9,3L6,3L6,0M3,3L6,3L6,6L3,6L3,3M9,3L12,3L12,6L9,6L9,3"></path> <path fill="white" d="M0,6L3,6L3,9L0,9L0,6M6,6L9,6L9,9L6,9L6,6M3,9L6,9L6,12L3,12L3,9M9,9L12,9L12,12L9,12L9,9"></path> </pattern> <pattern y="0" x="0" height="12" width="12" patternUnits="userSpaceOnUse" id="cp7pattern"> <rect class="cp7color" height="12" width="12" y="0" x="0"></rect> <path fill="black" d="M0,0L3,0L3,3L0,3L0,0M6,0L9,0L9,3L6,3L6,0M3,3L6,3L6,6L3,6L3,3M9,3L12,3L12,6L9,6L9,3"></path> <path fill="black" d="M0,6L3,6L3,9L0,9L0,6M6,6L9,6L9,9L6,9L6,6M3,9L6,9L6,12L3,12L3,9M9,9L12,9L12,12L9,12L9,9"></path> </pattern> <pattern y="0" x="0" height="12" width="12" patternUnits="userSpaceOnUse" id="cp8pattern"> <rect class="cp8color" height="12" width="12" y="0" x="0"></rect> <path fill="white" d="M0,0L3,0L3,3L0,3L0,0M6,0L9,0L9,3L6,3L6,0M3,3L6,3L6,6L3,6L3,3M9,3L12,3L12,6L9,6L9,3"></path> <path fill="white" d="M0,6L3,6L3,9L0,9L0,6M6,6L9,6L9,9L6,9L6,6M3,9L6,9L6,12L3,12L3,9M9,9L12,9L12,12L9,12L9,9"></path> </pattern> <pattern y="0" x="0" height="12" width="12" patternUnits="userSpaceOnUse" id="cp9pattern"> <rect class="cp9color" height="12" width="12" y="0" x="0"></rect> <path fill="black" d="M0,0L3,0L3,3L0,3L0,0M6,0L9,0L9,3L6,3L6,0M3,3L6,3L6,6L3,6L3,3M9,3L12,3L12,6L9,6L9,3"></path> <path fill="black" d="M0,6L3,6L3,9L0,9L0,6M6,6L9,6L9,9L6,9L6,6M3,9L6,9L6,12L3,12L3,9M9,9L12,9L12,12L9,12L9,9"></path> </pattern> </defs> <rect height="100%" width="100%" y="0" x="0" class="grass" id="mainfill"></rect> <g id="paths"><path class="cp1" d="M576,108L576,108L624,108L624,120L576,120Z"></path><path class="cp2" d="M876,216L876,216L888,216L888,240L876,240L876,276L864,276L864,288L852,288L852,264L864,264L864,228L876,228Z"></path><path class="cp3" d="M384,324L384,324L396,324L396,360L384,360Z"></path><path class="parc" d="M0,0L0,0L12,0L12,108L0,108Z"></path><path class="road" d="M660,24L660,24L888,24L888,36L912,36L912,48L924,48L924,60L936,60L936,84L912,84L912,108L900,108L900,96L888,96L888,108L864,108L864,120L852,120L852,132L828,132L828,144L816,144L816,168L828,168L828,180L840,180L840,192L852,192L852,204L864,204L864,216L876,216L876,192L888,192L888,168L900,168L900,144L912,144L912,108L924,108L924,156L912,156L912,168L900,168L900,192L888,192L888,216L876,216L876,228L864,228L864,264L852,264L852,276L840,276L840,264L828,264L828,252L816,252L816,240L804,240L804,228L792,228L792,216L780,216L780,192L768,192L768,132L780,132L780,120L792,120L792,108L804,108L804,96L828,96L828,84L840,84L840,60L660,60L660,72L648,72L648,84L636,84L636,96L624,96L624,108L576,108L576,72L588,72L588,60L600,60L600,48L624,48L624,36L660,36L660,24M564,120L564,120L624,120L624,132L636,132L636,156L648,156L648,168L660,168L660,264L648,264L648,276L636,276L636,288L624,288L624,300L612,300L612,312L528,312L528,300L516,300L516,288L288,288L288,300L192,300L192,288L180,288L180,276L192,276L192,264L180,264L180,252L192,252L192,240L180,240L180,228L192,228L192,216L180,216L180,204L192,204L192,192L264,192L264,180L288,180L288,168L312,168L312,156L540,156L540,144L552,144L552,132L564,132L564,120M324,180L324,180L312,180L312,192L288,192L288,204L300,204L300,216L324,216L324,204L432,204L432,192L456,192L456,180L324,180M504,180L504,180L492,180L492,192L468,192L468,204L456,204L456,216L336,216L336,228L492,228L492,216L516,216L516,204L528,204L528,180L504,180M612,192L612,192L600,192L600,252L624,252L624,240L636,240L636,204L624,204L624,192L612,192M72,192L72,192L168,192L168,300L156,300L156,312L132,312L132,336L144,336L144,348L156,348L156,360L180,360L180,384L216,384L216,372L240,372L240,360L264,360L264,348L288,348L288,336L300,336L300,324L384,324L384,360L348,360L348,372L324,372L324,384L288,384L288,396L264,396L264,408L252,408L252,420L240,420L240,432L144,432L144,420L108,420L108,408L72,408L72,396L48,396L48,384L36,384L36,348L24,348L24,228L36,228L36,216L48,216L48,204L72,204L72,192M204,204L204,204L192,204L192,216L204,216L204,204M204,228L204,228L192,228L192,240L204,240L204,228M504,240L504,240L492,240L492,252L336,252L336,264L528,264L528,240L504,240M204,252L204,252L192,252L192,264L204,264L204,252M876,240L876,240L900,240L900,252L912,252L912,264L924,264L924,288L936,288L936,300L948,300L948,336L936,336L936,348L924,348L924,372L912,372L912,384L900,384L900,396L888,396L888,408L876,408L876,420L852,420L852,432L576,432L576,420L540,420L540,408L504,408L504,396L468,396L468,384L456,384L456,372L432,372L432,360L396,360L396,324L504,324L504,336L516,336L516,348L636,348L636,360L660,360L660,372L768,372L768,360L780,360L780,348L792,348L792,336L816,336L816,324L828,324L828,300L840,300L840,288L852,288L852,300L840,300L840,324L828,324L828,336L816,336L816,348L792,348L792,360L780,360L780,372L840,372L840,360L864,360L864,348L876,348L876,300L864,300L864,276L876,276L876,240M204,276L204,276L192,276L192,288L204,288L204,276M336,384L336,384L348,384L348,408L336,408L336,384M432,384L432,384L444,384L444,408L432,408L432,384M348,408L348,408L360,408L360,432L348,432L348,408M432,408L432,408L432,432L420,432L420,408L432,408M384,408L384,408L396,408L396,420L384,420L384,408M396,420L396,420L408,420L408,432L396,432L396,420M384,420L384,420L384,432L372,432L372,420L384,420M360,432L360,432L372,432L372,444L360,444L360,432M408,432L408,432L420,432L420,444L408,444Z"></path><path class="finish" d="M168,192L168,192L180,192L180,300L168,300Z"></path><path class="start" d="M180,192L180,192L192,192L192,204L180,204L180,192M192,204L192,204L204,204L204,216L192,216L192,204M192,216L192,216L192,228L180,228L180,216L192,216M192,228L192,228L204,228L204,240L192,240L192,228M192,240L192,240L192,252L180,252L180,240L192,240M192,252L192,252L204,252L204,264L192,264L192,252M192,264L192,264L192,276L180,276L180,264L192,264M192,276L192,276L204,276L204,288L192,288L192,276M192,288L192,288L192,300L180,300L180,288Z"></path></g> <rect opacity=".3" fill="url(#grid)" height="100%" width="100%" y="0" x="0"></rect></svg>