<svg height="180" width="996" id="mapSvgView" xmlns:xlink="http://www.w3.org/1999/xlink" version="1.1" xmlns="http://www.w3.org/2000/svg"> <defs> <style type="text/css"> .grass {fill: rgb(0, 200, 0);} .road {fill: rgb(128, 128, 128);} .start {fill: url(#startPattern)} .finish {fill: url(#finishPattern)} .mud {fill: rgb(100, 70, 0);} .sand {fill: rgb(230, 230, 115);} .water {fill: blue;} .earth {fill: brown;} .night {fill: black;} .parc {fill: rgb(200, 200, 200);} .cp1color {fill: rgb(0, 102, 255);} .cp2color {fill: rgb(0, 100, 200);} .cp3color {fill: rgb(0, 255, 102);} .cp4color {fill: rgb(0, 200, 0);} .cp5color {fill: rgb(255, 255, 0);} .cp6color {fill: rgb(200, 200, 0);} .cp7color {fill: rgb(255, 0, 0);} .cp8color {fill: rgb(200, 0, 0);} .cp9color {fill: rgb(255, 0, 255);} .cp1 {fill: url(#cp1pattern);} .cp2 {fill: url(#cp2pattern);} .cp3 {fill: url(#cp3pattern);} .cp4 {fill: url(#cp4pattern);} .cp5 {fill: url(#cp5pattern);} .cp6 {fill: url(#cp6pattern);} .cp7 {fill: url(#cp7pattern);} .cp8 {fill: url(#cp8pattern);} .cp9 {fill: url(#cp9pattern);} .primaryColor {fill: rgb(0, 255, 102);} </style> <pattern y="0" x="0" height="12" width="12" patternUnits="userSpaceOnUse" id="grid"> <line stroke-width="1" stroke="black" y2="12" x2="12" y1="0" x1="12"></line> <line stroke-width="1" stroke="black" y2="12" x2="12" y1="12" x1="0"></line> </pattern> <pattern y="0" x="0" height="12" width="12" patternUnits="userSpaceOnUse" id="finishPattern"> <rect fill="black" height="12" width="12" y="0" x="0"></rect> <path fill="white" d="M0,0L3,0L3,3L0,3L0,0M6,0L9,0L9,3L6,3L6,0M3,3L6,3L6,6L3,6L3,3M9,3L12,3L12,6L9,6L9,3"></path> <path fill="white" d="M0,6L3,6L3,9L0,9L0,6M6,6L9,6L9,9L6,9L6,6M3,9L6,9L6,12L3,12L3,9M9,9L12,9L12,12L9,12L9,9"></path> </pattern> <pattern y="0" x="0" height="12" width="12" patternUnits="userSpaceOnUse" id="startPattern"> <rect fill="rgb(100,100,100)" height="12" width="12" y="0" x="0"></rect> <rect stroke-width="1" stroke="rgb(200,200,200)" fill="none" height="5" width="5" y="3.5" x="3.5"></rect> &gt; </pattern> <pattern y="0" x="0" height="12" width="12" patternUnits="userSpaceOnUse" id="cp1pattern"> <rect class="cp1color" height="12" width="12" y="0" x="0"></rect> <path fill="black" d="M0,0L3,0L3,3L0,3L0,0M6,0L9,0L9,3L6,3L6,0M3,3L6,3L6,6L3,6L3,3M9,3L12,3L12,6L9,6L9,3"></path> <path fill="black" d="M0,6L3,6L3,9L0,9L0,6M6,6L9,6L9,9L6,9L6,6M3,9L6,9L6,12L3,12L3,9M9,9L12,9L12,12L9,12L9,9"></path> </pattern> <pattern y="0" x="0" height="12" width="12" patternUnits="userSpaceOnUse" id="cp2pattern"> <rect class="cp2color" height="12" width="12" y="0" x="0"></rect> <path fill="white" d="M0,0L3,0L3,3L0,3L0,0M6,0L9,0L9,3L6,3L6,0M3,3L6,3L6,6L3,6L3,3M9,3L12,3L12,6L9,6L9,3"></path> <path fill="white" d="M0,6L3,6L3,9L0,9L0,6M6,6L9,6L9,9L6,9L6,6M3,9L6,9L6,12L3,12L3,9M9,9L12,9L12,12L9,12L9,9"></path> </pattern> <pattern y="0" x="0" height="12" width="12" patternUnits="userSpaceOnUse" id="cp3pattern"> <rect class="cp3color" height="12" width="12" y="0" x="0"></rect> <path fill="black" d="M0,0L3,0L3,3L0,3L0,0M6,0L9,0L9,3L6,3L6,0M3,3L6,3L6,6L3,6L3,3M9,3L12,3L12,6L9,6L9,3"></path> <path fill="black" d="M0,6L3,6L3,9L0,9L0,6M6,6L9,6L9,9L6,9L6,6M3,9L6,9L6,12L3,12L3,9M9,9L12,9L12,12L9,12L9,9"></path> </pattern> <pattern y="0" x="0" height="12" width="12" patternUnits="userSpaceOnUse" id="cp4pattern"> <rect class="cp4color" height="12" width="12" y="0" x="0"></rect> <path fill="white" d="M0,0L3,0L3,3L0,3L0,0M6,0L9,0L9,3L6,3L6,0M3,3L6,3L6,6L3,6L3,3M9,3L12,3L12,6L9,6L9,3"></path> <path fill="white" d="M0,6L3,6L3,9L0,9L0,6M6,6L9,6L9,9L6,9L6,6M3,9L6,9L6,12L3,12L3,9M9,9L12,9L12,12L9,12L9,9"></path> </pattern> <pattern y="0" x="0" height="12" width="12" patternUnits="userSpaceOnUse" id="cp5pattern"> <rect class="cp5color" height="12" width="12" y="0" x="0"></rect> <path fill="black" d="M0,0L3,0L3,3L0,3L0,0M6,0L9,0L9,3L6,3L6,0M3,3L6,3L6,6L3,6L3,3M9,3L12,3L12,6L9,6L9,3"></path> <path fill="black" d="M0,6L3,6L3,9L0,9L0,6M6,6L9,6L9,9L6,9L6,6M3,9L6,9L6,12L3,12L3,9M9,9L12,9L12,12L9,12L9,9"></path> </pattern> <pattern y="0" x="0" height="12" width="12" patternUnits="userSpaceOnUse" id="cp6pattern"> <rect class="cp6color" height="12" width="12" y="0" x="0"></rect> <path fill="white" d="M0,0L3,0L3,3L0,3L0,0M6,0L9,0L9,3L6,3L6,0M3,3L6,3L6,6L3,6L3,3M9,3L12,3L12,6L9,6L9,3"></path> <path fill="white" d="M0,6L3,6L3,9L0,9L0,6M6,6L9,6L9,9L6,9L6,6M3,9L6,9L6,12L3,12L3,9M9,9L12,9L12,12L9,12L9,9"></path> </pattern> <pattern y="0" x="0" height="12" width="12" patternUnits="userSpaceOnUse" id="cp7pattern"> <rect class="cp7color" height="12" width="12" y="0" x="0"></rect> <path fill="black" d="M0,0L3,0L3,3L0,3L0,0M6,0L9,0L9,3L6,3L6,0M3,3L6,3L6,6L3,6L3,3M9,3L12,3L12,6L9,6L9,3"></path> <path fill="black" d="M0,6L3,6L3,9L0,9L0,6M6,6L9,6L9,9L6,9L6,6M3,9L6,9L6,12L3,12L3,9M9,9L12,9L12,12L9,12L9,9"></path> </pattern> <pattern y="0" x="0" height="12" width="12" patternUnits="userSpaceOnUse" id="cp8pattern"> <rect class="cp8color" height="12" width="12" y="0" x="0"></rect> <path fill="white" d="M0,0L3,0L3,3L0,3L0,0M6,0L9,0L9,3L6,3L6,0M3,3L6,3L6,6L3,6L3,3M9,3L12,3L12,6L9,6L9,3"></path> <path fill="white" d="M0,6L3,6L3,9L0,9L0,6M6,6L9,6L9,9L6,9L6,6M3,9L6,9L6,12L3,12L3,9M9,9L12,9L12,12L9,12L9,9"></path> </pattern> <pattern y="0" x="0" height="12" width="12" patternUnits="userSpaceOnUse" id="cp9pattern"> <rect class="cp9color" height="12" width="12" y="0" x="0"></rect> <path fill="black" d="M0,0L3,0L3,3L0,3L0,0M6,0L9,0L9,3L6,3L6,0M3,3L6,3L6,6L3,6L3,3M9,3L12,3L12,6L9,6L9,3"></path> <path fill="black" d="M0,6L3,6L3,9L0,9L0,6M6,6L9,6L9,9L6,9L6,6M3,9L6,9L6,12L3,12L3,9M9,9L12,9L12,12L9,12L9,9"></path> </pattern> </defs> <rect height="100%" width="100%" y="0" x="0" class="road" id="mainfill"></rect> <g id="paths"><path class="parc" d="M0,0L0,0L12,0L12,84L0,84Z"></path><path class="grass" d="M12,0L12,0L996,0L996,180L0,180L0,84L12,84L12,24L24,24L24,12L12,12L12,0M96,12L96,12L84,12L84,24L72,24L72,36L60,36L60,24L48,24L48,36L36,36L36,24L24,24L24,36L36,36L36,48L48,48L48,36L60,36L60,48L72,48L72,36L84,36L84,24L96,24L96,12M120,12L120,12L108,12L108,24L96,24L96,36L84,36L84,48L72,48L72,60L60,60L60,72L48,72L48,84L36,84L36,168L168,168L168,156L180,156L180,144L192,144L192,132L204,132L204,120L228,120L228,108L240,108L240,96L252,96L252,84L276,84L276,72L288,72L288,60L300,60L300,48L324,48L324,24L300,24L300,12L276,12L276,24L252,24L252,12L228,12L228,24L204,24L204,12L180,12L180,24L168,24L168,12L120,12M336,12L336,12L324,12L324,24L348,24L348,12L336,12M384,12L384,12L372,12L372,24L348,24L348,36L336,36L336,48L324,48L324,60L300,60L300,72L288,72L288,84L276,84L276,96L252,96L252,108L240,108L240,120L228,120L228,132L204,132L204,156L180,156L180,168L204,168L204,156L228,156L228,144L240,144L240,132L252,132L252,120L276,120L276,108L288,108L288,96L300,96L300,84L324,84L324,72L336,72L336,60L348,60L348,48L372,48L372,60L348,60L348,72L336,72L336,84L324,84L324,96L300,96L300,108L288,108L288,120L276,120L276,132L252,132L252,156L228,156L228,168L252,168L252,156L276,156L276,144L288,144L288,132L300,132L300,120L324,120L324,108L336,108L336,96L348,96L348,84L372,84L372,96L348,96L348,108L336,108L336,120L324,120L324,132L300,132L300,156L276,156L276,168L300,168L300,156L324,156L324,144L336,144L336,132L348,132L348,120L372,120L372,132L348,132L348,156L324,156L324,168L348,168L348,156L372,156L372,132L384,132L384,144L396,144L396,156L372,156L372,168L396,168L396,156L420,156L420,132L396,132L396,120L384,120L384,108L372,108L372,96L384,96L384,108L396,108L396,120L420,120L420,132L432,132L432,144L444,144L444,156L420,156L420,168L444,168L444,156L468,156L468,132L444,132L444,120L432,120L432,108L420,108L420,96L396,96L396,84L384,84L384,72L372,72L372,60L384,60L384,72L396,72L396,84L420,84L420,96L432,96L432,108L444,108L444,120L468,120L468,132L480,132L480,144L492,144L492,156L468,156L468,168L492,168L492,156L516,156L516,132L492,132L492,120L480,120L480,108L468,108L468,96L444,96L444,84L432,84L432,72L420,72L420,60L396,60L396,48L384,48L384,36L372,36L372,24L396,24L396,12L384,12M432,12L432,12L420,12L420,24L396,24L396,48L420,48L420,60L432,60L432,72L444,72L444,84L468,84L468,96L480,96L480,108L492,108L492,120L516,120L516,132L528,132L528,144L540,144L540,156L516,156L516,168L540,168L540,156L564,156L564,144L576,144L576,132L588,132L588,120L612,120L612,108L624,108L624,96L636,96L636,84L660,84L660,72L672,72L672,60L684,60L684,48L708,48L708,24L684,24L684,12L660,12L660,24L636,24L636,12L612,12L612,24L588,24L588,12L564,12L564,24L540,24L540,12L516,12L516,24L492,24L492,12L468,12L468,24L444,24L444,12L432,12M720,12L720,12L708,12L708,24L732,24L732,12L720,12M756,12L756,12L744,12L744,24L732,24L732,36L720,36L720,48L708,48L708,60L684,60L684,72L672,72L672,84L660,84L660,96L636,96L636,108L624,108L624,120L612,120L612,132L588,132L588,156L564,156L564,168L588,168L588,156L612,156L612,144L624,144L624,132L636,132L636,120L660,120L660,108L672,108L672,96L684,96L684,84L708,84L708,72L720,72L720,60L732,60L732,48L744,48L744,60L732,60L732,72L720,72L720,84L708,84L708,96L684,96L684,108L672,108L672,120L660,120L660,132L636,132L636,156L612,156L612,168L636,168L636,156L660,156L660,144L672,144L672,132L684,132L684,120L708,120L708,108L720,108L720,96L732,96L732,84L744,84L744,96L732,96L732,108L720,108L720,120L708,120L708,132L684,132L684,156L660,156L660,168L684,168L684,156L708,156L708,144L720,144L720,132L732,132L732,120L744,120L744,132L732,132L732,156L708,156L708,168L732,168L732,156L744,156L744,168L804,168L804,156L792,156L792,144L804,144L804,132L792,132L792,120L804,120L804,108L792,108L792,96L804,96L804,84L792,84L792,72L804,72L804,60L792,60L792,48L804,48L804,36L792,36L792,24L804,24L804,12L756,12M828,12L828,12L816,12L816,24L804,24L804,36L816,36L816,24L828,24L828,12M852,12L852,12L840,12L840,24L828,24L828,36L816,36L816,48L804,48L804,60L816,60L816,48L828,48L828,36L840,36L840,24L852,24L852,12M876,12L876,12L864,12L864,24L852,24L852,36L840,36L840,48L828,48L828,60L816,60L816,72L804,72L804,84L816,84L816,72L828,72L828,60L840,60L840,48L852,48L852,36L864,36L864,24L876,24L876,12M900,12L900,12L888,12L888,24L876,24L876,36L864,36L864,48L852,48L852,60L840,60L840,72L828,72L828,84L816,84L816,96L804,96L804,108L816,108L816,96L828,96L828,84L840,84L840,72L852,72L852,60L864,60L864,48L876,48L876,36L888,36L888,24L900,24L900,12M924,12L924,12L912,12L912,24L900,24L900,36L888,36L888,48L876,48L876,60L864,60L864,72L852,72L852,84L840,84L840,96L828,96L828,108L816,108L816,120L804,120L804,132L816,132L816,120L828,120L828,108L840,108L840,96L852,96L852,84L864,84L864,72L876,72L876,60L888,60L888,48L900,48L900,36L912,36L912,48L900,48L900,60L888,60L888,72L876,72L876,84L864,84L864,96L852,96L852,108L840,108L840,120L828,120L828,132L816,132L816,144L804,144L804,156L816,156L816,144L828,144L828,132L840,132L840,120L852,120L852,108L864,108L864,96L876,96L876,84L888,84L888,72L900,72L900,60L912,60L912,72L900,72L900,84L888,84L888,96L876,96L876,108L864,108L864,120L852,120L852,132L840,132L840,144L828,144L828,156L816,156L816,168L828,168L828,156L840,156L840,144L852,144L852,132L864,132L864,120L876,120L876,108L888,108L888,96L900,96L900,84L912,84L912,96L900,96L900,108L888,108L888,120L876,120L876,132L864,132L864,144L852,144L852,156L840,156L840,168L852,168L852,156L864,156L864,144L876,144L876,132L888,132L888,120L900,120L900,108L912,108L912,120L900,120L900,132L888,132L888,144L876,144L876,156L864,156L864,168L876,168L876,156L888,156L888,144L900,144L900,132L912,132L912,144L900,144L900,156L888,156L888,168L900,168L900,156L912,156L912,168L972,168L972,12L924,12M180,24L180,24L204,24L204,36L192,36L192,48L180,48L180,24M228,24L228,24L252,24L252,36L240,36L240,48L228,48L228,24M276,24L276,24L300,24L300,36L288,36L288,48L276,48L276,24M420,24L420,24L444,24L444,48L432,48L432,36L420,36L420,24M468,24L468,24L492,24L492,48L480,48L480,36L468,36L468,24M516,24L516,24L540,24L540,48L528,48L528,36L516,36L516,24M564,24L564,24L588,24L588,36L576,36L576,48L564,48L564,24M612,24L612,24L636,24L636,36L624,36L624,48L612,48L612,24M660,24L660,24L684,24L684,36L672,36L672,48L660,48L660,24M180,48L180,48L180,60L168,60L168,48L180,48M228,48L228,48L228,60L204,60L204,48L228,48M276,48L276,48L276,60L252,60L252,48L276,48M444,48L444,48L468,48L468,60L444,60L444,48M492,48L492,48L516,48L516,60L492,60L492,48M540,48L540,48L564,48L564,60L540,60L540,48M612,48L612,48L612,60L588,60L588,48L612,48M660,48L660,48L660,60L636,60L636,48L660,48M204,60L204,60L204,72L192,72L192,60L204,60M252,60L252,60L252,72L240,72L240,60L252,60M468,60L468,60L480,60L480,72L468,72L468,60M516,60L516,60L528,60L528,72L516,72L516,60M588,60L588,60L588,72L576,72L576,60L588,60M636,60L636,60L636,72L624,72L624,60L636,60M192,72L192,72L192,84L180,84L180,72L192,72M240,72L240,72L240,84L228,84L228,72L240,72M480,72L480,72L492,72L492,84L480,84L480,72M528,72L528,72L540,72L540,84L528,84L528,72M576,72L576,72L576,84L564,84L564,72L576,72M624,72L624,72L624,84L612,84L612,72L624,72M180,84L180,84L180,96L168,96L168,84L180,84M228,84L228,84L228,96L204,96L204,84L228,84M492,84L492,84L516,84L516,96L492,96L492,84M540,84L540,84L564,84L564,96L540,96L540,84M612,84L612,84L612,96L588,96L588,84L612,84M204,96L204,96L204,108L192,108L192,96L204,96M516,96L516,96L528,96L528,108L516,108L516,96M588,96L588,96L588,108L576,108L576,96L588,96M192,108L192,108L192,120L180,120L180,108L192,108M528,108L528,108L540,108L540,120L528,120L528,108M576,108L576,108L576,120L564,120L564,108L576,108M180,120L180,120L180,132L168,132L168,120L180,120M540,120L540,120L564,120L564,132L540,132Z"></path><path class="finish" d="M960,12L960,12L972,12L972,96L960,96Z"></path><path class="start" d="M36,84L36,84L48,84L48,168L36,168Z"></path></g> <rect opacity=".3" fill="url(#grid)" height="100%" width="100%" y="0" x="0"></rect></svg>