<svg height="828" width="1068" id="mapSvgView" xmlns:xlink="http://www.w3.org/1999/xlink" version="1.1" xmlns="http://www.w3.org/2000/svg"> <defs> <style type="text/css"> .grass {fill: rgb(0, 200, 0);} .road {fill: rgb(128, 128, 128);} .start {fill: url(#startPattern)} .finish {fill: url(#finishPattern)} .mud {fill: rgb(100, 70, 0);} .sand {fill: rgb(230, 230, 115);} .water {fill: blue;} .earth {fill: brown;} .night {fill: black;} .parc {fill: rgb(200, 200, 200);} .cp1color {fill: rgb(0, 102, 255);} .cp2color {fill: rgb(0, 100, 200);} .cp3color {fill: rgb(0, 255, 102);} .cp4color {fill: rgb(0, 200, 0);} .cp5color {fill: rgb(255, 255, 0);} .cp6color {fill: rgb(200, 200, 0);} .cp7color {fill: rgb(255, 0, 0);} .cp8color {fill: rgb(200, 0, 0);} .cp9color {fill: rgb(255, 0, 255);} .cp1 {fill: url(#cp1pattern);} .cp2 {fill: url(#cp2pattern);} .cp3 {fill: url(#cp3pattern);} .cp4 {fill: url(#cp4pattern);} .cp5 {fill: url(#cp5pattern);} .cp6 {fill: url(#cp6pattern);} .cp7 {fill: url(#cp7pattern);} .cp8 {fill: url(#cp8pattern);} .cp9 {fill: url(#cp9pattern);} .primaryColor {fill: rgb(0, 255, 102);} </style> <pattern y="0" x="0" height="12" width="12" patternUnits="userSpaceOnUse" id="grid"> <line stroke-width="1" stroke="black" y2="12" x2="12" y1="0" x1="12"></line> <line stroke-width="1" stroke="black" y2="12" x2="12" y1="12" x1="0"></line> </pattern> <pattern y="0" x="0" height="12" width="12" patternUnits="userSpaceOnUse" id="finishPattern"> <rect fill="black" height="12" width="12" y="0" x="0"></rect> <path fill="white" d="M0,0L3,0L3,3L0,3L0,0M6,0L9,0L9,3L6,3L6,0M3,3L6,3L6,6L3,6L3,3M9,3L12,3L12,6L9,6L9,3"></path> <path fill="white" d="M0,6L3,6L3,9L0,9L0,6M6,6L9,6L9,9L6,9L6,6M3,9L6,9L6,12L3,12L3,9M9,9L12,9L12,12L9,12L9,9"></path> </pattern> <pattern y="0" x="0" height="12" width="12" patternUnits="userSpaceOnUse" id="startPattern"> <rect fill="rgb(100,100,100)" height="12" width="12" y="0" x="0"></rect> <rect stroke-width="1" stroke="rgb(200,200,200)" fill="none" height="5" width="5" y="3.5" x="3.5"></rect> &gt; </pattern> <pattern y="0" x="0" height="12" width="12" patternUnits="userSpaceOnUse" id="cp1pattern"> <rect class="cp1color" height="12" width="12" y="0" x="0"></rect> <path fill="black" d="M0,0L3,0L3,3L0,3L0,0M6,0L9,0L9,3L6,3L6,0M3,3L6,3L6,6L3,6L3,3M9,3L12,3L12,6L9,6L9,3"></path> <path fill="black" d="M0,6L3,6L3,9L0,9L0,6M6,6L9,6L9,9L6,9L6,6M3,9L6,9L6,12L3,12L3,9M9,9L12,9L12,12L9,12L9,9"></path> </pattern> <pattern y="0" x="0" height="12" width="12" patternUnits="userSpaceOnUse" id="cp2pattern"> <rect class="cp2color" height="12" width="12" y="0" x="0"></rect> <path fill="white" d="M0,0L3,0L3,3L0,3L0,0M6,0L9,0L9,3L6,3L6,0M3,3L6,3L6,6L3,6L3,3M9,3L12,3L12,6L9,6L9,3"></path> <path fill="white" d="M0,6L3,6L3,9L0,9L0,6M6,6L9,6L9,9L6,9L6,6M3,9L6,9L6,12L3,12L3,9M9,9L12,9L12,12L9,12L9,9"></path> </pattern> <pattern y="0" x="0" height="12" width="12" patternUnits="userSpaceOnUse" id="cp3pattern"> <rect class="cp3color" height="12" width="12" y="0" x="0"></rect> <path fill="black" d="M0,0L3,0L3,3L0,3L0,0M6,0L9,0L9,3L6,3L6,0M3,3L6,3L6,6L3,6L3,3M9,3L12,3L12,6L9,6L9,3"></path> <path fill="black" d="M0,6L3,6L3,9L0,9L0,6M6,6L9,6L9,9L6,9L6,6M3,9L6,9L6,12L3,12L3,9M9,9L12,9L12,12L9,12L9,9"></path> </pattern> <pattern y="0" x="0" height="12" width="12" patternUnits="userSpaceOnUse" id="cp4pattern"> <rect class="cp4color" height="12" width="12" y="0" x="0"></rect> <path fill="white" d="M0,0L3,0L3,3L0,3L0,0M6,0L9,0L9,3L6,3L6,0M3,3L6,3L6,6L3,6L3,3M9,3L12,3L12,6L9,6L9,3"></path> <path fill="white" d="M0,6L3,6L3,9L0,9L0,6M6,6L9,6L9,9L6,9L6,6M3,9L6,9L6,12L3,12L3,9M9,9L12,9L12,12L9,12L9,9"></path> </pattern> <pattern y="0" x="0" height="12" width="12" patternUnits="userSpaceOnUse" id="cp5pattern"> <rect class="cp5color" height="12" width="12" y="0" x="0"></rect> <path fill="black" d="M0,0L3,0L3,3L0,3L0,0M6,0L9,0L9,3L6,3L6,0M3,3L6,3L6,6L3,6L3,3M9,3L12,3L12,6L9,6L9,3"></path> <path fill="black" d="M0,6L3,6L3,9L0,9L0,6M6,6L9,6L9,9L6,9L6,6M3,9L6,9L6,12L3,12L3,9M9,9L12,9L12,12L9,12L9,9"></path> </pattern> <pattern y="0" x="0" height="12" width="12" patternUnits="userSpaceOnUse" id="cp6pattern"> <rect class="cp6color" height="12" width="12" y="0" x="0"></rect> <path fill="white" d="M0,0L3,0L3,3L0,3L0,0M6,0L9,0L9,3L6,3L6,0M3,3L6,3L6,6L3,6L3,3M9,3L12,3L12,6L9,6L9,3"></path> <path fill="white" d="M0,6L3,6L3,9L0,9L0,6M6,6L9,6L9,9L6,9L6,6M3,9L6,9L6,12L3,12L3,9M9,9L12,9L12,12L9,12L9,9"></path> </pattern> <pattern y="0" x="0" height="12" width="12" patternUnits="userSpaceOnUse" id="cp7pattern"> <rect class="cp7color" height="12" width="12" y="0" x="0"></rect> <path fill="black" d="M0,0L3,0L3,3L0,3L0,0M6,0L9,0L9,3L6,3L6,0M3,3L6,3L6,6L3,6L3,3M9,3L12,3L12,6L9,6L9,3"></path> <path fill="black" d="M0,6L3,6L3,9L0,9L0,6M6,6L9,6L9,9L6,9L6,6M3,9L6,9L6,12L3,12L3,9M9,9L12,9L12,12L9,12L9,9"></path> </pattern> <pattern y="0" x="0" height="12" width="12" patternUnits="userSpaceOnUse" id="cp8pattern"> <rect class="cp8color" height="12" width="12" y="0" x="0"></rect> <path fill="white" d="M0,0L3,0L3,3L0,3L0,0M6,0L9,0L9,3L6,3L6,0M3,3L6,3L6,6L3,6L3,3M9,3L12,3L12,6L9,6L9,3"></path> <path fill="white" d="M0,6L3,6L3,9L0,9L0,6M6,6L9,6L9,9L6,9L6,6M3,9L6,9L6,12L3,12L3,9M9,9L12,9L12,12L9,12L9,9"></path> </pattern> <pattern y="0" x="0" height="12" width="12" patternUnits="userSpaceOnUse" id="cp9pattern"> <rect class="cp9color" height="12" width="12" y="0" x="0"></rect> <path fill="black" d="M0,0L3,0L3,3L0,3L0,0M6,0L9,0L9,3L6,3L6,0M3,3L6,3L6,6L3,6L3,3M9,3L12,3L12,6L9,6L9,3"></path> <path fill="black" d="M0,6L3,6L3,9L0,9L0,6M6,6L9,6L9,9L6,9L6,6M3,9L6,9L6,12L3,12L3,9M9,9L12,9L12,12L9,12L9,9"></path> </pattern> </defs> <rect height="100%" width="100%" y="0" x="0" class="grass" id="mainfill"></rect> <g id="paths"><path class="cp1" d="M708,468L708,468L732,468L732,480L708,480Z"></path><path class="cp2" d="M324,612L324,612L336,612L336,648L324,648Z"></path><path class="parc" d="M0,0L0,0L12,0L12,252L0,252Z"></path><path class="road" d="M132,12L132,12L180,12L180,96L144,96L144,108L132,108L132,120L120,120L120,216L132,216L132,264L144,264L144,288L156,288L156,300L168,300L168,312L192,312L192,324L216,324L216,336L276,336L276,348L312,348L312,360L336,360L336,372L348,372L348,384L360,384L360,396L372,396L372,420L384,420L384,444L396,444L396,504L384,504L384,516L372,516L372,528L360,528L360,540L336,540L336,552L300,552L300,564L204,564L204,576L192,576L192,588L180,588L180,600L168,600L168,624L156,624L156,660L168,660L168,684L216,684L216,672L204,672L204,660L192,660L192,624L204,624L204,612L216,612L216,600L264,600L264,612L216,612L216,624L204,624L204,660L216,660L216,672L228,672L228,660L252,660L252,648L264,648L264,636L276,636L276,624L264,624L264,612L276,612L276,624L300,624L300,612L324,612L324,648L288,648L288,660L276,660L276,684L264,684L264,720L252,720L252,756L240,756L240,768L228,768L228,780L216,780L216,792L180,792L180,804L132,804L132,792L96,792L96,780L84,780L84,768L72,768L72,756L60,756L60,732L48,732L48,720L36,720L36,672L24,672L24,588L36,588L36,564L48,564L48,552L60,552L60,540L84,540L84,528L96,528L96,516L120,516L120,504L192,504L192,492L228,492L228,480L264,480L264,468L276,468L276,456L288,456L288,444L300,444L300,420L288,420L288,396L276,396L276,384L252,384L252,372L216,372L216,360L156,360L156,348L144,348L144,360L132,360L132,348L108,348L108,336L96,336L96,324L84,324L84,312L72,312L72,288L60,288L60,252L48,252L48,192L36,192L36,84L48,84L48,48L72,48L72,36L96,36L96,24L132,24L132,12M204,12L204,12L216,12L216,96L204,96L204,12M228,12L228,12L240,12L240,96L228,96L228,12M252,12L252,12L336,12L336,24L408,24L408,36L456,36L456,48L480,48L480,60L564,60L564,48L600,48L600,36L648,36L648,24L816,24L816,12L876,12L876,24L936,24L936,36L960,36L960,48L984,48L984,60L1008,60L1008,72L1020,72L1020,84L1032,84L1032,108L1044,108L1044,132L1056,132L1056,192L1044,192L1044,216L1032,216L1032,228L1020,228L1020,240L1008,240L1008,264L996,264L996,300L984,300L984,384L996,384L996,420L1008,420L1008,444L1020,444L1020,468L1032,468L1032,504L1044,504L1044,576L1056,576L1056,696L1044,696L1044,744L1032,744L1032,768L1020,768L1020,780L1008,780L1008,792L972,792L972,804L888,804L888,816L756,816L756,804L720,804L720,792L696,792L696,780L672,780L672,768L660,768L660,720L648,720L648,696L636,696L636,588L648,588L648,540L660,540L660,516L672,516L672,504L684,504L684,492L696,492L696,480L744,480L744,492L720,492L720,504L708,504L708,540L720,540L720,552L708,552L708,636L720,636L720,672L732,672L732,684L744,684L744,696L756,696L756,708L768,708L768,732L888,732L888,720L912,720L912,708L936,708L936,660L948,660L948,492L936,492L936,468L924,468L924,444L912,444L912,396L900,396L900,264L912,264L912,228L924,228L924,204L936,204L936,192L948,192L948,144L936,144L936,132L924,132L924,120L912,120L912,108L888,108L888,96L852,96L852,108L840,108L840,120L816,120L816,108L828,108L828,96L840,96L840,84L828,84L828,72L804,72L804,60L768,60L768,48L720,48L720,60L732,60L732,72L756,72L756,108L744,108L744,84L720,84L720,72L684,72L684,84L672,84L672,96L648,96L648,108L612,108L612,120L552,120L552,132L432,132L432,120L384,120L384,108L312,108L312,96L252,96L252,12M756,108L756,108L768,108L768,120L756,120L756,108M768,120L768,120L816,120L816,132L768,132L768,120M600,132L600,132L612,132L612,180L600,180L600,132M228,144L228,144L300,144L300,156L228,156L228,144M228,156L228,156L228,180L216,180L216,156L228,156M300,156L300,156L312,156L312,144L360,144L360,168L348,168L348,156L312,156L312,180L336,180L336,168L348,168L348,180L336,180L336,192L300,192L300,156M384,144L384,144L432,144L432,156L384,156L384,144M384,156L384,156L384,180L408,180L408,192L360,192L360,180L372,180L372,156L384,156M456,144L456,144L504,144L504,156L456,156L456,144M456,156L456,156L456,180L480,180L480,192L432,192L432,180L444,180L444,156L456,156M516,144L516,144L564,144L564,156L576,156L576,180L564,180L564,168L552,168L552,156L528,156L528,180L516,180L516,144M672,144L672,144L696,144L696,156L672,156L672,144M672,156L672,156L672,192L660,192L660,156L672,156M720,144L720,144L768,144L768,156L756,156L756,180L744,180L744,156L720,156L720,144M720,156L720,156L720,180L744,180L744,216L732,216L732,192L696,192L696,180L708,180L708,156L720,156M792,144L792,144L804,144L804,156L792,156L792,144M792,156L792,156L792,180L816,180L816,156L828,156L828,144L840,144L840,156L828,156L828,180L816,180L816,192L804,192L804,204L792,204L792,192L768,192L768,180L780,180L780,156L792,156M228,180L228,180L276,180L276,204L264,204L264,192L228,192L228,180M516,180L516,180L516,192L504,192L504,180L516,180M564,180L564,180L564,192L552,192L552,180L564,180M600,180L600,180L600,192L588,192L588,180L600,180M300,192L300,192L300,216L288,216L288,192L300,192M360,192L360,192L360,204L396,204L396,216L348,216L348,192L360,192M432,192L432,192L432,204L468,204L468,216L420,216L420,192L432,192M504,192L504,192L504,204L540,204L540,192L552,192L552,204L540,204L540,216L492,216L492,192L504,192M588,192L588,192L588,204L612,204L612,192L624,192L624,180L636,180L636,192L624,192L624,204L648,204L648,192L660,192L660,204L648,204L648,216L576,216L576,192L588,192M696,192L696,192L696,216L684,216L684,192L696,192M264,204L264,204L264,216L180,216L180,204L264,204M792,204L792,204L792,216L780,216L780,204L792,204M180,216L180,216L180,228L168,228L168,216L180,216M780,216L780,216L780,228L756,228L756,216L780,216M564,228L564,228L720,228L720,240L744,240L744,252L768,252L768,276L780,276L780,288L792,288L792,312L804,312L804,396L792,396L792,420L780,420L780,432L768,432L768,444L756,444L756,456L744,456L744,468L708,468L708,456L720,456L720,432L732,432L732,372L720,372L720,348L708,348L708,336L696,336L696,324L684,324L684,312L612,312L612,324L600,324L600,336L588,336L588,420L600,420L600,432L612,432L612,468L624,468L624,612L612,612L612,648L600,648L600,696L588,696L588,720L576,720L576,732L564,732L564,744L540,744L540,756L516,756L516,768L444,768L444,756L408,756L408,732L396,732L396,696L384,696L384,684L372,684L372,672L360,672L360,660L348,660L348,648L336,648L336,612L372,612L372,624L396,624L396,636L420,636L420,648L432,648L432,660L528,660L528,648L540,648L540,612L552,612L552,528L540,528L540,492L528,492L528,480L516,480L516,456L504,456L504,444L492,444L492,420L480,420L480,384L468,384L468,348L456,348L456,300L468,300L468,276L480,276L480,264L492,264L492,252L528,252L528,240L564,240L564,228M132,360L132,360L132,372L120,372L120,360L132,360M132,372L132,372L144,372L144,384L132,384L132,372M216,372L216,372L216,384L204,384L204,372L216,372M144,384L144,384L204,384L204,396L144,396L144,384M744,492L744,492L756,492L756,552L744,552L744,492M720,552L720,552L744,552L744,564L720,564L720,552M24,768L24,768L36,768L36,780L48,780L48,768L60,768L60,780L48,780L48,792L36,792L36,804L24,804L24,768M48,792L48,792L60,792L60,804L48,804Z"></path><path class="finish" d="M180,12L180,12L192,12L192,96L180,96Z"></path><path class="start" d="M192,12L192,12L204,12L204,96L192,96L192,12M216,12L216,12L228,12L228,96L216,96L216,12M240,12L240,12L252,12L252,96L240,96Z"></path></g> <rect opacity=".3" fill="url(#grid)" height="100%" width="100%" y="0" x="0"></rect></svg>