<svg height="660" width="1428" id="mapSvgView" xmlns:xlink="http://www.w3.org/1999/xlink" version="1.1" xmlns="http://www.w3.org/2000/svg"> <defs> <style type="text/css"> .grass {fill: rgb(0, 200, 0);} .road {fill: rgb(128, 128, 128);} .start {fill: url(#startPattern)} .finish {fill: url(#finishPattern)} .mud {fill: rgb(100, 70, 0);} .sand {fill: rgb(230, 230, 115);} .water {fill: blue;} .earth {fill: brown;} .night {fill: black;} .parc {fill: rgb(200, 200, 200);} .cp1color {fill: rgb(0, 102, 255);} .cp2color {fill: rgb(0, 100, 200);} .cp3color {fill: rgb(0, 255, 102);} .cp4color {fill: rgb(0, 200, 0);} .cp5color {fill: rgb(255, 255, 0);} .cp6color {fill: rgb(200, 200, 0);} .cp7color {fill: rgb(255, 0, 0);} .cp8color {fill: rgb(200, 0, 0);} .cp9color {fill: rgb(255, 0, 255);} .cp1 {fill: url(#cp1pattern);} .cp2 {fill: url(#cp2pattern);} .cp3 {fill: url(#cp3pattern);} .cp4 {fill: url(#cp4pattern);} .cp5 {fill: url(#cp5pattern);} .cp6 {fill: url(#cp6pattern);} .cp7 {fill: url(#cp7pattern);} .cp8 {fill: url(#cp8pattern);} .cp9 {fill: url(#cp9pattern);} .primaryColor {fill: rgb(0, 255, 102);} </style> <pattern y="0" x="0" height="12" width="12" patternUnits="userSpaceOnUse" id="grid"> <line stroke-width="1" stroke="black" y2="12" x2="12" y1="0" x1="12"></line> <line stroke-width="1" stroke="black" y2="12" x2="12" y1="12" x1="0"></line> </pattern> <pattern y="0" x="0" height="12" width="12" patternUnits="userSpaceOnUse" id="finishPattern"> <rect fill="black" height="12" width="12" y="0" x="0"></rect> <path fill="white" d="M0,0L3,0L3,3L0,3L0,0M6,0L9,0L9,3L6,3L6,0M3,3L6,3L6,6L3,6L3,3M9,3L12,3L12,6L9,6L9,3"></path> <path fill="white" d="M0,6L3,6L3,9L0,9L0,6M6,6L9,6L9,9L6,9L6,6M3,9L6,9L6,12L3,12L3,9M9,9L12,9L12,12L9,12L9,9"></path> </pattern> <pattern y="0" x="0" height="12" width="12" patternUnits="userSpaceOnUse" id="startPattern"> <rect fill="rgb(100,100,100)" height="12" width="12" y="0" x="0"></rect> <rect stroke-width="1" stroke="rgb(200,200,200)" fill="none" height="5" width="5" y="3.5" x="3.5"></rect> &gt; </pattern> <pattern y="0" x="0" height="12" width="12" patternUnits="userSpaceOnUse" id="cp1pattern"> <rect class="cp1color" height="12" width="12" y="0" x="0"></rect> <path fill="black" d="M0,0L3,0L3,3L0,3L0,0M6,0L9,0L9,3L6,3L6,0M3,3L6,3L6,6L3,6L3,3M9,3L12,3L12,6L9,6L9,3"></path> <path fill="black" d="M0,6L3,6L3,9L0,9L0,6M6,6L9,6L9,9L6,9L6,6M3,9L6,9L6,12L3,12L3,9M9,9L12,9L12,12L9,12L9,9"></path> </pattern> <pattern y="0" x="0" height="12" width="12" patternUnits="userSpaceOnUse" id="cp2pattern"> <rect class="cp2color" height="12" width="12" y="0" x="0"></rect> <path fill="white" d="M0,0L3,0L3,3L0,3L0,0M6,0L9,0L9,3L6,3L6,0M3,3L6,3L6,6L3,6L3,3M9,3L12,3L12,6L9,6L9,3"></path> <path fill="white" d="M0,6L3,6L3,9L0,9L0,6M6,6L9,6L9,9L6,9L6,6M3,9L6,9L6,12L3,12L3,9M9,9L12,9L12,12L9,12L9,9"></path> </pattern> <pattern y="0" x="0" height="12" width="12" patternUnits="userSpaceOnUse" id="cp3pattern"> <rect class="cp3color" height="12" width="12" y="0" x="0"></rect> <path fill="black" d="M0,0L3,0L3,3L0,3L0,0M6,0L9,0L9,3L6,3L6,0M3,3L6,3L6,6L3,6L3,3M9,3L12,3L12,6L9,6L9,3"></path> <path fill="black" d="M0,6L3,6L3,9L0,9L0,6M6,6L9,6L9,9L6,9L6,6M3,9L6,9L6,12L3,12L3,9M9,9L12,9L12,12L9,12L9,9"></path> </pattern> <pattern y="0" x="0" height="12" width="12" patternUnits="userSpaceOnUse" id="cp4pattern"> <rect class="cp4color" height="12" width="12" y="0" x="0"></rect> <path fill="white" d="M0,0L3,0L3,3L0,3L0,0M6,0L9,0L9,3L6,3L6,0M3,3L6,3L6,6L3,6L3,3M9,3L12,3L12,6L9,6L9,3"></path> <path fill="white" d="M0,6L3,6L3,9L0,9L0,6M6,6L9,6L9,9L6,9L6,6M3,9L6,9L6,12L3,12L3,9M9,9L12,9L12,12L9,12L9,9"></path> </pattern> <pattern y="0" x="0" height="12" width="12" patternUnits="userSpaceOnUse" id="cp5pattern"> <rect class="cp5color" height="12" width="12" y="0" x="0"></rect> <path fill="black" d="M0,0L3,0L3,3L0,3L0,0M6,0L9,0L9,3L6,3L6,0M3,3L6,3L6,6L3,6L3,3M9,3L12,3L12,6L9,6L9,3"></path> <path fill="black" d="M0,6L3,6L3,9L0,9L0,6M6,6L9,6L9,9L6,9L6,6M3,9L6,9L6,12L3,12L3,9M9,9L12,9L12,12L9,12L9,9"></path> </pattern> <pattern y="0" x="0" height="12" width="12" patternUnits="userSpaceOnUse" id="cp6pattern"> <rect class="cp6color" height="12" width="12" y="0" x="0"></rect> <path fill="white" d="M0,0L3,0L3,3L0,3L0,0M6,0L9,0L9,3L6,3L6,0M3,3L6,3L6,6L3,6L3,3M9,3L12,3L12,6L9,6L9,3"></path> <path fill="white" d="M0,6L3,6L3,9L0,9L0,6M6,6L9,6L9,9L6,9L6,6M3,9L6,9L6,12L3,12L3,9M9,9L12,9L12,12L9,12L9,9"></path> </pattern> <pattern y="0" x="0" height="12" width="12" patternUnits="userSpaceOnUse" id="cp7pattern"> <rect class="cp7color" height="12" width="12" y="0" x="0"></rect> <path fill="black" d="M0,0L3,0L3,3L0,3L0,0M6,0L9,0L9,3L6,3L6,0M3,3L6,3L6,6L3,6L3,3M9,3L12,3L12,6L9,6L9,3"></path> <path fill="black" d="M0,6L3,6L3,9L0,9L0,6M6,6L9,6L9,9L6,9L6,6M3,9L6,9L6,12L3,12L3,9M9,9L12,9L12,12L9,12L9,9"></path> </pattern> <pattern y="0" x="0" height="12" width="12" patternUnits="userSpaceOnUse" id="cp8pattern"> <rect class="cp8color" height="12" width="12" y="0" x="0"></rect> <path fill="white" d="M0,0L3,0L3,3L0,3L0,0M6,0L9,0L9,3L6,3L6,0M3,3L6,3L6,6L3,6L3,3M9,3L12,3L12,6L9,6L9,3"></path> <path fill="white" d="M0,6L3,6L3,9L0,9L0,6M6,6L9,6L9,9L6,9L6,6M3,9L6,9L6,12L3,12L3,9M9,9L12,9L12,12L9,12L9,9"></path> </pattern> <pattern y="0" x="0" height="12" width="12" patternUnits="userSpaceOnUse" id="cp9pattern"> <rect class="cp9color" height="12" width="12" y="0" x="0"></rect> <path fill="black" d="M0,0L3,0L3,3L0,3L0,0M6,0L9,0L9,3L6,3L6,0M3,3L6,3L6,6L3,6L3,3M9,3L12,3L12,6L9,6L9,3"></path> <path fill="black" d="M0,6L3,6L3,9L0,9L0,6M6,6L9,6L9,9L6,9L6,6M3,9L6,9L6,12L3,12L3,9M9,9L12,9L12,12L9,12L9,9"></path> </pattern> </defs> <rect height="100%" width="100%" y="0" x="0" class="grass" id="mainfill"></rect> <g id="paths"><path class="parc" d="M0,0L0,0L12,0L12,120L0,120Z"></path><path class="road" d="M84,24L84,24L300,24L300,36L312,36L312,48L324,48L324,96L312,96L312,120L300,120L300,144L288,144L288,168L276,168L276,192L264,192L264,204L252,204L252,216L240,216L240,240L252,240L252,252L264,252L264,264L288,264L288,276L312,276L312,288L408,288L408,300L444,300L444,312L456,312L456,324L468,324L468,336L492,336L492,348L516,348L516,360L540,360L540,372L564,372L564,384L588,384L588,396L624,396L624,384L636,384L636,372L648,372L648,360L660,360L660,348L672,348L672,336L684,336L684,324L696,324L696,312L708,312L708,300L720,300L720,288L732,288L732,276L744,276L744,264L756,264L756,252L768,252L768,240L780,240L780,228L792,228L792,216L804,216L804,204L816,204L816,192L828,192L828,180L840,180L840,168L852,168L852,156L864,156L864,144L876,144L876,132L888,132L888,120L900,120L900,108L912,108L912,96L924,96L924,84L936,84L936,72L948,72L948,60L960,60L960,48L972,48L972,36L984,36L984,24L1392,24L1392,36L1404,36L1404,120L1392,120L1392,132L1380,132L1380,144L1368,144L1368,156L1356,156L1356,168L1344,168L1344,180L1332,180L1332,192L1320,192L1320,204L1308,204L1308,216L1296,216L1296,228L1284,228L1284,240L1272,240L1272,252L1260,252L1260,264L1248,264L1248,276L1236,276L1236,288L1224,288L1224,300L1212,300L1212,312L1200,312L1200,324L1212,324L1212,336L1248,336L1248,348L1296,348L1296,360L1368,360L1368,372L1380,372L1380,384L1392,384L1392,396L1404,396L1404,444L1392,444L1392,456L1380,456L1380,468L1368,468L1368,480L1356,480L1356,492L1344,492L1344,504L1332,504L1332,516L1320,516L1320,528L1308,528L1308,540L1296,540L1296,552L1332,552L1332,564L1392,564L1392,576L1404,576L1404,624L1392,624L1392,636L924,636L924,624L792,624L792,636L600,636L600,624L492,624L492,636L300,636L300,624L240,624L240,636L72,636L72,624L60,624L60,612L48,612L48,540L60,540L60,528L72,528L72,516L84,516L84,504L96,504L96,492L108,492L108,480L504,480L504,492L540,492L540,480L708,480L708,492L768,492L768,504L756,504L756,516L720,516L720,528L708,528L708,540L540,540L540,528L504,528L504,540L144,540L144,552L132,552L132,576L144,576L144,600L204,600L204,588L348,588L348,600L492,600L492,588L636,588L636,600L804,600L804,588L948,588L948,600L1308,600L1308,588L1236,588L1236,576L1224,576L1224,564L1212,564L1212,552L1200,552L1200,540L1212,540L1212,528L1224,528L1224,516L1236,516L1236,504L1248,504L1248,492L1260,492L1260,480L1272,480L1272,468L1284,468L1284,456L1296,456L1296,444L1308,444L1308,396L1272,396L1272,384L1236,384L1236,372L1200,372L1200,360L1164,360L1164,348L1128,348L1128,336L1104,336L1104,312L1116,312L1116,300L1128,300L1128,288L1140,288L1140,276L1152,276L1152,264L1164,264L1164,252L1176,252L1176,240L1188,240L1188,228L1200,228L1200,216L1212,216L1212,204L1224,204L1224,192L1236,192L1236,180L1248,180L1248,168L1260,168L1260,156L1272,156L1272,144L1284,144L1284,132L1296,132L1296,120L1308,120L1308,108L1320,108L1320,84L1308,84L1308,72L1032,72L1032,84L1020,84L1020,96L1008,96L1008,108L996,108L996,120L984,120L984,132L972,132L972,144L960,144L960,156L948,156L948,168L936,168L936,180L924,180L924,192L912,192L912,204L900,204L900,216L888,216L888,228L876,228L876,240L864,240L864,252L852,252L852,264L840,264L840,276L828,276L828,288L816,288L816,300L804,300L804,312L792,312L792,324L780,324L780,336L768,336L768,348L756,348L756,360L744,360L744,372L732,372L732,384L720,384L720,396L708,396L708,408L696,408L696,420L684,420L684,432L672,432L672,444L576,444L576,432L552,432L552,420L528,420L528,408L504,408L504,396L480,396L480,384L456,384L456,372L432,372L432,360L408,360L408,348L384,348L384,336L276,336L276,324L204,324L204,312L192,312L192,300L180,300L180,288L168,288L168,276L156,276L156,216L168,216L168,204L180,204L180,192L192,192L192,168L204,168L204,144L216,144L216,120L228,120L228,96L240,96L240,72L132,72L132,336L144,336L144,372L156,372L156,384L168,384L168,372L240,372L240,360L288,360L288,348L360,348L360,468L288,468L288,456L240,456L240,444L168,444L168,432L120,432L120,420L108,420L108,408L96,408L96,396L84,396L84,384L72,384L72,372L60,372L60,360L48,360L48,60L60,60L60,48L72,48L72,36L84,36L84,24M432,36L432,36L456,36L456,60L468,60L468,84L480,84L480,108L492,108L492,132L504,132L504,156L516,156L516,144L528,144L528,120L540,120L540,96L552,96L552,84L588,84L588,96L600,96L600,120L612,120L612,144L624,144L624,156L636,156L636,132L648,132L648,108L660,108L660,84L672,84L672,60L684,60L684,36L708,36L708,72L696,72L696,96L684,96L684,120L672,120L672,144L660,144L660,168L648,168L648,192L624,192L624,180L612,180L612,168L600,168L600,156L588,156L588,132L576,132L576,108L564,108L564,132L552,132L552,156L540,156L540,168L528,168L528,180L516,180L516,192L492,192L492,168L480,168L480,144L468,144L468,120L456,120L456,96L444,96L444,72L432,72L432,36M804,324L804,324L900,324L900,336L912,336L912,348L924,348L924,360L936,360L936,420L948,420L948,432L960,432L960,444L984,444L984,432L1008,432L1008,420L1032,420L1032,408L1188,408L1188,420L1200,420L1200,432L1212,432L1212,516L1200,516L1200,528L1188,528L1188,540L1176,540L1176,552L1164,552L1164,564L1152,564L1152,576L840,576L840,564L828,564L828,552L780,552L780,540L768,540L768,528L756,528L756,516L768,516L768,504L780,504L780,480L768,480L768,468L756,468L756,384L768,384L768,360L780,360L780,348L792,348L792,336L804,336L804,324M288,372L288,372L276,372L276,384L312,384L312,372L288,372M840,372L840,372L828,372L828,396L840,396L840,468L828,468L828,492L816,492L816,504L804,504L804,516L792,516L792,504L780,504L780,516L768,516L768,528L780,528L780,516L792,516L792,528L780,528L780,540L792,540L792,528L1116,528L1116,516L1128,516L1128,504L1140,504L1140,456L1128,456L1128,444L1080,444L1080,456L1068,456L1068,468L1056,468L1056,480L1044,480L1044,492L912,492L912,480L900,480L900,468L888,468L888,456L876,456L876,444L864,444L864,372L840,372M216,384L216,384L204,384L204,396L240,396L240,384L216,384M288,396L288,396L276,396L276,408L312,408L312,396L288,396M180,408L180,408L168,408L168,420L204,420L204,408L180,408M216,420L216,420L204,420L204,432L240,432L240,420L216,420M288,432L288,432L276,432L276,444L312,444L312,432L288,432M588,492L588,492L576,492L576,504L612,504L612,492L588,492M660,504L660,504L648,504L648,516L684,516L684,504L660,504M588,516L588,516L576,516L576,528L612,528L612,516L588,516M756,528L756,528L756,540L768,540L768,576L708,576L708,564L720,564L720,552L732,552L732,540L744,540L744,528L756,528M264,600L264,600L252,600L252,612L312,612L312,600L264,600M540,600L540,600L528,600L528,612L576,612L576,600L540,600M840,600L840,600L828,600L828,612L900,612L900,600L840,600M384,612L384,612L372,612L372,624L444,624L444,612L384,612M696,612L696,612L684,612L684,624L756,624L756,612Z"></path><path class="start" d="M360,348L360,348L372,348L372,468L360,468Z"></path><path class="finish" d="M708,576L708,576L768,576L768,588L708,588Z"></path></g> <rect opacity=".3" fill="url(#grid)" height="100%" width="100%" y="0" x="0"></rect></svg>