<svg height="612" width="1800" id="mapSvgView" xmlns:xlink="http://www.w3.org/1999/xlink" version="1.1" xmlns="http://www.w3.org/2000/svg"> <defs> <style type="text/css"> .grass {fill: rgb(0, 200, 0);} .road {fill: rgb(128, 128, 128);} .start {fill: url(#startPattern)} .finish {fill: url(#finishPattern)} .mud {fill: rgb(100, 70, 0);} .sand {fill: rgb(230, 230, 115);} .water {fill: blue;} .earth {fill: brown;} .night {fill: black;} .parc {fill: rgb(200, 200, 200);} .cp1color {fill: rgb(0, 102, 255);} .cp2color {fill: rgb(0, 100, 200);} .cp3color {fill: rgb(0, 255, 102);} .cp4color {fill: rgb(0, 200, 0);} .cp5color {fill: rgb(255, 255, 0);} .cp6color {fill: rgb(200, 200, 0);} .cp7color {fill: rgb(255, 0, 0);} .cp8color {fill: rgb(200, 0, 0);} .cp9color {fill: rgb(255, 0, 255);} .cp1 {fill: url(#cp1pattern);} .cp2 {fill: url(#cp2pattern);} .cp3 {fill: url(#cp3pattern);} .cp4 {fill: url(#cp4pattern);} .cp5 {fill: url(#cp5pattern);} .cp6 {fill: url(#cp6pattern);} .cp7 {fill: url(#cp7pattern);} .cp8 {fill: url(#cp8pattern);} .cp9 {fill: url(#cp9pattern);} .primaryColor {fill: rgb(0, 255, 102);} </style> <pattern y="0" x="0" height="12" width="12" patternUnits="userSpaceOnUse" id="grid"> <line stroke-width="1" stroke="black" y2="12" x2="12" y1="0" x1="12"></line> <line stroke-width="1" stroke="black" y2="12" x2="12" y1="12" x1="0"></line> </pattern> <pattern y="0" x="0" height="12" width="12" patternUnits="userSpaceOnUse" id="finishPattern"> <rect fill="black" height="12" width="12" y="0" x="0"></rect> <path fill="white" d="M0,0L3,0L3,3L0,3L0,0M6,0L9,0L9,3L6,3L6,0M3,3L6,3L6,6L3,6L3,3M9,3L12,3L12,6L9,6L9,3"></path> <path fill="white" d="M0,6L3,6L3,9L0,9L0,6M6,6L9,6L9,9L6,9L6,6M3,9L6,9L6,12L3,12L3,9M9,9L12,9L12,12L9,12L9,9"></path> </pattern> <pattern y="0" x="0" height="12" width="12" patternUnits="userSpaceOnUse" id="startPattern"> <rect fill="rgb(100,100,100)" height="12" width="12" y="0" x="0"></rect> <rect stroke-width="1" stroke="rgb(200,200,200)" fill="none" height="5" width="5" y="3.5" x="3.5"></rect> &gt; </pattern> <pattern y="0" x="0" height="12" width="12" patternUnits="userSpaceOnUse" id="cp1pattern"> <rect class="cp1color" height="12" width="12" y="0" x="0"></rect> <path fill="black" d="M0,0L3,0L3,3L0,3L0,0M6,0L9,0L9,3L6,3L6,0M3,3L6,3L6,6L3,6L3,3M9,3L12,3L12,6L9,6L9,3"></path> <path fill="black" d="M0,6L3,6L3,9L0,9L0,6M6,6L9,6L9,9L6,9L6,6M3,9L6,9L6,12L3,12L3,9M9,9L12,9L12,12L9,12L9,9"></path> </pattern> <pattern y="0" x="0" height="12" width="12" patternUnits="userSpaceOnUse" id="cp2pattern"> <rect class="cp2color" height="12" width="12" y="0" x="0"></rect> <path fill="white" d="M0,0L3,0L3,3L0,3L0,0M6,0L9,0L9,3L6,3L6,0M3,3L6,3L6,6L3,6L3,3M9,3L12,3L12,6L9,6L9,3"></path> <path fill="white" d="M0,6L3,6L3,9L0,9L0,6M6,6L9,6L9,9L6,9L6,6M3,9L6,9L6,12L3,12L3,9M9,9L12,9L12,12L9,12L9,9"></path> </pattern> <pattern y="0" x="0" height="12" width="12" patternUnits="userSpaceOnUse" id="cp3pattern"> <rect class="cp3color" height="12" width="12" y="0" x="0"></rect> <path fill="black" d="M0,0L3,0L3,3L0,3L0,0M6,0L9,0L9,3L6,3L6,0M3,3L6,3L6,6L3,6L3,3M9,3L12,3L12,6L9,6L9,3"></path> <path fill="black" d="M0,6L3,6L3,9L0,9L0,6M6,6L9,6L9,9L6,9L6,6M3,9L6,9L6,12L3,12L3,9M9,9L12,9L12,12L9,12L9,9"></path> </pattern> <pattern y="0" x="0" height="12" width="12" patternUnits="userSpaceOnUse" id="cp4pattern"> <rect class="cp4color" height="12" width="12" y="0" x="0"></rect> <path fill="white" d="M0,0L3,0L3,3L0,3L0,0M6,0L9,0L9,3L6,3L6,0M3,3L6,3L6,6L3,6L3,3M9,3L12,3L12,6L9,6L9,3"></path> <path fill="white" d="M0,6L3,6L3,9L0,9L0,6M6,6L9,6L9,9L6,9L6,6M3,9L6,9L6,12L3,12L3,9M9,9L12,9L12,12L9,12L9,9"></path> </pattern> <pattern y="0" x="0" height="12" width="12" patternUnits="userSpaceOnUse" id="cp5pattern"> <rect class="cp5color" height="12" width="12" y="0" x="0"></rect> <path fill="black" d="M0,0L3,0L3,3L0,3L0,0M6,0L9,0L9,3L6,3L6,0M3,3L6,3L6,6L3,6L3,3M9,3L12,3L12,6L9,6L9,3"></path> <path fill="black" d="M0,6L3,6L3,9L0,9L0,6M6,6L9,6L9,9L6,9L6,6M3,9L6,9L6,12L3,12L3,9M9,9L12,9L12,12L9,12L9,9"></path> </pattern> <pattern y="0" x="0" height="12" width="12" patternUnits="userSpaceOnUse" id="cp6pattern"> <rect class="cp6color" height="12" width="12" y="0" x="0"></rect> <path fill="white" d="M0,0L3,0L3,3L0,3L0,0M6,0L9,0L9,3L6,3L6,0M3,3L6,3L6,6L3,6L3,3M9,3L12,3L12,6L9,6L9,3"></path> <path fill="white" d="M0,6L3,6L3,9L0,9L0,6M6,6L9,6L9,9L6,9L6,6M3,9L6,9L6,12L3,12L3,9M9,9L12,9L12,12L9,12L9,9"></path> </pattern> <pattern y="0" x="0" height="12" width="12" patternUnits="userSpaceOnUse" id="cp7pattern"> <rect class="cp7color" height="12" width="12" y="0" x="0"></rect> <path fill="black" d="M0,0L3,0L3,3L0,3L0,0M6,0L9,0L9,3L6,3L6,0M3,3L6,3L6,6L3,6L3,3M9,3L12,3L12,6L9,6L9,3"></path> <path fill="black" d="M0,6L3,6L3,9L0,9L0,6M6,6L9,6L9,9L6,9L6,6M3,9L6,9L6,12L3,12L3,9M9,9L12,9L12,12L9,12L9,9"></path> </pattern> <pattern y="0" x="0" height="12" width="12" patternUnits="userSpaceOnUse" id="cp8pattern"> <rect class="cp8color" height="12" width="12" y="0" x="0"></rect> <path fill="white" d="M0,0L3,0L3,3L0,3L0,0M6,0L9,0L9,3L6,3L6,0M3,3L6,3L6,6L3,6L3,3M9,3L12,3L12,6L9,6L9,3"></path> <path fill="white" d="M0,6L3,6L3,9L0,9L0,6M6,6L9,6L9,9L6,9L6,6M3,9L6,9L6,12L3,12L3,9M9,9L12,9L12,12L9,12L9,9"></path> </pattern> <pattern y="0" x="0" height="12" width="12" patternUnits="userSpaceOnUse" id="cp9pattern"> <rect class="cp9color" height="12" width="12" y="0" x="0"></rect> <path fill="black" d="M0,0L3,0L3,3L0,3L0,0M6,0L9,0L9,3L6,3L6,0M3,3L6,3L6,6L3,6L3,3M9,3L12,3L12,6L9,6L9,3"></path> <path fill="black" d="M0,6L3,6L3,9L0,9L0,6M6,6L9,6L9,9L6,9L6,6M3,9L6,9L6,12L3,12L3,9M9,9L12,9L12,12L9,12L9,9"></path> </pattern> </defs> <rect height="100%" width="100%" y="0" x="0" class="grass" id="mainfill"></rect> <g id="paths"><path class="cp1" d="M900,528L900,528L912,528L912,588L900,588Z"></path><path class="cp2" d="M900,24L900,24L912,24L912,84L900,84Z"></path><path class="parc" d="M0,0L0,0L12,0L12,72L0,72Z"></path><path class="road" d="M672,24L672,24L900,24L900,84L672,84L672,96L636,96L636,108L600,108L600,120L564,120L564,132L528,132L528,144L492,144L492,156L468,156L468,168L456,168L456,180L408,180L408,192L372,192L372,204L336,204L336,216L300,216L300,228L264,228L264,240L228,240L228,252L192,252L192,264L156,264L156,276L132,276L132,288L108,288L108,324L132,324L132,336L156,336L156,348L192,348L192,360L228,360L228,372L264,372L264,384L300,384L300,396L312,396L312,384L324,384L324,372L336,372L336,360L348,360L348,348L372,348L372,336L384,336L384,324L396,324L396,312L408,312L408,300L420,300L420,288L432,288L432,276L444,276L444,264L456,264L456,240L444,240L444,228L432,228L432,204L444,204L444,192L456,192L456,180L480,180L480,192L492,192L492,204L504,204L504,228L492,228L492,240L480,240L480,252L468,252L468,264L456,264L456,276L444,276L444,288L432,288L432,300L420,300L420,312L408,312L408,324L396,324L396,336L384,336L384,348L372,348L372,384L360,384L360,408L372,408L372,420L408,420L408,432L444,432L444,444L468,444L468,456L492,456L492,468L528,468L528,480L564,480L564,492L600,492L600,504L624,504L624,516L672,516L672,528L900,528L900,588L672,588L672,576L636,576L636,564L600,564L600,552L564,552L564,540L528,540L528,528L492,528L492,516L456,516L456,504L420,504L420,492L384,492L384,480L348,480L348,468L312,468L312,456L288,456L288,444L264,444L264,432L240,432L240,420L216,420L216,408L192,408L192,396L168,396L168,384L144,384L144,372L120,372L120,360L96,360L96,348L72,348L72,336L48,336L48,324L36,324L36,312L24,312L24,300L36,300L36,288L48,288L48,276L72,276L72,264L96,264L96,252L120,252L120,240L144,240L144,228L168,228L168,216L192,216L192,204L216,204L216,192L240,192L240,180L264,180L264,168L288,168L288,156L312,156L312,144L348,144L348,132L384,132L384,120L420,120L420,108L456,108L456,96L492,96L492,84L528,84L528,72L564,72L564,60L600,60L600,48L636,48L636,36L672,36L672,24M912,24L912,24L1176,24L1176,36L1200,36L1200,48L1224,48L1224,60L1236,60L1236,72L1248,72L1248,84L1260,84L1260,96L1272,96L1272,108L1284,108L1284,120L1296,120L1296,132L1308,132L1308,144L1320,144L1320,156L1332,156L1332,168L1344,168L1344,180L1356,180L1356,192L1368,192L1368,204L1380,204L1380,216L1392,216L1392,228L1404,228L1404,240L1392,240L1392,252L1380,252L1380,264L1368,264L1368,276L1356,276L1356,264L1344,264L1344,252L1332,252L1332,240L1320,240L1320,228L1308,228L1308,216L1296,216L1296,204L1284,204L1284,192L1272,192L1272,180L1260,180L1260,168L1248,168L1248,156L1236,156L1236,144L1224,144L1224,132L1212,132L1212,120L1200,120L1200,108L1188,108L1188,96L1164,96L1164,84L912,84L912,24M1668,24L1668,24L1776,24L1776,300L1704,300L1704,84L1692,84L1692,96L1680,96L1680,108L1668,108L1668,120L1656,120L1656,132L1644,132L1644,144L1632,144L1632,156L1620,156L1620,168L1608,168L1608,180L1596,180L1596,192L1584,192L1584,204L1572,204L1572,216L1560,216L1560,228L1548,228L1548,240L1536,240L1536,252L1524,252L1524,264L1512,264L1512,276L1500,276L1500,264L1488,264L1488,252L1476,252L1476,240L1464,240L1464,228L1476,228L1476,216L1488,216L1488,204L1500,204L1500,192L1512,192L1512,180L1524,180L1524,168L1536,168L1536,156L1548,156L1548,144L1560,144L1560,132L1572,132L1572,120L1584,120L1584,108L1596,108L1596,96L1608,96L1608,84L1620,84L1620,72L1632,72L1632,60L1644,60L1644,48L1656,48L1656,36L1668,36L1668,24M468,204L468,204L456,204L456,228L480,228L480,204L468,204M1404,240L1404,240L1416,240L1416,252L1404,252L1404,240M1464,240L1464,240L1464,252L1452,252L1452,240L1464,240M1392,252L1392,252L1404,252L1404,264L1392,264L1392,252M1416,252L1416,252L1428,252L1428,264L1416,264L1416,252M1464,252L1464,252L1476,252L1476,264L1464,264L1464,252M1452,252L1452,252L1452,264L1440,264L1440,252L1452,252M1380,264L1380,264L1392,264L1392,276L1380,276L1380,264M1404,264L1404,264L1416,264L1416,276L1404,276L1404,264M1428,264L1428,264L1440,264L1440,276L1428,276L1428,264M1452,264L1452,264L1464,264L1464,276L1452,276L1452,264M1476,264L1476,264L1488,264L1488,276L1476,276L1476,264M1368,276L1368,276L1380,276L1380,288L1368,288L1368,276M1392,276L1392,276L1404,276L1404,288L1392,288L1392,276M1416,276L1416,276L1428,276L1428,288L1416,288L1416,276M1440,276L1440,276L1452,276L1452,288L1440,288L1440,276M1464,276L1464,276L1476,276L1476,288L1464,288L1464,276M1488,276L1488,276L1500,276L1500,288L1488,288L1488,276M1380,288L1380,288L1392,288L1392,300L1380,300L1380,288M1404,288L1404,288L1416,288L1416,300L1404,300L1404,288M1428,288L1428,288L1440,288L1440,300L1428,300L1428,288M1452,288L1452,288L1464,288L1464,300L1452,300L1452,288M1476,288L1476,288L1488,288L1488,300L1476,300L1476,288M1392,300L1392,300L1404,300L1404,312L1392,312L1392,300M1416,300L1416,300L1428,300L1428,312L1416,312L1416,300M1440,300L1440,300L1452,300L1452,312L1440,312L1440,300M1464,300L1464,300L1476,300L1476,312L1464,312L1464,300M1404,312L1404,312L1416,312L1416,324L1404,324L1404,312M1392,312L1392,312L1392,324L1380,324L1380,312L1392,312M1428,312L1428,312L1440,312L1440,324L1428,324L1428,312M1452,312L1452,312L1464,312L1464,324L1452,324L1452,312M1476,312L1476,312L1488,312L1488,324L1476,324L1476,312M1392,324L1392,324L1404,324L1404,336L1392,336L1392,324M1380,324L1380,324L1380,336L1368,336L1368,324L1380,324M1416,324L1416,324L1428,324L1428,336L1416,336L1416,324M1440,324L1440,324L1452,324L1452,336L1440,336L1440,324M1464,324L1464,324L1476,324L1476,336L1464,336L1464,324M1488,324L1488,324L1500,324L1500,336L1488,336L1488,324M1380,336L1380,336L1392,336L1392,348L1380,348L1380,336M1368,336L1368,336L1368,348L1380,348L1380,360L1392,360L1392,348L1404,348L1404,336L1416,336L1416,348L1404,348L1404,360L1392,360L1392,372L1404,372L1404,360L1416,360L1416,348L1428,348L1428,336L1440,336L1440,348L1428,348L1428,360L1416,360L1416,372L1404,372L1404,384L1392,384L1392,396L1380,396L1380,408L1368,408L1368,420L1356,420L1356,432L1344,432L1344,444L1332,444L1332,456L1320,456L1320,468L1308,468L1308,480L1296,480L1296,492L1284,492L1284,504L1272,504L1272,516L1260,516L1260,528L1248,528L1248,540L1236,540L1236,552L1224,552L1224,564L1200,564L1200,576L1176,576L1176,588L912,588L912,528L1164,528L1164,516L1188,516L1188,504L1200,504L1200,492L1212,492L1212,480L1224,480L1224,468L1236,468L1236,456L1248,456L1248,444L1260,444L1260,432L1272,432L1272,420L1284,420L1284,408L1296,408L1296,396L1308,396L1308,384L1320,384L1320,372L1332,372L1332,360L1344,360L1344,348L1356,348L1356,336L1368,336M1452,336L1452,336L1464,336L1464,348L1452,348L1452,336M1476,336L1476,336L1488,336L1488,348L1476,348L1476,336M1500,336L1500,336L1512,336L1512,348L1524,348L1524,360L1536,360L1536,372L1548,372L1548,384L1560,384L1560,396L1572,396L1572,408L1584,408L1584,420L1596,420L1596,432L1608,432L1608,444L1620,444L1620,456L1632,456L1632,468L1644,468L1644,480L1656,480L1656,492L1668,492L1668,504L1680,504L1680,516L1692,516L1692,528L1704,528L1704,324L1776,324L1776,588L1668,588L1668,576L1656,576L1656,564L1644,564L1644,552L1632,552L1632,540L1620,540L1620,528L1608,528L1608,516L1596,516L1596,504L1584,504L1584,492L1572,492L1572,480L1560,480L1560,468L1548,468L1548,456L1536,456L1536,444L1524,444L1524,432L1512,432L1512,420L1500,420L1500,408L1488,408L1488,396L1476,396L1476,384L1464,384L1464,372L1452,372L1452,360L1440,360L1440,348L1452,348L1452,360L1464,360L1464,348L1476,348L1476,360L1464,360L1464,372L1476,372L1476,360L1488,360L1488,348L1500,348Z"></path><path class="start" d="M1704,300L1704,300L1776,300L1776,312L1704,312Z"></path><path class="finish" d="M1704,312L1704,312L1776,312L1776,324L1704,324Z"></path></g> <rect opacity=".3" fill="url(#grid)" height="100%" width="100%" y="0" x="0"></rect></svg>