<svg height="1896" width="1644" id="mapSvgView" xmlns:xlink="http://www.w3.org/1999/xlink" version="1.1" xmlns="http://www.w3.org/2000/svg"> <defs> <style type="text/css"> .grass {fill: rgb(0, 200, 0);} .road {fill: rgb(128, 128, 128);} .start {fill: url(#startPattern)} .finish {fill: url(#finishPattern)} .mud {fill: rgb(100, 70, 0);} .sand {fill: rgb(230, 230, 115);} .water {fill: blue;} .earth {fill: brown;} .night {fill: black;} .parc {fill: rgb(200, 200, 200);} .cp1color {fill: rgb(0, 102, 255);} .cp2color {fill: rgb(0, 100, 200);} .cp3color {fill: rgb(0, 255, 102);} .cp4color {fill: rgb(0, 200, 0);} .cp5color {fill: rgb(255, 255, 0);} .cp6color {fill: rgb(200, 200, 0);} .cp7color {fill: rgb(255, 0, 0);} .cp8color {fill: rgb(200, 0, 0);} .cp9color {fill: rgb(255, 0, 255);} .cp1 {fill: url(#cp1pattern);} .cp2 {fill: url(#cp2pattern);} .cp3 {fill: url(#cp3pattern);} .cp4 {fill: url(#cp4pattern);} .cp5 {fill: url(#cp5pattern);} .cp6 {fill: url(#cp6pattern);} .cp7 {fill: url(#cp7pattern);} .cp8 {fill: url(#cp8pattern);} .cp9 {fill: url(#cp9pattern);} .primaryColor {fill: rgb(0, 255, 102);} </style> <pattern y="0" x="0" height="12" width="12" patternUnits="userSpaceOnUse" id="grid"> <line stroke-width="1" stroke="black" y2="12" x2="12" y1="0" x1="12"></line> <line stroke-width="1" stroke="black" y2="12" x2="12" y1="12" x1="0"></line> </pattern> <pattern y="0" x="0" height="12" width="12" patternUnits="userSpaceOnUse" id="finishPattern"> <rect fill="black" height="12" width="12" y="0" x="0"></rect> <path fill="white" d="M0,0L3,0L3,3L0,3L0,0M6,0L9,0L9,3L6,3L6,0M3,3L6,3L6,6L3,6L3,3M9,3L12,3L12,6L9,6L9,3"></path> <path fill="white" d="M0,6L3,6L3,9L0,9L0,6M6,6L9,6L9,9L6,9L6,6M3,9L6,9L6,12L3,12L3,9M9,9L12,9L12,12L9,12L9,9"></path> </pattern> <pattern y="0" x="0" height="12" width="12" patternUnits="userSpaceOnUse" id="startPattern"> <rect fill="rgb(100,100,100)" height="12" width="12" y="0" x="0"></rect> <rect stroke-width="1" stroke="rgb(200,200,200)" fill="none" height="5" width="5" y="3.5" x="3.5"></rect> &gt; </pattern> <pattern y="0" x="0" height="12" width="12" patternUnits="userSpaceOnUse" id="cp1pattern"> <rect class="cp1color" height="12" width="12" y="0" x="0"></rect> <path fill="black" d="M0,0L3,0L3,3L0,3L0,0M6,0L9,0L9,3L6,3L6,0M3,3L6,3L6,6L3,6L3,3M9,3L12,3L12,6L9,6L9,3"></path> <path fill="black" d="M0,6L3,6L3,9L0,9L0,6M6,6L9,6L9,9L6,9L6,6M3,9L6,9L6,12L3,12L3,9M9,9L12,9L12,12L9,12L9,9"></path> </pattern> <pattern y="0" x="0" height="12" width="12" patternUnits="userSpaceOnUse" id="cp2pattern"> <rect class="cp2color" height="12" width="12" y="0" x="0"></rect> <path fill="white" d="M0,0L3,0L3,3L0,3L0,0M6,0L9,0L9,3L6,3L6,0M3,3L6,3L6,6L3,6L3,3M9,3L12,3L12,6L9,6L9,3"></path> <path fill="white" d="M0,6L3,6L3,9L0,9L0,6M6,6L9,6L9,9L6,9L6,6M3,9L6,9L6,12L3,12L3,9M9,9L12,9L12,12L9,12L9,9"></path> </pattern> <pattern y="0" x="0" height="12" width="12" patternUnits="userSpaceOnUse" id="cp3pattern"> <rect class="cp3color" height="12" width="12" y="0" x="0"></rect> <path fill="black" d="M0,0L3,0L3,3L0,3L0,0M6,0L9,0L9,3L6,3L6,0M3,3L6,3L6,6L3,6L3,3M9,3L12,3L12,6L9,6L9,3"></path> <path fill="black" d="M0,6L3,6L3,9L0,9L0,6M6,6L9,6L9,9L6,9L6,6M3,9L6,9L6,12L3,12L3,9M9,9L12,9L12,12L9,12L9,9"></path> </pattern> <pattern y="0" x="0" height="12" width="12" patternUnits="userSpaceOnUse" id="cp4pattern"> <rect class="cp4color" height="12" width="12" y="0" x="0"></rect> <path fill="white" d="M0,0L3,0L3,3L0,3L0,0M6,0L9,0L9,3L6,3L6,0M3,3L6,3L6,6L3,6L3,3M9,3L12,3L12,6L9,6L9,3"></path> <path fill="white" d="M0,6L3,6L3,9L0,9L0,6M6,6L9,6L9,9L6,9L6,6M3,9L6,9L6,12L3,12L3,9M9,9L12,9L12,12L9,12L9,9"></path> </pattern> <pattern y="0" x="0" height="12" width="12" patternUnits="userSpaceOnUse" id="cp5pattern"> <rect class="cp5color" height="12" width="12" y="0" x="0"></rect> <path fill="black" d="M0,0L3,0L3,3L0,3L0,0M6,0L9,0L9,3L6,3L6,0M3,3L6,3L6,6L3,6L3,3M9,3L12,3L12,6L9,6L9,3"></path> <path fill="black" d="M0,6L3,6L3,9L0,9L0,6M6,6L9,6L9,9L6,9L6,6M3,9L6,9L6,12L3,12L3,9M9,9L12,9L12,12L9,12L9,9"></path> </pattern> <pattern y="0" x="0" height="12" width="12" patternUnits="userSpaceOnUse" id="cp6pattern"> <rect class="cp6color" height="12" width="12" y="0" x="0"></rect> <path fill="white" d="M0,0L3,0L3,3L0,3L0,0M6,0L9,0L9,3L6,3L6,0M3,3L6,3L6,6L3,6L3,3M9,3L12,3L12,6L9,6L9,3"></path> <path fill="white" d="M0,6L3,6L3,9L0,9L0,6M6,6L9,6L9,9L6,9L6,6M3,9L6,9L6,12L3,12L3,9M9,9L12,9L12,12L9,12L9,9"></path> </pattern> <pattern y="0" x="0" height="12" width="12" patternUnits="userSpaceOnUse" id="cp7pattern"> <rect class="cp7color" height="12" width="12" y="0" x="0"></rect> <path fill="black" d="M0,0L3,0L3,3L0,3L0,0M6,0L9,0L9,3L6,3L6,0M3,3L6,3L6,6L3,6L3,3M9,3L12,3L12,6L9,6L9,3"></path> <path fill="black" d="M0,6L3,6L3,9L0,9L0,6M6,6L9,6L9,9L6,9L6,6M3,9L6,9L6,12L3,12L3,9M9,9L12,9L12,12L9,12L9,9"></path> </pattern> <pattern y="0" x="0" height="12" width="12" patternUnits="userSpaceOnUse" id="cp8pattern"> <rect class="cp8color" height="12" width="12" y="0" x="0"></rect> <path fill="white" d="M0,0L3,0L3,3L0,3L0,0M6,0L9,0L9,3L6,3L6,0M3,3L6,3L6,6L3,6L3,3M9,3L12,3L12,6L9,6L9,3"></path> <path fill="white" d="M0,6L3,6L3,9L0,9L0,6M6,6L9,6L9,9L6,9L6,6M3,9L6,9L6,12L3,12L3,9M9,9L12,9L12,12L9,12L9,9"></path> </pattern> <pattern y="0" x="0" height="12" width="12" patternUnits="userSpaceOnUse" id="cp9pattern"> <rect class="cp9color" height="12" width="12" y="0" x="0"></rect> <path fill="black" d="M0,0L3,0L3,3L0,3L0,0M6,0L9,0L9,3L6,3L6,0M3,3L6,3L6,6L3,6L3,3M9,3L12,3L12,6L9,6L9,3"></path> <path fill="black" d="M0,6L3,6L3,9L0,9L0,6M6,6L9,6L9,9L6,9L6,6M3,9L6,9L6,12L3,12L3,9M9,9L12,9L12,12L9,12L9,9"></path> </pattern> </defs> <rect height="100%" width="100%" y="0" x="0" class="grass" id="mainfill"></rect> <g id="paths"><path class="parc" d="M0,0L0,0L12,0L12,108L0,108Z"></path><path class="road" d="M732,36L732,36L840,36L840,48L852,48L852,36L864,36L864,48L900,48L900,60L936,60L936,72L948,72L948,84L972,84L972,96L984,96L984,108L996,108L996,120L1008,120L1008,144L1020,144L1020,156L1032,156L1032,180L1044,180L1044,204L1056,204L1056,228L1068,228L1068,252L1080,252L1080,264L1068,264L1068,276L1080,276L1080,336L1092,336L1092,360L1080,360L1080,372L1092,372L1092,384L1080,384L1080,396L1092,396L1092,408L1080,408L1080,444L1092,444L1092,516L1104,516L1104,528L1092,528L1092,540L1104,540L1104,564L1116,564L1116,600L1128,600L1128,612L1140,612L1140,636L1152,636L1152,672L1164,672L1164,684L1176,684L1176,708L1188,708L1188,732L1200,732L1200,744L1212,744L1212,756L1224,756L1224,780L1236,780L1236,792L1248,792L1248,804L1260,804L1260,816L1272,816L1272,840L1284,840L1284,864L1296,864L1296,876L1308,876L1308,888L1320,888L1320,912L1332,912L1332,936L1344,936L1344,960L1356,960L1356,1008L1368,1008L1368,1032L1380,1032L1380,1068L1392,1068L1392,1092L1404,1092L1404,1104L1392,1104L1392,1116L1404,1116L1404,1140L1416,1140L1416,1152L1404,1152L1404,1164L1416,1164L1416,1260L1404,1260L1404,1272L1416,1272L1416,1284L1404,1284L1404,1320L1392,1320L1392,1332L1368,1332L1368,1356L1356,1356L1356,1380L1344,1380L1344,1392L1320,1392L1320,1404L1308,1404L1308,1416L1320,1416L1320,1428L1296,1428L1296,1416L1164,1416L1164,1392L1128,1392L1128,1380L1140,1380L1140,1368L1152,1368L1152,1308L1140,1308L1140,1272L1152,1272L1152,1200L1140,1200L1140,1188L1152,1188L1152,1176L1140,1176L1140,1140L1152,1140L1152,1128L1140,1128L1140,1032L1128,1032L1128,996L1116,996L1116,960L1104,960L1104,948L1092,948L1092,924L1080,924L1080,900L1068,900L1068,876L1056,876L1056,852L1044,852L1044,816L1032,816L1032,780L1020,780L1020,756L1008,756L1008,732L996,732L996,696L984,696L984,672L972,672L972,648L960,648L960,636L948,636L948,600L924,600L924,588L936,588L936,576L924,576L924,564L912,564L912,552L924,552L924,564L948,564L948,540L936,540L936,528L948,528L948,516L936,516L936,492L924,492L924,480L936,480L936,468L948,468L948,456L960,456L960,444L948,444L948,408L960,408L960,396L948,396L948,360L924,360L924,348L936,348L936,336L924,336L924,312L912,312L912,300L900,300L900,288L864,288L864,300L852,300L852,288L828,288L828,300L816,300L816,312L804,312L804,336L792,336L792,348L780,348L780,432L792,432L792,444L768,444L768,432L756,432L756,444L744,444L744,432L732,432L732,444L720,444L720,432L696,432L696,408L708,408L708,396L696,396L696,360L684,360L684,324L672,324L672,312L648,312L648,300L612,300L612,312L600,312L600,348L576,348L576,360L588,360L588,372L576,372L576,432L588,432L588,420L600,420L600,408L588,408L588,384L600,384L600,372L612,372L612,360L648,360L648,372L636,372L636,408L648,408L648,372L660,372L660,384L672,384L672,396L660,396L660,408L648,408L648,420L660,420L660,408L672,408L672,456L660,456L660,480L648,480L648,468L636,468L636,480L624,480L624,456L612,456L612,444L600,444L600,432L588,432L588,468L600,468L600,492L612,492L612,516L624,516L624,528L612,528L612,540L588,540L588,528L576,528L576,552L600,552L600,576L612,576L612,588L624,588L624,576L636,576L636,588L624,588L624,600L660,600L660,588L672,588L672,600L660,600L660,612L684,612L684,624L672,624L672,636L660,636L660,624L648,624L648,612L636,612L636,624L648,624L648,636L624,636L624,612L612,612L612,600L588,600L588,612L576,612L576,624L588,624L588,648L576,648L576,660L588,660L588,684L576,684L576,696L588,696L588,708L576,708L576,720L564,720L564,744L552,744L552,756L540,756L540,780L528,780L528,792L516,792L516,828L504,828L504,852L516,852L516,864L504,864L504,888L480,888L480,912L492,912L492,936L468,936L468,960L456,960L456,996L444,996L444,1008L432,1008L432,1032L420,1032L420,1056L408,1056L408,1080L396,1080L396,1092L408,1092L408,1104L396,1104L396,1152L384,1152L384,1212L372,1212L372,1224L384,1224L384,1236L372,1236L372,1248L384,1248L384,1272L360,1272L360,1284L372,1284L372,1296L384,1296L384,1308L408,1308L408,1320L420,1320L420,1332L432,1332L432,1344L444,1344L444,1356L456,1356L456,1368L480,1368L480,1380L492,1380L492,1392L504,1392L504,1404L516,1404L516,1416L528,1416L528,1428L552,1428L552,1452L576,1452L576,1464L600,1464L600,1488L612,1488L612,1536L600,1536L600,1548L516,1548L516,1524L492,1524L492,1512L480,1512L480,1464L468,1464L468,1476L456,1476L456,1428L432,1428L432,1392L420,1392L420,1380L408,1380L408,1356L396,1356L396,1344L384,1344L384,1332L372,1332L372,1320L360,1320L360,1308L348,1308L348,1296L336,1296L336,1284L312,1284L312,1272L288,1272L288,1284L276,1284L276,1296L264,1296L264,1308L252,1308L252,1296L240,1296L240,1284L228,1284L228,1260L240,1260L240,1248L228,1248L228,1224L240,1224L240,1212L228,1212L228,1200L240,1200L240,1176L252,1176L252,1164L264,1164L264,1152L276,1152L276,1128L288,1128L288,1104L300,1104L300,1080L312,1080L312,1044L324,1044L324,1020L336,1020L336,972L348,972L348,936L360,936L360,912L372,912L372,876L384,876L384,864L396,864L396,852L408,852L408,840L420,840L420,816L432,816L432,804L444,804L444,792L456,792L456,768L468,768L468,756L480,756L480,732L492,732L492,720L504,720L504,708L516,708L516,684L528,684L528,672L540,672L540,468L528,468L528,456L540,456L540,432L528,432L528,420L540,420L540,408L528,408L528,396L540,396L540,384L528,384L528,216L540,216L540,168L552,168L552,156L564,156L564,132L576,132L576,120L588,120L588,108L612,108L612,96L624,96L624,84L636,84L636,72L660,72L660,60L696,60L696,48L732,48L732,36M912,120L912,120L900,120L900,132L888,132L888,156L900,156L900,144L912,144L912,156L900,156L900,168L924,168L924,156L936,156L936,144L924,144L924,132L912,132L912,120M924,276L924,276L912,276L912,288L924,288L924,276M828,312L828,312L840,312L840,324L828,324L828,312M852,312L852,312L864,312L864,324L852,324L852,312M900,324L900,324L912,324L912,336L900,336L900,324M840,360L840,360L888,360L888,372L900,372L900,384L912,384L912,396L900,396L900,408L912,408L912,456L888,456L888,480L840,480L840,456L816,456L816,384L828,384L828,372L840,372L840,360M876,372L876,372L864,372L864,384L876,384L876,372M888,384L888,384L876,384L876,396L888,396L888,384M672,456L672,456L684,456L684,444L696,444L696,456L684,456L684,468L672,468L672,456M744,456L744,456L768,456L768,468L744,468L744,456M636,480L636,480L648,480L648,492L636,492L636,480M696,468L696,468L708,468L708,480L696,480L696,468M888,480L888,480L900,480L900,492L888,492L888,480M804,480L804,480L816,480L816,492L804,492L804,480M660,492L660,492L672,492L672,504L660,504L660,492M708,492L708,492L720,492L720,504L708,504L708,492M600,516L600,516L588,516L588,528L600,528L600,516M756,504L756,504L768,504L768,516L756,516L756,504M672,516L672,516L684,516L684,528L672,528L672,516M780,516L780,516L792,516L792,528L780,528L780,516M612,540L612,540L624,540L624,552L612,552L612,540M912,528L912,528L924,528L924,540L912,540L912,528M636,540L636,540L648,540L648,552L636,552L636,540M744,540L744,540L756,540L756,552L744,552L744,540M876,540L876,540L888,540L888,564L876,564L876,540M660,552L660,552L672,552L672,564L660,564L660,552M840,552L840,552L864,552L864,564L840,564L840,552M720,564L720,564L732,564L732,576L720,576L720,564M1020,576L1020,576L1008,576L1008,600L1020,600L1020,576M804,576L804,576L828,576L828,588L816,588L816,600L804,600L804,612L780,612L780,624L768,624L768,612L756,612L756,600L780,600L780,588L804,588L804,576M852,576L852,576L864,576L864,588L852,588L852,576M864,588L864,588L876,588L876,600L864,600L864,588M1044,588L1044,588L1032,588L1032,600L1020,600L1020,636L1032,636L1032,648L1056,648L1056,660L1068,660L1068,648L1080,648L1080,624L1068,624L1068,612L1044,612L1044,588M888,588L888,588L912,588L912,600L888,600L888,588M720,600L720,600L732,600L732,612L756,612L756,624L696,624L696,612L720,612L720,600M756,624L756,624L768,624L768,636L756,636L756,624M864,612L864,612L876,612L876,624L864,624L864,612M864,624L864,624L864,636L840,636L840,624L864,624M1068,624L1068,624L1068,636L1056,636L1056,624L1068,624M624,636L624,636L624,648L612,648L612,636L624,636M648,636L648,636L660,636L660,648L672,648L672,636L684,636L684,660L696,660L696,648L708,648L708,636L720,636L720,648L708,648L708,672L720,672L720,648L732,648L732,672L720,672L720,684L708,684L708,696L696,696L696,672L684,672L684,684L672,684L672,660L636,660L636,648L648,648L648,636M768,636L768,636L780,636L780,648L768,648L768,636M816,624L816,624L828,624L828,636L816,636L816,624M828,636L828,636L840,636L840,648L828,648L828,636M816,636L816,636L816,660L804,660L804,636L816,636M744,648L744,648L756,648L756,660L768,660L768,672L744,672L744,648M852,648L852,648L864,648L864,660L852,660L852,648M732,672L732,672L744,672L744,696L732,696L732,672M768,672L768,672L780,672L780,660L792,660L792,684L768,684L768,672M516,888L516,888L528,888L528,900L516,900L516,888M348,1212L348,1212L336,1212L336,1224L348,1224L348,1212M1140,1308L1140,1308L1140,1320L1128,1320L1128,1308L1140,1308M360,1320L360,1320L360,1332L348,1332L348,1320L360,1320M1080,1308L1080,1308L1092,1308L1092,1320L1080,1320L1080,1308M1068,1332L1068,1332L1080,1332L1080,1344L1068,1344L1068,1332M216,1344L216,1344L228,1344L228,1356L216,1356L216,1344M240,1356L240,1356L252,1356L252,1368L240,1368L240,1356M1056,1368L1056,1368L1068,1368L1068,1380L1056,1380L1056,1368M1092,1368L1092,1368L1104,1368L1104,1380L1092,1380L1092,1368M204,1380L204,1380L216,1380L216,1392L204,1392L204,1380M216,1392L216,1392L228,1392L228,1404L216,1404L216,1392M204,1392L204,1392L204,1404L180,1404L180,1428L168,1428L168,1416L156,1416L156,1404L168,1404L168,1392L204,1392M1356,1392L1356,1392L1368,1392L1368,1404L1356,1404L1356,1392M1392,1392L1392,1392L1404,1392L1404,1404L1392,1404L1392,1392M1080,1404L1080,1404L1092,1404L1092,1416L1080,1416L1080,1404M1128,1404L1128,1404L1140,1404L1140,1416L1128,1416L1128,1404M1128,1416L1128,1416L1128,1428L1116,1428L1116,1416L1128,1416M1164,1416L1164,1416L1164,1428L1152,1428L1152,1416L1164,1416M120,1416L120,1416L144,1416L144,1428L132,1428L132,1440L120,1440L120,1416M192,1416L192,1416L204,1416L204,1428L192,1428L192,1416M348,1416L348,1416L360,1416L360,1428L348,1428L348,1416M1164,1428L1164,1428L1176,1428L1176,1440L1164,1440L1164,1428M1152,1428L1152,1428L1152,1440L1140,1440L1140,1428L1152,1428M120,1440L120,1440L120,1452L108,1452L108,1440L120,1440M228,1428L228,1428L240,1428L240,1440L228,1440L228,1428M396,1428L396,1428L408,1428L408,1440L396,1440L396,1428M1068,1428L1068,1428L1080,1428L1080,1440L1068,1440L1068,1428M1176,1440L1176,1440L1188,1440L1188,1428L1200,1428L1200,1440L1188,1440L1188,1464L1176,1464L1176,1440M1212,1428L1212,1428L1224,1428L1224,1440L1212,1440L1212,1428M1224,1440L1224,1440L1236,1440L1236,1428L1260,1428L1260,1440L1272,1440L1272,1428L1284,1428L1284,1440L1272,1440L1272,1452L1260,1452L1260,1464L1248,1464L1248,1440L1236,1440L1236,1452L1224,1452L1224,1440M1380,1428L1380,1428L1392,1428L1392,1440L1380,1440L1380,1428M72,1440L72,1440L84,1440L84,1452L72,1452L72,1440M168,1440L168,1440L180,1440L180,1452L168,1452L168,1440M1116,1440L1116,1440L1128,1440L1128,1452L1116,1452L1116,1440M1308,1440L1308,1440L1320,1440L1320,1452L1308,1452L1308,1440M1320,1452L1320,1452L1332,1452L1332,1464L1320,1464L1320,1452M1344,1440L1344,1440L1356,1440L1356,1452L1344,1452L1344,1440M36,1452L36,1452L60,1452L60,1464L36,1464L36,1452M228,1452L228,1452L240,1452L240,1464L228,1464L228,1452M264,1452L264,1452L276,1452L276,1464L264,1464L264,1452M1056,1452L1056,1452L1068,1452L1068,1464L1056,1464L1056,1452M1068,1464L1068,1464L1080,1464L1080,1476L1092,1476L1092,1464L1104,1464L1104,1476L1092,1476L1092,1488L1068,1488L1068,1500L1056,1500L1056,1476L1068,1476L1068,1464M1152,1452L1152,1452L1164,1452L1164,1464L1152,1464L1152,1452M1152,1464L1152,1464L1152,1476L1140,1476L1140,1464L1152,1464M1200,1452L1200,1452L1212,1452L1212,1464L1200,1464L1200,1452M1212,1464L1212,1464L1224,1464L1224,1476L1212,1476L1212,1464M192,1464L192,1464L204,1464L204,1476L192,1476L192,1464M408,1464L408,1464L420,1464L420,1476L408,1476L408,1464M1116,1464L1116,1464L1128,1464L1128,1476L1116,1476L1116,1464M1212,1476L1212,1476L1212,1488L1200,1488L1200,1476L1212,1476M1272,1464L1272,1464L1284,1464L1284,1476L1272,1476L1272,1464M1284,1476L1284,1476L1296,1476L1296,1488L1284,1488L1284,1476M108,1476L108,1476L120,1476L120,1488L108,1488L108,1476M156,1476L156,1476L168,1476L168,1488L156,1488L156,1476M276,1476L276,1476L288,1476L288,1488L276,1488L276,1476M360,1476L360,1476L372,1476L372,1488L360,1488L360,1476M1164,1476L1164,1476L1176,1476L1176,1488L1164,1488L1164,1476M1248,1476L1248,1476L1260,1476L1260,1488L1248,1488L1248,1476M36,1488L36,1488L48,1488L48,1500L36,1500L36,1488M432,1488L432,1488L444,1488L444,1500L432,1500L432,1488M1068,1500L1068,1500L1092,1500L1092,1512L1104,1512L1104,1524L1092,1524L1092,1536L1080,1536L1080,1524L1056,1524L1056,1512L1068,1512L1068,1500M1308,1488L1308,1488L1320,1488L1320,1500L1308,1500L1308,1488M72,1500L72,1500L84,1500L84,1512L72,1512L72,1500M180,1500L180,1500L192,1500L192,1512L180,1512L180,1500M372,1500L372,1500L384,1500L384,1512L372,1512L372,1500M1128,1500L1128,1500L1140,1500L1140,1512L1128,1512L1128,1500M1188,1500L1188,1500L1200,1500L1200,1512L1188,1512L1188,1500M1200,1512L1200,1512L1212,1512L1212,1524L1200,1524L1200,1512M1236,1500L1236,1500L1248,1500L1248,1512L1236,1512L1236,1500M36,1512L36,1512L48,1512L48,1536L36,1536L36,1512M1056,1524L1056,1524L1056,1536L1080,1536L1080,1548L1068,1548L1068,1560L1080,1560L1080,1548L1092,1548L1092,1560L1080,1560L1080,1584L1092,1584L1092,1596L1080,1596L1080,1608L1056,1608L1056,1620L1080,1620L1080,1632L1056,1632L1056,1656L1068,1656L1068,1668L1056,1668L1056,1680L1044,1680L1044,1692L1056,1692L1056,1680L1080,1680L1080,1692L1056,1692L1056,1704L1044,1704L1044,1716L1056,1716L1056,1704L1080,1704L1080,1716L1092,1716L1092,1704L1104,1704L1104,1716L1092,1716L1092,1728L1128,1728L1128,1740L1092,1740L1092,1752L1104,1752L1104,1764L1068,1764L1068,1752L1056,1752L1056,1764L1068,1764L1068,1776L1104,1776L1104,1764L1128,1764L1128,1776L1104,1776L1104,1788L1080,1788L1080,1800L1104,1800L1104,1788L1128,1788L1128,1776L1140,1776L1140,1788L1128,1788L1128,1800L1116,1800L1116,1812L1128,1812L1128,1800L1140,1800L1140,1788L1152,1788L1152,1764L1164,1764L1164,1776L1188,1776L1188,1764L1200,1764L1200,1776L1188,1776L1188,1788L1164,1788L1164,1800L1140,1800L1140,1812L1128,1812L1128,1824L1140,1824L1140,1812L1164,1812L1164,1800L1200,1800L1200,1812L1164,1812L1164,1824L1200,1824L1200,1812L1212,1812L1212,1800L1224,1800L1224,1788L1212,1788L1212,1764L1224,1764L1224,1788L1236,1788L1236,1752L1224,1752L1224,1740L1236,1740L1236,1752L1248,1752L1248,1764L1260,1764L1260,1776L1248,1776L1248,1788L1272,1788L1272,1752L1308,1752L1308,1776L1284,1776L1284,1800L1272,1800L1272,1812L1260,1812L1260,1800L1248,1800L1248,1812L1260,1812L1260,1824L1236,1824L1236,1836L1212,1836L1212,1848L1176,1848L1176,1860L1164,1860L1164,1848L1152,1848L1152,1860L1128,1860L1128,1848L1116,1848L1116,1860L1104,1860L1104,1848L1080,1848L1080,1836L1056,1836L1056,1824L1044,1824L1044,1800L1032,1800L1032,1776L1020,1776L1020,1764L1008,1764L1008,1776L996,1776L996,1764L696,1764L696,1776L684,1776L684,1764L672,1764L672,1776L624,1776L624,1788L600,1788L600,1800L588,1800L588,1812L564,1812L564,1824L552,1824L552,1836L540,1836L540,1848L516,1848L516,1860L504,1860L504,1848L468,1848L468,1860L456,1860L456,1848L432,1848L432,1836L396,1836L396,1824L372,1824L372,1812L336,1812L336,1800L276,1800L276,1788L228,1788L228,1776L204,1776L204,1764L192,1764L192,1752L180,1752L180,1740L168,1740L168,1752L180,1752L180,1764L156,1764L156,1752L120,1752L120,1728L132,1728L132,1704L144,1704L144,1692L156,1692L156,1704L144,1704L144,1728L132,1728L132,1740L156,1740L156,1716L168,1716L168,1728L204,1728L204,1740L216,1740L216,1752L204,1752L204,1764L216,1764L216,1752L228,1752L228,1728L264,1728L264,1716L276,1716L276,1728L264,1728L264,1764L252,1764L252,1740L240,1740L240,1752L228,1752L228,1764L252,1764L252,1776L264,1776L264,1764L276,1764L276,1740L288,1740L288,1728L300,1728L300,1740L288,1740L288,1752L312,1752L312,1764L300,1764L300,1776L288,1776L288,1764L276,1764L276,1776L288,1776L288,1788L300,1788L300,1776L312,1776L312,1764L324,1764L324,1740L336,1740L336,1764L324,1764L324,1788L336,1788L336,1776L348,1776L348,1752L360,1752L360,1764L372,1764L372,1752L384,1752L384,1764L372,1764L372,1800L384,1800L384,1764L396,1764L396,1752L408,1752L408,1740L420,1740L420,1752L408,1752L408,1764L396,1764L396,1788L408,1788L408,1776L420,1776L420,1764L432,1764L432,1776L420,1776L420,1788L408,1788L408,1800L396,1800L396,1812L408,1812L408,1800L420,1800L420,1788L432,1788L432,1800L444,1800L444,1764L456,1764L456,1788L468,1788L468,1764L480,1764L480,1752L492,1752L492,1764L480,1764L480,1776L504,1776L504,1764L516,1764L516,1776L504,1776L504,1788L516,1788L516,1776L528,1776L528,1752L552,1752L552,1740L540,1740L540,1716L552,1716L552,1680L564,1680L564,1668L552,1668L552,1656L564,1656L564,1644L576,1644L576,1632L564,1632L564,1620L552,1620L552,1596L564,1596L564,1608L576,1608L576,1632L588,1632L588,1644L600,1644L600,1656L624,1656L624,1668L684,1668L684,1680L756,1680L756,1668L828,1668L828,1656L840,1656L840,1668L852,1668L852,1656L876,1656L876,1644L912,1644L912,1632L924,1632L924,1620L948,1620L948,1608L960,1608L960,1596L972,1596L972,1584L996,1584L996,1572L1008,1572L1008,1560L1020,1560L1020,1548L1032,1548L1032,1536L1044,1536L1044,1524L1056,1524M1104,1524L1104,1524L1116,1524L1116,1536L1104,1536L1104,1524M1272,1512L1272,1512L1284,1512L1284,1524L1272,1524L1272,1512M60,1524L60,1524L72,1524L72,1536L60,1536L60,1524M276,1524L276,1524L288,1524L288,1536L276,1536L276,1524M456,1524L456,1524L468,1524L468,1536L456,1536L456,1524M1116,1536L1116,1536L1128,1536L1128,1548L1116,1548L1116,1536M1152,1524L1152,1524L1164,1524L1164,1536L1152,1536L1152,1524M1236,1524L1236,1524L1248,1524L1248,1536L1236,1536L1236,1524M96,1536L96,1536L108,1536L108,1548L96,1548L96,1536M1272,1536L1272,1536L1284,1536L1284,1548L1272,1548L1272,1536M1380,1536L1380,1536L1392,1536L1392,1548L1380,1548L1380,1536M36,1548L36,1548L48,1548L48,1560L36,1560L36,1548M48,1560L48,1560L60,1560L60,1572L48,1572L48,1560M480,1548L480,1548L492,1548L492,1560L480,1560L480,1548M1092,1560L1092,1560L1104,1560L1104,1572L1092,1572L1092,1560M1308,1548L1308,1548L1320,1548L1320,1560L1308,1560L1308,1548M48,1572L48,1572L48,1596L36,1596L36,1572L48,1572M120,1560L120,1560L132,1560L132,1572L120,1572L120,1560M540,1560L540,1560L552,1560L552,1584L540,1584L540,1560M1068,1572L1068,1572L1056,1572L1056,1596L1068,1596L1068,1572M1128,1560L1128,1560L1140,1560L1140,1572L1128,1572L1128,1560M84,1572L84,1572L96,1572L96,1584L84,1584L84,1572M168,1572L168,1572L180,1572L180,1584L168,1584L168,1572M240,1572L240,1572L252,1572L252,1584L240,1584L240,1572M1176,1572L1176,1572L1188,1572L1188,1584L1176,1584L1176,1572M1536,1572L1536,1572L1548,1572L1548,1584L1536,1584L1536,1572M60,1584L60,1584L72,1584L72,1596L60,1596L60,1584M372,1584L372,1584L384,1584L384,1596L372,1596L372,1584M480,1584L480,1584L492,1584L492,1596L480,1596L480,1584M1140,1584L1140,1584L1152,1584L1152,1596L1140,1596L1140,1584M1332,1584L1332,1584L1344,1584L1344,1596L1332,1596L1332,1584M84,1596L84,1596L96,1596L96,1608L84,1608L84,1596M420,1596L420,1596L432,1596L432,1608L420,1608L420,1596M456,1596L456,1596L468,1596L468,1608L456,1608L456,1596M1296,1596L1296,1596L1308,1596L1308,1608L1296,1608L1296,1596M1452,1596L1452,1596L1464,1596L1464,1608L1452,1608L1452,1596M36,1608L36,1608L48,1608L48,1620L36,1620L36,1608M48,1620L48,1620L60,1620L60,1632L48,1632L48,1620M480,1608L480,1608L492,1608L492,1620L480,1620L480,1608M552,1620L552,1620L552,1632L540,1632L540,1620L552,1620M1092,1608L1092,1608L1104,1608L1104,1620L1092,1620L1092,1608M1116,1608L1116,1608L1128,1608L1128,1620L1116,1620L1116,1608M1248,1608L1248,1608L1260,1608L1260,1620L1248,1620L1248,1608M1392,1608L1392,1608L1404,1608L1404,1620L1392,1620L1392,1608M1524,1608L1524,1608L1536,1608L1536,1620L1524,1620L1524,1608M288,1620L288,1620L300,1620L300,1632L288,1632L288,1620M504,1620L504,1620L516,1620L516,1632L504,1632L504,1620M1344,1620L1344,1620L1356,1620L1356,1632L1344,1632L1344,1620M84,1632L84,1632L96,1632L96,1644L84,1644L84,1632M432,1632L432,1632L444,1632L444,1644L432,1644L432,1632M1092,1632L1092,1632L1104,1632L1104,1644L1092,1644L1092,1632M1092,1644L1092,1644L1092,1656L1080,1656L1080,1644L1092,1644M1140,1632L1140,1632L1152,1632L1152,1644L1140,1644L1140,1632M1284,1632L1284,1632L1296,1632L1296,1644L1284,1644L1284,1632M1464,1632L1464,1632L1476,1632L1476,1644L1464,1644L1464,1632M1512,1632L1512,1632L1524,1632L1524,1644L1512,1644L1512,1632M36,1644L36,1644L48,1644L48,1656L36,1656L36,1644M516,1644L516,1644L528,1644L528,1656L516,1656L516,1644M576,1656L576,1656L564,1656L564,1668L576,1668L576,1656M1488,1644L1488,1644L1500,1644L1500,1656L1488,1656L1488,1644M60,1656L60,1656L72,1656L72,1668L60,1668L60,1656M108,1656L108,1656L120,1656L120,1668L108,1668L108,1656M204,1656L204,1656L216,1656L216,1668L204,1668L204,1656M420,1656L420,1656L432,1656L432,1668L420,1668L420,1656M468,1656L468,1656L480,1656L480,1668L468,1668L468,1656M492,1656L492,1656L504,1656L504,1668L492,1668L492,1656M1104,1656L1104,1656L1116,1656L1116,1668L1104,1668L1104,1656M1140,1656L1140,1656L1152,1656L1152,1668L1140,1668L1140,1656M1224,1656L1224,1656L1236,1656L1236,1668L1224,1668L1224,1656M1356,1656L1356,1656L1368,1656L1368,1668L1356,1668L1356,1656M1404,1656L1404,1656L1416,1656L1416,1668L1404,1668L1404,1656M132,1668L132,1668L144,1668L144,1680L132,1680L132,1668M312,1668L312,1668L324,1668L324,1680L312,1680L312,1668M360,1668L360,1668L372,1668L372,1680L360,1680L360,1668M588,1680L588,1680L576,1680L576,1692L588,1692L588,1680M36,1680L36,1680L48,1680L48,1692L36,1692L36,1680M264,1680L264,1680L276,1680L276,1692L264,1692L264,1680M444,1680L444,1680L456,1680L456,1692L444,1692L444,1680M1092,1680L1092,1680L1104,1680L1104,1692L1092,1692L1092,1680M1332,1680L1332,1680L1344,1680L1344,1692L1332,1692L1332,1680M60,1692L60,1692L72,1692L72,1704L60,1704L60,1692M60,1704L60,1704L60,1716L48,1716L48,1704L60,1704M84,1692L84,1692L96,1692L96,1716L84,1716L84,1692M204,1692L204,1692L216,1692L216,1704L204,1704L204,1692M216,1704L216,1704L228,1704L228,1716L216,1716L216,1704M384,1692L384,1692L396,1692L396,1704L384,1704L384,1692M528,1692L528,1692L540,1692L540,1704L528,1704L528,1692M588,1704L588,1704L576,1704L576,1716L564,1716L564,1728L552,1728L552,1740L564,1740L564,1728L576,1728L576,1716L588,1716L588,1704M1296,1692L1296,1692L1308,1692L1308,1704L1296,1704L1296,1692M1380,1692L1380,1692L1392,1692L1392,1716L1380,1716L1380,1692M108,1704L108,1704L120,1704L120,1716L108,1716L108,1704M180,1704L180,1704L192,1704L192,1716L180,1716L180,1704M240,1704L240,1704L252,1704L252,1716L240,1716L240,1704M300,1704L300,1704L312,1704L312,1716L300,1716L300,1704M324,1704L324,1704L336,1704L336,1716L324,1716L324,1704M348,1704L348,1704L360,1704L360,1716L348,1716L348,1704M480,1704L480,1704L492,1704L492,1716L480,1716L480,1704M600,1716L600,1716L588,1716L588,1728L600,1728L600,1716M1068,1716L1068,1716L1056,1716L1056,1728L1068,1728L1068,1716M1116,1704L1116,1704L1128,1704L1128,1716L1116,1716L1116,1704M1356,1704L1356,1704L1368,1704L1368,1716L1356,1716L1356,1704M1368,1716L1368,1716L1380,1716L1380,1728L1368,1728L1368,1716M504,1716L504,1716L516,1716L516,1728L504,1728L504,1716M1080,1728L1080,1728L1068,1728L1068,1752L1080,1752L1080,1728M1188,1716L1188,1716L1200,1716L1200,1728L1188,1728L1188,1716M1236,1716L1236,1716L1248,1716L1248,1728L1236,1728L1236,1716M1308,1716L1308,1716L1320,1716L1320,1728L1308,1728L1308,1716M1332,1716L1332,1716L1344,1716L1344,1728L1332,1728L1332,1716M1344,1728L1344,1728L1368,1728L1368,1740L1344,1740L1344,1728M72,1728L72,1728L108,1728L108,1740L72,1740L72,1728M1140,1728L1140,1728L1152,1728L1152,1740L1140,1740L1140,1728M1260,1728L1260,1728L1272,1728L1272,1740L1260,1740L1260,1728M1284,1728L1284,1728L1296,1728L1296,1740L1284,1740L1284,1728M1344,1740L1344,1740L1344,1752L1332,1752L1332,1740L1344,1740M456,1740L456,1740L468,1740L468,1752L456,1752L456,1740M564,1752L564,1752L552,1752L552,1764L540,1764L540,1776L552,1776L552,1764L564,1764L564,1752M588,1752L588,1752L576,1752L576,1764L588,1764L588,1752M1200,1740L1200,1740L1212,1740L1212,1752L1200,1752L1200,1740M1332,1752L1332,1752L1332,1764L1320,1764L1320,1752L1332,1752M180,1764L180,1764L192,1764L192,1776L180,1776L180,1764M360,1776L360,1776L348,1776L348,1788L336,1788L336,1800L348,1800L348,1788L360,1788L360,1776M480,1788L480,1788L468,1788L468,1800L444,1800L444,1812L432,1812L432,1824L444,1824L444,1812L468,1812L468,1800L492,1800L492,1788L480,1788M552,1788L552,1788L540,1788L540,1800L552,1800L552,1788M504,1800L504,1800L492,1800L492,1812L504,1812L504,1800M528,1800L528,1800L516,1800L516,1812L528,1812L528,1800M1236,1800L1236,1800L1224,1800L1224,1812L1212,1812L1212,1824L1224,1824L1224,1812L1236,1812L1236,1800M1488,1788L1488,1788L1500,1788L1500,1824L1548,1824L1548,1884L1488,1884L1488,1788M420,1812L420,1812L408,1812L408,1824L420,1824L420,1812M480,1812L480,1812L468,1812L468,1824L480,1824L480,1812M1344,1812L1344,1812L1356,1812L1356,1824L1344,1824L1344,1812M1356,1824L1356,1824L1368,1824L1368,1836L1356,1836L1356,1824M1392,1812L1392,1812L1404,1812L1404,1824L1392,1824L1392,1812M1392,1824L1392,1824L1392,1836L1380,1836L1380,1824L1392,1824M1368,1836L1368,1836L1380,1836L1380,1884L1368,1884L1368,1836M1416,1824L1416,1824L1476,1824L1476,1884L1416,1884L1416,1848L1464,1848L1464,1836L1416,1836L1416,1824M1512,1836L1512,1836L1500,1836L1500,1872L1536,1872L1536,1836L1512,1836M1560,1824L1560,1824L1620,1824L1620,1884L1560,1884L1560,1848L1608,1848L1608,1836L1560,1836L1560,1824M1440,1860L1440,1860L1428,1860L1428,1872L1464,1872L1464,1860L1440,1860M1584,1860L1584,1860L1572,1860L1572,1872L1608,1872L1608,1860Z"></path><path class="start" d="M1176,1416L1176,1416L1296,1416L1296,1428L1176,1428Z"></path><path class="finish" d="M528,1548L528,1548L600,1548L600,1560L528,1560Z"></path></g> <rect opacity=".3" fill="url(#grid)" height="100%" width="100%" y="0" x="0"></rect></svg>