<svg height="600" width="1200" id="mapSvgView" xmlns:xlink="http://www.w3.org/1999/xlink" version="1.1" xmlns="http://www.w3.org/2000/svg"> <defs> <style type="text/css"> .grass {fill: rgb(0, 200, 0);} .road {fill: rgb(128, 128, 128);} .start {fill: url(#startPattern)} .finish {fill: url(#finishPattern)} .mud {fill: rgb(100, 70, 0);} .sand {fill: rgb(230, 230, 115);} .water {fill: blue;} .earth {fill: brown;} .night {fill: black;} .parc {fill: rgb(200, 200, 200);} .cp1color {fill: rgb(0, 102, 255);} .cp2color {fill: rgb(0, 100, 200);} .cp3color {fill: rgb(0, 255, 102);} .cp4color {fill: rgb(0, 200, 0);} .cp5color {fill: rgb(255, 255, 0);} .cp6color {fill: rgb(200, 200, 0);} .cp7color {fill: rgb(255, 0, 0);} .cp8color {fill: rgb(200, 0, 0);} .cp9color {fill: rgb(255, 0, 255);} .cp1 {fill: url(#cp1pattern);} .cp2 {fill: url(#cp2pattern);} .cp3 {fill: url(#cp3pattern);} .cp4 {fill: url(#cp4pattern);} .cp5 {fill: url(#cp5pattern);} .cp6 {fill: url(#cp6pattern);} .cp7 {fill: url(#cp7pattern);} .cp8 {fill: url(#cp8pattern);} .cp9 {fill: url(#cp9pattern);} .primaryColor {fill: rgb(0, 255, 102);} </style> <pattern y="0" x="0" height="12" width="12" patternUnits="userSpaceOnUse" id="grid"> <line stroke-width="1" stroke="black" y2="12" x2="12" y1="0" x1="12"></line> <line stroke-width="1" stroke="black" y2="12" x2="12" y1="12" x1="0"></line> </pattern> <pattern y="0" x="0" height="12" width="12" patternUnits="userSpaceOnUse" id="finishPattern"> <rect fill="black" height="12" width="12" y="0" x="0"></rect> <path fill="white" d="M0,0L3,0L3,3L0,3L0,0M6,0L9,0L9,3L6,3L6,0M3,3L6,3L6,6L3,6L3,3M9,3L12,3L12,6L9,6L9,3"></path> <path fill="white" d="M0,6L3,6L3,9L0,9L0,6M6,6L9,6L9,9L6,9L6,6M3,9L6,9L6,12L3,12L3,9M9,9L12,9L12,12L9,12L9,9"></path> </pattern> <pattern y="0" x="0" height="12" width="12" patternUnits="userSpaceOnUse" id="startPattern"> <rect fill="rgb(100,100,100)" height="12" width="12" y="0" x="0"></rect> <rect stroke-width="1" stroke="rgb(200,200,200)" fill="none" height="5" width="5" y="3.5" x="3.5"></rect> &gt; </pattern> <pattern y="0" x="0" height="12" width="12" patternUnits="userSpaceOnUse" id="cp1pattern"> <rect class="cp1color" height="12" width="12" y="0" x="0"></rect> <path fill="black" d="M0,0L3,0L3,3L0,3L0,0M6,0L9,0L9,3L6,3L6,0M3,3L6,3L6,6L3,6L3,3M9,3L12,3L12,6L9,6L9,3"></path> <path fill="black" d="M0,6L3,6L3,9L0,9L0,6M6,6L9,6L9,9L6,9L6,6M3,9L6,9L6,12L3,12L3,9M9,9L12,9L12,12L9,12L9,9"></path> </pattern> <pattern y="0" x="0" height="12" width="12" patternUnits="userSpaceOnUse" id="cp2pattern"> <rect class="cp2color" height="12" width="12" y="0" x="0"></rect> <path fill="white" d="M0,0L3,0L3,3L0,3L0,0M6,0L9,0L9,3L6,3L6,0M3,3L6,3L6,6L3,6L3,3M9,3L12,3L12,6L9,6L9,3"></path> <path fill="white" d="M0,6L3,6L3,9L0,9L0,6M6,6L9,6L9,9L6,9L6,6M3,9L6,9L6,12L3,12L3,9M9,9L12,9L12,12L9,12L9,9"></path> </pattern> <pattern y="0" x="0" height="12" width="12" patternUnits="userSpaceOnUse" id="cp3pattern"> <rect class="cp3color" height="12" width="12" y="0" x="0"></rect> <path fill="black" d="M0,0L3,0L3,3L0,3L0,0M6,0L9,0L9,3L6,3L6,0M3,3L6,3L6,6L3,6L3,3M9,3L12,3L12,6L9,6L9,3"></path> <path fill="black" d="M0,6L3,6L3,9L0,9L0,6M6,6L9,6L9,9L6,9L6,6M3,9L6,9L6,12L3,12L3,9M9,9L12,9L12,12L9,12L9,9"></path> </pattern> <pattern y="0" x="0" height="12" width="12" patternUnits="userSpaceOnUse" id="cp4pattern"> <rect class="cp4color" height="12" width="12" y="0" x="0"></rect> <path fill="white" d="M0,0L3,0L3,3L0,3L0,0M6,0L9,0L9,3L6,3L6,0M3,3L6,3L6,6L3,6L3,3M9,3L12,3L12,6L9,6L9,3"></path> <path fill="white" d="M0,6L3,6L3,9L0,9L0,6M6,6L9,6L9,9L6,9L6,6M3,9L6,9L6,12L3,12L3,9M9,9L12,9L12,12L9,12L9,9"></path> </pattern> <pattern y="0" x="0" height="12" width="12" patternUnits="userSpaceOnUse" id="cp5pattern"> <rect class="cp5color" height="12" width="12" y="0" x="0"></rect> <path fill="black" d="M0,0L3,0L3,3L0,3L0,0M6,0L9,0L9,3L6,3L6,0M3,3L6,3L6,6L3,6L3,3M9,3L12,3L12,6L9,6L9,3"></path> <path fill="black" d="M0,6L3,6L3,9L0,9L0,6M6,6L9,6L9,9L6,9L6,6M3,9L6,9L6,12L3,12L3,9M9,9L12,9L12,12L9,12L9,9"></path> </pattern> <pattern y="0" x="0" height="12" width="12" patternUnits="userSpaceOnUse" id="cp6pattern"> <rect class="cp6color" height="12" width="12" y="0" x="0"></rect> <path fill="white" d="M0,0L3,0L3,3L0,3L0,0M6,0L9,0L9,3L6,3L6,0M3,3L6,3L6,6L3,6L3,3M9,3L12,3L12,6L9,6L9,3"></path> <path fill="white" d="M0,6L3,6L3,9L0,9L0,6M6,6L9,6L9,9L6,9L6,6M3,9L6,9L6,12L3,12L3,9M9,9L12,9L12,12L9,12L9,9"></path> </pattern> <pattern y="0" x="0" height="12" width="12" patternUnits="userSpaceOnUse" id="cp7pattern"> <rect class="cp7color" height="12" width="12" y="0" x="0"></rect> <path fill="black" d="M0,0L3,0L3,3L0,3L0,0M6,0L9,0L9,3L6,3L6,0M3,3L6,3L6,6L3,6L3,3M9,3L12,3L12,6L9,6L9,3"></path> <path fill="black" d="M0,6L3,6L3,9L0,9L0,6M6,6L9,6L9,9L6,9L6,6M3,9L6,9L6,12L3,12L3,9M9,9L12,9L12,12L9,12L9,9"></path> </pattern> <pattern y="0" x="0" height="12" width="12" patternUnits="userSpaceOnUse" id="cp8pattern"> <rect class="cp8color" height="12" width="12" y="0" x="0"></rect> <path fill="white" d="M0,0L3,0L3,3L0,3L0,0M6,0L9,0L9,3L6,3L6,0M3,3L6,3L6,6L3,6L3,3M9,3L12,3L12,6L9,6L9,3"></path> <path fill="white" d="M0,6L3,6L3,9L0,9L0,6M6,6L9,6L9,9L6,9L6,6M3,9L6,9L6,12L3,12L3,9M9,9L12,9L12,12L9,12L9,9"></path> </pattern> <pattern y="0" x="0" height="12" width="12" patternUnits="userSpaceOnUse" id="cp9pattern"> <rect class="cp9color" height="12" width="12" y="0" x="0"></rect> <path fill="black" d="M0,0L3,0L3,3L0,3L0,0M6,0L9,0L9,3L6,3L6,0M3,3L6,3L6,6L3,6L3,3M9,3L12,3L12,6L9,6L9,3"></path> <path fill="black" d="M0,6L3,6L3,9L0,9L0,6M6,6L9,6L9,9L6,9L6,6M3,9L6,9L6,12L3,12L3,9M9,9L12,9L12,12L9,12L9,9"></path> </pattern> </defs> <rect height="100%" width="100%" y="0" x="0" class="grass" id="mainfill"></rect> <g id="paths"><path class="cp1" d="M360,564L360,564L372,564L372,588L360,588Z"></path><path class="cp2" d="M48,288L48,288L132,288L132,300L48,300Z"></path><path class="cp3" d="M696,372L696,372L780,372L780,384L696,384Z"></path><path class="parc" d="M0,0L0,0L12,0L12,120L0,120Z"></path><path class="road" d="M84,12L84,12L528,12L528,24L564,24L564,36L600,36L600,48L636,48L636,60L672,60L672,72L696,72L696,84L720,84L720,96L744,96L744,108L756,108L756,120L768,120L768,132L780,132L780,144L792,144L792,156L804,156L804,168L792,168L792,180L756,180L756,192L732,192L732,204L708,204L708,216L684,216L684,228L660,228L660,252L636,252L636,264L612,264L612,300L636,300L636,360L624,360L624,372L600,372L600,384L588,384L588,408L576,408L576,420L552,420L552,444L564,444L564,456L576,456L576,468L600,468L600,480L636,480L636,492L672,492L672,480L660,480L660,468L612,468L612,456L588,456L588,444L576,444L576,432L612,432L612,420L648,420L648,408L660,408L660,396L672,396L672,384L780,384L780,408L792,408L792,420L804,420L804,480L792,480L792,492L756,492L756,504L744,504L744,516L564,516L564,504L552,504L552,492L540,492L540,480L516,480L516,468L480,468L480,456L468,456L468,444L456,444L456,420L468,420L468,408L480,408L480,384L492,384L492,372L516,372L516,360L528,360L528,300L504,300L504,264L528,264L528,252L552,252L552,240L564,240L564,228L576,228L576,216L600,216L600,204L624,204L624,192L648,192L648,180L672,180L672,168L708,168L708,156L684,156L684,144L672,144L672,132L660,132L660,120L624,120L624,108L600,108L600,96L576,96L576,84L540,84L540,72L516,72L516,60L120,60L120,72L144,72L144,84L168,84L168,96L204,96L204,108L228,108L228,120L264,120L264,132L300,132L300,144L336,144L336,156L360,156L360,168L372,168L372,180L384,180L384,192L408,192L408,204L432,204L432,216L456,216L456,240L444,240L444,252L420,252L420,264L396,264L396,276L360,276L360,288L384,288L384,300L360,300L360,312L336,312L336,324L324,324L324,336L312,336L312,348L264,348L264,336L240,336L240,324L204,324L204,312L180,312L180,300L168,300L168,288L192,288L192,276L180,276L180,264L168,264L168,276L156,276L156,288L60,288L60,276L84,276L84,264L108,264L108,252L132,252L132,240L252,240L252,264L264,264L264,276L276,276L276,288L264,288L264,300L300,300L300,288L288,288L288,276L300,276L300,252L324,252L324,240L336,240L336,216L312,216L312,204L288,204L288,192L264,192L264,180L240,180L240,168L216,168L216,156L204,156L204,144L168,144L168,132L132,132L132,120L108,120L108,108L84,108L84,96L60,96L60,84L48,84L48,72L24,72L24,48L36,48L36,36L60,36L60,24L84,24L84,12M768,12L768,12L1044,12L1044,24L1068,24L1068,36L1080,36L1080,48L1116,48L1116,60L1140,60L1140,72L1152,72L1152,84L1164,84L1164,96L1176,96L1176,120L1056,120L1056,84L1044,84L1044,72L1020,72L1020,60L972,60L972,48L960,48L960,36L948,36L948,48L924,48L924,60L936,60L936,72L960,72L960,96L972,96L972,120L948,120L948,132L936,132L936,144L924,144L924,156L912,156L912,180L900,180L900,192L876,192L876,204L852,204L852,216L828,216L828,228L804,228L804,240L792,240L792,252L780,252L780,372L684,372L684,336L672,336L672,324L660,324L660,264L672,264L672,252L684,252L684,240L696,240L696,228L732,228L732,216L756,216L756,204L792,204L792,192L804,192L804,180L828,180L828,168L840,168L840,156L828,156L828,132L816,132L816,120L804,120L804,108L792,108L792,96L780,96L780,84L768,84L768,72L756,72L756,60L744,60L744,36L756,36L756,24L768,24L768,12M852,48L852,48L840,48L840,60L828,60L828,72L840,72L840,84L852,84L852,96L864,96L864,108L876,108L876,120L912,120L912,96L900,96L900,84L888,84L888,72L876,72L876,48L852,48M1056,132L1056,132L1068,132L1068,144L1056,144L1056,132M1068,144L1068,144L1080,144L1080,132L1092,132L1092,144L1080,144L1080,156L1092,156L1092,144L1104,144L1104,132L1116,132L1116,144L1104,144L1104,156L1116,156L1116,144L1128,144L1128,132L1140,132L1140,144L1128,144L1128,156L1140,156L1140,144L1152,144L1152,132L1164,132L1164,144L1152,144L1152,156L1164,156L1164,144L1176,144L1176,288L1188,288L1188,324L1176,324L1176,336L1164,336L1164,348L1140,348L1140,360L1116,360L1116,372L1092,372L1092,384L1080,384L1080,396L1068,396L1068,408L1032,408L1032,420L996,420L996,408L972,408L972,396L936,396L936,384L948,384L948,372L936,372L936,336L924,336L924,324L936,324L936,312L960,312L960,300L972,300L972,288L960,288L960,276L948,276L948,264L936,264L936,252L924,252L924,240L912,240L912,252L900,252L900,276L888,276L888,288L900,288L900,312L912,312L912,396L924,396L924,408L948,408L948,420L972,420L972,432L996,432L996,444L1020,444L1020,456L1056,456L1056,468L1092,468L1092,480L1116,480L1116,492L1128,492L1128,528L1116,528L1116,540L1092,540L1092,552L1068,552L1068,564L1020,564L1020,576L984,576L984,588L696,588L696,576L684,576L684,564L672,564L672,552L660,552L660,564L648,564L648,576L636,576L636,588L372,588L372,552L384,552L384,540L396,540L396,528L984,528L984,516L1008,516L1008,504L1020,504L1020,492L996,492L996,480L960,480L960,468L924,468L924,456L900,456L900,444L876,444L876,432L852,432L852,420L840,420L840,408L828,408L828,396L816,396L816,348L804,348L804,288L816,288L816,264L804,264L804,252L816,252L816,240L840,240L840,228L864,228L864,216L888,216L888,204L960,204L960,216L984,216L984,228L996,228L996,240L1008,240L1008,252L1020,252L1020,264L1032,264L1032,276L1044,276L1044,312L1032,312L1032,324L1008,324L1008,336L996,336L996,372L1020,372L1020,336L1044,336L1044,348L1068,348L1068,336L1080,336L1080,324L1092,324L1092,312L1080,312L1080,300L1068,300L1068,288L1056,288L1056,156L1068,156L1068,144M1092,192L1092,192L1080,192L1080,204L1104,204L1104,192L1092,192M1140,192L1140,192L1128,192L1128,204L1152,204L1152,192L1140,192M1116,252L1116,252L1104,252L1104,264L1128,264L1128,252L1116,252M60,300L60,300L132,300L132,312L156,312L156,324L180,324L180,336L216,336L216,348L240,348L240,360L276,360L276,372L300,372L300,384L312,384L312,408L288,408L288,420L252,420L252,432L228,432L228,444L216,444L216,456L204,456L204,468L180,468L180,480L156,480L156,492L132,492L132,504L120,504L120,516L132,516L132,528L336,528L336,540L348,540L348,552L360,552L360,588L84,588L84,576L60,576L60,564L36,564L36,552L24,552L24,540L12,540L12,516L24,516L24,504L36,504L36,492L60,492L60,480L84,480L84,468L108,468L108,456L120,456L120,444L132,444L132,432L156,432L156,420L192,420L192,408L216,408L216,396L204,396L204,384L192,384L192,372L168,372L168,360L144,360L144,348L120,348L120,336L96,336L96,324L72,324L72,312L60,312L60,300M756,408L756,408L744,408L744,420L708,420L708,432L684,432L684,444L720,444L720,456L744,456L744,468L756,468L756,480L780,480L780,468L792,468L792,444L780,444L780,420L768,420L768,408Z"></path><path class="finish" d="M1056,120L1056,120L1176,120L1176,132L1056,132Z"></path><path class="start" d="M1068,132L1068,132L1080,132L1080,144L1068,144L1068,132M1080,144L1080,144L1092,144L1092,132L1104,132L1104,144L1092,144L1092,156L1080,156L1080,144M1068,144L1068,144L1068,156L1056,156L1056,144L1068,144M1104,144L1104,144L1116,144L1116,132L1128,132L1128,144L1116,144L1116,156L1104,156L1104,144M1128,144L1128,144L1140,144L1140,132L1152,132L1152,144L1140,144L1140,156L1128,156L1128,144M1152,144L1152,144L1164,144L1164,132L1176,132L1176,144L1164,144L1164,156L1152,156Z"></path></g> <rect opacity=".3" fill="url(#grid)" height="100%" width="100%" y="0" x="0"></rect></svg>