<svg height="420" width="960" id="mapSvgView" xmlns:xlink="http://www.w3.org/1999/xlink" version="1.1" xmlns="http://www.w3.org/2000/svg"> <defs> <style type="text/css"> .grass {fill: rgb(0, 200, 0);} .road {fill: rgb(128, 128, 128);} .start {fill: url(#startPattern)} .finish {fill: url(#finishPattern)} .mud {fill: rgb(100, 70, 0);} .sand {fill: rgb(230, 230, 115);} .water {fill: blue;} .earth {fill: brown;} .night {fill: black;} .parc {fill: rgb(200, 200, 200);} .cp1color {fill: rgb(0, 102, 255);} .cp2color {fill: rgb(0, 100, 200);} .cp3color {fill: rgb(0, 255, 102);} .cp4color {fill: rgb(0, 200, 0);} .cp5color {fill: rgb(255, 255, 0);} .cp6color {fill: rgb(200, 200, 0);} .cp7color {fill: rgb(255, 0, 0);} .cp8color {fill: rgb(200, 0, 0);} .cp9color {fill: rgb(255, 0, 255);} .cp1 {fill: url(#cp1pattern);} .cp2 {fill: url(#cp2pattern);} .cp3 {fill: url(#cp3pattern);} .cp4 {fill: url(#cp4pattern);} .cp5 {fill: url(#cp5pattern);} .cp6 {fill: url(#cp6pattern);} .cp7 {fill: url(#cp7pattern);} .cp8 {fill: url(#cp8pattern);} .cp9 {fill: url(#cp9pattern);} .primaryColor {fill: rgb(0, 255, 102);} </style> <pattern y="0" x="0" height="12" width="12" patternUnits="userSpaceOnUse" id="grid"> <line stroke-width="1" stroke="black" y2="12" x2="12" y1="0" x1="12"></line> <line stroke-width="1" stroke="black" y2="12" x2="12" y1="12" x1="0"></line> </pattern> <pattern y="0" x="0" height="12" width="12" patternUnits="userSpaceOnUse" id="finishPattern"> <rect fill="black" height="12" width="12" y="0" x="0"></rect> <path fill="white" d="M0,0L3,0L3,3L0,3L0,0M6,0L9,0L9,3L6,3L6,0M3,3L6,3L6,6L3,6L3,3M9,3L12,3L12,6L9,6L9,3"></path> <path fill="white" d="M0,6L3,6L3,9L0,9L0,6M6,6L9,6L9,9L6,9L6,6M3,9L6,9L6,12L3,12L3,9M9,9L12,9L12,12L9,12L9,9"></path> </pattern> <pattern y="0" x="0" height="12" width="12" patternUnits="userSpaceOnUse" id="startPattern"> <rect fill="rgb(100,100,100)" height="12" width="12" y="0" x="0"></rect> <rect stroke-width="1" stroke="rgb(200,200,200)" fill="none" height="5" width="5" y="3.5" x="3.5"></rect> &gt; </pattern> <pattern y="0" x="0" height="12" width="12" patternUnits="userSpaceOnUse" id="cp1pattern"> <rect class="cp1color" height="12" width="12" y="0" x="0"></rect> <path fill="black" d="M0,0L3,0L3,3L0,3L0,0M6,0L9,0L9,3L6,3L6,0M3,3L6,3L6,6L3,6L3,3M9,3L12,3L12,6L9,6L9,3"></path> <path fill="black" d="M0,6L3,6L3,9L0,9L0,6M6,6L9,6L9,9L6,9L6,6M3,9L6,9L6,12L3,12L3,9M9,9L12,9L12,12L9,12L9,9"></path> </pattern> <pattern y="0" x="0" height="12" width="12" patternUnits="userSpaceOnUse" id="cp2pattern"> <rect class="cp2color" height="12" width="12" y="0" x="0"></rect> <path fill="white" d="M0,0L3,0L3,3L0,3L0,0M6,0L9,0L9,3L6,3L6,0M3,3L6,3L6,6L3,6L3,3M9,3L12,3L12,6L9,6L9,3"></path> <path fill="white" d="M0,6L3,6L3,9L0,9L0,6M6,6L9,6L9,9L6,9L6,6M3,9L6,9L6,12L3,12L3,9M9,9L12,9L12,12L9,12L9,9"></path> </pattern> <pattern y="0" x="0" height="12" width="12" patternUnits="userSpaceOnUse" id="cp3pattern"> <rect class="cp3color" height="12" width="12" y="0" x="0"></rect> <path fill="black" d="M0,0L3,0L3,3L0,3L0,0M6,0L9,0L9,3L6,3L6,0M3,3L6,3L6,6L3,6L3,3M9,3L12,3L12,6L9,6L9,3"></path> <path fill="black" d="M0,6L3,6L3,9L0,9L0,6M6,6L9,6L9,9L6,9L6,6M3,9L6,9L6,12L3,12L3,9M9,9L12,9L12,12L9,12L9,9"></path> </pattern> <pattern y="0" x="0" height="12" width="12" patternUnits="userSpaceOnUse" id="cp4pattern"> <rect class="cp4color" height="12" width="12" y="0" x="0"></rect> <path fill="white" d="M0,0L3,0L3,3L0,3L0,0M6,0L9,0L9,3L6,3L6,0M3,3L6,3L6,6L3,6L3,3M9,3L12,3L12,6L9,6L9,3"></path> <path fill="white" d="M0,6L3,6L3,9L0,9L0,6M6,6L9,6L9,9L6,9L6,6M3,9L6,9L6,12L3,12L3,9M9,9L12,9L12,12L9,12L9,9"></path> </pattern> <pattern y="0" x="0" height="12" width="12" patternUnits="userSpaceOnUse" id="cp5pattern"> <rect class="cp5color" height="12" width="12" y="0" x="0"></rect> <path fill="black" d="M0,0L3,0L3,3L0,3L0,0M6,0L9,0L9,3L6,3L6,0M3,3L6,3L6,6L3,6L3,3M9,3L12,3L12,6L9,6L9,3"></path> <path fill="black" d="M0,6L3,6L3,9L0,9L0,6M6,6L9,6L9,9L6,9L6,6M3,9L6,9L6,12L3,12L3,9M9,9L12,9L12,12L9,12L9,9"></path> </pattern> <pattern y="0" x="0" height="12" width="12" patternUnits="userSpaceOnUse" id="cp6pattern"> <rect class="cp6color" height="12" width="12" y="0" x="0"></rect> <path fill="white" d="M0,0L3,0L3,3L0,3L0,0M6,0L9,0L9,3L6,3L6,0M3,3L6,3L6,6L3,6L3,3M9,3L12,3L12,6L9,6L9,3"></path> <path fill="white" d="M0,6L3,6L3,9L0,9L0,6M6,6L9,6L9,9L6,9L6,6M3,9L6,9L6,12L3,12L3,9M9,9L12,9L12,12L9,12L9,9"></path> </pattern> <pattern y="0" x="0" height="12" width="12" patternUnits="userSpaceOnUse" id="cp7pattern"> <rect class="cp7color" height="12" width="12" y="0" x="0"></rect> <path fill="black" d="M0,0L3,0L3,3L0,3L0,0M6,0L9,0L9,3L6,3L6,0M3,3L6,3L6,6L3,6L3,3M9,3L12,3L12,6L9,6L9,3"></path> <path fill="black" d="M0,6L3,6L3,9L0,9L0,6M6,6L9,6L9,9L6,9L6,6M3,9L6,9L6,12L3,12L3,9M9,9L12,9L12,12L9,12L9,9"></path> </pattern> <pattern y="0" x="0" height="12" width="12" patternUnits="userSpaceOnUse" id="cp8pattern"> <rect class="cp8color" height="12" width="12" y="0" x="0"></rect> <path fill="white" d="M0,0L3,0L3,3L0,3L0,0M6,0L9,0L9,3L6,3L6,0M3,3L6,3L6,6L3,6L3,3M9,3L12,3L12,6L9,6L9,3"></path> <path fill="white" d="M0,6L3,6L3,9L0,9L0,6M6,6L9,6L9,9L6,9L6,6M3,9L6,9L6,12L3,12L3,9M9,9L12,9L12,12L9,12L9,9"></path> </pattern> <pattern y="0" x="0" height="12" width="12" patternUnits="userSpaceOnUse" id="cp9pattern"> <rect class="cp9color" height="12" width="12" y="0" x="0"></rect> <path fill="black" d="M0,0L3,0L3,3L0,3L0,0M6,0L9,0L9,3L6,3L6,0M3,3L6,3L6,6L3,6L3,3M9,3L12,3L12,6L9,6L9,3"></path> <path fill="black" d="M0,6L3,6L3,9L0,9L0,6M6,6L9,6L9,9L6,9L6,6M3,9L6,9L6,12L3,12L3,9M9,9L12,9L12,12L9,12L9,9"></path> </pattern> </defs> <rect height="100%" width="100%" y="0" x="0" class="grass" id="mainfill"></rect> <g id="paths"><path class="cp1" d="M552,36L552,36L564,36L564,72L552,72Z"></path><path class="cp2" d="M516,252L516,252L588,252L588,264L516,264Z"></path><path class="cp3" d="M204,228L204,228L228,228L228,252L204,252Z"></path><path class="road" d="M60,12L60,12L144,12L144,72L120,72L120,84L96,84L96,120L84,120L84,132L72,132L72,156L84,156L84,168L108,168L108,192L132,192L132,204L144,204L144,216L108,216L108,228L72,228L72,252L108,252L108,240L132,240L132,228L156,228L156,216L216,216L216,228L204,228L204,252L156,252L156,264L132,264L132,276L36,276L36,264L24,264L24,252L12,252L12,216L36,216L36,204L24,204L24,192L12,192L12,84L24,84L24,72L12,72L12,60L24,60L24,36L36,36L36,24L60,24L60,12M168,12L168,12L360,12L360,24L432,24L432,36L552,36L552,72L168,72L168,12M756,12L756,12L900,12L900,24L912,24L912,36L936,36L936,48L948,48L948,72L924,72L924,84L900,84L900,120L864,120L864,132L756,132L756,144L696,144L696,156L684,156L684,192L636,192L636,204L600,204L600,228L588,228L588,252L516,252L516,240L504,240L504,204L540,204L540,192L576,192L576,180L600,180L600,168L624,168L624,132L636,132L636,120L672,120L672,96L684,96L684,84L828,84L828,72L864,72L864,60L876,60L876,48L840,48L840,60L780,60L780,72L564,72L564,36L660,36L660,24L756,24L756,12M432,84L432,84L516,84L516,96L528,96L528,120L540,120L540,132L564,132L564,144L576,144L576,156L588,156L588,168L564,168L564,180L528,180L528,192L492,192L492,204L468,204L468,216L480,216L480,252L468,252L468,264L444,264L444,276L420,276L420,288L384,288L384,300L312,300L312,312L288,312L288,324L264,324L264,336L240,336L240,348L192,348L192,360L132,360L132,372L300,372L300,384L312,384L312,372L648,372L648,384L660,384L660,372L708,372L708,360L744,360L744,348L768,348L768,336L780,336L780,312L792,312L792,288L804,288L804,264L816,264L816,228L828,228L828,180L816,180L816,192L804,192L804,216L792,216L792,228L780,228L780,240L768,240L768,300L756,300L756,312L744,312L744,324L732,324L732,336L708,336L708,348L636,348L636,336L612,336L612,324L576,324L576,312L552,312L552,300L540,300L540,288L528,288L528,276L516,276L516,264L600,264L600,276L612,276L612,288L624,288L624,300L660,300L660,288L672,288L672,276L684,276L684,240L696,240L696,228L708,228L708,216L720,216L720,192L732,192L732,180L744,180L744,168L768,168L768,156L780,156L780,144L852,144L852,156L876,156L876,168L900,168L900,228L888,228L888,264L876,264L876,288L864,288L864,312L852,312L852,336L840,336L840,348L828,348L828,360L816,360L816,372L792,372L792,384L756,384L756,396L744,396L744,408L696,408L696,396L684,396L684,408L588,408L588,396L576,396L576,408L48,408L48,396L36,396L36,384L24,384L24,372L36,372L36,360L60,360L60,348L72,348L72,336L120,336L120,324L156,324L156,312L180,312L180,300L216,300L216,288L252,288L252,276L312,276L312,264L348,264L348,240L384,240L384,228L396,228L396,216L384,216L384,204L396,204L396,192L432,192L432,180L468,180L468,168L504,168L504,156L468,156L468,144L444,144L444,168L408,168L408,180L384,180L384,192L372,192L372,204L348,204L348,216L336,216L336,228L324,228L324,240L312,240L312,252L288,252L288,264L216,264L216,252L228,252L228,228L252,228L252,216L264,216L264,204L288,204L288,192L300,192L300,180L324,180L324,168L348,168L348,144L372,144L372,132L384,132L384,120L408,120L408,96L432,96L432,84M228,384L228,384L216,384L216,396L228,396L228,384M468,384L468,384L456,384L456,396L468,396Z"></path><path class="finish" d="M144,12L144,12L156,12L156,72L144,72Z"></path><path class="start" d="M156,12L156,12L168,12L168,72L156,72Z"></path></g> <rect opacity=".3" fill="url(#grid)" height="100%" width="100%" y="0" x="0"></rect></svg>