<svg height="744" width="732" id="mapSvgView" xmlns:xlink="http://www.w3.org/1999/xlink" version="1.1" xmlns="http://www.w3.org/2000/svg"> <defs> <style type="text/css"> .grass {fill: rgb(0, 200, 0);} .road {fill: rgb(128, 128, 128);} .start {fill: url(#startPattern)} .finish {fill: url(#finishPattern)} .mud {fill: rgb(100, 70, 0);} .sand {fill: rgb(230, 230, 115);} .water {fill: blue;} .earth {fill: brown;} .night {fill: black;} .parc {fill: rgb(200, 200, 200);} .cp1color {fill: rgb(0, 102, 255);} .cp2color {fill: rgb(0, 100, 200);} .cp3color {fill: rgb(0, 255, 102);} .cp4color {fill: rgb(0, 200, 0);} .cp5color {fill: rgb(255, 255, 0);} .cp6color {fill: rgb(200, 200, 0);} .cp7color {fill: rgb(255, 0, 0);} .cp8color {fill: rgb(200, 0, 0);} .cp9color {fill: rgb(255, 0, 255);} .cp1 {fill: url(#cp1pattern);} .cp2 {fill: url(#cp2pattern);} .cp3 {fill: url(#cp3pattern);} .cp4 {fill: url(#cp4pattern);} .cp5 {fill: url(#cp5pattern);} .cp6 {fill: url(#cp6pattern);} .cp7 {fill: url(#cp7pattern);} .cp8 {fill: url(#cp8pattern);} .cp9 {fill: url(#cp9pattern);} .primaryColor {fill: rgb(0, 255, 102);} </style> <pattern y="0" x="0" height="12" width="12" patternUnits="userSpaceOnUse" id="grid"> <line stroke-width="1" stroke="black" y2="12" x2="12" y1="0" x1="12"></line> <line stroke-width="1" stroke="black" y2="12" x2="12" y1="12" x1="0"></line> </pattern> <pattern y="0" x="0" height="12" width="12" patternUnits="userSpaceOnUse" id="finishPattern"> <rect fill="black" height="12" width="12" y="0" x="0"></rect> <path fill="white" d="M0,0L3,0L3,3L0,3L0,0M6,0L9,0L9,3L6,3L6,0M3,3L6,3L6,6L3,6L3,3M9,3L12,3L12,6L9,6L9,3"></path> <path fill="white" d="M0,6L3,6L3,9L0,9L0,6M6,6L9,6L9,9L6,9L6,6M3,9L6,9L6,12L3,12L3,9M9,9L12,9L12,12L9,12L9,9"></path> </pattern> <pattern y="0" x="0" height="12" width="12" patternUnits="userSpaceOnUse" id="startPattern"> <rect fill="rgb(100,100,100)" height="12" width="12" y="0" x="0"></rect> <rect stroke-width="1" stroke="rgb(200,200,200)" fill="none" height="5" width="5" y="3.5" x="3.5"></rect> &gt; </pattern> <pattern y="0" x="0" height="12" width="12" patternUnits="userSpaceOnUse" id="cp1pattern"> <rect class="cp1color" height="12" width="12" y="0" x="0"></rect> <path fill="black" d="M0,0L3,0L3,3L0,3L0,0M6,0L9,0L9,3L6,3L6,0M3,3L6,3L6,6L3,6L3,3M9,3L12,3L12,6L9,6L9,3"></path> <path fill="black" d="M0,6L3,6L3,9L0,9L0,6M6,6L9,6L9,9L6,9L6,6M3,9L6,9L6,12L3,12L3,9M9,9L12,9L12,12L9,12L9,9"></path> </pattern> <pattern y="0" x="0" height="12" width="12" patternUnits="userSpaceOnUse" id="cp2pattern"> <rect class="cp2color" height="12" width="12" y="0" x="0"></rect> <path fill="white" d="M0,0L3,0L3,3L0,3L0,0M6,0L9,0L9,3L6,3L6,0M3,3L6,3L6,6L3,6L3,3M9,3L12,3L12,6L9,6L9,3"></path> <path fill="white" d="M0,6L3,6L3,9L0,9L0,6M6,6L9,6L9,9L6,9L6,6M3,9L6,9L6,12L3,12L3,9M9,9L12,9L12,12L9,12L9,9"></path> </pattern> <pattern y="0" x="0" height="12" width="12" patternUnits="userSpaceOnUse" id="cp3pattern"> <rect class="cp3color" height="12" width="12" y="0" x="0"></rect> <path fill="black" d="M0,0L3,0L3,3L0,3L0,0M6,0L9,0L9,3L6,3L6,0M3,3L6,3L6,6L3,6L3,3M9,3L12,3L12,6L9,6L9,3"></path> <path fill="black" d="M0,6L3,6L3,9L0,9L0,6M6,6L9,6L9,9L6,9L6,6M3,9L6,9L6,12L3,12L3,9M9,9L12,9L12,12L9,12L9,9"></path> </pattern> <pattern y="0" x="0" height="12" width="12" patternUnits="userSpaceOnUse" id="cp4pattern"> <rect class="cp4color" height="12" width="12" y="0" x="0"></rect> <path fill="white" d="M0,0L3,0L3,3L0,3L0,0M6,0L9,0L9,3L6,3L6,0M3,3L6,3L6,6L3,6L3,3M9,3L12,3L12,6L9,6L9,3"></path> <path fill="white" d="M0,6L3,6L3,9L0,9L0,6M6,6L9,6L9,9L6,9L6,6M3,9L6,9L6,12L3,12L3,9M9,9L12,9L12,12L9,12L9,9"></path> </pattern> <pattern y="0" x="0" height="12" width="12" patternUnits="userSpaceOnUse" id="cp5pattern"> <rect class="cp5color" height="12" width="12" y="0" x="0"></rect> <path fill="black" d="M0,0L3,0L3,3L0,3L0,0M6,0L9,0L9,3L6,3L6,0M3,3L6,3L6,6L3,6L3,3M9,3L12,3L12,6L9,6L9,3"></path> <path fill="black" d="M0,6L3,6L3,9L0,9L0,6M6,6L9,6L9,9L6,9L6,6M3,9L6,9L6,12L3,12L3,9M9,9L12,9L12,12L9,12L9,9"></path> </pattern> <pattern y="0" x="0" height="12" width="12" patternUnits="userSpaceOnUse" id="cp6pattern"> <rect class="cp6color" height="12" width="12" y="0" x="0"></rect> <path fill="white" d="M0,0L3,0L3,3L0,3L0,0M6,0L9,0L9,3L6,3L6,0M3,3L6,3L6,6L3,6L3,3M9,3L12,3L12,6L9,6L9,3"></path> <path fill="white" d="M0,6L3,6L3,9L0,9L0,6M6,6L9,6L9,9L6,9L6,6M3,9L6,9L6,12L3,12L3,9M9,9L12,9L12,12L9,12L9,9"></path> </pattern> <pattern y="0" x="0" height="12" width="12" patternUnits="userSpaceOnUse" id="cp7pattern"> <rect class="cp7color" height="12" width="12" y="0" x="0"></rect> <path fill="black" d="M0,0L3,0L3,3L0,3L0,0M6,0L9,0L9,3L6,3L6,0M3,3L6,3L6,6L3,6L3,3M9,3L12,3L12,6L9,6L9,3"></path> <path fill="black" d="M0,6L3,6L3,9L0,9L0,6M6,6L9,6L9,9L6,9L6,6M3,9L6,9L6,12L3,12L3,9M9,9L12,9L12,12L9,12L9,9"></path> </pattern> <pattern y="0" x="0" height="12" width="12" patternUnits="userSpaceOnUse" id="cp8pattern"> <rect class="cp8color" height="12" width="12" y="0" x="0"></rect> <path fill="white" d="M0,0L3,0L3,3L0,3L0,0M6,0L9,0L9,3L6,3L6,0M3,3L6,3L6,6L3,6L3,3M9,3L12,3L12,6L9,6L9,3"></path> <path fill="white" d="M0,6L3,6L3,9L0,9L0,6M6,6L9,6L9,9L6,9L6,6M3,9L6,9L6,12L3,12L3,9M9,9L12,9L12,12L9,12L9,9"></path> </pattern> <pattern y="0" x="0" height="12" width="12" patternUnits="userSpaceOnUse" id="cp9pattern"> <rect class="cp9color" height="12" width="12" y="0" x="0"></rect> <path fill="black" d="M0,0L3,0L3,3L0,3L0,0M6,0L9,0L9,3L6,3L6,0M3,3L6,3L6,6L3,6L3,3M9,3L12,3L12,6L9,6L9,3"></path> <path fill="black" d="M0,6L3,6L3,9L0,9L0,6M6,6L9,6L9,9L6,9L6,6M3,9L6,9L6,12L3,12L3,9M9,9L12,9L12,12L9,12L9,9"></path> </pattern> </defs> <rect height="100%" width="100%" y="0" x="0" class="grass" id="mainfill"></rect> <g id="paths"><path class="cp1" d="M420,420L420,420L444,420L444,432L468,432L468,444L480,444L480,456L492,456L492,492L480,492L480,468L468,468L468,456L444,456L444,444L420,444Z"></path><path class="cp2" d="M168,420L168,420L204,420L204,444L156,444L156,456L144,456L144,468L120,468L120,480L108,480L108,456L120,456L120,444L144,444L144,432L168,432Z"></path><path class="parc" d="M0,0L0,0L12,0L12,84L0,84Z"></path><path class="road" d="M444,24L444,24L564,24L564,36L576,36L576,48L588,48L588,60L612,60L612,72L624,72L624,84L636,84L636,96L660,96L660,108L672,108L672,132L696,132L696,156L708,156L708,180L720,180L720,252L708,252L708,288L696,288L696,300L684,300L684,312L672,312L672,324L660,324L660,336L636,336L636,348L612,348L612,360L588,360L588,372L552,372L552,384L492,384L492,396L480,396L480,444L468,444L468,432L444,432L444,420L420,420L420,348L432,348L432,336L444,336L444,324L492,324L492,312L540,312L540,300L576,300L576,288L600,288L600,276L624,276L624,264L636,264L636,252L648,252L648,204L636,204L636,168L612,168L612,156L600,156L600,144L588,144L588,132L564,132L564,120L552,120L552,108L528,108L528,96L456,96L456,108L432,108L432,120L408,120L408,132L384,132L384,144L360,144L360,156L324,156L324,168L264,168L264,156L240,156L240,144L144,144L144,60L228,60L228,72L252,72L252,84L276,84L276,96L312,96L312,84L348,84L348,72L360,72L360,60L396,60L396,48L420,48L420,36L444,36L444,24M96,72L96,72L120,72L120,156L96,156L96,204L84,204L84,228L96,228L96,252L108,252L108,264L132,264L132,276L144,276L144,288L156,288L156,300L168,300L168,312L180,312L180,324L192,324L192,348L204,348L204,420L168,420L168,432L144,432L144,444L120,444L120,432L132,432L132,372L120,372L120,348L108,348L108,336L96,336L96,324L72,324L72,312L48,312L48,288L36,288L36,276L24,276L24,240L12,240L12,180L24,180L24,132L36,132L36,120L48,120L48,108L60,108L60,96L84,96L84,84L96,84L96,72M168,216L168,216L264,216L264,252L240,252L240,240L192,240L192,252L156,252L156,240L168,240L168,216M384,216L384,216L492,216L492,252L468,252L468,240L396,240L396,252L384,252L384,240L372,240L372,228L384,228L384,216M228,408L228,408L276,408L276,456L252,456L252,444L216,444L216,420L228,420L228,408M300,408L300,408L348,408L348,456L324,456L324,432L312,432L312,456L288,456L288,420L300,420L300,408M480,444L480,444L492,444L492,456L480,456L480,444M156,444L156,444L204,444L204,456L192,456L192,480L180,480L180,492L192,492L192,504L204,504L204,516L180,516L180,504L168,504L168,564L180,564L180,588L192,588L192,600L204,600L204,516L372,516L372,504L384,504L384,492L408,492L408,480L420,480L420,444L444,444L444,456L468,456L468,468L480,468L480,492L504,492L504,600L492,600L492,624L480,624L480,648L456,648L456,672L432,672L432,684L408,684L408,696L384,696L384,708L324,708L324,720L276,720L276,708L228,708L228,696L204,696L204,684L180,684L180,672L168,672L168,660L156,660L156,648L144,648L144,636L132,636L132,624L120,624L120,612L108,612L108,576L96,576L96,480L120,480L120,468L144,468L144,456L156,456L156,444M432,492L432,492L420,492L420,504L396,504L396,612L408,612L408,588L432,588L432,492M384,516L384,516L372,516L372,528L336,528L336,624L348,624L348,636L372,636L372,624L384,624L384,516M228,528L228,528L216,528L216,624L240,624L240,636L264,636L264,528L228,528M288,528L288,528L276,528L276,648L324,648L324,528L288,528M648,648L648,648L684,648L684,660L672,660L672,672L660,672L660,660L648,660L648,648M696,648L696,648L732,648L732,660L720,660L720,672L708,672L708,660L696,660L696,648M672,672L672,672L684,672L684,684L672,684L672,672M708,672L708,672L708,684L696,684L696,672L708,672M684,684L684,684L696,684L696,708L708,708L708,720L672,720L672,708L684,708Z"></path><path class="start" d="M132,60L132,60L144,60L144,144L132,144Z"></path><path class="finish" d="M120,72L120,72L132,72L132,144L120,144Z"></path></g> <rect opacity=".3" fill="url(#grid)" height="100%" width="100%" y="0" x="0"></rect></svg>