<svg height="540" width="984" id="mapSvgView" xmlns:xlink="http://www.w3.org/1999/xlink" version="1.1" xmlns="http://www.w3.org/2000/svg"> <defs> <style type="text/css"> .grass {fill: rgb(0, 200, 0);} .road {fill: rgb(128, 128, 128);} .start {fill: url(#startPattern)} .finish {fill: url(#finishPattern)} .mud {fill: rgb(100, 70, 0);} .sand {fill: rgb(230, 230, 115);} .water {fill: blue;} .earth {fill: brown;} .night {fill: black;} .parc {fill: rgb(200, 200, 200);} .cp1color {fill: rgb(0, 102, 255);} .cp2color {fill: rgb(0, 100, 200);} .cp3color {fill: rgb(0, 255, 102);} .cp4color {fill: rgb(0, 200, 0);} .cp5color {fill: rgb(255, 255, 0);} .cp6color {fill: rgb(200, 200, 0);} .cp7color {fill: rgb(255, 0, 0);} .cp8color {fill: rgb(200, 0, 0);} .cp9color {fill: rgb(255, 0, 255);} .cp1 {fill: url(#cp1pattern);} .cp2 {fill: url(#cp2pattern);} .cp3 {fill: url(#cp3pattern);} .cp4 {fill: url(#cp4pattern);} .cp5 {fill: url(#cp5pattern);} .cp6 {fill: url(#cp6pattern);} .cp7 {fill: url(#cp7pattern);} .cp8 {fill: url(#cp8pattern);} .cp9 {fill: url(#cp9pattern);} .primaryColor {fill: rgb(0, 255, 102);} </style> <pattern y="0" x="0" height="12" width="12" patternUnits="userSpaceOnUse" id="grid"> <line stroke-width="1" stroke="black" y2="12" x2="12" y1="0" x1="12"></line> <line stroke-width="1" stroke="black" y2="12" x2="12" y1="12" x1="0"></line> </pattern> <pattern y="0" x="0" height="12" width="12" patternUnits="userSpaceOnUse" id="finishPattern"> <rect fill="black" height="12" width="12" y="0" x="0"></rect> <path fill="white" d="M0,0L3,0L3,3L0,3L0,0M6,0L9,0L9,3L6,3L6,0M3,3L6,3L6,6L3,6L3,3M9,3L12,3L12,6L9,6L9,3"></path> <path fill="white" d="M0,6L3,6L3,9L0,9L0,6M6,6L9,6L9,9L6,9L6,6M3,9L6,9L6,12L3,12L3,9M9,9L12,9L12,12L9,12L9,9"></path> </pattern> <pattern y="0" x="0" height="12" width="12" patternUnits="userSpaceOnUse" id="startPattern"> <rect fill="rgb(100,100,100)" height="12" width="12" y="0" x="0"></rect> <rect stroke-width="1" stroke="rgb(200,200,200)" fill="none" height="5" width="5" y="3.5" x="3.5"></rect> &gt; </pattern> <pattern y="0" x="0" height="12" width="12" patternUnits="userSpaceOnUse" id="cp1pattern"> <rect class="cp1color" height="12" width="12" y="0" x="0"></rect> <path fill="black" d="M0,0L3,0L3,3L0,3L0,0M6,0L9,0L9,3L6,3L6,0M3,3L6,3L6,6L3,6L3,3M9,3L12,3L12,6L9,6L9,3"></path> <path fill="black" d="M0,6L3,6L3,9L0,9L0,6M6,6L9,6L9,9L6,9L6,6M3,9L6,9L6,12L3,12L3,9M9,9L12,9L12,12L9,12L9,9"></path> </pattern> <pattern y="0" x="0" height="12" width="12" patternUnits="userSpaceOnUse" id="cp2pattern"> <rect class="cp2color" height="12" width="12" y="0" x="0"></rect> <path fill="white" d="M0,0L3,0L3,3L0,3L0,0M6,0L9,0L9,3L6,3L6,0M3,3L6,3L6,6L3,6L3,3M9,3L12,3L12,6L9,6L9,3"></path> <path fill="white" d="M0,6L3,6L3,9L0,9L0,6M6,6L9,6L9,9L6,9L6,6M3,9L6,9L6,12L3,12L3,9M9,9L12,9L12,12L9,12L9,9"></path> </pattern> <pattern y="0" x="0" height="12" width="12" patternUnits="userSpaceOnUse" id="cp3pattern"> <rect class="cp3color" height="12" width="12" y="0" x="0"></rect> <path fill="black" d="M0,0L3,0L3,3L0,3L0,0M6,0L9,0L9,3L6,3L6,0M3,3L6,3L6,6L3,6L3,3M9,3L12,3L12,6L9,6L9,3"></path> <path fill="black" d="M0,6L3,6L3,9L0,9L0,6M6,6L9,6L9,9L6,9L6,6M3,9L6,9L6,12L3,12L3,9M9,9L12,9L12,12L9,12L9,9"></path> </pattern> <pattern y="0" x="0" height="12" width="12" patternUnits="userSpaceOnUse" id="cp4pattern"> <rect class="cp4color" height="12" width="12" y="0" x="0"></rect> <path fill="white" d="M0,0L3,0L3,3L0,3L0,0M6,0L9,0L9,3L6,3L6,0M3,3L6,3L6,6L3,6L3,3M9,3L12,3L12,6L9,6L9,3"></path> <path fill="white" d="M0,6L3,6L3,9L0,9L0,6M6,6L9,6L9,9L6,9L6,6M3,9L6,9L6,12L3,12L3,9M9,9L12,9L12,12L9,12L9,9"></path> </pattern> <pattern y="0" x="0" height="12" width="12" patternUnits="userSpaceOnUse" id="cp5pattern"> <rect class="cp5color" height="12" width="12" y="0" x="0"></rect> <path fill="black" d="M0,0L3,0L3,3L0,3L0,0M6,0L9,0L9,3L6,3L6,0M3,3L6,3L6,6L3,6L3,3M9,3L12,3L12,6L9,6L9,3"></path> <path fill="black" d="M0,6L3,6L3,9L0,9L0,6M6,6L9,6L9,9L6,9L6,6M3,9L6,9L6,12L3,12L3,9M9,9L12,9L12,12L9,12L9,9"></path> </pattern> <pattern y="0" x="0" height="12" width="12" patternUnits="userSpaceOnUse" id="cp6pattern"> <rect class="cp6color" height="12" width="12" y="0" x="0"></rect> <path fill="white" d="M0,0L3,0L3,3L0,3L0,0M6,0L9,0L9,3L6,3L6,0M3,3L6,3L6,6L3,6L3,3M9,3L12,3L12,6L9,6L9,3"></path> <path fill="white" d="M0,6L3,6L3,9L0,9L0,6M6,6L9,6L9,9L6,9L6,6M3,9L6,9L6,12L3,12L3,9M9,9L12,9L12,12L9,12L9,9"></path> </pattern> <pattern y="0" x="0" height="12" width="12" patternUnits="userSpaceOnUse" id="cp7pattern"> <rect class="cp7color" height="12" width="12" y="0" x="0"></rect> <path fill="black" d="M0,0L3,0L3,3L0,3L0,0M6,0L9,0L9,3L6,3L6,0M3,3L6,3L6,6L3,6L3,3M9,3L12,3L12,6L9,6L9,3"></path> <path fill="black" d="M0,6L3,6L3,9L0,9L0,6M6,6L9,6L9,9L6,9L6,6M3,9L6,9L6,12L3,12L3,9M9,9L12,9L12,12L9,12L9,9"></path> </pattern> <pattern y="0" x="0" height="12" width="12" patternUnits="userSpaceOnUse" id="cp8pattern"> <rect class="cp8color" height="12" width="12" y="0" x="0"></rect> <path fill="white" d="M0,0L3,0L3,3L0,3L0,0M6,0L9,0L9,3L6,3L6,0M3,3L6,3L6,6L3,6L3,3M9,3L12,3L12,6L9,6L9,3"></path> <path fill="white" d="M0,6L3,6L3,9L0,9L0,6M6,6L9,6L9,9L6,9L6,6M3,9L6,9L6,12L3,12L3,9M9,9L12,9L12,12L9,12L9,9"></path> </pattern> <pattern y="0" x="0" height="12" width="12" patternUnits="userSpaceOnUse" id="cp9pattern"> <rect class="cp9color" height="12" width="12" y="0" x="0"></rect> <path fill="black" d="M0,0L3,0L3,3L0,3L0,0M6,0L9,0L9,3L6,3L6,0M3,3L6,3L6,6L3,6L3,3M9,3L12,3L12,6L9,6L9,3"></path> <path fill="black" d="M0,6L3,6L3,9L0,9L0,6M6,6L9,6L9,9L6,9L6,6M3,9L6,9L6,12L3,12L3,9M9,9L12,9L12,12L9,12L9,9"></path> </pattern> </defs> <rect height="100%" width="100%" y="0" x="0" class="road" id="mainfill"></rect> <g id="paths"><path class="parc" d="M0,0L0,0L12,0L12,144L0,144Z"></path><path class="grass" d="M12,0L12,0L984,0L984,540L0,540L0,144L12,144L12,0M504,12L504,12L492,12L492,24L444,24L444,36L408,36L408,48L384,48L384,60L360,60L360,72L336,72L336,84L312,84L312,96L288,96L288,108L240,108L240,96L216,96L216,84L192,84L192,72L168,72L168,60L144,60L144,48L120,48L120,36L96,36L96,24L24,24L24,156L120,156L120,144L132,144L132,132L180,132L180,144L204,144L204,156L252,156L252,168L300,168L300,156L348,156L348,144L372,144L372,132L396,132L396,120L432,120L432,108L468,108L468,96L504,96L504,84L564,84L564,96L864,96L864,84L900,84L900,96L924,96L924,156L912,156L912,228L900,228L900,288L888,288L888,252L876,252L876,180L864,180L864,144L852,144L852,132L816,132L816,120L492,120L492,132L468,132L468,144L420,144L420,156L384,156L384,168L360,168L360,180L336,180L336,192L312,192L312,204L300,204L300,216L288,216L288,240L276,240L276,264L264,264L264,300L252,300L252,324L240,324L240,336L228,336L228,348L216,348L216,360L204,360L204,372L180,372L180,384L144,384L144,336L156,336L156,288L168,288L168,264L180,264L180,204L168,204L168,192L144,192L144,180L60,180L60,192L36,192L36,204L24,204L24,228L12,228L12,456L24,456L24,480L36,480L36,492L48,492L48,504L72,504L72,516L324,516L324,504L348,504L348,492L372,492L372,480L384,480L384,468L396,468L396,456L408,456L408,444L420,444L420,420L432,420L432,396L444,396L444,372L456,372L456,360L468,360L468,348L480,348L480,336L492,336L492,324L504,324L504,312L516,312L516,300L540,300L540,288L576,288L576,276L600,276L600,264L624,264L624,252L648,252L648,240L672,240L672,228L696,228L696,216L732,216L732,228L744,228L744,240L756,240L756,264L744,264L744,276L720,276L720,288L684,288L684,300L648,300L648,312L612,312L612,324L576,324L576,336L540,336L540,348L516,348L516,360L504,360L504,384L492,384L492,456L504,456L504,480L516,480L516,492L528,492L528,504L552,504L552,516L924,516L924,504L948,504L948,360L864,360L864,372L828,372L828,384L768,384L768,396L684,396L684,408L588,408L588,420L564,420L564,396L600,396L600,384L636,384L636,372L672,372L672,360L708,360L708,348L744,348L744,336L768,336L768,324L792,324L792,312L804,312L804,300L816,300L816,216L804,216L804,204L792,204L792,192L768,192L768,180L672,180L672,192L624,192L624,204L576,204L576,216L528,216L528,228L492,228L492,240L456,240L456,252L432,252L432,264L408,264L408,276L396,276L396,288L384,288L384,300L372,300L372,324L360,324L360,336L348,336L348,360L336,360L336,384L324,384L324,408L312,408L312,432L300,432L300,444L288,444L288,456L264,456L264,468L108,468L108,456L96,456L96,444L84,444L84,240L120,240L120,264L108,264L108,324L96,324L96,384L108,384L108,408L120,408L120,420L132,420L132,432L216,432L216,420L240,420L240,408L264,408L264,396L276,396L276,384L288,384L288,360L300,360L300,336L312,336L312,312L324,312L324,288L336,288L336,252L348,252L348,240L360,240L360,228L372,228L372,216L396,216L396,204L420,204L420,192L492,192L492,180L576,180L576,168L732,168L732,156L804,156L804,168L816,168L816,180L828,180L828,288L840,288L840,312L852,312L852,324L864,324L864,336L924,336L924,324L936,324L936,312L948,312L948,288L960,288L960,228L972,228L972,60L960,60L960,36L948,36L948,24L912,24L912,12L504,12M144,24L144,24L132,24L132,36L156,36L156,24L144,24M192,24L192,24L180,24L180,36L204,36L204,24L192,24M240,24L240,24L228,24L228,36L252,36L252,24L240,24M288,24L288,24L276,24L276,36L300,36L300,24L288,24M336,24L336,24L324,24L324,36L348,36L348,24L336,24M384,24L384,24L372,24L372,36L396,36L396,24L384,24M192,48L192,48L180,48L180,60L204,60L204,48L192,48M240,48L240,48L228,48L228,60L252,60L252,48L240,48M288,48L288,48L276,48L276,60L300,60L300,48L288,48M336,48L336,48L324,48L324,60L348,60L348,48L336,48M732,36L732,36L744,36L744,48L732,48L732,36M624,48L624,48L636,48L636,60L624,60L624,48M240,72L240,72L228,72L228,84L252,84L252,72L240,72M288,72L288,72L276,72L276,84L300,84L300,72L288,72M732,60L732,60L744,60L744,72L732,72L732,60M108,72L108,72L132,72L132,84L108,84L108,72M624,72L624,72L636,72L636,84L624,84L624,72M888,96L888,96L876,96L876,108L888,108L888,96M108,96L108,96L120,96L120,108L108,108L108,96M120,108L120,108L132,108L132,120L120,120L120,108M120,120L120,120L120,132L108,132L108,120L120,120M888,120L888,120L876,120L876,132L888,132L888,120M156,144L156,144L144,144L144,156L132,156L132,168L144,168L144,156L156,156L156,144M168,156L168,156L156,156L156,168L168,168L168,156M204,168L204,168L192,168L192,180L180,180L180,192L192,192L192,180L204,180L204,168M216,180L216,180L204,180L204,192L216,192L216,180M900,180L900,180L888,180L888,192L900,192L900,180M264,192L264,192L252,192L252,204L240,204L240,216L252,216L252,204L264,204L264,192M216,204L216,204L204,204L204,216L192,216L192,228L204,228L204,216L216,216L216,204M276,204L276,204L264,204L264,216L276,216L276,204M900,204L900,204L888,204L888,216L900,216L900,204M228,216L228,216L216,216L216,228L228,228L228,216M240,240L240,240L228,240L228,252L216,252L216,264L228,264L228,252L240,252L240,240M252,252L252,252L240,252L240,264L252,264L252,252M204,264L204,264L192,264L192,276L180,276L180,288L192,288L192,276L204,276L204,264M216,276L216,276L204,276L204,288L216,288L216,276M540,264L540,264L552,264L552,276L540,276L540,264M24,276L24,276L36,276L36,312L24,312L24,276M216,300L216,300L204,300L204,312L192,312L192,324L204,324L204,312L216,312L216,300M228,312L228,312L216,312L216,324L228,324L228,312M672,312L672,312L696,312L696,324L672,324L672,312M696,324L696,324L720,324L720,336L696,336L696,324M60,324L60,324L72,324L72,360L60,360L60,324M180,336L180,336L168,336L168,348L156,348L156,360L168,360L168,348L180,348L180,336M456,324L456,324L468,324L468,336L456,336L456,324M840,336L840,336L828,336L828,348L852,348L852,336L840,336M192,348L192,348L180,348L180,360L192,360L192,348M792,348L792,348L780,348L780,360L816,360L816,348L792,348M576,348L576,348L600,348L600,360L576,360L576,348M600,360L600,360L624,360L624,372L600,372L600,360M744,360L744,360L732,360L732,372L768,372L768,360L744,360M696,372L696,372L684,372L684,384L720,384L720,372L696,372M36,372L36,372L48,372L48,408L36,408L36,372M660,384L660,384L648,384L648,396L672,396L672,384L660,384M876,396L876,396L900,396L900,408L888,408L888,420L876,420L876,396M372,408L372,408L384,408L384,420L372,420L372,408M720,420L720,420L744,420L744,432L720,432L720,420M720,432L720,432L720,444L696,444L696,432L720,432M804,420L804,420L816,420L816,456L804,456L804,420M612,432L612,432L636,432L636,444L624,444L624,456L612,456L612,432M432,456L432,456L420,456L420,516L444,516L444,504L432,504L432,492L444,492L444,504L456,504L456,468L444,468L444,456L432,456M468,456L468,456L456,456L456,468L468,468L468,456M444,468L444,468L444,480L432,480L432,468L444,468M480,468L480,468L468,468L468,504L456,504L456,516L468,516L468,504L480,504L480,468M864,456L864,456L900,456L900,468L864,468L864,456M636,468L636,468L660,468L660,480L648,480L648,492L636,492L636,468M732,468L732,468L756,468L756,480L732,480L732,468M756,480L756,480L780,480L780,492L756,492L756,480M264,480L264,480L276,480L276,492L264,492L264,480M576,480L576,480L600,480L600,492L576,492L576,480M840,480L840,480L864,480L864,492L852,492L852,504L840,504L840,480M120,492L120,492L144,492L144,504L120,504Z"></path><path class="finish" d="M60,48L60,48L72,48L72,60L60,60L60,48M96,48L96,48L108,48L108,60L96,60L96,48M132,48L132,48L144,48L144,60L132,60L132,48M36,60L36,60L48,60L48,72L36,72L36,60M24,84L24,84L36,84L36,96L24,96L24,84M36,108L36,108L48,108L48,120L36,120L36,108M24,132L24,132L36,132L36,144L24,144L24,132M96,144L96,144L108,144L108,156L96,156Z"></path><path class="start" d="M936,360L936,360L948,360L948,372L936,372L936,360M936,372L936,372L936,384L924,384L924,372L936,372M936,384L936,384L948,384L948,396L936,396L936,384M936,396L936,396L936,408L924,408L924,396L936,396M936,408L936,408L948,408L948,420L936,420L936,408M936,420L936,420L936,432L924,432L924,420L936,420M936,432L936,432L948,432L948,444L936,444L936,432M936,444L936,444L936,456L924,456L924,444L936,444M936,456L936,456L948,456L948,468L936,468L936,456M936,468L936,468L936,480L924,480L924,468L936,468M936,480L936,480L948,480L948,492L936,492L936,480M936,492L936,492L936,504L924,504L924,492Z"></path></g> <rect opacity=".3" fill="url(#grid)" height="100%" width="100%" y="0" x="0"></rect></svg>