<svg height="312" width="480" id="mapSvgView" xmlns:xlink="http://www.w3.org/1999/xlink" version="1.1" xmlns="http://www.w3.org/2000/svg"> <defs> <style type="text/css"> .grass {fill: rgb(0, 200, 0);} .road {fill: rgb(128, 128, 128);} .start {fill: url(#startPattern)} .finish {fill: url(#finishPattern)} .mud {fill: rgb(100, 70, 0);} .sand {fill: rgb(230, 230, 115);} .water {fill: blue;} .earth {fill: brown;} .night {fill: black;} .parc {fill: rgb(200, 200, 200);} .cp1color {fill: rgb(0, 102, 255);} .cp2color {fill: rgb(0, 100, 200);} .cp3color {fill: rgb(0, 255, 102);} .cp4color {fill: rgb(0, 200, 0);} .cp5color {fill: rgb(255, 255, 0);} .cp6color {fill: rgb(200, 200, 0);} .cp7color {fill: rgb(255, 0, 0);} .cp8color {fill: rgb(200, 0, 0);} .cp9color {fill: rgb(255, 0, 255);} .cp1 {fill: url(#cp1pattern);} .cp2 {fill: url(#cp2pattern);} .cp3 {fill: url(#cp3pattern);} .cp4 {fill: url(#cp4pattern);} .cp5 {fill: url(#cp5pattern);} .cp6 {fill: url(#cp6pattern);} .cp7 {fill: url(#cp7pattern);} .cp8 {fill: url(#cp8pattern);} .cp9 {fill: url(#cp9pattern);} .primaryColor {fill: rgb(0, 255, 102);} </style> <pattern y="0" x="0" height="12" width="12" patternUnits="userSpaceOnUse" id="grid"> <line stroke-width="1" stroke="black" y2="12" x2="12" y1="0" x1="12"></line> <line stroke-width="1" stroke="black" y2="12" x2="12" y1="12" x1="0"></line> </pattern> <pattern y="0" x="0" height="12" width="12" patternUnits="userSpaceOnUse" id="finishPattern"> <rect fill="black" height="12" width="12" y="0" x="0"></rect> <path fill="white" d="M0,0L3,0L3,3L0,3L0,0M6,0L9,0L9,3L6,3L6,0M3,3L6,3L6,6L3,6L3,3M9,3L12,3L12,6L9,6L9,3"></path> <path fill="white" d="M0,6L3,6L3,9L0,9L0,6M6,6L9,6L9,9L6,9L6,6M3,9L6,9L6,12L3,12L3,9M9,9L12,9L12,12L9,12L9,9"></path> </pattern> <pattern y="0" x="0" height="12" width="12" patternUnits="userSpaceOnUse" id="startPattern"> <rect fill="rgb(100,100,100)" height="12" width="12" y="0" x="0"></rect> <rect stroke-width="1" stroke="rgb(200,200,200)" fill="none" height="5" width="5" y="3.5" x="3.5"></rect> &gt; </pattern> <pattern y="0" x="0" height="12" width="12" patternUnits="userSpaceOnUse" id="cp1pattern"> <rect class="cp1color" height="12" width="12" y="0" x="0"></rect> <path fill="black" d="M0,0L3,0L3,3L0,3L0,0M6,0L9,0L9,3L6,3L6,0M3,3L6,3L6,6L3,6L3,3M9,3L12,3L12,6L9,6L9,3"></path> <path fill="black" d="M0,6L3,6L3,9L0,9L0,6M6,6L9,6L9,9L6,9L6,6M3,9L6,9L6,12L3,12L3,9M9,9L12,9L12,12L9,12L9,9"></path> </pattern> <pattern y="0" x="0" height="12" width="12" patternUnits="userSpaceOnUse" id="cp2pattern"> <rect class="cp2color" height="12" width="12" y="0" x="0"></rect> <path fill="white" d="M0,0L3,0L3,3L0,3L0,0M6,0L9,0L9,3L6,3L6,0M3,3L6,3L6,6L3,6L3,3M9,3L12,3L12,6L9,6L9,3"></path> <path fill="white" d="M0,6L3,6L3,9L0,9L0,6M6,6L9,6L9,9L6,9L6,6M3,9L6,9L6,12L3,12L3,9M9,9L12,9L12,12L9,12L9,9"></path> </pattern> <pattern y="0" x="0" height="12" width="12" patternUnits="userSpaceOnUse" id="cp3pattern"> <rect class="cp3color" height="12" width="12" y="0" x="0"></rect> <path fill="black" d="M0,0L3,0L3,3L0,3L0,0M6,0L9,0L9,3L6,3L6,0M3,3L6,3L6,6L3,6L3,3M9,3L12,3L12,6L9,6L9,3"></path> <path fill="black" d="M0,6L3,6L3,9L0,9L0,6M6,6L9,6L9,9L6,9L6,6M3,9L6,9L6,12L3,12L3,9M9,9L12,9L12,12L9,12L9,9"></path> </pattern> <pattern y="0" x="0" height="12" width="12" patternUnits="userSpaceOnUse" id="cp4pattern"> <rect class="cp4color" height="12" width="12" y="0" x="0"></rect> <path fill="white" d="M0,0L3,0L3,3L0,3L0,0M6,0L9,0L9,3L6,3L6,0M3,3L6,3L6,6L3,6L3,3M9,3L12,3L12,6L9,6L9,3"></path> <path fill="white" d="M0,6L3,6L3,9L0,9L0,6M6,6L9,6L9,9L6,9L6,6M3,9L6,9L6,12L3,12L3,9M9,9L12,9L12,12L9,12L9,9"></path> </pattern> <pattern y="0" x="0" height="12" width="12" patternUnits="userSpaceOnUse" id="cp5pattern"> <rect class="cp5color" height="12" width="12" y="0" x="0"></rect> <path fill="black" d="M0,0L3,0L3,3L0,3L0,0M6,0L9,0L9,3L6,3L6,0M3,3L6,3L6,6L3,6L3,3M9,3L12,3L12,6L9,6L9,3"></path> <path fill="black" d="M0,6L3,6L3,9L0,9L0,6M6,6L9,6L9,9L6,9L6,6M3,9L6,9L6,12L3,12L3,9M9,9L12,9L12,12L9,12L9,9"></path> </pattern> <pattern y="0" x="0" height="12" width="12" patternUnits="userSpaceOnUse" id="cp6pattern"> <rect class="cp6color" height="12" width="12" y="0" x="0"></rect> <path fill="white" d="M0,0L3,0L3,3L0,3L0,0M6,0L9,0L9,3L6,3L6,0M3,3L6,3L6,6L3,6L3,3M9,3L12,3L12,6L9,6L9,3"></path> <path fill="white" d="M0,6L3,6L3,9L0,9L0,6M6,6L9,6L9,9L6,9L6,6M3,9L6,9L6,12L3,12L3,9M9,9L12,9L12,12L9,12L9,9"></path> </pattern> <pattern y="0" x="0" height="12" width="12" patternUnits="userSpaceOnUse" id="cp7pattern"> <rect class="cp7color" height="12" width="12" y="0" x="0"></rect> <path fill="black" d="M0,0L3,0L3,3L0,3L0,0M6,0L9,0L9,3L6,3L6,0M3,3L6,3L6,6L3,6L3,3M9,3L12,3L12,6L9,6L9,3"></path> <path fill="black" d="M0,6L3,6L3,9L0,9L0,6M6,6L9,6L9,9L6,9L6,6M3,9L6,9L6,12L3,12L3,9M9,9L12,9L12,12L9,12L9,9"></path> </pattern> <pattern y="0" x="0" height="12" width="12" patternUnits="userSpaceOnUse" id="cp8pattern"> <rect class="cp8color" height="12" width="12" y="0" x="0"></rect> <path fill="white" d="M0,0L3,0L3,3L0,3L0,0M6,0L9,0L9,3L6,3L6,0M3,3L6,3L6,6L3,6L3,3M9,3L12,3L12,6L9,6L9,3"></path> <path fill="white" d="M0,6L3,6L3,9L0,9L0,6M6,6L9,6L9,9L6,9L6,6M3,9L6,9L6,12L3,12L3,9M9,9L12,9L12,12L9,12L9,9"></path> </pattern> <pattern y="0" x="0" height="12" width="12" patternUnits="userSpaceOnUse" id="cp9pattern"> <rect class="cp9color" height="12" width="12" y="0" x="0"></rect> <path fill="black" d="M0,0L3,0L3,3L0,3L0,0M6,0L9,0L9,3L6,3L6,0M3,3L6,3L6,6L3,6L3,3M9,3L12,3L12,6L9,6L9,3"></path> <path fill="black" d="M0,6L3,6L3,9L0,9L0,6M6,6L9,6L9,9L6,9L6,6M3,9L6,9L6,12L3,12L3,9M9,9L12,9L12,12L9,12L9,9"></path> </pattern> </defs> <rect height="100%" width="100%" y="0" x="0" class="grass" id="mainfill"></rect> <g id="paths"><path class="parc" d="M0,0L0,0L12,0L12,96L0,96Z"></path><path class="road" d="M180,12L180,12L252,12L252,24L264,24L264,12L288,12L288,108L276,108L276,96L264,96L264,84L252,84L252,96L264,96L264,108L156,108L156,96L120,96L120,84L72,84L72,96L60,96L60,132L48,132L48,180L60,180L60,204L72,204L72,216L84,216L84,228L96,228L96,240L108,240L108,252L132,252L132,264L180,264L180,252L192,252L192,216L108,216L108,204L96,204L96,192L84,192L84,144L96,144L96,132L120,132L120,120L276,120L276,132L288,132L288,144L300,144L300,156L312,156L312,168L324,168L324,180L336,180L336,192L348,192L348,204L360,204L360,216L372,216L372,228L384,228L384,240L396,240L396,252L408,252L408,264L432,264L432,204L420,204L420,192L396,192L396,180L372,180L372,168L360,168L360,120L372,120L372,108L384,108L384,96L396,96L396,84L408,84L408,72L420,72L420,48L408,48L408,36L396,36L396,48L384,48L384,60L372,60L372,84L360,84L360,96L348,96L348,108L324,108L324,120L300,120L300,96L312,96L312,72L336,72L336,60L348,60L348,48L360,48L360,24L372,24L372,12L432,12L432,24L444,24L444,36L456,36L456,84L444,84L444,108L432,108L432,120L408,120L408,132L396,132L396,144L420,144L420,156L444,156L444,168L456,168L456,192L468,192L468,288L372,288L372,264L360,264L360,252L348,252L348,240L336,240L336,228L324,228L324,216L312,216L312,204L300,204L300,192L288,192L288,180L276,180L276,168L264,168L264,156L252,156L252,144L144,144L144,156L120,156L120,180L216,180L216,192L228,192L228,204L240,204L240,264L228,264L228,276L216,276L216,288L96,288L96,276L72,276L72,264L60,264L60,252L48,252L48,240L36,240L36,228L24,228L24,204L12,204L12,120L24,120L24,84L36,84L36,60L48,60L48,48L72,48L72,36L144,36L144,24L180,24L180,12M276,24L276,24L264,24L264,36L252,36L252,48L264,48L264,36L276,36L276,24M276,48L276,48L264,48L264,60L252,60L252,72L264,72L264,60L276,60L276,48M276,72L276,72L264,72L264,84L276,84L276,72M264,228L264,228L288,228L288,240L276,240L276,252L288,252L288,240L300,240L300,228L312,228L312,240L300,240L300,276L288,276L288,264L276,264L276,276L288,276L288,288L264,288L264,228M312,240L312,240L324,240L324,276L312,276L312,240M300,276L300,276L312,276L312,288L300,288Z"></path><path class="start" d="M252,12L252,12L264,12L264,24L252,24L252,12M264,24L264,24L276,24L276,36L264,36L264,24M264,36L264,36L264,48L252,48L252,36L264,36M264,48L264,48L276,48L276,60L264,60L264,48M264,60L264,60L264,72L252,72L252,60L264,60M264,72L264,72L276,72L276,84L264,84L264,72M264,84L264,84L264,96L252,96L252,84L264,84M264,96L264,96L276,96L276,108L264,108Z"></path><path class="finish" d="M300,84L300,84L312,84L312,96L300,96L300,84M324,108L324,108L336,108L336,120L324,120Z"></path></g> <rect opacity=".3" fill="url(#grid)" height="100%" width="100%" y="0" x="0"></rect></svg>