<svg height="492" width="1092" id="mapSvgView" xmlns:xlink="http://www.w3.org/1999/xlink" version="1.1" xmlns="http://www.w3.org/2000/svg"> <defs> <style type="text/css"> .grass {fill: rgb(0, 200, 0);} .road {fill: rgb(128, 128, 128);} .start {fill: url(#startPattern)} .finish {fill: url(#finishPattern)} .mud {fill: rgb(100, 70, 0);} .sand {fill: rgb(230, 230, 115);} .water {fill: blue;} .earth {fill: brown;} .night {fill: black;} .parc {fill: rgb(200, 200, 200);} .cp1color {fill: rgb(0, 102, 255);} .cp2color {fill: rgb(0, 100, 200);} .cp3color {fill: rgb(0, 255, 102);} .cp4color {fill: rgb(0, 200, 0);} .cp5color {fill: rgb(255, 255, 0);} .cp6color {fill: rgb(200, 200, 0);} .cp7color {fill: rgb(255, 0, 0);} .cp8color {fill: rgb(200, 0, 0);} .cp9color {fill: rgb(255, 0, 255);} .cp1 {fill: url(#cp1pattern);} .cp2 {fill: url(#cp2pattern);} .cp3 {fill: url(#cp3pattern);} .cp4 {fill: url(#cp4pattern);} .cp5 {fill: url(#cp5pattern);} .cp6 {fill: url(#cp6pattern);} .cp7 {fill: url(#cp7pattern);} .cp8 {fill: url(#cp8pattern);} .cp9 {fill: url(#cp9pattern);} .primaryColor {fill: rgb(0, 255, 102);} </style> <pattern y="0" x="0" height="12" width="12" patternUnits="userSpaceOnUse" id="grid"> <line stroke-width="1" stroke="black" y2="12" x2="12" y1="0" x1="12"></line> <line stroke-width="1" stroke="black" y2="12" x2="12" y1="12" x1="0"></line> </pattern> <pattern y="0" x="0" height="12" width="12" patternUnits="userSpaceOnUse" id="finishPattern"> <rect fill="black" height="12" width="12" y="0" x="0"></rect> <path fill="white" d="M0,0L3,0L3,3L0,3L0,0M6,0L9,0L9,3L6,3L6,0M3,3L6,3L6,6L3,6L3,3M9,3L12,3L12,6L9,6L9,3"></path> <path fill="white" d="M0,6L3,6L3,9L0,9L0,6M6,6L9,6L9,9L6,9L6,6M3,9L6,9L6,12L3,12L3,9M9,9L12,9L12,12L9,12L9,9"></path> </pattern> <pattern y="0" x="0" height="12" width="12" patternUnits="userSpaceOnUse" id="startPattern"> <rect fill="rgb(100,100,100)" height="12" width="12" y="0" x="0"></rect> <rect stroke-width="1" stroke="rgb(200,200,200)" fill="none" height="5" width="5" y="3.5" x="3.5"></rect> &gt; </pattern> <pattern y="0" x="0" height="12" width="12" patternUnits="userSpaceOnUse" id="cp1pattern"> <rect class="cp1color" height="12" width="12" y="0" x="0"></rect> <path fill="black" d="M0,0L3,0L3,3L0,3L0,0M6,0L9,0L9,3L6,3L6,0M3,3L6,3L6,6L3,6L3,3M9,3L12,3L12,6L9,6L9,3"></path> <path fill="black" d="M0,6L3,6L3,9L0,9L0,6M6,6L9,6L9,9L6,9L6,6M3,9L6,9L6,12L3,12L3,9M9,9L12,9L12,12L9,12L9,9"></path> </pattern> <pattern y="0" x="0" height="12" width="12" patternUnits="userSpaceOnUse" id="cp2pattern"> <rect class="cp2color" height="12" width="12" y="0" x="0"></rect> <path fill="white" d="M0,0L3,0L3,3L0,3L0,0M6,0L9,0L9,3L6,3L6,0M3,3L6,3L6,6L3,6L3,3M9,3L12,3L12,6L9,6L9,3"></path> <path fill="white" d="M0,6L3,6L3,9L0,9L0,6M6,6L9,6L9,9L6,9L6,6M3,9L6,9L6,12L3,12L3,9M9,9L12,9L12,12L9,12L9,9"></path> </pattern> <pattern y="0" x="0" height="12" width="12" patternUnits="userSpaceOnUse" id="cp3pattern"> <rect class="cp3color" height="12" width="12" y="0" x="0"></rect> <path fill="black" d="M0,0L3,0L3,3L0,3L0,0M6,0L9,0L9,3L6,3L6,0M3,3L6,3L6,6L3,6L3,3M9,3L12,3L12,6L9,6L9,3"></path> <path fill="black" d="M0,6L3,6L3,9L0,9L0,6M6,6L9,6L9,9L6,9L6,6M3,9L6,9L6,12L3,12L3,9M9,9L12,9L12,12L9,12L9,9"></path> </pattern> <pattern y="0" x="0" height="12" width="12" patternUnits="userSpaceOnUse" id="cp4pattern"> <rect class="cp4color" height="12" width="12" y="0" x="0"></rect> <path fill="white" d="M0,0L3,0L3,3L0,3L0,0M6,0L9,0L9,3L6,3L6,0M3,3L6,3L6,6L3,6L3,3M9,3L12,3L12,6L9,6L9,3"></path> <path fill="white" d="M0,6L3,6L3,9L0,9L0,6M6,6L9,6L9,9L6,9L6,6M3,9L6,9L6,12L3,12L3,9M9,9L12,9L12,12L9,12L9,9"></path> </pattern> <pattern y="0" x="0" height="12" width="12" patternUnits="userSpaceOnUse" id="cp5pattern"> <rect class="cp5color" height="12" width="12" y="0" x="0"></rect> <path fill="black" d="M0,0L3,0L3,3L0,3L0,0M6,0L9,0L9,3L6,3L6,0M3,3L6,3L6,6L3,6L3,3M9,3L12,3L12,6L9,6L9,3"></path> <path fill="black" d="M0,6L3,6L3,9L0,9L0,6M6,6L9,6L9,9L6,9L6,6M3,9L6,9L6,12L3,12L3,9M9,9L12,9L12,12L9,12L9,9"></path> </pattern> <pattern y="0" x="0" height="12" width="12" patternUnits="userSpaceOnUse" id="cp6pattern"> <rect class="cp6color" height="12" width="12" y="0" x="0"></rect> <path fill="white" d="M0,0L3,0L3,3L0,3L0,0M6,0L9,0L9,3L6,3L6,0M3,3L6,3L6,6L3,6L3,3M9,3L12,3L12,6L9,6L9,3"></path> <path fill="white" d="M0,6L3,6L3,9L0,9L0,6M6,6L9,6L9,9L6,9L6,6M3,9L6,9L6,12L3,12L3,9M9,9L12,9L12,12L9,12L9,9"></path> </pattern> <pattern y="0" x="0" height="12" width="12" patternUnits="userSpaceOnUse" id="cp7pattern"> <rect class="cp7color" height="12" width="12" y="0" x="0"></rect> <path fill="black" d="M0,0L3,0L3,3L0,3L0,0M6,0L9,0L9,3L6,3L6,0M3,3L6,3L6,6L3,6L3,3M9,3L12,3L12,6L9,6L9,3"></path> <path fill="black" d="M0,6L3,6L3,9L0,9L0,6M6,6L9,6L9,9L6,9L6,6M3,9L6,9L6,12L3,12L3,9M9,9L12,9L12,12L9,12L9,9"></path> </pattern> <pattern y="0" x="0" height="12" width="12" patternUnits="userSpaceOnUse" id="cp8pattern"> <rect class="cp8color" height="12" width="12" y="0" x="0"></rect> <path fill="white" d="M0,0L3,0L3,3L0,3L0,0M6,0L9,0L9,3L6,3L6,0M3,3L6,3L6,6L3,6L3,3M9,3L12,3L12,6L9,6L9,3"></path> <path fill="white" d="M0,6L3,6L3,9L0,9L0,6M6,6L9,6L9,9L6,9L6,6M3,9L6,9L6,12L3,12L3,9M9,9L12,9L12,12L9,12L9,9"></path> </pattern> <pattern y="0" x="0" height="12" width="12" patternUnits="userSpaceOnUse" id="cp9pattern"> <rect class="cp9color" height="12" width="12" y="0" x="0"></rect> <path fill="black" d="M0,0L3,0L3,3L0,3L0,0M6,0L9,0L9,3L6,3L6,0M3,3L6,3L6,6L3,6L3,3M9,3L12,3L12,6L9,6L9,3"></path> <path fill="black" d="M0,6L3,6L3,9L0,9L0,6M6,6L9,6L9,9L6,9L6,6M3,9L6,9L6,12L3,12L3,9M9,9L12,9L12,12L9,12L9,9"></path> </pattern> </defs> <rect height="100%" width="100%" y="0" x="0" class="grass" id="mainfill"></rect> <g id="paths"><path class="cp1" d="M960,72L960,72L1020,72L1020,96L960,96Z"></path><path class="cp2" d="M372,252L372,252L384,252L384,288L372,288Z"></path><path class="road" d="M204,24L204,24L984,24L984,36L996,36L996,48L1008,48L1008,72L240,72L240,96L252,96L252,108L276,108L276,120L300,120L300,132L336,132L336,144L384,144L384,156L432,156L432,168L480,168L480,180L528,180L528,192L576,192L576,204L624,204L624,216L672,216L672,228L684,228L684,264L672,264L672,276L660,276L660,288L648,288L648,300L636,300L636,312L624,312L624,324L612,324L612,336L588,336L588,348L564,348L564,360L552,360L552,372L492,372L492,360L468,360L468,348L444,348L444,336L432,336L432,324L420,324L420,312L408,312L408,300L396,300L396,288L384,288L384,252L420,252L420,264L444,264L444,276L468,276L468,288L480,288L480,312L492,312L492,324L516,324L516,336L528,336L528,324L540,324L540,312L552,312L552,300L564,300L564,288L576,288L576,276L588,276L588,264L600,264L600,240L564,240L564,228L528,228L528,216L492,216L492,204L444,204L444,192L396,192L396,180L348,180L348,168L300,168L300,156L252,156L252,144L216,144L216,132L192,132L192,120L180,120L180,108L168,108L168,48L180,48L180,36L204,36L204,24M936,96L936,96L1008,96L1008,120L1020,120L1020,132L1032,132L1032,144L1044,144L1044,180L1032,180L1032,192L1020,192L1020,204L996,204L996,216L972,216L972,228L948,228L948,240L936,240L936,252L912,252L912,264L876,264L876,276L864,276L864,288L816,288L816,276L792,276L792,252L828,252L828,240L852,240L852,228L876,228L876,216L900,216L900,204L924,204L924,192L948,192L948,180L972,180L972,168L984,168L984,156L972,156L972,144L960,144L960,132L948,132L948,120L936,120L936,96M72,156L72,156L144,156L144,168L180,168L180,180L204,180L204,192L240,192L240,204L264,204L264,216L276,216L276,228L288,228L288,240L276,240L276,252L252,252L252,264L228,264L228,276L216,276L216,288L228,288L228,312L252,312L252,300L264,300L264,288L288,288L288,276L312,276L312,264L336,264L336,252L372,252L372,288L348,288L348,300L324,300L324,312L312,312L312,324L300,324L300,336L276,336L276,348L264,348L264,360L228,360L228,348L204,348L204,336L192,336L192,324L180,324L180,312L168,312L168,300L156,300L156,288L144,288L144,264L168,264L168,252L192,252L192,240L216,240L216,228L192,228L192,216L168,216L168,204L144,204L144,192L84,192L84,204L72,204L72,252L84,252L84,264L96,264L96,276L108,276L108,288L120,288L120,300L132,300L132,312L144,312L144,324L156,324L156,336L168,336L168,348L180,348L180,360L204,360L204,372L228,372L228,384L264,384L264,396L300,396L300,408L348,408L348,420L480,420L480,408L516,408L516,396L552,396L552,384L588,384L588,372L612,372L612,360L636,360L636,348L660,348L660,336L672,336L672,324L696,324L696,312L708,312L708,300L732,300L732,288L756,288L756,276L768,276L768,288L792,288L792,300L816,300L816,312L792,312L792,324L768,324L768,336L744,336L744,348L732,348L732,360L708,360L708,372L684,372L684,384L660,384L660,396L636,396L636,408L600,408L600,420L576,420L576,432L540,432L540,444L516,444L516,456L468,456L468,468L348,468L348,456L276,456L276,444L252,444L252,432L216,432L216,420L192,420L192,408L168,408L168,396L144,396L144,384L132,384L132,372L120,372L120,360L108,360L108,348L96,348L96,336L84,336L84,324L72,324L72,312L60,312L60,300L48,300L48,288L36,288L36,276L24,276L24,192L36,192L36,180L48,180L48,168L72,168L72,156M780,384L780,384L840,384L840,396L852,396L852,420L840,420L840,432L852,432L852,456L840,456L840,468L780,468L780,384M816,396L816,396L804,396L804,420L828,420L828,396L816,396M888,384L888,384L948,384L948,396L960,396L960,420L948,420L948,444L960,444L960,468L936,468L936,444L924,444L924,432L912,432L912,468L888,468L888,384M924,396L924,396L912,396L912,420L936,420L936,396L924,396M1008,384L1008,384L1056,384L1056,396L1068,396L1068,468L1044,468L1044,432L1020,432L1020,468L996,468L996,396L1008,396L1008,384M1032,396L1032,396L1020,396L1020,420L1044,420L1044,396L1032,396M816,432L816,432L804,432L804,456L828,456L828,432Z"></path><path class="start" d="M768,264L768,264L792,264L792,276L768,276L768,264M792,276L792,276L816,276L816,288L792,288L792,276M816,288L816,288L840,288L840,300L816,300Z"></path><path class="finish" d="M768,276L768,276L792,276L792,288L768,288L768,276M792,288L792,288L816,288L816,300L792,300L792,288M816,300L816,300L840,300L840,312L816,312Z"></path></g> <rect opacity=".3" fill="url(#grid)" height="100%" width="100%" y="0" x="0"></rect></svg>