<svg height="792" width="588" id="mapSvgView" xmlns:xlink="http://www.w3.org/1999/xlink" version="1.1" xmlns="http://www.w3.org/2000/svg"> <defs> <style type="text/css"> .grass {fill: rgb(0, 200, 0);} .road {fill: rgb(128, 128, 128);} .start {fill: url(#startPattern)} .finish {fill: url(#finishPattern)} .mud {fill: rgb(100, 70, 0);} .sand {fill: rgb(230, 230, 115);} .water {fill: blue;} .earth {fill: brown;} .night {fill: black;} .parc {fill: rgb(200, 200, 200);} .cp1color {fill: rgb(0, 102, 255);} .cp2color {fill: rgb(0, 100, 200);} .cp3color {fill: rgb(0, 255, 102);} .cp4color {fill: rgb(0, 200, 0);} .cp5color {fill: rgb(255, 255, 0);} .cp6color {fill: rgb(200, 200, 0);} .cp7color {fill: rgb(255, 0, 0);} .cp8color {fill: rgb(200, 0, 0);} .cp9color {fill: rgb(255, 0, 255);} .cp1 {fill: url(#cp1pattern);} .cp2 {fill: url(#cp2pattern);} .cp3 {fill: url(#cp3pattern);} .cp4 {fill: url(#cp4pattern);} .cp5 {fill: url(#cp5pattern);} .cp6 {fill: url(#cp6pattern);} .cp7 {fill: url(#cp7pattern);} .cp8 {fill: url(#cp8pattern);} .cp9 {fill: url(#cp9pattern);} .primaryColor {fill: rgb(0, 255, 102);} </style> <pattern y="0" x="0" height="12" width="12" patternUnits="userSpaceOnUse" id="grid"> <line stroke-width="1" stroke="black" y2="12" x2="12" y1="0" x1="12"></line> <line stroke-width="1" stroke="black" y2="12" x2="12" y1="12" x1="0"></line> </pattern> <pattern y="0" x="0" height="12" width="12" patternUnits="userSpaceOnUse" id="finishPattern"> <rect fill="black" height="12" width="12" y="0" x="0"></rect> <path fill="white" d="M0,0L3,0L3,3L0,3L0,0M6,0L9,0L9,3L6,3L6,0M3,3L6,3L6,6L3,6L3,3M9,3L12,3L12,6L9,6L9,3"></path> <path fill="white" d="M0,6L3,6L3,9L0,9L0,6M6,6L9,6L9,9L6,9L6,6M3,9L6,9L6,12L3,12L3,9M9,9L12,9L12,12L9,12L9,9"></path> </pattern> <pattern y="0" x="0" height="12" width="12" patternUnits="userSpaceOnUse" id="startPattern"> <rect fill="rgb(100,100,100)" height="12" width="12" y="0" x="0"></rect> <rect stroke-width="1" stroke="rgb(200,200,200)" fill="none" height="5" width="5" y="3.5" x="3.5"></rect> &gt; </pattern> <pattern y="0" x="0" height="12" width="12" patternUnits="userSpaceOnUse" id="cp1pattern"> <rect class="cp1color" height="12" width="12" y="0" x="0"></rect> <path fill="black" d="M0,0L3,0L3,3L0,3L0,0M6,0L9,0L9,3L6,3L6,0M3,3L6,3L6,6L3,6L3,3M9,3L12,3L12,6L9,6L9,3"></path> <path fill="black" d="M0,6L3,6L3,9L0,9L0,6M6,6L9,6L9,9L6,9L6,6M3,9L6,9L6,12L3,12L3,9M9,9L12,9L12,12L9,12L9,9"></path> </pattern> <pattern y="0" x="0" height="12" width="12" patternUnits="userSpaceOnUse" id="cp2pattern"> <rect class="cp2color" height="12" width="12" y="0" x="0"></rect> <path fill="white" d="M0,0L3,0L3,3L0,3L0,0M6,0L9,0L9,3L6,3L6,0M3,3L6,3L6,6L3,6L3,3M9,3L12,3L12,6L9,6L9,3"></path> <path fill="white" d="M0,6L3,6L3,9L0,9L0,6M6,6L9,6L9,9L6,9L6,6M3,9L6,9L6,12L3,12L3,9M9,9L12,9L12,12L9,12L9,9"></path> </pattern> <pattern y="0" x="0" height="12" width="12" patternUnits="userSpaceOnUse" id="cp3pattern"> <rect class="cp3color" height="12" width="12" y="0" x="0"></rect> <path fill="black" d="M0,0L3,0L3,3L0,3L0,0M6,0L9,0L9,3L6,3L6,0M3,3L6,3L6,6L3,6L3,3M9,3L12,3L12,6L9,6L9,3"></path> <path fill="black" d="M0,6L3,6L3,9L0,9L0,6M6,6L9,6L9,9L6,9L6,6M3,9L6,9L6,12L3,12L3,9M9,9L12,9L12,12L9,12L9,9"></path> </pattern> <pattern y="0" x="0" height="12" width="12" patternUnits="userSpaceOnUse" id="cp4pattern"> <rect class="cp4color" height="12" width="12" y="0" x="0"></rect> <path fill="white" d="M0,0L3,0L3,3L0,3L0,0M6,0L9,0L9,3L6,3L6,0M3,3L6,3L6,6L3,6L3,3M9,3L12,3L12,6L9,6L9,3"></path> <path fill="white" d="M0,6L3,6L3,9L0,9L0,6M6,6L9,6L9,9L6,9L6,6M3,9L6,9L6,12L3,12L3,9M9,9L12,9L12,12L9,12L9,9"></path> </pattern> <pattern y="0" x="0" height="12" width="12" patternUnits="userSpaceOnUse" id="cp5pattern"> <rect class="cp5color" height="12" width="12" y="0" x="0"></rect> <path fill="black" d="M0,0L3,0L3,3L0,3L0,0M6,0L9,0L9,3L6,3L6,0M3,3L6,3L6,6L3,6L3,3M9,3L12,3L12,6L9,6L9,3"></path> <path fill="black" d="M0,6L3,6L3,9L0,9L0,6M6,6L9,6L9,9L6,9L6,6M3,9L6,9L6,12L3,12L3,9M9,9L12,9L12,12L9,12L9,9"></path> </pattern> <pattern y="0" x="0" height="12" width="12" patternUnits="userSpaceOnUse" id="cp6pattern"> <rect class="cp6color" height="12" width="12" y="0" x="0"></rect> <path fill="white" d="M0,0L3,0L3,3L0,3L0,0M6,0L9,0L9,3L6,3L6,0M3,3L6,3L6,6L3,6L3,3M9,3L12,3L12,6L9,6L9,3"></path> <path fill="white" d="M0,6L3,6L3,9L0,9L0,6M6,6L9,6L9,9L6,9L6,6M3,9L6,9L6,12L3,12L3,9M9,9L12,9L12,12L9,12L9,9"></path> </pattern> <pattern y="0" x="0" height="12" width="12" patternUnits="userSpaceOnUse" id="cp7pattern"> <rect class="cp7color" height="12" width="12" y="0" x="0"></rect> <path fill="black" d="M0,0L3,0L3,3L0,3L0,0M6,0L9,0L9,3L6,3L6,0M3,3L6,3L6,6L3,6L3,3M9,3L12,3L12,6L9,6L9,3"></path> <path fill="black" d="M0,6L3,6L3,9L0,9L0,6M6,6L9,6L9,9L6,9L6,6M3,9L6,9L6,12L3,12L3,9M9,9L12,9L12,12L9,12L9,9"></path> </pattern> <pattern y="0" x="0" height="12" width="12" patternUnits="userSpaceOnUse" id="cp8pattern"> <rect class="cp8color" height="12" width="12" y="0" x="0"></rect> <path fill="white" d="M0,0L3,0L3,3L0,3L0,0M6,0L9,0L9,3L6,3L6,0M3,3L6,3L6,6L3,6L3,3M9,3L12,3L12,6L9,6L9,3"></path> <path fill="white" d="M0,6L3,6L3,9L0,9L0,6M6,6L9,6L9,9L6,9L6,6M3,9L6,9L6,12L3,12L3,9M9,9L12,9L12,12L9,12L9,9"></path> </pattern> <pattern y="0" x="0" height="12" width="12" patternUnits="userSpaceOnUse" id="cp9pattern"> <rect class="cp9color" height="12" width="12" y="0" x="0"></rect> <path fill="black" d="M0,0L3,0L3,3L0,3L0,0M6,0L9,0L9,3L6,3L6,0M3,3L6,3L6,6L3,6L3,3M9,3L12,3L12,6L9,6L9,3"></path> <path fill="black" d="M0,6L3,6L3,9L0,9L0,6M6,6L9,6L9,9L6,9L6,6M3,9L6,9L6,12L3,12L3,9M9,9L12,9L12,12L9,12L9,9"></path> </pattern> </defs> <rect height="100%" width="100%" y="0" x="0" class="grass" id="mainfill"></rect> <g id="paths"><path class="road" d="M192,24L192,24L324,24L324,36L372,36L372,48L396,48L396,60L420,60L420,72L432,72L432,84L456,84L456,96L468,96L468,108L480,108L480,120L492,120L492,132L504,132L504,180L516,180L516,204L528,204L528,300L540,300L540,396L528,396L528,444L516,444L516,468L504,468L504,480L492,480L492,516L480,516L480,540L492,540L492,552L504,552L504,564L540,564L540,576L552,576L552,588L564,588L564,756L444,756L444,684L456,684L456,636L468,636L468,576L456,576L456,588L444,588L444,612L432,612L432,624L420,624L420,636L408,636L408,648L396,648L396,660L384,660L384,672L360,672L360,684L348,684L348,696L336,696L336,720L348,720L348,732L360,732L360,756L372,756L372,768L276,768L276,744L264,744L264,732L276,732L276,720L288,720L288,696L264,696L264,684L252,684L252,672L240,672L240,660L216,660L216,648L204,648L204,636L192,636L192,624L180,624L180,600L168,600L168,576L180,576L180,564L204,564L204,576L228,576L228,588L300,588L300,600L336,600L336,588L312,588L312,564L300,564L300,576L276,576L276,552L288,552L288,540L324,540L324,528L372,528L372,516L360,516L360,504L372,504L372,516L384,516L384,528L396,528L396,540L408,540L408,564L420,564L420,540L432,540L432,528L420,528L420,468L432,468L432,456L420,456L420,444L432,444L432,432L444,432L444,420L456,420L456,408L468,408L468,396L480,396L480,348L468,348L468,336L444,336L444,372L432,372L432,360L396,360L396,348L384,348L384,336L360,336L360,348L348,348L348,384L336,384L336,324L348,324L348,312L360,312L360,300L372,300L372,288L360,288L360,276L348,276L348,264L360,264L360,276L420,276L420,264L432,264L432,252L456,252L456,240L444,240L444,180L432,180L432,156L420,156L420,144L408,144L408,132L384,132L384,144L360,144L360,156L348,156L348,168L252,168L252,156L240,156L240,168L216,168L216,156L204,156L204,168L192,168L192,180L180,180L180,192L168,192L168,180L156,180L156,192L144,192L144,216L156,216L156,228L168,228L168,240L144,240L144,300L132,300L132,336L120,336L120,348L132,348L132,360L120,360L120,372L132,372L132,396L144,396L144,420L156,420L156,432L168,432L168,468L156,468L156,480L168,480L168,492L156,492L156,516L168,516L168,564L156,564L156,588L132,588L132,624L144,624L144,708L156,708L156,756L24,756L24,624L36,624L36,612L60,612L60,600L72,600L72,588L96,588L96,576L108,576L108,564L132,564L132,552L144,552L144,516L132,516L132,504L108,504L108,492L96,492L96,480L108,480L108,492L120,492L120,480L132,480L132,468L120,468L120,444L108,444L108,432L96,432L96,420L108,420L108,396L84,396L84,372L96,372L96,360L84,360L84,348L72,348L72,336L60,336L60,324L48,324L48,216L60,216L60,180L72,180L72,156L60,156L60,144L96,144L96,120L108,120L108,96L120,96L120,72L132,72L132,60L144,60L144,48L168,48L168,36L192,36L192,24M240,180L240,180L264,180L264,228L276,228L276,216L288,216L288,192L312,192L312,216L324,216L324,228L276,228L276,252L252,252L252,228L240,228L240,180M336,180L336,180L360,180L360,228L348,228L348,252L324,252L324,228L336,228L336,180M156,252L156,252L168,252L168,264L156,264L156,252M204,276L204,276L228,276L228,288L264,288L264,312L276,312L276,324L300,324L300,348L276,348L276,360L180,360L180,348L192,348L192,336L216,336L216,324L192,324L192,312L180,312L180,300L192,300L192,288L204,288L204,276M432,300L432,300L420,300L420,312L432,312L432,300M180,312L180,312L180,324L168,324L168,312L180,312M228,312L228,312L216,312L216,324L228,324L228,312M168,324L168,324L168,336L156,336L156,324L168,324M228,336L228,336L216,336L216,348L240,348L240,336L228,336M36,336L36,336L48,336L48,348L60,348L60,360L72,360L72,372L48,372L48,360L36,360L36,336M348,384L348,384L360,384L360,420L372,420L372,468L360,468L360,492L324,492L324,480L312,480L312,468L348,468L348,432L336,432L336,420L348,420L348,408L336,408L336,396L348,396L348,384M72,408L72,408L84,408L84,420L72,420L72,408M120,420L120,420L108,420L108,432L120,432L120,420M276,456L276,456L300,456L300,468L276,468L276,456M168,492L168,492L180,492L180,504L168,504L168,492M216,504L216,504L228,504L228,528L216,528L216,504M348,564L348,564L336,564L336,588L348,588L348,576L360,576L360,564L348,564M372,576L372,576L360,576L360,588L348,588L348,600L372,600L372,588L384,588L384,576L372,576M252,612L252,612L240,612L240,624L252,624L252,636L264,636L264,648L288,648L288,660L312,660L312,636L324,636L324,648L336,648L336,660L348,660L348,648L360,648L360,624L276,624L276,612L252,612M324,744L324,744L312,744L312,756L324,756Z"></path><path class="start" d="M24,756L24,756L156,756L156,768L24,768Z"></path><path class="finish" d="M444,756L444,756L564,756L564,768L444,768Z"></path></g> <rect opacity=".3" fill="url(#grid)" height="100%" width="100%" y="0" x="0"></rect></svg>