<svg height="768" width="900" id="mapSvgView" xmlns:xlink="http://www.w3.org/1999/xlink" version="1.1" xmlns="http://www.w3.org/2000/svg"> <defs> <style type="text/css"> .grass {fill: rgb(0, 200, 0);} .road {fill: rgb(128, 128, 128);} .start {fill: url(#startPattern)} .finish {fill: url(#finishPattern)} .mud {fill: rgb(100, 70, 0);} .sand {fill: rgb(230, 230, 115);} .water {fill: blue;} .earth {fill: brown;} .night {fill: black;} .parc {fill: rgb(200, 200, 200);} .cp1color {fill: rgb(0, 102, 255);} .cp2color {fill: rgb(0, 100, 200);} .cp3color {fill: rgb(0, 255, 102);} .cp4color {fill: rgb(0, 200, 0);} .cp5color {fill: rgb(255, 255, 0);} .cp6color {fill: rgb(200, 200, 0);} .cp7color {fill: rgb(255, 0, 0);} .cp8color {fill: rgb(200, 0, 0);} .cp9color {fill: rgb(255, 0, 255);} .cp1 {fill: url(#cp1pattern);} .cp2 {fill: url(#cp2pattern);} .cp3 {fill: url(#cp3pattern);} .cp4 {fill: url(#cp4pattern);} .cp5 {fill: url(#cp5pattern);} .cp6 {fill: url(#cp6pattern);} .cp7 {fill: url(#cp7pattern);} .cp8 {fill: url(#cp8pattern);} .cp9 {fill: url(#cp9pattern);} .primaryColor {fill: rgb(0, 255, 102);} </style> <pattern y="0" x="0" height="12" width="12" patternUnits="userSpaceOnUse" id="grid"> <line stroke-width="1" stroke="black" y2="12" x2="12" y1="0" x1="12"></line> <line stroke-width="1" stroke="black" y2="12" x2="12" y1="12" x1="0"></line> </pattern> <pattern y="0" x="0" height="12" width="12" patternUnits="userSpaceOnUse" id="finishPattern"> <rect fill="black" height="12" width="12" y="0" x="0"></rect> <path fill="white" d="M0,0L3,0L3,3L0,3L0,0M6,0L9,0L9,3L6,3L6,0M3,3L6,3L6,6L3,6L3,3M9,3L12,3L12,6L9,6L9,3"></path> <path fill="white" d="M0,6L3,6L3,9L0,9L0,6M6,6L9,6L9,9L6,9L6,6M3,9L6,9L6,12L3,12L3,9M9,9L12,9L12,12L9,12L9,9"></path> </pattern> <pattern y="0" x="0" height="12" width="12" patternUnits="userSpaceOnUse" id="startPattern"> <rect fill="rgb(100,100,100)" height="12" width="12" y="0" x="0"></rect> <rect stroke-width="1" stroke="rgb(200,200,200)" fill="none" height="5" width="5" y="3.5" x="3.5"></rect> &gt; </pattern> <pattern y="0" x="0" height="12" width="12" patternUnits="userSpaceOnUse" id="cp1pattern"> <rect class="cp1color" height="12" width="12" y="0" x="0"></rect> <path fill="black" d="M0,0L3,0L3,3L0,3L0,0M6,0L9,0L9,3L6,3L6,0M3,3L6,3L6,6L3,6L3,3M9,3L12,3L12,6L9,6L9,3"></path> <path fill="black" d="M0,6L3,6L3,9L0,9L0,6M6,6L9,6L9,9L6,9L6,6M3,9L6,9L6,12L3,12L3,9M9,9L12,9L12,12L9,12L9,9"></path> </pattern> <pattern y="0" x="0" height="12" width="12" patternUnits="userSpaceOnUse" id="cp2pattern"> <rect class="cp2color" height="12" width="12" y="0" x="0"></rect> <path fill="white" d="M0,0L3,0L3,3L0,3L0,0M6,0L9,0L9,3L6,3L6,0M3,3L6,3L6,6L3,6L3,3M9,3L12,3L12,6L9,6L9,3"></path> <path fill="white" d="M0,6L3,6L3,9L0,9L0,6M6,6L9,6L9,9L6,9L6,6M3,9L6,9L6,12L3,12L3,9M9,9L12,9L12,12L9,12L9,9"></path> </pattern> <pattern y="0" x="0" height="12" width="12" patternUnits="userSpaceOnUse" id="cp3pattern"> <rect class="cp3color" height="12" width="12" y="0" x="0"></rect> <path fill="black" d="M0,0L3,0L3,3L0,3L0,0M6,0L9,0L9,3L6,3L6,0M3,3L6,3L6,6L3,6L3,3M9,3L12,3L12,6L9,6L9,3"></path> <path fill="black" d="M0,6L3,6L3,9L0,9L0,6M6,6L9,6L9,9L6,9L6,6M3,9L6,9L6,12L3,12L3,9M9,9L12,9L12,12L9,12L9,9"></path> </pattern> <pattern y="0" x="0" height="12" width="12" patternUnits="userSpaceOnUse" id="cp4pattern"> <rect class="cp4color" height="12" width="12" y="0" x="0"></rect> <path fill="white" d="M0,0L3,0L3,3L0,3L0,0M6,0L9,0L9,3L6,3L6,0M3,3L6,3L6,6L3,6L3,3M9,3L12,3L12,6L9,6L9,3"></path> <path fill="white" d="M0,6L3,6L3,9L0,9L0,6M6,6L9,6L9,9L6,9L6,6M3,9L6,9L6,12L3,12L3,9M9,9L12,9L12,12L9,12L9,9"></path> </pattern> <pattern y="0" x="0" height="12" width="12" patternUnits="userSpaceOnUse" id="cp5pattern"> <rect class="cp5color" height="12" width="12" y="0" x="0"></rect> <path fill="black" d="M0,0L3,0L3,3L0,3L0,0M6,0L9,0L9,3L6,3L6,0M3,3L6,3L6,6L3,6L3,3M9,3L12,3L12,6L9,6L9,3"></path> <path fill="black" d="M0,6L3,6L3,9L0,9L0,6M6,6L9,6L9,9L6,9L6,6M3,9L6,9L6,12L3,12L3,9M9,9L12,9L12,12L9,12L9,9"></path> </pattern> <pattern y="0" x="0" height="12" width="12" patternUnits="userSpaceOnUse" id="cp6pattern"> <rect class="cp6color" height="12" width="12" y="0" x="0"></rect> <path fill="white" d="M0,0L3,0L3,3L0,3L0,0M6,0L9,0L9,3L6,3L6,0M3,3L6,3L6,6L3,6L3,3M9,3L12,3L12,6L9,6L9,3"></path> <path fill="white" d="M0,6L3,6L3,9L0,9L0,6M6,6L9,6L9,9L6,9L6,6M3,9L6,9L6,12L3,12L3,9M9,9L12,9L12,12L9,12L9,9"></path> </pattern> <pattern y="0" x="0" height="12" width="12" patternUnits="userSpaceOnUse" id="cp7pattern"> <rect class="cp7color" height="12" width="12" y="0" x="0"></rect> <path fill="black" d="M0,0L3,0L3,3L0,3L0,0M6,0L9,0L9,3L6,3L6,0M3,3L6,3L6,6L3,6L3,3M9,3L12,3L12,6L9,6L9,3"></path> <path fill="black" d="M0,6L3,6L3,9L0,9L0,6M6,6L9,6L9,9L6,9L6,6M3,9L6,9L6,12L3,12L3,9M9,9L12,9L12,12L9,12L9,9"></path> </pattern> <pattern y="0" x="0" height="12" width="12" patternUnits="userSpaceOnUse" id="cp8pattern"> <rect class="cp8color" height="12" width="12" y="0" x="0"></rect> <path fill="white" d="M0,0L3,0L3,3L0,3L0,0M6,0L9,0L9,3L6,3L6,0M3,3L6,3L6,6L3,6L3,3M9,3L12,3L12,6L9,6L9,3"></path> <path fill="white" d="M0,6L3,6L3,9L0,9L0,6M6,6L9,6L9,9L6,9L6,6M3,9L6,9L6,12L3,12L3,9M9,9L12,9L12,12L9,12L9,9"></path> </pattern> <pattern y="0" x="0" height="12" width="12" patternUnits="userSpaceOnUse" id="cp9pattern"> <rect class="cp9color" height="12" width="12" y="0" x="0"></rect> <path fill="black" d="M0,0L3,0L3,3L0,3L0,0M6,0L9,0L9,3L6,3L6,0M3,3L6,3L6,6L3,6L3,3M9,3L12,3L12,6L9,6L9,3"></path> <path fill="black" d="M0,6L3,6L3,9L0,9L0,6M6,6L9,6L9,9L6,9L6,6M3,9L6,9L6,12L3,12L3,9M9,9L12,9L12,12L9,12L9,9"></path> </pattern> </defs> <rect height="100%" width="100%" y="0" x="0" class="grass" id="mainfill"></rect> <g id="paths"><path class="cp1" d="M156,12L156,12L180,12L180,72L156,72Z"></path><path class="cp2" d="M12,336L12,336L96,336L96,360L12,360Z"></path><path class="cp3" d="M432,420L432,420L456,420L456,492L432,492Z"></path><path class="road" d="M96,12L96,12L156,12L156,72L144,72L144,84L120,84L120,96L108,96L108,132L96,132L96,336L12,336L12,96L24,96L24,60L36,60L36,48L48,48L48,36L72,36L72,24L96,24L96,12M180,12L180,12L228,12L228,24L264,24L264,36L300,36L300,48L324,48L324,60L360,60L360,72L384,72L384,84L408,84L408,96L444,96L444,108L468,108L468,120L492,120L492,132L528,132L528,144L552,144L552,156L576,156L576,168L612,168L612,180L636,180L636,192L660,192L660,204L696,204L696,216L720,216L720,228L744,228L744,240L780,240L780,252L804,252L804,264L828,264L828,276L840,276L840,288L864,288L864,300L876,300L876,324L888,324L888,492L876,492L876,480L852,480L852,468L828,468L828,480L852,480L852,492L816,492L816,360L804,360L804,336L792,336L792,324L768,324L768,312L744,312L744,300L708,300L708,288L684,288L684,276L660,276L660,264L636,264L636,252L600,252L600,240L576,240L576,228L552,228L552,216L516,216L516,204L492,204L492,192L468,192L468,180L444,180L444,168L408,168L408,156L384,156L384,144L360,144L360,132L336,132L336,120L300,120L300,108L276,108L276,96L252,96L252,84L216,84L216,72L180,72L180,12M12,360L12,360L96,360L96,528L108,528L108,540L156,540L156,528L180,528L180,516L216,516L216,504L240,504L240,492L276,492L276,480L312,480L312,468L336,468L336,456L360,456L360,444L384,444L384,432L408,432L408,420L432,420L432,492L408,492L408,504L384,504L384,516L360,516L360,528L336,528L336,540L300,540L300,552L276,552L276,564L252,564L252,576L216,576L216,588L192,588L192,600L168,600L168,612L144,612L144,624L72,624L72,612L36,612L36,588L24,588L24,564L12,564L12,360M456,420L456,420L480,420L480,432L504,432L504,444L516,444L516,456L528,456L528,468L540,468L540,480L552,480L552,504L564,504L564,528L576,528L576,552L588,552L588,576L600,576L600,600L612,600L612,612L624,612L624,636L636,636L636,648L648,648L648,660L660,660L660,672L672,672L672,684L708,684L708,696L768,696L768,684L792,684L792,672L804,672L804,648L816,648L816,504L888,504L888,684L876,684L876,708L864,708L864,720L852,720L852,732L840,732L840,744L792,744L792,756L660,756L660,744L624,744L624,732L612,732L612,720L600,720L600,708L588,708L588,696L576,696L576,684L564,684L564,660L552,660L552,636L540,636L540,612L528,612L528,600L516,600L516,576L504,576L504,552L492,552L492,528L480,528L480,504L468,504L468,492L456,492L456,420M840,444L840,444L828,444L828,456L852,456L852,444L840,444M864,456L864,456L852,456L852,468L876,468L876,456Z"></path><path class="start" d="M828,444L828,444L852,444L852,456L828,456L828,444M852,456L852,456L876,456L876,468L852,468L852,456M852,468L852,468L852,480L828,480L828,468L852,468M852,480L852,480L876,480L876,492L852,492Z"></path><path class="finish" d="M816,492L816,492L888,492L888,504L816,504L816,492M12,696L12,696L48,696L48,708L24,708L24,720L36,720L36,732L24,732L24,744L48,744L48,756L12,756L12,696M60,696L60,696L84,696L84,708L72,708L72,720L84,720L84,708L96,708L96,720L84,720L84,732L72,732L72,744L84,744L84,732L96,732L96,744L84,744L84,756L60,756L60,696M108,696L108,696L120,696L120,720L132,720L132,696L144,696L144,756L132,756L132,732L108,732Z"></path></g> <rect opacity=".3" fill="url(#grid)" height="100%" width="100%" y="0" x="0"></rect></svg>