<svg height="768" width="876" id="mapSvgView" xmlns:xlink="http://www.w3.org/1999/xlink" version="1.1" xmlns="http://www.w3.org/2000/svg"> <defs> <style type="text/css"> .grass {fill: rgb(0, 200, 0);} .road {fill: rgb(128, 128, 128);} .start {fill: url(#startPattern)} .finish {fill: url(#finishPattern)} .mud {fill: rgb(100, 70, 0);} .sand {fill: rgb(230, 230, 115);} .water {fill: blue;} .earth {fill: brown;} .night {fill: black;} .parc {fill: rgb(200, 200, 200);} .cp1color {fill: rgb(0, 102, 255);} .cp2color {fill: rgb(0, 100, 200);} .cp3color {fill: rgb(0, 255, 102);} .cp4color {fill: rgb(0, 200, 0);} .cp5color {fill: rgb(255, 255, 0);} .cp6color {fill: rgb(200, 200, 0);} .cp7color {fill: rgb(255, 0, 0);} .cp8color {fill: rgb(200, 0, 0);} .cp9color {fill: rgb(255, 0, 255);} .cp1 {fill: url(#cp1pattern);} .cp2 {fill: url(#cp2pattern);} .cp3 {fill: url(#cp3pattern);} .cp4 {fill: url(#cp4pattern);} .cp5 {fill: url(#cp5pattern);} .cp6 {fill: url(#cp6pattern);} .cp7 {fill: url(#cp7pattern);} .cp8 {fill: url(#cp8pattern);} .cp9 {fill: url(#cp9pattern);} .primaryColor {fill: rgb(0, 255, 102);} </style> <pattern y="0" x="0" height="12" width="12" patternUnits="userSpaceOnUse" id="grid"> <line stroke-width="1" stroke="black" y2="12" x2="12" y1="0" x1="12"></line> <line stroke-width="1" stroke="black" y2="12" x2="12" y1="12" x1="0"></line> </pattern> <pattern y="0" x="0" height="12" width="12" patternUnits="userSpaceOnUse" id="finishPattern"> <rect fill="black" height="12" width="12" y="0" x="0"></rect> <path fill="white" d="M0,0L3,0L3,3L0,3L0,0M6,0L9,0L9,3L6,3L6,0M3,3L6,3L6,6L3,6L3,3M9,3L12,3L12,6L9,6L9,3"></path> <path fill="white" d="M0,6L3,6L3,9L0,9L0,6M6,6L9,6L9,9L6,9L6,6M3,9L6,9L6,12L3,12L3,9M9,9L12,9L12,12L9,12L9,9"></path> </pattern> <pattern y="0" x="0" height="12" width="12" patternUnits="userSpaceOnUse" id="startPattern"> <rect fill="rgb(100,100,100)" height="12" width="12" y="0" x="0"></rect> <rect stroke-width="1" stroke="rgb(200,200,200)" fill="none" height="5" width="5" y="3.5" x="3.5"></rect> &gt; </pattern> <pattern y="0" x="0" height="12" width="12" patternUnits="userSpaceOnUse" id="cp1pattern"> <rect class="cp1color" height="12" width="12" y="0" x="0"></rect> <path fill="black" d="M0,0L3,0L3,3L0,3L0,0M6,0L9,0L9,3L6,3L6,0M3,3L6,3L6,6L3,6L3,3M9,3L12,3L12,6L9,6L9,3"></path> <path fill="black" d="M0,6L3,6L3,9L0,9L0,6M6,6L9,6L9,9L6,9L6,6M3,9L6,9L6,12L3,12L3,9M9,9L12,9L12,12L9,12L9,9"></path> </pattern> <pattern y="0" x="0" height="12" width="12" patternUnits="userSpaceOnUse" id="cp2pattern"> <rect class="cp2color" height="12" width="12" y="0" x="0"></rect> <path fill="white" d="M0,0L3,0L3,3L0,3L0,0M6,0L9,0L9,3L6,3L6,0M3,3L6,3L6,6L3,6L3,3M9,3L12,3L12,6L9,6L9,3"></path> <path fill="white" d="M0,6L3,6L3,9L0,9L0,6M6,6L9,6L9,9L6,9L6,6M3,9L6,9L6,12L3,12L3,9M9,9L12,9L12,12L9,12L9,9"></path> </pattern> <pattern y="0" x="0" height="12" width="12" patternUnits="userSpaceOnUse" id="cp3pattern"> <rect class="cp3color" height="12" width="12" y="0" x="0"></rect> <path fill="black" d="M0,0L3,0L3,3L0,3L0,0M6,0L9,0L9,3L6,3L6,0M3,3L6,3L6,6L3,6L3,3M9,3L12,3L12,6L9,6L9,3"></path> <path fill="black" d="M0,6L3,6L3,9L0,9L0,6M6,6L9,6L9,9L6,9L6,6M3,9L6,9L6,12L3,12L3,9M9,9L12,9L12,12L9,12L9,9"></path> </pattern> <pattern y="0" x="0" height="12" width="12" patternUnits="userSpaceOnUse" id="cp4pattern"> <rect class="cp4color" height="12" width="12" y="0" x="0"></rect> <path fill="white" d="M0,0L3,0L3,3L0,3L0,0M6,0L9,0L9,3L6,3L6,0M3,3L6,3L6,6L3,6L3,3M9,3L12,3L12,6L9,6L9,3"></path> <path fill="white" d="M0,6L3,6L3,9L0,9L0,6M6,6L9,6L9,9L6,9L6,6M3,9L6,9L6,12L3,12L3,9M9,9L12,9L12,12L9,12L9,9"></path> </pattern> <pattern y="0" x="0" height="12" width="12" patternUnits="userSpaceOnUse" id="cp5pattern"> <rect class="cp5color" height="12" width="12" y="0" x="0"></rect> <path fill="black" d="M0,0L3,0L3,3L0,3L0,0M6,0L9,0L9,3L6,3L6,0M3,3L6,3L6,6L3,6L3,3M9,3L12,3L12,6L9,6L9,3"></path> <path fill="black" d="M0,6L3,6L3,9L0,9L0,6M6,6L9,6L9,9L6,9L6,6M3,9L6,9L6,12L3,12L3,9M9,9L12,9L12,12L9,12L9,9"></path> </pattern> <pattern y="0" x="0" height="12" width="12" patternUnits="userSpaceOnUse" id="cp6pattern"> <rect class="cp6color" height="12" width="12" y="0" x="0"></rect> <path fill="white" d="M0,0L3,0L3,3L0,3L0,0M6,0L9,0L9,3L6,3L6,0M3,3L6,3L6,6L3,6L3,3M9,3L12,3L12,6L9,6L9,3"></path> <path fill="white" d="M0,6L3,6L3,9L0,9L0,6M6,6L9,6L9,9L6,9L6,6M3,9L6,9L6,12L3,12L3,9M9,9L12,9L12,12L9,12L9,9"></path> </pattern> <pattern y="0" x="0" height="12" width="12" patternUnits="userSpaceOnUse" id="cp7pattern"> <rect class="cp7color" height="12" width="12" y="0" x="0"></rect> <path fill="black" d="M0,0L3,0L3,3L0,3L0,0M6,0L9,0L9,3L6,3L6,0M3,3L6,3L6,6L3,6L3,3M9,3L12,3L12,6L9,6L9,3"></path> <path fill="black" d="M0,6L3,6L3,9L0,9L0,6M6,6L9,6L9,9L6,9L6,6M3,9L6,9L6,12L3,12L3,9M9,9L12,9L12,12L9,12L9,9"></path> </pattern> <pattern y="0" x="0" height="12" width="12" patternUnits="userSpaceOnUse" id="cp8pattern"> <rect class="cp8color" height="12" width="12" y="0" x="0"></rect> <path fill="white" d="M0,0L3,0L3,3L0,3L0,0M6,0L9,0L9,3L6,3L6,0M3,3L6,3L6,6L3,6L3,3M9,3L12,3L12,6L9,6L9,3"></path> <path fill="white" d="M0,6L3,6L3,9L0,9L0,6M6,6L9,6L9,9L6,9L6,6M3,9L6,9L6,12L3,12L3,9M9,9L12,9L12,12L9,12L9,9"></path> </pattern> <pattern y="0" x="0" height="12" width="12" patternUnits="userSpaceOnUse" id="cp9pattern"> <rect class="cp9color" height="12" width="12" y="0" x="0"></rect> <path fill="black" d="M0,0L3,0L3,3L0,3L0,0M6,0L9,0L9,3L6,3L6,0M3,3L6,3L6,6L3,6L3,3M9,3L12,3L12,6L9,6L9,3"></path> <path fill="black" d="M0,6L3,6L3,9L0,9L0,6M6,6L9,6L9,9L6,9L6,6M3,9L6,9L6,12L3,12L3,9M9,9L12,9L12,12L9,12L9,9"></path> </pattern> </defs> <rect height="100%" width="100%" y="0" x="0" class="grass" id="mainfill"></rect> <g id="paths"><path class="cp1" d="M504,132L504,132L576,132L576,156L504,156Z"></path><path class="cp2" d="M12,132L12,132L84,132L84,156L12,156Z"></path><path class="cp3" d="M516,420L516,420L576,420L576,444L516,444Z"></path><path class="cp4" d="M456,660L456,660L480,660L480,732L456,732Z"></path><path class="cp5" d="M36,624L36,624L132,624L132,636L120,636L120,648L36,648Z"></path><path class="cp6" d="M372,516L372,516L396,516L396,576L372,576Z"></path><path class="cp7" d="M780,480L780,480L864,480L864,492L852,492L852,504L768,504L768,492L780,492Z"></path><path class="road" d="M72,12L72,12L516,12L516,24L540,24L540,36L552,36L552,48L564,48L564,72L576,72L576,132L504,132L504,108L492,108L492,96L480,96L480,84L468,84L468,72L444,72L444,60L144,60L144,72L120,72L120,84L108,84L108,96L96,96L96,108L84,108L84,132L12,132L12,72L24,72L24,48L36,48L36,36L48,36L48,24L72,24L72,12M12,156L12,156L84,156L84,336L96,336L96,360L108,360L108,372L132,372L132,384L228,384L228,372L276,372L276,360L300,360L300,348L324,348L324,336L348,336L348,324L384,324L384,312L432,312L432,300L480,300L480,312L516,312L516,324L540,324L540,336L552,336L552,348L564,348L564,372L576,372L576,420L516,420L516,408L504,408L504,372L480,372L480,360L420,360L420,372L384,372L384,384L348,384L348,396L324,396L324,408L300,408L300,420L264,420L264,432L216,432L216,444L180,444L180,456L96,456L96,444L72,444L72,432L48,432L48,420L36,420L36,408L24,408L24,372L12,372L12,156M504,156L504,156L576,156L576,168L588,168L588,180L792,180L792,192L816,192L816,204L828,204L828,216L840,216L840,228L852,228L852,252L864,252L864,372L852,372L852,360L828,360L828,348L804,348L804,360L828,360L828,372L792,372L792,300L780,300L780,276L768,276L768,252L744,252L744,240L540,240L540,228L528,228L528,216L516,216L516,204L504,204L504,156M816,324L816,324L804,324L804,336L828,336L828,324L816,324M840,336L840,336L828,336L828,348L852,348L852,336L840,336M792,384L792,384L864,384L864,480L780,480L780,468L792,468L792,384M516,444L516,444L576,444L576,516L744,516L744,504L852,504L852,516L840,516L840,528L828,528L828,540L816,540L816,552L792,552L792,564L756,564L756,576L576,576L576,672L564,672L564,696L552,696L552,708L540,708L540,720L504,720L504,732L480,732L480,648L492,648L492,636L504,636L504,624L516,624L516,576L396,576L396,516L516,516L516,444M168,516L168,516L372,516L372,576L192,576L192,588L168,588L168,600L156,600L156,612L144,612L144,624L48,624L48,612L60,612L60,600L72,600L72,588L84,588L84,576L96,576L96,564L108,564L108,552L120,552L120,540L144,540L144,528L168,528L168,516M24,648L24,648L120,648L120,672L132,672L132,684L192,684L192,672L252,672L252,660L456,660L456,732L288,732L288,744L192,744L192,756L84,756L84,744L60,744L60,732L48,732L48,720L36,720L36,696L24,696Z"></path><path class="start" d="M804,324L804,324L828,324L828,336L804,336L804,324M828,336L828,336L852,336L852,348L828,348L828,336M828,348L828,348L828,360L804,360L804,348L828,348M828,360L828,360L852,360L852,372L828,372Z"></path><path class="finish" d="M792,372L792,372L864,372L864,384L792,384L792,372M732,696L732,696L768,696L768,708L744,708L744,720L756,720L756,732L744,732L744,744L768,744L768,756L732,756L732,696M780,696L780,696L804,696L804,708L792,708L792,720L804,720L804,708L816,708L816,720L804,720L804,732L792,732L792,744L804,744L804,732L816,732L816,744L804,744L804,756L780,756L780,696M828,696L828,696L840,696L840,720L852,720L852,696L864,696L864,756L852,756L852,732L828,732Z"></path></g> <rect opacity=".3" fill="url(#grid)" height="100%" width="100%" y="0" x="0"></rect></svg>