<svg height="816" width="852" id="mapSvgView" xmlns:xlink="http://www.w3.org/1999/xlink" version="1.1" xmlns="http://www.w3.org/2000/svg"> <defs> <style type="text/css"> .grass {fill: rgb(0, 200, 0);} .road {fill: rgb(128, 128, 128);} .start {fill: url(#startPattern)} .finish {fill: url(#finishPattern)} .mud {fill: rgb(100, 70, 0);} .sand {fill: rgb(230, 230, 115);} .water {fill: blue;} .earth {fill: brown;} .night {fill: black;} .parc {fill: rgb(200, 200, 200);} .cp1color {fill: rgb(0, 102, 255);} .cp2color {fill: rgb(0, 100, 200);} .cp3color {fill: rgb(0, 255, 102);} .cp4color {fill: rgb(0, 200, 0);} .cp5color {fill: rgb(255, 255, 0);} .cp6color {fill: rgb(200, 200, 0);} .cp7color {fill: rgb(255, 0, 0);} .cp8color {fill: rgb(200, 0, 0);} .cp9color {fill: rgb(255, 0, 255);} .cp1 {fill: url(#cp1pattern);} .cp2 {fill: url(#cp2pattern);} .cp3 {fill: url(#cp3pattern);} .cp4 {fill: url(#cp4pattern);} .cp5 {fill: url(#cp5pattern);} .cp6 {fill: url(#cp6pattern);} .cp7 {fill: url(#cp7pattern);} .cp8 {fill: url(#cp8pattern);} .cp9 {fill: url(#cp9pattern);} .primaryColor {fill: rgb(0, 255, 102);} </style> <pattern y="0" x="0" height="12" width="12" patternUnits="userSpaceOnUse" id="grid"> <line stroke-width="1" stroke="black" y2="12" x2="12" y1="0" x1="12"></line> <line stroke-width="1" stroke="black" y2="12" x2="12" y1="12" x1="0"></line> </pattern> <pattern y="0" x="0" height="12" width="12" patternUnits="userSpaceOnUse" id="finishPattern"> <rect fill="black" height="12" width="12" y="0" x="0"></rect> <path fill="white" d="M0,0L3,0L3,3L0,3L0,0M6,0L9,0L9,3L6,3L6,0M3,3L6,3L6,6L3,6L3,3M9,3L12,3L12,6L9,6L9,3"></path> <path fill="white" d="M0,6L3,6L3,9L0,9L0,6M6,6L9,6L9,9L6,9L6,6M3,9L6,9L6,12L3,12L3,9M9,9L12,9L12,12L9,12L9,9"></path> </pattern> <pattern y="0" x="0" height="12" width="12" patternUnits="userSpaceOnUse" id="startPattern"> <rect fill="rgb(100,100,100)" height="12" width="12" y="0" x="0"></rect> <rect stroke-width="1" stroke="rgb(200,200,200)" fill="none" height="5" width="5" y="3.5" x="3.5"></rect> &gt; </pattern> <pattern y="0" x="0" height="12" width="12" patternUnits="userSpaceOnUse" id="cp1pattern"> <rect class="cp1color" height="12" width="12" y="0" x="0"></rect> <path fill="black" d="M0,0L3,0L3,3L0,3L0,0M6,0L9,0L9,3L6,3L6,0M3,3L6,3L6,6L3,6L3,3M9,3L12,3L12,6L9,6L9,3"></path> <path fill="black" d="M0,6L3,6L3,9L0,9L0,6M6,6L9,6L9,9L6,9L6,6M3,9L6,9L6,12L3,12L3,9M9,9L12,9L12,12L9,12L9,9"></path> </pattern> <pattern y="0" x="0" height="12" width="12" patternUnits="userSpaceOnUse" id="cp2pattern"> <rect class="cp2color" height="12" width="12" y="0" x="0"></rect> <path fill="white" d="M0,0L3,0L3,3L0,3L0,0M6,0L9,0L9,3L6,3L6,0M3,3L6,3L6,6L3,6L3,3M9,3L12,3L12,6L9,6L9,3"></path> <path fill="white" d="M0,6L3,6L3,9L0,9L0,6M6,6L9,6L9,9L6,9L6,6M3,9L6,9L6,12L3,12L3,9M9,9L12,9L12,12L9,12L9,9"></path> </pattern> <pattern y="0" x="0" height="12" width="12" patternUnits="userSpaceOnUse" id="cp3pattern"> <rect class="cp3color" height="12" width="12" y="0" x="0"></rect> <path fill="black" d="M0,0L3,0L3,3L0,3L0,0M6,0L9,0L9,3L6,3L6,0M3,3L6,3L6,6L3,6L3,3M9,3L12,3L12,6L9,6L9,3"></path> <path fill="black" d="M0,6L3,6L3,9L0,9L0,6M6,6L9,6L9,9L6,9L6,6M3,9L6,9L6,12L3,12L3,9M9,9L12,9L12,12L9,12L9,9"></path> </pattern> <pattern y="0" x="0" height="12" width="12" patternUnits="userSpaceOnUse" id="cp4pattern"> <rect class="cp4color" height="12" width="12" y="0" x="0"></rect> <path fill="white" d="M0,0L3,0L3,3L0,3L0,0M6,0L9,0L9,3L6,3L6,0M3,3L6,3L6,6L3,6L3,3M9,3L12,3L12,6L9,6L9,3"></path> <path fill="white" d="M0,6L3,6L3,9L0,9L0,6M6,6L9,6L9,9L6,9L6,6M3,9L6,9L6,12L3,12L3,9M9,9L12,9L12,12L9,12L9,9"></path> </pattern> <pattern y="0" x="0" height="12" width="12" patternUnits="userSpaceOnUse" id="cp5pattern"> <rect class="cp5color" height="12" width="12" y="0" x="0"></rect> <path fill="black" d="M0,0L3,0L3,3L0,3L0,0M6,0L9,0L9,3L6,3L6,0M3,3L6,3L6,6L3,6L3,3M9,3L12,3L12,6L9,6L9,3"></path> <path fill="black" d="M0,6L3,6L3,9L0,9L0,6M6,6L9,6L9,9L6,9L6,6M3,9L6,9L6,12L3,12L3,9M9,9L12,9L12,12L9,12L9,9"></path> </pattern> <pattern y="0" x="0" height="12" width="12" patternUnits="userSpaceOnUse" id="cp6pattern"> <rect class="cp6color" height="12" width="12" y="0" x="0"></rect> <path fill="white" d="M0,0L3,0L3,3L0,3L0,0M6,0L9,0L9,3L6,3L6,0M3,3L6,3L6,6L3,6L3,3M9,3L12,3L12,6L9,6L9,3"></path> <path fill="white" d="M0,6L3,6L3,9L0,9L0,6M6,6L9,6L9,9L6,9L6,6M3,9L6,9L6,12L3,12L3,9M9,9L12,9L12,12L9,12L9,9"></path> </pattern> <pattern y="0" x="0" height="12" width="12" patternUnits="userSpaceOnUse" id="cp7pattern"> <rect class="cp7color" height="12" width="12" y="0" x="0"></rect> <path fill="black" d="M0,0L3,0L3,3L0,3L0,0M6,0L9,0L9,3L6,3L6,0M3,3L6,3L6,6L3,6L3,3M9,3L12,3L12,6L9,6L9,3"></path> <path fill="black" d="M0,6L3,6L3,9L0,9L0,6M6,6L9,6L9,9L6,9L6,6M3,9L6,9L6,12L3,12L3,9M9,9L12,9L12,12L9,12L9,9"></path> </pattern> <pattern y="0" x="0" height="12" width="12" patternUnits="userSpaceOnUse" id="cp8pattern"> <rect class="cp8color" height="12" width="12" y="0" x="0"></rect> <path fill="white" d="M0,0L3,0L3,3L0,3L0,0M6,0L9,0L9,3L6,3L6,0M3,3L6,3L6,6L3,6L3,3M9,3L12,3L12,6L9,6L9,3"></path> <path fill="white" d="M0,6L3,6L3,9L0,9L0,6M6,6L9,6L9,9L6,9L6,6M3,9L6,9L6,12L3,12L3,9M9,9L12,9L12,12L9,12L9,9"></path> </pattern> <pattern y="0" x="0" height="12" width="12" patternUnits="userSpaceOnUse" id="cp9pattern"> <rect class="cp9color" height="12" width="12" y="0" x="0"></rect> <path fill="black" d="M0,0L3,0L3,3L0,3L0,0M6,0L9,0L9,3L6,3L6,0M3,3L6,3L6,6L3,6L3,3M9,3L12,3L12,6L9,6L9,3"></path> <path fill="black" d="M0,6L3,6L3,9L0,9L0,6M6,6L9,6L9,9L6,9L6,6M3,9L6,9L6,12L3,12L3,9M9,9L12,9L12,12L9,12L9,9"></path> </pattern> </defs> <rect height="100%" width="100%" y="0" x="0" class="grass" id="mainfill"></rect> <g id="paths"><path class="cp1" d="M612,24L612,24L636,24L636,84L612,84Z"></path><path class="cp2" d="M144,276L144,276L240,276L240,300L144,300Z"></path><path class="cp3" d="M372,624L372,624L384,624L384,636L396,636L396,732L372,732Z"></path><path class="road" d="M552,12L552,12L588,12L588,24L612,24L612,96L552,96L552,120L492,120L492,132L480,132L480,144L348,144L348,156L312,156L312,168L300,168L300,180L264,180L264,192L240,192L240,204L228,204L228,216L216,216L216,252L228,252L228,276L144,276L144,228L156,228L156,204L168,204L168,180L180,180L180,168L204,168L204,156L240,156L240,144L264,144L264,132L288,132L288,120L312,120L312,108L336,108L336,96L360,96L360,84L408,84L408,72L432,72L432,60L456,60L456,48L480,48L480,36L516,36L516,24L552,24L552,12M636,12L636,12L744,12L744,24L768,24L768,36L792,36L792,48L816,48L816,60L828,60L828,84L840,84L840,108L828,108L828,132L816,132L816,156L804,156L804,168L780,168L780,180L768,180L768,192L756,192L756,204L744,204L744,216L732,216L732,228L720,228L720,276L732,276L732,288L744,288L744,300L756,300L756,312L768,312L768,324L780,324L780,336L792,336L792,360L804,360L804,372L816,372L816,396L828,396L828,492L816,492L816,480L792,480L792,468L768,468L768,480L792,480L792,492L756,492L756,420L744,420L744,396L732,396L732,384L708,384L708,372L696,372L696,360L672,360L672,348L648,348L648,336L624,336L624,312L612,312L612,264L600,264L600,240L612,240L612,228L624,228L624,216L636,216L636,192L660,192L660,180L672,180L672,108L660,108L660,96L636,96L636,12M156,300L156,300L240,300L240,312L228,312L228,336L216,336L216,360L204,360L204,384L192,384L192,396L156,396L156,408L132,408L132,420L108,420L108,432L96,432L96,444L72,444L72,672L84,672L84,696L96,696L96,708L108,708L108,720L180,720L180,708L216,708L216,696L228,696L228,684L240,684L240,672L264,672L264,660L276,660L276,648L300,648L300,636L312,636L312,624L372,624L372,732L360,732L360,744L336,744L336,756L288,756L288,768L240,768L240,780L192,780L192,792L156,792L156,780L132,780L132,792L120,792L120,804L72,804L72,792L48,792L48,780L36,780L36,768L24,768L24,744L12,744L12,432L24,432L24,408L36,408L36,396L48,396L48,384L60,384L60,372L96,372L96,360L132,360L132,348L144,348L144,324L156,324L156,300M780,444L780,444L768,444L768,456L792,456L792,444L780,444M804,456L804,456L792,456L792,468L816,468L816,456L804,456M756,504L756,504L828,504L828,660L816,660L816,708L804,708L804,732L792,732L792,744L780,744L780,756L756,756L756,768L744,768L744,780L672,780L672,792L516,792L516,780L480,780L480,768L468,768L468,756L444,756L444,744L420,744L420,732L396,732L396,636L432,636L432,648L456,648L456,672L468,672L468,684L480,684L480,696L516,696L516,708L684,708L684,696L708,696L708,684L732,684L732,672L744,672L744,552L756,552Z"></path><path class="finish" d="M48,48L48,48L84,48L84,60L60,60L60,72L72,72L72,84L60,84L60,96L84,96L84,108L48,108L48,48M96,48L96,48L120,48L120,60L108,60L108,72L120,72L120,60L132,60L132,72L120,72L120,84L108,84L108,96L120,96L120,84L132,84L132,96L120,96L120,108L96,108L96,48M144,48L144,48L156,48L156,72L168,72L168,48L180,48L180,108L168,108L168,84L144,84L144,48M756,492L756,492L828,492L828,504L756,504Z"></path><path class="start" d="M768,444L768,444L792,444L792,456L768,456L768,444M792,456L792,456L816,456L816,468L792,468L792,456M792,468L792,468L792,480L768,480L768,468L792,468M792,480L792,480L816,480L816,492L792,492Z"></path></g> <rect opacity=".3" fill="url(#grid)" height="100%" width="100%" y="0" x="0"></rect></svg>