<svg height="876" width="936" id="mapSvgView" xmlns:xlink="http://www.w3.org/1999/xlink" version="1.1" xmlns="http://www.w3.org/2000/svg"> <defs> <style type="text/css"> .grass {fill: rgb(0, 200, 0);} .road {fill: rgb(128, 128, 128);} .start {fill: url(#startPattern)} .finish {fill: url(#finishPattern)} .mud {fill: rgb(100, 70, 0);} .sand {fill: rgb(230, 230, 115);} .water {fill: blue;} .earth {fill: brown;} .night {fill: black;} .parc {fill: rgb(200, 200, 200);} .cp1color {fill: rgb(0, 102, 255);} .cp2color {fill: rgb(0, 100, 200);} .cp3color {fill: rgb(0, 255, 102);} .cp4color {fill: rgb(0, 200, 0);} .cp5color {fill: rgb(255, 255, 0);} .cp6color {fill: rgb(200, 200, 0);} .cp7color {fill: rgb(255, 0, 0);} .cp8color {fill: rgb(200, 0, 0);} .cp9color {fill: rgb(255, 0, 255);} .cp1 {fill: url(#cp1pattern);} .cp2 {fill: url(#cp2pattern);} .cp3 {fill: url(#cp3pattern);} .cp4 {fill: url(#cp4pattern);} .cp5 {fill: url(#cp5pattern);} .cp6 {fill: url(#cp6pattern);} .cp7 {fill: url(#cp7pattern);} .cp8 {fill: url(#cp8pattern);} .cp9 {fill: url(#cp9pattern);} .primaryColor {fill: rgb(0, 255, 102);} </style> <pattern y="0" x="0" height="12" width="12" patternUnits="userSpaceOnUse" id="grid"> <line stroke-width="1" stroke="black" y2="12" x2="12" y1="0" x1="12"></line> <line stroke-width="1" stroke="black" y2="12" x2="12" y1="12" x1="0"></line> </pattern> <pattern y="0" x="0" height="12" width="12" patternUnits="userSpaceOnUse" id="finishPattern"> <rect fill="black" height="12" width="12" y="0" x="0"></rect> <path fill="white" d="M0,0L3,0L3,3L0,3L0,0M6,0L9,0L9,3L6,3L6,0M3,3L6,3L6,6L3,6L3,3M9,3L12,3L12,6L9,6L9,3"></path> <path fill="white" d="M0,6L3,6L3,9L0,9L0,6M6,6L9,6L9,9L6,9L6,6M3,9L6,9L6,12L3,12L3,9M9,9L12,9L12,12L9,12L9,9"></path> </pattern> <pattern y="0" x="0" height="12" width="12" patternUnits="userSpaceOnUse" id="startPattern"> <rect fill="rgb(100,100,100)" height="12" width="12" y="0" x="0"></rect> <rect stroke-width="1" stroke="rgb(200,200,200)" fill="none" height="5" width="5" y="3.5" x="3.5"></rect> &gt; </pattern> <pattern y="0" x="0" height="12" width="12" patternUnits="userSpaceOnUse" id="cp1pattern"> <rect class="cp1color" height="12" width="12" y="0" x="0"></rect> <path fill="black" d="M0,0L3,0L3,3L0,3L0,0M6,0L9,0L9,3L6,3L6,0M3,3L6,3L6,6L3,6L3,3M9,3L12,3L12,6L9,6L9,3"></path> <path fill="black" d="M0,6L3,6L3,9L0,9L0,6M6,6L9,6L9,9L6,9L6,6M3,9L6,9L6,12L3,12L3,9M9,9L12,9L12,12L9,12L9,9"></path> </pattern> <pattern y="0" x="0" height="12" width="12" patternUnits="userSpaceOnUse" id="cp2pattern"> <rect class="cp2color" height="12" width="12" y="0" x="0"></rect> <path fill="white" d="M0,0L3,0L3,3L0,3L0,0M6,0L9,0L9,3L6,3L6,0M3,3L6,3L6,6L3,6L3,3M9,3L12,3L12,6L9,6L9,3"></path> <path fill="white" d="M0,6L3,6L3,9L0,9L0,6M6,6L9,6L9,9L6,9L6,6M3,9L6,9L6,12L3,12L3,9M9,9L12,9L12,12L9,12L9,9"></path> </pattern> <pattern y="0" x="0" height="12" width="12" patternUnits="userSpaceOnUse" id="cp3pattern"> <rect class="cp3color" height="12" width="12" y="0" x="0"></rect> <path fill="black" d="M0,0L3,0L3,3L0,3L0,0M6,0L9,0L9,3L6,3L6,0M3,3L6,3L6,6L3,6L3,3M9,3L12,3L12,6L9,6L9,3"></path> <path fill="black" d="M0,6L3,6L3,9L0,9L0,6M6,6L9,6L9,9L6,9L6,6M3,9L6,9L6,12L3,12L3,9M9,9L12,9L12,12L9,12L9,9"></path> </pattern> <pattern y="0" x="0" height="12" width="12" patternUnits="userSpaceOnUse" id="cp4pattern"> <rect class="cp4color" height="12" width="12" y="0" x="0"></rect> <path fill="white" d="M0,0L3,0L3,3L0,3L0,0M6,0L9,0L9,3L6,3L6,0M3,3L6,3L6,6L3,6L3,3M9,3L12,3L12,6L9,6L9,3"></path> <path fill="white" d="M0,6L3,6L3,9L0,9L0,6M6,6L9,6L9,9L6,9L6,6M3,9L6,9L6,12L3,12L3,9M9,9L12,9L12,12L9,12L9,9"></path> </pattern> <pattern y="0" x="0" height="12" width="12" patternUnits="userSpaceOnUse" id="cp5pattern"> <rect class="cp5color" height="12" width="12" y="0" x="0"></rect> <path fill="black" d="M0,0L3,0L3,3L0,3L0,0M6,0L9,0L9,3L6,3L6,0M3,3L6,3L6,6L3,6L3,3M9,3L12,3L12,6L9,6L9,3"></path> <path fill="black" d="M0,6L3,6L3,9L0,9L0,6M6,6L9,6L9,9L6,9L6,6M3,9L6,9L6,12L3,12L3,9M9,9L12,9L12,12L9,12L9,9"></path> </pattern> <pattern y="0" x="0" height="12" width="12" patternUnits="userSpaceOnUse" id="cp6pattern"> <rect class="cp6color" height="12" width="12" y="0" x="0"></rect> <path fill="white" d="M0,0L3,0L3,3L0,3L0,0M6,0L9,0L9,3L6,3L6,0M3,3L6,3L6,6L3,6L3,3M9,3L12,3L12,6L9,6L9,3"></path> <path fill="white" d="M0,6L3,6L3,9L0,9L0,6M6,6L9,6L9,9L6,9L6,6M3,9L6,9L6,12L3,12L3,9M9,9L12,9L12,12L9,12L9,9"></path> </pattern> <pattern y="0" x="0" height="12" width="12" patternUnits="userSpaceOnUse" id="cp7pattern"> <rect class="cp7color" height="12" width="12" y="0" x="0"></rect> <path fill="black" d="M0,0L3,0L3,3L0,3L0,0M6,0L9,0L9,3L6,3L6,0M3,3L6,3L6,6L3,6L3,3M9,3L12,3L12,6L9,6L9,3"></path> <path fill="black" d="M0,6L3,6L3,9L0,9L0,6M6,6L9,6L9,9L6,9L6,6M3,9L6,9L6,12L3,12L3,9M9,9L12,9L12,12L9,12L9,9"></path> </pattern> <pattern y="0" x="0" height="12" width="12" patternUnits="userSpaceOnUse" id="cp8pattern"> <rect class="cp8color" height="12" width="12" y="0" x="0"></rect> <path fill="white" d="M0,0L3,0L3,3L0,3L0,0M6,0L9,0L9,3L6,3L6,0M3,3L6,3L6,6L3,6L3,3M9,3L12,3L12,6L9,6L9,3"></path> <path fill="white" d="M0,6L3,6L3,9L0,9L0,6M6,6L9,6L9,9L6,9L6,6M3,9L6,9L6,12L3,12L3,9M9,9L12,9L12,12L9,12L9,9"></path> </pattern> <pattern y="0" x="0" height="12" width="12" patternUnits="userSpaceOnUse" id="cp9pattern"> <rect class="cp9color" height="12" width="12" y="0" x="0"></rect> <path fill="black" d="M0,0L3,0L3,3L0,3L0,0M6,0L9,0L9,3L6,3L6,0M3,3L6,3L6,6L3,6L3,3M9,3L12,3L12,6L9,6L9,3"></path> <path fill="black" d="M0,6L3,6L3,9L0,9L0,6M6,6L9,6L9,9L6,9L6,6M3,9L6,9L6,12L3,12L3,9M9,9L12,9L12,12L9,12L9,9"></path> </pattern> </defs> <rect height="100%" width="100%" y="0" x="0" class="grass" id="mainfill"></rect> <g id="paths"><path class="cp1" d="M12,12L12,12L36,12L36,24L48,24L48,36L60,36L60,48L72,48L72,60L84,60L84,72L96,72L96,84L84,84L84,96L72,96L72,84L60,84L60,72L48,72L48,60L36,60L36,48L24,48L24,36L12,36Z"></path><path class="cp2" d="M900,12L900,12L924,12L924,36L912,36L912,48L900,48L900,60L888,60L888,72L876,72L876,84L864,84L864,96L852,96L852,84L840,84L840,72L852,72L852,60L864,60L864,48L876,48L876,36L888,36L888,24L900,24Z"></path><path class="cp3" d="M252,180L252,180L276,180L276,192L288,192L288,204L300,204L300,216L312,216L312,228L324,228L324,240L336,240L336,252L324,252L324,264L312,264L312,252L300,252L300,240L288,240L288,228L276,228L276,216L264,216L264,204L252,204Z"></path><path class="cp4" d="M312,612L312,612L324,612L324,624L336,624L336,636L324,636L324,648L312,648L312,660L300,660L300,672L288,672L288,684L276,684L276,696L252,696L252,672L264,672L264,660L276,660L276,648L288,648L288,636L300,636L300,624L312,624Z"></path><path class="cp5" d="M780,780L780,780L792,780L792,792L804,792L804,804L816,804L816,816L828,816L828,828L840,828L840,840L852,840L852,864L828,864L828,852L816,852L816,840L804,840L804,828L792,828L792,816L780,816L780,804L768,804L768,792L780,792Z"></path><path class="cp6" d="M72,780L72,780L84,780L84,792L96,792L96,804L84,804L84,816L72,816L72,828L60,828L60,840L48,840L48,852L36,852L36,864L12,864L12,840L24,840L24,828L36,828L36,816L48,816L48,804L60,804L60,792L72,792Z"></path><path class="road" d="M36,12L36,12L900,12L900,24L888,24L888,36L876,36L876,48L864,48L864,60L852,60L852,72L840,72L840,84L96,84L96,72L84,72L84,60L72,60L72,48L60,48L60,36L48,36L48,24L36,24L36,12M12,36L12,36L24,36L24,48L36,48L36,60L48,60L48,72L60,72L60,84L72,84L72,96L84,96L84,372L72,372L72,360L48,360L48,348L24,348L24,360L48,360L48,372L12,372L12,36M912,36L912,36L924,36L924,360L624,360L624,252L468,252L468,420L396,420L396,252L336,252L336,240L324,240L324,228L312,228L312,216L300,216L300,204L288,204L288,192L276,192L276,180L756,180L756,264L852,264L852,96L864,96L864,84L876,84L876,72L888,72L888,60L900,60L900,48L912,48L912,36M252,204L252,204L264,204L264,216L276,216L276,228L288,228L288,240L300,240L300,252L312,252L312,264L324,264L324,612L312,612L312,624L300,624L300,636L288,636L288,648L276,648L276,660L264,660L264,672L252,672L252,204M36,324L36,324L24,324L24,336L48,336L48,324L36,324M60,336L60,336L48,336L48,348L72,348L72,336L60,336M12,384L12,384L84,384L84,780L72,780L72,792L60,792L60,804L48,804L48,816L36,816L36,828L24,828L24,840L12,840L12,384M396,504L396,504L852,504L852,840L840,840L840,828L828,828L828,816L816,816L816,804L804,804L804,792L792,792L792,780L780,780L780,696L660,696L660,576L588,576L588,696L276,696L276,684L288,684L288,672L300,672L300,660L312,660L312,648L324,648L324,636L336,636L336,624L396,624L396,504M468,576L468,576L456,576L456,588L444,588L444,612L456,612L456,624L528,624L528,612L540,612L540,588L528,588L528,576L468,576M732,576L732,576L720,576L720,588L708,588L708,636L720,636L720,648L768,648L768,636L780,636L780,588L768,588L768,576L732,576M96,792L96,792L180,792L180,804L156,804L156,816L180,816L180,804L204,804L204,816L180,816L180,840L156,840L156,852L180,852L180,840L204,840L204,816L264,816L264,804L288,804L288,816L264,816L264,840L204,840L204,852L180,852L180,864L36,864L36,852L48,852L48,840L60,840L60,828L72,828L72,816L84,816L84,804L96,804L96,792M372,792L372,792L396,792L396,804L372,804L372,792M372,804L372,804L372,816L396,816L396,804L408,804L408,792L504,792L504,828L552,828L552,792L768,792L768,804L780,804L780,816L792,816L792,828L804,828L804,840L816,840L816,852L828,852L828,864L612,864L612,828L564,828L564,864L480,864L480,828L408,828L408,816L396,816L396,828L372,828L372,840L396,840L396,828L408,828L408,840L396,840L396,852L312,852L312,840L288,840L288,816L312,816L312,804L372,804M264,840L264,840L288,840L288,852L264,852Z"></path><path class="start" d="M24,324L24,324L48,324L48,336L24,336L24,324M48,336L48,336L72,336L72,348L48,348L48,336M48,348L48,348L48,360L24,360L24,348L48,348M48,360L48,360L72,360L72,372L48,372Z"></path><path class="finish" d="M12,372L12,372L84,372L84,384L12,384L12,372M396,432L396,432L432,432L432,444L408,444L408,456L420,456L420,468L408,468L408,480L432,480L432,492L396,492L396,432M444,432L444,432L468,432L468,444L456,444L456,456L468,456L468,444L480,444L480,456L468,456L468,468L456,468L456,480L468,480L468,468L480,468L480,480L468,480L468,492L444,492L444,432M492,432L492,432L504,432L504,456L516,456L516,432L528,432L528,492L516,492L516,468L492,468Z"></path></g> <rect opacity=".3" fill="url(#grid)" height="100%" width="100%" y="0" x="0"></rect></svg>