<svg height="876" width="912" id="mapSvgView" xmlns:xlink="http://www.w3.org/1999/xlink" version="1.1" xmlns="http://www.w3.org/2000/svg"> <defs> <style type="text/css"> .grass {fill: rgb(0, 200, 0);} .road {fill: rgb(128, 128, 128);} .start {fill: url(#startPattern)} .finish {fill: url(#finishPattern)} .mud {fill: rgb(100, 70, 0);} .sand {fill: rgb(230, 230, 115);} .water {fill: blue;} .earth {fill: brown;} .night {fill: black;} .parc {fill: rgb(200, 200, 200);} .cp1color {fill: rgb(0, 102, 255);} .cp2color {fill: rgb(0, 100, 200);} .cp3color {fill: rgb(0, 255, 102);} .cp4color {fill: rgb(0, 200, 0);} .cp5color {fill: rgb(255, 255, 0);} .cp6color {fill: rgb(200, 200, 0);} .cp7color {fill: rgb(255, 0, 0);} .cp8color {fill: rgb(200, 0, 0);} .cp9color {fill: rgb(255, 0, 255);} .cp1 {fill: url(#cp1pattern);} .cp2 {fill: url(#cp2pattern);} .cp3 {fill: url(#cp3pattern);} .cp4 {fill: url(#cp4pattern);} .cp5 {fill: url(#cp5pattern);} .cp6 {fill: url(#cp6pattern);} .cp7 {fill: url(#cp7pattern);} .cp8 {fill: url(#cp8pattern);} .cp9 {fill: url(#cp9pattern);} .primaryColor {fill: rgb(0, 255, 102);} </style> <pattern y="0" x="0" height="12" width="12" patternUnits="userSpaceOnUse" id="grid"> <line stroke-width="1" stroke="black" y2="12" x2="12" y1="0" x1="12"></line> <line stroke-width="1" stroke="black" y2="12" x2="12" y1="12" x1="0"></line> </pattern> <pattern y="0" x="0" height="12" width="12" patternUnits="userSpaceOnUse" id="finishPattern"> <rect fill="black" height="12" width="12" y="0" x="0"></rect> <path fill="white" d="M0,0L3,0L3,3L0,3L0,0M6,0L9,0L9,3L6,3L6,0M3,3L6,3L6,6L3,6L3,3M9,3L12,3L12,6L9,6L9,3"></path> <path fill="white" d="M0,6L3,6L3,9L0,9L0,6M6,6L9,6L9,9L6,9L6,6M3,9L6,9L6,12L3,12L3,9M9,9L12,9L12,12L9,12L9,9"></path> </pattern> <pattern y="0" x="0" height="12" width="12" patternUnits="userSpaceOnUse" id="startPattern"> <rect fill="rgb(100,100,100)" height="12" width="12" y="0" x="0"></rect> <rect stroke-width="1" stroke="rgb(200,200,200)" fill="none" height="5" width="5" y="3.5" x="3.5"></rect> &gt; </pattern> <pattern y="0" x="0" height="12" width="12" patternUnits="userSpaceOnUse" id="cp1pattern"> <rect class="cp1color" height="12" width="12" y="0" x="0"></rect> <path fill="black" d="M0,0L3,0L3,3L0,3L0,0M6,0L9,0L9,3L6,3L6,0M3,3L6,3L6,6L3,6L3,3M9,3L12,3L12,6L9,6L9,3"></path> <path fill="black" d="M0,6L3,6L3,9L0,9L0,6M6,6L9,6L9,9L6,9L6,6M3,9L6,9L6,12L3,12L3,9M9,9L12,9L12,12L9,12L9,9"></path> </pattern> <pattern y="0" x="0" height="12" width="12" patternUnits="userSpaceOnUse" id="cp2pattern"> <rect class="cp2color" height="12" width="12" y="0" x="0"></rect> <path fill="white" d="M0,0L3,0L3,3L0,3L0,0M6,0L9,0L9,3L6,3L6,0M3,3L6,3L6,6L3,6L3,3M9,3L12,3L12,6L9,6L9,3"></path> <path fill="white" d="M0,6L3,6L3,9L0,9L0,6M6,6L9,6L9,9L6,9L6,6M3,9L6,9L6,12L3,12L3,9M9,9L12,9L12,12L9,12L9,9"></path> </pattern> <pattern y="0" x="0" height="12" width="12" patternUnits="userSpaceOnUse" id="cp3pattern"> <rect class="cp3color" height="12" width="12" y="0" x="0"></rect> <path fill="black" d="M0,0L3,0L3,3L0,3L0,0M6,0L9,0L9,3L6,3L6,0M3,3L6,3L6,6L3,6L3,3M9,3L12,3L12,6L9,6L9,3"></path> <path fill="black" d="M0,6L3,6L3,9L0,9L0,6M6,6L9,6L9,9L6,9L6,6M3,9L6,9L6,12L3,12L3,9M9,9L12,9L12,12L9,12L9,9"></path> </pattern> <pattern y="0" x="0" height="12" width="12" patternUnits="userSpaceOnUse" id="cp4pattern"> <rect class="cp4color" height="12" width="12" y="0" x="0"></rect> <path fill="white" d="M0,0L3,0L3,3L0,3L0,0M6,0L9,0L9,3L6,3L6,0M3,3L6,3L6,6L3,6L3,3M9,3L12,3L12,6L9,6L9,3"></path> <path fill="white" d="M0,6L3,6L3,9L0,9L0,6M6,6L9,6L9,9L6,9L6,6M3,9L6,9L6,12L3,12L3,9M9,9L12,9L12,12L9,12L9,9"></path> </pattern> <pattern y="0" x="0" height="12" width="12" patternUnits="userSpaceOnUse" id="cp5pattern"> <rect class="cp5color" height="12" width="12" y="0" x="0"></rect> <path fill="black" d="M0,0L3,0L3,3L0,3L0,0M6,0L9,0L9,3L6,3L6,0M3,3L6,3L6,6L3,6L3,3M9,3L12,3L12,6L9,6L9,3"></path> <path fill="black" d="M0,6L3,6L3,9L0,9L0,6M6,6L9,6L9,9L6,9L6,6M3,9L6,9L6,12L3,12L3,9M9,9L12,9L12,12L9,12L9,9"></path> </pattern> <pattern y="0" x="0" height="12" width="12" patternUnits="userSpaceOnUse" id="cp6pattern"> <rect class="cp6color" height="12" width="12" y="0" x="0"></rect> <path fill="white" d="M0,0L3,0L3,3L0,3L0,0M6,0L9,0L9,3L6,3L6,0M3,3L6,3L6,6L3,6L3,3M9,3L12,3L12,6L9,6L9,3"></path> <path fill="white" d="M0,6L3,6L3,9L0,9L0,6M6,6L9,6L9,9L6,9L6,6M3,9L6,9L6,12L3,12L3,9M9,9L12,9L12,12L9,12L9,9"></path> </pattern> <pattern y="0" x="0" height="12" width="12" patternUnits="userSpaceOnUse" id="cp7pattern"> <rect class="cp7color" height="12" width="12" y="0" x="0"></rect> <path fill="black" d="M0,0L3,0L3,3L0,3L0,0M6,0L9,0L9,3L6,3L6,0M3,3L6,3L6,6L3,6L3,3M9,3L12,3L12,6L9,6L9,3"></path> <path fill="black" d="M0,6L3,6L3,9L0,9L0,6M6,6L9,6L9,9L6,9L6,6M3,9L6,9L6,12L3,12L3,9M9,9L12,9L12,12L9,12L9,9"></path> </pattern> <pattern y="0" x="0" height="12" width="12" patternUnits="userSpaceOnUse" id="cp8pattern"> <rect class="cp8color" height="12" width="12" y="0" x="0"></rect> <path fill="white" d="M0,0L3,0L3,3L0,3L0,0M6,0L9,0L9,3L6,3L6,0M3,3L6,3L6,6L3,6L3,3M9,3L12,3L12,6L9,6L9,3"></path> <path fill="white" d="M0,6L3,6L3,9L0,9L0,6M6,6L9,6L9,9L6,9L6,6M3,9L6,9L6,12L3,12L3,9M9,9L12,9L12,12L9,12L9,9"></path> </pattern> <pattern y="0" x="0" height="12" width="12" patternUnits="userSpaceOnUse" id="cp9pattern"> <rect class="cp9color" height="12" width="12" y="0" x="0"></rect> <path fill="black" d="M0,0L3,0L3,3L0,3L0,0M6,0L9,0L9,3L6,3L6,0M3,3L6,3L6,6L3,6L3,3M9,3L12,3L12,6L9,6L9,3"></path> <path fill="black" d="M0,6L3,6L3,9L0,9L0,6M6,6L9,6L9,9L6,9L6,6M3,9L6,9L6,12L3,12L3,9M9,9L12,9L12,12L9,12L9,9"></path> </pattern> </defs> <rect height="100%" width="100%" y="0" x="0" class="grass" id="mainfill"></rect> <g id="paths"><path class="cp1" d="M444,252L444,252L468,252L468,300L444,300Z"></path><path class="cp2" d="M840,252L840,252L900,252L900,276L840,276Z"></path><path class="cp3" d="M840,648L840,648L900,648L900,672L840,672Z"></path><path class="cp4" d="M156,804L156,804L180,804L180,816L168,816L168,828L156,828L156,840L144,840L144,852L120,852L120,840L132,840L132,828L144,828L144,816L156,816Z"></path><path class="road" d="M108,12L108,12L228,12L228,24L252,24L252,36L264,36L264,48L276,48L276,60L288,60L288,72L300,72L300,96L312,96L312,108L324,108L324,132L336,132L336,144L348,144L348,180L360,180L360,204L372,204L372,216L384,216L384,240L408,240L408,252L444,252L444,300L396,300L396,288L360,288L360,276L336,276L336,264L324,264L324,252L312,252L312,240L300,240L300,216L288,216L288,180L276,180L276,156L264,156L264,132L252,132L252,120L240,120L240,108L216,108L216,96L132,96L132,108L108,108L108,132L96,132L96,156L84,156L84,408L72,408L72,396L48,396L48,384L24,384L24,396L48,396L48,408L12,408L12,144L24,144L24,108L36,108L36,72L48,72L48,48L60,48L60,36L72,36L72,24L108,24L108,12M648,36L648,36L804,36L804,48L828,48L828,60L840,60L840,72L852,72L852,84L864,84L864,96L876,96L876,120L888,120L888,156L900,156L900,252L840,252L840,168L828,168L828,144L816,144L816,132L804,132L804,120L792,120L792,108L780,108L780,96L756,96L756,84L696,84L696,96L660,96L660,108L648,108L648,144L636,144L636,180L624,180L624,204L612,204L612,252L588,252L588,264L576,264L576,276L564,276L564,288L528,288L528,300L468,300L468,252L516,252L516,240L540,240L540,228L552,228L552,180L564,180L564,144L576,144L576,96L588,96L588,72L600,72L600,60L624,60L624,48L648,48L648,36M840,276L840,276L900,276L900,288L888,288L888,324L876,324L876,348L864,348L864,372L852,372L852,384L804,384L804,396L756,396L756,408L696,408L696,420L648,420L648,432L588,432L588,444L540,444L540,456L480,456L480,468L432,468L432,480L384,480L384,516L588,516L588,504L744,504L744,516L804,516L804,528L828,528L828,540L852,540L852,552L864,552L864,564L876,564L876,588L888,588L888,612L900,612L900,648L840,648L840,624L828,624L828,600L816,600L816,588L792,588L792,576L432,576L432,588L336,588L336,576L324,576L324,564L300,564L300,552L288,552L288,528L276,528L276,480L288,480L288,468L300,468L300,456L312,456L312,444L348,444L348,432L408,432L408,420L456,420L456,408L504,408L504,396L552,396L552,384L600,384L600,372L648,372L648,360L696,360L696,348L744,348L744,336L792,336L792,324L816,324L816,312L828,312L828,300L840,300L840,276M36,360L36,360L24,360L24,372L48,372L48,360L36,360M60,372L60,372L48,372L48,384L72,384L72,372L60,372M12,420L12,420L84,420L84,648L96,648L96,744L108,744L108,768L120,768L120,792L144,792L144,804L156,804L156,816L144,816L144,828L132,828L132,840L96,840L96,828L84,828L84,816L72,816L72,804L60,804L60,792L48,792L48,780L36,780L36,756L24,756L24,684L12,684L12,420M408,672L408,672L552,672L552,684L576,684L576,696L588,696L588,720L600,720L600,768L612,768L612,780L708,780L708,768L744,768L744,756L780,756L780,744L804,744L804,732L816,732L816,720L828,720L828,696L840,696L840,672L900,672L900,708L888,708L888,732L876,732L876,756L864,756L864,768L852,768L852,780L840,780L840,792L828,792L828,804L804,804L804,816L756,816L756,828L576,828L576,816L564,816L564,804L552,804L552,792L540,792L540,768L528,768L528,744L516,744L516,732L432,732L432,744L408,744L408,756L384,756L384,768L372,768L372,780L360,780L360,792L348,792L348,804L336,804L336,816L312,816L312,828L288,828L288,840L264,840L264,852L228,852L228,864L144,864L144,840L156,840L156,828L168,828L168,816L204,816L204,804L228,804L228,792L264,792L264,780L288,780L288,768L312,768L312,756L324,756L324,744L336,744L336,732L348,732L348,720L360,720L360,708L372,708L372,696L384,696L384,684L408,684Z"></path><path class="start" d="M24,360L24,360L48,360L48,372L24,372L24,360M48,372L48,372L72,372L72,384L48,384L48,372M48,384L48,384L48,396L24,396L24,384L48,384M48,396L48,396L72,396L72,408L48,408Z"></path><path class="finish" d="M12,408L12,408L84,408L84,420L12,420L12,408M768,432L768,432L804,432L804,444L780,444L780,456L792,456L792,468L780,468L780,480L804,480L804,492L768,492L768,432M816,432L816,432L840,432L840,444L828,444L828,456L840,456L840,444L852,444L852,456L840,456L840,468L828,468L828,480L840,480L840,468L852,468L852,480L840,480L840,492L816,492L816,432M864,432L864,432L876,432L876,456L888,456L888,432L900,432L900,492L888,492L888,468L864,468Z"></path></g> <rect opacity=".3" fill="url(#grid)" height="100%" width="100%" y="0" x="0"></rect></svg>