<svg height="828" width="876" id="mapSvgView" xmlns:xlink="http://www.w3.org/1999/xlink" version="1.1" xmlns="http://www.w3.org/2000/svg"> <defs> <style type="text/css"> .grass {fill: rgb(0, 200, 0);} .road {fill: rgb(128, 128, 128);} .start {fill: url(#startPattern)} .finish {fill: url(#finishPattern)} .mud {fill: rgb(100, 70, 0);} .sand {fill: rgb(230, 230, 115);} .water {fill: blue;} .earth {fill: brown;} .night {fill: black;} .parc {fill: rgb(200, 200, 200);} .cp1color {fill: rgb(0, 102, 255);} .cp2color {fill: rgb(0, 100, 200);} .cp3color {fill: rgb(0, 255, 102);} .cp4color {fill: rgb(0, 200, 0);} .cp5color {fill: rgb(255, 255, 0);} .cp6color {fill: rgb(200, 200, 0);} .cp7color {fill: rgb(255, 0, 0);} .cp8color {fill: rgb(200, 0, 0);} .cp9color {fill: rgb(255, 0, 255);} .cp1 {fill: url(#cp1pattern);} .cp2 {fill: url(#cp2pattern);} .cp3 {fill: url(#cp3pattern);} .cp4 {fill: url(#cp4pattern);} .cp5 {fill: url(#cp5pattern);} .cp6 {fill: url(#cp6pattern);} .cp7 {fill: url(#cp7pattern);} .cp8 {fill: url(#cp8pattern);} .cp9 {fill: url(#cp9pattern);} .primaryColor {fill: rgb(0, 255, 102);} </style> <pattern y="0" x="0" height="12" width="12" patternUnits="userSpaceOnUse" id="grid"> <line stroke-width="1" stroke="black" y2="12" x2="12" y1="0" x1="12"></line> <line stroke-width="1" stroke="black" y2="12" x2="12" y1="12" x1="0"></line> </pattern> <pattern y="0" x="0" height="12" width="12" patternUnits="userSpaceOnUse" id="finishPattern"> <rect fill="black" height="12" width="12" y="0" x="0"></rect> <path fill="white" d="M0,0L3,0L3,3L0,3L0,0M6,0L9,0L9,3L6,3L6,0M3,3L6,3L6,6L3,6L3,3M9,3L12,3L12,6L9,6L9,3"></path> <path fill="white" d="M0,6L3,6L3,9L0,9L0,6M6,6L9,6L9,9L6,9L6,6M3,9L6,9L6,12L3,12L3,9M9,9L12,9L12,12L9,12L9,9"></path> </pattern> <pattern y="0" x="0" height="12" width="12" patternUnits="userSpaceOnUse" id="startPattern"> <rect fill="rgb(100,100,100)" height="12" width="12" y="0" x="0"></rect> <rect stroke-width="1" stroke="rgb(200,200,200)" fill="none" height="5" width="5" y="3.5" x="3.5"></rect> &gt; </pattern> <pattern y="0" x="0" height="12" width="12" patternUnits="userSpaceOnUse" id="cp1pattern"> <rect class="cp1color" height="12" width="12" y="0" x="0"></rect> <path fill="black" d="M0,0L3,0L3,3L0,3L0,0M6,0L9,0L9,3L6,3L6,0M3,3L6,3L6,6L3,6L3,3M9,3L12,3L12,6L9,6L9,3"></path> <path fill="black" d="M0,6L3,6L3,9L0,9L0,6M6,6L9,6L9,9L6,9L6,6M3,9L6,9L6,12L3,12L3,9M9,9L12,9L12,12L9,12L9,9"></path> </pattern> <pattern y="0" x="0" height="12" width="12" patternUnits="userSpaceOnUse" id="cp2pattern"> <rect class="cp2color" height="12" width="12" y="0" x="0"></rect> <path fill="white" d="M0,0L3,0L3,3L0,3L0,0M6,0L9,0L9,3L6,3L6,0M3,3L6,3L6,6L3,6L3,3M9,3L12,3L12,6L9,6L9,3"></path> <path fill="white" d="M0,6L3,6L3,9L0,9L0,6M6,6L9,6L9,9L6,9L6,6M3,9L6,9L6,12L3,12L3,9M9,9L12,9L12,12L9,12L9,9"></path> </pattern> <pattern y="0" x="0" height="12" width="12" patternUnits="userSpaceOnUse" id="cp3pattern"> <rect class="cp3color" height="12" width="12" y="0" x="0"></rect> <path fill="black" d="M0,0L3,0L3,3L0,3L0,0M6,0L9,0L9,3L6,3L6,0M3,3L6,3L6,6L3,6L3,3M9,3L12,3L12,6L9,6L9,3"></path> <path fill="black" d="M0,6L3,6L3,9L0,9L0,6M6,6L9,6L9,9L6,9L6,6M3,9L6,9L6,12L3,12L3,9M9,9L12,9L12,12L9,12L9,9"></path> </pattern> <pattern y="0" x="0" height="12" width="12" patternUnits="userSpaceOnUse" id="cp4pattern"> <rect class="cp4color" height="12" width="12" y="0" x="0"></rect> <path fill="white" d="M0,0L3,0L3,3L0,3L0,0M6,0L9,0L9,3L6,3L6,0M3,3L6,3L6,6L3,6L3,3M9,3L12,3L12,6L9,6L9,3"></path> <path fill="white" d="M0,6L3,6L3,9L0,9L0,6M6,6L9,6L9,9L6,9L6,6M3,9L6,9L6,12L3,12L3,9M9,9L12,9L12,12L9,12L9,9"></path> </pattern> <pattern y="0" x="0" height="12" width="12" patternUnits="userSpaceOnUse" id="cp5pattern"> <rect class="cp5color" height="12" width="12" y="0" x="0"></rect> <path fill="black" d="M0,0L3,0L3,3L0,3L0,0M6,0L9,0L9,3L6,3L6,0M3,3L6,3L6,6L3,6L3,3M9,3L12,3L12,6L9,6L9,3"></path> <path fill="black" d="M0,6L3,6L3,9L0,9L0,6M6,6L9,6L9,9L6,9L6,6M3,9L6,9L6,12L3,12L3,9M9,9L12,9L12,12L9,12L9,9"></path> </pattern> <pattern y="0" x="0" height="12" width="12" patternUnits="userSpaceOnUse" id="cp6pattern"> <rect class="cp6color" height="12" width="12" y="0" x="0"></rect> <path fill="white" d="M0,0L3,0L3,3L0,3L0,0M6,0L9,0L9,3L6,3L6,0M3,3L6,3L6,6L3,6L3,3M9,3L12,3L12,6L9,6L9,3"></path> <path fill="white" d="M0,6L3,6L3,9L0,9L0,6M6,6L9,6L9,9L6,9L6,6M3,9L6,9L6,12L3,12L3,9M9,9L12,9L12,12L9,12L9,9"></path> </pattern> <pattern y="0" x="0" height="12" width="12" patternUnits="userSpaceOnUse" id="cp7pattern"> <rect class="cp7color" height="12" width="12" y="0" x="0"></rect> <path fill="black" d="M0,0L3,0L3,3L0,3L0,0M6,0L9,0L9,3L6,3L6,0M3,3L6,3L6,6L3,6L3,3M9,3L12,3L12,6L9,6L9,3"></path> <path fill="black" d="M0,6L3,6L3,9L0,9L0,6M6,6L9,6L9,9L6,9L6,6M3,9L6,9L6,12L3,12L3,9M9,9L12,9L12,12L9,12L9,9"></path> </pattern> <pattern y="0" x="0" height="12" width="12" patternUnits="userSpaceOnUse" id="cp8pattern"> <rect class="cp8color" height="12" width="12" y="0" x="0"></rect> <path fill="white" d="M0,0L3,0L3,3L0,3L0,0M6,0L9,0L9,3L6,3L6,0M3,3L6,3L6,6L3,6L3,3M9,3L12,3L12,6L9,6L9,3"></path> <path fill="white" d="M0,6L3,6L3,9L0,9L0,6M6,6L9,6L9,9L6,9L6,6M3,9L6,9L6,12L3,12L3,9M9,9L12,9L12,12L9,12L9,9"></path> </pattern> <pattern y="0" x="0" height="12" width="12" patternUnits="userSpaceOnUse" id="cp9pattern"> <rect class="cp9color" height="12" width="12" y="0" x="0"></rect> <path fill="black" d="M0,0L3,0L3,3L0,3L0,0M6,0L9,0L9,3L6,3L6,0M3,3L6,3L6,6L3,6L3,3M9,3L12,3L12,6L9,6L9,3"></path> <path fill="black" d="M0,6L3,6L3,9L0,9L0,6M6,6L9,6L9,9L6,9L6,6M3,9L6,9L6,12L3,12L3,9M9,9L12,9L12,12L9,12L9,9"></path> </pattern> </defs> <rect height="100%" width="100%" y="0" x="0" class="grass" id="mainfill"></rect> <g id="paths"><path class="cp1" d="M168,300L168,300L264,300L264,324L168,324Z"></path><path class="cp2" d="M744,84L744,84L864,84L864,108L744,108Z"></path><path class="cp3" d="M636,648L636,648L732,648L732,672L636,672Z"></path><path class="road" d="M492,12L492,12L504,12L504,24L516,24L516,12L720,12L720,24L780,24L780,36L816,36L816,48L840,48L840,60L852,60L852,72L864,72L864,84L732,84L732,72L696,72L696,60L672,60L672,48L552,48L552,60L528,60L528,72L504,72L504,84L492,84L492,96L468,96L468,108L456,108L456,120L324,120L324,108L288,108L288,96L264,96L264,84L228,84L228,72L180,72L180,60L156,60L156,72L132,72L132,84L108,84L108,108L96,108L96,144L84,144L84,156L96,156L96,168L120,168L120,180L168,180L168,192L204,192L204,204L216,204L216,216L228,216L228,228L240,228L240,240L252,240L252,300L168,300L168,276L156,276L156,264L144,264L144,252L120,252L120,240L84,240L84,228L60,228L60,216L36,216L36,204L24,204L24,180L12,180L12,120L24,120L24,72L48,72L48,60L72,60L72,48L84,48L84,36L144,36L144,24L204,24L204,36L228,36L228,48L312,48L312,60L324,60L324,72L372,72L372,84L396,84L396,72L408,72L408,60L432,60L432,48L456,48L456,36L480,36L480,24L492,24L492,12M732,108L732,108L864,108L864,144L852,144L852,156L840,156L840,168L828,168L828,180L804,180L804,192L780,192L780,204L768,204L768,216L756,216L756,228L744,228L744,252L732,252L732,228L720,228L720,216L696,216L696,228L684,228L684,264L696,264L696,276L720,276L720,264L756,264L756,288L768,288L768,300L780,300L780,324L792,324L792,336L804,336L804,348L816,348L816,360L828,360L828,384L840,384L840,492L828,492L828,504L816,504L816,528L792,528L792,552L780,552L780,564L768,564L768,588L756,588L756,612L744,612L744,624L732,624L732,648L636,648L636,612L624,612L624,576L612,576L612,540L600,540L600,516L588,516L588,492L576,492L576,480L564,480L564,468L552,468L552,456L528,456L528,444L516,444L516,432L504,432L504,408L492,408L492,360L504,360L504,336L516,336L516,312L528,312L528,288L540,288L540,276L552,276L552,264L564,264L564,252L576,252L576,228L600,228L600,216L612,216L612,204L624,204L624,192L636,192L636,180L648,180L648,168L660,168L660,156L684,156L684,144L696,144L696,132L720,132L720,120L732,120L732,108M156,324L156,324L264,324L264,336L252,336L252,360L240,360L240,372L228,372L228,384L216,384L216,396L204,396L204,408L168,408L168,420L132,420L132,432L108,432L108,456L96,456L96,576L84,576L84,564L60,564L60,552L36,552L36,564L60,564L60,576L24,576L24,444L36,444L36,408L48,408L48,396L60,396L60,384L84,384L84,372L108,372L108,360L120,360L120,348L144,348L144,336L156,336L156,324M48,528L48,528L36,528L36,540L60,540L60,528L48,528M72,540L72,540L60,540L60,552L84,552L84,540L72,540M24,588L24,588L96,588L96,708L108,708L108,732L120,732L120,744L168,744L168,732L180,732L180,720L204,720L204,708L228,708L228,696L252,696L252,684L264,684L264,672L276,672L276,660L288,660L288,648L360,648L360,636L432,636L432,648L456,648L456,660L468,660L468,672L492,672L492,696L612,696L612,684L624,684L624,672L732,672L732,720L720,720L720,732L708,732L708,744L696,744L696,756L660,756L660,768L624,768L624,780L600,780L600,792L528,792L528,780L504,780L504,768L456,768L456,756L384,756L384,768L348,768L348,780L324,780L324,792L312,792L312,804L252,804L252,816L84,816L84,804L60,804L60,792L48,792L48,780L36,780L36,756L24,756L24,732L12,732L12,720L24,720L24,696L12,696L12,648L24,648Z"></path><path class="start" d="M36,528L36,528L60,528L60,540L36,540L36,528M60,540L60,540L84,540L84,552L60,552L60,540M60,552L60,552L60,564L36,564L36,552L60,552M60,564L60,564L84,564L84,576L60,576Z"></path><path class="finish" d="M24,576L24,576L96,576L96,588L24,588L24,576M732,756L732,756L768,756L768,768L744,768L744,780L756,780L756,792L744,792L744,804L768,804L768,816L732,816L732,756M780,756L780,756L804,756L804,768L792,768L792,780L804,780L804,768L816,768L816,780L804,780L804,792L792,792L792,804L804,804L804,792L816,792L816,804L804,804L804,816L780,816L780,756M828,756L828,756L840,756L840,780L852,780L852,756L864,756L864,816L852,816L852,792L828,792Z"></path></g> <rect opacity=".3" fill="url(#grid)" height="100%" width="100%" y="0" x="0"></rect></svg>