<svg height="804" width="900" id="mapSvgView" xmlns:xlink="http://www.w3.org/1999/xlink" version="1.1" xmlns="http://www.w3.org/2000/svg"> <defs> <style type="text/css"> .grass {fill: rgb(0, 200, 0);} .road {fill: rgb(128, 128, 128);} .start {fill: url(#startPattern)} .finish {fill: url(#finishPattern)} .mud {fill: rgb(100, 70, 0);} .sand {fill: rgb(230, 230, 115);} .water {fill: blue;} .earth {fill: brown;} .night {fill: black;} .parc {fill: rgb(200, 200, 200);} .cp1color {fill: rgb(0, 102, 255);} .cp2color {fill: rgb(0, 100, 200);} .cp3color {fill: rgb(0, 255, 102);} .cp4color {fill: rgb(0, 200, 0);} .cp5color {fill: rgb(255, 255, 0);} .cp6color {fill: rgb(200, 200, 0);} .cp7color {fill: rgb(255, 0, 0);} .cp8color {fill: rgb(200, 0, 0);} .cp9color {fill: rgb(255, 0, 255);} .cp1 {fill: url(#cp1pattern);} .cp2 {fill: url(#cp2pattern);} .cp3 {fill: url(#cp3pattern);} .cp4 {fill: url(#cp4pattern);} .cp5 {fill: url(#cp5pattern);} .cp6 {fill: url(#cp6pattern);} .cp7 {fill: url(#cp7pattern);} .cp8 {fill: url(#cp8pattern);} .cp9 {fill: url(#cp9pattern);} .primaryColor {fill: rgb(0, 255, 102);} </style> <pattern y="0" x="0" height="12" width="12" patternUnits="userSpaceOnUse" id="grid"> <line stroke-width="1" stroke="black" y2="12" x2="12" y1="0" x1="12"></line> <line stroke-width="1" stroke="black" y2="12" x2="12" y1="12" x1="0"></line> </pattern> <pattern y="0" x="0" height="12" width="12" patternUnits="userSpaceOnUse" id="finishPattern"> <rect fill="black" height="12" width="12" y="0" x="0"></rect> <path fill="white" d="M0,0L3,0L3,3L0,3L0,0M6,0L9,0L9,3L6,3L6,0M3,3L6,3L6,6L3,6L3,3M9,3L12,3L12,6L9,6L9,3"></path> <path fill="white" d="M0,6L3,6L3,9L0,9L0,6M6,6L9,6L9,9L6,9L6,6M3,9L6,9L6,12L3,12L3,9M9,9L12,9L12,12L9,12L9,9"></path> </pattern> <pattern y="0" x="0" height="12" width="12" patternUnits="userSpaceOnUse" id="startPattern"> <rect fill="rgb(100,100,100)" height="12" width="12" y="0" x="0"></rect> <rect stroke-width="1" stroke="rgb(200,200,200)" fill="none" height="5" width="5" y="3.5" x="3.5"></rect> &gt; </pattern> <pattern y="0" x="0" height="12" width="12" patternUnits="userSpaceOnUse" id="cp1pattern"> <rect class="cp1color" height="12" width="12" y="0" x="0"></rect> <path fill="black" d="M0,0L3,0L3,3L0,3L0,0M6,0L9,0L9,3L6,3L6,0M3,3L6,3L6,6L3,6L3,3M9,3L12,3L12,6L9,6L9,3"></path> <path fill="black" d="M0,6L3,6L3,9L0,9L0,6M6,6L9,6L9,9L6,9L6,6M3,9L6,9L6,12L3,12L3,9M9,9L12,9L12,12L9,12L9,9"></path> </pattern> <pattern y="0" x="0" height="12" width="12" patternUnits="userSpaceOnUse" id="cp2pattern"> <rect class="cp2color" height="12" width="12" y="0" x="0"></rect> <path fill="white" d="M0,0L3,0L3,3L0,3L0,0M6,0L9,0L9,3L6,3L6,0M3,3L6,3L6,6L3,6L3,3M9,3L12,3L12,6L9,6L9,3"></path> <path fill="white" d="M0,6L3,6L3,9L0,9L0,6M6,6L9,6L9,9L6,9L6,6M3,9L6,9L6,12L3,12L3,9M9,9L12,9L12,12L9,12L9,9"></path> </pattern> <pattern y="0" x="0" height="12" width="12" patternUnits="userSpaceOnUse" id="cp3pattern"> <rect class="cp3color" height="12" width="12" y="0" x="0"></rect> <path fill="black" d="M0,0L3,0L3,3L0,3L0,0M6,0L9,0L9,3L6,3L6,0M3,3L6,3L6,6L3,6L3,3M9,3L12,3L12,6L9,6L9,3"></path> <path fill="black" d="M0,6L3,6L3,9L0,9L0,6M6,6L9,6L9,9L6,9L6,6M3,9L6,9L6,12L3,12L3,9M9,9L12,9L12,12L9,12L9,9"></path> </pattern> <pattern y="0" x="0" height="12" width="12" patternUnits="userSpaceOnUse" id="cp4pattern"> <rect class="cp4color" height="12" width="12" y="0" x="0"></rect> <path fill="white" d="M0,0L3,0L3,3L0,3L0,0M6,0L9,0L9,3L6,3L6,0M3,3L6,3L6,6L3,6L3,3M9,3L12,3L12,6L9,6L9,3"></path> <path fill="white" d="M0,6L3,6L3,9L0,9L0,6M6,6L9,6L9,9L6,9L6,6M3,9L6,9L6,12L3,12L3,9M9,9L12,9L12,12L9,12L9,9"></path> </pattern> <pattern y="0" x="0" height="12" width="12" patternUnits="userSpaceOnUse" id="cp5pattern"> <rect class="cp5color" height="12" width="12" y="0" x="0"></rect> <path fill="black" d="M0,0L3,0L3,3L0,3L0,0M6,0L9,0L9,3L6,3L6,0M3,3L6,3L6,6L3,6L3,3M9,3L12,3L12,6L9,6L9,3"></path> <path fill="black" d="M0,6L3,6L3,9L0,9L0,6M6,6L9,6L9,9L6,9L6,6M3,9L6,9L6,12L3,12L3,9M9,9L12,9L12,12L9,12L9,9"></path> </pattern> <pattern y="0" x="0" height="12" width="12" patternUnits="userSpaceOnUse" id="cp6pattern"> <rect class="cp6color" height="12" width="12" y="0" x="0"></rect> <path fill="white" d="M0,0L3,0L3,3L0,3L0,0M6,0L9,0L9,3L6,3L6,0M3,3L6,3L6,6L3,6L3,3M9,3L12,3L12,6L9,6L9,3"></path> <path fill="white" d="M0,6L3,6L3,9L0,9L0,6M6,6L9,6L9,9L6,9L6,6M3,9L6,9L6,12L3,12L3,9M9,9L12,9L12,12L9,12L9,9"></path> </pattern> <pattern y="0" x="0" height="12" width="12" patternUnits="userSpaceOnUse" id="cp7pattern"> <rect class="cp7color" height="12" width="12" y="0" x="0"></rect> <path fill="black" d="M0,0L3,0L3,3L0,3L0,0M6,0L9,0L9,3L6,3L6,0M3,3L6,3L6,6L3,6L3,3M9,3L12,3L12,6L9,6L9,3"></path> <path fill="black" d="M0,6L3,6L3,9L0,9L0,6M6,6L9,6L9,9L6,9L6,6M3,9L6,9L6,12L3,12L3,9M9,9L12,9L12,12L9,12L9,9"></path> </pattern> <pattern y="0" x="0" height="12" width="12" patternUnits="userSpaceOnUse" id="cp8pattern"> <rect class="cp8color" height="12" width="12" y="0" x="0"></rect> <path fill="white" d="M0,0L3,0L3,3L0,3L0,0M6,0L9,0L9,3L6,3L6,0M3,3L6,3L6,6L3,6L3,3M9,3L12,3L12,6L9,6L9,3"></path> <path fill="white" d="M0,6L3,6L3,9L0,9L0,6M6,6L9,6L9,9L6,9L6,6M3,9L6,9L6,12L3,12L3,9M9,9L12,9L12,12L9,12L9,9"></path> </pattern> <pattern y="0" x="0" height="12" width="12" patternUnits="userSpaceOnUse" id="cp9pattern"> <rect class="cp9color" height="12" width="12" y="0" x="0"></rect> <path fill="black" d="M0,0L3,0L3,3L0,3L0,0M6,0L9,0L9,3L6,3L6,0M3,3L6,3L6,6L3,6L3,3M9,3L12,3L12,6L9,6L9,3"></path> <path fill="black" d="M0,6L3,6L3,9L0,9L0,6M6,6L9,6L9,9L6,9L6,6M3,9L6,9L6,12L3,12L3,9M9,9L12,9L12,12L9,12L9,9"></path> </pattern> </defs> <rect height="100%" width="100%" y="0" x="0" class="grass" id="mainfill"></rect> <g id="paths"><path class="cp1" d="M324,72L324,72L348,72L348,120L324,120Z"></path><path class="cp2" d="M60,624L60,624L204,624L204,648L60,648Z"></path><path class="cp3" d="M708,636L708,636L732,636L732,720L708,720Z"></path><path class="road" d="M492,12L492,12L504,12L504,24L528,24L528,36L552,36L552,60L564,60L564,72L576,72L576,84L600,84L600,96L612,96L612,108L624,108L624,120L636,120L636,132L648,132L648,144L660,144L660,156L672,156L672,168L684,168L684,180L696,180L696,192L708,192L708,204L720,204L720,216L732,216L732,228L744,228L744,240L756,240L756,252L768,252L768,264L744,264L744,276L720,276L720,288L672,288L672,372L684,372L684,420L672,420L672,408L648,408L648,396L624,396L624,408L648,408L648,420L612,420L612,408L600,408L600,384L588,384L588,372L600,372L600,336L588,336L588,252L576,252L576,180L564,180L564,168L552,168L552,156L528,156L528,132L480,132L480,120L456,120L456,108L444,108L444,120L432,120L432,132L420,132L420,120L408,120L408,108L372,108L372,120L360,120L360,132L348,132L348,60L360,60L360,48L372,48L372,36L432,36L432,24L492,24L492,12M192,24L192,24L288,24L288,36L300,36L300,48L312,48L312,60L324,60L324,120L312,120L312,132L300,132L300,144L288,144L288,132L264,132L264,108L252,108L252,120L228,120L228,132L192,132L192,156L180,156L180,168L168,168L168,192L156,192L156,264L228,264L228,288L240,288L240,300L252,300L252,312L264,312L264,288L300,288L300,264L396,264L396,348L384,348L384,384L372,384L372,420L360,420L360,444L348,444L348,456L336,456L336,468L324,468L324,480L312,480L312,492L300,492L300,504L288,504L288,516L276,516L276,528L240,528L240,540L228,540L228,552L216,552L216,576L204,576L204,624L48,624L48,612L36,612L36,588L24,588L24,504L12,504L12,468L24,468L24,432L36,432L36,360L60,360L60,348L72,348L72,324L60,324L60,312L48,312L48,240L36,240L36,156L48,156L48,144L60,144L60,132L72,132L72,120L84,120L84,108L96,108L96,84L120,84L120,72L132,72L132,60L156,60L156,48L180,48L180,36L192,36L192,24M756,276L756,276L792,276L792,288L804,288L804,312L816,312L816,324L828,324L828,336L840,336L840,360L852,360L852,384L864,384L864,420L876,420L876,468L888,468L888,636L876,636L876,660L864,660L864,672L840,672L840,684L816,684L816,696L780,696L780,708L732,708L732,636L744,636L744,624L780,624L780,612L792,612L792,600L804,600L804,576L816,576L816,552L828,552L828,492L816,492L816,468L804,468L804,444L792,444L792,420L780,420L780,396L768,396L768,372L756,372L756,348L744,348L744,336L732,336L732,312L720,312L720,300L732,300L732,288L756,288L756,276M108,312L108,312L96,312L96,360L108,360L108,384L120,384L120,372L132,372L132,384L144,384L144,360L156,360L156,336L144,336L144,324L132,324L132,312L120,312L120,324L108,324L108,312M288,312L288,312L276,312L276,324L264,324L264,336L252,336L252,324L228,324L228,372L300,372L300,360L312,360L312,348L300,348L300,336L288,336L288,312M180,324L180,324L168,324L168,360L192,360L192,348L204,348L204,324L180,324M636,372L636,372L624,372L624,384L648,384L648,372L636,372M660,384L660,384L648,384L648,396L672,396L672,384L660,384M216,396L216,396L204,396L204,420L216,420L216,432L228,432L228,444L240,444L240,432L252,432L252,408L276,408L276,396L216,396M84,408L84,408L72,408L72,420L60,420L60,432L72,432L72,444L84,444L84,432L96,432L96,420L84,420L84,408M156,420L156,420L144,420L144,468L156,468L156,480L168,480L168,456L180,456L180,420L156,420M216,444L216,444L204,444L204,468L228,468L228,456L216,456L216,444M48,468L48,468L36,468L36,504L60,504L60,492L72,492L72,468L48,468M108,468L108,468L96,468L96,480L84,480L84,504L108,504L108,516L96,516L96,528L108,528L108,540L120,540L120,528L168,528L168,504L144,504L144,516L120,516L120,480L108,480L108,468M72,552L72,552L60,552L60,564L48,564L48,588L60,588L60,600L72,600L72,576L84,576L84,564L72,564L72,552M564,576L564,576L600,576L600,588L612,588L612,600L636,600L636,612L672,612L672,624L696,624L696,636L708,636L708,720L696,720L696,708L684,708L684,696L672,696L672,684L648,684L648,672L600,672L600,660L588,660L588,648L564,648L564,660L552,660L552,684L540,684L540,708L504,708L504,720L492,720L492,732L480,732L480,744L468,744L468,756L456,756L456,780L432,780L432,792L312,792L312,780L288,780L288,768L192,768L192,756L168,756L168,744L144,744L144,732L120,732L120,720L108,720L108,708L96,708L96,696L84,696L84,648L216,648L216,660L204,660L204,684L228,684L228,696L312,696L312,708L324,708L324,720L360,720L360,708L372,708L372,696L384,696L384,684L444,684L444,672L456,672L456,648L480,648L480,636L492,636L492,624L504,624L504,612L540,612L540,600L552,600L552,588L564,588Z"></path><path class="finish" d="M768,252L768,252L780,252L780,276L756,276L756,288L732,288L732,300L708,300L708,288L720,288L720,276L744,276L744,264L768,264L768,252M756,732L756,732L792,732L792,744L768,744L768,756L780,756L780,768L768,768L768,780L792,780L792,792L756,792L756,732M804,732L804,732L828,732L828,744L816,744L816,756L828,756L828,744L840,744L840,756L828,756L828,768L816,768L816,780L828,780L828,768L840,768L840,780L828,780L828,792L804,792L804,732M852,732L852,732L864,732L864,756L876,756L876,732L888,732L888,792L876,792L876,768L852,768Z"></path><path class="start" d="M624,372L624,372L648,372L648,384L624,384L624,372M648,384L648,384L672,384L672,396L648,396L648,384M648,396L648,396L648,408L624,408L624,396L648,396M648,408L648,408L672,408L672,420L648,420Z"></path></g> <rect opacity=".3" fill="url(#grid)" height="100%" width="100%" y="0" x="0"></rect></svg>