<svg height="792" width="888" id="mapSvgView" xmlns:xlink="http://www.w3.org/1999/xlink" version="1.1" xmlns="http://www.w3.org/2000/svg"> <defs> <style type="text/css"> .grass {fill: rgb(0, 200, 0);} .road {fill: rgb(128, 128, 128);} .start {fill: url(#startPattern)} .finish {fill: url(#finishPattern)} .mud {fill: rgb(100, 70, 0);} .sand {fill: rgb(230, 230, 115);} .water {fill: blue;} .earth {fill: brown;} .night {fill: black;} .parc {fill: rgb(200, 200, 200);} .cp1color {fill: rgb(0, 102, 255);} .cp2color {fill: rgb(0, 100, 200);} .cp3color {fill: rgb(0, 255, 102);} .cp4color {fill: rgb(0, 200, 0);} .cp5color {fill: rgb(255, 255, 0);} .cp6color {fill: rgb(200, 200, 0);} .cp7color {fill: rgb(255, 0, 0);} .cp8color {fill: rgb(200, 0, 0);} .cp9color {fill: rgb(255, 0, 255);} .cp1 {fill: url(#cp1pattern);} .cp2 {fill: url(#cp2pattern);} .cp3 {fill: url(#cp3pattern);} .cp4 {fill: url(#cp4pattern);} .cp5 {fill: url(#cp5pattern);} .cp6 {fill: url(#cp6pattern);} .cp7 {fill: url(#cp7pattern);} .cp8 {fill: url(#cp8pattern);} .cp9 {fill: url(#cp9pattern);} .primaryColor {fill: rgb(0, 255, 102);} </style> <pattern y="0" x="0" height="12" width="12" patternUnits="userSpaceOnUse" id="grid"> <line stroke-width="1" stroke="black" y2="12" x2="12" y1="0" x1="12"></line> <line stroke-width="1" stroke="black" y2="12" x2="12" y1="12" x1="0"></line> </pattern> <pattern y="0" x="0" height="12" width="12" patternUnits="userSpaceOnUse" id="finishPattern"> <rect fill="black" height="12" width="12" y="0" x="0"></rect> <path fill="white" d="M0,0L3,0L3,3L0,3L0,0M6,0L9,0L9,3L6,3L6,0M3,3L6,3L6,6L3,6L3,3M9,3L12,3L12,6L9,6L9,3"></path> <path fill="white" d="M0,6L3,6L3,9L0,9L0,6M6,6L9,6L9,9L6,9L6,6M3,9L6,9L6,12L3,12L3,9M9,9L12,9L12,12L9,12L9,9"></path> </pattern> <pattern y="0" x="0" height="12" width="12" patternUnits="userSpaceOnUse" id="startPattern"> <rect fill="rgb(100,100,100)" height="12" width="12" y="0" x="0"></rect> <rect stroke-width="1" stroke="rgb(200,200,200)" fill="none" height="5" width="5" y="3.5" x="3.5"></rect> &gt; </pattern> <pattern y="0" x="0" height="12" width="12" patternUnits="userSpaceOnUse" id="cp1pattern"> <rect class="cp1color" height="12" width="12" y="0" x="0"></rect> <path fill="black" d="M0,0L3,0L3,3L0,3L0,0M6,0L9,0L9,3L6,3L6,0M3,3L6,3L6,6L3,6L3,3M9,3L12,3L12,6L9,6L9,3"></path> <path fill="black" d="M0,6L3,6L3,9L0,9L0,6M6,6L9,6L9,9L6,9L6,6M3,9L6,9L6,12L3,12L3,9M9,9L12,9L12,12L9,12L9,9"></path> </pattern> <pattern y="0" x="0" height="12" width="12" patternUnits="userSpaceOnUse" id="cp2pattern"> <rect class="cp2color" height="12" width="12" y="0" x="0"></rect> <path fill="white" d="M0,0L3,0L3,3L0,3L0,0M6,0L9,0L9,3L6,3L6,0M3,3L6,3L6,6L3,6L3,3M9,3L12,3L12,6L9,6L9,3"></path> <path fill="white" d="M0,6L3,6L3,9L0,9L0,6M6,6L9,6L9,9L6,9L6,6M3,9L6,9L6,12L3,12L3,9M9,9L12,9L12,12L9,12L9,9"></path> </pattern> <pattern y="0" x="0" height="12" width="12" patternUnits="userSpaceOnUse" id="cp3pattern"> <rect class="cp3color" height="12" width="12" y="0" x="0"></rect> <path fill="black" d="M0,0L3,0L3,3L0,3L0,0M6,0L9,0L9,3L6,3L6,0M3,3L6,3L6,6L3,6L3,3M9,3L12,3L12,6L9,6L9,3"></path> <path fill="black" d="M0,6L3,6L3,9L0,9L0,6M6,6L9,6L9,9L6,9L6,6M3,9L6,9L6,12L3,12L3,9M9,9L12,9L12,12L9,12L9,9"></path> </pattern> <pattern y="0" x="0" height="12" width="12" patternUnits="userSpaceOnUse" id="cp4pattern"> <rect class="cp4color" height="12" width="12" y="0" x="0"></rect> <path fill="white" d="M0,0L3,0L3,3L0,3L0,0M6,0L9,0L9,3L6,3L6,0M3,3L6,3L6,6L3,6L3,3M9,3L12,3L12,6L9,6L9,3"></path> <path fill="white" d="M0,6L3,6L3,9L0,9L0,6M6,6L9,6L9,9L6,9L6,6M3,9L6,9L6,12L3,12L3,9M9,9L12,9L12,12L9,12L9,9"></path> </pattern> <pattern y="0" x="0" height="12" width="12" patternUnits="userSpaceOnUse" id="cp5pattern"> <rect class="cp5color" height="12" width="12" y="0" x="0"></rect> <path fill="black" d="M0,0L3,0L3,3L0,3L0,0M6,0L9,0L9,3L6,3L6,0M3,3L6,3L6,6L3,6L3,3M9,3L12,3L12,6L9,6L9,3"></path> <path fill="black" d="M0,6L3,6L3,9L0,9L0,6M6,6L9,6L9,9L6,9L6,6M3,9L6,9L6,12L3,12L3,9M9,9L12,9L12,12L9,12L9,9"></path> </pattern> <pattern y="0" x="0" height="12" width="12" patternUnits="userSpaceOnUse" id="cp6pattern"> <rect class="cp6color" height="12" width="12" y="0" x="0"></rect> <path fill="white" d="M0,0L3,0L3,3L0,3L0,0M6,0L9,0L9,3L6,3L6,0M3,3L6,3L6,6L3,6L3,3M9,3L12,3L12,6L9,6L9,3"></path> <path fill="white" d="M0,6L3,6L3,9L0,9L0,6M6,6L9,6L9,9L6,9L6,6M3,9L6,9L6,12L3,12L3,9M9,9L12,9L12,12L9,12L9,9"></path> </pattern> <pattern y="0" x="0" height="12" width="12" patternUnits="userSpaceOnUse" id="cp7pattern"> <rect class="cp7color" height="12" width="12" y="0" x="0"></rect> <path fill="black" d="M0,0L3,0L3,3L0,3L0,0M6,0L9,0L9,3L6,3L6,0M3,3L6,3L6,6L3,6L3,3M9,3L12,3L12,6L9,6L9,3"></path> <path fill="black" d="M0,6L3,6L3,9L0,9L0,6M6,6L9,6L9,9L6,9L6,6M3,9L6,9L6,12L3,12L3,9M9,9L12,9L12,12L9,12L9,9"></path> </pattern> <pattern y="0" x="0" height="12" width="12" patternUnits="userSpaceOnUse" id="cp8pattern"> <rect class="cp8color" height="12" width="12" y="0" x="0"></rect> <path fill="white" d="M0,0L3,0L3,3L0,3L0,0M6,0L9,0L9,3L6,3L6,0M3,3L6,3L6,6L3,6L3,3M9,3L12,3L12,6L9,6L9,3"></path> <path fill="white" d="M0,6L3,6L3,9L0,9L0,6M6,6L9,6L9,9L6,9L6,6M3,9L6,9L6,12L3,12L3,9M9,9L12,9L12,12L9,12L9,9"></path> </pattern> <pattern y="0" x="0" height="12" width="12" patternUnits="userSpaceOnUse" id="cp9pattern"> <rect class="cp9color" height="12" width="12" y="0" x="0"></rect> <path fill="black" d="M0,0L3,0L3,3L0,3L0,0M6,0L9,0L9,3L6,3L6,0M3,3L6,3L6,6L3,6L3,3M9,3L12,3L12,6L9,6L9,3"></path> <path fill="black" d="M0,6L3,6L3,9L0,9L0,6M6,6L9,6L9,9L6,9L6,6M3,9L6,9L6,12L3,12L3,9M9,9L12,9L12,12L9,12L9,9"></path> </pattern> </defs> <rect height="100%" width="100%" y="0" x="0" class="grass" id="mainfill"></rect> <g id="paths"><path class="cp1" d="M444,108L444,108L468,108L468,120L480,120L480,132L492,132L492,144L504,144L504,156L516,156L516,168L492,168L492,156L480,156L480,144L468,144L468,132L456,132L456,120L444,120Z"></path><path class="cp2" d="M60,396L60,396L132,396L132,420L48,420L48,408L60,408Z"></path><path class="cp3" d="M576,708L576,708L588,708L588,744L576,744Z"></path><path class="road" d="M576,12L576,12L636,12L636,24L672,24L672,36L684,36L684,48L696,48L696,60L720,60L720,72L732,72L732,84L744,84L744,96L756,96L756,108L780,108L780,120L804,120L804,132L816,132L816,192L828,192L828,288L840,288L840,312L852,312L852,336L840,336L840,384L816,384L816,372L792,372L792,384L720,384L720,348L708,348L708,300L720,300L720,288L732,288L732,276L720,276L720,264L708,264L708,252L696,252L696,240L672,240L672,228L684,228L684,216L672,216L672,204L660,204L660,192L648,192L648,156L612,156L612,168L564,168L564,144L540,144L540,156L504,156L504,144L492,144L492,132L480,132L480,120L468,120L468,108L456,108L456,96L480,96L480,84L492,84L492,60L516,60L516,48L528,48L528,36L540,36L540,24L576,24L576,12M372,60L372,60L396,60L396,72L408,72L408,84L432,84L432,108L444,108L444,120L456,120L456,132L468,132L468,144L480,144L480,156L492,156L492,180L468,180L468,204L456,204L456,216L444,216L444,240L432,240L432,252L408,252L408,240L396,240L396,204L384,204L384,192L372,192L372,216L360,216L360,240L348,240L348,228L324,228L324,216L312,216L312,204L288,204L288,192L264,192L264,180L252,180L252,192L228,192L228,300L216,300L216,312L204,312L204,324L192,324L192,336L180,336L180,348L168,348L168,360L156,360L156,372L144,372L144,396L48,396L48,372L36,372L36,360L48,360L48,348L60,348L60,336L72,336L72,300L84,300L84,276L108,276L108,264L120,264L120,252L144,252L144,228L132,228L132,216L108,216L108,180L132,180L132,144L144,144L144,132L156,132L156,120L192,120L192,108L252,108L252,96L300,96L300,84L312,84L312,72L372,72L372,60M756,336L756,336L744,336L744,348L768,348L768,336L756,336M804,348L804,348L792,348L792,360L816,360L816,348L804,348M756,360L756,360L744,360L744,372L768,372L768,360L756,360M696,396L696,396L840,396L840,408L828,408L828,456L840,456L840,468L852,468L852,504L864,504L864,540L852,540L852,576L840,576L840,588L828,588L828,600L816,600L816,612L804,612L804,624L756,624L756,636L732,636L732,648L720,648L720,660L696,660L696,696L684,696L684,708L660,708L660,720L612,720L612,732L588,732L588,684L600,684L600,648L612,648L612,636L624,636L624,552L648,552L648,540L684,540L684,528L708,528L708,516L696,516L696,504L684,504L684,492L672,492L672,480L708,480L708,456L684,456L684,444L672,444L672,432L648,432L648,420L660,420L660,408L696,408L696,396M48,420L48,420L144,420L144,432L156,432L156,444L168,444L168,468L156,468L156,480L204,480L204,492L192,492L192,516L180,516L180,540L168,540L168,564L156,564L156,588L168,588L168,612L156,612L156,624L144,624L144,636L120,636L120,648L96,648L96,672L84,672L84,696L96,696L96,684L120,684L120,672L132,672L132,660L156,660L156,648L192,648L192,612L204,612L204,600L216,600L216,624L204,624L204,684L228,684L228,672L240,672L240,648L264,648L264,636L276,636L276,624L288,624L288,612L312,612L312,636L336,636L336,624L324,624L324,600L348,600L348,612L360,612L360,624L372,624L372,552L384,552L384,540L396,540L396,576L420,576L420,540L432,540L432,516L468,516L468,528L504,528L504,540L516,540L516,576L552,576L552,588L564,588L564,648L576,648L576,732L540,732L540,720L528,720L528,696L516,696L516,684L504,684L504,648L480,648L480,636L456,636L456,660L444,660L444,696L432,696L432,708L336,708L336,696L276,696L276,708L252,708L252,720L240,720L240,732L228,732L228,744L192,744L192,756L168,756L168,768L144,768L144,780L120,780L120,768L60,768L60,756L36,756L36,744L24,744L24,660L12,660L12,648L0,648L0,612L12,612L12,588L24,588L24,564L48,564L48,540L72,540L72,528L84,528L84,540L96,540L96,480L84,480L84,468L72,468L72,456L60,456L60,432L48,432L48,420M228,540L228,540L264,540L264,564L240,564L240,552L228,552L228,540M432,576L432,576L420,576L420,588L408,588L408,636L396,636L396,624L372,624L372,636L336,636L336,660L348,660L348,684L360,684L360,672L372,672L372,636L384,636L384,648L396,648L396,660L408,660L408,672L432,672Z"></path><path class="start" d="M744,336L744,336L768,336L768,348L744,348L744,336M792,348L792,348L816,348L816,360L792,360L792,348M744,360L744,360L768,360L768,372L744,372L744,360M792,372L792,372L816,372L816,384L792,384Z"></path><path class="finish" d="M708,384L708,384L852,384L852,396L708,396L708,384M732,720L732,720L768,720L768,732L744,732L744,744L756,744L756,756L744,756L744,768L768,768L768,780L732,780L732,720M780,720L780,720L804,720L804,732L792,732L792,744L804,744L804,732L816,732L816,744L804,744L804,756L792,756L792,768L804,768L804,756L816,756L816,768L804,768L804,780L780,780L780,720M828,720L828,720L840,720L840,744L852,744L852,720L864,720L864,780L852,780L852,756L828,756Z"></path></g> <rect opacity=".3" fill="url(#grid)" height="100%" width="100%" y="0" x="0"></rect></svg>