<svg height="828" width="912" id="mapSvgView" xmlns:xlink="http://www.w3.org/1999/xlink" version="1.1" xmlns="http://www.w3.org/2000/svg"> <defs> <style type="text/css"> .grass {fill: rgb(0, 200, 0);} .road {fill: rgb(128, 128, 128);} .start {fill: url(#startPattern)} .finish {fill: url(#finishPattern)} .mud {fill: rgb(100, 70, 0);} .sand {fill: rgb(230, 230, 115);} .water {fill: blue;} .earth {fill: brown;} .night {fill: black;} .parc {fill: rgb(200, 200, 200);} .cp1color {fill: rgb(0, 102, 255);} .cp2color {fill: rgb(0, 100, 200);} .cp3color {fill: rgb(0, 255, 102);} .cp4color {fill: rgb(0, 200, 0);} .cp5color {fill: rgb(255, 255, 0);} .cp6color {fill: rgb(200, 200, 0);} .cp7color {fill: rgb(255, 0, 0);} .cp8color {fill: rgb(200, 0, 0);} .cp9color {fill: rgb(255, 0, 255);} .cp1 {fill: url(#cp1pattern);} .cp2 {fill: url(#cp2pattern);} .cp3 {fill: url(#cp3pattern);} .cp4 {fill: url(#cp4pattern);} .cp5 {fill: url(#cp5pattern);} .cp6 {fill: url(#cp6pattern);} .cp7 {fill: url(#cp7pattern);} .cp8 {fill: url(#cp8pattern);} .cp9 {fill: url(#cp9pattern);} .primaryColor {fill: rgb(0, 255, 102);} </style> <pattern y="0" x="0" height="12" width="12" patternUnits="userSpaceOnUse" id="grid"> <line stroke-width="1" stroke="black" y2="12" x2="12" y1="0" x1="12"></line> <line stroke-width="1" stroke="black" y2="12" x2="12" y1="12" x1="0"></line> </pattern> <pattern y="0" x="0" height="12" width="12" patternUnits="userSpaceOnUse" id="finishPattern"> <rect fill="black" height="12" width="12" y="0" x="0"></rect> <path fill="white" d="M0,0L3,0L3,3L0,3L0,0M6,0L9,0L9,3L6,3L6,0M3,3L6,3L6,6L3,6L3,3M9,3L12,3L12,6L9,6L9,3"></path> <path fill="white" d="M0,6L3,6L3,9L0,9L0,6M6,6L9,6L9,9L6,9L6,6M3,9L6,9L6,12L3,12L3,9M9,9L12,9L12,12L9,12L9,9"></path> </pattern> <pattern y="0" x="0" height="12" width="12" patternUnits="userSpaceOnUse" id="startPattern"> <rect fill="rgb(100,100,100)" height="12" width="12" y="0" x="0"></rect> <rect stroke-width="1" stroke="rgb(200,200,200)" fill="none" height="5" width="5" y="3.5" x="3.5"></rect> &gt; </pattern> <pattern y="0" x="0" height="12" width="12" patternUnits="userSpaceOnUse" id="cp1pattern"> <rect class="cp1color" height="12" width="12" y="0" x="0"></rect> <path fill="black" d="M0,0L3,0L3,3L0,3L0,0M6,0L9,0L9,3L6,3L6,0M3,3L6,3L6,6L3,6L3,3M9,3L12,3L12,6L9,6L9,3"></path> <path fill="black" d="M0,6L3,6L3,9L0,9L0,6M6,6L9,6L9,9L6,9L6,6M3,9L6,9L6,12L3,12L3,9M9,9L12,9L12,12L9,12L9,9"></path> </pattern> <pattern y="0" x="0" height="12" width="12" patternUnits="userSpaceOnUse" id="cp2pattern"> <rect class="cp2color" height="12" width="12" y="0" x="0"></rect> <path fill="white" d="M0,0L3,0L3,3L0,3L0,0M6,0L9,0L9,3L6,3L6,0M3,3L6,3L6,6L3,6L3,3M9,3L12,3L12,6L9,6L9,3"></path> <path fill="white" d="M0,6L3,6L3,9L0,9L0,6M6,6L9,6L9,9L6,9L6,6M3,9L6,9L6,12L3,12L3,9M9,9L12,9L12,12L9,12L9,9"></path> </pattern> <pattern y="0" x="0" height="12" width="12" patternUnits="userSpaceOnUse" id="cp3pattern"> <rect class="cp3color" height="12" width="12" y="0" x="0"></rect> <path fill="black" d="M0,0L3,0L3,3L0,3L0,0M6,0L9,0L9,3L6,3L6,0M3,3L6,3L6,6L3,6L3,3M9,3L12,3L12,6L9,6L9,3"></path> <path fill="black" d="M0,6L3,6L3,9L0,9L0,6M6,6L9,6L9,9L6,9L6,6M3,9L6,9L6,12L3,12L3,9M9,9L12,9L12,12L9,12L9,9"></path> </pattern> <pattern y="0" x="0" height="12" width="12" patternUnits="userSpaceOnUse" id="cp4pattern"> <rect class="cp4color" height="12" width="12" y="0" x="0"></rect> <path fill="white" d="M0,0L3,0L3,3L0,3L0,0M6,0L9,0L9,3L6,3L6,0M3,3L6,3L6,6L3,6L3,3M9,3L12,3L12,6L9,6L9,3"></path> <path fill="white" d="M0,6L3,6L3,9L0,9L0,6M6,6L9,6L9,9L6,9L6,6M3,9L6,9L6,12L3,12L3,9M9,9L12,9L12,12L9,12L9,9"></path> </pattern> <pattern y="0" x="0" height="12" width="12" patternUnits="userSpaceOnUse" id="cp5pattern"> <rect class="cp5color" height="12" width="12" y="0" x="0"></rect> <path fill="black" d="M0,0L3,0L3,3L0,3L0,0M6,0L9,0L9,3L6,3L6,0M3,3L6,3L6,6L3,6L3,3M9,3L12,3L12,6L9,6L9,3"></path> <path fill="black" d="M0,6L3,6L3,9L0,9L0,6M6,6L9,6L9,9L6,9L6,6M3,9L6,9L6,12L3,12L3,9M9,9L12,9L12,12L9,12L9,9"></path> </pattern> <pattern y="0" x="0" height="12" width="12" patternUnits="userSpaceOnUse" id="cp6pattern"> <rect class="cp6color" height="12" width="12" y="0" x="0"></rect> <path fill="white" d="M0,0L3,0L3,3L0,3L0,0M6,0L9,0L9,3L6,3L6,0M3,3L6,3L6,6L3,6L3,3M9,3L12,3L12,6L9,6L9,3"></path> <path fill="white" d="M0,6L3,6L3,9L0,9L0,6M6,6L9,6L9,9L6,9L6,6M3,9L6,9L6,12L3,12L3,9M9,9L12,9L12,12L9,12L9,9"></path> </pattern> <pattern y="0" x="0" height="12" width="12" patternUnits="userSpaceOnUse" id="cp7pattern"> <rect class="cp7color" height="12" width="12" y="0" x="0"></rect> <path fill="black" d="M0,0L3,0L3,3L0,3L0,0M6,0L9,0L9,3L6,3L6,0M3,3L6,3L6,6L3,6L3,3M9,3L12,3L12,6L9,6L9,3"></path> <path fill="black" d="M0,6L3,6L3,9L0,9L0,6M6,6L9,6L9,9L6,9L6,6M3,9L6,9L6,12L3,12L3,9M9,9L12,9L12,12L9,12L9,9"></path> </pattern> <pattern y="0" x="0" height="12" width="12" patternUnits="userSpaceOnUse" id="cp8pattern"> <rect class="cp8color" height="12" width="12" y="0" x="0"></rect> <path fill="white" d="M0,0L3,0L3,3L0,3L0,0M6,0L9,0L9,3L6,3L6,0M3,3L6,3L6,6L3,6L3,3M9,3L12,3L12,6L9,6L9,3"></path> <path fill="white" d="M0,6L3,6L3,9L0,9L0,6M6,6L9,6L9,9L6,9L6,6M3,9L6,9L6,12L3,12L3,9M9,9L12,9L12,12L9,12L9,9"></path> </pattern> <pattern y="0" x="0" height="12" width="12" patternUnits="userSpaceOnUse" id="cp9pattern"> <rect class="cp9color" height="12" width="12" y="0" x="0"></rect> <path fill="black" d="M0,0L3,0L3,3L0,3L0,0M6,0L9,0L9,3L6,3L6,0M3,3L6,3L6,6L3,6L3,3M9,3L12,3L12,6L9,6L9,3"></path> <path fill="black" d="M0,6L3,6L3,9L0,9L0,6M6,6L9,6L9,9L6,9L6,6M3,9L6,9L6,12L3,12L3,9M9,9L12,9L12,12L9,12L9,9"></path> </pattern> </defs> <rect height="100%" width="100%" y="0" x="0" class="grass" id="mainfill"></rect> <g id="paths"><path class="cp1" d="M24,12L24,12L36,12L36,24L48,24L48,36L60,36L60,48L72,48L72,60L84,60L84,84L60,84L60,72L48,72L48,60L36,60L36,48L24,48L24,36L12,36L12,24L24,24Z"></path><path class="cp2" d="M684,12L684,12L696,12L696,24L708,24L708,36L696,36L696,48L684,48L684,60L672,60L672,72L660,72L660,84L636,84L636,60L648,60L648,48L660,48L660,36L672,36L672,24L684,24Z"></path><path class="cp3" d="M636,312L636,312L660,312L660,324L672,324L672,336L684,336L684,348L696,348L696,360L708,360L708,372L696,372L696,384L684,384L684,372L672,372L672,360L660,360L660,348L648,348L648,336L636,336Z"></path><path class="cp4" d="M264,324L264,324L276,324L276,336L288,336L288,348L300,348L300,360L312,360L312,372L324,372L324,396L300,396L300,384L288,384L288,372L276,372L276,360L264,360L264,348L252,348L252,336L264,336Z"></path><path class="cp5" d="M300,492L300,492L324,492L324,516L312,516L312,528L300,528L300,540L288,540L288,552L276,552L276,564L264,564L264,552L252,552L252,540L264,540L264,528L276,528L276,516L288,516L288,504L300,504Z"></path><path class="cp6" d="M876,504L876,504L888,504L888,516L900,516L900,528L888,528L888,540L876,540L876,552L864,552L864,564L852,564L852,576L828,576L828,552L840,552L840,540L852,540L852,528L864,528L864,516L876,516Z"></path><path class="cp7" d="M828,720L828,720L852,720L852,732L864,732L864,744L876,744L876,756L888,756L888,768L900,768L900,780L888,780L888,792L876,792L876,780L864,780L864,768L852,768L852,756L840,756L840,744L828,744Z"></path><path class="cp8" d="M60,720L60,720L84,720L84,744L72,744L72,756L60,756L60,768L48,768L48,780L36,780L36,792L24,792L24,780L12,780L12,768L24,768L24,756L36,756L36,744L48,744L48,732L60,732Z"></path><path class="road" d="M36,12L36,12L684,12L684,24L672,24L672,36L660,36L660,48L648,48L648,60L636,60L636,72L84,72L84,60L72,60L72,48L60,48L60,36L48,36L48,24L36,24L36,12M12,36L12,36L24,36L24,48L36,48L36,60L48,60L48,72L60,72L60,84L72,84L72,252L48,252L48,264L72,264L72,276L48,276L48,288L12,288L12,276L36,276L36,264L12,264L12,252L36,252L36,240L12,240L12,36M696,36L696,36L708,36L708,360L696,360L696,348L684,348L684,336L672,336L672,324L660,324L660,312L648,312L648,84L660,84L660,72L672,72L672,60L684,60L684,48L696,48L696,36M12,300L12,300L72,300L72,720L60,720L60,732L48,732L48,744L36,744L36,756L24,756L24,768L12,768L12,300M276,324L276,324L636,324L636,336L648,336L648,348L660,348L660,360L672,360L672,372L684,372L684,384L324,384L324,372L312,372L312,360L300,360L300,348L288,348L288,336L276,336L276,324M252,348L252,348L264,348L264,360L276,360L276,372L288,372L288,384L300,384L300,396L312,396L312,492L300,492L300,504L288,504L288,516L276,516L276,528L264,528L264,540L252,540L252,348M324,504L324,504L876,504L876,516L864,516L864,528L852,528L852,540L840,540L840,552L828,552L828,564L276,564L276,552L288,552L288,540L300,540L300,528L312,528L312,516L324,516L324,504M888,528L888,528L900,528L900,768L888,768L888,756L876,756L876,744L864,744L864,732L852,732L852,720L840,720L840,576L852,576L852,564L864,564L864,552L876,552L876,540L888,540L888,528M204,708L204,708L444,708L444,720L468,720L468,732L504,732L504,744L804,744L804,732L828,732L828,744L840,744L840,756L852,756L852,768L864,768L864,780L876,780L876,792L756,792L756,780L504,780L504,792L468,792L468,804L444,804L444,816L204,816L204,804L156,804L156,792L36,792L36,780L48,780L48,768L60,768L60,756L72,756L72,744L84,744L84,732L156,732L156,720L204,720L204,708M240,744L240,744L228,744L228,756L204,756L204,768L228,768L228,780L384,780L384,768L408,768L408,756L384,756L384,744Z"></path><path class="finish" d="M768,12L768,12L804,12L804,24L780,24L780,36L792,36L792,48L780,48L780,60L804,60L804,72L768,72L768,12M816,12L816,12L840,12L840,24L828,24L828,36L840,36L840,24L852,24L852,36L840,36L840,48L828,48L828,60L840,60L840,48L852,48L852,60L840,60L840,72L816,72L816,12M864,12L864,12L876,12L876,36L888,36L888,12L900,12L900,72L888,72L888,48L864,48L864,12M12,288L12,288L72,288L72,300L12,300Z"></path><path class="start" d="M12,240L12,240L36,240L36,252L12,252L12,240M48,252L48,252L72,252L72,264L48,264L48,252M12,264L12,264L36,264L36,276L12,276L12,264M48,276L48,276L72,276L72,288L48,288Z"></path></g> <rect opacity=".3" fill="url(#grid)" height="100%" width="100%" y="0" x="0"></rect></svg>