<svg height="420" width="1788" id="mapSvgView" xmlns:xlink="http://www.w3.org/1999/xlink" version="1.1" xmlns="http://www.w3.org/2000/svg"> <defs> <style type="text/css"> .grass {fill: rgb(0, 200, 0);} .road {fill: rgb(128, 128, 128);} .start {fill: url(#startPattern)} .finish {fill: url(#finishPattern)} .mud {fill: rgb(100, 70, 0);} .sand {fill: rgb(230, 230, 115);} .water {fill: blue;} .earth {fill: brown;} .night {fill: black;} .parc {fill: rgb(200, 200, 200);} .cp1color {fill: rgb(0, 102, 255);} .cp2color {fill: rgb(0, 100, 200);} .cp3color {fill: rgb(0, 255, 102);} .cp4color {fill: rgb(0, 200, 0);} .cp5color {fill: rgb(255, 255, 0);} .cp6color {fill: rgb(200, 200, 0);} .cp7color {fill: rgb(255, 0, 0);} .cp8color {fill: rgb(200, 0, 0);} .cp9color {fill: rgb(255, 0, 255);} .cp1 {fill: url(#cp1pattern);} .cp2 {fill: url(#cp2pattern);} .cp3 {fill: url(#cp3pattern);} .cp4 {fill: url(#cp4pattern);} .cp5 {fill: url(#cp5pattern);} .cp6 {fill: url(#cp6pattern);} .cp7 {fill: url(#cp7pattern);} .cp8 {fill: url(#cp8pattern);} .cp9 {fill: url(#cp9pattern);} .primaryColor {fill: rgb(0, 255, 102);} </style> <pattern y="0" x="0" height="12" width="12" patternUnits="userSpaceOnUse" id="grid"> <line stroke-width="1" stroke="black" y2="12" x2="12" y1="0" x1="12"></line> <line stroke-width="1" stroke="black" y2="12" x2="12" y1="12" x1="0"></line> </pattern> <pattern y="0" x="0" height="12" width="12" patternUnits="userSpaceOnUse" id="finishPattern"> <rect fill="black" height="12" width="12" y="0" x="0"></rect> <path fill="white" d="M0,0L3,0L3,3L0,3L0,0M6,0L9,0L9,3L6,3L6,0M3,3L6,3L6,6L3,6L3,3M9,3L12,3L12,6L9,6L9,3"></path> <path fill="white" d="M0,6L3,6L3,9L0,9L0,6M6,6L9,6L9,9L6,9L6,6M3,9L6,9L6,12L3,12L3,9M9,9L12,9L12,12L9,12L9,9"></path> </pattern> <pattern y="0" x="0" height="12" width="12" patternUnits="userSpaceOnUse" id="startPattern"> <rect fill="rgb(100,100,100)" height="12" width="12" y="0" x="0"></rect> <rect stroke-width="1" stroke="rgb(200,200,200)" fill="none" height="5" width="5" y="3.5" x="3.5"></rect> &gt; </pattern> <pattern y="0" x="0" height="12" width="12" patternUnits="userSpaceOnUse" id="cp1pattern"> <rect class="cp1color" height="12" width="12" y="0" x="0"></rect> <path fill="black" d="M0,0L3,0L3,3L0,3L0,0M6,0L9,0L9,3L6,3L6,0M3,3L6,3L6,6L3,6L3,3M9,3L12,3L12,6L9,6L9,3"></path> <path fill="black" d="M0,6L3,6L3,9L0,9L0,6M6,6L9,6L9,9L6,9L6,6M3,9L6,9L6,12L3,12L3,9M9,9L12,9L12,12L9,12L9,9"></path> </pattern> <pattern y="0" x="0" height="12" width="12" patternUnits="userSpaceOnUse" id="cp2pattern"> <rect class="cp2color" height="12" width="12" y="0" x="0"></rect> <path fill="white" d="M0,0L3,0L3,3L0,3L0,0M6,0L9,0L9,3L6,3L6,0M3,3L6,3L6,6L3,6L3,3M9,3L12,3L12,6L9,6L9,3"></path> <path fill="white" d="M0,6L3,6L3,9L0,9L0,6M6,6L9,6L9,9L6,9L6,6M3,9L6,9L6,12L3,12L3,9M9,9L12,9L12,12L9,12L9,9"></path> </pattern> <pattern y="0" x="0" height="12" width="12" patternUnits="userSpaceOnUse" id="cp3pattern"> <rect class="cp3color" height="12" width="12" y="0" x="0"></rect> <path fill="black" d="M0,0L3,0L3,3L0,3L0,0M6,0L9,0L9,3L6,3L6,0M3,3L6,3L6,6L3,6L3,3M9,3L12,3L12,6L9,6L9,3"></path> <path fill="black" d="M0,6L3,6L3,9L0,9L0,6M6,6L9,6L9,9L6,9L6,6M3,9L6,9L6,12L3,12L3,9M9,9L12,9L12,12L9,12L9,9"></path> </pattern> <pattern y="0" x="0" height="12" width="12" patternUnits="userSpaceOnUse" id="cp4pattern"> <rect class="cp4color" height="12" width="12" y="0" x="0"></rect> <path fill="white" d="M0,0L3,0L3,3L0,3L0,0M6,0L9,0L9,3L6,3L6,0M3,3L6,3L6,6L3,6L3,3M9,3L12,3L12,6L9,6L9,3"></path> <path fill="white" d="M0,6L3,6L3,9L0,9L0,6M6,6L9,6L9,9L6,9L6,6M3,9L6,9L6,12L3,12L3,9M9,9L12,9L12,12L9,12L9,9"></path> </pattern> <pattern y="0" x="0" height="12" width="12" patternUnits="userSpaceOnUse" id="cp5pattern"> <rect class="cp5color" height="12" width="12" y="0" x="0"></rect> <path fill="black" d="M0,0L3,0L3,3L0,3L0,0M6,0L9,0L9,3L6,3L6,0M3,3L6,3L6,6L3,6L3,3M9,3L12,3L12,6L9,6L9,3"></path> <path fill="black" d="M0,6L3,6L3,9L0,9L0,6M6,6L9,6L9,9L6,9L6,6M3,9L6,9L6,12L3,12L3,9M9,9L12,9L12,12L9,12L9,9"></path> </pattern> <pattern y="0" x="0" height="12" width="12" patternUnits="userSpaceOnUse" id="cp6pattern"> <rect class="cp6color" height="12" width="12" y="0" x="0"></rect> <path fill="white" d="M0,0L3,0L3,3L0,3L0,0M6,0L9,0L9,3L6,3L6,0M3,3L6,3L6,6L3,6L3,3M9,3L12,3L12,6L9,6L9,3"></path> <path fill="white" d="M0,6L3,6L3,9L0,9L0,6M6,6L9,6L9,9L6,9L6,6M3,9L6,9L6,12L3,12L3,9M9,9L12,9L12,12L9,12L9,9"></path> </pattern> <pattern y="0" x="0" height="12" width="12" patternUnits="userSpaceOnUse" id="cp7pattern"> <rect class="cp7color" height="12" width="12" y="0" x="0"></rect> <path fill="black" d="M0,0L3,0L3,3L0,3L0,0M6,0L9,0L9,3L6,3L6,0M3,3L6,3L6,6L3,6L3,3M9,3L12,3L12,6L9,6L9,3"></path> <path fill="black" d="M0,6L3,6L3,9L0,9L0,6M6,6L9,6L9,9L6,9L6,6M3,9L6,9L6,12L3,12L3,9M9,9L12,9L12,12L9,12L9,9"></path> </pattern> <pattern y="0" x="0" height="12" width="12" patternUnits="userSpaceOnUse" id="cp8pattern"> <rect class="cp8color" height="12" width="12" y="0" x="0"></rect> <path fill="white" d="M0,0L3,0L3,3L0,3L0,0M6,0L9,0L9,3L6,3L6,0M3,3L6,3L6,6L3,6L3,3M9,3L12,3L12,6L9,6L9,3"></path> <path fill="white" d="M0,6L3,6L3,9L0,9L0,6M6,6L9,6L9,9L6,9L6,6M3,9L6,9L6,12L3,12L3,9M9,9L12,9L12,12L9,12L9,9"></path> </pattern> <pattern y="0" x="0" height="12" width="12" patternUnits="userSpaceOnUse" id="cp9pattern"> <rect class="cp9color" height="12" width="12" y="0" x="0"></rect> <path fill="black" d="M0,0L3,0L3,3L0,3L0,0M6,0L9,0L9,3L6,3L6,0M3,3L6,3L6,6L3,6L3,3M9,3L12,3L12,6L9,6L9,3"></path> <path fill="black" d="M0,6L3,6L3,9L0,9L0,6M6,6L9,6L9,9L6,9L6,6M3,9L6,9L6,12L3,12L3,9M9,9L12,9L12,12L9,12L9,9"></path> </pattern> </defs> <rect height="100%" width="100%" y="0" x="0" class="grass" id="mainfill"></rect> <g id="paths"><path class="parc" d="M0,0L0,0L12,0L12,48L0,48Z"></path><path class="start" d="M24,12L24,12L72,12L72,24L24,24Z"></path><path class="road" d="M24,24L24,24L72,24L72,180L84,180L84,168L96,168L96,156L108,156L108,144L120,144L120,132L132,132L132,120L144,120L144,108L168,108L168,120L180,120L180,144L168,144L168,156L156,156L156,168L144,168L144,180L132,180L132,204L144,204L144,216L156,216L156,240L168,240L168,252L180,252L180,264L216,264L216,252L204,252L204,168L216,168L216,156L228,156L228,132L240,132L240,120L264,120L264,108L324,108L324,120L348,120L348,132L360,132L360,252L372,252L372,264L384,264L384,252L396,252L396,120L408,120L408,108L432,108L432,120L468,120L468,108L528,108L528,120L540,120L540,180L528,180L528,192L564,192L564,168L576,168L576,144L588,144L588,132L600,132L600,120L624,120L624,108L684,108L684,120L696,120L696,132L708,132L708,156L720,156L720,240L708,240L708,264L696,264L696,276L684,276L684,288L672,288L672,312L684,312L684,324L708,324L708,336L756,336L756,120L768,120L768,108L804,108L804,120L816,120L816,108L876,108L876,120L888,120L888,132L900,132L900,156L912,156L912,264L948,264L948,252L936,252L936,168L948,168L948,156L960,156L960,132L972,132L972,120L996,120L996,108L1056,108L1056,120L1080,120L1080,132L1092,132L1092,264L1104,264L1104,300L1128,300L1128,312L1140,312L1140,120L1152,120L1152,108L1188,108L1188,120L1200,120L1200,108L1260,108L1260,120L1272,120L1272,132L1284,132L1284,156L1296,156L1296,252L1284,252L1284,264L1248,264L1248,276L1272,276L1272,288L1296,288L1296,300L1332,300L1332,120L1344,120L1344,108L1368,108L1368,120L1476,120L1476,108L1536,108L1536,120L1560,120L1560,132L1572,132L1572,180L1560,180L1560,204L1536,204L1536,216L1524,216L1524,228L1500,228L1500,240L1488,240L1488,252L1548,252L1548,240L1572,240L1572,228L1584,228L1584,240L1596,240L1596,252L1608,252L1608,120L1620,120L1620,108L1644,108L1644,120L1680,120L1680,108L1740,108L1740,120L1752,120L1752,180L1704,180L1704,156L1680,156L1680,168L1668,168L1668,180L1656,180L1656,288L1644,288L1644,300L1620,300L1620,288L1608,288L1608,276L1596,276L1596,264L1584,264L1584,276L1572,276L1572,288L1548,288L1548,300L1464,300L1464,288L1452,288L1452,276L1428,276L1428,252L1416,252L1416,180L1428,180L1428,156L1464,156L1464,144L1392,144L1392,156L1380,156L1380,288L1368,288L1368,300L1356,300L1356,312L1332,312L1332,324L1296,324L1296,312L1260,312L1260,300L1200,300L1200,252L1224,252L1224,240L1248,240L1248,168L1236,168L1236,156L1212,156L1212,168L1188,168L1188,372L1176,372L1176,384L1152,384L1152,372L1140,372L1140,336L1116,336L1116,324L1092,324L1092,312L1080,312L1080,300L1068,300L1068,288L1044,288L1044,300L1032,300L1032,240L1044,240L1044,156L1008,156L1008,168L996,168L996,180L984,180L984,240L996,240L996,252L1020,252L1020,300L984,300L984,288L864,288L864,300L816,300L816,252L852,252L852,240L864,240L864,168L852,168L852,156L828,156L828,168L804,168L804,372L792,372L792,384L768,384L768,372L756,372L756,360L720,360L720,348L684,348L684,336L660,336L660,324L648,324L648,300L612,300L612,288L588,288L588,264L576,264L576,252L564,252L564,228L612,228L612,240L624,240L624,252L660,252L660,240L672,240L672,168L660,168L660,156L636,156L636,168L624,168L624,180L612,180L612,216L528,216L528,204L516,204L516,192L492,192L492,156L468,156L468,168L456,168L456,180L444,180L444,288L432,288L432,300L408,300L408,288L360,288L360,300L336,300L336,288L300,288L300,240L312,240L312,156L276,156L276,168L264,168L264,180L252,180L252,240L264,240L264,252L288,252L288,300L252,300L252,288L180,288L180,300L156,300L156,288L144,288L144,276L132,276L132,252L120,252L120,240L108,240L108,228L96,228L96,216L84,216L84,228L72,228L72,288L60,288L60,300L36,300L36,288L24,288L24,24M1344,60L1344,60L1368,60L1368,84L1344,84L1344,60M1500,156L1500,156L1488,156L1488,168L1476,168L1476,180L1464,180L1464,192L1452,192L1452,204L1440,204L1440,216L1464,216L1464,204L1476,204L1476,192L1488,192L1488,180L1512,180L1512,168L1524,168L1524,156L1500,156M60,336L60,336L72,336L72,360L84,360L84,336L96,336L96,372L84,372L84,396L72,396L72,372L60,372L60,336M108,336L108,336L144,336L144,396L132,396L132,384L120,384L120,396L108,396L108,336M132,348L132,348L120,348L120,372L132,372L132,348M156,336L156,336L192,336L192,348L168,348L168,360L192,360L192,396L156,396L156,384L180,384L180,372L156,372L156,336M204,336L204,336L216,336L216,360L228,360L228,336L240,336L240,396L228,396L228,372L216,372L216,396L204,396L204,336M252,336L252,336L288,336L288,348L264,348L264,360L276,360L276,372L264,372L264,384L288,384L288,396L252,396L252,336M300,336L300,336L312,336L312,348L324,348L324,360L312,360L312,396L300,396L300,336M348,336L348,336L360,336L360,396L348,396L348,360L336,360L336,348L348,348L348,336M324,360L324,360L336,360L336,372L324,372Z"></path><path class="finish" d="M1716,180L1716,180L1740,180L1740,192L1716,192Z"></path></g> <rect opacity=".3" fill="url(#grid)" height="100%" width="100%" y="0" x="0"></rect></svg>