<svg height="780" width="780" id="mapSvgView" xmlns:xlink="http://www.w3.org/1999/xlink" version="1.1" xmlns="http://www.w3.org/2000/svg"> <defs> <style type="text/css"> .grass {fill: rgb(0, 200, 0);} .road {fill: rgb(128, 128, 128);} .start {fill: url(#startPattern)} .finish {fill: url(#finishPattern)} .mud {fill: rgb(100, 70, 0);} .sand {fill: rgb(230, 230, 115);} .water {fill: blue;} .earth {fill: brown;} .night {fill: black;} .parc {fill: rgb(200, 200, 200);} .cp1color {fill: rgb(0, 102, 255);} .cp2color {fill: rgb(0, 100, 200);} .cp3color {fill: rgb(0, 255, 102);} .cp4color {fill: rgb(0, 200, 0);} .cp5color {fill: rgb(255, 255, 0);} .cp6color {fill: rgb(200, 200, 0);} .cp7color {fill: rgb(255, 0, 0);} .cp8color {fill: rgb(200, 0, 0);} .cp9color {fill: rgb(255, 0, 255);} .cp1 {fill: url(#cp1pattern);} .cp2 {fill: url(#cp2pattern);} .cp3 {fill: url(#cp3pattern);} .cp4 {fill: url(#cp4pattern);} .cp5 {fill: url(#cp5pattern);} .cp6 {fill: url(#cp6pattern);} .cp7 {fill: url(#cp7pattern);} .cp8 {fill: url(#cp8pattern);} .cp9 {fill: url(#cp9pattern);} .primaryColor {fill: rgb(0, 255, 102);} </style> <pattern y="0" x="0" height="12" width="12" patternUnits="userSpaceOnUse" id="grid"> <line stroke-width="1" stroke="black" y2="12" x2="12" y1="0" x1="12"></line> <line stroke-width="1" stroke="black" y2="12" x2="12" y1="12" x1="0"></line> </pattern> <pattern y="0" x="0" height="12" width="12" patternUnits="userSpaceOnUse" id="finishPattern"> <rect fill="black" height="12" width="12" y="0" x="0"></rect> <path fill="white" d="M0,0L3,0L3,3L0,3L0,0M6,0L9,0L9,3L6,3L6,0M3,3L6,3L6,6L3,6L3,3M9,3L12,3L12,6L9,6L9,3"></path> <path fill="white" d="M0,6L3,6L3,9L0,9L0,6M6,6L9,6L9,9L6,9L6,6M3,9L6,9L6,12L3,12L3,9M9,9L12,9L12,12L9,12L9,9"></path> </pattern> <pattern y="0" x="0" height="12" width="12" patternUnits="userSpaceOnUse" id="startPattern"> <rect fill="rgb(100,100,100)" height="12" width="12" y="0" x="0"></rect> <rect stroke-width="1" stroke="rgb(200,200,200)" fill="none" height="5" width="5" y="3.5" x="3.5"></rect> &gt; </pattern> <pattern y="0" x="0" height="12" width="12" patternUnits="userSpaceOnUse" id="cp1pattern"> <rect class="cp1color" height="12" width="12" y="0" x="0"></rect> <path fill="black" d="M0,0L3,0L3,3L0,3L0,0M6,0L9,0L9,3L6,3L6,0M3,3L6,3L6,6L3,6L3,3M9,3L12,3L12,6L9,6L9,3"></path> <path fill="black" d="M0,6L3,6L3,9L0,9L0,6M6,6L9,6L9,9L6,9L6,6M3,9L6,9L6,12L3,12L3,9M9,9L12,9L12,12L9,12L9,9"></path> </pattern> <pattern y="0" x="0" height="12" width="12" patternUnits="userSpaceOnUse" id="cp2pattern"> <rect class="cp2color" height="12" width="12" y="0" x="0"></rect> <path fill="white" d="M0,0L3,0L3,3L0,3L0,0M6,0L9,0L9,3L6,3L6,0M3,3L6,3L6,6L3,6L3,3M9,3L12,3L12,6L9,6L9,3"></path> <path fill="white" d="M0,6L3,6L3,9L0,9L0,6M6,6L9,6L9,9L6,9L6,6M3,9L6,9L6,12L3,12L3,9M9,9L12,9L12,12L9,12L9,9"></path> </pattern> <pattern y="0" x="0" height="12" width="12" patternUnits="userSpaceOnUse" id="cp3pattern"> <rect class="cp3color" height="12" width="12" y="0" x="0"></rect> <path fill="black" d="M0,0L3,0L3,3L0,3L0,0M6,0L9,0L9,3L6,3L6,0M3,3L6,3L6,6L3,6L3,3M9,3L12,3L12,6L9,6L9,3"></path> <path fill="black" d="M0,6L3,6L3,9L0,9L0,6M6,6L9,6L9,9L6,9L6,6M3,9L6,9L6,12L3,12L3,9M9,9L12,9L12,12L9,12L9,9"></path> </pattern> <pattern y="0" x="0" height="12" width="12" patternUnits="userSpaceOnUse" id="cp4pattern"> <rect class="cp4color" height="12" width="12" y="0" x="0"></rect> <path fill="white" d="M0,0L3,0L3,3L0,3L0,0M6,0L9,0L9,3L6,3L6,0M3,3L6,3L6,6L3,6L3,3M9,3L12,3L12,6L9,6L9,3"></path> <path fill="white" d="M0,6L3,6L3,9L0,9L0,6M6,6L9,6L9,9L6,9L6,6M3,9L6,9L6,12L3,12L3,9M9,9L12,9L12,12L9,12L9,9"></path> </pattern> <pattern y="0" x="0" height="12" width="12" patternUnits="userSpaceOnUse" id="cp5pattern"> <rect class="cp5color" height="12" width="12" y="0" x="0"></rect> <path fill="black" d="M0,0L3,0L3,3L0,3L0,0M6,0L9,0L9,3L6,3L6,0M3,3L6,3L6,6L3,6L3,3M9,3L12,3L12,6L9,6L9,3"></path> <path fill="black" d="M0,6L3,6L3,9L0,9L0,6M6,6L9,6L9,9L6,9L6,6M3,9L6,9L6,12L3,12L3,9M9,9L12,9L12,12L9,12L9,9"></path> </pattern> <pattern y="0" x="0" height="12" width="12" patternUnits="userSpaceOnUse" id="cp6pattern"> <rect class="cp6color" height="12" width="12" y="0" x="0"></rect> <path fill="white" d="M0,0L3,0L3,3L0,3L0,0M6,0L9,0L9,3L6,3L6,0M3,3L6,3L6,6L3,6L3,3M9,3L12,3L12,6L9,6L9,3"></path> <path fill="white" d="M0,6L3,6L3,9L0,9L0,6M6,6L9,6L9,9L6,9L6,6M3,9L6,9L6,12L3,12L3,9M9,9L12,9L12,12L9,12L9,9"></path> </pattern> <pattern y="0" x="0" height="12" width="12" patternUnits="userSpaceOnUse" id="cp7pattern"> <rect class="cp7color" height="12" width="12" y="0" x="0"></rect> <path fill="black" d="M0,0L3,0L3,3L0,3L0,0M6,0L9,0L9,3L6,3L6,0M3,3L6,3L6,6L3,6L3,3M9,3L12,3L12,6L9,6L9,3"></path> <path fill="black" d="M0,6L3,6L3,9L0,9L0,6M6,6L9,6L9,9L6,9L6,6M3,9L6,9L6,12L3,12L3,9M9,9L12,9L12,12L9,12L9,9"></path> </pattern> <pattern y="0" x="0" height="12" width="12" patternUnits="userSpaceOnUse" id="cp8pattern"> <rect class="cp8color" height="12" width="12" y="0" x="0"></rect> <path fill="white" d="M0,0L3,0L3,3L0,3L0,0M6,0L9,0L9,3L6,3L6,0M3,3L6,3L6,6L3,6L3,3M9,3L12,3L12,6L9,6L9,3"></path> <path fill="white" d="M0,6L3,6L3,9L0,9L0,6M6,6L9,6L9,9L6,9L6,6M3,9L6,9L6,12L3,12L3,9M9,9L12,9L12,12L9,12L9,9"></path> </pattern> <pattern y="0" x="0" height="12" width="12" patternUnits="userSpaceOnUse" id="cp9pattern"> <rect class="cp9color" height="12" width="12" y="0" x="0"></rect> <path fill="black" d="M0,0L3,0L3,3L0,3L0,0M6,0L9,0L9,3L6,3L6,0M3,3L6,3L6,6L3,6L3,3M9,3L12,3L12,6L9,6L9,3"></path> <path fill="black" d="M0,6L3,6L3,9L0,9L0,6M6,6L9,6L9,9L6,9L6,6M3,9L6,9L6,12L3,12L3,9M9,9L12,9L12,12L9,12L9,9"></path> </pattern> </defs> <rect height="100%" width="100%" y="0" x="0" class="grass" id="mainfill"></rect> <g id="paths"><path class="road" d="M384,12L384,12L396,12L396,24L408,24L408,72L420,72L420,108L432,108L432,144L444,144L444,180L456,180L456,216L468,216L468,252L756,252L756,264L768,264L768,288L756,288L756,300L732,300L732,312L720,312L720,324L708,324L708,336L684,336L684,348L672,348L672,360L660,360L660,372L648,372L648,384L624,384L624,396L612,396L612,408L600,408L600,420L588,420L588,432L564,432L564,444L552,444L552,456L540,456L540,480L552,480L552,516L564,516L564,552L576,552L576,588L588,588L588,624L600,624L600,660L612,660L612,696L624,696L624,720L636,720L636,744L624,744L624,756L588,756L588,744L576,744L576,732L564,732L564,720L540,720L540,708L528,708L528,696L516,696L516,684L504,684L504,672L480,672L480,660L468,660L468,648L456,648L456,636L444,636L444,624L420,624L420,612L408,612L408,600L396,600L396,528L408,528L408,516L420,516L420,504L444,504L444,492L456,492L456,480L480,480L480,516L468,516L468,528L444,528L444,540L432,540L432,552L420,552L420,576L432,576L432,588L456,588L456,600L468,600L468,612L480,612L480,624L492,624L492,636L516,636L516,648L528,648L528,660L540,660L540,672L552,672L552,684L576,684L576,672L564,672L564,636L552,636L552,600L540,600L540,564L528,564L528,528L516,528L516,492L504,492L504,456L492,456L492,420L480,420L480,384L492,384L492,372L504,372L504,360L516,360L516,408L528,408L528,420L540,420L540,408L552,408L552,396L576,396L576,384L588,384L588,372L600,372L600,360L612,360L612,348L636,348L636,336L648,336L648,324L660,324L660,312L672,312L672,300L696,300L696,288L492,288L492,324L504,324L504,348L492,348L492,360L480,360L480,372L468,372L468,336L456,336L456,300L444,300L444,288L396,288L396,252L432,252L432,228L420,228L420,192L408,192L408,156L396,156L396,120L384,120L384,156L372,156L372,192L360,192L360,228L348,228L348,252L384,252L384,288L336,288L336,300L324,300L324,336L312,336L312,372L300,372L300,360L288,360L288,348L276,348L276,324L288,324L288,288L84,288L84,300L108,300L108,312L120,312L120,324L132,324L132,336L144,336L144,348L168,348L168,360L180,360L180,372L192,372L192,384L204,384L204,396L228,396L228,408L240,408L240,420L252,420L252,408L264,408L264,360L276,360L276,372L288,372L288,384L300,384L300,420L288,420L288,456L276,456L276,492L264,492L264,528L252,528L252,564L240,564L240,600L228,600L228,636L216,636L216,672L204,672L204,684L228,684L228,672L240,672L240,660L252,660L252,648L264,648L264,636L288,636L288,624L300,624L300,612L312,612L312,600L324,600L324,588L348,588L348,576L360,576L360,552L348,552L348,540L336,540L336,528L324,528L324,516L300,516L300,480L336,480L336,492L348,492L348,504L360,504L360,516L372,516L372,528L384,528L384,600L372,600L372,612L360,612L360,624L336,624L336,636L324,636L324,648L312,648L312,660L300,660L300,672L276,672L276,684L264,684L264,696L252,696L252,708L240,708L240,720L216,720L216,732L204,732L204,744L192,744L192,756L156,756L156,744L144,744L144,720L156,720L156,696L168,696L168,660L180,660L180,624L192,624L192,588L204,588L204,552L216,552L216,516L228,516L228,480L240,480L240,456L228,456L228,444L216,444L216,432L192,432L192,420L180,420L180,408L168,408L168,396L156,396L156,384L132,384L132,372L120,372L120,360L108,360L108,348L96,348L96,336L72,336L72,324L60,324L60,312L48,312L48,300L24,300L24,288L12,288L12,264L24,264L24,252L312,252L312,216L324,216L324,180L336,180L336,144L348,144L348,108L360,108L360,72L372,72L372,24L384,24Z"></path><path class="finish" d="M324,384L324,384L360,384L360,396L336,396L336,408L348,408L348,420L336,420L336,432L360,432L360,444L324,444L324,384M372,384L372,384L396,384L396,396L384,396L384,408L396,408L396,396L408,396L408,408L396,408L396,420L384,420L384,432L396,432L396,420L408,420L408,432L396,432L396,444L372,444L372,384M420,384L420,384L432,384L432,408L444,408L444,384L456,384L456,444L444,444L444,420L420,420L420,384M468,468L468,468L492,468L492,504L480,504L480,480L468,480Z"></path><path class="start" d="M288,468L288,468L324,468L324,480L300,480L300,504L288,504Z"></path></g> <rect opacity=".3" fill="url(#grid)" height="100%" width="100%" y="0" x="0"></rect></svg>