<svg height="888" width="1188" id="mapSvgView" xmlns:xlink="http://www.w3.org/1999/xlink" version="1.1" xmlns="http://www.w3.org/2000/svg"> <defs> <style type="text/css"> .grass {fill: rgb(0, 200, 0);} .road {fill: rgb(128, 128, 128);} .start {fill: url(#startPattern)} .finish {fill: url(#finishPattern)} .mud {fill: rgb(100, 70, 0);} .sand {fill: rgb(230, 230, 115);} .water {fill: blue;} .earth {fill: brown;} .night {fill: black;} .parc {fill: rgb(200, 200, 200);} .cp1color {fill: rgb(0, 102, 255);} .cp2color {fill: rgb(0, 100, 200);} .cp3color {fill: rgb(0, 255, 102);} .cp4color {fill: rgb(0, 200, 0);} .cp5color {fill: rgb(255, 255, 0);} .cp6color {fill: rgb(200, 200, 0);} .cp7color {fill: rgb(255, 0, 0);} .cp8color {fill: rgb(200, 0, 0);} .cp9color {fill: rgb(255, 0, 255);} .cp1 {fill: url(#cp1pattern);} .cp2 {fill: url(#cp2pattern);} .cp3 {fill: url(#cp3pattern);} .cp4 {fill: url(#cp4pattern);} .cp5 {fill: url(#cp5pattern);} .cp6 {fill: url(#cp6pattern);} .cp7 {fill: url(#cp7pattern);} .cp8 {fill: url(#cp8pattern);} .cp9 {fill: url(#cp9pattern);} .primaryColor {fill: rgb(0, 255, 102);} </style> <pattern y="0" x="0" height="12" width="12" patternUnits="userSpaceOnUse" id="grid"> <line stroke-width="1" stroke="black" y2="12" x2="12" y1="0" x1="12"></line> <line stroke-width="1" stroke="black" y2="12" x2="12" y1="12" x1="0"></line> </pattern> <pattern y="0" x="0" height="12" width="12" patternUnits="userSpaceOnUse" id="finishPattern"> <rect fill="black" height="12" width="12" y="0" x="0"></rect> <path fill="white" d="M0,0L3,0L3,3L0,3L0,0M6,0L9,0L9,3L6,3L6,0M3,3L6,3L6,6L3,6L3,3M9,3L12,3L12,6L9,6L9,3"></path> <path fill="white" d="M0,6L3,6L3,9L0,9L0,6M6,6L9,6L9,9L6,9L6,6M3,9L6,9L6,12L3,12L3,9M9,9L12,9L12,12L9,12L9,9"></path> </pattern> <pattern y="0" x="0" height="12" width="12" patternUnits="userSpaceOnUse" id="startPattern"> <rect fill="rgb(100,100,100)" height="12" width="12" y="0" x="0"></rect> <rect stroke-width="1" stroke="rgb(200,200,200)" fill="none" height="5" width="5" y="3.5" x="3.5"></rect> &gt; </pattern> <pattern y="0" x="0" height="12" width="12" patternUnits="userSpaceOnUse" id="cp1pattern"> <rect class="cp1color" height="12" width="12" y="0" x="0"></rect> <path fill="black" d="M0,0L3,0L3,3L0,3L0,0M6,0L9,0L9,3L6,3L6,0M3,3L6,3L6,6L3,6L3,3M9,3L12,3L12,6L9,6L9,3"></path> <path fill="black" d="M0,6L3,6L3,9L0,9L0,6M6,6L9,6L9,9L6,9L6,6M3,9L6,9L6,12L3,12L3,9M9,9L12,9L12,12L9,12L9,9"></path> </pattern> <pattern y="0" x="0" height="12" width="12" patternUnits="userSpaceOnUse" id="cp2pattern"> <rect class="cp2color" height="12" width="12" y="0" x="0"></rect> <path fill="white" d="M0,0L3,0L3,3L0,3L0,0M6,0L9,0L9,3L6,3L6,0M3,3L6,3L6,6L3,6L3,3M9,3L12,3L12,6L9,6L9,3"></path> <path fill="white" d="M0,6L3,6L3,9L0,9L0,6M6,6L9,6L9,9L6,9L6,6M3,9L6,9L6,12L3,12L3,9M9,9L12,9L12,12L9,12L9,9"></path> </pattern> <pattern y="0" x="0" height="12" width="12" patternUnits="userSpaceOnUse" id="cp3pattern"> <rect class="cp3color" height="12" width="12" y="0" x="0"></rect> <path fill="black" d="M0,0L3,0L3,3L0,3L0,0M6,0L9,0L9,3L6,3L6,0M3,3L6,3L6,6L3,6L3,3M9,3L12,3L12,6L9,6L9,3"></path> <path fill="black" d="M0,6L3,6L3,9L0,9L0,6M6,6L9,6L9,9L6,9L6,6M3,9L6,9L6,12L3,12L3,9M9,9L12,9L12,12L9,12L9,9"></path> </pattern> <pattern y="0" x="0" height="12" width="12" patternUnits="userSpaceOnUse" id="cp4pattern"> <rect class="cp4color" height="12" width="12" y="0" x="0"></rect> <path fill="white" d="M0,0L3,0L3,3L0,3L0,0M6,0L9,0L9,3L6,3L6,0M3,3L6,3L6,6L3,6L3,3M9,3L12,3L12,6L9,6L9,3"></path> <path fill="white" d="M0,6L3,6L3,9L0,9L0,6M6,6L9,6L9,9L6,9L6,6M3,9L6,9L6,12L3,12L3,9M9,9L12,9L12,12L9,12L9,9"></path> </pattern> <pattern y="0" x="0" height="12" width="12" patternUnits="userSpaceOnUse" id="cp5pattern"> <rect class="cp5color" height="12" width="12" y="0" x="0"></rect> <path fill="black" d="M0,0L3,0L3,3L0,3L0,0M6,0L9,0L9,3L6,3L6,0M3,3L6,3L6,6L3,6L3,3M9,3L12,3L12,6L9,6L9,3"></path> <path fill="black" d="M0,6L3,6L3,9L0,9L0,6M6,6L9,6L9,9L6,9L6,6M3,9L6,9L6,12L3,12L3,9M9,9L12,9L12,12L9,12L9,9"></path> </pattern> <pattern y="0" x="0" height="12" width="12" patternUnits="userSpaceOnUse" id="cp6pattern"> <rect class="cp6color" height="12" width="12" y="0" x="0"></rect> <path fill="white" d="M0,0L3,0L3,3L0,3L0,0M6,0L9,0L9,3L6,3L6,0M3,3L6,3L6,6L3,6L3,3M9,3L12,3L12,6L9,6L9,3"></path> <path fill="white" d="M0,6L3,6L3,9L0,9L0,6M6,6L9,6L9,9L6,9L6,6M3,9L6,9L6,12L3,12L3,9M9,9L12,9L12,12L9,12L9,9"></path> </pattern> <pattern y="0" x="0" height="12" width="12" patternUnits="userSpaceOnUse" id="cp7pattern"> <rect class="cp7color" height="12" width="12" y="0" x="0"></rect> <path fill="black" d="M0,0L3,0L3,3L0,3L0,0M6,0L9,0L9,3L6,3L6,0M3,3L6,3L6,6L3,6L3,3M9,3L12,3L12,6L9,6L9,3"></path> <path fill="black" d="M0,6L3,6L3,9L0,9L0,6M6,6L9,6L9,9L6,9L6,6M3,9L6,9L6,12L3,12L3,9M9,9L12,9L12,12L9,12L9,9"></path> </pattern> <pattern y="0" x="0" height="12" width="12" patternUnits="userSpaceOnUse" id="cp8pattern"> <rect class="cp8color" height="12" width="12" y="0" x="0"></rect> <path fill="white" d="M0,0L3,0L3,3L0,3L0,0M6,0L9,0L9,3L6,3L6,0M3,3L6,3L6,6L3,6L3,3M9,3L12,3L12,6L9,6L9,3"></path> <path fill="white" d="M0,6L3,6L3,9L0,9L0,6M6,6L9,6L9,9L6,9L6,6M3,9L6,9L6,12L3,12L3,9M9,9L12,9L12,12L9,12L9,9"></path> </pattern> <pattern y="0" x="0" height="12" width="12" patternUnits="userSpaceOnUse" id="cp9pattern"> <rect class="cp9color" height="12" width="12" y="0" x="0"></rect> <path fill="black" d="M0,0L3,0L3,3L0,3L0,0M6,0L9,0L9,3L6,3L6,0M3,3L6,3L6,6L3,6L3,3M9,3L12,3L12,6L9,6L9,3"></path> <path fill="black" d="M0,6L3,6L3,9L0,9L0,6M6,6L9,6L9,9L6,9L6,6M3,9L6,9L6,12L3,12L3,9M9,9L12,9L12,12L9,12L9,9"></path> </pattern> </defs> <rect height="100%" width="100%" y="0" x="0" class="grass" id="mainfill"></rect> <g id="paths"><path class="cp1" d="M120,528L120,528L144,528L144,540L120,540Z"></path><path class="cp2" d="M636,384L636,384L648,384L648,408L636,408Z"></path><path class="cp3" d="M1032,420L1032,420L1056,420L1056,432L1032,432Z"></path><path class="parc" d="M0,0L0,0L12,0L12,96L0,96Z"></path><path class="road" d="M636,12L636,12L648,12L648,96L660,96L660,84L756,84L756,96L768,96L768,84L864,84L864,96L876,96L876,84L996,84L996,96L1020,96L1020,108L1044,108L1044,120L1056,120L1056,132L1068,132L1068,156L1080,156L1080,180L1092,180L1092,336L1080,336L1080,348L1068,348L1068,360L1056,360L1056,372L1044,372L1044,384L1056,384L1056,372L1068,372L1068,360L1080,360L1080,348L1092,348L1092,420L996,420L996,300L1008,300L1008,288L996,288L996,216L1008,216L1008,204L996,204L996,192L984,192L984,180L972,180L972,168L960,168L960,180L876,180L876,168L864,168L864,180L768,180L768,168L756,168L756,180L660,180L660,168L648,168L648,252L636,252L636,240L624,240L624,228L612,228L612,216L600,216L600,204L588,204L588,192L576,192L576,180L564,180L564,168L552,168L552,156L540,156L540,108L552,108L552,96L564,96L564,84L576,84L576,72L588,72L588,60L600,60L600,48L612,48L612,36L624,36L624,24L636,24L636,12M180,84L180,84L516,84L516,96L504,96L504,108L516,108L516,96L528,96L528,108L516,108L516,120L504,120L504,132L516,132L516,120L528,120L528,132L516,132L516,144L504,144L504,156L516,156L516,144L528,144L528,156L516,156L516,168L504,168L504,180L216,180L216,168L204,168L204,180L192,180L192,192L180,192L180,204L168,204L168,216L180,216L180,288L168,288L168,276L156,276L156,264L144,264L144,252L132,252L132,264L144,264L144,276L156,276L156,288L168,288L168,300L180,300L180,420L252,420L252,432L240,432L240,444L228,444L228,456L216,456L216,468L204,468L204,480L192,480L192,492L180,492L180,504L168,504L168,516L156,516L156,528L108,528L108,516L96,516L96,504L84,504L84,492L72,492L72,480L60,480L60,468L48,468L48,456L36,456L36,444L24,444L24,432L12,432L12,420L84,420L84,348L96,348L96,336L84,336L84,180L96,180L96,156L108,156L108,132L120,132L120,120L132,120L132,108L156,108L156,96L180,96L180,84M696,96L696,96L684,96L684,108L696,108L696,96M804,96L804,96L792,96L792,108L804,108L804,96M912,96L912,96L900,96L900,108L912,108L912,96M732,108L732,108L720,108L720,120L732,120L732,108M840,108L840,108L828,108L828,120L840,120L840,108M948,108L948,108L936,108L936,120L948,120L948,108M768,120L768,120L756,120L756,144L768,144L768,120M876,120L876,120L864,120L864,144L876,144L876,120M984,120L984,120L972,120L972,144L984,144L984,120M732,144L732,144L720,144L720,156L732,156L732,144M840,144L840,144L828,144L828,156L840,156L840,144M948,144L948,144L936,144L936,156L948,156L948,144M696,156L696,156L684,156L684,168L696,168L696,156M804,156L804,156L792,156L792,168L804,168L804,156M912,156L912,156L900,156L900,168L912,168L912,156M516,168L516,168L528,168L528,180L516,180L516,168M1044,252L1044,252L1032,252L1032,264L1020,264L1020,276L1008,276L1008,288L1020,288L1020,276L1032,276L1032,264L1044,264L1044,252M528,276L528,276L540,276L540,288L552,288L552,300L564,300L564,312L576,312L576,324L588,324L588,336L600,336L600,348L612,348L612,360L624,360L624,372L636,372L636,420L624,420L624,432L612,432L612,444L600,444L600,456L588,456L588,468L576,468L576,480L564,480L564,492L552,492L552,504L540,504L540,516L528,516L528,444L432,444L432,432L420,432L420,444L408,444L408,456L396,456L396,468L384,468L384,480L396,480L396,552L360,552L360,564L372,564L372,576L384,576L384,588L396,588L396,600L408,600L408,612L420,612L420,624L432,624L432,636L444,636L444,648L456,648L456,660L468,660L468,672L396,672L396,780L384,780L384,804L372,804L372,828L360,828L360,840L348,840L348,852L324,852L324,864L300,864L300,876L180,876L180,864L156,864L156,852L132,852L132,840L120,840L120,828L108,828L108,804L96,804L96,780L84,780L84,540L180,540L180,744L168,744L168,756L180,756L180,768L192,768L192,780L204,780L204,792L216,792L216,780L264,780L264,792L276,792L276,780L288,780L288,768L300,768L300,756L312,756L312,744L300,744L300,672L228,672L228,660L240,660L240,648L252,648L252,636L264,636L264,624L276,624L276,612L288,612L288,600L300,600L300,588L312,588L312,576L324,576L324,564L336,564L336,552L300,552L300,444L312,444L312,420L324,420L324,396L336,396L336,384L348,384L348,372L372,372L372,360L396,360L396,348L528,348L528,276M132,312L132,312L120,312L120,324L144,324L144,312L132,312M1044,312L1044,312L1032,312L1032,324L1056,324L1056,312L1044,312M108,348L108,348L96,348L96,360L108,360L108,348M120,360L120,360L108,360L108,372L120,372L120,360M648,348L648,348L780,348L780,360L804,360L804,372L828,372L828,384L840,384L840,396L852,396L852,420L864,420L864,444L876,444L876,552L948,552L948,564L936,564L936,576L924,576L924,588L912,588L912,600L900,600L900,612L888,612L888,624L876,624L876,636L864,636L864,648L852,648L852,660L840,660L840,672L876,672L876,744L864,744L864,756L876,756L876,768L888,768L888,780L900,780L900,792L912,792L912,780L960,780L960,792L972,792L972,780L984,780L984,768L996,768L996,756L1008,756L1008,744L996,744L996,540L924,540L924,528L936,528L936,516L948,516L948,504L960,504L960,492L972,492L972,480L984,480L984,468L996,468L996,456L1008,456L1008,444L1020,444L1020,432L1068,432L1068,444L1080,444L1080,456L1092,456L1092,468L1104,468L1104,480L1116,480L1116,492L1128,492L1128,504L1140,504L1140,516L1152,516L1152,528L1164,528L1164,540L1092,540L1092,780L1080,780L1080,804L1068,804L1068,828L1056,828L1056,840L1044,840L1044,852L1020,852L1020,864L996,864L996,876L876,876L876,864L852,864L852,852L828,852L828,840L816,840L816,828L804,828L804,804L792,804L792,780L780,780L780,672L816,672L816,660L804,660L804,648L792,648L792,636L780,636L780,624L768,624L768,612L756,612L756,600L744,600L744,588L732,588L732,576L720,576L720,564L708,564L708,552L780,552L780,480L792,480L792,468L780,468L780,456L768,456L768,444L756,444L756,432L744,432L744,444L648,444L648,348M132,372L132,372L120,372L120,384L132,384L132,372M492,384L492,384L480,384L480,408L504,408L504,384L492,384M684,384L684,384L672,384L672,408L696,408L696,384L684,384M60,432L60,432L48,432L48,444L60,444L60,456L72,456L72,468L84,468L84,480L96,480L96,492L108,492L108,504L120,504L120,516L144,516L144,504L156,504L156,492L168,492L168,480L180,480L180,468L192,468L192,456L204,456L204,444L216,444L216,432L60,432M1044,444L1044,444L1032,444L1032,456L1020,456L1020,468L1008,468L1008,480L996,480L996,492L984,492L984,504L972,504L972,516L960,516L960,528L1128,528L1128,516L1116,516L1116,504L1104,504L1104,492L1092,492L1092,480L1080,480L1080,468L1068,468L1068,456L1056,456L1056,444L1044,444M804,576L804,576L792,576L792,588L864,588L864,576L804,576M348,600L348,600L336,600L336,612L360,612L360,600L348,600M828,612L828,612L816,612L816,624L840,624L840,612L828,612M324,636L324,636L312,636L312,648L384,648L384,636L324,636M156,756L156,756L144,756L144,768L156,768L156,756M336,756L336,756L324,756L324,768L312,768L312,780L324,780L324,768L336,768L336,756M852,756L852,756L840,756L840,768L852,768L852,756M1032,756L1032,756L1020,756L1020,768L1008,768L1008,780L1020,780L1020,768L1032,768L1032,756M120,768L120,768L108,768L108,780L120,780L120,768M168,768L168,768L156,768L156,780L168,780L168,768M372,768L372,768L360,768L360,780L348,780L348,792L360,792L360,780L372,780L372,768M816,768L816,768L804,768L804,780L816,780L816,768M864,768L864,768L852,768L852,780L864,780L864,768M1068,768L1068,768L1056,768L1056,780L1044,780L1044,792L1056,792L1056,780L1068,780L1068,768M132,780L132,780L120,780L120,792L132,792L132,780M828,780L828,780L816,780L816,792L828,792L828,780M192,792L192,792L180,792L180,804L192,804L192,792M300,792L300,792L288,792L288,804L276,804L276,816L288,816L288,804L300,804L300,792M528,780L528,780L540,780L540,792L552,792L552,816L564,816L564,828L540,828L540,804L528,804L528,828L504,828L504,816L516,816L516,792L528,792L528,780M636,780L636,780L648,780L648,792L660,792L660,816L672,816L672,828L648,828L648,804L636,804L636,828L612,828L612,816L624,816L624,792L636,792L636,780M888,792L888,792L876,792L876,804L888,804L888,792M996,792L996,792L984,792L984,804L972,804L972,816L984,816L984,804L996,804L996,792M204,804L204,804L192,804L192,816L204,816L204,804M900,804L900,804L888,804L888,816L900,816L900,804M180,828L180,828L168,828L168,840L180,840L180,828M312,828L312,828L300,828L300,840L288,840L288,852L300,852L300,840L312,840L312,828M432,816L432,816L492,816L492,828L432,828L432,816M684,816L684,816L744,816L744,828L684,828L684,816M876,828L876,828L864,828L864,840L876,840L876,828M1008,828L1008,828L996,828L996,840L984,840L984,852L996,852L996,840L1008,840L1008,828M192,840L192,840L180,840L180,852L192,852L192,840M888,840L888,840L876,840L876,852L888,852L888,840M432,840L432,840L492,840L492,852L432,852L432,840M684,840L684,840L744,840L744,852L684,852L684,840M576,852L576,852L600,852L600,876L576,876Z"></path><path class="start" d="M516,84L516,84L528,84L528,96L516,96L516,84M516,96L516,96L516,108L504,108L504,96L516,96M516,108L516,108L528,108L528,120L516,120L516,108M516,120L516,120L516,132L504,132L504,120L516,120M516,132L516,132L528,132L528,144L516,144L516,132M516,144L516,144L516,156L504,156L504,144L516,144M516,156L516,156L528,156L528,168L516,168L516,156M516,168L516,168L516,180L504,180L504,168Z"></path><path class="finish" d="M528,120L528,120L540,120L540,144L528,144Z"></path></g> <rect opacity=".3" fill="url(#grid)" height="100%" width="100%" y="0" x="0"></rect></svg>