<svg height="720" width="540" id="mapSvgView" xmlns:xlink="http://www.w3.org/1999/xlink" version="1.1" xmlns="http://www.w3.org/2000/svg"> <defs> <style type="text/css"> .grass {fill: rgb(0, 200, 0);} .road {fill: rgb(128, 128, 128);} .start {fill: url(#startPattern)} .finish {fill: url(#finishPattern)} .mud {fill: rgb(100, 70, 0);} .sand {fill: rgb(230, 230, 115);} .water {fill: blue;} .earth {fill: brown;} .night {fill: black;} .parc {fill: rgb(200, 200, 200);} .cp1color {fill: rgb(0, 102, 255);} .cp2color {fill: rgb(0, 100, 200);} .cp3color {fill: rgb(0, 255, 102);} .cp4color {fill: rgb(0, 200, 0);} .cp5color {fill: rgb(255, 255, 0);} .cp6color {fill: rgb(200, 200, 0);} .cp7color {fill: rgb(255, 0, 0);} .cp8color {fill: rgb(200, 0, 0);} .cp9color {fill: rgb(255, 0, 255);} .cp1 {fill: url(#cp1pattern);} .cp2 {fill: url(#cp2pattern);} .cp3 {fill: url(#cp3pattern);} .cp4 {fill: url(#cp4pattern);} .cp5 {fill: url(#cp5pattern);} .cp6 {fill: url(#cp6pattern);} .cp7 {fill: url(#cp7pattern);} .cp8 {fill: url(#cp8pattern);} .cp9 {fill: url(#cp9pattern);} .primaryColor {fill: rgb(0, 255, 102);} </style> <pattern y="0" x="0" height="12" width="12" patternUnits="userSpaceOnUse" id="grid"> <line stroke-width="1" stroke="black" y2="12" x2="12" y1="0" x1="12"></line> <line stroke-width="1" stroke="black" y2="12" x2="12" y1="12" x1="0"></line> </pattern> <pattern y="0" x="0" height="12" width="12" patternUnits="userSpaceOnUse" id="finishPattern"> <rect fill="black" height="12" width="12" y="0" x="0"></rect> <path fill="white" d="M0,0L3,0L3,3L0,3L0,0M6,0L9,0L9,3L6,3L6,0M3,3L6,3L6,6L3,6L3,3M9,3L12,3L12,6L9,6L9,3"></path> <path fill="white" d="M0,6L3,6L3,9L0,9L0,6M6,6L9,6L9,9L6,9L6,6M3,9L6,9L6,12L3,12L3,9M9,9L12,9L12,12L9,12L9,9"></path> </pattern> <pattern y="0" x="0" height="12" width="12" patternUnits="userSpaceOnUse" id="startPattern"> <rect fill="rgb(100,100,100)" height="12" width="12" y="0" x="0"></rect> <rect stroke-width="1" stroke="rgb(200,200,200)" fill="none" height="5" width="5" y="3.5" x="3.5"></rect> &gt; </pattern> <pattern y="0" x="0" height="12" width="12" patternUnits="userSpaceOnUse" id="cp1pattern"> <rect class="cp1color" height="12" width="12" y="0" x="0"></rect> <path fill="black" d="M0,0L3,0L3,3L0,3L0,0M6,0L9,0L9,3L6,3L6,0M3,3L6,3L6,6L3,6L3,3M9,3L12,3L12,6L9,6L9,3"></path> <path fill="black" d="M0,6L3,6L3,9L0,9L0,6M6,6L9,6L9,9L6,9L6,6M3,9L6,9L6,12L3,12L3,9M9,9L12,9L12,12L9,12L9,9"></path> </pattern> <pattern y="0" x="0" height="12" width="12" patternUnits="userSpaceOnUse" id="cp2pattern"> <rect class="cp2color" height="12" width="12" y="0" x="0"></rect> <path fill="white" d="M0,0L3,0L3,3L0,3L0,0M6,0L9,0L9,3L6,3L6,0M3,3L6,3L6,6L3,6L3,3M9,3L12,3L12,6L9,6L9,3"></path> <path fill="white" d="M0,6L3,6L3,9L0,9L0,6M6,6L9,6L9,9L6,9L6,6M3,9L6,9L6,12L3,12L3,9M9,9L12,9L12,12L9,12L9,9"></path> </pattern> <pattern y="0" x="0" height="12" width="12" patternUnits="userSpaceOnUse" id="cp3pattern"> <rect class="cp3color" height="12" width="12" y="0" x="0"></rect> <path fill="black" d="M0,0L3,0L3,3L0,3L0,0M6,0L9,0L9,3L6,3L6,0M3,3L6,3L6,6L3,6L3,3M9,3L12,3L12,6L9,6L9,3"></path> <path fill="black" d="M0,6L3,6L3,9L0,9L0,6M6,6L9,6L9,9L6,9L6,6M3,9L6,9L6,12L3,12L3,9M9,9L12,9L12,12L9,12L9,9"></path> </pattern> <pattern y="0" x="0" height="12" width="12" patternUnits="userSpaceOnUse" id="cp4pattern"> <rect class="cp4color" height="12" width="12" y="0" x="0"></rect> <path fill="white" d="M0,0L3,0L3,3L0,3L0,0M6,0L9,0L9,3L6,3L6,0M3,3L6,3L6,6L3,6L3,3M9,3L12,3L12,6L9,6L9,3"></path> <path fill="white" d="M0,6L3,6L3,9L0,9L0,6M6,6L9,6L9,9L6,9L6,6M3,9L6,9L6,12L3,12L3,9M9,9L12,9L12,12L9,12L9,9"></path> </pattern> <pattern y="0" x="0" height="12" width="12" patternUnits="userSpaceOnUse" id="cp5pattern"> <rect class="cp5color" height="12" width="12" y="0" x="0"></rect> <path fill="black" d="M0,0L3,0L3,3L0,3L0,0M6,0L9,0L9,3L6,3L6,0M3,3L6,3L6,6L3,6L3,3M9,3L12,3L12,6L9,6L9,3"></path> <path fill="black" d="M0,6L3,6L3,9L0,9L0,6M6,6L9,6L9,9L6,9L6,6M3,9L6,9L6,12L3,12L3,9M9,9L12,9L12,12L9,12L9,9"></path> </pattern> <pattern y="0" x="0" height="12" width="12" patternUnits="userSpaceOnUse" id="cp6pattern"> <rect class="cp6color" height="12" width="12" y="0" x="0"></rect> <path fill="white" d="M0,0L3,0L3,3L0,3L0,0M6,0L9,0L9,3L6,3L6,0M3,3L6,3L6,6L3,6L3,3M9,3L12,3L12,6L9,6L9,3"></path> <path fill="white" d="M0,6L3,6L3,9L0,9L0,6M6,6L9,6L9,9L6,9L6,6M3,9L6,9L6,12L3,12L3,9M9,9L12,9L12,12L9,12L9,9"></path> </pattern> <pattern y="0" x="0" height="12" width="12" patternUnits="userSpaceOnUse" id="cp7pattern"> <rect class="cp7color" height="12" width="12" y="0" x="0"></rect> <path fill="black" d="M0,0L3,0L3,3L0,3L0,0M6,0L9,0L9,3L6,3L6,0M3,3L6,3L6,6L3,6L3,3M9,3L12,3L12,6L9,6L9,3"></path> <path fill="black" d="M0,6L3,6L3,9L0,9L0,6M6,6L9,6L9,9L6,9L6,6M3,9L6,9L6,12L3,12L3,9M9,9L12,9L12,12L9,12L9,9"></path> </pattern> <pattern y="0" x="0" height="12" width="12" patternUnits="userSpaceOnUse" id="cp8pattern"> <rect class="cp8color" height="12" width="12" y="0" x="0"></rect> <path fill="white" d="M0,0L3,0L3,3L0,3L0,0M6,0L9,0L9,3L6,3L6,0M3,3L6,3L6,6L3,6L3,3M9,3L12,3L12,6L9,6L9,3"></path> <path fill="white" d="M0,6L3,6L3,9L0,9L0,6M6,6L9,6L9,9L6,9L6,6M3,9L6,9L6,12L3,12L3,9M9,9L12,9L12,12L9,12L9,9"></path> </pattern> <pattern y="0" x="0" height="12" width="12" patternUnits="userSpaceOnUse" id="cp9pattern"> <rect class="cp9color" height="12" width="12" y="0" x="0"></rect> <path fill="black" d="M0,0L3,0L3,3L0,3L0,0M6,0L9,0L9,3L6,3L6,0M3,3L6,3L6,6L3,6L3,3M9,3L12,3L12,6L9,6L9,3"></path> <path fill="black" d="M0,6L3,6L3,9L0,9L0,6M6,6L9,6L9,9L6,9L6,6M3,9L6,9L6,12L3,12L3,9M9,9L12,9L12,12L9,12L9,9"></path> </pattern> </defs> <rect height="100%" width="100%" y="0" x="0" class="road" id="mainfill"></rect> <g id="paths"><path class="cp1" d="M300,384L300,384L324,384L324,408L300,408L300,384M420,384L420,384L444,384L444,408L420,408L420,384M444,648L444,648L480,648L480,672L504,672L504,648L540,648L540,660L516,660L516,696L540,696L540,708L504,708L504,684L480,684L480,708L444,708L444,696L468,696L468,660L444,660Z"></path><path class="cp2" d="M180,612L180,612L204,612L204,636L180,636L180,612M336,636L336,636L360,636L360,660L336,660Z"></path><path class="cp3" d="M84,540L84,540L108,540L108,564L84,564Z"></path><path class="cp4" d="M240,504L240,504L264,504L264,528L240,528L240,504M276,516L276,516L300,516L300,540L276,540Z"></path><path class="cp5" d="M84,396L84,396L108,396L108,420L84,420Z"></path><path class="cp6" d="M168,96L168,96L192,96L192,108L168,108L168,96M168,132L168,132L192,132L192,156L168,156Z"></path><path class="cp7" d="M240,60L240,60L252,60L252,72L264,72L264,84L240,84L240,60M264,108L264,108L288,108L288,132L264,132L264,108M228,192L228,192L252,192L252,216L228,216Z"></path><path class="cp8" d="M324,228L324,228L348,228L348,240L336,240L336,252L324,252Z"></path><path class="cp9" d="M396,96L396,96L420,96L420,120L396,120Z"></path><path class="parc" d="M0,0L0,0L12,0L12,72L0,72Z"></path><path class="grass" d="M180,0L180,0L228,0L228,12L240,12L240,24L252,24L252,36L264,36L264,60L288,60L288,48L300,48L300,36L312,36L312,48L324,48L324,72L312,72L312,96L324,96L324,84L348,84L348,72L360,72L360,60L372,60L372,48L396,48L396,36L420,36L420,24L432,24L432,36L444,36L444,48L456,48L456,60L468,60L468,84L480,84L480,96L492,96L492,108L504,108L504,132L516,132L516,192L504,192L504,216L516,216L516,264L528,264L528,324L540,324L540,384L528,384L528,396L492,396L492,408L468,408L468,420L444,420L444,432L432,432L432,444L396,444L396,468L408,468L408,504L420,504L420,516L432,516L432,528L444,528L444,540L468,540L468,552L480,552L480,564L492,564L492,612L468,612L468,636L432,636L432,660L444,660L444,708L396,708L396,696L360,696L360,708L336,708L336,720L300,720L300,708L288,708L288,696L276,696L276,720L240,720L240,708L192,708L192,696L156,696L156,708L84,708L84,696L72,696L72,684L60,684L60,636L72,636L72,624L84,624L84,588L96,588L96,576L72,576L72,564L48,564L48,552L36,552L36,540L24,540L24,528L12,528L12,480L0,480L0,432L12,432L12,420L0,420L0,336L12,336L12,324L0,324L0,288L24,288L24,276L48,276L48,264L60,264L60,252L48,252L48,216L72,216L72,192L84,192L84,180L72,180L72,144L84,144L84,120L120,120L120,108L132,108L132,96L156,96L156,60L168,60L168,48L180,48L180,36L168,36L168,12L180,12L180,0M228,60L228,60L216,60L216,72L204,72L204,84L180,84L180,96L168,96L168,108L144,108L144,120L156,120L156,132L144,132L144,144L132,144L132,168L144,168L144,180L156,180L156,192L168,192L168,204L144,204L144,216L132,216L132,228L120,228L120,264L132,264L132,276L144,276L144,300L156,300L156,312L168,312L168,324L180,324L180,336L192,336L192,348L168,348L168,336L156,336L156,324L144,324L144,312L120,312L120,300L84,300L84,312L72,312L72,324L48,324L48,336L36,336L36,348L24,348L24,384L36,384L36,396L48,396L48,408L60,408L60,420L132,420L132,432L108,432L108,444L96,444L96,456L84,456L84,468L72,468L72,480L48,480L48,492L36,492L36,528L48,528L48,540L60,540L60,552L84,552L84,564L132,564L132,552L156,552L156,540L192,540L192,528L216,528L216,540L240,540L240,528L264,528L264,540L276,540L276,552L192,552L192,564L168,564L168,588L156,588L156,624L168,624L168,636L180,636L180,648L192,648L192,660L204,660L204,672L240,672L240,684L348,684L348,672L372,672L372,660L384,660L384,648L396,648L396,636L408,636L408,624L420,624L420,576L408,576L408,552L396,552L396,540L384,540L384,516L372,516L372,492L360,492L360,480L348,480L348,456L336,456L336,444L324,444L324,432L336,432L336,420L360,420L360,432L372,432L372,420L408,420L408,408L444,408L444,396L480,396L480,384L504,384L504,372L492,372L492,348L480,348L480,336L468,336L468,324L432,324L432,312L408,312L408,300L396,300L396,288L384,288L384,276L408,276L408,264L432,264L432,252L468,252L468,216L480,216L480,192L492,192L492,120L480,120L480,108L468,108L468,96L444,96L444,84L456,84L456,72L444,72L444,60L408,60L408,72L396,72L396,84L372,84L372,120L360,120L360,168L348,168L348,180L336,180L336,192L324,192L324,204L312,204L312,216L288,216L288,180L300,180L300,156L312,156L312,108L300,108L300,96L276,96L276,84L288,84L288,72L252,72L252,60L228,60M216,96L216,96L240,96L240,108L252,108L252,120L264,120L264,144L276,144L276,156L264,156L264,168L240,168L240,180L228,180L228,192L216,192L216,216L228,216L228,228L240,228L240,240L252,240L252,276L264,276L264,288L288,288L288,276L300,276L300,264L324,264L324,252L336,252L336,240L348,240L348,228L360,228L360,216L372,216L372,192L384,192L384,168L396,168L396,144L408,144L408,132L420,132L420,96L432,96L432,108L444,108L444,132L456,132L456,180L432,180L432,192L420,192L420,204L396,204L396,216L384,216L384,252L348,252L348,276L336,276L336,300L348,300L348,312L360,312L360,336L372,336L372,348L420,348L420,360L444,360L444,372L372,372L372,360L324,360L324,372L312,372L312,384L300,384L300,396L288,396L288,408L276,408L276,420L264,420L264,456L276,456L276,468L300,468L300,492L312,492L312,504L324,504L324,528L336,528L336,540L348,540L348,552L360,552L360,576L372,576L372,600L384,600L384,612L372,612L372,624L348,624L348,636L336,636L336,648L264,648L264,636L228,636L228,624L216,624L216,612L204,612L204,588L216,588L216,576L228,576L228,588L276,588L276,576L300,576L300,564L312,564L312,528L300,528L300,516L276,516L276,504L264,504L264,492L192,492L192,504L168,504L168,516L144,516L144,528L120,528L120,516L72,516L72,504L120,504L120,492L132,492L132,480L144,480L144,468L156,468L156,456L168,456L168,408L156,408L156,396L132,396L132,384L96,384L96,372L84,372L84,348L96,348L96,336L108,336L108,348L120,348L120,360L144,360L144,372L156,372L156,384L204,384L204,372L216,372L216,360L228,360L228,312L216,312L216,300L204,300L204,288L192,288L192,276L180,276L180,264L168,264L168,240L180,240L180,228L192,228L192,204L204,204L204,168L192,168L192,132L204,132L204,108L216,108Z"></path><path class="finish" d="M408,204L408,204L468,204L468,240L456,240L456,228L432,228L432,216L408,216Z"></path><path class="start" d="M408,216L408,216L432,216L432,228L456,228L456,240L408,240Z"></path></g> <rect opacity=".3" fill="url(#grid)" height="100%" width="100%" y="0" x="0"></rect></svg>