<svg height="480" width="708" id="mapSvgView" xmlns:xlink="http://www.w3.org/1999/xlink" version="1.1" xmlns="http://www.w3.org/2000/svg"> <defs> <style type="text/css"> .grass {fill: rgb(0, 200, 0);} .road {fill: rgb(128, 128, 128);} .start {fill: url(#startPattern)} .finish {fill: url(#finishPattern)} .mud {fill: rgb(100, 70, 0);} .sand {fill: rgb(230, 230, 115);} .water {fill: blue;} .earth {fill: brown;} .night {fill: black;} .parc {fill: rgb(200, 200, 200);} .cp1color {fill: rgb(0, 102, 255);} .cp2color {fill: rgb(0, 100, 200);} .cp3color {fill: rgb(0, 255, 102);} .cp4color {fill: rgb(0, 200, 0);} .cp5color {fill: rgb(255, 255, 0);} .cp6color {fill: rgb(200, 200, 0);} .cp7color {fill: rgb(255, 0, 0);} .cp8color {fill: rgb(200, 0, 0);} .cp9color {fill: rgb(255, 0, 255);} .cp1 {fill: url(#cp1pattern);} .cp2 {fill: url(#cp2pattern);} .cp3 {fill: url(#cp3pattern);} .cp4 {fill: url(#cp4pattern);} .cp5 {fill: url(#cp5pattern);} .cp6 {fill: url(#cp6pattern);} .cp7 {fill: url(#cp7pattern);} .cp8 {fill: url(#cp8pattern);} .cp9 {fill: url(#cp9pattern);} .primaryColor {fill: rgb(0, 255, 102);} </style> <pattern y="0" x="0" height="12" width="12" patternUnits="userSpaceOnUse" id="grid"> <line stroke-width="1" stroke="black" y2="12" x2="12" y1="0" x1="12"></line> <line stroke-width="1" stroke="black" y2="12" x2="12" y1="12" x1="0"></line> </pattern> <pattern y="0" x="0" height="12" width="12" patternUnits="userSpaceOnUse" id="finishPattern"> <rect fill="black" height="12" width="12" y="0" x="0"></rect> <path fill="white" d="M0,0L3,0L3,3L0,3L0,0M6,0L9,0L9,3L6,3L6,0M3,3L6,3L6,6L3,6L3,3M9,3L12,3L12,6L9,6L9,3"></path> <path fill="white" d="M0,6L3,6L3,9L0,9L0,6M6,6L9,6L9,9L6,9L6,6M3,9L6,9L6,12L3,12L3,9M9,9L12,9L12,12L9,12L9,9"></path> </pattern> <pattern y="0" x="0" height="12" width="12" patternUnits="userSpaceOnUse" id="startPattern"> <rect fill="rgb(100,100,100)" height="12" width="12" y="0" x="0"></rect> <rect stroke-width="1" stroke="rgb(200,200,200)" fill="none" height="5" width="5" y="3.5" x="3.5"></rect> &gt; </pattern> <pattern y="0" x="0" height="12" width="12" patternUnits="userSpaceOnUse" id="cp1pattern"> <rect class="cp1color" height="12" width="12" y="0" x="0"></rect> <path fill="black" d="M0,0L3,0L3,3L0,3L0,0M6,0L9,0L9,3L6,3L6,0M3,3L6,3L6,6L3,6L3,3M9,3L12,3L12,6L9,6L9,3"></path> <path fill="black" d="M0,6L3,6L3,9L0,9L0,6M6,6L9,6L9,9L6,9L6,6M3,9L6,9L6,12L3,12L3,9M9,9L12,9L12,12L9,12L9,9"></path> </pattern> <pattern y="0" x="0" height="12" width="12" patternUnits="userSpaceOnUse" id="cp2pattern"> <rect class="cp2color" height="12" width="12" y="0" x="0"></rect> <path fill="white" d="M0,0L3,0L3,3L0,3L0,0M6,0L9,0L9,3L6,3L6,0M3,3L6,3L6,6L3,6L3,3M9,3L12,3L12,6L9,6L9,3"></path> <path fill="white" d="M0,6L3,6L3,9L0,9L0,6M6,6L9,6L9,9L6,9L6,6M3,9L6,9L6,12L3,12L3,9M9,9L12,9L12,12L9,12L9,9"></path> </pattern> <pattern y="0" x="0" height="12" width="12" patternUnits="userSpaceOnUse" id="cp3pattern"> <rect class="cp3color" height="12" width="12" y="0" x="0"></rect> <path fill="black" d="M0,0L3,0L3,3L0,3L0,0M6,0L9,0L9,3L6,3L6,0M3,3L6,3L6,6L3,6L3,3M9,3L12,3L12,6L9,6L9,3"></path> <path fill="black" d="M0,6L3,6L3,9L0,9L0,6M6,6L9,6L9,9L6,9L6,6M3,9L6,9L6,12L3,12L3,9M9,9L12,9L12,12L9,12L9,9"></path> </pattern> <pattern y="0" x="0" height="12" width="12" patternUnits="userSpaceOnUse" id="cp4pattern"> <rect class="cp4color" height="12" width="12" y="0" x="0"></rect> <path fill="white" d="M0,0L3,0L3,3L0,3L0,0M6,0L9,0L9,3L6,3L6,0M3,3L6,3L6,6L3,6L3,3M9,3L12,3L12,6L9,6L9,3"></path> <path fill="white" d="M0,6L3,6L3,9L0,9L0,6M6,6L9,6L9,9L6,9L6,6M3,9L6,9L6,12L3,12L3,9M9,9L12,9L12,12L9,12L9,9"></path> </pattern> <pattern y="0" x="0" height="12" width="12" patternUnits="userSpaceOnUse" id="cp5pattern"> <rect class="cp5color" height="12" width="12" y="0" x="0"></rect> <path fill="black" d="M0,0L3,0L3,3L0,3L0,0M6,0L9,0L9,3L6,3L6,0M3,3L6,3L6,6L3,6L3,3M9,3L12,3L12,6L9,6L9,3"></path> <path fill="black" d="M0,6L3,6L3,9L0,9L0,6M6,6L9,6L9,9L6,9L6,6M3,9L6,9L6,12L3,12L3,9M9,9L12,9L12,12L9,12L9,9"></path> </pattern> <pattern y="0" x="0" height="12" width="12" patternUnits="userSpaceOnUse" id="cp6pattern"> <rect class="cp6color" height="12" width="12" y="0" x="0"></rect> <path fill="white" d="M0,0L3,0L3,3L0,3L0,0M6,0L9,0L9,3L6,3L6,0M3,3L6,3L6,6L3,6L3,3M9,3L12,3L12,6L9,6L9,3"></path> <path fill="white" d="M0,6L3,6L3,9L0,9L0,6M6,6L9,6L9,9L6,9L6,6M3,9L6,9L6,12L3,12L3,9M9,9L12,9L12,12L9,12L9,9"></path> </pattern> <pattern y="0" x="0" height="12" width="12" patternUnits="userSpaceOnUse" id="cp7pattern"> <rect class="cp7color" height="12" width="12" y="0" x="0"></rect> <path fill="black" d="M0,0L3,0L3,3L0,3L0,0M6,0L9,0L9,3L6,3L6,0M3,3L6,3L6,6L3,6L3,3M9,3L12,3L12,6L9,6L9,3"></path> <path fill="black" d="M0,6L3,6L3,9L0,9L0,6M6,6L9,6L9,9L6,9L6,6M3,9L6,9L6,12L3,12L3,9M9,9L12,9L12,12L9,12L9,9"></path> </pattern> <pattern y="0" x="0" height="12" width="12" patternUnits="userSpaceOnUse" id="cp8pattern"> <rect class="cp8color" height="12" width="12" y="0" x="0"></rect> <path fill="white" d="M0,0L3,0L3,3L0,3L0,0M6,0L9,0L9,3L6,3L6,0M3,3L6,3L6,6L3,6L3,3M9,3L12,3L12,6L9,6L9,3"></path> <path fill="white" d="M0,6L3,6L3,9L0,9L0,6M6,6L9,6L9,9L6,9L6,6M3,9L6,9L6,12L3,12L3,9M9,9L12,9L12,12L9,12L9,9"></path> </pattern> <pattern y="0" x="0" height="12" width="12" patternUnits="userSpaceOnUse" id="cp9pattern"> <rect class="cp9color" height="12" width="12" y="0" x="0"></rect> <path fill="black" d="M0,0L3,0L3,3L0,3L0,0M6,0L9,0L9,3L6,3L6,0M3,3L6,3L6,6L3,6L3,3M9,3L12,3L12,6L9,6L9,3"></path> <path fill="black" d="M0,6L3,6L3,9L0,9L0,6M6,6L9,6L9,9L6,9L6,6M3,9L6,9L6,12L3,12L3,9M9,9L12,9L12,12L9,12L9,9"></path> </pattern> </defs> <rect height="100%" width="100%" y="0" x="0" class="grass" id="mainfill"></rect> <g id="paths"><path class="cp1" d="M420,312L420,312L468,312L468,324L420,324Z"></path><path class="cp2" d="M96,312L96,312L156,312L156,324L96,324Z"></path><path class="parc" d="M0,0L0,0L12,0L12,120L0,120Z"></path><path class="road" d="M504,12L504,12L600,12L600,24L624,24L624,36L648,36L648,48L660,48L660,60L672,60L672,72L684,72L684,96L696,96L696,168L684,168L684,180L672,180L672,192L660,192L660,204L648,204L648,216L636,216L636,228L624,228L624,264L636,264L636,276L648,276L648,288L660,288L660,300L672,300L672,324L684,324L684,420L672,420L672,432L660,432L660,444L636,444L636,456L612,456L612,444L600,444L600,432L588,432L588,420L576,420L576,408L564,408L564,396L552,396L552,384L540,384L540,360L528,360L528,336L516,336L516,156L504,156L504,240L492,240L492,276L480,276L480,312L420,312L420,300L432,300L432,264L444,264L444,228L456,228L456,144L468,144L468,120L480,120L480,108L492,108L492,96L504,96L504,84L528,84L528,96L540,96L540,120L552,120L552,144L564,144L564,336L576,336L576,348L588,348L588,360L600,360L600,372L612,372L612,384L624,384L624,396L636,396L636,360L624,360L624,336L612,336L612,324L600,324L600,312L588,312L588,300L576,300L576,216L588,216L588,204L600,204L600,192L612,192L612,180L624,180L624,168L636,168L636,156L648,156L648,108L636,108L636,96L624,96L624,84L600,84L600,72L576,72L576,60L528,60L528,72L492,72L492,84L456,84L456,96L420,96L420,108L384,108L384,120L288,120L288,96L276,96L276,72L288,72L288,96L300,96L300,72L360,72L360,60L396,60L396,48L432,48L432,36L468,36L468,24L504,24L504,12M132,72L132,72L228,72L228,120L132,120L132,132L120,132L120,156L108,156L108,192L120,192L120,216L132,216L132,264L120,264L120,276L108,276L108,288L96,288L96,300L84,300L84,312L72,312L72,324L60,324L60,348L72,348L72,336L84,336L84,324L144,324L144,336L132,336L132,348L120,348L120,360L108,360L108,372L96,372L96,384L84,384L84,396L48,396L48,384L36,384L36,372L24,372L24,360L12,360L12,312L24,312L24,300L36,300L36,288L48,288L48,276L60,276L60,264L72,264L72,192L84,192L84,144L96,144L96,120L108,120L108,96L120,96L120,84L132,84L132,72M252,72L252,72L264,72L264,96L252,96L252,72M264,96L264,96L276,96L276,120L264,120L264,96M252,96L252,96L252,120L240,120L240,96L252,96M144,132L144,132L156,132L156,156L168,156L168,144L180,144L180,132L192,132L192,144L180,144L180,156L168,156L168,168L156,168L156,192L144,192L144,132M264,132L264,132L300,132L300,144L264,144L264,132M264,144L264,144L264,156L252,156L252,144L264,144M348,132L348,132L384,132L384,144L396,144L396,156L408,156L408,168L420,168L420,288L408,288L408,312L396,312L396,336L384,336L384,348L372,348L372,360L348,360L348,372L324,372L324,384L288,384L288,396L252,396L252,384L240,384L240,372L228,372L228,360L216,360L216,372L204,372L204,384L192,384L192,396L204,396L204,408L216,408L216,420L264,420L264,408L300,408L300,396L336,396L336,384L360,384L360,372L384,372L384,360L396,360L396,348L408,348L408,324L468,324L468,348L456,348L456,372L444,372L444,396L432,396L432,408L420,408L420,420L396,420L396,432L372,432L372,444L348,444L348,456L312,456L312,468L192,468L192,456L180,456L180,444L168,444L168,432L156,432L156,420L144,420L144,360L156,360L156,348L168,348L168,336L180,336L180,324L192,324L192,312L252,312L252,324L264,324L264,336L276,336L276,348L288,348L288,336L312,336L312,324L336,324L336,312L348,312L348,300L360,300L360,288L372,288L372,180L360,180L360,276L348,276L348,288L336,288L336,300L324,300L324,312L288,312L288,300L276,300L276,288L264,288L264,276L252,276L252,264L240,264L240,240L228,240L228,252L216,252L216,264L204,264L204,276L192,276L192,288L180,288L180,300L168,300L168,312L108,312L108,300L120,300L120,288L132,288L132,276L144,276L144,264L156,264L156,252L168,252L168,240L180,240L180,228L192,228L192,216L204,216L204,204L216,204L216,192L240,192L240,204L264,204L264,216L276,216L276,228L288,228L288,240L300,240L300,264L312,264L312,168L324,168L324,156L336,156L336,144L348,144L348,132M264,156L264,156L288,156L288,168L264,168L264,156M168,168L168,168L180,168L180,180L168,180L168,168M204,156L204,156L240,156L240,168L204,168L204,156M288,168L288,168L300,168L300,180L288,180L288,168M180,180L180,180L192,180L192,192L180,192L180,180M288,180L288,180L288,192L252,192L252,180Z"></path><path class="finish" d="M228,72L228,72L240,72L240,120L228,120Z"></path><path class="start" d="M240,72L240,72L252,72L252,96L240,96L240,72M264,72L264,72L276,72L276,96L264,96L264,72M288,72L288,72L300,72L300,96L288,96L288,72M252,96L252,96L264,96L264,120L252,120L252,96M276,96L276,96L288,96L288,120L276,120Z"></path></g> <rect opacity=".3" fill="url(#grid)" height="100%" width="100%" y="0" x="0"></rect></svg>