<svg height="480" width="1116" id="mapSvgView" xmlns:xlink="http://www.w3.org/1999/xlink" version="1.1" xmlns="http://www.w3.org/2000/svg"> <defs> <style type="text/css"> .grass {fill: rgb(0, 200, 0);} .road {fill: rgb(128, 128, 128);} .start {fill: url(#startPattern)} .finish {fill: url(#finishPattern)} .mud {fill: rgb(100, 70, 0);} .sand {fill: rgb(230, 230, 115);} .water {fill: blue;} .earth {fill: brown;} .night {fill: black;} .parc {fill: rgb(200, 200, 200);} .cp1color {fill: rgb(0, 102, 255);} .cp2color {fill: rgb(0, 100, 200);} .cp3color {fill: rgb(0, 255, 102);} .cp4color {fill: rgb(0, 200, 0);} .cp5color {fill: rgb(255, 255, 0);} .cp6color {fill: rgb(200, 200, 0);} .cp7color {fill: rgb(255, 0, 0);} .cp8color {fill: rgb(200, 0, 0);} .cp9color {fill: rgb(255, 0, 255);} .cp1 {fill: url(#cp1pattern);} .cp2 {fill: url(#cp2pattern);} .cp3 {fill: url(#cp3pattern);} .cp4 {fill: url(#cp4pattern);} .cp5 {fill: url(#cp5pattern);} .cp6 {fill: url(#cp6pattern);} .cp7 {fill: url(#cp7pattern);} .cp8 {fill: url(#cp8pattern);} .cp9 {fill: url(#cp9pattern);} .primaryColor {fill: rgb(0, 255, 102);} </style> <pattern y="0" x="0" height="12" width="12" patternUnits="userSpaceOnUse" id="grid"> <line stroke-width="1" stroke="black" y2="12" x2="12" y1="0" x1="12"></line> <line stroke-width="1" stroke="black" y2="12" x2="12" y1="12" x1="0"></line> </pattern> <pattern y="0" x="0" height="12" width="12" patternUnits="userSpaceOnUse" id="finishPattern"> <rect fill="black" height="12" width="12" y="0" x="0"></rect> <path fill="white" d="M0,0L3,0L3,3L0,3L0,0M6,0L9,0L9,3L6,3L6,0M3,3L6,3L6,6L3,6L3,3M9,3L12,3L12,6L9,6L9,3"></path> <path fill="white" d="M0,6L3,6L3,9L0,9L0,6M6,6L9,6L9,9L6,9L6,6M3,9L6,9L6,12L3,12L3,9M9,9L12,9L12,12L9,12L9,9"></path> </pattern> <pattern y="0" x="0" height="12" width="12" patternUnits="userSpaceOnUse" id="startPattern"> <rect fill="rgb(100,100,100)" height="12" width="12" y="0" x="0"></rect> <rect stroke-width="1" stroke="rgb(200,200,200)" fill="none" height="5" width="5" y="3.5" x="3.5"></rect> &gt; </pattern> <pattern y="0" x="0" height="12" width="12" patternUnits="userSpaceOnUse" id="cp1pattern"> <rect class="cp1color" height="12" width="12" y="0" x="0"></rect> <path fill="black" d="M0,0L3,0L3,3L0,3L0,0M6,0L9,0L9,3L6,3L6,0M3,3L6,3L6,6L3,6L3,3M9,3L12,3L12,6L9,6L9,3"></path> <path fill="black" d="M0,6L3,6L3,9L0,9L0,6M6,6L9,6L9,9L6,9L6,6M3,9L6,9L6,12L3,12L3,9M9,9L12,9L12,12L9,12L9,9"></path> </pattern> <pattern y="0" x="0" height="12" width="12" patternUnits="userSpaceOnUse" id="cp2pattern"> <rect class="cp2color" height="12" width="12" y="0" x="0"></rect> <path fill="white" d="M0,0L3,0L3,3L0,3L0,0M6,0L9,0L9,3L6,3L6,0M3,3L6,3L6,6L3,6L3,3M9,3L12,3L12,6L9,6L9,3"></path> <path fill="white" d="M0,6L3,6L3,9L0,9L0,6M6,6L9,6L9,9L6,9L6,6M3,9L6,9L6,12L3,12L3,9M9,9L12,9L12,12L9,12L9,9"></path> </pattern> <pattern y="0" x="0" height="12" width="12" patternUnits="userSpaceOnUse" id="cp3pattern"> <rect class="cp3color" height="12" width="12" y="0" x="0"></rect> <path fill="black" d="M0,0L3,0L3,3L0,3L0,0M6,0L9,0L9,3L6,3L6,0M3,3L6,3L6,6L3,6L3,3M9,3L12,3L12,6L9,6L9,3"></path> <path fill="black" d="M0,6L3,6L3,9L0,9L0,6M6,6L9,6L9,9L6,9L6,6M3,9L6,9L6,12L3,12L3,9M9,9L12,9L12,12L9,12L9,9"></path> </pattern> <pattern y="0" x="0" height="12" width="12" patternUnits="userSpaceOnUse" id="cp4pattern"> <rect class="cp4color" height="12" width="12" y="0" x="0"></rect> <path fill="white" d="M0,0L3,0L3,3L0,3L0,0M6,0L9,0L9,3L6,3L6,0M3,3L6,3L6,6L3,6L3,3M9,3L12,3L12,6L9,6L9,3"></path> <path fill="white" d="M0,6L3,6L3,9L0,9L0,6M6,6L9,6L9,9L6,9L6,6M3,9L6,9L6,12L3,12L3,9M9,9L12,9L12,12L9,12L9,9"></path> </pattern> <pattern y="0" x="0" height="12" width="12" patternUnits="userSpaceOnUse" id="cp5pattern"> <rect class="cp5color" height="12" width="12" y="0" x="0"></rect> <path fill="black" d="M0,0L3,0L3,3L0,3L0,0M6,0L9,0L9,3L6,3L6,0M3,3L6,3L6,6L3,6L3,3M9,3L12,3L12,6L9,6L9,3"></path> <path fill="black" d="M0,6L3,6L3,9L0,9L0,6M6,6L9,6L9,9L6,9L6,6M3,9L6,9L6,12L3,12L3,9M9,9L12,9L12,12L9,12L9,9"></path> </pattern> <pattern y="0" x="0" height="12" width="12" patternUnits="userSpaceOnUse" id="cp6pattern"> <rect class="cp6color" height="12" width="12" y="0" x="0"></rect> <path fill="white" d="M0,0L3,0L3,3L0,3L0,0M6,0L9,0L9,3L6,3L6,0M3,3L6,3L6,6L3,6L3,3M9,3L12,3L12,6L9,6L9,3"></path> <path fill="white" d="M0,6L3,6L3,9L0,9L0,6M6,6L9,6L9,9L6,9L6,6M3,9L6,9L6,12L3,12L3,9M9,9L12,9L12,12L9,12L9,9"></path> </pattern> <pattern y="0" x="0" height="12" width="12" patternUnits="userSpaceOnUse" id="cp7pattern"> <rect class="cp7color" height="12" width="12" y="0" x="0"></rect> <path fill="black" d="M0,0L3,0L3,3L0,3L0,0M6,0L9,0L9,3L6,3L6,0M3,3L6,3L6,6L3,6L3,3M9,3L12,3L12,6L9,6L9,3"></path> <path fill="black" d="M0,6L3,6L3,9L0,9L0,6M6,6L9,6L9,9L6,9L6,6M3,9L6,9L6,12L3,12L3,9M9,9L12,9L12,12L9,12L9,9"></path> </pattern> <pattern y="0" x="0" height="12" width="12" patternUnits="userSpaceOnUse" id="cp8pattern"> <rect class="cp8color" height="12" width="12" y="0" x="0"></rect> <path fill="white" d="M0,0L3,0L3,3L0,3L0,0M6,0L9,0L9,3L6,3L6,0M3,3L6,3L6,6L3,6L3,3M9,3L12,3L12,6L9,6L9,3"></path> <path fill="white" d="M0,6L3,6L3,9L0,9L0,6M6,6L9,6L9,9L6,9L6,6M3,9L6,9L6,12L3,12L3,9M9,9L12,9L12,12L9,12L9,9"></path> </pattern> <pattern y="0" x="0" height="12" width="12" patternUnits="userSpaceOnUse" id="cp9pattern"> <rect class="cp9color" height="12" width="12" y="0" x="0"></rect> <path fill="black" d="M0,0L3,0L3,3L0,3L0,0M6,0L9,0L9,3L6,3L6,0M3,3L6,3L6,6L3,6L3,3M9,3L12,3L12,6L9,6L9,3"></path> <path fill="black" d="M0,6L3,6L3,9L0,9L0,6M6,6L9,6L9,9L6,9L6,6M3,9L6,9L6,12L3,12L3,9M9,9L12,9L12,12L9,12L9,9"></path> </pattern> </defs> <rect height="100%" width="100%" y="0" x="0" class="grass" id="mainfill"></rect> <g id="paths"><path class="cp1" d="M492,180L492,180L516,180L516,192L528,192L528,204L540,204L540,216L552,216L552,228L564,228L564,240L540,240L540,228L528,228L528,216L516,216L516,204L504,204L504,192L492,192Z"></path><path class="cp2" d="M684,180L684,180L696,180L696,204L684,204L684,216L672,216L672,228L660,228L660,240L648,240L648,252L636,252L636,228L648,228L648,216L660,216L660,204L672,204L672,192L684,192Z"></path><path class="parc" d="M0,0L0,0L12,0L12,72L0,72Z"></path><path class="road" d="M84,12L84,12L168,12L168,24L420,24L420,36L432,36L432,84L420,84L420,96L396,96L396,108L384,108L384,120L360,120L360,132L348,132L348,144L336,144L336,156L324,156L324,168L312,168L312,180L300,180L300,192L288,192L288,204L276,204L276,216L264,216L264,228L252,228L252,252L240,252L240,264L228,264L228,276L216,276L216,288L204,288L204,312L192,312L192,324L180,324L180,336L168,336L168,360L156,360L156,372L420,372L420,384L432,384L432,420L492,420L492,408L480,408L480,396L468,396L468,372L456,372L456,252L468,252L468,216L480,216L480,204L492,204L492,192L504,192L504,204L516,204L516,216L528,216L528,228L540,228L540,240L552,240L552,252L540,252L540,288L528,288L528,336L540,336L540,360L552,360L552,372L564,372L564,384L600,384L600,372L624,372L624,360L636,360L636,324L648,324L648,264L636,264L636,252L648,252L648,240L660,240L660,228L672,228L672,216L684,216L684,204L708,204L708,228L720,228L720,360L708,360L708,384L696,384L696,408L684,408L684,420L804,420L804,408L792,408L792,396L780,396L780,384L768,384L768,360L756,360L756,240L768,240L768,204L780,204L780,180L792,180L792,156L804,156L804,132L816,132L816,120L828,120L828,108L840,108L840,96L852,96L852,84L864,84L864,72L876,72L876,60L888,60L888,48L900,48L900,36L924,36L924,24L1032,24L1032,12L1068,12L1068,24L1080,24L1080,48L1092,48L1092,96L1080,96L1080,108L1068,108L1068,120L1008,120L1008,108L996,108L996,96L960,96L960,108L936,108L936,120L924,120L924,132L912,132L912,144L900,144L900,156L888,156L888,168L876,168L876,192L864,192L864,204L852,204L852,240L840,240L840,276L828,276L828,324L840,324L840,348L852,348L852,360L864,360L864,372L948,372L948,360L972,360L972,348L996,348L996,336L1008,336L1008,324L1068,324L1068,348L1080,348L1080,372L1068,372L1068,384L1056,384L1056,396L1044,396L1044,408L1032,408L1032,420L1008,420L1008,432L984,432L984,444L936,444L936,456L864,456L864,444L636,444L636,456L540,456L540,444L408,444L408,456L72,456L72,444L48,444L48,384L60,384L60,360L72,360L72,348L84,348L84,336L96,336L96,312L108,312L108,300L120,300L120,288L132,288L132,264L144,264L144,252L156,252L156,240L168,240L168,216L180,216L180,204L192,204L192,192L204,192L204,168L216,168L216,156L228,156L228,144L240,144L240,132L252,132L252,120L264,120L264,108L276,108L276,96L288,96L288,84L264,84L264,96L84,96L84,12M60,24L60,24L72,24L72,84L60,84L60,72L48,72L48,36L60,36L60,24M552,144L552,144L648,144L648,156L672,156L672,168L684,168L684,192L672,192L672,204L660,204L660,216L648,216L648,228L636,228L636,240L624,240L624,228L612,228L612,216L576,216L576,228L552,228L552,216L540,216L540,204L528,204L528,192L516,192L516,180L504,180L504,168L528,168L528,156L552,156Z"></path><path class="start" d="M72,24L72,24L84,24L84,96L72,96Z"></path><path class="finish" d="M1080,96L1080,96L1092,96L1092,120L1080,120L1080,132L1068,132L1068,144L1032,144L1032,132L1020,132L1020,120L1068,120L1068,108L1080,108Z"></path></g> <rect opacity=".3" fill="url(#grid)" height="100%" width="100%" y="0" x="0"></rect></svg>