<svg height="996" width="1464" id="mapSvgView" xmlns:xlink="http://www.w3.org/1999/xlink" version="1.1" xmlns="http://www.w3.org/2000/svg"> <defs> <style type="text/css"> .grass {fill: rgb(0, 200, 0);} .road {fill: rgb(128, 128, 128);} .start {fill: url(#startPattern)} .finish {fill: url(#finishPattern)} .mud {fill: rgb(100, 70, 0);} .sand {fill: rgb(230, 230, 115);} .water {fill: blue;} .earth {fill: brown;} .night {fill: black;} .parc {fill: rgb(200, 200, 200);} .cp1color {fill: rgb(0, 102, 255);} .cp2color {fill: rgb(0, 100, 200);} .cp3color {fill: rgb(0, 255, 102);} .cp4color {fill: rgb(0, 200, 0);} .cp5color {fill: rgb(255, 255, 0);} .cp6color {fill: rgb(200, 200, 0);} .cp7color {fill: rgb(255, 0, 0);} .cp8color {fill: rgb(200, 0, 0);} .cp9color {fill: rgb(255, 0, 255);} .cp1 {fill: url(#cp1pattern);} .cp2 {fill: url(#cp2pattern);} .cp3 {fill: url(#cp3pattern);} .cp4 {fill: url(#cp4pattern);} .cp5 {fill: url(#cp5pattern);} .cp6 {fill: url(#cp6pattern);} .cp7 {fill: url(#cp7pattern);} .cp8 {fill: url(#cp8pattern);} .cp9 {fill: url(#cp9pattern);} .primaryColor {fill: rgb(0, 255, 102);} </style> <pattern y="0" x="0" height="12" width="12" patternUnits="userSpaceOnUse" id="grid"> <line stroke-width="1" stroke="black" y2="12" x2="12" y1="0" x1="12"></line> <line stroke-width="1" stroke="black" y2="12" x2="12" y1="12" x1="0"></line> </pattern> <pattern y="0" x="0" height="12" width="12" patternUnits="userSpaceOnUse" id="finishPattern"> <rect fill="black" height="12" width="12" y="0" x="0"></rect> <path fill="white" d="M0,0L3,0L3,3L0,3L0,0M6,0L9,0L9,3L6,3L6,0M3,3L6,3L6,6L3,6L3,3M9,3L12,3L12,6L9,6L9,3"></path> <path fill="white" d="M0,6L3,6L3,9L0,9L0,6M6,6L9,6L9,9L6,9L6,6M3,9L6,9L6,12L3,12L3,9M9,9L12,9L12,12L9,12L9,9"></path> </pattern> <pattern y="0" x="0" height="12" width="12" patternUnits="userSpaceOnUse" id="startPattern"> <rect fill="rgb(100,100,100)" height="12" width="12" y="0" x="0"></rect> <rect stroke-width="1" stroke="rgb(200,200,200)" fill="none" height="5" width="5" y="3.5" x="3.5"></rect> &gt; </pattern> <pattern y="0" x="0" height="12" width="12" patternUnits="userSpaceOnUse" id="cp1pattern"> <rect class="cp1color" height="12" width="12" y="0" x="0"></rect> <path fill="black" d="M0,0L3,0L3,3L0,3L0,0M6,0L9,0L9,3L6,3L6,0M3,3L6,3L6,6L3,6L3,3M9,3L12,3L12,6L9,6L9,3"></path> <path fill="black" d="M0,6L3,6L3,9L0,9L0,6M6,6L9,6L9,9L6,9L6,6M3,9L6,9L6,12L3,12L3,9M9,9L12,9L12,12L9,12L9,9"></path> </pattern> <pattern y="0" x="0" height="12" width="12" patternUnits="userSpaceOnUse" id="cp2pattern"> <rect class="cp2color" height="12" width="12" y="0" x="0"></rect> <path fill="white" d="M0,0L3,0L3,3L0,3L0,0M6,0L9,0L9,3L6,3L6,0M3,3L6,3L6,6L3,6L3,3M9,3L12,3L12,6L9,6L9,3"></path> <path fill="white" d="M0,6L3,6L3,9L0,9L0,6M6,6L9,6L9,9L6,9L6,6M3,9L6,9L6,12L3,12L3,9M9,9L12,9L12,12L9,12L9,9"></path> </pattern> <pattern y="0" x="0" height="12" width="12" patternUnits="userSpaceOnUse" id="cp3pattern"> <rect class="cp3color" height="12" width="12" y="0" x="0"></rect> <path fill="black" d="M0,0L3,0L3,3L0,3L0,0M6,0L9,0L9,3L6,3L6,0M3,3L6,3L6,6L3,6L3,3M9,3L12,3L12,6L9,6L9,3"></path> <path fill="black" d="M0,6L3,6L3,9L0,9L0,6M6,6L9,6L9,9L6,9L6,6M3,9L6,9L6,12L3,12L3,9M9,9L12,9L12,12L9,12L9,9"></path> </pattern> <pattern y="0" x="0" height="12" width="12" patternUnits="userSpaceOnUse" id="cp4pattern"> <rect class="cp4color" height="12" width="12" y="0" x="0"></rect> <path fill="white" d="M0,0L3,0L3,3L0,3L0,0M6,0L9,0L9,3L6,3L6,0M3,3L6,3L6,6L3,6L3,3M9,3L12,3L12,6L9,6L9,3"></path> <path fill="white" d="M0,6L3,6L3,9L0,9L0,6M6,6L9,6L9,9L6,9L6,6M3,9L6,9L6,12L3,12L3,9M9,9L12,9L12,12L9,12L9,9"></path> </pattern> <pattern y="0" x="0" height="12" width="12" patternUnits="userSpaceOnUse" id="cp5pattern"> <rect class="cp5color" height="12" width="12" y="0" x="0"></rect> <path fill="black" d="M0,0L3,0L3,3L0,3L0,0M6,0L9,0L9,3L6,3L6,0M3,3L6,3L6,6L3,6L3,3M9,3L12,3L12,6L9,6L9,3"></path> <path fill="black" d="M0,6L3,6L3,9L0,9L0,6M6,6L9,6L9,9L6,9L6,6M3,9L6,9L6,12L3,12L3,9M9,9L12,9L12,12L9,12L9,9"></path> </pattern> <pattern y="0" x="0" height="12" width="12" patternUnits="userSpaceOnUse" id="cp6pattern"> <rect class="cp6color" height="12" width="12" y="0" x="0"></rect> <path fill="white" d="M0,0L3,0L3,3L0,3L0,0M6,0L9,0L9,3L6,3L6,0M3,3L6,3L6,6L3,6L3,3M9,3L12,3L12,6L9,6L9,3"></path> <path fill="white" d="M0,6L3,6L3,9L0,9L0,6M6,6L9,6L9,9L6,9L6,6M3,9L6,9L6,12L3,12L3,9M9,9L12,9L12,12L9,12L9,9"></path> </pattern> <pattern y="0" x="0" height="12" width="12" patternUnits="userSpaceOnUse" id="cp7pattern"> <rect class="cp7color" height="12" width="12" y="0" x="0"></rect> <path fill="black" d="M0,0L3,0L3,3L0,3L0,0M6,0L9,0L9,3L6,3L6,0M3,3L6,3L6,6L3,6L3,3M9,3L12,3L12,6L9,6L9,3"></path> <path fill="black" d="M0,6L3,6L3,9L0,9L0,6M6,6L9,6L9,9L6,9L6,6M3,9L6,9L6,12L3,12L3,9M9,9L12,9L12,12L9,12L9,9"></path> </pattern> <pattern y="0" x="0" height="12" width="12" patternUnits="userSpaceOnUse" id="cp8pattern"> <rect class="cp8color" height="12" width="12" y="0" x="0"></rect> <path fill="white" d="M0,0L3,0L3,3L0,3L0,0M6,0L9,0L9,3L6,3L6,0M3,3L6,3L6,6L3,6L3,3M9,3L12,3L12,6L9,6L9,3"></path> <path fill="white" d="M0,6L3,6L3,9L0,9L0,6M6,6L9,6L9,9L6,9L6,6M3,9L6,9L6,12L3,12L3,9M9,9L12,9L12,12L9,12L9,9"></path> </pattern> <pattern y="0" x="0" height="12" width="12" patternUnits="userSpaceOnUse" id="cp9pattern"> <rect class="cp9color" height="12" width="12" y="0" x="0"></rect> <path fill="black" d="M0,0L3,0L3,3L0,3L0,0M6,0L9,0L9,3L6,3L6,0M3,3L6,3L6,6L3,6L3,3M9,3L12,3L12,6L9,6L9,3"></path> <path fill="black" d="M0,6L3,6L3,9L0,9L0,6M6,6L9,6L9,9L6,9L6,6M3,9L6,9L6,12L3,12L3,9M9,9L12,9L12,12L9,12L9,9"></path> </pattern> </defs> <rect height="100%" width="100%" y="0" x="0" class="grass" id="mainfill"></rect> <g id="paths"><path class="cp1" d="M456,132L456,132L468,132L468,180L456,180Z"></path><path class="cp2" d="M552,708L552,708L564,708L564,756L552,756Z"></path><path class="cp3" d="M924,12L924,12L936,12L936,60L924,60Z"></path><path class="cp4" d="M1068,612L1068,612L1080,612L1080,660L1068,660Z"></path><path class="cp5" d="M672,936L672,936L684,936L684,984L672,984Z"></path><path class="parc" d="M0,0L0,0L12,0L12,108L0,108Z"></path><path class="road" d="M876,12L876,12L924,12L924,60L888,60L888,72L828,72L828,84L792,84L792,96L768,96L768,108L744,108L744,144L756,144L756,156L780,156L780,168L816,168L816,180L840,180L840,192L876,192L876,204L912,204L912,216L936,216L936,228L972,228L972,240L984,240L984,252L1008,252L1008,264L1020,264L1020,240L1032,240L1032,192L1044,192L1044,108L1032,108L1032,84L1008,84L1008,72L960,72L960,60L936,60L936,12L984,12L984,24L1020,24L1020,36L1044,36L1044,48L1056,48L1056,60L1068,60L1068,72L1080,72L1080,96L1092,96L1092,204L1080,204L1080,264L1068,264L1068,312L1080,312L1080,336L1092,336L1092,420L1104,420L1104,444L1092,444L1092,432L1080,432L1080,444L1068,444L1068,456L1056,456L1056,444L1044,444L1044,348L1020,348L1020,360L1008,360L1008,372L984,372L984,384L972,384L972,396L936,396L936,408L768,408L768,420L708,420L708,432L672,432L672,444L660,444L660,432L648,432L648,444L636,444L636,432L624,432L624,420L612,420L612,408L636,408L636,396L660,396L660,384L696,384L696,372L744,372L744,360L912,360L912,348L948,348L948,336L972,336L972,324L984,324L984,300L972,300L972,288L948,288L948,276L924,276L924,264L888,264L888,252L864,252L864,240L828,240L828,228L804,228L804,216L768,216L768,204L744,204L744,192L720,192L720,180L708,180L708,168L696,168L696,144L684,144L684,108L696,108L696,96L708,96L708,72L732,72L732,60L744,60L744,48L780,48L780,36L804,36L804,24L876,24L876,12M432,132L432,132L456,132L456,192L396,192L396,204L372,204L372,216L360,216L360,240L348,240L348,276L360,276L360,300L372,300L372,312L384,312L384,324L396,324L396,336L420,336L420,348L444,348L444,372L456,372L456,360L468,360L468,348L492,348L492,336L516,336L516,324L528,324L528,312L540,312L540,300L552,300L552,288L564,288L564,276L576,276L576,228L564,228L564,216L552,216L552,204L528,204L528,192L480,192L480,180L468,180L468,132L492,132L492,144L540,144L540,156L576,156L576,168L588,168L588,180L600,180L600,192L612,192L612,216L624,216L624,300L612,300L612,312L600,312L600,324L588,324L588,336L576,336L576,348L564,348L564,360L552,360L552,372L528,372L528,384L540,384L540,396L576,396L576,408L600,408L600,420L588,420L588,432L576,432L576,444L564,444L564,456L552,456L552,468L564,468L564,456L576,456L576,444L588,444L588,432L600,432L600,420L612,420L612,432L600,432L600,444L588,444L588,456L576,456L576,468L564,468L564,480L576,480L576,468L588,468L588,456L600,456L600,444L612,444L612,432L624,432L624,444L612,444L612,456L600,456L600,468L588,468L588,492L564,492L564,504L540,504L540,516L528,516L528,528L504,528L504,540L480,540L480,552L468,552L468,564L456,564L456,588L444,588L444,660L456,660L456,672L468,672L468,684L480,684L480,696L504,696L504,708L552,708L552,756L492,756L492,744L456,744L456,732L444,732L444,720L432,720L432,708L420,708L420,696L408,696L408,684L396,684L396,576L408,576L408,552L420,552L420,528L432,528L432,516L444,516L444,504L468,504L468,492L480,492L480,480L504,480L504,468L528,468L528,456L540,456L540,444L528,444L528,432L492,432L492,420L468,420L468,408L444,408L444,396L432,396L432,408L444,408L444,420L420,420L420,432L372,432L372,444L336,444L336,456L288,456L288,468L180,468L180,480L156,480L156,492L144,492L144,516L132,516L132,528L120,528L120,564L108,564L108,588L96,588L96,636L84,636L84,672L72,672L72,660L60,660L60,672L48,672L48,660L36,660L36,612L48,612L48,576L60,576L60,540L72,540L72,516L84,516L84,492L96,492L96,480L108,480L108,468L120,468L120,444L144,444L144,432L168,432L168,420L264,420L264,408L312,408L312,396L360,396L360,384L372,384L372,372L360,372L360,360L348,360L348,348L336,348L336,336L324,336L324,324L312,324L312,288L300,288L300,228L312,228L312,204L324,204L324,180L348,180L348,168L360,168L360,156L384,156L384,144L432,144L432,132M1212,156L1212,156L1248,156L1248,168L1284,168L1284,180L1308,180L1308,192L1320,192L1320,204L1344,204L1344,228L1356,228L1356,240L1368,240L1368,252L1380,252L1380,276L1392,276L1392,288L1404,288L1404,312L1416,312L1416,336L1428,336L1428,372L1440,372L1440,420L1452,420L1452,516L1440,516L1440,564L1428,564L1428,588L1416,588L1416,612L1404,612L1404,636L1392,636L1392,648L1380,648L1380,660L1356,660L1356,672L1344,672L1344,684L1320,684L1320,696L1296,696L1296,708L1272,708L1272,720L1200,720L1200,732L1032,732L1032,744L960,744L960,756L912,756L912,768L864,768L864,780L828,780L828,792L792,792L792,804L756,804L756,816L732,816L732,828L708,828L708,840L684,840L684,852L696,852L696,864L720,864L720,876L744,876L744,888L756,888L756,900L768,900L768,960L756,960L756,972L720,972L720,984L684,984L684,936L708,936L708,912L684,912L684,900L648,900L648,876L636,876L636,924L648,924L648,936L672,936L672,984L636,984L636,972L612,972L612,960L600,960L600,948L588,948L588,912L576,912L576,888L588,888L588,864L576,864L576,876L564,876L564,864L516,864L516,852L408,852L408,840L360,840L360,852L252,852L252,864L180,864L180,876L48,876L48,864L36,864L36,852L24,852L24,828L12,828L12,732L24,732L24,720L72,720L72,756L60,756L60,816L72,816L72,828L168,828L168,816L240,816L240,804L324,804L324,792L432,792L432,804L528,804L528,816L588,816L588,828L612,828L612,840L624,840L624,828L636,828L636,816L648,816L648,804L672,804L672,792L696,792L696,780L720,780L720,768L744,768L744,756L768,756L768,744L804,744L804,732L840,732L840,720L888,720L888,708L936,708L936,696L1008,696L1008,684L1164,684L1164,672L1248,672L1248,660L1284,660L1284,648L1308,648L1308,636L1332,636L1332,624L1344,624L1344,612L1356,612L1356,588L1368,588L1368,576L1380,576L1380,552L1392,552L1392,504L1404,504L1404,444L1392,444L1392,384L1380,384L1380,348L1368,348L1368,324L1356,324L1356,312L1344,312L1344,288L1332,288L1332,276L1320,276L1320,252L1308,252L1308,240L1284,240L1284,228L1272,228L1272,216L1188,216L1188,228L1164,228L1164,240L1152,240L1152,252L1140,252L1140,288L1164,288L1164,300L1224,300L1224,312L1248,312L1248,324L1260,324L1260,348L1272,348L1272,408L1260,408L1260,432L1248,432L1248,444L1224,444L1224,456L1212,456L1212,468L1164,468L1164,492L1188,492L1188,504L1200,504L1200,516L1212,516L1212,540L1224,540L1224,588L1212,588L1212,612L1200,612L1200,624L1188,624L1188,636L1164,636L1164,648L1128,648L1128,660L1080,660L1080,612L1116,612L1116,600L1152,600L1152,588L1164,588L1164,576L1176,576L1176,552L1164,552L1164,540L1152,540L1152,528L1128,528L1128,516L1116,516L1116,504L1104,504L1104,492L1080,492L1080,504L1068,504L1068,516L1044,516L1044,528L1032,528L1032,540L1020,540L1020,552L1008,552L1008,576L996,576L996,588L1008,588L1008,600L1020,600L1020,612L1068,612L1068,660L996,660L996,648L984,648L984,636L960,636L960,612L948,612L948,564L960,564L960,540L972,540L972,516L984,516L984,504L996,504L996,492L1008,492L1008,480L1032,480L1032,468L1044,468L1044,456L1056,456L1056,468L1044,468L1044,480L1056,480L1056,468L1068,468L1068,456L1080,456L1080,444L1092,444L1092,456L1080,456L1080,468L1092,468L1092,456L1104,456L1104,444L1116,444L1116,432L1128,432L1128,420L1188,420L1188,408L1212,408L1212,384L1224,384L1224,360L1200,360L1200,348L1140,348L1140,336L1116,336L1116,324L1092,324L1092,288L1080,288L1080,276L1092,276L1092,240L1104,240L1104,216L1116,216L1116,204L1128,204L1128,192L1140,192L1140,180L1164,180L1164,168L1212,168L1212,156M1032,264L1032,264L1020,264L1020,276L1008,276L1008,288L996,288L996,300L1008,300L1008,288L1020,288L1020,276L1032,276L1032,264M1044,276L1044,276L1032,276L1032,288L1020,288L1020,300L1008,300L1008,312L1020,312L1020,300L1032,300L1032,288L1044,288L1044,276M1056,288L1056,288L1044,288L1044,300L1032,300L1032,312L1020,312L1020,324L1032,324L1032,312L1044,312L1044,300L1056,300L1056,288M432,360L432,360L420,360L420,372L408,372L408,384L396,384L396,396L408,396L408,384L420,384L420,372L432,372L432,360M480,360L480,360L468,360L468,372L456,372L456,384L444,384L444,396L456,396L456,384L468,384L468,372L480,372L480,360M504,360L504,360L492,360L492,372L480,372L480,384L468,384L468,396L480,396L480,384L492,384L492,372L504,372L504,360M516,372L516,372L504,372L504,384L516,384L516,372M420,396L420,396L408,396L408,408L420,408L420,396M492,396L492,396L480,396L480,408L492,408L492,396M624,444L624,444L636,444L636,456L624,456L624,444M648,444L648,444L660,444L660,456L648,456L648,444M1128,444L1128,444L1116,444L1116,456L1128,456L1128,444M612,456L612,456L624,456L624,468L612,468L612,456M636,456L636,456L648,456L648,468L660,468L660,456L672,456L672,468L684,468L684,480L696,480L696,504L708,504L708,528L720,528L720,672L708,672L708,696L696,696L696,708L684,708L684,720L672,720L672,732L648,732L648,744L624,744L624,756L564,756L564,708L612,708L612,696L636,696L636,684L648,684L648,672L660,672L660,660L672,660L672,552L660,552L660,516L648,516L648,504L636,504L636,492L612,492L612,480L600,480L600,468L612,468L612,480L624,480L624,468L636,468L636,456M1140,456L1140,456L1128,456L1128,468L1140,468L1140,456M1104,468L1104,468L1092,468L1092,480L1104,480L1104,468M1152,468L1152,468L1140,468L1140,480L1128,480L1128,492L1140,492L1140,480L1152,480L1152,468M1068,480L1068,480L1056,480L1056,492L1068,492L1068,480M1116,480L1116,480L1104,480L1104,492L1116,492L1116,480M36,660L36,660L36,672L24,672L24,660L36,660M36,672L36,672L48,672L48,684L36,684L36,672M60,672L60,672L72,672L72,684L60,684L60,672M48,684L48,684L60,684L60,696L48,696L48,684M36,684L36,684L36,696L24,696L24,684L36,684M36,696L36,696L48,696L48,708L36,708L36,696M60,696L60,696L72,696L72,708L60,708L60,696M1380,756L1380,756L1428,756L1428,792L1416,792L1416,768L1392,768L1392,792L1380,792L1380,756M1392,792L1392,792L1416,792L1416,804L1392,804L1392,792M648,828L648,828L636,828L636,840L624,840L624,852L612,852L612,864L600,864L600,876L612,876L612,864L624,864L624,852L636,852L636,840L648,840L648,828M1392,816L1392,816L1416,816L1416,828L1392,828L1392,816M1392,828L1392,828L1392,852L1416,852L1416,828L1428,828L1428,864L1368,864L1368,852L1380,852L1380,828L1392,828M660,840L660,840L648,840L648,852L660,852L660,840M672,852L672,852L660,852L660,864L648,864L648,876L660,876L660,864L672,864L672,852M624,876L624,876L612,876L612,888L624,888L624,876M1380,876L1380,876L1428,876L1428,912L1416,912L1416,888L1392,888L1392,912L1380,912L1380,876M1392,912L1392,912L1416,912L1416,924L1392,924L1392,912M1380,936L1380,936L1440,936L1440,948L1428,948L1428,972L1416,972L1416,948L1380,948L1380,936M1440,948L1440,948L1452,948L1452,972L1440,972L1440,948M1416,972L1416,972L1416,984L1380,984L1380,972Z"></path><path class="start" d="M36,660L36,660L48,660L48,672L36,672L36,660M48,672L48,672L60,672L60,660L72,660L72,672L60,672L60,684L48,684L48,672M36,672L36,672L36,684L24,684L24,672L36,672M72,672L72,672L84,672L84,684L72,684L72,672M36,684L36,684L48,684L48,696L36,696L36,684M60,684L60,684L72,684L72,696L60,696L60,684M48,696L48,696L60,696L60,708L48,708L48,696M36,696L36,696L36,708L24,708L24,696Z"></path><path class="finish" d="M24,708L24,708L72,708L72,720L24,720Z"></path></g> <rect opacity=".3" fill="url(#grid)" height="100%" width="100%" y="0" x="0"></rect></svg>